<?xml version="1.0" encoding="UTF-8" standalone="no"?>
<!DOCTYPE svg PUBLIC "-//W3C//DTD SVG 1.1//EN"
 "http://www.w3.org/Graphics/SVG/1.1/DTD/svg11.dtd">
<!-- Generated by graphviz version 2.38.0 (20140413.2041)
 -->
<!-- Title: SDK::FTargetSkillsetProgressionPair Pages: 1 -->
<svg width="185pt" height="182pt"
 viewBox="0.00 0.00 185.00 182.00" xmlns="http://www.w3.org/2000/svg" xmlns:xlink="http://www.w3.org/1999/xlink">
<g id="graph0" class="graph" transform="scale(1 1) rotate(0) translate(4 178)">
<title>SDK::FTargetSkillsetProgressionPair</title>
<!-- Node1 -->
<g id="node1" class="node"><title>Node1</title>
<g id="a_node1"><a xlink:title=" ">
<polygon fill="#bfbfbf" stroke="black" points="0,-0.5 0,-57.5 177,-57.5 177,-0.5 0,-0.5"/>
<text text-anchor="middle" x="88.5" y="-45.5" font-family="Helvetica,sans-Serif" font-size="10.00">SDK::FTargetSkillsetProgressionPair</text>
<polyline fill="none" stroke="black" points="0,-38.5 177,-38.5 "/>
<text text-anchor="middle" x="88.5" y="-26.5" font-family="Helvetica,sans-Serif" font-size="10.00"> </text>
<polyline fill="none" stroke="black" points="0,-19.5 177,-19.5 "/>
<text text-anchor="middle" x="88.5" y="-7.5" font-family="Helvetica,sans-Serif" font-size="10.00"> </text>
</a>
</g>
</g>
<!-- Node2 -->
<g id="node2" class="node"><title>Node2</title>
<g id="a_node2"><a xlink:href="a26207.html" target="_top" xlink:title=" ">
<polygon fill="none" stroke="red" points="17,-116.5 17,-173.5 160,-173.5 160,-116.5 17,-116.5"/>
<text text-anchor="middle" x="88.5" y="-161.5" font-family="Helvetica,sans-Serif" font-size="10.00">SDK::FStringAssetReference</text>
<polyline fill="none" stroke="red" points="17,-154.5 160,-154.5 "/>
<text text-anchor="middle" x="88.5" y="-142.5" font-family="Helvetica,sans-Serif" font-size="10.00"> </text>
<polyline fill="none" stroke="red" points="17,-135.5 160,-135.5 "/>
<text text-anchor="middle" x="88.5" y="-123.5" font-family="Helvetica,sans-Serif" font-size="10.00"> </text>
</a>
</g>
</g>
<!-- Node2&#45;&gt;Node1 -->
<g id="edge1" class="edge"><title>Node2&#45;&gt;Node1</title>
<path fill="none" stroke="#404040" d="M88.5,-116.404C88.5,-102.504 88.5,-85.3915 88.5,-70.073"/>
<polygon fill="none" stroke="#404040" points="88.5001,-69.7372 84.5,-63.7372 88.5,-57.7372 92.5,-63.7372 88.5001,-69.7372"/>
<text text-anchor="middle" x="124.5" y="-90" font-family="Helvetica,sans-Serif" font-size="10.00"> +CrewSkillset</text>
<text text-anchor="middle" x="124.5" y="-79" font-family="Helvetica,sans-Serif" font-size="10.00">+CaptainSkillset</text>
</g>
</g>
</svg>
