<?xml version="1.0" encoding="UTF-8" standalone="no"?>
<!DOCTYPE svg PUBLIC "-//W3C//DTD SVG 1.1//EN"
 "http://www.w3.org/Graphics/SVG/1.1/DTD/svg11.dtd">
<!-- Generated by graphviz version 2.38.0 (20140413.2041)
 -->
<!-- Title: SDK::UBTDecorator_BlackboardBase Pages: 1 -->
<svg width="282pt" height="171pt"
 viewBox="0.00 0.00 281.50 171.00" xmlns="http://www.w3.org/2000/svg" xmlns:xlink="http://www.w3.org/1999/xlink">
<g id="graph0" class="graph" transform="scale(1 1) rotate(0) translate(4 167)">
<title>SDK::UBTDecorator_BlackboardBase</title>
<!-- Node1 -->
<g id="node1" class="node"><title>Node1</title>
<g id="a_node1"><a xlink:title=" ">
<polygon fill="#bfbfbf" stroke="black" points="35,-0.5 35,-57.5 215,-57.5 215,-0.5 35,-0.5"/>
<text text-anchor="middle" x="125" y="-45.5" font-family="Helvetica,sans-Serif" font-size="10.00">SDK::UBTDecorator_BlackboardBase</text>
<polyline fill="none" stroke="black" points="35,-38.5 215,-38.5 "/>
<text text-anchor="middle" x="125" y="-26.5" font-family="Helvetica,sans-Serif" font-size="10.00"> </text>
<polyline fill="none" stroke="black" points="35,-19.5 215,-19.5 "/>
<text text-anchor="start" x="43" y="-7.5" font-family="Helvetica,sans-Serif" font-size="10.00">+ StaticClass()</text>
</a>
</g>
</g>
<!-- Node2 -->
<g id="node2" class="node"><title>Node2</title>
<g id="a_node2"><a xlink:href="a00795.html" target="_top" xlink:title=" ">
<polygon fill="none" stroke="red" points="0,-105.5 0,-162.5 104,-162.5 104,-105.5 0,-105.5"/>
<text text-anchor="middle" x="52" y="-150.5" font-family="Helvetica,sans-Serif" font-size="10.00">SDK::UBTDecorator</text>
<polyline fill="none" stroke="red" points="0,-143.5 104,-143.5 "/>
<text text-anchor="middle" x="52" y="-131.5" font-family="Helvetica,sans-Serif" font-size="10.00"> </text>
<polyline fill="none" stroke="red" points="0,-124.5 104,-124.5 "/>
<text text-anchor="start" x="8" y="-112.5" font-family="Helvetica,sans-Serif" font-size="10.00">+ StaticClass()</text>
</a>
</g>
</g>
<!-- Node2&#45;&gt;Node1 -->
<g id="edge1" class="edge"><title>Node2&#45;&gt;Node1</title>
<path fill="none" stroke="midnightblue" d="M77.4126,-97.1438C86.5829,-84.205 96.7848,-69.8105 105.383,-57.6783"/>
<polygon fill="none" stroke="midnightblue" points="74.4895,-95.2153 71.5627,-105.398 80.2006,-99.263 74.4895,-95.2153"/>
</g>
<!-- Node28 -->
<g id="node3" class="node"><title>Node28</title>
<g id="a_node3"><a xlink:href="a01415.html" target="_top" xlink:title=" ">
<polygon fill="none" stroke="red" points="122.5,-105.5 122.5,-162.5 273.5,-162.5 273.5,-105.5 122.5,-105.5"/>
<text text-anchor="middle" x="198" y="-150.5" font-family="Helvetica,sans-Serif" font-size="10.00">SDK::FBlackboardKeySelector</text>
<polyline fill="none" stroke="red" points="122.5,-143.5 273.5,-143.5 "/>
<text text-anchor="middle" x="198" y="-131.5" font-family="Helvetica,sans-Serif" font-size="10.00"> </text>
<polyline fill="none" stroke="red" points="122.5,-124.5 273.5,-124.5 "/>
<text text-anchor="middle" x="198" y="-112.5" font-family="Helvetica,sans-Serif" font-size="10.00"> </text>
</a>
</g>
</g>
<!-- Node28&#45;&gt;Node1 -->
<g id="edge2" class="edge"><title>Node28&#45;&gt;Node1</title>
<path fill="none" stroke="#404040" d="M178.437,-105.398C170.255,-93.8524 160.613,-80.248 151.788,-67.7962"/>
<polygon fill="none" stroke="#404040" points="151.556,-67.4687 144.823,-64.8865 144.617,-57.6783 151.35,-60.2606 151.556,-67.4687"/>
<text text-anchor="middle" x="202" y="-79" font-family="Helvetica,sans-Serif" font-size="10.00"> +BlackboardKey</text>
</g>
</g>
</svg>
