<?xml version="1.0" encoding="UTF-8" standalone="no"?>
<!DOCTYPE svg PUBLIC "-//W3C//DTD SVG 1.1//EN"
 "http://www.w3.org/Graphics/SVG/1.1/DTD/svg11.dtd">
<!-- Generated by graphviz version 2.38.0 (20140413.2041)
 -->
<!-- Title: SDK::FTestActionStateSerialisableData Pages: 1 -->
<svg width="324pt" height="287pt"
 viewBox="0.00 0.00 324.17 287.00" xmlns="http://www.w3.org/2000/svg" xmlns:xlink="http://www.w3.org/1999/xlink">
<g id="graph0" class="graph" transform="scale(1 1) rotate(0) translate(4 283)">
<title>SDK::FTestActionStateSerialisableData</title>
<!-- Node1 -->
<g id="node1" class="node"><title>Node1</title>
<g id="a_node1"><a xlink:title=" ">
<polygon fill="#bfbfbf" stroke="black" points="89.1665,-0.5 89.1665,-57.5 278.166,-57.5 278.166,-0.5 89.1665,-0.5"/>
<text text-anchor="middle" x="183.666" y="-45.5" font-family="Helvetica,sans-Serif" font-size="10.00">SDK::FTestActionStateSerialisableData</text>
<polyline fill="none" stroke="black" points="89.1665,-38.5 278.166,-38.5 "/>
<text text-anchor="middle" x="183.666" y="-26.5" font-family="Helvetica,sans-Serif" font-size="10.00"> </text>
<polyline fill="none" stroke="black" points="89.1665,-19.5 278.166,-19.5 "/>
<text text-anchor="middle" x="183.666" y="-7.5" font-family="Helvetica,sans-Serif" font-size="10.00"> </text>
</a>
</g>
</g>
<!-- Node2 -->
<g id="node2" class="node"><title>Node2</title>
<g id="a_node2"><a xlink:href="a00719.html" target="_top" xlink:title=" ">
<polygon fill="none" stroke="red" points="98.6665,-105.5 98.6665,-162.5 268.666,-162.5 268.666,-105.5 98.6665,-105.5"/>
<text text-anchor="middle" x="183.666" y="-150.5" font-family="Helvetica,sans-Serif" font-size="10.00">SDK::FActionStateSerialisableData</text>
<polyline fill="none" stroke="red" points="98.6665,-143.5 268.666,-143.5 "/>
<text text-anchor="middle" x="183.666" y="-131.5" font-family="Helvetica,sans-Serif" font-size="10.00"> </text>
<polyline fill="none" stroke="red" points="98.6665,-124.5 268.666,-124.5 "/>
<text text-anchor="middle" x="183.666" y="-112.5" font-family="Helvetica,sans-Serif" font-size="10.00"> </text>
</a>
</g>
</g>
<!-- Node2&#45;&gt;Node1 -->
<g id="edge1" class="edge"><title>Node2&#45;&gt;Node1</title>
<path fill="none" stroke="midnightblue" d="M183.666,-95.2859C183.666,-82.8392 183.666,-69.2328 183.666,-57.6783"/>
<polygon fill="none" stroke="midnightblue" points="180.167,-95.3979 183.666,-105.398 187.167,-95.3979 180.167,-95.3979"/>
</g>
<!-- Node13 -->
<g id="node3" class="node"><title>Node13</title>
<g id="a_node3"><a xlink:title=" ">
<polygon fill="none" stroke="#bfbfbf" points="37.1665,-221.5 37.1665,-278.5 72.1665,-278.5 72.1665,-221.5 37.1665,-221.5"/>
<text text-anchor="middle" x="54.6665" y="-266.5" font-family="Helvetica,sans-Serif" font-size="10.00">char</text>
<polyline fill="none" stroke="#bfbfbf" points="37.1665,-259.5 72.1665,-259.5 "/>
<text text-anchor="middle" x="54.6665" y="-247.5" font-family="Helvetica,sans-Serif" font-size="10.00"> </text>
<polyline fill="none" stroke="#bfbfbf" points="37.1665,-240.5 72.1665,-240.5 "/>
<text text-anchor="middle" x="54.6665" y="-228.5" font-family="Helvetica,sans-Serif" font-size="10.00"> </text>
</a>
</g>
</g>
<!-- Node13&#45;&gt;Node1 -->
<g id="edge3" class="edge"><title>Node13&#45;&gt;Node1</title>
<path fill="none" stroke="#404040" d="M36.9914,-227.137C15.2758,-197.437 -15.7423,-143.621 9.66646,-105 25.4864,-80.9542 50.8194,-64.584 77.3144,-53.4517"/>
<polygon fill="none" stroke="#404040" points="77.5399,-53.3636 81.6716,-47.4535 88.7162,-48.9943 84.5845,-54.9044 77.5399,-53.3636"/>
<text text-anchor="middle" x="49.6665" y="-131.5" font-family="Helvetica,sans-Serif" font-size="10.00"> +UnknownData00</text>
</g>
<!-- Node13&#45;&gt;Node2 -->
<g id="edge2" class="edge"><title>Node13&#45;&gt;Node2</title>
<path fill="none" stroke="#404040" d="M72.3329,-233.388C90.4862,-217.345 119.378,-191.813 143.18,-170.778"/>
<polygon fill="none" stroke="#404040" points="143.361,-170.619 145.208,-163.648 152.353,-162.672 150.506,-169.643 143.361,-170.619"/>
<text text-anchor="middle" x="171.666" y="-195" font-family="Helvetica,sans-Serif" font-size="10.00"> +UnknownData01</text>
<text text-anchor="middle" x="171.666" y="-184" font-family="Helvetica,sans-Serif" font-size="10.00">+UnknownData00</text>
</g>
<!-- Node15 -->
<g id="node4" class="node"><title>Node15</title>
<g id="a_node4"><a xlink:title=" ">
<polygon fill="none" stroke="#bfbfbf" points="287.166,-105.5 287.166,-162.5 316.166,-162.5 316.166,-105.5 287.166,-105.5"/>
<text text-anchor="middle" x="301.666" y="-150.5" font-family="Helvetica,sans-Serif" font-size="10.00">int</text>
<polyline fill="none" stroke="#bfbfbf" points="287.166,-143.5 316.166,-143.5 "/>
<text text-anchor="middle" x="301.666" y="-131.5" font-family="Helvetica,sans-Serif" font-size="10.00"> </text>
<polyline fill="none" stroke="#bfbfbf" points="287.166,-124.5 316.166,-124.5 "/>
<text text-anchor="middle" x="301.666" y="-112.5" font-family="Helvetica,sans-Serif" font-size="10.00"> </text>
</a>
</g>
</g>
<!-- Node15&#45;&gt;Node1 -->
<g id="edge4" class="edge"><title>Node15&#45;&gt;Node1</title>
<path fill="none" stroke="#404040" d="M286.915,-114.77C283.96,-111.417 280.799,-108.024 277.666,-105 263.374,-91.2018 246.719,-77.299 231.433,-65.2758"/>
<polygon fill="none" stroke="#404040" points="231.106,-65.0217 223.913,-64.5044 221.624,-57.6662 228.817,-58.1835 231.106,-65.0217"/>
<text text-anchor="middle" x="275.666" y="-79" font-family="Helvetica,sans-Serif" font-size="10.00"> +IntProp</text>
</g>
</g>
</svg>
