<?xml version="1.0" encoding="UTF-8" standalone="no"?>
<!DOCTYPE svg PUBLIC "-//W3C//DTD SVG 1.1//EN"
 "http://www.w3.org/Graphics/SVG/1.1/DTD/svg11.dtd">
<!-- Generated by graphviz version 2.38.0 (20140413.2041)
 -->
<!-- Title: SDK::UAIAsyncTaskBlueprintProxy Pages: 1 -->
<svg width="458pt" height="408pt"
 viewBox="0.00 0.00 458.00 408.00" xmlns="http://www.w3.org/2000/svg" xmlns:xlink="http://www.w3.org/1999/xlink">
<g id="graph0" class="graph" transform="scale(1 1) rotate(0) translate(4 404)">
<title>SDK::UAIAsyncTaskBlueprintProxy</title>
<!-- Node1 -->
<g id="node1" class="node"><title>Node1</title>
<g id="a_node1"><a xlink:title=" ">
<polygon fill="#bfbfbf" stroke="black" points="127,-0.5 127,-79.5 273,-79.5 273,-0.5 127,-0.5"/>
<text text-anchor="start" x="135" y="-67.5" font-family="Helvetica,sans-Serif" font-size="10.00">SDK::UAIAsyncTaskBlueprint</text>
<text text-anchor="middle" x="200" y="-56.5" font-family="Helvetica,sans-Serif" font-size="10.00">Proxy</text>
<polyline fill="none" stroke="black" points="127,-49.5 273,-49.5 "/>
<text text-anchor="middle" x="200" y="-37.5" font-family="Helvetica,sans-Serif" font-size="10.00"> </text>
<polyline fill="none" stroke="black" points="127,-30.5 273,-30.5 "/>
<text text-anchor="start" x="135" y="-18.5" font-family="Helvetica,sans-Serif" font-size="10.00">+ OnMoveCompleted()</text>
<text text-anchor="start" x="135" y="-7.5" font-family="Helvetica,sans-Serif" font-size="10.00">+ StaticClass()</text>
</a>
</g>
</g>
<!-- Node2 -->
<g id="node2" class="node"><title>Node2</title>
<g id="a_node2"><a xlink:href="a26095.html" target="_top" xlink:title=" ">
<polygon fill="none" stroke="red" points="0,-138.5 0,-294.5 112,-294.5 112,-138.5 0,-138.5"/>
<text text-anchor="middle" x="56" y="-282.5" font-family="Helvetica,sans-Serif" font-size="10.00">SDK::UObject</text>
<polyline fill="none" stroke="red" points="0,-275.5 112,-275.5 "/>
<text text-anchor="middle" x="56" y="-263.5" font-family="Helvetica,sans-Serif" font-size="10.00"> </text>
<polyline fill="none" stroke="red" points="0,-256.5 112,-256.5 "/>
<text text-anchor="start" x="8" y="-244.5" font-family="Helvetica,sans-Serif" font-size="10.00">+ GetName()</text>
<text text-anchor="start" x="8" y="-233.5" font-family="Helvetica,sans-Serif" font-size="10.00">+ GetFullName()</text>
<text text-anchor="start" x="8" y="-222.5" font-family="Helvetica,sans-Serif" font-size="10.00">+ IsA()</text>
<text text-anchor="start" x="8" y="-211.5" font-family="Helvetica,sans-Serif" font-size="10.00">+ ProcessEvent()</text>
<text text-anchor="start" x="8" y="-200.5" font-family="Helvetica,sans-Serif" font-size="10.00">+ ExecuteUbergraph()</text>
<text text-anchor="start" x="8" y="-189.5" font-family="Helvetica,sans-Serif" font-size="10.00">+ StaticClass()</text>
<text text-anchor="start" x="8" y="-178.5" font-family="Helvetica,sans-Serif" font-size="10.00">+ GetGlobalObjects()</text>
<text text-anchor="start" x="8" y="-167.5" font-family="Helvetica,sans-Serif" font-size="10.00">+ FindObject()</text>
<text text-anchor="start" x="8" y="-156.5" font-family="Helvetica,sans-Serif" font-size="10.00">+ FindClass()</text>
<text text-anchor="start" x="8" y="-145.5" font-family="Helvetica,sans-Serif" font-size="10.00">+ GetObjectCasted()</text>
</a>
</g>
</g>
<!-- Node2&#45;&gt;Node1 -->
<g id="edge1" class="edge"><title>Node2&#45;&gt;Node1</title>
<path fill="none" stroke="midnightblue" d="M118.579,-139.666C135.632,-119.001 153.402,-97.4671 167.975,-79.8085"/>
<polygon fill="none" stroke="midnightblue" points="115.752,-137.593 112.086,-147.534 121.151,-142.049 115.752,-137.593"/>
</g>
<!-- Node2&#45;&gt;Node2 -->
<g id="edge2" class="edge"><title>Node2&#45;&gt;Node2</title>
<path fill="none" stroke="#404040" d="M112.146,-234.643C122.622,-232.409 130,-226.361 130,-216.5 130,-210.799 127.534,-206.372 123.429,-203.221"/>
<polygon fill="none" stroke="#404040" points="123.166,-203.107 116.073,-204.405 112.146,-198.357 119.239,-197.059 123.166,-203.107"/>
<text text-anchor="middle" x="147" y="-214" font-family="Helvetica,sans-Serif" font-size="10.00"> +Outer</text>
</g>
<!-- Node13 -->
<g id="node3" class="node"><title>Node13</title>
<g id="a_node3"><a xlink:href="a25867.html" target="_top" xlink:title=" ">
<polygon fill="none" stroke="black" points="298,-188 298,-245 450,-245 450,-188 298,-188"/>
<text text-anchor="middle" x="374" y="-233" font-family="Helvetica,sans-Serif" font-size="10.00">SDK::FScriptMulticastDelegate</text>
<polyline fill="none" stroke="black" points="298,-226 450,-226 "/>
<text text-anchor="middle" x="374" y="-214" font-family="Helvetica,sans-Serif" font-size="10.00"> </text>
<polyline fill="none" stroke="black" points="298,-207 450,-207 "/>
<text text-anchor="middle" x="374" y="-195" font-family="Helvetica,sans-Serif" font-size="10.00"> </text>
</a>
</g>
</g>
<!-- Node13&#45;&gt;Node1 -->
<g id="edge3" class="edge"><title>Node13&#45;&gt;Node1</title>
<path fill="none" stroke="#404040" d="M346.429,-187.85C319.801,-161.146 278.946,-120.173 247.15,-88.285"/>
<polygon fill="none" stroke="#404040" points="246.914,-88.0488 239.845,-86.6245 238.441,-79.5513 245.51,-80.9757 246.914,-88.0488"/>
<text text-anchor="middle" x="307.5" y="-112" font-family="Helvetica,sans-Serif" font-size="10.00"> +OnSuccess</text>
<text text-anchor="middle" x="307.5" y="-101" font-family="Helvetica,sans-Serif" font-size="10.00">+OnFail</text>
</g>
<!-- Node11 -->
<g id="node4" class="node"><title>Node11</title>
<g id="a_node4"><a xlink:title=" ">
<polygon fill="none" stroke="#bfbfbf" points="233.5,-342.5 233.5,-399.5 268.5,-399.5 268.5,-342.5 233.5,-342.5"/>
<text text-anchor="middle" x="251" y="-387.5" font-family="Helvetica,sans-Serif" font-size="10.00">char</text>
<polyline fill="none" stroke="#bfbfbf" points="233.5,-380.5 268.5,-380.5 "/>
<text text-anchor="middle" x="251" y="-368.5" font-family="Helvetica,sans-Serif" font-size="10.00"> </text>
<polyline fill="none" stroke="#bfbfbf" points="233.5,-361.5 268.5,-361.5 "/>
<text text-anchor="middle" x="251" y="-349.5" font-family="Helvetica,sans-Serif" font-size="10.00"> </text>
</a>
</g>
</g>
<!-- Node11&#45;&gt;Node1 -->
<g id="edge5" class="edge"><title>Node11&#45;&gt;Node1</title>
<path fill="none" stroke="#404040" d="M233.429,-345.629C224.323,-331.559 214.069,-313.107 209,-295 189.879,-226.697 191.222,-144.025 194.869,-91.9586"/>
<polygon fill="none" stroke="#404040" points="194.889,-91.6939 191.36,-85.4053 195.808,-79.7291 199.337,-86.0177 194.889,-91.6939"/>
<text text-anchor="middle" x="249" y="-214" font-family="Helvetica,sans-Serif" font-size="10.00"> +UnknownData00</text>
</g>
<!-- Node11&#45;&gt;Node13 -->
<g id="edge4" class="edge"><title>Node11&#45;&gt;Node13</title>
<path fill="none" stroke="#404040" d="M268.623,-348.15C288.258,-323.806 320.343,-284.026 343.959,-254.746"/>
<polygon fill="none" stroke="#404040" points="344.079,-254.597 344.733,-247.415 351.613,-245.256 350.96,-252.438 344.079,-254.597"/>
<text text-anchor="middle" x="330" y="-316" font-family="Helvetica,sans-Serif" font-size="10.00"> +UnknownData</text>
</g>
</g>
</svg>
