<?xml version="1.0" encoding="UTF-8" standalone="no"?>
<!DOCTYPE svg PUBLIC "-//W3C//DTD SVG 1.1//EN"
 "http://www.w3.org/Graphics/SVG/1.1/DTD/svg11.dtd">
<!-- Generated by graphviz version 2.38.0 (20140413.2041)
 -->
<!-- Title: SDK::UBrainComponent Pages: 1 -->
<!--zoomable 1088 -->
<svg id="main" version="1.1" xmlns="http://www.w3.org/2000/svg" xmlns:xlink="http://www.w3.org/1999/xlink" xml:space="preserve" onload="init(evt)">
<style type="text/css"><![CDATA[
.edge:hover path { stroke: red; }
.edge:hover polygon { stroke: red; fill: red; }
]]></style>
<script type="text/javascript"><![CDATA[
var edges = document.getElementsByTagName('g');
if (edges && edges.length) {
  for (var i=0;i<edges.length;i++) {
    if (edges[i].id.substr(0,4)=='edge') {
      edges[i].setAttribute('class','edge');
    }
  }
}
]]></script>
        <defs>
                <circle id="rim" cx="0" cy="0" r="7"/>
                <circle id="rim2" cx="0" cy="0" r="3.5"/>
                <g id="zoomPlus">
                        <use xlink:href="#rim" fill="#404040">
                                <set attributeName="fill" to="#808080" begin="zoomplus.mouseover" end="zoomplus.mouseout"/>
                        </use>
                        <path d="M-4,0h8M0,-4v8" fill="none" stroke="white" stroke-width="1.5" pointer-events="none"/>
                </g>
                <g id="zoomMin">
                        <use xlink:href="#rim" fill="#404040">
                                <set attributeName="fill" to="#808080" begin="zoomminus.mouseover" end="zoomminus.mouseout"/>
                        </use>
                        <path d="M-4,0h8" fill="none" stroke="white" stroke-width="1.5" pointer-events="none"/>
                </g>
                <g id="dirArrow">
                        <path fill="none" stroke="white" stroke-width="1.5" d="M0,-3.0v7 M-2.5,-0.5L0,-3.0L2.5,-0.5"/>
                </g>
               <g id="resetDef">
                       <use xlink:href="#rim2" fill="#404040">
                               <set attributeName="fill" to="#808080" begin="reset.mouseover" end="reset.mouseout"/>
                       </use>
               </g>
        </defs>

<script type="text/javascript">
var viewWidth = 554;
var viewHeight = 1088;
var sectionId = 'dynsection-1';
</script>
<script xlink:href="svgpan.js"/>
<svg id="graph" class="graph">
<g id="viewport">
<title>SDK::UBrainComponent</title>
<!-- Node1 -->
<g id="node1" class="node"><title>Node1</title>
<g id="a_node1"><a xlink:title=" ">
<polygon fill="#bfbfbf" stroke="black" points="44.1138,-462 44.1138,-541 166.114,-541 166.114,-462 44.1138,-462"/>
<text text-anchor="middle" x="105.114" y="-529" font-family="Helvetica,sans-Serif" font-size="10.00">SDK::UBrainComponent</text>
<polyline fill="none" stroke="black" points="44.1138,-522 166.114,-522 "/>
<text text-anchor="middle" x="105.114" y="-510" font-family="Helvetica,sans-Serif" font-size="10.00"> </text>
<polyline fill="none" stroke="black" points="44.1138,-503 166.114,-503 "/>
<text text-anchor="start" x="52.1138" y="-491" font-family="Helvetica,sans-Serif" font-size="10.00">+ StopLogic()</text>
<text text-anchor="start" x="52.1138" y="-480" font-family="Helvetica,sans-Serif" font-size="10.00">+ RestartLogic()</text>
<text text-anchor="start" x="52.1138" y="-469" font-family="Helvetica,sans-Serif" font-size="10.00">+ StaticClass()</text>
</a>
</g>
</g>
<!-- Node22 -->
<g id="node4" class="node"><title>Node22</title>
<g id="a_node4"><a xlink:href="a00875.html" target="_top" xlink:title=" ">
<polygon fill="none" stroke="red" points="45.6138,-0.5 45.6138,-178.5 236.614,-178.5 236.614,-0.5 45.6138,-0.5"/>
<text text-anchor="middle" x="141.114" y="-166.5" font-family="Helvetica,sans-Serif" font-size="10.00">SDK::AAIController</text>
<polyline fill="none" stroke="red" points="45.6138,-159.5 236.614,-159.5 "/>
<text text-anchor="middle" x="141.114" y="-147.5" font-family="Helvetica,sans-Serif" font-size="10.00"> </text>
<polyline fill="none" stroke="red" points="45.6138,-140.5 236.614,-140.5 "/>
<text text-anchor="start" x="53.6138" y="-128.5" font-family="Helvetica,sans-Serif" font-size="10.00">+ UseBlackboard()</text>
<text text-anchor="start" x="53.6138" y="-117.5" font-family="Helvetica,sans-Serif" font-size="10.00">+ SetMoveBlockDetection()</text>
<text text-anchor="start" x="53.6138" y="-106.5" font-family="Helvetica,sans-Serif" font-size="10.00">+ RunBehaviorTree()</text>
<text text-anchor="start" x="53.6138" y="-95.5" font-family="Helvetica,sans-Serif" font-size="10.00">+ OnUsingBlackBoard()</text>
<text text-anchor="start" x="53.6138" y="-84.5" font-family="Helvetica,sans-Serif" font-size="10.00">+ OnPossess()</text>
<text text-anchor="start" x="53.6138" y="-73.5" font-family="Helvetica,sans-Serif" font-size="10.00">+ OnGameplayTaskResourcesClaimed()</text>
<text text-anchor="start" x="53.6138" y="-62.5" font-family="Helvetica,sans-Serif" font-size="10.00">+ MoveToLocation()</text>
<text text-anchor="start" x="53.6138" y="-51.5" font-family="Helvetica,sans-Serif" font-size="10.00">+ MoveToActor()</text>
<text text-anchor="start" x="53.6138" y="-40.5" font-family="Helvetica,sans-Serif" font-size="10.00">+ K2_SetFocus()</text>
<text text-anchor="start" x="53.6138" y="-29.5" font-family="Helvetica,sans-Serif" font-size="10.00">+ K2_SetFocalPoint()</text>
<text text-anchor="start" x="53.6138" y="-18.5" font-family="Helvetica,sans-Serif" font-size="10.00">and 9 more...</text>
<text text-anchor="start" x="53.6138" y="-7.5" font-family="Helvetica,sans-Serif" font-size="10.00">+ StaticClass()</text>
</a>
</g>
</g>
<!-- Node1&#45;&gt;Node22 -->
<g id="edge6" class="edge"><title>Node1&#45;&gt;Node22</title>
<path fill="none" stroke="#404040" d="M101.645,-461.968C100.245,-444.58 98.8009,-423.773 98.1138,-405 95.204,-325.498 85.9385,-304.618 98.1138,-226 99.9127,-214.384 102.53,-202.401 105.6,-190.589"/>
<polygon fill="none" stroke="#404040" points="105.644,-190.429 103.367,-183.587 108.807,-178.854 111.084,-185.696 105.644,-190.429"/>
<text text-anchor="middle" x="139.114" y="-313" font-family="Helvetica,sans-Serif" font-size="10.00"> +BrainComponent</text>
</g>
<!-- Node193 -->
<g id="node5" class="node"><title>Node193</title>
<g id="a_node5"><a xlink:href="a01051.html" target="_top" xlink:title=" ">
<polygon fill="none" stroke="red" points="189.114,-226.5 189.114,-404.5 337.114,-404.5 337.114,-226.5 189.114,-226.5"/>
<text text-anchor="middle" x="263.114" y="-392.5" font-family="Helvetica,sans-Serif" font-size="10.00">SDK::UBlackboardComponent</text>
<polyline fill="none" stroke="red" points="189.114,-385.5 337.114,-385.5 "/>
<text text-anchor="middle" x="263.114" y="-373.5" font-family="Helvetica,sans-Serif" font-size="10.00"> </text>
<polyline fill="none" stroke="red" points="189.114,-366.5 337.114,-366.5 "/>
<text text-anchor="start" x="197.114" y="-354.5" font-family="Helvetica,sans-Serif" font-size="10.00">+ SetValueAsVector()</text>
<text text-anchor="start" x="197.114" y="-343.5" font-family="Helvetica,sans-Serif" font-size="10.00">+ SetValueAsString()</text>
<text text-anchor="start" x="197.114" y="-332.5" font-family="Helvetica,sans-Serif" font-size="10.00">+ SetValueAsRotator()</text>
<text text-anchor="start" x="197.114" y="-321.5" font-family="Helvetica,sans-Serif" font-size="10.00">+ SetValueAsObject()</text>
<text text-anchor="start" x="197.114" y="-310.5" font-family="Helvetica,sans-Serif" font-size="10.00">+ SetValueAsName()</text>
<text text-anchor="start" x="197.114" y="-299.5" font-family="Helvetica,sans-Serif" font-size="10.00">+ SetValueAsInt()</text>
<text text-anchor="start" x="197.114" y="-288.5" font-family="Helvetica,sans-Serif" font-size="10.00">+ SetValueAsFloat()</text>
<text text-anchor="start" x="197.114" y="-277.5" font-family="Helvetica,sans-Serif" font-size="10.00">+ SetValueAsEnum()</text>
<text text-anchor="start" x="197.114" y="-266.5" font-family="Helvetica,sans-Serif" font-size="10.00">+ SetValueAsClass()</text>
<text text-anchor="start" x="197.114" y="-255.5" font-family="Helvetica,sans-Serif" font-size="10.00">+ SetValueAsBool()</text>
<text text-anchor="start" x="197.114" y="-244.5" font-family="Helvetica,sans-Serif" font-size="10.00">and 16 more...</text>
<text text-anchor="start" x="197.114" y="-233.5" font-family="Helvetica,sans-Serif" font-size="10.00">+ StaticClass()</text>
</a>
</g>
</g>
<!-- Node1&#45;&gt;Node193 -->
<g id="edge10" class="edge"><title>Node1&#45;&gt;Node193</title>
<path fill="none" stroke="#404040" d="M106.517,-461.873C108.823,-448.186 113.595,-433.574 123.114,-423 139.476,-404.823 154.402,-418.006 175.114,-405 176.43,-404.174 177.741,-403.324 179.047,-402.453"/>
<polygon fill="none" stroke="#404040" points="179.171,-402.365 181.732,-395.623 188.939,-395.394 186.379,-402.135 179.171,-402.365"/>
<text text-anchor="middle" x="152.114" y="-426" font-family="Helvetica,sans-Serif" font-size="10.00"> +BrainComp</text>
</g>
<!-- Node2 -->
<g id="node2" class="node"><title>Node2</title>
<g id="a_node2"><a xlink:href="a26339.html" target="_top" xlink:title=" ">
<polygon fill="none" stroke="red" points="126.614,-609.5 126.614,-853.5 311.614,-853.5 311.614,-609.5 126.614,-609.5"/>
<text text-anchor="middle" x="219.114" y="-841.5" font-family="Helvetica,sans-Serif" font-size="10.00">SDK::UActorComponent</text>
<polyline fill="none" stroke="red" points="126.614,-834.5 311.614,-834.5 "/>
<text text-anchor="start" x="134.614" y="-822.5" font-family="Helvetica,sans-Serif" font-size="10.00">+ UnknownData00</text>
<text text-anchor="start" x="134.614" y="-811.5" font-family="Helvetica,sans-Serif" font-size="10.00">+ bReplicates</text>
<text text-anchor="start" x="134.614" y="-800.5" font-family="Helvetica,sans-Serif" font-size="10.00">+ bNetAddressable</text>
<text text-anchor="start" x="134.614" y="-789.5" font-family="Helvetica,sans-Serif" font-size="10.00">+ bInstanceComponent</text>
<text text-anchor="start" x="134.614" y="-778.5" font-family="Helvetica,sans-Serif" font-size="10.00">+ bAutoActivate</text>
<text text-anchor="start" x="134.614" y="-767.5" font-family="Helvetica,sans-Serif" font-size="10.00">+ bIsActive</text>
<text text-anchor="start" x="134.614" y="-756.5" font-family="Helvetica,sans-Serif" font-size="10.00">+ bNeedsLoadForServer</text>
<polyline fill="none" stroke="red" points="126.614,-749.5 311.614,-749.5 "/>
<text text-anchor="start" x="134.614" y="-737.5" font-family="Helvetica,sans-Serif" font-size="10.00">+ ToggleActive()</text>
<text text-anchor="start" x="134.614" y="-726.5" font-family="Helvetica,sans-Serif" font-size="10.00">+ SetTickGroup()</text>
<text text-anchor="start" x="134.614" y="-715.5" font-family="Helvetica,sans-Serif" font-size="10.00">+ SetTickableWhenPaused()</text>
<text text-anchor="start" x="134.614" y="-704.5" font-family="Helvetica,sans-Serif" font-size="10.00">+ SetIsReplicated()</text>
<text text-anchor="start" x="134.614" y="-693.5" font-family="Helvetica,sans-Serif" font-size="10.00">+ SetComponentTickEnabled()</text>
<text text-anchor="start" x="134.614" y="-682.5" font-family="Helvetica,sans-Serif" font-size="10.00">+ SetActive()</text>
<text text-anchor="start" x="134.614" y="-671.5" font-family="Helvetica,sans-Serif" font-size="10.00">+ RemoveTickPrerequisiteComponent()</text>
<text text-anchor="start" x="134.614" y="-660.5" font-family="Helvetica,sans-Serif" font-size="10.00">+ RemoveTickPrerequisiteActor()</text>
<text text-anchor="start" x="134.614" y="-649.5" font-family="Helvetica,sans-Serif" font-size="10.00">+ ReceiveTick()</text>
<text text-anchor="start" x="134.614" y="-638.5" font-family="Helvetica,sans-Serif" font-size="10.00">+ ReceiveEndPlay()</text>
<text text-anchor="start" x="134.614" y="-627.5" font-family="Helvetica,sans-Serif" font-size="10.00">and 12 more...</text>
<text text-anchor="start" x="134.614" y="-616.5" font-family="Helvetica,sans-Serif" font-size="10.00">+ StaticClass()</text>
</a>
</g>
</g>
<!-- Node2&#45;&gt;Node1 -->
<g id="edge1" class="edge"><title>Node2&#45;&gt;Node1</title>
<path fill="none" stroke="midnightblue" d="M154.131,-600.535C143.342,-578.957 132.942,-558.156 124.519,-541.31"/>
<polygon fill="none" stroke="midnightblue" points="151.006,-602.111 158.609,-609.49 157.267,-598.981 151.006,-602.111"/>
</g>
<!-- Node2&#45;&gt;Node193 -->
<g id="edge8" class="edge"><title>Node2&#45;&gt;Node193</title>
<path fill="none" stroke="midnightblue" d="M258.77,-599.398C271.259,-545.177 280.938,-481.434 277.114,-423 276.724,-417.045 276.213,-410.915 275.617,-404.746"/>
<polygon fill="none" stroke="midnightblue" points="255.298,-598.871 256.408,-609.408 262.111,-600.479 255.298,-598.871"/>
</g>
<!-- Node12 -->
<g id="node3" class="node"><title>Node12</title>
<g id="a_node3"><a xlink:title=" ">
<polygon fill="none" stroke="#bfbfbf" points="258.614,-1022.5 258.614,-1079.5 293.614,-1079.5 293.614,-1022.5 258.614,-1022.5"/>
<text text-anchor="middle" x="276.114" y="-1067.5" font-family="Helvetica,sans-Serif" font-size="10.00">char</text>
<polyline fill="none" stroke="#bfbfbf" points="258.614,-1060.5 293.614,-1060.5 "/>
<text text-anchor="middle" x="276.114" y="-1048.5" font-family="Helvetica,sans-Serif" font-size="10.00"> </text>
<polyline fill="none" stroke="#bfbfbf" points="258.614,-1041.5 293.614,-1041.5 "/>
<text text-anchor="middle" x="276.114" y="-1029.5" font-family="Helvetica,sans-Serif" font-size="10.00"> </text>
</a>
</g>
</g>
<!-- Node12&#45;&gt;Node1 -->
<g id="edge3" class="edge"><title>Node12&#45;&gt;Node1</title>
<path fill="none" stroke="#404040" d="M258.581,-1042.78C210.973,-1022.03 79.9986,-957.049 37.1138,-854 -4.72324,-753.469 6.59049,-713.523 37.1138,-609 43.021,-588.772 54.0698,-568.728 65.5698,-551.579"/>
<polygon fill="none" stroke="#404040" points="65.877,-551.139 66.0321,-543.93 72.7466,-541.3 72.5916,-548.51 65.877,-551.139"/>
<text text-anchor="middle" x="77.1138" y="-734.5" font-family="Helvetica,sans-Serif" font-size="10.00"> +UnknownData01</text>
<text text-anchor="middle" x="77.1138" y="-723.5" font-family="Helvetica,sans-Serif" font-size="10.00">+UnknownData00</text>
</g>
<!-- Node12&#45;&gt;Node2 -->
<g id="edge2" class="edge"><title>Node12&#45;&gt;Node2</title>
<path fill="none" stroke="#404040" d="M258.557,-1042.55C243.678,-1035.17 223.332,-1022.32 214.114,-1004 193.006,-962.057 189.08,-911.654 192.161,-865.723"/>
<polygon fill="none" stroke="#404040" points="192.18,-865.487 188.676,-859.184 193.147,-853.526 196.65,-859.829 192.18,-865.487"/>
<text text-anchor="middle" x="270.114" y="-996" font-family="Helvetica,sans-Serif" font-size="10.00"> +UnknownData01</text>
<text text-anchor="middle" x="270.114" y="-985" font-family="Helvetica,sans-Serif" font-size="10.00">+UnknownData02</text>
<text text-anchor="middle" x="270.114" y="-974" font-family="Helvetica,sans-Serif" font-size="10.00">+UnknownData03</text>
<text text-anchor="middle" x="270.114" y="-963" font-family="Helvetica,sans-Serif" font-size="10.00">+UnknownData04</text>
<text text-anchor="middle" x="270.114" y="-952" font-family="Helvetica,sans-Serif" font-size="10.00">+UnknownData05</text>
<text text-anchor="start" x="214.114" y="-941" font-family="Helvetica,sans-Serif" font-size="10.00">+bCreatedByConstruction</text>
<text text-anchor="middle" x="270.114" y="-930" font-family="Helvetica,sans-Serif" font-size="10.00">Script</text>
<text text-anchor="middle" x="270.114" y="-919" font-family="Helvetica,sans-Serif" font-size="10.00">+UnknownData06</text>
<text text-anchor="middle" x="270.114" y="-908" font-family="Helvetica,sans-Serif" font-size="10.00">+UnknownData07</text>
<text text-anchor="middle" x="270.114" y="-897" font-family="Helvetica,sans-Serif" font-size="10.00">+bEditableWhenInherited</text>
<text text-anchor="middle" x="270.114" y="-886" font-family="Helvetica,sans-Serif" font-size="10.00">+bNeedsLoadForClient</text>
<text text-anchor="middle" x="270.114" y="-875" font-family="Helvetica,sans-Serif" font-size="10.00">...</text>
</g>
<!-- Node12&#45;&gt;Node22 -->
<g id="edge5" class="edge"><title>Node12&#45;&gt;Node22</title>
<path fill="none" stroke="#404040" d="M293.844,-1042.31C309.432,-1034.7 331.67,-1021.63 345.114,-1004 422.193,-902.91 435.114,-859.624 435.114,-732.5 435.114,-732.5 435.114,-732.5 435.114,-314.5 435.114,-217.416 332.426,-156.846 248.426,-123.541"/>
<polygon fill="none" stroke="#404040" points="248.169,-123.441 241.131,-125.012 236.974,-119.12 244.011,-117.549 248.169,-123.441"/>
<text text-anchor="middle" x="490.614" y="-543" font-family="Helvetica,sans-Serif" font-size="10.00"> +UnknownData01</text>
<text text-anchor="middle" x="490.614" y="-532" font-family="Helvetica,sans-Serif" font-size="10.00">+bLOSflag</text>
<text text-anchor="middle" x="490.614" y="-521" font-family="Helvetica,sans-Serif" font-size="10.00">+UnknownData02</text>
<text text-anchor="middle" x="490.614" y="-510" font-family="Helvetica,sans-Serif" font-size="10.00">+UnknownData03</text>
<text text-anchor="middle" x="490.614" y="-499" font-family="Helvetica,sans-Serif" font-size="10.00">+bWantsPlayerState</text>
<text text-anchor="middle" x="490.614" y="-488" font-family="Helvetica,sans-Serif" font-size="10.00">+bSkipExtraLOSChecks</text>
<text text-anchor="middle" x="490.614" y="-477" font-family="Helvetica,sans-Serif" font-size="10.00">+bAllowStrafe</text>
<text text-anchor="middle" x="490.614" y="-466" font-family="Helvetica,sans-Serif" font-size="10.00">+bDisableControlRotation</text>
<text text-anchor="middle" x="490.614" y="-455" font-family="Helvetica,sans-Serif" font-size="10.00">+UnknownData00</text>
</g>
<!-- Node12&#45;&gt;Node193 -->
<g id="edge9" class="edge"><title>Node12&#45;&gt;Node193</title>
<path fill="none" stroke="#404040" d="M294.021,-1039.19C305.554,-1031.11 319.573,-1018.91 326.114,-1004 349.688,-950.278 326.671,-930.664 326.114,-872 324.212,-671.882 333.883,-618.719 292.114,-423 291.654,-420.845 291.177,-418.668 290.685,-416.477"/>
<polygon fill="none" stroke="#404040" points="290.652,-416.336 285.394,-411.401 287.928,-404.649 293.186,-409.585 290.652,-416.336"/>
<text text-anchor="middle" x="359.114" y="-583" font-family="Helvetica,sans-Serif" font-size="10.00"> +UnknownData01</text>
<text text-anchor="middle" x="359.114" y="-572" font-family="Helvetica,sans-Serif" font-size="10.00">+UnknownData00</text>
</g>
<!-- Node22&#45;&gt;Node1 -->
<g id="edge4" class="edge"><title>Node22&#45;&gt;Node1</title>
<path fill="none" stroke="#404040" d="M47.5368,-178.867C36.7691,-193.526 27.408,-209.399 21.1138,-226 -7.09046,-300.388 -6.96439,-330.564 21.1138,-405 27.6984,-422.456 39.0868,-438.792 51.3907,-452.847"/>
<polygon fill="none" stroke="#404040" points="51.4461,-452.907 58.4515,-454.617 59.5671,-461.742 52.5617,-460.031 51.4461,-452.907"/>
<text text-anchor="middle" x="44.1138" y="-313" font-family="Helvetica,sans-Serif" font-size="10.00"> +AIOwner</text>
</g>
<!-- Node193&#45;&gt;Node1 -->
<g id="edge11" class="edge"><title>Node193&#45;&gt;Node1</title>
<path fill="none" stroke="#404040" d="M205.166,-404.619C197.436,-414.812 189.331,-424.83 181.114,-434 175.242,-440.553 168.751,-447.093 162.11,-453.372"/>
<polygon fill="none" stroke="#404040" points="161.836,-453.625 160.129,-460.631 153.005,-461.751 154.712,-454.744 161.836,-453.625"/>
<text text-anchor="middle" x="231.114" y="-426" font-family="Helvetica,sans-Serif" font-size="10.00"> +BlackboardComp</text>
</g>
<!-- Node193&#45;&gt;Node22 -->
<g id="edge7" class="edge"><title>Node193&#45;&gt;Node22</title>
<path fill="none" stroke="#404040" d="M215.071,-226.291C208.47,-214.17 201.656,-201.66 194.959,-189.364"/>
<polygon fill="none" stroke="#404040" points="194.852,-189.167 188.47,-185.811 189.113,-178.629 195.495,-181.985 194.852,-189.167"/>
<text text-anchor="middle" x="231.114" y="-200" font-family="Helvetica,sans-Serif" font-size="10.00"> +Blackboard</text>
</g>
</g>
</svg>
        <g id="navigator" transform="translate(0 0)" fill="#404254">
                <rect fill="#f2f5e9" fill-opacity="0.5" stroke="#606060" stroke-width=".5" x="0" y="0" width="60" height="60"/>
                <use id="zoomplus" xlink:href="#zoomPlus" x="17" y="9" onmousedown="handleZoom(evt,'in')"/>
                <use id="zoomminus" xlink:href="#zoomMin" x="42" y="9" onmousedown="handleZoom(evt,'out')"/>
                <use id="reset" xlink:href="#resetDef" x="30" y="36" onmousedown="handleReset()"/>
                <g id="arrowUp" xlink:href="#dirArrow" transform="translate(30 24)" onmousedown="handlePan(0,-1)">
                  <use xlink:href="#rim" fill="#404040">
                        <set attributeName="fill" to="#808080" begin="arrowUp.mouseover" end="arrowUp.mouseout"/>
                  </use>
                  <path fill="none" stroke="white" stroke-width="1.5" d="M0,-3.0v7 M-2.5,-0.5L0,-3.0L2.5,-0.5"/>
                </g>
                <g id="arrowRight" xlink:href="#dirArrow" transform="rotate(90) translate(36 -43)" onmousedown="handlePan(1,0)">
                  <use xlink:href="#rim" fill="#404040">
                        <set attributeName="fill" to="#808080" begin="arrowRight.mouseover" end="arrowRight.mouseout"/>
                  </use>
                  <path fill="none" stroke="white" stroke-width="1.5" d="M0,-3.0v7 M-2.5,-0.5L0,-3.0L2.5,-0.5"/>
                </g>
                <g id="arrowDown" xlink:href="#dirArrow" transform="rotate(180) translate(-30 -48)" onmousedown="handlePan(0,1)">
                  <use xlink:href="#rim" fill="#404040">
                        <set attributeName="fill" to="#808080" begin="arrowDown.mouseover" end="arrowDown.mouseout"/>
                  </use>
                  <path fill="none" stroke="white" stroke-width="1.5" d="M0,-3.0v7 M-2.5,-0.5L0,-3.0L2.5,-0.5"/>
                </g>
                <g id="arrowLeft" xlink:href="#dirArrow" transform="rotate(270) translate(-36 17)" onmousedown="handlePan(-1,0)">
                  <use xlink:href="#rim" fill="#404040">
                        <set attributeName="fill" to="#808080" begin="arrowLeft.mouseover" end="arrowLeft.mouseout"/>
                  </use>
                  <path fill="none" stroke="white" stroke-width="1.5" d="M0,-3.0v7 M-2.5,-0.5L0,-3.0L2.5,-0.5"/>
                </g>
        </g>
        <svg viewBox="0 0 15 15" width="100%" height="30px" preserveAspectRatio="xMaxYMin meet">
         <g id="arrow_out" transform="scale(0.3 0.3)">
          <a xlink:href="a01017_org.svg" target="_base">
           <rect id="button" ry="5" rx="5" y="6" x="6" height="38" width="38"
                fill="#f2f5e9" fill-opacity="0.5" stroke="#606060" stroke-width="1.0"/>
           <path id="arrow"
             d="M 11.500037,31.436501 C 11.940474,20.09759 22.043105,11.32322 32.158766,21.979434 L 37.068811,17.246167 C 37.068811,17.246167 37.088388,32 37.088388,32 L 22.160133,31.978069 C 22.160133,31.978069 26.997745,27.140456 26.997745,27.140456 C 18.528582,18.264221 13.291696,25.230495 11.500037,31.436501 z"
             style="fill:#404040;"/>
          </a>
         </g>
        </svg>
</svg>
