<?xml version="1.0" encoding="UTF-8" standalone="no"?>
<!DOCTYPE svg PUBLIC "-//W3C//DTD SVG 1.1//EN"
 "http://www.w3.org/Graphics/SVG/1.1/DTD/svg11.dtd">
<!-- Generated by graphviz version 2.38.0 (20140413.2041)
 -->
<!-- Title: SDK::UBTDecorator_Blackboard Pages: 1 -->
<svg width="188pt" height="320pt"
 viewBox="0.00 0.00 188.00 320.00" xmlns="http://www.w3.org/2000/svg" xmlns:xlink="http://www.w3.org/1999/xlink">
<g id="graph0" class="graph" transform="scale(1 1) rotate(0) translate(4 316)">
<title>SDK::UBTDecorator_Blackboard</title>
<!-- Node1 -->
<g id="node1" class="node"><title>Node1</title>
<g id="a_node1"><a xlink:title=" ">
<polygon fill="#bfbfbf" stroke="black" points="11,-94.5 11,-217.5 169,-217.5 169,-94.5 11,-94.5"/>
<text text-anchor="middle" x="90" y="-205.5" font-family="Helvetica,sans-Serif" font-size="10.00">SDK::UBTDecorator_Blackboard</text>
<polyline fill="none" stroke="black" points="11,-198.5 169,-198.5 "/>
<text text-anchor="start" x="19" y="-186.5" font-family="Helvetica,sans-Serif" font-size="10.00">+ IntValue</text>
<text text-anchor="start" x="19" y="-175.5" font-family="Helvetica,sans-Serif" font-size="10.00">+ FloatValue</text>
<text text-anchor="start" x="19" y="-164.5" font-family="Helvetica,sans-Serif" font-size="10.00">+ StringValue</text>
<text text-anchor="start" x="19" y="-153.5" font-family="Helvetica,sans-Serif" font-size="10.00">+ CachedDescription</text>
<text text-anchor="start" x="19" y="-142.5" font-family="Helvetica,sans-Serif" font-size="10.00">+ OperationType</text>
<text text-anchor="start" x="19" y="-131.5" font-family="Helvetica,sans-Serif" font-size="10.00">+ NotifyObserver</text>
<text text-anchor="start" x="19" y="-120.5" font-family="Helvetica,sans-Serif" font-size="10.00">+ UnknownData00</text>
<polyline fill="none" stroke="black" points="11,-113.5 169,-113.5 "/>
<text text-anchor="start" x="19" y="-101.5" font-family="Helvetica,sans-Serif" font-size="10.00">+ StaticClass()</text>
</a>
</g>
</g>
<!-- Node7 -->
<g id="node3" class="node"><title>Node7</title>
<g id="a_node3"><a xlink:href="a01099.html" target="_top" xlink:title=" ">
<polygon fill="none" stroke="black" points="1,-0.5 1,-57.5 179,-57.5 179,-0.5 1,-0.5"/>
<text text-anchor="middle" x="90" y="-45.5" font-family="Helvetica,sans-Serif" font-size="10.00">SDK::UBTDecorator_ConditionalLoop</text>
<polyline fill="none" stroke="black" points="1,-38.5 179,-38.5 "/>
<text text-anchor="middle" x="90" y="-26.5" font-family="Helvetica,sans-Serif" font-size="10.00"> </text>
<polyline fill="none" stroke="black" points="1,-19.5 179,-19.5 "/>
<text text-anchor="start" x="9" y="-7.5" font-family="Helvetica,sans-Serif" font-size="10.00">+ StaticClass()</text>
</a>
</g>
</g>
<!-- Node1&#45;&gt;Node7 -->
<g id="edge2" class="edge"><title>Node1&#45;&gt;Node7</title>
<path fill="none" stroke="midnightblue" d="M90,-84.1384C90,-74.7999 90,-65.715 90,-57.7379"/>
<polygon fill="none" stroke="midnightblue" points="86.5001,-84.3308 90,-94.3308 93.5001,-84.3309 86.5001,-84.3308"/>
</g>
<!-- Node2 -->
<g id="node2" class="node"><title>Node2</title>
<g id="a_node2"><a xlink:href="a00799.html" target="_top" xlink:title=" ">
<polygon fill="none" stroke="red" points="0,-254.5 0,-311.5 180,-311.5 180,-254.5 0,-254.5"/>
<text text-anchor="middle" x="90" y="-299.5" font-family="Helvetica,sans-Serif" font-size="10.00">SDK::UBTDecorator_BlackboardBase</text>
<polyline fill="none" stroke="red" points="0,-292.5 180,-292.5 "/>
<text text-anchor="start" x="8" y="-280.5" font-family="Helvetica,sans-Serif" font-size="10.00">+ BlackboardKey</text>
<polyline fill="none" stroke="red" points="0,-273.5 180,-273.5 "/>
<text text-anchor="start" x="8" y="-261.5" font-family="Helvetica,sans-Serif" font-size="10.00">+ StaticClass()</text>
</a>
</g>
</g>
<!-- Node2&#45;&gt;Node1 -->
<g id="edge1" class="edge"><title>Node2&#45;&gt;Node1</title>
<path fill="none" stroke="midnightblue" d="M90,-244.099C90,-235.739 90,-226.68 90,-217.672"/>
<polygon fill="none" stroke="midnightblue" points="86.5001,-244.258 90,-254.258 93.5001,-244.258 86.5001,-244.258"/>
</g>
</g>
</svg>
