<?xml version="1.0" encoding="UTF-8" standalone="no"?>
<!DOCTYPE svg PUBLIC "-//W3C//DTD SVG 1.1//EN"
 "http://www.w3.org/Graphics/SVG/1.1/DTD/svg11.dtd">
<!-- Generated by graphviz version 2.38.0 (20140413.2041)
 -->
<!-- Title: SDK::UBTDecorator_SetTagCooldown Pages: 1 -->
<svg width="539pt" height="320pt"
 viewBox="0.00 0.00 539.47 320.00" xmlns="http://www.w3.org/2000/svg" xmlns:xlink="http://www.w3.org/1999/xlink">
<g id="graph0" class="graph" transform="scale(1 1) rotate(0) translate(4 316)">
<title>SDK::UBTDecorator_SetTagCooldown</title>
<!-- Node1 -->
<g id="node1" class="node"><title>Node1</title>
<g id="a_node1"><a xlink:title=" ">
<polygon fill="#bfbfbf" stroke="black" points="157.974,-0.5 157.974,-68.5 297.974,-68.5 297.974,-0.5 157.974,-0.5"/>
<text text-anchor="start" x="165.974" y="-56.5" font-family="Helvetica,sans-Serif" font-size="10.00">SDK::UBTDecorator_SetTag</text>
<text text-anchor="middle" x="227.974" y="-45.5" font-family="Helvetica,sans-Serif" font-size="10.00">Cooldown</text>
<polyline fill="none" stroke="black" points="157.974,-38.5 297.974,-38.5 "/>
<text text-anchor="middle" x="227.974" y="-26.5" font-family="Helvetica,sans-Serif" font-size="10.00"> </text>
<polyline fill="none" stroke="black" points="157.974,-19.5 297.974,-19.5 "/>
<text text-anchor="start" x="165.974" y="-7.5" font-family="Helvetica,sans-Serif" font-size="10.00">+ StaticClass()</text>
</a>
</g>
</g>
<!-- Node2 -->
<g id="node2" class="node"><title>Node2</title>
<g id="a_node2"><a xlink:href="a00823.html" target="_top" xlink:title=" ">
<polygon fill="none" stroke="red" points="101.974,-116.5 101.974,-173.5 205.974,-173.5 205.974,-116.5 101.974,-116.5"/>
<text text-anchor="middle" x="153.974" y="-161.5" font-family="Helvetica,sans-Serif" font-size="10.00">SDK::UBTDecorator</text>
<polyline fill="none" stroke="red" points="101.974,-154.5 205.974,-154.5 "/>
<text text-anchor="middle" x="153.974" y="-142.5" font-family="Helvetica,sans-Serif" font-size="10.00"> </text>
<polyline fill="none" stroke="red" points="101.974,-135.5 205.974,-135.5 "/>
<text text-anchor="start" x="109.974" y="-123.5" font-family="Helvetica,sans-Serif" font-size="10.00">+ StaticClass()</text>
</a>
</g>
</g>
<!-- Node2&#45;&gt;Node1 -->
<g id="edge1" class="edge"><title>Node2&#45;&gt;Node1</title>
<path fill="none" stroke="midnightblue" d="M178.644,-107.828C187.303,-95.1315 196.98,-80.943 205.454,-68.5186"/>
<polygon fill="none" stroke="midnightblue" points="175.582,-106.107 172.838,-116.34 181.365,-110.051 175.582,-106.107"/>
</g>
<!-- Node14 -->
<g id="node3" class="node"><title>Node14</title>
<g id="a_node3"><a xlink:title=" ">
<polygon fill="none" stroke="#bfbfbf" points="31.4736,-254.5 31.4736,-311.5 66.4736,-311.5 66.4736,-254.5 31.4736,-254.5"/>
<text text-anchor="middle" x="48.9736" y="-299.5" font-family="Helvetica,sans-Serif" font-size="10.00">char</text>
<polyline fill="none" stroke="#bfbfbf" points="31.4736,-292.5 66.4736,-292.5 "/>
<text text-anchor="middle" x="48.9736" y="-280.5" font-family="Helvetica,sans-Serif" font-size="10.00"> </text>
<polyline fill="none" stroke="#bfbfbf" points="31.4736,-273.5 66.4736,-273.5 "/>
<text text-anchor="middle" x="48.9736" y="-261.5" font-family="Helvetica,sans-Serif" font-size="10.00"> </text>
</a>
</g>
</g>
<!-- Node14&#45;&gt;Node1 -->
<g id="edge3" class="edge"><title>Node14&#45;&gt;Node1</title>
<path fill="none" stroke="#404040" d="M31.4353,-255.097C11.0309,-220.055 -16.3479,-158.288 12.9736,-116 42.808,-72.9724 98.6383,-52.9065 145.929,-43.5669"/>
<polygon fill="none" stroke="#404040" points="145.94,-43.5649 151.127,-38.5551 157.746,-41.4161 152.56,-46.4258 145.94,-43.5649"/>
<text text-anchor="middle" x="52.9736" y="-142.5" font-family="Helvetica,sans-Serif" font-size="10.00"> +UnknownData00</text>
</g>
<!-- Node14&#45;&gt;Node2 -->
<g id="edge2" class="edge"><title>Node14&#45;&gt;Node2</title>
<path fill="none" stroke="#404040" d="M66.5483,-259.237C82.5574,-238.501 106.496,-207.495 125.278,-183.168"/>
<polygon fill="none" stroke="#404040" points="125.38,-183.035 125.881,-175.842 132.713,-173.537 132.213,-180.731 125.38,-183.035"/>
<text text-anchor="middle" x="158.974" y="-228" font-family="Helvetica,sans-Serif" font-size="10.00"> +UnknownData01</text>
<text text-anchor="middle" x="158.974" y="-217" font-family="Helvetica,sans-Serif" font-size="10.00">+UnknownData02</text>
<text text-anchor="middle" x="158.974" y="-206" font-family="Helvetica,sans-Serif" font-size="10.00">+bInverseCondition</text>
<text text-anchor="middle" x="158.974" y="-195" font-family="Helvetica,sans-Serif" font-size="10.00">+UnknownData00</text>
</g>
<!-- Node28 -->
<g id="node4" class="node"><title>Node28</title>
<g id="a_node4"><a xlink:title=" ">
<polygon fill="none" stroke="#bfbfbf" points="224.474,-116.5 224.474,-173.5 259.474,-173.5 259.474,-116.5 224.474,-116.5"/>
<text text-anchor="middle" x="241.974" y="-161.5" font-family="Helvetica,sans-Serif" font-size="10.00">float</text>
<polyline fill="none" stroke="#bfbfbf" points="224.474,-154.5 259.474,-154.5 "/>
<text text-anchor="middle" x="241.974" y="-142.5" font-family="Helvetica,sans-Serif" font-size="10.00"> </text>
<polyline fill="none" stroke="#bfbfbf" points="224.474,-135.5 259.474,-135.5 "/>
<text text-anchor="middle" x="241.974" y="-123.5" font-family="Helvetica,sans-Serif" font-size="10.00"> </text>
</a>
</g>
</g>
<!-- Node28&#45;&gt;Node1 -->
<g id="edge4" class="edge"><title>Node28&#45;&gt;Node1</title>
<path fill="none" stroke="#404040" d="M232.825,-116.032C231.249,-110.137 229.841,-103.912 228.974,-98 228.172,-92.5375 227.649,-86.7778 227.327,-81.0547"/>
<polygon fill="none" stroke="#404040" points="227.315,-80.7072 223.114,-74.846 226.909,-68.714 231.11,-74.5752 227.315,-80.7072"/>
<text text-anchor="middle" x="273.474" y="-90" font-family="Helvetica,sans-Serif" font-size="10.00"> +CoolDownDuration</text>
</g>
<!-- Node29 -->
<g id="node5" class="node"><title>Node29</title>
<g id="a_node5"><a xlink:title=" ">
<polygon fill="none" stroke="#bfbfbf" points="322.474,-116.5 322.474,-173.5 357.474,-173.5 357.474,-116.5 322.474,-116.5"/>
<text text-anchor="middle" x="339.974" y="-161.5" font-family="Helvetica,sans-Serif" font-size="10.00">bool</text>
<polyline fill="none" stroke="#bfbfbf" points="322.474,-154.5 357.474,-154.5 "/>
<text text-anchor="middle" x="339.974" y="-142.5" font-family="Helvetica,sans-Serif" font-size="10.00"> </text>
<polyline fill="none" stroke="#bfbfbf" points="322.474,-135.5 357.474,-135.5 "/>
<text text-anchor="middle" x="339.974" y="-123.5" font-family="Helvetica,sans-Serif" font-size="10.00"> </text>
</a>
</g>
</g>
<!-- Node29&#45;&gt;Node1 -->
<g id="edge5" class="edge"><title>Node29&#45;&gt;Node1</title>
<path fill="none" stroke="#404040" d="M333.519,-116.429C330.141,-106.344 325.162,-95.3681 317.974,-87 314.674,-83.1593 311.014,-79.5409 307.111,-76.1424"/>
<polygon fill="none" stroke="#404040" points="307.021,-76.0705 299.834,-75.4733 297.622,-68.6101 304.808,-69.2073 307.021,-76.0705"/>
<text text-anchor="middle" x="382.974" y="-90" font-family="Helvetica,sans-Serif" font-size="10.00"> +bAddToExistingDuration</text>
</g>
<!-- Node30 -->
<g id="node6" class="node"><title>Node30</title>
<g id="a_node6"><a xlink:href="a32551.html" target="_top" xlink:title=" ">
<polygon fill="none" stroke="red" points="422.474,-116.5 422.474,-173.5 531.474,-173.5 531.474,-116.5 422.474,-116.5"/>
<text text-anchor="middle" x="476.974" y="-161.5" font-family="Helvetica,sans-Serif" font-size="10.00">SDK::FGameplayTag</text>
<polyline fill="none" stroke="red" points="422.474,-154.5 531.474,-154.5 "/>
<text text-anchor="middle" x="476.974" y="-142.5" font-family="Helvetica,sans-Serif" font-size="10.00"> </text>
<polyline fill="none" stroke="red" points="422.474,-135.5 531.474,-135.5 "/>
<text text-anchor="middle" x="476.974" y="-123.5" font-family="Helvetica,sans-Serif" font-size="10.00"> </text>
</a>
</g>
</g>
<!-- Node30&#45;&gt;Node1 -->
<g id="edge6" class="edge"><title>Node30&#45;&gt;Node1</title>
<path fill="none" stroke="#404040" d="M466.57,-116.27C461.3,-105.672 453.879,-94.3753 443.974,-87 405.535,-58.379 353.494,-45.4106 310.125,-39.642"/>
<polygon fill="none" stroke="#404040" points="310.055,-39.6337 303.62,-42.8876 298.142,-38.1989 304.577,-34.945 310.055,-39.6337"/>
<text text-anchor="middle" x="488.474" y="-90" font-family="Helvetica,sans-Serif" font-size="10.00"> +CooldownTag</text>
</g>
</g>
</svg>
