<?xml version="1.0" encoding="UTF-8" standalone="no"?>
<!DOCTYPE svg PUBLIC "-//W3C//DTD SVG 1.1//EN"
 "http://www.w3.org/Graphics/SVG/1.1/DTD/svg11.dtd">
<!-- Generated by graphviz version 2.38.0 (20140413.2041)
 -->
<!-- Title: SDK::UEnvQueryGenerator_ActorsOfClass Pages: 1 -->
<svg width="417pt" height="320pt"
 viewBox="0.00 0.00 416.50 320.00" xmlns="http://www.w3.org/2000/svg" xmlns:xlink="http://www.w3.org/1999/xlink">
<g id="graph0" class="graph" transform="scale(1 1) rotate(0) translate(4 316)">
<title>SDK::UEnvQueryGenerator_ActorsOfClass</title>
<!-- Node1 -->
<g id="node1" class="node"><title>Node1</title>
<g id="a_node1"><a xlink:title=" ">
<polygon fill="#bfbfbf" stroke="black" points="122.5,-0.5 122.5,-68.5 256.5,-68.5 256.5,-0.5 122.5,-0.5"/>
<text text-anchor="start" x="130.5" y="-56.5" font-family="Helvetica,sans-Serif" font-size="10.00">SDK::UEnvQueryGenerator</text>
<text text-anchor="middle" x="189.5" y="-45.5" font-family="Helvetica,sans-Serif" font-size="10.00">_ActorsOfClass</text>
<polyline fill="none" stroke="black" points="122.5,-38.5 256.5,-38.5 "/>
<text text-anchor="middle" x="189.5" y="-26.5" font-family="Helvetica,sans-Serif" font-size="10.00"> </text>
<polyline fill="none" stroke="black" points="122.5,-19.5 256.5,-19.5 "/>
<text text-anchor="start" x="130.5" y="-7.5" font-family="Helvetica,sans-Serif" font-size="10.00">+ StaticClass()</text>
</a>
</g>
</g>
<!-- Node2 -->
<g id="node2" class="node"><title>Node2</title>
<g id="a_node2"><a xlink:href="a00831.html" target="_top" xlink:title=" ">
<polygon fill="none" stroke="red" points="122.5,-122 122.5,-179 256.5,-179 256.5,-122 122.5,-122"/>
<text text-anchor="middle" x="189.5" y="-167" font-family="Helvetica,sans-Serif" font-size="10.00">SDK::UEnvQueryGenerator</text>
<polyline fill="none" stroke="red" points="122.5,-160 256.5,-160 "/>
<text text-anchor="middle" x="189.5" y="-148" font-family="Helvetica,sans-Serif" font-size="10.00"> </text>
<polyline fill="none" stroke="red" points="122.5,-141 256.5,-141 "/>
<text text-anchor="start" x="130.5" y="-129" font-family="Helvetica,sans-Serif" font-size="10.00">+ StaticClass()</text>
</a>
</g>
</g>
<!-- Node2&#45;&gt;Node1 -->
<g id="edge1" class="edge"><title>Node2&#45;&gt;Node1</title>
<path fill="none" stroke="midnightblue" d="M189.5,-111.639C189.5,-97.6894 189.5,-82.0099 189.5,-68.5214"/>
<polygon fill="none" stroke="midnightblue" points="186,-111.904 189.5,-121.904 193,-111.904 186,-111.904"/>
</g>
<!-- Node10 -->
<g id="node3" class="node"><title>Node10</title>
<g id="a_node3"><a xlink:href="a25915.html" target="_top" xlink:title=" ">
<polygon fill="none" stroke="red" points="0,-232.5 0,-311.5 119,-311.5 119,-232.5 0,-232.5"/>
<text text-anchor="middle" x="59.5" y="-299.5" font-family="Helvetica,sans-Serif" font-size="10.00">SDK::UClass</text>
<polyline fill="none" stroke="red" points="0,-292.5 119,-292.5 "/>
<text text-anchor="middle" x="59.5" y="-280.5" font-family="Helvetica,sans-Serif" font-size="10.00"> </text>
<polyline fill="none" stroke="red" points="0,-273.5 119,-273.5 "/>
<text text-anchor="start" x="8" y="-261.5" font-family="Helvetica,sans-Serif" font-size="10.00">+ CreateDefaultObject()</text>
<text text-anchor="start" x="8" y="-250.5" font-family="Helvetica,sans-Serif" font-size="10.00">+ CreateDefaultObject()</text>
<text text-anchor="start" x="8" y="-239.5" font-family="Helvetica,sans-Serif" font-size="10.00">+ StaticClass()</text>
</a>
</g>
</g>
<!-- Node10&#45;&gt;Node1 -->
<g id="edge4" class="edge"><title>Node10&#45;&gt;Node1</title>
<path fill="none" stroke="#404040" d="M31.6781,-232.471C11.5626,-199.466 -8.40212,-151.744 14.5,-116 35.9079,-82.5881 75.0674,-62.8549 110.923,-51.2983"/>
<polygon fill="none" stroke="#404040" points="110.934,-51.2951 115.522,-45.7316 122.422,-47.8265 117.834,-53.3901 110.934,-51.2951"/>
<text text-anchor="middle" x="64" y="-153.5" font-family="Helvetica,sans-Serif" font-size="10.00"> +SearchedActorClass</text>
<text text-anchor="middle" x="64" y="-142.5" font-family="Helvetica,sans-Serif" font-size="10.00">+SearchCenter</text>
</g>
<!-- Node10&#45;&gt;Node2 -->
<g id="edge2" class="edge"><title>Node10&#45;&gt;Node2</title>
<path fill="none" stroke="#404040" d="M101.707,-232.202C117.302,-217.867 134.901,-201.689 150.225,-187.603"/>
<polygon fill="none" stroke="#404040" points="150.6,-187.258 152.31,-180.253 159.434,-179.137 157.724,-186.143 150.6,-187.258"/>
<text text-anchor="middle" x="157" y="-206" font-family="Helvetica,sans-Serif" font-size="10.00"> +ItemType</text>
</g>
<!-- Node18 -->
<g id="node4" class="node"><title>Node18</title>
<g id="a_node4"><a xlink:href="a01435.html" target="_top" xlink:title=" ">
<polygon fill="none" stroke="red" points="274.5,-116.5 274.5,-184.5 408.5,-184.5 408.5,-116.5 274.5,-116.5"/>
<text text-anchor="start" x="282.5" y="-172.5" font-family="Helvetica,sans-Serif" font-size="10.00">SDK::FAIDataProviderFloat</text>
<text text-anchor="middle" x="341.5" y="-161.5" font-family="Helvetica,sans-Serif" font-size="10.00">Value</text>
<polyline fill="none" stroke="red" points="274.5,-154.5 408.5,-154.5 "/>
<text text-anchor="middle" x="341.5" y="-142.5" font-family="Helvetica,sans-Serif" font-size="10.00"> </text>
<polyline fill="none" stroke="red" points="274.5,-135.5 408.5,-135.5 "/>
<text text-anchor="middle" x="341.5" y="-123.5" font-family="Helvetica,sans-Serif" font-size="10.00"> </text>
</a>
</g>
</g>
<!-- Node18&#45;&gt;Node1 -->
<g id="edge3" class="edge"><title>Node18&#45;&gt;Node1</title>
<path fill="none" stroke="#404040" d="M297.127,-116.22C280.426,-103.694 261.244,-89.3083 243.744,-76.183"/>
<polygon fill="none" stroke="#404040" points="243.266,-75.8243 236.066,-75.4243 233.666,-68.6243 240.866,-69.0243 243.266,-75.8243"/>
<text text-anchor="middle" x="305.5" y="-90" font-family="Helvetica,sans-Serif" font-size="10.00"> +SearchRadius</text>
</g>
</g>
</svg>
