<?xml version="1.0" encoding="UTF-8" standalone="no"?>
<!DOCTYPE svg PUBLIC "-//W3C//DTD SVG 1.1//EN"
 "http://www.w3.org/Graphics/SVG/1.1/DTD/svg11.dtd">
<!-- Generated by graphviz version 2.38.0 (20140413.2041)
 -->
<!-- Title: SDK::UEnvQueryGenerator_ProjectedPoints Pages: 1 -->
<svg width="270pt" height="182pt"
 viewBox="0.00 0.00 269.50 182.00" xmlns="http://www.w3.org/2000/svg" xmlns:xlink="http://www.w3.org/1999/xlink">
<g id="graph0" class="graph" transform="scale(1 1) rotate(0) translate(4 178)">
<title>SDK::UEnvQueryGenerator_ProjectedPoints</title>
<!-- Node1 -->
<g id="node1" class="node"><title>Node1</title>
<g id="a_node1"><a xlink:title=" ">
<polygon fill="#bfbfbf" stroke="black" points="70,-0.5 70,-68.5 204,-68.5 204,-0.5 70,-0.5"/>
<text text-anchor="start" x="78" y="-56.5" font-family="Helvetica,sans-Serif" font-size="10.00">SDK::UEnvQueryGenerator</text>
<text text-anchor="middle" x="137" y="-45.5" font-family="Helvetica,sans-Serif" font-size="10.00">_ProjectedPoints</text>
<polyline fill="none" stroke="black" points="70,-38.5 204,-38.5 "/>
<text text-anchor="middle" x="137" y="-26.5" font-family="Helvetica,sans-Serif" font-size="10.00"> </text>
<polyline fill="none" stroke="black" points="70,-19.5 204,-19.5 "/>
<text text-anchor="start" x="78" y="-7.5" font-family="Helvetica,sans-Serif" font-size="10.00">+ StaticClass()</text>
</a>
</g>
</g>
<!-- Node2 -->
<g id="node2" class="node"><title>Node2</title>
<g id="a_node2"><a xlink:href="a00831.html" target="_top" xlink:title=" ">
<polygon fill="none" stroke="red" points="0,-116.5 0,-173.5 134,-173.5 134,-116.5 0,-116.5"/>
<text text-anchor="middle" x="67" y="-161.5" font-family="Helvetica,sans-Serif" font-size="10.00">SDK::UEnvQueryGenerator</text>
<polyline fill="none" stroke="red" points="0,-154.5 134,-154.5 "/>
<text text-anchor="middle" x="67" y="-142.5" font-family="Helvetica,sans-Serif" font-size="10.00"> </text>
<polyline fill="none" stroke="red" points="0,-135.5 134,-135.5 "/>
<text text-anchor="start" x="8" y="-123.5" font-family="Helvetica,sans-Serif" font-size="10.00">+ StaticClass()</text>
</a>
</g>
</g>
<!-- Node2&#45;&gt;Node1 -->
<g id="edge1" class="edge"><title>Node2&#45;&gt;Node1</title>
<path fill="none" stroke="midnightblue" d="M90.3365,-107.828C98.528,-95.1315 107.682,-80.943 115.698,-68.5186"/>
<polygon fill="none" stroke="midnightblue" points="87.3253,-106.04 84.8451,-116.34 93.2074,-109.835 87.3253,-106.04"/>
</g>
<!-- Node18 -->
<g id="node3" class="node"><title>Node18</title>
<g id="a_node3"><a xlink:href="a01515.html" target="_top" xlink:title=" ">
<polygon fill="none" stroke="red" points="152.5,-116.5 152.5,-173.5 261.5,-173.5 261.5,-116.5 152.5,-116.5"/>
<text text-anchor="middle" x="207" y="-161.5" font-family="Helvetica,sans-Serif" font-size="10.00">SDK::FEnvTraceData</text>
<polyline fill="none" stroke="red" points="152.5,-154.5 261.5,-154.5 "/>
<text text-anchor="middle" x="207" y="-142.5" font-family="Helvetica,sans-Serif" font-size="10.00"> </text>
<polyline fill="none" stroke="red" points="152.5,-135.5 261.5,-135.5 "/>
<text text-anchor="middle" x="207" y="-123.5" font-family="Helvetica,sans-Serif" font-size="10.00"> </text>
</a>
</g>
</g>
<!-- Node18&#45;&gt;Node1 -->
<g id="edge2" class="edge"><title>Node18&#45;&gt;Node1</title>
<path fill="none" stroke="#404040" d="M189.155,-116.34C181.813,-104.96 173.133,-91.5068 164.983,-78.8738"/>
<polygon fill="none" stroke="#404040" points="164.808,-78.6021 158.194,-75.7289 158.302,-68.5186 164.916,-71.3918 164.808,-78.6021"/>
<text text-anchor="middle" x="213.5" y="-90" font-family="Helvetica,sans-Serif" font-size="10.00"> +ProjectionData</text>
</g>
</g>
</svg>
