<?xml version="1.0" encoding="UTF-8" standalone="no"?>
<!DOCTYPE svg PUBLIC "-//W3C//DTD SVG 1.1//EN"
 "http://www.w3.org/Graphics/SVG/1.1/DTD/svg11.dtd">
<!-- Generated by graphviz version 2.38.0 (20140413.2041)
 -->
<!-- Title: SDK::UEnvQueryGenerator_BlueprintBase Pages: 1 -->
<svg width="158pt" height="259pt"
 viewBox="0.00 0.00 158.00 259.00" xmlns="http://www.w3.org/2000/svg" xmlns:xlink="http://www.w3.org/1999/xlink">
<g id="graph0" class="graph" transform="scale(1 1) rotate(0) translate(4 255)">
<title>SDK::UEnvQueryGenerator_BlueprintBase</title>
<!-- Node1 -->
<g id="node1" class="node"><title>Node1</title>
<g id="a_node1"><a xlink:title=" ">
<polygon fill="#bfbfbf" stroke="black" points="0,-0.5 0,-145.5 150,-145.5 150,-0.5 0,-0.5"/>
<text text-anchor="start" x="8" y="-133.5" font-family="Helvetica,sans-Serif" font-size="10.00">SDK::UEnvQueryGenerator</text>
<text text-anchor="middle" x="75" y="-122.5" font-family="Helvetica,sans-Serif" font-size="10.00">_BlueprintBase</text>
<polyline fill="none" stroke="black" points="0,-115.5 150,-115.5 "/>
<text text-anchor="start" x="8" y="-103.5" font-family="Helvetica,sans-Serif" font-size="10.00">+ GeneratorsActionDescription</text>
<text text-anchor="start" x="8" y="-92.5" font-family="Helvetica,sans-Serif" font-size="10.00">+ Context</text>
<text text-anchor="start" x="8" y="-81.5" font-family="Helvetica,sans-Serif" font-size="10.00">+ GeneratedItemType</text>
<text text-anchor="start" x="8" y="-70.5" font-family="Helvetica,sans-Serif" font-size="10.00">+ UnknownData00</text>
<polyline fill="none" stroke="black" points="0,-63.5 150,-63.5 "/>
<text text-anchor="start" x="8" y="-51.5" font-family="Helvetica,sans-Serif" font-size="10.00">+ GetQuerier()</text>
<text text-anchor="start" x="8" y="-40.5" font-family="Helvetica,sans-Serif" font-size="10.00">+ DoItemGeneration()</text>
<text text-anchor="start" x="8" y="-29.5" font-family="Helvetica,sans-Serif" font-size="10.00">+ AddGeneratedVector()</text>
<text text-anchor="start" x="8" y="-18.5" font-family="Helvetica,sans-Serif" font-size="10.00">+ AddGeneratedActor()</text>
<text text-anchor="start" x="8" y="-7.5" font-family="Helvetica,sans-Serif" font-size="10.00">+ StaticClass()</text>
</a>
</g>
</g>
<!-- Node2 -->
<g id="node2" class="node"><title>Node2</title>
<g id="a_node2"><a xlink:href="a00831.html" target="_top" xlink:title=" ">
<polygon fill="none" stroke="red" points="8,-182.5 8,-250.5 142,-250.5 142,-182.5 8,-182.5"/>
<text text-anchor="middle" x="75" y="-238.5" font-family="Helvetica,sans-Serif" font-size="10.00">SDK::UEnvQueryGenerator</text>
<polyline fill="none" stroke="red" points="8,-231.5 142,-231.5 "/>
<text text-anchor="start" x="16" y="-219.5" font-family="Helvetica,sans-Serif" font-size="10.00">+ OptionName</text>
<text text-anchor="start" x="16" y="-208.5" font-family="Helvetica,sans-Serif" font-size="10.00">+ ItemType</text>
<polyline fill="none" stroke="red" points="8,-201.5 142,-201.5 "/>
<text text-anchor="start" x="16" y="-189.5" font-family="Helvetica,sans-Serif" font-size="10.00">+ StaticClass()</text>
</a>
</g>
</g>
<!-- Node2&#45;&gt;Node1 -->
<g id="edge1" class="edge"><title>Node2&#45;&gt;Node1</title>
<path fill="none" stroke="midnightblue" d="M75,-172.093C75,-163.727 75,-154.757 75,-145.766"/>
<polygon fill="none" stroke="midnightblue" points="71.5001,-172.325 75,-182.325 78.5001,-172.325 71.5001,-172.325"/>
</g>
</g>
</svg>
