<?xml version="1.0" encoding="UTF-8" standalone="no"?>
<!DOCTYPE svg PUBLIC "-//W3C//DTD SVG 1.1//EN"
 "http://www.w3.org/Graphics/SVG/1.1/DTD/svg11.dtd">
<!-- Generated by graphviz version 2.38.0 (20140413.2041)
 -->
<!-- Title: SDK::AEQSTestingPawn Pages: 1 -->
<!--zoomable 562 -->
<svg id="main" version="1.1" xmlns="http://www.w3.org/2000/svg" xmlns:xlink="http://www.w3.org/1999/xlink" xml:space="preserve" onload="init(evt)">
<style type="text/css"><![CDATA[
.edge:hover path { stroke: red; }
.edge:hover polygon { stroke: red; fill: red; }
]]></style>
<script type="text/javascript"><![CDATA[
var edges = document.getElementsByTagName('g');
if (edges && edges.length) {
  for (var i=0;i<edges.length;i++) {
    if (edges[i].id.substr(0,4)=='edge') {
      edges[i].setAttribute('class','edge');
    }
  }
}
]]></script>
        <defs>
                <circle id="rim" cx="0" cy="0" r="7"/>
                <circle id="rim2" cx="0" cy="0" r="3.5"/>
                <g id="zoomPlus">
                        <use xlink:href="#rim" fill="#404040">
                                <set attributeName="fill" to="#808080" begin="zoomplus.mouseover" end="zoomplus.mouseout"/>
                        </use>
                        <path d="M-4,0h8M0,-4v8" fill="none" stroke="white" stroke-width="1.5" pointer-events="none"/>
                </g>
                <g id="zoomMin">
                        <use xlink:href="#rim" fill="#404040">
                                <set attributeName="fill" to="#808080" begin="zoomminus.mouseover" end="zoomminus.mouseout"/>
                        </use>
                        <path d="M-4,0h8" fill="none" stroke="white" stroke-width="1.5" pointer-events="none"/>
                </g>
                <g id="dirArrow">
                        <path fill="none" stroke="white" stroke-width="1.5" d="M0,-3.0v7 M-2.5,-0.5L0,-3.0L2.5,-0.5"/>
                </g>
               <g id="resetDef">
                       <use xlink:href="#rim2" fill="#404040">
                               <set attributeName="fill" to="#808080" begin="reset.mouseover" end="reset.mouseout"/>
                       </use>
               </g>
        </defs>

<script type="text/javascript">
var viewWidth = 1237;
var viewHeight = 562;
var sectionId = 'dynsection-1';
</script>
<script xlink:href="svgpan.js"/>
<svg id="graph" class="graph">
<g id="viewport">
<title>SDK::AEQSTestingPawn</title>
<!-- Node1 -->
<g id="node1" class="node"><title>Node1</title>
<g id="a_node1"><a xlink:title=" ">
<polygon fill="#bfbfbf" stroke="black" points="648.879,-0.5 648.879,-57.5 774.879,-57.5 774.879,-0.5 648.879,-0.5"/>
<text text-anchor="middle" x="711.879" y="-45.5" font-family="Helvetica,sans-Serif" font-size="10.00">SDK::AEQSTestingPawn</text>
<polyline fill="none" stroke="black" points="648.879,-38.5 774.879,-38.5 "/>
<text text-anchor="middle" x="711.879" y="-26.5" font-family="Helvetica,sans-Serif" font-size="10.00"> </text>
<polyline fill="none" stroke="black" points="648.879,-19.5 774.879,-19.5 "/>
<text text-anchor="start" x="656.879" y="-7.5" font-family="Helvetica,sans-Serif" font-size="10.00">+ StaticClass()</text>
</a>
</g>
</g>
<!-- Node2 -->
<g id="node2" class="node"><title>Node2</title>
<g id="a_node2"><a xlink:href="a26571.html" target="_top" xlink:title=" ">
<polygon fill="none" stroke="red" points="147.379,-105.5 147.379,-327.5 332.379,-327.5 332.379,-105.5 147.379,-105.5"/>
<text text-anchor="middle" x="239.879" y="-315.5" font-family="Helvetica,sans-Serif" font-size="10.00">SDK::ACharacter</text>
<polyline fill="none" stroke="red" points="147.379,-308.5 332.379,-308.5 "/>
<text text-anchor="start" x="155.379" y="-296.5" font-family="Helvetica,sans-Serif" font-size="10.00">+ UnknownData00</text>
<text text-anchor="start" x="155.379" y="-285.5" font-family="Helvetica,sans-Serif" font-size="10.00">+ bPressedJump</text>
<text text-anchor="start" x="155.379" y="-274.5" font-family="Helvetica,sans-Serif" font-size="10.00">+ bClientWasFalling</text>
<text text-anchor="start" x="155.379" y="-263.5" font-family="Helvetica,sans-Serif" font-size="10.00">+ bSimGravityDisabled</text>
<text text-anchor="start" x="155.379" y="-252.5" font-family="Helvetica,sans-Serif" font-size="10.00">+ bServerMoveIgnoreRootMotion</text>
<polyline fill="none" stroke="red" points="147.379,-245.5 332.379,-245.5 "/>
<text text-anchor="start" x="155.379" y="-233.5" font-family="Helvetica,sans-Serif" font-size="10.00">+ UnCrouch()</text>
<text text-anchor="start" x="155.379" y="-222.5" font-family="Helvetica,sans-Serif" font-size="10.00">+ StopJumping()</text>
<text text-anchor="start" x="155.379" y="-211.5" font-family="Helvetica,sans-Serif" font-size="10.00">+ StopAnimMontage()</text>
<text text-anchor="start" x="155.379" y="-200.5" font-family="Helvetica,sans-Serif" font-size="10.00">+ SetReplicateMovement()</text>
<text text-anchor="start" x="155.379" y="-189.5" font-family="Helvetica,sans-Serif" font-size="10.00">+ PlayAnimMontage()</text>
<text text-anchor="start" x="155.379" y="-178.5" font-family="Helvetica,sans-Serif" font-size="10.00">+ OnWalkingOffLedge()</text>
<text text-anchor="start" x="155.379" y="-167.5" font-family="Helvetica,sans-Serif" font-size="10.00">+ OnRep_RootMotion()</text>
<text text-anchor="start" x="155.379" y="-156.5" font-family="Helvetica,sans-Serif" font-size="10.00">+ OnRep_ReplicatedBasedMovement()</text>
<text text-anchor="start" x="155.379" y="-145.5" font-family="Helvetica,sans-Serif" font-size="10.00">+ OnRep_IsCrouched()</text>
<text text-anchor="start" x="155.379" y="-134.5" font-family="Helvetica,sans-Serif" font-size="10.00">+ OnLaunched()</text>
<text text-anchor="start" x="155.379" y="-123.5" font-family="Helvetica,sans-Serif" font-size="10.00">and 18 more...</text>
<text text-anchor="start" x="155.379" y="-112.5" font-family="Helvetica,sans-Serif" font-size="10.00">+ StaticClass()</text>
</a>
</g>
</g>
<!-- Node2&#45;&gt;Node1 -->
<g id="edge1" class="edge"><title>Node2&#45;&gt;Node1</title>
<path fill="none" stroke="midnightblue" d="M323.688,-98.2741C333.401,-89.7432 343.823,-82.1083 354.879,-76 404.039,-48.8392 560.169,-37.1417 648.815,-32.583"/>
<polygon fill="none" stroke="midnightblue" points="321.043,-95.9508 316.051,-105.296 325.781,-101.104 321.043,-95.9508"/>
</g>
<!-- Node27 -->
<g id="node3" class="node"><title>Node27</title>
<g id="a_node3"><a xlink:title=" ">
<polygon fill="none" stroke="#bfbfbf" points="51.3787,-496.5 51.3787,-553.5 86.3787,-553.5 86.3787,-496.5 51.3787,-496.5"/>
<text text-anchor="middle" x="68.8787" y="-541.5" font-family="Helvetica,sans-Serif" font-size="10.00">float</text>
<polyline fill="none" stroke="#bfbfbf" points="51.3787,-534.5 86.3787,-534.5 "/>
<text text-anchor="middle" x="68.8787" y="-522.5" font-family="Helvetica,sans-Serif" font-size="10.00"> </text>
<polyline fill="none" stroke="#bfbfbf" points="51.3787,-515.5 86.3787,-515.5 "/>
<text text-anchor="middle" x="68.8787" y="-503.5" font-family="Helvetica,sans-Serif" font-size="10.00"> </text>
</a>
</g>
</g>
<!-- Node27&#45;&gt;Node1 -->
<g id="edge7" class="edge"><title>Node27&#45;&gt;Node1</title>
<path fill="none" stroke="#404040" d="M56.2349,-496.449C24.3969,-422.482 -49.6284,-217.556 50.8787,-105 89.3251,-61.9446 470.831,-40.397 636.142,-33.0223"/>
<polygon fill="none" stroke="#404040" points="636.624,-33.0012 642.442,-28.7418 648.612,-32.4746 642.794,-36.7341 636.624,-33.0012"/>
<text text-anchor="middle" x="94.3787" y="-214" font-family="Helvetica,sans-Serif" font-size="10.00"> +TimeLimitPerStep</text>
</g>
<!-- Node27&#45;&gt;Node2 -->
<g id="edge2" class="edge"><title>Node27&#45;&gt;Node2</title>
<path fill="none" stroke="#404040" d="M70.3149,-496.38C73.3409,-459.577 82.7346,-393.578 111.879,-346 118.3,-335.518 123.927,-336.425 132.879,-328 134.665,-326.319 136.462,-324.616 138.264,-322.895"/>
<polygon fill="none" stroke="#404040" points="138.684,-322.49 140.224,-315.445 147.32,-314.158 145.779,-321.202 138.684,-322.49"/>
<text text-anchor="middle" x="159.879" y="-420.5" font-family="Helvetica,sans-Serif" font-size="10.00"> +CrouchedEyeHeight</text>
<text text-anchor="middle" x="159.879" y="-409.5" font-family="Helvetica,sans-Serif" font-size="10.00">+JumpKeyHoldTime</text>
<text text-anchor="middle" x="159.879" y="-398.5" font-family="Helvetica,sans-Serif" font-size="10.00">+JumpMaxHoldTime</text>
</g>
<!-- Node14 -->
<g id="node4" class="node"><title>Node14</title>
<g id="a_node4"><a xlink:title=" ">
<polygon fill="none" stroke="#bfbfbf" points="283.379,-496.5 283.379,-553.5 318.379,-553.5 318.379,-496.5 283.379,-496.5"/>
<text text-anchor="middle" x="300.879" y="-541.5" font-family="Helvetica,sans-Serif" font-size="10.00">char</text>
<polyline fill="none" stroke="#bfbfbf" points="283.379,-534.5 318.379,-534.5 "/>
<text text-anchor="middle" x="300.879" y="-522.5" font-family="Helvetica,sans-Serif" font-size="10.00"> </text>
<polyline fill="none" stroke="#bfbfbf" points="283.379,-515.5 318.379,-515.5 "/>
<text text-anchor="middle" x="300.879" y="-503.5" font-family="Helvetica,sans-Serif" font-size="10.00"> </text>
</a>
</g>
</g>
<!-- Node14&#45;&gt;Node1 -->
<g id="edge6" class="edge"><title>Node14&#45;&gt;Node1</title>
<path fill="none" stroke="#404040" d="M318.553,-514.233C331.08,-506.261 347.007,-493.754 354.879,-478 392,-403.712 324.015,-168.209 377.879,-105 410.828,-66.3343 548.723,-45.8636 636.702,-36.53"/>
<polygon fill="none" stroke="#404040" points="636.832,-36.5166 642.39,-31.9225 648.769,-35.2861 643.211,-39.8803 636.832,-36.5166"/>
<text text-anchor="middle" x="446.379" y="-252.5" font-family="Helvetica,sans-Serif" font-size="10.00"> +UnknownData01</text>
<text text-anchor="middle" x="446.379" y="-241.5" font-family="Helvetica,sans-Serif" font-size="10.00">+bDrawLabels</text>
<text text-anchor="middle" x="446.379" y="-230.5" font-family="Helvetica,sans-Serif" font-size="10.00">+UnknownData02</text>
<text text-anchor="middle" x="446.379" y="-219.5" font-family="Helvetica,sans-Serif" font-size="10.00">+bShouldBeVisibleInGame</text>
<text text-anchor="middle" x="446.379" y="-208.5" font-family="Helvetica,sans-Serif" font-size="10.00">+bDrawFailedItems</text>
<text text-anchor="start" x="377.879" y="-197.5" font-family="Helvetica,sans-Serif" font-size="10.00">+bReRunQueryOnlyOnFinished</text>
<text text-anchor="middle" x="446.379" y="-186.5" font-family="Helvetica,sans-Serif" font-size="10.00">Move</text>
<text text-anchor="middle" x="446.379" y="-175.5" font-family="Helvetica,sans-Serif" font-size="10.00">+UnknownData00</text>
</g>
<!-- Node14&#45;&gt;Node2 -->
<g id="edge3" class="edge"><title>Node14&#45;&gt;Node2</title>
<path fill="none" stroke="#404040" d="M283.198,-517.477C267.059,-510.462 244.198,-497.602 233.879,-478 211.923,-436.293 208.832,-385.386 212.888,-339.675"/>
<polygon fill="none" stroke="#404040" points="212.907,-339.492 209.544,-333.113 214.138,-327.555 217.502,-333.934 212.907,-339.492"/>
<text text-anchor="middle" x="294.379" y="-470" font-family="Helvetica,sans-Serif" font-size="10.00"> +UnknownData01</text>
<text text-anchor="middle" x="294.379" y="-459" font-family="Helvetica,sans-Serif" font-size="10.00">+UnknownData02</text>
<text text-anchor="start" x="233.879" y="-448" font-family="Helvetica,sans-Serif" font-size="10.00">+bClientResimulateRoot</text>
<text text-anchor="middle" x="294.379" y="-437" font-family="Helvetica,sans-Serif" font-size="10.00">Motion</text>
<text text-anchor="middle" x="294.379" y="-426" font-family="Helvetica,sans-Serif" font-size="10.00">+UnknownData03</text>
<text text-anchor="middle" x="294.379" y="-415" font-family="Helvetica,sans-Serif" font-size="10.00">+UnknownData04</text>
<text text-anchor="middle" x="294.379" y="-404" font-family="Helvetica,sans-Serif" font-size="10.00">+bIsCrouched</text>
<text text-anchor="middle" x="294.379" y="-393" font-family="Helvetica,sans-Serif" font-size="10.00">+UnknownData05</text>
<text text-anchor="middle" x="294.379" y="-382" font-family="Helvetica,sans-Serif" font-size="10.00">+UnknownData06</text>
<text text-anchor="middle" x="294.379" y="-371" font-family="Helvetica,sans-Serif" font-size="10.00">+ReplicatedMovementMode</text>
<text text-anchor="middle" x="294.379" y="-360" font-family="Helvetica,sans-Serif" font-size="10.00">+bClientUpdating</text>
<text text-anchor="middle" x="294.379" y="-349" font-family="Helvetica,sans-Serif" font-size="10.00">...</text>
</g>
<!-- Node178 -->
<g id="node5" class="node"><title>Node178</title>
<g id="a_node5"><a xlink:href="a25847.html" target="_top" xlink:title=" ">
<polygon fill="none" stroke="black" points="524.379,-155 524.379,-278 707.379,-278 707.379,-155 524.379,-155"/>
<text text-anchor="start" x="532.379" y="-266" font-family="Helvetica,sans-Serif" font-size="10.00">SDK::TEnumAsByte&lt; EEnvQuery</text>
<text text-anchor="middle" x="615.879" y="-255" font-family="Helvetica,sans-Serif" font-size="10.00">HightlightMode &gt;</text>
<polyline fill="none" stroke="black" points="524.379,-248 707.379,-248 "/>
<text text-anchor="middle" x="615.879" y="-236" font-family="Helvetica,sans-Serif" font-size="10.00"> </text>
<polyline fill="none" stroke="black" points="524.379,-229 707.379,-229 "/>
<text text-anchor="start" x="532.379" y="-217" font-family="Helvetica,sans-Serif" font-size="10.00">+ TEnumAsByte()</text>
<text text-anchor="start" x="532.379" y="-206" font-family="Helvetica,sans-Serif" font-size="10.00">+ TEnumAsByte()</text>
<text text-anchor="start" x="532.379" y="-195" font-family="Helvetica,sans-Serif" font-size="10.00">+ TEnumAsByte()</text>
<text text-anchor="start" x="532.379" y="-184" font-family="Helvetica,sans-Serif" font-size="10.00">+ TEnumAsByte()</text>
<text text-anchor="start" x="532.379" y="-173" font-family="Helvetica,sans-Serif" font-size="10.00">+ operator EEnvQueryHightlightMode()</text>
<text text-anchor="start" x="532.379" y="-162" font-family="Helvetica,sans-Serif" font-size="10.00">+ GetValue()</text>
</a>
</g>
</g>
<!-- Node178&#45;&gt;Node1 -->
<g id="edge4" class="edge"><title>Node178&#45;&gt;Node1</title>
<path fill="none" stroke="#404040" d="M647.313,-154.76C662.013,-126.355 679.076,-93.3842 691.968,-68.4729"/>
<polygon fill="none" stroke="#404040" points="692.059,-68.2971 691.264,-61.1299 697.575,-57.6397 698.369,-64.8069 692.059,-68.2971"/>
<text text-anchor="middle" x="722.379" y="-79" font-family="Helvetica,sans-Serif" font-size="10.00"> +HighlightMode</text>
</g>
<!-- Node179 -->
<g id="node6" class="node"><title>Node179</title>
<g id="a_node6"><a xlink:href="a25847.html" target="_top" xlink:title=" ">
<polygon fill="none" stroke="black" points="725.879,-155 725.879,-278 889.879,-278 889.879,-155 725.879,-155"/>
<text text-anchor="start" x="733.879" y="-266" font-family="Helvetica,sans-Serif" font-size="10.00">SDK::TEnumAsByte&lt; EEnvQuery</text>
<text text-anchor="middle" x="807.879" y="-255" font-family="Helvetica,sans-Serif" font-size="10.00">RunMode &gt;</text>
<polyline fill="none" stroke="black" points="725.879,-248 889.879,-248 "/>
<text text-anchor="middle" x="807.879" y="-236" font-family="Helvetica,sans-Serif" font-size="10.00"> </text>
<polyline fill="none" stroke="black" points="725.879,-229 889.879,-229 "/>
<text text-anchor="start" x="733.879" y="-217" font-family="Helvetica,sans-Serif" font-size="10.00">+ TEnumAsByte()</text>
<text text-anchor="start" x="733.879" y="-206" font-family="Helvetica,sans-Serif" font-size="10.00">+ TEnumAsByte()</text>
<text text-anchor="start" x="733.879" y="-195" font-family="Helvetica,sans-Serif" font-size="10.00">+ TEnumAsByte()</text>
<text text-anchor="start" x="733.879" y="-184" font-family="Helvetica,sans-Serif" font-size="10.00">+ TEnumAsByte()</text>
<text text-anchor="start" x="733.879" y="-173" font-family="Helvetica,sans-Serif" font-size="10.00">+ operator EEnvQueryRunMode()</text>
<text text-anchor="start" x="733.879" y="-162" font-family="Helvetica,sans-Serif" font-size="10.00">+ GetValue()</text>
</a>
</g>
</g>
<!-- Node179&#45;&gt;Node1 -->
<g id="edge5" class="edge"><title>Node179&#45;&gt;Node1</title>
<path fill="none" stroke="#404040" d="M795.089,-154.832C787.906,-129.175 777.22,-99.7888 761.879,-76 759.769,-72.7288 757.373,-69.5366 754.798,-66.4573"/>
<polygon fill="none" stroke="#404040" points="754.771,-66.4274 747.765,-64.7168 746.65,-57.5925 753.655,-59.303 754.771,-66.4274"/>
<text text-anchor="middle" x="805.379" y="-79" font-family="Helvetica,sans-Serif" font-size="10.00"> +QueryingMode</text>
</g>
<!-- Node180 -->
<g id="node7" class="node"><title>Node180</title>
<g id="a_node7"><a xlink:href="a25823.html" target="_top" xlink:title=" ">
<polygon fill="none" stroke="black" points="907.879,-160.5 907.879,-272.5 1039.88,-272.5 1039.88,-160.5 907.879,-160.5"/>
<text text-anchor="start" x="915.879" y="-260.5" font-family="Helvetica,sans-Serif" font-size="10.00">SDK::TArray&lt; struct</text>
<text text-anchor="middle" x="973.879" y="-249.5" font-family="Helvetica,sans-Serif" font-size="10.00"> SDK::FEnvNamedValue &gt;</text>
<polyline fill="none" stroke="black" points="907.879,-242.5 1039.88,-242.5 "/>
<text text-anchor="middle" x="973.879" y="-230.5" font-family="Helvetica,sans-Serif" font-size="10.00"> </text>
<polyline fill="none" stroke="black" points="907.879,-223.5 1039.88,-223.5 "/>
<text text-anchor="start" x="915.879" y="-211.5" font-family="Helvetica,sans-Serif" font-size="10.00">+ TArray()</text>
<text text-anchor="start" x="915.879" y="-200.5" font-family="Helvetica,sans-Serif" font-size="10.00">+ Num()</text>
<text text-anchor="start" x="915.879" y="-189.5" font-family="Helvetica,sans-Serif" font-size="10.00">+ operator[]()</text>
<text text-anchor="start" x="915.879" y="-178.5" font-family="Helvetica,sans-Serif" font-size="10.00">+ operator[]()</text>
<text text-anchor="start" x="915.879" y="-167.5" font-family="Helvetica,sans-Serif" font-size="10.00">+ IsValidIndex()</text>
</a>
</g>
</g>
<!-- Node180&#45;&gt;Node1 -->
<g id="edge8" class="edge"><title>Node180&#45;&gt;Node1</title>
<path fill="none" stroke="#404040" d="M943.75,-160.347C931.54,-141.27 916.21,-120.748 898.879,-105 867.576,-76.557 824.126,-58.2509 786.987,-46.8513"/>
<polygon fill="none" stroke="#404040" points="786.689,-46.7641 779.806,-48.9149 775.174,-43.3887 782.057,-41.2379 786.689,-46.7641"/>
<text text-anchor="middle" x="908.879" y="-79" font-family="Helvetica,sans-Serif" font-size="10.00"> +QueryParams</text>
</g>
<!-- Node42 -->
<g id="node8" class="node"><title>Node42</title>
<g id="a_node8"><a xlink:title=" ">
<polygon fill="none" stroke="#bfbfbf" points="1058.38,-188 1058.38,-245 1087.38,-245 1087.38,-188 1058.38,-188"/>
<text text-anchor="middle" x="1072.88" y="-233" font-family="Helvetica,sans-Serif" font-size="10.00">int</text>
<polyline fill="none" stroke="#bfbfbf" points="1058.38,-226 1087.38,-226 "/>
<text text-anchor="middle" x="1072.88" y="-214" font-family="Helvetica,sans-Serif" font-size="10.00"> </text>
<polyline fill="none" stroke="#bfbfbf" points="1058.38,-207 1087.38,-207 "/>
<text text-anchor="middle" x="1072.88" y="-195" font-family="Helvetica,sans-Serif" font-size="10.00"> </text>
</a>
</g>
</g>
<!-- Node42&#45;&gt;Node1 -->
<g id="edge9" class="edge"><title>Node42&#45;&gt;Node1</title>
<path fill="none" stroke="#404040" d="M1074.33,-187.844C1074.09,-163.035 1069.68,-127.212 1048.88,-105 1013.86,-67.6004 875.322,-46.7048 787.143,-36.9491"/>
<polygon fill="none" stroke="#404040" points="786.982,-36.9318 780.588,-40.2658 775.051,-35.6459 781.445,-32.3119 786.982,-36.9318"/>
<text text-anchor="middle" x="1065.88" y="-79" font-family="Helvetica,sans-Serif" font-size="10.00"> +StepToDebugDraw</text>
</g>
<!-- Node181 -->
<g id="node9" class="node"><title>Node181</title>
<g id="a_node9"><a xlink:href="a01287.html" target="_top" xlink:title=" ">
<polygon fill="none" stroke="red" points="1136.88,-188 1136.88,-245 1228.88,-245 1228.88,-188 1136.88,-188"/>
<text text-anchor="middle" x="1182.88" y="-233" font-family="Helvetica,sans-Serif" font-size="10.00">SDK::UEnvQuery</text>
<polyline fill="none" stroke="red" points="1136.88,-226 1228.88,-226 "/>
<text text-anchor="middle" x="1182.88" y="-214" font-family="Helvetica,sans-Serif" font-size="10.00"> </text>
<polyline fill="none" stroke="red" points="1136.88,-207 1228.88,-207 "/>
<text text-anchor="start" x="1144.88" y="-195" font-family="Helvetica,sans-Serif" font-size="10.00">+ StaticClass()</text>
</a>
</g>
</g>
<!-- Node181&#45;&gt;Node1 -->
<g id="edge10" class="edge"><title>Node181&#45;&gt;Node1</title>
<path fill="none" stroke="#404040" d="M1177.67,-187.801C1169.99,-155.283 1152.28,-102.443 1114.88,-76 1063.7,-39.8146 888.834,-31.7108 787.042,-30.1315"/>
<polygon fill="none" stroke="#404040" points="787.003,-30.1311 780.949,-34.0501 775.004,-29.9698 781.057,-26.0508 787.003,-30.1311"/>
<text text-anchor="middle" x="1165.88" y="-79" font-family="Helvetica,sans-Serif" font-size="10.00"> +QueryTemplate</text>
</g>
</g>
</svg>
        <g id="navigator" transform="translate(0 0)" fill="#404254">
                <rect fill="#f2f5e9" fill-opacity="0.5" stroke="#606060" stroke-width=".5" x="0" y="0" width="60" height="60"/>
                <use id="zoomplus" xlink:href="#zoomPlus" x="17" y="9" onmousedown="handleZoom(evt,'in')"/>
                <use id="zoomminus" xlink:href="#zoomMin" x="42" y="9" onmousedown="handleZoom(evt,'out')"/>
                <use id="reset" xlink:href="#resetDef" x="30" y="36" onmousedown="handleReset()"/>
                <g id="arrowUp" xlink:href="#dirArrow" transform="translate(30 24)" onmousedown="handlePan(0,-1)">
                  <use xlink:href="#rim" fill="#404040">
                        <set attributeName="fill" to="#808080" begin="arrowUp.mouseover" end="arrowUp.mouseout"/>
                  </use>
                  <path fill="none" stroke="white" stroke-width="1.5" d="M0,-3.0v7 M-2.5,-0.5L0,-3.0L2.5,-0.5"/>
                </g>
                <g id="arrowRight" xlink:href="#dirArrow" transform="rotate(90) translate(36 -43)" onmousedown="handlePan(1,0)">
                  <use xlink:href="#rim" fill="#404040">
                        <set attributeName="fill" to="#808080" begin="arrowRight.mouseover" end="arrowRight.mouseout"/>
                  </use>
                  <path fill="none" stroke="white" stroke-width="1.5" d="M0,-3.0v7 M-2.5,-0.5L0,-3.0L2.5,-0.5"/>
                </g>
                <g id="arrowDown" xlink:href="#dirArrow" transform="rotate(180) translate(-30 -48)" onmousedown="handlePan(0,1)">
                  <use xlink:href="#rim" fill="#404040">
                        <set attributeName="fill" to="#808080" begin="arrowDown.mouseover" end="arrowDown.mouseout"/>
                  </use>
                  <path fill="none" stroke="white" stroke-width="1.5" d="M0,-3.0v7 M-2.5,-0.5L0,-3.0L2.5,-0.5"/>
                </g>
                <g id="arrowLeft" xlink:href="#dirArrow" transform="rotate(270) translate(-36 17)" onmousedown="handlePan(-1,0)">
                  <use xlink:href="#rim" fill="#404040">
                        <set attributeName="fill" to="#808080" begin="arrowLeft.mouseover" end="arrowLeft.mouseout"/>
                  </use>
                  <path fill="none" stroke="white" stroke-width="1.5" d="M0,-3.0v7 M-2.5,-0.5L0,-3.0L2.5,-0.5"/>
                </g>
        </g>
        <svg viewBox="0 0 15 15" width="100%" height="30px" preserveAspectRatio="xMaxYMin meet">
         <g id="arrow_out" transform="scale(0.3 0.3)">
          <a xlink:href="a01409_org.svg" target="_base">
           <rect id="button" ry="5" rx="5" y="6" x="6" height="38" width="38"
                fill="#f2f5e9" fill-opacity="0.5" stroke="#606060" stroke-width="1.0"/>
           <path id="arrow"
             d="M 11.500037,31.436501 C 11.940474,20.09759 22.043105,11.32322 32.158766,21.979434 L 37.068811,17.246167 C 37.068811,17.246167 37.088388,32 37.088388,32 L 22.160133,31.978069 C 22.160133,31.978069 26.997745,27.140456 26.997745,27.140456 C 18.528582,18.264221 13.291696,25.230495 11.500037,31.436501 z"
             style="fill:#404040;"/>
          </a>
         </g>
        </svg>
</svg>
