<?xml version="1.0" encoding="UTF-8" standalone="no"?>
<!DOCTYPE svg PUBLIC "-//W3C//DTD SVG 1.1//EN"
 "http://www.w3.org/Graphics/SVG/1.1/DTD/svg11.dtd">
<!-- Generated by graphviz version 2.38.0 (20140413.2041)
 -->
<!-- Title: SDK::FAIDataProviderIntValue Pages: 1 -->
<svg width="335pt" height="182pt"
 viewBox="0.00 0.00 334.50 182.00" xmlns="http://www.w3.org/2000/svg" xmlns:xlink="http://www.w3.org/1999/xlink">
<g id="graph0" class="graph" transform="scale(1 1) rotate(0) translate(4 178)">
<title>SDK::FAIDataProviderIntValue</title>
<!-- Node1 -->
<g id="node1" class="node"><title>Node1</title>
<g id="a_node1"><a xlink:title=" ">
<polygon fill="#bfbfbf" stroke="black" points="100.5,-0.5 100.5,-57.5 248.5,-57.5 248.5,-0.5 100.5,-0.5"/>
<text text-anchor="middle" x="174.5" y="-45.5" font-family="Helvetica,sans-Serif" font-size="10.00">SDK::FAIDataProviderIntValue</text>
<polyline fill="none" stroke="black" points="100.5,-38.5 248.5,-38.5 "/>
<text text-anchor="middle" x="174.5" y="-26.5" font-family="Helvetica,sans-Serif" font-size="10.00"> </text>
<polyline fill="none" stroke="black" points="100.5,-19.5 248.5,-19.5 "/>
<text text-anchor="middle" x="174.5" y="-7.5" font-family="Helvetica,sans-Serif" font-size="10.00"> </text>
</a>
</g>
</g>
<!-- Node2 -->
<g id="node2" class="node"><title>Node2</title>
<g id="a_node2"><a xlink:href="a01427.html" target="_top" xlink:title=" ">
<polygon fill="none" stroke="red" points="0,-105.5 0,-173.5 139,-173.5 139,-105.5 0,-105.5"/>
<text text-anchor="start" x="8" y="-161.5" font-family="Helvetica,sans-Serif" font-size="10.00">SDK::FAIDataProviderTyped</text>
<text text-anchor="middle" x="69.5" y="-150.5" font-family="Helvetica,sans-Serif" font-size="10.00">Value</text>
<polyline fill="none" stroke="red" points="0,-143.5 139,-143.5 "/>
<text text-anchor="middle" x="69.5" y="-131.5" font-family="Helvetica,sans-Serif" font-size="10.00"> </text>
<polyline fill="none" stroke="red" points="0,-124.5 139,-124.5 "/>
<text text-anchor="middle" x="69.5" y="-112.5" font-family="Helvetica,sans-Serif" font-size="10.00"> </text>
</a>
</g>
</g>
<!-- Node2&#45;&gt;Node1 -->
<g id="edge1" class="edge"><title>Node2&#45;&gt;Node1</title>
<path fill="none" stroke="midnightblue" d="M108.636,-98.0597C121.602,-84.6611 135.734,-70.0585 147.571,-57.827"/>
<polygon fill="none" stroke="midnightblue" points="106.013,-95.7368 101.574,-105.357 111.043,-100.605 106.013,-95.7368"/>
</g>
<!-- Node14 -->
<g id="node3" class="node"><title>Node14</title>
<g id="a_node3"><a xlink:title=" ">
<polygon fill="none" stroke="#bfbfbf" points="157,-111 157,-168 192,-168 192,-111 157,-111"/>
<text text-anchor="middle" x="174.5" y="-156" font-family="Helvetica,sans-Serif" font-size="10.00">char</text>
<polyline fill="none" stroke="#bfbfbf" points="157,-149 192,-149 "/>
<text text-anchor="middle" x="174.5" y="-137" font-family="Helvetica,sans-Serif" font-size="10.00"> </text>
<polyline fill="none" stroke="#bfbfbf" points="157,-130 192,-130 "/>
<text text-anchor="middle" x="174.5" y="-118" font-family="Helvetica,sans-Serif" font-size="10.00"> </text>
</a>
</g>
</g>
<!-- Node14&#45;&gt;Node1 -->
<g id="edge2" class="edge"><title>Node14&#45;&gt;Node1</title>
<path fill="none" stroke="#404040" d="M174.5,-110.84C174.5,-98.342 174.5,-83.3424 174.5,-69.6757"/>
<polygon fill="none" stroke="#404040" points="174.5,-69.6094 170.5,-63.6094 174.5,-57.6094 178.5,-63.6093 174.5,-69.6094"/>
<text text-anchor="middle" x="214.5" y="-79" font-family="Helvetica,sans-Serif" font-size="10.00"> +UnknownData00</text>
</g>
<!-- Node17 -->
<g id="node4" class="node"><title>Node17</title>
<g id="a_node4"><a xlink:title=" ">
<polygon fill="none" stroke="#bfbfbf" points="263,-111 263,-168 292,-168 292,-111 263,-111"/>
<text text-anchor="middle" x="277.5" y="-156" font-family="Helvetica,sans-Serif" font-size="10.00">int</text>
<polyline fill="none" stroke="#bfbfbf" points="263,-149 292,-149 "/>
<text text-anchor="middle" x="277.5" y="-137" font-family="Helvetica,sans-Serif" font-size="10.00"> </text>
<polyline fill="none" stroke="#bfbfbf" points="263,-130 292,-130 "/>
<text text-anchor="middle" x="277.5" y="-118" font-family="Helvetica,sans-Serif" font-size="10.00"> </text>
</a>
</g>
</g>
<!-- Node17&#45;&gt;Node1 -->
<g id="edge3" class="edge"><title>Node17&#45;&gt;Node1</title>
<path fill="none" stroke="#404040" d="M272.293,-110.803C269.008,-99.0823 263.764,-85.8839 255.5,-76 252.232,-72.0919 248.542,-68.4491 244.584,-65.0655"/>
<polygon fill="none" stroke="#404040" points="244.441,-64.956 237.247,-64.4671 234.931,-57.6379 242.125,-58.1268 244.441,-64.956"/>
<text text-anchor="middle" x="294.5" y="-79" font-family="Helvetica,sans-Serif" font-size="10.00"> +DefaultValue</text>
</g>
</g>
</svg>
