<?xml version="1.0" encoding="UTF-8" standalone="no"?>
<!DOCTYPE svg PUBLIC "-//W3C//DTD SVG 1.1//EN"
 "http://www.w3.org/Graphics/SVG/1.1/DTD/svg11.dtd">
<!-- Generated by graphviz version 2.38.0 (20140413.2041)
 -->
<!-- Title: SDK::UAIShipEncounterParamsDataAsset Pages: 1 -->
<svg width="1679pt" height="606pt"
 viewBox="0.00 0.00 1678.50 606.00" xmlns="http://www.w3.org/2000/svg" xmlns:xlink="http://www.w3.org/1999/xlink">
<g id="graph0" class="graph" transform="scale(1 1) rotate(0) translate(4 602)">
<title>SDK::UAIShipEncounterParamsDataAsset</title>
<!-- Node1 -->
<g id="node1" class="node"><title>Node1</title>
<g id="a_node1"><a xlink:title=" ">
<polygon fill="#bfbfbf" stroke="black" points="612.5,-0.5 612.5,-68.5 768.5,-68.5 768.5,-0.5 612.5,-0.5"/>
<text text-anchor="start" x="620.5" y="-56.5" font-family="Helvetica,sans-Serif" font-size="10.00">SDK::UAIShipEncounterParams</text>
<text text-anchor="middle" x="690.5" y="-45.5" font-family="Helvetica,sans-Serif" font-size="10.00">DataAsset</text>
<polyline fill="none" stroke="black" points="612.5,-38.5 768.5,-38.5 "/>
<text text-anchor="middle" x="690.5" y="-26.5" font-family="Helvetica,sans-Serif" font-size="10.00"> </text>
<polyline fill="none" stroke="black" points="612.5,-19.5 768.5,-19.5 "/>
<text text-anchor="start" x="620.5" y="-7.5" font-family="Helvetica,sans-Serif" font-size="10.00">+ StaticClass()</text>
</a>
</g>
</g>
<!-- Node2 -->
<g id="node2" class="node"><title>Node2</title>
<g id="a_node2"><a xlink:href="a26559.html" target="_top" xlink:title=" ">
<polygon fill="none" stroke="red" points="213,-540.5 213,-597.5 308,-597.5 308,-540.5 213,-540.5"/>
<text text-anchor="middle" x="260.5" y="-585.5" font-family="Helvetica,sans-Serif" font-size="10.00">SDK::UDataAsset</text>
<polyline fill="none" stroke="red" points="213,-578.5 308,-578.5 "/>
<text text-anchor="middle" x="260.5" y="-566.5" font-family="Helvetica,sans-Serif" font-size="10.00"> </text>
<polyline fill="none" stroke="red" points="213,-559.5 308,-559.5 "/>
<text text-anchor="start" x="221" y="-547.5" font-family="Helvetica,sans-Serif" font-size="10.00">+ StaticClass()</text>
</a>
</g>
</g>
<!-- Node2&#45;&gt;Node1 -->
<g id="edge1" class="edge"><title>Node2&#45;&gt;Node1</title>
<path fill="none" stroke="midnightblue" d="M242.57,-531.333C206.318,-451.466 134.145,-258.423 212.5,-127 252.794,-59.4161 487.469,-41.7399 612.357,-37.1248"/>
<polygon fill="none" stroke="midnightblue" points="239.432,-532.887 246.8,-540.5 245.788,-529.954 239.432,-532.887"/>
</g>
<!-- Node14 -->
<g id="node3" class="node"><title>Node14</title>
<g id="a_node3"><a xlink:href="a03527.html" target="_top" xlink:title=" ">
<polygon fill="none" stroke="red" points="0,-215.5 0,-283.5 143,-283.5 143,-215.5 0,-215.5"/>
<text text-anchor="start" x="8" y="-271.5" font-family="Helvetica,sans-Serif" font-size="10.00">SDK::UBuoyantObjectSpawn</text>
<text text-anchor="middle" x="71.5" y="-260.5" font-family="Helvetica,sans-Serif" font-size="10.00">ProfileDataAsset</text>
<polyline fill="none" stroke="red" points="0,-253.5 143,-253.5 "/>
<text text-anchor="middle" x="71.5" y="-241.5" font-family="Helvetica,sans-Serif" font-size="10.00"> </text>
<polyline fill="none" stroke="red" points="0,-234.5 143,-234.5 "/>
<text text-anchor="start" x="8" y="-222.5" font-family="Helvetica,sans-Serif" font-size="10.00">+ StaticClass()</text>
</a>
</g>
</g>
<!-- Node2&#45;&gt;Node14 -->
<g id="edge3" class="edge"><title>Node2&#45;&gt;Node14</title>
<path fill="none" stroke="midnightblue" d="M204.114,-542.675C195.068,-536.831 186.422,-529.948 179.5,-522 117.37,-450.653 88.4459,-339.166 77.3203,-283.891"/>
<polygon fill="none" stroke="midnightblue" points="202.496,-545.787 212.865,-547.962 206.115,-539.795 202.496,-545.787"/>
</g>
<!-- Node26 -->
<g id="node4" class="node"><title>Node26</title>
<g id="a_node4"><a xlink:href="a01623.html" target="_top" xlink:title=" ">
<polygon fill="none" stroke="red" points="222,-215.5 222,-283.5 377,-283.5 377,-215.5 222,-215.5"/>
<text text-anchor="start" x="230" y="-271.5" font-family="Helvetica,sans-Serif" font-size="10.00">SDK::UAIShipContextDescData</text>
<text text-anchor="middle" x="299.5" y="-260.5" font-family="Helvetica,sans-Serif" font-size="10.00">Asset</text>
<polyline fill="none" stroke="red" points="222,-253.5 377,-253.5 "/>
<text text-anchor="middle" x="299.5" y="-241.5" font-family="Helvetica,sans-Serif" font-size="10.00"> </text>
<polyline fill="none" stroke="red" points="222,-234.5 377,-234.5 "/>
<text text-anchor="start" x="230" y="-222.5" font-family="Helvetica,sans-Serif" font-size="10.00">+ StaticClass()</text>
</a>
</g>
</g>
<!-- Node2&#45;&gt;Node26 -->
<g id="edge5" class="edge"><title>Node2&#45;&gt;Node26</title>
<path fill="none" stroke="midnightblue" d="M262.376,-530.386C264.433,-494.283 268.292,-438.27 274.5,-390 279.208,-353.395 286.982,-311.793 292.612,-283.617"/>
<polygon fill="none" stroke="midnightblue" points="258.876,-530.291 261.82,-540.469 265.866,-530.677 258.876,-530.291"/>
</g>
<!-- Node68 -->
<g id="node7" class="node"><title>Node68</title>
<g id="a_node7"><a xlink:href="a01627.html" target="_top" xlink:title=" ">
<polygon fill="none" stroke="black" points="905,-127.5 905,-371.5 1062,-371.5 1062,-127.5 905,-127.5"/>
<text text-anchor="start" x="913" y="-359.5" font-family="Helvetica,sans-Serif" font-size="10.00">SDK::UAIShipContextParams</text>
<text text-anchor="middle" x="983.5" y="-348.5" font-family="Helvetica,sans-Serif" font-size="10.00">DataAsset</text>
<polyline fill="none" stroke="black" points="905,-341.5 1062,-341.5 "/>
<text text-anchor="start" x="913" y="-329.5" font-family="Helvetica,sans-Serif" font-size="10.00">+ TimeSpentEmotingOnInitial</text>
<text text-anchor="start" x="913" y="-318.5" font-family="Helvetica,sans-Serif" font-size="10.00">Spawn</text>
<text text-anchor="start" x="913" y="-307.5" font-family="Helvetica,sans-Serif" font-size="10.00">+ IntervalBetweenRepairDamage</text>
<text text-anchor="start" x="913" y="-296.5" font-family="Helvetica,sans-Serif" font-size="10.00">Assignments</text>
<text text-anchor="start" x="913" y="-285.5" font-family="Helvetica,sans-Serif" font-size="10.00">+ IntervalBetweenUseCannon</text>
<text text-anchor="start" x="913" y="-274.5" font-family="Helvetica,sans-Serif" font-size="10.00">Assignments</text>
<text text-anchor="start" x="913" y="-263.5" font-family="Helvetica,sans-Serif" font-size="10.00">+ DistForMinXYAIInteractable</text>
<text text-anchor="start" x="913" y="-252.5" font-family="Helvetica,sans-Serif" font-size="10.00">Utility</text>
<text text-anchor="start" x="913" y="-241.5" font-family="Helvetica,sans-Serif" font-size="10.00">+ DistForMaxXYAIInteractable</text>
<text text-anchor="start" x="913" y="-230.5" font-family="Helvetica,sans-Serif" font-size="10.00">Utility</text>
<text text-anchor="start" x="913" y="-219.5" font-family="Helvetica,sans-Serif" font-size="10.00">+ MaxXYAIInteractableUtility</text>
<text text-anchor="start" x="913" y="-208.5" font-family="Helvetica,sans-Serif" font-size="10.00">+ MinZAIInteractableUtility</text>
<text text-anchor="start" x="913" y="-197.5" font-family="Helvetica,sans-Serif" font-size="10.00">+ MaxZAIInteractableUtility</text>
<text text-anchor="start" x="913" y="-186.5" font-family="Helvetica,sans-Serif" font-size="10.00">+ MinInactiveRepairSpawnDelay</text>
<text text-anchor="start" x="913" y="-175.5" font-family="Helvetica,sans-Serif" font-size="10.00">+ SpawnSfxDistance</text>
<text text-anchor="start" x="913" y="-164.5" font-family="Helvetica,sans-Serif" font-size="10.00">+ StuckCheckDistance</text>
<text text-anchor="start" x="913" y="-153.5" font-family="Helvetica,sans-Serif" font-size="10.00">+ MaxDistanceFromEncounter</text>
<polyline fill="none" stroke="black" points="905,-146.5 1062,-146.5 "/>
<text text-anchor="start" x="913" y="-134.5" font-family="Helvetica,sans-Serif" font-size="10.00">+ StaticClass()</text>
</a>
</g>
</g>
<!-- Node2&#45;&gt;Node68 -->
<g id="edge10" class="edge"><title>Node2&#45;&gt;Node68</title>
<path fill="none" stroke="midnightblue" d="M318.251,-556.612C348.341,-550.988 385.799,-544.468 419.5,-540 463.956,-534.106 586.949,-551.757 620.5,-522 665.367,-482.206 603.305,-429.421 648.5,-390 689.974,-353.825 847.425,-398.787 895.5,-372 898.685,-370.225 901.785,-368.281 904.8,-366.192"/>
<polygon fill="none" stroke="midnightblue" points="317.523,-553.187 308.345,-558.48 318.82,-560.066 317.523,-553.187"/>
</g>
<!-- Node70 -->
<g id="node12" class="node"><title>Node70</title>
<g id="a_node12"><a xlink:href="a01631.html" target="_top" xlink:title=" ">
<polygon fill="none" stroke="red" points="511.5,-215.5 511.5,-283.5 663.5,-283.5 663.5,-215.5 511.5,-215.5"/>
<text text-anchor="start" x="519.5" y="-271.5" font-family="Helvetica,sans-Serif" font-size="10.00">SDK::UAIShipEncounterSpawn</text>
<text text-anchor="middle" x="587.5" y="-260.5" font-family="Helvetica,sans-Serif" font-size="10.00">ParamsDataAsset</text>
<polyline fill="none" stroke="red" points="511.5,-253.5 663.5,-253.5 "/>
<text text-anchor="middle" x="587.5" y="-241.5" font-family="Helvetica,sans-Serif" font-size="10.00"> </text>
<polyline fill="none" stroke="red" points="511.5,-234.5 663.5,-234.5 "/>
<text text-anchor="start" x="519.5" y="-222.5" font-family="Helvetica,sans-Serif" font-size="10.00">+ StaticClass()</text>
</a>
</g>
</g>
<!-- Node2&#45;&gt;Node70 -->
<g id="edge22" class="edge"><title>Node2&#45;&gt;Node70</title>
<path fill="none" stroke="midnightblue" d="M317.813,-554.563C337.729,-547.564 358.948,-537.182 374.5,-522 420.227,-477.362 383.235,-431.882 431.5,-390 454.464,-370.073 472.402,-389.161 497.5,-372 530.22,-349.627 555.653,-311.375 571.012,-283.761"/>
<polygon fill="none" stroke="midnightblue" points="316.578,-551.285 308.172,-557.734 318.765,-557.935 316.578,-551.285"/>
</g>
<!-- Node14&#45;&gt;Node1 -->
<g id="edge2" class="edge"><title>Node14&#45;&gt;Node1</title>
<path fill="none" stroke="#404040" d="M53.4422,-215.452C36.3507,-179.178 17.6427,-121.52 49.5,-87 86.083,-47.3599 432.751,-38.22 600.468,-36.1209"/>
<polygon fill="none" stroke="#404040" points="600.473,-36.1209 606.425,-32.0502 612.472,-35.9788 606.52,-40.0496 600.473,-36.1209"/>
<text text-anchor="start" x="49.5" y="-101" font-family="Helvetica,sans-Serif" font-size="10.00"> +BuoyantObjectSpawnProfile</text>
<text text-anchor="middle" x="114.5" y="-90" font-family="Helvetica,sans-Serif" font-size="10.00">Asset</text>
</g>
<!-- Node26&#45;&gt;Node1 -->
<g id="edge4" class="edge"><title>Node26&#45;&gt;Node1</title>
<path fill="none" stroke="#404040" d="M289.102,-215.498C279.948,-179.264 272.396,-121.643 303.5,-87 323.039,-65.238 492.146,-49.4105 600.259,-41.4074"/>
<polygon fill="none" stroke="#404040" points="600.507,-41.3894 606.2,-36.9638 612.475,-40.5171 606.782,-44.9427 600.507,-41.3894"/>
<text text-anchor="middle" x="351.5" y="-95.5" font-family="Helvetica,sans-Serif" font-size="10.00"> +DefaultContextDesc</text>
</g>
<!-- Node12 -->
<g id="node5" class="node"><title>Node12</title>
<g id="a_node5"><a xlink:title=" ">
<polygon fill="none" stroke="#bfbfbf" points="429,-540.5 429,-597.5 464,-597.5 464,-540.5 429,-540.5"/>
<text text-anchor="middle" x="446.5" y="-585.5" font-family="Helvetica,sans-Serif" font-size="10.00">char</text>
<polyline fill="none" stroke="#bfbfbf" points="429,-578.5 464,-578.5 "/>
<text text-anchor="middle" x="446.5" y="-566.5" font-family="Helvetica,sans-Serif" font-size="10.00"> </text>
<polyline fill="none" stroke="#bfbfbf" points="429,-559.5 464,-559.5 "/>
<text text-anchor="middle" x="446.5" y="-547.5" font-family="Helvetica,sans-Serif" font-size="10.00"> </text>
</a>
</g>
</g>
<!-- Node12&#45;&gt;Node1 -->
<g id="edge7" class="edge"><title>Node12&#45;&gt;Node1</title>
<path fill="none" stroke="#404040" d="M436.14,-540.078C434.308,-534.18 432.628,-527.942 431.5,-522 415.128,-435.739 371.421,-198.413 422.5,-127 462.655,-70.8597 539.367,-48.7761 600.464,-40.2797"/>
<polygon fill="none" stroke="#404040" points="600.556,-40.2681 606.004,-35.5437 612.46,-38.7555 607.012,-43.4799 600.556,-40.2681"/>
<text text-anchor="middle" x="462.5" y="-258" font-family="Helvetica,sans-Serif" font-size="10.00"> +UnknownData01</text>
<text text-anchor="middle" x="462.5" y="-247" font-family="Helvetica,sans-Serif" font-size="10.00">+UnknownData02</text>
<text text-anchor="middle" x="462.5" y="-236" font-family="Helvetica,sans-Serif" font-size="10.00">+UnknownData00</text>
</g>
<!-- Node12&#45;&gt;Node26 -->
<g id="edge6" class="edge"><title>Node12&#45;&gt;Node26</title>
<path fill="none" stroke="#404040" d="M428.658,-567.327C400.356,-565.203 345.7,-556.578 319.5,-522 269.773,-456.371 278.465,-354.329 289.094,-295.829"/>
<polygon fill="none" stroke="#404040" points="289.164,-295.468 286.376,-288.817 291.443,-283.686 294.231,-290.336 289.164,-295.468"/>
<text text-anchor="middle" x="359.5" y="-453.5" font-family="Helvetica,sans-Serif" font-size="10.00"> +UnknownData00</text>
</g>
<!-- Node12&#45;&gt;Node68 -->
<g id="edge11" class="edge"><title>Node12&#45;&gt;Node68</title>
<path fill="none" stroke="#404040" d="M464.118,-566.437C508.091,-562.16 620.904,-548.76 645.5,-522 685.61,-478.362 621.245,-430.523 664.5,-390 699.727,-356.998 832.455,-392.18 893.57,-371.16"/>
<polygon fill="none" stroke="#404040" points="893.824,-371.048 897.68,-364.954 904.788,-366.17 900.932,-372.264 893.824,-371.048"/>
<text text-anchor="middle" x="704.5" y="-459" font-family="Helvetica,sans-Serif" font-size="10.00"> +UnknownData01</text>
<text text-anchor="middle" x="704.5" y="-448" font-family="Helvetica,sans-Serif" font-size="10.00">+UnknownData00</text>
</g>
<!-- Node69 -->
<g id="node10" class="node"><title>Node69</title>
<g id="a_node10"><a xlink:href="a25859.html" target="_top" xlink:title=" ">
<polygon fill="none" stroke="black" points="681.5,-221 681.5,-278 749.5,-278 749.5,-221 681.5,-221"/>
<text text-anchor="middle" x="715.5" y="-266" font-family="Helvetica,sans-Serif" font-size="10.00">SDK::FText</text>
<polyline fill="none" stroke="black" points="681.5,-259 749.5,-259 "/>
<text text-anchor="middle" x="715.5" y="-247" font-family="Helvetica,sans-Serif" font-size="10.00"> </text>
<polyline fill="none" stroke="black" points="681.5,-240 749.5,-240 "/>
<text text-anchor="middle" x="715.5" y="-228" font-family="Helvetica,sans-Serif" font-size="10.00"> </text>
</a>
</g>
</g>
<!-- Node12&#45;&gt;Node69 -->
<g id="edge16" class="edge"><title>Node12&#45;&gt;Node69</title>
<path fill="none" stroke="#404040" d="M442.346,-540.435C436.323,-495.938 427.893,-411.119 447.5,-390 481.628,-353.24 632.728,-402.565 672.5,-372 697.578,-352.727 708.072,-317.695 712.441,-290.183"/>
<polygon fill="none" stroke="#404040" points="712.459,-290.049 709.289,-283.572 714.048,-278.155 717.218,-284.632 712.459,-290.049"/>
<text text-anchor="middle" x="482.5" y="-453.5" font-family="Helvetica,sans-Serif" font-size="10.00"> +UnknownData</text>
</g>
<!-- Node9 -->
<g id="node11" class="node"><title>Node9</title>
<g id="a_node11"><a xlink:href="a26127.html" target="_top" xlink:title=" ">
<polygon fill="none" stroke="red" points="768,-210 768,-289 887,-289 887,-210 768,-210"/>
<text text-anchor="middle" x="827.5" y="-277" font-family="Helvetica,sans-Serif" font-size="10.00">SDK::UClass</text>
<polyline fill="none" stroke="red" points="768,-270 887,-270 "/>
<text text-anchor="middle" x="827.5" y="-258" font-family="Helvetica,sans-Serif" font-size="10.00"> </text>
<polyline fill="none" stroke="red" points="768,-251 887,-251 "/>
<text text-anchor="start" x="776" y="-239" font-family="Helvetica,sans-Serif" font-size="10.00">+ CreateDefaultObject()</text>
<text text-anchor="start" x="776" y="-228" font-family="Helvetica,sans-Serif" font-size="10.00">+ CreateDefaultObject()</text>
<text text-anchor="start" x="776" y="-217" font-family="Helvetica,sans-Serif" font-size="10.00">+ StaticClass()</text>
</a>
</g>
</g>
<!-- Node12&#45;&gt;Node9 -->
<g id="edge20" class="edge"><title>Node12&#45;&gt;Node9</title>
<path fill="none" stroke="#404040" d="M464.005,-560.632C479.986,-553.086 503.23,-539.926 517.5,-522 556.379,-473.161 516.09,-428.151 565.5,-390 599.595,-363.675 722.32,-395.377 758.5,-372 783.943,-355.56 800.982,-326.249 811.762,-300.535"/>
<polygon fill="none" stroke="#404040" points="811.893,-300.201 810.365,-293.154 816.282,-289.033 817.811,-296.08 811.893,-300.201"/>
<text text-anchor="middle" x="605.5" y="-453.5" font-family="Helvetica,sans-Serif" font-size="10.00"> +UnknownData00</text>
</g>
<!-- Node21 -->
<g id="node6" class="node"><title>Node21</title>
<g id="a_node6"><a xlink:title=" ">
<polygon fill="none" stroke="#bfbfbf" points="908,-540.5 908,-597.5 943,-597.5 943,-540.5 908,-540.5"/>
<text text-anchor="middle" x="925.5" y="-585.5" font-family="Helvetica,sans-Serif" font-size="10.00">float</text>
<polyline fill="none" stroke="#bfbfbf" points="908,-578.5 943,-578.5 "/>
<text text-anchor="middle" x="925.5" y="-566.5" font-family="Helvetica,sans-Serif" font-size="10.00"> </text>
<polyline fill="none" stroke="#bfbfbf" points="908,-559.5 943,-559.5 "/>
<text text-anchor="middle" x="925.5" y="-547.5" font-family="Helvetica,sans-Serif" font-size="10.00"> </text>
</a>
</g>
</g>
<!-- Node21&#45;&gt;Node1 -->
<g id="edge8" class="edge"><title>Node21&#45;&gt;Node1</title>
<path fill="none" stroke="#404040" d="M943.413,-566.521C1017.68,-560.304 1298.1,-535.97 1310.5,-522 1329.97,-500.062 1329.84,-412.051 1310.5,-390 1270,-343.833 1222.32,-409.25 1173.5,-372 1060.99,-286.16 1157.42,-151.593 1031.5,-87 988.932,-65.1637 866.621,-50.5208 780.718,-42.5998"/>
<polygon fill="none" stroke="#404040" points="780.538,-42.5836 774.202,-46.0272 768.586,-41.5033 774.922,-38.0597 780.538,-42.5836"/>
<text text-anchor="middle" x="1250.5" y="-269" font-family="Helvetica,sans-Serif" font-size="10.00"> +MigrationRadiusMultiplier</text>
<text text-anchor="middle" x="1250.5" y="-258" font-family="Helvetica,sans-Serif" font-size="10.00">+OuterRadiusMultiplier</text>
<text text-anchor="middle" x="1250.5" y="-247" font-family="Helvetica,sans-Serif" font-size="10.00">+MinEngagedDistanceFromPlayers</text>
<text text-anchor="middle" x="1250.5" y="-236" font-family="Helvetica,sans-Serif" font-size="10.00">+InitialEncounterEntryDelay</text>
<text text-anchor="middle" x="1250.5" y="-225" font-family="Helvetica,sans-Serif" font-size="10.00">+EventSignalHeight</text>
</g>
<!-- Node21&#45;&gt;Node68 -->
<g id="edge12" class="edge"><title>Node21&#45;&gt;Node68</title>
<path fill="none" stroke="#404040" d="M922.424,-540.228C919.248,-504.924 916.079,-442.28 926.5,-390 926.932,-387.833 927.397,-385.657 927.894,-383.476"/>
<polygon fill="none" stroke="#404040" points="927.91,-383.409 925.489,-376.617 930.827,-371.769 933.249,-378.561 927.91,-383.409"/>
<text text-anchor="start" x="926.5" y="-514" font-family="Helvetica,sans-Serif" font-size="10.00"> +SecondsUntilKillAIAfter</text>
<text text-anchor="middle" x="1026" y="-503" font-family="Helvetica,sans-Serif" font-size="10.00">ShipDefeated</text>
<text text-anchor="middle" x="1026" y="-492" font-family="Helvetica,sans-Serif" font-size="10.00">+MaxInactiveRepairSpawnDelay</text>
<text text-anchor="middle" x="1026" y="-481" font-family="Helvetica,sans-Serif" font-size="10.00">+DistForMaxZAIInteractableUtility</text>
<text text-anchor="middle" x="1026" y="-470" font-family="Helvetica,sans-Serif" font-size="10.00">+StuckCheckInterval</text>
<text text-anchor="middle" x="1026" y="-459" font-family="Helvetica,sans-Serif" font-size="10.00">+MinXYAIInteractableUtility</text>
<text text-anchor="middle" x="1026" y="-448" font-family="Helvetica,sans-Serif" font-size="10.00">+TopDeckPlayerTrackerRadius</text>
<text text-anchor="middle" x="1026" y="-437" font-family="Helvetica,sans-Serif" font-size="10.00">+ShipFlippedAngle</text>
<text text-anchor="middle" x="1026" y="-426" font-family="Helvetica,sans-Serif" font-size="10.00">+SecondsDelayForAIShipDefeatedNotification</text>
<text text-anchor="middle" x="1026" y="-415" font-family="Helvetica,sans-Serif" font-size="10.00">+SinkSfxDistance</text>
<text text-anchor="middle" x="1026" y="-404" font-family="Helvetica,sans-Serif" font-size="10.00">+DistForMinZAIInteractableUtility</text>
<text text-anchor="middle" x="1026" y="-393" font-family="Helvetica,sans-Serif" font-size="10.00">...</text>
</g>
<!-- Node21&#45;&gt;Node70 -->
<g id="edge23" class="edge"><title>Node21&#45;&gt;Node70</title>
<path fill="none" stroke="#404040" d="M907.857,-567.474C877.881,-565.597 817.005,-557.368 783.5,-522 741.759,-477.938 791.985,-432.342 748.5,-390 723.63,-365.784 701.219,-391.498 672.5,-372 644.267,-352.831 622.481,-320.935 608.036,-294.633"/>
<polygon fill="none" stroke="#404040" points="607.897,-294.37 601.56,-290.93 602.298,-283.757 608.635,-287.197 607.897,-294.37"/>
<text text-anchor="middle" x="849.5" y="-475.5" font-family="Helvetica,sans-Serif" font-size="10.00"> +SpawnDepth</text>
<text text-anchor="middle" x="849.5" y="-464.5" font-family="Helvetica,sans-Serif" font-size="10.00">+TimeDelayBetweenWaves</text>
<text text-anchor="middle" x="849.5" y="-453.5" font-family="Helvetica,sans-Serif" font-size="10.00">+Radius</text>
<text text-anchor="start" x="783.5" y="-442.5" font-family="Helvetica,sans-Serif" font-size="10.00">+MinSafeSpawnDistanceFrom</text>
<text text-anchor="middle" x="849.5" y="-431.5" font-family="Helvetica,sans-Serif" font-size="10.00">OtherShips</text>
</g>
<!-- Node68&#45;&gt;Node1 -->
<g id="edge9" class="edge"><title>Node68&#45;&gt;Node1</title>
<path fill="none" stroke="#404040" d="M961.262,-127.476C954.152,-112.274 944.798,-98.1686 932.5,-87 910.225,-66.7712 839.854,-53.2593 780.699,-45.1709"/>
<polygon fill="none" stroke="#404040" points="780.548,-45.1511 774.075,-48.329 768.652,-43.576 775.125,-40.3982 780.548,-45.1511"/>
<text text-anchor="middle" x="989" y="-95.5" font-family="Helvetica,sans-Serif" font-size="10.00"> +ContextParams</text>
</g>
<!-- Node53 -->
<g id="node8" class="node"><title>Node53</title>
<g id="a_node8"><a xlink:title=" ">
<polygon fill="none" stroke="#bfbfbf" points="1234,-540.5 1234,-597.5 1263,-597.5 1263,-540.5 1234,-540.5"/>
<text text-anchor="middle" x="1248.5" y="-585.5" font-family="Helvetica,sans-Serif" font-size="10.00">int</text>
<polyline fill="none" stroke="#bfbfbf" points="1234,-578.5 1263,-578.5 "/>
<text text-anchor="middle" x="1248.5" y="-566.5" font-family="Helvetica,sans-Serif" font-size="10.00"> </text>
<polyline fill="none" stroke="#bfbfbf" points="1234,-559.5 1263,-559.5 "/>
<text text-anchor="middle" x="1248.5" y="-547.5" font-family="Helvetica,sans-Serif" font-size="10.00"> </text>
</a>
</g>
</g>
<!-- Node53&#45;&gt;Node1 -->
<g id="edge17" class="edge"><title>Node53&#45;&gt;Node1</title>
<path fill="none" stroke="#404040" d="M1263.28,-564.795C1283.09,-559.616 1317.5,-547.319 1332.5,-522 1365.03,-467.106 1384.53,-191.992 1327.5,-127 1257.34,-47.0492 939.132,-35.4121 780.691,-34.6969"/>
<polygon fill="none" stroke="#404040" points="780.641,-34.6969 774.629,-38.6795 768.641,-34.6622 774.652,-30.6796 780.641,-34.6969"/>
<text text-anchor="start" x="1364.5" y="-258" font-family="Helvetica,sans-Serif" font-size="10.00"> +SecondsUntilEncounterEnds</text>
<text text-anchor="middle" x="1431.5" y="-247" font-family="Helvetica,sans-Serif" font-size="10.00">AfterLastCrewLeft</text>
<text text-anchor="middle" x="1431.5" y="-236" font-family="Helvetica,sans-Serif" font-size="10.00">+MaximumEncounterDuration</text>
</g>
<!-- Node53&#45;&gt;Node68 -->
<g id="edge13" class="edge"><title>Node53&#45;&gt;Node68</title>
<path fill="none" stroke="#404040" d="M1233.76,-562.477C1216.96,-555.477 1189.73,-541.878 1173.5,-522 1134.02,-473.645 1159.27,-442.504 1125.5,-390 1110.44,-366.579 1090.79,-344.082 1070.93,-324.247"/>
<polygon fill="none" stroke="#404040" points="1070.7,-324.015 1063.61,-322.677 1062.12,-315.622 1069.21,-316.959 1070.7,-324.015"/>
<text text-anchor="middle" x="1254.5" y="-453.5" font-family="Helvetica,sans-Serif" font-size="10.00"> +MinCannonAttackersWhenBoarded</text>
</g>
<!-- Node28 -->
<g id="node9" class="node"><title>Node28</title>
<g id="a_node9"><a xlink:title=" ">
<polygon fill="none" stroke="#bfbfbf" points="1435,-540.5 1435,-597.5 1470,-597.5 1470,-540.5 1435,-540.5"/>
<text text-anchor="middle" x="1452.5" y="-585.5" font-family="Helvetica,sans-Serif" font-size="10.00">bool</text>
<polyline fill="none" stroke="#bfbfbf" points="1435,-578.5 1470,-578.5 "/>
<text text-anchor="middle" x="1452.5" y="-566.5" font-family="Helvetica,sans-Serif" font-size="10.00"> </text>
<polyline fill="none" stroke="#bfbfbf" points="1435,-559.5 1470,-559.5 "/>
<text text-anchor="middle" x="1452.5" y="-547.5" font-family="Helvetica,sans-Serif" font-size="10.00"> </text>
</a>
</g>
</g>
<!-- Node28&#45;&gt;Node1 -->
<g id="edge18" class="edge"><title>Node28&#45;&gt;Node1</title>
<path fill="none" stroke="#404040" d="M1470.04,-559.413C1483.6,-551.701 1501.38,-538.98 1509.5,-522 1538.55,-461.232 1546.95,-180.498 1501.5,-127 1455.42,-72.7667 982.224,-47.3039 780.646,-38.8549"/>
<polygon fill="none" stroke="#404040" points="780.628,-38.8543 774.468,-42.6029 768.639,-38.3583 774.799,-34.6097 780.628,-38.8543"/>
<text text-anchor="start" x="1533.5" y="-252.5" font-family="Helvetica,sans-Serif" font-size="10.00"> +EnableMusicWhenShipsHave</text>
<text text-anchor="middle" x="1602" y="-241.5" font-family="Helvetica,sans-Serif" font-size="10.00">NoTarget</text>
</g>
<!-- Node28&#45;&gt;Node68 -->
<g id="edge14" class="edge"><title>Node28&#45;&gt;Node68</title>
<path fill="none" stroke="#404040" d="M1434.78,-560.303C1419.19,-552.687 1396.96,-539.62 1383.5,-522 1345.96,-472.855 1388.01,-428.351 1339.5,-390 1304.15,-362.051 1179.38,-388.65 1137.5,-372 1114.52,-362.863 1092.19,-349.134 1071.98,-334.152"/>
<polygon fill="none" stroke="#404040" points="1071.77,-333.995 1064.58,-333.532 1062.24,-326.712 1069.43,-327.175 1071.77,-333.995"/>
<text text-anchor="middle" x="1446.5" y="-459" font-family="Helvetica,sans-Serif" font-size="10.00"> +EnableShipSurfacingMusic</text>
<text text-anchor="middle" x="1446.5" y="-448" font-family="Helvetica,sans-Serif" font-size="10.00">+ForceAIToAlwaysSpawn</text>
</g>
<!-- Node69&#45;&gt;Node1 -->
<g id="edge15" class="edge"><title>Node69&#45;&gt;Node1</title>
<path fill="none" stroke="#404040" d="M709.43,-220.879C703.584,-192.857 695.112,-148.153 691.5,-109 690.67,-100.001 690.222,-90.3573 690.01,-81.1132"/>
<polygon fill="none" stroke="#404040" points="690.006,-80.8529 685.929,-74.9053 689.851,-68.8539 693.928,-74.8016 690.006,-80.8529"/>
<text text-anchor="middle" x="748.5" y="-95.5" font-family="Helvetica,sans-Serif" font-size="10.00"> +EncounterCompleteText</text>
</g>
<!-- Node9&#45;&gt;Node1 -->
<g id="edge19" class="edge"><title>Node9&#45;&gt;Node1</title>
<path fill="none" stroke="#404040" d="M832.182,-209.659C834.321,-174.245 831.868,-122.226 805.5,-87 798.495,-77.6415 789.403,-69.9461 779.402,-63.6271"/>
<polygon fill="none" stroke="#404040" points="779.125,-63.4695 771.931,-63.9743 768.699,-57.5284 775.892,-57.0235 779.125,-63.4695"/>
<text text-anchor="middle" x="873" y="-101" font-family="Helvetica,sans-Serif" font-size="10.00"> +EventSignalAssetClass</text>
<text text-anchor="middle" x="873" y="-90" font-family="Helvetica,sans-Serif" font-size="10.00">+ShipPawnClass</text>
</g>
<!-- Node70&#45;&gt;Node1 -->
<g id="edge21" class="edge"><title>Node70&#45;&gt;Node1</title>
<path fill="none" stroke="#404040" d="M585.404,-215.47C584.797,-180.781 588.502,-125.961 613.5,-87 615.671,-83.616 618.153,-80.4019 620.863,-77.3566"/>
<polygon fill="none" stroke="#404040" points="621.063,-77.1595 622.52,-70.0972 629.6,-68.7265 628.142,-75.7888 621.063,-77.1595"/>
<text text-anchor="middle" x="650" y="-95.5" font-family="Helvetica,sans-Serif" font-size="10.00"> +SpawnParams</text>
</g>
</g>
</svg>
