<?xml version="1.0" encoding="UTF-8" standalone="no"?>
<!DOCTYPE svg PUBLIC "-//W3C//DTD SVG 1.1//EN"
 "http://www.w3.org/Graphics/SVG/1.1/DTD/svg11.dtd">
<!-- Generated by graphviz version 2.38.0 (20140413.2041)
 -->
<!-- Title: SDK::UFirstPersonAnimationData Pages: 1 -->
<svg width="296pt" height="171pt"
 viewBox="0.00 0.00 295.50 171.00" xmlns="http://www.w3.org/2000/svg" xmlns:xlink="http://www.w3.org/1999/xlink">
<g id="graph0" class="graph" transform="scale(1 1) rotate(0) translate(4 167)">
<title>SDK::UFirstPersonAnimationData</title>
<!-- Node1 -->
<g id="node1" class="node"><title>Node1</title>
<g id="a_node1"><a xlink:title=" ">
<polygon fill="#bfbfbf" stroke="black" points="50.5,-0.5 50.5,-57.5 214.5,-57.5 214.5,-0.5 50.5,-0.5"/>
<text text-anchor="middle" x="132.5" y="-45.5" font-family="Helvetica,sans-Serif" font-size="10.00">SDK::UFirstPersonAnimationData</text>
<polyline fill="none" stroke="black" points="50.5,-38.5 214.5,-38.5 "/>
<text text-anchor="middle" x="132.5" y="-26.5" font-family="Helvetica,sans-Serif" font-size="10.00"> </text>
<polyline fill="none" stroke="black" points="50.5,-19.5 214.5,-19.5 "/>
<text text-anchor="start" x="58.5" y="-7.5" font-family="Helvetica,sans-Serif" font-size="10.00">+ StaticClass()</text>
</a>
</g>
</g>
<!-- Node2 -->
<g id="node2" class="node"><title>Node2</title>
<g id="a_node2"><a xlink:href="a01879.html" target="_top" xlink:title=" ">
<polygon fill="none" stroke="red" points="0,-105.5 0,-162.5 113,-162.5 113,-105.5 0,-105.5"/>
<text text-anchor="middle" x="56.5" y="-150.5" font-family="Helvetica,sans-Serif" font-size="10.00">SDK::UAnimationData</text>
<polyline fill="none" stroke="red" points="0,-143.5 113,-143.5 "/>
<text text-anchor="middle" x="56.5" y="-131.5" font-family="Helvetica,sans-Serif" font-size="10.00"> </text>
<polyline fill="none" stroke="red" points="0,-124.5 113,-124.5 "/>
<text text-anchor="start" x="8" y="-112.5" font-family="Helvetica,sans-Serif" font-size="10.00">+ StaticClass()</text>
</a>
</g>
</g>
<!-- Node2&#45;&gt;Node1 -->
<g id="edge1" class="edge"><title>Node2&#45;&gt;Node1</title>
<path fill="none" stroke="midnightblue" d="M82.957,-97.1438C92.5041,-84.205 103.125,-69.8105 112.077,-57.6783"/>
<polygon fill="none" stroke="midnightblue" points="79.9876,-95.2732 76.8666,-105.398 85.6203,-99.4293 79.9876,-95.2732"/>
</g>
<!-- Node14 -->
<g id="node3" class="node"><title>Node14</title>
<g id="a_node3"><a xlink:href="a01883.html" target="_top" xlink:title=" ">
<polygon fill="none" stroke="red" points="131.5,-105.5 131.5,-162.5 285.5,-162.5 285.5,-105.5 131.5,-105.5"/>
<text text-anchor="middle" x="208.5" y="-150.5" font-family="Helvetica,sans-Serif" font-size="10.00">SDK::UFirstPersonAnimaticList</text>
<polyline fill="none" stroke="red" points="131.5,-143.5 285.5,-143.5 "/>
<text text-anchor="middle" x="208.5" y="-131.5" font-family="Helvetica,sans-Serif" font-size="10.00"> </text>
<polyline fill="none" stroke="red" points="131.5,-124.5 285.5,-124.5 "/>
<text text-anchor="start" x="139.5" y="-112.5" font-family="Helvetica,sans-Serif" font-size="10.00">+ StaticClass()</text>
</a>
</g>
</g>
<!-- Node14&#45;&gt;Node1 -->
<g id="edge2" class="edge"><title>Node14&#45;&gt;Node1</title>
<path fill="none" stroke="#404040" d="M188.133,-105.398C179.529,-93.737 169.375,-79.9757 160.113,-67.423"/>
<polygon fill="none" stroke="#404040" points="160.048,-67.3343 153.267,-64.8812 152.923,-57.6783 159.704,-60.1313 160.048,-67.3343"/>
<text text-anchor="middle" x="230.5" y="-79" font-family="Helvetica,sans-Serif" font-size="10.00"> +FirstPersonAnimaticList</text>
</g>
</g>
</svg>
