<?xml version="1.0" encoding="UTF-8" standalone="no"?>
<!DOCTYPE svg PUBLIC "-//W3C//DTD SVG 1.1//EN"
 "http://www.w3.org/Graphics/SVG/1.1/DTD/svg11.dtd">
<!-- Generated by graphviz version 2.38.0 (20140413.2041)
 -->
<!-- Title: SDK::FAIShipEncounterRevealNetEvent Pages: 1 -->
<svg width="628pt" height="364pt"
 viewBox="0.00 0.00 627.65 364.00" xmlns="http://www.w3.org/2000/svg" xmlns:xlink="http://www.w3.org/1999/xlink">
<g id="graph0" class="graph" transform="scale(1 1) rotate(0) translate(4 360)">
<title>SDK::FAIShipEncounterRevealNetEvent</title>
<!-- Node1 -->
<g id="node1" class="node"><title>Node1</title>
<g id="a_node1"><a xlink:title=" ">
<polygon fill="#bfbfbf" stroke="black" points="227.153,-0.5 227.153,-68.5 377.153,-68.5 377.153,-0.5 227.153,-0.5"/>
<text text-anchor="start" x="235.153" y="-56.5" font-family="Helvetica,sans-Serif" font-size="10.00">SDK::FAIShipEncounterReveal</text>
<text text-anchor="middle" x="302.153" y="-45.5" font-family="Helvetica,sans-Serif" font-size="10.00">NetEvent</text>
<polyline fill="none" stroke="black" points="227.153,-38.5 377.153,-38.5 "/>
<text text-anchor="middle" x="302.153" y="-26.5" font-family="Helvetica,sans-Serif" font-size="10.00"> </text>
<polyline fill="none" stroke="black" points="227.153,-19.5 377.153,-19.5 "/>
<text text-anchor="middle" x="302.153" y="-7.5" font-family="Helvetica,sans-Serif" font-size="10.00"> </text>
</a>
</g>
</g>
<!-- Node2 -->
<g id="node2" class="node"><title>Node2</title>
<g id="a_node2"><a xlink:href="a25367.html" target="_top" xlink:title=" ">
<polygon fill="none" stroke="red" points="106.153,-160.5 106.153,-217.5 200.153,-217.5 200.153,-160.5 106.153,-160.5"/>
<text text-anchor="middle" x="153.153" y="-205.5" font-family="Helvetica,sans-Serif" font-size="10.00">SDK::FBoxedRpc</text>
<polyline fill="none" stroke="red" points="106.153,-198.5 200.153,-198.5 "/>
<text text-anchor="middle" x="153.153" y="-186.5" font-family="Helvetica,sans-Serif" font-size="10.00"> </text>
<polyline fill="none" stroke="red" points="106.153,-179.5 200.153,-179.5 "/>
<text text-anchor="middle" x="153.153" y="-167.5" font-family="Helvetica,sans-Serif" font-size="10.00"> </text>
</a>
</g>
</g>
<!-- Node2&#45;&gt;Node1 -->
<g id="edge1" class="edge"><title>Node2&#45;&gt;Node1</title>
<path fill="none" stroke="midnightblue" d="M184.705,-153.017C192.604,-144.43 201.118,-135.317 209.153,-127 228.194,-107.288 250.012,-85.7689 267.728,-68.5542"/>
<polygon fill="none" stroke="midnightblue" points="182.121,-150.656 177.949,-160.395 187.284,-155.384 182.121,-150.656"/>
</g>
<!-- Node13 -->
<g id="node3" class="node"><title>Node13</title>
<g id="a_node3"><a xlink:title=" ">
<polygon fill="none" stroke="#bfbfbf" points="34.6525,-298.5 34.6525,-355.5 69.6525,-355.5 69.6525,-298.5 34.6525,-298.5"/>
<text text-anchor="middle" x="52.1525" y="-343.5" font-family="Helvetica,sans-Serif" font-size="10.00">char</text>
<polyline fill="none" stroke="#bfbfbf" points="34.6525,-336.5 69.6525,-336.5 "/>
<text text-anchor="middle" x="52.1525" y="-324.5" font-family="Helvetica,sans-Serif" font-size="10.00"> </text>
<polyline fill="none" stroke="#bfbfbf" points="34.6525,-317.5 69.6525,-317.5 "/>
<text text-anchor="middle" x="52.1525" y="-305.5" font-family="Helvetica,sans-Serif" font-size="10.00"> </text>
</a>
</g>
</g>
<!-- Node13&#45;&gt;Node1 -->
<g id="edge4" class="edge"><title>Node13&#45;&gt;Node1</title>
<path fill="none" stroke="#404040" d="M35.4543,-298.319C12.9117,-256.971 -20.3608,-178.443 17.1525,-127 61.975,-65.5338 148.728,-44.4445 214.801,-37.6534"/>
<polygon fill="none" stroke="#404040" points="214.933,-37.6414 220.542,-33.1101 226.882,-36.5453 221.273,-41.0766 214.933,-37.6414"/>
<text text-anchor="middle" x="57.1525" y="-186.5" font-family="Helvetica,sans-Serif" font-size="10.00"> +UnknownData00</text>
</g>
<!-- Node13&#45;&gt;Node2 -->
<g id="edge2" class="edge"><title>Node13&#45;&gt;Node2</title>
<path fill="none" stroke="#404040" d="M69.7454,-302.311C85.0759,-281.668 107.573,-251.375 125.34,-227.451"/>
<polygon fill="none" stroke="#404040" points="125.475,-227.268 125.841,-220.066 132.63,-217.634 132.264,-224.836 125.475,-227.268"/>
<text text-anchor="middle" x="134.153" y="-272" font-family="Helvetica,sans-Serif" font-size="10.00"> +UnknownData00</text>
</g>
<!-- Node15 -->
<g id="node4" class="node"><title>Node15</title>
<g id="a_node4"><a xlink:href="a25635.html" target="_top" xlink:title=" ">
<polygon fill="none" stroke="black" points="218.153,-127.5 218.153,-250.5 388.153,-250.5 388.153,-127.5 218.153,-127.5"/>
<text text-anchor="start" x="226.153" y="-238.5" font-family="Helvetica,sans-Serif" font-size="10.00">SDK::TEnumAsByte&lt; ECannonball</text>
<text text-anchor="middle" x="303.153" y="-227.5" font-family="Helvetica,sans-Serif" font-size="10.00">IconType &gt;</text>
<polyline fill="none" stroke="black" points="218.153,-220.5 388.153,-220.5 "/>
<text text-anchor="middle" x="303.153" y="-208.5" font-family="Helvetica,sans-Serif" font-size="10.00"> </text>
<polyline fill="none" stroke="black" points="218.153,-201.5 388.153,-201.5 "/>
<text text-anchor="start" x="226.153" y="-189.5" font-family="Helvetica,sans-Serif" font-size="10.00">+ TEnumAsByte()</text>
<text text-anchor="start" x="226.153" y="-178.5" font-family="Helvetica,sans-Serif" font-size="10.00">+ TEnumAsByte()</text>
<text text-anchor="start" x="226.153" y="-167.5" font-family="Helvetica,sans-Serif" font-size="10.00">+ TEnumAsByte()</text>
<text text-anchor="start" x="226.153" y="-156.5" font-family="Helvetica,sans-Serif" font-size="10.00">+ TEnumAsByte()</text>
<text text-anchor="start" x="226.153" y="-145.5" font-family="Helvetica,sans-Serif" font-size="10.00">+ operator ECannonballIconType()</text>
<text text-anchor="start" x="226.153" y="-134.5" font-family="Helvetica,sans-Serif" font-size="10.00">+ GetValue()</text>
</a>
</g>
</g>
<!-- Node15&#45;&gt;Node1 -->
<g id="edge3" class="edge"><title>Node15&#45;&gt;Node1</title>
<path fill="none" stroke="#404040" d="M302.754,-127.29C302.653,-111.872 302.546,-95.568 302.451,-81.0478"/>
<polygon fill="none" stroke="#404040" points="302.45,-80.8134 298.41,-74.8398 302.371,-68.8136 306.41,-74.7872 302.45,-80.8134"/>
<text text-anchor="middle" x="351.653" y="-95.5" font-family="Helvetica,sans-Serif" font-size="10.00"> +CannonballIconType</text>
</g>
<!-- Node16 -->
<g id="node5" class="node"><title>Node16</title>
<g id="a_node5"><a xlink:title=" ">
<polygon fill="none" stroke="#bfbfbf" points="407.653,-160.5 407.653,-217.5 436.653,-217.5 436.653,-160.5 407.653,-160.5"/>
<text text-anchor="middle" x="422.153" y="-205.5" font-family="Helvetica,sans-Serif" font-size="10.00">int</text>
<polyline fill="none" stroke="#bfbfbf" points="407.653,-198.5 436.653,-198.5 "/>
<text text-anchor="middle" x="422.153" y="-186.5" font-family="Helvetica,sans-Serif" font-size="10.00"> </text>
<polyline fill="none" stroke="#bfbfbf" points="407.653,-179.5 436.653,-179.5 "/>
<text text-anchor="middle" x="422.153" y="-167.5" font-family="Helvetica,sans-Serif" font-size="10.00"> </text>
</a>
</g>
</g>
<!-- Node16&#45;&gt;Node1 -->
<g id="edge5" class="edge"><title>Node16&#45;&gt;Node1</title>
<path fill="none" stroke="#404040" d="M422.275,-160.077C421.015,-138.176 416.133,-107.99 400.153,-87 396.321,-81.9678 391.856,-77.3784 386.983,-73.201"/>
<polygon fill="none" stroke="#404040" points="386.687,-72.974 379.492,-72.4939 377.167,-65.6675 384.363,-66.1477 386.687,-72.974"/>
<text text-anchor="middle" x="447.653" y="-101" font-family="Helvetica,sans-Serif" font-size="10.00"> +SkellyCrewIdx</text>
<text text-anchor="middle" x="447.653" y="-90" font-family="Helvetica,sans-Serif" font-size="10.00">+BattleIdx</text>
</g>
<!-- Node17 -->
<g id="node6" class="node"><title>Node17</title>
<g id="a_node6"><a xlink:href="a25635.html" target="_top" xlink:title=" ">
<polygon fill="none" stroke="black" points="454.653,-127.5 454.653,-250.5 619.653,-250.5 619.653,-127.5 454.653,-127.5"/>
<text text-anchor="start" x="462.653" y="-238.5" font-family="Helvetica,sans-Serif" font-size="10.00">SDK::TEnumAsByte&lt; ESkelly</text>
<text text-anchor="middle" x="537.153" y="-227.5" font-family="Helvetica,sans-Serif" font-size="10.00">FormIconType &gt;</text>
<polyline fill="none" stroke="black" points="454.653,-220.5 619.653,-220.5 "/>
<text text-anchor="middle" x="537.153" y="-208.5" font-family="Helvetica,sans-Serif" font-size="10.00"> </text>
<polyline fill="none" stroke="black" points="454.653,-201.5 619.653,-201.5 "/>
<text text-anchor="start" x="462.653" y="-189.5" font-family="Helvetica,sans-Serif" font-size="10.00">+ TEnumAsByte()</text>
<text text-anchor="start" x="462.653" y="-178.5" font-family="Helvetica,sans-Serif" font-size="10.00">+ TEnumAsByte()</text>
<text text-anchor="start" x="462.653" y="-167.5" font-family="Helvetica,sans-Serif" font-size="10.00">+ TEnumAsByte()</text>
<text text-anchor="start" x="462.653" y="-156.5" font-family="Helvetica,sans-Serif" font-size="10.00">+ TEnumAsByte()</text>
<text text-anchor="start" x="462.653" y="-145.5" font-family="Helvetica,sans-Serif" font-size="10.00">+ operator ESkellyFormIconType()</text>
<text text-anchor="start" x="462.653" y="-134.5" font-family="Helvetica,sans-Serif" font-size="10.00">+ GetValue()</text>
</a>
</g>
</g>
<!-- Node17&#45;&gt;Node1 -->
<g id="edge6" class="edge"><title>Node17&#45;&gt;Node1</title>
<path fill="none" stroke="#404040" d="M517.309,-127.466C509.897,-112.473 500.041,-97.6654 487.153,-87 459.702,-64.2833 422.928,-51.5582 389.399,-44.4414"/>
<polygon fill="none" stroke="#404040" points="388.995,-44.3626 382.34,-47.1399 377.217,-42.0651 383.872,-39.2879 388.995,-44.3626"/>
<text text-anchor="middle" x="555.153" y="-95.5" font-family="Helvetica,sans-Serif" font-size="10.00"> +SkellyFormIconType</text>
</g>
</g>
</svg>
