<?xml version="1.0" encoding="UTF-8" standalone="no"?>
<!DOCTYPE svg PUBLIC "-//W3C//DTD SVG 1.1//EN"
 "http://www.w3.org/Graphics/SVG/1.1/DTD/svg11.dtd">
<!-- Generated by graphviz version 2.38.0 (20140413.2041)
 -->
<!-- Title: SDK::UWaitForAnimationStateEntryProxy Pages: 1 -->
<svg width="458pt" height="419pt"
 viewBox="0.00 0.00 458.00 419.00" xmlns="http://www.w3.org/2000/svg" xmlns:xlink="http://www.w3.org/1999/xlink">
<g id="graph0" class="graph" transform="scale(1 1) rotate(0) translate(4 415)">
<title>SDK::UWaitForAnimationStateEntryProxy</title>
<!-- Node1 -->
<g id="node1" class="node"><title>Node1</title>
<g id="a_node1"><a xlink:title=" ">
<polygon fill="#bfbfbf" stroke="black" points="124.5,-0.5 124.5,-101.5 275.5,-101.5 275.5,-0.5 124.5,-0.5"/>
<text text-anchor="start" x="132.5" y="-89.5" font-family="Helvetica,sans-Serif" font-size="10.00">SDK::UWaitForAnimationState</text>
<text text-anchor="middle" x="200" y="-78.5" font-family="Helvetica,sans-Serif" font-size="10.00">EntryProxy</text>
<polyline fill="none" stroke="black" points="124.5,-71.5 275.5,-71.5 "/>
<text text-anchor="middle" x="200" y="-59.5" font-family="Helvetica,sans-Serif" font-size="10.00"> </text>
<polyline fill="none" stroke="black" points="124.5,-52.5 275.5,-52.5 "/>
<text text-anchor="start" x="132.5" y="-40.5" font-family="Helvetica,sans-Serif" font-size="10.00">+ OnEnteredState()</text>
<text text-anchor="start" x="132.5" y="-29.5" font-family="Helvetica,sans-Serif" font-size="10.00">+ OnAnimationUpdated()</text>
<text text-anchor="start" x="132.5" y="-18.5" font-family="Helvetica,sans-Serif" font-size="10.00">+ StaticClass()</text>
<text text-anchor="start" x="132.5" y="-7.5" font-family="Helvetica,sans-Serif" font-size="10.00">+ CreateProxy()</text>
</a>
</g>
</g>
<!-- Node2 -->
<g id="node2" class="node"><title>Node2</title>
<g id="a_node2"><a xlink:href="a25883.html" target="_top" xlink:title=" ">
<polygon fill="none" stroke="red" points="0,-149.5 0,-305.5 112,-305.5 112,-149.5 0,-149.5"/>
<text text-anchor="middle" x="56" y="-293.5" font-family="Helvetica,sans-Serif" font-size="10.00">SDK::UObject</text>
<polyline fill="none" stroke="red" points="0,-286.5 112,-286.5 "/>
<text text-anchor="middle" x="56" y="-274.5" font-family="Helvetica,sans-Serif" font-size="10.00"> </text>
<polyline fill="none" stroke="red" points="0,-267.5 112,-267.5 "/>
<text text-anchor="start" x="8" y="-255.5" font-family="Helvetica,sans-Serif" font-size="10.00">+ GetName()</text>
<text text-anchor="start" x="8" y="-244.5" font-family="Helvetica,sans-Serif" font-size="10.00">+ GetFullName()</text>
<text text-anchor="start" x="8" y="-233.5" font-family="Helvetica,sans-Serif" font-size="10.00">+ IsA()</text>
<text text-anchor="start" x="8" y="-222.5" font-family="Helvetica,sans-Serif" font-size="10.00">+ ProcessEvent()</text>
<text text-anchor="start" x="8" y="-211.5" font-family="Helvetica,sans-Serif" font-size="10.00">+ ExecuteUbergraph()</text>
<text text-anchor="start" x="8" y="-200.5" font-family="Helvetica,sans-Serif" font-size="10.00">+ StaticClass()</text>
<text text-anchor="start" x="8" y="-189.5" font-family="Helvetica,sans-Serif" font-size="10.00">+ GetGlobalObjects()</text>
<text text-anchor="start" x="8" y="-178.5" font-family="Helvetica,sans-Serif" font-size="10.00">+ FindObject()</text>
<text text-anchor="start" x="8" y="-167.5" font-family="Helvetica,sans-Serif" font-size="10.00">+ FindClass()</text>
<text text-anchor="start" x="8" y="-156.5" font-family="Helvetica,sans-Serif" font-size="10.00">+ GetObjectCasted()</text>
</a>
</g>
</g>
<!-- Node2&#45;&gt;Node1 -->
<g id="edge1" class="edge"><title>Node2&#45;&gt;Node1</title>
<path fill="none" stroke="midnightblue" d="M118.737,-150.475C132.375,-133.948 146.465,-116.875 159.003,-101.68"/>
<polygon fill="none" stroke="midnightblue" points="115.752,-148.593 112.086,-158.534 121.151,-153.049 115.752,-148.593"/>
</g>
<!-- Node2&#45;&gt;Node2 -->
<g id="edge2" class="edge"><title>Node2&#45;&gt;Node2</title>
<path fill="none" stroke="#404040" d="M112.146,-245.643C122.622,-243.409 130,-237.361 130,-227.5 130,-221.799 127.534,-217.372 123.429,-214.221"/>
<polygon fill="none" stroke="#404040" points="123.166,-214.107 116.073,-215.405 112.146,-209.357 119.239,-208.059 123.166,-214.107"/>
<text text-anchor="middle" x="147" y="-225" font-family="Helvetica,sans-Serif" font-size="10.00"> +Outer</text>
</g>
<!-- Node13 -->
<g id="node3" class="node"><title>Node13</title>
<g id="a_node3"><a xlink:href="a25655.html" target="_top" xlink:title=" ">
<polygon fill="none" stroke="black" points="298,-199 298,-256 450,-256 450,-199 298,-199"/>
<text text-anchor="middle" x="374" y="-244" font-family="Helvetica,sans-Serif" font-size="10.00">SDK::FScriptMulticastDelegate</text>
<polyline fill="none" stroke="black" points="298,-237 450,-237 "/>
<text text-anchor="middle" x="374" y="-225" font-family="Helvetica,sans-Serif" font-size="10.00"> </text>
<polyline fill="none" stroke="black" points="298,-218 450,-218 "/>
<text text-anchor="middle" x="374" y="-206" font-family="Helvetica,sans-Serif" font-size="10.00"> </text>
</a>
</g>
</g>
<!-- Node13&#45;&gt;Node1 -->
<g id="edge3" class="edge"><title>Node13&#45;&gt;Node1</title>
<path fill="none" stroke="#404040" d="M346.429,-198.85C322.793,-175.146 287.948,-140.2 258.178,-110.345"/>
<polygon fill="none" stroke="#404040" points="257.999,-110.166 250.93,-108.741 249.526,-101.668 256.595,-103.093 257.999,-110.166"/>
<text text-anchor="middle" x="319" y="-123" font-family="Helvetica,sans-Serif" font-size="10.00"> +OnReachedState</text>
</g>
<!-- Node11 -->
<g id="node4" class="node"><title>Node11</title>
<g id="a_node4"><a xlink:title=" ">
<polygon fill="none" stroke="#bfbfbf" points="233.5,-353.5 233.5,-410.5 268.5,-410.5 268.5,-353.5 233.5,-353.5"/>
<text text-anchor="middle" x="251" y="-398.5" font-family="Helvetica,sans-Serif" font-size="10.00">char</text>
<polyline fill="none" stroke="#bfbfbf" points="233.5,-391.5 268.5,-391.5 "/>
<text text-anchor="middle" x="251" y="-379.5" font-family="Helvetica,sans-Serif" font-size="10.00"> </text>
<polyline fill="none" stroke="#bfbfbf" points="233.5,-372.5 268.5,-372.5 "/>
<text text-anchor="middle" x="251" y="-360.5" font-family="Helvetica,sans-Serif" font-size="10.00"> </text>
</a>
</g>
</g>
<!-- Node11&#45;&gt;Node1 -->
<g id="edge5" class="edge"><title>Node11&#45;&gt;Node1</title>
<path fill="none" stroke="#404040" d="M233.429,-356.629C224.323,-342.559 214.069,-324.107 209,-306 191.16,-242.273 191.134,-166.038 194.173,-113.822"/>
<polygon fill="none" stroke="#404040" points="194.179,-113.721 190.575,-107.475 194.955,-101.746 198.559,-107.992 194.179,-113.721"/>
<text text-anchor="middle" x="249" y="-225" font-family="Helvetica,sans-Serif" font-size="10.00"> +UnknownData00</text>
</g>
<!-- Node11&#45;&gt;Node13 -->
<g id="edge4" class="edge"><title>Node11&#45;&gt;Node13</title>
<path fill="none" stroke="#404040" d="M268.623,-359.15C288.258,-334.806 320.343,-295.026 343.959,-265.746"/>
<polygon fill="none" stroke="#404040" points="344.079,-265.597 344.733,-258.415 351.613,-256.256 350.96,-263.438 344.079,-265.597"/>
<text text-anchor="middle" x="330" y="-327" font-family="Helvetica,sans-Serif" font-size="10.00"> +UnknownData</text>
</g>
</g>
</svg>
