<?xml version="1.0" encoding="UTF-8" standalone="no"?>
<!DOCTYPE svg PUBLIC "-//W3C//DTD SVG 1.1//EN"
 "http://www.w3.org/Graphics/SVG/1.1/DTD/svg11.dtd">
<!-- Generated by graphviz version 2.38.0 (20140413.2041)
 -->
<!-- Title: SDK::ULocomotionFunctionLib Pages: 1 -->
<svg width="199pt" height="193pt"
 viewBox="0.00 0.00 199.00 193.00" xmlns="http://www.w3.org/2000/svg" xmlns:xlink="http://www.w3.org/1999/xlink">
<g id="graph0" class="graph" transform="scale(1 1) rotate(0) translate(4 189)">
<title>SDK::ULocomotionFunctionLib</title>
<!-- Node1 -->
<g id="node1" class="node"><title>Node1</title>
<g id="a_node1"><a xlink:title=" ">
<polygon fill="#bfbfbf" stroke="black" points="0,-0.5 0,-90.5 191,-90.5 191,-0.5 0,-0.5"/>
<text text-anchor="middle" x="95.5" y="-78.5" font-family="Helvetica,sans-Serif" font-size="10.00">SDK::ULocomotionFunctionLib</text>
<polyline fill="none" stroke="black" points="0,-71.5 191,-71.5 "/>
<text text-anchor="middle" x="95.5" y="-59.5" font-family="Helvetica,sans-Serif" font-size="10.00"> </text>
<polyline fill="none" stroke="black" points="0,-52.5 191,-52.5 "/>
<text text-anchor="start" x="8" y="-40.5" font-family="Helvetica,sans-Serif" font-size="10.00">+ StaticClass()</text>
<text text-anchor="start" x="8" y="-29.5" font-family="Helvetica,sans-Serif" font-size="10.00">+ UpdateControllerSpineRotation()</text>
<text text-anchor="start" x="8" y="-18.5" font-family="Helvetica,sans-Serif" font-size="10.00">+ UpdateCharacterSpeed()</text>
<text text-anchor="start" x="8" y="-7.5" font-family="Helvetica,sans-Serif" font-size="10.00">+ UpdateCalculateRateAndCurrentYaw()</text>
</a>
</g>
</g>
<!-- Node2 -->
<g id="node2" class="node"><title>Node2</title>
<g id="a_node2"><a xlink:href="a26563.html" target="_top" xlink:title=" ">
<polygon fill="none" stroke="red" points="18,-127.5 18,-184.5 173,-184.5 173,-127.5 18,-127.5"/>
<text text-anchor="middle" x="95.5" y="-172.5" font-family="Helvetica,sans-Serif" font-size="10.00">SDK::UBlueprintFunctionLibrary</text>
<polyline fill="none" stroke="red" points="18,-165.5 173,-165.5 "/>
<text text-anchor="middle" x="95.5" y="-153.5" font-family="Helvetica,sans-Serif" font-size="10.00"> </text>
<polyline fill="none" stroke="red" points="18,-146.5 173,-146.5 "/>
<text text-anchor="start" x="26" y="-134.5" font-family="Helvetica,sans-Serif" font-size="10.00">+ StaticClass()</text>
</a>
</g>
</g>
<!-- Node2&#45;&gt;Node1 -->
<g id="edge1" class="edge"><title>Node2&#45;&gt;Node1</title>
<path fill="none" stroke="midnightblue" d="M95.5,-117.214C95.5,-108.609 95.5,-99.3943 95.5,-90.5541"/>
<polygon fill="none" stroke="midnightblue" points="92.0001,-117.34 95.5,-127.34 99.0001,-117.34 92.0001,-117.34"/>
</g>
</g>
</svg>
