<?xml version="1.0" encoding="UTF-8" standalone="no"?>
<!DOCTYPE svg PUBLIC "-//W3C//DTD SVG 1.1//EN"
 "http://www.w3.org/Graphics/SVG/1.1/DTD/svg11.dtd">
<!-- Generated by graphviz version 2.38.0 (20140413.2041)
 -->
<!-- Title: SDK::UCosmeticItemAnimationComponent Pages: 1 -->
<svg width="680pt" height="606pt"
 viewBox="0.00 0.00 679.92 606.00" xmlns="http://www.w3.org/2000/svg" xmlns:xlink="http://www.w3.org/1999/xlink">
<g id="graph0" class="graph" transform="scale(1 1) rotate(0) translate(4 602)">
<title>SDK::UCosmeticItemAnimationComponent</title>
<!-- Node1 -->
<g id="node1" class="node"><title>Node1</title>
<g id="a_node1"><a xlink:title=" ">
<polygon fill="#bfbfbf" stroke="black" points="289.419,-0.5 289.419,-79.5 442.419,-79.5 442.419,-0.5 289.419,-0.5"/>
<text text-anchor="start" x="297.419" y="-67.5" font-family="Helvetica,sans-Serif" font-size="10.00">SDK::UCosmeticItemAnimation</text>
<text text-anchor="middle" x="365.919" y="-56.5" font-family="Helvetica,sans-Serif" font-size="10.00">Component</text>
<polyline fill="none" stroke="black" points="289.419,-49.5 442.419,-49.5 "/>
<text text-anchor="middle" x="365.919" y="-37.5" font-family="Helvetica,sans-Serif" font-size="10.00"> </text>
<polyline fill="none" stroke="black" points="289.419,-30.5 442.419,-30.5 "/>
<text text-anchor="start" x="297.419" y="-18.5" font-family="Helvetica,sans-Serif" font-size="10.00">+ DestroyAllCosmeticItems()</text>
<text text-anchor="start" x="297.419" y="-7.5" font-family="Helvetica,sans-Serif" font-size="10.00">+ StaticClass()</text>
</a>
</g>
</g>
<!-- Node2 -->
<g id="node2" class="node"><title>Node2</title>
<g id="a_node2"><a xlink:href="a26551.html" target="_top" xlink:title=" ">
<polygon fill="none" stroke="red" points="133.419,-127.5 133.419,-371.5 318.419,-371.5 318.419,-127.5 133.419,-127.5"/>
<text text-anchor="middle" x="225.919" y="-359.5" font-family="Helvetica,sans-Serif" font-size="10.00">SDK::UActorComponent</text>
<polyline fill="none" stroke="red" points="133.419,-352.5 318.419,-352.5 "/>
<text text-anchor="start" x="141.419" y="-340.5" font-family="Helvetica,sans-Serif" font-size="10.00">+ UnknownData00</text>
<text text-anchor="start" x="141.419" y="-329.5" font-family="Helvetica,sans-Serif" font-size="10.00">+ bReplicates</text>
<text text-anchor="start" x="141.419" y="-318.5" font-family="Helvetica,sans-Serif" font-size="10.00">+ bNetAddressable</text>
<text text-anchor="start" x="141.419" y="-307.5" font-family="Helvetica,sans-Serif" font-size="10.00">+ bInstanceComponent</text>
<text text-anchor="start" x="141.419" y="-296.5" font-family="Helvetica,sans-Serif" font-size="10.00">+ bAutoActivate</text>
<text text-anchor="start" x="141.419" y="-285.5" font-family="Helvetica,sans-Serif" font-size="10.00">+ bIsActive</text>
<text text-anchor="start" x="141.419" y="-274.5" font-family="Helvetica,sans-Serif" font-size="10.00">+ bNeedsLoadForServer</text>
<polyline fill="none" stroke="red" points="133.419,-267.5 318.419,-267.5 "/>
<text text-anchor="start" x="141.419" y="-255.5" font-family="Helvetica,sans-Serif" font-size="10.00">+ ToggleActive()</text>
<text text-anchor="start" x="141.419" y="-244.5" font-family="Helvetica,sans-Serif" font-size="10.00">+ SetTickGroup()</text>
<text text-anchor="start" x="141.419" y="-233.5" font-family="Helvetica,sans-Serif" font-size="10.00">+ SetTickableWhenPaused()</text>
<text text-anchor="start" x="141.419" y="-222.5" font-family="Helvetica,sans-Serif" font-size="10.00">+ SetIsReplicated()</text>
<text text-anchor="start" x="141.419" y="-211.5" font-family="Helvetica,sans-Serif" font-size="10.00">+ SetComponentTickEnabled()</text>
<text text-anchor="start" x="141.419" y="-200.5" font-family="Helvetica,sans-Serif" font-size="10.00">+ SetActive()</text>
<text text-anchor="start" x="141.419" y="-189.5" font-family="Helvetica,sans-Serif" font-size="10.00">+ RemoveTickPrerequisiteComponent()</text>
<text text-anchor="start" x="141.419" y="-178.5" font-family="Helvetica,sans-Serif" font-size="10.00">+ RemoveTickPrerequisiteActor()</text>
<text text-anchor="start" x="141.419" y="-167.5" font-family="Helvetica,sans-Serif" font-size="10.00">+ ReceiveTick()</text>
<text text-anchor="start" x="141.419" y="-156.5" font-family="Helvetica,sans-Serif" font-size="10.00">+ ReceiveEndPlay()</text>
<text text-anchor="start" x="141.419" y="-145.5" font-family="Helvetica,sans-Serif" font-size="10.00">and 12 more...</text>
<text text-anchor="start" x="141.419" y="-134.5" font-family="Helvetica,sans-Serif" font-size="10.00">+ StaticClass()</text>
</a>
</g>
</g>
<!-- Node2&#45;&gt;Node1 -->
<g id="edge1" class="edge"><title>Node2&#45;&gt;Node1</title>
<path fill="none" stroke="midnightblue" d="M313.247,-119.067C322.826,-104.87 331.942,-91.3584 339.816,-79.688"/>
<polygon fill="none" stroke="midnightblue" points="310.252,-117.249 307.56,-127.496 316.054,-121.164 310.252,-117.249"/>
</g>
<!-- Node12 -->
<g id="node3" class="node"><title>Node12</title>
<g id="a_node3"><a xlink:title=" ">
<polygon fill="none" stroke="#bfbfbf" points="73.4188,-540.5 73.4188,-597.5 108.419,-597.5 108.419,-540.5 73.4188,-540.5"/>
<text text-anchor="middle" x="90.9188" y="-585.5" font-family="Helvetica,sans-Serif" font-size="10.00">char</text>
<polyline fill="none" stroke="#bfbfbf" points="73.4188,-578.5 108.419,-578.5 "/>
<text text-anchor="middle" x="90.9188" y="-566.5" font-family="Helvetica,sans-Serif" font-size="10.00"> </text>
<polyline fill="none" stroke="#bfbfbf" points="73.4188,-559.5 108.419,-559.5 "/>
<text text-anchor="middle" x="90.9188" y="-547.5" font-family="Helvetica,sans-Serif" font-size="10.00"> </text>
</a>
</g>
</g>
<!-- Node12&#45;&gt;Node1 -->
<g id="edge4" class="edge"><title>Node12&#45;&gt;Node1</title>
<path fill="none" stroke="#404040" d="M76.1564,-540.428C38.1456,-465.252 -53.5097,-253.865 43.9188,-127 72.2481,-90.1115 191.985,-65.6382 277.15,-52.5346"/>
<polygon fill="none" stroke="#404040" points="277.321,-52.509 282.659,-47.6603 289.187,-50.7224 283.85,-55.5711 277.321,-52.509"/>
<text text-anchor="middle" x="83.9188" y="-247" font-family="Helvetica,sans-Serif" font-size="10.00"> +UnknownData00</text>
</g>
<!-- Node12&#45;&gt;Node2 -->
<g id="edge2" class="edge"><title>Node12&#45;&gt;Node2</title>
<path fill="none" stroke="#404040" d="M102.663,-540.379C117.669,-505.087 144.692,-441.534 169.618,-382.91"/>
<polygon fill="none" stroke="#404040" points="169.712,-382.689 168.379,-375.602 174.408,-371.646 175.741,-378.733 169.712,-382.689"/>
<text text-anchor="middle" x="222.919" y="-514" font-family="Helvetica,sans-Serif" font-size="10.00"> +UnknownData01</text>
<text text-anchor="middle" x="222.919" y="-503" font-family="Helvetica,sans-Serif" font-size="10.00">+UnknownData02</text>
<text text-anchor="middle" x="222.919" y="-492" font-family="Helvetica,sans-Serif" font-size="10.00">+UnknownData03</text>
<text text-anchor="middle" x="222.919" y="-481" font-family="Helvetica,sans-Serif" font-size="10.00">+UnknownData04</text>
<text text-anchor="middle" x="222.919" y="-470" font-family="Helvetica,sans-Serif" font-size="10.00">+UnknownData05</text>
<text text-anchor="start" x="166.919" y="-459" font-family="Helvetica,sans-Serif" font-size="10.00">+bCreatedByConstruction</text>
<text text-anchor="middle" x="222.919" y="-448" font-family="Helvetica,sans-Serif" font-size="10.00">Script</text>
<text text-anchor="middle" x="222.919" y="-437" font-family="Helvetica,sans-Serif" font-size="10.00">+UnknownData06</text>
<text text-anchor="middle" x="222.919" y="-426" font-family="Helvetica,sans-Serif" font-size="10.00">+UnknownData07</text>
<text text-anchor="middle" x="222.919" y="-415" font-family="Helvetica,sans-Serif" font-size="10.00">+bEditableWhenInherited</text>
<text text-anchor="middle" x="222.919" y="-404" font-family="Helvetica,sans-Serif" font-size="10.00">+bNeedsLoadForClient</text>
<text text-anchor="middle" x="222.919" y="-393" font-family="Helvetica,sans-Serif" font-size="10.00">...</text>
</g>
<!-- Node22 -->
<g id="node4" class="node"><title>Node22</title>
<g id="a_node4"><a xlink:href="a02011.html" target="_top" xlink:title=" ">
<polygon fill="none" stroke="red" points="336.419,-215.5 336.419,-283.5 489.419,-283.5 489.419,-215.5 336.419,-215.5"/>
<text text-anchor="start" x="344.419" y="-271.5" font-family="Helvetica,sans-Serif" font-size="10.00">SDK::UCosmeticItemAnimation</text>
<text text-anchor="middle" x="412.919" y="-260.5" font-family="Helvetica,sans-Serif" font-size="10.00">DataAsset</text>
<polyline fill="none" stroke="red" points="336.419,-253.5 489.419,-253.5 "/>
<text text-anchor="middle" x="412.919" y="-241.5" font-family="Helvetica,sans-Serif" font-size="10.00"> </text>
<polyline fill="none" stroke="red" points="336.419,-234.5 489.419,-234.5 "/>
<text text-anchor="start" x="344.419" y="-222.5" font-family="Helvetica,sans-Serif" font-size="10.00">+ StaticClass()</text>
</a>
</g>
</g>
<!-- Node22&#45;&gt;Node1 -->
<g id="edge3" class="edge"><title>Node22&#45;&gt;Node1</title>
<path fill="none" stroke="#404040" d="M405.367,-215.162C397.804,-181.772 386.069,-129.96 377.362,-91.5191"/>
<polygon fill="none" stroke="#404040" points="377.301,-91.2521 372.075,-86.284 374.65,-79.5486 379.877,-84.5167 377.301,-91.2521"/>
<text text-anchor="middle" x="409.419" y="-101" font-family="Helvetica,sans-Serif" font-size="10.00"> +DataAsset</text>
</g>
<!-- Node24 -->
<g id="node5" class="node"><title>Node24</title>
<g id="a_node5"><a xlink:href="a25871.html" target="_top" xlink:title=" ">
<polygon fill="none" stroke="black" points="507.919,-210 507.919,-289 671.919,-289 671.919,-210 507.919,-210"/>
<text text-anchor="start" x="515.919" y="-277" font-family="Helvetica,sans-Serif" font-size="10.00">SDK::TMap&lt; class SDK</text>
<text text-anchor="start" x="515.919" y="-266" font-family="Helvetica,sans-Serif" font-size="10.00">::USkeletalMeshComponent</text>
<text text-anchor="middle" x="589.919" y="-255" font-family="Helvetica,sans-Serif" font-size="10.00"> *, struct SDK::FCosmeticItems &gt;</text>
<polyline fill="none" stroke="black" points="507.919,-248 671.919,-248 "/>
<text text-anchor="middle" x="589.919" y="-236" font-family="Helvetica,sans-Serif" font-size="10.00"> </text>
<polyline fill="none" stroke="black" points="507.919,-229 671.919,-229 "/>
<text text-anchor="middle" x="589.919" y="-217" font-family="Helvetica,sans-Serif" font-size="10.00"> </text>
</a>
</g>
</g>
<!-- Node24&#45;&gt;Node1 -->
<g id="edge5" class="edge"><title>Node24&#45;&gt;Node1</title>
<path fill="none" stroke="#404040" d="M565.767,-209.886C548.744,-184.528 524.343,-151.62 497.919,-127 482.047,-112.212 463.34,-98.3325 445.078,-86.2178"/>
<polygon fill="none" stroke="#404040" points="445.064,-86.2087 437.853,-86.2965 434.999,-79.6744 442.21,-79.5865 445.064,-86.2087"/>
<text text-anchor="middle" x="513.419" y="-101" font-family="Helvetica,sans-Serif" font-size="10.00"> +CosmeticItems</text>
</g>
</g>
</svg>
