<?xml version="1.0" encoding="UTF-8" standalone="no"?>
<!DOCTYPE svg PUBLIC "-//W3C//DTD SVG 1.1//EN"
 "http://www.w3.org/Graphics/SVG/1.1/DTD/svg11.dtd">
<!-- Generated by graphviz version 2.38.0 (20140413.2041)
 -->
<!-- Title: SDK::UActorCoherentViewComponent Pages: 1 -->
<svg width="190pt" height="259pt"
 viewBox="0.00 0.00 190.00 259.00" xmlns="http://www.w3.org/2000/svg" xmlns:xlink="http://www.w3.org/1999/xlink">
<g id="graph0" class="graph" transform="scale(1 1) rotate(0) translate(4 255)">
<title>SDK::UActorCoherentViewComponent</title>
<!-- Node1 -->
<g id="node1" class="node"><title>Node1</title>
<g id="a_node1"><a xlink:title=" ">
<polygon fill="#bfbfbf" stroke="black" points="0,-0.5 0,-79.5 182,-79.5 182,-0.5 0,-0.5"/>
<text text-anchor="middle" x="91" y="-67.5" font-family="Helvetica,sans-Serif" font-size="10.00">SDK::UActorCoherentViewComponent</text>
<polyline fill="none" stroke="black" points="0,-60.5 182,-60.5 "/>
<text text-anchor="start" x="8" y="-48.5" font-family="Helvetica,sans-Serif" font-size="10.00">+ UnknownData00</text>
<text text-anchor="start" x="8" y="-37.5" font-family="Helvetica,sans-Serif" font-size="10.00">+ TargetPrimitiveName</text>
<polyline fill="none" stroke="black" points="0,-30.5 182,-30.5 "/>
<text text-anchor="start" x="8" y="-18.5" font-family="Helvetica,sans-Serif" font-size="10.00">+ ReadyForBindingsEventReceived()</text>
<text text-anchor="start" x="8" y="-7.5" font-family="Helvetica,sans-Serif" font-size="10.00">+ StaticClass()</text>
</a>
</g>
</g>
<!-- Node2 -->
<g id="node2" class="node"><title>Node2</title>
<g id="a_node2"><a xlink:href="a25947.html" target="_top" xlink:title=" ">
<polygon fill="none" stroke="red" points="11,-116.5 11,-250.5 171,-250.5 171,-116.5 11,-116.5"/>
<text text-anchor="middle" x="91" y="-238.5" font-family="Helvetica,sans-Serif" font-size="10.00">SDK::UCoherentUIGTComponent</text>
<polyline fill="none" stroke="red" points="11,-231.5 171,-231.5 "/>
<text text-anchor="start" x="19" y="-219.5" font-family="Helvetica,sans-Serif" font-size="10.00">+ URL</text>
<text text-anchor="start" x="19" y="-208.5" font-family="Helvetica,sans-Serif" font-size="10.00">+ Width</text>
<text text-anchor="start" x="19" y="-197.5" font-family="Helvetica,sans-Serif" font-size="10.00">+ Height</text>
<text text-anchor="start" x="19" y="-186.5" font-family="Helvetica,sans-Serif" font-size="10.00">+ ManualTexture</text>
<text text-anchor="start" x="19" y="-175.5" font-family="Helvetica,sans-Serif" font-size="10.00">+ UnknownData00</text>
<text text-anchor="start" x="19" y="-164.5" font-family="Helvetica,sans-Serif" font-size="10.00">+ ClickThroughAlphaThreshold</text>
<text text-anchor="start" x="19" y="-153.5" font-family="Helvetica,sans-Serif" font-size="10.00">+ Transparent</text>
<text text-anchor="start" x="19" y="-142.5" font-family="Helvetica,sans-Serif" font-size="10.00">+ UnknownData01</text>
<polyline fill="none" stroke="red" points="11,-135.5 171,-135.5 "/>
<text text-anchor="start" x="19" y="-123.5" font-family="Helvetica,sans-Serif" font-size="10.00">+ StaticClass()</text>
</a>
</g>
</g>
<!-- Node2&#45;&gt;Node1 -->
<g id="edge1" class="edge"><title>Node2&#45;&gt;Node1</title>
<path fill="none" stroke="midnightblue" d="M91,-106.03C91,-96.9466 91,-87.9896 91,-79.7634"/>
<polygon fill="none" stroke="midnightblue" points="87.5001,-106.307 91,-116.307 94.5001,-106.307 87.5001,-106.307"/>
</g>
</g>
</svg>
