<?xml version="1.0" encoding="UTF-8" standalone="no"?>
<!DOCTYPE svg PUBLIC "-//W3C//DTD SVG 1.1//EN"
 "http://www.w3.org/Graphics/SVG/1.1/DTD/svg11.dtd">
<!-- Generated by graphviz version 2.38.0 (20140413.2041)
 -->
<!-- Title: SDK::UAggressiveGhostShipEncounterDataAsset Pages: 1 -->
<svg width="429pt" height="248pt"
 viewBox="0.00 0.00 429.00 248.00" xmlns="http://www.w3.org/2000/svg" xmlns:xlink="http://www.w3.org/1999/xlink">
<g id="graph0" class="graph" transform="scale(1 1) rotate(0) translate(4 244)">
<title>SDK::UAggressiveGhostShipEncounterDataAsset</title>
<!-- Node1 -->
<g id="node1" class="node"><title>Node1</title>
<g id="a_node1"><a xlink:title=" ">
<polygon fill="#bfbfbf" stroke="black" points="114,-0.5 114,-68.5 257,-68.5 257,-0.5 114,-0.5"/>
<text text-anchor="start" x="122" y="-56.5" font-family="Helvetica,sans-Serif" font-size="10.00">SDK::UAggressiveGhostShip</text>
<text text-anchor="middle" x="185.5" y="-45.5" font-family="Helvetica,sans-Serif" font-size="10.00">EncounterDataAsset</text>
<polyline fill="none" stroke="black" points="114,-38.5 257,-38.5 "/>
<text text-anchor="middle" x="185.5" y="-26.5" font-family="Helvetica,sans-Serif" font-size="10.00"> </text>
<polyline fill="none" stroke="black" points="114,-19.5 257,-19.5 "/>
<text text-anchor="start" x="122" y="-7.5" font-family="Helvetica,sans-Serif" font-size="10.00">+ StaticClass()</text>
</a>
</g>
</g>
<!-- Node2 -->
<g id="node2" class="node"><title>Node2</title>
<g id="a_node2"><a xlink:href="a26559.html" target="_top" xlink:title=" ">
<polygon fill="none" stroke="red" points="0,-149.5 0,-206.5 95,-206.5 95,-149.5 0,-149.5"/>
<text text-anchor="middle" x="47.5" y="-194.5" font-family="Helvetica,sans-Serif" font-size="10.00">SDK::UDataAsset</text>
<polyline fill="none" stroke="red" points="0,-187.5 95,-187.5 "/>
<text text-anchor="middle" x="47.5" y="-175.5" font-family="Helvetica,sans-Serif" font-size="10.00"> </text>
<polyline fill="none" stroke="red" points="0,-168.5 95,-168.5 "/>
<text text-anchor="start" x="8" y="-156.5" font-family="Helvetica,sans-Serif" font-size="10.00">+ StaticClass()</text>
</a>
</g>
</g>
<!-- Node2&#45;&gt;Node1 -->
<g id="edge1" class="edge"><title>Node2&#45;&gt;Node1</title>
<path fill="none" stroke="midnightblue" d="M79.0459,-142.011C86.9453,-133.424 95.4611,-124.313 103.5,-116 118.755,-100.225 136.04,-83.1441 150.794,-68.7918"/>
<polygon fill="none" stroke="midnightblue" points="76.4619,-139.65 72.2902,-149.389 81.6247,-144.377 76.4619,-139.65"/>
</g>
<!-- Node14 -->
<g id="node3" class="node"><title>Node14</title>
<g id="a_node3"><a xlink:href="a25823.html" target="_top" xlink:title=" ">
<polygon fill="none" stroke="black" points="113,-116.5 113,-239.5 258,-239.5 258,-116.5 113,-116.5"/>
<text text-anchor="start" x="121" y="-227.5" font-family="Helvetica,sans-Serif" font-size="10.00">SDK::TArray&lt; struct</text>
<text text-anchor="start" x="121" y="-216.5" font-family="Helvetica,sans-Serif" font-size="10.00"> SDK::FAggressiveGhostShip</text>
<text text-anchor="middle" x="185.5" y="-205.5" font-family="Helvetica,sans-Serif" font-size="10.00">EncounterWaveDesc &gt;</text>
<polyline fill="none" stroke="black" points="113,-198.5 258,-198.5 "/>
<text text-anchor="middle" x="185.5" y="-186.5" font-family="Helvetica,sans-Serif" font-size="10.00"> </text>
<polyline fill="none" stroke="black" points="113,-179.5 258,-179.5 "/>
<text text-anchor="start" x="121" y="-167.5" font-family="Helvetica,sans-Serif" font-size="10.00">+ TArray()</text>
<text text-anchor="start" x="121" y="-156.5" font-family="Helvetica,sans-Serif" font-size="10.00">+ Num()</text>
<text text-anchor="start" x="121" y="-145.5" font-family="Helvetica,sans-Serif" font-size="10.00">+ operator[]()</text>
<text text-anchor="start" x="121" y="-134.5" font-family="Helvetica,sans-Serif" font-size="10.00">+ operator[]()</text>
<text text-anchor="start" x="121" y="-123.5" font-family="Helvetica,sans-Serif" font-size="10.00">+ IsValidIndex()</text>
</a>
</g>
</g>
<!-- Node14&#45;&gt;Node1 -->
<g id="edge2" class="edge"><title>Node14&#45;&gt;Node1</title>
<path fill="none" stroke="#404040" d="M185.5,-116.17C185.5,-104.306 185.5,-92.0619 185.5,-80.8086"/>
<polygon fill="none" stroke="#404040" points="185.5,-80.5973 181.5,-74.5973 185.5,-68.5973 189.5,-74.5973 185.5,-80.5973"/>
<text text-anchor="middle" x="238.5" y="-90" font-family="Helvetica,sans-Serif" font-size="10.00"> +EncounterWaveDescs</text>
</g>
<!-- Node15 -->
<g id="node4" class="node"><title>Node15</title>
<g id="a_node4"><a xlink:href="a25823.html" target="_top" xlink:title=" ">
<polygon fill="none" stroke="black" points="276,-116.5 276,-239.5 421,-239.5 421,-116.5 276,-116.5"/>
<text text-anchor="start" x="284" y="-227.5" font-family="Helvetica,sans-Serif" font-size="10.00">SDK::TArray&lt; struct</text>
<text text-anchor="start" x="284" y="-216.5" font-family="Helvetica,sans-Serif" font-size="10.00"> SDK::FAggressiveGhostShip</text>
<text text-anchor="middle" x="348.5" y="-205.5" font-family="Helvetica,sans-Serif" font-size="10.00">LocationEntryDesc &gt;</text>
<polyline fill="none" stroke="black" points="276,-198.5 421,-198.5 "/>
<text text-anchor="middle" x="348.5" y="-186.5" font-family="Helvetica,sans-Serif" font-size="10.00"> </text>
<polyline fill="none" stroke="black" points="276,-179.5 421,-179.5 "/>
<text text-anchor="start" x="284" y="-167.5" font-family="Helvetica,sans-Serif" font-size="10.00">+ TArray()</text>
<text text-anchor="start" x="284" y="-156.5" font-family="Helvetica,sans-Serif" font-size="10.00">+ Num()</text>
<text text-anchor="start" x="284" y="-145.5" font-family="Helvetica,sans-Serif" font-size="10.00">+ operator[]()</text>
<text text-anchor="start" x="284" y="-134.5" font-family="Helvetica,sans-Serif" font-size="10.00">+ operator[]()</text>
<text text-anchor="start" x="284" y="-123.5" font-family="Helvetica,sans-Serif" font-size="10.00">+ IsValidIndex()</text>
</a>
</g>
</g>
<!-- Node15&#45;&gt;Node1 -->
<g id="edge3" class="edge"><title>Node15&#45;&gt;Node1</title>
<path fill="none" stroke="#404040" d="M319.488,-116.103C312.635,-105.538 304.62,-95.2981 295.5,-87 287.31,-79.5487 277.853,-72.9875 267.991,-67.2647"/>
<polygon fill="none" stroke="#404040" points="267.716,-67.1147 260.534,-67.762 257.174,-61.3814 264.356,-60.7341 267.716,-67.1147"/>
<text text-anchor="middle" x="330.5" y="-90" font-family="Helvetica,sans-Serif" font-size="10.00"> +Locations</text>
</g>
</g>
</svg>
