<?xml version="1.0" encoding="UTF-8" standalone="no"?>
<!DOCTYPE svg PUBLIC "-//W3C//DTD SVG 1.1//EN"
 "http://www.w3.org/Graphics/SVG/1.1/DTD/svg11.dtd">
<!-- Generated by graphviz version 2.38.0 (20140413.2041)
 -->
<!-- Title: SDK::UAIFormWithVFXDataAsset Pages: 1 -->
<svg width="658pt" height="562pt"
 viewBox="0.00 0.00 657.54 562.00" xmlns="http://www.w3.org/2000/svg" xmlns:xlink="http://www.w3.org/1999/xlink">
<g id="graph0" class="graph" transform="scale(1 1) rotate(0) translate(4 558)">
<title>SDK::UAIFormWithVFXDataAsset</title>
<!-- Node1 -->
<g id="node1" class="node"><title>Node1</title>
<g id="a_node1"><a xlink:title=" ">
<polygon fill="#bfbfbf" stroke="black" points="234.038,-0.5 234.038,-57.5 399.038,-57.5 399.038,-0.5 234.038,-0.5"/>
<text text-anchor="middle" x="316.538" y="-45.5" font-family="Helvetica,sans-Serif" font-size="10.00">SDK::UAIFormWithVFXDataAsset</text>
<polyline fill="none" stroke="black" points="234.038,-38.5 399.038,-38.5 "/>
<text text-anchor="middle" x="316.538" y="-26.5" font-family="Helvetica,sans-Serif" font-size="10.00"> </text>
<polyline fill="none" stroke="black" points="234.038,-19.5 399.038,-19.5 "/>
<text text-anchor="start" x="242.038" y="-7.5" font-family="Helvetica,sans-Serif" font-size="10.00">+ StaticClass()</text>
</a>
</g>
</g>
<!-- Node2 -->
<g id="node2" class="node"><title>Node2</title>
<g id="a_node2"><a xlink:href="a23695.html" target="_top" xlink:title=" ">
<polygon fill="none" stroke="red" points="166.538,-182.5 166.538,-239.5 324.538,-239.5 324.538,-182.5 166.538,-182.5"/>
<text text-anchor="middle" x="245.538" y="-227.5" font-family="Helvetica,sans-Serif" font-size="10.00">SDK::UAthenaAIFormDataAsset</text>
<polyline fill="none" stroke="red" points="166.538,-220.5 324.538,-220.5 "/>
<text text-anchor="middle" x="245.538" y="-208.5" font-family="Helvetica,sans-Serif" font-size="10.00"> </text>
<polyline fill="none" stroke="red" points="166.538,-201.5 324.538,-201.5 "/>
<text text-anchor="start" x="174.538" y="-189.5" font-family="Helvetica,sans-Serif" font-size="10.00">+ StaticClass()</text>
</a>
</g>
</g>
<!-- Node2&#45;&gt;Node1 -->
<g id="edge1" class="edge"><title>Node2&#45;&gt;Node1</title>
<path fill="none" stroke="midnightblue" d="M260.279,-172.628C273.774,-138.416 293.439,-88.5614 305.588,-57.762"/>
<polygon fill="none" stroke="midnightblue" points="256.89,-171.683 256.477,-182.269 263.402,-174.251 256.89,-171.683"/>
</g>
<!-- Node18 -->
<g id="node3" class="node"><title>Node18</title>
<g id="a_node3"><a xlink:title=" ">
<polygon fill="none" stroke="#bfbfbf" points="41.0385,-496.5 41.0385,-553.5 76.0385,-553.5 76.0385,-496.5 41.0385,-496.5"/>
<text text-anchor="middle" x="58.5385" y="-541.5" font-family="Helvetica,sans-Serif" font-size="10.00">float</text>
<polyline fill="none" stroke="#bfbfbf" points="41.0385,-534.5 76.0385,-534.5 "/>
<text text-anchor="middle" x="58.5385" y="-522.5" font-family="Helvetica,sans-Serif" font-size="10.00"> </text>
<polyline fill="none" stroke="#bfbfbf" points="41.0385,-515.5 76.0385,-515.5 "/>
<text text-anchor="middle" x="58.5385" y="-503.5" font-family="Helvetica,sans-Serif" font-size="10.00"> </text>
</a>
</g>
</g>
<!-- Node18&#45;&gt;Node1 -->
<g id="edge5" class="edge"><title>Node18&#45;&gt;Node1</title>
<path fill="none" stroke="#404040" d="M47.2306,-496.377C19.4264,-423.541 -43.5667,-223.718 48.5385,-105 70.0864,-77.2261 153.727,-56.7943 221.909,-44.3315"/>
<polygon fill="none" stroke="#404040" points="222.193,-44.2809 227.397,-39.2891 234.007,-42.173 228.803,-47.1648 222.193,-44.2809"/>
<text text-anchor="middle" x="103.038" y="-208.5" font-family="Helvetica,sans-Serif" font-size="10.00"> +ParticleActivationDelay</text>
</g>
<!-- Node18&#45;&gt;Node2 -->
<g id="edge2" class="edge"><title>Node18&#45;&gt;Node2</title>
<path fill="none" stroke="#404040" d="M54.6276,-496.172C48.7464,-449.711 40.2392,-359.06 59.5385,-335 82.0706,-306.909 106.936,-334.264 138.538,-317 169.316,-300.186 197.339,-271.981 216.979,-249.036"/>
<polygon fill="none" stroke="#404040" points="217.184,-248.79 217.953,-241.62 224.867,-239.572 224.098,-246.742 217.184,-248.79"/>
<text text-anchor="middle" x="118.538" y="-404" font-family="Helvetica,sans-Serif" font-size="10.00"> +MovementSpeedMultipler</text>
</g>
<!-- Node27 -->
<g id="node5" class="node"><title>Node27</title>
<g id="a_node5"><a xlink:href="a27007.html" target="_top" xlink:title=" ">
<polygon fill="none" stroke="red" points="342.538,-105.5 342.538,-316.5 506.538,-316.5 506.538,-105.5 342.538,-105.5"/>
<text text-anchor="middle" x="424.538" y="-304.5" font-family="Helvetica,sans-Serif" font-size="10.00">SDK::UParticleSystem</text>
<polyline fill="none" stroke="red" points="342.538,-297.5 506.538,-297.5 "/>
<text text-anchor="start" x="350.538" y="-285.5" font-family="Helvetica,sans-Serif" font-size="10.00">+ UnknownData00</text>
<text text-anchor="start" x="350.538" y="-274.5" font-family="Helvetica,sans-Serif" font-size="10.00">+ bRegenerateLODDuplicate</text>
<text text-anchor="start" x="350.538" y="-263.5" font-family="Helvetica,sans-Serif" font-size="10.00">+ bIgnoreBoundsRotation</text>
<text text-anchor="start" x="350.538" y="-252.5" font-family="Helvetica,sans-Serif" font-size="10.00">+ bUseFixedRelativeBoundingBox</text>
<text text-anchor="start" x="350.538" y="-241.5" font-family="Helvetica,sans-Serif" font-size="10.00">+ UnknownData06</text>
<text text-anchor="start" x="350.538" y="-230.5" font-family="Helvetica,sans-Serif" font-size="10.00">+ bShouldResetPeakCounts</text>
<text text-anchor="start" x="350.538" y="-219.5" font-family="Helvetica,sans-Serif" font-size="10.00">+ bHasPhysics</text>
<text text-anchor="start" x="350.538" y="-208.5" font-family="Helvetica,sans-Serif" font-size="10.00">+ bPostPhysicsTick</text>
<text text-anchor="start" x="350.538" y="-197.5" font-family="Helvetica,sans-Serif" font-size="10.00">+ bUseRealtimeThumbnail</text>
<text text-anchor="start" x="350.538" y="-186.5" font-family="Helvetica,sans-Serif" font-size="10.00">+ UnknownData07</text>
<text text-anchor="start" x="350.538" y="-175.5" font-family="Helvetica,sans-Serif" font-size="10.00">+ bUseDelayRange</text>
<text text-anchor="start" x="350.538" y="-164.5" font-family="Helvetica,sans-Serif" font-size="10.00">+ UnknownData08</text>
<text text-anchor="start" x="350.538" y="-153.5" font-family="Helvetica,sans-Serif" font-size="10.00">+ UnknownData09</text>
<polyline fill="none" stroke="red" points="342.538,-146.5 506.538,-146.5 "/>
<text text-anchor="start" x="350.538" y="-134.5" font-family="Helvetica,sans-Serif" font-size="10.00">+ GetNumLODs()</text>
<text text-anchor="start" x="350.538" y="-123.5" font-family="Helvetica,sans-Serif" font-size="10.00">+ ContainsEmitterType()</text>
<text text-anchor="start" x="350.538" y="-112.5" font-family="Helvetica,sans-Serif" font-size="10.00">+ StaticClass()</text>
</a>
</g>
</g>
<!-- Node18&#45;&gt;Node27 -->
<g id="edge7" class="edge"><title>Node18&#45;&gt;Node27</title>
<path fill="none" stroke="#404040" d="M76.3685,-522.631C102.974,-519.56 152.6,-509.672 177.538,-478 217.202,-427.627 151.17,-380.303 196.538,-335 237.364,-294.234 274.666,-339.861 331.135,-317.097"/>
<polygon fill="none" stroke="#404040" points="331.456,-316.945 335.162,-310.759 342.298,-311.802 338.591,-317.988 331.456,-316.945"/>
<text text-anchor="middle" x="253.038" y="-448" font-family="Helvetica,sans-Serif" font-size="10.00"> +UpdateTime_Delta</text>
<text text-anchor="middle" x="253.038" y="-437" font-family="Helvetica,sans-Serif" font-size="10.00">+Delay</text>
<text text-anchor="middle" x="253.038" y="-426" font-family="Helvetica,sans-Serif" font-size="10.00">+SecondsBeforeInactive</text>
<text text-anchor="middle" x="253.038" y="-415" font-family="Helvetica,sans-Serif" font-size="10.00">+LODDistanceCheckTime</text>
<text text-anchor="middle" x="253.038" y="-404" font-family="Helvetica,sans-Serif" font-size="10.00">+MacroUVRadius</text>
<text text-anchor="middle" x="253.038" y="-393" font-family="Helvetica,sans-Serif" font-size="10.00">+WarmupTime</text>
<text text-anchor="middle" x="253.038" y="-382" font-family="Helvetica,sans-Serif" font-size="10.00">+WarmupTickRate</text>
<text text-anchor="middle" x="253.038" y="-371" font-family="Helvetica,sans-Serif" font-size="10.00">+DelayLow</text>
<text text-anchor="middle" x="253.038" y="-360" font-family="Helvetica,sans-Serif" font-size="10.00">+UpdateTime_FPS</text>
</g>
<!-- Node13 -->
<g id="node4" class="node"><title>Node13</title>
<g id="a_node4"><a xlink:title=" ">
<polygon fill="none" stroke="#bfbfbf" points="421.038,-496.5 421.038,-553.5 456.038,-553.5 456.038,-496.5 421.038,-496.5"/>
<text text-anchor="middle" x="438.538" y="-541.5" font-family="Helvetica,sans-Serif" font-size="10.00">char</text>
<polyline fill="none" stroke="#bfbfbf" points="421.038,-534.5 456.038,-534.5 "/>
<text text-anchor="middle" x="438.538" y="-522.5" font-family="Helvetica,sans-Serif" font-size="10.00"> </text>
<polyline fill="none" stroke="#bfbfbf" points="421.038,-515.5 456.038,-515.5 "/>
<text text-anchor="middle" x="438.538" y="-503.5" font-family="Helvetica,sans-Serif" font-size="10.00"> </text>
</a>
</g>
</g>
<!-- Node13&#45;&gt;Node1 -->
<g id="edge4" class="edge"><title>Node13&#45;&gt;Node1</title>
<path fill="none" stroke="#404040" d="M456.349,-523.621C485.151,-521.931 541.273,-513.927 566.538,-478 616.551,-406.883 516.173,-105.735 515.538,-105 489.03,-74.2991 448.625,-56.1361 411.133,-45.4038"/>
<polygon fill="none" stroke="#404040" points="410.674,-45.281 403.843,-47.5911 399.083,-42.174 405.915,-39.8639 410.674,-45.281"/>
<text text-anchor="middle" x="609.538" y="-208.5" font-family="Helvetica,sans-Serif" font-size="10.00"> +UnknownData00</text>
</g>
<!-- Node13&#45;&gt;Node2 -->
<g id="edge3" class="edge"><title>Node13&#45;&gt;Node2</title>
<path fill="none" stroke="#404040" d="M420.881,-520.165C399.668,-514.61 364.565,-502.223 345.538,-478 305.31,-426.782 336.639,-395.893 313.538,-335 302.206,-305.126 284.675,-273.632 270.252,-249.992"/>
<polygon fill="none" stroke="#404040" points="270.204,-249.914 263.642,-246.924 263.878,-239.716 270.44,-242.706 270.204,-249.914"/>
<text text-anchor="middle" x="385.538" y="-404" font-family="Helvetica,sans-Serif" font-size="10.00"> +UnknownData00</text>
</g>
<!-- Node13&#45;&gt;Node27 -->
<g id="edge8" class="edge"><title>Node13&#45;&gt;Node27</title>
<path fill="none" stroke="#404040" d="M437.296,-496.312C435.612,-458.772 432.5,-389.423 429.771,-328.617"/>
<polygon fill="none" stroke="#404040" points="429.769,-328.569 425.504,-322.755 429.231,-316.581 433.496,-322.396 429.769,-328.569"/>
<text text-anchor="middle" x="499.038" y="-470" font-family="Helvetica,sans-Serif" font-size="10.00"> +UnknownData01</text>
<text text-anchor="middle" x="499.038" y="-459" font-family="Helvetica,sans-Serif" font-size="10.00">+UnknownData02</text>
<text text-anchor="middle" x="499.038" y="-448" font-family="Helvetica,sans-Serif" font-size="10.00">+UnknownData10</text>
<text text-anchor="start" x="435.538" y="-437" font-family="Helvetica,sans-Serif" font-size="10.00">+bBoostParticleAggregation</text>
<text text-anchor="middle" x="499.038" y="-426" font-family="Helvetica,sans-Serif" font-size="10.00">Priority</text>
<text text-anchor="middle" x="499.038" y="-415" font-family="Helvetica,sans-Serif" font-size="10.00">+UnknownData03</text>
<text text-anchor="start" x="435.538" y="-404" font-family="Helvetica,sans-Serif" font-size="10.00">+bUseLowResTranslucency</text>
<text text-anchor="middle" x="499.038" y="-393" font-family="Helvetica,sans-Serif" font-size="10.00">BoundingBox</text>
<text text-anchor="middle" x="499.038" y="-382" font-family="Helvetica,sans-Serif" font-size="10.00">+UnknownData04</text>
<text text-anchor="middle" x="499.038" y="-371" font-family="Helvetica,sans-Serif" font-size="10.00">+bOrientZAxisTowardCamera</text>
<text text-anchor="middle" x="499.038" y="-360" font-family="Helvetica,sans-Serif" font-size="10.00">+UnknownData05</text>
<text text-anchor="middle" x="499.038" y="-349" font-family="Helvetica,sans-Serif" font-size="10.00">+ThumbnailImageOutOfDate</text>
<text text-anchor="middle" x="499.038" y="-338" font-family="Helvetica,sans-Serif" font-size="10.00">...</text>
</g>
<!-- Node27&#45;&gt;Node1 -->
<g id="edge6" class="edge"><title>Node27&#45;&gt;Node1</title>
<path fill="none" stroke="#404040" d="M361.714,-105.293C353.779,-92.0679 346.105,-79.2781 339.403,-68.108"/>
<polygon fill="none" stroke="#404040" points="339.226,-67.8117 332.709,-64.7248 333.052,-57.5218 339.569,-60.6088 339.226,-67.8117"/>
<text text-anchor="middle" x="391.538" y="-79" font-family="Helvetica,sans-Serif" font-size="10.00"> +ParticlesTemplate</text>
</g>
</g>
</svg>
