<?xml version="1.0" encoding="UTF-8" standalone="no"?>
<!DOCTYPE svg PUBLIC "-//W3C//DTD SVG 1.1//EN"
 "http://www.w3.org/Graphics/SVG/1.1/DTD/svg11.dtd">
<!-- Generated by graphviz version 2.38.0 (20140413.2041)
 -->
<!-- Title: SDK::AArenaVendorShip Pages: 1 -->
<!--zoomable 1052 -->
<svg id="main" version="1.1" xmlns="http://www.w3.org/2000/svg" xmlns:xlink="http://www.w3.org/1999/xlink" xml:space="preserve" onload="init(evt)">
<style type="text/css"><![CDATA[
.edge:hover path { stroke: red; }
.edge:hover polygon { stroke: red; fill: red; }
]]></style>
<script type="text/javascript"><![CDATA[
var edges = document.getElementsByTagName('g');
if (edges && edges.length) {
  for (var i=0;i<edges.length;i++) {
    if (edges[i].id.substr(0,4)=='edge') {
      edges[i].setAttribute('class','edge');
    }
  }
}
]]></script>
        <defs>
                <circle id="rim" cx="0" cy="0" r="7"/>
                <circle id="rim2" cx="0" cy="0" r="3.5"/>
                <g id="zoomPlus">
                        <use xlink:href="#rim" fill="#404040">
                                <set attributeName="fill" to="#808080" begin="zoomplus.mouseover" end="zoomplus.mouseout"/>
                        </use>
                        <path d="M-4,0h8M0,-4v8" fill="none" stroke="white" stroke-width="1.5" pointer-events="none"/>
                </g>
                <g id="zoomMin">
                        <use xlink:href="#rim" fill="#404040">
                                <set attributeName="fill" to="#808080" begin="zoomminus.mouseover" end="zoomminus.mouseout"/>
                        </use>
                        <path d="M-4,0h8" fill="none" stroke="white" stroke-width="1.5" pointer-events="none"/>
                </g>
                <g id="dirArrow">
                        <path fill="none" stroke="white" stroke-width="1.5" d="M0,-3.0v7 M-2.5,-0.5L0,-3.0L2.5,-0.5"/>
                </g>
               <g id="resetDef">
                       <use xlink:href="#rim2" fill="#404040">
                               <set attributeName="fill" to="#808080" begin="reset.mouseover" end="reset.mouseout"/>
                       </use>
               </g>
        </defs>

<script type="text/javascript">
var viewWidth = 1305;
var viewHeight = 1052;
var sectionId = 'dynsection-1';
</script>
<script xlink:href="svgpan.js"/>
<svg id="graph" class="graph">
<g id="viewport">
<title>SDK::AArenaVendorShip</title>
<!-- Node1 -->
<g id="node1" class="node"><title>Node1</title>
<g id="a_node1"><a xlink:title=" ">
<polygon fill="#bfbfbf" stroke="black" points="568,-0.5 568,-57.5 693,-57.5 693,-0.5 568,-0.5"/>
<text text-anchor="middle" x="630.5" y="-45.5" font-family="Helvetica,sans-Serif" font-size="10.00">SDK::AArenaVendorShip</text>
<polyline fill="none" stroke="black" points="568,-38.5 693,-38.5 "/>
<text text-anchor="middle" x="630.5" y="-26.5" font-family="Helvetica,sans-Serif" font-size="10.00"> </text>
<polyline fill="none" stroke="black" points="568,-19.5 693,-19.5 "/>
<text text-anchor="start" x="576" y="-7.5" font-family="Helvetica,sans-Serif" font-size="10.00">+ StaticClass()</text>
</a>
</g>
</g>
<!-- Node2 -->
<g id="node2" class="node"><title>Node2</title>
<g id="a_node2"><a xlink:href="a26555.html" target="_top" xlink:title=" ">
<polygon fill="none" stroke="red" points="0,-105.5 0,-404.5 167,-404.5 167,-105.5 0,-105.5"/>
<text text-anchor="middle" x="83.5" y="-392.5" font-family="Helvetica,sans-Serif" font-size="10.00">SDK::AActor</text>
<polyline fill="none" stroke="red" points="0,-385.5 167,-385.5 "/>
<text text-anchor="start" x="8" y="-373.5" font-family="Helvetica,sans-Serif" font-size="10.00">+ bAllowRemovalFromServerWhen</text>
<text text-anchor="start" x="8" y="-362.5" font-family="Helvetica,sans-Serif" font-size="10.00">CollisionMerged</text>
<text text-anchor="start" x="8" y="-351.5" font-family="Helvetica,sans-Serif" font-size="10.00">+ bHidden</text>
<text text-anchor="start" x="8" y="-340.5" font-family="Helvetica,sans-Serif" font-size="10.00">+ bNetStartup</text>
<text text-anchor="start" x="8" y="-329.5" font-family="Helvetica,sans-Serif" font-size="10.00">+ bOnlyRelevantToOwner</text>
<text text-anchor="start" x="8" y="-318.5" font-family="Helvetica,sans-Serif" font-size="10.00">+ bAlwaysRelevant</text>
<text text-anchor="start" x="8" y="-307.5" font-family="Helvetica,sans-Serif" font-size="10.00">+ bReplicateMovement</text>
<text text-anchor="start" x="8" y="-296.5" font-family="Helvetica,sans-Serif" font-size="10.00">+ bExchangedRoles</text>
<text text-anchor="start" x="8" y="-285.5" font-family="Helvetica,sans-Serif" font-size="10.00">+ bNetLoadOnClient</text>
<text text-anchor="start" x="8" y="-274.5" font-family="Helvetica,sans-Serif" font-size="10.00">+ bBlockInput</text>
<text text-anchor="start" x="8" y="-263.5" font-family="Helvetica,sans-Serif" font-size="10.00">+ UnknownData00</text>
<text text-anchor="start" x="8" y="-252.5" font-family="Helvetica,sans-Serif" font-size="10.00">and 26 more...</text>
<polyline fill="none" stroke="red" points="0,-245.5 167,-245.5 "/>
<text text-anchor="start" x="8" y="-233.5" font-family="Helvetica,sans-Serif" font-size="10.00">+ UserConstructionScript()</text>
<text text-anchor="start" x="8" y="-222.5" font-family="Helvetica,sans-Serif" font-size="10.00">+ TearOff()</text>
<text text-anchor="start" x="8" y="-211.5" font-family="Helvetica,sans-Serif" font-size="10.00">+ SnapRootComponentTo()</text>
<text text-anchor="start" x="8" y="-200.5" font-family="Helvetica,sans-Serif" font-size="10.00">+ SetTickGroup()</text>
<text text-anchor="start" x="8" y="-189.5" font-family="Helvetica,sans-Serif" font-size="10.00">+ SetTickableWhenPaused()</text>
<text text-anchor="start" x="8" y="-178.5" font-family="Helvetica,sans-Serif" font-size="10.00">+ SetReplicates()</text>
<text text-anchor="start" x="8" y="-167.5" font-family="Helvetica,sans-Serif" font-size="10.00">+ SetReplicateMovement()</text>
<text text-anchor="start" x="8" y="-156.5" font-family="Helvetica,sans-Serif" font-size="10.00">+ SetOwner()</text>
<text text-anchor="start" x="8" y="-145.5" font-family="Helvetica,sans-Serif" font-size="10.00">+ SetLifeSpan()</text>
<text text-anchor="start" x="8" y="-134.5" font-family="Helvetica,sans-Serif" font-size="10.00">+ SetIgnoreNetTransformUpdates()</text>
<text text-anchor="start" x="8" y="-123.5" font-family="Helvetica,sans-Serif" font-size="10.00">and 109 more...</text>
<text text-anchor="start" x="8" y="-112.5" font-family="Helvetica,sans-Serif" font-size="10.00">+ StaticClass()</text>
</a>
</g>
</g>
<!-- Node2&#45;&gt;Node1 -->
<g id="edge1" class="edge"><title>Node2&#45;&gt;Node1</title>
<path fill="none" stroke="midnightblue" d="M174.539,-129.25C195.268,-108.398 218.838,-89.264 244.5,-76 299.357,-47.6457 473.032,-36.3231 567.621,-32.1713"/>
<polygon fill="none" stroke="midnightblue" points="171.773,-127.074 167.326,-136.69 176.799,-131.946 171.773,-127.074"/>
</g>
<!-- Node2&#45;&gt;Node2 -->
<g id="edge7" class="edge"><title>Node2&#45;&gt;Node2</title>
<path fill="none" stroke="#404040" d="M167.12,-283.264C177.887,-278.363 185,-268.941 185,-255 185,-246.069 182.081,-238.993 177.152,-233.771"/>
<polygon fill="none" stroke="#404040" points="176.945,-233.626 169.736,-233.456 167.12,-226.736 174.329,-226.906 176.945,-233.626"/>
<text text-anchor="middle" x="203.5" y="-252.5" font-family="Helvetica,sans-Serif" font-size="10.00"> +Owner</text>
</g>
<!-- Node12 -->
<g id="node3" class="node"><title>Node12</title>
<g id="a_node3"><a xlink:title=" ">
<polygon fill="none" stroke="#bfbfbf" points="707,-986.5 707,-1043.5 742,-1043.5 742,-986.5 707,-986.5"/>
<text text-anchor="middle" x="724.5" y="-1031.5" font-family="Helvetica,sans-Serif" font-size="10.00">char</text>
<polyline fill="none" stroke="#bfbfbf" points="707,-1024.5 742,-1024.5 "/>
<text text-anchor="middle" x="724.5" y="-1012.5" font-family="Helvetica,sans-Serif" font-size="10.00"> </text>
<polyline fill="none" stroke="#bfbfbf" points="707,-1005.5 742,-1005.5 "/>
<text text-anchor="middle" x="724.5" y="-993.5" font-family="Helvetica,sans-Serif" font-size="10.00"> </text>
</a>
</g>
</g>
<!-- Node12&#45;&gt;Node1 -->
<g id="edge10" class="edge"><title>Node12&#45;&gt;Node1</title>
<path fill="none" stroke="#404040" d="M732.397,-986.406C742.222,-950.513 758.441,-885.69 764.5,-829 766.723,-808.202 776.654,-93.0229 764.5,-76 750.564,-56.482 727.805,-45.1588 704.966,-38.6194"/>
<polygon fill="none" stroke="#404040" points="704.697,-38.5517 697.901,-40.9633 693.061,-35.6177 699.857,-33.2061 704.697,-38.5517"/>
<text text-anchor="middle" x="810.5" y="-459" font-family="Helvetica,sans-Serif" font-size="10.00"> +UnknownData00</text>
</g>
<!-- Node12&#45;&gt;Node2 -->
<g id="edge2" class="edge"><title>Node12&#45;&gt;Node2</title>
<path fill="none" stroke="#404040" d="M706.994,-1013.19C657.226,-1010.53 510.992,-1000.34 394.5,-968 242.729,-925.87 155.329,-960.415 68.5,-829 -11.3485,-708.15 4.45153,-539.488 32.9468,-416.45"/>
<polygon fill="none" stroke="#404040" points="32.9672,-416.364 30.4626,-409.602 35.7412,-404.689 38.2459,-411.451 32.9672,-416.364"/>
<text text-anchor="middle" x="134.5" y="-726" font-family="Helvetica,sans-Serif" font-size="10.00"> +bEnableAutoLODGeneration</text>
<text text-anchor="middle" x="134.5" y="-715" font-family="Helvetica,sans-Serif" font-size="10.00">+UnknownData01</text>
<text text-anchor="middle" x="134.5" y="-704" font-family="Helvetica,sans-Serif" font-size="10.00">+bNetUseOwnerRelevancy</text>
<text text-anchor="middle" x="134.5" y="-693" font-family="Helvetica,sans-Serif" font-size="10.00">+bTearOff</text>
<text text-anchor="middle" x="134.5" y="-682" font-family="Helvetica,sans-Serif" font-size="10.00">+bNetTemporary</text>
<text text-anchor="middle" x="134.5" y="-671" font-family="Helvetica,sans-Serif" font-size="10.00">+UnknownData02</text>
<text text-anchor="middle" x="134.5" y="-660" font-family="Helvetica,sans-Serif" font-size="10.00">+bCanBeInCluster</text>
<text text-anchor="middle" x="134.5" y="-649" font-family="Helvetica,sans-Serif" font-size="10.00">+bPendingNetUpdate</text>
<text text-anchor="middle" x="134.5" y="-638" font-family="Helvetica,sans-Serif" font-size="10.00">+UnknownData10</text>
<text text-anchor="middle" x="134.5" y="-627" font-family="Helvetica,sans-Serif" font-size="10.00">+UnknownData03</text>
<text text-anchor="middle" x="134.5" y="-616" font-family="Helvetica,sans-Serif" font-size="10.00">...</text>
</g>
<!-- Node29 -->
<g id="node5" class="node"><title>Node29</title>
<g id="a_node5"><a xlink:href="a26575.html" target="_top" xlink:title=" ">
<polygon fill="none" stroke="red" points="209.5,-518.5 209.5,-828.5 385.5,-828.5 385.5,-518.5 209.5,-518.5"/>
<text text-anchor="middle" x="297.5" y="-816.5" font-family="Helvetica,sans-Serif" font-size="10.00">SDK::USceneComponent</text>
<polyline fill="none" stroke="red" points="209.5,-809.5 385.5,-809.5 "/>
<text text-anchor="start" x="217.5" y="-797.5" font-family="Helvetica,sans-Serif" font-size="10.00">+ bAbsoluteLocation</text>
<text text-anchor="start" x="217.5" y="-786.5" font-family="Helvetica,sans-Serif" font-size="10.00">+ bAbsoluteTranslation</text>
<text text-anchor="start" x="217.5" y="-775.5" font-family="Helvetica,sans-Serif" font-size="10.00">+ bAbsoluteRotation</text>
<text text-anchor="start" x="217.5" y="-764.5" font-family="Helvetica,sans-Serif" font-size="10.00">+ bShouldUpdatePhysicsVolume</text>
<text text-anchor="start" x="217.5" y="-753.5" font-family="Helvetica,sans-Serif" font-size="10.00">+ bBoundsChangeTriggersStreaming</text>
<text text-anchor="start" x="217.5" y="-742.5" font-family="Helvetica,sans-Serif" font-size="10.00">DataRebuild</text>
<text text-anchor="start" x="217.5" y="-731.5" font-family="Helvetica,sans-Serif" font-size="10.00">+ bUseAttachParentBound</text>
<text text-anchor="start" x="217.5" y="-720.5" font-family="Helvetica,sans-Serif" font-size="10.00">+ UnknownData00</text>
<text text-anchor="start" x="217.5" y="-709.5" font-family="Helvetica,sans-Serif" font-size="10.00">+ CacheRootVelocity</text>
<text text-anchor="start" x="217.5" y="-698.5" font-family="Helvetica,sans-Serif" font-size="10.00">+ bWorldToComponentUpdated</text>
<text text-anchor="start" x="217.5" y="-687.5" font-family="Helvetica,sans-Serif" font-size="10.00">+ UnknownData05</text>
<text text-anchor="start" x="217.5" y="-676.5" font-family="Helvetica,sans-Serif" font-size="10.00">+ UnknownData06</text>
<text text-anchor="start" x="217.5" y="-665.5" font-family="Helvetica,sans-Serif" font-size="10.00">+ UnknownData07</text>
<polyline fill="none" stroke="red" points="209.5,-658.5 385.5,-658.5 "/>
<text text-anchor="start" x="217.5" y="-646.5" font-family="Helvetica,sans-Serif" font-size="10.00">+ ToggleVisibility()</text>
<text text-anchor="start" x="217.5" y="-635.5" font-family="Helvetica,sans-Serif" font-size="10.00">+ SnapTo()</text>
<text text-anchor="start" x="217.5" y="-624.5" font-family="Helvetica,sans-Serif" font-size="10.00">+ SharesBasis()</text>
<text text-anchor="start" x="217.5" y="-613.5" font-family="Helvetica,sans-Serif" font-size="10.00">+ SetWorldScale3D()</text>
<text text-anchor="start" x="217.5" y="-602.5" font-family="Helvetica,sans-Serif" font-size="10.00">+ SetVisibility()</text>
<text text-anchor="start" x="217.5" y="-591.5" font-family="Helvetica,sans-Serif" font-size="10.00">+ SetRelativeScale3D()</text>
<text text-anchor="start" x="217.5" y="-580.5" font-family="Helvetica,sans-Serif" font-size="10.00">+ SetHiddenInGame()</text>
<text text-anchor="start" x="217.5" y="-569.5" font-family="Helvetica,sans-Serif" font-size="10.00">+ SetAbsolute()</text>
<text text-anchor="start" x="217.5" y="-558.5" font-family="Helvetica,sans-Serif" font-size="10.00">+ ResetRelativeTransform()</text>
<text text-anchor="start" x="217.5" y="-547.5" font-family="Helvetica,sans-Serif" font-size="10.00">+ OnRep_Visibility()</text>
<text text-anchor="start" x="217.5" y="-536.5" font-family="Helvetica,sans-Serif" font-size="10.00">and 45 more...</text>
<text text-anchor="start" x="217.5" y="-525.5" font-family="Helvetica,sans-Serif" font-size="10.00">+ StaticClass()</text>
</a>
</g>
</g>
<!-- Node12&#45;&gt;Node29 -->
<g id="edge5" class="edge"><title>Node12&#45;&gt;Node29</title>
<path fill="none" stroke="#404040" d="M706.87,-1014.07C669.08,-1013.43 578.745,-1007.53 517.5,-968 466.943,-935.371 423.735,-886.844 389.339,-838.6"/>
<polygon fill="none" stroke="#404040" points="389.244,-838.464 382.525,-835.847 382.356,-828.638 389.076,-831.255 389.244,-838.464"/>
<text text-anchor="middle" x="587" y="-960" font-family="Helvetica,sans-Serif" font-size="10.00"> +UnknownData01</text>
<text text-anchor="middle" x="587" y="-949" font-family="Helvetica,sans-Serif" font-size="10.00">+UnknownData02</text>
<text text-anchor="middle" x="587" y="-938" font-family="Helvetica,sans-Serif" font-size="10.00">+bComponentIsUnionOfChildren</text>
<text text-anchor="middle" x="587" y="-927" font-family="Helvetica,sans-Serif" font-size="10.00">+UnknownData03</text>
<text text-anchor="middle" x="587" y="-916" font-family="Helvetica,sans-Serif" font-size="10.00">+bJitterReduction</text>
<text text-anchor="middle" x="587" y="-905" font-family="Helvetica,sans-Serif" font-size="10.00">+bAbsoluteScale</text>
<text text-anchor="middle" x="587" y="-894" font-family="Helvetica,sans-Serif" font-size="10.00">+bRequiresCustomLocation</text>
<text text-anchor="middle" x="587" y="-883" font-family="Helvetica,sans-Serif" font-size="10.00">+UnknownData04</text>
<text text-anchor="middle" x="587" y="-872" font-family="Helvetica,sans-Serif" font-size="10.00">+bHiddenInGame</text>
<text text-anchor="middle" x="587" y="-861" font-family="Helvetica,sans-Serif" font-size="10.00">+bVisible</text>
<text text-anchor="middle" x="587" y="-850" font-family="Helvetica,sans-Serif" font-size="10.00">...</text>
</g>
<!-- Node178 -->
<g id="node6" class="node"><title>Node178</title>
<g id="a_node6"><a xlink:href="a04335.html" target="_top" xlink:title=" ">
<polygon fill="none" stroke="red" points="864,-427.5 864,-495.5 1025,-495.5 1025,-427.5 864,-427.5"/>
<text text-anchor="start" x="872" y="-483.5" font-family="Helvetica,sans-Serif" font-size="10.00">SDK::UContestMerchantSpawner</text>
<text text-anchor="middle" x="944.5" y="-472.5" font-family="Helvetica,sans-Serif" font-size="10.00">Component</text>
<polyline fill="none" stroke="red" points="864,-465.5 1025,-465.5 "/>
<text text-anchor="middle" x="944.5" y="-453.5" font-family="Helvetica,sans-Serif" font-size="10.00"> </text>
<polyline fill="none" stroke="red" points="864,-446.5 1025,-446.5 "/>
<text text-anchor="start" x="872" y="-434.5" font-family="Helvetica,sans-Serif" font-size="10.00">+ StaticClass()</text>
</a>
</g>
</g>
<!-- Node12&#45;&gt;Node178 -->
<g id="edge9" class="edge"><title>Node12&#45;&gt;Node178</title>
<path fill="none" stroke="#404040" d="M742.09,-1006.33C757.53,-998.738 779.496,-985.683 792.5,-968 899.295,-822.772 931.714,-602.268 941.002,-507.917"/>
<polygon fill="none" stroke="#404040" points="941.025,-507.673 937.6,-501.327 942.141,-495.725 945.566,-502.072 941.025,-507.673"/>
<text text-anchor="middle" x="898.5" y="-905" font-family="Helvetica,sans-Serif" font-size="10.00"> +UnknownData00</text>
</g>
<!-- Node181 -->
<g id="node7" class="node"><title>Node181</title>
<g id="a_node7"><a xlink:href="a27659.html" target="_top" xlink:title=" ">
<polygon fill="none" stroke="red" points="601,-204.5 601,-305.5 750,-305.5 750,-204.5 601,-204.5"/>
<text text-anchor="middle" x="675.5" y="-293.5" font-family="Helvetica,sans-Serif" font-size="10.00">SDK::USphereComponent</text>
<polyline fill="none" stroke="red" points="601,-286.5 750,-286.5 "/>
<text text-anchor="middle" x="675.5" y="-274.5" font-family="Helvetica,sans-Serif" font-size="10.00"> </text>
<polyline fill="none" stroke="red" points="601,-267.5 750,-267.5 "/>
<text text-anchor="start" x="609" y="-255.5" font-family="Helvetica,sans-Serif" font-size="10.00">+ SetSphereRadius()</text>
<text text-anchor="start" x="609" y="-244.5" font-family="Helvetica,sans-Serif" font-size="10.00">+ GetUnscaledSphereRadius()</text>
<text text-anchor="start" x="609" y="-233.5" font-family="Helvetica,sans-Serif" font-size="10.00">+ GetShapeScale()</text>
<text text-anchor="start" x="609" y="-222.5" font-family="Helvetica,sans-Serif" font-size="10.00">+ GetScaledSphereRadius()</text>
<text text-anchor="start" x="609" y="-211.5" font-family="Helvetica,sans-Serif" font-size="10.00">+ StaticClass()</text>
</a>
</g>
</g>
<!-- Node12&#45;&gt;Node181 -->
<g id="edge14" class="edge"><title>Node12&#45;&gt;Node181</title>
<path fill="none" stroke="#404040" d="M716.741,-986.391C707.065,-950.481 691.004,-885.64 684.5,-829 663.261,-644.025 668.265,-423.282 672.493,-317.917"/>
<polygon fill="none" stroke="#404040" points="672.505,-317.639 668.757,-311.478 673.003,-305.649 676.751,-311.81 672.505,-317.639"/>
<text text-anchor="middle" x="724.5" y="-671" font-family="Helvetica,sans-Serif" font-size="10.00"> +UnknownData00</text>
</g>
<!-- Node182 -->
<g id="node8" class="node"><title>Node182</title>
<g id="a_node8"><a xlink:href="a05183.html" target="_top" xlink:title=" ">
<polygon fill="none" stroke="red" points="1030.5,-433 1030.5,-490 1188.5,-490 1188.5,-433 1030.5,-433"/>
<text text-anchor="middle" x="1109.5" y="-478" font-family="Helvetica,sans-Serif" font-size="10.00">SDK::UGenericWorldMapMarker</text>
<polyline fill="none" stroke="red" points="1030.5,-471 1188.5,-471 "/>
<text text-anchor="middle" x="1109.5" y="-459" font-family="Helvetica,sans-Serif" font-size="10.00"> </text>
<polyline fill="none" stroke="red" points="1030.5,-452 1188.5,-452 "/>
<text text-anchor="start" x="1038.5" y="-440" font-family="Helvetica,sans-Serif" font-size="10.00">+ StaticClass()</text>
</a>
</g>
</g>
<!-- Node12&#45;&gt;Node182 -->
<g id="edge17" class="edge"><title>Node12&#45;&gt;Node182</title>
<path fill="none" stroke="#404040" d="M742.123,-1012.52C788.544,-1008.29 912.663,-994.693 942.5,-968 1082.28,-842.95 1105.39,-598.53 1108.97,-502.553"/>
<polygon fill="none" stroke="#404040" points="1108.97,-502.279 1105.16,-496.158 1109.35,-490.285 1113.16,-496.405 1108.97,-502.279"/>
<text text-anchor="middle" x="1068.5" y="-905" font-family="Helvetica,sans-Serif" font-size="10.00"> +UnknownData00</text>
</g>
<!-- Node25 -->
<g id="node4" class="node"><title>Node25</title>
<g id="a_node4"><a xlink:title=" ">
<polygon fill="none" stroke="#bfbfbf" points="489,-645 489,-702 524,-702 524,-645 489,-645"/>
<text text-anchor="middle" x="506.5" y="-690" font-family="Helvetica,sans-Serif" font-size="10.00">float</text>
<polyline fill="none" stroke="#bfbfbf" points="489,-683 524,-683 "/>
<text text-anchor="middle" x="506.5" y="-671" font-family="Helvetica,sans-Serif" font-size="10.00"> </text>
<polyline fill="none" stroke="#bfbfbf" points="489,-664 524,-664 "/>
<text text-anchor="middle" x="506.5" y="-652" font-family="Helvetica,sans-Serif" font-size="10.00"> </text>
</a>
</g>
</g>
<!-- Node25&#45;&gt;Node1 -->
<g id="edge11" class="edge"><title>Node25&#45;&gt;Node1</title>
<path fill="none" stroke="#404040" d="M501.761,-644.854C496.438,-613.929 487.496,-562.35 479.5,-518 470.436,-467.728 463.186,-455.867 458.5,-405 446.268,-272.229 385.452,-216.543 458.5,-105 480.147,-71.9457 519.891,-53.3772 555.725,-42.988"/>
<polygon fill="none" stroke="#404040" points="556.107,-42.8853 560.863,-37.4644 567.696,-39.7692 562.94,-45.19 556.107,-42.8853"/>
<text text-anchor="middle" x="525" y="-252.5" font-family="Helvetica,sans-Serif" font-size="10.00"> +VendorShipDeadZoneRadius</text>
</g>
<!-- Node25&#45;&gt;Node2 -->
<g id="edge3" class="edge"><title>Node25&#45;&gt;Node2</title>
<path fill="none" stroke="#404040" d="M510.601,-644.806C514.05,-609.862 513.863,-550.421 479.5,-518 454.118,-494.052 354.82,-515.39 323.5,-500 280.623,-478.932 281.955,-457.103 248.5,-423 224.986,-399.031 199.519,-373.194 175.79,-349.174"/>
<polygon fill="none" stroke="#404040" points="175.568,-348.949 168.506,-347.493 167.134,-340.413 174.196,-341.87 175.568,-348.949"/>
<text text-anchor="middle" x="379.5" y="-492" font-family="Helvetica,sans-Serif" font-size="10.00"> +InitialLifeSpan</text>
<text text-anchor="middle" x="379.5" y="-481" font-family="Helvetica,sans-Serif" font-size="10.00">+LastNetUpdateTime</text>
<text text-anchor="middle" x="379.5" y="-470" font-family="Helvetica,sans-Serif" font-size="10.00">+NetCullDistanceSquared</text>
<text text-anchor="middle" x="379.5" y="-459" font-family="Helvetica,sans-Serif" font-size="10.00">+NetUpdateFrequency</text>
<text text-anchor="middle" x="379.5" y="-448" font-family="Helvetica,sans-Serif" font-size="10.00">+NetUpdateTime</text>
<text text-anchor="middle" x="379.5" y="-437" font-family="Helvetica,sans-Serif" font-size="10.00">+CustomTimeDilation</text>
<text text-anchor="middle" x="379.5" y="-426" font-family="Helvetica,sans-Serif" font-size="10.00">+NetPriority</text>
</g>
<!-- Node25&#45;&gt;Node181 -->
<g id="edge15" class="edge"><title>Node25&#45;&gt;Node181</title>
<path fill="none" stroke="#404040" d="M513.584,-644.97C525.958,-598.365 553.378,-501.349 586.5,-423 601.891,-386.592 622.474,-347.519 639.968,-316.328"/>
<polygon fill="none" stroke="#404040" points="640.105,-316.086 639.578,-308.894 646.014,-305.641 646.541,-312.833 640.105,-316.086"/>
<text text-anchor="middle" x="621.5" y="-459" font-family="Helvetica,sans-Serif" font-size="10.00"> +SphereRadius</text>
</g>
<!-- Node29&#45;&gt;Node1 -->
<g id="edge12" class="edge"><title>Node29&#45;&gt;Node1</title>
<path fill="none" stroke="#404040" d="M265.941,-518.405C239.918,-372.239 214.628,-166.128 264.5,-105 300.528,-60.8402 459.562,-41.9662 555.747,-34.472"/>
<polygon fill="none" stroke="#404040" points="555.763,-34.4709 561.446,-30.0325 567.729,-33.5717 562.045,-38.0101 555.763,-34.4709"/>
<text text-anchor="middle" x="342" y="-252.5" font-family="Helvetica,sans-Serif" font-size="10.00"> +ArenaVendorShipRootComponent</text>
</g>
<!-- Node29&#45;&gt;Node2 -->
<g id="edge4" class="edge"><title>Node29&#45;&gt;Node2</title>
<path fill="none" stroke="#404040" d="M209.438,-532.384C204.909,-527.376 200.258,-522.558 195.5,-518 184.271,-507.244 175.244,-512.117 165.5,-500 145.757,-475.45 130.67,-445.919 119.171,-416.011"/>
<polygon fill="none" stroke="#404040" points="119.092,-415.798 113.262,-411.554 114.937,-404.54 120.767,-408.784 119.092,-415.798"/>
<text text-anchor="middle" x="205" y="-459" font-family="Helvetica,sans-Serif" font-size="10.00"> +RootComponent</text>
</g>
<!-- Node29&#45;&gt;Node29 -->
<g id="edge6" class="edge"><title>Node29&#45;&gt;Node29</title>
<path fill="none" stroke="#404040" d="M385.634,-707.891C396.425,-701.733 403.5,-690.27 403.5,-673.5 403.5,-662.233 400.306,-653.361 394.938,-646.885"/>
<polygon fill="none" stroke="#404040" points="394.842,-646.804 387.673,-646.026 385.634,-639.109 392.803,-639.888 394.842,-646.804"/>
<text text-anchor="middle" x="437" y="-671" font-family="Helvetica,sans-Serif" font-size="10.00"> +AttachParent</text>
</g>
<!-- Node178&#45;&gt;Node1 -->
<g id="edge8" class="edge"><title>Node178&#45;&gt;Node1</title>
<path fill="none" stroke="#404040" d="M912.902,-427.424C907.237,-420.385 901.782,-412.732 897.5,-405 823.134,-270.73 902.769,-182.768 792.5,-76 769.229,-53.4676 735.757,-41.8226 705.273,-35.8616"/>
<polygon fill="none" stroke="#404040" points="705.144,-35.8391 698.546,-38.7481 693.323,-33.7761 699.921,-30.8672 705.144,-35.8391"/>
<text text-anchor="middle" x="983" y="-252.5" font-family="Helvetica,sans-Serif" font-size="10.00"> +ContestMerchantSpawnerComponent</text>
</g>
<!-- Node181&#45;&gt;Node1 -->
<g id="edge13" class="edge"><title>Node181&#45;&gt;Node1</title>
<path fill="none" stroke="#404040" d="M659.023,-204.214C648.984,-171.343 637.051,-127.094 631.5,-87 630.739,-81.5022 630.263,-75.6779 629.984,-69.9339"/>
<polygon fill="none" stroke="#404040" points="629.977,-69.6414 625.817,-63.751 629.654,-57.6458 633.814,-63.5362 629.977,-69.6414"/>
<text text-anchor="middle" x="698" y="-79" font-family="Helvetica,sans-Serif" font-size="10.00"> +VendorDeadZoneComponent</text>
</g>
<!-- Node182&#45;&gt;Node1 -->
<g id="edge16" class="edge"><title>Node182&#45;&gt;Node1</title>
<path fill="none" stroke="#404040" d="M1116.1,-432.874C1130.18,-366.461 1155.2,-196.588 1068.5,-105 1020,-53.7666 817.24,-37.4578 705.391,-32.3213"/>
<polygon fill="none" stroke="#404040" points="705.197,-32.3129 699.028,-36.0474 693.208,-31.7895 699.377,-28.055 705.197,-32.3129"/>
<text text-anchor="middle" x="1214" y="-252.5" font-family="Helvetica,sans-Serif" font-size="10.00"> +VendorShipWorldMarkerComponent</text>
</g>
</g>
</svg>
        <g id="navigator" transform="translate(0 0)" fill="#404254">
                <rect fill="#f2f5e9" fill-opacity="0.5" stroke="#606060" stroke-width=".5" x="0" y="0" width="60" height="60"/>
                <use id="zoomplus" xlink:href="#zoomPlus" x="17" y="9" onmousedown="handleZoom(evt,'in')"/>
                <use id="zoomminus" xlink:href="#zoomMin" x="42" y="9" onmousedown="handleZoom(evt,'out')"/>
                <use id="reset" xlink:href="#resetDef" x="30" y="36" onmousedown="handleReset()"/>
                <g id="arrowUp" xlink:href="#dirArrow" transform="translate(30 24)" onmousedown="handlePan(0,-1)">
                  <use xlink:href="#rim" fill="#404040">
                        <set attributeName="fill" to="#808080" begin="arrowUp.mouseover" end="arrowUp.mouseout"/>
                  </use>
                  <path fill="none" stroke="white" stroke-width="1.5" d="M0,-3.0v7 M-2.5,-0.5L0,-3.0L2.5,-0.5"/>
                </g>
                <g id="arrowRight" xlink:href="#dirArrow" transform="rotate(90) translate(36 -43)" onmousedown="handlePan(1,0)">
                  <use xlink:href="#rim" fill="#404040">
                        <set attributeName="fill" to="#808080" begin="arrowRight.mouseover" end="arrowRight.mouseout"/>
                  </use>
                  <path fill="none" stroke="white" stroke-width="1.5" d="M0,-3.0v7 M-2.5,-0.5L0,-3.0L2.5,-0.5"/>
                </g>
                <g id="arrowDown" xlink:href="#dirArrow" transform="rotate(180) translate(-30 -48)" onmousedown="handlePan(0,1)">
                  <use xlink:href="#rim" fill="#404040">
                        <set attributeName="fill" to="#808080" begin="arrowDown.mouseover" end="arrowDown.mouseout"/>
                  </use>
                  <path fill="none" stroke="white" stroke-width="1.5" d="M0,-3.0v7 M-2.5,-0.5L0,-3.0L2.5,-0.5"/>
                </g>
                <g id="arrowLeft" xlink:href="#dirArrow" transform="rotate(270) translate(-36 17)" onmousedown="handlePan(-1,0)">
                  <use xlink:href="#rim" fill="#404040">
                        <set attributeName="fill" to="#808080" begin="arrowLeft.mouseover" end="arrowLeft.mouseout"/>
                  </use>
                  <path fill="none" stroke="white" stroke-width="1.5" d="M0,-3.0v7 M-2.5,-0.5L0,-3.0L2.5,-0.5"/>
                </g>
        </g>
        <svg viewBox="0 0 15 15" width="100%" height="30px" preserveAspectRatio="xMaxYMin meet">
         <g id="arrow_out" transform="scale(0.3 0.3)">
          <a xlink:href="a02573_org.svg" target="_base">
           <rect id="button" ry="5" rx="5" y="6" x="6" height="38" width="38"
                fill="#f2f5e9" fill-opacity="0.5" stroke="#606060" stroke-width="1.0"/>
           <path id="arrow"
             d="M 11.500037,31.436501 C 11.940474,20.09759 22.043105,11.32322 32.158766,21.979434 L 37.068811,17.246167 C 37.068811,17.246167 37.088388,32 37.088388,32 L 22.160133,31.978069 C 22.160133,31.978069 26.997745,27.140456 26.997745,27.140456 C 18.528582,18.264221 13.291696,25.230495 11.500037,31.436501 z"
             style="fill:#404040;"/>
          </a>
         </g>
        </svg>
</svg>
