<?xml version="1.0" encoding="UTF-8" standalone="no"?>
<!DOCTYPE svg PUBLIC "-//W3C//DTD SVG 1.1//EN"
 "http://www.w3.org/Graphics/SVG/1.1/DTD/svg11.dtd">
<!-- Generated by graphviz version 2.38.0 (20140413.2041)
 -->
<!-- Title: SDK::ATestObscuredVisionActor Pages: 1 -->
<svg width="276pt" height="288pt"
 viewBox="0.00 0.00 275.50 288.00" xmlns="http://www.w3.org/2000/svg" xmlns:xlink="http://www.w3.org/1999/xlink">
<g id="graph0" class="graph" transform="scale(1 1) rotate(0) translate(4 284)">
<title>SDK::ATestObscuredVisionActor</title>
<!-- Node1 -->
<g id="node1" class="node"><title>Node1</title>
<g id="a_node1"><a xlink:title=" ">
<polygon fill="#bfbfbf" stroke="black" points="0,-0.5 0,-68.5 137,-68.5 137,-0.5 0,-0.5"/>
<text text-anchor="start" x="8" y="-56.5" font-family="Helvetica,sans-Serif" font-size="10.00">SDK::ATestObscuredVision</text>
<text text-anchor="middle" x="68.5" y="-45.5" font-family="Helvetica,sans-Serif" font-size="10.00">Actor</text>
<polyline fill="none" stroke="black" points="0,-38.5 137,-38.5 "/>
<text text-anchor="middle" x="68.5" y="-26.5" font-family="Helvetica,sans-Serif" font-size="10.00"> </text>
<polyline fill="none" stroke="black" points="0,-19.5 137,-19.5 "/>
<text text-anchor="start" x="8" y="-7.5" font-family="Helvetica,sans-Serif" font-size="10.00">+ StaticClass()</text>
</a>
</g>
</g>
<!-- Node2 -->
<g id="node2" class="node"><title>Node2</title>
<g id="a_node2"><a xlink:href="a02663.html" target="_top" xlink:title=" ">
<polygon fill="none" stroke="red" points="117.5,-106.5 117.5,-174.5 267.5,-174.5 267.5,-106.5 117.5,-106.5"/>
<text text-anchor="start" x="125.5" y="-162.5" font-family="Helvetica,sans-Serif" font-size="10.00">SDK::AAthenaPlayerCharacter</text>
<text text-anchor="middle" x="192.5" y="-151.5" font-family="Helvetica,sans-Serif" font-size="10.00">UnitTestMock</text>
<polyline fill="none" stroke="red" points="117.5,-144.5 267.5,-144.5 "/>
<text text-anchor="middle" x="192.5" y="-132.5" font-family="Helvetica,sans-Serif" font-size="10.00"> </text>
<polyline fill="none" stroke="red" points="117.5,-125.5 267.5,-125.5 "/>
<text text-anchor="start" x="125.5" y="-113.5" font-family="Helvetica,sans-Serif" font-size="10.00">+ StaticClass()</text>
</a>
</g>
</g>
<!-- Node2&#45;&gt;Node1 -->
<g id="edge1" class="edge"><title>Node2&#45;&gt;Node1</title>
<path fill="none" stroke="midnightblue" d="M145.05,-99.7028C132.859,-89.4784 119.873,-78.5869 108.125,-68.7336"/>
<polygon fill="none" stroke="midnightblue" points="143.014,-102.563 152.925,-106.308 147.512,-97.2 143.014,-102.563"/>
</g>
<!-- Node18 -->
<g id="node3" class="node"><title>Node18</title>
<g id="a_node3"><a xlink:title=" ">
<polygon fill="none" stroke="#bfbfbf" points="53,-222.5 53,-279.5 88,-279.5 88,-222.5 53,-222.5"/>
<text text-anchor="middle" x="70.5" y="-267.5" font-family="Helvetica,sans-Serif" font-size="10.00">char</text>
<polyline fill="none" stroke="#bfbfbf" points="53,-260.5 88,-260.5 "/>
<text text-anchor="middle" x="70.5" y="-248.5" font-family="Helvetica,sans-Serif" font-size="10.00"> </text>
<polyline fill="none" stroke="#bfbfbf" points="53,-241.5 88,-241.5 "/>
<text text-anchor="middle" x="70.5" y="-229.5" font-family="Helvetica,sans-Serif" font-size="10.00"> </text>
</a>
</g>
</g>
<!-- Node18&#45;&gt;Node1 -->
<g id="edge3" class="edge"><title>Node18&#45;&gt;Node1</title>
<path fill="none" stroke="#404040" d="M52.8991,-226.03C43.6592,-211.94 33.2852,-193.339 28.5,-175 20.7572,-145.327 20.6742,-135.651 28.5,-106 30.8721,-97.0123 34.6832,-87.969 39.0327,-79.4972"/>
<polygon fill="none" stroke="#404040" points="39.1742,-79.2413 38.5799,-72.0547 44.985,-68.742 45.5794,-75.9286 39.1742,-79.2413"/>
<text text-anchor="middle" x="68.5" y="-138" font-family="Helvetica,sans-Serif" font-size="10.00"> +UnknownData00</text>
</g>
<!-- Node18&#45;&gt;Node2 -->
<g id="edge2" class="edge"><title>Node18&#45;&gt;Node2</title>
<path fill="none" stroke="#404040" d="M88.2398,-234.223C103.427,-220.717 125.985,-200.655 146.237,-182.644"/>
<polygon fill="none" stroke="#404040" points="146.378,-182.518 148.204,-175.542 155.345,-174.543 153.52,-181.52 146.378,-182.518"/>
<text text-anchor="middle" x="171.5" y="-196" font-family="Helvetica,sans-Serif" font-size="10.00"> +UnknownData00</text>
</g>
</g>
</svg>
