<?xml version="1.0" encoding="UTF-8" standalone="no"?>
<!DOCTYPE svg PUBLIC "-//W3C//DTD SVG 1.1//EN"
 "http://www.w3.org/Graphics/SVG/1.1/DTD/svg11.dtd">
<!-- Generated by graphviz version 2.38.0 (20140413.2041)
 -->
<!-- Title: SDK::UAthenaPlayerCharacterMovementComponent Pages: 1 -->
<!--zoomable 775 -->
<svg id="main" version="1.1" xmlns="http://www.w3.org/2000/svg" xmlns:xlink="http://www.w3.org/1999/xlink" xml:space="preserve" onload="init(evt)">
<style type="text/css"><![CDATA[
.edge:hover path { stroke: red; }
.edge:hover polygon { stroke: red; fill: red; }
]]></style>
<script type="text/javascript"><![CDATA[
var edges = document.getElementsByTagName('g');
if (edges && edges.length) {
  for (var i=0;i<edges.length;i++) {
    if (edges[i].id.substr(0,4)=='edge') {
      edges[i].setAttribute('class','edge');
    }
  }
}
]]></script>
        <defs>
                <circle id="rim" cx="0" cy="0" r="7"/>
                <circle id="rim2" cx="0" cy="0" r="3.5"/>
                <g id="zoomPlus">
                        <use xlink:href="#rim" fill="#404040">
                                <set attributeName="fill" to="#808080" begin="zoomplus.mouseover" end="zoomplus.mouseout"/>
                        </use>
                        <path d="M-4,0h8M0,-4v8" fill="none" stroke="white" stroke-width="1.5" pointer-events="none"/>
                </g>
                <g id="zoomMin">
                        <use xlink:href="#rim" fill="#404040">
                                <set attributeName="fill" to="#808080" begin="zoomminus.mouseover" end="zoomminus.mouseout"/>
                        </use>
                        <path d="M-4,0h8" fill="none" stroke="white" stroke-width="1.5" pointer-events="none"/>
                </g>
                <g id="dirArrow">
                        <path fill="none" stroke="white" stroke-width="1.5" d="M0,-3.0v7 M-2.5,-0.5L0,-3.0L2.5,-0.5"/>
                </g>
               <g id="resetDef">
                       <use xlink:href="#rim2" fill="#404040">
                               <set attributeName="fill" to="#808080" begin="reset.mouseover" end="reset.mouseout"/>
                       </use>
               </g>
        </defs>

<script type="text/javascript">
var viewWidth = 696;
var viewHeight = 775;
var sectionId = 'dynsection-1';
</script>
<script xlink:href="svgpan.js"/>
<svg id="graph" class="graph">
<g id="viewport">
<title>SDK::UAthenaPlayerCharacterMovementComponent</title>
<!-- Node1 -->
<g id="node1" class="node"><title>Node1</title>
<g id="a_node1"><a xlink:title=" ">
<polygon fill="#bfbfbf" stroke="black" points="140.412,-0.5 140.412,-101.5 293.412,-101.5 293.412,-0.5 140.412,-0.5"/>
<text text-anchor="start" x="148.412" y="-89.5" font-family="Helvetica,sans-Serif" font-size="10.00">SDK::UAthenaPlayerCharacter</text>
<text text-anchor="middle" x="216.912" y="-78.5" font-family="Helvetica,sans-Serif" font-size="10.00">MovementComponent</text>
<polyline fill="none" stroke="black" points="140.412,-71.5 293.412,-71.5 "/>
<text text-anchor="middle" x="216.912" y="-59.5" font-family="Helvetica,sans-Serif" font-size="10.00"> </text>
<polyline fill="none" stroke="black" points="140.412,-52.5 293.412,-52.5 "/>
<text text-anchor="start" x="148.412" y="-40.5" font-family="Helvetica,sans-Serif" font-size="10.00">+ RestoreAudioStateAfterFall</text>
<text text-anchor="start" x="148.412" y="-29.5" font-family="Helvetica,sans-Serif" font-size="10.00">Damage()</text>
<text text-anchor="start" x="148.412" y="-18.5" font-family="Helvetica,sans-Serif" font-size="10.00">+ CheckForExcessiveVelocity()</text>
<text text-anchor="start" x="148.412" y="-7.5" font-family="Helvetica,sans-Serif" font-size="10.00">+ StaticClass()</text>
</a>
</g>
</g>
<!-- Node2 -->
<g id="node2" class="node"><title>Node2</title>
<g id="a_node2"><a xlink:href="a02731.html" target="_top" xlink:title=" ">
<polygon fill="none" stroke="red" points="250.912,-139.5 250.912,-394.5 418.912,-394.5 418.912,-139.5 250.912,-139.5"/>
<text text-anchor="start" x="258.912" y="-382.5" font-family="Helvetica,sans-Serif" font-size="10.00">SDK::UAthenaCharacterMovement</text>
<text text-anchor="middle" x="334.912" y="-371.5" font-family="Helvetica,sans-Serif" font-size="10.00">Component</text>
<polyline fill="none" stroke="red" points="250.912,-364.5 418.912,-364.5 "/>
<text text-anchor="start" x="258.912" y="-352.5" font-family="Helvetica,sans-Serif" font-size="10.00">+ SprintSpdAmp</text>
<text text-anchor="start" x="258.912" y="-341.5" font-family="Helvetica,sans-Serif" font-size="10.00">+ MaxSpeedRatioWhenWalking</text>
<text text-anchor="start" x="258.912" y="-330.5" font-family="Helvetica,sans-Serif" font-size="10.00">InNonSwimWater</text>
<text text-anchor="start" x="258.912" y="-319.5" font-family="Helvetica,sans-Serif" font-size="10.00">+ CharacterCollisionSwimming</text>
<text text-anchor="start" x="258.912" y="-308.5" font-family="Helvetica,sans-Serif" font-size="10.00">Friction</text>
<text text-anchor="start" x="258.912" y="-297.5" font-family="Helvetica,sans-Serif" font-size="10.00">+ FanPushOutAngle</text>
<polyline fill="none" stroke="red" points="250.912,-290.5 418.912,-290.5 "/>
<text text-anchor="start" x="258.912" y="-278.5" font-family="Helvetica,sans-Serif" font-size="10.00">+ SetMovementMode()</text>
<text text-anchor="start" x="258.912" y="-267.5" font-family="Helvetica,sans-Serif" font-size="10.00">+ SetErrorOnResolvePenetration()</text>
<text text-anchor="start" x="258.912" y="-256.5" font-family="Helvetica,sans-Serif" font-size="10.00">+ HasValidAckedMoveClientOnly()</text>
<text text-anchor="start" x="258.912" y="-245.5" font-family="Helvetica,sans-Serif" font-size="10.00">+ GetTimestampOfMostRecent</text>
<text text-anchor="start" x="258.912" y="-234.5" font-family="Helvetica,sans-Serif" font-size="10.00">PredictedMoveClientOnly()</text>
<text text-anchor="start" x="258.912" y="-223.5" font-family="Helvetica,sans-Serif" font-size="10.00">+ GetTimestampOfLastAckedMove</text>
<text text-anchor="start" x="258.912" y="-212.5" font-family="Helvetica,sans-Serif" font-size="10.00">ClientOnly()</text>
<text text-anchor="start" x="258.912" y="-201.5" font-family="Helvetica,sans-Serif" font-size="10.00">+ GetTerminalVelocity()</text>
<text text-anchor="start" x="258.912" y="-190.5" font-family="Helvetica,sans-Serif" font-size="10.00">+ GetMovementMode()</text>
<text text-anchor="start" x="258.912" y="-179.5" font-family="Helvetica,sans-Serif" font-size="10.00">+ GetMaxSprintSpeed()</text>
<text text-anchor="start" x="258.912" y="-168.5" font-family="Helvetica,sans-Serif" font-size="10.00">+ GetMaxMoveSpeedScalar()</text>
<text text-anchor="start" x="258.912" y="-157.5" font-family="Helvetica,sans-Serif" font-size="10.00">+ FindCurrentFloor()</text>
<text text-anchor="start" x="258.912" y="-146.5" font-family="Helvetica,sans-Serif" font-size="10.00">+ StaticClass()</text>
</a>
</g>
</g>
<!-- Node2&#45;&gt;Node1 -->
<g id="edge1" class="edge"><title>Node2&#45;&gt;Node1</title>
<path fill="none" stroke="midnightblue" d="M260.179,-130.468C254.658,-120.455 249.335,-110.801 244.423,-101.894"/>
<polygon fill="none" stroke="midnightblue" points="257.184,-132.284 265.077,-139.351 263.313,-128.904 257.184,-132.284"/>
</g>
<!-- Node179 -->
<g id="node3" class="node"><title>Node179</title>
<g id="a_node3"><a xlink:href="a27039.html" target="_top" xlink:title=" ">
<polygon fill="none" stroke="red" points="76.4119,-578.5 76.4119,-646.5 171.412,-646.5 171.412,-578.5 76.4119,-578.5"/>
<text text-anchor="middle" x="123.912" y="-634.5" font-family="Helvetica,sans-Serif" font-size="10.00">SDK::UCurveFloat</text>
<polyline fill="none" stroke="red" points="76.4119,-627.5 171.412,-627.5 "/>
<text text-anchor="middle" x="123.912" y="-615.5" font-family="Helvetica,sans-Serif" font-size="10.00"> </text>
<polyline fill="none" stroke="red" points="76.4119,-608.5 171.412,-608.5 "/>
<text text-anchor="start" x="84.4119" y="-596.5" font-family="Helvetica,sans-Serif" font-size="10.00">+ GetFloatValue()</text>
<text text-anchor="start" x="84.4119" y="-585.5" font-family="Helvetica,sans-Serif" font-size="10.00">+ StaticClass()</text>
</a>
</g>
</g>
<!-- Node179&#45;&gt;Node1 -->
<g id="edge6" class="edge"><title>Node179&#45;&gt;Node1</title>
<path fill="none" stroke="#404040" d="M118.168,-578.443C116.526,-567.798 114.912,-555.929 113.912,-545 97.4609,-365.293 31.0143,-301.779 108.912,-139 114.482,-127.36 122.453,-116.781 131.576,-107.329"/>
<polygon fill="none" stroke="#404040" points="131.607,-107.299 133.147,-100.254 140.242,-98.9666 138.702,-106.011 131.607,-107.299"/>
<text text-anchor="start" x="108.912" y="-270" font-family="Helvetica,sans-Serif" font-size="10.00"> +LandingSpeedToFallDamage</text>
<text text-anchor="middle" x="175.412" y="-259" font-family="Helvetica,sans-Serif" font-size="10.00">Curve</text>
</g>
<!-- Node179&#45;&gt;Node2 -->
<g id="edge2" class="edge"><title>Node179&#45;&gt;Node2</title>
<path fill="none" stroke="#404040" d="M119.367,-578.177C115.397,-534.309 115.719,-457.553 157.912,-413 182.674,-386.853 206.571,-414.396 236.912,-395 238.265,-394.135 239.606,-393.245 240.937,-392.331"/>
<polygon fill="none" stroke="#404040" points="241.295,-392.063 243.708,-385.267 250.909,-384.88 248.496,-391.676 241.295,-392.063"/>
<text text-anchor="start" x="157.912" y="-493" font-family="Helvetica,sans-Serif" font-size="10.00"> +VelocityToOffsetProjectile</text>
<text text-anchor="middle" x="218.412" y="-482" font-family="Helvetica,sans-Serif" font-size="10.00">HitVolume</text>
<text text-anchor="start" x="157.912" y="-471" font-family="Helvetica,sans-Serif" font-size="10.00">+VelocityToAngleProjectile</text>
<text text-anchor="middle" x="218.412" y="-460" font-family="Helvetica,sans-Serif" font-size="10.00">HitVolume</text>
</g>
<!-- Node17 -->
<g id="node4" class="node"><title>Node17</title>
<g id="a_node4"><a xlink:title=" ">
<polygon fill="none" stroke="#bfbfbf" points="106.412,-709.5 106.412,-766.5 141.412,-766.5 141.412,-709.5 106.412,-709.5"/>
<text text-anchor="middle" x="123.912" y="-754.5" font-family="Helvetica,sans-Serif" font-size="10.00">char</text>
<polyline fill="none" stroke="#bfbfbf" points="106.412,-747.5 141.412,-747.5 "/>
<text text-anchor="middle" x="123.912" y="-735.5" font-family="Helvetica,sans-Serif" font-size="10.00"> </text>
<polyline fill="none" stroke="#bfbfbf" points="106.412,-728.5 141.412,-728.5 "/>
<text text-anchor="middle" x="123.912" y="-716.5" font-family="Helvetica,sans-Serif" font-size="10.00"> </text>
</a>
</g>
</g>
<!-- Node17&#45;&gt;Node1 -->
<g id="edge8" class="edge"><title>Node17&#45;&gt;Node1</title>
<path fill="none" stroke="#404040" d="M106.368,-716.085C94.5002,-701.439 78.871,-681.14 66.9119,-662 36.0527,-612.611 21.3888,-601.657 7.91189,-545 -5.66436,-487.926 1.60059,-471.326 7.91189,-413 21.3231,-289.06 -5.42602,-239.809 67.9119,-139 83.652,-117.364 106.547,-100.235 129.688,-87.1014"/>
<polygon fill="none" stroke="#404040" points="129.762,-87.0618 133.132,-80.6869 140.313,-81.3465 136.942,-87.7213 129.762,-87.0618"/>
<text text-anchor="middle" x="47.9119" y="-482" font-family="Helvetica,sans-Serif" font-size="10.00"> +UnknownData01</text>
<text text-anchor="middle" x="47.9119" y="-471" font-family="Helvetica,sans-Serif" font-size="10.00">+UnknownData00</text>
</g>
<!-- Node17&#45;&gt;Node2 -->
<g id="edge4" class="edge"><title>Node17&#45;&gt;Node2</title>
<path fill="none" stroke="#404040" d="M141.713,-730.967C160.275,-723.905 189.217,-710.622 207.912,-691 257.684,-638.76 255.8,-613.353 278.912,-545 287.77,-518.802 299.686,-461.963 310.249,-406.549"/>
<polygon fill="none" stroke="#404040" points="310.249,-406.548 307.434,-399.908 312.481,-394.757 315.295,-401.396 310.249,-406.548"/>
<text text-anchor="middle" x="335.412" y="-654" font-family="Helvetica,sans-Serif" font-size="10.00"> +UnknownData01</text>
<text text-anchor="middle" x="335.412" y="-643" font-family="Helvetica,sans-Serif" font-size="10.00">+UnknownData02</text>
<text text-anchor="middle" x="335.412" y="-632" font-family="Helvetica,sans-Serif" font-size="10.00">+UnknownData03</text>
<text text-anchor="middle" x="335.412" y="-621" font-family="Helvetica,sans-Serif" font-size="10.00">+UnknownData04</text>
<text text-anchor="middle" x="335.412" y="-610" font-family="Helvetica,sans-Serif" font-size="10.00">+UnknownData05</text>
<text text-anchor="middle" x="335.412" y="-599" font-family="Helvetica,sans-Serif" font-size="10.00">+UnknownData06</text>
<text text-anchor="start" x="272.912" y="-588" font-family="Helvetica,sans-Serif" font-size="10.00">+bCharacterCollisionSweeps</text>
<text text-anchor="middle" x="335.412" y="-577" font-family="Helvetica,sans-Serif" font-size="10.00">Enabled</text>
<text text-anchor="middle" x="335.412" y="-566" font-family="Helvetica,sans-Serif" font-size="10.00">+UnknownData00</text>
</g>
<!-- Node17&#45;&gt;Node179 -->
<g id="edge3" class="edge"><title>Node17&#45;&gt;Node179</title>
<path fill="none" stroke="#404040" d="M123.912,-709.284C123.912,-694.55 123.912,-676.055 123.912,-659.257"/>
<polygon fill="none" stroke="#404040" points="123.912,-658.832 119.912,-652.832 123.912,-646.832 127.912,-652.832 123.912,-658.832"/>
<text text-anchor="middle" x="163.912" y="-683" font-family="Helvetica,sans-Serif" font-size="10.00"> +UnknownData00</text>
</g>
<!-- Node23 -->
<g id="node5" class="node"><title>Node23</title>
<g id="a_node5"><a xlink:title=" ">
<polygon fill="none" stroke="#bfbfbf" points="463.412,-584 463.412,-641 498.412,-641 498.412,-584 463.412,-584"/>
<text text-anchor="middle" x="480.912" y="-629" font-family="Helvetica,sans-Serif" font-size="10.00">float</text>
<polyline fill="none" stroke="#bfbfbf" points="463.412,-622 498.412,-622 "/>
<text text-anchor="middle" x="480.912" y="-610" font-family="Helvetica,sans-Serif" font-size="10.00"> </text>
<polyline fill="none" stroke="#bfbfbf" points="463.412,-603 498.412,-603 "/>
<text text-anchor="middle" x="480.912" y="-591" font-family="Helvetica,sans-Serif" font-size="10.00"> </text>
</a>
</g>
</g>
<!-- Node23&#45;&gt;Node1 -->
<g id="edge7" class="edge"><title>Node23&#45;&gt;Node1</title>
<path fill="none" stroke="#404040" d="M487.313,-583.97C504.09,-504.274 540.647,-270.68 427.912,-139 396.753,-102.605 347.957,-81.1821 305.136,-68.7067"/>
<polygon fill="none" stroke="#404040" points="305.092,-68.6948 298.243,-70.9509 293.526,-65.4963 300.375,-63.2403 305.092,-68.6948"/>
<text text-anchor="middle" x="597.412" y="-297.5" font-family="Helvetica,sans-Serif" font-size="10.00"> +MinFallDamageToBreakLeg</text>
<text text-anchor="start" x="506.912" y="-286.5" font-family="Helvetica,sans-Serif" font-size="10.00">+MinTimeBetweenDamagingImpacts</text>
<text text-anchor="middle" x="597.412" y="-275.5" font-family="Helvetica,sans-Serif" font-size="10.00">OnUnwalkableSurface</text>
<text text-anchor="middle" x="597.412" y="-264.5" font-family="Helvetica,sans-Serif" font-size="10.00">+FiredFromActorFallDamageScalar</text>
<text text-anchor="middle" x="597.412" y="-253.5" font-family="Helvetica,sans-Serif" font-size="10.00">+SwimmingStateFilterTime</text>
<text text-anchor="middle" x="597.412" y="-242.5" font-family="Helvetica,sans-Serif" font-size="10.00">+MinFallSpeedToPossiblyCauseDamage</text>
<text text-anchor="middle" x="597.412" y="-231.5" font-family="Helvetica,sans-Serif" font-size="10.00">+TimeUntilRecoverFallDamageAudioState</text>
</g>
<!-- Node23&#45;&gt;Node2 -->
<g id="edge5" class="edge"><title>Node23&#45;&gt;Node2</title>
<path fill="none" stroke="#404040" d="M463.175,-592.932C452.236,-582.569 437.376,-570.311 421.912,-563 384.64,-545.378 357.084,-576.856 330.912,-545 313.24,-523.49 312.368,-464.789 316.717,-406.932"/>
<polygon fill="none" stroke="#404040" points="316.746,-406.573 313.246,-400.269 317.72,-394.613 321.22,-400.918 316.746,-406.573"/>
<text text-anchor="middle" x="412.412" y="-537" font-family="Helvetica,sans-Serif" font-size="10.00"> +CharacterCollisionRadius</text>
<text text-anchor="middle" x="412.412" y="-526" font-family="Helvetica,sans-Serif" font-size="10.00">+MaxFanPushOutScalar</text>
<text text-anchor="start" x="330.912" y="-515" font-family="Helvetica,sans-Serif" font-size="10.00">+MaxAccelerationRatioWhenWalking</text>
<text text-anchor="middle" x="412.412" y="-504" font-family="Helvetica,sans-Serif" font-size="10.00">InNonSwimWater</text>
<text text-anchor="middle" x="412.412" y="-493" font-family="Helvetica,sans-Serif" font-size="10.00">+DisturbanceSize</text>
<text text-anchor="middle" x="412.412" y="-482" font-family="Helvetica,sans-Serif" font-size="10.00">+DisturbanceVelocityScale</text>
<text text-anchor="middle" x="412.412" y="-471" font-family="Helvetica,sans-Serif" font-size="10.00">+CharacterCollisionUnderwaterOffset</text>
<text text-anchor="middle" x="412.412" y="-460" font-family="Helvetica,sans-Serif" font-size="10.00">+LookAtPitchRate</text>
<text text-anchor="middle" x="412.412" y="-449" font-family="Helvetica,sans-Serif" font-size="10.00">+CharacterCollisionWalkingFriction</text>
<text text-anchor="middle" x="412.412" y="-438" font-family="Helvetica,sans-Serif" font-size="10.00">+LookAtYawRate</text>
<text text-anchor="middle" x="412.412" y="-427" font-family="Helvetica,sans-Serif" font-size="10.00">+SprintAccelAmp</text>
<text text-anchor="middle" x="412.412" y="-416" font-family="Helvetica,sans-Serif" font-size="10.00">...</text>
</g>
</g>
</svg>
        <g id="navigator" transform="translate(0 0)" fill="#404254">
                <rect fill="#f2f5e9" fill-opacity="0.5" stroke="#606060" stroke-width=".5" x="0" y="0" width="60" height="60"/>
                <use id="zoomplus" xlink:href="#zoomPlus" x="17" y="9" onmousedown="handleZoom(evt,'in')"/>
                <use id="zoomminus" xlink:href="#zoomMin" x="42" y="9" onmousedown="handleZoom(evt,'out')"/>
                <use id="reset" xlink:href="#resetDef" x="30" y="36" onmousedown="handleReset()"/>
                <g id="arrowUp" xlink:href="#dirArrow" transform="translate(30 24)" onmousedown="handlePan(0,-1)">
                  <use xlink:href="#rim" fill="#404040">
                        <set attributeName="fill" to="#808080" begin="arrowUp.mouseover" end="arrowUp.mouseout"/>
                  </use>
                  <path fill="none" stroke="white" stroke-width="1.5" d="M0,-3.0v7 M-2.5,-0.5L0,-3.0L2.5,-0.5"/>
                </g>
                <g id="arrowRight" xlink:href="#dirArrow" transform="rotate(90) translate(36 -43)" onmousedown="handlePan(1,0)">
                  <use xlink:href="#rim" fill="#404040">
                        <set attributeName="fill" to="#808080" begin="arrowRight.mouseover" end="arrowRight.mouseout"/>
                  </use>
                  <path fill="none" stroke="white" stroke-width="1.5" d="M0,-3.0v7 M-2.5,-0.5L0,-3.0L2.5,-0.5"/>
                </g>
                <g id="arrowDown" xlink:href="#dirArrow" transform="rotate(180) translate(-30 -48)" onmousedown="handlePan(0,1)">
                  <use xlink:href="#rim" fill="#404040">
                        <set attributeName="fill" to="#808080" begin="arrowDown.mouseover" end="arrowDown.mouseout"/>
                  </use>
                  <path fill="none" stroke="white" stroke-width="1.5" d="M0,-3.0v7 M-2.5,-0.5L0,-3.0L2.5,-0.5"/>
                </g>
                <g id="arrowLeft" xlink:href="#dirArrow" transform="rotate(270) translate(-36 17)" onmousedown="handlePan(-1,0)">
                  <use xlink:href="#rim" fill="#404040">
                        <set attributeName="fill" to="#808080" begin="arrowLeft.mouseover" end="arrowLeft.mouseout"/>
                  </use>
                  <path fill="none" stroke="white" stroke-width="1.5" d="M0,-3.0v7 M-2.5,-0.5L0,-3.0L2.5,-0.5"/>
                </g>
        </g>
        <svg viewBox="0 0 15 15" width="100%" height="30px" preserveAspectRatio="xMaxYMin meet">
         <g id="arrow_out" transform="scale(0.3 0.3)">
          <a xlink:href="a02733_org.svg" target="_base">
           <rect id="button" ry="5" rx="5" y="6" x="6" height="38" width="38"
                fill="#f2f5e9" fill-opacity="0.5" stroke="#606060" stroke-width="1.0"/>
           <path id="arrow"
             d="M 11.500037,31.436501 C 11.940474,20.09759 22.043105,11.32322 32.158766,21.979434 L 37.068811,17.246167 C 37.068811,17.246167 37.088388,32 37.088388,32 L 22.160133,31.978069 C 22.160133,31.978069 26.997745,27.140456 26.997745,27.140456 C 18.528582,18.264221 13.291696,25.230495 11.500037,31.436501 z"
             style="fill:#404040;"/>
          </a>
         </g>
        </svg>
</svg>
