<?xml version="1.0" encoding="UTF-8" standalone="no"?>
<!DOCTYPE svg PUBLIC "-//W3C//DTD SVG 1.1//EN"
 "http://www.w3.org/Graphics/SVG/1.1/DTD/svg11.dtd">
<!-- Generated by graphviz version 2.38.0 (20140413.2041)
 -->
<!-- Title: SDK::AVoyageAutomationPuppet Pages: 1 -->
<svg width="171pt" height="182pt"
 viewBox="0.00 0.00 171.00 182.00" xmlns="http://www.w3.org/2000/svg" xmlns:xlink="http://www.w3.org/1999/xlink">
<g id="graph0" class="graph" transform="scale(1 1) rotate(0) translate(4 178)">
<title>SDK::AVoyageAutomationPuppet</title>
<!-- Node1 -->
<g id="node1" class="node"><title>Node1</title>
<g id="a_node1"><a xlink:title=" ">
<polygon fill="#bfbfbf" stroke="black" points="0,-0.5 0,-68.5 163,-68.5 163,-0.5 0,-0.5"/>
<text text-anchor="middle" x="81.5" y="-56.5" font-family="Helvetica,sans-Serif" font-size="10.00">SDK::AVoyageAutomationPuppet</text>
<polyline fill="none" stroke="black" points="0,-49.5 163,-49.5 "/>
<text text-anchor="start" x="8" y="-37.5" font-family="Helvetica,sans-Serif" font-size="10.00">+ UnknownData00</text>
<polyline fill="none" stroke="black" points="0,-30.5 163,-30.5 "/>
<text text-anchor="start" x="8" y="-18.5" font-family="Helvetica,sans-Serif" font-size="10.00">+ GetMockCrewId()</text>
<text text-anchor="start" x="8" y="-7.5" font-family="Helvetica,sans-Serif" font-size="10.00">+ StaticClass()</text>
</a>
</g>
</g>
<!-- Node2 -->
<g id="node2" class="node"><title>Node2</title>
<g id="a_node2"><a xlink:href="a02703.html" target="_top" xlink:title=" ">
<polygon fill="none" stroke="red" points="6.5,-105.5 6.5,-173.5 156.5,-173.5 156.5,-105.5 6.5,-105.5"/>
<text text-anchor="start" x="14.5" y="-161.5" font-family="Helvetica,sans-Serif" font-size="10.00">SDK::AAthenaPlayerCharacter</text>
<text text-anchor="middle" x="81.5" y="-150.5" font-family="Helvetica,sans-Serif" font-size="10.00">UnitTestMock</text>
<polyline fill="none" stroke="red" points="6.5,-143.5 156.5,-143.5 "/>
<text text-anchor="start" x="14.5" y="-131.5" font-family="Helvetica,sans-Serif" font-size="10.00">+ UnknownData00</text>
<polyline fill="none" stroke="red" points="6.5,-124.5 156.5,-124.5 "/>
<text text-anchor="start" x="14.5" y="-112.5" font-family="Helvetica,sans-Serif" font-size="10.00">+ StaticClass()</text>
</a>
</g>
</g>
<!-- Node2&#45;&gt;Node1 -->
<g id="edge1" class="edge"><title>Node2&#45;&gt;Node1</title>
<path fill="none" stroke="midnightblue" d="M81.5,-95.1362C81.5,-86.256 81.5,-77.0447 81.5,-68.5947"/>
<polygon fill="none" stroke="midnightblue" points="78.0001,-95.3432 81.5,-105.343 85.0001,-95.3432 78.0001,-95.3432"/>
</g>
</g>
</svg>
