<?xml version="1.0" encoding="UTF-8" standalone="no"?>
<!DOCTYPE svg PUBLIC "-//W3C//DTD SVG 1.1//EN"
 "http://www.w3.org/Graphics/SVG/1.1/DTD/svg11.dtd">
<!-- Generated by graphviz version 2.38.0 (20140413.2041)
 -->
<!-- Title: SDK::UAthenaGameEngine Pages: 1 -->
<svg width="425pt" height="276pt"
 viewBox="0.00 0.00 424.71 276.00" xmlns="http://www.w3.org/2000/svg" xmlns:xlink="http://www.w3.org/1999/xlink">
<g id="graph0" class="graph" transform="scale(1 1) rotate(0) translate(4 272)">
<title>SDK::UAthenaGameEngine</title>
<!-- Node1 -->
<g id="node1" class="node"><title>Node1</title>
<g id="a_node1"><a xlink:title=" ">
<polygon fill="#bfbfbf" stroke="black" points="93.7075,-0.5 93.7075,-57.5 230.707,-57.5 230.707,-0.5 93.7075,-0.5"/>
<text text-anchor="middle" x="162.207" y="-45.5" font-family="Helvetica,sans-Serif" font-size="10.00">SDK::UAthenaGameEngine</text>
<polyline fill="none" stroke="black" points="93.7075,-38.5 230.707,-38.5 "/>
<text text-anchor="middle" x="162.207" y="-26.5" font-family="Helvetica,sans-Serif" font-size="10.00"> </text>
<polyline fill="none" stroke="black" points="93.7075,-19.5 230.707,-19.5 "/>
<text text-anchor="start" x="101.707" y="-7.5" font-family="Helvetica,sans-Serif" font-size="10.00">+ StaticClass()</text>
</a>
</g>
</g>
<!-- Node2 -->
<g id="node2" class="node"><title>Node2</title>
<g id="a_node2"><a xlink:href="a34467.html" target="_top" xlink:title=" ">
<polygon fill="none" stroke="red" points="99.2075,-105.5 99.2075,-162.5 225.207,-162.5 225.207,-105.5 99.2075,-105.5"/>
<text text-anchor="middle" x="162.207" y="-150.5" font-family="Helvetica,sans-Serif" font-size="10.00">SDK::URareGameEngine</text>
<polyline fill="none" stroke="red" points="99.2075,-143.5 225.207,-143.5 "/>
<text text-anchor="middle" x="162.207" y="-131.5" font-family="Helvetica,sans-Serif" font-size="10.00"> </text>
<polyline fill="none" stroke="red" points="99.2075,-124.5 225.207,-124.5 "/>
<text text-anchor="start" x="107.207" y="-112.5" font-family="Helvetica,sans-Serif" font-size="10.00">+ StaticClass()</text>
</a>
</g>
</g>
<!-- Node2&#45;&gt;Node1 -->
<g id="edge1" class="edge"><title>Node2&#45;&gt;Node1</title>
<path fill="none" stroke="midnightblue" d="M162.207,-95.2859C162.207,-82.8392 162.207,-69.2328 162.207,-57.6783"/>
<polygon fill="none" stroke="midnightblue" points="158.708,-95.3979 162.207,-105.398 165.708,-95.3979 158.708,-95.3979"/>
</g>
<!-- Node14 -->
<g id="node3" class="node"><title>Node14</title>
<g id="a_node3"><a xlink:title=" ">
<polygon fill="none" stroke="#bfbfbf" points="144.707,-210.5 144.707,-267.5 179.707,-267.5 179.707,-210.5 144.707,-210.5"/>
<text text-anchor="middle" x="162.207" y="-255.5" font-family="Helvetica,sans-Serif" font-size="10.00">char</text>
<polyline fill="none" stroke="#bfbfbf" points="144.707,-248.5 179.707,-248.5 "/>
<text text-anchor="middle" x="162.207" y="-236.5" font-family="Helvetica,sans-Serif" font-size="10.00"> </text>
<polyline fill="none" stroke="#bfbfbf" points="144.707,-229.5 179.707,-229.5 "/>
<text text-anchor="middle" x="162.207" y="-217.5" font-family="Helvetica,sans-Serif" font-size="10.00"> </text>
</a>
</g>
</g>
<!-- Node14&#45;&gt;Node1 -->
<g id="edge5" class="edge"><title>Node14&#45;&gt;Node1</title>
<path fill="none" stroke="#404040" d="M144.57,-235.372C111.359,-229.367 40.1927,-211.232 10.2075,-163 -3.4025,-141.108 -3.4025,-126.892 10.2075,-105 26.3887,-78.9721 54.5622,-61.7087 82.2919,-50.3864"/>
<polygon fill="none" stroke="#404040" points="82.4834,-50.3134 86.6642,-44.438 93.6957,-46.0374 89.5149,-51.9129 82.4834,-50.3134"/>
<text text-anchor="middle" x="50.2075" y="-137" font-family="Helvetica,sans-Serif" font-size="10.00"> +UnknownData01</text>
<text text-anchor="middle" x="50.2075" y="-126" font-family="Helvetica,sans-Serif" font-size="10.00">+UnknownData00</text>
</g>
<!-- Node14&#45;&gt;Node2 -->
<g id="edge2" class="edge"><title>Node14&#45;&gt;Node2</title>
<path fill="none" stroke="#404040" d="M162.207,-210.398C162.207,-199.545 162.207,-186.873 162.207,-175.049"/>
<polygon fill="none" stroke="#404040" points="162.208,-174.678 158.208,-168.678 162.207,-162.678 166.208,-168.678 162.208,-174.678"/>
<text text-anchor="middle" x="202.207" y="-184" font-family="Helvetica,sans-Serif" font-size="10.00"> +UnknownData00</text>
</g>
<!-- Node418 -->
<g id="node4" class="node"><title>Node418</title>
<g id="a_node4"><a xlink:href="a02839.html" target="_top" xlink:title=" ">
<polygon fill="none" stroke="red" points="243.707,-105.5 243.707,-162.5 416.707,-162.5 416.707,-105.5 243.707,-105.5"/>
<text text-anchor="middle" x="330.207" y="-150.5" font-family="Helvetica,sans-Serif" font-size="10.00">SDK::UAthenaGameEngineSettings</text>
<polyline fill="none" stroke="red" points="243.707,-143.5 416.707,-143.5 "/>
<text text-anchor="middle" x="330.207" y="-131.5" font-family="Helvetica,sans-Serif" font-size="10.00"> </text>
<polyline fill="none" stroke="red" points="243.707,-124.5 416.707,-124.5 "/>
<text text-anchor="start" x="251.707" y="-112.5" font-family="Helvetica,sans-Serif" font-size="10.00">+ StaticClass()</text>
</a>
</g>
</g>
<!-- Node14&#45;&gt;Node418 -->
<g id="edge4" class="edge"><title>Node14&#45;&gt;Node418</title>
<path fill="none" stroke="#404040" d="M179.858,-228.961C197.048,-220.011 223.792,-205.7 246.207,-192 257.606,-185.034 269.618,-177.196 280.882,-169.613"/>
<polygon fill="none" stroke="#404040" points="281.051,-169.498 283.765,-162.817 290.976,-162.753 288.262,-169.434 281.051,-169.498"/>
<text text-anchor="middle" x="303.207" y="-184" font-family="Helvetica,sans-Serif" font-size="10.00"> +UnknownData00</text>
</g>
<!-- Node418&#45;&gt;Node1 -->
<g id="edge3" class="edge"><title>Node418&#45;&gt;Node1</title>
<path fill="none" stroke="#404040" d="M285.187,-105.398C264.472,-92.6979 239.694,-77.5065 217.824,-64.0985"/>
<polygon fill="none" stroke="#404040" points="217.583,-63.9505 210.377,-64.2245 207.353,-57.6783 214.559,-57.4043 217.583,-63.9505"/>
<text text-anchor="middle" x="290.207" y="-79" font-family="Helvetica,sans-Serif" font-size="10.00"> +EngineSettings</text>
</g>
</g>
</svg>
