<?xml version="1.0" encoding="UTF-8" standalone="no"?>
<!DOCTYPE svg PUBLIC "-//W3C//DTD SVG 1.1//EN"
 "http://www.w3.org/Graphics/SVG/1.1/DTD/svg11.dtd">
<!-- Generated by graphviz version 2.38.0 (20140413.2041)
 -->
<!-- Title: SDK::AOnlineAthenaGameMode Pages: 1 -->
<svg width="289pt" height="354pt"
 viewBox="0.00 0.00 289.00 354.00" xmlns="http://www.w3.org/2000/svg" xmlns:xlink="http://www.w3.org/1999/xlink">
<g id="graph0" class="graph" transform="scale(1 1) rotate(0) translate(4 350)">
<title>SDK::AOnlineAthenaGameMode</title>
<!-- Node1 -->
<g id="node1" class="node"><title>Node1</title>
<g id="a_node1"><a xlink:title=" ">
<polygon fill="#bfbfbf" stroke="black" points="0,-0.5 0,-57.5 158,-57.5 158,-0.5 0,-0.5"/>
<text text-anchor="middle" x="79" y="-45.5" font-family="Helvetica,sans-Serif" font-size="10.00">SDK::AOnlineAthenaGameMode</text>
<polyline fill="none" stroke="black" points="0,-38.5 158,-38.5 "/>
<text text-anchor="middle" x="79" y="-26.5" font-family="Helvetica,sans-Serif" font-size="10.00"> </text>
<polyline fill="none" stroke="black" points="0,-19.5 158,-19.5 "/>
<text text-anchor="start" x="8" y="-7.5" font-family="Helvetica,sans-Serif" font-size="10.00">+ StaticClass()</text>
</a>
</g>
</g>
<!-- Node2 -->
<g id="node2" class="node"><title>Node2</title>
<g id="a_node2"><a xlink:href="a02863.html" target="_top" xlink:title=" ">
<polygon fill="none" stroke="red" points="127,-95.5 127,-218.5 281,-218.5 281,-95.5 127,-95.5"/>
<text text-anchor="middle" x="204" y="-206.5" font-family="Helvetica,sans-Serif" font-size="10.00">SDK::AAthenaGameMode</text>
<polyline fill="none" stroke="red" points="127,-199.5 281,-199.5 "/>
<text text-anchor="middle" x="204" y="-187.5" font-family="Helvetica,sans-Serif" font-size="10.00"> </text>
<polyline fill="none" stroke="red" points="127,-180.5 281,-180.5 "/>
<text text-anchor="start" x="135" y="-168.5" font-family="Helvetica,sans-Serif" font-size="10.00">+ SetStorageContainerRefresh</text>
<text text-anchor="start" x="135" y="-157.5" font-family="Helvetica,sans-Serif" font-size="10.00">Interval()</text>
<text text-anchor="start" x="135" y="-146.5" font-family="Helvetica,sans-Serif" font-size="10.00">+ SetRespawnTimer()</text>
<text text-anchor="start" x="135" y="-135.5" font-family="Helvetica,sans-Serif" font-size="10.00">+ ResetStorageContainers()</text>
<text text-anchor="start" x="135" y="-124.5" font-family="Helvetica,sans-Serif" font-size="10.00">+ RequestDemoSessionReset()</text>
<text text-anchor="start" x="135" y="-113.5" font-family="Helvetica,sans-Serif" font-size="10.00">+ IsPlayerOnGhostShip()</text>
<text text-anchor="start" x="135" y="-102.5" font-family="Helvetica,sans-Serif" font-size="10.00">+ StaticClass()</text>
</a>
</g>
</g>
<!-- Node2&#45;&gt;Node1 -->
<g id="edge1" class="edge"><title>Node2&#45;&gt;Node1</title>
<path fill="none" stroke="midnightblue" d="M136.63,-88.0914C125.899,-77.2739 115.36,-66.6507 106.289,-57.5077"/>
<polygon fill="none" stroke="midnightblue" points="134.169,-90.5802 143.697,-95.2144 139.139,-85.6502 134.169,-90.5802"/>
</g>
<!-- Node15 -->
<g id="node3" class="node"><title>Node15</title>
<g id="a_node3"><a xlink:title=" ">
<polygon fill="none" stroke="#bfbfbf" points="63.5,-288.5 63.5,-345.5 98.5,-345.5 98.5,-288.5 63.5,-288.5"/>
<text text-anchor="middle" x="81" y="-333.5" font-family="Helvetica,sans-Serif" font-size="10.00">char</text>
<polyline fill="none" stroke="#bfbfbf" points="63.5,-326.5 98.5,-326.5 "/>
<text text-anchor="middle" x="81" y="-314.5" font-family="Helvetica,sans-Serif" font-size="10.00"> </text>
<polyline fill="none" stroke="#bfbfbf" points="63.5,-307.5 98.5,-307.5 "/>
<text text-anchor="middle" x="81" y="-295.5" font-family="Helvetica,sans-Serif" font-size="10.00"> </text>
</a>
</g>
</g>
<!-- Node15&#45;&gt;Node1 -->
<g id="edge3" class="edge"><title>Node15&#45;&gt;Node1</title>
<path fill="none" stroke="#404040" d="M64.9334,-288.197C55.0003,-269.353 43.1889,-243.509 38,-219 26.5852,-165.084 22.6973,-147.944 38,-95 40.683,-85.7174 45.1293,-76.4848 50.1264,-68.0168"/>
<polygon fill="none" stroke="#404040" points="50.2156,-67.8766 50.0632,-60.6671 56.6595,-57.7535 56.8119,-64.963 50.2156,-67.8766"/>
<text text-anchor="middle" x="78" y="-154.5" font-family="Helvetica,sans-Serif" font-size="10.00"> +UnknownData00</text>
</g>
<!-- Node15&#45;&gt;Node2 -->
<g id="edge2" class="edge"><title>Node15&#45;&gt;Node2</title>
<path fill="none" stroke="#404040" d="M98.6229,-293.362C111.934,-276.263 130.968,-251.814 149.206,-228.386"/>
<polygon fill="none" stroke="#404040" points="149.31,-228.252 149.839,-221.061 156.681,-218.783 156.152,-225.975 149.31,-228.252"/>
<text text-anchor="middle" x="182" y="-262" font-family="Helvetica,sans-Serif" font-size="10.00"> +UnknownData01</text>
<text text-anchor="middle" x="182" y="-251" font-family="Helvetica,sans-Serif" font-size="10.00">+UnknownData02</text>
<text text-anchor="middle" x="182" y="-240" font-family="Helvetica,sans-Serif" font-size="10.00">+UnknownData00</text>
</g>
</g>
</svg>
