<?xml version="1.0" encoding="UTF-8" standalone="no"?>
<!DOCTYPE svg PUBLIC "-//W3C//DTD SVG 1.1//EN"
 "http://www.w3.org/Graphics/SVG/1.1/DTD/svg11.dtd">
<!-- Generated by graphviz version 2.38.0 (20140413.2041)
 -->
<!-- Title: SDK::UReplicatedShipPartCustomizationComponent Pages: 1 -->
<svg width="157pt" height="204pt"
 viewBox="0.00 0.00 157.00 204.00" xmlns="http://www.w3.org/2000/svg" xmlns:xlink="http://www.w3.org/1999/xlink">
<g id="graph0" class="graph" transform="scale(1 1) rotate(0) translate(4 200)">
<title>SDK::UReplicatedShipPartCustomizationComponent</title>
<!-- Node1 -->
<g id="node1" class="node"><title>Node1</title>
<g id="a_node1"><a xlink:title=" ">
<polygon fill="#bfbfbf" stroke="black" points="8,-0.5 8,-90.5 141,-90.5 141,-0.5 8,-0.5"/>
<text text-anchor="start" x="16" y="-78.5" font-family="Helvetica,sans-Serif" font-size="10.00">SDK::UReplicatedShipPart</text>
<text text-anchor="middle" x="74.5" y="-67.5" font-family="Helvetica,sans-Serif" font-size="10.00">CustomizationComponent</text>
<polyline fill="none" stroke="black" points="8,-60.5 141,-60.5 "/>
<text text-anchor="start" x="16" y="-48.5" font-family="Helvetica,sans-Serif" font-size="10.00">+ PartDesc</text>
<text text-anchor="start" x="16" y="-37.5" font-family="Helvetica,sans-Serif" font-size="10.00">+ UnknownData00</text>
<polyline fill="none" stroke="black" points="8,-30.5 141,-30.5 "/>
<text text-anchor="start" x="16" y="-18.5" font-family="Helvetica,sans-Serif" font-size="10.00">+ OnReplicate_PartDesc()</text>
<text text-anchor="start" x="16" y="-7.5" font-family="Helvetica,sans-Serif" font-size="10.00">+ StaticClass()</text>
</a>
</g>
</g>
<!-- Node2 -->
<g id="node2" class="node"><title>Node2</title>
<g id="a_node2"><a xlink:href="a02939.html" target="_top" xlink:title=" ">
<polygon fill="none" stroke="red" points="0,-127.5 0,-195.5 149,-195.5 149,-127.5 0,-127.5"/>
<text text-anchor="start" x="8" y="-183.5" font-family="Helvetica,sans-Serif" font-size="10.00">SDK::UShipPartCustomization</text>
<text text-anchor="middle" x="74.5" y="-172.5" font-family="Helvetica,sans-Serif" font-size="10.00">Component</text>
<polyline fill="none" stroke="red" points="0,-165.5 149,-165.5 "/>
<text text-anchor="middle" x="74.5" y="-153.5" font-family="Helvetica,sans-Serif" font-size="10.00"> </text>
<polyline fill="none" stroke="red" points="0,-146.5 149,-146.5 "/>
<text text-anchor="start" x="8" y="-134.5" font-family="Helvetica,sans-Serif" font-size="10.00">+ StaticClass()</text>
</a>
</g>
</g>
<!-- Node2&#45;&gt;Node1 -->
<g id="edge1" class="edge"><title>Node2&#45;&gt;Node1</title>
<path fill="none" stroke="midnightblue" d="M74.5,-116.972C74.5,-108.346 74.5,-99.2838 74.5,-90.6378"/>
<polygon fill="none" stroke="midnightblue" points="71.0001,-117.22 74.5,-127.22 78.0001,-117.22 71.0001,-117.22"/>
</g>
</g>
</svg>
