<?xml version="1.0" encoding="UTF-8" standalone="no"?>
<!DOCTYPE svg PUBLIC "-//W3C//DTD SVG 1.1//EN"
 "http://www.w3.org/Graphics/SVG/1.1/DTD/svg11.dtd">
<!-- Generated by graphviz version 2.38.0 (20140413.2041)
 -->
<!-- Title: SDK::UVoyageRecipeDataAsset Pages: 1 -->
<!--zoomable 309 -->
<svg id="main" version="1.1" xmlns="http://www.w3.org/2000/svg" xmlns:xlink="http://www.w3.org/1999/xlink" xml:space="preserve" onload="init(evt)">
<style type="text/css"><![CDATA[
.edge:hover path { stroke: red; }
.edge:hover polygon { stroke: red; fill: red; }
]]></style>
<script type="text/javascript"><![CDATA[
var edges = document.getElementsByTagName('g');
if (edges && edges.length) {
  for (var i=0;i<edges.length;i++) {
    if (edges[i].id.substr(0,4)=='edge') {
      edges[i].setAttribute('class','edge');
    }
  }
}
]]></script>
        <defs>
                <circle id="rim" cx="0" cy="0" r="7"/>
                <circle id="rim2" cx="0" cy="0" r="3.5"/>
                <g id="zoomPlus">
                        <use xlink:href="#rim" fill="#404040">
                                <set attributeName="fill" to="#808080" begin="zoomplus.mouseover" end="zoomplus.mouseout"/>
                        </use>
                        <path d="M-4,0h8M0,-4v8" fill="none" stroke="white" stroke-width="1.5" pointer-events="none"/>
                </g>
                <g id="zoomMin">
                        <use xlink:href="#rim" fill="#404040">
                                <set attributeName="fill" to="#808080" begin="zoomminus.mouseover" end="zoomminus.mouseout"/>
                        </use>
                        <path d="M-4,0h8" fill="none" stroke="white" stroke-width="1.5" pointer-events="none"/>
                </g>
                <g id="dirArrow">
                        <path fill="none" stroke="white" stroke-width="1.5" d="M0,-3.0v7 M-2.5,-0.5L0,-3.0L2.5,-0.5"/>
                </g>
               <g id="resetDef">
                       <use xlink:href="#rim2" fill="#404040">
                               <set attributeName="fill" to="#808080" begin="reset.mouseover" end="reset.mouseout"/>
                       </use>
               </g>
        </defs>

<script type="text/javascript">
var viewWidth = 530;
var viewHeight = 309;
var sectionId = 'dynsection-1';
</script>
<script xlink:href="svgpan.js"/>
<svg id="graph" class="graph">
<g id="viewport">
<title>SDK::UVoyageRecipeDataAsset</title>
<!-- Node1 -->
<g id="node1" class="node"><title>Node1</title>
<g id="a_node1"><a xlink:title=" ">
<polygon fill="#bfbfbf" stroke="black" points="99.5,-0.5 99.5,-57.5 257.5,-57.5 257.5,-0.5 99.5,-0.5"/>
<text text-anchor="middle" x="178.5" y="-45.5" font-family="Helvetica,sans-Serif" font-size="10.00">SDK::UVoyageRecipeDataAsset</text>
<polyline fill="none" stroke="black" points="99.5,-38.5 257.5,-38.5 "/>
<text text-anchor="middle" x="178.5" y="-26.5" font-family="Helvetica,sans-Serif" font-size="10.00"> </text>
<polyline fill="none" stroke="black" points="99.5,-19.5 257.5,-19.5 "/>
<text text-anchor="start" x="107.5" y="-7.5" font-family="Helvetica,sans-Serif" font-size="10.00">+ StaticClass()</text>
</a>
</g>
</g>
<!-- Node2 -->
<g id="node2" class="node"><title>Node2</title>
<g id="a_node2"><a xlink:href="a26559.html" target="_top" xlink:title=" ">
<polygon fill="none" stroke="red" points="0,-105.5 0,-162.5 95,-162.5 95,-105.5 0,-105.5"/>
<text text-anchor="middle" x="47.5" y="-150.5" font-family="Helvetica,sans-Serif" font-size="10.00">SDK::UDataAsset</text>
<polyline fill="none" stroke="red" points="0,-143.5 95,-143.5 "/>
<text text-anchor="middle" x="47.5" y="-131.5" font-family="Helvetica,sans-Serif" font-size="10.00"> </text>
<polyline fill="none" stroke="red" points="0,-124.5 95,-124.5 "/>
<text text-anchor="start" x="8" y="-112.5" font-family="Helvetica,sans-Serif" font-size="10.00">+ StaticClass()</text>
</a>
</g>
</g>
<!-- Node2&#45;&gt;Node1 -->
<g id="edge1" class="edge"><title>Node2&#45;&gt;Node1</title>
<path fill="none" stroke="midnightblue" d="M88.5422,-99.1549C97.9997,-91.4746 108.056,-83.4018 117.5,-76 125.225,-69.9453 133.581,-63.5473 141.558,-57.5104"/>
<polygon fill="none" stroke="midnightblue" points="86.3074,-96.4611 80.7653,-105.491 90.7287,-101.888 86.3074,-96.4611"/>
</g>
<!-- Node12 -->
<g id="node3" class="node"><title>Node12</title>
<g id="a_node3"><a xlink:title=" ">
<polygon fill="none" stroke="#bfbfbf" points="135,-243.5 135,-300.5 170,-300.5 170,-243.5 135,-243.5"/>
<text text-anchor="middle" x="152.5" y="-288.5" font-family="Helvetica,sans-Serif" font-size="10.00">char</text>
<polyline fill="none" stroke="#bfbfbf" points="135,-281.5 170,-281.5 "/>
<text text-anchor="middle" x="152.5" y="-269.5" font-family="Helvetica,sans-Serif" font-size="10.00"> </text>
<polyline fill="none" stroke="#bfbfbf" points="135,-262.5 170,-262.5 "/>
<text text-anchor="middle" x="152.5" y="-250.5" font-family="Helvetica,sans-Serif" font-size="10.00"> </text>
</a>
</g>
</g>
<!-- Node12&#45;&gt;Node1 -->
<g id="edge2" class="edge"><title>Node12&#45;&gt;Node1</title>
<path fill="none" stroke="#404040" d="M145.418,-243.267C138.071,-209.964 129.121,-152.636 140.5,-105 143.476,-92.5419 148.877,-79.8123 154.69,-68.4612"/>
<polygon fill="none" stroke="#404040" points="154.843,-68.1782 154.189,-60.9968 160.566,-57.6307 161.221,-64.8121 154.843,-68.1782"/>
<text text-anchor="middle" x="180.5" y="-131.5" font-family="Helvetica,sans-Serif" font-size="10.00"> +UnknownData00</text>
</g>
<!-- Node14 -->
<g id="node4" class="node"><title>Node14</title>
<g id="a_node4"><a xlink:href="a13515.html" target="_top" xlink:title=" ">
<polygon fill="none" stroke="red" points="229.5,-105.5 229.5,-162.5 341.5,-162.5 341.5,-105.5 229.5,-105.5"/>
<text text-anchor="middle" x="285.5" y="-150.5" font-family="Helvetica,sans-Serif" font-size="10.00">SDK::FVoyageRecipe</text>
<polyline fill="none" stroke="red" points="229.5,-143.5 341.5,-143.5 "/>
<text text-anchor="middle" x="285.5" y="-131.5" font-family="Helvetica,sans-Serif" font-size="10.00"> </text>
<polyline fill="none" stroke="red" points="229.5,-124.5 341.5,-124.5 "/>
<text text-anchor="middle" x="285.5" y="-112.5" font-family="Helvetica,sans-Serif" font-size="10.00"> </text>
</a>
</g>
</g>
<!-- Node12&#45;&gt;Node14 -->
<g id="edge4" class="edge"><title>Node12&#45;&gt;Node14</title>
<path fill="none" stroke="#404040" d="M158.645,-243.329C164.175,-223.881 174.03,-198.339 190.5,-181 195.405,-175.836 206.091,-169.567 218.594,-163.34"/>
<polygon fill="none" stroke="#404040" points="218.615,-163.329 222.298,-157.129 229.437,-158.144 225.755,-164.344 218.615,-163.329"/>
<text text-anchor="middle" x="230.5" y="-206" font-family="Helvetica,sans-Serif" font-size="10.00"> +UnknownData01</text>
<text text-anchor="middle" x="230.5" y="-195" font-family="Helvetica,sans-Serif" font-size="10.00">+UnknownData00</text>
</g>
<!-- Node14&#45;&gt;Node1 -->
<g id="edge3" class="edge"><title>Node14&#45;&gt;Node1</title>
<path fill="none" stroke="#404040" d="M256.826,-105.398C244.352,-93.3906 229.565,-79.1563 216.218,-66.3077"/>
<polygon fill="none" stroke="#404040" points="215.899,-66.0005 208.802,-64.7212 207.253,-57.6783 214.35,-58.9576 215.899,-66.0005"/>
<text text-anchor="middle" x="255.5" y="-79" font-family="Helvetica,sans-Serif" font-size="10.00"> +Recipe</text>
</g>
<!-- Node19 -->
<g id="node5" class="node"><title>Node19</title>
<g id="a_node5"><a xlink:title=" ">
<polygon fill="none" stroke="#bfbfbf" points="332,-243.5 332,-300.5 367,-300.5 367,-243.5 332,-243.5"/>
<text text-anchor="middle" x="349.5" y="-288.5" font-family="Helvetica,sans-Serif" font-size="10.00">bool</text>
<polyline fill="none" stroke="#bfbfbf" points="332,-281.5 367,-281.5 "/>
<text text-anchor="middle" x="349.5" y="-269.5" font-family="Helvetica,sans-Serif" font-size="10.00"> </text>
<polyline fill="none" stroke="#bfbfbf" points="332,-262.5 367,-262.5 "/>
<text text-anchor="middle" x="349.5" y="-250.5" font-family="Helvetica,sans-Serif" font-size="10.00"> </text>
</a>
</g>
</g>
<!-- Node19&#45;&gt;Node1 -->
<g id="edge6" class="edge"><title>Node19&#45;&gt;Node1</title>
<path fill="none" stroke="#404040" d="M367.244,-261.778C380.229,-253.938 396.859,-241.352 404.5,-225 429.259,-172.015 395.898,-141.871 350.5,-105 326.608,-85.5958 296.923,-70.2986 268.975,-58.72"/>
<polygon fill="none" stroke="#404040" points="268.683,-58.6032 261.627,-60.0878 257.542,-54.1449 264.599,-52.6604 268.683,-58.6032"/>
<text text-anchor="middle" x="464" y="-131.5" font-family="Helvetica,sans-Serif" font-size="10.00"> +IsVoyageLocationBound</text>
</g>
<!-- Node19&#45;&gt;Node14 -->
<g id="edge5" class="edge"><title>Node19&#45;&gt;Node14</title>
<path fill="none" stroke="#404040" d="M331.876,-264.683C315.487,-257.751 292.059,-244.891 281.5,-225 273.436,-209.808 273.038,-191.061 275.208,-174.616"/>
<polygon fill="none" stroke="#404040" points="275.243,-174.411 272.321,-167.818 277.283,-162.586 280.205,-169.179 275.243,-174.411"/>
<text text-anchor="middle" x="343" y="-217" font-family="Helvetica,sans-Serif" font-size="10.00"> +UseFixedFinalQuestPool</text>
<text text-anchor="start" x="281.5" y="-206" font-family="Helvetica,sans-Serif" font-size="10.00">+DoNotNotifyParticipantsOn</text>
<text text-anchor="middle" x="343" y="-195" font-family="Helvetica,sans-Serif" font-size="10.00">VoyageComplete</text>
<text text-anchor="middle" x="343" y="-184" font-family="Helvetica,sans-Serif" font-size="10.00">+RandomiseChapters</text>
</g>
</g>
</svg>
        <g id="navigator" transform="translate(0 0)" fill="#404254">
                <rect fill="#f2f5e9" fill-opacity="0.5" stroke="#606060" stroke-width=".5" x="0" y="0" width="60" height="60"/>
                <use id="zoomplus" xlink:href="#zoomPlus" x="17" y="9" onmousedown="handleZoom(evt,'in')"/>
                <use id="zoomminus" xlink:href="#zoomMin" x="42" y="9" onmousedown="handleZoom(evt,'out')"/>
                <use id="reset" xlink:href="#resetDef" x="30" y="36" onmousedown="handleReset()"/>
                <g id="arrowUp" xlink:href="#dirArrow" transform="translate(30 24)" onmousedown="handlePan(0,-1)">
                  <use xlink:href="#rim" fill="#404040">
                        <set attributeName="fill" to="#808080" begin="arrowUp.mouseover" end="arrowUp.mouseout"/>
                  </use>
                  <path fill="none" stroke="white" stroke-width="1.5" d="M0,-3.0v7 M-2.5,-0.5L0,-3.0L2.5,-0.5"/>
                </g>
                <g id="arrowRight" xlink:href="#dirArrow" transform="rotate(90) translate(36 -43)" onmousedown="handlePan(1,0)">
                  <use xlink:href="#rim" fill="#404040">
                        <set attributeName="fill" to="#808080" begin="arrowRight.mouseover" end="arrowRight.mouseout"/>
                  </use>
                  <path fill="none" stroke="white" stroke-width="1.5" d="M0,-3.0v7 M-2.5,-0.5L0,-3.0L2.5,-0.5"/>
                </g>
                <g id="arrowDown" xlink:href="#dirArrow" transform="rotate(180) translate(-30 -48)" onmousedown="handlePan(0,1)">
                  <use xlink:href="#rim" fill="#404040">
                        <set attributeName="fill" to="#808080" begin="arrowDown.mouseover" end="arrowDown.mouseout"/>
                  </use>
                  <path fill="none" stroke="white" stroke-width="1.5" d="M0,-3.0v7 M-2.5,-0.5L0,-3.0L2.5,-0.5"/>
                </g>
                <g id="arrowLeft" xlink:href="#dirArrow" transform="rotate(270) translate(-36 17)" onmousedown="handlePan(-1,0)">
                  <use xlink:href="#rim" fill="#404040">
                        <set attributeName="fill" to="#808080" begin="arrowLeft.mouseover" end="arrowLeft.mouseout"/>
                  </use>
                  <path fill="none" stroke="white" stroke-width="1.5" d="M0,-3.0v7 M-2.5,-0.5L0,-3.0L2.5,-0.5"/>
                </g>
        </g>
        <svg viewBox="0 0 15 15" width="100%" height="30px" preserveAspectRatio="xMaxYMin meet">
         <g id="arrow_out" transform="scale(0.3 0.3)">
          <a xlink:href="a02941_org.svg" target="_base">
           <rect id="button" ry="5" rx="5" y="6" x="6" height="38" width="38"
                fill="#f2f5e9" fill-opacity="0.5" stroke="#606060" stroke-width="1.0"/>
           <path id="arrow"
             d="M 11.500037,31.436501 C 11.940474,20.09759 22.043105,11.32322 32.158766,21.979434 L 37.068811,17.246167 C 37.068811,17.246167 37.088388,32 37.088388,32 L 22.160133,31.978069 C 22.160133,31.978069 26.997745,27.140456 26.997745,27.140456 C 18.528582,18.264221 13.291696,25.230495 11.500037,31.436501 z"
             style="fill:#404040;"/>
          </a>
         </g>
        </svg>
</svg>
