<?xml version="1.0" encoding="UTF-8" standalone="no"?>
<!DOCTYPE svg PUBLIC "-//W3C//DTD SVG 1.1//EN"
 "http://www.w3.org/Graphics/SVG/1.1/DTD/svg11.dtd">
<!-- Generated by graphviz version 2.38.0 (20140413.2041)
 -->
<!-- Title: SDK::AStaticMeshWieldableItem Pages: 1 -->
<!--zoomable 760 -->
<svg id="main" version="1.1" xmlns="http://www.w3.org/2000/svg" xmlns:xlink="http://www.w3.org/1999/xlink" xml:space="preserve" onload="init(evt)">
<style type="text/css"><![CDATA[
.edge:hover path { stroke: red; }
.edge:hover polygon { stroke: red; fill: red; }
]]></style>
<script type="text/javascript"><![CDATA[
var edges = document.getElementsByTagName('g');
if (edges && edges.length) {
  for (var i=0;i<edges.length;i++) {
    if (edges[i].id.substr(0,4)=='edge') {
      edges[i].setAttribute('class','edge');
    }
  }
}
]]></script>
        <defs>
                <circle id="rim" cx="0" cy="0" r="7"/>
                <circle id="rim2" cx="0" cy="0" r="3.5"/>
                <g id="zoomPlus">
                        <use xlink:href="#rim" fill="#404040">
                                <set attributeName="fill" to="#808080" begin="zoomplus.mouseover" end="zoomplus.mouseout"/>
                        </use>
                        <path d="M-4,0h8M0,-4v8" fill="none" stroke="white" stroke-width="1.5" pointer-events="none"/>
                </g>
                <g id="zoomMin">
                        <use xlink:href="#rim" fill="#404040">
                                <set attributeName="fill" to="#808080" begin="zoomminus.mouseover" end="zoomminus.mouseout"/>
                        </use>
                        <path d="M-4,0h8" fill="none" stroke="white" stroke-width="1.5" pointer-events="none"/>
                </g>
                <g id="dirArrow">
                        <path fill="none" stroke="white" stroke-width="1.5" d="M0,-3.0v7 M-2.5,-0.5L0,-3.0L2.5,-0.5"/>
                </g>
               <g id="resetDef">
                       <use xlink:href="#rim2" fill="#404040">
                               <set attributeName="fill" to="#808080" begin="reset.mouseover" end="reset.mouseout"/>
                       </use>
               </g>
        </defs>

<script type="text/javascript">
var viewWidth = 2871;
var viewHeight = 760;
var sectionId = 'dynsection-0';
</script>
<script xlink:href="svgpan.js"/>
<svg id="graph" class="graph">
<g id="viewport">
<title>SDK::AStaticMeshWieldableItem</title>
<!-- Node1 -->
<g id="node1" class="node"><title>Node1</title>
<g id="a_node1"><a xlink:title=" ">
<polygon fill="#bfbfbf" stroke="black" points="1449.5,-369.5 1449.5,-426.5 1610.5,-426.5 1610.5,-369.5 1449.5,-369.5"/>
<text text-anchor="middle" x="1530" y="-414.5" font-family="Helvetica,sans-Serif" font-size="10.00">SDK::AStaticMeshWieldableItem</text>
<polyline fill="none" stroke="black" points="1449.5,-407.5 1610.5,-407.5 "/>
<text text-anchor="middle" x="1530" y="-395.5" font-family="Helvetica,sans-Serif" font-size="10.00"> </text>
<polyline fill="none" stroke="black" points="1449.5,-388.5 1610.5,-388.5 "/>
<text text-anchor="start" x="1457.5" y="-376.5" font-family="Helvetica,sans-Serif" font-size="10.00">+ StaticClass()</text>
</a>
</g>
</g>
<!-- Node5 -->
<g id="node3" class="node"><title>Node5</title>
<g id="a_node3"><a xlink:href="a03571.html" target="_top" xlink:title=" ">
<polygon fill="none" stroke="red" points="0,-132.5 0,-200.5 122,-200.5 122,-132.5 0,-132.5"/>
<text text-anchor="middle" x="61" y="-188.5" font-family="Helvetica,sans-Serif" font-size="10.00">SDK::ACannonBall</text>
<polyline fill="none" stroke="red" points="0,-181.5 122,-181.5 "/>
<text text-anchor="start" x="8" y="-169.5" font-family="Helvetica,sans-Serif" font-size="10.00">+ ConsumableWieldable</text>
<text text-anchor="start" x="8" y="-158.5" font-family="Helvetica,sans-Serif" font-size="10.00">+ UnknownData00</text>
<polyline fill="none" stroke="red" points="0,-151.5 122,-151.5 "/>
<text text-anchor="start" x="8" y="-139.5" font-family="Helvetica,sans-Serif" font-size="10.00">+ StaticClass()</text>
</a>
</g>
</g>
<!-- Node1&#45;&gt;Node5 -->
<g id="edge2" class="edge"><title>Node1&#45;&gt;Node5</title>
<path fill="none" stroke="midnightblue" d="M1439.25,-395.497C1137.64,-390.157 184.702,-370.388 131,-333 87.4749,-302.697 70.8881,-239.658 64.6557,-200.724"/>
<polygon fill="none" stroke="midnightblue" points="1439.21,-398.997 1449.27,-395.673 1439.34,-391.998 1439.21,-398.997"/>
</g>
<!-- Node7 -->
<g id="node4" class="node"><title>Node7</title>
<g id="a_node4"><a xlink:href="a03767.html" target="_top" xlink:title=" ">
<polygon fill="none" stroke="black" points="140,-116 140,-217 288,-217 288,-116 140,-116"/>
<text text-anchor="middle" x="214" y="-205" font-family="Helvetica,sans-Serif" font-size="10.00">SDK::ACarvedWoodenPlank</text>
<polyline fill="none" stroke="black" points="140,-198 288,-198 "/>
<text text-anchor="start" x="148" y="-186" font-family="Helvetica,sans-Serif" font-size="10.00">+ UsableWieldableComponent</text>
<text text-anchor="start" x="148" y="-175" font-family="Helvetica,sans-Serif" font-size="10.00">+ FOVBlendSpeed</text>
<text text-anchor="start" x="148" y="-164" font-family="Helvetica,sans-Serif" font-size="10.00">+ TargetFOV</text>
<text text-anchor="start" x="148" y="-153" font-family="Helvetica,sans-Serif" font-size="10.00">+ AimSpeedParams</text>
<text text-anchor="start" x="148" y="-142" font-family="Helvetica,sans-Serif" font-size="10.00">+ UnknownData00</text>
<polyline fill="none" stroke="black" points="140,-135 288,-135 "/>
<text text-anchor="start" x="148" y="-123" font-family="Helvetica,sans-Serif" font-size="10.00">+ StaticClass()</text>
</a>
</g>
</g>
<!-- Node1&#45;&gt;Node7 -->
<g id="edge3" class="edge"><title>Node1&#45;&gt;Node7</title>
<path fill="none" stroke="midnightblue" d="M1438.96,-397.494C1169.98,-398.234 391.774,-394.944 297,-333 257.179,-306.973 235.66,-255.725 224.591,-217.117"/>
<polygon fill="none" stroke="midnightblue" points="1439.09,-400.994 1449.08,-397.464 1439.07,-393.994 1439.09,-400.994"/>
</g>
<!-- Node8 -->
<g id="node5" class="node"><title>Node8</title>
<g id="a_node5"><a xlink:href="a06159.html" target="_top" xlink:title=" ">
<polygon fill="none" stroke="black" points="306.5,-0.5 306.5,-332.5 463.5,-332.5 463.5,-0.5 306.5,-0.5"/>
<text text-anchor="middle" x="385" y="-320.5" font-family="Helvetica,sans-Serif" font-size="10.00">SDK::ALantern</text>
<polyline fill="none" stroke="black" points="306.5,-313.5 463.5,-313.5 "/>
<text text-anchor="start" x="314.5" y="-301.5" font-family="Helvetica,sans-Serif" font-size="10.00">+ UnknownData00</text>
<text text-anchor="start" x="314.5" y="-290.5" font-family="Helvetica,sans-Serif" font-size="10.00">+ LightRaisedBlendSpringAccel</text>
<text text-anchor="start" x="314.5" y="-279.5" font-family="Helvetica,sans-Serif" font-size="10.00">+ LightActiveBlendSpringAccel</text>
<text text-anchor="start" x="314.5" y="-268.5" font-family="Helvetica,sans-Serif" font-size="10.00">+ TurnOnSfx</text>
<text text-anchor="start" x="314.5" y="-257.5" font-family="Helvetica,sans-Serif" font-size="10.00">+ TurnOffSfx</text>
<text text-anchor="start" x="314.5" y="-246.5" font-family="Helvetica,sans-Serif" font-size="10.00">+ FlameTransferSfx</text>
<text text-anchor="start" x="314.5" y="-235.5" font-family="Helvetica,sans-Serif" font-size="10.00">+ ThirdPersonLanternDistance</text>
<text text-anchor="start" x="314.5" y="-224.5" font-family="Helvetica,sans-Serif" font-size="10.00">InMetresMultiplier</text>
<text text-anchor="start" x="314.5" y="-213.5" font-family="Helvetica,sans-Serif" font-size="10.00">+ ThirdPersonLanternTimeOf</text>
<text text-anchor="start" x="314.5" y="-202.5" font-family="Helvetica,sans-Serif" font-size="10.00">DayMultiplier</text>
<text text-anchor="start" x="314.5" y="-191.5" font-family="Helvetica,sans-Serif" font-size="10.00">+ CurrentThirdPersonMultiplier</text>
<text text-anchor="start" x="314.5" y="-180.5" font-family="Helvetica,sans-Serif" font-size="10.00">+ CurrentExternalLightFactor</text>
<text text-anchor="start" x="314.5" y="-169.5" font-family="Helvetica,sans-Serif" font-size="10.00">and 10 more...</text>
<polyline fill="none" stroke="black" points="306.5,-162.5 463.5,-162.5 "/>
<text text-anchor="start" x="314.5" y="-150.5" font-family="Helvetica,sans-Serif" font-size="10.00">+ TriggerGlow()</text>
<text text-anchor="start" x="314.5" y="-139.5" font-family="Helvetica,sans-Serif" font-size="10.00">+ Server_RequestChangeLight</text>
<text text-anchor="start" x="314.5" y="-128.5" font-family="Helvetica,sans-Serif" font-size="10.00">OnState()</text>
<text text-anchor="start" x="314.5" y="-117.5" font-family="Helvetica,sans-Serif" font-size="10.00">+ Server_ExternalLightFactor</text>
<text text-anchor="start" x="314.5" y="-106.5" font-family="Helvetica,sans-Serif" font-size="10.00">Change()</text>
<text text-anchor="start" x="314.5" y="-95.5" font-family="Helvetica,sans-Serif" font-size="10.00">+ ReceiveWieldThirdPerson()</text>
<text text-anchor="start" x="314.5" y="-84.5" font-family="Helvetica,sans-Serif" font-size="10.00">+ ReceiveWieldFirstPerson()</text>
<text text-anchor="start" x="314.5" y="-73.5" font-family="Helvetica,sans-Serif" font-size="10.00">+ ReceiveTurnOnOffOneshotFx()</text>
<text text-anchor="start" x="314.5" y="-62.5" font-family="Helvetica,sans-Serif" font-size="10.00">+ ReceiveLightNowOn()</text>
<text text-anchor="start" x="314.5" y="-51.5" font-family="Helvetica,sans-Serif" font-size="10.00">+ ReceiveLightNowOff()</text>
<text text-anchor="start" x="314.5" y="-40.5" font-family="Helvetica,sans-Serif" font-size="10.00">+ ReceiveLightChange()</text>
<text text-anchor="start" x="314.5" y="-29.5" font-family="Helvetica,sans-Serif" font-size="10.00">+ ReceiveFlameData()</text>
<text text-anchor="start" x="314.5" y="-18.5" font-family="Helvetica,sans-Serif" font-size="10.00">and 12 more...</text>
<text text-anchor="start" x="314.5" y="-7.5" font-family="Helvetica,sans-Serif" font-size="10.00">+ StaticClass()</text>
</a>
</g>
</g>
<!-- Node1&#45;&gt;Node8 -->
<g id="edge4" class="edge"><title>Node1&#45;&gt;Node8</title>
<path fill="none" stroke="midnightblue" d="M1439.17,-396.558C1197.59,-394.677 552.187,-384.808 472,-333 469.137,-331.15 466.363,-329.174 463.674,-327.085"/>
<polygon fill="none" stroke="midnightblue" points="1439.3,-400.059 1449.32,-396.634 1439.35,-393.059 1439.3,-400.059"/>
</g>
<!-- Node9 -->
<g id="node6" class="node"><title>Node9</title>
<g id="a_node6"><a xlink:href="a03151.html" target="_top" xlink:title=" ">
<polygon fill="none" stroke="red" points="481.5,-138 481.5,-195 666.5,-195 666.5,-138 481.5,-138"/>
<text text-anchor="middle" x="574" y="-183" font-family="Helvetica,sans-Serif" font-size="10.00">SDK::ALargeStaticMeshWieldableItem</text>
<polyline fill="none" stroke="red" points="481.5,-176 666.5,-176 "/>
<text text-anchor="middle" x="574" y="-164" font-family="Helvetica,sans-Serif" font-size="10.00"> </text>
<polyline fill="none" stroke="red" points="481.5,-157 666.5,-157 "/>
<text text-anchor="start" x="489.5" y="-145" font-family="Helvetica,sans-Serif" font-size="10.00">+ StaticClass()</text>
</a>
</g>
</g>
<!-- Node1&#45;&gt;Node9 -->
<g id="edge5" class="edge"><title>Node1&#45;&gt;Node9</title>
<path fill="none" stroke="midnightblue" d="M1438.98,-394.825C1232.2,-389.223 739.975,-371.928 676,-333 624.533,-301.683 595.248,-233.576 582.234,-195.209"/>
<polygon fill="none" stroke="midnightblue" points="1439.12,-398.329 1449.21,-395.098 1439.31,-391.332 1439.12,-398.329"/>
</g>
<!-- Node18 -->
<g id="node7" class="node"><title>Node18</title>
<g id="a_node7"><a xlink:href="a06451.html" target="_top" xlink:title=" ">
<polygon fill="none" stroke="black" points="685,-22.5 685,-310.5 861,-310.5 861,-22.5 685,-22.5"/>
<text text-anchor="middle" x="773" y="-298.5" font-family="Helvetica,sans-Serif" font-size="10.00">SDK::AMeleeWeapon</text>
<polyline fill="none" stroke="black" points="685,-291.5 861,-291.5 "/>
<text text-anchor="start" x="693" y="-279.5" font-family="Helvetica,sans-Serif" font-size="10.00">+ UnknownData00</text>
<text text-anchor="start" x="693" y="-268.5" font-family="Helvetica,sans-Serif" font-size="10.00">+ InventoryItem</text>
<text text-anchor="start" x="693" y="-257.5" font-family="Helvetica,sans-Serif" font-size="10.00">+ NamedNotificationInputComponent</text>
<text text-anchor="start" x="693" y="-246.5" font-family="Helvetica,sans-Serif" font-size="10.00">+ TrailParticleSystem_FP</text>
<text text-anchor="start" x="693" y="-235.5" font-family="Helvetica,sans-Serif" font-size="10.00">+ TrailParticleSystem_TP</text>
<text text-anchor="start" x="693" y="-224.5" font-family="Helvetica,sans-Serif" font-size="10.00">+ DataAsset</text>
<text text-anchor="start" x="693" y="-213.5" font-family="Helvetica,sans-Serif" font-size="10.00">+ CanUseWeaponToBlock</text>
<text text-anchor="start" x="693" y="-202.5" font-family="Helvetica,sans-Serif" font-size="10.00">+ UnknownData01</text>
<text text-anchor="start" x="693" y="-191.5" font-family="Helvetica,sans-Serif" font-size="10.00">+ MaxAcceptableAttackTimeStamp</text>
<text text-anchor="start" x="693" y="-180.5" font-family="Helvetica,sans-Serif" font-size="10.00">Delta</text>
<text text-anchor="start" x="693" y="-169.5" font-family="Helvetica,sans-Serif" font-size="10.00">+ MaxAcceptableAttackLocation</text>
<text text-anchor="start" x="693" y="-158.5" font-family="Helvetica,sans-Serif" font-size="10.00">Delta</text>
<text text-anchor="start" x="693" y="-147.5" font-family="Helvetica,sans-Serif" font-size="10.00">+ MaxAcceptableAttackLocation</text>
<text text-anchor="start" x="693" y="-136.5" font-family="Helvetica,sans-Serif" font-size="10.00">OnShipDelta</text>
<text text-anchor="start" x="693" y="-125.5" font-family="Helvetica,sans-Serif" font-size="10.00">+ MaxAcceptableAttackShipVelocity</text>
<text text-anchor="start" x="693" y="-114.5" font-family="Helvetica,sans-Serif" font-size="10.00">ForLocation</text>
<text text-anchor="start" x="693" y="-103.5" font-family="Helvetica,sans-Serif" font-size="10.00">+ WieldersAttackProcessor</text>
<text text-anchor="start" x="693" y="-92.5" font-family="Helvetica,sans-Serif" font-size="10.00">+ UnknownData02</text>
<polyline fill="none" stroke="black" points="685,-85.5 861,-85.5 "/>
<text text-anchor="start" x="693" y="-73.5" font-family="Helvetica,sans-Serif" font-size="10.00">+ Server_RequestAttack()</text>
<text text-anchor="start" x="693" y="-62.5" font-family="Helvetica,sans-Serif" font-size="10.00">+ OnBlockedAttack()</text>
<text text-anchor="start" x="693" y="-51.5" font-family="Helvetica,sans-Serif" font-size="10.00">+ Multicast_TriggerAttack()</text>
<text text-anchor="start" x="693" y="-40.5" font-family="Helvetica,sans-Serif" font-size="10.00">+ Client_RequestAttackResponse()</text>
<text text-anchor="start" x="693" y="-29.5" font-family="Helvetica,sans-Serif" font-size="10.00">+ StaticClass()</text>
</a>
</g>
</g>
<!-- Node1&#45;&gt;Node18 -->
<g id="edge6" class="edge"><title>Node1&#45;&gt;Node18</title>
<path fill="none" stroke="midnightblue" d="M1439.06,-392.755C1269.26,-384.164 916.877,-362.958 870,-333 860.178,-326.723 851.229,-319.069 843.097,-310.531"/>
<polygon fill="none" stroke="midnightblue" points="1439.07,-396.259 1449.23,-393.265 1439.42,-389.268 1439.07,-396.259"/>
</g>
<!-- Node19 -->
<g id="node8" class="node"><title>Node19</title>
<g id="a_node8"><a xlink:href="a06583.html" target="_top" xlink:title=" ">
<polygon fill="none" stroke="black" points="879.5,-6 879.5,-327 1054.5,-327 1054.5,-6 879.5,-6"/>
<text text-anchor="middle" x="967" y="-315" font-family="Helvetica,sans-Serif" font-size="10.00">SDK::AShovel</text>
<polyline fill="none" stroke="black" points="879.5,-308 1054.5,-308 "/>
<text text-anchor="start" x="887.5" y="-296" font-family="Helvetica,sans-Serif" font-size="10.00">+ InventoryItem</text>
<text text-anchor="start" x="887.5" y="-285" font-family="Helvetica,sans-Serif" font-size="10.00">+ DigAnimParams</text>
<text text-anchor="start" x="887.5" y="-274" font-family="Helvetica,sans-Serif" font-size="10.00">+ ShovelEnterSurfaceSfx</text>
<text text-anchor="start" x="887.5" y="-263" font-family="Helvetica,sans-Serif" font-size="10.00">+ ShovelExitSurfaceSfx</text>
<text text-anchor="start" x="887.5" y="-252" font-family="Helvetica,sans-Serif" font-size="10.00">+ HitBuriedChestSfx</text>
<text text-anchor="start" x="887.5" y="-241" font-family="Helvetica,sans-Serif" font-size="10.00">+ DigRequestToleranceTimeOn</text>
<text text-anchor="start" x="887.5" y="-230" font-family="Helvetica,sans-Serif" font-size="10.00">Server</text>
<text text-anchor="start" x="887.5" y="-219" font-family="Helvetica,sans-Serif" font-size="10.00">+ CameraPitchAfterSuccessful</text>
<text text-anchor="start" x="887.5" y="-208" font-family="Helvetica,sans-Serif" font-size="10.00">DigIfStartedHigh</text>
<text text-anchor="start" x="887.5" y="-197" font-family="Helvetica,sans-Serif" font-size="10.00">+ CameraPitchAfterSuccessful</text>
<text text-anchor="start" x="887.5" y="-186" font-family="Helvetica,sans-Serif" font-size="10.00">DigIfStartedLow</text>
<text text-anchor="start" x="887.5" y="-175" font-family="Helvetica,sans-Serif" font-size="10.00">+ CameraPitchAfterDeflected</text>
<text text-anchor="start" x="887.5" y="-164" font-family="Helvetica,sans-Serif" font-size="10.00">DigIfStartedHigh</text>
<text text-anchor="start" x="887.5" y="-153" font-family="Helvetica,sans-Serif" font-size="10.00">+ CameraPitchAfterDeflected</text>
<text text-anchor="start" x="887.5" y="-142" font-family="Helvetica,sans-Serif" font-size="10.00">DigIfStartedLow</text>
<text text-anchor="start" x="887.5" y="-131" font-family="Helvetica,sans-Serif" font-size="10.00">+ ShovelHeadSocketName</text>
<text text-anchor="start" x="887.5" y="-120" font-family="Helvetica,sans-Serif" font-size="10.00">+ UnknownData00</text>
<text text-anchor="start" x="887.5" y="-109" font-family="Helvetica,sans-Serif" font-size="10.00">+ NamedNotificationInputComponent</text>
<text text-anchor="start" x="887.5" y="-98" font-family="Helvetica,sans-Serif" font-size="10.00">+ ActorBeingDugClass</text>
<text text-anchor="start" x="887.5" y="-87" font-family="Helvetica,sans-Serif" font-size="10.00">+ UnknownData01</text>
<polyline fill="none" stroke="black" points="879.5,-80 1054.5,-80 "/>
<text text-anchor="start" x="887.5" y="-68" font-family="Helvetica,sans-Serif" font-size="10.00">+ Server_RequestDigRPC()</text>
<text text-anchor="start" x="887.5" y="-57" font-family="Helvetica,sans-Serif" font-size="10.00">+ Multicast_DigRPC()</text>
<text text-anchor="start" x="887.5" y="-46" font-family="Helvetica,sans-Serif" font-size="10.00">+ GetShouldWielderBeLocked()</text>
<text text-anchor="start" x="887.5" y="-35" font-family="Helvetica,sans-Serif" font-size="10.00">+ GetLastKnownDigTypeOnServer()</text>
<text text-anchor="start" x="887.5" y="-24" font-family="Helvetica,sans-Serif" font-size="10.00">+ GetCurrentDigType()</text>
<text text-anchor="start" x="887.5" y="-13" font-family="Helvetica,sans-Serif" font-size="10.00">+ StaticClass()</text>
</a>
</g>
</g>
<!-- Node1&#45;&gt;Node19 -->
<g id="edge7" class="edge"><title>Node1&#45;&gt;Node19</title>
<path fill="none" stroke="midnightblue" d="M1438.96,-393.894C1320.83,-388.295 1122.77,-373.078 1063,-333 1060.1,-331.058 1057.28,-328.996 1054.54,-326.829"/>
<polygon fill="none" stroke="midnightblue" points="1438.93,-397.396 1449.08,-394.36 1439.25,-390.404 1438.93,-397.396"/>
</g>
<!-- Node20 -->
<g id="node9" class="node"><title>Node20</title>
<g id="a_node9"><a xlink:href="a08327.html" target="_top" xlink:title=" ">
<polygon fill="none" stroke="black" points="1072.5,-105 1072.5,-228 1247.5,-228 1247.5,-105 1072.5,-105"/>
<text text-anchor="middle" x="1160" y="-216" font-family="Helvetica,sans-Serif" font-size="10.00">SDK::ASpeakingTrumpet</text>
<polyline fill="none" stroke="black" points="1072.5,-209 1247.5,-209 "/>
<text text-anchor="start" x="1080.5" y="-197" font-family="Helvetica,sans-Serif" font-size="10.00">+ VoiceAttenuationScaler</text>
<text text-anchor="start" x="1080.5" y="-186" font-family="Helvetica,sans-Serif" font-size="10.00">+ NonVerbalBroadcastRadius</text>
<text text-anchor="start" x="1080.5" y="-175" font-family="Helvetica,sans-Serif" font-size="10.00">Scaler</text>
<text text-anchor="start" x="1080.5" y="-164" font-family="Helvetica,sans-Serif" font-size="10.00">+ InventoryItem</text>
<text text-anchor="start" x="1080.5" y="-153" font-family="Helvetica,sans-Serif" font-size="10.00">+ NamedNotificationInputComponent</text>
<text text-anchor="start" x="1080.5" y="-142" font-family="Helvetica,sans-Serif" font-size="10.00">+ UsableWieldableComponent</text>
<text text-anchor="start" x="1080.5" y="-131" font-family="Helvetica,sans-Serif" font-size="10.00">+ UnknownData00</text>
<polyline fill="none" stroke="black" points="1072.5,-124 1247.5,-124 "/>
<text text-anchor="start" x="1080.5" y="-112" font-family="Helvetica,sans-Serif" font-size="10.00">+ StaticClass()</text>
</a>
</g>
</g>
<!-- Node1&#45;&gt;Node20 -->
<g id="edge8" class="edge"><title>Node1&#45;&gt;Node20</title>
<path fill="none" stroke="midnightblue" d="M1439.11,-393.656C1382.04,-387.484 1309.57,-371.775 1257,-333 1221.62,-306.907 1196.94,-263.721 1181.32,-228.006"/>
<polygon fill="none" stroke="midnightblue" points="1438.91,-397.153 1449.21,-394.667 1439.61,-390.188 1438.91,-397.153"/>
</g>
<!-- Node21 -->
<g id="node10" class="node"><title>Node21</title>
<g id="a_node10"><a xlink:href="a08939.html" target="_top" xlink:title=" ">
<polygon fill="none" stroke="black" points="1266,-33.5 1266,-299.5 1434,-299.5 1434,-33.5 1266,-33.5"/>
<text text-anchor="middle" x="1350" y="-287.5" font-family="Helvetica,sans-Serif" font-size="10.00">SDK::ATankard</text>
<polyline fill="none" stroke="black" points="1266,-280.5 1434,-280.5 "/>
<text text-anchor="start" x="1274" y="-268.5" font-family="Helvetica,sans-Serif" font-size="10.00">+ UnknownData00</text>
<text text-anchor="start" x="1274" y="-257.5" font-family="Helvetica,sans-Serif" font-size="10.00">+ InventoryItem</text>
<text text-anchor="start" x="1274" y="-246.5" font-family="Helvetica,sans-Serif" font-size="10.00">+ StartDrinkingSfx</text>
<text text-anchor="start" x="1274" y="-235.5" font-family="Helvetica,sans-Serif" font-size="10.00">+ StopDrinkingSfx</text>
<text text-anchor="start" x="1274" y="-224.5" font-family="Helvetica,sans-Serif" font-size="10.00">+ SfxRefill</text>
<text text-anchor="start" x="1274" y="-213.5" font-family="Helvetica,sans-Serif" font-size="10.00">+ SfxTankardOnRaised</text>
<text text-anchor="start" x="1274" y="-202.5" font-family="Helvetica,sans-Serif" font-size="10.00">+ SfxTankardOnEquipWhenFull</text>
<text text-anchor="start" x="1274" y="-191.5" font-family="Helvetica,sans-Serif" font-size="10.00">Override</text>
<text text-anchor="start" x="1274" y="-180.5" font-family="Helvetica,sans-Serif" font-size="10.00">+ SfxTankardOnUnequipWhenFull</text>
<text text-anchor="start" x="1274" y="-169.5" font-family="Helvetica,sans-Serif" font-size="10.00">Override</text>
<text text-anchor="start" x="1274" y="-158.5" font-family="Helvetica,sans-Serif" font-size="10.00">+ SfxTankardSloshOnLanding</text>
<text text-anchor="start" x="1274" y="-147.5" font-family="Helvetica,sans-Serif" font-size="10.00">AfterJump</text>
<text text-anchor="start" x="1274" y="-136.5" font-family="Helvetica,sans-Serif" font-size="10.00">+ SfxTankardSloshOnFootstep</text>
<text text-anchor="start" x="1274" y="-125.5" font-family="Helvetica,sans-Serif" font-size="10.00">and 12 more...</text>
<polyline fill="none" stroke="black" points="1266,-118.5 1434,-118.5 "/>
<text text-anchor="start" x="1274" y="-106.5" font-family="Helvetica,sans-Serif" font-size="10.00">+ SetLiquidLevel()</text>
<text text-anchor="start" x="1274" y="-95.5" font-family="Helvetica,sans-Serif" font-size="10.00">+ OnRep_RemainingVolume()</text>
<text text-anchor="start" x="1274" y="-84.5" font-family="Helvetica,sans-Serif" font-size="10.00">+ GetWantedLiquidLevel()</text>
<text text-anchor="start" x="1274" y="-73.5" font-family="Helvetica,sans-Serif" font-size="10.00">+ GetMaxLiquidCollectionAmount()</text>
<text text-anchor="start" x="1274" y="-62.5" font-family="Helvetica,sans-Serif" font-size="10.00">+ GetLiquidLevel()</text>
<text text-anchor="start" x="1274" y="-51.5" font-family="Helvetica,sans-Serif" font-size="10.00">+ CollectLiquidAmount()</text>
<text text-anchor="start" x="1274" y="-40.5" font-family="Helvetica,sans-Serif" font-size="10.00">+ StaticClass()</text>
</a>
</g>
</g>
<!-- Node1&#45;&gt;Node21 -->
<g id="edge9" class="edge"><title>Node1&#45;&gt;Node21</title>
<path fill="none" stroke="midnightblue" d="M1476.73,-363.37C1464.8,-354.388 1452.79,-344.069 1443,-333 1433.94,-322.756 1425.37,-311.483 1417.37,-299.786"/>
<polygon fill="none" stroke="midnightblue" points="1474.81,-366.301 1484.95,-369.368 1478.94,-360.646 1474.81,-366.301"/>
</g>
<!-- Node22 -->
<g id="node11" class="node"><title>Node22</title>
<g id="a_node11"><a xlink:href="a09095.html" target="_top" xlink:title=" ">
<polygon fill="none" stroke="black" points="1452.5,-138 1452.5,-195 1607.5,-195 1607.5,-138 1452.5,-138"/>
<text text-anchor="middle" x="1530" y="-183" font-family="Helvetica,sans-Serif" font-size="10.00">SDK::ATestObscuringItemActor</text>
<polyline fill="none" stroke="black" points="1452.5,-176 1607.5,-176 "/>
<text text-anchor="start" x="1460.5" y="-164" font-family="Helvetica,sans-Serif" font-size="10.00">+ UnknownData00</text>
<polyline fill="none" stroke="black" points="1452.5,-157 1607.5,-157 "/>
<text text-anchor="start" x="1460.5" y="-145" font-family="Helvetica,sans-Serif" font-size="10.00">+ StaticClass()</text>
</a>
</g>
</g>
<!-- Node1&#45;&gt;Node22 -->
<g id="edge10" class="edge"><title>Node1&#45;&gt;Node22</title>
<path fill="none" stroke="midnightblue" d="M1530,-359.133C1530,-313.029 1530,-236.262 1530,-195.281"/>
<polygon fill="none" stroke="midnightblue" points="1526.5,-359.317 1530,-369.317 1533.5,-359.317 1526.5,-359.317"/>
</g>
<!-- Node23 -->
<g id="node12" class="node"><title>Node23</title>
<g id="a_node12"><a xlink:href="a09151.html" target="_top" xlink:title=" ">
<polygon fill="none" stroke="black" points="1625.5,-132.5 1625.5,-200.5 1762.5,-200.5 1762.5,-132.5 1625.5,-132.5"/>
<text text-anchor="start" x="1633.5" y="-188.5" font-family="Helvetica,sans-Serif" font-size="10.00">SDK::ATestStaticWieldable</text>
<text text-anchor="middle" x="1694" y="-177.5" font-family="Helvetica,sans-Serif" font-size="10.00">InventoryItem</text>
<polyline fill="none" stroke="black" points="1625.5,-170.5 1762.5,-170.5 "/>
<text text-anchor="middle" x="1694" y="-158.5" font-family="Helvetica,sans-Serif" font-size="10.00"> </text>
<polyline fill="none" stroke="black" points="1625.5,-151.5 1762.5,-151.5 "/>
<text text-anchor="start" x="1633.5" y="-139.5" font-family="Helvetica,sans-Serif" font-size="10.00">+ StaticClass()</text>
</a>
</g>
</g>
<!-- Node1&#45;&gt;Node23 -->
<g id="edge11" class="edge"><title>Node1&#45;&gt;Node23</title>
<path fill="none" stroke="midnightblue" d="M1584.62,-363.338C1596.28,-354.463 1607.83,-344.199 1617,-333 1649.92,-292.785 1672.26,-236.174 1684.07,-200.679"/>
<polygon fill="none" stroke="midnightblue" points="1582.55,-360.516 1576.56,-369.254 1586.69,-366.16 1582.55,-360.516"/>
</g>
<!-- Node24 -->
<g id="node13" class="node"><title>Node24</title>
<g id="a_node13"><a xlink:href="a09183.html" target="_top" xlink:title=" ">
<polygon fill="none" stroke="red" points="1781,-132.5 1781,-200.5 1913,-200.5 1913,-132.5 1781,-132.5"/>
<text text-anchor="middle" x="1847" y="-188.5" font-family="Helvetica,sans-Serif" font-size="10.00">SDK::ATestWieldableItem</text>
<polyline fill="none" stroke="red" points="1781,-181.5 1913,-181.5 "/>
<text text-anchor="start" x="1789" y="-169.5" font-family="Helvetica,sans-Serif" font-size="10.00">+ InventoryItemComponent</text>
<text text-anchor="start" x="1789" y="-158.5" font-family="Helvetica,sans-Serif" font-size="10.00">+ UnknownData00</text>
<polyline fill="none" stroke="red" points="1781,-151.5 1913,-151.5 "/>
<text text-anchor="start" x="1789" y="-139.5" font-family="Helvetica,sans-Serif" font-size="10.00">+ StaticClass()</text>
</a>
</g>
</g>
<!-- Node1&#45;&gt;Node24 -->
<g id="edge12" class="edge"><title>Node1&#45;&gt;Node24</title>
<path fill="none" stroke="midnightblue" d="M1620.86,-391.693C1670.41,-384.548 1730.01,-368.506 1772,-333 1812.47,-298.781 1832.12,-238.2 1840.85,-200.593"/>
<polygon fill="none" stroke="midnightblue" points="1620.22,-388.248 1610.77,-393.047 1621.15,-395.186 1620.22,-388.248"/>
</g>
<!-- Node26 -->
<g id="node14" class="node"><title>Node26</title>
<g id="a_node14"><a xlink:href="a09463.html" target="_top" xlink:title=" ">
<polygon fill="none" stroke="black" points="1931,-116 1931,-217 2069,-217 2069,-116 1931,-116"/>
<text text-anchor="start" x="1939" y="-205" font-family="Helvetica,sans-Serif" font-size="10.00">SDK::AVoyageInAContainer</text>
<text text-anchor="middle" x="2000" y="-194" font-family="Helvetica,sans-Serif" font-size="10.00">WieldableItem</text>
<polyline fill="none" stroke="black" points="1931,-187 2069,-187 "/>
<text text-anchor="start" x="1939" y="-175" font-family="Helvetica,sans-Serif" font-size="10.00">+ UnknownData00</text>
<text text-anchor="start" x="1939" y="-164" font-family="Helvetica,sans-Serif" font-size="10.00">+ OnOpenedSfx</text>
<text text-anchor="start" x="1939" y="-153" font-family="Helvetica,sans-Serif" font-size="10.00">+ UnknownData01</text>
<polyline fill="none" stroke="black" points="1931,-146 2069,-146 "/>
<text text-anchor="start" x="1939" y="-134" font-family="Helvetica,sans-Serif" font-size="10.00">+ Multicast_Opened()</text>
<text text-anchor="start" x="1939" y="-123" font-family="Helvetica,sans-Serif" font-size="10.00">+ StaticClass()</text>
</a>
</g>
</g>
<!-- Node1&#45;&gt;Node26 -->
<g id="edge13" class="edge"><title>Node1&#45;&gt;Node26</title>
<path fill="none" stroke="midnightblue" d="M1620.76,-391.872C1721.42,-384.535 1875.76,-367.871 1922,-333 1959.15,-304.983 1979.33,-254.833 1989.79,-217.057"/>
<polygon fill="none" stroke="midnightblue" points="1620.31,-388.395 1610.58,-392.595 1620.8,-395.377 1620.31,-388.395"/>
</g>
<!-- Node27 -->
<g id="node15" class="node"><title>Node27</title>
<g id="a_node15"><a xlink:href="a09667.html" target="_top" xlink:title=" ">
<polygon fill="none" stroke="red" points="2087,-127 2087,-206 2227,-206 2227,-127 2087,-127"/>
<text text-anchor="middle" x="2157" y="-194" font-family="Helvetica,sans-Serif" font-size="10.00">SDK::AWieldableMockActor</text>
<polyline fill="none" stroke="red" points="2087,-187 2227,-187 "/>
<text text-anchor="start" x="2095" y="-175" font-family="Helvetica,sans-Serif" font-size="10.00">+ UnknownData00</text>
<text text-anchor="start" x="2095" y="-164" font-family="Helvetica,sans-Serif" font-size="10.00">+ InventoryItem</text>
<text text-anchor="start" x="2095" y="-153" font-family="Helvetica,sans-Serif" font-size="10.00">+ UnknownData01</text>
<polyline fill="none" stroke="red" points="2087,-146 2227,-146 "/>
<text text-anchor="start" x="2095" y="-134" font-family="Helvetica,sans-Serif" font-size="10.00">+ StaticClass()</text>
</a>
</g>
</g>
<!-- Node1&#45;&gt;Node27 -->
<g id="edge14" class="edge"><title>Node1&#45;&gt;Node27</title>
<path fill="none" stroke="midnightblue" d="M1620.78,-396.794C1757.19,-394.787 2006.69,-383.997 2078,-333 2119.82,-303.088 2140.32,-245.05 2149.75,-206.278"/>
<polygon fill="none" stroke="midnightblue" points="1620.71,-393.295 1610.75,-396.929 1620.8,-400.294 1620.71,-393.295"/>
</g>
<!-- Node29 -->
<g id="node16" class="node"><title>Node29</title>
<g id="a_node16"><a xlink:href="a09679.html" target="_top" xlink:title=" ">
<polygon fill="none" stroke="black" points="2245.5,-132.5 2245.5,-200.5 2394.5,-200.5 2394.5,-132.5 2245.5,-132.5"/>
<text text-anchor="start" x="2253.5" y="-188.5" font-family="Helvetica,sans-Serif" font-size="10.00">SDK::AWieldableNonStowable</text>
<text text-anchor="middle" x="2320" y="-177.5" font-family="Helvetica,sans-Serif" font-size="10.00">MockItem</text>
<polyline fill="none" stroke="black" points="2245.5,-170.5 2394.5,-170.5 "/>
<text text-anchor="middle" x="2320" y="-158.5" font-family="Helvetica,sans-Serif" font-size="10.00"> </text>
<polyline fill="none" stroke="black" points="2245.5,-151.5 2394.5,-151.5 "/>
<text text-anchor="start" x="2253.5" y="-139.5" font-family="Helvetica,sans-Serif" font-size="10.00">+ StaticClass()</text>
</a>
</g>
</g>
<!-- Node1&#45;&gt;Node29 -->
<g id="edge15" class="edge"><title>Node1&#45;&gt;Node29</title>
<path fill="none" stroke="midnightblue" d="M1620.76,-393.644C1799.94,-386.318 2186.16,-366.788 2236,-333 2281.34,-302.262 2303.5,-239.366 2313.28,-200.577"/>
<polygon fill="none" stroke="midnightblue" points="1620.41,-390.155 1610.56,-394.057 1620.7,-397.15 1620.41,-390.155"/>
</g>
<!-- Node30 -->
<g id="node17" class="node"><title>Node30</title>
<g id="a_node17"><a xlink:href="a09675.html" target="_top" xlink:title=" ">
<polygon fill="none" stroke="black" points="2413,-132.5 2413,-200.5 2553,-200.5 2553,-132.5 2413,-132.5"/>
<text text-anchor="start" x="2421" y="-188.5" font-family="Helvetica,sans-Serif" font-size="10.00">SDK::AWieldableOtherMock</text>
<text text-anchor="middle" x="2483" y="-177.5" font-family="Helvetica,sans-Serif" font-size="10.00">Actor</text>
<polyline fill="none" stroke="black" points="2413,-170.5 2553,-170.5 "/>
<text text-anchor="start" x="2421" y="-158.5" font-family="Helvetica,sans-Serif" font-size="10.00">+ UnknownData00</text>
<polyline fill="none" stroke="black" points="2413,-151.5 2553,-151.5 "/>
<text text-anchor="start" x="2421" y="-139.5" font-family="Helvetica,sans-Serif" font-size="10.00">+ StaticClass()</text>
</a>
</g>
</g>
<!-- Node1&#45;&gt;Node30 -->
<g id="edge16" class="edge"><title>Node1&#45;&gt;Node30</title>
<path fill="none" stroke="midnightblue" d="M1620.81,-395.463C1831.5,-391.176 2340.46,-376.403 2404,-333 2448.69,-302.471 2468.87,-239.507 2477.38,-200.647"/>
<polygon fill="none" stroke="midnightblue" points="1620.63,-391.966 1610.71,-395.665 1620.77,-398.964 1620.63,-391.966"/>
</g>
<!-- Node31 -->
<g id="node18" class="node"><title>Node31</title>
<g id="a_node18"><a xlink:href="a09691.html" target="_top" xlink:title=" ">
<polygon fill="none" stroke="black" points="2571,-138 2571,-195 2723,-195 2723,-138 2571,-138"/>
<text text-anchor="middle" x="2647" y="-183" font-family="Helvetica,sans-Serif" font-size="10.00">SDK::AWieldableWeaponMock</text>
<polyline fill="none" stroke="black" points="2571,-176 2723,-176 "/>
<text text-anchor="middle" x="2647" y="-164" font-family="Helvetica,sans-Serif" font-size="10.00"> </text>
<polyline fill="none" stroke="black" points="2571,-157 2723,-157 "/>
<text text-anchor="start" x="2579" y="-145" font-family="Helvetica,sans-Serif" font-size="10.00">+ StaticClass()</text>
</a>
</g>
</g>
<!-- Node1&#45;&gt;Node31 -->
<g id="edge17" class="edge"><title>Node1&#45;&gt;Node31</title>
<path fill="none" stroke="midnightblue" d="M1621.09,-396.445C1858.7,-394.288 2484.33,-383.793 2562,-333 2610.25,-301.445 2632.54,-233.431 2641.61,-195.144"/>
<polygon fill="none" stroke="midnightblue" points="1620.73,-392.948 1610.76,-396.536 1620.79,-399.948 1620.73,-392.948"/>
</g>
<!-- Node32 -->
<g id="node19" class="node"><title>Node32</title>
<g id="a_node19"><a xlink:href="a09699.html" target="_top" xlink:title=" ">
<polygon fill="none" stroke="black" points="2741,-132.5 2741,-200.5 2863,-200.5 2863,-132.5 2741,-132.5"/>
<text text-anchor="middle" x="2802" y="-188.5" font-family="Helvetica,sans-Serif" font-size="10.00">SDK::AWoodPlank</text>
<polyline fill="none" stroke="black" points="2741,-181.5 2863,-181.5 "/>
<text text-anchor="start" x="2749" y="-169.5" font-family="Helvetica,sans-Serif" font-size="10.00">+ InventoryItem</text>
<text text-anchor="start" x="2749" y="-158.5" font-family="Helvetica,sans-Serif" font-size="10.00">+ ConsumableWieldable</text>
<polyline fill="none" stroke="black" points="2741,-151.5 2863,-151.5 "/>
<text text-anchor="start" x="2749" y="-139.5" font-family="Helvetica,sans-Serif" font-size="10.00">+ StaticClass()</text>
</a>
</g>
</g>
<!-- Node1&#45;&gt;Node32 -->
<g id="edge18" class="edge"><title>Node1&#45;&gt;Node32</title>
<path fill="none" stroke="midnightblue" d="M1621.18,-397.637C1885.97,-398.732 2641.9,-396.229 2732,-333 2775.41,-302.534 2792.04,-239.549 2798.31,-200.669"/>
<polygon fill="none" stroke="midnightblue" points="1620.85,-394.136 1610.84,-397.592 1620.82,-401.136 1620.85,-394.136"/>
</g>
<!-- Node2 -->
<g id="node2" class="node"><title>Node2</title>
<g id="a_node2"><a xlink:href="a00607.html" target="_top" xlink:title=" ">
<polygon fill="none" stroke="red" points="1445,-463.5 1445,-751.5 1615,-751.5 1615,-463.5 1445,-463.5"/>
<text text-anchor="middle" x="1530" y="-739.5" font-family="Helvetica,sans-Serif" font-size="10.00">SDK::AWieldableItem</text>
<polyline fill="none" stroke="red" points="1445,-732.5 1615,-732.5 "/>
<text text-anchor="start" x="1453" y="-720.5" font-family="Helvetica,sans-Serif" font-size="10.00">+ UnknownData00</text>
<text text-anchor="start" x="1453" y="-709.5" font-family="Helvetica,sans-Serif" font-size="10.00">+ FirstPersonMesh</text>
<text text-anchor="start" x="1453" y="-698.5" font-family="Helvetica,sans-Serif" font-size="10.00">+ ThirdPersonMesh</text>
<text text-anchor="start" x="1453" y="-687.5" font-family="Helvetica,sans-Serif" font-size="10.00">+ ActionRulesComponent</text>
<text text-anchor="start" x="1453" y="-676.5" font-family="Helvetica,sans-Serif" font-size="10.00">+ AnimationKey</text>
<text text-anchor="start" x="1453" y="-665.5" font-family="Helvetica,sans-Serif" font-size="10.00">+ MessagingDispatcher</text>
<text text-anchor="start" x="1453" y="-654.5" font-family="Helvetica,sans-Serif" font-size="10.00">+ AnimationOffset</text>
<text text-anchor="start" x="1453" y="-643.5" font-family="Helvetica,sans-Serif" font-size="10.00">+ EquipSfx</text>
<text text-anchor="start" x="1453" y="-632.5" font-family="Helvetica,sans-Serif" font-size="10.00">+ UnequipSfx</text>
<text text-anchor="start" x="1453" y="-621.5" font-family="Helvetica,sans-Serif" font-size="10.00">+ WielderLandedJumpSfx</text>
<text text-anchor="start" x="1453" y="-610.5" font-family="Helvetica,sans-Serif" font-size="10.00">and 29 more...</text>
<polyline fill="none" stroke="red" points="1445,-603.5 1615,-603.5 "/>
<text text-anchor="start" x="1453" y="-591.5" font-family="Helvetica,sans-Serif" font-size="10.00">+ SetItemWwiseSwitch()</text>
<text text-anchor="start" x="1453" y="-580.5" font-family="Helvetica,sans-Serif" font-size="10.00">+ SetItemWwiseRTPC()</text>
<text text-anchor="start" x="1453" y="-569.5" font-family="Helvetica,sans-Serif" font-size="10.00">+ PostItemWwiseEvent()</text>
<text text-anchor="start" x="1453" y="-558.5" font-family="Helvetica,sans-Serif" font-size="10.00">+ OnWielderHasLandedFromJump</text>
<text text-anchor="start" x="1453" y="-547.5" font-family="Helvetica,sans-Serif" font-size="10.00">BPImpl()</text>
<text text-anchor="start" x="1453" y="-536.5" font-family="Helvetica,sans-Serif" font-size="10.00">+ IsUnderwater()</text>
<text text-anchor="start" x="1453" y="-525.5" font-family="Helvetica,sans-Serif" font-size="10.00">+ GetWielder()</text>
<text text-anchor="start" x="1453" y="-514.5" font-family="Helvetica,sans-Serif" font-size="10.00">+ GetWieldedItemAnimationOffset()</text>
<text text-anchor="start" x="1453" y="-503.5" font-family="Helvetica,sans-Serif" font-size="10.00">+ GetWieldableItemSize()</text>
<text text-anchor="start" x="1453" y="-492.5" font-family="Helvetica,sans-Serif" font-size="10.00">+ GetLastKnownWielder()</text>
<text text-anchor="start" x="1453" y="-481.5" font-family="Helvetica,sans-Serif" font-size="10.00">+ GetIsFirstPerson()</text>
<text text-anchor="start" x="1453" y="-470.5" font-family="Helvetica,sans-Serif" font-size="10.00">+ StaticClass()</text>
</a>
</g>
</g>
<!-- Node2&#45;&gt;Node1 -->
<g id="edge1" class="edge"><title>Node2&#45;&gt;Node1</title>
<path fill="none" stroke="midnightblue" d="M1530,-453.174C1530,-443.354 1530,-434.309 1530,-426.536"/>
<polygon fill="none" stroke="midnightblue" points="1526.5,-453.233 1530,-463.233 1533.5,-453.233 1526.5,-453.233"/>
</g>
</g>
</svg>
        <g id="navigator" transform="translate(0 0)" fill="#404254">
                <rect fill="#f2f5e9" fill-opacity="0.5" stroke="#606060" stroke-width=".5" x="0" y="0" width="60" height="60"/>
                <use id="zoomplus" xlink:href="#zoomPlus" x="17" y="9" onmousedown="handleZoom(evt,'in')"/>
                <use id="zoomminus" xlink:href="#zoomMin" x="42" y="9" onmousedown="handleZoom(evt,'out')"/>
                <use id="reset" xlink:href="#resetDef" x="30" y="36" onmousedown="handleReset()"/>
                <g id="arrowUp" xlink:href="#dirArrow" transform="translate(30 24)" onmousedown="handlePan(0,-1)">
                  <use xlink:href="#rim" fill="#404040">
                        <set attributeName="fill" to="#808080" begin="arrowUp.mouseover" end="arrowUp.mouseout"/>
                  </use>
                  <path fill="none" stroke="white" stroke-width="1.5" d="M0,-3.0v7 M-2.5,-0.5L0,-3.0L2.5,-0.5"/>
                </g>
                <g id="arrowRight" xlink:href="#dirArrow" transform="rotate(90) translate(36 -43)" onmousedown="handlePan(1,0)">
                  <use xlink:href="#rim" fill="#404040">
                        <set attributeName="fill" to="#808080" begin="arrowRight.mouseover" end="arrowRight.mouseout"/>
                  </use>
                  <path fill="none" stroke="white" stroke-width="1.5" d="M0,-3.0v7 M-2.5,-0.5L0,-3.0L2.5,-0.5"/>
                </g>
                <g id="arrowDown" xlink:href="#dirArrow" transform="rotate(180) translate(-30 -48)" onmousedown="handlePan(0,1)">
                  <use xlink:href="#rim" fill="#404040">
                        <set attributeName="fill" to="#808080" begin="arrowDown.mouseover" end="arrowDown.mouseout"/>
                  </use>
                  <path fill="none" stroke="white" stroke-width="1.5" d="M0,-3.0v7 M-2.5,-0.5L0,-3.0L2.5,-0.5"/>
                </g>
                <g id="arrowLeft" xlink:href="#dirArrow" transform="rotate(270) translate(-36 17)" onmousedown="handlePan(-1,0)">
                  <use xlink:href="#rim" fill="#404040">
                        <set attributeName="fill" to="#808080" begin="arrowLeft.mouseover" end="arrowLeft.mouseout"/>
                  </use>
                  <path fill="none" stroke="white" stroke-width="1.5" d="M0,-3.0v7 M-2.5,-0.5L0,-3.0L2.5,-0.5"/>
                </g>
        </g>
        <svg viewBox="0 0 15 15" width="100%" height="30px" preserveAspectRatio="xMaxYMin meet">
         <g id="arrow_out" transform="scale(0.3 0.3)">
          <a xlink:href="a03146_org.svg" target="_base">
           <rect id="button" ry="5" rx="5" y="6" x="6" height="38" width="38"
                fill="#f2f5e9" fill-opacity="0.5" stroke="#606060" stroke-width="1.0"/>
           <path id="arrow"
             d="M 11.500037,31.436501 C 11.940474,20.09759 22.043105,11.32322 32.158766,21.979434 L 37.068811,17.246167 C 37.068811,17.246167 37.088388,32 37.088388,32 L 22.160133,31.978069 C 22.160133,31.978069 26.997745,27.140456 26.997745,27.140456 C 18.528582,18.264221 13.291696,25.230495 11.500037,31.436501 z"
             style="fill:#404040;"/>
          </a>
         </g>
        </svg>
</svg>
