<?xml version="1.0" encoding="UTF-8" standalone="no"?>
<!DOCTYPE svg PUBLIC "-//W3C//DTD SVG 1.1//EN"
 "http://www.w3.org/Graphics/SVG/1.1/DTD/svg11.dtd">
<!-- Generated by graphviz version 2.38.0 (20140413.2041)
 -->
<!-- Title: SDK::ALargeStaticMeshWieldableItem Pages: 1 -->
<!--zoomable 298 -->
<svg id="main" version="1.1" xmlns="http://www.w3.org/2000/svg" xmlns:xlink="http://www.w3.org/1999/xlink" xml:space="preserve" onload="init(evt)">
<style type="text/css"><![CDATA[
.edge:hover path { stroke: red; }
.edge:hover polygon { stroke: red; fill: red; }
]]></style>
<script type="text/javascript"><![CDATA[
var edges = document.getElementsByTagName('g');
if (edges && edges.length) {
  for (var i=0;i<edges.length;i++) {
    if (edges[i].id.substr(0,4)=='edge') {
      edges[i].setAttribute('class','edge');
    }
  }
}
]]></script>
        <defs>
                <circle id="rim" cx="0" cy="0" r="7"/>
                <circle id="rim2" cx="0" cy="0" r="3.5"/>
                <g id="zoomPlus">
                        <use xlink:href="#rim" fill="#404040">
                                <set attributeName="fill" to="#808080" begin="zoomplus.mouseover" end="zoomplus.mouseout"/>
                        </use>
                        <path d="M-4,0h8M0,-4v8" fill="none" stroke="white" stroke-width="1.5" pointer-events="none"/>
                </g>
                <g id="zoomMin">
                        <use xlink:href="#rim" fill="#404040">
                                <set attributeName="fill" to="#808080" begin="zoomminus.mouseover" end="zoomminus.mouseout"/>
                        </use>
                        <path d="M-4,0h8" fill="none" stroke="white" stroke-width="1.5" pointer-events="none"/>
                </g>
                <g id="dirArrow">
                        <path fill="none" stroke="white" stroke-width="1.5" d="M0,-3.0v7 M-2.5,-0.5L0,-3.0L2.5,-0.5"/>
                </g>
               <g id="resetDef">
                       <use xlink:href="#rim2" fill="#404040">
                               <set attributeName="fill" to="#808080" begin="reset.mouseover" end="reset.mouseout"/>
                       </use>
               </g>
        </defs>

<script type="text/javascript">
var viewWidth = 1121;
var viewHeight = 298;
var sectionId = 'dynsection-0';
</script>
<script xlink:href="svgpan.js"/>
<svg id="graph" class="graph">
<g id="viewport">
<title>SDK::ALargeStaticMeshWieldableItem</title>
<!-- Node1 -->
<g id="node1" class="node"><title>Node1</title>
<g id="a_node1"><a xlink:title=" ">
<polygon fill="#bfbfbf" stroke="black" points="449,-138.5 449,-195.5 634,-195.5 634,-138.5 449,-138.5"/>
<text text-anchor="middle" x="541.5" y="-183.5" font-family="Helvetica,sans-Serif" font-size="10.00">SDK::ALargeStaticMeshWieldableItem</text>
<polyline fill="none" stroke="black" points="449,-176.5 634,-176.5 "/>
<text text-anchor="middle" x="541.5" y="-164.5" font-family="Helvetica,sans-Serif" font-size="10.00"> </text>
<polyline fill="none" stroke="black" points="449,-157.5 634,-157.5 "/>
<text text-anchor="start" x="457" y="-145.5" font-family="Helvetica,sans-Serif" font-size="10.00">+ StaticClass()</text>
</a>
</g>
</g>
<!-- Node6 -->
<g id="node3" class="node"><title>Node6</title>
<g id="a_node3"><a xlink:href="a03323.html" target="_top" xlink:title=" ">
<polygon fill="none" stroke="black" points="0,-22.5 0,-79.5 113,-79.5 113,-22.5 0,-22.5"/>
<text text-anchor="middle" x="56.5" y="-67.5" font-family="Helvetica,sans-Serif" font-size="10.00">SDK::ABountyReward</text>
<polyline fill="none" stroke="black" points="0,-60.5 113,-60.5 "/>
<text text-anchor="middle" x="56.5" y="-48.5" font-family="Helvetica,sans-Serif" font-size="10.00"> </text>
<polyline fill="none" stroke="black" points="0,-41.5 113,-41.5 "/>
<text text-anchor="start" x="8" y="-29.5" font-family="Helvetica,sans-Serif" font-size="10.00">+ StaticClass()</text>
</a>
</g>
</g>
<!-- Node1&#45;&gt;Node6 -->
<g id="edge2" class="edge"><title>Node1&#45;&gt;Node6</title>
<path fill="none" stroke="midnightblue" d="M438.712,-164.325C351.456,-159.669 224.535,-145.134 122.5,-102 109.657,-96.5706 97.0704,-88.0772 86.3905,-79.6212"/>
<polygon fill="none" stroke="midnightblue" points="438.724,-167.83 448.886,-164.833 439.073,-160.839 438.724,-167.83"/>
</g>
<!-- Node7 -->
<g id="node4" class="node"><title>Node7</title>
<g id="a_node4"><a xlink:href="a12391.html" target="_top" xlink:title=" ">
<polygon fill="none" stroke="black" points="131.5,-0.5 131.5,-101.5 275.5,-101.5 275.5,-0.5 131.5,-0.5"/>
<text text-anchor="start" x="139.5" y="-89.5" font-family="Helvetica,sans-Serif" font-size="10.00">SDK::ACollectorsChestStatic</text>
<text text-anchor="middle" x="203.5" y="-78.5" font-family="Helvetica,sans-Serif" font-size="10.00">WieldableItem</text>
<polyline fill="none" stroke="black" points="131.5,-71.5 275.5,-71.5 "/>
<text text-anchor="start" x="139.5" y="-59.5" font-family="Helvetica,sans-Serif" font-size="10.00">+ UnknownData00</text>
<text text-anchor="start" x="139.5" y="-48.5" font-family="Helvetica,sans-Serif" font-size="10.00">+ OpenableItemComponent</text>
<text text-anchor="start" x="139.5" y="-37.5" font-family="Helvetica,sans-Serif" font-size="10.00">+ Slots</text>
<text text-anchor="start" x="139.5" y="-26.5" font-family="Helvetica,sans-Serif" font-size="10.00">+ UnknownData01</text>
<polyline fill="none" stroke="black" points="131.5,-19.5 275.5,-19.5 "/>
<text text-anchor="start" x="139.5" y="-7.5" font-family="Helvetica,sans-Serif" font-size="10.00">+ StaticClass()</text>
</a>
</g>
</g>
<!-- Node1&#45;&gt;Node7 -->
<g id="edge3" class="edge"><title>Node1&#45;&gt;Node7</title>
<path fill="none" stroke="midnightblue" d="M439.097,-148.087C391.041,-137.782 333.661,-122.701 284.5,-102 281.606,-100.781 278.696,-99.4684 275.787,-98.0815"/>
<polygon fill="none" stroke="midnightblue" points="438.384,-151.514 448.891,-150.149 439.826,-144.664 438.384,-151.514"/>
</g>
<!-- Node8 -->
<g id="node5" class="node"><title>Node8</title>
<g id="a_node5"><a xlink:href="a08179.html" target="_top" xlink:title=" ">
<polygon fill="none" stroke="black" points="294,-22.5 294,-79.5 451,-79.5 451,-22.5 294,-22.5"/>
<text text-anchor="middle" x="372.5" y="-67.5" font-family="Helvetica,sans-Serif" font-size="10.00">SDK::AShroudBreakerWieldable</text>
<polyline fill="none" stroke="black" points="294,-60.5 451,-60.5 "/>
<text text-anchor="middle" x="372.5" y="-48.5" font-family="Helvetica,sans-Serif" font-size="10.00"> </text>
<polyline fill="none" stroke="black" points="294,-41.5 451,-41.5 "/>
<text text-anchor="start" x="302" y="-29.5" font-family="Helvetica,sans-Serif" font-size="10.00">+ StaticClass()</text>
</a>
</g>
</g>
<!-- Node1&#45;&gt;Node8 -->
<g id="edge4" class="edge"><title>Node1&#45;&gt;Node8</title>
<path fill="none" stroke="midnightblue" d="M492.297,-132.81C467.224,-115.896 437.096,-95.5734 413.326,-79.5394"/>
<polygon fill="none" stroke="midnightblue" points="490.342,-135.713 500.59,-138.404 494.257,-129.91 490.342,-135.713"/>
</g>
<!-- Node9 -->
<g id="node6" class="node"><title>Node9</title>
<g id="a_node6"><a xlink:href="a03155.html" target="_top" xlink:title=" ">
<polygon fill="none" stroke="black" points="469,-6 469,-96 614,-96 614,-6 469,-6"/>
<text text-anchor="middle" x="541.5" y="-84" font-family="Helvetica,sans-Serif" font-size="10.00">SDK::AStaticMerchantCrate</text>
<polyline fill="none" stroke="black" points="469,-77 614,-77 "/>
<text text-anchor="start" x="477" y="-65" font-family="Helvetica,sans-Serif" font-size="10.00">+ FullCrateSfx</text>
<text text-anchor="start" x="477" y="-54" font-family="Helvetica,sans-Serif" font-size="10.00">+ MountpointInterface</text>
<text text-anchor="start" x="477" y="-43" font-family="Helvetica,sans-Serif" font-size="10.00">+ RequiresRewindComponent</text>
<text text-anchor="start" x="477" y="-32" font-family="Helvetica,sans-Serif" font-size="10.00">+ UnknownData00</text>
<polyline fill="none" stroke="black" points="469,-25 614,-25 "/>
<text text-anchor="start" x="477" y="-13" font-family="Helvetica,sans-Serif" font-size="10.00">+ StaticClass()</text>
</a>
</g>
</g>
<!-- Node1&#45;&gt;Node9 -->
<g id="edge5" class="edge"><title>Node1&#45;&gt;Node9</title>
<path fill="none" stroke="midnightblue" d="M541.5,-128.152C541.5,-117.93 541.5,-106.777 541.5,-96.2385"/>
<polygon fill="none" stroke="midnightblue" points="538,-128.404 541.5,-138.404 545,-128.404 538,-128.404"/>
</g>
<!-- Node10 -->
<g id="node7" class="node"><title>Node10</title>
<g id="a_node7"><a xlink:href="a08195.html" target="_top" xlink:title=" ">
<polygon fill="none" stroke="red" points="632.5,-22.5 632.5,-79.5 824.5,-79.5 824.5,-22.5 632.5,-22.5"/>
<text text-anchor="middle" x="728.5" y="-67.5" font-family="Helvetica,sans-Serif" font-size="10.00">SDK::AStaticSimpleBootyWieldableItem</text>
<polyline fill="none" stroke="red" points="632.5,-60.5 824.5,-60.5 "/>
<text text-anchor="middle" x="728.5" y="-48.5" font-family="Helvetica,sans-Serif" font-size="10.00"> </text>
<polyline fill="none" stroke="red" points="632.5,-41.5 824.5,-41.5 "/>
<text text-anchor="start" x="640.5" y="-29.5" font-family="Helvetica,sans-Serif" font-size="10.00">+ StaticClass()</text>
</a>
</g>
</g>
<!-- Node1&#45;&gt;Node10 -->
<g id="edge6" class="edge"><title>Node1&#45;&gt;Node10</title>
<path fill="none" stroke="midnightblue" d="M595.582,-133.03C623.397,-116.073 656.91,-95.6431 683.326,-79.5394"/>
<polygon fill="none" stroke="midnightblue" points="593.484,-130.21 586.767,-138.404 597.128,-136.187 593.484,-130.21"/>
</g>
<!-- Node12 -->
<g id="node8" class="node"><title>Node12</title>
<g id="a_node8"><a xlink:href="a08543.html" target="_top" xlink:title=" ">
<polygon fill="none" stroke="black" points="843,-22.5 843,-79.5 956,-79.5 956,-22.5 843,-22.5"/>
<text text-anchor="middle" x="899.5" y="-67.5" font-family="Helvetica,sans-Serif" font-size="10.00">SDK::AStrongholdKey</text>
<polyline fill="none" stroke="black" points="843,-60.5 956,-60.5 "/>
<text text-anchor="middle" x="899.5" y="-48.5" font-family="Helvetica,sans-Serif" font-size="10.00"> </text>
<polyline fill="none" stroke="black" points="843,-41.5 956,-41.5 "/>
<text text-anchor="start" x="851" y="-29.5" font-family="Helvetica,sans-Serif" font-size="10.00">+ StaticClass()</text>
</a>
</g>
</g>
<!-- Node1&#45;&gt;Node12 -->
<g id="edge7" class="edge"><title>Node1&#45;&gt;Node12</title>
<path fill="none" stroke="midnightblue" d="M644.421,-154.522C701.986,-145.417 773.924,-129.471 833.5,-102 845.902,-96.2816 858.188,-87.9218 868.736,-79.6685"/>
<polygon fill="none" stroke="midnightblue" points="643.567,-151.112 634.214,-156.089 644.629,-158.031 643.567,-151.112"/>
</g>
<!-- Node13 -->
<g id="node9" class="node"><title>Node13</title>
<g id="a_node9"><a xlink:href="a09231.html" target="_top" xlink:title=" ">
<polygon fill="none" stroke="black" points="974.5,-22.5 974.5,-79.5 1112.5,-79.5 1112.5,-22.5 974.5,-22.5"/>
<text text-anchor="middle" x="1043.5" y="-67.5" font-family="Helvetica,sans-Serif" font-size="10.00">SDK::ATreasureChestStatic</text>
<polyline fill="none" stroke="black" points="974.5,-60.5 1112.5,-60.5 "/>
<text text-anchor="middle" x="1043.5" y="-48.5" font-family="Helvetica,sans-Serif" font-size="10.00"> </text>
<polyline fill="none" stroke="black" points="974.5,-41.5 1112.5,-41.5 "/>
<text text-anchor="start" x="982.5" y="-29.5" font-family="Helvetica,sans-Serif" font-size="10.00">+ StaticClass()</text>
</a>
</g>
</g>
<!-- Node1&#45;&gt;Node13 -->
<g id="edge8" class="edge"><title>Node1&#45;&gt;Node13</title>
<path fill="none" stroke="midnightblue" d="M644.261,-162.488C732.054,-156.7 860.444,-141.534 965.5,-102 980.103,-96.5047 994.838,-87.9953 1007.51,-79.5449"/>
<polygon fill="none" stroke="midnightblue" points="643.788,-159.011 634.028,-163.133 644.228,-165.997 643.788,-159.011"/>
</g>
<!-- Node2 -->
<g id="node2" class="node"><title>Node2</title>
<g id="a_node2"><a xlink:href="a03147.html" target="_top" xlink:title=" ">
<polygon fill="none" stroke="red" points="461,-232.5 461,-289.5 622,-289.5 622,-232.5 461,-232.5"/>
<text text-anchor="middle" x="541.5" y="-277.5" font-family="Helvetica,sans-Serif" font-size="10.00">SDK::AStaticMeshWieldableItem</text>
<polyline fill="none" stroke="red" points="461,-270.5 622,-270.5 "/>
<text text-anchor="middle" x="541.5" y="-258.5" font-family="Helvetica,sans-Serif" font-size="10.00"> </text>
<polyline fill="none" stroke="red" points="461,-251.5 622,-251.5 "/>
<text text-anchor="start" x="469" y="-239.5" font-family="Helvetica,sans-Serif" font-size="10.00">+ StaticClass()</text>
</a>
</g>
</g>
<!-- Node2&#45;&gt;Node1 -->
<g id="edge1" class="edge"><title>Node2&#45;&gt;Node1</title>
<path fill="none" stroke="midnightblue" d="M541.5,-222.209C541.5,-213.293 541.5,-203.951 541.5,-195.584"/>
<polygon fill="none" stroke="midnightblue" points="538,-222.397 541.5,-232.397 545,-222.397 538,-222.397"/>
</g>
</g>
</svg>
        <g id="navigator" transform="translate(0 0)" fill="#404254">
                <rect fill="#f2f5e9" fill-opacity="0.5" stroke="#606060" stroke-width=".5" x="0" y="0" width="60" height="60"/>
                <use id="zoomplus" xlink:href="#zoomPlus" x="17" y="9" onmousedown="handleZoom(evt,'in')"/>
                <use id="zoomminus" xlink:href="#zoomMin" x="42" y="9" onmousedown="handleZoom(evt,'out')"/>
                <use id="reset" xlink:href="#resetDef" x="30" y="36" onmousedown="handleReset()"/>
                <g id="arrowUp" xlink:href="#dirArrow" transform="translate(30 24)" onmousedown="handlePan(0,-1)">
                  <use xlink:href="#rim" fill="#404040">
                        <set attributeName="fill" to="#808080" begin="arrowUp.mouseover" end="arrowUp.mouseout"/>
                  </use>
                  <path fill="none" stroke="white" stroke-width="1.5" d="M0,-3.0v7 M-2.5,-0.5L0,-3.0L2.5,-0.5"/>
                </g>
                <g id="arrowRight" xlink:href="#dirArrow" transform="rotate(90) translate(36 -43)" onmousedown="handlePan(1,0)">
                  <use xlink:href="#rim" fill="#404040">
                        <set attributeName="fill" to="#808080" begin="arrowRight.mouseover" end="arrowRight.mouseout"/>
                  </use>
                  <path fill="none" stroke="white" stroke-width="1.5" d="M0,-3.0v7 M-2.5,-0.5L0,-3.0L2.5,-0.5"/>
                </g>
                <g id="arrowDown" xlink:href="#dirArrow" transform="rotate(180) translate(-30 -48)" onmousedown="handlePan(0,1)">
                  <use xlink:href="#rim" fill="#404040">
                        <set attributeName="fill" to="#808080" begin="arrowDown.mouseover" end="arrowDown.mouseout"/>
                  </use>
                  <path fill="none" stroke="white" stroke-width="1.5" d="M0,-3.0v7 M-2.5,-0.5L0,-3.0L2.5,-0.5"/>
                </g>
                <g id="arrowLeft" xlink:href="#dirArrow" transform="rotate(270) translate(-36 17)" onmousedown="handlePan(-1,0)">
                  <use xlink:href="#rim" fill="#404040">
                        <set attributeName="fill" to="#808080" begin="arrowLeft.mouseover" end="arrowLeft.mouseout"/>
                  </use>
                  <path fill="none" stroke="white" stroke-width="1.5" d="M0,-3.0v7 M-2.5,-0.5L0,-3.0L2.5,-0.5"/>
                </g>
        </g>
        <svg viewBox="0 0 15 15" width="100%" height="30px" preserveAspectRatio="xMaxYMin meet">
         <g id="arrow_out" transform="scale(0.3 0.3)">
          <a xlink:href="a03150_org.svg" target="_base">
           <rect id="button" ry="5" rx="5" y="6" x="6" height="38" width="38"
                fill="#f2f5e9" fill-opacity="0.5" stroke="#606060" stroke-width="1.0"/>
           <path id="arrow"
             d="M 11.500037,31.436501 C 11.940474,20.09759 22.043105,11.32322 32.158766,21.979434 L 37.068811,17.246167 C 37.068811,17.246167 37.088388,32 37.088388,32 L 22.160133,31.978069 C 22.160133,31.978069 26.997745,27.140456 26.997745,27.140456 C 18.528582,18.264221 13.291696,25.230495 11.500037,31.436501 z"
             style="fill:#404040;"/>
          </a>
         </g>
        </svg>
</svg>
