<?xml version="1.0" encoding="UTF-8" standalone="no"?>
<!DOCTYPE svg PUBLIC "-//W3C//DTD SVG 1.1//EN"
 "http://www.w3.org/Graphics/SVG/1.1/DTD/svg11.dtd">
<!-- Generated by graphviz version 2.38.0 (20140413.2041)
 -->
<!-- Title: SDK::UBellDescAsset Pages: 1 -->
<svg width="143pt" height="160pt"
 viewBox="0.00 0.00 143.00 160.00" xmlns="http://www.w3.org/2000/svg" xmlns:xlink="http://www.w3.org/1999/xlink">
<g id="graph0" class="graph" transform="scale(1 1) rotate(0) translate(4 156)">
<title>SDK::UBellDescAsset</title>
<!-- Node1 -->
<g id="node1" class="node"><title>Node1</title>
<g id="a_node1"><a xlink:title=" ">
<polygon fill="#bfbfbf" stroke="black" points="10.5,-0.5 10.5,-57.5 124.5,-57.5 124.5,-0.5 10.5,-0.5"/>
<text text-anchor="middle" x="67.5" y="-45.5" font-family="Helvetica,sans-Serif" font-size="10.00">SDK::UBellDescAsset</text>
<polyline fill="none" stroke="black" points="10.5,-38.5 124.5,-38.5 "/>
<text text-anchor="start" x="18.5" y="-26.5" font-family="Helvetica,sans-Serif" font-size="10.00">+ BellDesc</text>
<polyline fill="none" stroke="black" points="10.5,-19.5 124.5,-19.5 "/>
<text text-anchor="start" x="18.5" y="-7.5" font-family="Helvetica,sans-Serif" font-size="10.00">+ StaticClass()</text>
</a>
</g>
</g>
<!-- Node2 -->
<g id="node2" class="node"><title>Node2</title>
<g id="a_node2"><a xlink:href="a02923.html" target="_top" xlink:title=" ">
<polygon fill="none" stroke="red" points="0,-94.5 0,-151.5 135,-151.5 135,-94.5 0,-94.5"/>
<text text-anchor="middle" x="67.5" y="-139.5" font-family="Helvetica,sans-Serif" font-size="10.00">SDK::UShipPartDescAsset</text>
<polyline fill="none" stroke="red" points="0,-132.5 135,-132.5 "/>
<text text-anchor="middle" x="67.5" y="-120.5" font-family="Helvetica,sans-Serif" font-size="10.00"> </text>
<polyline fill="none" stroke="red" points="0,-113.5 135,-113.5 "/>
<text text-anchor="start" x="8" y="-101.5" font-family="Helvetica,sans-Serif" font-size="10.00">+ StaticClass()</text>
</a>
</g>
</g>
<!-- Node2&#45;&gt;Node1 -->
<g id="edge1" class="edge"><title>Node2&#45;&gt;Node1</title>
<path fill="none" stroke="midnightblue" d="M67.5,-84.2092C67.5,-75.2929 67.5,-65.9513 67.5,-57.5836"/>
<polygon fill="none" stroke="midnightblue" points="64.0001,-84.3969 67.5,-94.397 71.0001,-84.397 64.0001,-84.3969"/>
</g>
</g>
</svg>
