<?xml version="1.0" encoding="UTF-8" standalone="no"?>
<!DOCTYPE svg PUBLIC "-//W3C//DTD SVG 1.1//EN"
 "http://www.w3.org/Graphics/SVG/1.1/DTD/svg11.dtd">
<!-- Generated by graphviz version 2.38.0 (20140413.2041)
 -->
<!-- Title: SDK::UBTDecorator_CanRepair Pages: 1 -->
<svg width="356pt" height="171pt"
 viewBox="0.00 0.00 356.00 171.00" xmlns="http://www.w3.org/2000/svg" xmlns:xlink="http://www.w3.org/1999/xlink">
<g id="graph0" class="graph" transform="scale(1 1) rotate(0) translate(4 167)">
<title>SDK::UBTDecorator_CanRepair</title>
<!-- Node1 -->
<g id="node1" class="node"><title>Node1</title>
<g id="a_node1"><a xlink:title=" ">
<polygon fill="#bfbfbf" stroke="black" points="103.5,-0.5 103.5,-57.5 257.5,-57.5 257.5,-0.5 103.5,-0.5"/>
<text text-anchor="middle" x="180.5" y="-45.5" font-family="Helvetica,sans-Serif" font-size="10.00">SDK::UBTDecorator_CanRepair</text>
<polyline fill="none" stroke="black" points="103.5,-38.5 257.5,-38.5 "/>
<text text-anchor="middle" x="180.5" y="-26.5" font-family="Helvetica,sans-Serif" font-size="10.00"> </text>
<polyline fill="none" stroke="black" points="103.5,-19.5 257.5,-19.5 "/>
<text text-anchor="start" x="111.5" y="-7.5" font-family="Helvetica,sans-Serif" font-size="10.00">+ StaticClass()</text>
</a>
</g>
</g>
<!-- Node2 -->
<g id="node2" class="node"><title>Node2</title>
<g id="a_node2"><a xlink:href="a23923.html" target="_top" xlink:title=" ">
<polygon fill="none" stroke="red" points="0,-105.5 0,-162.5 179,-162.5 179,-105.5 0,-105.5"/>
<text text-anchor="middle" x="89.5" y="-150.5" font-family="Helvetica,sans-Serif" font-size="10.00">SDK::UBTDecorator_BaseConditional</text>
<polyline fill="none" stroke="red" points="0,-143.5 179,-143.5 "/>
<text text-anchor="middle" x="89.5" y="-131.5" font-family="Helvetica,sans-Serif" font-size="10.00"> </text>
<polyline fill="none" stroke="red" points="0,-124.5 179,-124.5 "/>
<text text-anchor="start" x="8" y="-112.5" font-family="Helvetica,sans-Serif" font-size="10.00">+ StaticClass()</text>
</a>
</g>
</g>
<!-- Node2&#45;&gt;Node1 -->
<g id="edge1" class="edge"><title>Node2&#45;&gt;Node1</title>
<path fill="none" stroke="midnightblue" d="M120.527,-97.8816C132.125,-84.7542 145.123,-70.0416 156.046,-57.6783"/>
<polygon fill="none" stroke="midnightblue" points="117.884,-95.5864 113.886,-105.398 123.13,-100.221 117.884,-95.5864"/>
</g>
<!-- Node29 -->
<g id="node3" class="node"><title>Node29</title>
<g id="a_node3"><a xlink:href="a01443.html" target="_top" xlink:title=" ">
<polygon fill="none" stroke="red" points="197,-105.5 197,-162.5 348,-162.5 348,-105.5 197,-105.5"/>
<text text-anchor="middle" x="272.5" y="-150.5" font-family="Helvetica,sans-Serif" font-size="10.00">SDK::FBlackboardKeySelector</text>
<polyline fill="none" stroke="red" points="197,-143.5 348,-143.5 "/>
<text text-anchor="middle" x="272.5" y="-131.5" font-family="Helvetica,sans-Serif" font-size="10.00"> </text>
<polyline fill="none" stroke="red" points="197,-124.5 348,-124.5 "/>
<text text-anchor="middle" x="272.5" y="-112.5" font-family="Helvetica,sans-Serif" font-size="10.00"> </text>
</a>
</g>
</g>
<!-- Node29&#45;&gt;Node1 -->
<g id="edge2" class="edge"><title>Node29&#45;&gt;Node1</title>
<path fill="none" stroke="#404040" d="M247.846,-105.398C237.224,-93.5061 224.651,-79.4299 213.262,-66.6787"/>
<polygon fill="none" stroke="#404040" points="213.216,-66.628 206.236,-64.8178 205.222,-57.6783 212.203,-59.4885 213.216,-66.628"/>
<text text-anchor="middle" x="260" y="-79" font-family="Helvetica,sans-Serif" font-size="10.00"> +RepairActor</text>
</g>
</g>
</svg>
