<?xml version="1.0" encoding="UTF-8" standalone="no"?>
<!DOCTYPE svg PUBLIC "-//W3C//DTD SVG 1.1//EN"
 "http://www.w3.org/Graphics/SVG/1.1/DTD/svg11.dtd">
<!-- Generated by graphviz version 2.38.0 (20140413.2041)
 -->
<!-- Title: SDK::UShipCurseComponent Pages: 1 -->
<!--zoomable 650 -->
<svg id="main" version="1.1" xmlns="http://www.w3.org/2000/svg" xmlns:xlink="http://www.w3.org/1999/xlink" xml:space="preserve" onload="init(evt)">
<style type="text/css"><![CDATA[
.edge:hover path { stroke: red; }
.edge:hover polygon { stroke: red; fill: red; }
]]></style>
<script type="text/javascript"><![CDATA[
var edges = document.getElementsByTagName('g');
if (edges && edges.length) {
  for (var i=0;i<edges.length;i++) {
    if (edges[i].id.substr(0,4)=='edge') {
      edges[i].setAttribute('class','edge');
    }
  }
}
]]></script>
        <defs>
                <circle id="rim" cx="0" cy="0" r="7"/>
                <circle id="rim2" cx="0" cy="0" r="3.5"/>
                <g id="zoomPlus">
                        <use xlink:href="#rim" fill="#404040">
                                <set attributeName="fill" to="#808080" begin="zoomplus.mouseover" end="zoomplus.mouseout"/>
                        </use>
                        <path d="M-4,0h8M0,-4v8" fill="none" stroke="white" stroke-width="1.5" pointer-events="none"/>
                </g>
                <g id="zoomMin">
                        <use xlink:href="#rim" fill="#404040">
                                <set attributeName="fill" to="#808080" begin="zoomminus.mouseover" end="zoomminus.mouseout"/>
                        </use>
                        <path d="M-4,0h8" fill="none" stroke="white" stroke-width="1.5" pointer-events="none"/>
                </g>
                <g id="dirArrow">
                        <path fill="none" stroke="white" stroke-width="1.5" d="M0,-3.0v7 M-2.5,-0.5L0,-3.0L2.5,-0.5"/>
                </g>
               <g id="resetDef">
                       <use xlink:href="#rim2" fill="#404040">
                               <set attributeName="fill" to="#808080" begin="reset.mouseover" end="reset.mouseout"/>
                       </use>
               </g>
        </defs>

<script type="text/javascript">
var viewWidth = 1656;
var viewHeight = 650;
var sectionId = 'dynsection-1';
</script>
<script xlink:href="svgpan.js"/>
<svg id="graph" class="graph">
<g id="viewport">
<title>SDK::UShipCurseComponent</title>
<!-- Node1 -->
<g id="node1" class="node"><title>Node1</title>
<g id="a_node1"><a xlink:title=" ">
<polygon fill="#bfbfbf" stroke="black" points="768.687,-0.5 768.687,-101.5 933.687,-101.5 933.687,-0.5 768.687,-0.5"/>
<text text-anchor="middle" x="851.187" y="-89.5" font-family="Helvetica,sans-Serif" font-size="10.00">SDK::UShipCurseComponent</text>
<polyline fill="none" stroke="black" points="768.687,-82.5 933.687,-82.5 "/>
<text text-anchor="middle" x="851.187" y="-70.5" font-family="Helvetica,sans-Serif" font-size="10.00"> </text>
<polyline fill="none" stroke="black" points="768.687,-63.5 933.687,-63.5 "/>
<text text-anchor="start" x="776.687" y="-51.5" font-family="Helvetica,sans-Serif" font-size="10.00">+ OnRep_ActorsAffectedByToggle</text>
<text text-anchor="start" x="776.687" y="-40.5" font-family="Helvetica,sans-Serif" font-size="10.00">InteractionsCurse()</text>
<text text-anchor="start" x="776.687" y="-29.5" font-family="Helvetica,sans-Serif" font-size="10.00">+ OnRep_ActiveCurseFX()</text>
<text text-anchor="start" x="776.687" y="-18.5" font-family="Helvetica,sans-Serif" font-size="10.00">+ ApplyIntentOnSails()</text>
<text text-anchor="start" x="776.687" y="-7.5" font-family="Helvetica,sans-Serif" font-size="10.00">+ StaticClass()</text>
</a>
</g>
</g>
<!-- Node2 -->
<g id="node2" class="node"><title>Node2</title>
<g id="a_node2"><a xlink:href="a26339.html" target="_top" xlink:title=" ">
<polygon fill="none" stroke="red" points="136.687,-171.5 136.687,-415.5 321.687,-415.5 321.687,-171.5 136.687,-171.5"/>
<text text-anchor="middle" x="229.187" y="-403.5" font-family="Helvetica,sans-Serif" font-size="10.00">SDK::UActorComponent</text>
<polyline fill="none" stroke="red" points="136.687,-396.5 321.687,-396.5 "/>
<text text-anchor="start" x="144.687" y="-384.5" font-family="Helvetica,sans-Serif" font-size="10.00">+ UnknownData00</text>
<text text-anchor="start" x="144.687" y="-373.5" font-family="Helvetica,sans-Serif" font-size="10.00">+ bReplicates</text>
<text text-anchor="start" x="144.687" y="-362.5" font-family="Helvetica,sans-Serif" font-size="10.00">+ bNetAddressable</text>
<text text-anchor="start" x="144.687" y="-351.5" font-family="Helvetica,sans-Serif" font-size="10.00">+ bInstanceComponent</text>
<text text-anchor="start" x="144.687" y="-340.5" font-family="Helvetica,sans-Serif" font-size="10.00">+ bAutoActivate</text>
<text text-anchor="start" x="144.687" y="-329.5" font-family="Helvetica,sans-Serif" font-size="10.00">+ bIsActive</text>
<text text-anchor="start" x="144.687" y="-318.5" font-family="Helvetica,sans-Serif" font-size="10.00">+ bNeedsLoadForServer</text>
<polyline fill="none" stroke="red" points="136.687,-311.5 321.687,-311.5 "/>
<text text-anchor="start" x="144.687" y="-299.5" font-family="Helvetica,sans-Serif" font-size="10.00">+ ToggleActive()</text>
<text text-anchor="start" x="144.687" y="-288.5" font-family="Helvetica,sans-Serif" font-size="10.00">+ SetTickGroup()</text>
<text text-anchor="start" x="144.687" y="-277.5" font-family="Helvetica,sans-Serif" font-size="10.00">+ SetTickableWhenPaused()</text>
<text text-anchor="start" x="144.687" y="-266.5" font-family="Helvetica,sans-Serif" font-size="10.00">+ SetIsReplicated()</text>
<text text-anchor="start" x="144.687" y="-255.5" font-family="Helvetica,sans-Serif" font-size="10.00">+ SetComponentTickEnabled()</text>
<text text-anchor="start" x="144.687" y="-244.5" font-family="Helvetica,sans-Serif" font-size="10.00">+ SetActive()</text>
<text text-anchor="start" x="144.687" y="-233.5" font-family="Helvetica,sans-Serif" font-size="10.00">+ RemoveTickPrerequisiteComponent()</text>
<text text-anchor="start" x="144.687" y="-222.5" font-family="Helvetica,sans-Serif" font-size="10.00">+ RemoveTickPrerequisiteActor()</text>
<text text-anchor="start" x="144.687" y="-211.5" font-family="Helvetica,sans-Serif" font-size="10.00">+ ReceiveTick()</text>
<text text-anchor="start" x="144.687" y="-200.5" font-family="Helvetica,sans-Serif" font-size="10.00">+ ReceiveEndPlay()</text>
<text text-anchor="start" x="144.687" y="-189.5" font-family="Helvetica,sans-Serif" font-size="10.00">and 12 more...</text>
<text text-anchor="start" x="144.687" y="-178.5" font-family="Helvetica,sans-Serif" font-size="10.00">+ StaticClass()</text>
</a>
</g>
</g>
<!-- Node2&#45;&gt;Node1 -->
<g id="edge1" class="edge"><title>Node2&#45;&gt;Node1</title>
<path fill="none" stroke="midnightblue" d="M330,-171.829C330.395,-171.55 330.791,-171.274 331.187,-171 464.651,-78.6465 659.075,-56.9702 768.45,-52.4843"/>
<polygon fill="none" stroke="midnightblue" points="327.734,-169.152 321.805,-177.932 331.916,-174.766 327.734,-169.152"/>
</g>
<!-- Node12 -->
<g id="node3" class="node"><title>Node12</title>
<g id="a_node3"><a xlink:title=" ">
<polygon fill="none" stroke="#bfbfbf" points="377.687,-584.5 377.687,-641.5 412.687,-641.5 412.687,-584.5 377.687,-584.5"/>
<text text-anchor="middle" x="395.187" y="-629.5" font-family="Helvetica,sans-Serif" font-size="10.00">char</text>
<polyline fill="none" stroke="#bfbfbf" points="377.687,-622.5 412.687,-622.5 "/>
<text text-anchor="middle" x="395.187" y="-610.5" font-family="Helvetica,sans-Serif" font-size="10.00"> </text>
<polyline fill="none" stroke="#bfbfbf" points="377.687,-603.5 412.687,-603.5 "/>
<text text-anchor="middle" x="395.187" y="-591.5" font-family="Helvetica,sans-Serif" font-size="10.00"> </text>
</a>
</g>
</g>
<!-- Node12&#45;&gt;Node1 -->
<g id="edge5" class="edge"><title>Node12&#45;&gt;Node1</title>
<path fill="none" stroke="#404040" d="M377.359,-608.589C317.155,-595.992 121.038,-545.903 47.1872,-416 -6.62842,-321.339 -23.4296,-253.886 47.1872,-171 137.223,-65.3215 563.89,-51.7952 756.473,-51.1924"/>
<polygon fill="none" stroke="#404040" points="756.535,-51.1924 762.528,-47.1815 768.535,-51.1707 762.543,-55.1815 756.535,-51.1924"/>
<text text-anchor="middle" x="87.1872" y="-302" font-family="Helvetica,sans-Serif" font-size="10.00"> +UnknownData01</text>
<text text-anchor="middle" x="87.1872" y="-291" font-family="Helvetica,sans-Serif" font-size="10.00">+UnknownData02</text>
<text text-anchor="middle" x="87.1872" y="-280" font-family="Helvetica,sans-Serif" font-size="10.00">+UnknownData00</text>
</g>
<!-- Node12&#45;&gt;Node2 -->
<g id="edge2" class="edge"><title>Node12&#45;&gt;Node2</title>
<path fill="none" stroke="#404040" d="M380.746,-584.379C362.256,-549.014 328.928,-485.269 298.225,-426.545"/>
<polygon fill="none" stroke="#404040" points="298.086,-426.28 291.762,-422.816 292.526,-415.646 298.851,-419.11 298.086,-426.28"/>
<text text-anchor="middle" x="427.187" y="-558" font-family="Helvetica,sans-Serif" font-size="10.00"> +UnknownData01</text>
<text text-anchor="middle" x="427.187" y="-547" font-family="Helvetica,sans-Serif" font-size="10.00">+UnknownData02</text>
<text text-anchor="middle" x="427.187" y="-536" font-family="Helvetica,sans-Serif" font-size="10.00">+UnknownData03</text>
<text text-anchor="middle" x="427.187" y="-525" font-family="Helvetica,sans-Serif" font-size="10.00">+UnknownData04</text>
<text text-anchor="middle" x="427.187" y="-514" font-family="Helvetica,sans-Serif" font-size="10.00">+UnknownData05</text>
<text text-anchor="start" x="371.187" y="-503" font-family="Helvetica,sans-Serif" font-size="10.00">+bCreatedByConstruction</text>
<text text-anchor="middle" x="427.187" y="-492" font-family="Helvetica,sans-Serif" font-size="10.00">Script</text>
<text text-anchor="middle" x="427.187" y="-481" font-family="Helvetica,sans-Serif" font-size="10.00">+UnknownData06</text>
<text text-anchor="middle" x="427.187" y="-470" font-family="Helvetica,sans-Serif" font-size="10.00">+UnknownData07</text>
<text text-anchor="middle" x="427.187" y="-459" font-family="Helvetica,sans-Serif" font-size="10.00">+bEditableWhenInherited</text>
<text text-anchor="middle" x="427.187" y="-448" font-family="Helvetica,sans-Serif" font-size="10.00">+bNeedsLoadForClient</text>
<text text-anchor="middle" x="427.187" y="-437" font-family="Helvetica,sans-Serif" font-size="10.00">...</text>
</g>
<!-- Node25 -->
<g id="node8" class="node"><title>Node25</title>
<g id="a_node8"><a xlink:href="a09635.html" target="_top" xlink:title=" ">
<polygon fill="none" stroke="red" points="462.187,-199 462.187,-388 660.187,-388 660.187,-199 462.187,-199"/>
<text text-anchor="middle" x="561.187" y="-376" font-family="Helvetica,sans-Serif" font-size="10.00">SDK::AWheel</text>
<polyline fill="none" stroke="red" points="462.187,-369 660.187,-369 "/>
<text text-anchor="middle" x="561.187" y="-357" font-family="Helvetica,sans-Serif" font-size="10.00"> </text>
<polyline fill="none" stroke="red" points="462.187,-350 660.187,-350 "/>
<text text-anchor="start" x="470.187" y="-338" font-family="Helvetica,sans-Serif" font-size="10.00">+ UpdateWheelDamageState()</text>
<text text-anchor="start" x="470.187" y="-327" font-family="Helvetica,sans-Serif" font-size="10.00">+ SetFullyRepaired()</text>
<text text-anchor="start" x="470.187" y="-316" font-family="Helvetica,sans-Serif" font-size="10.00">+ SetFullyDamaged()</text>
<text text-anchor="start" x="470.187" y="-305" font-family="Helvetica,sans-Serif" font-size="10.00">+ Server_SetWheelAngle()</text>
<text text-anchor="start" x="470.187" y="-294" font-family="Helvetica,sans-Serif" font-size="10.00">+ ReactToRepairableStateChangedWest()</text>
<text text-anchor="start" x="470.187" y="-283" font-family="Helvetica,sans-Serif" font-size="10.00">+ ReactToRepairableStateChanged</text>
<text text-anchor="start" x="470.187" y="-272" font-family="Helvetica,sans-Serif" font-size="10.00">South()</text>
<text text-anchor="start" x="470.187" y="-261" font-family="Helvetica,sans-Serif" font-size="10.00">+ ReactToRepairableStateChangedEast()</text>
<text text-anchor="start" x="470.187" y="-250" font-family="Helvetica,sans-Serif" font-size="10.00">+ ReactToDamage()</text>
<text text-anchor="start" x="470.187" y="-239" font-family="Helvetica,sans-Serif" font-size="10.00">+ OnWheelDescLoaded()</text>
<text text-anchor="start" x="470.187" y="-228" font-family="Helvetica,sans-Serif" font-size="10.00">+ OnRep_ServerWheelAngle()</text>
<text text-anchor="start" x="470.187" y="-217" font-family="Helvetica,sans-Serif" font-size="10.00">and 12 more...</text>
<text text-anchor="start" x="470.187" y="-206" font-family="Helvetica,sans-Serif" font-size="10.00">+ StaticClass()</text>
</a>
</g>
</g>
<!-- Node12&#45;&gt;Node25 -->
<g id="edge10" class="edge"><title>Node12&#45;&gt;Node25</title>
<path fill="none" stroke="#404040" d="M412.844,-607.863C433.687,-602.06 467.943,-589.478 487.187,-566 525.338,-519.456 543.907,-454.842 552.907,-400.324"/>
<polygon fill="none" stroke="#404040" points="552.957,-399.999 549.919,-393.459 554.788,-388.14 557.826,-394.68 552.957,-399.999"/>
<text text-anchor="middle" x="586.187" y="-536" font-family="Helvetica,sans-Serif" font-size="10.00"> +UnknownData01</text>
<text text-anchor="middle" x="586.187" y="-525" font-family="Helvetica,sans-Serif" font-size="10.00">+UnknownData02</text>
<text text-anchor="middle" x="586.187" y="-514" font-family="Helvetica,sans-Serif" font-size="10.00">+UnknownData03</text>
<text text-anchor="middle" x="586.187" y="-503" font-family="Helvetica,sans-Serif" font-size="10.00">+UnknownData04</text>
<text text-anchor="middle" x="586.187" y="-492" font-family="Helvetica,sans-Serif" font-size="10.00">+UnknownData05</text>
<text text-anchor="middle" x="586.187" y="-481" font-family="Helvetica,sans-Serif" font-size="10.00">+UnknownData06</text>
<text text-anchor="middle" x="586.187" y="-470" font-family="Helvetica,sans-Serif" font-size="10.00">+UnknownData07</text>
<text text-anchor="middle" x="586.187" y="-459" font-family="Helvetica,sans-Serif" font-size="10.00">+UnknownData00</text>
</g>
<!-- Node445 -->
<g id="node9" class="node"><title>Node445</title>
<g id="a_node9"><a xlink:href="a03655.html" target="_top" xlink:title=" ">
<polygon fill="none" stroke="red" points="1044.69,-204.5 1044.69,-382.5 1219.69,-382.5 1219.69,-204.5 1044.69,-204.5"/>
<text text-anchor="middle" x="1132.19" y="-370.5" font-family="Helvetica,sans-Serif" font-size="10.00">SDK::ACapstan</text>
<polyline fill="none" stroke="red" points="1044.69,-363.5 1219.69,-363.5 "/>
<text text-anchor="middle" x="1132.19" y="-351.5" font-family="Helvetica,sans-Serif" font-size="10.00"> </text>
<polyline fill="none" stroke="red" points="1044.69,-344.5 1219.69,-344.5 "/>
<text text-anchor="start" x="1052.69" y="-332.5" font-family="Helvetica,sans-Serif" font-size="10.00">+ SetFullyRepaired()</text>
<text text-anchor="start" x="1052.69" y="-321.5" font-family="Helvetica,sans-Serif" font-size="10.00">+ SetFullyDamaged()</text>
<text text-anchor="start" x="1052.69" y="-310.5" font-family="Helvetica,sans-Serif" font-size="10.00">+ ReactToRepairableStateChanged()</text>
<text text-anchor="start" x="1052.69" y="-299.5" font-family="Helvetica,sans-Serif" font-size="10.00">+ ReactToDamageLevelChanged()</text>
<text text-anchor="start" x="1052.69" y="-288.5" font-family="Helvetica,sans-Serif" font-size="10.00">+ ReactToDamage()</text>
<text text-anchor="start" x="1052.69" y="-277.5" font-family="Helvetica,sans-Serif" font-size="10.00">+ OnCapstanRepaired()</text>
<text text-anchor="start" x="1052.69" y="-266.5" font-family="Helvetica,sans-Serif" font-size="10.00">+ OnCapstanDescLoaded()</text>
<text text-anchor="start" x="1052.69" y="-255.5" font-family="Helvetica,sans-Serif" font-size="10.00">+ OnCapstanDamaged()</text>
<text text-anchor="start" x="1052.69" y="-244.5" font-family="Helvetica,sans-Serif" font-size="10.00">+ GetMaxLevelOfDamage()</text>
<text text-anchor="start" x="1052.69" y="-233.5" font-family="Helvetica,sans-Serif" font-size="10.00">+ GetLevelOfDamage()</text>
<text text-anchor="start" x="1052.69" y="-222.5" font-family="Helvetica,sans-Serif" font-size="10.00">and 6 more...</text>
<text text-anchor="start" x="1052.69" y="-211.5" font-family="Helvetica,sans-Serif" font-size="10.00">+ StaticClass()</text>
</a>
</g>
</g>
<!-- Node12&#45;&gt;Node445 -->
<g id="edge13" class="edge"><title>Node12&#45;&gt;Node445</title>
<path fill="none" stroke="#404040" d="M412.779,-610.389C461.092,-605.685 594.586,-590.716 630.187,-566 686.728,-526.746 652.078,-469.268 711.187,-434 773.113,-397.052 971.102,-449.061 1035.19,-416 1047.34,-409.731 1058.48,-401.185 1068.53,-391.509"/>
<polygon fill="none" stroke="#404040" points="1068.71,-391.331 1070.04,-384.244 1077.09,-382.743 1075.76,-389.831 1068.71,-391.331"/>
<text text-anchor="middle" x="751.187" y="-525" font-family="Helvetica,sans-Serif" font-size="10.00"> +UnknownData01</text>
<text text-anchor="middle" x="751.187" y="-514" font-family="Helvetica,sans-Serif" font-size="10.00">+UnknownData02</text>
<text text-anchor="middle" x="751.187" y="-503" font-family="Helvetica,sans-Serif" font-size="10.00">+UnknownData03</text>
<text text-anchor="middle" x="751.187" y="-492" font-family="Helvetica,sans-Serif" font-size="10.00">+UnknownData04</text>
<text text-anchor="middle" x="751.187" y="-481" font-family="Helvetica,sans-Serif" font-size="10.00">+UnknownData05</text>
<text text-anchor="middle" x="751.187" y="-470" font-family="Helvetica,sans-Serif" font-size="10.00">+UnknownData00</text>
</g>
<!-- Node22 -->
<g id="node4" class="node"><title>Node22</title>
<g id="a_node4"><a xlink:href="a25611.html" target="_top" xlink:title=" ">
<polygon fill="none" stroke="black" points="340.187,-237.5 340.187,-349.5 444.187,-349.5 444.187,-237.5 340.187,-237.5"/>
<text text-anchor="start" x="348.187" y="-337.5" font-family="Helvetica,sans-Serif" font-size="10.00">SDK::TArray&lt; class</text>
<text text-anchor="middle" x="392.187" y="-326.5" font-family="Helvetica,sans-Serif" font-size="10.00"> SDK::ACannon * &gt;</text>
<polyline fill="none" stroke="black" points="340.187,-319.5 444.187,-319.5 "/>
<text text-anchor="middle" x="392.187" y="-307.5" font-family="Helvetica,sans-Serif" font-size="10.00"> </text>
<polyline fill="none" stroke="black" points="340.187,-300.5 444.187,-300.5 "/>
<text text-anchor="start" x="348.187" y="-288.5" font-family="Helvetica,sans-Serif" font-size="10.00">+ TArray()</text>
<text text-anchor="start" x="348.187" y="-277.5" font-family="Helvetica,sans-Serif" font-size="10.00">+ Num()</text>
<text text-anchor="start" x="348.187" y="-266.5" font-family="Helvetica,sans-Serif" font-size="10.00">+ operator[]()</text>
<text text-anchor="start" x="348.187" y="-255.5" font-family="Helvetica,sans-Serif" font-size="10.00">+ operator[]()</text>
<text text-anchor="start" x="348.187" y="-244.5" font-family="Helvetica,sans-Serif" font-size="10.00">+ IsValidIndex()</text>
</a>
</g>
</g>
<!-- Node22&#45;&gt;Node1 -->
<g id="edge3" class="edge"><title>Node22&#45;&gt;Node1</title>
<path fill="none" stroke="#404040" d="M408.93,-237.206C418.514,-213.871 432.79,-188.185 453.187,-171 539.446,-98.328 668.851,-70.036 756.492,-59.0216"/>
<polygon fill="none" stroke="#404040" points="756.658,-59.002 762.141,-54.3188 768.573,-57.5793 763.089,-62.2624 756.658,-59.002"/>
<text text-anchor="middle" x="562.687" y="-134" font-family="Helvetica,sans-Serif" font-size="10.00"> +ShipCannons</text>
</g>
<!-- Node18 -->
<g id="node5" class="node"><title>Node18</title>
<g id="a_node5"><a xlink:title=" ">
<polygon fill="none" stroke="#bfbfbf" points="1093.69,-584.5 1093.69,-641.5 1128.69,-641.5 1128.69,-584.5 1093.69,-584.5"/>
<text text-anchor="middle" x="1111.19" y="-629.5" font-family="Helvetica,sans-Serif" font-size="10.00">float</text>
<polyline fill="none" stroke="#bfbfbf" points="1093.69,-622.5 1128.69,-622.5 "/>
<text text-anchor="middle" x="1111.19" y="-610.5" font-family="Helvetica,sans-Serif" font-size="10.00"> </text>
<polyline fill="none" stroke="#bfbfbf" points="1093.69,-603.5 1128.69,-603.5 "/>
<text text-anchor="middle" x="1111.19" y="-591.5" font-family="Helvetica,sans-Serif" font-size="10.00"> </text>
</a>
</g>
</g>
<!-- Node18&#45;&gt;Node1 -->
<g id="edge4" class="edge"><title>Node18&#45;&gt;Node1</title>
<path fill="none" stroke="#404040" d="M1128.93,-611.791C1158.24,-610.369 1216.12,-602.776 1242.19,-566 1259.37,-541.75 1251.59,-210.347 1228.19,-171 1198.91,-121.774 1047.58,-86.1556 945.779,-67.3239"/>
<polygon fill="none" stroke="#404040" points="945.736,-67.3162 939.116,-70.1765 933.93,-65.1662 940.549,-62.3059 945.736,-67.3162"/>
<text text-anchor="middle" x="1309.69" y="-291" font-family="Helvetica,sans-Serif" font-size="10.00"> +ShipCapstanTargetRatio</text>
</g>
<!-- Node18&#45;&gt;Node25 -->
<g id="edge9" class="edge"><title>Node18&#45;&gt;Node25</title>
<path fill="none" stroke="#404040" d="M1093.52,-608.228C1066.07,-601.935 1011.97,-587.793 970.187,-566 883.81,-520.943 885.143,-471.405 795.187,-434 742.954,-412.281 719.019,-442.774 669.187,-416 659.131,-410.597 649.556,-403.868 640.562,-396.367"/>
<polygon fill="none" stroke="#404040" points="640.406,-396.229 633.26,-395.262 631.404,-388.294 638.55,-389.261 640.406,-396.229"/>
<text text-anchor="middle" x="1038.19" y="-552.5" font-family="Helvetica,sans-Serif" font-size="10.00"> +MaxWheelAngle</text>
<text text-anchor="middle" x="1038.19" y="-541.5" font-family="Helvetica,sans-Serif" font-size="10.00">+TurbulenceFactor</text>
<text text-anchor="middle" x="1038.19" y="-530.5" font-family="Helvetica,sans-Serif" font-size="10.00">+MinWheelAngle</text>
<text text-anchor="middle" x="1038.19" y="-519.5" font-family="Helvetica,sans-Serif" font-size="10.00">+CenterJoltDuration</text>
<text text-anchor="middle" x="1038.19" y="-508.5" font-family="Helvetica,sans-Serif" font-size="10.00">+ServerWantedAngle</text>
<text text-anchor="middle" x="1038.19" y="-497.5" font-family="Helvetica,sans-Serif" font-size="10.00">+DamageSpeedMultiplierLevel1</text>
<text text-anchor="middle" x="1038.19" y="-486.5" font-family="Helvetica,sans-Serif" font-size="10.00">+DamageSpeedMultiplierLevel2</text>
<text text-anchor="middle" x="1038.19" y="-475.5" font-family="Helvetica,sans-Serif" font-size="10.00">+CenterJoltSlowDownFactor</text>
<text text-anchor="middle" x="1038.19" y="-464.5" font-family="Helvetica,sans-Serif" font-size="10.00">+DamageSpeedMultiplierLevel3</text>
<text text-anchor="middle" x="1038.19" y="-453.5" font-family="Helvetica,sans-Serif" font-size="10.00">+ServerWheelAngle</text>
<text text-anchor="middle" x="1038.19" y="-442.5" font-family="Helvetica,sans-Serif" font-size="10.00">...</text>
</g>
<!-- Node18&#45;&gt;Node445 -->
<g id="edge12" class="edge"><title>Node18&#45;&gt;Node445</title>
<path fill="none" stroke="#404040" d="M1110.17,-584.205C1109.16,-549.139 1108.26,-487.008 1112.19,-434 1113.13,-421.297 1114.51,-407.991 1116.13,-394.853"/>
<polygon fill="none" stroke="#404040" points="1116.14,-394.76 1112.93,-388.301 1117.66,-382.857 1120.87,-389.316 1116.14,-394.76"/>
<text text-anchor="middle" x="1177.19" y="-525" font-family="Helvetica,sans-Serif" font-size="10.00"> +CursedIntent</text>
<text text-anchor="middle" x="1177.19" y="-514" font-family="Helvetica,sans-Serif" font-size="10.00">+MaxReleaseHeight</text>
<text text-anchor="middle" x="1177.19" y="-503" font-family="Helvetica,sans-Serif" font-size="10.00">+MaxReleaseAngle</text>
<text text-anchor="start" x="1112.19" y="-492" font-family="Helvetica,sans-Serif" font-size="10.00">+ChanceToDropTheAnchorOn</text>
<text text-anchor="middle" x="1177.19" y="-481" font-family="Helvetica,sans-Serif" font-size="10.00">Damage</text>
<text text-anchor="middle" x="1177.19" y="-470" font-family="Helvetica,sans-Serif" font-size="10.00">+MaxAngle</text>
</g>
<!-- Node23 -->
<g id="node6" class="node"><title>Node23</title>
<g id="a_node6"><a xlink:href="a25611.html" target="_top" xlink:title=" ">
<polygon fill="none" stroke="black" points="678.187,-237.5 678.187,-349.5 842.187,-349.5 842.187,-237.5 678.187,-237.5"/>
<text text-anchor="start" x="686.187" y="-337.5" font-family="Helvetica,sans-Serif" font-size="10.00">SDK::TArray&lt; struct</text>
<text text-anchor="middle" x="760.187" y="-326.5" font-family="Helvetica,sans-Serif" font-size="10.00"> SDK::FShipActiveCurseFXData &gt;</text>
<polyline fill="none" stroke="black" points="678.187,-319.5 842.187,-319.5 "/>
<text text-anchor="middle" x="760.187" y="-307.5" font-family="Helvetica,sans-Serif" font-size="10.00"> </text>
<polyline fill="none" stroke="black" points="678.187,-300.5 842.187,-300.5 "/>
<text text-anchor="start" x="686.187" y="-288.5" font-family="Helvetica,sans-Serif" font-size="10.00">+ TArray()</text>
<text text-anchor="start" x="686.187" y="-277.5" font-family="Helvetica,sans-Serif" font-size="10.00">+ Num()</text>
<text text-anchor="start" x="686.187" y="-266.5" font-family="Helvetica,sans-Serif" font-size="10.00">+ operator[]()</text>
<text text-anchor="start" x="686.187" y="-255.5" font-family="Helvetica,sans-Serif" font-size="10.00">+ operator[]()</text>
<text text-anchor="start" x="686.187" y="-244.5" font-family="Helvetica,sans-Serif" font-size="10.00">+ IsValidIndex()</text>
</a>
</g>
</g>
<!-- Node23&#45;&gt;Node1 -->
<g id="edge6" class="edge"><title>Node23&#45;&gt;Node1</title>
<path fill="none" stroke="#404040" d="M781.064,-237.324C795.093,-200.249 813.59,-151.364 828.064,-113.111"/>
<polygon fill="none" stroke="#404040" points="828.171,-112.828 826.553,-105.801 832.418,-101.605 834.035,-108.632 828.171,-112.828"/>
<text text-anchor="middle" x="861.687" y="-134" font-family="Helvetica,sans-Serif" font-size="10.00"> +ActiveCurseFX</text>
</g>
<!-- Node24 -->
<g id="node7" class="node"><title>Node24</title>
<g id="a_node7"><a xlink:href="a25611.html" target="_top" xlink:title=" ">
<polygon fill="none" stroke="black" points="860.187,-237.5 860.187,-349.5 1026.19,-349.5 1026.19,-237.5 860.187,-237.5"/>
<text text-anchor="start" x="868.187" y="-337.5" font-family="Helvetica,sans-Serif" font-size="10.00">SDK::TArray&lt; class</text>
<text text-anchor="middle" x="943.187" y="-326.5" font-family="Helvetica,sans-Serif" font-size="10.00"> SDK::UFixedIntentComponent * &gt;</text>
<polyline fill="none" stroke="black" points="860.187,-319.5 1026.19,-319.5 "/>
<text text-anchor="middle" x="943.187" y="-307.5" font-family="Helvetica,sans-Serif" font-size="10.00"> </text>
<polyline fill="none" stroke="black" points="860.187,-300.5 1026.19,-300.5 "/>
<text text-anchor="start" x="868.187" y="-288.5" font-family="Helvetica,sans-Serif" font-size="10.00">+ TArray()</text>
<text text-anchor="start" x="868.187" y="-277.5" font-family="Helvetica,sans-Serif" font-size="10.00">+ Num()</text>
<text text-anchor="start" x="868.187" y="-266.5" font-family="Helvetica,sans-Serif" font-size="10.00">+ operator[]()</text>
<text text-anchor="start" x="868.187" y="-255.5" font-family="Helvetica,sans-Serif" font-size="10.00">+ operator[]()</text>
<text text-anchor="start" x="868.187" y="-244.5" font-family="Helvetica,sans-Serif" font-size="10.00">+ IsValidIndex()</text>
</a>
</g>
</g>
<!-- Node24&#45;&gt;Node1 -->
<g id="edge7" class="edge"><title>Node24&#45;&gt;Node1</title>
<path fill="none" stroke="#404040" d="M935.991,-237.365C930.032,-202.52 919.632,-157.208 902.187,-120 900.971,-117.407 899.647,-114.817 898.237,-112.243"/>
<polygon fill="none" stroke="#404040" points="898.157,-112.108 891.652,-108.996 892.022,-101.795 898.527,-104.906 898.157,-112.108"/>
<text text-anchor="middle" x="979.687" y="-134" font-family="Helvetica,sans-Serif" font-size="10.00"> +SailFixedIntentComponents</text>
</g>
<!-- Node25&#45;&gt;Node1 -->
<g id="edge8" class="edge"><title>Node25&#45;&gt;Node1</title>
<path fill="none" stroke="#404040" d="M639.824,-198.789C649.357,-189.036 659.249,-179.57 669.187,-171 696.424,-147.513 728.594,-125.026 758.253,-106.049"/>
<polygon fill="none" stroke="#404040" points="758.486,-105.902 761.418,-99.3137 768.627,-99.4867 765.695,-106.075 758.486,-105.902"/>
<text text-anchor="middle" x="764.687" y="-134" font-family="Helvetica,sans-Serif" font-size="10.00"> +ShipWheel</text>
</g>
<!-- Node445&#45;&gt;Node1 -->
<g id="edge11" class="edge"><title>Node445&#45;&gt;Node1</title>
<path fill="none" stroke="#404040" d="M1104.98,-204.347C1091.94,-174.179 1073.49,-142.42 1048.19,-120 1019.6,-94.671 981.088,-78.6685 945.701,-68.6078"/>
<polygon fill="none" stroke="#404040" points="945.427,-68.5342 938.594,-70.8393 933.838,-65.4188 940.671,-63.1136 945.427,-68.5342"/>
<text text-anchor="middle" x="1108.69" y="-134" font-family="Helvetica,sans-Serif" font-size="10.00"> +ShipCapstan</text>
</g>
<!-- Node453 -->
<g id="node10" class="node"><title>Node453</title>
<g id="a_node10"><a xlink:href="a25611.html" target="_top" xlink:title=" ">
<polygon fill="none" stroke="black" points="1389.19,-237.5 1389.19,-349.5 1493.19,-349.5 1493.19,-237.5 1389.19,-237.5"/>
<text text-anchor="start" x="1397.19" y="-337.5" font-family="Helvetica,sans-Serif" font-size="10.00">SDK::TArray&lt; class</text>
<text text-anchor="middle" x="1441.19" y="-326.5" font-family="Helvetica,sans-Serif" font-size="10.00"> SDK::AMast * &gt;</text>
<polyline fill="none" stroke="black" points="1389.19,-319.5 1493.19,-319.5 "/>
<text text-anchor="middle" x="1441.19" y="-307.5" font-family="Helvetica,sans-Serif" font-size="10.00"> </text>
<polyline fill="none" stroke="black" points="1389.19,-300.5 1493.19,-300.5 "/>
<text text-anchor="start" x="1397.19" y="-288.5" font-family="Helvetica,sans-Serif" font-size="10.00">+ TArray()</text>
<text text-anchor="start" x="1397.19" y="-277.5" font-family="Helvetica,sans-Serif" font-size="10.00">+ Num()</text>
<text text-anchor="start" x="1397.19" y="-266.5" font-family="Helvetica,sans-Serif" font-size="10.00">+ operator[]()</text>
<text text-anchor="start" x="1397.19" y="-255.5" font-family="Helvetica,sans-Serif" font-size="10.00">+ operator[]()</text>
<text text-anchor="start" x="1397.19" y="-244.5" font-family="Helvetica,sans-Serif" font-size="10.00">+ IsValidIndex()</text>
</a>
</g>
</g>
<!-- Node453&#45;&gt;Node1 -->
<g id="edge14" class="edge"><title>Node453&#45;&gt;Node1</title>
<path fill="none" stroke="#404040" d="M1420.19,-237.436C1409.42,-214.695 1394.45,-189.408 1375.19,-171 1337.68,-135.158 1319.65,-135.655 1270.19,-120 1161.93,-85.7357 1032.19,-68.0834 946.055,-59.459"/>
<polygon fill="none" stroke="#404040" points="945.877,-59.4418 939.517,-62.8401 933.934,-58.2762 940.294,-54.8779 945.877,-59.4418"/>
<text text-anchor="middle" x="1385.19" y="-134" font-family="Helvetica,sans-Serif" font-size="10.00"> +FoundMasts</text>
</g>
<!-- Node49 -->
<g id="node11" class="node"><title>Node49</title>
<g id="a_node11"><a xlink:href="a25611.html" target="_top" xlink:title=" ">
<polygon fill="none" stroke="black" points="1511.19,-237.5 1511.19,-349.5 1615.19,-349.5 1615.19,-237.5 1511.19,-237.5"/>
<text text-anchor="start" x="1519.19" y="-337.5" font-family="Helvetica,sans-Serif" font-size="10.00">SDK::TArray&lt; class</text>
<text text-anchor="middle" x="1563.19" y="-326.5" font-family="Helvetica,sans-Serif" font-size="10.00"> SDK::AActor * &gt;</text>
<polyline fill="none" stroke="black" points="1511.19,-319.5 1615.19,-319.5 "/>
<text text-anchor="middle" x="1563.19" y="-307.5" font-family="Helvetica,sans-Serif" font-size="10.00"> </text>
<polyline fill="none" stroke="black" points="1511.19,-300.5 1615.19,-300.5 "/>
<text text-anchor="start" x="1519.19" y="-288.5" font-family="Helvetica,sans-Serif" font-size="10.00">+ TArray()</text>
<text text-anchor="start" x="1519.19" y="-277.5" font-family="Helvetica,sans-Serif" font-size="10.00">+ Num()</text>
<text text-anchor="start" x="1519.19" y="-266.5" font-family="Helvetica,sans-Serif" font-size="10.00">+ operator[]()</text>
<text text-anchor="start" x="1519.19" y="-255.5" font-family="Helvetica,sans-Serif" font-size="10.00">+ operator[]()</text>
<text text-anchor="start" x="1519.19" y="-244.5" font-family="Helvetica,sans-Serif" font-size="10.00">+ IsValidIndex()</text>
</a>
</g>
</g>
<!-- Node49&#45;&gt;Node1 -->
<g id="edge15" class="edge"><title>Node49&#45;&gt;Node1</title>
<path fill="none" stroke="#404040" d="M1543.19,-237.472C1533.23,-215.132 1519.56,-190.137 1502.19,-171 1473.59,-139.501 1461.29,-134.2 1421.19,-120 1335.92,-89.8073 1084.99,-68.2431 946.201,-58.2512"/>
<polygon fill="none" stroke="#404040" points="945.918,-58.2311 939.649,-61.7945 933.948,-57.3782 940.217,-53.8148 945.918,-58.2311"/>
<text text-anchor="start" x="1484.19" y="-145" font-family="Helvetica,sans-Serif" font-size="10.00"> +ActorsAffectedByToggleInteractions</text>
<text text-anchor="middle" x="1566.19" y="-134" font-family="Helvetica,sans-Serif" font-size="10.00">Curse</text>
<text text-anchor="middle" x="1566.19" y="-123" font-family="Helvetica,sans-Serif" font-size="10.00">+CachedShipAttachedActors</text>
</g>
</g>
</svg>
        <g id="navigator" transform="translate(0 0)" fill="#404254">
                <rect fill="#f2f5e9" fill-opacity="0.5" stroke="#606060" stroke-width=".5" x="0" y="0" width="60" height="60"/>
                <use id="zoomplus" xlink:href="#zoomPlus" x="17" y="9" onmousedown="handleZoom(evt,'in')"/>
                <use id="zoomminus" xlink:href="#zoomMin" x="42" y="9" onmousedown="handleZoom(evt,'out')"/>
                <use id="reset" xlink:href="#resetDef" x="30" y="36" onmousedown="handleReset()"/>
                <g id="arrowUp" xlink:href="#dirArrow" transform="translate(30 24)" onmousedown="handlePan(0,-1)">
                  <use xlink:href="#rim" fill="#404040">
                        <set attributeName="fill" to="#808080" begin="arrowUp.mouseover" end="arrowUp.mouseout"/>
                  </use>
                  <path fill="none" stroke="white" stroke-width="1.5" d="M0,-3.0v7 M-2.5,-0.5L0,-3.0L2.5,-0.5"/>
                </g>
                <g id="arrowRight" xlink:href="#dirArrow" transform="rotate(90) translate(36 -43)" onmousedown="handlePan(1,0)">
                  <use xlink:href="#rim" fill="#404040">
                        <set attributeName="fill" to="#808080" begin="arrowRight.mouseover" end="arrowRight.mouseout"/>
                  </use>
                  <path fill="none" stroke="white" stroke-width="1.5" d="M0,-3.0v7 M-2.5,-0.5L0,-3.0L2.5,-0.5"/>
                </g>
                <g id="arrowDown" xlink:href="#dirArrow" transform="rotate(180) translate(-30 -48)" onmousedown="handlePan(0,1)">
                  <use xlink:href="#rim" fill="#404040">
                        <set attributeName="fill" to="#808080" begin="arrowDown.mouseover" end="arrowDown.mouseout"/>
                  </use>
                  <path fill="none" stroke="white" stroke-width="1.5" d="M0,-3.0v7 M-2.5,-0.5L0,-3.0L2.5,-0.5"/>
                </g>
                <g id="arrowLeft" xlink:href="#dirArrow" transform="rotate(270) translate(-36 17)" onmousedown="handlePan(-1,0)">
                  <use xlink:href="#rim" fill="#404040">
                        <set attributeName="fill" to="#808080" begin="arrowLeft.mouseover" end="arrowLeft.mouseout"/>
                  </use>
                  <path fill="none" stroke="white" stroke-width="1.5" d="M0,-3.0v7 M-2.5,-0.5L0,-3.0L2.5,-0.5"/>
                </g>
        </g>
        <svg viewBox="0 0 15 15" width="100%" height="30px" preserveAspectRatio="xMaxYMin meet">
         <g id="arrow_out" transform="scale(0.3 0.3)">
          <a xlink:href="a03417_org.svg" target="_base">
           <rect id="button" ry="5" rx="5" y="6" x="6" height="38" width="38"
                fill="#f2f5e9" fill-opacity="0.5" stroke="#606060" stroke-width="1.0"/>
           <path id="arrow"
             d="M 11.500037,31.436501 C 11.940474,20.09759 22.043105,11.32322 32.158766,21.979434 L 37.068811,17.246167 C 37.068811,17.246167 37.088388,32 37.088388,32 L 22.160133,31.978069 C 22.160133,31.978069 26.997745,27.140456 26.997745,27.140456 C 18.528582,18.264221 13.291696,25.230495 11.500037,31.436501 z"
             style="fill:#404040;"/>
          </a>
         </g>
        </svg>
</svg>
