<?xml version="1.0" encoding="UTF-8" standalone="no"?>
<!DOCTYPE svg PUBLIC "-//W3C//DTD SVG 1.1//EN"
 "http://www.w3.org/Graphics/SVG/1.1/DTD/svg11.dtd">
<!-- Generated by graphviz version 2.38.0 (20140413.2041)
 -->
<!-- Title: SDK::UBTTask_WieldItemByCategory Pages: 1 -->
<svg width="178pt" height="248pt"
 viewBox="0.00 0.00 178.00 248.00" xmlns="http://www.w3.org/2000/svg" xmlns:xlink="http://www.w3.org/1999/xlink">
<g id="graph0" class="graph" transform="scale(1 1) rotate(0) translate(4 244)">
<title>SDK::UBTTask_WieldItemByCategory</title>
<!-- Node1 -->
<g id="node1" class="node"><title>Node1</title>
<g id="a_node1"><a xlink:title=" ">
<polygon fill="#bfbfbf" stroke="black" points="9,-0.5 9,-134.5 161,-134.5 161,-0.5 9,-0.5"/>
<text text-anchor="start" x="17" y="-122.5" font-family="Helvetica,sans-Serif" font-size="10.00">SDK::UBTTask_WieldItemBy</text>
<text text-anchor="middle" x="85" y="-111.5" font-family="Helvetica,sans-Serif" font-size="10.00">Category</text>
<polyline fill="none" stroke="black" points="9,-104.5 161,-104.5 "/>
<text text-anchor="start" x="17" y="-92.5" font-family="Helvetica,sans-Serif" font-size="10.00">+ EnableOverrideItemCategory</text>
<text text-anchor="start" x="17" y="-81.5" font-family="Helvetica,sans-Serif" font-size="10.00">+ UnknownData00</text>
<text text-anchor="start" x="17" y="-70.5" font-family="Helvetica,sans-Serif" font-size="10.00">+ OverrideItemCategory</text>
<text text-anchor="start" x="17" y="-59.5" font-family="Helvetica,sans-Serif" font-size="10.00">+ BlackboardKey</text>
<text text-anchor="start" x="17" y="-48.5" font-family="Helvetica,sans-Serif" font-size="10.00">+ AllowWieldNoneWhenNoItem</text>
<text text-anchor="start" x="17" y="-37.5" font-family="Helvetica,sans-Serif" font-size="10.00">OfCategory</text>
<text text-anchor="start" x="17" y="-26.5" font-family="Helvetica,sans-Serif" font-size="10.00">+ UnknownData01</text>
<polyline fill="none" stroke="black" points="9,-19.5 161,-19.5 "/>
<text text-anchor="start" x="17" y="-7.5" font-family="Helvetica,sans-Serif" font-size="10.00">+ StaticClass()</text>
</a>
</g>
</g>
<!-- Node2 -->
<g id="node2" class="node"><title>Node2</title>
<g id="a_node2"><a xlink:href="a03447.html" target="_top" xlink:title=" ">
<polygon fill="none" stroke="red" points="0,-171.5 0,-239.5 170,-239.5 170,-171.5 0,-171.5"/>
<text text-anchor="middle" x="85" y="-227.5" font-family="Helvetica,sans-Serif" font-size="10.00">SDK::UBTTask_WaitForWieldBase</text>
<polyline fill="none" stroke="red" points="0,-220.5 170,-220.5 "/>
<text text-anchor="start" x="8" y="-208.5" font-family="Helvetica,sans-Serif" font-size="10.00">+ WaitForUnstashed</text>
<text text-anchor="start" x="8" y="-197.5" font-family="Helvetica,sans-Serif" font-size="10.00">+ UnknownData00</text>
<polyline fill="none" stroke="red" points="0,-190.5 170,-190.5 "/>
<text text-anchor="start" x="8" y="-178.5" font-family="Helvetica,sans-Serif" font-size="10.00">+ StaticClass()</text>
</a>
</g>
</g>
<!-- Node2&#45;&gt;Node1 -->
<g id="edge1" class="edge"><title>Node2&#45;&gt;Node1</title>
<path fill="none" stroke="midnightblue" d="M85,-160.956C85,-152.567 85,-143.604 85,-134.683"/>
<polygon fill="none" stroke="midnightblue" points="81.5001,-161.231 85,-171.231 88.5001,-161.231 81.5001,-161.231"/>
</g>
</g>
</svg>
