<?xml version="1.0" encoding="UTF-8" standalone="no"?>
<!DOCTYPE svg PUBLIC "-//W3C//DTD SVG 1.1//EN"
 "http://www.w3.org/Graphics/SVG/1.1/DTD/svg11.dtd">
<!-- Generated by graphviz version 2.38.0 (20140413.2041)
 -->
<!-- Title: SDK::UBuriedItemStepDesc Pages: 1 -->
<svg width="304pt" height="375pt"
 viewBox="0.00 0.00 304.00 375.00" xmlns="http://www.w3.org/2000/svg" xmlns:xlink="http://www.w3.org/1999/xlink">
<g id="graph0" class="graph" transform="scale(1 1) rotate(0) translate(4 371)">
<title>SDK::UBuriedItemStepDesc</title>
<!-- Node1 -->
<g id="node1" class="node"><title>Node1</title>
<g id="a_node1"><a xlink:title=" ">
<polygon fill="#bfbfbf" stroke="black" points="78,-105.5 78,-261.5 217,-261.5 217,-105.5 78,-105.5"/>
<text text-anchor="middle" x="147.5" y="-249.5" font-family="Helvetica,sans-Serif" font-size="10.00">SDK::UBuriedItemStepDesc</text>
<polyline fill="none" stroke="black" points="78,-242.5 217,-242.5 "/>
<text text-anchor="start" x="86" y="-230.5" font-family="Helvetica,sans-Serif" font-size="10.00">+ ItemType</text>
<text text-anchor="start" x="86" y="-219.5" font-family="Helvetica,sans-Serif" font-size="10.00">+ ItemId</text>
<text text-anchor="start" x="86" y="-208.5" font-family="Helvetica,sans-Serif" font-size="10.00">+ DigRadius</text>
<text text-anchor="start" x="86" y="-197.5" font-family="Helvetica,sans-Serif" font-size="10.00">+ UnknownData00</text>
<text text-anchor="start" x="86" y="-186.5" font-family="Helvetica,sans-Serif" font-size="10.00">+ SpawnedItemInfo</text>
<text text-anchor="start" x="86" y="-175.5" font-family="Helvetica,sans-Serif" font-size="10.00">+ TrackBuriedItem</text>
<text text-anchor="start" x="86" y="-164.5" font-family="Helvetica,sans-Serif" font-size="10.00">+ MarkBuriedItemAsCritical</text>
<text text-anchor="start" x="86" y="-153.5" font-family="Helvetica,sans-Serif" font-size="10.00">+ MarkActorAsPhased</text>
<text text-anchor="start" x="86" y="-142.5" font-family="Helvetica,sans-Serif" font-size="10.00">+ UnknownData01</text>
<text text-anchor="start" x="86" y="-131.5" font-family="Helvetica,sans-Serif" font-size="10.00">+ CriticalActorLostMessage</text>
<polyline fill="none" stroke="black" points="78,-124.5 217,-124.5 "/>
<text text-anchor="start" x="86" y="-112.5" font-family="Helvetica,sans-Serif" font-size="10.00">+ StaticClass()</text>
</a>
</g>
</g>
<!-- Node4 -->
<g id="node3" class="node"><title>Node4</title>
<g id="a_node3"><a xlink:href="a03507.html" target="_top" xlink:title=" ">
<polygon fill="none" stroke="black" points="0,-0.5 0,-68.5 139,-68.5 139,-0.5 0,-0.5"/>
<text text-anchor="start" x="8" y="-56.5" font-family="Helvetica,sans-Serif" font-size="10.00">SDK::UBuriedItemStepFrom</text>
<text text-anchor="middle" x="69.5" y="-45.5" font-family="Helvetica,sans-Serif" font-size="10.00">ActorDesc</text>
<polyline fill="none" stroke="black" points="0,-38.5 139,-38.5 "/>
<text text-anchor="start" x="8" y="-26.5" font-family="Helvetica,sans-Serif" font-size="10.00">+ PlaceableActor</text>
<polyline fill="none" stroke="black" points="0,-19.5 139,-19.5 "/>
<text text-anchor="start" x="8" y="-7.5" font-family="Helvetica,sans-Serif" font-size="10.00">+ StaticClass()</text>
</a>
</g>
</g>
<!-- Node1&#45;&gt;Node4 -->
<g id="edge2" class="edge"><title>Node1&#45;&gt;Node4</title>
<path fill="none" stroke="midnightblue" d="M101.669,-96.1262C96.508,-86.3998 91.5118,-76.9837 87.0571,-68.5884"/>
<polygon fill="none" stroke="midnightblue" points="98.6653,-97.9326 106.444,-105.126 104.849,-94.6516 98.6653,-97.9326"/>
</g>
<!-- Node5 -->
<g id="node4" class="node"><title>Node5</title>
<g id="a_node4"><a xlink:href="a03503.html" target="_top" xlink:title=" ">
<polygon fill="none" stroke="black" points="157,-0.5 157,-68.5 296,-68.5 296,-0.5 157,-0.5"/>
<text text-anchor="start" x="165" y="-56.5" font-family="Helvetica,sans-Serif" font-size="10.00">SDK::UBuriedItemStepFrom</text>
<text text-anchor="middle" x="226.5" y="-45.5" font-family="Helvetica,sans-Serif" font-size="10.00">LocationDesc</text>
<polyline fill="none" stroke="black" points="157,-38.5 296,-38.5 "/>
<text text-anchor="start" x="165" y="-26.5" font-family="Helvetica,sans-Serif" font-size="10.00">+ ItemLocation</text>
<polyline fill="none" stroke="black" points="157,-19.5 296,-19.5 "/>
<text text-anchor="start" x="165" y="-7.5" font-family="Helvetica,sans-Serif" font-size="10.00">+ StaticClass()</text>
</a>
</g>
</g>
<!-- Node1&#45;&gt;Node5 -->
<g id="edge3" class="edge"><title>Node1&#45;&gt;Node5</title>
<path fill="none" stroke="midnightblue" d="M193.919,-96.1262C199.146,-86.3998 204.206,-76.9837 208.718,-68.5884"/>
<polygon fill="none" stroke="midnightblue" points="190.733,-94.6602 189.082,-105.126 196.899,-97.9739 190.733,-94.6602"/>
</g>
<!-- Node2 -->
<g id="node2" class="node"><title>Node2</title>
<g id="a_node2"><a xlink:href="a34915.html" target="_top" xlink:title=" ">
<polygon fill="none" stroke="red" points="79,-298.5 79,-366.5 216,-366.5 216,-298.5 79,-298.5"/>
<text text-anchor="middle" x="147.5" y="-354.5" font-family="Helvetica,sans-Serif" font-size="10.00">SDK::UTaleQuestStepDesc</text>
<polyline fill="none" stroke="red" points="79,-347.5 216,-347.5 "/>
<text text-anchor="start" x="87" y="-335.5" font-family="Helvetica,sans-Serif" font-size="10.00">+ Fork</text>
<text text-anchor="start" x="87" y="-324.5" font-family="Helvetica,sans-Serif" font-size="10.00">+ UnknownData00</text>
<polyline fill="none" stroke="red" points="79,-317.5 216,-317.5 "/>
<text text-anchor="start" x="87" y="-305.5" font-family="Helvetica,sans-Serif" font-size="10.00">+ StaticClass()</text>
</a>
</g>
</g>
<!-- Node2&#45;&gt;Node1 -->
<g id="edge1" class="edge"><title>Node2&#45;&gt;Node1</title>
<path fill="none" stroke="midnightblue" d="M147.5,-288C147.5,-279.7 147.5,-270.784 147.5,-261.792"/>
<polygon fill="none" stroke="midnightblue" points="144,-288.143 147.5,-298.143 151,-288.143 144,-288.143"/>
</g>
</g>
</svg>
