<?xml version="1.0" encoding="UTF-8" standalone="no"?>
<!DOCTYPE svg PUBLIC "-//W3C//DTD SVG 1.1//EN"
 "http://www.w3.org/Graphics/SVG/1.1/DTD/svg11.dtd">
<!-- Generated by graphviz version 2.38.0 (20140413.2041)
 -->
<!-- Title: SDK::ABuriedTreasureLocation Pages: 1 -->
<!--zoomable 650 -->
<svg id="main" version="1.1" xmlns="http://www.w3.org/2000/svg" xmlns:xlink="http://www.w3.org/1999/xlink" xml:space="preserve" onload="init(evt)">
<style type="text/css"><![CDATA[
.edge:hover path { stroke: red; }
.edge:hover polygon { stroke: red; fill: red; }
]]></style>
<script type="text/javascript"><![CDATA[
var edges = document.getElementsByTagName('g');
if (edges && edges.length) {
  for (var i=0;i<edges.length;i++) {
    if (edges[i].id.substr(0,4)=='edge') {
      edges[i].setAttribute('class','edge');
    }
  }
}
]]></script>
        <defs>
                <circle id="rim" cx="0" cy="0" r="7"/>
                <circle id="rim2" cx="0" cy="0" r="3.5"/>
                <g id="zoomPlus">
                        <use xlink:href="#rim" fill="#404040">
                                <set attributeName="fill" to="#808080" begin="zoomplus.mouseover" end="zoomplus.mouseout"/>
                        </use>
                        <path d="M-4,0h8M0,-4v8" fill="none" stroke="white" stroke-width="1.5" pointer-events="none"/>
                </g>
                <g id="zoomMin">
                        <use xlink:href="#rim" fill="#404040">
                                <set attributeName="fill" to="#808080" begin="zoomminus.mouseover" end="zoomminus.mouseout"/>
                        </use>
                        <path d="M-4,0h8" fill="none" stroke="white" stroke-width="1.5" pointer-events="none"/>
                </g>
                <g id="dirArrow">
                        <path fill="none" stroke="white" stroke-width="1.5" d="M0,-3.0v7 M-2.5,-0.5L0,-3.0L2.5,-0.5"/>
                </g>
               <g id="resetDef">
                       <use xlink:href="#rim2" fill="#404040">
                               <set attributeName="fill" to="#808080" begin="reset.mouseover" end="reset.mouseout"/>
                       </use>
               </g>
        </defs>

<script type="text/javascript">
var viewWidth = 805;
var viewHeight = 650;
var sectionId = 'dynsection-1';
</script>
<script xlink:href="svgpan.js"/>
<svg id="graph" class="graph">
<g id="viewport">
<title>SDK::ABuriedTreasureLocation</title>
<!-- Node1 -->
<g id="node1" class="node"><title>Node1</title>
<g id="a_node1"><a xlink:title=" ">
<polygon fill="#bfbfbf" stroke="black" points="310.499,-0.5 310.499,-79.5 462.499,-79.5 462.499,-0.5 310.499,-0.5"/>
<text text-anchor="middle" x="386.499" y="-67.5" font-family="Helvetica,sans-Serif" font-size="10.00">SDK::ABuriedTreasureLocation</text>
<polyline fill="none" stroke="black" points="310.499,-60.5 462.499,-60.5 "/>
<text text-anchor="middle" x="386.499" y="-48.5" font-family="Helvetica,sans-Serif" font-size="10.00"> </text>
<polyline fill="none" stroke="black" points="310.499,-41.5 462.499,-41.5 "/>
<text text-anchor="start" x="318.499" y="-29.5" font-family="Helvetica,sans-Serif" font-size="10.00">+ IsValidTreasureLocation()</text>
<text text-anchor="start" x="318.499" y="-18.5" font-family="Helvetica,sans-Serif" font-size="10.00">+ GetIdentifier()</text>
<text text-anchor="start" x="318.499" y="-7.5" font-family="Helvetica,sans-Serif" font-size="10.00">+ StaticClass()</text>
</a>
</g>
</g>
<!-- Node2 -->
<g id="node2" class="node"><title>Node2</title>
<g id="a_node2"><a xlink:href="a26343.html" target="_top" xlink:title=" ">
<polygon fill="none" stroke="red" points="302.999,-127.5 302.999,-426.5 469.999,-426.5 469.999,-127.5 302.999,-127.5"/>
<text text-anchor="middle" x="386.499" y="-414.5" font-family="Helvetica,sans-Serif" font-size="10.00">SDK::AActor</text>
<polyline fill="none" stroke="red" points="302.999,-407.5 469.999,-407.5 "/>
<text text-anchor="start" x="310.999" y="-395.5" font-family="Helvetica,sans-Serif" font-size="10.00">+ bAllowRemovalFromServerWhen</text>
<text text-anchor="start" x="310.999" y="-384.5" font-family="Helvetica,sans-Serif" font-size="10.00">CollisionMerged</text>
<text text-anchor="start" x="310.999" y="-373.5" font-family="Helvetica,sans-Serif" font-size="10.00">+ bHidden</text>
<text text-anchor="start" x="310.999" y="-362.5" font-family="Helvetica,sans-Serif" font-size="10.00">+ bNetStartup</text>
<text text-anchor="start" x="310.999" y="-351.5" font-family="Helvetica,sans-Serif" font-size="10.00">+ bOnlyRelevantToOwner</text>
<text text-anchor="start" x="310.999" y="-340.5" font-family="Helvetica,sans-Serif" font-size="10.00">+ bAlwaysRelevant</text>
<text text-anchor="start" x="310.999" y="-329.5" font-family="Helvetica,sans-Serif" font-size="10.00">+ bReplicateMovement</text>
<text text-anchor="start" x="310.999" y="-318.5" font-family="Helvetica,sans-Serif" font-size="10.00">+ bExchangedRoles</text>
<text text-anchor="start" x="310.999" y="-307.5" font-family="Helvetica,sans-Serif" font-size="10.00">+ bNetLoadOnClient</text>
<text text-anchor="start" x="310.999" y="-296.5" font-family="Helvetica,sans-Serif" font-size="10.00">+ bBlockInput</text>
<text text-anchor="start" x="310.999" y="-285.5" font-family="Helvetica,sans-Serif" font-size="10.00">+ UnknownData00</text>
<text text-anchor="start" x="310.999" y="-274.5" font-family="Helvetica,sans-Serif" font-size="10.00">and 26 more...</text>
<polyline fill="none" stroke="red" points="302.999,-267.5 469.999,-267.5 "/>
<text text-anchor="start" x="310.999" y="-255.5" font-family="Helvetica,sans-Serif" font-size="10.00">+ UserConstructionScript()</text>
<text text-anchor="start" x="310.999" y="-244.5" font-family="Helvetica,sans-Serif" font-size="10.00">+ TearOff()</text>
<text text-anchor="start" x="310.999" y="-233.5" font-family="Helvetica,sans-Serif" font-size="10.00">+ SnapRootComponentTo()</text>
<text text-anchor="start" x="310.999" y="-222.5" font-family="Helvetica,sans-Serif" font-size="10.00">+ SetTickGroup()</text>
<text text-anchor="start" x="310.999" y="-211.5" font-family="Helvetica,sans-Serif" font-size="10.00">+ SetTickableWhenPaused()</text>
<text text-anchor="start" x="310.999" y="-200.5" font-family="Helvetica,sans-Serif" font-size="10.00">+ SetReplicates()</text>
<text text-anchor="start" x="310.999" y="-189.5" font-family="Helvetica,sans-Serif" font-size="10.00">+ SetReplicateMovement()</text>
<text text-anchor="start" x="310.999" y="-178.5" font-family="Helvetica,sans-Serif" font-size="10.00">+ SetOwner()</text>
<text text-anchor="start" x="310.999" y="-167.5" font-family="Helvetica,sans-Serif" font-size="10.00">+ SetLifeSpan()</text>
<text text-anchor="start" x="310.999" y="-156.5" font-family="Helvetica,sans-Serif" font-size="10.00">+ SetIgnoreNetTransformUpdates()</text>
<text text-anchor="start" x="310.999" y="-145.5" font-family="Helvetica,sans-Serif" font-size="10.00">and 109 more...</text>
<text text-anchor="start" x="310.999" y="-134.5" font-family="Helvetica,sans-Serif" font-size="10.00">+ StaticClass()</text>
</a>
</g>
</g>
<!-- Node2&#45;&gt;Node1 -->
<g id="edge1" class="edge"><title>Node2&#45;&gt;Node1</title>
<path fill="none" stroke="midnightblue" d="M386.499,-117.155C386.499,-103.586 386.499,-90.8611 386.499,-79.8425"/>
<polygon fill="none" stroke="midnightblue" points="382.999,-117.171 386.499,-127.171 389.999,-117.171 382.999,-117.171"/>
</g>
<!-- Node2&#45;&gt;Node2 -->
<g id="edge3" class="edge"><title>Node2&#45;&gt;Node2</title>
<path fill="none" stroke="#404040" d="M470.119,-305.264C480.886,-300.363 487.999,-290.941 487.999,-277 487.999,-268.069 485.08,-260.993 480.151,-255.771"/>
<polygon fill="none" stroke="#404040" points="479.944,-255.626 472.735,-255.456 470.119,-248.736 477.329,-248.906 479.944,-255.626"/>
<text text-anchor="middle" x="506.499" y="-274.5" font-family="Helvetica,sans-Serif" font-size="10.00"> +Owner</text>
</g>
<!-- Node12 -->
<g id="node3" class="node"><title>Node12</title>
<g id="a_node3"><a xlink:title=" ">
<polygon fill="none" stroke="#bfbfbf" points="145.999,-584.5 145.999,-641.5 180.999,-641.5 180.999,-584.5 145.999,-584.5"/>
<text text-anchor="middle" x="163.499" y="-629.5" font-family="Helvetica,sans-Serif" font-size="10.00">char</text>
<polyline fill="none" stroke="#bfbfbf" points="145.999,-622.5 180.999,-622.5 "/>
<text text-anchor="middle" x="163.499" y="-610.5" font-family="Helvetica,sans-Serif" font-size="10.00"> </text>
<polyline fill="none" stroke="#bfbfbf" points="145.999,-603.5 180.999,-603.5 "/>
<text text-anchor="middle" x="163.499" y="-591.5" font-family="Helvetica,sans-Serif" font-size="10.00"> </text>
</a>
</g>
</g>
<!-- Node12&#45;&gt;Node1 -->
<g id="edge5" class="edge"><title>Node12&#45;&gt;Node1</title>
<path fill="none" stroke="#404040" d="M145.782,-592.528C118.168,-560.71 66.0077,-494.345 46.4991,-427 9.40017,-298.932 -35.4105,-232.207 46.4991,-127 77.1635,-87.6135 208.022,-63.401 298.15,-51.0822"/>
<polygon fill="none" stroke="#404040" points="298.412,-51.0473 303.83,-46.2881 310.307,-49.4585 304.889,-54.2177 298.412,-51.0473"/>
<text text-anchor="middle" x="86.4991" y="-274.5" font-family="Helvetica,sans-Serif" font-size="10.00"> +UnknownData00</text>
</g>
<!-- Node12&#45;&gt;Node2 -->
<g id="edge2" class="edge"><title>Node12&#45;&gt;Node2</title>
<path fill="none" stroke="#404040" d="M181.042,-606.921C199.811,-600.537 228.972,-587.701 244.499,-566 276.353,-521.482 237.658,-490.892 267.499,-445 275.161,-433.217 283.8,-437.172 293.499,-427 293.894,-426.586 294.287,-426.17 294.68,-425.753"/>
<polygon fill="none" stroke="#404040" points="294.781,-425.641 295.824,-418.506 302.812,-416.724 301.769,-423.859 294.781,-425.641"/>
<text text-anchor="middle" x="333.499" y="-558" font-family="Helvetica,sans-Serif" font-size="10.00"> +bEnableAutoLODGeneration</text>
<text text-anchor="middle" x="333.499" y="-547" font-family="Helvetica,sans-Serif" font-size="10.00">+UnknownData01</text>
<text text-anchor="middle" x="333.499" y="-536" font-family="Helvetica,sans-Serif" font-size="10.00">+bNetUseOwnerRelevancy</text>
<text text-anchor="middle" x="333.499" y="-525" font-family="Helvetica,sans-Serif" font-size="10.00">+bTearOff</text>
<text text-anchor="middle" x="333.499" y="-514" font-family="Helvetica,sans-Serif" font-size="10.00">+bNetTemporary</text>
<text text-anchor="middle" x="333.499" y="-503" font-family="Helvetica,sans-Serif" font-size="10.00">+UnknownData02</text>
<text text-anchor="middle" x="333.499" y="-492" font-family="Helvetica,sans-Serif" font-size="10.00">+bCanBeInCluster</text>
<text text-anchor="middle" x="333.499" y="-481" font-family="Helvetica,sans-Serif" font-size="10.00">+bPendingNetUpdate</text>
<text text-anchor="middle" x="333.499" y="-470" font-family="Helvetica,sans-Serif" font-size="10.00">+UnknownData10</text>
<text text-anchor="middle" x="333.499" y="-459" font-family="Helvetica,sans-Serif" font-size="10.00">+UnknownData03</text>
<text text-anchor="middle" x="333.499" y="-448" font-family="Helvetica,sans-Serif" font-size="10.00">...</text>
</g>
<!-- Node177 -->
<g id="node5" class="node"><title>Node177</title>
<g id="a_node5"><a xlink:href="a27447.html" target="_top" xlink:title=" ">
<polygon fill="none" stroke="red" points="135.999,-226.5 135.999,-327.5 284.999,-327.5 284.999,-226.5 135.999,-226.5"/>
<text text-anchor="middle" x="210.499" y="-315.5" font-family="Helvetica,sans-Serif" font-size="10.00">SDK::USphereComponent</text>
<polyline fill="none" stroke="red" points="135.999,-308.5 284.999,-308.5 "/>
<text text-anchor="middle" x="210.499" y="-296.5" font-family="Helvetica,sans-Serif" font-size="10.00"> </text>
<polyline fill="none" stroke="red" points="135.999,-289.5 284.999,-289.5 "/>
<text text-anchor="start" x="143.999" y="-277.5" font-family="Helvetica,sans-Serif" font-size="10.00">+ SetSphereRadius()</text>
<text text-anchor="start" x="143.999" y="-266.5" font-family="Helvetica,sans-Serif" font-size="10.00">+ GetUnscaledSphereRadius()</text>
<text text-anchor="start" x="143.999" y="-255.5" font-family="Helvetica,sans-Serif" font-size="10.00">+ GetShapeScale()</text>
<text text-anchor="start" x="143.999" y="-244.5" font-family="Helvetica,sans-Serif" font-size="10.00">+ GetScaledSphereRadius()</text>
<text text-anchor="start" x="143.999" y="-233.5" font-family="Helvetica,sans-Serif" font-size="10.00">+ StaticClass()</text>
</a>
</g>
</g>
<!-- Node12&#45;&gt;Node177 -->
<g id="edge7" class="edge"><title>Node12&#45;&gt;Node177</title>
<path fill="none" stroke="#404040" d="M161.459,-584.359C159.512,-551.109 157.769,-493.681 164.499,-445 169.429,-409.34 179.807,-370.514 189.459,-339.281"/>
<polygon fill="none" stroke="#404040" points="189.501,-339.148 187.491,-332.223 193.11,-327.704 195.12,-334.629 189.501,-339.148"/>
<text text-anchor="middle" x="204.499" y="-503" font-family="Helvetica,sans-Serif" font-size="10.00"> +UnknownData00</text>
</g>
<!-- Node42 -->
<g id="node4" class="node"><title>Node42</title>
<g id="a_node4"><a xlink:title=" ">
<polygon fill="none" stroke="#bfbfbf" points="473.999,-584.5 473.999,-641.5 508.999,-641.5 508.999,-584.5 473.999,-584.5"/>
<text text-anchor="middle" x="491.499" y="-629.5" font-family="Helvetica,sans-Serif" font-size="10.00">bool</text>
<polyline fill="none" stroke="#bfbfbf" points="473.999,-622.5 508.999,-622.5 "/>
<text text-anchor="middle" x="491.499" y="-610.5" font-family="Helvetica,sans-Serif" font-size="10.00"> </text>
<polyline fill="none" stroke="#bfbfbf" points="473.999,-603.5 508.999,-603.5 "/>
<text text-anchor="middle" x="491.499" y="-591.5" font-family="Helvetica,sans-Serif" font-size="10.00"> </text>
</a>
</g>
</g>
<!-- Node42&#45;&gt;Node1 -->
<g id="edge8" class="edge"><title>Node42&#45;&gt;Node1</title>
<path fill="none" stroke="#404040" d="M509.012,-603.178C522.304,-595.407 539.595,-582.721 547.499,-566 565.315,-528.309 569.851,-187.271 533.499,-127 519.594,-103.946 496.984,-86.4121 473.62,-73.3878"/>
<polygon fill="none" stroke="#404040" points="473.477,-73.3123 466.304,-74.0535 462.861,-67.7174 470.034,-66.9762 473.477,-73.3123"/>
<text text-anchor="middle" x="600.499" y="-274.5" font-family="Helvetica,sans-Serif" font-size="10.00"> +StopVerification</text>
</g>
<!-- Node42&#45;&gt;Node2 -->
<g id="edge4" class="edge"><title>Node42&#45;&gt;Node2</title>
<path fill="none" stroke="#404040" d="M473.855,-605.309C457.642,-598.173 434.382,-585.228 422.499,-566 415.126,-554.07 407.358,-498.051 400.932,-438.545"/>
<polygon fill="none" stroke="#404040" points="400.932,-438.542 396.321,-432.998 399.665,-426.609 404.276,-432.153 400.932,-438.542"/>
<text text-anchor="middle" x="484.999" y="-503" font-family="Helvetica,sans-Serif" font-size="10.00"> +bDoOverlapNotifiesOnLoad</text>
</g>
<!-- Node177&#45;&gt;Node1 -->
<g id="edge6" class="edge"><title>Node177&#45;&gt;Node1</title>
<path fill="none" stroke="#404040" d="M227.615,-226.184C242.524,-188.004 267.019,-135.652 300.499,-98 303.689,-94.413 307.153,-90.9524 310.799,-87.6311"/>
<polygon fill="none" stroke="#404040" points="311.034,-87.4318 313.022,-80.5001 320.185,-79.6692 318.197,-86.6009 311.034,-87.4318"/>
<text text-anchor="middle" x="341.499" y="-101" font-family="Helvetica,sans-Serif" font-size="10.00"> +BaseComponent</text>
</g>
<!-- Node178 -->
<g id="node6" class="node"><title>Node178</title>
<g id="a_node6"><a xlink:href="a25611.html" target="_top" xlink:title=" ">
<polygon fill="none" stroke="black" points="657.499,-221 657.499,-333 797.499,-333 797.499,-221 657.499,-221"/>
<text text-anchor="start" x="665.499" y="-321" font-family="Helvetica,sans-Serif" font-size="10.00">SDK::TArray&lt; class</text>
<text text-anchor="middle" x="727.499" y="-310" font-family="Helvetica,sans-Serif" font-size="10.00"> SDK::UPhysicalMaterial * &gt;</text>
<polyline fill="none" stroke="black" points="657.499,-303 797.499,-303 "/>
<text text-anchor="middle" x="727.499" y="-291" font-family="Helvetica,sans-Serif" font-size="10.00"> </text>
<polyline fill="none" stroke="black" points="657.499,-284 797.499,-284 "/>
<text text-anchor="start" x="665.499" y="-272" font-family="Helvetica,sans-Serif" font-size="10.00">+ TArray()</text>
<text text-anchor="start" x="665.499" y="-261" font-family="Helvetica,sans-Serif" font-size="10.00">+ Num()</text>
<text text-anchor="start" x="665.499" y="-250" font-family="Helvetica,sans-Serif" font-size="10.00">+ operator[]()</text>
<text text-anchor="start" x="665.499" y="-239" font-family="Helvetica,sans-Serif" font-size="10.00">+ operator[]()</text>
<text text-anchor="start" x="665.499" y="-228" font-family="Helvetica,sans-Serif" font-size="10.00">+ IsValidIndex()</text>
</a>
</g>
</g>
<!-- Node178&#45;&gt;Node1 -->
<g id="edge9" class="edge"><title>Node178&#45;&gt;Node1</title>
<path fill="none" stroke="#404040" d="M706.9,-220.879C692.98,-189.897 671.927,-152.455 643.499,-127 596.737,-85.1278 528.917,-63.5417 474.687,-52.4699"/>
<polygon fill="none" stroke="#404040" points="474.412,-52.4166 467.761,-55.2023 462.631,-50.1339 469.283,-47.3483 474.412,-52.4166"/>
<text text-anchor="middle" x="667.499" y="-101" font-family="Helvetica,sans-Serif" font-size="10.00"> +DiggableSurfaceTypes</text>
</g>
</g>
</svg>
        <g id="navigator" transform="translate(0 0)" fill="#404254">
                <rect fill="#f2f5e9" fill-opacity="0.5" stroke="#606060" stroke-width=".5" x="0" y="0" width="60" height="60"/>
                <use id="zoomplus" xlink:href="#zoomPlus" x="17" y="9" onmousedown="handleZoom(evt,'in')"/>
                <use id="zoomminus" xlink:href="#zoomMin" x="42" y="9" onmousedown="handleZoom(evt,'out')"/>
                <use id="reset" xlink:href="#resetDef" x="30" y="36" onmousedown="handleReset()"/>
                <g id="arrowUp" xlink:href="#dirArrow" transform="translate(30 24)" onmousedown="handlePan(0,-1)">
                  <use xlink:href="#rim" fill="#404040">
                        <set attributeName="fill" to="#808080" begin="arrowUp.mouseover" end="arrowUp.mouseout"/>
                  </use>
                  <path fill="none" stroke="white" stroke-width="1.5" d="M0,-3.0v7 M-2.5,-0.5L0,-3.0L2.5,-0.5"/>
                </g>
                <g id="arrowRight" xlink:href="#dirArrow" transform="rotate(90) translate(36 -43)" onmousedown="handlePan(1,0)">
                  <use xlink:href="#rim" fill="#404040">
                        <set attributeName="fill" to="#808080" begin="arrowRight.mouseover" end="arrowRight.mouseout"/>
                  </use>
                  <path fill="none" stroke="white" stroke-width="1.5" d="M0,-3.0v7 M-2.5,-0.5L0,-3.0L2.5,-0.5"/>
                </g>
                <g id="arrowDown" xlink:href="#dirArrow" transform="rotate(180) translate(-30 -48)" onmousedown="handlePan(0,1)">
                  <use xlink:href="#rim" fill="#404040">
                        <set attributeName="fill" to="#808080" begin="arrowDown.mouseover" end="arrowDown.mouseout"/>
                  </use>
                  <path fill="none" stroke="white" stroke-width="1.5" d="M0,-3.0v7 M-2.5,-0.5L0,-3.0L2.5,-0.5"/>
                </g>
                <g id="arrowLeft" xlink:href="#dirArrow" transform="rotate(270) translate(-36 17)" onmousedown="handlePan(-1,0)">
                  <use xlink:href="#rim" fill="#404040">
                        <set attributeName="fill" to="#808080" begin="arrowLeft.mouseover" end="arrowLeft.mouseout"/>
                  </use>
                  <path fill="none" stroke="white" stroke-width="1.5" d="M0,-3.0v7 M-2.5,-0.5L0,-3.0L2.5,-0.5"/>
                </g>
        </g>
        <svg viewBox="0 0 15 15" width="100%" height="30px" preserveAspectRatio="xMaxYMin meet">
         <g id="arrow_out" transform="scale(0.3 0.3)">
          <a xlink:href="a03521_org.svg" target="_base">
           <rect id="button" ry="5" rx="5" y="6" x="6" height="38" width="38"
                fill="#f2f5e9" fill-opacity="0.5" stroke="#606060" stroke-width="1.0"/>
           <path id="arrow"
             d="M 11.500037,31.436501 C 11.940474,20.09759 22.043105,11.32322 32.158766,21.979434 L 37.068811,17.246167 C 37.068811,17.246167 37.088388,32 37.088388,32 L 22.160133,31.978069 C 22.160133,31.978069 26.997745,27.140456 26.997745,27.140456 C 18.528582,18.264221 13.291696,25.230495 11.500037,31.436501 z"
             style="fill:#404040;"/>
          </a>
         </g>
        </svg>
</svg>
