<?xml version="1.0" encoding="UTF-8" standalone="no"?>
<!DOCTYPE svg PUBLIC "-//W3C//DTD SVG 1.1//EN"
 "http://www.w3.org/Graphics/SVG/1.1/DTD/svg11.dtd">
<!-- Generated by graphviz version 2.38.0 (20140413.2041)
 -->
<!-- Title: SDK::UCapstanDescAsset Pages: 1 -->
<svg width="268pt" height="171pt"
 viewBox="0.00 0.00 268.00 171.00" xmlns="http://www.w3.org/2000/svg" xmlns:xlink="http://www.w3.org/1999/xlink">
<g id="graph0" class="graph" transform="scale(1 1) rotate(0) translate(4 167)">
<title>SDK::UCapstanDescAsset</title>
<!-- Node1 -->
<g id="node1" class="node"><title>Node1</title>
<g id="a_node1"><a xlink:title=" ">
<polygon fill="#bfbfbf" stroke="black" points="69.5,-0.5 69.5,-57.5 203.5,-57.5 203.5,-0.5 69.5,-0.5"/>
<text text-anchor="middle" x="136.5" y="-45.5" font-family="Helvetica,sans-Serif" font-size="10.00">SDK::UCapstanDescAsset</text>
<polyline fill="none" stroke="black" points="69.5,-38.5 203.5,-38.5 "/>
<text text-anchor="middle" x="136.5" y="-26.5" font-family="Helvetica,sans-Serif" font-size="10.00"> </text>
<polyline fill="none" stroke="black" points="69.5,-19.5 203.5,-19.5 "/>
<text text-anchor="start" x="77.5" y="-7.5" font-family="Helvetica,sans-Serif" font-size="10.00">+ StaticClass()</text>
</a>
</g>
</g>
<!-- Node2 -->
<g id="node2" class="node"><title>Node2</title>
<g id="a_node2"><a xlink:href="a02923.html" target="_top" xlink:title=" ">
<polygon fill="none" stroke="red" points="0,-105.5 0,-162.5 135,-162.5 135,-105.5 0,-105.5"/>
<text text-anchor="middle" x="67.5" y="-150.5" font-family="Helvetica,sans-Serif" font-size="10.00">SDK::UShipPartDescAsset</text>
<polyline fill="none" stroke="red" points="0,-143.5 135,-143.5 "/>
<text text-anchor="middle" x="67.5" y="-131.5" font-family="Helvetica,sans-Serif" font-size="10.00"> </text>
<polyline fill="none" stroke="red" points="0,-124.5 135,-124.5 "/>
<text text-anchor="start" x="8" y="-112.5" font-family="Helvetica,sans-Serif" font-size="10.00">+ StaticClass()</text>
</a>
</g>
</g>
<!-- Node2&#45;&gt;Node1 -->
<g id="edge1" class="edge"><title>Node2&#45;&gt;Node1</title>
<path fill="none" stroke="midnightblue" d="M91.7681,-96.7738C100.371,-83.931 109.908,-69.695 117.958,-57.6783"/>
<polygon fill="none" stroke="midnightblue" points="88.6485,-95.1418 85.9907,-105.398 94.4642,-99.0378 88.6485,-95.1418"/>
</g>
<!-- Node15 -->
<g id="node3" class="node"><title>Node15</title>
<g id="a_node3"><a xlink:href="a13723.html" target="_top" xlink:title=" ">
<polygon fill="none" stroke="red" points="153,-105.5 153,-162.5 260,-162.5 260,-105.5 153,-105.5"/>
<text text-anchor="middle" x="206.5" y="-150.5" font-family="Helvetica,sans-Serif" font-size="10.00">SDK::FCapstanDesc</text>
<polyline fill="none" stroke="red" points="153,-143.5 260,-143.5 "/>
<text text-anchor="middle" x="206.5" y="-131.5" font-family="Helvetica,sans-Serif" font-size="10.00"> </text>
<polyline fill="none" stroke="red" points="153,-124.5 260,-124.5 "/>
<text text-anchor="middle" x="206.5" y="-112.5" font-family="Helvetica,sans-Serif" font-size="10.00"> </text>
</a>
</g>
</g>
<!-- Node15&#45;&gt;Node1 -->
<g id="edge2" class="edge"><title>Node15&#45;&gt;Node1</title>
<path fill="none" stroke="#404040" d="M187.741,-105.398C179.895,-93.8524 170.649,-80.248 162.187,-67.7962"/>
<polygon fill="none" stroke="#404040" points="162.056,-67.6032 155.375,-64.8891 155.31,-57.6783 161.991,-60.3924 162.056,-67.6032"/>
<text text-anchor="middle" x="207.5" y="-79" font-family="Helvetica,sans-Serif" font-size="10.00"> +CapstanDesc</text>
</g>
</g>
</svg>
