<?xml version="1.0" encoding="UTF-8" standalone="no"?>
<!DOCTYPE svg PUBLIC "-//W3C//DTD SVG 1.1//EN"
 "http://www.w3.org/Graphics/SVG/1.1/DTD/svg11.dtd">
<!-- Generated by graphviz version 2.38.0 (20140413.2041)
 -->
<!-- Title: SDK::UCannonReloadCompositeInputHandler Pages: 1 -->
<svg width="289pt" height="321pt"
 viewBox="0.00 0.00 289.00 321.00" xmlns="http://www.w3.org/2000/svg" xmlns:xlink="http://www.w3.org/1999/xlink">
<g id="graph0" class="graph" transform="scale(1 1) rotate(0) translate(4 317)">
<title>SDK::UCannonReloadCompositeInputHandler</title>
<!-- Node1 -->
<g id="node1" class="node"><title>Node1</title>
<g id="a_node1"><a xlink:title=" ">
<polygon fill="#bfbfbf" stroke="black" points="0,-0.5 0,-90.5 164,-90.5 164,-0.5 0,-0.5"/>
<text text-anchor="start" x="8" y="-78.5" font-family="Helvetica,sans-Serif" font-size="10.00">SDK::UCannonReloadComposite</text>
<text text-anchor="middle" x="82" y="-67.5" font-family="Helvetica,sans-Serif" font-size="10.00">InputHandler</text>
<polyline fill="none" stroke="black" points="0,-60.5 164,-60.5 "/>
<text text-anchor="middle" x="82" y="-48.5" font-family="Helvetica,sans-Serif" font-size="10.00"> </text>
<polyline fill="none" stroke="black" points="0,-41.5 164,-41.5 "/>
<text text-anchor="start" x="8" y="-29.5" font-family="Helvetica,sans-Serif" font-size="10.00">+ OnSecondaryInteractReleased()</text>
<text text-anchor="start" x="8" y="-18.5" font-family="Helvetica,sans-Serif" font-size="10.00">+ OnSecondaryInteract()</text>
<text text-anchor="start" x="8" y="-7.5" font-family="Helvetica,sans-Serif" font-size="10.00">+ StaticClass()</text>
</a>
</g>
</g>
<!-- Node2 -->
<g id="node2" class="node"><title>Node2</title>
<g id="a_node2"><a xlink:href="a25611.html" target="_top" xlink:title=" ">
<polygon fill="none" stroke="red" points="131,-128.5 131,-207.5 281,-207.5 281,-128.5 131,-128.5"/>
<text text-anchor="middle" x="206" y="-195.5" font-family="Helvetica,sans-Serif" font-size="10.00">SDK::UCompositeInputHandler</text>
<polyline fill="none" stroke="red" points="131,-188.5 281,-188.5 "/>
<text text-anchor="middle" x="206" y="-176.5" font-family="Helvetica,sans-Serif" font-size="10.00"> </text>
<polyline fill="none" stroke="red" points="131,-169.5 281,-169.5 "/>
<text text-anchor="start" x="139" y="-157.5" font-family="Helvetica,sans-Serif" font-size="10.00">+ SetNotificationInputHandler()</text>
<text text-anchor="start" x="139" y="-146.5" font-family="Helvetica,sans-Serif" font-size="10.00">+ SetAnalogInputHandler()</text>
<text text-anchor="start" x="139" y="-135.5" font-family="Helvetica,sans-Serif" font-size="10.00">+ StaticClass()</text>
</a>
</g>
</g>
<!-- Node2&#45;&gt;Node1 -->
<g id="edge1" class="edge"><title>Node2&#45;&gt;Node1</title>
<path fill="none" stroke="midnightblue" d="M158.729,-121.063C148.467,-111.091 137.634,-100.563 127.444,-90.6615"/>
<polygon fill="none" stroke="midnightblue" points="156.472,-123.751 166.083,-128.21 161.351,-118.731 156.472,-123.751"/>
</g>
<!-- Node12 -->
<g id="node3" class="node"><title>Node12</title>
<g id="a_node3"><a xlink:title=" ">
<polygon fill="none" stroke="#bfbfbf" points="66.5,-255.5 66.5,-312.5 101.5,-312.5 101.5,-255.5 66.5,-255.5"/>
<text text-anchor="middle" x="84" y="-300.5" font-family="Helvetica,sans-Serif" font-size="10.00">char</text>
<polyline fill="none" stroke="#bfbfbf" points="66.5,-293.5 101.5,-293.5 "/>
<text text-anchor="middle" x="84" y="-281.5" font-family="Helvetica,sans-Serif" font-size="10.00"> </text>
<polyline fill="none" stroke="#bfbfbf" points="66.5,-274.5 101.5,-274.5 "/>
<text text-anchor="middle" x="84" y="-262.5" font-family="Helvetica,sans-Serif" font-size="10.00"> </text>
</a>
</g>
</g>
<!-- Node12&#45;&gt;Node1 -->
<g id="edge3" class="edge"><title>Node12&#45;&gt;Node1</title>
<path fill="none" stroke="#404040" d="M66.3991,-259.03C57.1592,-244.94 46.7852,-226.339 42,-208 33.0229,-173.596 33.9589,-162.634 42,-128 44.0324,-119.246 47.1436,-110.349 50.7522,-101.807"/>
<polygon fill="none" stroke="#404040" points="50.7772,-101.751 49.6127,-94.6349 55.7339,-90.8228 56.8984,-97.9393 50.7772,-101.751"/>
<text text-anchor="middle" x="82" y="-165.5" font-family="Helvetica,sans-Serif" font-size="10.00"> +UnknownData00</text>
</g>
<!-- Node12&#45;&gt;Node2 -->
<g id="edge2" class="edge"><title>Node12&#45;&gt;Node2</title>
<path fill="none" stroke="#404040" d="M101.74,-266.423C115.946,-253.149 136.6,-233.849 155.785,-215.922"/>
<polygon fill="none" stroke="#404040" points="155.99,-215.73 157.643,-208.711 164.758,-207.537 163.105,-214.557 155.99,-215.73"/>
<text text-anchor="middle" x="185" y="-229" font-family="Helvetica,sans-Serif" font-size="10.00"> +UnknownData00</text>
</g>
</g>
</svg>
