<?xml version="1.0" encoding="UTF-8" standalone="no"?>
<!DOCTYPE svg PUBLIC "-//W3C//DTD SVG 1.1//EN"
 "http://www.w3.org/Graphics/SVG/1.1/DTD/svg11.dtd">
<!-- Generated by graphviz version 2.38.0 (20140413.2041)
 -->
<!-- Title: SDK::UClothingCategory Pages: 1 -->
<svg width="721pt" height="386pt"
 viewBox="0.00 0.00 721.38 386.00" xmlns="http://www.w3.org/2000/svg" xmlns:xlink="http://www.w3.org/1999/xlink">
<g id="graph0" class="graph" transform="scale(1 1) rotate(0) translate(4 382)">
<title>SDK::UClothingCategory</title>
<!-- Node1 -->
<g id="node1" class="node"><title>Node1</title>
<g id="a_node1"><a xlink:title=" ">
<polygon fill="#bfbfbf" stroke="black" points="304.38,-0.5 304.38,-57.5 428.38,-57.5 428.38,-0.5 304.38,-0.5"/>
<text text-anchor="middle" x="366.38" y="-45.5" font-family="Helvetica,sans-Serif" font-size="10.00">SDK::UClothingCategory</text>
<polyline fill="none" stroke="black" points="304.38,-38.5 428.38,-38.5 "/>
<text text-anchor="middle" x="366.38" y="-26.5" font-family="Helvetica,sans-Serif" font-size="10.00"> </text>
<polyline fill="none" stroke="black" points="304.38,-19.5 428.38,-19.5 "/>
<text text-anchor="start" x="312.38" y="-7.5" font-family="Helvetica,sans-Serif" font-size="10.00">+ StaticClass()</text>
</a>
</g>
</g>
<!-- Node2 -->
<g id="node2" class="node"><title>Node2</title>
<g id="a_node2"><a xlink:href="a00539.html" target="_top" xlink:title=" ">
<polygon fill="none" stroke="red" points="130.88,-133 130.88,-190 241.88,-190 241.88,-133 130.88,-133"/>
<text text-anchor="middle" x="186.38" y="-178" font-family="Helvetica,sans-Serif" font-size="10.00">SDK::UCategoryBase</text>
<polyline fill="none" stroke="red" points="130.88,-171 241.88,-171 "/>
<text text-anchor="middle" x="186.38" y="-159" font-family="Helvetica,sans-Serif" font-size="10.00"> </text>
<polyline fill="none" stroke="red" points="130.88,-152 241.88,-152 "/>
<text text-anchor="start" x="138.88" y="-140" font-family="Helvetica,sans-Serif" font-size="10.00">+ StaticClass()</text>
</a>
</g>
</g>
<!-- Node2&#45;&gt;Node1 -->
<g id="edge1" class="edge"><title>Node2&#45;&gt;Node1</title>
<path fill="none" stroke="midnightblue" d="M224.143,-126.219C232.594,-118.984 241.647,-111.559 250.38,-105 272.72,-88.222 298.75,-71.1824 320.485,-57.5939"/>
<polygon fill="none" stroke="midnightblue" points="221.838,-123.585 216.577,-132.781 226.425,-128.873 221.838,-123.585"/>
</g>
<!-- Node4 -->
<g id="node3" class="node"><title>Node4</title>
<g id="a_node3"><a xlink:href="a25839.html" target="_top" xlink:title=" ">
<polygon fill="none" stroke="red" points="9.37998,-265.5 9.37998,-377.5 115.38,-377.5 115.38,-265.5 9.37998,-265.5"/>
<text text-anchor="middle" x="62.38" y="-365.5" font-family="Helvetica,sans-Serif" font-size="10.00">SDK::FName</text>
<polyline fill="none" stroke="red" points="9.37998,-358.5 115.38,-358.5 "/>
<text text-anchor="middle" x="62.38" y="-346.5" font-family="Helvetica,sans-Serif" font-size="10.00"> </text>
<polyline fill="none" stroke="red" points="9.37998,-339.5 115.38,-339.5 "/>
<text text-anchor="start" x="17.38" y="-327.5" font-family="Helvetica,sans-Serif" font-size="10.00">+ FName()</text>
<text text-anchor="start" x="17.38" y="-316.5" font-family="Helvetica,sans-Serif" font-size="10.00">+ FName()</text>
<text text-anchor="start" x="17.38" y="-305.5" font-family="Helvetica,sans-Serif" font-size="10.00">+ FName()</text>
<text text-anchor="start" x="17.38" y="-294.5" font-family="Helvetica,sans-Serif" font-size="10.00">+ GetName()</text>
<text text-anchor="start" x="17.38" y="-283.5" font-family="Helvetica,sans-Serif" font-size="10.00">+ operator==()</text>
<text text-anchor="start" x="17.38" y="-272.5" font-family="Helvetica,sans-Serif" font-size="10.00">+ GetGlobalNames()</text>
</a>
</g>
</g>
<!-- Node4&#45;&gt;Node1 -->
<g id="edge4" class="edge"><title>Node4&#45;&gt;Node1</title>
<path fill="none" stroke="#404040" d="M28.8256,-265.043C4.95075,-217.639 -17.0365,-150.128 19.38,-105 52.996,-63.3421 200.749,-43.6864 292.274,-35.3539"/>
<polygon fill="none" stroke="#404040" points="292.293,-35.3524 297.918,-30.8412 304.246,-34.2991 298.621,-38.8103 292.293,-35.3524"/>
<text text-anchor="middle" x="70.38" y="-159" font-family="Helvetica,sans-Serif" font-size="10.00"> +PiratePreviewCamera</text>
</g>
<!-- Node4&#45;&gt;Node2 -->
<g id="edge2" class="edge"><title>Node4&#45;&gt;Node2</title>
<path fill="none" stroke="#404040" d="M105.749,-265.239C122.836,-243.467 142.005,-219.042 157.364,-199.472"/>
<polygon fill="none" stroke="#404040" points="157.385,-199.445 157.943,-192.255 164.794,-190.005 164.236,-197.194 157.385,-199.445"/>
<text text-anchor="middle" x="175.38" y="-239" font-family="Helvetica,sans-Serif" font-size="10.00"> +UniqueTextIdentifier</text>
</g>
<!-- Node18 -->
<g id="node4" class="node"><title>Node18</title>
<g id="a_node4"><a xlink:href="a27243.html" target="_top" xlink:title=" ">
<polygon fill="none" stroke="red" points="259.88,-133 259.88,-190 378.88,-190 378.88,-133 259.88,-133"/>
<text text-anchor="middle" x="319.38" y="-178" font-family="Helvetica,sans-Serif" font-size="10.00">SDK::UAnimationAsset</text>
<polyline fill="none" stroke="red" points="259.88,-171 378.88,-171 "/>
<text text-anchor="middle" x="319.38" y="-159" font-family="Helvetica,sans-Serif" font-size="10.00"> </text>
<polyline fill="none" stroke="red" points="259.88,-152 378.88,-152 "/>
<text text-anchor="start" x="267.88" y="-140" font-family="Helvetica,sans-Serif" font-size="10.00">+ StaticClass()</text>
</a>
</g>
</g>
<!-- Node18&#45;&gt;Node1 -->
<g id="edge3" class="edge"><title>Node18&#45;&gt;Node1</title>
<path fill="none" stroke="#404040" d="M309.233,-132.622C304.711,-115.522 302.058,-93.6063 310.38,-76 311.892,-72.8008 313.748,-69.7493 315.854,-66.8517"/>
<polygon fill="none" stroke="#404040" points="315.998,-66.685 316.891,-59.5295 323.84,-57.6019 322.946,-64.7575 315.998,-66.685"/>
<text text-anchor="middle" x="355.88" y="-79" font-family="Helvetica,sans-Serif" font-size="10.00"> +PiratePreviewAnim</text>
</g>
<!-- Node12 -->
<g id="node5" class="node"><title>Node12</title>
<g id="a_node5"><a xlink:title=" ">
<polygon fill="none" stroke="#bfbfbf" points="405.88,-133 405.88,-190 440.88,-190 440.88,-133 405.88,-133"/>
<text text-anchor="middle" x="423.38" y="-178" font-family="Helvetica,sans-Serif" font-size="10.00">char</text>
<polyline fill="none" stroke="#bfbfbf" points="405.88,-171 440.88,-171 "/>
<text text-anchor="middle" x="423.38" y="-159" font-family="Helvetica,sans-Serif" font-size="10.00"> </text>
<polyline fill="none" stroke="#bfbfbf" points="405.88,-152 440.88,-152 "/>
<text text-anchor="middle" x="423.38" y="-140" font-family="Helvetica,sans-Serif" font-size="10.00"> </text>
</a>
</g>
</g>
<!-- Node12&#45;&gt;Node1 -->
<g id="edge5" class="edge"><title>Node12&#45;&gt;Node1</title>
<path fill="none" stroke="#404040" d="M419.054,-132.896C415.706,-115.899 410.13,-93.9957 401.38,-76 400.036,-73.2362 398.513,-70.4753 396.873,-67.7562"/>
<polygon fill="none" stroke="#404040" points="396.737,-67.5529 390.085,-64.7694 390.096,-57.5583 396.748,-60.3418 396.737,-67.5529"/>
<text text-anchor="middle" x="446.38" y="-79" font-family="Helvetica,sans-Serif" font-size="10.00"> +UnknownData00</text>
</g>
<!-- Node27 -->
<g id="node6" class="node"><title>Node27</title>
<g id="a_node6"><a xlink:title=" ">
<polygon fill="none" stroke="#bfbfbf" points="508.88,-133 508.88,-190 543.88,-190 543.88,-133 508.88,-133"/>
<text text-anchor="middle" x="526.38" y="-178" font-family="Helvetica,sans-Serif" font-size="10.00">bool</text>
<polyline fill="none" stroke="#bfbfbf" points="508.88,-171 543.88,-171 "/>
<text text-anchor="middle" x="526.38" y="-159" font-family="Helvetica,sans-Serif" font-size="10.00"> </text>
<polyline fill="none" stroke="#bfbfbf" points="508.88,-152 543.88,-152 "/>
<text text-anchor="middle" x="526.38" y="-140" font-family="Helvetica,sans-Serif" font-size="10.00"> </text>
</a>
</g>
</g>
<!-- Node27&#45;&gt;Node1 -->
<g id="edge6" class="edge"><title>Node27&#45;&gt;Node1</title>
<path fill="none" stroke="#404040" d="M520.636,-132.871C515.522,-114.554 506.305,-91.1862 490.38,-76 476.41,-62.6784 458.242,-53.1454 440.141,-46.3495"/>
<polygon fill="none" stroke="#404040" points="439.952,-46.2842 432.974,-48.105 428.61,-42.3646 435.587,-40.5438 439.952,-46.2842"/>
<text text-anchor="middle" x="543.38" y="-79" font-family="Helvetica,sans-Serif" font-size="10.00"> +PiratePreviewSpin</text>
</g>
<!-- Node28 -->
<g id="node7" class="node"><title>Node28</title>
<g id="a_node7"><a xlink:href="a25823.html" target="_top" xlink:title=" ">
<polygon fill="none" stroke="black" points="585.38,-105.5 585.38,-217.5 689.38,-217.5 689.38,-105.5 585.38,-105.5"/>
<text text-anchor="start" x="593.38" y="-205.5" font-family="Helvetica,sans-Serif" font-size="10.00">SDK::TArray&lt; class</text>
<text text-anchor="middle" x="637.38" y="-194.5" font-family="Helvetica,sans-Serif" font-size="10.00"> SDK::UClass * &gt;</text>
<polyline fill="none" stroke="black" points="585.38,-187.5 689.38,-187.5 "/>
<text text-anchor="middle" x="637.38" y="-175.5" font-family="Helvetica,sans-Serif" font-size="10.00"> </text>
<polyline fill="none" stroke="black" points="585.38,-168.5 689.38,-168.5 "/>
<text text-anchor="start" x="593.38" y="-156.5" font-family="Helvetica,sans-Serif" font-size="10.00">+ TArray()</text>
<text text-anchor="start" x="593.38" y="-145.5" font-family="Helvetica,sans-Serif" font-size="10.00">+ Num()</text>
<text text-anchor="start" x="593.38" y="-134.5" font-family="Helvetica,sans-Serif" font-size="10.00">+ operator[]()</text>
<text text-anchor="start" x="593.38" y="-123.5" font-family="Helvetica,sans-Serif" font-size="10.00">+ operator[]()</text>
<text text-anchor="start" x="593.38" y="-112.5" font-family="Helvetica,sans-Serif" font-size="10.00">+ IsValidIndex()</text>
</a>
</g>
</g>
<!-- Node28&#45;&gt;Node1 -->
<g id="edge7" class="edge"><title>Node28&#45;&gt;Node1</title>
<path fill="none" stroke="#404040" d="M616.271,-105.118C609.785,-94.0647 601.585,-83.5501 591.38,-76 567.753,-58.5193 496.714,-45.9164 440.71,-38.3707"/>
<polygon fill="none" stroke="#404040" points="440.548,-38.3496 434.079,-41.5367 428.649,-36.7915 435.118,-33.6044 440.548,-38.3496"/>
<text text-anchor="middle" x="658.38" y="-79" font-family="Helvetica,sans-Serif" font-size="10.00"> +PiratePreviewRemovals</text>
</g>
</g>
</svg>
