<?xml version="1.0" encoding="UTF-8" standalone="no"?>
<!DOCTYPE svg PUBLIC "-//W3C//DTD SVG 1.1//EN"
 "http://www.w3.org/Graphics/SVG/1.1/DTD/svg11.dtd">
<!-- Generated by graphviz version 2.38.0 (20140413.2041)
 -->
<!-- Title: SDK::ACapstanRelease Pages: 1 -->
<svg width="661pt" height="408pt"
 viewBox="0.00 0.00 660.86 408.00" xmlns="http://www.w3.org/2000/svg" xmlns:xlink="http://www.w3.org/1999/xlink">
<g id="graph0" class="graph" transform="scale(1 1) rotate(0) translate(4 404)">
<title>SDK::ACapstanRelease</title>
<!-- Node1 -->
<g id="node1" class="node"><title>Node1</title>
<g id="a_node1"><a xlink:title=" ">
<polygon fill="#bfbfbf" stroke="black" points="274.358,-0.5 274.358,-57.5 395.358,-57.5 395.358,-0.5 274.358,-0.5"/>
<text text-anchor="middle" x="334.858" y="-45.5" font-family="Helvetica,sans-Serif" font-size="10.00">SDK::ACapstanRelease</text>
<polyline fill="none" stroke="black" points="274.358,-38.5 395.358,-38.5 "/>
<text text-anchor="middle" x="334.858" y="-26.5" font-family="Helvetica,sans-Serif" font-size="10.00"> </text>
<polyline fill="none" stroke="black" points="274.358,-19.5 395.358,-19.5 "/>
<text text-anchor="start" x="282.358" y="-7.5" font-family="Helvetica,sans-Serif" font-size="10.00">+ StaticClass()</text>
</a>
</g>
</g>
<!-- Node2 -->
<g id="node2" class="node"><title>Node2</title>
<g id="a_node2"><a xlink:href="a02487.html" target="_top" xlink:title=" ">
<polygon fill="none" stroke="red" points="113.858,-105.5 113.858,-217.5 241.858,-217.5 241.858,-105.5 113.858,-105.5"/>
<text text-anchor="middle" x="177.858" y="-205.5" font-family="Helvetica,sans-Serif" font-size="10.00">SDK::AInteractableObject</text>
<polyline fill="none" stroke="red" points="113.858,-198.5 241.858,-198.5 "/>
<text text-anchor="middle" x="177.858" y="-186.5" font-family="Helvetica,sans-Serif" font-size="10.00"> </text>
<polyline fill="none" stroke="red" points="113.858,-179.5 241.858,-179.5 "/>
<text text-anchor="start" x="121.858" y="-167.5" font-family="Helvetica,sans-Serif" font-size="10.00">+ ServerInteract()</text>
<text text-anchor="start" x="121.858" y="-156.5" font-family="Helvetica,sans-Serif" font-size="10.00">+ Blueprint_OnInteract</text>
<text text-anchor="start" x="121.858" y="-145.5" font-family="Helvetica,sans-Serif" font-size="10.00">_Server()</text>
<text text-anchor="start" x="121.858" y="-134.5" font-family="Helvetica,sans-Serif" font-size="10.00">+ Blueprint_OnInteract</text>
<text text-anchor="start" x="121.858" y="-123.5" font-family="Helvetica,sans-Serif" font-size="10.00">_Client()</text>
<text text-anchor="start" x="121.858" y="-112.5" font-family="Helvetica,sans-Serif" font-size="10.00">+ StaticClass()</text>
</a>
</g>
</g>
<!-- Node2&#45;&gt;Node1 -->
<g id="edge1" class="edge"><title>Node2&#45;&gt;Node1</title>
<path fill="none" stroke="midnightblue" d="M250.323,-100.266C268.163,-85.4378 286.421,-70.2616 301.382,-57.8255"/>
<polygon fill="none" stroke="midnightblue" points="247.622,-97.9603 242.169,-107.044 252.097,-103.343 247.622,-97.9603"/>
</g>
<!-- Node14 -->
<g id="node3" class="node"><title>Node14</title>
<g id="a_node3"><a xlink:title=" ">
<polygon fill="none" stroke="#bfbfbf" points="49.3581,-342.5 49.3581,-399.5 84.3581,-399.5 84.3581,-342.5 49.3581,-342.5"/>
<text text-anchor="middle" x="66.8581" y="-387.5" font-family="Helvetica,sans-Serif" font-size="10.00">char</text>
<polyline fill="none" stroke="#bfbfbf" points="49.3581,-380.5 84.3581,-380.5 "/>
<text text-anchor="middle" x="66.8581" y="-368.5" font-family="Helvetica,sans-Serif" font-size="10.00"> </text>
<polyline fill="none" stroke="#bfbfbf" points="49.3581,-361.5 84.3581,-361.5 "/>
<text text-anchor="middle" x="66.8581" y="-349.5" font-family="Helvetica,sans-Serif" font-size="10.00"> </text>
</a>
</g>
</g>
<!-- Node14&#45;&gt;Node1 -->
<g id="edge4" class="edge"><title>Node14&#45;&gt;Node1</title>
<path fill="none" stroke="#404040" d="M50.1522,-342.181C21.0971,-289.798 -30.5935,-175.467 24.8581,-105 53.8347,-68.1769 179.989,-47.262 262.165,-37.3154"/>
<polygon fill="none" stroke="#404040" points="262.286,-37.3012 267.777,-32.6271 274.204,-35.8982 268.713,-40.5723 262.286,-37.3012"/>
<text text-anchor="middle" x="64.8581" y="-159" font-family="Helvetica,sans-Serif" font-size="10.00"> +UnknownData00</text>
</g>
<!-- Node14&#45;&gt;Node2 -->
<g id="edge2" class="edge"><title>Node14&#45;&gt;Node2</title>
<path fill="none" stroke="#404040" d="M59.4743,-342.463C53.4248,-313.778 48.6508,-268.562 67.8581,-236 76.1485,-221.945 86.0798,-226.742 99.8581,-218 100.981,-217.288 102.109,-216.566 103.243,-215.835"/>
<polygon fill="none" stroke="#404040" points="103.499,-215.666 106.313,-209.027 113.524,-209.071 110.71,-215.71 103.499,-215.666"/>
<text text-anchor="middle" x="107.858" y="-283" font-family="Helvetica,sans-Serif" font-size="10.00"> +UnknownData01</text>
<text text-anchor="middle" x="107.858" y="-272" font-family="Helvetica,sans-Serif" font-size="10.00">+UnknownData00</text>
</g>
<!-- Node184 -->
<g id="node6" class="node"><title>Node184</title>
<g id="a_node6"><a xlink:href="a26727.html" target="_top" xlink:title=" ">
<polygon fill="none" stroke="red" points="259.858,-105.5 259.858,-217.5 409.858,-217.5 409.858,-105.5 259.858,-105.5"/>
<text text-anchor="middle" x="334.858" y="-205.5" font-family="Helvetica,sans-Serif" font-size="10.00">SDK::UStaticMeshComponent</text>
<polyline fill="none" stroke="red" points="259.858,-198.5 409.858,-198.5 "/>
<text text-anchor="middle" x="334.858" y="-186.5" font-family="Helvetica,sans-Serif" font-size="10.00"> </text>
<polyline fill="none" stroke="red" points="259.858,-179.5 409.858,-179.5 "/>
<text text-anchor="start" x="267.858" y="-167.5" font-family="Helvetica,sans-Serif" font-size="10.00">+ SetStaticMesh()</text>
<text text-anchor="start" x="267.858" y="-156.5" font-family="Helvetica,sans-Serif" font-size="10.00">+ SetForcedLodModel()</text>
<text text-anchor="start" x="267.858" y="-145.5" font-family="Helvetica,sans-Serif" font-size="10.00">+ OnRep_StaticMesh()</text>
<text text-anchor="start" x="267.858" y="-134.5" font-family="Helvetica,sans-Serif" font-size="10.00">+ GetLocalBounds()</text>
<text text-anchor="start" x="267.858" y="-123.5" font-family="Helvetica,sans-Serif" font-size="10.00">+ EnableAutomaticInstancing()</text>
<text text-anchor="start" x="267.858" y="-112.5" font-family="Helvetica,sans-Serif" font-size="10.00">+ StaticClass()</text>
</a>
</g>
</g>
<!-- Node14&#45;&gt;Node184 -->
<g id="edge8" class="edge"><title>Node14&#45;&gt;Node184</title>
<path fill="none" stroke="#404040" d="M84.4652,-364.204C102.733,-357.34 130.947,-344.221 147.858,-324 174.461,-292.191 148.195,-263.916 178.858,-236 200.676,-216.136 216.914,-228.035 247.903,-218.345"/>
<polygon fill="none" stroke="#404040" points="248.297,-218.196 252.483,-212.324 259.513,-213.931 255.327,-219.802 248.297,-218.196"/>
<text text-anchor="start" x="178.858" y="-316" font-family="Helvetica,sans-Serif" font-size="10.00"> +bIgnoreInstanceForTexture</text>
<text text-anchor="middle" x="240.858" y="-305" font-family="Helvetica,sans-Serif" font-size="10.00">Streaming</text>
<text text-anchor="middle" x="240.858" y="-294" font-family="Helvetica,sans-Serif" font-size="10.00">+UnknownData01</text>
<text text-anchor="middle" x="240.858" y="-283" font-family="Helvetica,sans-Serif" font-size="10.00">+UnknownData02</text>
<text text-anchor="middle" x="240.858" y="-272" font-family="Helvetica,sans-Serif" font-size="10.00">+UnknownData03</text>
<text text-anchor="middle" x="240.858" y="-261" font-family="Helvetica,sans-Serif" font-size="10.00">+UnknownData04</text>
<text text-anchor="middle" x="240.858" y="-250" font-family="Helvetica,sans-Serif" font-size="10.00">+bOverrideLightMapRes</text>
<text text-anchor="middle" x="240.858" y="-239" font-family="Helvetica,sans-Serif" font-size="10.00">+UnknownData00</text>
</g>
<!-- Node6 -->
<g id="node4" class="node"><title>Node6</title>
<g id="a_node4"><a xlink:href="a25839.html" target="_top" xlink:title=" ">
<polygon fill="none" stroke="red" points="546.858,-105.5 546.858,-217.5 652.858,-217.5 652.858,-105.5 546.858,-105.5"/>
<text text-anchor="middle" x="599.858" y="-205.5" font-family="Helvetica,sans-Serif" font-size="10.00">SDK::FName</text>
<polyline fill="none" stroke="red" points="546.858,-198.5 652.858,-198.5 "/>
<text text-anchor="middle" x="599.858" y="-186.5" font-family="Helvetica,sans-Serif" font-size="10.00"> </text>
<polyline fill="none" stroke="red" points="546.858,-179.5 652.858,-179.5 "/>
<text text-anchor="start" x="554.858" y="-167.5" font-family="Helvetica,sans-Serif" font-size="10.00">+ FName()</text>
<text text-anchor="start" x="554.858" y="-156.5" font-family="Helvetica,sans-Serif" font-size="10.00">+ FName()</text>
<text text-anchor="start" x="554.858" y="-145.5" font-family="Helvetica,sans-Serif" font-size="10.00">+ FName()</text>
<text text-anchor="start" x="554.858" y="-134.5" font-family="Helvetica,sans-Serif" font-size="10.00">+ GetName()</text>
<text text-anchor="start" x="554.858" y="-123.5" font-family="Helvetica,sans-Serif" font-size="10.00">+ operator==()</text>
<text text-anchor="start" x="554.858" y="-112.5" font-family="Helvetica,sans-Serif" font-size="10.00">+ GetGlobalNames()</text>
</a>
</g>
</g>
<!-- Node6&#45;&gt;Node1 -->
<g id="edge3" class="edge"><title>Node6&#45;&gt;Node1</title>
<path fill="none" stroke="#404040" d="M546.506,-114.635C541.976,-111.257 537.392,-108.002 532.858,-105 494.583,-79.6595 446.535,-61.1949 407.356,-48.9279"/>
<polygon fill="none" stroke="#404040" points="407.246,-48.8945 400.341,-50.9724 395.767,-45.3975 402.672,-43.3196 407.246,-48.8945"/>
<text text-anchor="middle" x="532.358" y="-79" font-family="Helvetica,sans-Serif" font-size="10.00"> +TooltipSocket</text>
</g>
<!-- Node27 -->
<g id="node5" class="node"><title>Node27</title>
<g id="a_node5"><a xlink:title=" ">
<polygon fill="none" stroke="#bfbfbf" points="372.358,-342.5 372.358,-399.5 407.358,-399.5 407.358,-342.5 372.358,-342.5"/>
<text text-anchor="middle" x="389.858" y="-387.5" font-family="Helvetica,sans-Serif" font-size="10.00">float</text>
<polyline fill="none" stroke="#bfbfbf" points="372.358,-380.5 407.358,-380.5 "/>
<text text-anchor="middle" x="389.858" y="-368.5" font-family="Helvetica,sans-Serif" font-size="10.00"> </text>
<polyline fill="none" stroke="#bfbfbf" points="372.358,-361.5 407.358,-361.5 "/>
<text text-anchor="middle" x="389.858" y="-349.5" font-family="Helvetica,sans-Serif" font-size="10.00"> </text>
</a>
</g>
</g>
<!-- Node27&#45;&gt;Node1 -->
<g id="edge5" class="edge"><title>Node27&#45;&gt;Node1</title>
<path fill="none" stroke="#404040" d="M407.43,-361.876C421.522,-354.29 440.309,-341.507 448.858,-324 466.021,-288.856 452.123,-274.975 448.858,-236 442.837,-164.135 464.1,-134.45 421.858,-76 417.392,-69.8205 411.84,-64.3976 405.715,-59.6553"/>
<polygon fill="none" stroke="#404040" points="405.576,-59.5596 398.366,-59.4501 395.693,-52.7524 402.904,-52.8618 405.576,-59.5596"/>
<text text-anchor="middle" x="481.858" y="-159" font-family="Helvetica,sans-Serif" font-size="10.00"> +ReleaseTime</text>
</g>
<!-- Node27&#45;&gt;Node184 -->
<g id="edge7" class="edge"><title>Node27&#45;&gt;Node184</title>
<path fill="none" stroke="#404040" d="M372.211,-364.351C354.851,-357.739 329.331,-344.945 317.858,-324 302.254,-295.513 304.137,-259.959 310.928,-229.467"/>
<polygon fill="none" stroke="#404040" points="310.978,-229.268 308.538,-222.482 313.863,-217.62 316.303,-224.406 310.978,-229.268"/>
<text text-anchor="middle" x="383.358" y="-277.5" font-family="Helvetica,sans-Serif" font-size="10.00"> +StreamingDistanceMultiplier</text>
</g>
<!-- Node184&#45;&gt;Node1 -->
<g id="edge6" class="edge"><title>Node184&#45;&gt;Node1</title>
<path fill="none" stroke="#404040" d="M334.858,-105.156C334.858,-93.2446 334.858,-80.882 334.858,-69.7065"/>
<polygon fill="none" stroke="#404040" points="334.858,-69.6807 330.858,-63.6807 334.858,-57.6807 338.858,-63.6806 334.858,-69.6807"/>
<text text-anchor="middle" x="376.358" y="-79" font-family="Helvetica,sans-Serif" font-size="10.00"> +MeshComponent</text>
</g>
</g>
</svg>
