<?xml version="1.0" encoding="UTF-8" standalone="no"?>
<!DOCTYPE svg PUBLIC "-//W3C//DTD SVG 1.1//EN"
 "http://www.w3.org/Graphics/SVG/1.1/DTD/svg11.dtd">
<!-- Generated by graphviz version 2.38.0 (20140413.2041)
 -->
<!-- Title: SDK::UCharacterAudioComponentParams Pages: 1 -->
<svg width="1591pt" height="821pt"
 viewBox="0.00 0.00 1591.09 821.00" xmlns="http://www.w3.org/2000/svg" xmlns:xlink="http://www.w3.org/1999/xlink">
<g id="graph0" class="graph" transform="scale(1 1) rotate(0) translate(4 817)">
<title>SDK::UCharacterAudioComponentParams</title>
<!-- Node1 -->
<g id="node1" class="node"><title>Node1</title>
<g id="a_node1"><a xlink:title=" ">
<polygon fill="#bfbfbf" stroke="black" points="660.591,-0.5 660.591,-178.5 832.591,-178.5 832.591,-0.5 660.591,-0.5"/>
<text text-anchor="start" x="668.591" y="-166.5" font-family="Helvetica,sans-Serif" font-size="10.00">SDK::UCharacterAudioComponent</text>
<text text-anchor="middle" x="746.591" y="-155.5" font-family="Helvetica,sans-Serif" font-size="10.00">Params</text>
<polyline fill="none" stroke="black" points="660.591,-148.5 832.591,-148.5 "/>
<text text-anchor="start" x="668.591" y="-136.5" font-family="Helvetica,sans-Serif" font-size="10.00">+ CausedAIShipDamageAudioEvent</text>
<text text-anchor="start" x="668.591" y="-125.5" font-family="Helvetica,sans-Serif" font-size="10.00">+ CharacterDeadAudioEvent</text>
<text text-anchor="start" x="668.591" y="-114.5" font-family="Helvetica,sans-Serif" font-size="10.00">+ KilledCharacterAudioEvent</text>
<text text-anchor="start" x="668.591" y="-103.5" font-family="Helvetica,sans-Serif" font-size="10.00">+ LocalPlayerFireStart</text>
<text text-anchor="start" x="668.591" y="-92.5" font-family="Helvetica,sans-Serif" font-size="10.00">+ LocalPlayerFireStop</text>
<text text-anchor="start" x="668.591" y="-81.5" font-family="Helvetica,sans-Serif" font-size="10.00">+ RemotePlayerExtinguished</text>
<text text-anchor="start" x="668.591" y="-70.5" font-family="Helvetica,sans-Serif" font-size="10.00">+ PlayCharacterRespawn</text>
<text text-anchor="start" x="668.591" y="-59.5" font-family="Helvetica,sans-Serif" font-size="10.00">+ CharacterStateDead</text>
<text text-anchor="start" x="668.591" y="-48.5" font-family="Helvetica,sans-Serif" font-size="10.00">+ CharacterStateFire</text>
<text text-anchor="start" x="668.591" y="-37.5" font-family="Helvetica,sans-Serif" font-size="10.00">+ PlayPlayerVengeance</text>
<text text-anchor="start" x="668.591" y="-26.5" font-family="Helvetica,sans-Serif" font-size="10.00">and 14 more...</text>
<polyline fill="none" stroke="black" points="660.591,-19.5 832.591,-19.5 "/>
<text text-anchor="start" x="668.591" y="-7.5" font-family="Helvetica,sans-Serif" font-size="10.00">+ StaticClass()</text>
</a>
</g>
</g>
<!-- Node2 -->
<g id="node2" class="node"><title>Node2</title>
<g id="a_node2"><a xlink:href="a26559.html" target="_top" xlink:title=" ">
<polygon fill="none" stroke="red" points="153.091,-601 153.091,-658 248.091,-658 248.091,-601 153.091,-601"/>
<text text-anchor="middle" x="200.591" y="-646" font-family="Helvetica,sans-Serif" font-size="10.00">SDK::UDataAsset</text>
<polyline fill="none" stroke="red" points="153.091,-639 248.091,-639 "/>
<text text-anchor="middle" x="200.591" y="-627" font-family="Helvetica,sans-Serif" font-size="10.00"> </text>
<polyline fill="none" stroke="red" points="153.091,-620 248.091,-620 "/>
<text text-anchor="start" x="161.091" y="-608" font-family="Helvetica,sans-Serif" font-size="10.00">+ StaticClass()</text>
</a>
</g>
</g>
<!-- Node2&#45;&gt;Node1 -->
<g id="edge1" class="edge"><title>Node2&#45;&gt;Node1</title>
<path fill="none" stroke="midnightblue" d="M192.85,-590.7C180.813,-524.152 162.342,-382.476 196.591,-270 207.973,-232.619 213.22,-218.888 245.591,-197 312.348,-151.861 535.715,-117.254 660.466,-100.892"/>
<polygon fill="none" stroke="midnightblue" points="189.445,-591.53 194.718,-600.719 196.326,-590.247 189.445,-591.53"/>
</g>
<!-- Node14 -->
<g id="node3" class="node"><title>Node14</title>
<g id="a_node3"><a xlink:href="a34423.html" target="_top" xlink:title=" ">
<polygon fill="none" stroke="black" points="205.591,-298 205.591,-366 353.591,-366 353.591,-298 205.591,-298"/>
<text text-anchor="middle" x="279.591" y="-354" font-family="Helvetica,sans-Serif" font-size="10.00">SDK::UAudioSpaceDataAsset</text>
<polyline fill="none" stroke="black" points="205.591,-347 353.591,-347 "/>
<text text-anchor="middle" x="279.591" y="-335" font-family="Helvetica,sans-Serif" font-size="10.00"> </text>
<polyline fill="none" stroke="black" points="205.591,-328 353.591,-328 "/>
<text text-anchor="start" x="213.591" y="-316" font-family="Helvetica,sans-Serif" font-size="10.00">+ GetRtpcName()</text>
<text text-anchor="start" x="213.591" y="-305" font-family="Helvetica,sans-Serif" font-size="10.00">+ StaticClass()</text>
</a>
</g>
</g>
<!-- Node2&#45;&gt;Node14 -->
<g id="edge3" class="edge"><title>Node2&#45;&gt;Node14</title>
<path fill="none" stroke="midnightblue" d="M210.591,-591.095C226.125,-532.986 255.81,-421.95 270.663,-366.393"/>
<polygon fill="none" stroke="midnightblue" points="207.153,-590.401 207.952,-600.965 213.916,-592.209 207.153,-590.401"/>
</g>
<!-- Node14&#45;&gt;Node1 -->
<g id="edge2" class="edge"><title>Node14&#45;&gt;Node1</title>
<path fill="none" stroke="#404040" d="M262.987,-297.826C250.782,-268.199 239.891,-225.238 262.591,-197 310.047,-137.966 521.173,-109.758 648.385,-97.8985"/>
<polygon fill="none" stroke="#404040" points="648.475,-97.8904 654.087,-93.3624 660.425,-96.8014 654.813,-101.329 648.475,-97.8904"/>
<text text-anchor="middle" x="319.091" y="-244" font-family="Helvetica,sans-Serif" font-size="10.00"> +LargeShipBrigDeck</text>
<text text-anchor="middle" x="319.091" y="-233" font-family="Helvetica,sans-Serif" font-size="10.00">+IslandTavern</text>
<text text-anchor="middle" x="319.091" y="-222" font-family="Helvetica,sans-Serif" font-size="10.00">+IslandCave</text>
<text text-anchor="middle" x="319.091" y="-211" font-family="Helvetica,sans-Serif" font-size="10.00">+LargeShipCaptainsCabin</text>
<text text-anchor="middle" x="319.091" y="-200" font-family="Helvetica,sans-Serif" font-size="10.00">+LargeShipMapDeck</text>
</g>
<!-- Node15 -->
<g id="node4" class="node"><title>Node15</title>
<g id="a_node4"><a xlink:href="a36295.html" target="_top" xlink:title=" ">
<polygon fill="none" stroke="red" points="315.591,-573.5 315.591,-685.5 431.591,-685.5 431.591,-573.5 315.591,-573.5"/>
<text text-anchor="middle" x="373.591" y="-673.5" font-family="Helvetica,sans-Serif" font-size="10.00">SDK::UWwiseEvent</text>
<polyline fill="none" stroke="red" points="315.591,-666.5 431.591,-666.5 "/>
<text text-anchor="middle" x="373.591" y="-654.5" font-family="Helvetica,sans-Serif" font-size="10.00"> </text>
<polyline fill="none" stroke="red" points="315.591,-647.5 431.591,-647.5 "/>
<text text-anchor="start" x="323.591" y="-635.5" font-family="Helvetica,sans-Serif" font-size="10.00">+ IsAudible()</text>
<text text-anchor="start" x="323.591" y="-624.5" font-family="Helvetica,sans-Serif" font-size="10.00">+ GetMaxAttenuation()</text>
<text text-anchor="start" x="323.591" y="-613.5" font-family="Helvetica,sans-Serif" font-size="10.00">+ GetDurationType()</text>
<text text-anchor="start" x="323.591" y="-602.5" font-family="Helvetica,sans-Serif" font-size="10.00">+ GetDurationMin()</text>
<text text-anchor="start" x="323.591" y="-591.5" font-family="Helvetica,sans-Serif" font-size="10.00">+ GetDurationMax()</text>
<text text-anchor="start" x="323.591" y="-580.5" font-family="Helvetica,sans-Serif" font-size="10.00">+ StaticClass()</text>
</a>
</g>
</g>
<!-- Node15&#45;&gt;Node1 -->
<g id="edge10" class="edge"><title>Node15&#45;&gt;Node1</title>
<path fill="none" stroke="#404040" d="M376.023,-573.307C380.515,-475.88 390.401,-282.443 398.591,-270 455.377,-183.721 567.344,-136.627 648.986,-112.597"/>
<polygon fill="none" stroke="#404040" points="649.012,-112.59 653.679,-107.093 660.549,-109.287 655.881,-114.784 649.012,-112.59"/>
<text text-anchor="middle" x="468.091" y="-384.5" font-family="Helvetica,sans-Serif" font-size="10.00"> +CharacterTorsoExitedWater</text>
<text text-anchor="middle" x="468.091" y="-373.5" font-family="Helvetica,sans-Serif" font-size="10.00">+PlayPlayerVengeanceFinished</text>
<text text-anchor="middle" x="468.091" y="-362.5" font-family="Helvetica,sans-Serif" font-size="10.00">+RemotePlayerFireStart</text>
<text text-anchor="middle" x="468.091" y="-351.5" font-family="Helvetica,sans-Serif" font-size="10.00">+CausedDamageAudioEvent</text>
<text text-anchor="middle" x="468.091" y="-340.5" font-family="Helvetica,sans-Serif" font-size="10.00">+RemotePlayerFireStop</text>
<text text-anchor="middle" x="468.091" y="-329.5" font-family="Helvetica,sans-Serif" font-size="10.00">+PlayPlayerSlidingDownLadder</text>
<text text-anchor="middle" x="468.091" y="-318.5" font-family="Helvetica,sans-Serif" font-size="10.00">+CharacterTorsoEnteredWater</text>
<text text-anchor="middle" x="468.091" y="-307.5" font-family="Helvetica,sans-Serif" font-size="10.00">+CannonUse</text>
<text text-anchor="middle" x="468.091" y="-296.5" font-family="Helvetica,sans-Serif" font-size="10.00">+StopPlayerSlidingDownLadder</text>
<text text-anchor="middle" x="468.091" y="-285.5" font-family="Helvetica,sans-Serif" font-size="10.00">+LocalPlayerExtinguished</text>
<text text-anchor="middle" x="468.091" y="-274.5" font-family="Helvetica,sans-Serif" font-size="10.00">...</text>
</g>
<!-- Node15&#45;&gt;Node14 -->
<g id="edge4" class="edge"><title>Node15&#45;&gt;Node14</title>
<path fill="none" stroke="#404040" d="M315.472,-588.124C305.526,-578.458 296.507,-567.319 290.591,-555 263.579,-498.761 266.298,-425.012 271.969,-378.301"/>
<polygon fill="none" stroke="#404040" points="272,-378.064 268.826,-371.589 273.583,-366.169 276.757,-372.644 272,-378.064"/>
<text text-anchor="middle" x="333.091" y="-486.5" font-family="Helvetica,sans-Serif" font-size="10.00"> +AmbienceToStart</text>
<text text-anchor="middle" x="333.091" y="-475.5" font-family="Helvetica,sans-Serif" font-size="10.00">+AmbienceToStop</text>
</g>
<!-- Node17 -->
<g id="node5" class="node"><title>Node17</title>
<g id="a_node5"><a xlink:title=" ">
<polygon fill="none" stroke="#bfbfbf" points="64.0906,-755.5 64.0906,-812.5 99.0906,-812.5 99.0906,-755.5 64.0906,-755.5"/>
<text text-anchor="middle" x="81.5906" y="-800.5" font-family="Helvetica,sans-Serif" font-size="10.00">float</text>
<polyline fill="none" stroke="#bfbfbf" points="64.0906,-793.5 99.0906,-793.5 "/>
<text text-anchor="middle" x="81.5906" y="-781.5" font-family="Helvetica,sans-Serif" font-size="10.00"> </text>
<polyline fill="none" stroke="#bfbfbf" points="64.0906,-774.5 99.0906,-774.5 "/>
<text text-anchor="middle" x="81.5906" y="-762.5" font-family="Helvetica,sans-Serif" font-size="10.00"> </text>
</a>
</g>
</g>
<!-- Node17&#45;&gt;Node1 -->
<g id="edge13" class="edge"><title>Node17&#45;&gt;Node1</title>
<path fill="none" stroke="#404040" d="M66.9877,-755.127C36.034,-692.136 -29.7575,-534.732 15.5906,-412 59.1813,-294.024 90.9227,-260.323 199.591,-197 340.532,-114.871 533.097,-94.7281 648.148,-90.5466"/>
<polygon fill="none" stroke="#404040" points="648.415,-90.538 654.283,-86.3465 660.409,-90.1508 654.541,-94.3423 648.415,-90.538"/>
<text text-anchor="start" x="15.5906" y="-547" font-family="Helvetica,sans-Serif" font-size="10.00"> +SmallestEnclosedRatioTo</text>
<text text-anchor="middle" x="94.5906" y="-536" font-family="Helvetica,sans-Serif" font-size="10.00">TriggerCave</text>
<text text-anchor="middle" x="94.5906" y="-525" font-family="Helvetica,sans-Serif" font-size="10.00">+PlayerSpeedRtpcMin</text>
<text text-anchor="start" x="15.5906" y="-514" font-family="Helvetica,sans-Serif" font-size="10.00">+SmallestEnclosedRatioToTrigger</text>
<text text-anchor="middle" x="94.5906" y="-503" font-family="Helvetica,sans-Serif" font-size="10.00">CaveMusicNode</text>
<text text-anchor="middle" x="94.5906" y="-492" font-family="Helvetica,sans-Serif" font-size="10.00">+PlayerSpeedRtpcMax</text>
<text text-anchor="middle" x="94.5906" y="-481" font-family="Helvetica,sans-Serif" font-size="10.00">+PlayerVengeanceMaxRtpc</text>
<text text-anchor="middle" x="94.5906" y="-470" font-family="Helvetica,sans-Serif" font-size="10.00">+SmallestCaveSizeMetersSquared</text>
<text text-anchor="middle" x="94.5906" y="-459" font-family="Helvetica,sans-Serif" font-size="10.00">+LargestCaveSizeMetersSquared</text>
<text text-anchor="middle" x="94.5906" y="-448" font-family="Helvetica,sans-Serif" font-size="10.00">+FogPenetrationAudioThresholdMax</text>
<text text-anchor="middle" x="94.5906" y="-437" font-family="Helvetica,sans-Serif" font-size="10.00">+FogPenetrationAudioThresholdMin</text>
<text text-anchor="middle" x="94.5906" y="-426" font-family="Helvetica,sans-Serif" font-size="10.00">+LandingEventCooldownTime</text>
<text text-anchor="middle" x="94.5906" y="-415" font-family="Helvetica,sans-Serif" font-size="10.00">...</text>
</g>
<!-- Node17&#45;&gt;Node15 -->
<g id="edge5" class="edge"><title>Node17&#45;&gt;Node15</title>
<path fill="none" stroke="#404040" d="M99.4169,-773.69C139.238,-752.893 237.205,-701.729 304.562,-666.551"/>
<polygon fill="none" stroke="#404040" points="304.875,-666.388 308.341,-660.064 315.511,-660.832 312.045,-667.156 304.875,-666.388"/>
<text text-anchor="middle" x="265.091" y="-729" font-family="Helvetica,sans-Serif" font-size="10.00"> +DurationMin</text>
<text text-anchor="middle" x="265.091" y="-718" font-family="Helvetica,sans-Serif" font-size="10.00">+DurationMax</text>
<text text-anchor="middle" x="265.091" y="-707" font-family="Helvetica,sans-Serif" font-size="10.00">+MaxAttenuation</text>
</g>
<!-- Node12 -->
<g id="node6" class="node"><title>Node12</title>
<g id="a_node6"><a xlink:title=" ">
<polygon fill="none" stroke="#bfbfbf" points="532.091,-755.5 532.091,-812.5 567.091,-812.5 567.091,-755.5 532.091,-755.5"/>
<text text-anchor="middle" x="549.591" y="-800.5" font-family="Helvetica,sans-Serif" font-size="10.00">char</text>
<polyline fill="none" stroke="#bfbfbf" points="532.091,-793.5 567.091,-793.5 "/>
<text text-anchor="middle" x="549.591" y="-781.5" font-family="Helvetica,sans-Serif" font-size="10.00"> </text>
<polyline fill="none" stroke="#bfbfbf" points="532.091,-774.5 567.091,-774.5 "/>
<text text-anchor="middle" x="549.591" y="-762.5" font-family="Helvetica,sans-Serif" font-size="10.00"> </text>
</a>
</g>
</g>
<!-- Node12&#45;&gt;Node1 -->
<g id="edge12" class="edge"><title>Node12&#45;&gt;Node1</title>
<path fill="none" stroke="#404040" d="M567.163,-782.526C675.73,-778.5 1254.52,-740.822 1375.59,-394 1406.07,-306.686 1389.4,-241.966 1308.59,-197 1161.29,-115.041 962.247,-94.9469 844.837,-90.7105"/>
<polygon fill="none" stroke="#404040" points="844.678,-90.7055 838.552,-94.5098 832.685,-90.3183 838.811,-86.514 844.678,-90.7055"/>
<text text-anchor="middle" x="1405.59" y="-486.5" font-family="Helvetica,sans-Serif" font-size="10.00"> +UnknownData01</text>
<text text-anchor="middle" x="1405.59" y="-475.5" font-family="Helvetica,sans-Serif" font-size="10.00">+UnknownData00</text>
</g>
<!-- Node12&#45;&gt;Node15 -->
<g id="edge6" class="edge"><title>Node12&#45;&gt;Node15</title>
<path fill="none" stroke="#404040" d="M531.927,-777.146C511.932,-769.921 479.09,-756.193 455.591,-737 441.061,-725.133 427.571,-710.217 415.9,-695.337"/>
<polygon fill="none" stroke="#404040" points="415.759,-695.152 408.945,-692.794 408.501,-685.597 415.315,-687.955 415.759,-695.152"/>
<text text-anchor="middle" x="495.591" y="-723.5" font-family="Helvetica,sans-Serif" font-size="10.00"> +UnknownData01</text>
<text text-anchor="middle" x="495.591" y="-712.5" font-family="Helvetica,sans-Serif" font-size="10.00">+UnknownData00</text>
</g>
<!-- Node28 -->
<g id="node11" class="node"><title>Node28</title>
<g id="a_node11"><a xlink:href="a34387.html" target="_top" xlink:title=" ">
<polygon fill="none" stroke="red" points="546.591,-303.5 546.591,-360.5 710.591,-360.5 710.591,-303.5 546.591,-303.5"/>
<text text-anchor="middle" x="628.591" y="-348.5" font-family="Helvetica,sans-Serif" font-size="10.00">SDK::UWwiseObjectPoolWrapper</text>
<polyline fill="none" stroke="red" points="546.591,-341.5 710.591,-341.5 "/>
<text text-anchor="middle" x="628.591" y="-329.5" font-family="Helvetica,sans-Serif" font-size="10.00"> </text>
<polyline fill="none" stroke="red" points="546.591,-322.5 710.591,-322.5 "/>
<text text-anchor="start" x="554.591" y="-310.5" font-family="Helvetica,sans-Serif" font-size="10.00">+ StaticClass()</text>
</a>
</g>
</g>
<!-- Node12&#45;&gt;Node28 -->
<g id="edge18" class="edge"><title>Node12&#45;&gt;Node28</title>
<path fill="none" stroke="#404040" d="M544.807,-755.283C535.101,-691.955 517.69,-532.807 563.591,-412 569.422,-396.653 579.517,-382.088 590.036,-369.743"/>
<polygon fill="none" stroke="#404040" points="590.084,-369.689 591.115,-362.552 598.099,-360.758 597.068,-367.896 590.084,-369.689"/>
<text text-anchor="middle" x="576.591" y="-632.5" font-family="Helvetica,sans-Serif" font-size="10.00"> +UnknownData01</text>
<text text-anchor="middle" x="576.591" y="-621.5" font-family="Helvetica,sans-Serif" font-size="10.00">+UnknownData00</text>
</g>
<!-- Node4 -->
<g id="node7" class="node"><title>Node4</title>
<g id="a_node7"><a xlink:href="a25839.html" target="_top" xlink:title=" ">
<polygon fill="none" stroke="red" points="670.591,-573.5 670.591,-685.5 776.591,-685.5 776.591,-573.5 670.591,-573.5"/>
<text text-anchor="middle" x="723.591" y="-673.5" font-family="Helvetica,sans-Serif" font-size="10.00">SDK::FName</text>
<polyline fill="none" stroke="red" points="670.591,-666.5 776.591,-666.5 "/>
<text text-anchor="middle" x="723.591" y="-654.5" font-family="Helvetica,sans-Serif" font-size="10.00"> </text>
<polyline fill="none" stroke="red" points="670.591,-647.5 776.591,-647.5 "/>
<text text-anchor="start" x="678.591" y="-635.5" font-family="Helvetica,sans-Serif" font-size="10.00">+ FName()</text>
<text text-anchor="start" x="678.591" y="-624.5" font-family="Helvetica,sans-Serif" font-size="10.00">+ FName()</text>
<text text-anchor="start" x="678.591" y="-613.5" font-family="Helvetica,sans-Serif" font-size="10.00">+ FName()</text>
<text text-anchor="start" x="678.591" y="-602.5" font-family="Helvetica,sans-Serif" font-size="10.00">+ GetName()</text>
<text text-anchor="start" x="678.591" y="-591.5" font-family="Helvetica,sans-Serif" font-size="10.00">+ operator==()</text>
<text text-anchor="start" x="678.591" y="-580.5" font-family="Helvetica,sans-Serif" font-size="10.00">+ GetGlobalNames()</text>
</a>
</g>
</g>
<!-- Node4&#45;&gt;Node1 -->
<g id="edge9" class="edge"><title>Node4&#45;&gt;Node1</title>
<path fill="none" stroke="#404040" d="M730.917,-573.17C731.563,-567.047 732.142,-560.897 732.591,-555 742.125,-429.764 745.241,-285.072 746.218,-190.898"/>
<polygon fill="none" stroke="#404040" points="746.219,-190.811 742.277,-184.772 746.335,-178.811 750.277,-184.85 746.219,-190.811"/>
<text text-anchor="middle" x="810.091" y="-384.5" font-family="Helvetica,sans-Serif" font-size="10.00"> +CharacterStateFall</text>
<text text-anchor="middle" x="810.091" y="-373.5" font-family="Helvetica,sans-Serif" font-size="10.00">+FogDensityRTPC</text>
<text text-anchor="middle" x="810.091" y="-362.5" font-family="Helvetica,sans-Serif" font-size="10.00">+CharacterStateTeleporting</text>
<text text-anchor="middle" x="810.091" y="-351.5" font-family="Helvetica,sans-Serif" font-size="10.00">+FallDamageRTPC</text>
<text text-anchor="middle" x="810.091" y="-340.5" font-family="Helvetica,sans-Serif" font-size="10.00">+CaveSizeRtpcName</text>
<text text-anchor="middle" x="810.091" y="-329.5" font-family="Helvetica,sans-Serif" font-size="10.00">+PlayerVengeanceRTPC</text>
<text text-anchor="middle" x="810.091" y="-318.5" font-family="Helvetica,sans-Serif" font-size="10.00">+BrokeLegSwitchGroupName</text>
<text text-anchor="middle" x="810.091" y="-307.5" font-family="Helvetica,sans-Serif" font-size="10.00">+CharacterStateStun</text>
<text text-anchor="middle" x="810.091" y="-296.5" font-family="Helvetica,sans-Serif" font-size="10.00">+CharacterStateDefault</text>
<text text-anchor="middle" x="810.091" y="-285.5" font-family="Helvetica,sans-Serif" font-size="10.00">+LadderSlideSpeedRtpc</text>
<text text-anchor="middle" x="810.091" y="-274.5" font-family="Helvetica,sans-Serif" font-size="10.00">...</text>
</g>
<!-- Node4&#45;&gt;Node14 -->
<g id="edge7" class="edge"><title>Node4&#45;&gt;Node14</title>
<path fill="none" stroke="#404040" d="M670.464,-592.952C658.609,-585.815 645.897,-578.751 633.591,-573 610.672,-562.289 602.037,-566.669 579.591,-555 553.3,-541.333 411.405,-433.846 332.54,-373.597"/>
<polygon fill="none" stroke="#404040" points="332.315,-373.425 325.119,-372.959 322.781,-366.137 329.977,-366.603 332.315,-373.425"/>
<text text-anchor="middle" x="615.091" y="-481" font-family="Helvetica,sans-Serif" font-size="10.00"> +RtpcToUpdate</text>
</g>
<!-- Node25 -->
<g id="node10" class="node"><title>Node25</title>
<g id="a_node10"><a xlink:href="a13927.html" target="_top" xlink:title=" ">
<polygon fill="none" stroke="red" points="1230.09,-303.5 1230.09,-360.5 1367.09,-360.5 1367.09,-303.5 1230.09,-303.5"/>
<text text-anchor="middle" x="1298.59" y="-348.5" font-family="Helvetica,sans-Serif" font-size="10.00">SDK::FStateCategoryGroup</text>
<polyline fill="none" stroke="red" points="1230.09,-341.5 1367.09,-341.5 "/>
<text text-anchor="middle" x="1298.59" y="-329.5" font-family="Helvetica,sans-Serif" font-size="10.00"> </text>
<polyline fill="none" stroke="red" points="1230.09,-322.5 1367.09,-322.5 "/>
<text text-anchor="middle" x="1298.59" y="-310.5" font-family="Helvetica,sans-Serif" font-size="10.00"> </text>
</a>
</g>
</g>
<!-- Node4&#45;&gt;Node25 -->
<g id="edge15" class="edge"><title>Node4&#45;&gt;Node25</title>
<path fill="none" stroke="#404040" d="M776.724,-608.013C869.866,-571.115 1067.28,-488.476 1220.59,-394 1232.93,-386.397 1245.6,-377.186 1257.05,-368.251"/>
<polygon fill="none" stroke="#404040" points="1257.37,-367.996 1259.57,-361.128 1266.75,-360.517 1264.55,-367.384 1257.37,-367.996"/>
<text text-anchor="middle" x="1213.09" y="-481" font-family="Helvetica,sans-Serif" font-size="10.00"> +GroupName</text>
</g>
<!-- Node4&#45;&gt;Node28 -->
<g id="edge17" class="edge"><title>Node4&#45;&gt;Node28</title>
<path fill="none" stroke="#404040" d="M685.775,-573.109C682.676,-567.157 679.867,-561.06 677.591,-555 654.953,-494.739 669.811,-474.547 654.591,-412 651.408,-398.923 647.096,-384.895 642.9,-372.343"/>
<polygon fill="none" stroke="#404040" points="642.847,-372.19 637.116,-367.814 638.952,-360.84 644.683,-365.217 642.847,-372.19"/>
<text text-anchor="middle" x="705.091" y="-481" font-family="Helvetica,sans-Serif" font-size="10.00"> +PoolName</text>
</g>
<!-- Node23 -->
<g id="node8" class="node"><title>Node23</title>
<g id="a_node8"><a xlink:href="a25823.html" target="_top" xlink:title=" ">
<polygon fill="none" stroke="black" points="894.091,-276 894.091,-388 1047.09,-388 1047.09,-276 894.091,-276"/>
<text text-anchor="start" x="902.091" y="-376" font-family="Helvetica,sans-Serif" font-size="10.00">SDK::TArray&lt; struct</text>
<text text-anchor="middle" x="970.591" y="-365" font-family="Helvetica,sans-Serif" font-size="10.00"> SDK::FDamageTypeToAudio &gt;</text>
<polyline fill="none" stroke="black" points="894.091,-358 1047.09,-358 "/>
<text text-anchor="middle" x="970.591" y="-346" font-family="Helvetica,sans-Serif" font-size="10.00"> </text>
<polyline fill="none" stroke="black" points="894.091,-339 1047.09,-339 "/>
<text text-anchor="start" x="902.091" y="-327" font-family="Helvetica,sans-Serif" font-size="10.00">+ TArray()</text>
<text text-anchor="start" x="902.091" y="-316" font-family="Helvetica,sans-Serif" font-size="10.00">+ Num()</text>
<text text-anchor="start" x="902.091" y="-305" font-family="Helvetica,sans-Serif" font-size="10.00">+ operator[]()</text>
<text text-anchor="start" x="902.091" y="-294" font-family="Helvetica,sans-Serif" font-size="10.00">+ operator[]()</text>
<text text-anchor="start" x="902.091" y="-283" font-family="Helvetica,sans-Serif" font-size="10.00">+ IsValidIndex()</text>
</a>
</g>
</g>
<!-- Node23&#45;&gt;Node1 -->
<g id="edge8" class="edge"><title>Node23&#45;&gt;Node1</title>
<path fill="none" stroke="#404040" d="M919.2,-275.824C894.865,-249.697 865.068,-217.704 837.122,-187.7"/>
<polygon fill="none" stroke="#404040" points="837.087,-187.662 830.07,-185.998 828.908,-178.881 835.924,-180.545 837.087,-187.662"/>
<text text-anchor="middle" x="947.091" y="-222" font-family="Helvetica,sans-Serif" font-size="10.00"> +ExplosionSoundEvents</text>
</g>
<!-- Node24 -->
<g id="node9" class="node"><title>Node24</title>
<g id="a_node9"><a xlink:href="a25823.html" target="_top" xlink:title=" ">
<polygon fill="none" stroke="black" points="1065.59,-276 1065.59,-388 1211.59,-388 1211.59,-276 1065.59,-276"/>
<text text-anchor="start" x="1073.59" y="-376" font-family="Helvetica,sans-Serif" font-size="10.00">SDK::TArray&lt; struct</text>
<text text-anchor="middle" x="1138.59" y="-365" font-family="Helvetica,sans-Serif" font-size="10.00"> SDK::FHealthChangeAudio &gt;</text>
<polyline fill="none" stroke="black" points="1065.59,-358 1211.59,-358 "/>
<text text-anchor="middle" x="1138.59" y="-346" font-family="Helvetica,sans-Serif" font-size="10.00"> </text>
<polyline fill="none" stroke="black" points="1065.59,-339 1211.59,-339 "/>
<text text-anchor="start" x="1073.59" y="-327" font-family="Helvetica,sans-Serif" font-size="10.00">+ TArray()</text>
<text text-anchor="start" x="1073.59" y="-316" font-family="Helvetica,sans-Serif" font-size="10.00">+ Num()</text>
<text text-anchor="start" x="1073.59" y="-305" font-family="Helvetica,sans-Serif" font-size="10.00">+ operator[]()</text>
<text text-anchor="start" x="1073.59" y="-294" font-family="Helvetica,sans-Serif" font-size="10.00">+ operator[]()</text>
<text text-anchor="start" x="1073.59" y="-283" font-family="Helvetica,sans-Serif" font-size="10.00">+ IsValidIndex()</text>
</a>
</g>
</g>
<!-- Node24&#45;&gt;Node1 -->
<g id="edge11" class="edge"><title>Node24&#45;&gt;Node1</title>
<path fill="none" stroke="#404040" d="M1093.24,-275.913C1069.29,-249.425 1038.15,-218.78 1005.59,-197 956.199,-163.956 894.929,-138.188 844.383,-120.281"/>
<polygon fill="none" stroke="#404040" points="844.11,-120.186 837.128,-121.99 832.778,-116.239 839.759,-114.435 844.11,-120.186"/>
<text text-anchor="middle" x="1112.09" y="-222" font-family="Helvetica,sans-Serif" font-size="10.00"> +HealthChangeSfx</text>
</g>
<!-- Node25&#45;&gt;Node1 -->
<g id="edge14" class="edge"><title>Node25&#45;&gt;Node1</title>
<path fill="none" stroke="#404040" d="M1277.16,-303.313C1252.03,-272.744 1207.53,-224.26 1158.59,-197 1059.81,-141.975 931.88,-114.678 844.963,-101.621"/>
<polygon fill="none" stroke="#404040" points="844.852,-101.605 838.337,-104.697 832.978,-99.8721 839.493,-96.7806 844.852,-101.605"/>
<text text-anchor="middle" x="1267.09" y="-222" font-family="Helvetica,sans-Serif" font-size="10.00"> +CharacterState</text>
</g>
<!-- Node28&#45;&gt;Node1 -->
<g id="edge16" class="edge"><title>Node28&#45;&gt;Node1</title>
<path fill="none" stroke="#404040" d="M624.607,-303.422C621.802,-275.306 620.929,-231.096 636.591,-197 640.944,-187.523 646.546,-178.449 652.913,-169.878"/>
<polygon fill="none" stroke="#404040" points="652.952,-169.828 653.54,-162.641 660.4,-160.419 659.813,-167.607 652.952,-169.828"/>
<text text-anchor="middle" x="684.591" y="-222" font-family="Helvetica,sans-Serif" font-size="10.00"> +CharacterAudioPool</text>
</g>
<!-- Node31 -->
<g id="node12" class="node"><title>Node31</title>
<g id="a_node12"><a xlink:href="a25847.html" target="_top" xlink:title=" ">
<polygon fill="none" stroke="black" points="1424.09,-270.5 1424.09,-393.5 1583.09,-393.5 1583.09,-270.5 1424.09,-270.5"/>
<text text-anchor="start" x="1432.09" y="-381.5" font-family="Helvetica,sans-Serif" font-size="10.00">SDK::TEnumAsByte&lt; EPhysical</text>
<text text-anchor="middle" x="1503.59" y="-370.5" font-family="Helvetica,sans-Serif" font-size="10.00">Surface &gt;</text>
<polyline fill="none" stroke="black" points="1424.09,-363.5 1583.09,-363.5 "/>
<text text-anchor="middle" x="1503.59" y="-351.5" font-family="Helvetica,sans-Serif" font-size="10.00"> </text>
<polyline fill="none" stroke="black" points="1424.09,-344.5 1583.09,-344.5 "/>
<text text-anchor="start" x="1432.09" y="-332.5" font-family="Helvetica,sans-Serif" font-size="10.00">+ TEnumAsByte()</text>
<text text-anchor="start" x="1432.09" y="-321.5" font-family="Helvetica,sans-Serif" font-size="10.00">+ TEnumAsByte()</text>
<text text-anchor="start" x="1432.09" y="-310.5" font-family="Helvetica,sans-Serif" font-size="10.00">+ TEnumAsByte()</text>
<text text-anchor="start" x="1432.09" y="-299.5" font-family="Helvetica,sans-Serif" font-size="10.00">+ TEnumAsByte()</text>
<text text-anchor="start" x="1432.09" y="-288.5" font-family="Helvetica,sans-Serif" font-size="10.00">+ operator EPhysicalSurface()</text>
<text text-anchor="start" x="1432.09" y="-277.5" font-family="Helvetica,sans-Serif" font-size="10.00">+ GetValue()</text>
</a>
</g>
</g>
<!-- Node31&#45;&gt;Node1 -->
<g id="edge19" class="edge"><title>Node31&#45;&gt;Node1</title>
<path fill="none" stroke="#404040" d="M1475.07,-270.295C1459.45,-243.639 1437.53,-214.487 1409.59,-197 1317.19,-139.175 1006,-109.002 844.976,-96.9373"/>
<polygon fill="none" stroke="#404040" points="844.67,-96.9148 838.392,-100.462 832.702,-96.0311 838.981,-92.4838 844.67,-96.9148"/>
<text text-anchor="middle" x="1521.59" y="-222" font-family="Helvetica,sans-Serif" font-size="10.00"> +PredominantCaveSurface</text>
</g>
</g>
</svg>
