<?xml version="1.0" encoding="UTF-8" standalone="no"?>
<!DOCTYPE svg PUBLIC "-//W3C//DTD SVG 1.1//EN"
 "http://www.w3.org/Graphics/SVG/1.1/DTD/svg11.dtd">
<!-- Generated by graphviz version 2.38.0 (20140413.2041)
 -->
<!-- Title: SDK::UStatCondition Pages: 1 -->
<svg width="2183pt" height="452pt"
 viewBox="0.00 0.00 2183.00 452.00" xmlns="http://www.w3.org/2000/svg" xmlns:xlink="http://www.w3.org/1999/xlink">
<g id="graph0" class="graph" transform="scale(1 1) rotate(0) translate(4 448)">
<title>SDK::UStatCondition</title>
<!-- Node1 -->
<g id="node1" class="node"><title>Node1</title>
<g id="a_node1"><a xlink:title=" ">
<polygon fill="#bfbfbf" stroke="black" points="1002,-127.5 1002,-184.5 1110,-184.5 1110,-127.5 1002,-127.5"/>
<text text-anchor="middle" x="1056" y="-172.5" font-family="Helvetica,sans-Serif" font-size="10.00">SDK::UStatCondition</text>
<polyline fill="none" stroke="black" points="1002,-165.5 1110,-165.5 "/>
<text text-anchor="middle" x="1056" y="-153.5" font-family="Helvetica,sans-Serif" font-size="10.00"> </text>
<polyline fill="none" stroke="black" points="1002,-146.5 1110,-146.5 "/>
<text text-anchor="start" x="1010" y="-134.5" font-family="Helvetica,sans-Serif" font-size="10.00">+ StaticClass()</text>
</a>
</g>
</g>
<!-- Node3 -->
<g id="node3" class="node"><title>Node3</title>
<g id="a_node3"><a xlink:href="a04347.html" target="_top" xlink:title=" ">
<polygon fill="none" stroke="black" points="0,-11.5 0,-79.5 140,-79.5 140,-11.5 0,-11.5"/>
<text text-anchor="start" x="8" y="-67.5" font-family="Helvetica,sans-Serif" font-size="10.00">SDK::UContestPlacedFinish</text>
<text text-anchor="middle" x="70" y="-56.5" font-family="Helvetica,sans-Serif" font-size="10.00">StatCondition</text>
<polyline fill="none" stroke="black" points="0,-49.5 140,-49.5 "/>
<text text-anchor="start" x="8" y="-37.5" font-family="Helvetica,sans-Serif" font-size="10.00">+ ContestPlacesRange</text>
<polyline fill="none" stroke="black" points="0,-30.5 140,-30.5 "/>
<text text-anchor="start" x="8" y="-18.5" font-family="Helvetica,sans-Serif" font-size="10.00">+ StaticClass()</text>
</a>
</g>
</g>
<!-- Node1&#45;&gt;Node3 -->
<g id="edge2" class="edge"><title>Node1&#45;&gt;Node3</title>
<path fill="none" stroke="midnightblue" d="M991.657,-154.121C811.866,-151.085 307.041,-138.457 149,-91 139.653,-88.1931 130.199,-84.1357 121.239,-79.5981"/>
<polygon fill="none" stroke="midnightblue" points="991.699,-157.622 1001.76,-154.287 991.815,-150.623 991.699,-157.622"/>
</g>
<!-- Node4 -->
<g id="node4" class="node"><title>Node4</title>
<g id="a_node4"><a xlink:href="a04899.html" target="_top" xlink:title=" ">
<polygon fill="none" stroke="black" points="158,-11.5 158,-79.5 304,-79.5 304,-11.5 158,-11.5"/>
<text text-anchor="start" x="166" y="-67.5" font-family="Helvetica,sans-Serif" font-size="10.00">SDK::UEquippedWithClothing</text>
<text text-anchor="middle" x="231" y="-56.5" font-family="Helvetica,sans-Serif" font-size="10.00">StatCondition</text>
<polyline fill="none" stroke="black" points="158,-49.5 304,-49.5 "/>
<text text-anchor="start" x="166" y="-37.5" font-family="Helvetica,sans-Serif" font-size="10.00">+ RequiredClothingData</text>
<polyline fill="none" stroke="black" points="158,-30.5 304,-30.5 "/>
<text text-anchor="start" x="166" y="-18.5" font-family="Helvetica,sans-Serif" font-size="10.00">+ StaticClass()</text>
</a>
</g>
</g>
<!-- Node1&#45;&gt;Node4 -->
<g id="edge3" class="edge"><title>Node1&#45;&gt;Node4</title>
<path fill="none" stroke="midnightblue" d="M991.441,-152.824C835.011,-147.008 439.297,-128.904 313,-91 303.537,-88.1599 293.927,-84.1466 284.779,-79.6806"/>
<polygon fill="none" stroke="midnightblue" points="991.717,-156.336 1001.84,-153.205 991.973,-149.341 991.717,-156.336"/>
</g>
<!-- Node5 -->
<g id="node5" class="node"><title>Node5</title>
<g id="a_node5"><a xlink:href="a04903.html" target="_top" xlink:title=" ">
<polygon fill="none" stroke="black" points="322.5,-11.5 322.5,-79.5 469.5,-79.5 469.5,-11.5 322.5,-11.5"/>
<text text-anchor="start" x="330.5" y="-67.5" font-family="Helvetica,sans-Serif" font-size="10.00">SDK::UEquippedWithItemStat</text>
<text text-anchor="middle" x="396" y="-56.5" font-family="Helvetica,sans-Serif" font-size="10.00">Condition</text>
<polyline fill="none" stroke="black" points="322.5,-49.5 469.5,-49.5 "/>
<text text-anchor="start" x="330.5" y="-37.5" font-family="Helvetica,sans-Serif" font-size="10.00">+ RequiredItemsData</text>
<polyline fill="none" stroke="black" points="322.5,-30.5 469.5,-30.5 "/>
<text text-anchor="start" x="330.5" y="-18.5" font-family="Helvetica,sans-Serif" font-size="10.00">+ StaticClass()</text>
</a>
</g>
</g>
<!-- Node1&#45;&gt;Node5 -->
<g id="edge4" class="edge"><title>Node1&#45;&gt;Node5</title>
<path fill="none" stroke="midnightblue" d="M991.594,-155.746C883.243,-155.276 658.72,-146.851 479,-91 469.632,-88.0887 460.096,-84.0976 450.985,-79.6928"/>
<polygon fill="none" stroke="midnightblue" points="991.704,-159.246 1001.71,-155.768 991.72,-152.246 991.704,-159.246"/>
</g>
<!-- Node6 -->
<g id="node6" class="node"><title>Node6</title>
<g id="a_node6"><a xlink:href="a04995.html" target="_top" xlink:title=" ">
<polygon fill="none" stroke="black" points="488,-17 488,-74 658,-74 658,-17 488,-17"/>
<text text-anchor="middle" x="573" y="-62" font-family="Helvetica,sans-Serif" font-size="10.00">SDK::UFeatureToggleStatCondition</text>
<polyline fill="none" stroke="black" points="488,-55 658,-55 "/>
<text text-anchor="start" x="496" y="-43" font-family="Helvetica,sans-Serif" font-size="10.00">+ FeatureToggle</text>
<polyline fill="none" stroke="black" points="488,-36 658,-36 "/>
<text text-anchor="start" x="496" y="-24" font-family="Helvetica,sans-Serif" font-size="10.00">+ StaticClass()</text>
</a>
</g>
</g>
<!-- Node1&#45;&gt;Node6 -->
<g id="edge5" class="edge"><title>Node1&#45;&gt;Node6</title>
<path fill="none" stroke="midnightblue" d="M991.552,-149.939C913.342,-142.541 778.139,-125.697 667,-91 652.867,-86.5878 638.144,-80.4364 624.658,-74.1128"/>
<polygon fill="none" stroke="midnightblue" points="991.456,-153.445 1001.74,-150.879 992.099,-146.474 991.456,-153.445"/>
</g>
<!-- Node7 -->
<g id="node7" class="node"><title>Node7</title>
<g id="a_node7"><a xlink:href="a05327.html" target="_top" xlink:title=" ">
<polygon fill="none" stroke="black" points="676.5,-0.5 676.5,-90.5 811.5,-90.5 811.5,-0.5 676.5,-0.5"/>
<text text-anchor="start" x="684.5" y="-78.5" font-family="Helvetica,sans-Serif" font-size="10.00">SDK::UHasEntitlementStat</text>
<text text-anchor="middle" x="744" y="-67.5" font-family="Helvetica,sans-Serif" font-size="10.00">Condition</text>
<polyline fill="none" stroke="black" points="676.5,-60.5 811.5,-60.5 "/>
<text text-anchor="start" x="684.5" y="-48.5" font-family="Helvetica,sans-Serif" font-size="10.00">+ RequiredNumberToMatch</text>
<text text-anchor="start" x="684.5" y="-37.5" font-family="Helvetica,sans-Serif" font-size="10.00">+ UnknownData00</text>
<text text-anchor="start" x="684.5" y="-26.5" font-family="Helvetica,sans-Serif" font-size="10.00">+ RequiredEntitlements</text>
<polyline fill="none" stroke="black" points="676.5,-19.5 811.5,-19.5 "/>
<text text-anchor="start" x="684.5" y="-7.5" font-family="Helvetica,sans-Serif" font-size="10.00">+ StaticClass()</text>
</a>
</g>
</g>
<!-- Node1&#45;&gt;Node7 -->
<g id="edge6" class="edge"><title>Node1&#45;&gt;Node7</title>
<path fill="none" stroke="midnightblue" d="M991.992,-142.267C943.884,-131.583 876.931,-114.316 821,-91 817.865,-89.693 814.7,-88.282 811.533,-86.7946"/>
<polygon fill="none" stroke="midnightblue" points="991.444,-145.73 1001.96,-144.447 992.939,-138.892 991.444,-145.73"/>
</g>
<!-- Node8 -->
<g id="node8" class="node"><title>Node8</title>
<g id="a_node8"><a xlink:href="a05819.html" target="_top" xlink:title=" ">
<polygon fill="none" stroke="black" points="830,-11.5 830,-79.5 962,-79.5 962,-11.5 830,-11.5"/>
<text text-anchor="start" x="838" y="-67.5" font-family="Helvetica,sans-Serif" font-size="10.00">SDK::UIsPirateLegendStat</text>
<text text-anchor="middle" x="896" y="-56.5" font-family="Helvetica,sans-Serif" font-size="10.00">Condition</text>
<polyline fill="none" stroke="black" points="830,-49.5 962,-49.5 "/>
<text text-anchor="middle" x="896" y="-37.5" font-family="Helvetica,sans-Serif" font-size="10.00"> </text>
<polyline fill="none" stroke="black" points="830,-30.5 962,-30.5 "/>
<text text-anchor="start" x="838" y="-18.5" font-family="Helvetica,sans-Serif" font-size="10.00">+ StaticClass()</text>
</a>
</g>
</g>
<!-- Node1&#45;&gt;Node8 -->
<g id="edge7" class="edge"><title>Node1&#45;&gt;Node8</title>
<path fill="none" stroke="midnightblue" d="M1006.67,-121.551C986.967,-108.187 964.334,-92.839 944.691,-79.5186"/>
<polygon fill="none" stroke="midnightblue" points="1004.97,-124.624 1015.21,-127.34 1008.9,-118.831 1004.97,-124.624"/>
</g>
<!-- Node9 -->
<g id="node9" class="node"><title>Node9</title>
<g id="a_node9"><a xlink:href="a05823.html" target="_top" xlink:title=" ">
<polygon fill="none" stroke="black" points="980.5,-11.5 980.5,-79.5 1131.5,-79.5 1131.5,-11.5 980.5,-11.5"/>
<text text-anchor="start" x="988.5" y="-67.5" font-family="Helvetica,sans-Serif" font-size="10.00">SDK::UIsPlayerInIslandBounds</text>
<text text-anchor="middle" x="1056" y="-56.5" font-family="Helvetica,sans-Serif" font-size="10.00">StatCondition</text>
<polyline fill="none" stroke="black" points="980.5,-49.5 1131.5,-49.5 "/>
<text text-anchor="start" x="988.5" y="-37.5" font-family="Helvetica,sans-Serif" font-size="10.00">+ IslandName</text>
<polyline fill="none" stroke="black" points="980.5,-30.5 1131.5,-30.5 "/>
<text text-anchor="start" x="988.5" y="-18.5" font-family="Helvetica,sans-Serif" font-size="10.00">+ StaticClass()</text>
</a>
</g>
</g>
<!-- Node1&#45;&gt;Node9 -->
<g id="edge8" class="edge"><title>Node1&#45;&gt;Node9</title>
<path fill="none" stroke="midnightblue" d="M1056,-116.987C1056,-104.771 1056,-91.3457 1056,-79.5186"/>
<polygon fill="none" stroke="midnightblue" points="1052.5,-117.34 1056,-127.34 1059.5,-117.34 1052.5,-117.34"/>
</g>
<!-- Node10 -->
<g id="node10" class="node"><title>Node10</title>
<g id="a_node10"><a xlink:href="a05827.html" target="_top" xlink:title=" ">
<polygon fill="none" stroke="black" points="1149.5,-11.5 1149.5,-79.5 1308.5,-79.5 1308.5,-11.5 1149.5,-11.5"/>
<text text-anchor="middle" x="1229" y="-67.5" font-family="Helvetica,sans-Serif" font-size="10.00">SDK::UIsPlayModeStatCondition</text>
<polyline fill="none" stroke="black" points="1149.5,-60.5 1308.5,-60.5 "/>
<text text-anchor="start" x="1157.5" y="-48.5" font-family="Helvetica,sans-Serif" font-size="10.00">+ PlayMode</text>
<text text-anchor="start" x="1157.5" y="-37.5" font-family="Helvetica,sans-Serif" font-size="10.00">+ UnknownData00</text>
<polyline fill="none" stroke="black" points="1149.5,-30.5 1308.5,-30.5 "/>
<text text-anchor="start" x="1157.5" y="-18.5" font-family="Helvetica,sans-Serif" font-size="10.00">+ StaticClass()</text>
</a>
</g>
</g>
<!-- Node1&#45;&gt;Node10 -->
<g id="edge9" class="edge"><title>Node1&#45;&gt;Node10</title>
<path fill="none" stroke="midnightblue" d="M1108.76,-121.91C1130.2,-108.463 1154.92,-92.9585 1176.35,-79.5186"/>
<polygon fill="none" stroke="midnightblue" points="1106.71,-119.062 1100.1,-127.34 1110.43,-124.992 1106.71,-119.062"/>
</g>
<!-- Node11 -->
<g id="node11" class="node"><title>Node11</title>
<g id="a_node11"><a xlink:href="a05831.html" target="_top" xlink:title=" ">
<polygon fill="none" stroke="black" points="1327,-11.5 1327,-79.5 1493,-79.5 1493,-11.5 1327,-11.5"/>
<text text-anchor="start" x="1335" y="-67.5" font-family="Helvetica,sans-Serif" font-size="10.00">SDK::UIsShipCustomizedWith</text>
<text text-anchor="middle" x="1410" y="-56.5" font-family="Helvetica,sans-Serif" font-size="10.00">StatCondition</text>
<polyline fill="none" stroke="black" points="1327,-49.5 1493,-49.5 "/>
<text text-anchor="start" x="1335" y="-37.5" font-family="Helvetica,sans-Serif" font-size="10.00">+ RequiredShipCustomizationData</text>
<polyline fill="none" stroke="black" points="1327,-30.5 1493,-30.5 "/>
<text text-anchor="start" x="1335" y="-18.5" font-family="Helvetica,sans-Serif" font-size="10.00">+ StaticClass()</text>
</a>
</g>
</g>
<!-- Node1&#45;&gt;Node11 -->
<g id="edge10" class="edge"><title>Node1&#45;&gt;Node11</title>
<path fill="none" stroke="midnightblue" d="M1120.24,-143.253C1173.97,-132.497 1252.18,-114.657 1318,-91 1327.27,-87.6693 1336.84,-83.6912 1346.15,-79.503"/>
<polygon fill="none" stroke="midnightblue" points="1119.3,-139.871 1110.16,-145.244 1120.65,-146.738 1119.3,-139.871"/>
</g>
<!-- Node12 -->
<g id="node12" class="node"><title>Node12</title>
<g id="a_node12"><a xlink:href="a05835.html" target="_top" xlink:title=" ">
<polygon fill="none" stroke="black" points="1511,-0.5 1511,-90.5 1657,-90.5 1657,-0.5 1511,-0.5"/>
<text text-anchor="start" x="1519" y="-78.5" font-family="Helvetica,sans-Serif" font-size="10.00">SDK::UIsWearingClothingStat</text>
<text text-anchor="middle" x="1584" y="-67.5" font-family="Helvetica,sans-Serif" font-size="10.00">Conditional</text>
<polyline fill="none" stroke="black" points="1511,-60.5 1657,-60.5 "/>
<text text-anchor="start" x="1519" y="-48.5" font-family="Helvetica,sans-Serif" font-size="10.00">+ Clothes</text>
<text text-anchor="start" x="1519" y="-37.5" font-family="Helvetica,sans-Serif" font-size="10.00">+ MinimumRequiredItems</text>
<text text-anchor="start" x="1519" y="-26.5" font-family="Helvetica,sans-Serif" font-size="10.00">+ UnknownData00</text>
<polyline fill="none" stroke="black" points="1511,-19.5 1657,-19.5 "/>
<text text-anchor="start" x="1519" y="-7.5" font-family="Helvetica,sans-Serif" font-size="10.00">+ StaticClass()</text>
</a>
</g>
</g>
<!-- Node1&#45;&gt;Node12 -->
<g id="edge11" class="edge"><title>Node1&#45;&gt;Node12</title>
<path fill="none" stroke="midnightblue" d="M1120.39,-152.878C1208.57,-148.387 1370.93,-134.416 1502,-91 1504.92,-90.0323 1507.86,-88.9631 1510.8,-87.8129"/>
<polygon fill="none" stroke="midnightblue" points="1120.09,-149.389 1110.27,-153.368 1120.42,-156.38 1120.09,-149.389"/>
</g>
<!-- Node13 -->
<g id="node13" class="node"><title>Node13</title>
<g id="a_node13"><a xlink:href="a10567.html" target="_top" xlink:title=" ">
<polygon fill="none" stroke="black" points="1675.5,-11.5 1675.5,-79.5 1806.5,-79.5 1806.5,-11.5 1675.5,-11.5"/>
<text text-anchor="start" x="1683.5" y="-67.5" font-family="Helvetica,sans-Serif" font-size="10.00">SDK::UIsWieldingItemStat</text>
<text text-anchor="middle" x="1741" y="-56.5" font-family="Helvetica,sans-Serif" font-size="10.00">Condition</text>
<polyline fill="none" stroke="black" points="1675.5,-49.5 1806.5,-49.5 "/>
<text text-anchor="start" x="1683.5" y="-37.5" font-family="Helvetica,sans-Serif" font-size="10.00">+ TargetItems</text>
<polyline fill="none" stroke="black" points="1675.5,-30.5 1806.5,-30.5 "/>
<text text-anchor="start" x="1683.5" y="-18.5" font-family="Helvetica,sans-Serif" font-size="10.00">+ StaticClass()</text>
</a>
</g>
</g>
<!-- Node1&#45;&gt;Node13 -->
<g id="edge12" class="edge"><title>Node1&#45;&gt;Node13</title>
<path fill="none" stroke="midnightblue" d="M1120.65,-151.723C1256.24,-144.281 1566.01,-124.137 1666,-91 1674.77,-88.0946 1683.61,-84.0472 1692.01,-79.567"/>
<polygon fill="none" stroke="midnightblue" points="1120.21,-148.241 1110.42,-152.278 1120.59,-155.231 1120.21,-148.241"/>
</g>
<!-- Node14 -->
<g id="node14" class="node"><title>Node14</title>
<g id="a_node14"><a xlink:href="a06131.html" target="_top" xlink:title=" ">
<polygon fill="none" stroke="black" points="1825,-6 1825,-85 1987,-85 1987,-6 1825,-6"/>
<text text-anchor="start" x="1833" y="-73" font-family="Helvetica,sans-Serif" font-size="10.00">SDK::ULastHealthChangeReason</text>
<text text-anchor="middle" x="1906" y="-62" font-family="Helvetica,sans-Serif" font-size="10.00">StatCondition</text>
<polyline fill="none" stroke="black" points="1825,-55 1987,-55 "/>
<text text-anchor="start" x="1833" y="-43" font-family="Helvetica,sans-Serif" font-size="10.00">+ LastHealthChangeReason</text>
<text text-anchor="start" x="1833" y="-32" font-family="Helvetica,sans-Serif" font-size="10.00">+ UnknownData00</text>
<polyline fill="none" stroke="black" points="1825,-25 1987,-25 "/>
<text text-anchor="start" x="1833" y="-13" font-family="Helvetica,sans-Serif" font-size="10.00">+ StaticClass()</text>
</a>
</g>
</g>
<!-- Node1&#45;&gt;Node14 -->
<g id="edge13" class="edge"><title>Node1&#45;&gt;Node14</title>
<path fill="none" stroke="midnightblue" d="M1120.32,-152.671C1279,-146.433 1685.64,-127.302 1816,-91 1821.88,-89.3633 1827.83,-87.3424 1833.73,-85.0728"/>
<polygon fill="none" stroke="midnightblue" points="1120.09,-149.178 1110.24,-153.064 1120.36,-156.172 1120.09,-149.178"/>
</g>
<!-- Node15 -->
<g id="node15" class="node"><title>Node15</title>
<g id="a_node15"><a xlink:href="a07059.html" target="_top" xlink:title=" ">
<polygon fill="none" stroke="black" points="2005,-6 2005,-85 2175,-85 2175,-6 2005,-6"/>
<text text-anchor="middle" x="2090" y="-73" font-family="Helvetica,sans-Serif" font-size="10.00">SDK::UPerformActionStatCondition</text>
<polyline fill="none" stroke="black" points="2005,-66 2175,-66 "/>
<text text-anchor="start" x="2013" y="-54" font-family="Helvetica,sans-Serif" font-size="10.00">+ RequiredTrackId</text>
<text text-anchor="start" x="2013" y="-43" font-family="Helvetica,sans-Serif" font-size="10.00">+ UnknownData00</text>
<text text-anchor="start" x="2013" y="-32" font-family="Helvetica,sans-Serif" font-size="10.00">+ RequiredAction</text>
<polyline fill="none" stroke="black" points="2005,-25 2175,-25 "/>
<text text-anchor="start" x="2013" y="-13" font-family="Helvetica,sans-Serif" font-size="10.00">+ StaticClass()</text>
</a>
</g>
</g>
<!-- Node1&#45;&gt;Node15 -->
<g id="edge14" class="edge"><title>Node1&#45;&gt;Node15</title>
<path fill="none" stroke="midnightblue" d="M1120.29,-153.735C1304.2,-149.626 1829.88,-134.315 1996,-91 2002.2,-89.3828 2008.49,-87.3583 2014.73,-85.0707"/>
<polygon fill="none" stroke="midnightblue" points="1120.15,-150.237 1110.23,-153.957 1120.31,-157.236 1120.15,-150.237"/>
</g>
<!-- Node2 -->
<g id="node2" class="node"><title>Node2</title>
<g id="a_node2"><a xlink:href="a26095.html" target="_top" xlink:title=" ">
<polygon fill="none" stroke="black" points="1000,-221.5 1000,-443.5 1112,-443.5 1112,-221.5 1000,-221.5"/>
<text text-anchor="middle" x="1056" y="-431.5" font-family="Helvetica,sans-Serif" font-size="10.00">SDK::UObject</text>
<polyline fill="none" stroke="black" points="1000,-424.5 1112,-424.5 "/>
<text text-anchor="start" x="1008" y="-412.5" font-family="Helvetica,sans-Serif" font-size="10.00">+ Vtable</text>
<text text-anchor="start" x="1008" y="-401.5" font-family="Helvetica,sans-Serif" font-size="10.00">+ ObjectFlags</text>
<text text-anchor="start" x="1008" y="-390.5" font-family="Helvetica,sans-Serif" font-size="10.00">+ InternalIndex</text>
<text text-anchor="start" x="1008" y="-379.5" font-family="Helvetica,sans-Serif" font-size="10.00">+ Class</text>
<text text-anchor="start" x="1008" y="-368.5" font-family="Helvetica,sans-Serif" font-size="10.00">+ Name</text>
<text text-anchor="start" x="1008" y="-357.5" font-family="Helvetica,sans-Serif" font-size="10.00">+ Outer</text>
<text text-anchor="start" x="1008" y="-346.5" font-family="Helvetica,sans-Serif" font-size="10.00">+ GObjects</text>
<polyline fill="none" stroke="black" points="1000,-339.5 1112,-339.5 "/>
<text text-anchor="start" x="1008" y="-327.5" font-family="Helvetica,sans-Serif" font-size="10.00">+ GetName()</text>
<text text-anchor="start" x="1008" y="-316.5" font-family="Helvetica,sans-Serif" font-size="10.00">+ GetFullName()</text>
<text text-anchor="start" x="1008" y="-305.5" font-family="Helvetica,sans-Serif" font-size="10.00">+ IsA()</text>
<text text-anchor="start" x="1008" y="-294.5" font-family="Helvetica,sans-Serif" font-size="10.00">+ ProcessEvent()</text>
<text text-anchor="start" x="1008" y="-283.5" font-family="Helvetica,sans-Serif" font-size="10.00">+ ExecuteUbergraph()</text>
<text text-anchor="start" x="1008" y="-272.5" font-family="Helvetica,sans-Serif" font-size="10.00">+ StaticClass()</text>
<text text-anchor="start" x="1008" y="-261.5" font-family="Helvetica,sans-Serif" font-size="10.00">+ GetGlobalObjects()</text>
<text text-anchor="start" x="1008" y="-250.5" font-family="Helvetica,sans-Serif" font-size="10.00">+ FindObject()</text>
<text text-anchor="start" x="1008" y="-239.5" font-family="Helvetica,sans-Serif" font-size="10.00">+ FindClass()</text>
<text text-anchor="start" x="1008" y="-228.5" font-family="Helvetica,sans-Serif" font-size="10.00">+ GetObjectCasted()</text>
</a>
</g>
</g>
<!-- Node2&#45;&gt;Node1 -->
<g id="edge1" class="edge"><title>Node2&#45;&gt;Node1</title>
<path fill="none" stroke="midnightblue" d="M1056,-211.239C1056,-201.605 1056,-192.602 1056,-184.805"/>
<polygon fill="none" stroke="midnightblue" points="1052.5,-211.482 1056,-221.482 1059.5,-211.482 1052.5,-211.482"/>
</g>
</g>
</svg>
