<?xml version="1.0" encoding="UTF-8" standalone="no"?>
<!DOCTYPE svg PUBLIC "-//W3C//DTD SVG 1.1//EN"
 "http://www.w3.org/Graphics/SVG/1.1/DTD/svg11.dtd">
<!-- Generated by graphviz version 2.38.0 (20140413.2041)
 -->
<!-- Title: SDK::UStatCondition Pages: 1 -->
<svg width="2014pt" height="452pt"
 viewBox="0.00 0.00 2014.00 452.00" xmlns="http://www.w3.org/2000/svg" xmlns:xlink="http://www.w3.org/1999/xlink">
<g id="graph0" class="graph" transform="scale(1 1) rotate(0) translate(4 448)">
<title>SDK::UStatCondition</title>
<!-- Node1 -->
<g id="node1" class="node"><title>Node1</title>
<g id="a_node1"><a xlink:title=" ">
<polygon fill="#bfbfbf" stroke="black" points="924,-127.5 924,-184.5 1032,-184.5 1032,-127.5 924,-127.5"/>
<text text-anchor="middle" x="978" y="-172.5" font-family="Helvetica,sans-Serif" font-size="10.00">SDK::UStatCondition</text>
<polyline fill="none" stroke="black" points="924,-165.5 1032,-165.5 "/>
<text text-anchor="middle" x="978" y="-153.5" font-family="Helvetica,sans-Serif" font-size="10.00"> </text>
<polyline fill="none" stroke="black" points="924,-146.5 1032,-146.5 "/>
<text text-anchor="start" x="932" y="-134.5" font-family="Helvetica,sans-Serif" font-size="10.00">+ StaticClass()</text>
</a>
</g>
</g>
<!-- Node3 -->
<g id="node3" class="node"><title>Node3</title>
<g id="a_node3"><a xlink:href="a04315.html" target="_top" xlink:title=" ">
<polygon fill="none" stroke="black" points="0,-11.5 0,-79.5 140,-79.5 140,-11.5 0,-11.5"/>
<text text-anchor="start" x="8" y="-67.5" font-family="Helvetica,sans-Serif" font-size="10.00">SDK::UContestPlacedFinish</text>
<text text-anchor="middle" x="70" y="-56.5" font-family="Helvetica,sans-Serif" font-size="10.00">StatCondition</text>
<polyline fill="none" stroke="black" points="0,-49.5 140,-49.5 "/>
<text text-anchor="start" x="8" y="-37.5" font-family="Helvetica,sans-Serif" font-size="10.00">+ ContestPlacesRange</text>
<polyline fill="none" stroke="black" points="0,-30.5 140,-30.5 "/>
<text text-anchor="start" x="8" y="-18.5" font-family="Helvetica,sans-Serif" font-size="10.00">+ StaticClass()</text>
</a>
</g>
</g>
<!-- Node1&#45;&gt;Node3 -->
<g id="edge2" class="edge"><title>Node1&#45;&gt;Node3</title>
<path fill="none" stroke="midnightblue" d="M913.723,-153.626C744.846,-149.445 291.808,-134.398 149,-91 139.662,-88.1623 130.213,-84.0889 121.255,-79.5449"/>
<polygon fill="none" stroke="midnightblue" points="913.869,-157.13 923.951,-153.874 914.039,-150.132 913.869,-157.13"/>
</g>
<!-- Node4 -->
<g id="node4" class="node"><title>Node4</title>
<g id="a_node4"><a xlink:href="a04871.html" target="_top" xlink:title=" ">
<polygon fill="none" stroke="black" points="158,-11.5 158,-79.5 304,-79.5 304,-11.5 158,-11.5"/>
<text text-anchor="start" x="166" y="-67.5" font-family="Helvetica,sans-Serif" font-size="10.00">SDK::UEquippedWithClothing</text>
<text text-anchor="middle" x="231" y="-56.5" font-family="Helvetica,sans-Serif" font-size="10.00">StatCondition</text>
<polyline fill="none" stroke="black" points="158,-49.5 304,-49.5 "/>
<text text-anchor="start" x="166" y="-37.5" font-family="Helvetica,sans-Serif" font-size="10.00">+ RequiredClothingData</text>
<polyline fill="none" stroke="black" points="158,-30.5 304,-30.5 "/>
<text text-anchor="start" x="166" y="-18.5" font-family="Helvetica,sans-Serif" font-size="10.00">+ StaticClass()</text>
</a>
</g>
</g>
<!-- Node1&#45;&gt;Node4 -->
<g id="edge3" class="edge"><title>Node1&#45;&gt;Node4</title>
<path fill="none" stroke="midnightblue" d="M913.861,-152.091C769.763,-145.029 424.3,-125.012 313,-91 303.551,-88.1125 293.949,-84.0744 284.804,-79.5981"/>
<polygon fill="none" stroke="midnightblue" points="913.724,-155.588 923.882,-152.577 914.063,-148.597 913.724,-155.588"/>
</g>
<!-- Node5 -->
<g id="node5" class="node"><title>Node5</title>
<g id="a_node5"><a xlink:href="a04875.html" target="_top" xlink:title=" ">
<polygon fill="none" stroke="black" points="322.5,-11.5 322.5,-79.5 469.5,-79.5 469.5,-11.5 322.5,-11.5"/>
<text text-anchor="start" x="330.5" y="-67.5" font-family="Helvetica,sans-Serif" font-size="10.00">SDK::UEquippedWithItemStat</text>
<text text-anchor="middle" x="396" y="-56.5" font-family="Helvetica,sans-Serif" font-size="10.00">Condition</text>
<polyline fill="none" stroke="black" points="322.5,-49.5 469.5,-49.5 "/>
<text text-anchor="start" x="330.5" y="-37.5" font-family="Helvetica,sans-Serif" font-size="10.00">+ RequiredItemsData</text>
<polyline fill="none" stroke="black" points="322.5,-30.5 469.5,-30.5 "/>
<text text-anchor="start" x="330.5" y="-18.5" font-family="Helvetica,sans-Serif" font-size="10.00">+ StaticClass()</text>
</a>
</g>
</g>
<!-- Node1&#45;&gt;Node5 -->
<g id="edge4" class="edge"><title>Node1&#45;&gt;Node5</title>
<path fill="none" stroke="midnightblue" d="M913.614,-154.158C816.974,-151.257 629.684,-139.244 479,-91 469.657,-88.0087 460.134,-83.9752 451.029,-79.5522"/>
<polygon fill="none" stroke="midnightblue" points="913.718,-157.663 923.811,-154.441 913.911,-150.665 913.718,-157.663"/>
</g>
<!-- Node6 -->
<g id="node6" class="node"><title>Node6</title>
<g id="a_node6"><a xlink:href="a04967.html" target="_top" xlink:title=" ">
<polygon fill="none" stroke="black" points="488,-17 488,-74 658,-74 658,-17 488,-17"/>
<text text-anchor="middle" x="573" y="-62" font-family="Helvetica,sans-Serif" font-size="10.00">SDK::UFeatureToggleStatCondition</text>
<polyline fill="none" stroke="black" points="488,-55 658,-55 "/>
<text text-anchor="start" x="496" y="-43" font-family="Helvetica,sans-Serif" font-size="10.00">+ FeatureToggle</text>
<polyline fill="none" stroke="black" points="488,-36 658,-36 "/>
<text text-anchor="start" x="496" y="-24" font-family="Helvetica,sans-Serif" font-size="10.00">+ StaticClass()</text>
</a>
</g>
</g>
<!-- Node1&#45;&gt;Node6 -->
<g id="edge5" class="edge"><title>Node1&#45;&gt;Node6</title>
<path fill="none" stroke="midnightblue" d="M913.968,-146.406C850.257,-136.795 750.249,-118.824 667,-91 653.3,-86.4213 638.983,-80.3585 625.772,-74.1864"/>
<polygon fill="none" stroke="midnightblue" points="913.468,-149.87 923.873,-147.877 914.496,-142.946 913.468,-149.87"/>
</g>
<!-- Node7 -->
<g id="node7" class="node"><title>Node7</title>
<g id="a_node7"><a xlink:href="a05303.html" target="_top" xlink:title=" ">
<polygon fill="none" stroke="black" points="676.5,-0.5 676.5,-90.5 811.5,-90.5 811.5,-0.5 676.5,-0.5"/>
<text text-anchor="start" x="684.5" y="-78.5" font-family="Helvetica,sans-Serif" font-size="10.00">SDK::UHasEntitlementStat</text>
<text text-anchor="middle" x="744" y="-67.5" font-family="Helvetica,sans-Serif" font-size="10.00">Condition</text>
<polyline fill="none" stroke="black" points="676.5,-60.5 811.5,-60.5 "/>
<text text-anchor="start" x="684.5" y="-48.5" font-family="Helvetica,sans-Serif" font-size="10.00">+ RequiredNumberToMatch</text>
<text text-anchor="start" x="684.5" y="-37.5" font-family="Helvetica,sans-Serif" font-size="10.00">+ UnknownData00</text>
<text text-anchor="start" x="684.5" y="-26.5" font-family="Helvetica,sans-Serif" font-size="10.00">+ RequiredEntitlements</text>
<polyline fill="none" stroke="black" points="676.5,-19.5 811.5,-19.5 "/>
<text text-anchor="start" x="684.5" y="-7.5" font-family="Helvetica,sans-Serif" font-size="10.00">+ StaticClass()</text>
</a>
</g>
</g>
<!-- Node1&#45;&gt;Node7 -->
<g id="edge6" class="edge"><title>Node1&#45;&gt;Node7</title>
<path fill="none" stroke="midnightblue" d="M914.222,-131.294C885.353,-119.982 851.042,-105.718 821,-91 817.95,-89.5056 814.855,-87.9393 811.746,-86.3247"/>
<polygon fill="none" stroke="midnightblue" points="913.201,-134.652 923.79,-135.014 915.737,-128.128 913.201,-134.652"/>
</g>
<!-- Node8 -->
<g id="node8" class="node"><title>Node8</title>
<g id="a_node8"><a xlink:href="a05855.html" target="_top" xlink:title=" ">
<polygon fill="none" stroke="black" points="830,-11.5 830,-79.5 962,-79.5 962,-11.5 830,-11.5"/>
<text text-anchor="start" x="838" y="-67.5" font-family="Helvetica,sans-Serif" font-size="10.00">SDK::UIsPirateLegendStat</text>
<text text-anchor="middle" x="896" y="-56.5" font-family="Helvetica,sans-Serif" font-size="10.00">Condition</text>
<polyline fill="none" stroke="black" points="830,-49.5 962,-49.5 "/>
<text text-anchor="middle" x="896" y="-37.5" font-family="Helvetica,sans-Serif" font-size="10.00"> </text>
<polyline fill="none" stroke="black" points="830,-30.5 962,-30.5 "/>
<text text-anchor="start" x="838" y="-18.5" font-family="Helvetica,sans-Serif" font-size="10.00">+ StaticClass()</text>
</a>
</g>
</g>
<!-- Node1&#45;&gt;Node8 -->
<g id="edge7" class="edge"><title>Node1&#45;&gt;Node8</title>
<path fill="none" stroke="midnightblue" d="M950.939,-119.194C941.273,-106.405 930.434,-92.0625 920.954,-79.5186"/>
<polygon fill="none" stroke="midnightblue" points="948.274,-121.473 957.096,-127.34 953.859,-117.252 948.274,-121.473"/>
</g>
<!-- Node9 -->
<g id="node9" class="node"><title>Node9</title>
<g id="a_node9"><a xlink:href="a05859.html" target="_top" xlink:title=" ">
<polygon fill="none" stroke="black" points="980.5,-11.5 980.5,-79.5 1139.5,-79.5 1139.5,-11.5 980.5,-11.5"/>
<text text-anchor="middle" x="1060" y="-67.5" font-family="Helvetica,sans-Serif" font-size="10.00">SDK::UIsPlayModeStatCondition</text>
<polyline fill="none" stroke="black" points="980.5,-60.5 1139.5,-60.5 "/>
<text text-anchor="start" x="988.5" y="-48.5" font-family="Helvetica,sans-Serif" font-size="10.00">+ PlayMode</text>
<text text-anchor="start" x="988.5" y="-37.5" font-family="Helvetica,sans-Serif" font-size="10.00">+ UnknownData00</text>
<polyline fill="none" stroke="black" points="980.5,-30.5 1139.5,-30.5 "/>
<text text-anchor="start" x="988.5" y="-18.5" font-family="Helvetica,sans-Serif" font-size="10.00">+ StaticClass()</text>
</a>
</g>
</g>
<!-- Node1&#45;&gt;Node9 -->
<g id="edge8" class="edge"><title>Node1&#45;&gt;Node9</title>
<path fill="none" stroke="midnightblue" d="M1005.06,-119.194C1014.73,-106.405 1025.57,-92.0625 1035.05,-79.5186"/>
<polygon fill="none" stroke="midnightblue" points="1002.14,-117.252 998.904,-127.34 1007.73,-121.473 1002.14,-117.252"/>
</g>
<!-- Node10 -->
<g id="node10" class="node"><title>Node10</title>
<g id="a_node10"><a xlink:href="a05863.html" target="_top" xlink:title=" ">
<polygon fill="none" stroke="black" points="1158,-11.5 1158,-79.5 1324,-79.5 1324,-11.5 1158,-11.5"/>
<text text-anchor="start" x="1166" y="-67.5" font-family="Helvetica,sans-Serif" font-size="10.00">SDK::UIsShipCustomizedWith</text>
<text text-anchor="middle" x="1241" y="-56.5" font-family="Helvetica,sans-Serif" font-size="10.00">StatCondition</text>
<polyline fill="none" stroke="black" points="1158,-49.5 1324,-49.5 "/>
<text text-anchor="start" x="1166" y="-37.5" font-family="Helvetica,sans-Serif" font-size="10.00">+ RequiredShipCustomizationData</text>
<polyline fill="none" stroke="black" points="1158,-30.5 1324,-30.5 "/>
<text text-anchor="start" x="1166" y="-18.5" font-family="Helvetica,sans-Serif" font-size="10.00">+ StaticClass()</text>
</a>
</g>
</g>
<!-- Node1&#45;&gt;Node10 -->
<g id="edge9" class="edge"><title>Node1&#45;&gt;Node10</title>
<path fill="none" stroke="midnightblue" d="M1041.83,-132.697C1074.22,-120.982 1114.01,-105.974 1149,-91 1157.32,-87.4403 1165.97,-83.5327 1174.5,-79.5573"/>
<polygon fill="none" stroke="midnightblue" points="1040.26,-129.544 1032.03,-136.223 1042.63,-136.13 1040.26,-129.544"/>
</g>
<!-- Node11 -->
<g id="node11" class="node"><title>Node11</title>
<g id="a_node11"><a xlink:href="a05867.html" target="_top" xlink:title=" ">
<polygon fill="none" stroke="black" points="1342,-0.5 1342,-90.5 1488,-90.5 1488,-0.5 1342,-0.5"/>
<text text-anchor="start" x="1350" y="-78.5" font-family="Helvetica,sans-Serif" font-size="10.00">SDK::UIsWearingClothingStat</text>
<text text-anchor="middle" x="1415" y="-67.5" font-family="Helvetica,sans-Serif" font-size="10.00">Conditional</text>
<polyline fill="none" stroke="black" points="1342,-60.5 1488,-60.5 "/>
<text text-anchor="start" x="1350" y="-48.5" font-family="Helvetica,sans-Serif" font-size="10.00">+ Clothes</text>
<text text-anchor="start" x="1350" y="-37.5" font-family="Helvetica,sans-Serif" font-size="10.00">+ MinimumRequiredItems</text>
<text text-anchor="start" x="1350" y="-26.5" font-family="Helvetica,sans-Serif" font-size="10.00">+ UnknownData00</text>
<polyline fill="none" stroke="black" points="1342,-19.5 1488,-19.5 "/>
<text text-anchor="start" x="1350" y="-7.5" font-family="Helvetica,sans-Serif" font-size="10.00">+ StaticClass()</text>
</a>
</g>
</g>
<!-- Node1&#45;&gt;Node11 -->
<g id="edge10" class="edge"><title>Node1&#45;&gt;Node11</title>
<path fill="none" stroke="midnightblue" d="M1042.62,-149.585C1114.99,-142.103 1235.01,-125.419 1333,-91 1335.9,-89.9801 1338.83,-88.8665 1341.75,-87.6787"/>
<polygon fill="none" stroke="midnightblue" points="1041.89,-146.14 1032.29,-150.623 1042.59,-153.105 1041.89,-146.14"/>
</g>
<!-- Node12 -->
<g id="node12" class="node"><title>Node12</title>
<g id="a_node12"><a xlink:href="a10579.html" target="_top" xlink:title=" ">
<polygon fill="none" stroke="black" points="1506.5,-11.5 1506.5,-79.5 1637.5,-79.5 1637.5,-11.5 1506.5,-11.5"/>
<text text-anchor="start" x="1514.5" y="-67.5" font-family="Helvetica,sans-Serif" font-size="10.00">SDK::UIsWieldingItemStat</text>
<text text-anchor="middle" x="1572" y="-56.5" font-family="Helvetica,sans-Serif" font-size="10.00">Condition</text>
<polyline fill="none" stroke="black" points="1506.5,-49.5 1637.5,-49.5 "/>
<text text-anchor="start" x="1514.5" y="-37.5" font-family="Helvetica,sans-Serif" font-size="10.00">+ TargetItems</text>
<polyline fill="none" stroke="black" points="1506.5,-30.5 1637.5,-30.5 "/>
<text text-anchor="start" x="1514.5" y="-18.5" font-family="Helvetica,sans-Serif" font-size="10.00">+ StaticClass()</text>
</a>
</g>
</g>
<!-- Node1&#45;&gt;Node12 -->
<g id="edge11" class="edge"><title>Node1&#45;&gt;Node12</title>
<path fill="none" stroke="midnightblue" d="M1042.54,-155.45C1142.6,-154.304 1339.96,-144.631 1497,-91 1505.6,-88.0641 1514.28,-84.0599 1522.55,-79.6495"/>
<polygon fill="none" stroke="midnightblue" points="1042.26,-151.952 1032.29,-155.541 1042.32,-158.952 1042.26,-151.952"/>
</g>
<!-- Node13 -->
<g id="node13" class="node"><title>Node13</title>
<g id="a_node13"><a xlink:href="a06163.html" target="_top" xlink:title=" ">
<polygon fill="none" stroke="black" points="1656,-6 1656,-85 1818,-85 1818,-6 1656,-6"/>
<text text-anchor="start" x="1664" y="-73" font-family="Helvetica,sans-Serif" font-size="10.00">SDK::ULastHealthChangeReason</text>
<text text-anchor="middle" x="1737" y="-62" font-family="Helvetica,sans-Serif" font-size="10.00">StatCondition</text>
<polyline fill="none" stroke="black" points="1656,-55 1818,-55 "/>
<text text-anchor="start" x="1664" y="-43" font-family="Helvetica,sans-Serif" font-size="10.00">+ LastHealthChangeReason</text>
<text text-anchor="start" x="1664" y="-32" font-family="Helvetica,sans-Serif" font-size="10.00">+ UnknownData00</text>
<polyline fill="none" stroke="black" points="1656,-25 1818,-25 "/>
<text text-anchor="start" x="1664" y="-13" font-family="Helvetica,sans-Serif" font-size="10.00">+ StaticClass()</text>
</a>
</g>
</g>
<!-- Node1&#45;&gt;Node13 -->
<g id="edge12" class="edge"><title>Node1&#45;&gt;Node13</title>
<path fill="none" stroke="midnightblue" d="M1042.17,-151.83C1186.79,-144.206 1534.33,-123.068 1647,-91 1652.78,-89.3538 1658.64,-87.3431 1664.45,-85.0961"/>
<polygon fill="none" stroke="midnightblue" points="1041.92,-148.338 1032.12,-152.355 1042.29,-155.329 1041.92,-148.338"/>
</g>
<!-- Node14 -->
<g id="node14" class="node"><title>Node14</title>
<g id="a_node14"><a xlink:href="a07107.html" target="_top" xlink:title=" ">
<polygon fill="none" stroke="black" points="1836,-6 1836,-85 2006,-85 2006,-6 1836,-6"/>
<text text-anchor="middle" x="1921" y="-73" font-family="Helvetica,sans-Serif" font-size="10.00">SDK::UPerformActionStatCondition</text>
<polyline fill="none" stroke="black" points="1836,-66 2006,-66 "/>
<text text-anchor="start" x="1844" y="-54" font-family="Helvetica,sans-Serif" font-size="10.00">+ RequiredTrackId</text>
<text text-anchor="start" x="1844" y="-43" font-family="Helvetica,sans-Serif" font-size="10.00">+ UnknownData00</text>
<text text-anchor="start" x="1844" y="-32" font-family="Helvetica,sans-Serif" font-size="10.00">+ RequiredAction</text>
<polyline fill="none" stroke="black" points="1836,-25 2006,-25 "/>
<text text-anchor="start" x="1844" y="-13" font-family="Helvetica,sans-Serif" font-size="10.00">+ StaticClass()</text>
</a>
</g>
</g>
<!-- Node1&#45;&gt;Node14 -->
<g id="edge13" class="edge"><title>Node1&#45;&gt;Node14</title>
<path fill="none" stroke="midnightblue" d="M1042.18,-153.195C1213.55,-147.893 1678.83,-130.21 1827,-91 1833.2,-89.3603 1839.48,-87.3196 1845.71,-85.0206"/>
<polygon fill="none" stroke="midnightblue" points="1041.94,-149.7 1032.06,-153.504 1042.16,-156.697 1041.94,-149.7"/>
</g>
<!-- Node2 -->
<g id="node2" class="node"><title>Node2</title>
<g id="a_node2"><a xlink:href="a25883.html" target="_top" xlink:title=" ">
<polygon fill="none" stroke="black" points="922,-221.5 922,-443.5 1034,-443.5 1034,-221.5 922,-221.5"/>
<text text-anchor="middle" x="978" y="-431.5" font-family="Helvetica,sans-Serif" font-size="10.00">SDK::UObject</text>
<polyline fill="none" stroke="black" points="922,-424.5 1034,-424.5 "/>
<text text-anchor="start" x="930" y="-412.5" font-family="Helvetica,sans-Serif" font-size="10.00">+ Vtable</text>
<text text-anchor="start" x="930" y="-401.5" font-family="Helvetica,sans-Serif" font-size="10.00">+ ObjectFlags</text>
<text text-anchor="start" x="930" y="-390.5" font-family="Helvetica,sans-Serif" font-size="10.00">+ InternalIndex</text>
<text text-anchor="start" x="930" y="-379.5" font-family="Helvetica,sans-Serif" font-size="10.00">+ Class</text>
<text text-anchor="start" x="930" y="-368.5" font-family="Helvetica,sans-Serif" font-size="10.00">+ Name</text>
<text text-anchor="start" x="930" y="-357.5" font-family="Helvetica,sans-Serif" font-size="10.00">+ Outer</text>
<text text-anchor="start" x="930" y="-346.5" font-family="Helvetica,sans-Serif" font-size="10.00">+ GObjects</text>
<polyline fill="none" stroke="black" points="922,-339.5 1034,-339.5 "/>
<text text-anchor="start" x="930" y="-327.5" font-family="Helvetica,sans-Serif" font-size="10.00">+ GetName()</text>
<text text-anchor="start" x="930" y="-316.5" font-family="Helvetica,sans-Serif" font-size="10.00">+ GetFullName()</text>
<text text-anchor="start" x="930" y="-305.5" font-family="Helvetica,sans-Serif" font-size="10.00">+ IsA()</text>
<text text-anchor="start" x="930" y="-294.5" font-family="Helvetica,sans-Serif" font-size="10.00">+ ProcessEvent()</text>
<text text-anchor="start" x="930" y="-283.5" font-family="Helvetica,sans-Serif" font-size="10.00">+ ExecuteUbergraph()</text>
<text text-anchor="start" x="930" y="-272.5" font-family="Helvetica,sans-Serif" font-size="10.00">+ StaticClass()</text>
<text text-anchor="start" x="930" y="-261.5" font-family="Helvetica,sans-Serif" font-size="10.00">+ GetGlobalObjects()</text>
<text text-anchor="start" x="930" y="-250.5" font-family="Helvetica,sans-Serif" font-size="10.00">+ FindObject()</text>
<text text-anchor="start" x="930" y="-239.5" font-family="Helvetica,sans-Serif" font-size="10.00">+ FindClass()</text>
<text text-anchor="start" x="930" y="-228.5" font-family="Helvetica,sans-Serif" font-size="10.00">+ GetObjectCasted()</text>
</a>
</g>
</g>
<!-- Node2&#45;&gt;Node1 -->
<g id="edge1" class="edge"><title>Node2&#45;&gt;Node1</title>
<path fill="none" stroke="midnightblue" d="M978,-211.239C978,-201.605 978,-192.602 978,-184.805"/>
<polygon fill="none" stroke="midnightblue" points="974.5,-211.482 978,-221.482 981.5,-211.482 974.5,-211.482"/>
</g>
</g>
</svg>
