<?xml version="1.0" encoding="UTF-8" standalone="no"?>
<!DOCTYPE svg PUBLIC "-//W3C//DTD SVG 1.1//EN"
 "http://www.w3.org/Graphics/SVG/1.1/DTD/svg11.dtd">
<!-- Generated by graphviz version 2.38.0 (20140413.2041)
 -->
<!-- Title: SDK::UContestTeamAssignmentComponent Pages: 1 -->
<!--zoomable 661 -->
<svg id="main" version="1.1" xmlns="http://www.w3.org/2000/svg" xmlns:xlink="http://www.w3.org/1999/xlink" xml:space="preserve" onload="init(evt)">
<style type="text/css"><![CDATA[
.edge:hover path { stroke: red; }
.edge:hover polygon { stroke: red; fill: red; }
]]></style>
<script type="text/javascript"><![CDATA[
var edges = document.getElementsByTagName('g');
if (edges && edges.length) {
  for (var i=0;i<edges.length;i++) {
    if (edges[i].id.substr(0,4)=='edge') {
      edges[i].setAttribute('class','edge');
    }
  }
}
]]></script>
        <defs>
                <circle id="rim" cx="0" cy="0" r="7"/>
                <circle id="rim2" cx="0" cy="0" r="3.5"/>
                <g id="zoomPlus">
                        <use xlink:href="#rim" fill="#404040">
                                <set attributeName="fill" to="#808080" begin="zoomplus.mouseover" end="zoomplus.mouseout"/>
                        </use>
                        <path d="M-4,0h8M0,-4v8" fill="none" stroke="white" stroke-width="1.5" pointer-events="none"/>
                </g>
                <g id="zoomMin">
                        <use xlink:href="#rim" fill="#404040">
                                <set attributeName="fill" to="#808080" begin="zoomminus.mouseover" end="zoomminus.mouseout"/>
                        </use>
                        <path d="M-4,0h8" fill="none" stroke="white" stroke-width="1.5" pointer-events="none"/>
                </g>
                <g id="dirArrow">
                        <path fill="none" stroke="white" stroke-width="1.5" d="M0,-3.0v7 M-2.5,-0.5L0,-3.0L2.5,-0.5"/>
                </g>
               <g id="resetDef">
                       <use xlink:href="#rim2" fill="#404040">
                               <set attributeName="fill" to="#808080" begin="reset.mouseover" end="reset.mouseout"/>
                       </use>
               </g>
        </defs>

<script type="text/javascript">
var viewWidth = 814;
var viewHeight = 661;
var sectionId = 'dynsection-1';
</script>
<script xlink:href="svgpan.js"/>
<svg id="graph" class="graph">
<g id="viewport">
<title>SDK::UContestTeamAssignmentComponent</title>
<!-- Node1 -->
<g id="node1" class="node"><title>Node1</title>
<g id="a_node1"><a xlink:title=" ">
<polygon fill="#bfbfbf" stroke="black" points="324.417,-0.5 324.417,-68.5 483.417,-68.5 483.417,-0.5 324.417,-0.5"/>
<text text-anchor="start" x="332.417" y="-56.5" font-family="Helvetica,sans-Serif" font-size="10.00">SDK::UContestTeamAssignment</text>
<text text-anchor="middle" x="403.917" y="-45.5" font-family="Helvetica,sans-Serif" font-size="10.00">Component</text>
<polyline fill="none" stroke="black" points="324.417,-38.5 483.417,-38.5 "/>
<text text-anchor="middle" x="403.917" y="-26.5" font-family="Helvetica,sans-Serif" font-size="10.00"> </text>
<polyline fill="none" stroke="black" points="324.417,-19.5 483.417,-19.5 "/>
<text text-anchor="start" x="332.417" y="-7.5" font-family="Helvetica,sans-Serif" font-size="10.00">+ StaticClass()</text>
</a>
</g>
</g>
<!-- Node2 -->
<g id="node2" class="node"><title>Node2</title>
<g id="a_node2"><a xlink:href="a26339.html" target="_top" xlink:title=" ">
<polygon fill="none" stroke="red" points="127.417,-127.5 127.417,-371.5 312.417,-371.5 312.417,-127.5 127.417,-127.5"/>
<text text-anchor="middle" x="219.917" y="-359.5" font-family="Helvetica,sans-Serif" font-size="10.00">SDK::UActorComponent</text>
<polyline fill="none" stroke="red" points="127.417,-352.5 312.417,-352.5 "/>
<text text-anchor="start" x="135.417" y="-340.5" font-family="Helvetica,sans-Serif" font-size="10.00">+ UnknownData00</text>
<text text-anchor="start" x="135.417" y="-329.5" font-family="Helvetica,sans-Serif" font-size="10.00">+ bReplicates</text>
<text text-anchor="start" x="135.417" y="-318.5" font-family="Helvetica,sans-Serif" font-size="10.00">+ bNetAddressable</text>
<text text-anchor="start" x="135.417" y="-307.5" font-family="Helvetica,sans-Serif" font-size="10.00">+ bInstanceComponent</text>
<text text-anchor="start" x="135.417" y="-296.5" font-family="Helvetica,sans-Serif" font-size="10.00">+ bAutoActivate</text>
<text text-anchor="start" x="135.417" y="-285.5" font-family="Helvetica,sans-Serif" font-size="10.00">+ bIsActive</text>
<text text-anchor="start" x="135.417" y="-274.5" font-family="Helvetica,sans-Serif" font-size="10.00">+ bNeedsLoadForServer</text>
<polyline fill="none" stroke="red" points="127.417,-267.5 312.417,-267.5 "/>
<text text-anchor="start" x="135.417" y="-255.5" font-family="Helvetica,sans-Serif" font-size="10.00">+ ToggleActive()</text>
<text text-anchor="start" x="135.417" y="-244.5" font-family="Helvetica,sans-Serif" font-size="10.00">+ SetTickGroup()</text>
<text text-anchor="start" x="135.417" y="-233.5" font-family="Helvetica,sans-Serif" font-size="10.00">+ SetTickableWhenPaused()</text>
<text text-anchor="start" x="135.417" y="-222.5" font-family="Helvetica,sans-Serif" font-size="10.00">+ SetIsReplicated()</text>
<text text-anchor="start" x="135.417" y="-211.5" font-family="Helvetica,sans-Serif" font-size="10.00">+ SetComponentTickEnabled()</text>
<text text-anchor="start" x="135.417" y="-200.5" font-family="Helvetica,sans-Serif" font-size="10.00">+ SetActive()</text>
<text text-anchor="start" x="135.417" y="-189.5" font-family="Helvetica,sans-Serif" font-size="10.00">+ RemoveTickPrerequisiteComponent()</text>
<text text-anchor="start" x="135.417" y="-178.5" font-family="Helvetica,sans-Serif" font-size="10.00">+ RemoveTickPrerequisiteActor()</text>
<text text-anchor="start" x="135.417" y="-167.5" font-family="Helvetica,sans-Serif" font-size="10.00">+ ReceiveTick()</text>
<text text-anchor="start" x="135.417" y="-156.5" font-family="Helvetica,sans-Serif" font-size="10.00">+ ReceiveEndPlay()</text>
<text text-anchor="start" x="135.417" y="-145.5" font-family="Helvetica,sans-Serif" font-size="10.00">and 12 more...</text>
<text text-anchor="start" x="135.417" y="-134.5" font-family="Helvetica,sans-Serif" font-size="10.00">+ StaticClass()</text>
</a>
</g>
</g>
<!-- Node2&#45;&gt;Node1 -->
<g id="edge1" class="edge"><title>Node2&#45;&gt;Node1</title>
<path fill="none" stroke="midnightblue" d="M319.319,-129.999C320.188,-128.995 321.054,-127.995 321.917,-127 338.83,-107.503 358.074,-85.995 373.667,-68.7331"/>
<polygon fill="none" stroke="midnightblue" points="316.486,-127.926 312.606,-137.784 321.787,-132.497 316.486,-127.926"/>
</g>
<!-- Node12 -->
<g id="node3" class="node"><title>Node12</title>
<g id="a_node3"><a xlink:title=" ">
<polygon fill="none" stroke="#bfbfbf" points="147.417,-568 147.417,-625 182.417,-625 182.417,-568 147.417,-568"/>
<text text-anchor="middle" x="164.917" y="-613" font-family="Helvetica,sans-Serif" font-size="10.00">char</text>
<polyline fill="none" stroke="#bfbfbf" points="147.417,-606 182.417,-606 "/>
<text text-anchor="middle" x="164.917" y="-594" font-family="Helvetica,sans-Serif" font-size="10.00"> </text>
<polyline fill="none" stroke="#bfbfbf" points="147.417,-587 182.417,-587 "/>
<text text-anchor="middle" x="164.917" y="-575" font-family="Helvetica,sans-Serif" font-size="10.00"> </text>
</a>
</g>
</g>
<!-- Node12&#45;&gt;Node1 -->
<g id="edge3" class="edge"><title>Node12&#45;&gt;Node1</title>
<path fill="none" stroke="#404040" d="M147.217,-573.789C91.0115,-502.11 -73.327,-269.479 37.9174,-127 71.3052,-84.2376 214.752,-58.5028 311.831,-45.6654"/>
<polygon fill="none" stroke="#404040" points="312.12,-45.6281 317.557,-40.8915 324.021,-44.0887 318.583,-48.8254 312.12,-45.6281"/>
<text text-anchor="middle" x="77.9174" y="-258" font-family="Helvetica,sans-Serif" font-size="10.00"> +UnknownData01</text>
<text text-anchor="middle" x="77.9174" y="-247" font-family="Helvetica,sans-Serif" font-size="10.00">+UnknownData02</text>
<text text-anchor="middle" x="77.9174" y="-236" font-family="Helvetica,sans-Serif" font-size="10.00">+UnknownData00</text>
</g>
<!-- Node12&#45;&gt;Node2 -->
<g id="edge2" class="edge"><title>Node12&#45;&gt;Node2</title>
<path fill="none" stroke="#404040" d="M161.91,-567.94C158.282,-528.217 154.038,-452.748 165.917,-390 166.308,-387.939 166.727,-385.869 167.173,-383.792"/>
<polygon fill="none" stroke="#404040" points="167.236,-383.527 164.73,-376.765 170.008,-371.851 172.514,-378.613 167.236,-383.527"/>
<text text-anchor="middle" x="221.917" y="-514" font-family="Helvetica,sans-Serif" font-size="10.00"> +UnknownData01</text>
<text text-anchor="middle" x="221.917" y="-503" font-family="Helvetica,sans-Serif" font-size="10.00">+UnknownData02</text>
<text text-anchor="middle" x="221.917" y="-492" font-family="Helvetica,sans-Serif" font-size="10.00">+UnknownData03</text>
<text text-anchor="middle" x="221.917" y="-481" font-family="Helvetica,sans-Serif" font-size="10.00">+UnknownData04</text>
<text text-anchor="middle" x="221.917" y="-470" font-family="Helvetica,sans-Serif" font-size="10.00">+UnknownData05</text>
<text text-anchor="start" x="165.917" y="-459" font-family="Helvetica,sans-Serif" font-size="10.00">+bCreatedByConstruction</text>
<text text-anchor="middle" x="221.917" y="-448" font-family="Helvetica,sans-Serif" font-size="10.00">Script</text>
<text text-anchor="middle" x="221.917" y="-437" font-family="Helvetica,sans-Serif" font-size="10.00">+UnknownData06</text>
<text text-anchor="middle" x="221.917" y="-426" font-family="Helvetica,sans-Serif" font-size="10.00">+UnknownData07</text>
<text text-anchor="middle" x="221.917" y="-415" font-family="Helvetica,sans-Serif" font-size="10.00">+bEditableWhenInherited</text>
<text text-anchor="middle" x="221.917" y="-404" font-family="Helvetica,sans-Serif" font-size="10.00">+bNeedsLoadForClient</text>
<text text-anchor="middle" x="221.917" y="-393" font-family="Helvetica,sans-Serif" font-size="10.00">...</text>
</g>
<!-- Node22 -->
<g id="node4" class="node"><title>Node22</title>
<g id="a_node4"><a xlink:href="a04255.html" target="_top" xlink:title=" ">
<polygon fill="none" stroke="red" points="330.917,-215.5 330.917,-283.5 476.917,-283.5 476.917,-215.5 330.917,-215.5"/>
<text text-anchor="start" x="338.917" y="-271.5" font-family="Helvetica,sans-Serif" font-size="10.00">SDK::UContestShipCatalogue</text>
<text text-anchor="middle" x="403.917" y="-260.5" font-family="Helvetica,sans-Serif" font-size="10.00">DataAsset</text>
<polyline fill="none" stroke="red" points="330.917,-253.5 476.917,-253.5 "/>
<text text-anchor="middle" x="403.917" y="-241.5" font-family="Helvetica,sans-Serif" font-size="10.00"> </text>
<polyline fill="none" stroke="red" points="330.917,-234.5 476.917,-234.5 "/>
<text text-anchor="start" x="338.917" y="-222.5" font-family="Helvetica,sans-Serif" font-size="10.00">+ StaticClass()</text>
</a>
</g>
</g>
<!-- Node12&#45;&gt;Node22 -->
<g id="edge5" class="edge"><title>Node12&#45;&gt;Node22</title>
<path fill="none" stroke="#404040" d="M182.679,-589.164C208.123,-579.112 254.458,-556.988 277.917,-522 311.169,-472.406 275.012,-442.788 302.917,-390 308.205,-379.998 313.695,-380.709 320.917,-372 341.373,-347.334 361.71,-317.67 377.133,-293.827"/>
<polygon fill="none" stroke="#404040" points="377.172,-293.766 377.038,-286.556 383.642,-283.659 383.776,-290.869 377.172,-293.766"/>
<text text-anchor="middle" x="342.917" y="-453.5" font-family="Helvetica,sans-Serif" font-size="10.00"> +UnknownData00</text>
</g>
<!-- Node22&#45;&gt;Node1 -->
<g id="edge4" class="edge"><title>Node22&#45;&gt;Node1</title>
<path fill="none" stroke="#404040" d="M403.917,-215.219C403.917,-179.033 403.917,-120.989 403.917,-80.6968"/>
<polygon fill="none" stroke="#404040" points="403.917,-80.5475 399.917,-74.5476 403.917,-68.5475 407.917,-74.5475 403.917,-80.5475"/>
<text text-anchor="middle" x="452.917" y="-95.5" font-family="Helvetica,sans-Serif" font-size="10.00"> +ArenaShipCatalogue</text>
</g>
<!-- Node24 -->
<g id="node5" class="node"><title>Node24</title>
<g id="a_node5"><a xlink:href="a25611.html" target="_top" xlink:title=" ">
<polygon fill="none" stroke="black" points="387.917,-540.5 387.917,-652.5 531.917,-652.5 531.917,-540.5 387.917,-540.5"/>
<text text-anchor="start" x="395.917" y="-640.5" font-family="Helvetica,sans-Serif" font-size="10.00">SDK::TArray&lt; struct</text>
<text text-anchor="middle" x="459.917" y="-629.5" font-family="Helvetica,sans-Serif" font-size="10.00"> SDK::FShipLiveryTeamSet &gt;</text>
<polyline fill="none" stroke="black" points="387.917,-622.5 531.917,-622.5 "/>
<text text-anchor="middle" x="459.917" y="-610.5" font-family="Helvetica,sans-Serif" font-size="10.00"> </text>
<polyline fill="none" stroke="black" points="387.917,-603.5 531.917,-603.5 "/>
<text text-anchor="start" x="395.917" y="-591.5" font-family="Helvetica,sans-Serif" font-size="10.00">+ TArray()</text>
<text text-anchor="start" x="395.917" y="-580.5" font-family="Helvetica,sans-Serif" font-size="10.00">+ Num()</text>
<text text-anchor="start" x="395.917" y="-569.5" font-family="Helvetica,sans-Serif" font-size="10.00">+ operator[]()</text>
<text text-anchor="start" x="395.917" y="-558.5" font-family="Helvetica,sans-Serif" font-size="10.00">+ operator[]()</text>
<text text-anchor="start" x="395.917" y="-547.5" font-family="Helvetica,sans-Serif" font-size="10.00">+ IsValidIndex()</text>
</a>
</g>
</g>
<!-- Node24&#45;&gt;Node1 -->
<g id="edge7" class="edge"><title>Node24&#45;&gt;Node1</title>
<path fill="none" stroke="#404040" d="M496.232,-540.267C498.937,-534.284 501.254,-528.136 502.917,-522 515.561,-475.35 527.997,-128.317 502.917,-87 500.07,-82.3084 496.64,-78.0245 492.792,-74.1155"/>
<polygon fill="none" stroke="#404040" points="492.758,-74.0863 485.613,-73.1139 483.763,-66.1443 490.908,-67.1167 492.758,-74.0863"/>
<text text-anchor="middle" x="576.417" y="-252.5" font-family="Helvetica,sans-Serif" font-size="10.00"> +CachedUniqueTeamSets</text>
<text text-anchor="middle" x="576.417" y="-241.5" font-family="Helvetica,sans-Serif" font-size="10.00">+CachedTeamSets</text>
</g>
<!-- Node24&#45;&gt;Node22 -->
<g id="edge6" class="edge"><title>Node24&#45;&gt;Node22</title>
<path fill="none" stroke="#404040" d="M412.218,-540.239C408.887,-534.353 406.021,-528.232 403.917,-522 378.254,-445.971 386.723,-350.997 395.277,-295.897"/>
<polygon fill="none" stroke="#404040" points="395.323,-295.616 392.345,-289.049 397.261,-283.774 400.24,-290.342 395.323,-295.616"/>
<text text-anchor="middle" x="453.417" y="-459" font-family="Helvetica,sans-Serif" font-size="10.00"> +ArenaShipTeamSets</text>
<text text-anchor="middle" x="453.417" y="-448" font-family="Helvetica,sans-Serif" font-size="10.00">+UniqueLiverySets</text>
</g>
<!-- Node25 -->
<g id="node6" class="node"><title>Node25</title>
<g id="a_node6"><a xlink:href="a25611.html" target="_top" xlink:title=" ">
<polygon fill="none" stroke="black" points="651.917,-193.5 651.917,-305.5 805.917,-305.5 805.917,-193.5 651.917,-193.5"/>
<text text-anchor="start" x="659.917" y="-293.5" font-family="Helvetica,sans-Serif" font-size="10.00">SDK::TArray&lt; struct</text>
<text text-anchor="middle" x="728.917" y="-282.5" font-family="Helvetica,sans-Serif" font-size="10.00"> SDK::FContestShipLiverySet &gt;</text>
<polyline fill="none" stroke="black" points="651.917,-275.5 805.917,-275.5 "/>
<text text-anchor="middle" x="728.917" y="-263.5" font-family="Helvetica,sans-Serif" font-size="10.00"> </text>
<polyline fill="none" stroke="black" points="651.917,-256.5 805.917,-256.5 "/>
<text text-anchor="start" x="659.917" y="-244.5" font-family="Helvetica,sans-Serif" font-size="10.00">+ TArray()</text>
<text text-anchor="start" x="659.917" y="-233.5" font-family="Helvetica,sans-Serif" font-size="10.00">+ Num()</text>
<text text-anchor="start" x="659.917" y="-222.5" font-family="Helvetica,sans-Serif" font-size="10.00">+ operator[]()</text>
<text text-anchor="start" x="659.917" y="-211.5" font-family="Helvetica,sans-Serif" font-size="10.00">+ operator[]()</text>
<text text-anchor="start" x="659.917" y="-200.5" font-family="Helvetica,sans-Serif" font-size="10.00">+ IsValidIndex()</text>
</a>
</g>
</g>
<!-- Node25&#45;&gt;Node1 -->
<g id="edge8" class="edge"><title>Node25&#45;&gt;Node1</title>
<path fill="none" stroke="#404040" d="M697.229,-193.382C681.763,-170.361 661.409,-144.871 637.917,-127 595.752,-94.9225 540.925,-72.6866 494.941,-58.1743"/>
<polygon fill="none" stroke="#404040" points="494.926,-58.1698 488.017,-60.2338 483.454,-54.6498 490.363,-52.5857 494.926,-58.1698"/>
<text text-anchor="middle" x="674.417" y="-101" font-family="Helvetica,sans-Serif" font-size="10.00"> +LiverySets</text>
<text text-anchor="middle" x="674.417" y="-90" font-family="Helvetica,sans-Serif" font-size="10.00">+CurrentlyAvaliableLiverySets</text>
</g>
</g>
</svg>
        <g id="navigator" transform="translate(0 0)" fill="#404254">
                <rect fill="#f2f5e9" fill-opacity="0.5" stroke="#606060" stroke-width=".5" x="0" y="0" width="60" height="60"/>
                <use id="zoomplus" xlink:href="#zoomPlus" x="17" y="9" onmousedown="handleZoom(evt,'in')"/>
                <use id="zoomminus" xlink:href="#zoomMin" x="42" y="9" onmousedown="handleZoom(evt,'out')"/>
                <use id="reset" xlink:href="#resetDef" x="30" y="36" onmousedown="handleReset()"/>
                <g id="arrowUp" xlink:href="#dirArrow" transform="translate(30 24)" onmousedown="handlePan(0,-1)">
                  <use xlink:href="#rim" fill="#404040">
                        <set attributeName="fill" to="#808080" begin="arrowUp.mouseover" end="arrowUp.mouseout"/>
                  </use>
                  <path fill="none" stroke="white" stroke-width="1.5" d="M0,-3.0v7 M-2.5,-0.5L0,-3.0L2.5,-0.5"/>
                </g>
                <g id="arrowRight" xlink:href="#dirArrow" transform="rotate(90) translate(36 -43)" onmousedown="handlePan(1,0)">
                  <use xlink:href="#rim" fill="#404040">
                        <set attributeName="fill" to="#808080" begin="arrowRight.mouseover" end="arrowRight.mouseout"/>
                  </use>
                  <path fill="none" stroke="white" stroke-width="1.5" d="M0,-3.0v7 M-2.5,-0.5L0,-3.0L2.5,-0.5"/>
                </g>
                <g id="arrowDown" xlink:href="#dirArrow" transform="rotate(180) translate(-30 -48)" onmousedown="handlePan(0,1)">
                  <use xlink:href="#rim" fill="#404040">
                        <set attributeName="fill" to="#808080" begin="arrowDown.mouseover" end="arrowDown.mouseout"/>
                  </use>
                  <path fill="none" stroke="white" stroke-width="1.5" d="M0,-3.0v7 M-2.5,-0.5L0,-3.0L2.5,-0.5"/>
                </g>
                <g id="arrowLeft" xlink:href="#dirArrow" transform="rotate(270) translate(-36 17)" onmousedown="handlePan(-1,0)">
                  <use xlink:href="#rim" fill="#404040">
                        <set attributeName="fill" to="#808080" begin="arrowLeft.mouseover" end="arrowLeft.mouseout"/>
                  </use>
                  <path fill="none" stroke="white" stroke-width="1.5" d="M0,-3.0v7 M-2.5,-0.5L0,-3.0L2.5,-0.5"/>
                </g>
        </g>
        <svg viewBox="0 0 15 15" width="100%" height="30px" preserveAspectRatio="xMaxYMin meet">
         <g id="arrow_out" transform="scale(0.3 0.3)">
          <a xlink:href="a04325_org.svg" target="_base">
           <rect id="button" ry="5" rx="5" y="6" x="6" height="38" width="38"
                fill="#f2f5e9" fill-opacity="0.5" stroke="#606060" stroke-width="1.0"/>
           <path id="arrow"
             d="M 11.500037,31.436501 C 11.940474,20.09759 22.043105,11.32322 32.158766,21.979434 L 37.068811,17.246167 C 37.068811,17.246167 37.088388,32 37.088388,32 L 22.160133,31.978069 C 22.160133,31.978069 26.997745,27.140456 26.997745,27.140456 C 18.528582,18.264221 13.291696,25.230495 11.500037,31.436501 z"
             style="fill:#404040;"/>
          </a>
         </g>
        </svg>
</svg>
