<?xml version="1.0" encoding="UTF-8" standalone="no"?>
<!DOCTYPE svg PUBLIC "-//W3C//DTD SVG 1.1//EN"
 "http://www.w3.org/Graphics/SVG/1.1/DTD/svg11.dtd">
<!-- Generated by graphviz version 2.38.0 (20140413.2041)
 -->
<!-- Title: SDK::ACustomisationPreviewShip Pages: 1 -->
<!--zoomable 1157 -->
<svg id="main" version="1.1" xmlns="http://www.w3.org/2000/svg" xmlns:xlink="http://www.w3.org/1999/xlink" xml:space="preserve" onload="init(evt)">
<style type="text/css"><![CDATA[
.edge:hover path { stroke: red; }
.edge:hover polygon { stroke: red; fill: red; }
]]></style>
<script type="text/javascript"><![CDATA[
var edges = document.getElementsByTagName('g');
if (edges && edges.length) {
  for (var i=0;i<edges.length;i++) {
    if (edges[i].id.substr(0,4)=='edge') {
      edges[i].setAttribute('class','edge');
    }
  }
}
]]></script>
        <defs>
                <circle id="rim" cx="0" cy="0" r="7"/>
                <circle id="rim2" cx="0" cy="0" r="3.5"/>
                <g id="zoomPlus">
                        <use xlink:href="#rim" fill="#404040">
                                <set attributeName="fill" to="#808080" begin="zoomplus.mouseover" end="zoomplus.mouseout"/>
                        </use>
                        <path d="M-4,0h8M0,-4v8" fill="none" stroke="white" stroke-width="1.5" pointer-events="none"/>
                </g>
                <g id="zoomMin">
                        <use xlink:href="#rim" fill="#404040">
                                <set attributeName="fill" to="#808080" begin="zoomminus.mouseover" end="zoomminus.mouseout"/>
                        </use>
                        <path d="M-4,0h8" fill="none" stroke="white" stroke-width="1.5" pointer-events="none"/>
                </g>
                <g id="dirArrow">
                        <path fill="none" stroke="white" stroke-width="1.5" d="M0,-3.0v7 M-2.5,-0.5L0,-3.0L2.5,-0.5"/>
                </g>
               <g id="resetDef">
                       <use xlink:href="#rim2" fill="#404040">
                               <set attributeName="fill" to="#808080" begin="reset.mouseover" end="reset.mouseout"/>
                       </use>
               </g>
        </defs>

<script type="text/javascript">
var viewWidth = 781;
var viewHeight = 1157;
var sectionId = 'dynsection-1';
</script>
<script xlink:href="svgpan.js"/>
<svg id="graph" class="graph">
<g id="viewport">
<title>SDK::ACustomisationPreviewShip</title>
<!-- Node1 -->
<g id="node1" class="node"><title>Node1</title>
<g id="a_node1"><a xlink:title=" ">
<polygon fill="#bfbfbf" stroke="black" points="261.138,-0.5 261.138,-123.5 425.138,-123.5 425.138,-0.5 261.138,-0.5"/>
<text text-anchor="middle" x="343.138" y="-111.5" font-family="Helvetica,sans-Serif" font-size="10.00">SDK::ACustomisationPreviewShip</text>
<polyline fill="none" stroke="black" points="261.138,-104.5 425.138,-104.5 "/>
<text text-anchor="middle" x="343.138" y="-92.5" font-family="Helvetica,sans-Serif" font-size="10.00"> </text>
<polyline fill="none" stroke="black" points="261.138,-85.5 425.138,-85.5 "/>
<text text-anchor="start" x="269.138" y="-73.5" font-family="Helvetica,sans-Serif" font-size="10.00">+ UpdateVisuals()</text>
<text text-anchor="start" x="269.138" y="-62.5" font-family="Helvetica,sans-Serif" font-size="10.00">+ SetShipCustomizationInfo()</text>
<text text-anchor="start" x="269.138" y="-51.5" font-family="Helvetica,sans-Serif" font-size="10.00">+ SetLiveryCustomiser()</text>
<text text-anchor="start" x="269.138" y="-40.5" font-family="Helvetica,sans-Serif" font-size="10.00">+ SetCategory()</text>
<text text-anchor="start" x="269.138" y="-29.5" font-family="Helvetica,sans-Serif" font-size="10.00">+ GetShipCustomizationInfo()</text>
<text text-anchor="start" x="269.138" y="-18.5" font-family="Helvetica,sans-Serif" font-size="10.00">+ GetCategory()</text>
<text text-anchor="start" x="269.138" y="-7.5" font-family="Helvetica,sans-Serif" font-size="10.00">+ StaticClass()</text>
</a>
</g>
</g>
<!-- Node2 -->
<g id="node2" class="node"><title>Node2</title>
<g id="a_node2"><a xlink:href="a26343.html" target="_top" xlink:title=" ">
<polygon fill="none" stroke="red" points="164.638,-331.5 164.638,-630.5 331.638,-630.5 331.638,-331.5 164.638,-331.5"/>
<text text-anchor="middle" x="248.138" y="-618.5" font-family="Helvetica,sans-Serif" font-size="10.00">SDK::AActor</text>
<polyline fill="none" stroke="red" points="164.638,-611.5 331.638,-611.5 "/>
<text text-anchor="start" x="172.638" y="-599.5" font-family="Helvetica,sans-Serif" font-size="10.00">+ bAllowRemovalFromServerWhen</text>
<text text-anchor="start" x="172.638" y="-588.5" font-family="Helvetica,sans-Serif" font-size="10.00">CollisionMerged</text>
<text text-anchor="start" x="172.638" y="-577.5" font-family="Helvetica,sans-Serif" font-size="10.00">+ bHidden</text>
<text text-anchor="start" x="172.638" y="-566.5" font-family="Helvetica,sans-Serif" font-size="10.00">+ bNetStartup</text>
<text text-anchor="start" x="172.638" y="-555.5" font-family="Helvetica,sans-Serif" font-size="10.00">+ bOnlyRelevantToOwner</text>
<text text-anchor="start" x="172.638" y="-544.5" font-family="Helvetica,sans-Serif" font-size="10.00">+ bAlwaysRelevant</text>
<text text-anchor="start" x="172.638" y="-533.5" font-family="Helvetica,sans-Serif" font-size="10.00">+ bReplicateMovement</text>
<text text-anchor="start" x="172.638" y="-522.5" font-family="Helvetica,sans-Serif" font-size="10.00">+ bExchangedRoles</text>
<text text-anchor="start" x="172.638" y="-511.5" font-family="Helvetica,sans-Serif" font-size="10.00">+ bNetLoadOnClient</text>
<text text-anchor="start" x="172.638" y="-500.5" font-family="Helvetica,sans-Serif" font-size="10.00">+ bBlockInput</text>
<text text-anchor="start" x="172.638" y="-489.5" font-family="Helvetica,sans-Serif" font-size="10.00">+ UnknownData00</text>
<text text-anchor="start" x="172.638" y="-478.5" font-family="Helvetica,sans-Serif" font-size="10.00">and 26 more...</text>
<polyline fill="none" stroke="red" points="164.638,-471.5 331.638,-471.5 "/>
<text text-anchor="start" x="172.638" y="-459.5" font-family="Helvetica,sans-Serif" font-size="10.00">+ UserConstructionScript()</text>
<text text-anchor="start" x="172.638" y="-448.5" font-family="Helvetica,sans-Serif" font-size="10.00">+ TearOff()</text>
<text text-anchor="start" x="172.638" y="-437.5" font-family="Helvetica,sans-Serif" font-size="10.00">+ SnapRootComponentTo()</text>
<text text-anchor="start" x="172.638" y="-426.5" font-family="Helvetica,sans-Serif" font-size="10.00">+ SetTickGroup()</text>
<text text-anchor="start" x="172.638" y="-415.5" font-family="Helvetica,sans-Serif" font-size="10.00">+ SetTickableWhenPaused()</text>
<text text-anchor="start" x="172.638" y="-404.5" font-family="Helvetica,sans-Serif" font-size="10.00">+ SetReplicates()</text>
<text text-anchor="start" x="172.638" y="-393.5" font-family="Helvetica,sans-Serif" font-size="10.00">+ SetReplicateMovement()</text>
<text text-anchor="start" x="172.638" y="-382.5" font-family="Helvetica,sans-Serif" font-size="10.00">+ SetOwner()</text>
<text text-anchor="start" x="172.638" y="-371.5" font-family="Helvetica,sans-Serif" font-size="10.00">+ SetLifeSpan()</text>
<text text-anchor="start" x="172.638" y="-360.5" font-family="Helvetica,sans-Serif" font-size="10.00">+ SetIgnoreNetTransformUpdates()</text>
<text text-anchor="start" x="172.638" y="-349.5" font-family="Helvetica,sans-Serif" font-size="10.00">and 109 more...</text>
<text text-anchor="start" x="172.638" y="-338.5" font-family="Helvetica,sans-Serif" font-size="10.00">+ StaticClass()</text>
</a>
</g>
</g>
<!-- Node2&#45;&gt;Node1 -->
<g id="edge1" class="edge"><title>Node2&#45;&gt;Node1</title>
<path fill="none" stroke="midnightblue" d="M247.557,-320.819C250.556,-282.035 256.419,-241.06 267.138,-204 275.174,-176.218 289.223,-147.738 303.075,-123.713"/>
<polygon fill="none" stroke="midnightblue" points="244.04,-320.937 246.82,-331.16 251.022,-321.434 244.04,-320.937"/>
</g>
<!-- Node2&#45;&gt;Node2 -->
<g id="edge6" class="edge"><title>Node2&#45;&gt;Node2</title>
<path fill="none" stroke="#404040" d="M331.759,-509.264C342.525,-504.363 349.638,-494.941 349.638,-481 349.638,-472.069 346.719,-464.993 341.79,-459.771"/>
<polygon fill="none" stroke="#404040" points="341.583,-459.626 334.374,-459.456 331.759,-452.736 338.968,-452.906 341.583,-459.626"/>
<text text-anchor="middle" x="368.138" y="-478.5" font-family="Helvetica,sans-Serif" font-size="10.00"> +Owner</text>
</g>
<!-- Node189 -->
<g id="node7" class="node"><title>Node189</title>
<g id="a_node7"><a xlink:href="a27279.html" target="_top" xlink:title=" ">
<polygon fill="none" stroke="red" points="76.1383,-210 76.1383,-278 220.138,-278 220.138,-210 76.1383,-210"/>
<text text-anchor="middle" x="148.138" y="-266" font-family="Helvetica,sans-Serif" font-size="10.00">SDK::UChildActorComponent</text>
<polyline fill="none" stroke="red" points="76.1383,-259 220.138,-259 "/>
<text text-anchor="middle" x="148.138" y="-247" font-family="Helvetica,sans-Serif" font-size="10.00"> </text>
<polyline fill="none" stroke="red" points="76.1383,-240 220.138,-240 "/>
<text text-anchor="start" x="84.1383" y="-228" font-family="Helvetica,sans-Serif" font-size="10.00">+ SetChildActorClass()</text>
<text text-anchor="start" x="84.1383" y="-217" font-family="Helvetica,sans-Serif" font-size="10.00">+ StaticClass()</text>
</a>
</g>
</g>
<!-- Node2&#45;&gt;Node189 -->
<g id="edge13" class="edge"><title>Node2&#45;&gt;Node189</title>
<path fill="none" stroke="#404040" d="M184.807,-331.171C178.462,-316.261 172.426,-302.077 167.15,-289.679"/>
<polygon fill="none" stroke="#404040" points="167.038,-289.415 161.009,-285.461 162.34,-278.373 168.37,-282.328 167.038,-289.415"/>
<text text-anchor="middle" x="202.638" y="-305" font-family="Helvetica,sans-Serif" font-size="10.00"> +ChildActor</text>
</g>
<!-- Node4 -->
<g id="node3" class="node"><title>Node4</title>
<g id="a_node3"><a xlink:href="a25627.html" target="_top" xlink:title=" ">
<polygon fill="none" stroke="red" points="292.138,-1036.5 292.138,-1148.5 398.138,-1148.5 398.138,-1036.5 292.138,-1036.5"/>
<text text-anchor="middle" x="345.138" y="-1136.5" font-family="Helvetica,sans-Serif" font-size="10.00">SDK::FName</text>
<polyline fill="none" stroke="red" points="292.138,-1129.5 398.138,-1129.5 "/>
<text text-anchor="middle" x="345.138" y="-1117.5" font-family="Helvetica,sans-Serif" font-size="10.00"> </text>
<polyline fill="none" stroke="red" points="292.138,-1110.5 398.138,-1110.5 "/>
<text text-anchor="start" x="300.138" y="-1098.5" font-family="Helvetica,sans-Serif" font-size="10.00">+ FName()</text>
<text text-anchor="start" x="300.138" y="-1087.5" font-family="Helvetica,sans-Serif" font-size="10.00">+ FName()</text>
<text text-anchor="start" x="300.138" y="-1076.5" font-family="Helvetica,sans-Serif" font-size="10.00">+ FName()</text>
<text text-anchor="start" x="300.138" y="-1065.5" font-family="Helvetica,sans-Serif" font-size="10.00">+ GetName()</text>
<text text-anchor="start" x="300.138" y="-1054.5" font-family="Helvetica,sans-Serif" font-size="10.00">+ operator==()</text>
<text text-anchor="start" x="300.138" y="-1043.5" font-family="Helvetica,sans-Serif" font-size="10.00">+ GetGlobalNames()</text>
</a>
</g>
</g>
<!-- Node4&#45;&gt;Node1 -->
<g id="edge9" class="edge"><title>Node4&#45;&gt;Node1</title>
<path fill="none" stroke="#404040" d="M398.385,-1067.17C472.866,-1029.05 599.138,-947.732 599.138,-834.5 599.138,-834.5 599.138,-834.5 599.138,-243 599.138,-196.756 605.387,-176.088 574.138,-142 538.956,-103.62 484.35,-83.8835 437.062,-73.735"/>
<polygon fill="none" stroke="#404040" points="436.978,-73.7183 430.308,-76.4589 425.213,-71.356 431.883,-68.6154 436.978,-73.7183"/>
<text text-anchor="middle" x="623.638" y="-478.5" font-family="Helvetica,sans-Serif" font-size="10.00"> +Category</text>
</g>
<!-- Node4&#45;&gt;Node2 -->
<g id="edge2" class="edge"><title>Node4&#45;&gt;Node2</title>
<path fill="none" stroke="#404040" d="M346.361,-1036.34C347.049,-956.445 344.277,-804.277 318.138,-678 315.721,-666.324 312.764,-654.401 309.447,-642.489"/>
<polygon fill="none" stroke="#404040" points="309.34,-642.12 303.835,-637.464 306.015,-630.59 311.521,-635.247 309.34,-642.12"/>
<text text-anchor="middle" x="384.138" y="-836.5" font-family="Helvetica,sans-Serif" font-size="10.00"> +NetDriverName</text>
<text text-anchor="middle" x="384.138" y="-825.5" font-family="Helvetica,sans-Serif" font-size="10.00">+Feature</text>
</g>
<!-- Node29 -->
<g id="node4" class="node"><title>Node29</title>
<g id="a_node4"><a xlink:href="a26363.html" target="_top" xlink:title=" ">
<polygon fill="none" stroke="red" points="48.1383,-678.5 48.1383,-988.5 224.138,-988.5 224.138,-678.5 48.1383,-678.5"/>
<text text-anchor="middle" x="136.138" y="-976.5" font-family="Helvetica,sans-Serif" font-size="10.00">SDK::USceneComponent</text>
<polyline fill="none" stroke="red" points="48.1383,-969.5 224.138,-969.5 "/>
<text text-anchor="start" x="56.1383" y="-957.5" font-family="Helvetica,sans-Serif" font-size="10.00">+ bAbsoluteLocation</text>
<text text-anchor="start" x="56.1383" y="-946.5" font-family="Helvetica,sans-Serif" font-size="10.00">+ bAbsoluteTranslation</text>
<text text-anchor="start" x="56.1383" y="-935.5" font-family="Helvetica,sans-Serif" font-size="10.00">+ bAbsoluteRotation</text>
<text text-anchor="start" x="56.1383" y="-924.5" font-family="Helvetica,sans-Serif" font-size="10.00">+ bShouldUpdatePhysicsVolume</text>
<text text-anchor="start" x="56.1383" y="-913.5" font-family="Helvetica,sans-Serif" font-size="10.00">+ bBoundsChangeTriggersStreaming</text>
<text text-anchor="start" x="56.1383" y="-902.5" font-family="Helvetica,sans-Serif" font-size="10.00">DataRebuild</text>
<text text-anchor="start" x="56.1383" y="-891.5" font-family="Helvetica,sans-Serif" font-size="10.00">+ bUseAttachParentBound</text>
<text text-anchor="start" x="56.1383" y="-880.5" font-family="Helvetica,sans-Serif" font-size="10.00">+ UnknownData00</text>
<text text-anchor="start" x="56.1383" y="-869.5" font-family="Helvetica,sans-Serif" font-size="10.00">+ CacheRootVelocity</text>
<text text-anchor="start" x="56.1383" y="-858.5" font-family="Helvetica,sans-Serif" font-size="10.00">+ bWorldToComponentUpdated</text>
<text text-anchor="start" x="56.1383" y="-847.5" font-family="Helvetica,sans-Serif" font-size="10.00">+ UnknownData05</text>
<text text-anchor="start" x="56.1383" y="-836.5" font-family="Helvetica,sans-Serif" font-size="10.00">+ UnknownData06</text>
<text text-anchor="start" x="56.1383" y="-825.5" font-family="Helvetica,sans-Serif" font-size="10.00">+ UnknownData07</text>
<polyline fill="none" stroke="red" points="48.1383,-818.5 224.138,-818.5 "/>
<text text-anchor="start" x="56.1383" y="-806.5" font-family="Helvetica,sans-Serif" font-size="10.00">+ ToggleVisibility()</text>
<text text-anchor="start" x="56.1383" y="-795.5" font-family="Helvetica,sans-Serif" font-size="10.00">+ SnapTo()</text>
<text text-anchor="start" x="56.1383" y="-784.5" font-family="Helvetica,sans-Serif" font-size="10.00">+ SharesBasis()</text>
<text text-anchor="start" x="56.1383" y="-773.5" font-family="Helvetica,sans-Serif" font-size="10.00">+ SetWorldScale3D()</text>
<text text-anchor="start" x="56.1383" y="-762.5" font-family="Helvetica,sans-Serif" font-size="10.00">+ SetVisibility()</text>
<text text-anchor="start" x="56.1383" y="-751.5" font-family="Helvetica,sans-Serif" font-size="10.00">+ SetRelativeScale3D()</text>
<text text-anchor="start" x="56.1383" y="-740.5" font-family="Helvetica,sans-Serif" font-size="10.00">+ SetHiddenInGame()</text>
<text text-anchor="start" x="56.1383" y="-729.5" font-family="Helvetica,sans-Serif" font-size="10.00">+ SetAbsolute()</text>
<text text-anchor="start" x="56.1383" y="-718.5" font-family="Helvetica,sans-Serif" font-size="10.00">+ ResetRelativeTransform()</text>
<text text-anchor="start" x="56.1383" y="-707.5" font-family="Helvetica,sans-Serif" font-size="10.00">+ OnRep_Visibility()</text>
<text text-anchor="start" x="56.1383" y="-696.5" font-family="Helvetica,sans-Serif" font-size="10.00">and 45 more...</text>
<text text-anchor="start" x="56.1383" y="-685.5" font-family="Helvetica,sans-Serif" font-size="10.00">+ StaticClass()</text>
</a>
</g>
</g>
<!-- Node4&#45;&gt;Node29 -->
<g id="edge4" class="edge"><title>Node4&#45;&gt;Node29</title>
<path fill="none" stroke="#404040" d="M292.089,-1062.46C273.213,-1050.4 252.783,-1035.2 237.138,-1018 231.548,-1011.86 226.151,-1005.35 220.958,-998.587"/>
<polygon fill="none" stroke="#404040" points="220.64,-998.158 213.854,-995.719 213.496,-988.517 220.282,-990.956 220.64,-998.158"/>
<text text-anchor="middle" x="284.138" y="-1010" font-family="Helvetica,sans-Serif" font-size="10.00"> +AttachSocketName</text>
</g>
<!-- Node29&#45;&gt;Node1 -->
<g id="edge10" class="edge"><title>Node29&#45;&gt;Node1</title>
<path fill="none" stroke="#404040" d="M65.4352,-678.452C5.3877,-521.777 -51.6355,-282.617 83.1383,-142 126.096,-97.1804 193.591,-77.5642 249.046,-69.0833"/>
<polygon fill="none" stroke="#404040" points="249.162,-69.067 254.545,-64.2681 261.045,-67.3907 255.662,-72.1896 249.162,-69.067"/>
<text text-anchor="middle" x="21.1383" y="-305" font-family="Helvetica,sans-Serif" font-size="10.00"> +Root</text>
</g>
<!-- Node29&#45;&gt;Node2 -->
<g id="edge3" class="edge"><title>Node29&#45;&gt;Node2</title>
<path fill="none" stroke="#404040" d="M185.426,-678.256C189.251,-666.286 193.118,-654.184 196.955,-642.177"/>
<polygon fill="none" stroke="#404040" points="196.969,-642.132 194.985,-635.199 200.622,-630.701 202.606,-637.634 196.969,-642.132"/>
<text text-anchor="middle" x="231.638" y="-652" font-family="Helvetica,sans-Serif" font-size="10.00"> +RootComponent</text>
</g>
<!-- Node29&#45;&gt;Node29 -->
<g id="edge5" class="edge"><title>Node29&#45;&gt;Node29</title>
<path fill="none" stroke="#404040" d="M224.272,-862.375C235.064,-857.205 242.138,-847.58 242.138,-833.5 242.138,-824.48 239.235,-817.288 234.311,-811.925"/>
<polygon fill="none" stroke="#404040" points="233.977,-811.682 226.772,-811.389 224.272,-804.625 231.477,-804.919 233.977,-811.682"/>
<text text-anchor="middle" x="275.638" y="-831" font-family="Helvetica,sans-Serif" font-size="10.00"> +AttachParent</text>
</g>
<!-- Node29&#45;&gt;Node189 -->
<g id="edge12" class="edge"><title>Node29&#45;&gt;Node189</title>
<path fill="none" stroke="midnightblue" d="M139.497,-668.065C142.262,-532.677 145.963,-351.499 147.464,-278.024"/>
<polygon fill="none" stroke="midnightblue" points="135.996,-668.072 139.291,-678.141 142.995,-668.215 135.996,-668.072"/>
</g>
<!-- Node177 -->
<g id="node5" class="node"><title>Node177</title>
<g id="a_node5"><a xlink:href="a02943.html" target="_top" xlink:title=" ">
<polygon fill="none" stroke="red" points="276.638,-204.5 276.638,-283.5 409.638,-283.5 409.638,-204.5 276.638,-204.5"/>
<text text-anchor="start" x="284.638" y="-271.5" font-family="Helvetica,sans-Serif" font-size="10.00">SDK::UReplicatedShipPart</text>
<text text-anchor="middle" x="343.138" y="-260.5" font-family="Helvetica,sans-Serif" font-size="10.00">CustomizationComponent</text>
<polyline fill="none" stroke="red" points="276.638,-253.5 409.638,-253.5 "/>
<text text-anchor="middle" x="343.138" y="-241.5" font-family="Helvetica,sans-Serif" font-size="10.00"> </text>
<polyline fill="none" stroke="red" points="276.638,-234.5 409.638,-234.5 "/>
<text text-anchor="start" x="284.638" y="-222.5" font-family="Helvetica,sans-Serif" font-size="10.00">+ OnReplicate_PartDesc()</text>
<text text-anchor="start" x="284.638" y="-211.5" font-family="Helvetica,sans-Serif" font-size="10.00">+ StaticClass()</text>
</a>
</g>
</g>
<!-- Node177&#45;&gt;Node1 -->
<g id="edge7" class="edge"><title>Node177&#45;&gt;Node1</title>
<path fill="none" stroke="#404040" d="M343.138,-204.385C343.138,-184.329 343.138,-159.152 343.138,-135.623"/>
<polygon fill="none" stroke="#404040" points="343.138,-135.505 339.138,-129.505 343.138,-123.505 347.138,-129.505 343.138,-135.505"/>
<text text-anchor="start" x="343.138" y="-178" font-family="Helvetica,sans-Serif" font-size="10.00"> +HullLiveryCustomization</text>
<text text-anchor="middle" x="400.638" y="-167" font-family="Helvetica,sans-Serif" font-size="10.00">Component</text>
<text text-anchor="start" x="343.138" y="-156" font-family="Helvetica,sans-Serif" font-size="10.00">+SailsLiveryCustomization</text>
<text text-anchor="middle" x="400.638" y="-145" font-family="Helvetica,sans-Serif" font-size="10.00">Component</text>
</g>
<!-- Node181 -->
<g id="node6" class="node"><title>Node181</title>
<g id="a_node6"><a xlink:href="a03427.html" target="_top" xlink:title=" ">
<polygon fill="none" stroke="red" points="427.638,-215.5 427.638,-272.5 570.638,-272.5 570.638,-215.5 427.638,-215.5"/>
<text text-anchor="middle" x="499.138" y="-260.5" font-family="Helvetica,sans-Serif" font-size="10.00">SDK::UShipLiveryComponent</text>
<polyline fill="none" stroke="red" points="427.638,-253.5 570.638,-253.5 "/>
<text text-anchor="middle" x="499.138" y="-241.5" font-family="Helvetica,sans-Serif" font-size="10.00"> </text>
<polyline fill="none" stroke="red" points="427.638,-234.5 570.638,-234.5 "/>
<text text-anchor="start" x="435.638" y="-222.5" font-family="Helvetica,sans-Serif" font-size="10.00">+ StaticClass()</text>
</a>
</g>
</g>
<!-- Node181&#45;&gt;Node1 -->
<g id="edge8" class="edge"><title>Node181&#45;&gt;Node1</title>
<path fill="none" stroke="#404040" d="M493.974,-215.383C488.817,-193.655 479.141,-163.552 462.138,-142 454.398,-132.189 445.094,-123.179 435.141,-115.035"/>
<polygon fill="none" stroke="#404040" points="434.909,-114.855 427.716,-114.334 425.43,-107.495 432.623,-108.015 434.909,-114.855"/>
<text text-anchor="middle" x="528.138" y="-161.5" font-family="Helvetica,sans-Serif" font-size="10.00"> +LiveryComponent</text>
</g>
<!-- Node189&#45;&gt;Node1 -->
<g id="edge11" class="edge"><title>Node189&#45;&gt;Node1</title>
<path fill="none" stroke="#404040" d="M109.096,-209.861C102.988,-202.669 97.5695,-194.611 94.1383,-186 86.8995,-167.834 82.589,-157.781 94.1383,-142 129.374,-93.8544 194.148,-74.3291 248.798,-66.7232"/>
<polygon fill="none" stroke="#404040" points="249.1,-66.6855 254.557,-61.9712 261.007,-65.1948 255.55,-69.9092 249.1,-66.6855"/>
<text text-anchor="middle" x="164.138" y="-178" font-family="Helvetica,sans-Serif" font-size="10.00"> +CapstanChildActorComponent</text>
<text text-anchor="middle" x="164.138" y="-167" font-family="Helvetica,sans-Serif" font-size="10.00">+WheelChildActorComponent</text>
<text text-anchor="middle" x="164.138" y="-156" font-family="Helvetica,sans-Serif" font-size="10.00">+MastChildActorComponent</text>
<text text-anchor="middle" x="164.138" y="-145" font-family="Helvetica,sans-Serif" font-size="10.00">+CannonChildActorComponent</text>
</g>
<!-- Node190 -->
<g id="node8" class="node"><title>Node190</title>
<g id="a_node8"><a xlink:href="a10039.html" target="_top" xlink:title=" ">
<polygon fill="none" stroke="red" points="627.138,-215.5 627.138,-272.5 773.138,-272.5 773.138,-215.5 627.138,-215.5"/>
<text text-anchor="middle" x="700.138" y="-260.5" font-family="Helvetica,sans-Serif" font-size="10.00">SDK::UShipCustomizationInfo</text>
<polyline fill="none" stroke="red" points="627.138,-253.5 773.138,-253.5 "/>
<text text-anchor="middle" x="700.138" y="-241.5" font-family="Helvetica,sans-Serif" font-size="10.00"> </text>
<polyline fill="none" stroke="red" points="627.138,-234.5 773.138,-234.5 "/>
<text text-anchor="start" x="635.138" y="-222.5" font-family="Helvetica,sans-Serif" font-size="10.00">+ StaticClass()</text>
</a>
</g>
</g>
<!-- Node190&#45;&gt;Node1 -->
<g id="edge14" class="edge"><title>Node190&#45;&gt;Node1</title>
<path fill="none" stroke="#404040" d="M682.754,-215.059C667.176,-192.242 642.324,-160.797 613.138,-142 560.061,-107.815 491.745,-88.0105 437.112,-76.7799"/>
<polygon fill="none" stroke="#404040" points="437.089,-76.7756 430.427,-79.5335 425.318,-74.444 431.981,-71.686 437.089,-76.7756"/>
<text text-anchor="middle" x="712.138" y="-161.5" font-family="Helvetica,sans-Serif" font-size="10.00"> +ShipCustomizationInfo</text>
</g>
</g>
</svg>
        <g id="navigator" transform="translate(0 0)" fill="#404254">
                <rect fill="#f2f5e9" fill-opacity="0.5" stroke="#606060" stroke-width=".5" x="0" y="0" width="60" height="60"/>
                <use id="zoomplus" xlink:href="#zoomPlus" x="17" y="9" onmousedown="handleZoom(evt,'in')"/>
                <use id="zoomminus" xlink:href="#zoomMin" x="42" y="9" onmousedown="handleZoom(evt,'out')"/>
                <use id="reset" xlink:href="#resetDef" x="30" y="36" onmousedown="handleReset()"/>
                <g id="arrowUp" xlink:href="#dirArrow" transform="translate(30 24)" onmousedown="handlePan(0,-1)">
                  <use xlink:href="#rim" fill="#404040">
                        <set attributeName="fill" to="#808080" begin="arrowUp.mouseover" end="arrowUp.mouseout"/>
                  </use>
                  <path fill="none" stroke="white" stroke-width="1.5" d="M0,-3.0v7 M-2.5,-0.5L0,-3.0L2.5,-0.5"/>
                </g>
                <g id="arrowRight" xlink:href="#dirArrow" transform="rotate(90) translate(36 -43)" onmousedown="handlePan(1,0)">
                  <use xlink:href="#rim" fill="#404040">
                        <set attributeName="fill" to="#808080" begin="arrowRight.mouseover" end="arrowRight.mouseout"/>
                  </use>
                  <path fill="none" stroke="white" stroke-width="1.5" d="M0,-3.0v7 M-2.5,-0.5L0,-3.0L2.5,-0.5"/>
                </g>
                <g id="arrowDown" xlink:href="#dirArrow" transform="rotate(180) translate(-30 -48)" onmousedown="handlePan(0,1)">
                  <use xlink:href="#rim" fill="#404040">
                        <set attributeName="fill" to="#808080" begin="arrowDown.mouseover" end="arrowDown.mouseout"/>
                  </use>
                  <path fill="none" stroke="white" stroke-width="1.5" d="M0,-3.0v7 M-2.5,-0.5L0,-3.0L2.5,-0.5"/>
                </g>
                <g id="arrowLeft" xlink:href="#dirArrow" transform="rotate(270) translate(-36 17)" onmousedown="handlePan(-1,0)">
                  <use xlink:href="#rim" fill="#404040">
                        <set attributeName="fill" to="#808080" begin="arrowLeft.mouseover" end="arrowLeft.mouseout"/>
                  </use>
                  <path fill="none" stroke="white" stroke-width="1.5" d="M0,-3.0v7 M-2.5,-0.5L0,-3.0L2.5,-0.5"/>
                </g>
        </g>
        <svg viewBox="0 0 15 15" width="100%" height="30px" preserveAspectRatio="xMaxYMin meet">
         <g id="arrow_out" transform="scale(0.3 0.3)">
          <a xlink:href="a04461_org.svg" target="_base">
           <rect id="button" ry="5" rx="5" y="6" x="6" height="38" width="38"
                fill="#f2f5e9" fill-opacity="0.5" stroke="#606060" stroke-width="1.0"/>
           <path id="arrow"
             d="M 11.500037,31.436501 C 11.940474,20.09759 22.043105,11.32322 32.158766,21.979434 L 37.068811,17.246167 C 37.068811,17.246167 37.088388,32 37.088388,32 L 22.160133,31.978069 C 22.160133,31.978069 26.997745,27.140456 26.997745,27.140456 C 18.528582,18.264221 13.291696,25.230495 11.500037,31.436501 z"
             style="fill:#404040;"/>
          </a>
         </g>
        </svg>
</svg>
