<?xml version="1.0" encoding="UTF-8" standalone="no"?>
<!DOCTYPE svg PUBLIC "-//W3C//DTD SVG 1.1//EN"
 "http://www.w3.org/Graphics/SVG/1.1/DTD/svg11.dtd">
<!-- Generated by graphviz version 2.38.0 (20140413.2041)
 -->
<!-- Title: SDK::UDebugTeleportCrewStepDesc Pages: 1 -->
<svg width="298pt" height="171pt"
 viewBox="0.00 0.00 297.50 171.00" xmlns="http://www.w3.org/2000/svg" xmlns:xlink="http://www.w3.org/1999/xlink">
<g id="graph0" class="graph" transform="scale(1 1) rotate(0) translate(4 167)">
<title>SDK::UDebugTeleportCrewStepDesc</title>
<!-- Node1 -->
<g id="node1" class="node"><title>Node1</title>
<g id="a_node1"><a xlink:title=" ">
<polygon fill="#bfbfbf" stroke="black" points="57.5,-0.5 57.5,-57.5 233.5,-57.5 233.5,-0.5 57.5,-0.5"/>
<text text-anchor="middle" x="145.5" y="-45.5" font-family="Helvetica,sans-Serif" font-size="10.00">SDK::UDebugTeleportCrewStepDesc</text>
<polyline fill="none" stroke="black" points="57.5,-38.5 233.5,-38.5 "/>
<text text-anchor="middle" x="145.5" y="-26.5" font-family="Helvetica,sans-Serif" font-size="10.00"> </text>
<polyline fill="none" stroke="black" points="57.5,-19.5 233.5,-19.5 "/>
<text text-anchor="start" x="65.5" y="-7.5" font-family="Helvetica,sans-Serif" font-size="10.00">+ StaticClass()</text>
</a>
</g>
</g>
<!-- Node2 -->
<g id="node2" class="node"><title>Node2</title>
<g id="a_node2"><a xlink:href="a34915.html" target="_top" xlink:title=" ">
<polygon fill="none" stroke="red" points="0,-105.5 0,-162.5 137,-162.5 137,-105.5 0,-105.5"/>
<text text-anchor="middle" x="68.5" y="-150.5" font-family="Helvetica,sans-Serif" font-size="10.00">SDK::UTaleQuestStepDesc</text>
<polyline fill="none" stroke="red" points="0,-143.5 137,-143.5 "/>
<text text-anchor="middle" x="68.5" y="-131.5" font-family="Helvetica,sans-Serif" font-size="10.00"> </text>
<polyline fill="none" stroke="red" points="0,-124.5 137,-124.5 "/>
<text text-anchor="start" x="8" y="-112.5" font-family="Helvetica,sans-Serif" font-size="10.00">+ StaticClass()</text>
</a>
</g>
</g>
<!-- Node2&#45;&gt;Node1 -->
<g id="edge1" class="edge"><title>Node2&#45;&gt;Node1</title>
<path fill="none" stroke="midnightblue" d="M95.3051,-97.1438C104.978,-84.205 115.739,-69.8105 124.808,-57.6783"/>
<polygon fill="none" stroke="midnightblue" points="92.3189,-95.2929 89.1346,-105.398 97.9254,-99.4842 92.3189,-95.2929"/>
</g>
<!-- Node15 -->
<g id="node3" class="node"><title>Node15</title>
<g id="a_node3"><a xlink:href="a12631.html" target="_top" xlink:title=" ">
<polygon fill="none" stroke="red" points="155.5,-105.5 155.5,-162.5 289.5,-162.5 289.5,-105.5 155.5,-105.5"/>
<text text-anchor="middle" x="222.5" y="-150.5" font-family="Helvetica,sans-Serif" font-size="10.00">SDK::FQuestVariableActor</text>
<polyline fill="none" stroke="red" points="155.5,-143.5 289.5,-143.5 "/>
<text text-anchor="middle" x="222.5" y="-131.5" font-family="Helvetica,sans-Serif" font-size="10.00"> </text>
<polyline fill="none" stroke="red" points="155.5,-124.5 289.5,-124.5 "/>
<text text-anchor="middle" x="222.5" y="-112.5" font-family="Helvetica,sans-Serif" font-size="10.00"> </text>
</a>
</g>
</g>
<!-- Node15&#45;&gt;Node1 -->
<g id="edge2" class="edge"><title>Node15&#45;&gt;Node1</title>
<path fill="none" stroke="#404040" d="M201.865,-105.398C193.148,-93.737 182.86,-79.9757 173.476,-67.423"/>
<polygon fill="none" stroke="#404040" points="173.377,-67.2895 166.58,-64.8789 166.192,-57.6783 172.988,-60.0889 173.377,-67.2895"/>
<text text-anchor="middle" x="215" y="-79" font-family="Helvetica,sans-Serif" font-size="10.00"> +LocatorVar</text>
</g>
</g>
</svg>
