<?xml version="1.0" encoding="UTF-8" standalone="no"?>
<!DOCTYPE svg PUBLIC "-//W3C//DTD SVG 1.1//EN"
 "http://www.w3.org/Graphics/SVG/1.1/DTD/svg11.dtd">
<!-- Generated by graphviz version 2.38.0 (20140413.2041)
 -->
<!-- Title: SDK::UDebugSkipToStep Pages: 1 -->
<svg width="136pt" height="171pt"
 viewBox="0.00 0.00 136.00 171.00" xmlns="http://www.w3.org/2000/svg" xmlns:xlink="http://www.w3.org/1999/xlink">
<g id="graph0" class="graph" transform="scale(1 1) rotate(0) translate(4 167)">
<title>SDK::UDebugSkipToStep</title>
<!-- Node1 -->
<g id="node1" class="node"><title>Node1</title>
<g id="a_node1"><a xlink:title=" ">
<polygon fill="#bfbfbf" stroke="black" points="0,-0.5 0,-68.5 128,-68.5 128,-0.5 0,-0.5"/>
<text text-anchor="middle" x="64" y="-56.5" font-family="Helvetica,sans-Serif" font-size="10.00">SDK::UDebugSkipToStep</text>
<polyline fill="none" stroke="black" points="0,-49.5 128,-49.5 "/>
<text text-anchor="start" x="8" y="-37.5" font-family="Helvetica,sans-Serif" font-size="10.00">+ Desc</text>
<text text-anchor="start" x="8" y="-26.5" font-family="Helvetica,sans-Serif" font-size="10.00">+ NextStep</text>
<polyline fill="none" stroke="black" points="0,-19.5 128,-19.5 "/>
<text text-anchor="start" x="8" y="-7.5" font-family="Helvetica,sans-Serif" font-size="10.00">+ StaticClass()</text>
</a>
</g>
</g>
<!-- Node2 -->
<g id="node2" class="node"><title>Node2</title>
<g id="a_node2"><a xlink:href="a35135.html" target="_top" xlink:title=" ">
<polygon fill="none" stroke="red" points="7,-105.5 7,-162.5 121,-162.5 121,-105.5 7,-105.5"/>
<text text-anchor="middle" x="64" y="-150.5" font-family="Helvetica,sans-Serif" font-size="10.00">SDK::UTaleQuestStep</text>
<polyline fill="none" stroke="red" points="7,-143.5 121,-143.5 "/>
<text text-anchor="start" x="15" y="-131.5" font-family="Helvetica,sans-Serif" font-size="10.00">+ UnknownData00</text>
<polyline fill="none" stroke="red" points="7,-124.5 121,-124.5 "/>
<text text-anchor="start" x="15" y="-112.5" font-family="Helvetica,sans-Serif" font-size="10.00">+ StaticClass()</text>
</a>
</g>
</g>
<!-- Node2&#45;&gt;Node1 -->
<g id="edge1" class="edge"><title>Node2&#45;&gt;Node1</title>
<path fill="none" stroke="midnightblue" d="M64,-95.0631C64,-86.3933 64,-77.2431 64,-68.7855"/>
<polygon fill="none" stroke="midnightblue" points="60.5001,-95.3212 64,-105.321 67.5001,-95.3212 60.5001,-95.3212"/>
</g>
</g>
</svg>
