<?xml version="1.0" encoding="UTF-8" standalone="no"?>
<!DOCTYPE svg PUBLIC "-//W3C//DTD SVG 1.1//EN"
 "http://www.w3.org/Graphics/SVG/1.1/DTD/svg11.dtd">
<!-- Generated by graphviz version 2.38.0 (20140413.2041)
 -->
<!-- Title: SDK::UDiggingComponent Pages: 1 -->
<svg width="1436pt" height="661pt"
 viewBox="0.00 0.00 1435.50 661.00" xmlns="http://www.w3.org/2000/svg" xmlns:xlink="http://www.w3.org/1999/xlink">
<g id="graph0" class="graph" transform="scale(1 1) rotate(0) translate(4 657)">
<title>SDK::UDiggingComponent</title>
<!-- Node1 -->
<g id="node1" class="node"><title>Node1</title>
<g id="a_node1"><a xlink:title=" ">
<polygon fill="#bfbfbf" stroke="black" points="630,-0.5 630,-79.5 761,-79.5 761,-0.5 630,-0.5"/>
<text text-anchor="middle" x="695.5" y="-67.5" font-family="Helvetica,sans-Serif" font-size="10.00">SDK::UDiggingComponent</text>
<polyline fill="none" stroke="black" points="630,-60.5 761,-60.5 "/>
<text text-anchor="middle" x="695.5" y="-48.5" font-family="Helvetica,sans-Serif" font-size="10.00"> </text>
<polyline fill="none" stroke="black" points="630,-41.5 761,-41.5 "/>
<text text-anchor="start" x="638" y="-29.5" font-family="Helvetica,sans-Serif" font-size="10.00">+ OnRep_State()</text>
<text text-anchor="start" x="638" y="-18.5" font-family="Helvetica,sans-Serif" font-size="10.00">+ OnRep_NumDigsLeft()</text>
<text text-anchor="start" x="638" y="-7.5" font-family="Helvetica,sans-Serif" font-size="10.00">+ StaticClass()</text>
</a>
</g>
</g>
<!-- Node2 -->
<g id="node2" class="node"><title>Node2</title>
<g id="a_node2"><a xlink:href="a26339.html" target="_top" xlink:title=" ">
<polygon fill="none" stroke="red" points="0,-155 0,-399 185,-399 185,-155 0,-155"/>
<text text-anchor="middle" x="92.5" y="-387" font-family="Helvetica,sans-Serif" font-size="10.00">SDK::UActorComponent</text>
<polyline fill="none" stroke="red" points="0,-380 185,-380 "/>
<text text-anchor="start" x="8" y="-368" font-family="Helvetica,sans-Serif" font-size="10.00">+ UnknownData00</text>
<text text-anchor="start" x="8" y="-357" font-family="Helvetica,sans-Serif" font-size="10.00">+ bReplicates</text>
<text text-anchor="start" x="8" y="-346" font-family="Helvetica,sans-Serif" font-size="10.00">+ bNetAddressable</text>
<text text-anchor="start" x="8" y="-335" font-family="Helvetica,sans-Serif" font-size="10.00">+ bInstanceComponent</text>
<text text-anchor="start" x="8" y="-324" font-family="Helvetica,sans-Serif" font-size="10.00">+ bAutoActivate</text>
<text text-anchor="start" x="8" y="-313" font-family="Helvetica,sans-Serif" font-size="10.00">+ bIsActive</text>
<text text-anchor="start" x="8" y="-302" font-family="Helvetica,sans-Serif" font-size="10.00">+ bNeedsLoadForServer</text>
<polyline fill="none" stroke="red" points="0,-295 185,-295 "/>
<text text-anchor="start" x="8" y="-283" font-family="Helvetica,sans-Serif" font-size="10.00">+ ToggleActive()</text>
<text text-anchor="start" x="8" y="-272" font-family="Helvetica,sans-Serif" font-size="10.00">+ SetTickGroup()</text>
<text text-anchor="start" x="8" y="-261" font-family="Helvetica,sans-Serif" font-size="10.00">+ SetTickableWhenPaused()</text>
<text text-anchor="start" x="8" y="-250" font-family="Helvetica,sans-Serif" font-size="10.00">+ SetIsReplicated()</text>
<text text-anchor="start" x="8" y="-239" font-family="Helvetica,sans-Serif" font-size="10.00">+ SetComponentTickEnabled()</text>
<text text-anchor="start" x="8" y="-228" font-family="Helvetica,sans-Serif" font-size="10.00">+ SetActive()</text>
<text text-anchor="start" x="8" y="-217" font-family="Helvetica,sans-Serif" font-size="10.00">+ RemoveTickPrerequisiteComponent()</text>
<text text-anchor="start" x="8" y="-206" font-family="Helvetica,sans-Serif" font-size="10.00">+ RemoveTickPrerequisiteActor()</text>
<text text-anchor="start" x="8" y="-195" font-family="Helvetica,sans-Serif" font-size="10.00">+ ReceiveTick()</text>
<text text-anchor="start" x="8" y="-184" font-family="Helvetica,sans-Serif" font-size="10.00">+ ReceiveEndPlay()</text>
<text text-anchor="start" x="8" y="-173" font-family="Helvetica,sans-Serif" font-size="10.00">and 12 more...</text>
<text text-anchor="start" x="8" y="-162" font-family="Helvetica,sans-Serif" font-size="10.00">+ StaticClass()</text>
</a>
</g>
</g>
<!-- Node2&#45;&gt;Node1 -->
<g id="edge1" class="edge"><title>Node2&#45;&gt;Node1</title>
<path fill="none" stroke="midnightblue" d="M155.882,-146.697C170.394,-127.721 187.549,-110.418 207.5,-98 276.477,-55.068 513.025,-44.4674 629.555,-41.8534"/>
<polygon fill="none" stroke="midnightblue" points="152.936,-144.796 149.825,-154.923 158.573,-148.947 152.936,-144.796"/>
</g>
<!-- Node12 -->
<g id="node3" class="node"><title>Node12</title>
<g id="a_node3"><a xlink:title=" ">
<polygon fill="none" stroke="#bfbfbf" points="266,-595.5 266,-652.5 301,-652.5 301,-595.5 266,-595.5"/>
<text text-anchor="middle" x="283.5" y="-640.5" font-family="Helvetica,sans-Serif" font-size="10.00">char</text>
<polyline fill="none" stroke="#bfbfbf" points="266,-633.5 301,-633.5 "/>
<text text-anchor="middle" x="283.5" y="-621.5" font-family="Helvetica,sans-Serif" font-size="10.00"> </text>
<polyline fill="none" stroke="#bfbfbf" points="266,-614.5 301,-614.5 "/>
<text text-anchor="middle" x="283.5" y="-602.5" font-family="Helvetica,sans-Serif" font-size="10.00"> </text>
</a>
</g>
</g>
<!-- Node12&#45;&gt;Node1 -->
<g id="edge4" class="edge"><title>Node12&#45;&gt;Node1</title>
<path fill="none" stroke="#404040" d="M273.49,-595.238C260.531,-557.683 238.645,-488.325 230.5,-427 221.722,-360.914 187.861,-178.248 230.5,-127 278.805,-68.9418 497.866,-49.9149 617.285,-43.8045"/>
<polygon fill="none" stroke="#404040" points="617.592,-43.7896 623.389,-39.5011 629.577,-43.2031 623.78,-47.4916 617.592,-43.7896"/>
<text text-anchor="middle" x="270.5" y="-291" font-family="Helvetica,sans-Serif" font-size="10.00"> +UnknownData01</text>
<text text-anchor="middle" x="270.5" y="-280" font-family="Helvetica,sans-Serif" font-size="10.00">+UnknownData02</text>
<text text-anchor="middle" x="270.5" y="-269" font-family="Helvetica,sans-Serif" font-size="10.00">+UnknownData03</text>
<text text-anchor="middle" x="270.5" y="-258" font-family="Helvetica,sans-Serif" font-size="10.00">+UnknownData00</text>
</g>
<!-- Node12&#45;&gt;Node2 -->
<g id="edge2" class="edge"><title>Node12&#45;&gt;Node2</title>
<path fill="none" stroke="#404040" d="M265.703,-621.37C223.01,-617.055 116.743,-603.789 95.5,-577 59.1392,-531.145 54.2201,-467.695 60.1025,-411.038"/>
<polygon fill="none" stroke="#404040" points="60.1095,-410.977 56.8394,-404.55 61.5142,-399.06 64.7844,-405.487 60.1095,-410.977"/>
<text text-anchor="middle" x="151.5" y="-569" font-family="Helvetica,sans-Serif" font-size="10.00"> +UnknownData01</text>
<text text-anchor="middle" x="151.5" y="-558" font-family="Helvetica,sans-Serif" font-size="10.00">+UnknownData02</text>
<text text-anchor="middle" x="151.5" y="-547" font-family="Helvetica,sans-Serif" font-size="10.00">+UnknownData03</text>
<text text-anchor="middle" x="151.5" y="-536" font-family="Helvetica,sans-Serif" font-size="10.00">+UnknownData04</text>
<text text-anchor="middle" x="151.5" y="-525" font-family="Helvetica,sans-Serif" font-size="10.00">+UnknownData05</text>
<text text-anchor="start" x="95.5" y="-514" font-family="Helvetica,sans-Serif" font-size="10.00">+bCreatedByConstruction</text>
<text text-anchor="middle" x="151.5" y="-503" font-family="Helvetica,sans-Serif" font-size="10.00">Script</text>
<text text-anchor="middle" x="151.5" y="-492" font-family="Helvetica,sans-Serif" font-size="10.00">+UnknownData06</text>
<text text-anchor="middle" x="151.5" y="-481" font-family="Helvetica,sans-Serif" font-size="10.00">+UnknownData07</text>
<text text-anchor="middle" x="151.5" y="-470" font-family="Helvetica,sans-Serif" font-size="10.00">+bEditableWhenInherited</text>
<text text-anchor="middle" x="151.5" y="-459" font-family="Helvetica,sans-Serif" font-size="10.00">+bNeedsLoadForClient</text>
<text text-anchor="middle" x="151.5" y="-448" font-family="Helvetica,sans-Serif" font-size="10.00">...</text>
</g>
<!-- Node70 -->
<g id="node7" class="node"><title>Node70</title>
<g id="a_node7"><a xlink:href="a26343.html" target="_top" xlink:title=" ">
<polygon fill="none" stroke="red" points="1064,-127.5 1064,-426.5 1231,-426.5 1231,-127.5 1064,-127.5"/>
<text text-anchor="middle" x="1147.5" y="-414.5" font-family="Helvetica,sans-Serif" font-size="10.00">SDK::AActor</text>
<polyline fill="none" stroke="red" points="1064,-407.5 1231,-407.5 "/>
<text text-anchor="start" x="1072" y="-395.5" font-family="Helvetica,sans-Serif" font-size="10.00">+ bAllowRemovalFromServerWhen</text>
<text text-anchor="start" x="1072" y="-384.5" font-family="Helvetica,sans-Serif" font-size="10.00">CollisionMerged</text>
<text text-anchor="start" x="1072" y="-373.5" font-family="Helvetica,sans-Serif" font-size="10.00">+ bHidden</text>
<text text-anchor="start" x="1072" y="-362.5" font-family="Helvetica,sans-Serif" font-size="10.00">+ bNetStartup</text>
<text text-anchor="start" x="1072" y="-351.5" font-family="Helvetica,sans-Serif" font-size="10.00">+ bOnlyRelevantToOwner</text>
<text text-anchor="start" x="1072" y="-340.5" font-family="Helvetica,sans-Serif" font-size="10.00">+ bAlwaysRelevant</text>
<text text-anchor="start" x="1072" y="-329.5" font-family="Helvetica,sans-Serif" font-size="10.00">+ bReplicateMovement</text>
<text text-anchor="start" x="1072" y="-318.5" font-family="Helvetica,sans-Serif" font-size="10.00">+ bExchangedRoles</text>
<text text-anchor="start" x="1072" y="-307.5" font-family="Helvetica,sans-Serif" font-size="10.00">+ bNetLoadOnClient</text>
<text text-anchor="start" x="1072" y="-296.5" font-family="Helvetica,sans-Serif" font-size="10.00">+ bBlockInput</text>
<text text-anchor="start" x="1072" y="-285.5" font-family="Helvetica,sans-Serif" font-size="10.00">+ UnknownData00</text>
<text text-anchor="start" x="1072" y="-274.5" font-family="Helvetica,sans-Serif" font-size="10.00">and 26 more...</text>
<polyline fill="none" stroke="red" points="1064,-267.5 1231,-267.5 "/>
<text text-anchor="start" x="1072" y="-255.5" font-family="Helvetica,sans-Serif" font-size="10.00">+ UserConstructionScript()</text>
<text text-anchor="start" x="1072" y="-244.5" font-family="Helvetica,sans-Serif" font-size="10.00">+ TearOff()</text>
<text text-anchor="start" x="1072" y="-233.5" font-family="Helvetica,sans-Serif" font-size="10.00">+ SnapRootComponentTo()</text>
<text text-anchor="start" x="1072" y="-222.5" font-family="Helvetica,sans-Serif" font-size="10.00">+ SetTickGroup()</text>
<text text-anchor="start" x="1072" y="-211.5" font-family="Helvetica,sans-Serif" font-size="10.00">+ SetTickableWhenPaused()</text>
<text text-anchor="start" x="1072" y="-200.5" font-family="Helvetica,sans-Serif" font-size="10.00">+ SetReplicates()</text>
<text text-anchor="start" x="1072" y="-189.5" font-family="Helvetica,sans-Serif" font-size="10.00">+ SetReplicateMovement()</text>
<text text-anchor="start" x="1072" y="-178.5" font-family="Helvetica,sans-Serif" font-size="10.00">+ SetOwner()</text>
<text text-anchor="start" x="1072" y="-167.5" font-family="Helvetica,sans-Serif" font-size="10.00">+ SetLifeSpan()</text>
<text text-anchor="start" x="1072" y="-156.5" font-family="Helvetica,sans-Serif" font-size="10.00">+ SetIgnoreNetTransformUpdates()</text>
<text text-anchor="start" x="1072" y="-145.5" font-family="Helvetica,sans-Serif" font-size="10.00">and 109 more...</text>
<text text-anchor="start" x="1072" y="-134.5" font-family="Helvetica,sans-Serif" font-size="10.00">+ StaticClass()</text>
</a>
</g>
</g>
<!-- Node12&#45;&gt;Node70 -->
<g id="edge8" class="edge"><title>Node12&#45;&gt;Node70</title>
<path fill="none" stroke="#404040" d="M301.302,-622.3C370.609,-619.379 622.19,-606.89 695.5,-577 783.754,-541.018 775.948,-480.243 864.5,-445 939.77,-415.043 978.76,-466.57 1053.2,-426.77"/>
<polygon fill="none" stroke="#404040" points="1053.57,-426.556 1056.75,-420.083 1063.94,-420.53 1060.76,-427.002 1053.57,-426.556"/>
<text text-anchor="middle" x="930.5" y="-563.5" font-family="Helvetica,sans-Serif" font-size="10.00"> +bEnableAutoLODGeneration</text>
<text text-anchor="middle" x="930.5" y="-552.5" font-family="Helvetica,sans-Serif" font-size="10.00">+UnknownData01</text>
<text text-anchor="middle" x="930.5" y="-541.5" font-family="Helvetica,sans-Serif" font-size="10.00">+bNetUseOwnerRelevancy</text>
<text text-anchor="middle" x="930.5" y="-530.5" font-family="Helvetica,sans-Serif" font-size="10.00">+bTearOff</text>
<text text-anchor="middle" x="930.5" y="-519.5" font-family="Helvetica,sans-Serif" font-size="10.00">+bNetTemporary</text>
<text text-anchor="middle" x="930.5" y="-508.5" font-family="Helvetica,sans-Serif" font-size="10.00">+UnknownData02</text>
<text text-anchor="middle" x="930.5" y="-497.5" font-family="Helvetica,sans-Serif" font-size="10.00">+bCanBeInCluster</text>
<text text-anchor="middle" x="930.5" y="-486.5" font-family="Helvetica,sans-Serif" font-size="10.00">+bPendingNetUpdate</text>
<text text-anchor="middle" x="930.5" y="-475.5" font-family="Helvetica,sans-Serif" font-size="10.00">+UnknownData10</text>
<text text-anchor="middle" x="930.5" y="-464.5" font-family="Helvetica,sans-Serif" font-size="10.00">+UnknownData03</text>
<text text-anchor="middle" x="930.5" y="-453.5" font-family="Helvetica,sans-Serif" font-size="10.00">...</text>
</g>
<!-- Node214 -->
<g id="node9" class="node"><title>Node214</title>
<g id="a_node9"><a xlink:href="a34151.html" target="_top" xlink:title=" ">
<polygon fill="none" stroke="red" points="881.5,-248.5 881.5,-305.5 1045.5,-305.5 1045.5,-248.5 881.5,-248.5"/>
<text text-anchor="middle" x="963.5" y="-293.5" font-family="Helvetica,sans-Serif" font-size="10.00">SDK::UWwiseObjectPoolWrapper</text>
<polyline fill="none" stroke="red" points="881.5,-286.5 1045.5,-286.5 "/>
<text text-anchor="middle" x="963.5" y="-274.5" font-family="Helvetica,sans-Serif" font-size="10.00"> </text>
<polyline fill="none" stroke="red" points="881.5,-267.5 1045.5,-267.5 "/>
<text text-anchor="start" x="889.5" y="-255.5" font-family="Helvetica,sans-Serif" font-size="10.00">+ StaticClass()</text>
</a>
</g>
</g>
<!-- Node12&#45;&gt;Node214 -->
<g id="edge13" class="edge"><title>Node12&#45;&gt;Node214</title>
<path fill="none" stroke="#404040" d="M301.038,-610.061C348.641,-575.761 485.437,-482.565 615.5,-445 670.29,-429.175 822.701,-456.512 871.5,-427 912.168,-402.405 937.474,-352.286 951.016,-316.987"/>
<polygon fill="none" stroke="#404040" points="951.042,-316.913 949.345,-309.905 955.162,-305.643 956.859,-312.651 951.042,-316.913"/>
<text text-anchor="middle" x="655.5" y="-514" font-family="Helvetica,sans-Serif" font-size="10.00"> +UnknownData01</text>
<text text-anchor="middle" x="655.5" y="-503" font-family="Helvetica,sans-Serif" font-size="10.00">+UnknownData00</text>
</g>
<!-- Node22 -->
<g id="node4" class="node"><title>Node22</title>
<g id="a_node4"><a xlink:href="a28895.html" target="_top" xlink:title=" ">
<polygon fill="none" stroke="red" points="320,-188 320,-366 513,-366 513,-188 320,-188"/>
<text text-anchor="middle" x="416.5" y="-354" font-family="Helvetica,sans-Serif" font-size="10.00">SDK::UMaterialInstanceDynamic</text>
<polyline fill="none" stroke="red" points="320,-347 513,-347 "/>
<text text-anchor="middle" x="416.5" y="-335" font-family="Helvetica,sans-Serif" font-size="10.00"> </text>
<polyline fill="none" stroke="red" points="320,-328 513,-328 "/>
<text text-anchor="start" x="328" y="-316" font-family="Helvetica,sans-Serif" font-size="10.00">+ SetVectorParameterValue()</text>
<text text-anchor="start" x="328" y="-305" font-family="Helvetica,sans-Serif" font-size="10.00">+ SetTextureParameterValue()</text>
<text text-anchor="start" x="328" y="-294" font-family="Helvetica,sans-Serif" font-size="10.00">+ SetScalarParameterValue()</text>
<text text-anchor="start" x="328" y="-283" font-family="Helvetica,sans-Serif" font-size="10.00">+ MergeParameters()</text>
<text text-anchor="start" x="328" y="-272" font-family="Helvetica,sans-Serif" font-size="10.00">+ K2_InterpolateMaterialInstance</text>
<text text-anchor="start" x="328" y="-261" font-family="Helvetica,sans-Serif" font-size="10.00">Params()</text>
<text text-anchor="start" x="328" y="-250" font-family="Helvetica,sans-Serif" font-size="10.00">+ K2_GetVectorParameterValue()</text>
<text text-anchor="start" x="328" y="-239" font-family="Helvetica,sans-Serif" font-size="10.00">+ K2_GetTextureParameterValue()</text>
<text text-anchor="start" x="328" y="-228" font-family="Helvetica,sans-Serif" font-size="10.00">+ K2_GetScalarParameterValue()</text>
<text text-anchor="start" x="328" y="-217" font-family="Helvetica,sans-Serif" font-size="10.00">+ K2_CopyMaterialInstanceParameters()</text>
<text text-anchor="start" x="328" y="-206" font-family="Helvetica,sans-Serif" font-size="10.00">+ CopyParameterOverrides()</text>
<text text-anchor="start" x="328" y="-195" font-family="Helvetica,sans-Serif" font-size="10.00">+ StaticClass()</text>
</a>
</g>
</g>
<!-- Node22&#45;&gt;Node1 -->
<g id="edge3" class="edge"><title>Node22&#45;&gt;Node1</title>
<path fill="none" stroke="#404040" d="M470.751,-187.988C486.035,-166.729 503.675,-144.98 522.5,-127 549.621,-101.096 586.055,-81.4134 618.492,-67.4599"/>
<polygon fill="none" stroke="#404040" points="618.698,-67.3741 622.7,-61.3755 629.777,-62.7625 625.775,-68.7611 618.698,-67.3741"/>
<text text-anchor="middle" x="611" y="-101" font-family="Helvetica,sans-Serif" font-size="10.00"> +ItemDynamicMaterial</text>
</g>
<!-- Node45 -->
<g id="node5" class="node"><title>Node45</title>
<g id="a_node5"><a xlink:href="a25635.html" target="_top" xlink:title=" ">
<polygon fill="none" stroke="black" points="531.5,-215.5 531.5,-338.5 685.5,-338.5 685.5,-215.5 531.5,-215.5"/>
<text text-anchor="start" x="539.5" y="-326.5" font-family="Helvetica,sans-Serif" font-size="10.00">SDK::TEnumAsByte&lt; EDigging</text>
<text text-anchor="middle" x="608.5" y="-315.5" font-family="Helvetica,sans-Serif" font-size="10.00">State &gt;</text>
<polyline fill="none" stroke="black" points="531.5,-308.5 685.5,-308.5 "/>
<text text-anchor="middle" x="608.5" y="-296.5" font-family="Helvetica,sans-Serif" font-size="10.00"> </text>
<polyline fill="none" stroke="black" points="531.5,-289.5 685.5,-289.5 "/>
<text text-anchor="start" x="539.5" y="-277.5" font-family="Helvetica,sans-Serif" font-size="10.00">+ TEnumAsByte()</text>
<text text-anchor="start" x="539.5" y="-266.5" font-family="Helvetica,sans-Serif" font-size="10.00">+ TEnumAsByte()</text>
<text text-anchor="start" x="539.5" y="-255.5" font-family="Helvetica,sans-Serif" font-size="10.00">+ TEnumAsByte()</text>
<text text-anchor="start" x="539.5" y="-244.5" font-family="Helvetica,sans-Serif" font-size="10.00">+ TEnumAsByte()</text>
<text text-anchor="start" x="539.5" y="-233.5" font-family="Helvetica,sans-Serif" font-size="10.00">+ operator EDiggingState()</text>
<text text-anchor="start" x="539.5" y="-222.5" font-family="Helvetica,sans-Serif" font-size="10.00">+ GetValue()</text>
</a>
</g>
</g>
<!-- Node45&#45;&gt;Node1 -->
<g id="edge5" class="edge"><title>Node45&#45;&gt;Node1</title>
<path fill="none" stroke="#404040" d="M630.905,-215.482C645.215,-176.827 663.545,-127.317 677.02,-90.9166"/>
<polygon fill="none" stroke="#404040" points="677.047,-90.8431 675.379,-83.8276 681.214,-79.5896 682.882,-86.6051 677.047,-90.8431"/>
<text text-anchor="middle" x="689" y="-101" font-family="Helvetica,sans-Serif" font-size="10.00"> +State</text>
</g>
<!-- Node46 -->
<g id="node6" class="node"><title>Node46</title>
<g id="a_node6"><a xlink:href="a14123.html" target="_top" xlink:title=" ">
<polygon fill="none" stroke="red" points="704,-248.5 704,-305.5 863,-305.5 863,-248.5 704,-248.5"/>
<text text-anchor="middle" x="783.5" y="-293.5" font-family="Helvetica,sans-Serif" font-size="10.00">SDK::FItemDiggingMergedConfig</text>
<polyline fill="none" stroke="red" points="704,-286.5 863,-286.5 "/>
<text text-anchor="middle" x="783.5" y="-274.5" font-family="Helvetica,sans-Serif" font-size="10.00"> </text>
<polyline fill="none" stroke="red" points="704,-267.5 863,-267.5 "/>
<text text-anchor="middle" x="783.5" y="-255.5" font-family="Helvetica,sans-Serif" font-size="10.00"> </text>
</a>
</g>
</g>
<!-- Node46&#45;&gt;Node1 -->
<g id="edge6" class="edge"><title>Node46&#45;&gt;Node1</title>
<path fill="none" stroke="#404040" d="M773.06,-248.12C758.591,-209.482 732.203,-139.013 714.266,-91.1135"/>
<polygon fill="none" stroke="#404040" points="714.221,-90.994 708.371,-86.7778 710.013,-79.7561 715.863,-83.9723 714.221,-90.994"/>
<text text-anchor="middle" x="754" y="-101" font-family="Helvetica,sans-Serif" font-size="10.00"> +DiggingConfig</text>
</g>
<!-- Node70&#45;&gt;Node1 -->
<g id="edge7" class="edge"><title>Node70&#45;&gt;Node1</title>
<path fill="none" stroke="#404040" d="M1063.89,-134.374C1060.85,-131.781 1057.72,-129.316 1054.5,-127 971.061,-66.9318 851.225,-48.3755 773.371,-42.8926"/>
<polygon fill="none" stroke="#404040" points="773.225,-42.8833 766.982,-46.4938 761.249,-42.1205 767.491,-38.51 773.225,-42.8833"/>
<text text-anchor="middle" x="1049" y="-101" font-family="Helvetica,sans-Serif" font-size="10.00"> +Discoverer</text>
</g>
<!-- Node70&#45;&gt;Node70 -->
<g id="edge9" class="edge"><title>Node70&#45;&gt;Node70</title>
<path fill="none" stroke="#404040" d="M1231.12,-305.264C1241.89,-300.363 1249,-290.941 1249,-277 1249,-268.069 1246.08,-260.993 1241.15,-255.771"/>
<polygon fill="none" stroke="#404040" points="1240.94,-255.626 1233.74,-255.456 1231.12,-248.736 1238.33,-248.906 1240.94,-255.626"/>
<text text-anchor="middle" x="1267.5" y="-274.5" font-family="Helvetica,sans-Serif" font-size="10.00"> +Owner</text>
</g>
<!-- Node43 -->
<g id="node8" class="node"><title>Node43</title>
<g id="a_node8"><a xlink:title=" ">
<polygon fill="none" stroke="#bfbfbf" points="1133,-595.5 1133,-652.5 1162,-652.5 1162,-595.5 1133,-595.5"/>
<text text-anchor="middle" x="1147.5" y="-640.5" font-family="Helvetica,sans-Serif" font-size="10.00">int</text>
<polyline fill="none" stroke="#bfbfbf" points="1133,-633.5 1162,-633.5 "/>
<text text-anchor="middle" x="1147.5" y="-621.5" font-family="Helvetica,sans-Serif" font-size="10.00"> </text>
<polyline fill="none" stroke="#bfbfbf" points="1133,-614.5 1162,-614.5 "/>
<text text-anchor="middle" x="1147.5" y="-602.5" font-family="Helvetica,sans-Serif" font-size="10.00"> </text>
</a>
</g>
</g>
<!-- Node43&#45;&gt;Node1 -->
<g id="edge11" class="edge"><title>Node43&#45;&gt;Node1</title>
<path fill="none" stroke="#404040" d="M1162.11,-615.246C1176.32,-607.156 1197.84,-593.378 1212.5,-577 1263.32,-520.232 1276.45,-500.772 1295.5,-427 1328.84,-297.901 1382.84,-227.748 1295.5,-127 1228.82,-50.0764 920.189,-40.3045 773.434,-40.1191"/>
<polygon fill="none" stroke="#404040" points="773.024,-40.1192 767.027,-44.1225 761.024,-40.1259 767.022,-36.1225 773.024,-40.1192"/>
<text text-anchor="middle" x="1385" y="-280" font-family="Helvetica,sans-Serif" font-size="10.00"> +NumDigsLeft</text>
<text text-anchor="middle" x="1385" y="-269" font-family="Helvetica,sans-Serif" font-size="10.00">+NumDigsRequired</text>
</g>
<!-- Node43&#45;&gt;Node70 -->
<g id="edge10" class="edge"><title>Node43&#45;&gt;Node70</title>
<path fill="none" stroke="#404040" d="M1147.5,-595.35C1147.5,-560.87 1147.5,-499.139 1147.5,-439.229"/>
<polygon fill="none" stroke="#404040" points="1147.5,-438.882 1143.5,-432.882 1147.5,-426.882 1151.5,-432.882 1147.5,-438.882"/>
<text text-anchor="middle" x="1178" y="-514" font-family="Helvetica,sans-Serif" font-size="10.00"> +InputPriority</text>
<text text-anchor="middle" x="1178" y="-503" font-family="Helvetica,sans-Serif" font-size="10.00">+NetTag</text>
</g>
<!-- Node43&#45;&gt;Node214 -->
<g id="edge14" class="edge"><title>Node43&#45;&gt;Node214</title>
<path fill="none" stroke="#404040" d="M1132.87,-618.073C1115.23,-611.417 1085.79,-597.92 1068.5,-577 1004.24,-499.233 978.163,-379.468 968.541,-317.769"/>
<polygon fill="none" stroke="#404040" points="968.538,-317.747 963.702,-312.398 966.78,-305.876 971.616,-311.225 968.538,-317.747"/>
<text text-anchor="middle" x="1106" y="-514" font-family="Helvetica,sans-Serif" font-size="10.00"> +MaxResources</text>
<text text-anchor="middle" x="1106" y="-503" font-family="Helvetica,sans-Serif" font-size="10.00">+MaxProxies</text>
</g>
<!-- Node214&#45;&gt;Node1 -->
<g id="edge12" class="edge"><title>Node214&#45;&gt;Node1</title>
<path fill="none" stroke="#404040" d="M952.168,-248.312C937.64,-215.7 909.69,-161.597 871.5,-127 843.205,-101.367 805.881,-81.6773 772.887,-67.6475"/>
<polygon fill="none" stroke="#404040" points="772.514,-67.4937 765.442,-68.9053 761.419,-62.9206 768.491,-61.509 772.514,-67.4937"/>
<text text-anchor="middle" x="885.5" y="-101" font-family="Helvetica,sans-Serif" font-size="10.00"> +CachedSfxPool</text>
</g>
</g>
</svg>
