<?xml version="1.0" encoding="UTF-8" standalone="no"?>
<!DOCTYPE svg PUBLIC "-//W3C//DTD SVG 1.1//EN"
 "http://www.w3.org/Graphics/SVG/1.1/DTD/svg11.dtd">
<!-- Generated by graphviz version 2.38.0 (20140413.2041)
 -->
<!-- Title: SDK::UDebugSkipToStepDesc Pages: 1 -->
<svg width="158pt" height="182pt"
 viewBox="0.00 0.00 158.00 182.00" xmlns="http://www.w3.org/2000/svg" xmlns:xlink="http://www.w3.org/1999/xlink">
<g id="graph0" class="graph" transform="scale(1 1) rotate(0) translate(4 178)">
<title>SDK::UDebugSkipToStepDesc</title>
<!-- Node1 -->
<g id="node1" class="node"><title>Node1</title>
<g id="a_node1"><a xlink:title=" ">
<polygon fill="#bfbfbf" stroke="black" points="0,-0.5 0,-68.5 150,-68.5 150,-0.5 0,-0.5"/>
<text text-anchor="middle" x="75" y="-56.5" font-family="Helvetica,sans-Serif" font-size="10.00">SDK::UDebugSkipToStepDesc</text>
<polyline fill="none" stroke="black" points="0,-49.5 150,-49.5 "/>
<text text-anchor="start" x="8" y="-37.5" font-family="Helvetica,sans-Serif" font-size="10.00">+ NextDesc</text>
<text text-anchor="start" x="8" y="-26.5" font-family="Helvetica,sans-Serif" font-size="10.00">+ SkipName</text>
<polyline fill="none" stroke="black" points="0,-19.5 150,-19.5 "/>
<text text-anchor="start" x="8" y="-7.5" font-family="Helvetica,sans-Serif" font-size="10.00">+ StaticClass()</text>
</a>
</g>
</g>
<!-- Node2 -->
<g id="node2" class="node"><title>Node2</title>
<g id="a_node2"><a xlink:href="a35139.html" target="_top" xlink:title=" ">
<polygon fill="none" stroke="red" points="6.5,-105.5 6.5,-173.5 143.5,-173.5 143.5,-105.5 6.5,-105.5"/>
<text text-anchor="middle" x="75" y="-161.5" font-family="Helvetica,sans-Serif" font-size="10.00">SDK::UTaleQuestStepDesc</text>
<polyline fill="none" stroke="red" points="6.5,-154.5 143.5,-154.5 "/>
<text text-anchor="start" x="14.5" y="-142.5" font-family="Helvetica,sans-Serif" font-size="10.00">+ Fork</text>
<text text-anchor="start" x="14.5" y="-131.5" font-family="Helvetica,sans-Serif" font-size="10.00">+ UnknownData00</text>
<polyline fill="none" stroke="red" points="6.5,-124.5 143.5,-124.5 "/>
<text text-anchor="start" x="14.5" y="-112.5" font-family="Helvetica,sans-Serif" font-size="10.00">+ StaticClass()</text>
</a>
</g>
</g>
<!-- Node2&#45;&gt;Node1 -->
<g id="edge1" class="edge"><title>Node2&#45;&gt;Node1</title>
<path fill="none" stroke="midnightblue" d="M75,-95.1362C75,-86.256 75,-77.0447 75,-68.5947"/>
<polygon fill="none" stroke="midnightblue" points="71.5001,-95.3432 75,-105.343 78.5001,-95.3432 71.5001,-95.3432"/>
</g>
</g>
</svg>
