<?xml version="1.0" encoding="UTF-8" standalone="no"?>
<!DOCTYPE svg PUBLIC "-//W3C//DTD SVG 1.1//EN"
 "http://www.w3.org/Graphics/SVG/1.1/DTD/svg11.dtd">
<!-- Generated by graphviz version 2.38.0 (20140413.2041)
 -->
<!-- Title: SDK::UDynamicFlowComponent Pages: 1 -->
<!--zoomable 518 -->
<svg id="main" version="1.1" xmlns="http://www.w3.org/2000/svg" xmlns:xlink="http://www.w3.org/1999/xlink" xml:space="preserve" onload="init(evt)">
<style type="text/css"><![CDATA[
.edge:hover path { stroke: red; }
.edge:hover polygon { stroke: red; fill: red; }
]]></style>
<script type="text/javascript"><![CDATA[
var edges = document.getElementsByTagName('g');
if (edges && edges.length) {
  for (var i=0;i<edges.length;i++) {
    if (edges[i].id.substr(0,4)=='edge') {
      edges[i].setAttribute('class','edge');
    }
  }
}
]]></script>
        <defs>
                <circle id="rim" cx="0" cy="0" r="7"/>
                <circle id="rim2" cx="0" cy="0" r="3.5"/>
                <g id="zoomPlus">
                        <use xlink:href="#rim" fill="#404040">
                                <set attributeName="fill" to="#808080" begin="zoomplus.mouseover" end="zoomplus.mouseout"/>
                        </use>
                        <path d="M-4,0h8M0,-4v8" fill="none" stroke="white" stroke-width="1.5" pointer-events="none"/>
                </g>
                <g id="zoomMin">
                        <use xlink:href="#rim" fill="#404040">
                                <set attributeName="fill" to="#808080" begin="zoomminus.mouseover" end="zoomminus.mouseout"/>
                        </use>
                        <path d="M-4,0h8" fill="none" stroke="white" stroke-width="1.5" pointer-events="none"/>
                </g>
                <g id="dirArrow">
                        <path fill="none" stroke="white" stroke-width="1.5" d="M0,-3.0v7 M-2.5,-0.5L0,-3.0L2.5,-0.5"/>
                </g>
               <g id="resetDef">
                       <use xlink:href="#rim2" fill="#404040">
                               <set attributeName="fill" to="#808080" begin="reset.mouseover" end="reset.mouseout"/>
                       </use>
               </g>
        </defs>

<script type="text/javascript">
var viewWidth = 1428;
var viewHeight = 518;
var sectionId = 'dynsection-1';
</script>
<script xlink:href="svgpan.js"/>
<svg id="graph" class="graph">
<g id="viewport">
<title>SDK::UDynamicFlowComponent</title>
<!-- Node1 -->
<g id="node1" class="node"><title>Node1</title>
<g id="a_node1"><a xlink:title=" ">
<polygon fill="#bfbfbf" stroke="black" points="448.5,-0.5 448.5,-90.5 606.5,-90.5 606.5,-0.5 448.5,-0.5"/>
<text text-anchor="middle" x="527.5" y="-78.5" font-family="Helvetica,sans-Serif" font-size="10.00">SDK::UDynamicFlowComponent</text>
<polyline fill="none" stroke="black" points="448.5,-71.5 606.5,-71.5 "/>
<text text-anchor="middle" x="527.5" y="-59.5" font-family="Helvetica,sans-Serif" font-size="10.00"> </text>
<polyline fill="none" stroke="black" points="448.5,-52.5 606.5,-52.5 "/>
<text text-anchor="start" x="456.5" y="-40.5" font-family="Helvetica,sans-Serif" font-size="10.00">+ SetTexture()</text>
<text text-anchor="start" x="456.5" y="-29.5" font-family="Helvetica,sans-Serif" font-size="10.00">+ GetTexture()</text>
<text text-anchor="start" x="456.5" y="-18.5" font-family="Helvetica,sans-Serif" font-size="10.00">+ ClearTexture()</text>
<text text-anchor="start" x="456.5" y="-7.5" font-family="Helvetica,sans-Serif" font-size="10.00">+ StaticClass()</text>
</a>
</g>
</g>
<!-- Node2 -->
<g id="node2" class="node"><title>Node2</title>
<g id="a_node2"><a xlink:href="a26515.html" target="_top" xlink:title=" ">
<polygon fill="none" stroke="red" points="386.5,-188 386.5,-300 536.5,-300 536.5,-188 386.5,-188"/>
<text text-anchor="middle" x="461.5" y="-288" font-family="Helvetica,sans-Serif" font-size="10.00">SDK::UStaticMeshComponent</text>
<polyline fill="none" stroke="red" points="386.5,-281 536.5,-281 "/>
<text text-anchor="middle" x="461.5" y="-269" font-family="Helvetica,sans-Serif" font-size="10.00"> </text>
<polyline fill="none" stroke="red" points="386.5,-262 536.5,-262 "/>
<text text-anchor="start" x="394.5" y="-250" font-family="Helvetica,sans-Serif" font-size="10.00">+ SetStaticMesh()</text>
<text text-anchor="start" x="394.5" y="-239" font-family="Helvetica,sans-Serif" font-size="10.00">+ SetForcedLodModel()</text>
<text text-anchor="start" x="394.5" y="-228" font-family="Helvetica,sans-Serif" font-size="10.00">+ OnRep_StaticMesh()</text>
<text text-anchor="start" x="394.5" y="-217" font-family="Helvetica,sans-Serif" font-size="10.00">+ GetLocalBounds()</text>
<text text-anchor="start" x="394.5" y="-206" font-family="Helvetica,sans-Serif" font-size="10.00">+ EnableAutomaticInstancing()</text>
<text text-anchor="start" x="394.5" y="-195" font-family="Helvetica,sans-Serif" font-size="10.00">+ StaticClass()</text>
</a>
</g>
</g>
<!-- Node2&#45;&gt;Node1 -->
<g id="edge1" class="edge"><title>Node2&#45;&gt;Node1</title>
<path fill="none" stroke="midnightblue" d="M483.264,-178.204C492.889,-149.546 503.963,-116.575 512.623,-90.7917"/>
<polygon fill="none" stroke="midnightblue" points="479.927,-177.147 480.06,-187.741 486.562,-179.376 479.927,-177.147"/>
</g>
<!-- Node22 -->
<g id="node3" class="node"><title>Node22</title>
<g id="a_node3"><a xlink:title=" ">
<polygon fill="none" stroke="#bfbfbf" points="173,-452.5 173,-509.5 208,-509.5 208,-452.5 173,-452.5"/>
<text text-anchor="middle" x="190.5" y="-497.5" font-family="Helvetica,sans-Serif" font-size="10.00">float</text>
<polyline fill="none" stroke="#bfbfbf" points="173,-490.5 208,-490.5 "/>
<text text-anchor="middle" x="190.5" y="-478.5" font-family="Helvetica,sans-Serif" font-size="10.00"> </text>
<polyline fill="none" stroke="#bfbfbf" points="173,-471.5 208,-471.5 "/>
<text text-anchor="middle" x="190.5" y="-459.5" font-family="Helvetica,sans-Serif" font-size="10.00"> </text>
</a>
</g>
</g>
<!-- Node22&#45;&gt;Node1 -->
<g id="edge13" class="edge"><title>Node22&#45;&gt;Node1</title>
<path fill="none" stroke="#404040" d="M190.226,-452.464C190.603,-422.885 193.172,-374.768 204.5,-335 226.771,-256.816 228.489,-228.953 285.5,-171 327.537,-128.268 387.343,-97.3137 436.982,-76.9578"/>
<polygon fill="none" stroke="#404040" points="437.243,-76.8533 441.327,-70.9098 448.384,-72.3933 444.3,-78.3368 437.243,-76.8533"/>
<text text-anchor="middle" x="331.5" y="-252.5" font-family="Helvetica,sans-Serif" font-size="10.00"> +NearFadeRange</text>
<text text-anchor="middle" x="331.5" y="-241.5" font-family="Helvetica,sans-Serif" font-size="10.00">+NearFadeStart</text>
<text text-anchor="middle" x="331.5" y="-230.5" font-family="Helvetica,sans-Serif" font-size="10.00">+UpdateCullDistance</text>
</g>
<!-- Node22&#45;&gt;Node2 -->
<g id="edge2" class="edge"><title>Node22&#45;&gt;Node2</title>
<path fill="none" stroke="#404040" d="M197.16,-452.277C198.599,-446.253 200.106,-439.914 201.5,-434 211.864,-390.033 191.316,-365.649 224.5,-335 264.117,-298.409 293.845,-335.506 344.5,-317 354.975,-313.173 365.526,-308.342 375.777,-303.002"/>
<polygon fill="none" stroke="#404040" points="375.788,-302.996 379.154,-296.619 386.335,-297.273 382.969,-303.65 375.788,-302.996"/>
<text text-anchor="middle" x="290" y="-382" font-family="Helvetica,sans-Serif" font-size="10.00"> +StreamingDistanceMultiplier</text>
</g>
<!-- Node91 -->
<g id="node7" class="node"><title>Node91</title>
<g id="a_node7"><a xlink:href="a26083.html" target="_top" xlink:title=" ">
<polygon fill="none" stroke="black" points="0,-171.5 0,-316.5 89,-316.5 89,-171.5 0,-171.5"/>
<text text-anchor="middle" x="44.5" y="-304.5" font-family="Helvetica,sans-Serif" font-size="10.00">SDK::FVector2D</text>
<polyline fill="none" stroke="black" points="0,-297.5 89,-297.5 "/>
<text text-anchor="middle" x="44.5" y="-285.5" font-family="Helvetica,sans-Serif" font-size="10.00"> </text>
<polyline fill="none" stroke="black" points="0,-278.5 89,-278.5 "/>
<text text-anchor="start" x="8" y="-266.5" font-family="Helvetica,sans-Serif" font-size="10.00">+ FVector2D()</text>
<text text-anchor="start" x="8" y="-255.5" font-family="Helvetica,sans-Serif" font-size="10.00">+ FVector2D()</text>
<text text-anchor="start" x="8" y="-244.5" font-family="Helvetica,sans-Serif" font-size="10.00">+ operator+()</text>
<text text-anchor="start" x="8" y="-233.5" font-family="Helvetica,sans-Serif" font-size="10.00">+ operator&#45;()</text>
<text text-anchor="start" x="8" y="-222.5" font-family="Helvetica,sans-Serif" font-size="10.00">+ operator*()</text>
<text text-anchor="start" x="8" y="-211.5" font-family="Helvetica,sans-Serif" font-size="10.00">+ operator=()</text>
<text text-anchor="start" x="8" y="-200.5" font-family="Helvetica,sans-Serif" font-size="10.00">+ operator+=()</text>
<text text-anchor="start" x="8" y="-189.5" font-family="Helvetica,sans-Serif" font-size="10.00">+ operator&#45;=()</text>
<text text-anchor="start" x="8" y="-178.5" font-family="Helvetica,sans-Serif" font-size="10.00">+ operator*=()</text>
</a>
</g>
</g>
<!-- Node22&#45;&gt;Node91 -->
<g id="edge9" class="edge"><title>Node22&#45;&gt;Node91</title>
<path fill="none" stroke="#404040" d="M172.745,-470.523C158.892,-462.382 139.971,-449.518 127.5,-434 102.591,-403.005 83.6822,-363.373 70.2517,-328.413"/>
<polygon fill="none" stroke="#404040" points="70.0977,-328 64.2539,-323.775 65.9062,-316.756 71.75,-320.981 70.0977,-328"/>
<text text-anchor="middle" x="135" y="-387.5" font-family="Helvetica,sans-Serif" font-size="10.00"> +X</text>
<text text-anchor="middle" x="135" y="-376.5" font-family="Helvetica,sans-Serif" font-size="10.00">+Y</text>
</g>
<!-- Node92 -->
<g id="node8" class="node"><title>Node92</title>
<g id="a_node8"><a xlink:href="a26079.html" target="_top" xlink:title=" ">
<polygon fill="none" stroke="black" points="115,-215.5 115,-272.5 198,-272.5 198,-215.5 115,-215.5"/>
<text text-anchor="middle" x="156.5" y="-260.5" font-family="Helvetica,sans-Serif" font-size="10.00">SDK::FVector4</text>
<polyline fill="none" stroke="black" points="115,-253.5 198,-253.5 "/>
<text text-anchor="middle" x="156.5" y="-241.5" font-family="Helvetica,sans-Serif" font-size="10.00"> </text>
<polyline fill="none" stroke="black" points="115,-234.5 198,-234.5 "/>
<text text-anchor="middle" x="156.5" y="-222.5" font-family="Helvetica,sans-Serif" font-size="10.00"> </text>
</a>
</g>
</g>
<!-- Node22&#45;&gt;Node92 -->
<g id="edge11" class="edge"><title>Node22&#45;&gt;Node92</title>
<path fill="none" stroke="#404040" d="M172.751,-460.89C166.693,-453.137 160.655,-443.723 157.5,-434 141.45,-384.541 144.887,-323.892 149.836,-284.859"/>
<polygon fill="none" stroke="#404040" points="149.867,-284.63 146.726,-278.139 151.509,-272.742 154.651,-279.233 149.867,-284.63"/>
<text text-anchor="middle" x="167" y="-398.5" font-family="Helvetica,sans-Serif" font-size="10.00"> +W</text>
<text text-anchor="middle" x="167" y="-387.5" font-family="Helvetica,sans-Serif" font-size="10.00">+X</text>
<text text-anchor="middle" x="167" y="-376.5" font-family="Helvetica,sans-Serif" font-size="10.00">+Y</text>
<text text-anchor="middle" x="167" y="-365.5" font-family="Helvetica,sans-Serif" font-size="10.00">+Z</text>
</g>
<!-- Node93 -->
<g id="node9" class="node"><title>Node93</title>
<g id="a_node9"><a xlink:href="a28911.html" target="_top" xlink:title=" ">
<polygon fill="none" stroke="red" points="570,-204.5 570,-283.5 687,-283.5 687,-204.5 570,-204.5"/>
<text text-anchor="middle" x="628.5" y="-271.5" font-family="Helvetica,sans-Serif" font-size="10.00">SDK::UTexture2D</text>
<polyline fill="none" stroke="red" points="570,-264.5 687,-264.5 "/>
<text text-anchor="middle" x="628.5" y="-252.5" font-family="Helvetica,sans-Serif" font-size="10.00"> </text>
<polyline fill="none" stroke="red" points="570,-245.5 687,-245.5 "/>
<text text-anchor="start" x="578" y="-233.5" font-family="Helvetica,sans-Serif" font-size="10.00">+ Blueprint_GetSizeY()</text>
<text text-anchor="start" x="578" y="-222.5" font-family="Helvetica,sans-Serif" font-size="10.00">+ Blueprint_GetSizeX()</text>
<text text-anchor="start" x="578" y="-211.5" font-family="Helvetica,sans-Serif" font-size="10.00">+ StaticClass()</text>
</a>
</g>
</g>
<!-- Node22&#45;&gt;Node93 -->
<g id="edge16" class="edge"><title>Node22&#45;&gt;Node93</title>
<path fill="none" stroke="#404040" d="M208.256,-479.974C267.928,-479.507 459.892,-474.805 502.5,-434 534.858,-403.012 497.76,-372.996 521.5,-335 528.565,-323.692 535.124,-325.374 545.5,-317 555.399,-309.011 565.774,-300.298 575.704,-291.781"/>
<polygon fill="none" stroke="#404040" points="575.975,-291.547 577.902,-284.598 585.058,-283.705 583.13,-290.653 575.975,-291.547"/>
<text text-anchor="start" x="521.5" y="-387.5" font-family="Helvetica,sans-Serif" font-size="10.00"> +ForceMipLevelsToBeResident</text>
<text text-anchor="middle" x="590.5" y="-376.5" font-family="Helvetica,sans-Serif" font-size="10.00">Timestamp</text>
</g>
<!-- Node16 -->
<g id="node4" class="node"><title>Node16</title>
<g id="a_node4"><a xlink:title=" ">
<polygon fill="none" stroke="#bfbfbf" points="825,-452.5 825,-509.5 860,-509.5 860,-452.5 825,-452.5"/>
<text text-anchor="middle" x="842.5" y="-497.5" font-family="Helvetica,sans-Serif" font-size="10.00">char</text>
<polyline fill="none" stroke="#bfbfbf" points="825,-490.5 860,-490.5 "/>
<text text-anchor="middle" x="842.5" y="-478.5" font-family="Helvetica,sans-Serif" font-size="10.00"> </text>
<polyline fill="none" stroke="#bfbfbf" points="825,-471.5 860,-471.5 "/>
<text text-anchor="middle" x="842.5" y="-459.5" font-family="Helvetica,sans-Serif" font-size="10.00"> </text>
</a>
</g>
</g>
<!-- Node16&#45;&gt;Node1 -->
<g id="edge12" class="edge"><title>Node16&#45;&gt;Node1</title>
<path fill="none" stroke="#404040" d="M860.414,-480.434C892.014,-480.102 957.09,-474.269 986.5,-434 1012.45,-398.468 1007.26,-373.794 986.5,-335 910.042,-192.136 728.839,-110.949 618.348,-73.0943"/>
<polygon fill="none" stroke="#404040" points="618.264,-73.066 611.302,-74.9426 606.891,-69.2373 613.854,-67.3607 618.264,-73.066"/>
<text text-anchor="middle" x="1014.5" y="-247" font-family="Helvetica,sans-Serif" font-size="10.00"> +UnknownData01</text>
<text text-anchor="middle" x="1014.5" y="-236" font-family="Helvetica,sans-Serif" font-size="10.00">+UnknownData00</text>
</g>
<!-- Node16&#45;&gt;Node2 -->
<g id="edge3" class="edge"><title>Node16&#45;&gt;Node2</title>
<path fill="none" stroke="#404040" d="M824.811,-479.618C743.588,-477.685 409.034,-467.711 378.5,-434 348.962,-401.389 362.487,-375.983 378.5,-335 381.926,-326.23 386.652,-317.801 392.125,-309.856"/>
<polygon fill="none" stroke="#404040" points="392.249,-309.689 392.624,-302.488 399.415,-300.064 399.041,-307.265 392.249,-309.689"/>
<text text-anchor="start" x="378.5" y="-420.5" font-family="Helvetica,sans-Serif" font-size="10.00"> +bIgnoreInstanceForTexture</text>
<text text-anchor="middle" x="440.5" y="-409.5" font-family="Helvetica,sans-Serif" font-size="10.00">Streaming</text>
<text text-anchor="middle" x="440.5" y="-398.5" font-family="Helvetica,sans-Serif" font-size="10.00">+UnknownData01</text>
<text text-anchor="middle" x="440.5" y="-387.5" font-family="Helvetica,sans-Serif" font-size="10.00">+UnknownData02</text>
<text text-anchor="middle" x="440.5" y="-376.5" font-family="Helvetica,sans-Serif" font-size="10.00">+UnknownData03</text>
<text text-anchor="middle" x="440.5" y="-365.5" font-family="Helvetica,sans-Serif" font-size="10.00">+UnknownData04</text>
<text text-anchor="middle" x="440.5" y="-354.5" font-family="Helvetica,sans-Serif" font-size="10.00">+bOverrideLightMapRes</text>
<text text-anchor="middle" x="440.5" y="-343.5" font-family="Helvetica,sans-Serif" font-size="10.00">+UnknownData00</text>
</g>
<!-- Node80 -->
<g id="node6" class="node"><title>Node80</title>
<g id="a_node6"><a xlink:href="a26491.html" target="_top" xlink:title=" ">
<polygon fill="none" stroke="red" points="1098.5,-215.5 1098.5,-272.5 1250.5,-272.5 1250.5,-215.5 1098.5,-215.5"/>
<text text-anchor="middle" x="1174.5" y="-260.5" font-family="Helvetica,sans-Serif" font-size="10.00">SDK::UTextureRenderTarget2D</text>
<polyline fill="none" stroke="red" points="1098.5,-253.5 1250.5,-253.5 "/>
<text text-anchor="middle" x="1174.5" y="-241.5" font-family="Helvetica,sans-Serif" font-size="10.00"> </text>
<polyline fill="none" stroke="red" points="1098.5,-234.5 1250.5,-234.5 "/>
<text text-anchor="start" x="1106.5" y="-222.5" font-family="Helvetica,sans-Serif" font-size="10.00">+ StaticClass()</text>
</a>
</g>
</g>
<!-- Node16&#45;&gt;Node80 -->
<g id="edge6" class="edge"><title>Node16&#45;&gt;Node80</title>
<path fill="none" stroke="#404040" d="M860.235,-480.689C894.624,-480.997 970.576,-476.487 1011.5,-434 1042.84,-401.466 1004.49,-368.758 1034.5,-335 1050.19,-317.349 1063.89,-328.533 1084.5,-317 1102.41,-306.981 1120.41,-293.437 1135.55,-280.799"/>
<polygon fill="none" stroke="#404040" points="1135.94,-280.466 1137.91,-273.528 1145.07,-272.671 1143.1,-279.61 1135.94,-280.466"/>
<text text-anchor="middle" x="1083" y="-409.5" font-family="Helvetica,sans-Serif" font-size="10.00"> +UnknownData01</text>
<text text-anchor="middle" x="1083" y="-398.5" font-family="Helvetica,sans-Serif" font-size="10.00">+UnknownData02</text>
<text text-anchor="middle" x="1083" y="-387.5" font-family="Helvetica,sans-Serif" font-size="10.00">+bAutoGenerateMips</text>
<text text-anchor="middle" x="1083" y="-376.5" font-family="Helvetica,sans-Serif" font-size="10.00">+bForceLinearGamma</text>
<text text-anchor="middle" x="1083" y="-365.5" font-family="Helvetica,sans-Serif" font-size="10.00">+bHDR</text>
<text text-anchor="middle" x="1083" y="-354.5" font-family="Helvetica,sans-Serif" font-size="10.00">+UnknownData00</text>
</g>
<!-- Node16&#45;&gt;Node93 -->
<g id="edge17" class="edge"><title>Node16&#45;&gt;Node93</title>
<path fill="none" stroke="#404040" d="M824.847,-480.202C792.489,-479.562 723.601,-473.336 686.5,-434 655.506,-401.139 676.831,-378.16 663.5,-335 659.447,-321.878 654.403,-307.937 649.419,-295.046"/>
<polygon fill="none" stroke="#404040" points="649.29,-294.72 643.368,-290.605 644.888,-283.556 650.81,-287.671 649.29,-294.72"/>
<text text-anchor="middle" x="770.5" y="-426" font-family="Helvetica,sans-Serif" font-size="10.00"> +UnknownData01</text>
<text text-anchor="middle" x="770.5" y="-415" font-family="Helvetica,sans-Serif" font-size="10.00">+bForceMiplevelsToBeResident</text>
<text text-anchor="middle" x="770.5" y="-404" font-family="Helvetica,sans-Serif" font-size="10.00">+UnknownData02</text>
<text text-anchor="middle" x="770.5" y="-393" font-family="Helvetica,sans-Serif" font-size="10.00">+UnknownData03</text>
<text text-anchor="middle" x="770.5" y="-382" font-family="Helvetica,sans-Serif" font-size="10.00">+bTemporarilyDisableStreaming</text>
<text text-anchor="middle" x="770.5" y="-371" font-family="Helvetica,sans-Serif" font-size="10.00">+bIsStreamable</text>
<text text-anchor="middle" x="770.5" y="-360" font-family="Helvetica,sans-Serif" font-size="10.00">+bHasCancelationPending</text>
<text text-anchor="middle" x="770.5" y="-349" font-family="Helvetica,sans-Serif" font-size="10.00">+bGlobalForceMipLevelsToBeResident</text>
<text text-anchor="middle" x="770.5" y="-338" font-family="Helvetica,sans-Serif" font-size="10.00">+UnknownData00</text>
</g>
<!-- Node48 -->
<g id="node5" class="node"><title>Node48</title>
<g id="a_node5"><a xlink:title=" ">
<polygon fill="none" stroke="#bfbfbf" points="1204,-452.5 1204,-509.5 1233,-509.5 1233,-452.5 1204,-452.5"/>
<text text-anchor="middle" x="1218.5" y="-497.5" font-family="Helvetica,sans-Serif" font-size="10.00">int</text>
<polyline fill="none" stroke="#bfbfbf" points="1204,-490.5 1233,-490.5 "/>
<text text-anchor="middle" x="1218.5" y="-478.5" font-family="Helvetica,sans-Serif" font-size="10.00"> </text>
<polyline fill="none" stroke="#bfbfbf" points="1204,-471.5 1233,-471.5 "/>
<text text-anchor="middle" x="1218.5" y="-459.5" font-family="Helvetica,sans-Serif" font-size="10.00"> </text>
</a>
</g>
</g>
<!-- Node48&#45;&gt;Node1 -->
<g id="edge14" class="edge"><title>Node48&#45;&gt;Node1</title>
<path fill="none" stroke="#404040" d="M1233.13,-477.724C1254.87,-473.469 1295,-462.054 1312.5,-434 1391.72,-307.041 1350.23,-190.151 1224.5,-109 1174.73,-76.8746 796.205,-57.4215 618.767,-49.9789"/>
<polygon fill="none" stroke="#404040" points="618.594,-49.9718 612.433,-53.7196 606.604,-49.4743 612.765,-45.7265 618.594,-49.9718"/>
<text text-anchor="middle" x="1386" y="-247" font-family="Helvetica,sans-Serif" font-size="10.00"> +TextureSizeX</text>
<text text-anchor="middle" x="1386" y="-236" font-family="Helvetica,sans-Serif" font-size="10.00">+TextureSizeY</text>
</g>
<!-- Node48&#45;&gt;Node2 -->
<g id="edge4" class="edge"><title>Node48&#45;&gt;Node2</title>
<path fill="none" stroke="#404040" d="M1203.84,-479.728C1147.76,-478.416 947.625,-471.165 898.5,-434 860.101,-404.95 894.052,-362.459 854.5,-335 800.732,-297.671 622.099,-339.135 560.5,-317 552.616,-314.167 544.812,-310.499 537.251,-306.32"/>
<polygon fill="none" stroke="#404040" points="537.07,-306.213 529.869,-306.603 526.74,-300.107 533.94,-299.717 537.07,-306.213"/>
<text text-anchor="middle" x="953" y="-393" font-family="Helvetica,sans-Serif" font-size="10.00"> +ForcedLodModel</text>
<text text-anchor="middle" x="953" y="-382" font-family="Helvetica,sans-Serif" font-size="10.00">+OverriddenLightMapRes</text>
<text text-anchor="middle" x="953" y="-371" font-family="Helvetica,sans-Serif" font-size="10.00">+MinLOD</text>
</g>
<!-- Node48&#45;&gt;Node80 -->
<g id="edge7" class="edge"><title>Node48&#45;&gt;Node80</title>
<path fill="none" stroke="#404040" d="M1233.43,-469.423C1243.76,-461.124 1256.66,-448.564 1262.5,-434 1278.89,-393.165 1279.11,-375.745 1262.5,-335 1254.09,-314.362 1238.41,-295.884 1222.59,-281.121"/>
<polygon fill="none" stroke="#404040" points="1222.28,-280.845 1215.14,-279.846 1213.32,-272.869 1220.46,-273.869 1222.28,-280.845"/>
<text text-anchor="middle" x="1291.5" y="-387.5" font-family="Helvetica,sans-Serif" font-size="10.00"> +SizeX</text>
<text text-anchor="middle" x="1291.5" y="-376.5" font-family="Helvetica,sans-Serif" font-size="10.00">+SizeY</text>
</g>
<!-- Node48&#45;&gt;Node93 -->
<g id="edge18" class="edge"><title>Node48&#45;&gt;Node93</title>
<path fill="none" stroke="#404040" d="M1203.74,-474.138C1187.95,-467.069 1163.44,-453.635 1150.5,-434 1125.84,-396.593 1164.31,-365.511 1131.5,-335 1106.43,-311.686 1012.3,-322.454 978.5,-317 880.947,-301.257 769.291,-277.231 698.848,-261.324"/>
<polygon fill="none" stroke="#404040" points="698.75,-261.302 692.014,-263.876 687.047,-258.648 693.783,-256.074 698.75,-261.302"/>
<text text-anchor="middle" x="1204.5" y="-404" font-family="Helvetica,sans-Serif" font-size="10.00"> +FirstResourceMemMip</text>
<text text-anchor="middle" x="1204.5" y="-393" font-family="Helvetica,sans-Serif" font-size="10.00">+MinimumLoadedMips</text>
<text text-anchor="middle" x="1204.5" y="-382" font-family="Helvetica,sans-Serif" font-size="10.00">+StreamingIndex</text>
<text text-anchor="middle" x="1204.5" y="-371" font-family="Helvetica,sans-Serif" font-size="10.00">+RequestedMips</text>
<text text-anchor="middle" x="1204.5" y="-360" font-family="Helvetica,sans-Serif" font-size="10.00">+ResidentMips</text>
</g>
<!-- Node80&#45;&gt;Node1 -->
<g id="edge5" class="edge"><title>Node80&#45;&gt;Node1</title>
<path fill="none" stroke="#404040" d="M1150.8,-215.314C1122.05,-183.781 1070.43,-133.471 1014.5,-109 945.51,-78.8165 739.778,-60.5257 618.914,-52.089"/>
<polygon fill="none" stroke="#404040" points="618.743,-52.0773 612.482,-55.6565 606.771,-51.2546 613.031,-47.6753 618.743,-52.0773"/>
<text text-anchor="middle" x="1151" y="-134" font-family="Helvetica,sans-Serif" font-size="10.00"> +RenderTargetTexture</text>
<text text-anchor="middle" x="1151" y="-123" font-family="Helvetica,sans-Serif" font-size="10.00">+RenderTargetTexturePingPong</text>
</g>
<!-- Node91&#45;&gt;Node1 -->
<g id="edge8" class="edge"><title>Node91&#45;&gt;Node1</title>
<path fill="none" stroke="#404040" d="M25.1857,-171.402C23.4453,-149.05 26.6689,-125.861 41.5,-109 67.1081,-79.8878 302.717,-60.5429 436.238,-51.8182"/>
<polygon fill="none" stroke="#404040" points="436.46,-51.8039 442.19,-47.4263 448.435,-51.0321 442.705,-55.4097 436.46,-51.8039"/>
<text text-anchor="middle" x="89.5" y="-139.5" font-family="Helvetica,sans-Serif" font-size="10.00"> +FlowUVScrollSpeed</text>
<text text-anchor="middle" x="89.5" y="-128.5" font-family="Helvetica,sans-Serif" font-size="10.00">+FlowBias</text>
<text text-anchor="middle" x="89.5" y="-117.5" font-family="Helvetica,sans-Serif" font-size="10.00">+FlowScale</text>
</g>
<!-- Node92&#45;&gt;Node1 -->
<g id="edge10" class="edge"><title>Node92&#45;&gt;Node1</title>
<path fill="none" stroke="#404040" d="M147.354,-215.32C139.39,-185.443 132.611,-138.224 157.5,-109 192.64,-67.7396 338.397,-53.7114 436.139,-48.9461"/>
<polygon fill="none" stroke="#404040" points="436.417,-48.9335 442.228,-44.663 448.404,-48.3841 442.594,-52.6546 436.417,-48.9335"/>
<text text-anchor="middle" x="208.5" y="-145" font-family="Helvetica,sans-Serif" font-size="10.00"> +FadeWeights</text>
<text text-anchor="middle" x="208.5" y="-134" font-family="Helvetica,sans-Serif" font-size="10.00">+BlurCentreWeights</text>
<text text-anchor="middle" x="208.5" y="-123" font-family="Helvetica,sans-Serif" font-size="10.00">+BlurEdgeWeights</text>
<text text-anchor="middle" x="208.5" y="-112" font-family="Helvetica,sans-Serif" font-size="10.00">+WaterDepthDistances</text>
</g>
<!-- Node93&#45;&gt;Node1 -->
<g id="edge15" class="edge"><title>Node93&#45;&gt;Node1</title>
<path fill="none" stroke="#404040" d="M608.546,-204.178C593.464,-174.835 572.559,-134.165 555.759,-101.479"/>
<polygon fill="none" stroke="#404040" points="555.719,-101.401 549.419,-97.8935 550.233,-90.7285 556.534,-94.2363 555.719,-101.401"/>
<text text-anchor="middle" x="612.5" y="-128.5" font-family="Helvetica,sans-Serif" font-size="10.00"> +FlowTexture</text>
</g>
</g>
</svg>
        <g id="navigator" transform="translate(0 0)" fill="#404254">
                <rect fill="#f2f5e9" fill-opacity="0.5" stroke="#606060" stroke-width=".5" x="0" y="0" width="60" height="60"/>
                <use id="zoomplus" xlink:href="#zoomPlus" x="17" y="9" onmousedown="handleZoom(evt,'in')"/>
                <use id="zoomminus" xlink:href="#zoomMin" x="42" y="9" onmousedown="handleZoom(evt,'out')"/>
                <use id="reset" xlink:href="#resetDef" x="30" y="36" onmousedown="handleReset()"/>
                <g id="arrowUp" xlink:href="#dirArrow" transform="translate(30 24)" onmousedown="handlePan(0,-1)">
                  <use xlink:href="#rim" fill="#404040">
                        <set attributeName="fill" to="#808080" begin="arrowUp.mouseover" end="arrowUp.mouseout"/>
                  </use>
                  <path fill="none" stroke="white" stroke-width="1.5" d="M0,-3.0v7 M-2.5,-0.5L0,-3.0L2.5,-0.5"/>
                </g>
                <g id="arrowRight" xlink:href="#dirArrow" transform="rotate(90) translate(36 -43)" onmousedown="handlePan(1,0)">
                  <use xlink:href="#rim" fill="#404040">
                        <set attributeName="fill" to="#808080" begin="arrowRight.mouseover" end="arrowRight.mouseout"/>
                  </use>
                  <path fill="none" stroke="white" stroke-width="1.5" d="M0,-3.0v7 M-2.5,-0.5L0,-3.0L2.5,-0.5"/>
                </g>
                <g id="arrowDown" xlink:href="#dirArrow" transform="rotate(180) translate(-30 -48)" onmousedown="handlePan(0,1)">
                  <use xlink:href="#rim" fill="#404040">
                        <set attributeName="fill" to="#808080" begin="arrowDown.mouseover" end="arrowDown.mouseout"/>
                  </use>
                  <path fill="none" stroke="white" stroke-width="1.5" d="M0,-3.0v7 M-2.5,-0.5L0,-3.0L2.5,-0.5"/>
                </g>
                <g id="arrowLeft" xlink:href="#dirArrow" transform="rotate(270) translate(-36 17)" onmousedown="handlePan(-1,0)">
                  <use xlink:href="#rim" fill="#404040">
                        <set attributeName="fill" to="#808080" begin="arrowLeft.mouseover" end="arrowLeft.mouseout"/>
                  </use>
                  <path fill="none" stroke="white" stroke-width="1.5" d="M0,-3.0v7 M-2.5,-0.5L0,-3.0L2.5,-0.5"/>
                </g>
        </g>
        <svg viewBox="0 0 15 15" width="100%" height="30px" preserveAspectRatio="xMaxYMin meet">
         <g id="arrow_out" transform="scale(0.3 0.3)">
          <a xlink:href="a04729_org.svg" target="_base">
           <rect id="button" ry="5" rx="5" y="6" x="6" height="38" width="38"
                fill="#f2f5e9" fill-opacity="0.5" stroke="#606060" stroke-width="1.0"/>
           <path id="arrow"
             d="M 11.500037,31.436501 C 11.940474,20.09759 22.043105,11.32322 32.158766,21.979434 L 37.068811,17.246167 C 37.068811,17.246167 37.088388,32 37.088388,32 L 22.160133,31.978069 C 22.160133,31.978069 26.997745,27.140456 26.997745,27.140456 C 18.528582,18.264221 13.291696,25.230495 11.500037,31.436501 z"
             style="fill:#404040;"/>
          </a>
         </g>
        </svg>
</svg>
