<?xml version="1.0" encoding="UTF-8" standalone="no"?>
<!DOCTYPE svg PUBLIC "-//W3C//DTD SVG 1.1//EN"
 "http://www.w3.org/Graphics/SVG/1.1/DTD/svg11.dtd">
<!-- Generated by graphviz version 2.38.0 (20140413.2041)
 -->
<!-- Title: SDK::ARewardPouchItemProxy Pages: 1 -->
<svg width="304pt" height="193pt"
 viewBox="0.00 0.00 303.50 193.00" xmlns="http://www.w3.org/2000/svg" xmlns:xlink="http://www.w3.org/1999/xlink">
<g id="graph0" class="graph" transform="scale(1 1) rotate(0) translate(4 189)">
<title>SDK::ARewardPouchItemProxy</title>
<!-- Node1 -->
<g id="node1" class="node"><title>Node1</title>
<g id="a_node1"><a xlink:title=" ">
<polygon fill="#bfbfbf" stroke="black" points="80,-0.5 80,-57.5 234,-57.5 234,-0.5 80,-0.5"/>
<text text-anchor="middle" x="157" y="-45.5" font-family="Helvetica,sans-Serif" font-size="10.00">SDK::ARewardPouchItemProxy</text>
<polyline fill="none" stroke="black" points="80,-38.5 234,-38.5 "/>
<text text-anchor="middle" x="157" y="-26.5" font-family="Helvetica,sans-Serif" font-size="10.00"> </text>
<polyline fill="none" stroke="black" points="80,-19.5 234,-19.5 "/>
<text text-anchor="start" x="88" y="-7.5" font-family="Helvetica,sans-Serif" font-size="10.00">+ StaticClass()</text>
</a>
</g>
</g>
<!-- Node2 -->
<g id="node2" class="node"><title>Node2</title>
<g id="a_node2"><a xlink:href="a04723.html" target="_top" xlink:title=" ">
<polygon fill="none" stroke="red" points="0,-111 0,-179 158,-179 158,-111 0,-111"/>
<text text-anchor="middle" x="79" y="-167" font-family="Helvetica,sans-Serif" font-size="10.00">SDK::ADroppedPouchItemProxy</text>
<polyline fill="none" stroke="red" points="0,-160 158,-160 "/>
<text text-anchor="middle" x="79" y="-148" font-family="Helvetica,sans-Serif" font-size="10.00"> </text>
<polyline fill="none" stroke="red" points="0,-141 158,-141 "/>
<text text-anchor="start" x="8" y="-129" font-family="Helvetica,sans-Serif" font-size="10.00">+ Multicast_Open()</text>
<text text-anchor="start" x="8" y="-118" font-family="Helvetica,sans-Serif" font-size="10.00">+ StaticClass()</text>
</a>
</g>
</g>
<!-- Node2&#45;&gt;Node1 -->
<g id="edge1" class="edge"><title>Node2&#45;&gt;Node1</title>
<path fill="none" stroke="midnightblue" d="M107.599,-102.202C117.735,-87.3873 128.882,-71.095 138.019,-57.7418"/>
<polygon fill="none" stroke="midnightblue" points="104.529,-100.491 101.771,-110.72 110.306,-104.443 104.529,-100.491"/>
</g>
<!-- Node14 -->
<g id="node3" class="node"><title>Node14</title>
<g id="a_node3"><a xlink:href="a26127.html" target="_top" xlink:title=" ">
<polygon fill="none" stroke="red" points="176.5,-105.5 176.5,-184.5 295.5,-184.5 295.5,-105.5 176.5,-105.5"/>
<text text-anchor="middle" x="236" y="-172.5" font-family="Helvetica,sans-Serif" font-size="10.00">SDK::UClass</text>
<polyline fill="none" stroke="red" points="176.5,-165.5 295.5,-165.5 "/>
<text text-anchor="middle" x="236" y="-153.5" font-family="Helvetica,sans-Serif" font-size="10.00"> </text>
<polyline fill="none" stroke="red" points="176.5,-146.5 295.5,-146.5 "/>
<text text-anchor="start" x="184.5" y="-134.5" font-family="Helvetica,sans-Serif" font-size="10.00">+ CreateDefaultObject()</text>
<text text-anchor="start" x="184.5" y="-123.5" font-family="Helvetica,sans-Serif" font-size="10.00">+ CreateDefaultObject()</text>
<text text-anchor="start" x="184.5" y="-112.5" font-family="Helvetica,sans-Serif" font-size="10.00">+ StaticClass()</text>
</a>
</g>
</g>
<!-- Node14&#45;&gt;Node1 -->
<g id="edge2" class="edge"><title>Node14&#45;&gt;Node1</title>
<path fill="none" stroke="#404040" d="M209.254,-105.405C200.876,-93.3146 191.64,-79.9868 183.293,-67.942"/>
<polygon fill="none" stroke="#404040" points="183.066,-67.6141 176.361,-64.9608 176.231,-57.7509 182.936,-60.4041 183.066,-67.6141"/>
<text text-anchor="middle" x="222.5" y="-79" font-family="Helvetica,sans-Serif" font-size="10.00"> +Company</text>
</g>
</g>
</svg>
