<?xml version="1.0" encoding="UTF-8" standalone="no"?>
<!DOCTYPE svg PUBLIC "-//W3C//DTD SVG 1.1//EN"
 "http://www.w3.org/Graphics/SVG/1.1/DTD/svg11.dtd">
<!-- Generated by graphviz version 2.38.0 (20140413.2041)
 -->
<!-- Title: SDK::UFeatureToggleStatCondition Pages: 1 -->
<svg width="240pt" height="226pt"
 viewBox="0.00 0.00 240.00 226.00" xmlns="http://www.w3.org/2000/svg" xmlns:xlink="http://www.w3.org/1999/xlink">
<g id="graph0" class="graph" transform="scale(1 1) rotate(0) translate(4 222)">
<title>SDK::UFeatureToggleStatCondition</title>
<!-- Node1 -->
<g id="node1" class="node"><title>Node1</title>
<g id="a_node1"><a xlink:title=" ">
<polygon fill="#bfbfbf" stroke="black" points="31,-0.5 31,-57.5 201,-57.5 201,-0.5 31,-0.5"/>
<text text-anchor="middle" x="116" y="-45.5" font-family="Helvetica,sans-Serif" font-size="10.00">SDK::UFeatureToggleStatCondition</text>
<polyline fill="none" stroke="black" points="31,-38.5 201,-38.5 "/>
<text text-anchor="middle" x="116" y="-26.5" font-family="Helvetica,sans-Serif" font-size="10.00"> </text>
<polyline fill="none" stroke="black" points="31,-19.5 201,-19.5 "/>
<text text-anchor="start" x="39" y="-7.5" font-family="Helvetica,sans-Serif" font-size="10.00">+ StaticClass()</text>
</a>
</g>
</g>
<!-- Node2 -->
<g id="node2" class="node"><title>Node2</title>
<g id="a_node2"><a xlink:href="a04311.html" target="_top" xlink:title=" ">
<polygon fill="none" stroke="red" points="0,-133 0,-190 108,-190 108,-133 0,-133"/>
<text text-anchor="middle" x="54" y="-178" font-family="Helvetica,sans-Serif" font-size="10.00">SDK::UStatCondition</text>
<polyline fill="none" stroke="red" points="0,-171 108,-171 "/>
<text text-anchor="middle" x="54" y="-159" font-family="Helvetica,sans-Serif" font-size="10.00"> </text>
<polyline fill="none" stroke="red" points="0,-152 108,-152 "/>
<text text-anchor="start" x="8" y="-140" font-family="Helvetica,sans-Serif" font-size="10.00">+ StaticClass()</text>
</a>
</g>
</g>
<!-- Node2&#45;&gt;Node1 -->
<g id="edge1" class="edge"><title>Node2&#45;&gt;Node1</title>
<path fill="none" stroke="midnightblue" d="M71.5415,-123.578C81.497,-102.623 93.7505,-76.8317 102.87,-57.6358"/>
<polygon fill="none" stroke="midnightblue" points="68.2786,-122.29 67.1486,-132.824 74.6013,-125.294 68.2786,-122.29"/>
</g>
<!-- Node4 -->
<g id="node3" class="node"><title>Node4</title>
<g id="a_node3"><a xlink:href="a25627.html" target="_top" xlink:title=" ">
<polygon fill="none" stroke="red" points="126,-105.5 126,-217.5 232,-217.5 232,-105.5 126,-105.5"/>
<text text-anchor="middle" x="179" y="-205.5" font-family="Helvetica,sans-Serif" font-size="10.00">SDK::FName</text>
<polyline fill="none" stroke="red" points="126,-198.5 232,-198.5 "/>
<text text-anchor="middle" x="179" y="-186.5" font-family="Helvetica,sans-Serif" font-size="10.00"> </text>
<polyline fill="none" stroke="red" points="126,-179.5 232,-179.5 "/>
<text text-anchor="start" x="134" y="-167.5" font-family="Helvetica,sans-Serif" font-size="10.00">+ FName()</text>
<text text-anchor="start" x="134" y="-156.5" font-family="Helvetica,sans-Serif" font-size="10.00">+ FName()</text>
<text text-anchor="start" x="134" y="-145.5" font-family="Helvetica,sans-Serif" font-size="10.00">+ FName()</text>
<text text-anchor="start" x="134" y="-134.5" font-family="Helvetica,sans-Serif" font-size="10.00">+ GetName()</text>
<text text-anchor="start" x="134" y="-123.5" font-family="Helvetica,sans-Serif" font-size="10.00">+ operator==()</text>
<text text-anchor="start" x="134" y="-112.5" font-family="Helvetica,sans-Serif" font-size="10.00">+ GetGlobalNames()</text>
</a>
</g>
</g>
<!-- Node4&#45;&gt;Node1 -->
<g id="edge2" class="edge"><title>Node4&#45;&gt;Node1</title>
<path fill="none" stroke="#404040" d="M152.282,-105.156C146.346,-92.8604 140.178,-80.084 134.648,-68.6288"/>
<polygon fill="none" stroke="#404040" points="134.58,-68.4873 128.369,-64.823 129.363,-57.6807 135.574,-61.345 134.58,-68.4873"/>
<text text-anchor="middle" x="177.5" y="-79" font-family="Helvetica,sans-Serif" font-size="10.00"> +FeatureToggle</text>
</g>
</g>
</svg>
