<?xml version="1.0" encoding="UTF-8" standalone="no"?>
<!DOCTYPE svg PUBLIC "-//W3C//DTD SVG 1.1//EN"
 "http://www.w3.org/Graphics/SVG/1.1/DTD/svg11.dtd">
<!-- Generated by graphviz version 2.38.0 (20140413.2041)
 -->
<!-- Title: SDK::UGenericPartDescAsset Pages: 1 -->
<svg width="284pt" height="171pt"
 viewBox="0.00 0.00 284.00 171.00" xmlns="http://www.w3.org/2000/svg" xmlns:xlink="http://www.w3.org/1999/xlink">
<g id="graph0" class="graph" transform="scale(1 1) rotate(0) translate(4 167)">
<title>SDK::UGenericPartDescAsset</title>
<!-- Node1 -->
<g id="node1" class="node"><title>Node1</title>
<g id="a_node1"><a xlink:title=" ">
<polygon fill="#bfbfbf" stroke="black" points="66,-0.5 66,-57.5 215,-57.5 215,-0.5 66,-0.5"/>
<text text-anchor="middle" x="140.5" y="-45.5" font-family="Helvetica,sans-Serif" font-size="10.00">SDK::UGenericPartDescAsset</text>
<polyline fill="none" stroke="black" points="66,-38.5 215,-38.5 "/>
<text text-anchor="middle" x="140.5" y="-26.5" font-family="Helvetica,sans-Serif" font-size="10.00"> </text>
<polyline fill="none" stroke="black" points="66,-19.5 215,-19.5 "/>
<text text-anchor="start" x="74" y="-7.5" font-family="Helvetica,sans-Serif" font-size="10.00">+ StaticClass()</text>
</a>
</g>
</g>
<!-- Node2 -->
<g id="node2" class="node"><title>Node2</title>
<g id="a_node2"><a xlink:href="a02959.html" target="_top" xlink:title=" ">
<polygon fill="none" stroke="red" points="0,-105.5 0,-162.5 135,-162.5 135,-105.5 0,-105.5"/>
<text text-anchor="middle" x="67.5" y="-150.5" font-family="Helvetica,sans-Serif" font-size="10.00">SDK::UShipPartDescAsset</text>
<polyline fill="none" stroke="red" points="0,-143.5 135,-143.5 "/>
<text text-anchor="middle" x="67.5" y="-131.5" font-family="Helvetica,sans-Serif" font-size="10.00"> </text>
<polyline fill="none" stroke="red" points="0,-124.5 135,-124.5 "/>
<text text-anchor="start" x="8" y="-112.5" font-family="Helvetica,sans-Serif" font-size="10.00">+ StaticClass()</text>
</a>
</g>
</g>
<!-- Node2&#45;&gt;Node1 -->
<g id="edge1" class="edge"><title>Node2&#45;&gt;Node1</title>
<path fill="none" stroke="midnightblue" d="M92.9126,-97.1438C102.083,-84.205 112.285,-69.8105 120.883,-57.6783"/>
<polygon fill="none" stroke="midnightblue" points="89.9895,-95.2153 87.0627,-105.398 95.7006,-99.263 89.9895,-95.2153"/>
</g>
<!-- Node15 -->
<g id="node3" class="node"><title>Node15</title>
<g id="a_node3"><a xlink:href="a14427.html" target="_top" xlink:title=" ">
<polygon fill="none" stroke="red" points="153,-105.5 153,-162.5 276,-162.5 276,-105.5 153,-105.5"/>
<text text-anchor="middle" x="214.5" y="-150.5" font-family="Helvetica,sans-Serif" font-size="10.00">SDK::FGenericPartDesc</text>
<polyline fill="none" stroke="red" points="153,-143.5 276,-143.5 "/>
<text text-anchor="middle" x="214.5" y="-131.5" font-family="Helvetica,sans-Serif" font-size="10.00"> </text>
<polyline fill="none" stroke="red" points="153,-124.5 276,-124.5 "/>
<text text-anchor="middle" x="214.5" y="-112.5" font-family="Helvetica,sans-Serif" font-size="10.00"> </text>
</a>
</g>
</g>
<!-- Node15&#45;&gt;Node1 -->
<g id="edge2" class="edge"><title>Node15&#45;&gt;Node1</title>
<path fill="none" stroke="#404040" d="M194.669,-105.398C186.375,-93.8524 176.6,-80.248 167.655,-67.7962"/>
<polygon fill="none" stroke="#404040" points="167.387,-67.4239 160.638,-64.885 160.385,-57.6783 167.135,-60.2172 167.387,-67.4239"/>
<text text-anchor="middle" x="222.5" y="-79" font-family="Helvetica,sans-Serif" font-size="10.00"> +GenericPartDesc</text>
</g>
</g>
</svg>
