<?xml version="1.0" encoding="UTF-8" standalone="no"?>
<!DOCTYPE svg PUBLIC "-//W3C//DTD SVG 1.1//EN"
 "http://www.w3.org/Graphics/SVG/1.1/DTD/svg11.dtd">
<!-- Generated by graphviz version 2.38.0 (20140413.2041)
 -->
<!-- Title: SDK::UHitReactionComponent Pages: 1 -->
<svg width="622pt" height="617pt"
 viewBox="0.00 0.00 621.74 617.00" xmlns="http://www.w3.org/2000/svg" xmlns:xlink="http://www.w3.org/1999/xlink">
<g id="graph0" class="graph" transform="scale(1 1) rotate(0) translate(4 613)">
<title>SDK::UHitReactionComponent</title>
<!-- Node1 -->
<g id="node1" class="node"><title>Node1</title>
<g id="a_node1"><a xlink:title=" ">
<polygon fill="#bfbfbf" stroke="black" points="210.245,-0.5 210.245,-79.5 373.245,-79.5 373.245,-0.5 210.245,-0.5"/>
<text text-anchor="middle" x="291.745" y="-67.5" font-family="Helvetica,sans-Serif" font-size="10.00">SDK::UHitReactionComponent</text>
<polyline fill="none" stroke="black" points="210.245,-60.5 373.245,-60.5 "/>
<text text-anchor="middle" x="291.745" y="-48.5" font-family="Helvetica,sans-Serif" font-size="10.00"> </text>
<polyline fill="none" stroke="black" points="210.245,-41.5 373.245,-41.5 "/>
<text text-anchor="start" x="218.245" y="-29.5" font-family="Helvetica,sans-Serif" font-size="10.00">+ OnHitReactionImpact()</text>
<text text-anchor="start" x="218.245" y="-18.5" font-family="Helvetica,sans-Serif" font-size="10.00">+ Multicast_ProcessHitReaction()</text>
<text text-anchor="start" x="218.245" y="-7.5" font-family="Helvetica,sans-Serif" font-size="10.00">+ StaticClass()</text>
</a>
</g>
</g>
<!-- Node2 -->
<g id="node2" class="node"><title>Node2</title>
<g id="a_node2"><a xlink:href="a26551.html" target="_top" xlink:title=" ">
<polygon fill="none" stroke="red" points="128.245,-138.5 128.245,-382.5 313.245,-382.5 313.245,-138.5 128.245,-138.5"/>
<text text-anchor="middle" x="220.745" y="-370.5" font-family="Helvetica,sans-Serif" font-size="10.00">SDK::UActorComponent</text>
<polyline fill="none" stroke="red" points="128.245,-363.5 313.245,-363.5 "/>
<text text-anchor="start" x="136.245" y="-351.5" font-family="Helvetica,sans-Serif" font-size="10.00">+ UnknownData00</text>
<text text-anchor="start" x="136.245" y="-340.5" font-family="Helvetica,sans-Serif" font-size="10.00">+ bReplicates</text>
<text text-anchor="start" x="136.245" y="-329.5" font-family="Helvetica,sans-Serif" font-size="10.00">+ bNetAddressable</text>
<text text-anchor="start" x="136.245" y="-318.5" font-family="Helvetica,sans-Serif" font-size="10.00">+ bInstanceComponent</text>
<text text-anchor="start" x="136.245" y="-307.5" font-family="Helvetica,sans-Serif" font-size="10.00">+ bAutoActivate</text>
<text text-anchor="start" x="136.245" y="-296.5" font-family="Helvetica,sans-Serif" font-size="10.00">+ bIsActive</text>
<text text-anchor="start" x="136.245" y="-285.5" font-family="Helvetica,sans-Serif" font-size="10.00">+ bNeedsLoadForServer</text>
<polyline fill="none" stroke="red" points="128.245,-278.5 313.245,-278.5 "/>
<text text-anchor="start" x="136.245" y="-266.5" font-family="Helvetica,sans-Serif" font-size="10.00">+ ToggleActive()</text>
<text text-anchor="start" x="136.245" y="-255.5" font-family="Helvetica,sans-Serif" font-size="10.00">+ SetTickGroup()</text>
<text text-anchor="start" x="136.245" y="-244.5" font-family="Helvetica,sans-Serif" font-size="10.00">+ SetTickableWhenPaused()</text>
<text text-anchor="start" x="136.245" y="-233.5" font-family="Helvetica,sans-Serif" font-size="10.00">+ SetIsReplicated()</text>
<text text-anchor="start" x="136.245" y="-222.5" font-family="Helvetica,sans-Serif" font-size="10.00">+ SetComponentTickEnabled()</text>
<text text-anchor="start" x="136.245" y="-211.5" font-family="Helvetica,sans-Serif" font-size="10.00">+ SetActive()</text>
<text text-anchor="start" x="136.245" y="-200.5" font-family="Helvetica,sans-Serif" font-size="10.00">+ RemoveTickPrerequisiteComponent()</text>
<text text-anchor="start" x="136.245" y="-189.5" font-family="Helvetica,sans-Serif" font-size="10.00">+ RemoveTickPrerequisiteActor()</text>
<text text-anchor="start" x="136.245" y="-178.5" font-family="Helvetica,sans-Serif" font-size="10.00">+ ReceiveTick()</text>
<text text-anchor="start" x="136.245" y="-167.5" font-family="Helvetica,sans-Serif" font-size="10.00">+ ReceiveEndPlay()</text>
<text text-anchor="start" x="136.245" y="-156.5" font-family="Helvetica,sans-Serif" font-size="10.00">and 12 more...</text>
<text text-anchor="start" x="136.245" y="-145.5" font-family="Helvetica,sans-Serif" font-size="10.00">+ StaticClass()</text>
</a>
</g>
</g>
<!-- Node2&#45;&gt;Node1 -->
<g id="edge1" class="edge"><title>Node2&#45;&gt;Node1</title>
<path fill="none" stroke="midnightblue" d="M263.307,-128.516C269.064,-110.798 274.563,-93.8745 279.165,-79.7135"/>
<polygon fill="none" stroke="midnightblue" points="259.848,-127.836 260.086,-138.428 266.505,-129.999 259.848,-127.836"/>
</g>
<!-- Node12 -->
<g id="node3" class="node"><title>Node12</title>
<g id="a_node3"><a xlink:title=" ">
<polygon fill="none" stroke="#bfbfbf" points="203.245,-551.5 203.245,-608.5 238.245,-608.5 238.245,-551.5 203.245,-551.5"/>
<text text-anchor="middle" x="220.745" y="-596.5" font-family="Helvetica,sans-Serif" font-size="10.00">char</text>
<polyline fill="none" stroke="#bfbfbf" points="203.245,-589.5 238.245,-589.5 "/>
<text text-anchor="middle" x="220.745" y="-577.5" font-family="Helvetica,sans-Serif" font-size="10.00"> </text>
<polyline fill="none" stroke="#bfbfbf" points="203.245,-570.5 238.245,-570.5 "/>
<text text-anchor="middle" x="220.745" y="-558.5" font-family="Helvetica,sans-Serif" font-size="10.00"> </text>
</a>
</g>
</g>
<!-- Node12&#45;&gt;Node1 -->
<g id="edge5" class="edge"><title>Node12&#45;&gt;Node1</title>
<path fill="none" stroke="#404040" d="M203.01,-567.173C164.22,-540.094 72.6058,-469.229 38.7445,-383 -1.0563,-281.646 -22.949,-227.726 38.7445,-138 74.3886,-86.16 141.838,-62.011 198.134,-50.7687"/>
<polygon fill="none" stroke="#404040" points="198.166,-50.7628 203.33,-45.7295 209.962,-48.5602 204.799,-53.5936 198.166,-50.7628"/>
<text text-anchor="middle" x="78.7445" y="-263.5" font-family="Helvetica,sans-Serif" font-size="10.00"> +UnknownData01</text>
<text text-anchor="middle" x="78.7445" y="-252.5" font-family="Helvetica,sans-Serif" font-size="10.00">+UnknownData00</text>
</g>
<!-- Node12&#45;&gt;Node2 -->
<g id="edge2" class="edge"><title>Node12&#45;&gt;Node2</title>
<path fill="none" stroke="#404040" d="M220.745,-551.379C220.745,-516.307 220.745,-453.325 220.745,-395.008"/>
<polygon fill="none" stroke="#404040" points="220.745,-394.646 216.745,-388.646 220.745,-382.646 224.745,-388.646 220.745,-394.646"/>
<text text-anchor="middle" x="276.745" y="-525" font-family="Helvetica,sans-Serif" font-size="10.00"> +UnknownData01</text>
<text text-anchor="middle" x="276.745" y="-514" font-family="Helvetica,sans-Serif" font-size="10.00">+UnknownData02</text>
<text text-anchor="middle" x="276.745" y="-503" font-family="Helvetica,sans-Serif" font-size="10.00">+UnknownData03</text>
<text text-anchor="middle" x="276.745" y="-492" font-family="Helvetica,sans-Serif" font-size="10.00">+UnknownData04</text>
<text text-anchor="middle" x="276.745" y="-481" font-family="Helvetica,sans-Serif" font-size="10.00">+UnknownData05</text>
<text text-anchor="start" x="220.745" y="-470" font-family="Helvetica,sans-Serif" font-size="10.00">+bCreatedByConstruction</text>
<text text-anchor="middle" x="276.745" y="-459" font-family="Helvetica,sans-Serif" font-size="10.00">Script</text>
<text text-anchor="middle" x="276.745" y="-448" font-family="Helvetica,sans-Serif" font-size="10.00">+UnknownData06</text>
<text text-anchor="middle" x="276.745" y="-437" font-family="Helvetica,sans-Serif" font-size="10.00">+UnknownData07</text>
<text text-anchor="middle" x="276.745" y="-426" font-family="Helvetica,sans-Serif" font-size="10.00">+bEditableWhenInherited</text>
<text text-anchor="middle" x="276.745" y="-415" font-family="Helvetica,sans-Serif" font-size="10.00">+bNeedsLoadForClient</text>
<text text-anchor="middle" x="276.745" y="-404" font-family="Helvetica,sans-Serif" font-size="10.00">...</text>
</g>
<!-- Node22 -->
<g id="node4" class="node"><title>Node22</title>
<g id="a_node4"><a xlink:href="a25867.html" target="_top" xlink:title=" ">
<polygon fill="none" stroke="black" points="331.745,-232 331.745,-289 483.745,-289 483.745,-232 331.745,-232"/>
<text text-anchor="middle" x="407.745" y="-277" font-family="Helvetica,sans-Serif" font-size="10.00">SDK::FScriptMulticastDelegate</text>
<polyline fill="none" stroke="black" points="331.745,-270 483.745,-270 "/>
<text text-anchor="middle" x="407.745" y="-258" font-family="Helvetica,sans-Serif" font-size="10.00"> </text>
<polyline fill="none" stroke="black" points="331.745,-251 483.745,-251 "/>
<text text-anchor="middle" x="407.745" y="-239" font-family="Helvetica,sans-Serif" font-size="10.00"> </text>
</a>
</g>
</g>
<!-- Node12&#45;&gt;Node22 -->
<g id="edge4" class="edge"><title>Node12&#45;&gt;Node22</title>
<path fill="none" stroke="#404040" d="M238.511,-576.965C264.05,-573.08 310.899,-562.201 336.745,-533 394.984,-467.2 406.402,-359.354 408.065,-301.368"/>
<polygon fill="none" stroke="#404040" points="408.07,-301.105 404.181,-295.032 408.291,-289.107 412.18,-295.179 408.07,-301.105"/>
<text text-anchor="middle" x="431.745" y="-464.5" font-family="Helvetica,sans-Serif" font-size="10.00"> +UnknownData</text>
</g>
<!-- Node22&#45;&gt;Node1 -->
<g id="edge3" class="edge"><title>Node22&#45;&gt;Node1</title>
<path fill="none" stroke="#404040" d="M393.053,-231.827C374.225,-196.363 341.252,-134.253 318.048,-90.5452"/>
<polygon fill="none" stroke="#404040" points="318,-90.4558 311.654,-87.032 312.373,-79.8568 318.72,-83.2807 318,-90.4558"/>
<text text-anchor="middle" x="399.245" y="-112" font-family="Helvetica,sans-Serif" font-size="10.00"> +OnClientProcessHitReaction</text>
<text text-anchor="middle" x="399.245" y="-101" font-family="Helvetica,sans-Serif" font-size="10.00">+OnServerProcessHitReaction</text>
</g>
<!-- Node23 -->
<g id="node5" class="node"><title>Node23</title>
<g id="a_node5"><a xlink:title=" ">
<polygon fill="none" stroke="#bfbfbf" points="502.245,-232 502.245,-289 537.245,-289 537.245,-232 502.245,-232"/>
<text text-anchor="middle" x="519.745" y="-277" font-family="Helvetica,sans-Serif" font-size="10.00">bool</text>
<polyline fill="none" stroke="#bfbfbf" points="502.245,-270 537.245,-270 "/>
<text text-anchor="middle" x="519.745" y="-258" font-family="Helvetica,sans-Serif" font-size="10.00"> </text>
<polyline fill="none" stroke="#bfbfbf" points="502.245,-251 537.245,-251 "/>
<text text-anchor="middle" x="519.745" y="-239" font-family="Helvetica,sans-Serif" font-size="10.00"> </text>
</a>
</g>
</g>
<!-- Node23&#45;&gt;Node1 -->
<g id="edge6" class="edge"><title>Node23&#45;&gt;Node1</title>
<path fill="none" stroke="#404040" d="M519.933,-231.866C518.542,-194.986 510.045,-130.552 469.745,-98 445.673,-78.5566 414.835,-65.6894 385.613,-57.1971"/>
<polygon fill="none" stroke="#404040" points="385.225,-57.0911 378.383,-59.3695 373.648,-53.9303 380.49,-51.6519 385.225,-57.0911"/>
<text text-anchor="middle" x="551.245" y="-106.5" font-family="Helvetica,sans-Serif" font-size="10.00"> +ServerAuthoritiveReactions</text>
</g>
</g>
</svg>
