<?xml version="1.0" encoding="UTF-8" standalone="no"?>
<!DOCTYPE svg PUBLIC "-//W3C//DTD SVG 1.1//EN"
 "http://www.w3.org/Graphics/SVG/1.1/DTD/svg11.dtd">
<!-- Generated by graphviz version 2.38.0 (20140413.2041)
 -->
<!-- Title: SDK::UHoleDataAsset Pages: 1 -->
<svg width="699pt" height="248pt"
 viewBox="0.00 0.00 698.50 248.00" xmlns="http://www.w3.org/2000/svg" xmlns:xlink="http://www.w3.org/1999/xlink">
<g id="graph0" class="graph" transform="scale(1 1) rotate(0) translate(4 244)">
<title>SDK::UHoleDataAsset</title>
<!-- Node1 -->
<g id="node1" class="node"><title>Node1</title>
<g id="a_node1"><a xlink:title=" ">
<polygon fill="#bfbfbf" stroke="black" points="263,-0.5 263,-57.5 378,-57.5 378,-0.5 263,-0.5"/>
<text text-anchor="middle" x="320.5" y="-45.5" font-family="Helvetica,sans-Serif" font-size="10.00">SDK::UHoleDataAsset</text>
<polyline fill="none" stroke="black" points="263,-38.5 378,-38.5 "/>
<text text-anchor="middle" x="320.5" y="-26.5" font-family="Helvetica,sans-Serif" font-size="10.00"> </text>
<polyline fill="none" stroke="black" points="263,-19.5 378,-19.5 "/>
<text text-anchor="start" x="271" y="-7.5" font-family="Helvetica,sans-Serif" font-size="10.00">+ StaticClass()</text>
</a>
</g>
</g>
<!-- Node2 -->
<g id="node2" class="node"><title>Node2</title>
<g id="a_node2"><a xlink:href="a26559.html" target="_top" xlink:title=" ">
<polygon fill="none" stroke="red" points="0,-149.5 0,-206.5 95,-206.5 95,-149.5 0,-149.5"/>
<text text-anchor="middle" x="47.5" y="-194.5" font-family="Helvetica,sans-Serif" font-size="10.00">SDK::UDataAsset</text>
<polyline fill="none" stroke="red" points="0,-187.5 95,-187.5 "/>
<text text-anchor="middle" x="47.5" y="-175.5" font-family="Helvetica,sans-Serif" font-size="10.00"> </text>
<polyline fill="none" stroke="red" points="0,-168.5 95,-168.5 "/>
<text text-anchor="start" x="8" y="-156.5" font-family="Helvetica,sans-Serif" font-size="10.00">+ StaticClass()</text>
</a>
</g>
</g>
<!-- Node2&#45;&gt;Node1 -->
<g id="edge1" class="edge"><title>Node2&#45;&gt;Node1</title>
<path fill="none" stroke="midnightblue" d="M75.3362,-141.857C83.7262,-132.678 93.4071,-123.318 103.5,-116 151.891,-80.9121 216.557,-57.7077 262.68,-44.3413"/>
<polygon fill="none" stroke="midnightblue" points="72.6051,-139.662 68.6116,-149.475 77.8532,-144.294 72.6051,-139.662"/>
</g>
<!-- Node14 -->
<g id="node3" class="node"><title>Node14</title>
<g id="a_node3"><a xlink:href="a25823.html" target="_top" xlink:title=" ">
<polygon fill="none" stroke="black" points="113,-116.5 113,-239.5 264,-239.5 264,-116.5 113,-116.5"/>
<text text-anchor="start" x="121" y="-227.5" font-family="Helvetica,sans-Serif" font-size="10.00">SDK::TArray&lt; struct</text>
<text text-anchor="start" x="121" y="-216.5" font-family="Helvetica,sans-Serif" font-size="10.00"> SDK::FMaxHolePerIslandData</text>
<text text-anchor="middle" x="188.5" y="-205.5" font-family="Helvetica,sans-Serif" font-size="10.00">Asset &gt;</text>
<polyline fill="none" stroke="black" points="113,-198.5 264,-198.5 "/>
<text text-anchor="middle" x="188.5" y="-186.5" font-family="Helvetica,sans-Serif" font-size="10.00"> </text>
<polyline fill="none" stroke="black" points="113,-179.5 264,-179.5 "/>
<text text-anchor="start" x="121" y="-167.5" font-family="Helvetica,sans-Serif" font-size="10.00">+ TArray()</text>
<text text-anchor="start" x="121" y="-156.5" font-family="Helvetica,sans-Serif" font-size="10.00">+ Num()</text>
<text text-anchor="start" x="121" y="-145.5" font-family="Helvetica,sans-Serif" font-size="10.00">+ operator[]()</text>
<text text-anchor="start" x="121" y="-134.5" font-family="Helvetica,sans-Serif" font-size="10.00">+ operator[]()</text>
<text text-anchor="start" x="121" y="-123.5" font-family="Helvetica,sans-Serif" font-size="10.00">+ IsValidIndex()</text>
</a>
</g>
</g>
<!-- Node14&#45;&gt;Node1 -->
<g id="edge2" class="edge"><title>Node14&#45;&gt;Node1</title>
<path fill="none" stroke="#404040" d="M190.018,-116.414C192.902,-101.94 198.186,-87.3987 207.5,-76 218.77,-62.2068 234.83,-52.5118 251.316,-45.7109"/>
<polygon fill="none" stroke="#404040" points="251.499,-45.6424 255.724,-39.7983 262.743,-41.4502 258.519,-47.2942 251.499,-45.6424"/>
<text text-anchor="middle" x="262" y="-84.5" font-family="Helvetica,sans-Serif" font-size="10.00"> +MaxHolePerIslandData</text>
</g>
<!-- Node12 -->
<g id="node4" class="node"><title>Node12</title>
<g id="a_node4"><a xlink:title=" ">
<polygon fill="none" stroke="#bfbfbf" points="303,-149.5 303,-206.5 338,-206.5 338,-149.5 303,-149.5"/>
<text text-anchor="middle" x="320.5" y="-194.5" font-family="Helvetica,sans-Serif" font-size="10.00">char</text>
<polyline fill="none" stroke="#bfbfbf" points="303,-187.5 338,-187.5 "/>
<text text-anchor="middle" x="320.5" y="-175.5" font-family="Helvetica,sans-Serif" font-size="10.00"> </text>
<polyline fill="none" stroke="#bfbfbf" points="303,-168.5 338,-168.5 "/>
<text text-anchor="middle" x="320.5" y="-156.5" font-family="Helvetica,sans-Serif" font-size="10.00"> </text>
</a>
</g>
</g>
<!-- Node12&#45;&gt;Node1 -->
<g id="edge3" class="edge"><title>Node12&#45;&gt;Node1</title>
<path fill="none" stroke="#404040" d="M320.5,-149.35C320.5,-126.868 320.5,-94.8549 320.5,-69.6431"/>
<polygon fill="none" stroke="#404040" points="320.5,-69.5256 316.5,-63.5256 320.5,-57.5256 324.5,-63.5256 320.5,-69.5256"/>
<text text-anchor="middle" x="360.5" y="-84.5" font-family="Helvetica,sans-Serif" font-size="10.00"> +UnknownData00</text>
</g>
<!-- Node15 -->
<g id="node5" class="node"><title>Node15</title>
<g id="a_node5"><a xlink:title=" ">
<polygon fill="none" stroke="#bfbfbf" points="409,-149.5 409,-206.5 438,-206.5 438,-149.5 409,-149.5"/>
<text text-anchor="middle" x="423.5" y="-194.5" font-family="Helvetica,sans-Serif" font-size="10.00">int</text>
<polyline fill="none" stroke="#bfbfbf" points="409,-187.5 438,-187.5 "/>
<text text-anchor="middle" x="423.5" y="-175.5" font-family="Helvetica,sans-Serif" font-size="10.00"> </text>
<polyline fill="none" stroke="#bfbfbf" points="409,-168.5 438,-168.5 "/>
<text text-anchor="middle" x="423.5" y="-156.5" font-family="Helvetica,sans-Serif" font-size="10.00"> </text>
</a>
</g>
</g>
<!-- Node15&#45;&gt;Node1 -->
<g id="edge4" class="edge"><title>Node15&#45;&gt;Node1</title>
<path fill="none" stroke="#404040" d="M423.435,-149.217C422.069,-127.396 417.135,-97.2477 401.5,-76 397.606,-70.7084 392.908,-65.9379 387.76,-61.6563"/>
<polygon fill="none" stroke="#404040" points="387.716,-61.6241 380.514,-61.2589 378.082,-54.4705 385.284,-54.8358 387.716,-61.6241"/>
<text text-anchor="middle" x="490" y="-90" font-family="Helvetica,sans-Serif" font-size="10.00"> +MaxNumOverlappingHolesAllowed</text>
<text text-anchor="middle" x="490" y="-79" font-family="Helvetica,sans-Serif" font-size="10.00">+DefaultMaxHoles</text>
</g>
<!-- Node16 -->
<g id="node6" class="node"><title>Node16</title>
<g id="a_node6"><a xlink:title=" ">
<polygon fill="none" stroke="#bfbfbf" points="586,-149.5 586,-206.5 621,-206.5 621,-149.5 586,-149.5"/>
<text text-anchor="middle" x="603.5" y="-194.5" font-family="Helvetica,sans-Serif" font-size="10.00">bool</text>
<polyline fill="none" stroke="#bfbfbf" points="586,-187.5 621,-187.5 "/>
<text text-anchor="middle" x="603.5" y="-175.5" font-family="Helvetica,sans-Serif" font-size="10.00"> </text>
<polyline fill="none" stroke="#bfbfbf" points="586,-168.5 621,-168.5 "/>
<text text-anchor="middle" x="603.5" y="-156.5" font-family="Helvetica,sans-Serif" font-size="10.00"> </text>
</a>
</g>
</g>
<!-- Node16&#45;&gt;Node1 -->
<g id="edge5" class="edge"><title>Node16&#45;&gt;Node1</title>
<path fill="none" stroke="#404040" d="M602.579,-149.253C600.264,-126.236 593.198,-94.4033 572.5,-76 546.077,-52.507 455.263,-40.4517 390.238,-34.6891"/>
<polygon fill="none" stroke="#404040" points="389.968,-34.6663 383.652,-38.1448 378.011,-33.6519 384.328,-30.1734 389.968,-34.6663"/>
<text text-anchor="middle" x="639" y="-84.5" font-family="Helvetica,sans-Serif" font-size="10.00"> +AllowHoleOverlapping</text>
</g>
</g>
</svg>
