<?xml version="1.0" encoding="UTF-8" standalone="no"?>
<!DOCTYPE svg PUBLIC "-//W3C//DTD SVG 1.1//EN"
 "http://www.w3.org/Graphics/SVG/1.1/DTD/svg11.dtd">
<!-- Generated by graphviz version 2.38.0 (20140413.2041)
 -->
<!-- Title: SDK::AHideoutEntrance Pages: 1 -->
<svg width="674pt" height="639pt"
 viewBox="0.00 0.00 673.51 639.00" xmlns="http://www.w3.org/2000/svg" xmlns:xlink="http://www.w3.org/1999/xlink">
<g id="graph0" class="graph" transform="scale(1 1) rotate(0) translate(4 635)">
<title>SDK::AHideoutEntrance</title>
<!-- Node1 -->
<g id="node1" class="node"><title>Node1</title>
<g id="a_node1"><a xlink:title=" ">
<polygon fill="#bfbfbf" stroke="black" points="273.512,-0.5 273.512,-68.5 395.512,-68.5 395.512,-0.5 273.512,-0.5"/>
<text text-anchor="middle" x="334.512" y="-56.5" font-family="Helvetica,sans-Serif" font-size="10.00">SDK::AHideoutEntrance</text>
<polyline fill="none" stroke="black" points="273.512,-49.5 395.512,-49.5 "/>
<text text-anchor="middle" x="334.512" y="-37.5" font-family="Helvetica,sans-Serif" font-size="10.00"> </text>
<polyline fill="none" stroke="black" points="273.512,-30.5 395.512,-30.5 "/>
<text text-anchor="start" x="281.512" y="-18.5" font-family="Helvetica,sans-Serif" font-size="10.00">+ OnBeginOverlap()</text>
<text text-anchor="start" x="281.512" y="-7.5" font-family="Helvetica,sans-Serif" font-size="10.00">+ StaticClass()</text>
</a>
</g>
</g>
<!-- Node2 -->
<g id="node2" class="node"><title>Node2</title>
<g id="a_node2"><a xlink:href="a26555.html" target="_top" xlink:title=" ">
<polygon fill="none" stroke="red" points="139.012,-116.5 139.012,-415.5 306.012,-415.5 306.012,-116.5 139.012,-116.5"/>
<text text-anchor="middle" x="222.512" y="-403.5" font-family="Helvetica,sans-Serif" font-size="10.00">SDK::AActor</text>
<polyline fill="none" stroke="red" points="139.012,-396.5 306.012,-396.5 "/>
<text text-anchor="start" x="147.012" y="-384.5" font-family="Helvetica,sans-Serif" font-size="10.00">+ bAllowRemovalFromServerWhen</text>
<text text-anchor="start" x="147.012" y="-373.5" font-family="Helvetica,sans-Serif" font-size="10.00">CollisionMerged</text>
<text text-anchor="start" x="147.012" y="-362.5" font-family="Helvetica,sans-Serif" font-size="10.00">+ bHidden</text>
<text text-anchor="start" x="147.012" y="-351.5" font-family="Helvetica,sans-Serif" font-size="10.00">+ bNetStartup</text>
<text text-anchor="start" x="147.012" y="-340.5" font-family="Helvetica,sans-Serif" font-size="10.00">+ bOnlyRelevantToOwner</text>
<text text-anchor="start" x="147.012" y="-329.5" font-family="Helvetica,sans-Serif" font-size="10.00">+ bAlwaysRelevant</text>
<text text-anchor="start" x="147.012" y="-318.5" font-family="Helvetica,sans-Serif" font-size="10.00">+ bReplicateMovement</text>
<text text-anchor="start" x="147.012" y="-307.5" font-family="Helvetica,sans-Serif" font-size="10.00">+ bExchangedRoles</text>
<text text-anchor="start" x="147.012" y="-296.5" font-family="Helvetica,sans-Serif" font-size="10.00">+ bNetLoadOnClient</text>
<text text-anchor="start" x="147.012" y="-285.5" font-family="Helvetica,sans-Serif" font-size="10.00">+ bBlockInput</text>
<text text-anchor="start" x="147.012" y="-274.5" font-family="Helvetica,sans-Serif" font-size="10.00">+ UnknownData00</text>
<text text-anchor="start" x="147.012" y="-263.5" font-family="Helvetica,sans-Serif" font-size="10.00">and 26 more...</text>
<polyline fill="none" stroke="red" points="139.012,-256.5 306.012,-256.5 "/>
<text text-anchor="start" x="147.012" y="-244.5" font-family="Helvetica,sans-Serif" font-size="10.00">+ UserConstructionScript()</text>
<text text-anchor="start" x="147.012" y="-233.5" font-family="Helvetica,sans-Serif" font-size="10.00">+ TearOff()</text>
<text text-anchor="start" x="147.012" y="-222.5" font-family="Helvetica,sans-Serif" font-size="10.00">+ SnapRootComponentTo()</text>
<text text-anchor="start" x="147.012" y="-211.5" font-family="Helvetica,sans-Serif" font-size="10.00">+ SetTickGroup()</text>
<text text-anchor="start" x="147.012" y="-200.5" font-family="Helvetica,sans-Serif" font-size="10.00">+ SetTickableWhenPaused()</text>
<text text-anchor="start" x="147.012" y="-189.5" font-family="Helvetica,sans-Serif" font-size="10.00">+ SetReplicates()</text>
<text text-anchor="start" x="147.012" y="-178.5" font-family="Helvetica,sans-Serif" font-size="10.00">+ SetReplicateMovement()</text>
<text text-anchor="start" x="147.012" y="-167.5" font-family="Helvetica,sans-Serif" font-size="10.00">+ SetOwner()</text>
<text text-anchor="start" x="147.012" y="-156.5" font-family="Helvetica,sans-Serif" font-size="10.00">+ SetLifeSpan()</text>
<text text-anchor="start" x="147.012" y="-145.5" font-family="Helvetica,sans-Serif" font-size="10.00">+ SetIgnoreNetTransformUpdates()</text>
<text text-anchor="start" x="147.012" y="-134.5" font-family="Helvetica,sans-Serif" font-size="10.00">and 109 more...</text>
<text text-anchor="start" x="147.012" y="-123.5" font-family="Helvetica,sans-Serif" font-size="10.00">+ StaticClass()</text>
</a>
</g>
</g>
<!-- Node2&#45;&gt;Node1 -->
<g id="edge1" class="edge"><title>Node2&#45;&gt;Node1</title>
<path fill="none" stroke="midnightblue" d="M299.436,-107.375C306.422,-93.0585 312.901,-79.7823 318.341,-68.6357"/>
<polygon fill="none" stroke="midnightblue" points="296.265,-105.891 295.025,-116.413 302.556,-108.961 296.265,-105.891"/>
</g>
<!-- Node2&#45;&gt;Node2 -->
<g id="edge3" class="edge"><title>Node2&#45;&gt;Node2</title>
<path fill="none" stroke="#404040" d="M306.132,-294.264C316.899,-289.363 324.012,-279.941 324.012,-266 324.012,-257.069 321.093,-249.993 316.164,-244.771"/>
<polygon fill="none" stroke="#404040" points="315.957,-244.626 308.748,-244.456 306.132,-237.736 313.341,-237.906 315.957,-244.626"/>
<text text-anchor="middle" x="342.512" y="-263.5" font-family="Helvetica,sans-Serif" font-size="10.00"> +Owner</text>
</g>
<!-- Node12 -->
<g id="node3" class="node"><title>Node12</title>
<g id="a_node3"><a xlink:title=" ">
<polygon fill="none" stroke="#bfbfbf" points="205.012,-573.5 205.012,-630.5 240.012,-630.5 240.012,-573.5 205.012,-573.5"/>
<text text-anchor="middle" x="222.512" y="-618.5" font-family="Helvetica,sans-Serif" font-size="10.00">char</text>
<polyline fill="none" stroke="#bfbfbf" points="205.012,-611.5 240.012,-611.5 "/>
<text text-anchor="middle" x="222.512" y="-599.5" font-family="Helvetica,sans-Serif" font-size="10.00"> </text>
<polyline fill="none" stroke="#bfbfbf" points="205.012,-592.5 240.012,-592.5 "/>
<text text-anchor="middle" x="222.512" y="-580.5" font-family="Helvetica,sans-Serif" font-size="10.00"> </text>
</a>
</g>
</g>
<!-- Node12&#45;&gt;Node1 -->
<g id="edge4" class="edge"><title>Node12&#45;&gt;Node1</title>
<path fill="none" stroke="#404040" d="M204.818,-589.286C167.486,-563.365 81.4788,-496.987 49.5119,-416 0.558253,-291.979 -30.9412,-222.325 49.5119,-116 75.0425,-82.2592 185.548,-58.6293 261.212,-46.056"/>
<polygon fill="none" stroke="#404040" points="261.659,-45.9834 266.94,-41.073 273.504,-44.0591 268.223,-48.9695 261.659,-45.9834"/>
<text text-anchor="middle" x="89.5119" y="-263.5" font-family="Helvetica,sans-Serif" font-size="10.00"> +UnknownData00</text>
</g>
<!-- Node12&#45;&gt;Node2 -->
<g id="edge2" class="edge"><title>Node12&#45;&gt;Node2</title>
<path fill="none" stroke="#404040" d="M222.512,-573.383C222.512,-540.767 222.512,-483.839 222.512,-427.836"/>
<polygon fill="none" stroke="#404040" points="222.512,-427.534 218.512,-421.534 222.512,-415.534 226.512,-421.534 222.512,-427.534"/>
<text text-anchor="middle" x="288.512" y="-547" font-family="Helvetica,sans-Serif" font-size="10.00"> +bEnableAutoLODGeneration</text>
<text text-anchor="middle" x="288.512" y="-536" font-family="Helvetica,sans-Serif" font-size="10.00">+UnknownData01</text>
<text text-anchor="middle" x="288.512" y="-525" font-family="Helvetica,sans-Serif" font-size="10.00">+bNetUseOwnerRelevancy</text>
<text text-anchor="middle" x="288.512" y="-514" font-family="Helvetica,sans-Serif" font-size="10.00">+bTearOff</text>
<text text-anchor="middle" x="288.512" y="-503" font-family="Helvetica,sans-Serif" font-size="10.00">+bNetTemporary</text>
<text text-anchor="middle" x="288.512" y="-492" font-family="Helvetica,sans-Serif" font-size="10.00">+UnknownData02</text>
<text text-anchor="middle" x="288.512" y="-481" font-family="Helvetica,sans-Serif" font-size="10.00">+bCanBeInCluster</text>
<text text-anchor="middle" x="288.512" y="-470" font-family="Helvetica,sans-Serif" font-size="10.00">+bPendingNetUpdate</text>
<text text-anchor="middle" x="288.512" y="-459" font-family="Helvetica,sans-Serif" font-size="10.00">+UnknownData10</text>
<text text-anchor="middle" x="288.512" y="-448" font-family="Helvetica,sans-Serif" font-size="10.00">+UnknownData03</text>
<text text-anchor="middle" x="288.512" y="-437" font-family="Helvetica,sans-Serif" font-size="10.00">...</text>
</g>
<!-- Node179 -->
<g id="node5" class="node"><title>Node179</title>
<g id="a_node5"><a xlink:href="a27655.html" target="_top" xlink:title=" ">
<polygon fill="none" stroke="red" points="379.512,-221 379.512,-311 513.512,-311 513.512,-221 379.512,-221"/>
<text text-anchor="middle" x="446.512" y="-299" font-family="Helvetica,sans-Serif" font-size="10.00">SDK::UBoxComponent</text>
<polyline fill="none" stroke="red" points="379.512,-292 513.512,-292 "/>
<text text-anchor="middle" x="446.512" y="-280" font-family="Helvetica,sans-Serif" font-size="10.00"> </text>
<polyline fill="none" stroke="red" points="379.512,-273 513.512,-273 "/>
<text text-anchor="start" x="387.512" y="-261" font-family="Helvetica,sans-Serif" font-size="10.00">+ SetBoxExtent()</text>
<text text-anchor="start" x="387.512" y="-250" font-family="Helvetica,sans-Serif" font-size="10.00">+ GetUnscaledBoxExtent()</text>
<text text-anchor="start" x="387.512" y="-239" font-family="Helvetica,sans-Serif" font-size="10.00">+ GetScaledBoxExtent()</text>
<text text-anchor="start" x="387.512" y="-228" font-family="Helvetica,sans-Serif" font-size="10.00">+ StaticClass()</text>
</a>
</g>
</g>
<!-- Node12&#45;&gt;Node179 -->
<g id="edge7" class="edge"><title>Node12&#45;&gt;Node179</title>
<path fill="none" stroke="#404040" d="M240.213,-600.024C269.058,-597.474 326.219,-588.264 358.512,-555 419.711,-491.962 438.483,-387.584 444.159,-323.303"/>
<polygon fill="none" stroke="#404040" points="444.185,-322.969 440.669,-316.673 445.128,-311.006 448.644,-317.302 444.185,-322.969"/>
<text text-anchor="middle" x="464.512" y="-492" font-family="Helvetica,sans-Serif" font-size="10.00"> +UnknownData00</text>
</g>
<!-- Node178 -->
<g id="node4" class="node"><title>Node178</title>
<g id="a_node4"><a xlink:href="a25823.html" target="_top" xlink:title=" ">
<polygon fill="none" stroke="black" points="531.512,-210 531.512,-322 665.512,-322 665.512,-210 531.512,-210"/>
<text text-anchor="start" x="539.512" y="-310" font-family="Helvetica,sans-Serif" font-size="10.00">SDK::TArray&lt; class</text>
<text text-anchor="middle" x="598.512" y="-299" font-family="Helvetica,sans-Serif" font-size="10.00"> SDK::ASpawnLocation * &gt;</text>
<polyline fill="none" stroke="black" points="531.512,-292 665.512,-292 "/>
<text text-anchor="middle" x="598.512" y="-280" font-family="Helvetica,sans-Serif" font-size="10.00"> </text>
<polyline fill="none" stroke="black" points="531.512,-273 665.512,-273 "/>
<text text-anchor="start" x="539.512" y="-261" font-family="Helvetica,sans-Serif" font-size="10.00">+ TArray()</text>
<text text-anchor="start" x="539.512" y="-250" font-family="Helvetica,sans-Serif" font-size="10.00">+ Num()</text>
<text text-anchor="start" x="539.512" y="-239" font-family="Helvetica,sans-Serif" font-size="10.00">+ operator[]()</text>
<text text-anchor="start" x="539.512" y="-228" font-family="Helvetica,sans-Serif" font-size="10.00">+ operator[]()</text>
<text text-anchor="start" x="539.512" y="-217" font-family="Helvetica,sans-Serif" font-size="10.00">+ IsValidIndex()</text>
</a>
</g>
</g>
<!-- Node178&#45;&gt;Node1 -->
<g id="edge5" class="edge"><title>Node178&#45;&gt;Node1</title>
<path fill="none" stroke="#404040" d="M578.495,-209.849C565.7,-179.79 546.908,-143.268 522.512,-116 492.626,-82.5958 446.499,-62.5611 407.415,-50.8333"/>
<polygon fill="none" stroke="#404040" points="407.345,-50.8134 400.479,-53.0169 395.804,-47.5264 402.67,-45.3229 407.345,-50.8134"/>
<text text-anchor="middle" x="562.012" y="-90" font-family="Helvetica,sans-Serif" font-size="10.00"> +HideoutExitSpawnPoints</text>
</g>
<!-- Node179&#45;&gt;Node1 -->
<g id="edge6" class="edge"><title>Node179&#45;&gt;Node1</title>
<path fill="none" stroke="#404040" d="M424.917,-220.75C405.104,-180.151 375.909,-120.327 356.098,-79.7331"/>
<polygon fill="none" stroke="#404040" points="356.038,-79.6096 349.812,-75.9718 350.775,-68.8253 357.001,-72.4631 356.038,-79.6096"/>
<text text-anchor="middle" x="420.012" y="-90" font-family="Helvetica,sans-Serif" font-size="10.00"> +TriggerZoneComponent</text>
</g>
</g>
</svg>
