<?xml version="1.0" encoding="UTF-8" standalone="no"?>
<!DOCTYPE svg PUBLIC "-//W3C//DTD SVG 1.1//EN"
 "http://www.w3.org/Graphics/SVG/1.1/DTD/svg11.dtd">
<!-- Generated by graphviz version 2.38.0 (20140413.2041)
 -->
<!-- Title: SDK::AShipInteractableLightMock Pages: 1 -->
<svg width="172pt" height="259pt"
 viewBox="0.00 0.00 172.00 259.00" xmlns="http://www.w3.org/2000/svg" xmlns:xlink="http://www.w3.org/1999/xlink">
<g id="graph0" class="graph" transform="scale(1 1) rotate(0) translate(4 255)">
<title>SDK::AShipInteractableLightMock</title>
<!-- Node1 -->
<g id="node1" class="node"><title>Node1</title>
<g id="a_node1"><a xlink:title=" ">
<polygon fill="#bfbfbf" stroke="black" points="0,-0.5 0,-57.5 164,-57.5 164,-0.5 0,-0.5"/>
<text text-anchor="middle" x="82" y="-45.5" font-family="Helvetica,sans-Serif" font-size="10.00">SDK::AShipInteractableLightMock</text>
<polyline fill="none" stroke="black" points="0,-38.5 164,-38.5 "/>
<text text-anchor="middle" x="82" y="-26.5" font-family="Helvetica,sans-Serif" font-size="10.00"> </text>
<polyline fill="none" stroke="black" points="0,-19.5 164,-19.5 "/>
<text text-anchor="start" x="8" y="-7.5" font-family="Helvetica,sans-Serif" font-size="10.00">+ StaticClass()</text>
</a>
</g>
</g>
<!-- Node2 -->
<g id="node2" class="node"><title>Node2</title>
<g id="a_node2"><a xlink:href="a05735.html" target="_top" xlink:title=" ">
<polygon fill="none" stroke="red" points="12,-94.5 12,-250.5 152,-250.5 152,-94.5 12,-94.5"/>
<text text-anchor="middle" x="82" y="-238.5" font-family="Helvetica,sans-Serif" font-size="10.00">SDK::AShipInteractableLight</text>
<polyline fill="none" stroke="red" points="12,-231.5 152,-231.5 "/>
<text text-anchor="start" x="20" y="-219.5" font-family="Helvetica,sans-Serif" font-size="10.00">+ UnknownData00</text>
<text text-anchor="start" x="20" y="-208.5" font-family="Helvetica,sans-Serif" font-size="10.00">+ DormantShipRegions</text>
<text text-anchor="start" x="20" y="-197.5" font-family="Helvetica,sans-Serif" font-size="10.00">+ IsBrigLight</text>
<text text-anchor="start" x="20" y="-186.5" font-family="Helvetica,sans-Serif" font-size="10.00">+ ExposeToNetProxy</text>
<text text-anchor="start" x="20" y="-175.5" font-family="Helvetica,sans-Serif" font-size="10.00">+ UnknownData01</text>
<text text-anchor="start" x="20" y="-164.5" font-family="Helvetica,sans-Serif" font-size="10.00">+ NetProxyBitIndex</text>
<text text-anchor="start" x="20" y="-153.5" font-family="Helvetica,sans-Serif" font-size="10.00">+ UnknownData02</text>
<text text-anchor="start" x="20" y="-142.5" font-family="Helvetica,sans-Serif" font-size="10.00">+ Ship</text>
<text text-anchor="start" x="20" y="-131.5" font-family="Helvetica,sans-Serif" font-size="10.00">+ SiblingLights</text>
<text text-anchor="start" x="20" y="-120.5" font-family="Helvetica,sans-Serif" font-size="10.00">+ UnknownData03</text>
<polyline fill="none" stroke="red" points="12,-113.5 152,-113.5 "/>
<text text-anchor="start" x="20" y="-101.5" font-family="Helvetica,sans-Serif" font-size="10.00">+ StaticClass()</text>
</a>
</g>
</g>
<!-- Node2&#45;&gt;Node1 -->
<g id="edge1" class="edge"><title>Node2&#45;&gt;Node1</title>
<path fill="none" stroke="midnightblue" d="M82,-83.8376C82,-74.4771 82,-65.5362 82,-57.7238"/>
<polygon fill="none" stroke="midnightblue" points="78.5001,-84.1258 82,-94.1258 85.5001,-84.1259 78.5001,-84.1258"/>
</g>
</g>
</svg>
