<?xml version="1.0" encoding="UTF-8" standalone="no"?>
<!DOCTYPE svg PUBLIC "-//W3C//DTD SVG 1.1//EN"
 "http://www.w3.org/Graphics/SVG/1.1/DTD/svg11.dtd">
<!-- Generated by graphviz version 2.38.0 (20140413.2041)
 -->
<!-- Title: SDK::UItemLoadoutComponent Pages: 1 -->
<!--zoomable 661 -->
<svg id="main" version="1.1" xmlns="http://www.w3.org/2000/svg" xmlns:xlink="http://www.w3.org/1999/xlink" xml:space="preserve" onload="init(evt)">
<style type="text/css"><![CDATA[
.edge:hover path { stroke: red; }
.edge:hover polygon { stroke: red; fill: red; }
]]></style>
<script type="text/javascript"><![CDATA[
var edges = document.getElementsByTagName('g');
if (edges && edges.length) {
  for (var i=0;i<edges.length;i++) {
    if (edges[i].id.substr(0,4)=='edge') {
      edges[i].setAttribute('class','edge');
    }
  }
}
]]></script>
        <defs>
                <circle id="rim" cx="0" cy="0" r="7"/>
                <circle id="rim2" cx="0" cy="0" r="3.5"/>
                <g id="zoomPlus">
                        <use xlink:href="#rim" fill="#404040">
                                <set attributeName="fill" to="#808080" begin="zoomplus.mouseover" end="zoomplus.mouseout"/>
                        </use>
                        <path d="M-4,0h8M0,-4v8" fill="none" stroke="white" stroke-width="1.5" pointer-events="none"/>
                </g>
                <g id="zoomMin">
                        <use xlink:href="#rim" fill="#404040">
                                <set attributeName="fill" to="#808080" begin="zoomminus.mouseover" end="zoomminus.mouseout"/>
                        </use>
                        <path d="M-4,0h8" fill="none" stroke="white" stroke-width="1.5" pointer-events="none"/>
                </g>
                <g id="dirArrow">
                        <path fill="none" stroke="white" stroke-width="1.5" d="M0,-3.0v7 M-2.5,-0.5L0,-3.0L2.5,-0.5"/>
                </g>
               <g id="resetDef">
                       <use xlink:href="#rim2" fill="#404040">
                               <set attributeName="fill" to="#808080" begin="reset.mouseover" end="reset.mouseout"/>
                       </use>
               </g>
        </defs>

<script type="text/javascript">
var viewWidth = 868;
var viewHeight = 661;
var sectionId = 'dynsection-1';
</script>
<script xlink:href="svgpan.js"/>
<svg id="graph" class="graph">
<g id="viewport">
<title>SDK::UItemLoadoutComponent</title>
<!-- Node1 -->
<g id="node1" class="node"><title>Node1</title>
<g id="a_node1"><a xlink:title=" ">
<polygon fill="#bfbfbf" stroke="black" points="330.661,-0.5 330.661,-79.5 482.661,-79.5 482.661,-0.5 330.661,-0.5"/>
<text text-anchor="middle" x="406.661" y="-67.5" font-family="Helvetica,sans-Serif" font-size="10.00">SDK::UItemLoadoutComponent</text>
<polyline fill="none" stroke="black" points="330.661,-60.5 482.661,-60.5 "/>
<text text-anchor="middle" x="406.661" y="-48.5" font-family="Helvetica,sans-Serif" font-size="10.00"> </text>
<polyline fill="none" stroke="black" points="330.661,-41.5 482.661,-41.5 "/>
<text text-anchor="start" x="338.661" y="-29.5" font-family="Helvetica,sans-Serif" font-size="10.00">+ OnRep_Slots()</text>
<text text-anchor="start" x="338.661" y="-18.5" font-family="Helvetica,sans-Serif" font-size="10.00">+ OnItemDestroyed()</text>
<text text-anchor="start" x="338.661" y="-7.5" font-family="Helvetica,sans-Serif" font-size="10.00">+ StaticClass()</text>
</a>
</g>
</g>
<!-- Node2 -->
<g id="node2" class="node"><title>Node2</title>
<g id="a_node2"><a xlink:href="a26551.html" target="_top" xlink:title=" ">
<polygon fill="none" stroke="red" points="137.161,-127.5 137.161,-371.5 322.161,-371.5 322.161,-127.5 137.161,-127.5"/>
<text text-anchor="middle" x="229.661" y="-359.5" font-family="Helvetica,sans-Serif" font-size="10.00">SDK::UActorComponent</text>
<polyline fill="none" stroke="red" points="137.161,-352.5 322.161,-352.5 "/>
<text text-anchor="start" x="145.161" y="-340.5" font-family="Helvetica,sans-Serif" font-size="10.00">+ UnknownData00</text>
<text text-anchor="start" x="145.161" y="-329.5" font-family="Helvetica,sans-Serif" font-size="10.00">+ bReplicates</text>
<text text-anchor="start" x="145.161" y="-318.5" font-family="Helvetica,sans-Serif" font-size="10.00">+ bNetAddressable</text>
<text text-anchor="start" x="145.161" y="-307.5" font-family="Helvetica,sans-Serif" font-size="10.00">+ bInstanceComponent</text>
<text text-anchor="start" x="145.161" y="-296.5" font-family="Helvetica,sans-Serif" font-size="10.00">+ bAutoActivate</text>
<text text-anchor="start" x="145.161" y="-285.5" font-family="Helvetica,sans-Serif" font-size="10.00">+ bIsActive</text>
<text text-anchor="start" x="145.161" y="-274.5" font-family="Helvetica,sans-Serif" font-size="10.00">+ bNeedsLoadForServer</text>
<polyline fill="none" stroke="red" points="137.161,-267.5 322.161,-267.5 "/>
<text text-anchor="start" x="145.161" y="-255.5" font-family="Helvetica,sans-Serif" font-size="10.00">+ ToggleActive()</text>
<text text-anchor="start" x="145.161" y="-244.5" font-family="Helvetica,sans-Serif" font-size="10.00">+ SetTickGroup()</text>
<text text-anchor="start" x="145.161" y="-233.5" font-family="Helvetica,sans-Serif" font-size="10.00">+ SetTickableWhenPaused()</text>
<text text-anchor="start" x="145.161" y="-222.5" font-family="Helvetica,sans-Serif" font-size="10.00">+ SetIsReplicated()</text>
<text text-anchor="start" x="145.161" y="-211.5" font-family="Helvetica,sans-Serif" font-size="10.00">+ SetComponentTickEnabled()</text>
<text text-anchor="start" x="145.161" y="-200.5" font-family="Helvetica,sans-Serif" font-size="10.00">+ SetActive()</text>
<text text-anchor="start" x="145.161" y="-189.5" font-family="Helvetica,sans-Serif" font-size="10.00">+ RemoveTickPrerequisiteComponent()</text>
<text text-anchor="start" x="145.161" y="-178.5" font-family="Helvetica,sans-Serif" font-size="10.00">+ RemoveTickPrerequisiteActor()</text>
<text text-anchor="start" x="145.161" y="-167.5" font-family="Helvetica,sans-Serif" font-size="10.00">+ ReceiveTick()</text>
<text text-anchor="start" x="145.161" y="-156.5" font-family="Helvetica,sans-Serif" font-size="10.00">+ ReceiveEndPlay()</text>
<text text-anchor="start" x="145.161" y="-145.5" font-family="Helvetica,sans-Serif" font-size="10.00">and 12 more...</text>
<text text-anchor="start" x="145.161" y="-134.5" font-family="Helvetica,sans-Serif" font-size="10.00">+ StaticClass()</text>
</a>
</g>
</g>
<!-- Node2&#45;&gt;Node1 -->
<g id="edge1" class="edge"><title>Node2&#45;&gt;Node1</title>
<path fill="none" stroke="midnightblue" d="M325.882,-119.402C332.106,-112.051 338.393,-104.866 344.661,-98 350.28,-91.845 356.471,-85.6051 362.7,-79.6232"/>
<polygon fill="none" stroke="midnightblue" points="322.892,-117.52 319.156,-127.435 328.259,-122.014 322.892,-117.52"/>
</g>
<!-- Node12 -->
<g id="node3" class="node"><title>Node12</title>
<g id="a_node3"><a xlink:title=" ">
<polygon fill="none" stroke="#bfbfbf" points="77.1611,-568 77.1611,-625 112.161,-625 112.161,-568 77.1611,-568"/>
<text text-anchor="middle" x="94.6611" y="-613" font-family="Helvetica,sans-Serif" font-size="10.00">char</text>
<polyline fill="none" stroke="#bfbfbf" points="77.1611,-606 112.161,-606 "/>
<text text-anchor="middle" x="94.6611" y="-594" font-family="Helvetica,sans-Serif" font-size="10.00"> </text>
<polyline fill="none" stroke="#bfbfbf" points="77.1611,-587 112.161,-587 "/>
<text text-anchor="middle" x="94.6611" y="-575" font-family="Helvetica,sans-Serif" font-size="10.00"> </text>
</a>
</g>
</g>
<!-- Node12&#45;&gt;Node1 -->
<g id="edge7" class="edge"><title>Node12&#45;&gt;Node1</title>
<path fill="none" stroke="#404040" d="M79.9334,-567.771C40.3731,-489.064 -58.2692,-261.303 47.6611,-127 80.7752,-85.0164 223.244,-61.2258 318.443,-49.7485"/>
<polygon fill="none" stroke="#404040" points="318.468,-49.7456 323.959,-45.0717 330.386,-48.3429 324.894,-53.0168 318.468,-49.7456"/>
<text text-anchor="middle" x="87.6611" y="-258" font-family="Helvetica,sans-Serif" font-size="10.00"> +UnknownData01</text>
<text text-anchor="middle" x="87.6611" y="-247" font-family="Helvetica,sans-Serif" font-size="10.00">+UnknownData02</text>
<text text-anchor="middle" x="87.6611" y="-236" font-family="Helvetica,sans-Serif" font-size="10.00">+UnknownData00</text>
</g>
<!-- Node12&#45;&gt;Node2 -->
<g id="edge2" class="edge"><title>Node12&#45;&gt;Node2</title>
<path fill="none" stroke="#404040" d="M105.481,-567.85C121.157,-527.788 151.229,-450.939 177.852,-382.9"/>
<polygon fill="none" stroke="#404040" points="177.891,-382.802 176.352,-375.757 182.264,-371.627 183.802,-378.672 177.891,-382.802"/>
<text text-anchor="middle" x="230.661" y="-514" font-family="Helvetica,sans-Serif" font-size="10.00"> +UnknownData01</text>
<text text-anchor="middle" x="230.661" y="-503" font-family="Helvetica,sans-Serif" font-size="10.00">+UnknownData02</text>
<text text-anchor="middle" x="230.661" y="-492" font-family="Helvetica,sans-Serif" font-size="10.00">+UnknownData03</text>
<text text-anchor="middle" x="230.661" y="-481" font-family="Helvetica,sans-Serif" font-size="10.00">+UnknownData04</text>
<text text-anchor="middle" x="230.661" y="-470" font-family="Helvetica,sans-Serif" font-size="10.00">+UnknownData05</text>
<text text-anchor="start" x="174.661" y="-459" font-family="Helvetica,sans-Serif" font-size="10.00">+bCreatedByConstruction</text>
<text text-anchor="middle" x="230.661" y="-448" font-family="Helvetica,sans-Serif" font-size="10.00">Script</text>
<text text-anchor="middle" x="230.661" y="-437" font-family="Helvetica,sans-Serif" font-size="10.00">+UnknownData06</text>
<text text-anchor="middle" x="230.661" y="-426" font-family="Helvetica,sans-Serif" font-size="10.00">+UnknownData07</text>
<text text-anchor="middle" x="230.661" y="-415" font-family="Helvetica,sans-Serif" font-size="10.00">+bEditableWhenInherited</text>
<text text-anchor="middle" x="230.661" y="-404" font-family="Helvetica,sans-Serif" font-size="10.00">+bNeedsLoadForClient</text>
<text text-anchor="middle" x="230.661" y="-393" font-family="Helvetica,sans-Serif" font-size="10.00">...</text>
</g>
<!-- Node22 -->
<g id="node4" class="node"><title>Node22</title>
<g id="a_node4"><a xlink:href="a14671.html" target="_top" xlink:title=" ">
<polygon fill="none" stroke="red" points="515.661,-215.5 515.661,-283.5 667.661,-283.5 667.661,-215.5 515.661,-215.5"/>
<text text-anchor="start" x="523.661" y="-271.5" font-family="Helvetica,sans-Serif" font-size="10.00">SDK::FItemLoadoutComponent</text>
<text text-anchor="middle" x="591.661" y="-260.5" font-family="Helvetica,sans-Serif" font-size="10.00">Slots</text>
<polyline fill="none" stroke="red" points="515.661,-253.5 667.661,-253.5 "/>
<text text-anchor="middle" x="591.661" y="-241.5" font-family="Helvetica,sans-Serif" font-size="10.00"> </text>
<polyline fill="none" stroke="red" points="515.661,-234.5 667.661,-234.5 "/>
<text text-anchor="middle" x="591.661" y="-222.5" font-family="Helvetica,sans-Serif" font-size="10.00"> </text>
</a>
</g>
</g>
<!-- Node22&#45;&gt;Node1 -->
<g id="edge3" class="edge"><title>Node22&#45;&gt;Node1</title>
<path fill="none" stroke="#404040" d="M569.811,-215.427C552.526,-190.193 527.135,-155.106 501.661,-127 489.522,-113.607 475.519,-100.052 462.058,-87.7876"/>
<polygon fill="none" stroke="#404040" points="461.782,-87.5398 454.645,-86.5061 452.855,-79.5208 459.991,-80.5546 461.782,-87.5398"/>
<text text-anchor="middle" x="516.161" y="-101" font-family="Helvetica,sans-Serif" font-size="10.00"> +LoadoutSlots</text>
</g>
<!-- Node24 -->
<g id="node5" class="node"><title>Node24</title>
<g id="a_node5"><a xlink:href="a25823.html" target="_top" xlink:title=" ">
<polygon fill="none" stroke="black" points="539.661,-540.5 539.661,-652.5 643.661,-652.5 643.661,-540.5 539.661,-540.5"/>
<text text-anchor="start" x="547.661" y="-640.5" font-family="Helvetica,sans-Serif" font-size="10.00">SDK::TArray&lt; class</text>
<text text-anchor="middle" x="591.661" y="-629.5" font-family="Helvetica,sans-Serif" font-size="10.00"> SDK::UClass * &gt;</text>
<polyline fill="none" stroke="black" points="539.661,-622.5 643.661,-622.5 "/>
<text text-anchor="middle" x="591.661" y="-610.5" font-family="Helvetica,sans-Serif" font-size="10.00"> </text>
<polyline fill="none" stroke="black" points="539.661,-603.5 643.661,-603.5 "/>
<text text-anchor="start" x="547.661" y="-591.5" font-family="Helvetica,sans-Serif" font-size="10.00">+ TArray()</text>
<text text-anchor="start" x="547.661" y="-580.5" font-family="Helvetica,sans-Serif" font-size="10.00">+ Num()</text>
<text text-anchor="start" x="547.661" y="-569.5" font-family="Helvetica,sans-Serif" font-size="10.00">+ operator[]()</text>
<text text-anchor="start" x="547.661" y="-558.5" font-family="Helvetica,sans-Serif" font-size="10.00">+ operator[]()</text>
<text text-anchor="start" x="547.661" y="-547.5" font-family="Helvetica,sans-Serif" font-size="10.00">+ IsValidIndex()</text>
</a>
</g>
</g>
<!-- Node24&#45;&gt;Node1 -->
<g id="edge9" class="edge"><title>Node24&#45;&gt;Node1</title>
<path fill="none" stroke="#404040" d="M539.541,-562.244C484.907,-523.953 402.291,-455.471 367.661,-372 325.935,-271.423 344.656,-233.431 367.661,-127 370.285,-114.862 374.77,-102.377 379.786,-90.8138"/>
<polygon fill="none" stroke="#404040" points="379.925,-90.5112 378.792,-83.3897 384.93,-79.6046 386.063,-86.7261 379.925,-90.5112"/>
<text text-anchor="middle" x="437.161" y="-247" font-family="Helvetica,sans-Serif" font-size="10.00"> +WeaponSlots_ClientPredicted</text>
</g>
<!-- Node24&#45;&gt;Node22 -->
<g id="edge4" class="edge"><title>Node24&#45;&gt;Node22</title>
<path fill="none" stroke="#404040" d="M591.661,-540.452C591.661,-472.82 591.661,-359.316 591.661,-296.25"/>
<polygon fill="none" stroke="#404040" points="591.661,-295.965 587.661,-289.965 591.661,-283.965 595.661,-289.965 591.661,-295.965"/>
<text text-anchor="middle" x="625.661" y="-453.5" font-family="Helvetica,sans-Serif" font-size="10.00"> +WeaponSlots</text>
</g>
<!-- Node25 -->
<g id="node6" class="node"><title>Node25</title>
<g id="a_node6"><a xlink:href="a00579.html" target="_top" xlink:title=" ">
<polygon fill="none" stroke="red" points="685.661,-221 685.661,-278 787.661,-278 787.661,-221 685.661,-221"/>
<text text-anchor="middle" x="736.661" y="-266" font-family="Helvetica,sans-Serif" font-size="10.00">SDK::FItemLoadout</text>
<polyline fill="none" stroke="red" points="685.661,-259 787.661,-259 "/>
<text text-anchor="middle" x="736.661" y="-247" font-family="Helvetica,sans-Serif" font-size="10.00"> </text>
<polyline fill="none" stroke="red" points="685.661,-240 787.661,-240 "/>
<text text-anchor="middle" x="736.661" y="-228" font-family="Helvetica,sans-Serif" font-size="10.00"> </text>
</a>
</g>
</g>
<!-- Node24&#45;&gt;Node25 -->
<g id="edge6" class="edge"><title>Node24&#45;&gt;Node25</title>
<path fill="none" stroke="#404040" d="M643.94,-549.001C651.341,-540.588 658.258,-531.462 663.661,-522 706.664,-446.698 725.138,-345.154 732.418,-290.058"/>
<polygon fill="none" stroke="#404040" points="732.429,-289.969 729.206,-283.518 733.921,-278.062 737.144,-284.513 732.429,-289.969"/>
<text text-anchor="middle" x="729.661" y="-453.5" font-family="Helvetica,sans-Serif" font-size="10.00"> +Items</text>
</g>
<!-- Node25&#45;&gt;Node1 -->
<g id="edge5" class="edge"><title>Node25&#45;&gt;Node1</title>
<path fill="none" stroke="#404040" d="M729.87,-220.925C721.707,-193.385 705.379,-151.696 676.661,-127 625.732,-83.2044 552.323,-61.6618 494.902,-51.0931"/>
<polygon fill="none" stroke="#404040" points="494.727,-51.0627 488.129,-53.972 482.906,-49.0004 489.504,-46.091 494.727,-51.0627"/>
<text text-anchor="middle" x="684.161" y="-101" font-family="Helvetica,sans-Serif" font-size="10.00"> +ItemLoadout</text>
</g>
<!-- Node27 -->
<g id="node7" class="node"><title>Node27</title>
<g id="a_node7"><a xlink:title=" ">
<polygon fill="none" stroke="#bfbfbf" points="806.161,-221 806.161,-278 835.161,-278 835.161,-221 806.161,-221"/>
<text text-anchor="middle" x="820.661" y="-266" font-family="Helvetica,sans-Serif" font-size="10.00">int</text>
<polyline fill="none" stroke="#bfbfbf" points="806.161,-259 835.161,-259 "/>
<text text-anchor="middle" x="820.661" y="-247" font-family="Helvetica,sans-Serif" font-size="10.00"> </text>
<polyline fill="none" stroke="#bfbfbf" points="806.161,-240 835.161,-240 "/>
<text text-anchor="middle" x="820.661" y="-228" font-family="Helvetica,sans-Serif" font-size="10.00"> </text>
</a>
</g>
</g>
<!-- Node27&#45;&gt;Node1 -->
<g id="edge8" class="edge"><title>Node27&#45;&gt;Node1</title>
<path fill="none" stroke="#404040" d="M822.451,-220.877C822.689,-193.893 818.828,-153.168 796.661,-127 758.441,-81.8813 598.021,-58.7082 495.206,-48.2663"/>
<polygon fill="none" stroke="#404040" points="494.907,-48.2368 488.542,-51.6267 482.965,-47.0554 489.33,-43.6655 494.907,-48.2368"/>
<text text-anchor="middle" x="816.161" y="-101" font-family="Helvetica,sans-Serif" font-size="10.00"> +MaxWeaponSlots</text>
</g>
</g>
</svg>
        <g id="navigator" transform="translate(0 0)" fill="#404254">
                <rect fill="#f2f5e9" fill-opacity="0.5" stroke="#606060" stroke-width=".5" x="0" y="0" width="60" height="60"/>
                <use id="zoomplus" xlink:href="#zoomPlus" x="17" y="9" onmousedown="handleZoom(evt,'in')"/>
                <use id="zoomminus" xlink:href="#zoomMin" x="42" y="9" onmousedown="handleZoom(evt,'out')"/>
                <use id="reset" xlink:href="#resetDef" x="30" y="36" onmousedown="handleReset()"/>
                <g id="arrowUp" xlink:href="#dirArrow" transform="translate(30 24)" onmousedown="handlePan(0,-1)">
                  <use xlink:href="#rim" fill="#404040">
                        <set attributeName="fill" to="#808080" begin="arrowUp.mouseover" end="arrowUp.mouseout"/>
                  </use>
                  <path fill="none" stroke="white" stroke-width="1.5" d="M0,-3.0v7 M-2.5,-0.5L0,-3.0L2.5,-0.5"/>
                </g>
                <g id="arrowRight" xlink:href="#dirArrow" transform="rotate(90) translate(36 -43)" onmousedown="handlePan(1,0)">
                  <use xlink:href="#rim" fill="#404040">
                        <set attributeName="fill" to="#808080" begin="arrowRight.mouseover" end="arrowRight.mouseout"/>
                  </use>
                  <path fill="none" stroke="white" stroke-width="1.5" d="M0,-3.0v7 M-2.5,-0.5L0,-3.0L2.5,-0.5"/>
                </g>
                <g id="arrowDown" xlink:href="#dirArrow" transform="rotate(180) translate(-30 -48)" onmousedown="handlePan(0,1)">
                  <use xlink:href="#rim" fill="#404040">
                        <set attributeName="fill" to="#808080" begin="arrowDown.mouseover" end="arrowDown.mouseout"/>
                  </use>
                  <path fill="none" stroke="white" stroke-width="1.5" d="M0,-3.0v7 M-2.5,-0.5L0,-3.0L2.5,-0.5"/>
                </g>
                <g id="arrowLeft" xlink:href="#dirArrow" transform="rotate(270) translate(-36 17)" onmousedown="handlePan(-1,0)">
                  <use xlink:href="#rim" fill="#404040">
                        <set attributeName="fill" to="#808080" begin="arrowLeft.mouseover" end="arrowLeft.mouseout"/>
                  </use>
                  <path fill="none" stroke="white" stroke-width="1.5" d="M0,-3.0v7 M-2.5,-0.5L0,-3.0L2.5,-0.5"/>
                </g>
        </g>
        <svg viewBox="0 0 15 15" width="100%" height="30px" preserveAspectRatio="xMaxYMin meet">
         <g id="arrow_out" transform="scale(0.3 0.3)">
          <a xlink:href="a05845_org.svg" target="_base">
           <rect id="button" ry="5" rx="5" y="6" x="6" height="38" width="38"
                fill="#f2f5e9" fill-opacity="0.5" stroke="#606060" stroke-width="1.0"/>
           <path id="arrow"
             d="M 11.500037,31.436501 C 11.940474,20.09759 22.043105,11.32322 32.158766,21.979434 L 37.068811,17.246167 C 37.068811,17.246167 37.088388,32 37.088388,32 L 22.160133,31.978069 C 22.160133,31.978069 26.997745,27.140456 26.997745,27.140456 C 18.528582,18.264221 13.291696,25.230495 11.500037,31.436501 z"
             style="fill:#404040;"/>
          </a>
         </g>
        </svg>
</svg>
