<?xml version="1.0" encoding="UTF-8" standalone="no"?>
<!DOCTYPE svg PUBLIC "-//W3C//DTD SVG 1.1//EN"
 "http://www.w3.org/Graphics/SVG/1.1/DTD/svg11.dtd">
<!-- Generated by graphviz version 2.38.0 (20140413.2041)
 -->
<!-- Title: SDK::UPetEntitlementDesc Pages: 1 -->
<svg width="405pt" height="193pt"
 viewBox="0.00 0.00 405.00 193.00" xmlns="http://www.w3.org/2000/svg" xmlns:xlink="http://www.w3.org/1999/xlink">
<g id="graph0" class="graph" transform="scale(1 1) rotate(0) translate(4 189)">
<title>SDK::UPetEntitlementDesc</title>
<!-- Node1 -->
<g id="node1" class="node"><title>Node1</title>
<g id="a_node1"><a xlink:title=" ">
<polygon fill="#bfbfbf" stroke="black" points="168,-0.5 168,-57.5 305,-57.5 305,-0.5 168,-0.5"/>
<text text-anchor="middle" x="236.5" y="-45.5" font-family="Helvetica,sans-Serif" font-size="10.00">SDK::UPetEntitlementDesc</text>
<polyline fill="none" stroke="black" points="168,-38.5 305,-38.5 "/>
<text text-anchor="middle" x="236.5" y="-26.5" font-family="Helvetica,sans-Serif" font-size="10.00"> </text>
<polyline fill="none" stroke="black" points="168,-19.5 305,-19.5 "/>
<text text-anchor="start" x="176" y="-7.5" font-family="Helvetica,sans-Serif" font-size="10.00">+ StaticClass()</text>
</a>
</g>
</g>
<!-- Node2 -->
<g id="node2" class="node"><title>Node2</title>
<g id="a_node2"><a xlink:href="a05911.html" target="_top" xlink:title=" ">
<polygon fill="none" stroke="red" points="0,-116.5 0,-173.5 159,-173.5 159,-116.5 0,-116.5"/>
<text text-anchor="middle" x="79.5" y="-161.5" font-family="Helvetica,sans-Serif" font-size="10.00">SDK::UPetEntitlementBaseDesc</text>
<polyline fill="none" stroke="red" points="0,-154.5 159,-154.5 "/>
<text text-anchor="middle" x="79.5" y="-142.5" font-family="Helvetica,sans-Serif" font-size="10.00"> </text>
<polyline fill="none" stroke="red" points="0,-135.5 159,-135.5 "/>
<text text-anchor="start" x="8" y="-123.5" font-family="Helvetica,sans-Serif" font-size="10.00">+ StaticClass()</text>
</a>
</g>
</g>
<!-- Node2&#45;&gt;Node1 -->
<g id="edge1" class="edge"><title>Node2&#45;&gt;Node1</title>
<path fill="none" stroke="midnightblue" d="M125.818,-110.368C148.989,-93.5433 176.683,-73.434 198.573,-57.5394"/>
<polygon fill="none" stroke="midnightblue" points="123.541,-107.696 117.505,-116.404 127.654,-113.36 123.541,-107.696"/>
</g>
<!-- Node11 -->
<g id="node3" class="node"><title>Node11</title>
<g id="a_node3"><a xlink:href="a25915.html" target="_top" xlink:title=" ">
<polygon fill="none" stroke="red" points="177,-105.5 177,-184.5 296,-184.5 296,-105.5 177,-105.5"/>
<text text-anchor="middle" x="236.5" y="-172.5" font-family="Helvetica,sans-Serif" font-size="10.00">SDK::UClass</text>
<polyline fill="none" stroke="red" points="177,-165.5 296,-165.5 "/>
<text text-anchor="middle" x="236.5" y="-153.5" font-family="Helvetica,sans-Serif" font-size="10.00"> </text>
<polyline fill="none" stroke="red" points="177,-146.5 296,-146.5 "/>
<text text-anchor="start" x="185" y="-134.5" font-family="Helvetica,sans-Serif" font-size="10.00">+ CreateDefaultObject()</text>
<text text-anchor="start" x="185" y="-123.5" font-family="Helvetica,sans-Serif" font-size="10.00">+ CreateDefaultObject()</text>
<text text-anchor="start" x="185" y="-112.5" font-family="Helvetica,sans-Serif" font-size="10.00">+ StaticClass()</text>
</a>
</g>
</g>
<!-- Node11&#45;&gt;Node1 -->
<g id="edge2" class="edge"><title>Node11&#45;&gt;Node1</title>
<path fill="none" stroke="#404040" d="M236.5,-105.405C236.5,-93.9252 236.5,-81.3299 236.5,-69.7765"/>
<polygon fill="none" stroke="#404040" points="236.5,-69.7509 232.5,-63.7509 236.5,-57.7509 240.5,-63.7508 236.5,-69.7509"/>
<text text-anchor="middle" x="276.5" y="-79" font-family="Helvetica,sans-Serif" font-size="10.00"> +RelatedPetDesc</text>
</g>
<!-- Node20 -->
<g id="node4" class="node"><title>Node20</title>
<g id="a_node4"><a xlink:href="a24759.html" target="_top" xlink:title=" ">
<polygon fill="none" stroke="red" points="314,-116.5 314,-173.5 397,-173.5 397,-116.5 314,-116.5"/>
<text text-anchor="middle" x="355.5" y="-161.5" font-family="Helvetica,sans-Serif" font-size="10.00">SDK::FAIPartId</text>
<polyline fill="none" stroke="red" points="314,-154.5 397,-154.5 "/>
<text text-anchor="middle" x="355.5" y="-142.5" font-family="Helvetica,sans-Serif" font-size="10.00"> </text>
<polyline fill="none" stroke="red" points="314,-135.5 397,-135.5 "/>
<text text-anchor="middle" x="355.5" y="-123.5" font-family="Helvetica,sans-Serif" font-size="10.00"> </text>
</a>
</g>
</g>
<!-- Node20&#45;&gt;Node1 -->
<g id="edge3" class="edge"><title>Node20&#45;&gt;Node1</title>
<path fill="none" stroke="#404040" d="M345.777,-116.477C340.006,-103.065 331.621,-87.4101 320.5,-76 316.504,-71.8996 312.062,-68.0699 307.368,-64.5124"/>
<polygon fill="none" stroke="#404040" points="307.284,-64.4539 300.074,-64.305 297.439,-57.5927 304.649,-57.7416 307.284,-64.4539"/>
<text text-anchor="middle" x="353.5" y="-79" font-family="Helvetica,sans-Serif" font-size="10.00"> +PetPartId</text>
</g>
</g>
</svg>
