<?xml version="1.0" encoding="UTF-8" standalone="no"?>
<!DOCTYPE svg PUBLIC "-//W3C//DTD SVG 1.1//EN"
 "http://www.w3.org/Graphics/SVG/1.1/DTD/svg11.dtd">
<!-- Generated by graphviz version 2.38.0 (20140413.2041)
 -->
<!-- Title: SDK::UPetEntitlementCategory Pages: 1 -->
<svg width="161pt" height="276pt"
 viewBox="0.00 0.00 161.00 276.00" xmlns="http://www.w3.org/2000/svg" xmlns:xlink="http://www.w3.org/1999/xlink">
<g id="graph0" class="graph" transform="scale(1 1) rotate(0) translate(4 272)">
<title>SDK::UPetEntitlementCategory</title>
<!-- Node1 -->
<g id="node1" class="node"><title>Node1</title>
<g id="a_node1"><a xlink:title=" ">
<polygon fill="#bfbfbf" stroke="black" points="0,-105.5 0,-162.5 153,-162.5 153,-105.5 0,-105.5"/>
<text text-anchor="middle" x="76.5" y="-150.5" font-family="Helvetica,sans-Serif" font-size="10.00">SDK::UPetEntitlementCategory</text>
<polyline fill="none" stroke="black" points="0,-143.5 153,-143.5 "/>
<text text-anchor="middle" x="76.5" y="-131.5" font-family="Helvetica,sans-Serif" font-size="10.00"> </text>
<polyline fill="none" stroke="black" points="0,-124.5 153,-124.5 "/>
<text text-anchor="start" x="8" y="-112.5" font-family="Helvetica,sans-Serif" font-size="10.00">+ StaticClass()</text>
</a>
</g>
</g>
<!-- Node6 -->
<g id="node3" class="node"><title>Node6</title>
<g id="a_node3"><a xlink:href="a05919.html" target="_top" xlink:title=" ">
<polygon fill="none" stroke="black" points="6.5,-0.5 6.5,-68.5 146.5,-68.5 146.5,-0.5 6.5,-0.5"/>
<text text-anchor="start" x="14.5" y="-56.5" font-family="Helvetica,sans-Serif" font-size="10.00">SDK::UInvalidPetEntitlement</text>
<text text-anchor="middle" x="76.5" y="-45.5" font-family="Helvetica,sans-Serif" font-size="10.00">Category</text>
<polyline fill="none" stroke="black" points="6.5,-38.5 146.5,-38.5 "/>
<text text-anchor="middle" x="76.5" y="-26.5" font-family="Helvetica,sans-Serif" font-size="10.00"> </text>
<polyline fill="none" stroke="black" points="6.5,-19.5 146.5,-19.5 "/>
<text text-anchor="start" x="14.5" y="-7.5" font-family="Helvetica,sans-Serif" font-size="10.00">+ StaticClass()</text>
</a>
</g>
</g>
<!-- Node1&#45;&gt;Node6 -->
<g id="edge2" class="edge"><title>Node1&#45;&gt;Node6</title>
<path fill="none" stroke="midnightblue" d="M76.5,-95.0631C76.5,-86.3933 76.5,-77.2431 76.5,-68.7855"/>
<polygon fill="none" stroke="midnightblue" points="73.0001,-95.3212 76.5,-105.321 80.0001,-95.3212 73.0001,-95.3212"/>
</g>
<!-- Node2 -->
<g id="node2" class="node"><title>Node2</title>
<g id="a_node2"><a xlink:href="a05903.html" target="_top" xlink:title=" ">
<polygon fill="none" stroke="red" points="8,-199.5 8,-267.5 145,-267.5 145,-199.5 8,-199.5"/>
<text text-anchor="start" x="16" y="-255.5" font-family="Helvetica,sans-Serif" font-size="10.00">SDK::UPetEntitlementBase</text>
<text text-anchor="middle" x="76.5" y="-244.5" font-family="Helvetica,sans-Serif" font-size="10.00">Category</text>
<polyline fill="none" stroke="red" points="8,-237.5 145,-237.5 "/>
<text text-anchor="middle" x="76.5" y="-225.5" font-family="Helvetica,sans-Serif" font-size="10.00"> </text>
<polyline fill="none" stroke="red" points="8,-218.5 145,-218.5 "/>
<text text-anchor="start" x="16" y="-206.5" font-family="Helvetica,sans-Serif" font-size="10.00">+ StaticClass()</text>
</a>
</g>
</g>
<!-- Node2&#45;&gt;Node1 -->
<g id="edge1" class="edge"><title>Node2&#45;&gt;Node1</title>
<path fill="none" stroke="midnightblue" d="M76.5,-189.454C76.5,-180.404 76.5,-171.088 76.5,-162.777"/>
<polygon fill="none" stroke="midnightblue" points="73.0001,-189.491 76.5,-199.491 80.0001,-189.491 73.0001,-189.491"/>
</g>
</g>
</svg>
