<?xml version="1.0" encoding="UTF-8" standalone="no"?>
<!DOCTYPE svg PUBLIC "-//W3C//DTD SVG 1.1//EN"
 "http://www.w3.org/Graphics/SVG/1.1/DTD/svg11.dtd">
<!-- Generated by graphviz version 2.38.0 (20140413.2041)
 -->
<!-- Title: SDK::ULoadableComponent Pages: 1 -->
<svg width="925pt" height="606pt"
 viewBox="0.00 0.00 924.63 606.00" xmlns="http://www.w3.org/2000/svg" xmlns:xlink="http://www.w3.org/1999/xlink">
<g id="graph0" class="graph" transform="scale(1 1) rotate(0) translate(4 602)">
<title>SDK::ULoadableComponent</title>
<!-- Node1 -->
<g id="node1" class="node"><title>Node1</title>
<g id="a_node1"><a xlink:title=" ">
<polygon fill="#bfbfbf" stroke="black" points="420.128,-0.5 420.128,-68.5 593.128,-68.5 593.128,-0.5 420.128,-0.5"/>
<text text-anchor="middle" x="506.628" y="-56.5" font-family="Helvetica,sans-Serif" font-size="10.00">SDK::ULoadableComponent</text>
<polyline fill="none" stroke="black" points="420.128,-49.5 593.128,-49.5 "/>
<text text-anchor="middle" x="506.628" y="-37.5" font-family="Helvetica,sans-Serif" font-size="10.00"> </text>
<polyline fill="none" stroke="black" points="420.128,-30.5 593.128,-30.5 "/>
<text text-anchor="start" x="428.128" y="-18.5" font-family="Helvetica,sans-Serif" font-size="10.00">+ OnRepLoadableComponentState()</text>
<text text-anchor="start" x="428.128" y="-7.5" font-family="Helvetica,sans-Serif" font-size="10.00">+ StaticClass()</text>
</a>
</g>
</g>
<!-- Node2 -->
<g id="node2" class="node"><title>Node2</title>
<g id="a_node2"><a xlink:href="a26551.html" target="_top" xlink:title=" ">
<polygon fill="none" stroke="red" points="133.128,-127.5 133.128,-371.5 318.128,-371.5 318.128,-127.5 133.128,-127.5"/>
<text text-anchor="middle" x="225.628" y="-359.5" font-family="Helvetica,sans-Serif" font-size="10.00">SDK::UActorComponent</text>
<polyline fill="none" stroke="red" points="133.128,-352.5 318.128,-352.5 "/>
<text text-anchor="start" x="141.128" y="-340.5" font-family="Helvetica,sans-Serif" font-size="10.00">+ UnknownData00</text>
<text text-anchor="start" x="141.128" y="-329.5" font-family="Helvetica,sans-Serif" font-size="10.00">+ bReplicates</text>
<text text-anchor="start" x="141.128" y="-318.5" font-family="Helvetica,sans-Serif" font-size="10.00">+ bNetAddressable</text>
<text text-anchor="start" x="141.128" y="-307.5" font-family="Helvetica,sans-Serif" font-size="10.00">+ bInstanceComponent</text>
<text text-anchor="start" x="141.128" y="-296.5" font-family="Helvetica,sans-Serif" font-size="10.00">+ bAutoActivate</text>
<text text-anchor="start" x="141.128" y="-285.5" font-family="Helvetica,sans-Serif" font-size="10.00">+ bIsActive</text>
<text text-anchor="start" x="141.128" y="-274.5" font-family="Helvetica,sans-Serif" font-size="10.00">+ bNeedsLoadForServer</text>
<polyline fill="none" stroke="red" points="133.128,-267.5 318.128,-267.5 "/>
<text text-anchor="start" x="141.128" y="-255.5" font-family="Helvetica,sans-Serif" font-size="10.00">+ ToggleActive()</text>
<text text-anchor="start" x="141.128" y="-244.5" font-family="Helvetica,sans-Serif" font-size="10.00">+ SetTickGroup()</text>
<text text-anchor="start" x="141.128" y="-233.5" font-family="Helvetica,sans-Serif" font-size="10.00">+ SetTickableWhenPaused()</text>
<text text-anchor="start" x="141.128" y="-222.5" font-family="Helvetica,sans-Serif" font-size="10.00">+ SetIsReplicated()</text>
<text text-anchor="start" x="141.128" y="-211.5" font-family="Helvetica,sans-Serif" font-size="10.00">+ SetComponentTickEnabled()</text>
<text text-anchor="start" x="141.128" y="-200.5" font-family="Helvetica,sans-Serif" font-size="10.00">+ SetActive()</text>
<text text-anchor="start" x="141.128" y="-189.5" font-family="Helvetica,sans-Serif" font-size="10.00">+ RemoveTickPrerequisiteComponent()</text>
<text text-anchor="start" x="141.128" y="-178.5" font-family="Helvetica,sans-Serif" font-size="10.00">+ RemoveTickPrerequisiteActor()</text>
<text text-anchor="start" x="141.128" y="-167.5" font-family="Helvetica,sans-Serif" font-size="10.00">+ ReceiveTick()</text>
<text text-anchor="start" x="141.128" y="-156.5" font-family="Helvetica,sans-Serif" font-size="10.00">+ ReceiveEndPlay()</text>
<text text-anchor="start" x="141.128" y="-145.5" font-family="Helvetica,sans-Serif" font-size="10.00">and 12 more...</text>
<text text-anchor="start" x="141.128" y="-134.5" font-family="Helvetica,sans-Serif" font-size="10.00">+ StaticClass()</text>
</a>
</g>
</g>
<!-- Node2&#45;&gt;Node1 -->
<g id="edge1" class="edge"><title>Node2&#45;&gt;Node1</title>
<path fill="none" stroke="midnightblue" d="M326.166,-128.174C326.653,-127.78 327.14,-127.389 327.628,-127 356.978,-103.628 393.243,-83.7507 425.439,-68.5537"/>
<polygon fill="none" stroke="midnightblue" points="323.734,-125.646 318.343,-134.767 328.245,-130.999 323.734,-125.646"/>
</g>
<!-- Node12 -->
<g id="node3" class="node"><title>Node12</title>
<g id="a_node3"><a xlink:title=" ">
<polygon fill="none" stroke="#bfbfbf" points="365.128,-540.5 365.128,-597.5 400.128,-597.5 400.128,-540.5 365.128,-540.5"/>
<text text-anchor="middle" x="382.628" y="-585.5" font-family="Helvetica,sans-Serif" font-size="10.00">char</text>
<polyline fill="none" stroke="#bfbfbf" points="365.128,-578.5 400.128,-578.5 "/>
<text text-anchor="middle" x="382.628" y="-566.5" font-family="Helvetica,sans-Serif" font-size="10.00"> </text>
<polyline fill="none" stroke="#bfbfbf" points="365.128,-559.5 400.128,-559.5 "/>
<text text-anchor="middle" x="382.628" y="-547.5" font-family="Helvetica,sans-Serif" font-size="10.00"> </text>
</a>
</g>
</g>
<!-- Node12&#45;&gt;Node1 -->
<g id="edge6" class="edge"><title>Node12&#45;&gt;Node1</title>
<path fill="none" stroke="#404040" d="M364.704,-565.687C333.18,-561.057 266.437,-548.716 216.628,-522 126.948,-473.898 85.8889,-464.576 43.6282,-372 -1.59043,-272.944 -25.5024,-211.129 43.6282,-127 88.7967,-72.0315 285.746,-49.534 407.765,-40.7485"/>
<polygon fill="none" stroke="#404040" points="408.091,-40.7259 413.799,-36.3182 420.062,-39.8911 414.355,-44.2988 408.091,-40.7259"/>
<text text-anchor="middle" x="83.6282" y="-263.5" font-family="Helvetica,sans-Serif" font-size="10.00"> +UnknownData01</text>
<text text-anchor="middle" x="83.6282" y="-252.5" font-family="Helvetica,sans-Serif" font-size="10.00">+UnknownData02</text>
<text text-anchor="middle" x="83.6282" y="-241.5" font-family="Helvetica,sans-Serif" font-size="10.00">+UnknownData03</text>
<text text-anchor="middle" x="83.6282" y="-230.5" font-family="Helvetica,sans-Serif" font-size="10.00">+UnknownData00</text>
</g>
<!-- Node12&#45;&gt;Node2 -->
<g id="edge2" class="edge"><title>Node12&#45;&gt;Node2</title>
<path fill="none" stroke="#404040" d="M364.875,-566.373C338.912,-562.982 291.027,-552.698 266.628,-522 235.935,-483.383 223.356,-431.624 219.262,-383.658"/>
<polygon fill="none" stroke="#404040" points="219.253,-383.524 214.836,-377.824 218.399,-371.555 222.816,-377.255 219.253,-383.524"/>
<text text-anchor="middle" x="322.628" y="-514" font-family="Helvetica,sans-Serif" font-size="10.00"> +UnknownData01</text>
<text text-anchor="middle" x="322.628" y="-503" font-family="Helvetica,sans-Serif" font-size="10.00">+UnknownData02</text>
<text text-anchor="middle" x="322.628" y="-492" font-family="Helvetica,sans-Serif" font-size="10.00">+UnknownData03</text>
<text text-anchor="middle" x="322.628" y="-481" font-family="Helvetica,sans-Serif" font-size="10.00">+UnknownData04</text>
<text text-anchor="middle" x="322.628" y="-470" font-family="Helvetica,sans-Serif" font-size="10.00">+UnknownData05</text>
<text text-anchor="start" x="266.628" y="-459" font-family="Helvetica,sans-Serif" font-size="10.00">+bCreatedByConstruction</text>
<text text-anchor="middle" x="322.628" y="-448" font-family="Helvetica,sans-Serif" font-size="10.00">Script</text>
<text text-anchor="middle" x="322.628" y="-437" font-family="Helvetica,sans-Serif" font-size="10.00">+UnknownData06</text>
<text text-anchor="middle" x="322.628" y="-426" font-family="Helvetica,sans-Serif" font-size="10.00">+UnknownData07</text>
<text text-anchor="middle" x="322.628" y="-415" font-family="Helvetica,sans-Serif" font-size="10.00">+bEditableWhenInherited</text>
<text text-anchor="middle" x="322.628" y="-404" font-family="Helvetica,sans-Serif" font-size="10.00">+bNeedsLoadForClient</text>
<text text-anchor="middle" x="322.628" y="-393" font-family="Helvetica,sans-Serif" font-size="10.00">...</text>
</g>
<!-- Node22 -->
<g id="node4" class="node"><title>Node22</title>
<g id="a_node4"><a xlink:href="a26403.html" target="_top" xlink:title=" ">
<polygon fill="none" stroke="red" points="336.628,-221 336.628,-278 428.628,-278 428.628,-221 336.628,-221"/>
<text text-anchor="middle" x="382.628" y="-266" font-family="Helvetica,sans-Serif" font-size="10.00">SDK::FTransform</text>
<polyline fill="none" stroke="red" points="336.628,-259 428.628,-259 "/>
<text text-anchor="middle" x="382.628" y="-247" font-family="Helvetica,sans-Serif" font-size="10.00"> </text>
<polyline fill="none" stroke="red" points="336.628,-240 428.628,-240 "/>
<text text-anchor="middle" x="382.628" y="-228" font-family="Helvetica,sans-Serif" font-size="10.00"> </text>
</a>
</g>
</g>
<!-- Node12&#45;&gt;Node22 -->
<g id="edge4" class="edge"><title>Node12&#45;&gt;Node22</title>
<path fill="none" stroke="#404040" d="M382.628,-540.379C382.628,-484.086 382.628,-355.889 382.628,-290.486"/>
<polygon fill="none" stroke="#404040" points="382.628,-290.283 378.628,-284.283 382.628,-278.283 386.628,-284.283 382.628,-290.283"/>
<text text-anchor="middle" x="422.628" y="-459" font-family="Helvetica,sans-Serif" font-size="10.00"> +UnknownData01</text>
<text text-anchor="middle" x="422.628" y="-448" font-family="Helvetica,sans-Serif" font-size="10.00">+UnknownData00</text>
</g>
<!-- Node9 -->
<g id="node7" class="node"><title>Node9</title>
<g id="a_node7"><a xlink:href="a26127.html" target="_top" xlink:title=" ">
<polygon fill="none" stroke="red" points="447.128,-210 447.128,-289 566.128,-289 566.128,-210 447.128,-210"/>
<text text-anchor="middle" x="506.628" y="-277" font-family="Helvetica,sans-Serif" font-size="10.00">SDK::UClass</text>
<polyline fill="none" stroke="red" points="447.128,-270 566.128,-270 "/>
<text text-anchor="middle" x="506.628" y="-258" font-family="Helvetica,sans-Serif" font-size="10.00"> </text>
<polyline fill="none" stroke="red" points="447.128,-251 566.128,-251 "/>
<text text-anchor="start" x="455.128" y="-239" font-family="Helvetica,sans-Serif" font-size="10.00">+ CreateDefaultObject()</text>
<text text-anchor="start" x="455.128" y="-228" font-family="Helvetica,sans-Serif" font-size="10.00">+ CreateDefaultObject()</text>
<text text-anchor="start" x="455.128" y="-217" font-family="Helvetica,sans-Serif" font-size="10.00">+ StaticClass()</text>
</a>
</g>
</g>
<!-- Node12&#45;&gt;Node9 -->
<g id="edge9" class="edge"><title>Node12&#45;&gt;Node9</title>
<path fill="none" stroke="#404040" d="M400.275,-563.45C419.853,-557.422 450.766,-544.79 466.628,-522 512.27,-456.422 515.279,-360.258 511.925,-301.718"/>
<polygon fill="none" stroke="#404040" points="511.907,-301.44 507.512,-295.723 511.098,-289.467 515.493,-295.184 511.907,-301.44"/>
<text text-anchor="middle" x="550.628" y="-453.5" font-family="Helvetica,sans-Serif" font-size="10.00"> +UnknownData00</text>
</g>
<!-- Node26 -->
<g id="node8" class="node"><title>Node26</title>
<g id="a_node8"><a xlink:href="a14779.html" target="_top" xlink:title=" ">
<polygon fill="none" stroke="red" points="584.128,-221 584.128,-278 745.128,-278 745.128,-221 584.128,-221"/>
<text text-anchor="middle" x="664.628" y="-266" font-family="Helvetica,sans-Serif" font-size="10.00">SDK::FLoadableComponentState</text>
<polyline fill="none" stroke="red" points="584.128,-259 745.128,-259 "/>
<text text-anchor="middle" x="664.628" y="-247" font-family="Helvetica,sans-Serif" font-size="10.00"> </text>
<polyline fill="none" stroke="red" points="584.128,-240 745.128,-240 "/>
<text text-anchor="middle" x="664.628" y="-228" font-family="Helvetica,sans-Serif" font-size="10.00"> </text>
</a>
</g>
</g>
<!-- Node12&#45;&gt;Node26 -->
<g id="edge11" class="edge"><title>Node12&#45;&gt;Node26</title>
<path fill="none" stroke="#404040" d="M400.198,-566.529C445.849,-562.357 566.605,-548.96 594.628,-522 658.356,-460.69 666.887,-349.67 666.469,-290.368"/>
<polygon fill="none" stroke="#404040" points="666.466,-290.188 662.359,-284.261 666.25,-278.19 670.357,-284.117 666.466,-290.188"/>
<text text-anchor="middle" x="696.628" y="-453.5" font-family="Helvetica,sans-Serif" font-size="10.00"> +UnknownData00</text>
</g>
<!-- Node22&#45;&gt;Node1 -->
<g id="edge3" class="edge"><title>Node22&#45;&gt;Node1</title>
<path fill="none" stroke="#404040" d="M384.425,-220.79C387.895,-186.404 398.036,-127.381 427.628,-87 430.25,-83.422 433.202,-80.0246 436.385,-76.8095"/>
<polygon fill="none" stroke="#404040" points="436.399,-76.7965 438.149,-69.801 445.28,-68.7261 443.529,-75.7216 436.399,-76.7965"/>
<text text-anchor="middle" x="465.128" y="-95.5" font-family="Helvetica,sans-Serif" font-size="10.00"> +UnloadingPoint</text>
</g>
<!-- Node18 -->
<g id="node5" class="node"><title>Node18</title>
<g id="a_node5"><a xlink:title=" ">
<polygon fill="none" stroke="#bfbfbf" points="763.128,-221 763.128,-278 798.128,-278 798.128,-221 763.128,-221"/>
<text text-anchor="middle" x="780.628" y="-266" font-family="Helvetica,sans-Serif" font-size="10.00">float</text>
<polyline fill="none" stroke="#bfbfbf" points="763.128,-259 798.128,-259 "/>
<text text-anchor="middle" x="780.628" y="-247" font-family="Helvetica,sans-Serif" font-size="10.00"> </text>
<polyline fill="none" stroke="#bfbfbf" points="763.128,-240 798.128,-240 "/>
<text text-anchor="middle" x="780.628" y="-228" font-family="Helvetica,sans-Serif" font-size="10.00"> </text>
</a>
</g>
</g>
<!-- Node18&#45;&gt;Node1 -->
<g id="edge5" class="edge"><title>Node18&#45;&gt;Node1</title>
<path fill="none" stroke="#404040" d="M783.593,-220.924C785.806,-185.009 783.748,-122.618 748.628,-87 728.426,-66.5115 663.093,-53.3631 605.397,-45.4834"/>
<polygon fill="none" stroke="#404040" points="605.118,-45.4467 598.647,-48.6297 593.22,-43.8811 599.691,-40.6981 605.118,-45.4467"/>
<text text-anchor="middle" x="793.628" y="-101" font-family="Helvetica,sans-Serif" font-size="10.00"> +LoadTime</text>
<text text-anchor="middle" x="793.628" y="-90" font-family="Helvetica,sans-Serif" font-size="10.00">+UnloadTime</text>
</g>
<!-- Node25 -->
<g id="node6" class="node"><title>Node25</title>
<g id="a_node6"><a xlink:title=" ">
<polygon fill="none" stroke="#bfbfbf" points="842.128,-221 842.128,-278 877.128,-278 877.128,-221 842.128,-221"/>
<text text-anchor="middle" x="859.628" y="-266" font-family="Helvetica,sans-Serif" font-size="10.00">bool</text>
<polyline fill="none" stroke="#bfbfbf" points="842.128,-259 877.128,-259 "/>
<text text-anchor="middle" x="859.628" y="-247" font-family="Helvetica,sans-Serif" font-size="10.00"> </text>
<polyline fill="none" stroke="#bfbfbf" points="842.128,-240 877.128,-240 "/>
<text text-anchor="middle" x="859.628" y="-228" font-family="Helvetica,sans-Serif" font-size="10.00"> </text>
</a>
</g>
</g>
<!-- Node25&#45;&gt;Node1 -->
<g id="edge7" class="edge"><title>Node25&#45;&gt;Node1</title>
<path fill="none" stroke="#404040" d="M862.645,-220.947C864.936,-184.762 862.879,-121.76 826.628,-87 795.594,-57.2421 687.579,-44.6601 605.55,-39.352"/>
<polygon fill="none" stroke="#404040" points="605.37,-39.341 599.136,-42.9658 593.392,-38.6056 599.626,-34.9808 605.37,-39.341"/>
<text text-anchor="middle" x="880.128" y="-95.5" font-family="Helvetica,sans-Serif" font-size="10.00"> +AlwaysLoaded</text>
</g>
<!-- Node9&#45;&gt;Node1 -->
<g id="edge8" class="edge"><title>Node9&#45;&gt;Node1</title>
<path fill="none" stroke="#404040" d="M506.628,-209.927C506.628,-173.63 506.628,-119.264 506.628,-80.8933"/>
<polygon fill="none" stroke="#404040" points="506.628,-80.543 502.628,-74.543 506.628,-68.543 510.628,-74.543 506.628,-80.543"/>
<text text-anchor="middle" x="556.628" y="-95.5" font-family="Helvetica,sans-Serif" font-size="10.00"> +DefaultObjectToLoad</text>
</g>
<!-- Node26&#45;&gt;Node1 -->
<g id="edge10" class="edge"><title>Node26&#45;&gt;Node1</title>
<path fill="none" stroke="#404040" d="M661.66,-220.752C656.597,-185.785 643.327,-125.602 609.628,-87 606.226,-83.103 602.459,-79.4676 598.437,-76.0808"/>
<polygon fill="none" stroke="#404040" points="598.186,-75.8902 590.989,-75.4399 588.637,-68.6233 595.834,-69.0736 598.186,-75.8902"/>
<text text-anchor="middle" x="684.128" y="-95.5" font-family="Helvetica,sans-Serif" font-size="10.00"> +LoadableComponentState</text>
</g>
</g>
</svg>
