<?xml version="1.0" encoding="UTF-8" standalone="no"?>
<!DOCTYPE svg PUBLIC "-//W3C//DTD SVG 1.1//EN"
 "http://www.w3.org/Graphics/SVG/1.1/DTD/svg11.dtd">
<!-- Generated by graphviz version 2.38.0 (20140413.2041)
 -->
<!-- Title: SDK::ULoadoutComponent Pages: 1 -->
<svg width="685pt" height="584pt"
 viewBox="0.00 0.00 684.57 584.00" xmlns="http://www.w3.org/2000/svg" xmlns:xlink="http://www.w3.org/1999/xlink">
<g id="graph0" class="graph" transform="scale(1 1) rotate(0) translate(4 580)">
<title>SDK::ULoadoutComponent</title>
<!-- Node1 -->
<g id="node1" class="node"><title>Node1</title>
<g id="a_node1"><a xlink:title=" ">
<polygon fill="#bfbfbf" stroke="black" points="263.073,-0.5 263.073,-57.5 397.073,-57.5 397.073,-0.5 263.073,-0.5"/>
<text text-anchor="middle" x="330.073" y="-45.5" font-family="Helvetica,sans-Serif" font-size="10.00">SDK::ULoadoutComponent</text>
<polyline fill="none" stroke="black" points="263.073,-38.5 397.073,-38.5 "/>
<text text-anchor="middle" x="330.073" y="-26.5" font-family="Helvetica,sans-Serif" font-size="10.00"> </text>
<polyline fill="none" stroke="black" points="263.073,-19.5 397.073,-19.5 "/>
<text text-anchor="start" x="271.073" y="-7.5" font-family="Helvetica,sans-Serif" font-size="10.00">+ StaticClass()</text>
</a>
</g>
</g>
<!-- Node2 -->
<g id="node2" class="node"><title>Node2</title>
<g id="a_node2"><a xlink:href="a26551.html" target="_top" xlink:title=" ">
<polygon fill="none" stroke="red" points="133.573,-105.5 133.573,-349.5 318.573,-349.5 318.573,-105.5 133.573,-105.5"/>
<text text-anchor="middle" x="226.073" y="-337.5" font-family="Helvetica,sans-Serif" font-size="10.00">SDK::UActorComponent</text>
<polyline fill="none" stroke="red" points="133.573,-330.5 318.573,-330.5 "/>
<text text-anchor="start" x="141.573" y="-318.5" font-family="Helvetica,sans-Serif" font-size="10.00">+ UnknownData00</text>
<text text-anchor="start" x="141.573" y="-307.5" font-family="Helvetica,sans-Serif" font-size="10.00">+ bReplicates</text>
<text text-anchor="start" x="141.573" y="-296.5" font-family="Helvetica,sans-Serif" font-size="10.00">+ bNetAddressable</text>
<text text-anchor="start" x="141.573" y="-285.5" font-family="Helvetica,sans-Serif" font-size="10.00">+ bInstanceComponent</text>
<text text-anchor="start" x="141.573" y="-274.5" font-family="Helvetica,sans-Serif" font-size="10.00">+ bAutoActivate</text>
<text text-anchor="start" x="141.573" y="-263.5" font-family="Helvetica,sans-Serif" font-size="10.00">+ bIsActive</text>
<text text-anchor="start" x="141.573" y="-252.5" font-family="Helvetica,sans-Serif" font-size="10.00">+ bNeedsLoadForServer</text>
<polyline fill="none" stroke="red" points="133.573,-245.5 318.573,-245.5 "/>
<text text-anchor="start" x="141.573" y="-233.5" font-family="Helvetica,sans-Serif" font-size="10.00">+ ToggleActive()</text>
<text text-anchor="start" x="141.573" y="-222.5" font-family="Helvetica,sans-Serif" font-size="10.00">+ SetTickGroup()</text>
<text text-anchor="start" x="141.573" y="-211.5" font-family="Helvetica,sans-Serif" font-size="10.00">+ SetTickableWhenPaused()</text>
<text text-anchor="start" x="141.573" y="-200.5" font-family="Helvetica,sans-Serif" font-size="10.00">+ SetIsReplicated()</text>
<text text-anchor="start" x="141.573" y="-189.5" font-family="Helvetica,sans-Serif" font-size="10.00">+ SetComponentTickEnabled()</text>
<text text-anchor="start" x="141.573" y="-178.5" font-family="Helvetica,sans-Serif" font-size="10.00">+ SetActive()</text>
<text text-anchor="start" x="141.573" y="-167.5" font-family="Helvetica,sans-Serif" font-size="10.00">+ RemoveTickPrerequisiteComponent()</text>
<text text-anchor="start" x="141.573" y="-156.5" font-family="Helvetica,sans-Serif" font-size="10.00">+ RemoveTickPrerequisiteActor()</text>
<text text-anchor="start" x="141.573" y="-145.5" font-family="Helvetica,sans-Serif" font-size="10.00">+ ReceiveTick()</text>
<text text-anchor="start" x="141.573" y="-134.5" font-family="Helvetica,sans-Serif" font-size="10.00">+ ReceiveEndPlay()</text>
<text text-anchor="start" x="141.573" y="-123.5" font-family="Helvetica,sans-Serif" font-size="10.00">and 12 more...</text>
<text text-anchor="start" x="141.573" y="-112.5" font-family="Helvetica,sans-Serif" font-size="10.00">+ StaticClass()</text>
</a>
</g>
</g>
<!-- Node2&#45;&gt;Node1 -->
<g id="edge1" class="edge"><title>Node2&#45;&gt;Node1</title>
<path fill="none" stroke="midnightblue" d="M294.975,-96.3138C302.605,-81.8975 309.691,-68.5106 315.468,-57.5942"/>
<polygon fill="none" stroke="midnightblue" points="291.746,-94.9344 290.161,-105.41 297.932,-98.2089 291.746,-94.9344"/>
</g>
<!-- Node12 -->
<g id="node3" class="node"><title>Node12</title>
<g id="a_node3"><a xlink:title=" ">
<polygon fill="none" stroke="#bfbfbf" points="73.5728,-518.5 73.5728,-575.5 108.573,-575.5 108.573,-518.5 73.5728,-518.5"/>
<text text-anchor="middle" x="91.0728" y="-563.5" font-family="Helvetica,sans-Serif" font-size="10.00">char</text>
<polyline fill="none" stroke="#bfbfbf" points="73.5728,-556.5 108.573,-556.5 "/>
<text text-anchor="middle" x="91.0728" y="-544.5" font-family="Helvetica,sans-Serif" font-size="10.00"> </text>
<polyline fill="none" stroke="#bfbfbf" points="73.5728,-537.5 108.573,-537.5 "/>
<text text-anchor="middle" x="91.0728" y="-525.5" font-family="Helvetica,sans-Serif" font-size="10.00"> </text>
</a>
</g>
</g>
<!-- Node12&#45;&gt;Node1 -->
<g id="edge3" class="edge"><title>Node12&#45;&gt;Node1</title>
<path fill="none" stroke="#404040" d="M76.2798,-518.404C38.1915,-443.168 -53.6426,-231.644 44.0728,-105 69.2095,-72.4215 175.034,-51.2329 250.623,-39.9456"/>
<polygon fill="none" stroke="#404040" points="251.072,-39.8803 256.434,-35.058 262.947,-38.1523 257.586,-42.9746 251.072,-39.8803"/>
<text text-anchor="middle" x="84.0728" y="-230.5" font-family="Helvetica,sans-Serif" font-size="10.00"> +UnknownData01</text>
<text text-anchor="middle" x="84.0728" y="-219.5" font-family="Helvetica,sans-Serif" font-size="10.00">+UnknownData00</text>
</g>
<!-- Node12&#45;&gt;Node2 -->
<g id="edge2" class="edge"><title>Node12&#45;&gt;Node2</title>
<path fill="none" stroke="#404040" d="M102.817,-518.379C117.823,-483.087 144.846,-419.534 169.772,-360.91"/>
<polygon fill="none" stroke="#404040" points="169.866,-360.689 168.533,-353.602 174.562,-349.646 175.895,-356.733 169.866,-360.689"/>
<text text-anchor="middle" x="223.073" y="-492" font-family="Helvetica,sans-Serif" font-size="10.00"> +UnknownData01</text>
<text text-anchor="middle" x="223.073" y="-481" font-family="Helvetica,sans-Serif" font-size="10.00">+UnknownData02</text>
<text text-anchor="middle" x="223.073" y="-470" font-family="Helvetica,sans-Serif" font-size="10.00">+UnknownData03</text>
<text text-anchor="middle" x="223.073" y="-459" font-family="Helvetica,sans-Serif" font-size="10.00">+UnknownData04</text>
<text text-anchor="middle" x="223.073" y="-448" font-family="Helvetica,sans-Serif" font-size="10.00">+UnknownData05</text>
<text text-anchor="start" x="167.073" y="-437" font-family="Helvetica,sans-Serif" font-size="10.00">+bCreatedByConstruction</text>
<text text-anchor="middle" x="223.073" y="-426" font-family="Helvetica,sans-Serif" font-size="10.00">Script</text>
<text text-anchor="middle" x="223.073" y="-415" font-family="Helvetica,sans-Serif" font-size="10.00">+UnknownData06</text>
<text text-anchor="middle" x="223.073" y="-404" font-family="Helvetica,sans-Serif" font-size="10.00">+UnknownData07</text>
<text text-anchor="middle" x="223.073" y="-393" font-family="Helvetica,sans-Serif" font-size="10.00">+bEditableWhenInherited</text>
<text text-anchor="middle" x="223.073" y="-382" font-family="Helvetica,sans-Serif" font-size="10.00">+bNeedsLoadForClient</text>
<text text-anchor="middle" x="223.073" y="-371" font-family="Helvetica,sans-Serif" font-size="10.00">...</text>
</g>
<!-- Node22 -->
<g id="node4" class="node"><title>Node22</title>
<g id="a_node4"><a xlink:title=" ">
<polygon fill="none" stroke="#bfbfbf" points="336.573,-199 336.573,-256 371.573,-256 371.573,-199 336.573,-199"/>
<text text-anchor="middle" x="354.073" y="-244" font-family="Helvetica,sans-Serif" font-size="10.00">bool</text>
<polyline fill="none" stroke="#bfbfbf" points="336.573,-237 371.573,-237 "/>
<text text-anchor="middle" x="354.073" y="-225" font-family="Helvetica,sans-Serif" font-size="10.00"> </text>
<polyline fill="none" stroke="#bfbfbf" points="336.573,-218 371.573,-218 "/>
<text text-anchor="middle" x="354.073" y="-206" font-family="Helvetica,sans-Serif" font-size="10.00"> </text>
</a>
</g>
</g>
<!-- Node22&#45;&gt;Node1 -->
<g id="edge4" class="edge"><title>Node22&#45;&gt;Node1</title>
<path fill="none" stroke="#404040" d="M348.292,-198.862C342.718,-170.827 334.621,-126.113 331.073,-87 330.571,-81.4724 330.242,-75.6314 330.032,-69.8795"/>
<polygon fill="none" stroke="#404040" points="330.026,-69.583 325.887,-63.6774 329.747,-57.5862 333.885,-63.4918 330.026,-69.583"/>
<text text-anchor="middle" x="381.573" y="-79" font-family="Helvetica,sans-Serif" font-size="10.00"> +HaveSourcedLoadout</text>
</g>
<!-- Node23 -->
<g id="node5" class="node"><title>Node23</title>
<g id="a_node5"><a xlink:href="a14795.html" target="_top" xlink:title=" ">
<polygon fill="none" stroke="red" points="412.573,-199 412.573,-256 495.573,-256 495.573,-199 412.573,-199"/>
<text text-anchor="middle" x="454.073" y="-244" font-family="Helvetica,sans-Serif" font-size="10.00">SDK::FLoadout</text>
<polyline fill="none" stroke="red" points="412.573,-237 495.573,-237 "/>
<text text-anchor="middle" x="454.073" y="-225" font-family="Helvetica,sans-Serif" font-size="10.00"> </text>
<polyline fill="none" stroke="red" points="412.573,-218 495.573,-218 "/>
<text text-anchor="middle" x="454.073" y="-206" font-family="Helvetica,sans-Serif" font-size="10.00"> </text>
</a>
</g>
</g>
<!-- Node23&#45;&gt;Node1 -->
<g id="edge5" class="edge"><title>Node23&#45;&gt;Node1</title>
<path fill="none" stroke="#404040" d="M457.465,-198.804C459.929,-166.127 459.022,-111.736 432.073,-76 425.614,-67.4356 417.196,-60.4257 407.964,-54.6982"/>
<polygon fill="none" stroke="#404040" points="407.752,-54.5804 400.565,-55.1695 397.257,-48.7619 404.444,-48.1728 407.752,-54.5804"/>
<text text-anchor="middle" x="490.573" y="-79" font-family="Helvetica,sans-Serif" font-size="10.00"> +SupplementalLoadout</text>
</g>
<!-- Node31 -->
<g id="node6" class="node"><title>Node31</title>
<g id="a_node6"><a xlink:href="a25847.html" target="_top" xlink:title=" ">
<polygon fill="none" stroke="black" points="513.573,-166 513.573,-289 676.573,-289 676.573,-166 513.573,-166"/>
<text text-anchor="start" x="521.573" y="-277" font-family="Helvetica,sans-Serif" font-size="10.00">SDK::TEnumAsByte&lt; ELoadout</text>
<text text-anchor="middle" x="595.073" y="-266" font-family="Helvetica,sans-Serif" font-size="10.00">Persistence &gt;</text>
<polyline fill="none" stroke="black" points="513.573,-259 676.573,-259 "/>
<text text-anchor="middle" x="595.073" y="-247" font-family="Helvetica,sans-Serif" font-size="10.00"> </text>
<polyline fill="none" stroke="black" points="513.573,-240 676.573,-240 "/>
<text text-anchor="start" x="521.573" y="-228" font-family="Helvetica,sans-Serif" font-size="10.00">+ TEnumAsByte()</text>
<text text-anchor="start" x="521.573" y="-217" font-family="Helvetica,sans-Serif" font-size="10.00">+ TEnumAsByte()</text>
<text text-anchor="start" x="521.573" y="-206" font-family="Helvetica,sans-Serif" font-size="10.00">+ TEnumAsByte()</text>
<text text-anchor="start" x="521.573" y="-195" font-family="Helvetica,sans-Serif" font-size="10.00">+ TEnumAsByte()</text>
<text text-anchor="start" x="521.573" y="-184" font-family="Helvetica,sans-Serif" font-size="10.00">+ operator ELoadoutPersistence()</text>
<text text-anchor="start" x="521.573" y="-173" font-family="Helvetica,sans-Serif" font-size="10.00">+ GetValue()</text>
</a>
</g>
</g>
<!-- Node31&#45;&gt;Node1 -->
<g id="edge6" class="edge"><title>Node31&#45;&gt;Node1</title>
<path fill="none" stroke="#404040" d="M589.623,-165.907C583.684,-134.819 571.397,-98.7968 546.073,-76 525.981,-57.9133 462.484,-45.7947 409.497,-38.5574"/>
<polygon fill="none" stroke="#404040" points="409.228,-38.5221 402.757,-41.704 397.331,-36.9544 403.802,-33.7725 409.228,-38.5221"/>
<text text-anchor="middle" x="603.073" y="-79" font-family="Helvetica,sans-Serif" font-size="10.00"> +LoadoutPersistence</text>
</g>
</g>
</svg>
