<?xml version="1.0" encoding="UTF-8" standalone="no"?>
<!DOCTYPE svg PUBLIC "-//W3C//DTD SVG 1.1//EN"
 "http://www.w3.org/Graphics/SVG/1.1/DTD/svg11.dtd">
<!-- Generated by graphviz version 2.38.0 (20140413.2041)
 -->
<!-- Title: SDK::AMemoryTestPawn Pages: 1 -->
<svg width="400pt" height="552pt"
 viewBox="0.00 0.00 400.10 552.00" xmlns="http://www.w3.org/2000/svg" xmlns:xlink="http://www.w3.org/1999/xlink">
<g id="graph0" class="graph" transform="scale(1 1) rotate(0) translate(4 548)">
<title>SDK::AMemoryTestPawn</title>
<!-- Node1 -->
<g id="node1" class="node"><title>Node1</title>
<g id="a_node1"><a xlink:title=" ">
<polygon fill="#bfbfbf" stroke="black" points="96.1004,-0.5 96.1004,-90.5 246.1,-90.5 246.1,-0.5 96.1004,-0.5"/>
<text text-anchor="middle" x="171.1" y="-78.5" font-family="Helvetica,sans-Serif" font-size="10.00">SDK::AMemoryTestPawn</text>
<polyline fill="none" stroke="black" points="96.1004,-71.5 246.1,-71.5 "/>
<text text-anchor="middle" x="171.1" y="-59.5" font-family="Helvetica,sans-Serif" font-size="10.00"> </text>
<polyline fill="none" stroke="black" points="96.1004,-52.5 246.1,-52.5 "/>
<text text-anchor="start" x="104.1" y="-40.5" font-family="Helvetica,sans-Serif" font-size="10.00">+ Server_SetActorLocationAnd</text>
<text text-anchor="start" x="104.1" y="-29.5" font-family="Helvetica,sans-Serif" font-size="10.00">Rotation()</text>
<text text-anchor="start" x="104.1" y="-18.5" font-family="Helvetica,sans-Serif" font-size="10.00">+ IsFinished()</text>
<text text-anchor="start" x="104.1" y="-7.5" font-family="Helvetica,sans-Serif" font-size="10.00">+ StaticClass()</text>
</a>
</g>
</g>
<!-- Node2 -->
<g id="node2" class="node"><title>Node2</title>
<g id="a_node2"><a xlink:href="a26567.html" target="_top" xlink:title=" ">
<polygon fill="none" stroke="red" points="81.1004,-128.5 81.1004,-317.5 261.1,-317.5 261.1,-128.5 81.1004,-128.5"/>
<text text-anchor="middle" x="171.1" y="-305.5" font-family="Helvetica,sans-Serif" font-size="10.00">SDK::APawn</text>
<polyline fill="none" stroke="red" points="81.1004,-298.5 261.1,-298.5 "/>
<text text-anchor="start" x="89.1004" y="-286.5" font-family="Helvetica,sans-Serif" font-size="10.00">+ UnknownData00</text>
<polyline fill="none" stroke="red" points="81.1004,-279.5 261.1,-279.5 "/>
<text text-anchor="start" x="89.1004" y="-267.5" font-family="Helvetica,sans-Serif" font-size="10.00">+ SpawnDefaultController()</text>
<text text-anchor="start" x="89.1004" y="-256.5" font-family="Helvetica,sans-Serif" font-size="10.00">+ SetCanAffectNavigationGeneration()</text>
<text text-anchor="start" x="89.1004" y="-245.5" font-family="Helvetica,sans-Serif" font-size="10.00">+ ReceiveUnpossessed()</text>
<text text-anchor="start" x="89.1004" y="-234.5" font-family="Helvetica,sans-Serif" font-size="10.00">+ ReceivePossessed()</text>
<text text-anchor="start" x="89.1004" y="-223.5" font-family="Helvetica,sans-Serif" font-size="10.00">+ PawnMakeNoise()</text>
<text text-anchor="start" x="89.1004" y="-212.5" font-family="Helvetica,sans-Serif" font-size="10.00">+ OnRep_PlayerState()</text>
<text text-anchor="start" x="89.1004" y="-201.5" font-family="Helvetica,sans-Serif" font-size="10.00">+ OnRep_Controller()</text>
<text text-anchor="start" x="89.1004" y="-190.5" font-family="Helvetica,sans-Serif" font-size="10.00">+ LaunchPawn()</text>
<text text-anchor="start" x="89.1004" y="-179.5" font-family="Helvetica,sans-Serif" font-size="10.00">+ K2_GetMovementInputVector()</text>
<text text-anchor="start" x="89.1004" y="-168.5" font-family="Helvetica,sans-Serif" font-size="10.00">+ IsMoveInputIgnored()</text>
<text text-anchor="start" x="89.1004" y="-157.5" font-family="Helvetica,sans-Serif" font-size="10.00">and 15 more...</text>
<text text-anchor="start" x="89.1004" y="-146.5" font-family="Helvetica,sans-Serif" font-size="10.00">+ StaticClass()</text>
<text text-anchor="start" x="89.1004" y="-135.5" font-family="Helvetica,sans-Serif" font-size="10.00">+ GetMovementBaseActor()</text>
</a>
</g>
</g>
<!-- Node2&#45;&gt;Node1 -->
<g id="edge1" class="edge"><title>Node2&#45;&gt;Node1</title>
<path fill="none" stroke="midnightblue" d="M171.1,-118.288C171.1,-108.714 171.1,-99.4015 171.1,-90.8286"/>
<polygon fill="none" stroke="midnightblue" points="167.601,-118.341 171.1,-128.341 174.601,-118.341 167.601,-118.341"/>
</g>
<!-- Node26 -->
<g id="node3" class="node"><title>Node26</title>
<g id="a_node3"><a xlink:title=" ">
<polygon fill="none" stroke="#bfbfbf" points="28.6004,-486.5 28.6004,-543.5 63.6004,-543.5 63.6004,-486.5 28.6004,-486.5"/>
<text text-anchor="middle" x="46.1004" y="-531.5" font-family="Helvetica,sans-Serif" font-size="10.00">float</text>
<polyline fill="none" stroke="#bfbfbf" points="28.6004,-524.5 63.6004,-524.5 "/>
<text text-anchor="middle" x="46.1004" y="-512.5" font-family="Helvetica,sans-Serif" font-size="10.00"> </text>
<polyline fill="none" stroke="#bfbfbf" points="28.6004,-505.5 63.6004,-505.5 "/>
<text text-anchor="middle" x="46.1004" y="-493.5" font-family="Helvetica,sans-Serif" font-size="10.00"> </text>
</a>
</g>
</g>
<!-- Node26&#45;&gt;Node1 -->
<g id="edge5" class="edge"><title>Node26&#45;&gt;Node1</title>
<path fill="none" stroke="#404040" d="M36.255,-486.442C14.2398,-419.746 -31.9847,-246.41 35.1004,-128 46.5971,-107.707 65.3819,-91.9196 85.3708,-79.8776"/>
<polygon fill="none" stroke="#404040" points="85.4579,-79.8283 88.7094,-73.3919 95.9013,-73.9178 92.6498,-80.3542 85.4579,-79.8283"/>
<text text-anchor="middle" x="53.6004" y="-220.5" font-family="Helvetica,sans-Serif" font-size="10.00"> +Speed</text>
</g>
<!-- Node26&#45;&gt;Node2 -->
<g id="edge2" class="edge"><title>Node26&#45;&gt;Node2</title>
<path fill="none" stroke="#404040" d="M46.507,-486.455C47.9992,-450.306 54.0171,-385.632 77.1004,-336 78.3198,-333.378 79.6168,-330.768 80.9821,-328.173"/>
<polygon fill="none" stroke="#404040" points="81.0501,-328.053 80.5206,-320.861 86.9554,-317.606 87.4849,-324.798 81.0501,-328.053"/>
<text text-anchor="middle" x="115.6" y="-399.5" font-family="Helvetica,sans-Serif" font-size="10.00"> +BaseEyeHeight</text>
</g>
<!-- Node13 -->
<g id="node4" class="node"><title>Node13</title>
<g id="a_node4"><a xlink:title=" ">
<polygon fill="none" stroke="#bfbfbf" points="230.6,-486.5 230.6,-543.5 265.6,-543.5 265.6,-486.5 230.6,-486.5"/>
<text text-anchor="middle" x="248.1" y="-531.5" font-family="Helvetica,sans-Serif" font-size="10.00">char</text>
<polyline fill="none" stroke="#bfbfbf" points="230.6,-524.5 265.6,-524.5 "/>
<text text-anchor="middle" x="248.1" y="-512.5" font-family="Helvetica,sans-Serif" font-size="10.00"> </text>
<polyline fill="none" stroke="#bfbfbf" points="230.6,-505.5 265.6,-505.5 "/>
<text text-anchor="middle" x="248.1" y="-493.5" font-family="Helvetica,sans-Serif" font-size="10.00"> </text>
</a>
</g>
</g>
<!-- Node13&#45;&gt;Node1 -->
<g id="edge4" class="edge"><title>Node13&#45;&gt;Node1</title>
<path fill="none" stroke="#404040" d="M265.83,-507.268C281.716,-500.172 304.019,-487.315 314.1,-468 341.246,-415.992 320.204,-394.348 314.1,-336 304.269,-242.023 319.107,-208.789 270.1,-128 263.713,-117.47 255.463,-107.686 246.454,-98.8155"/>
<polygon fill="none" stroke="#404040" points="246.406,-98.7707 239.289,-97.6126 237.62,-90.5972 244.738,-91.7553 246.406,-98.7707"/>
<text text-anchor="middle" x="352.1" y="-220.5" font-family="Helvetica,sans-Serif" font-size="10.00"> +UnknownData00</text>
</g>
<!-- Node13&#45;&gt;Node2 -->
<g id="edge3" class="edge"><title>Node13&#45;&gt;Node2</title>
<path fill="none" stroke="#404040" d="M230.542,-509.41C211.55,-503.401 182.231,-490.84 169.1,-468 155.728,-444.74 156.079,-384.759 159.846,-330.092"/>
<polygon fill="none" stroke="#404040" points="159.87,-329.765 156.323,-323.486 160.755,-317.798 164.302,-324.076 159.87,-329.765"/>
<text text-anchor="middle" x="241.6" y="-460" font-family="Helvetica,sans-Serif" font-size="10.00"> +UnknownData01</text>
<text text-anchor="start" x="169.1" y="-449" font-family="Helvetica,sans-Serif" font-size="10.00">+bUseControllerRotation</text>
<text text-anchor="middle" x="241.6" y="-438" font-family="Helvetica,sans-Serif" font-size="10.00">Roll</text>
<text text-anchor="middle" x="241.6" y="-427" font-family="Helvetica,sans-Serif" font-size="10.00">+UnknownData02</text>
<text text-anchor="middle" x="241.6" y="-416" font-family="Helvetica,sans-Serif" font-size="10.00">+UnknownData03</text>
<text text-anchor="middle" x="241.6" y="-405" font-family="Helvetica,sans-Serif" font-size="10.00">+UnknownData04</text>
<text text-anchor="middle" x="241.6" y="-394" font-family="Helvetica,sans-Serif" font-size="10.00">+UnknownData05</text>
<text text-anchor="middle" x="241.6" y="-383" font-family="Helvetica,sans-Serif" font-size="10.00">+bCanAffectNavigationGeneration</text>
<text text-anchor="middle" x="241.6" y="-372" font-family="Helvetica,sans-Serif" font-size="10.00">+bUseControllerRotationYaw</text>
<text text-anchor="middle" x="241.6" y="-361" font-family="Helvetica,sans-Serif" font-size="10.00">+bUseControllerRotationPitch</text>
<text text-anchor="middle" x="241.6" y="-350" font-family="Helvetica,sans-Serif" font-size="10.00">+RemoteViewPitch</text>
<text text-anchor="middle" x="241.6" y="-339" font-family="Helvetica,sans-Serif" font-size="10.00">...</text>
</g>
</g>
</svg>
