<?xml version="1.0" encoding="UTF-8" standalone="no"?>
<!DOCTYPE svg PUBLIC "-//W3C//DTD SVG 1.1//EN"
 "http://www.w3.org/Graphics/SVG/1.1/DTD/svg11.dtd">
<!-- Generated by graphviz version 2.38.0 (20140413.2041)
 -->
<!-- Title: SDK::AShovel Pages: 1 -->
<!--zoomable 474 -->
<svg id="main" version="1.1" xmlns="http://www.w3.org/2000/svg" xmlns:xlink="http://www.w3.org/1999/xlink" xml:space="preserve" onload="init(evt)">
<style type="text/css"><![CDATA[
.edge:hover path { stroke: red; }
.edge:hover polygon { stroke: red; fill: red; }
]]></style>
<script type="text/javascript"><![CDATA[
var edges = document.getElementsByTagName('g');
if (edges && edges.length) {
  for (var i=0;i<edges.length;i++) {
    if (edges[i].id.substr(0,4)=='edge') {
      edges[i].setAttribute('class','edge');
    }
  }
}
]]></script>
        <defs>
                <circle id="rim" cx="0" cy="0" r="7"/>
                <circle id="rim2" cx="0" cy="0" r="3.5"/>
                <g id="zoomPlus">
                        <use xlink:href="#rim" fill="#404040">
                                <set attributeName="fill" to="#808080" begin="zoomplus.mouseover" end="zoomplus.mouseout"/>
                        </use>
                        <path d="M-4,0h8M0,-4v8" fill="none" stroke="white" stroke-width="1.5" pointer-events="none"/>
                </g>
                <g id="zoomMin">
                        <use xlink:href="#rim" fill="#404040">
                                <set attributeName="fill" to="#808080" begin="zoomminus.mouseover" end="zoomminus.mouseout"/>
                        </use>
                        <path d="M-4,0h8" fill="none" stroke="white" stroke-width="1.5" pointer-events="none"/>
                </g>
                <g id="dirArrow">
                        <path fill="none" stroke="white" stroke-width="1.5" d="M0,-3.0v7 M-2.5,-0.5L0,-3.0L2.5,-0.5"/>
                </g>
               <g id="resetDef">
                       <use xlink:href="#rim2" fill="#404040">
                               <set attributeName="fill" to="#808080" begin="reset.mouseover" end="reset.mouseout"/>
                       </use>
               </g>
        </defs>

<script type="text/javascript">
var viewWidth = 1406;
var viewHeight = 474;
var sectionId = 'dynsection-1';
</script>
<script xlink:href="svgpan.js"/>
<svg id="graph" class="graph">
<g id="viewport">
<title>SDK::AShovel</title>
<!-- Node1 -->
<g id="node1" class="node"><title>Node1</title>
<g id="a_node1"><a xlink:title=" ">
<polygon fill="#bfbfbf" stroke="black" points="583.5,-0.5 583.5,-112.5 753.5,-112.5 753.5,-0.5 583.5,-0.5"/>
<text text-anchor="middle" x="668.5" y="-100.5" font-family="Helvetica,sans-Serif" font-size="10.00">SDK::AShovel</text>
<polyline fill="none" stroke="black" points="583.5,-93.5 753.5,-93.5 "/>
<text text-anchor="middle" x="668.5" y="-81.5" font-family="Helvetica,sans-Serif" font-size="10.00"> </text>
<polyline fill="none" stroke="black" points="583.5,-74.5 753.5,-74.5 "/>
<text text-anchor="start" x="591.5" y="-62.5" font-family="Helvetica,sans-Serif" font-size="10.00">+ Server_RequestDigRPC()</text>
<text text-anchor="start" x="591.5" y="-51.5" font-family="Helvetica,sans-Serif" font-size="10.00">+ Multicast_DigRPC()</text>
<text text-anchor="start" x="591.5" y="-40.5" font-family="Helvetica,sans-Serif" font-size="10.00">+ GetShouldWielderBeLocked()</text>
<text text-anchor="start" x="591.5" y="-29.5" font-family="Helvetica,sans-Serif" font-size="10.00">+ GetLastKnownDigTypeOnServer()</text>
<text text-anchor="start" x="591.5" y="-18.5" font-family="Helvetica,sans-Serif" font-size="10.00">+ GetCurrentDigType()</text>
<text text-anchor="start" x="591.5" y="-7.5" font-family="Helvetica,sans-Serif" font-size="10.00">+ StaticClass()</text>
</a>
</g>
</g>
<!-- Node2 -->
<g id="node2" class="node"><title>Node2</title>
<g id="a_node2"><a xlink:href="a03171.html" target="_top" xlink:title=" ">
<polygon fill="none" stroke="red" points="0,-232 0,-289 161,-289 161,-232 0,-232"/>
<text text-anchor="middle" x="80.5" y="-277" font-family="Helvetica,sans-Serif" font-size="10.00">SDK::AStaticMeshWieldableItem</text>
<polyline fill="none" stroke="red" points="0,-270 161,-270 "/>
<text text-anchor="middle" x="80.5" y="-258" font-family="Helvetica,sans-Serif" font-size="10.00"> </text>
<polyline fill="none" stroke="red" points="0,-251 161,-251 "/>
<text text-anchor="start" x="8" y="-239" font-family="Helvetica,sans-Serif" font-size="10.00">+ StaticClass()</text>
</a>
</g>
</g>
<!-- Node2&#45;&gt;Node1 -->
<g id="edge1" class="edge"><title>Node2&#45;&gt;Node1</title>
<path fill="none" stroke="midnightblue" d="M110.545,-224.222C138.069,-194.377 181.568,-153.047 228.5,-131 343.461,-76.9967 491.705,-62.0207 583.407,-58.2312"/>
<polygon fill="none" stroke="midnightblue" points="107.683,-222.167 103.558,-231.926 112.869,-226.87 107.683,-222.167"/>
</g>
<!-- Node238 -->
<g id="node3" class="node"><title>Node238</title>
<g id="a_node3"><a xlink:href="a25651.html" target="_top" xlink:title=" ">
<polygon fill="none" stroke="red" points="316,-226.5 316,-294.5 465,-294.5 465,-226.5 316,-226.5"/>
<text text-anchor="start" x="324" y="-282.5" font-family="Helvetica,sans-Serif" font-size="10.00">SDK::UNamedNotificationInput</text>
<text text-anchor="middle" x="390.5" y="-271.5" font-family="Helvetica,sans-Serif" font-size="10.00">Component</text>
<polyline fill="none" stroke="red" points="316,-264.5 465,-264.5 "/>
<text text-anchor="middle" x="390.5" y="-252.5" font-family="Helvetica,sans-Serif" font-size="10.00"> </text>
<polyline fill="none" stroke="red" points="316,-245.5 465,-245.5 "/>
<text text-anchor="start" x="324" y="-233.5" font-family="Helvetica,sans-Serif" font-size="10.00">+ StaticClass()</text>
</a>
</g>
</g>
<!-- Node238&#45;&gt;Node1 -->
<g id="edge2" class="edge"><title>Node238&#45;&gt;Node1</title>
<path fill="none" stroke="#404040" d="M369.994,-226.308C355.51,-198.154 342.13,-158.131 363.5,-131 389.145,-98.4407 492.089,-78.6176 571.363,-67.8947"/>
<polygon fill="none" stroke="#404040" points="571.473,-67.8803 576.9,-63.1317 583.371,-66.3148 577.944,-71.0633 571.473,-67.8803"/>
<text text-anchor="middle" x="443" y="-145" font-family="Helvetica,sans-Serif" font-size="10.00"> +NamedNotificationInputComponent</text>
</g>
<!-- Node14 -->
<g id="node4" class="node"><title>Node14</title>
<g id="a_node4"><a xlink:title=" ">
<polygon fill="none" stroke="#bfbfbf" points="608,-408.5 608,-465.5 643,-465.5 643,-408.5 608,-408.5"/>
<text text-anchor="middle" x="625.5" y="-453.5" font-family="Helvetica,sans-Serif" font-size="10.00">char</text>
<polyline fill="none" stroke="#bfbfbf" points="608,-446.5 643,-446.5 "/>
<text text-anchor="middle" x="625.5" y="-434.5" font-family="Helvetica,sans-Serif" font-size="10.00"> </text>
<polyline fill="none" stroke="#bfbfbf" points="608,-427.5 643,-427.5 "/>
<text text-anchor="middle" x="625.5" y="-415.5" font-family="Helvetica,sans-Serif" font-size="10.00"> </text>
</a>
</g>
</g>
<!-- Node14&#45;&gt;Node1 -->
<g id="edge11" class="edge"><title>Node14&#45;&gt;Node1</title>
<path fill="none" stroke="#404040" d="M619.779,-408.441C611.132,-360.001 599.228,-257.57 634.5,-182 639.558,-171.164 648.932,-174.583 654.5,-164 660.783,-152.059 664.632,-138.361 666.922,-124.853"/>
<polygon fill="none" stroke="#404040" points="666.978,-124.445 663.832,-117.956 668.612,-112.557 671.758,-119.045 666.978,-124.445"/>
<text text-anchor="middle" x="674.5" y="-263.5" font-family="Helvetica,sans-Serif" font-size="10.00"> +UnknownData01</text>
<text text-anchor="middle" x="674.5" y="-252.5" font-family="Helvetica,sans-Serif" font-size="10.00">+UnknownData00</text>
</g>
<!-- Node14&#45;&gt;Node238 -->
<g id="edge3" class="edge"><title>Node14&#45;&gt;Node238</title>
<path fill="none" stroke="#404040" d="M607.738,-429.041C588.229,-421.011 556.368,-406.741 531.5,-390 494.227,-364.908 456.861,-330.324 429.968,-303.354"/>
<polygon fill="none" stroke="#404040" points="429.689,-303.07 422.628,-301.605 421.265,-294.524 428.326,-295.989 429.689,-303.07"/>
<text text-anchor="middle" x="571.5" y="-371" font-family="Helvetica,sans-Serif" font-size="10.00"> +UnknownData00</text>
</g>
<!-- Node191 -->
<g id="node6" class="node"><title>Node191</title>
<g id="a_node6"><a xlink:href="a36295.html" target="_top" xlink:title=" ">
<polygon fill="none" stroke="red" points="723.5,-204.5 723.5,-316.5 839.5,-316.5 839.5,-204.5 723.5,-204.5"/>
<text text-anchor="middle" x="781.5" y="-304.5" font-family="Helvetica,sans-Serif" font-size="10.00">SDK::UWwiseEvent</text>
<polyline fill="none" stroke="red" points="723.5,-297.5 839.5,-297.5 "/>
<text text-anchor="middle" x="781.5" y="-285.5" font-family="Helvetica,sans-Serif" font-size="10.00"> </text>
<polyline fill="none" stroke="red" points="723.5,-278.5 839.5,-278.5 "/>
<text text-anchor="start" x="731.5" y="-266.5" font-family="Helvetica,sans-Serif" font-size="10.00">+ IsAudible()</text>
<text text-anchor="start" x="731.5" y="-255.5" font-family="Helvetica,sans-Serif" font-size="10.00">+ GetMaxAttenuation()</text>
<text text-anchor="start" x="731.5" y="-244.5" font-family="Helvetica,sans-Serif" font-size="10.00">+ GetDurationType()</text>
<text text-anchor="start" x="731.5" y="-233.5" font-family="Helvetica,sans-Serif" font-size="10.00">+ GetDurationMin()</text>
<text text-anchor="start" x="731.5" y="-222.5" font-family="Helvetica,sans-Serif" font-size="10.00">+ GetDurationMax()</text>
<text text-anchor="start" x="731.5" y="-211.5" font-family="Helvetica,sans-Serif" font-size="10.00">+ StaticClass()</text>
</a>
</g>
</g>
<!-- Node14&#45;&gt;Node191 -->
<g id="edge7" class="edge"><title>Node14&#45;&gt;Node191</title>
<path fill="none" stroke="#404040" d="M631.488,-408.238C636.425,-391.4 645.037,-370.609 659.5,-357 676.701,-340.815 689.794,-352.02 709.5,-339 715.734,-334.881 721.806,-330.113 727.609,-325.008"/>
<polygon fill="none" stroke="#404040" points="727.702,-324.921 729.373,-317.906 736.491,-316.751 734.82,-323.766 727.702,-324.921"/>
<text text-anchor="middle" x="699.5" y="-376.5" font-family="Helvetica,sans-Serif" font-size="10.00"> +UnknownData01</text>
<text text-anchor="middle" x="699.5" y="-365.5" font-family="Helvetica,sans-Serif" font-size="10.00">+UnknownData00</text>
</g>
<!-- Node240 -->
<g id="node8" class="node"><title>Node240</title>
<g id="a_node8"><a xlink:href="a10559.html" target="_top" xlink:title=" ">
<polygon fill="none" stroke="red" points="857.5,-182.5 857.5,-338.5 1013.5,-338.5 1013.5,-182.5 857.5,-182.5"/>
<text text-anchor="middle" x="935.5" y="-326.5" font-family="Helvetica,sans-Serif" font-size="10.00">SDK::UInventoryItemComponent</text>
<polyline fill="none" stroke="red" points="857.5,-319.5 1013.5,-319.5 "/>
<text text-anchor="middle" x="935.5" y="-307.5" font-family="Helvetica,sans-Serif" font-size="10.00"> </text>
<polyline fill="none" stroke="red" points="857.5,-300.5 1013.5,-300.5 "/>
<text text-anchor="start" x="865.5" y="-288.5" font-family="Helvetica,sans-Serif" font-size="10.00">+ SetItemType()</text>
<text text-anchor="start" x="865.5" y="-277.5" font-family="Helvetica,sans-Serif" font-size="10.00">+ SetIconURL()</text>
<text text-anchor="start" x="865.5" y="-266.5" font-family="Helvetica,sans-Serif" font-size="10.00">+ SetIconRotation()</text>
<text text-anchor="start" x="865.5" y="-255.5" font-family="Helvetica,sans-Serif" font-size="10.00">+ OnAddedToInventory()</text>
<text text-anchor="start" x="865.5" y="-244.5" font-family="Helvetica,sans-Serif" font-size="10.00">+ GetItemType()</text>
<text text-anchor="start" x="865.5" y="-233.5" font-family="Helvetica,sans-Serif" font-size="10.00">+ GetIconURL()</text>
<text text-anchor="start" x="865.5" y="-222.5" font-family="Helvetica,sans-Serif" font-size="10.00">+ GetIconScale()</text>
<text text-anchor="start" x="865.5" y="-211.5" font-family="Helvetica,sans-Serif" font-size="10.00">+ GetIconRotation()</text>
<text text-anchor="start" x="865.5" y="-200.5" font-family="Helvetica,sans-Serif" font-size="10.00">+ GetBackgroundImageURL()</text>
<text text-anchor="start" x="865.5" y="-189.5" font-family="Helvetica,sans-Serif" font-size="10.00">+ StaticClass()</text>
</a>
</g>
</g>
<!-- Node14&#45;&gt;Node240 -->
<g id="edge10" class="edge"><title>Node14&#45;&gt;Node240</title>
<path fill="none" stroke="#404040" d="M643.334,-432.189C667.257,-426.372 710.124,-413.408 739.5,-390 753.481,-378.859 747.588,-366.86 762.5,-357 792.147,-337.397 810.184,-353.131 846.157,-339.189"/>
<polygon fill="none" stroke="#404040" points="846.426,-339.068 850.248,-332.953 857.363,-334.13 853.54,-340.245 846.426,-339.068"/>
<text text-anchor="middle" x="802.5" y="-376.5" font-family="Helvetica,sans-Serif" font-size="10.00"> +UnknownData01</text>
<text text-anchor="middle" x="802.5" y="-365.5" font-family="Helvetica,sans-Serif" font-size="10.00">+UnknownData00</text>
</g>
<!-- Node11 -->
<g id="node10" class="node"><title>Node11</title>
<g id="a_node10"><a xlink:href="a26127.html" target="_top" xlink:title=" ">
<polygon fill="none" stroke="red" points="179,-221 179,-300 298,-300 298,-221 179,-221"/>
<text text-anchor="middle" x="238.5" y="-288" font-family="Helvetica,sans-Serif" font-size="10.00">SDK::UClass</text>
<polyline fill="none" stroke="red" points="179,-281 298,-281 "/>
<text text-anchor="middle" x="238.5" y="-269" font-family="Helvetica,sans-Serif" font-size="10.00"> </text>
<polyline fill="none" stroke="red" points="179,-262 298,-262 "/>
<text text-anchor="start" x="187" y="-250" font-family="Helvetica,sans-Serif" font-size="10.00">+ CreateDefaultObject()</text>
<text text-anchor="start" x="187" y="-239" font-family="Helvetica,sans-Serif" font-size="10.00">+ CreateDefaultObject()</text>
<text text-anchor="start" x="187" y="-228" font-family="Helvetica,sans-Serif" font-size="10.00">+ StaticClass()</text>
</a>
</g>
</g>
<!-- Node14&#45;&gt;Node11 -->
<g id="edge15" class="edge"><title>Node14&#45;&gt;Node11</title>
<path fill="none" stroke="#404040" d="M607.966,-434.987C556.371,-431.178 402.677,-413.814 306.5,-339 295.463,-330.415 284.83,-319.853 275.382,-309.32"/>
<polygon fill="none" stroke="#404040" points="275.267,-309.187 268.314,-307.275 267.405,-300.121 274.358,-302.033 275.267,-309.187"/>
<text text-anchor="middle" x="433.5" y="-371" font-family="Helvetica,sans-Serif" font-size="10.00"> +UnknownData00</text>
</g>
<!-- Node6 -->
<g id="node5" class="node"><title>Node6</title>
<g id="a_node5"><a xlink:href="a25839.html" target="_top" xlink:title=" ">
<polygon fill="none" stroke="red" points="483.5,-204.5 483.5,-316.5 589.5,-316.5 589.5,-204.5 483.5,-204.5"/>
<text text-anchor="middle" x="536.5" y="-304.5" font-family="Helvetica,sans-Serif" font-size="10.00">SDK::FName</text>
<polyline fill="none" stroke="red" points="483.5,-297.5 589.5,-297.5 "/>
<text text-anchor="middle" x="536.5" y="-285.5" font-family="Helvetica,sans-Serif" font-size="10.00"> </text>
<polyline fill="none" stroke="red" points="483.5,-278.5 589.5,-278.5 "/>
<text text-anchor="start" x="491.5" y="-266.5" font-family="Helvetica,sans-Serif" font-size="10.00">+ FName()</text>
<text text-anchor="start" x="491.5" y="-255.5" font-family="Helvetica,sans-Serif" font-size="10.00">+ FName()</text>
<text text-anchor="start" x="491.5" y="-244.5" font-family="Helvetica,sans-Serif" font-size="10.00">+ FName()</text>
<text text-anchor="start" x="491.5" y="-233.5" font-family="Helvetica,sans-Serif" font-size="10.00">+ GetName()</text>
<text text-anchor="start" x="491.5" y="-222.5" font-family="Helvetica,sans-Serif" font-size="10.00">+ operator==()</text>
<text text-anchor="start" x="491.5" y="-211.5" font-family="Helvetica,sans-Serif" font-size="10.00">+ GetGlobalNames()</text>
</a>
</g>
</g>
<!-- Node6&#45;&gt;Node1 -->
<g id="edge4" class="edge"><title>Node6&#45;&gt;Node1</title>
<path fill="none" stroke="#404040" d="M525.084,-204.325C522.979,-180.285 524.676,-152.705 537.5,-131 546.093,-116.456 558.725,-104.566 572.801,-94.9188"/>
<polygon fill="none" stroke="#404040" points="573.134,-94.7082 576.06,-88.1176 583.27,-88.2843 580.343,-94.8749 573.134,-94.7082"/>
<text text-anchor="middle" x="596" y="-145" font-family="Helvetica,sans-Serif" font-size="10.00"> +ShovelHeadSocketName</text>
</g>
<!-- Node191&#45;&gt;Node1 -->
<g id="edge5" class="edge"><title>Node191&#45;&gt;Node1</title>
<path fill="none" stroke="#404040" d="M750.622,-204.303C736.609,-179.252 719.927,-149.431 705.271,-123.232"/>
<polygon fill="none" stroke="#404040" points="705.199,-123.103 698.779,-119.82 699.34,-112.631 705.761,-115.914 705.199,-123.103"/>
<text text-anchor="middle" x="778.5" y="-156" font-family="Helvetica,sans-Serif" font-size="10.00"> +HitBuriedChestSfx</text>
<text text-anchor="middle" x="778.5" y="-145" font-family="Helvetica,sans-Serif" font-size="10.00">+ShovelExitSurfaceSfx</text>
<text text-anchor="middle" x="778.5" y="-134" font-family="Helvetica,sans-Serif" font-size="10.00">+ShovelEnterSurfaceSfx</text>
</g>
<!-- Node27 -->
<g id="node7" class="node"><title>Node27</title>
<g id="a_node7"><a xlink:title=" ">
<polygon fill="none" stroke="#bfbfbf" points="945,-408.5 945,-465.5 980,-465.5 980,-408.5 945,-408.5"/>
<text text-anchor="middle" x="962.5" y="-453.5" font-family="Helvetica,sans-Serif" font-size="10.00">float</text>
<polyline fill="none" stroke="#bfbfbf" points="945,-446.5 980,-446.5 "/>
<text text-anchor="middle" x="962.5" y="-434.5" font-family="Helvetica,sans-Serif" font-size="10.00"> </text>
<polyline fill="none" stroke="#bfbfbf" points="945,-427.5 980,-427.5 "/>
<text text-anchor="middle" x="962.5" y="-415.5" font-family="Helvetica,sans-Serif" font-size="10.00"> </text>
</a>
</g>
</g>
<!-- Node27&#45;&gt;Node1 -->
<g id="edge12" class="edge"><title>Node27&#45;&gt;Node1</title>
<path fill="none" stroke="#404040" d="M980.047,-434.05C1021.99,-428.335 1127.81,-407.448 1171.5,-339 1209.04,-280.184 1207.58,-241.728 1171.5,-182 1129.83,-113.021 900.135,-79.6134 765.992,-65.773"/>
<polygon fill="none" stroke="#404040" points="765.656,-65.7392 759.285,-69.1161 753.717,-64.5335 760.089,-61.1566 765.656,-65.7392"/>
<text text-anchor="start" x="1198.5" y="-296.5" font-family="Helvetica,sans-Serif" font-size="10.00"> +CameraPitchAfterDeflected</text>
<text text-anchor="middle" x="1298" y="-285.5" font-family="Helvetica,sans-Serif" font-size="10.00">DigIfStartedLow</text>
<text text-anchor="start" x="1198.5" y="-274.5" font-family="Helvetica,sans-Serif" font-size="10.00">+CameraPitchAfterDeflectedDig</text>
<text text-anchor="middle" x="1298" y="-263.5" font-family="Helvetica,sans-Serif" font-size="10.00">IfStartedHigh</text>
<text text-anchor="start" x="1198.5" y="-252.5" font-family="Helvetica,sans-Serif" font-size="10.00">+CameraPitchAfterSuccessfulDig</text>
<text text-anchor="middle" x="1298" y="-241.5" font-family="Helvetica,sans-Serif" font-size="10.00">IfStartedHigh</text>
<text text-anchor="middle" x="1298" y="-230.5" font-family="Helvetica,sans-Serif" font-size="10.00">+DigRequestToleranceTimeOnServer</text>
<text text-anchor="middle" x="1298" y="-219.5" font-family="Helvetica,sans-Serif" font-size="10.00">+CameraPitchAfterSuccessfulDigIfStartedLow</text>
</g>
<!-- Node27&#45;&gt;Node191 -->
<g id="edge6" class="edge"><title>Node27&#45;&gt;Node191</title>
<path fill="none" stroke="#404040" d="M944.766,-429.879C925.45,-422.582 894.39,-408.951 872.5,-390 860.725,-379.806 841.405,-353.23 823.588,-326.875"/>
<polygon fill="none" stroke="#404040" points="823.53,-326.789 816.868,-324.03 816.852,-316.819 823.514,-319.578 823.53,-326.789"/>
<text text-anchor="middle" x="910" y="-382" font-family="Helvetica,sans-Serif" font-size="10.00"> +DurationMin</text>
<text text-anchor="middle" x="910" y="-371" font-family="Helvetica,sans-Serif" font-size="10.00">+DurationMax</text>
<text text-anchor="middle" x="910" y="-360" font-family="Helvetica,sans-Serif" font-size="10.00">+MaxAttenuation</text>
</g>
<!-- Node27&#45;&gt;Node240 -->
<g id="edge9" class="edge"><title>Node27&#45;&gt;Node240</title>
<path fill="none" stroke="#404040" d="M958.222,-408.35C955.774,-392.531 952.552,-371.704 949.306,-350.725"/>
<polygon fill="none" stroke="#404040" points="949.286,-350.6 944.416,-345.282 947.451,-338.741 952.322,-344.059 949.286,-350.6"/>
<text text-anchor="middle" x="987.5" y="-376.5" font-family="Helvetica,sans-Serif" font-size="10.00"> +IconRotation</text>
<text text-anchor="middle" x="987.5" y="-365.5" font-family="Helvetica,sans-Serif" font-size="10.00">+IconScale</text>
</g>
<!-- Node240&#45;&gt;Node1 -->
<g id="edge8" class="edge"><title>Node240&#45;&gt;Node1</title>
<path fill="none" stroke="#404040" d="M885.31,-182.19C870.819,-163.778 853.894,-145.336 835.5,-131 814.484,-114.62 789.248,-101.069 764.835,-90.256"/>
<polygon fill="none" stroke="#404040" points="764.724,-90.2083 757.633,-91.5208 753.694,-85.4803 760.785,-84.1679 764.724,-90.2083"/>
<text text-anchor="middle" x="902" y="-145" font-family="Helvetica,sans-Serif" font-size="10.00"> +InventoryItem</text>
</g>
<!-- Node242 -->
<g id="node9" class="node"><title>Node242</title>
<g id="a_node9"><a xlink:href="a25823.html" target="_top" xlink:title=" ">
<polygon fill="none" stroke="black" points="1032,-204.5 1032,-316.5 1163,-316.5 1163,-204.5 1032,-204.5"/>
<text text-anchor="start" x="1040" y="-304.5" font-family="Helvetica,sans-Serif" font-size="10.00">SDK::TArray&lt; struct</text>
<text text-anchor="middle" x="1097.5" y="-293.5" font-family="Helvetica,sans-Serif" font-size="10.00"> SDK::FDigAnimParams &gt;</text>
<polyline fill="none" stroke="black" points="1032,-286.5 1163,-286.5 "/>
<text text-anchor="middle" x="1097.5" y="-274.5" font-family="Helvetica,sans-Serif" font-size="10.00"> </text>
<polyline fill="none" stroke="black" points="1032,-267.5 1163,-267.5 "/>
<text text-anchor="start" x="1040" y="-255.5" font-family="Helvetica,sans-Serif" font-size="10.00">+ TArray()</text>
<text text-anchor="start" x="1040" y="-244.5" font-family="Helvetica,sans-Serif" font-size="10.00">+ Num()</text>
<text text-anchor="start" x="1040" y="-233.5" font-family="Helvetica,sans-Serif" font-size="10.00">+ operator[]()</text>
<text text-anchor="start" x="1040" y="-222.5" font-family="Helvetica,sans-Serif" font-size="10.00">+ operator[]()</text>
<text text-anchor="start" x="1040" y="-211.5" font-family="Helvetica,sans-Serif" font-size="10.00">+ IsValidIndex()</text>
</a>
</g>
</g>
<!-- Node242&#45;&gt;Node1 -->
<g id="edge13" class="edge"><title>Node242&#45;&gt;Node1</title>
<path fill="none" stroke="#404040" d="M1047.5,-204.332C1039.45,-196.494 1030.97,-188.798 1022.5,-182 947.751,-121.999 841.993,-89.8424 765.56,-73.3437"/>
<polygon fill="none" stroke="#404040" points="765.299,-73.2891 758.606,-75.9737 753.554,-70.8283 760.247,-68.1437 765.299,-73.2891"/>
<text text-anchor="middle" x="1030.5" y="-145" font-family="Helvetica,sans-Serif" font-size="10.00"> +DigAnimParams</text>
</g>
<!-- Node11&#45;&gt;Node1 -->
<g id="edge14" class="edge"><title>Node11&#45;&gt;Node1</title>
<path fill="none" stroke="#404040" d="M230.124,-220.927C226.375,-192.524 226.83,-154.847 248.5,-131 290.666,-84.5978 460.934,-67.4225 571.305,-61.1123"/>
<polygon fill="none" stroke="#404040" points="571.473,-61.1032 577.246,-56.7813 583.455,-60.4474 577.683,-64.7693 571.473,-61.1032"/>
<text text-anchor="middle" x="298.5" y="-145" font-family="Helvetica,sans-Serif" font-size="10.00"> +ActorBeingDugClass</text>
</g>
</g>
</svg>
        <g id="navigator" transform="translate(0 0)" fill="#404254">
                <rect fill="#f2f5e9" fill-opacity="0.5" stroke="#606060" stroke-width=".5" x="0" y="0" width="60" height="60"/>
                <use id="zoomplus" xlink:href="#zoomPlus" x="17" y="9" onmousedown="handleZoom(evt,'in')"/>
                <use id="zoomminus" xlink:href="#zoomMin" x="42" y="9" onmousedown="handleZoom(evt,'out')"/>
                <use id="reset" xlink:href="#resetDef" x="30" y="36" onmousedown="handleReset()"/>
                <g id="arrowUp" xlink:href="#dirArrow" transform="translate(30 24)" onmousedown="handlePan(0,-1)">
                  <use xlink:href="#rim" fill="#404040">
                        <set attributeName="fill" to="#808080" begin="arrowUp.mouseover" end="arrowUp.mouseout"/>
                  </use>
                  <path fill="none" stroke="white" stroke-width="1.5" d="M0,-3.0v7 M-2.5,-0.5L0,-3.0L2.5,-0.5"/>
                </g>
                <g id="arrowRight" xlink:href="#dirArrow" transform="rotate(90) translate(36 -43)" onmousedown="handlePan(1,0)">
                  <use xlink:href="#rim" fill="#404040">
                        <set attributeName="fill" to="#808080" begin="arrowRight.mouseover" end="arrowRight.mouseout"/>
                  </use>
                  <path fill="none" stroke="white" stroke-width="1.5" d="M0,-3.0v7 M-2.5,-0.5L0,-3.0L2.5,-0.5"/>
                </g>
                <g id="arrowDown" xlink:href="#dirArrow" transform="rotate(180) translate(-30 -48)" onmousedown="handlePan(0,1)">
                  <use xlink:href="#rim" fill="#404040">
                        <set attributeName="fill" to="#808080" begin="arrowDown.mouseover" end="arrowDown.mouseout"/>
                  </use>
                  <path fill="none" stroke="white" stroke-width="1.5" d="M0,-3.0v7 M-2.5,-0.5L0,-3.0L2.5,-0.5"/>
                </g>
                <g id="arrowLeft" xlink:href="#dirArrow" transform="rotate(270) translate(-36 17)" onmousedown="handlePan(-1,0)">
                  <use xlink:href="#rim" fill="#404040">
                        <set attributeName="fill" to="#808080" begin="arrowLeft.mouseover" end="arrowLeft.mouseout"/>
                  </use>
                  <path fill="none" stroke="white" stroke-width="1.5" d="M0,-3.0v7 M-2.5,-0.5L0,-3.0L2.5,-0.5"/>
                </g>
        </g>
        <svg viewBox="0 0 15 15" width="100%" height="30px" preserveAspectRatio="xMaxYMin meet">
         <g id="arrow_out" transform="scale(0.3 0.3)">
          <a xlink:href="a06533_org.svg" target="_base">
           <rect id="button" ry="5" rx="5" y="6" x="6" height="38" width="38"
                fill="#f2f5e9" fill-opacity="0.5" stroke="#606060" stroke-width="1.0"/>
           <path id="arrow"
             d="M 11.500037,31.436501 C 11.940474,20.09759 22.043105,11.32322 32.158766,21.979434 L 37.068811,17.246167 C 37.068811,17.246167 37.088388,32 37.088388,32 L 22.160133,31.978069 C 22.160133,31.978069 26.997745,27.140456 26.997745,27.140456 C 18.528582,18.264221 13.291696,25.230495 11.500037,31.436501 z"
             style="fill:#404040;"/>
          </a>
         </g>
        </svg>
</svg>
