<?xml version="1.0" encoding="UTF-8" standalone="no"?>
<!DOCTYPE svg PUBLIC "-//W3C//DTD SVG 1.1//EN"
 "http://www.w3.org/Graphics/SVG/1.1/DTD/svg11.dtd">
<!-- Generated by graphviz version 2.38.0 (20140413.2041)
 -->
<!-- Title: SDK::ATutorialTavernStrangerNPC Pages: 1 -->
<!--zoomable 516 -->
<svg id="main" version="1.1" xmlns="http://www.w3.org/2000/svg" xmlns:xlink="http://www.w3.org/1999/xlink" xml:space="preserve" onload="init(evt)">
<style type="text/css"><![CDATA[
.edge:hover path { stroke: red; }
.edge:hover polygon { stroke: red; fill: red; }
]]></style>
<script type="text/javascript"><![CDATA[
var edges = document.getElementsByTagName('g');
if (edges && edges.length) {
  for (var i=0;i<edges.length;i++) {
    if (edges[i].id.substr(0,4)=='edge') {
      edges[i].setAttribute('class','edge');
    }
  }
}
]]></script>
        <defs>
                <circle id="rim" cx="0" cy="0" r="7"/>
                <circle id="rim2" cx="0" cy="0" r="3.5"/>
                <g id="zoomPlus">
                        <use xlink:href="#rim" fill="#404040">
                                <set attributeName="fill" to="#808080" begin="zoomplus.mouseover" end="zoomplus.mouseout"/>
                        </use>
                        <path d="M-4,0h8M0,-4v8" fill="none" stroke="white" stroke-width="1.5" pointer-events="none"/>
                </g>
                <g id="zoomMin">
                        <use xlink:href="#rim" fill="#404040">
                                <set attributeName="fill" to="#808080" begin="zoomminus.mouseover" end="zoomminus.mouseout"/>
                        </use>
                        <path d="M-4,0h8" fill="none" stroke="white" stroke-width="1.5" pointer-events="none"/>
                </g>
                <g id="dirArrow">
                        <path fill="none" stroke="white" stroke-width="1.5" d="M0,-3.0v7 M-2.5,-0.5L0,-3.0L2.5,-0.5"/>
                </g>
               <g id="resetDef">
                       <use xlink:href="#rim2" fill="#404040">
                               <set attributeName="fill" to="#808080" begin="reset.mouseover" end="reset.mouseout"/>
                       </use>
               </g>
        </defs>

<script type="text/javascript">
var viewWidth = 891;
var viewHeight = 516;
var sectionId = 'dynsection-1';
</script>
<script xlink:href="svgpan.js"/>
<svg id="graph" class="graph">
<g id="viewport">
<title>SDK::ATutorialTavernStrangerNPC</title>
<!-- Node1 -->
<g id="node1" class="node"><title>Node1</title>
<g id="a_node1"><a xlink:title=" ">
<polygon fill="#bfbfbf" stroke="black" points="333.664,-0.5 333.664,-79.5 499.664,-79.5 499.664,-0.5 333.664,-0.5"/>
<text text-anchor="middle" x="416.664" y="-67.5" font-family="Helvetica,sans-Serif" font-size="10.00">SDK::ATutorialTavernStrangerNPC</text>
<polyline fill="none" stroke="black" points="333.664,-60.5 499.664,-60.5 "/>
<text text-anchor="middle" x="416.664" y="-48.5" font-family="Helvetica,sans-Serif" font-size="10.00"> </text>
<polyline fill="none" stroke="black" points="333.664,-41.5 499.664,-41.5 "/>
<text text-anchor="start" x="341.664" y="-29.5" font-family="Helvetica,sans-Serif" font-size="10.00">+ OnAnimationsLoaded()</text>
<text text-anchor="start" x="341.664" y="-18.5" font-family="Helvetica,sans-Serif" font-size="10.00">+ CleanTutorialCutScene()</text>
<text text-anchor="start" x="341.664" y="-7.5" font-family="Helvetica,sans-Serif" font-size="10.00">+ StaticClass()</text>
</a>
</g>
</g>
<!-- Node2 -->
<g id="node2" class="node"><title>Node2</title>
<g id="a_node2"><a xlink:href="a06595.html" target="_top" xlink:title=" ">
<polygon fill="none" stroke="red" points="70.664,-127.5 70.664,-184.5 204.664,-184.5 204.664,-127.5 70.664,-127.5"/>
<text text-anchor="middle" x="137.664" y="-172.5" font-family="Helvetica,sans-Serif" font-size="10.00">SDK::ATavernStrangerNPC</text>
<polyline fill="none" stroke="red" points="70.664,-165.5 204.664,-165.5 "/>
<text text-anchor="middle" x="137.664" y="-153.5" font-family="Helvetica,sans-Serif" font-size="10.00"> </text>
<polyline fill="none" stroke="red" points="70.664,-146.5 204.664,-146.5 "/>
<text text-anchor="start" x="78.664" y="-134.5" font-family="Helvetica,sans-Serif" font-size="10.00">+ StaticClass()</text>
</a>
</g>
</g>
<!-- Node2&#45;&gt;Node1 -->
<g id="edge1" class="edge"><title>Node2&#45;&gt;Node1</title>
<path fill="none" stroke="midnightblue" d="M184.248,-121.728C197.529,-113.206 212.302,-104.596 226.664,-98 260.463,-82.4767 299.56,-69.9064 333.47,-60.5603"/>
<polygon fill="none" stroke="midnightblue" points="182.201,-118.885 175.755,-127.294 186.038,-124.74 182.201,-118.885"/>
</g>
<!-- Node192 -->
<g id="node3" class="node"><title>Node192</title>
<g id="a_node3"><a xlink:href="a33547.html" target="_top" xlink:title=" ">
<polygon fill="none" stroke="red" points="205.164,-334.5 205.164,-391.5 360.164,-391.5 360.164,-334.5 205.164,-334.5"/>
<text text-anchor="middle" x="282.664" y="-379.5" font-family="Helvetica,sans-Serif" font-size="10.00">SDK::FObjectMessagingHandle</text>
<polyline fill="none" stroke="red" points="205.164,-372.5 360.164,-372.5 "/>
<text text-anchor="middle" x="282.664" y="-360.5" font-family="Helvetica,sans-Serif" font-size="10.00"> </text>
<polyline fill="none" stroke="red" points="205.164,-353.5 360.164,-353.5 "/>
<text text-anchor="middle" x="282.664" y="-341.5" font-family="Helvetica,sans-Serif" font-size="10.00"> </text>
</a>
</g>
</g>
<!-- Node192&#45;&gt;Node1 -->
<g id="edge7" class="edge"><title>Node192&#45;&gt;Node1</title>
<path fill="none" stroke="#404040" d="M276.204,-334.192C264.192,-279.752 241.401,-161.415 261.664,-127 275.605,-103.322 298.677,-85.6989 322.814,-72.7878"/>
<polygon fill="none" stroke="#404040" points="322.859,-72.7651 326.415,-66.4917 333.573,-67.3611 330.017,-73.6346 322.859,-72.7651"/>
<text text-anchor="middle" x="331.664" y="-153.5" font-family="Helvetica,sans-Serif" font-size="10.00"> +PlaySummonSFXEventHandle</text>
</g>
<!-- Node192&#45;&gt;Node2 -->
<g id="edge2" class="edge"><title>Node192&#45;&gt;Node2</title>
<path fill="none" stroke="#404040" d="M204.764,-337.778C172.318,-327.512 141.807,-317.541 140.664,-316 115.395,-281.932 119.374,-231.49 126.598,-196.597"/>
<polygon fill="none" stroke="#404040" points="126.688,-196.203 124.123,-189.463 129.358,-184.504 131.922,-191.243 126.688,-196.203"/>
<text text-anchor="middle" x="195.164" y="-262.5" font-family="Helvetica,sans-Serif" font-size="10.00"> +ResetNPCEventHandle</text>
<text text-anchor="middle" x="195.164" y="-251.5" font-family="Helvetica,sans-Serif" font-size="10.00">+ShowNPCEventHandle</text>
</g>
<!-- Node17 -->
<g id="node4" class="node"><title>Node17</title>
<g id="a_node4"><a xlink:title=" ">
<polygon fill="none" stroke="#bfbfbf" points="321.164,-450.5 321.164,-507.5 356.164,-507.5 356.164,-450.5 321.164,-450.5"/>
<text text-anchor="middle" x="338.664" y="-495.5" font-family="Helvetica,sans-Serif" font-size="10.00">char</text>
<polyline fill="none" stroke="#bfbfbf" points="321.164,-488.5 356.164,-488.5 "/>
<text text-anchor="middle" x="338.664" y="-476.5" font-family="Helvetica,sans-Serif" font-size="10.00"> </text>
<polyline fill="none" stroke="#bfbfbf" points="321.164,-469.5 356.164,-469.5 "/>
<text text-anchor="middle" x="338.664" y="-457.5" font-family="Helvetica,sans-Serif" font-size="10.00"> </text>
</a>
</g>
</g>
<!-- Node17&#45;&gt;Node1 -->
<g id="edge10" class="edge"><title>Node17&#45;&gt;Node1</title>
<path fill="none" stroke="#404040" d="M321.123,-477.446C283.439,-475.582 192.887,-467.452 127.664,-432 27.2471,-377.418 -22.6218,-312.338 10.664,-203 48.0664,-80.1398 213.434,-48.921 321.241,-41.873"/>
<polygon fill="none" stroke="#404040" points="321.459,-41.8604 327.216,-37.5179 333.439,-41.1619 327.682,-45.5044 321.459,-41.8604"/>
<text text-anchor="middle" x="50.664" y="-262.5" font-family="Helvetica,sans-Serif" font-size="10.00"> +UnknownData01</text>
<text text-anchor="middle" x="50.664" y="-251.5" font-family="Helvetica,sans-Serif" font-size="10.00">+UnknownData00</text>
</g>
<!-- Node17&#45;&gt;Node2 -->
<g id="edge4" class="edge"><title>Node17&#45;&gt;Node2</title>
<path fill="none" stroke="#404040" d="M321.049,-477.454C277.282,-475.031 163.673,-461.97 115.664,-392 75.4214,-333.349 99.8677,-246.19 119.779,-196.15"/>
<polygon fill="none" stroke="#404040" points="119.86,-195.954 118.456,-188.881 124.445,-184.864 125.849,-191.938 119.86,-195.954"/>
<text text-anchor="middle" x="155.664" y="-366" font-family="Helvetica,sans-Serif" font-size="10.00"> +UnknownData01</text>
<text text-anchor="middle" x="155.664" y="-355" font-family="Helvetica,sans-Serif" font-size="10.00">+UnknownData00</text>
</g>
<!-- Node17&#45;&gt;Node192 -->
<g id="edge3" class="edge"><title>Node17&#45;&gt;Node192</title>
<path fill="none" stroke="#404040" d="M321.1,-466.527C310.095,-458.314 296.706,-446.221 289.664,-432 285.416,-423.422 283.15,-413.499 282.039,-403.93"/>
<polygon fill="none" stroke="#404040" points="282.021,-403.668 277.607,-397.965 281.174,-391.698 285.587,-397.401 282.021,-403.668"/>
<text text-anchor="middle" x="329.664" y="-424" font-family="Helvetica,sans-Serif" font-size="10.00"> +UnknownData01</text>
<text text-anchor="middle" x="329.664" y="-413" font-family="Helvetica,sans-Serif" font-size="10.00">+UnknownData00</text>
</g>
<!-- Node522 -->
<g id="node5" class="node"><title>Node522</title>
<g id="a_node5"><a xlink:href="a34443.html" target="_top" xlink:title=" ">
<polygon fill="none" stroke="black" points="343.664,-231 343.664,-288 453.664,-288 453.664,-231 343.664,-231"/>
<text text-anchor="middle" x="398.664" y="-276" font-family="Helvetica,sans-Serif" font-size="10.00">SDK::FWwiseEmitter</text>
<polyline fill="none" stroke="black" points="343.664,-269 453.664,-269 "/>
<text text-anchor="middle" x="398.664" y="-257" font-family="Helvetica,sans-Serif" font-size="10.00"> </text>
<polyline fill="none" stroke="black" points="343.664,-250 453.664,-250 "/>
<text text-anchor="middle" x="398.664" y="-238" font-family="Helvetica,sans-Serif" font-size="10.00"> </text>
</a>
</g>
</g>
<!-- Node17&#45;&gt;Node522 -->
<g id="edge6" class="edge"><title>Node17&#45;&gt;Node522</title>
<path fill="none" stroke="#404040" d="M356.482,-455.682C361.447,-448.482 366.376,-440.227 369.664,-432 386.833,-389.046 393.839,-336.09 396.696,-300.482"/>
<polygon fill="none" stroke="#404040" points="396.719,-300.168 393.156,-293.899 397.573,-288.199 401.136,-294.468 396.719,-300.168"/>
<text text-anchor="middle" x="416.664" y="-418.5" font-family="Helvetica,sans-Serif" font-size="10.00"> +UnknownData00</text>
</g>
<!-- Node433 -->
<g id="node6" class="node"><title>Node433</title>
<g id="a_node6"><a xlink:href="a36295.html" target="_top" xlink:title=" ">
<polygon fill="none" stroke="red" points="472.664,-203.5 472.664,-315.5 588.664,-315.5 588.664,-203.5 472.664,-203.5"/>
<text text-anchor="middle" x="530.664" y="-303.5" font-family="Helvetica,sans-Serif" font-size="10.00">SDK::UWwiseEvent</text>
<polyline fill="none" stroke="red" points="472.664,-296.5 588.664,-296.5 "/>
<text text-anchor="middle" x="530.664" y="-284.5" font-family="Helvetica,sans-Serif" font-size="10.00"> </text>
<polyline fill="none" stroke="red" points="472.664,-277.5 588.664,-277.5 "/>
<text text-anchor="start" x="480.664" y="-265.5" font-family="Helvetica,sans-Serif" font-size="10.00">+ IsAudible()</text>
<text text-anchor="start" x="480.664" y="-254.5" font-family="Helvetica,sans-Serif" font-size="10.00">+ GetMaxAttenuation()</text>
<text text-anchor="start" x="480.664" y="-243.5" font-family="Helvetica,sans-Serif" font-size="10.00">+ GetDurationType()</text>
<text text-anchor="start" x="480.664" y="-232.5" font-family="Helvetica,sans-Serif" font-size="10.00">+ GetDurationMin()</text>
<text text-anchor="start" x="480.664" y="-221.5" font-family="Helvetica,sans-Serif" font-size="10.00">+ GetDurationMax()</text>
<text text-anchor="start" x="480.664" y="-210.5" font-family="Helvetica,sans-Serif" font-size="10.00">+ StaticClass()</text>
</a>
</g>
</g>
<!-- Node17&#45;&gt;Node433 -->
<g id="edge9" class="edge"><title>Node17&#45;&gt;Node433</title>
<path fill="none" stroke="#404040" d="M356.383,-475.827C382.475,-471.74 431.305,-460.578 460.664,-432 489.442,-403.987 506.801,-362.493 517.034,-327.336"/>
<polygon fill="none" stroke="#404040" points="517.056,-327.256 514.789,-320.41 520.237,-315.685 522.503,-322.531 517.056,-327.256"/>
<text text-anchor="middle" x="519.664" y="-424" font-family="Helvetica,sans-Serif" font-size="10.00"> +UnknownData01</text>
<text text-anchor="middle" x="519.664" y="-413" font-family="Helvetica,sans-Serif" font-size="10.00">+UnknownData00</text>
</g>
<!-- Node523 -->
<g id="node8" class="node"><title>Node523</title>
<g id="a_node8"><a xlink:href="a34387.html" target="_top" xlink:title=" ">
<polygon fill="none" stroke="red" points="544.664,-334.5 544.664,-391.5 708.664,-391.5 708.664,-334.5 544.664,-334.5"/>
<text text-anchor="middle" x="626.664" y="-379.5" font-family="Helvetica,sans-Serif" font-size="10.00">SDK::UWwiseObjectPoolWrapper</text>
<polyline fill="none" stroke="red" points="544.664,-372.5 708.664,-372.5 "/>
<text text-anchor="middle" x="626.664" y="-360.5" font-family="Helvetica,sans-Serif" font-size="10.00"> </text>
<polyline fill="none" stroke="red" points="544.664,-353.5 708.664,-353.5 "/>
<text text-anchor="start" x="552.664" y="-341.5" font-family="Helvetica,sans-Serif" font-size="10.00">+ StaticClass()</text>
</a>
</g>
</g>
<!-- Node17&#45;&gt;Node523 -->
<g id="edge13" class="edge"><title>Node17&#45;&gt;Node523</title>
<path fill="none" stroke="#404040" d="M356.52,-476.604C406.929,-472.37 549.099,-458.324 586.664,-432 597.096,-424.69 605.227,-413.717 611.352,-402.707"/>
<polygon fill="none" stroke="#404040" points="611.435,-402.543 610.553,-395.386 616.82,-391.819 617.702,-398.976 611.435,-402.543"/>
<text text-anchor="middle" x="647.664" y="-424" font-family="Helvetica,sans-Serif" font-size="10.00"> +UnknownData01</text>
<text text-anchor="middle" x="647.664" y="-413" font-family="Helvetica,sans-Serif" font-size="10.00">+UnknownData00</text>
</g>
<!-- Node522&#45;&gt;Node1 -->
<g id="edge5" class="edge"><title>Node522&#45;&gt;Node1</title>
<path fill="none" stroke="#404040" d="M400.944,-230.953C403.834,-196.026 408.874,-135.133 412.468,-91.7072"/>
<polygon fill="none" stroke="#404040" points="412.473,-91.6381 408.982,-85.3286 413.463,-79.679 416.954,-85.9885 412.473,-91.6381"/>
<text text-anchor="middle" x="449.664" y="-153.5" font-family="Helvetica,sans-Serif" font-size="10.00"> +SummonEmitter</text>
</g>
<!-- Node433&#45;&gt;Node1 -->
<g id="edge8" class="edge"><title>Node433&#45;&gt;Node1</title>
<path fill="none" stroke="#404040" d="M521.004,-203.234C515.286,-178.864 506.565,-150.49 493.664,-127 486.28,-113.555 476.428,-100.463 466.244,-88.7133"/>
<polygon fill="none" stroke="#404040" points="466.071,-88.5203 459.085,-86.7335 458.047,-79.5974 465.033,-81.3842 466.071,-88.5203"/>
<text text-anchor="middle" x="550.164" y="-153.5" font-family="Helvetica,sans-Serif" font-size="10.00"> +SummonSFX</text>
</g>
<!-- Node288 -->
<g id="node7" class="node"><title>Node288</title>
<g id="a_node7"><a xlink:href="a26419.html" target="_top" xlink:title=" ">
<polygon fill="none" stroke="red" points="740.164,-127.5 740.164,-184.5 883.164,-184.5 883.164,-127.5 740.164,-127.5"/>
<text text-anchor="middle" x="811.664" y="-172.5" font-family="Helvetica,sans-Serif" font-size="10.00">SDK::FStringAssetReference</text>
<polyline fill="none" stroke="red" points="740.164,-165.5 883.164,-165.5 "/>
<text text-anchor="middle" x="811.664" y="-153.5" font-family="Helvetica,sans-Serif" font-size="10.00"> </text>
<polyline fill="none" stroke="red" points="740.164,-146.5 883.164,-146.5 "/>
<text text-anchor="middle" x="811.664" y="-134.5" font-family="Helvetica,sans-Serif" font-size="10.00"> </text>
</a>
</g>
</g>
<!-- Node288&#45;&gt;Node1 -->
<g id="edge11" class="edge"><title>Node288&#45;&gt;Node1</title>
<path fill="none" stroke="#404040" d="M739.985,-128.073C712.004,-118.012 679.528,-106.883 649.664,-98 604.604,-84.5966 553.978,-71.9305 511.455,-61.9576"/>
<polygon fill="none" stroke="#404040" points="511.375,-61.9391 504.624,-64.4743 499.688,-59.2178 506.439,-56.6827 511.375,-61.9391"/>
<text text-anchor="middle" x="718.164" y="-101" font-family="Helvetica,sans-Serif" font-size="10.00"> +AnimationData</text>
</g>
<!-- Node523&#45;&gt;Node1 -->
<g id="edge12" class="edge"><title>Node523&#45;&gt;Node1</title>
<path fill="none" stroke="#404040" d="M629.628,-334.319C633.186,-286.999 633.761,-189.612 587.664,-127 568.706,-101.25 539.839,-82.7067 511.192,-69.5912"/>
<polygon fill="none" stroke="#404040" points="510.825,-69.432 503.728,-70.7103 499.819,-64.6509 506.916,-63.3726 510.825,-69.432"/>
<text text-anchor="middle" x="659.664" y="-153.5" font-family="Helvetica,sans-Serif" font-size="10.00"> +SummonSFXPool</text>
</g>
</g>
</svg>
        <g id="navigator" transform="translate(0 0)" fill="#404254">
                <rect fill="#f2f5e9" fill-opacity="0.5" stroke="#606060" stroke-width=".5" x="0" y="0" width="60" height="60"/>
                <use id="zoomplus" xlink:href="#zoomPlus" x="17" y="9" onmousedown="handleZoom(evt,'in')"/>
                <use id="zoomminus" xlink:href="#zoomMin" x="42" y="9" onmousedown="handleZoom(evt,'out')"/>
                <use id="reset" xlink:href="#resetDef" x="30" y="36" onmousedown="handleReset()"/>
                <g id="arrowUp" xlink:href="#dirArrow" transform="translate(30 24)" onmousedown="handlePan(0,-1)">
                  <use xlink:href="#rim" fill="#404040">
                        <set attributeName="fill" to="#808080" begin="arrowUp.mouseover" end="arrowUp.mouseout"/>
                  </use>
                  <path fill="none" stroke="white" stroke-width="1.5" d="M0,-3.0v7 M-2.5,-0.5L0,-3.0L2.5,-0.5"/>
                </g>
                <g id="arrowRight" xlink:href="#dirArrow" transform="rotate(90) translate(36 -43)" onmousedown="handlePan(1,0)">
                  <use xlink:href="#rim" fill="#404040">
                        <set attributeName="fill" to="#808080" begin="arrowRight.mouseover" end="arrowRight.mouseout"/>
                  </use>
                  <path fill="none" stroke="white" stroke-width="1.5" d="M0,-3.0v7 M-2.5,-0.5L0,-3.0L2.5,-0.5"/>
                </g>
                <g id="arrowDown" xlink:href="#dirArrow" transform="rotate(180) translate(-30 -48)" onmousedown="handlePan(0,1)">
                  <use xlink:href="#rim" fill="#404040">
                        <set attributeName="fill" to="#808080" begin="arrowDown.mouseover" end="arrowDown.mouseout"/>
                  </use>
                  <path fill="none" stroke="white" stroke-width="1.5" d="M0,-3.0v7 M-2.5,-0.5L0,-3.0L2.5,-0.5"/>
                </g>
                <g id="arrowLeft" xlink:href="#dirArrow" transform="rotate(270) translate(-36 17)" onmousedown="handlePan(-1,0)">
                  <use xlink:href="#rim" fill="#404040">
                        <set attributeName="fill" to="#808080" begin="arrowLeft.mouseover" end="arrowLeft.mouseout"/>
                  </use>
                  <path fill="none" stroke="white" stroke-width="1.5" d="M0,-3.0v7 M-2.5,-0.5L0,-3.0L2.5,-0.5"/>
                </g>
        </g>
        <svg viewBox="0 0 15 15" width="100%" height="30px" preserveAspectRatio="xMaxYMin meet">
         <g id="arrow_out" transform="scale(0.3 0.3)">
          <a xlink:href="a06597_org.svg" target="_base">
           <rect id="button" ry="5" rx="5" y="6" x="6" height="38" width="38"
                fill="#f2f5e9" fill-opacity="0.5" stroke="#606060" stroke-width="1.0"/>
           <path id="arrow"
             d="M 11.500037,31.436501 C 11.940474,20.09759 22.043105,11.32322 32.158766,21.979434 L 37.068811,17.246167 C 37.068811,17.246167 37.088388,32 37.088388,32 L 22.160133,31.978069 C 22.160133,31.978069 26.997745,27.140456 26.997745,27.140456 C 18.528582,18.264221 13.291696,25.230495 11.500037,31.436501 z"
             style="fill:#404040;"/>
          </a>
         </g>
        </svg>
</svg>
