<?xml version="1.0" encoding="UTF-8" standalone="no"?>
<!DOCTYPE svg PUBLIC "-//W3C//DTD SVG 1.1//EN"
 "http://www.w3.org/Graphics/SVG/1.1/DTD/svg11.dtd">
<!-- Generated by graphviz version 2.38.0 (20140413.2041)
 -->
<!-- Title: SDK::UNPCDialogConditionalExpression Pages: 1 -->
<svg width="318pt" height="182pt"
 viewBox="0.00 0.00 317.50 182.00" xmlns="http://www.w3.org/2000/svg" xmlns:xlink="http://www.w3.org/1999/xlink">
<g id="graph0" class="graph" transform="scale(1 1) rotate(0) translate(4 178)">
<title>SDK::UNPCDialogConditionalExpression</title>
<!-- Node1 -->
<g id="node1" class="node"><title>Node1</title>
<g id="a_node1"><a xlink:title=" ">
<polygon fill="#bfbfbf" stroke="black" points="82,-0.5 82,-68.5 227,-68.5 227,-0.5 82,-0.5"/>
<text text-anchor="start" x="90" y="-56.5" font-family="Helvetica,sans-Serif" font-size="10.00">SDK::UNPCDialogConditional</text>
<text text-anchor="middle" x="154.5" y="-45.5" font-family="Helvetica,sans-Serif" font-size="10.00">Expression</text>
<polyline fill="none" stroke="black" points="82,-38.5 227,-38.5 "/>
<text text-anchor="middle" x="154.5" y="-26.5" font-family="Helvetica,sans-Serif" font-size="10.00"> </text>
<polyline fill="none" stroke="black" points="82,-19.5 227,-19.5 "/>
<text text-anchor="start" x="90" y="-7.5" font-family="Helvetica,sans-Serif" font-size="10.00">+ StaticClass()</text>
</a>
</g>
</g>
<!-- Node2 -->
<g id="node2" class="node"><title>Node2</title>
<g id="a_node2"><a xlink:href="a06735.html" target="_top" xlink:title=" ">
<polygon fill="none" stroke="red" points="0,-116.5 0,-173.5 145,-173.5 145,-116.5 0,-116.5"/>
<text text-anchor="middle" x="72.5" y="-161.5" font-family="Helvetica,sans-Serif" font-size="10.00">SDK::UNPCDialogConditional</text>
<polyline fill="none" stroke="red" points="0,-154.5 145,-154.5 "/>
<text text-anchor="middle" x="72.5" y="-142.5" font-family="Helvetica,sans-Serif" font-size="10.00"> </text>
<polyline fill="none" stroke="red" points="0,-135.5 145,-135.5 "/>
<text text-anchor="start" x="8" y="-123.5" font-family="Helvetica,sans-Serif" font-size="10.00">+ StaticClass()</text>
</a>
</g>
</g>
<!-- Node2&#45;&gt;Node1 -->
<g id="edge1" class="edge"><title>Node2&#45;&gt;Node1</title>
<path fill="none" stroke="midnightblue" d="M99.5606,-108.194C109.227,-95.4046 120.066,-81.0625 129.546,-68.5186"/>
<polygon fill="none" stroke="midnightblue" points="96.6414,-106.252 93.4042,-116.34 102.226,-110.473 96.6414,-106.252"/>
</g>
<!-- Node15 -->
<g id="node3" class="node"><title>Node15</title>
<g id="a_node3"><a xlink:href="a06799.html" target="_top" xlink:title=" ">
<polygon fill="none" stroke="red" points="163.5,-116.5 163.5,-173.5 309.5,-173.5 309.5,-116.5 163.5,-116.5"/>
<text text-anchor="middle" x="236.5" y="-161.5" font-family="Helvetica,sans-Serif" font-size="10.00">SDK::UNPCDialogExpression</text>
<polyline fill="none" stroke="red" points="163.5,-154.5 309.5,-154.5 "/>
<text text-anchor="middle" x="236.5" y="-142.5" font-family="Helvetica,sans-Serif" font-size="10.00"> </text>
<polyline fill="none" stroke="red" points="163.5,-135.5 309.5,-135.5 "/>
<text text-anchor="start" x="171.5" y="-123.5" font-family="Helvetica,sans-Serif" font-size="10.00">+ StaticClass()</text>
</a>
</g>
</g>
<!-- Node15&#45;&gt;Node1 -->
<g id="edge2" class="edge"><title>Node15&#45;&gt;Node1</title>
<path fill="none" stroke="#404040" d="M215.596,-116.34C206.823,-104.733 196.42,-90.9678 186.708,-78.1168"/>
<polygon fill="none" stroke="#404040" points="186.689,-78.092 179.881,-75.7171 179.454,-68.5186 186.263,-70.8935 186.689,-78.092"/>
<text text-anchor="middle" x="229.5" y="-90" font-family="Helvetica,sans-Serif" font-size="10.00"> +Expression</text>
</g>
</g>
</svg>
