<?xml version="1.0" encoding="UTF-8" standalone="no"?>
<!DOCTYPE svg PUBLIC "-//W3C//DTD SVG 1.1//EN"
 "http://www.w3.org/Graphics/SVG/1.1/DTD/svg11.dtd">
<!-- Generated by graphviz version 2.38.0 (20140413.2041)
 -->
<!-- Title: SDK::UNPCDialogPredicateGroupAIState Pages: 1 -->
<svg width="438pt" height="353pt"
 viewBox="0.00 0.00 437.86 353.00" xmlns="http://www.w3.org/2000/svg" xmlns:xlink="http://www.w3.org/1999/xlink">
<g id="graph0" class="graph" transform="scale(1 1) rotate(0) translate(4 349)">
<title>SDK::UNPCDialogPredicateGroupAIState</title>
<!-- Node1 -->
<g id="node1" class="node"><title>Node1</title>
<g id="a_node1"><a xlink:title=" ">
<polygon fill="#bfbfbf" stroke="black" points="105.861,-0.5 105.861,-68.5 243.861,-68.5 243.861,-0.5 105.861,-0.5"/>
<text text-anchor="start" x="113.861" y="-56.5" font-family="Helvetica,sans-Serif" font-size="10.00">SDK::UNPCDialogPredicate</text>
<text text-anchor="middle" x="174.861" y="-45.5" font-family="Helvetica,sans-Serif" font-size="10.00">GroupAIState</text>
<polyline fill="none" stroke="black" points="105.861,-38.5 243.861,-38.5 "/>
<text text-anchor="middle" x="174.861" y="-26.5" font-family="Helvetica,sans-Serif" font-size="10.00"> </text>
<polyline fill="none" stroke="black" points="105.861,-19.5 243.861,-19.5 "/>
<text text-anchor="start" x="113.861" y="-7.5" font-family="Helvetica,sans-Serif" font-size="10.00">+ StaticClass()</text>
</a>
</g>
</g>
<!-- Node2 -->
<g id="node2" class="node"><title>Node2</title>
<g id="a_node2"><a xlink:href="a06871.html" target="_top" xlink:title=" ">
<polygon fill="none" stroke="red" points="105.861,-149.5 105.861,-206.5 243.861,-206.5 243.861,-149.5 105.861,-149.5"/>
<text text-anchor="middle" x="174.861" y="-194.5" font-family="Helvetica,sans-Serif" font-size="10.00">SDK::UNPCDialogPredicate</text>
<polyline fill="none" stroke="red" points="105.861,-187.5 243.861,-187.5 "/>
<text text-anchor="middle" x="174.861" y="-175.5" font-family="Helvetica,sans-Serif" font-size="10.00"> </text>
<polyline fill="none" stroke="red" points="105.861,-168.5 243.861,-168.5 "/>
<text text-anchor="start" x="113.861" y="-156.5" font-family="Helvetica,sans-Serif" font-size="10.00">+ StaticClass()</text>
</a>
</g>
</g>
<!-- Node2&#45;&gt;Node1 -->
<g id="edge1" class="edge"><title>Node2&#45;&gt;Node1</title>
<path fill="none" stroke="midnightblue" d="M174.861,-139.369C174.861,-117.318 174.861,-89.7228 174.861,-68.5192"/>
<polygon fill="none" stroke="midnightblue" points="171.362,-139.381 174.861,-149.381 178.362,-139.382 171.362,-139.381"/>
</g>
<!-- Node13 -->
<g id="node3" class="node"><title>Node13</title>
<g id="a_node3"><a xlink:title=" ">
<polygon fill="none" stroke="#bfbfbf" points="40.3615,-287.5 40.3615,-344.5 75.3615,-344.5 75.3615,-287.5 40.3615,-287.5"/>
<text text-anchor="middle" x="57.8615" y="-332.5" font-family="Helvetica,sans-Serif" font-size="10.00">char</text>
<polyline fill="none" stroke="#bfbfbf" points="40.3615,-325.5 75.3615,-325.5 "/>
<text text-anchor="middle" x="57.8615" y="-313.5" font-family="Helvetica,sans-Serif" font-size="10.00"> </text>
<polyline fill="none" stroke="#bfbfbf" points="40.3615,-306.5 75.3615,-306.5 "/>
<text text-anchor="middle" x="57.8615" y="-294.5" font-family="Helvetica,sans-Serif" font-size="10.00"> </text>
</a>
</g>
</g>
<!-- Node13&#45;&gt;Node1 -->
<g id="edge3" class="edge"><title>Node13&#45;&gt;Node1</title>
<path fill="none" stroke="#404040" d="M40.248,-290.3C31.3359,-276.275 21.4532,-257.972 16.8615,-240 3.21927,-186.604 -11.9346,-162.99 16.8615,-116 34.1204,-87.8368 64.666,-69.1405 94.3295,-56.9226"/>
<polygon fill="none" stroke="#404040" points="94.4344,-56.8821 98.5863,-50.9861 105.626,-52.551 101.474,-58.4469 94.4344,-56.8821"/>
<text text-anchor="middle" x="56.8615" y="-175.5" font-family="Helvetica,sans-Serif" font-size="10.00"> +UnknownData00</text>
</g>
<!-- Node13&#45;&gt;Node2 -->
<g id="edge2" class="edge"><title>Node13&#45;&gt;Node2</title>
<path fill="none" stroke="#404040" d="M75.3775,-294.639C93.24,-273.876 121.347,-241.205 143.136,-215.877"/>
<polygon fill="none" stroke="#404040" points="143.317,-215.667 144.198,-208.51 151.143,-206.57 150.262,-213.727 143.317,-215.667"/>
<text text-anchor="middle" x="146.861" y="-261" font-family="Helvetica,sans-Serif" font-size="10.00"> +UnknownData00</text>
</g>
<!-- Node15 -->
<g id="node4" class="node"><title>Node15</title>
<g id="a_node4"><a xlink:href="a25635.html" target="_top" xlink:title=" ">
<polygon fill="none" stroke="black" points="261.861,-116.5 261.861,-239.5 429.861,-239.5 429.861,-116.5 261.861,-116.5"/>
<text text-anchor="start" x="269.861" y="-227.5" font-family="Helvetica,sans-Serif" font-size="10.00">SDK::TEnumAsByte&lt; EAIDialogue</text>
<text text-anchor="middle" x="345.861" y="-216.5" font-family="Helvetica,sans-Serif" font-size="10.00">State &gt;</text>
<polyline fill="none" stroke="black" points="261.861,-209.5 429.861,-209.5 "/>
<text text-anchor="middle" x="345.861" y="-197.5" font-family="Helvetica,sans-Serif" font-size="10.00"> </text>
<polyline fill="none" stroke="black" points="261.861,-190.5 429.861,-190.5 "/>
<text text-anchor="start" x="269.861" y="-178.5" font-family="Helvetica,sans-Serif" font-size="10.00">+ TEnumAsByte()</text>
<text text-anchor="start" x="269.861" y="-167.5" font-family="Helvetica,sans-Serif" font-size="10.00">+ TEnumAsByte()</text>
<text text-anchor="start" x="269.861" y="-156.5" font-family="Helvetica,sans-Serif" font-size="10.00">+ TEnumAsByte()</text>
<text text-anchor="start" x="269.861" y="-145.5" font-family="Helvetica,sans-Serif" font-size="10.00">+ TEnumAsByte()</text>
<text text-anchor="start" x="269.861" y="-134.5" font-family="Helvetica,sans-Serif" font-size="10.00">+ operator EAIDialogueState()</text>
<text text-anchor="start" x="269.861" y="-123.5" font-family="Helvetica,sans-Serif" font-size="10.00">+ GetValue()</text>
</a>
</g>
</g>
<!-- Node15&#45;&gt;Node1 -->
<g id="edge4" class="edge"><title>Node15&#45;&gt;Node1</title>
<path fill="none" stroke="#404040" d="M272.35,-116.17C256.162,-102.775 239.389,-88.8959 224.415,-76.5049"/>
<polygon fill="none" stroke="#404040" points="224.104,-76.2476 216.931,-75.5042 214.859,-68.5973 222.032,-69.3407 224.104,-76.2476"/>
<text text-anchor="middle" x="280.861" y="-90" font-family="Helvetica,sans-Serif" font-size="10.00"> +TargetState</text>
</g>
</g>
</svg>
