<?xml version="1.0" encoding="UTF-8" standalone="no"?>
<!DOCTYPE svg PUBLIC "-//W3C//DTD SVG 1.1//EN"
 "http://www.w3.org/Graphics/SVG/1.1/DTD/svg11.dtd">
<!-- Generated by graphviz version 2.38.0 (20140413.2041)
 -->
<!-- Title: SDK::ASwitchMechanismTrigger Pages: 1 -->
<!--zoomable 727 -->
<svg id="main" version="1.1" xmlns="http://www.w3.org/2000/svg" xmlns:xlink="http://www.w3.org/1999/xlink" xml:space="preserve" onload="init(evt)">
<style type="text/css"><![CDATA[
.edge:hover path { stroke: red; }
.edge:hover polygon { stroke: red; fill: red; }
]]></style>
<script type="text/javascript"><![CDATA[
var edges = document.getElementsByTagName('g');
if (edges && edges.length) {
  for (var i=0;i<edges.length;i++) {
    if (edges[i].id.substr(0,4)=='edge') {
      edges[i].setAttribute('class','edge');
    }
  }
}
]]></script>
        <defs>
                <circle id="rim" cx="0" cy="0" r="7"/>
                <circle id="rim2" cx="0" cy="0" r="3.5"/>
                <g id="zoomPlus">
                        <use xlink:href="#rim" fill="#404040">
                                <set attributeName="fill" to="#808080" begin="zoomplus.mouseover" end="zoomplus.mouseout"/>
                        </use>
                        <path d="M-4,0h8M0,-4v8" fill="none" stroke="white" stroke-width="1.5" pointer-events="none"/>
                </g>
                <g id="zoomMin">
                        <use xlink:href="#rim" fill="#404040">
                                <set attributeName="fill" to="#808080" begin="zoomminus.mouseover" end="zoomminus.mouseout"/>
                        </use>
                        <path d="M-4,0h8" fill="none" stroke="white" stroke-width="1.5" pointer-events="none"/>
                </g>
                <g id="dirArrow">
                        <path fill="none" stroke="white" stroke-width="1.5" d="M0,-3.0v7 M-2.5,-0.5L0,-3.0L2.5,-0.5"/>
                </g>
               <g id="resetDef">
                       <use xlink:href="#rim2" fill="#404040">
                               <set attributeName="fill" to="#808080" begin="reset.mouseover" end="reset.mouseout"/>
                       </use>
               </g>
        </defs>

<script type="text/javascript">
var viewWidth = 1964;
var viewHeight = 727;
var sectionId = 'dynsection-1';
</script>
<script xlink:href="svgpan.js"/>
<svg id="graph" class="graph">
<g id="viewport">
<title>SDK::ASwitchMechanismTrigger</title>
<!-- Node1 -->
<g id="node1" class="node"><title>Node1</title>
<g id="a_node1"><a xlink:title=" ">
<polygon fill="#bfbfbf" stroke="black" points="810.645,-0.5 810.645,-123.5 968.645,-123.5 968.645,-0.5 810.645,-0.5"/>
<text text-anchor="middle" x="889.645" y="-111.5" font-family="Helvetica,sans-Serif" font-size="10.00">SDK::ASwitchMechanismTrigger</text>
<polyline fill="none" stroke="black" points="810.645,-104.5 968.645,-104.5 "/>
<text text-anchor="middle" x="889.645" y="-92.5" font-family="Helvetica,sans-Serif" font-size="10.00"> </text>
<polyline fill="none" stroke="black" points="810.645,-85.5 968.645,-85.5 "/>
<text text-anchor="start" x="818.645" y="-73.5" font-family="Helvetica,sans-Serif" font-size="10.00">+ OnRep_CurrentPositionIndex()</text>
<text text-anchor="start" x="818.645" y="-62.5" font-family="Helvetica,sans-Serif" font-size="10.00">+ OnMechanismTriggerChanged</text>
<text text-anchor="start" x="818.645" y="-51.5" font-family="Helvetica,sans-Serif" font-size="10.00">MechanismActionStates()</text>
<text text-anchor="start" x="818.645" y="-40.5" font-family="Helvetica,sans-Serif" font-size="10.00">+ OnMechanismReset()</text>
<text text-anchor="start" x="818.645" y="-29.5" font-family="Helvetica,sans-Serif" font-size="10.00">+ OnAnimationStarted()</text>
<text text-anchor="start" x="818.645" y="-18.5" font-family="Helvetica,sans-Serif" font-size="10.00">+ OnAnimationCompleted()</text>
<text text-anchor="start" x="818.645" y="-7.5" font-family="Helvetica,sans-Serif" font-size="10.00">+ StaticClass()</text>
</a>
</g>
</g>
<!-- Node2 -->
<g id="node2" class="node"><title>Node2</title>
<g id="a_node2"><a xlink:href="a02151.html" target="_top" xlink:title=" ">
<polygon fill="none" stroke="red" points="721.645,-320 721.645,-377 843.645,-377 843.645,-320 721.645,-320"/>
<text text-anchor="middle" x="782.645" y="-365" font-family="Helvetica,sans-Serif" font-size="10.00">SDK::AInteractableBase</text>
<polyline fill="none" stroke="red" points="721.645,-358 843.645,-358 "/>
<text text-anchor="middle" x="782.645" y="-346" font-family="Helvetica,sans-Serif" font-size="10.00"> </text>
<polyline fill="none" stroke="red" points="721.645,-339 843.645,-339 "/>
<text text-anchor="start" x="729.645" y="-327" font-family="Helvetica,sans-Serif" font-size="10.00">+ StaticClass()</text>
</a>
</g>
</g>
<!-- Node2&#45;&gt;Node1 -->
<g id="edge1" class="edge"><title>Node2&#45;&gt;Node1</title>
<path fill="none" stroke="midnightblue" d="M780.76,-309.954C780.143,-267.089 783.894,-195.939 810.645,-142 813.748,-135.744 817.54,-129.686 821.766,-123.893"/>
<polygon fill="none" stroke="midnightblue" points="777.26,-310.038 780.991,-319.954 784.259,-309.876 777.26,-310.038"/>
</g>
<!-- Node13 -->
<g id="node3" class="node"><title>Node13</title>
<g id="a_node3"><a xlink:title=" ">
<polygon fill="none" stroke="#bfbfbf" points="485.145,-661.5 485.145,-718.5 520.145,-718.5 520.145,-661.5 485.145,-661.5"/>
<text text-anchor="middle" x="502.645" y="-706.5" font-family="Helvetica,sans-Serif" font-size="10.00">char</text>
<polyline fill="none" stroke="#bfbfbf" points="485.145,-699.5 520.145,-699.5 "/>
<text text-anchor="middle" x="502.645" y="-687.5" font-family="Helvetica,sans-Serif" font-size="10.00"> </text>
<polyline fill="none" stroke="#bfbfbf" points="485.145,-680.5 520.145,-680.5 "/>
<text text-anchor="middle" x="502.645" y="-668.5" font-family="Helvetica,sans-Serif" font-size="10.00"> </text>
</a>
</g>
</g>
<!-- Node13&#45;&gt;Node1 -->
<g id="edge10" class="edge"><title>Node13&#45;&gt;Node1</title>
<path fill="none" stroke="#404040" d="M485.043,-687.668C429.25,-683.228 257.11,-667.798 207.645,-643 20.1639,-549.012 -70.606,-352.432 65.6451,-193 159.141,-83.5974 604.073,-65.7102 798.441,-63.1819"/>
<polygon fill="none" stroke="#404040" points="798.595,-63.1802 804.548,-59.1102 810.594,-63.0397 804.642,-67.1096 798.595,-63.1802"/>
<text text-anchor="middle" x="105.645" y="-362.5" font-family="Helvetica,sans-Serif" font-size="10.00"> +UnknownData01</text>
<text text-anchor="middle" x="105.645" y="-351.5" font-family="Helvetica,sans-Serif" font-size="10.00">+UnknownData02</text>
<text text-anchor="middle" x="105.645" y="-340.5" font-family="Helvetica,sans-Serif" font-size="10.00">+UnknownData03</text>
<text text-anchor="middle" x="105.645" y="-329.5" font-family="Helvetica,sans-Serif" font-size="10.00">+UnknownData00</text>
</g>
<!-- Node13&#45;&gt;Node2 -->
<g id="edge2" class="edge"><title>Node13&#45;&gt;Node2</title>
<path fill="none" stroke="#404040" d="M520.188,-683.921C538.957,-677.537 568.118,-664.701 583.645,-643 615.499,-598.482 567.559,-560.326 606.645,-522 640.765,-488.544 674.801,-533.177 712.645,-504 748.944,-476.014 766.98,-424.946 775.542,-389.209"/>
<polygon fill="none" stroke="#404040" points="775.592,-388.986 772.986,-382.262 778.19,-377.27 780.796,-383.994 775.592,-388.986"/>
<text text-anchor="middle" x="646.645" y="-596.5" font-family="Helvetica,sans-Serif" font-size="10.00"> +UnknownData01</text>
<text text-anchor="middle" x="646.645" y="-585.5" font-family="Helvetica,sans-Serif" font-size="10.00">+UnknownData02</text>
<text text-anchor="middle" x="646.645" y="-574.5" font-family="Helvetica,sans-Serif" font-size="10.00">+UnknownData03</text>
<text text-anchor="middle" x="646.645" y="-563.5" font-family="Helvetica,sans-Serif" font-size="10.00">+UnknownData00</text>
</g>
<!-- Node180 -->
<g id="node5" class="node"><title>Node180</title>
<g id="a_node5"><a xlink:href="a12175.html" target="_top" xlink:title=" ">
<polygon fill="none" stroke="red" points="519.645,-309 519.645,-388 703.645,-388 703.645,-309 519.645,-309"/>
<text text-anchor="middle" x="611.645" y="-376" font-family="Helvetica,sans-Serif" font-size="10.00">SDK::UMechanismTriggerComponent</text>
<polyline fill="none" stroke="red" points="519.645,-369 703.645,-369 "/>
<text text-anchor="middle" x="611.645" y="-357" font-family="Helvetica,sans-Serif" font-size="10.00"> </text>
<polyline fill="none" stroke="red" points="519.645,-350 703.645,-350 "/>
<text text-anchor="start" x="527.645" y="-338" font-family="Helvetica,sans-Serif" font-size="10.00">+ OnRep_TriggerState()</text>
<text text-anchor="start" x="527.645" y="-327" font-family="Helvetica,sans-Serif" font-size="10.00">+ OnMechanismActionStateChanged()</text>
<text text-anchor="start" x="527.645" y="-316" font-family="Helvetica,sans-Serif" font-size="10.00">+ StaticClass()</text>
</a>
</g>
</g>
<!-- Node13&#45;&gt;Node180 -->
<g id="edge5" class="edge"><title>Node13&#45;&gt;Node180</title>
<path fill="none" stroke="#404040" d="M498.291,-661.445C493.991,-627.787 489.856,-569.472 503.645,-522 511.202,-495.983 548.462,-439.234 577.125,-397.909"/>
<polygon fill="none" stroke="#404040" points="577.153,-397.87 577.305,-390.66 584.019,-388.028 583.866,-395.237 577.153,-397.87"/>
<text text-anchor="middle" x="543.645" y="-596.5" font-family="Helvetica,sans-Serif" font-size="10.00"> +UnknownData01</text>
<text text-anchor="middle" x="543.645" y="-585.5" font-family="Helvetica,sans-Serif" font-size="10.00">+UnknownData02</text>
<text text-anchor="middle" x="543.645" y="-574.5" font-family="Helvetica,sans-Serif" font-size="10.00">+UnknownData03</text>
<text text-anchor="middle" x="543.645" y="-563.5" font-family="Helvetica,sans-Serif" font-size="10.00">+UnknownData00</text>
</g>
<!-- Node183 -->
<g id="node6" class="node"><title>Node183</title>
<g id="a_node6"><a xlink:href="a26827.html" target="_top" xlink:title=" ">
<polygon fill="none" stroke="red" points="915.145,-314.5 915.145,-382.5 1010.15,-382.5 1010.15,-314.5 915.145,-314.5"/>
<text text-anchor="middle" x="962.645" y="-370.5" font-family="Helvetica,sans-Serif" font-size="10.00">SDK::UCurveFloat</text>
<polyline fill="none" stroke="red" points="915.145,-363.5 1010.15,-363.5 "/>
<text text-anchor="middle" x="962.645" y="-351.5" font-family="Helvetica,sans-Serif" font-size="10.00"> </text>
<polyline fill="none" stroke="red" points="915.145,-344.5 1010.15,-344.5 "/>
<text text-anchor="start" x="923.145" y="-332.5" font-family="Helvetica,sans-Serif" font-size="10.00">+ GetFloatValue()</text>
<text text-anchor="start" x="923.145" y="-321.5" font-family="Helvetica,sans-Serif" font-size="10.00">+ StaticClass()</text>
</a>
</g>
</g>
<!-- Node13&#45;&gt;Node183 -->
<g id="edge7" class="edge"><title>Node13&#45;&gt;Node183</title>
<path fill="none" stroke="#404040" d="M520.358,-686.952C561.827,-681.799 663.467,-666.964 686.645,-643 724.886,-603.463 671.513,-558.52 712.645,-522 744.856,-493.401 871.489,-530.246 905.645,-504 939.309,-478.133 953.097,-430.292 958.741,-394.672"/>
<polygon fill="none" stroke="#404040" points="958.762,-394.523 955.628,-388.029 960.417,-382.638 963.551,-389.133 958.762,-394.523"/>
<text text-anchor="middle" x="752.645" y="-580" font-family="Helvetica,sans-Serif" font-size="10.00"> +UnknownData00</text>
</g>
<!-- Node30 -->
<g id="node8" class="node"><title>Node30</title>
<g id="a_node8"><a xlink:href="a26363.html" target="_top" xlink:title=" ">
<polygon fill="none" stroke="red" points="154.645,-193.5 154.645,-503.5 330.645,-503.5 330.645,-193.5 154.645,-193.5"/>
<text text-anchor="middle" x="242.645" y="-491.5" font-family="Helvetica,sans-Serif" font-size="10.00">SDK::USceneComponent</text>
<polyline fill="none" stroke="red" points="154.645,-484.5 330.645,-484.5 "/>
<text text-anchor="start" x="162.645" y="-472.5" font-family="Helvetica,sans-Serif" font-size="10.00">+ bAbsoluteLocation</text>
<text text-anchor="start" x="162.645" y="-461.5" font-family="Helvetica,sans-Serif" font-size="10.00">+ bAbsoluteTranslation</text>
<text text-anchor="start" x="162.645" y="-450.5" font-family="Helvetica,sans-Serif" font-size="10.00">+ bAbsoluteRotation</text>
<text text-anchor="start" x="162.645" y="-439.5" font-family="Helvetica,sans-Serif" font-size="10.00">+ bShouldUpdatePhysicsVolume</text>
<text text-anchor="start" x="162.645" y="-428.5" font-family="Helvetica,sans-Serif" font-size="10.00">+ bBoundsChangeTriggersStreaming</text>
<text text-anchor="start" x="162.645" y="-417.5" font-family="Helvetica,sans-Serif" font-size="10.00">DataRebuild</text>
<text text-anchor="start" x="162.645" y="-406.5" font-family="Helvetica,sans-Serif" font-size="10.00">+ bUseAttachParentBound</text>
<text text-anchor="start" x="162.645" y="-395.5" font-family="Helvetica,sans-Serif" font-size="10.00">+ UnknownData00</text>
<text text-anchor="start" x="162.645" y="-384.5" font-family="Helvetica,sans-Serif" font-size="10.00">+ CacheRootVelocity</text>
<text text-anchor="start" x="162.645" y="-373.5" font-family="Helvetica,sans-Serif" font-size="10.00">+ bWorldToComponentUpdated</text>
<text text-anchor="start" x="162.645" y="-362.5" font-family="Helvetica,sans-Serif" font-size="10.00">+ UnknownData05</text>
<text text-anchor="start" x="162.645" y="-351.5" font-family="Helvetica,sans-Serif" font-size="10.00">+ UnknownData06</text>
<text text-anchor="start" x="162.645" y="-340.5" font-family="Helvetica,sans-Serif" font-size="10.00">+ UnknownData07</text>
<polyline fill="none" stroke="red" points="154.645,-333.5 330.645,-333.5 "/>
<text text-anchor="start" x="162.645" y="-321.5" font-family="Helvetica,sans-Serif" font-size="10.00">+ ToggleVisibility()</text>
<text text-anchor="start" x="162.645" y="-310.5" font-family="Helvetica,sans-Serif" font-size="10.00">+ SnapTo()</text>
<text text-anchor="start" x="162.645" y="-299.5" font-family="Helvetica,sans-Serif" font-size="10.00">+ SharesBasis()</text>
<text text-anchor="start" x="162.645" y="-288.5" font-family="Helvetica,sans-Serif" font-size="10.00">+ SetWorldScale3D()</text>
<text text-anchor="start" x="162.645" y="-277.5" font-family="Helvetica,sans-Serif" font-size="10.00">+ SetVisibility()</text>
<text text-anchor="start" x="162.645" y="-266.5" font-family="Helvetica,sans-Serif" font-size="10.00">+ SetRelativeScale3D()</text>
<text text-anchor="start" x="162.645" y="-255.5" font-family="Helvetica,sans-Serif" font-size="10.00">+ SetHiddenInGame()</text>
<text text-anchor="start" x="162.645" y="-244.5" font-family="Helvetica,sans-Serif" font-size="10.00">+ SetAbsolute()</text>
<text text-anchor="start" x="162.645" y="-233.5" font-family="Helvetica,sans-Serif" font-size="10.00">+ ResetRelativeTransform()</text>
<text text-anchor="start" x="162.645" y="-222.5" font-family="Helvetica,sans-Serif" font-size="10.00">+ OnRep_Visibility()</text>
<text text-anchor="start" x="162.645" y="-211.5" font-family="Helvetica,sans-Serif" font-size="10.00">and 45 more...</text>
<text text-anchor="start" x="162.645" y="-200.5" font-family="Helvetica,sans-Serif" font-size="10.00">+ StaticClass()</text>
</a>
</g>
</g>
<!-- Node13&#45;&gt;Node30 -->
<g id="edge12" class="edge"><title>Node13&#45;&gt;Node30</title>
<path fill="none" stroke="#404040" d="M484.854,-688.537C432.574,-686.772 281.184,-678.62 250.645,-643 220.798,-608.187 210.94,-561.597 210.708,-515.806"/>
<polygon fill="none" stroke="#404040" points="210.711,-515.558 206.791,-509.506 210.869,-503.559 214.79,-509.611 210.711,-515.558"/>
<text text-anchor="middle" x="320.145" y="-635" font-family="Helvetica,sans-Serif" font-size="10.00"> +UnknownData01</text>
<text text-anchor="middle" x="320.145" y="-624" font-family="Helvetica,sans-Serif" font-size="10.00">+UnknownData02</text>
<text text-anchor="middle" x="320.145" y="-613" font-family="Helvetica,sans-Serif" font-size="10.00">+bComponentIsUnionOfChildren</text>
<text text-anchor="middle" x="320.145" y="-602" font-family="Helvetica,sans-Serif" font-size="10.00">+UnknownData03</text>
<text text-anchor="middle" x="320.145" y="-591" font-family="Helvetica,sans-Serif" font-size="10.00">+bJitterReduction</text>
<text text-anchor="middle" x="320.145" y="-580" font-family="Helvetica,sans-Serif" font-size="10.00">+bAbsoluteScale</text>
<text text-anchor="middle" x="320.145" y="-569" font-family="Helvetica,sans-Serif" font-size="10.00">+bRequiresCustomLocation</text>
<text text-anchor="middle" x="320.145" y="-558" font-family="Helvetica,sans-Serif" font-size="10.00">+UnknownData04</text>
<text text-anchor="middle" x="320.145" y="-547" font-family="Helvetica,sans-Serif" font-size="10.00">+bHiddenInGame</text>
<text text-anchor="middle" x="320.145" y="-536" font-family="Helvetica,sans-Serif" font-size="10.00">+bVisible</text>
<text text-anchor="middle" x="320.145" y="-525" font-family="Helvetica,sans-Serif" font-size="10.00">...</text>
</g>
<!-- Node190 -->
<g id="node9" class="node"><title>Node190</title>
<g id="a_node9"><a xlink:href="a25647.html" target="_top" xlink:title=" ">
<polygon fill="none" stroke="black" points="433.645,-320 433.645,-377 501.645,-377 501.645,-320 433.645,-320"/>
<text text-anchor="middle" x="467.645" y="-365" font-family="Helvetica,sans-Serif" font-size="10.00">SDK::FText</text>
<polyline fill="none" stroke="black" points="433.645,-358 501.645,-358 "/>
<text text-anchor="middle" x="467.645" y="-346" font-family="Helvetica,sans-Serif" font-size="10.00"> </text>
<polyline fill="none" stroke="black" points="433.645,-339 501.645,-339 "/>
<text text-anchor="middle" x="467.645" y="-327" font-family="Helvetica,sans-Serif" font-size="10.00"> </text>
</a>
</g>
</g>
<!-- Node13&#45;&gt;Node190 -->
<g id="edge15" class="edge"><title>Node13&#45;&gt;Node190</title>
<path fill="none" stroke="#404040" d="M485.025,-685.917C463.191,-681.048 426.887,-669.28 410.645,-643 382.372,-597.254 393.192,-572.867 410.645,-522 413.934,-512.414 420.089,-513.053 424.645,-504 443.153,-467.224 454.626,-421.384 461.017,-389.223"/>
<polygon fill="none" stroke="#404040" points="461.063,-388.981 458.25,-382.341 463.298,-377.191 466.11,-383.831 461.063,-388.981"/>
<text text-anchor="middle" x="445.645" y="-580" font-family="Helvetica,sans-Serif" font-size="10.00"> +UnknownData</text>
</g>
<!-- Node192 -->
<g id="node12" class="node"><title>Node192</title>
<g id="a_node12"><a xlink:href="a34151.html" target="_top" xlink:title=" ">
<polygon fill="none" stroke="red" points="1274.65,-320 1274.65,-377 1438.65,-377 1438.65,-320 1274.65,-320"/>
<text text-anchor="middle" x="1356.65" y="-365" font-family="Helvetica,sans-Serif" font-size="10.00">SDK::UWwiseObjectPoolWrapper</text>
<polyline fill="none" stroke="red" points="1274.65,-358 1438.65,-358 "/>
<text text-anchor="middle" x="1356.65" y="-346" font-family="Helvetica,sans-Serif" font-size="10.00"> </text>
<polyline fill="none" stroke="red" points="1274.65,-339 1438.65,-339 "/>
<text text-anchor="start" x="1282.65" y="-327" font-family="Helvetica,sans-Serif" font-size="10.00">+ StaticClass()</text>
</a>
</g>
</g>
<!-- Node13&#45;&gt;Node192 -->
<g id="edge20" class="edge"><title>Node13&#45;&gt;Node192</title>
<path fill="none" stroke="#404040" d="M520.369,-688.552C607.517,-686.202 988.047,-674.211 1029.65,-643 1075.79,-608.376 1030.68,-556.864 1076.65,-522 1142.11,-472.344 1190.86,-547.379 1260.65,-504 1302.93,-477.713 1329.55,-425.196 1343.75,-388.733"/>
<polygon fill="none" stroke="#404040" points="1343.92,-388.292 1342.26,-381.274 1348.1,-377.044 1349.76,-384.062 1343.92,-388.292"/>
<text text-anchor="middle" x="1116.65" y="-585.5" font-family="Helvetica,sans-Serif" font-size="10.00"> +UnknownData01</text>
<text text-anchor="middle" x="1116.65" y="-574.5" font-family="Helvetica,sans-Serif" font-size="10.00">+UnknownData00</text>
</g>
<!-- Node43 -->
<g id="node4" class="node"><title>Node43</title>
<g id="a_node4"><a xlink:title=" ">
<polygon fill="none" stroke="#bfbfbf" points="1035.15,-661.5 1035.15,-718.5 1070.15,-718.5 1070.15,-661.5 1035.15,-661.5"/>
<text text-anchor="middle" x="1052.65" y="-706.5" font-family="Helvetica,sans-Serif" font-size="10.00">bool</text>
<polyline fill="none" stroke="#bfbfbf" points="1035.15,-699.5 1070.15,-699.5 "/>
<text text-anchor="middle" x="1052.65" y="-687.5" font-family="Helvetica,sans-Serif" font-size="10.00"> </text>
<polyline fill="none" stroke="#bfbfbf" points="1035.15,-680.5 1070.15,-680.5 "/>
<text text-anchor="middle" x="1052.65" y="-668.5" font-family="Helvetica,sans-Serif" font-size="10.00"> </text>
</a>
</g>
</g>
<!-- Node43&#45;&gt;Node1 -->
<g id="edge17" class="edge"><title>Node43&#45;&gt;Node1</title>
<path fill="none" stroke="#404040" d="M1070.42,-684.477C1089.64,-678.528 1119.33,-666.02 1132.65,-643 1159.58,-596.451 1160.92,-567.746 1132.65,-522 1123.24,-506.783 1106.71,-518.788 1096.65,-504 1005.76,-370.482 1158.16,-273.692 1064.65,-142 1044.62,-113.8 1012.08,-95.4812 980.46,-83.6669"/>
<polygon fill="none" stroke="#404040" points="980.199,-83.5757 973.213,-85.3634 968.876,-79.6023 975.862,-77.8146 980.199,-83.5757"/>
<text text-anchor="start" x="1096.65" y="-362.5" font-family="Helvetica,sans-Serif" font-size="10.00"> +SyncToConnectedActionState</text>
<text text-anchor="middle" x="1181.15" y="-351.5" font-family="Helvetica,sans-Serif" font-size="10.00">OnChange</text>
<text text-anchor="middle" x="1181.15" y="-340.5" font-family="Helvetica,sans-Serif" font-size="10.00">+AutoDeactivateAfterActivation</text>
<text text-anchor="middle" x="1181.15" y="-329.5" font-family="Helvetica,sans-Serif" font-size="10.00">+SelectRandomStartPositionOnSpawn</text>
</g>
<!-- Node43&#45;&gt;Node2 -->
<g id="edge3" class="edge"><title>Node43&#45;&gt;Node2</title>
<path fill="none" stroke="#404040" d="M1035.13,-688.158C985.789,-685.403 847.268,-674.92 817.645,-643 800.692,-624.733 789.314,-465.183 784.812,-389.29"/>
<polygon fill="none" stroke="#404040" points="784.794,-388.982 780.454,-383.223 784.1,-377.002 788.441,-382.76 784.794,-388.982"/>
<text text-anchor="middle" x="879.645" y="-602" font-family="Helvetica,sans-Serif" font-size="10.00"> +RequiresNotSwimming</text>
<text text-anchor="middle" x="879.645" y="-591" font-family="Helvetica,sans-Serif" font-size="10.00">+InteractionsCanBeDisabled</text>
<text text-anchor="middle" x="879.645" y="-580" font-family="Helvetica,sans-Serif" font-size="10.00">+CanSetInteractionState</text>
<text text-anchor="middle" x="879.645" y="-569" font-family="Helvetica,sans-Serif" font-size="10.00">+RequiresFacingFront</text>
<text text-anchor="middle" x="879.645" y="-558" font-family="Helvetica,sans-Serif" font-size="10.00">+RequiresNotBeingAirborne</text>
</g>
<!-- Node43&#45;&gt;Node183 -->
<g id="edge8" class="edge"><title>Node43&#45;&gt;Node183</title>
<path fill="none" stroke="#404040" d="M1034.84,-685.978C1012.78,-681.173 976.085,-669.473 959.645,-643 934.697,-602.826 947.502,-466.626 956.43,-394.759"/>
<polygon fill="none" stroke="#404040" points="956.47,-394.448 953.261,-387.99 957.987,-382.545 961.196,-389.002 956.47,-394.448"/>
<text text-anchor="middle" x="994.645" y="-580" font-family="Helvetica,sans-Serif" font-size="10.00"> +bIsEventCurve</text>
</g>
<!-- Node43&#45;&gt;Node192 -->
<g id="edge22" class="edge"><title>Node43&#45;&gt;Node192</title>
<path fill="none" stroke="#404040" d="M1070.27,-684.685C1093.01,-678.445 1132.96,-665.157 1160.65,-643 1249.18,-572.146 1312.14,-450.344 1340.23,-388.289"/>
<polygon fill="none" stroke="#404040" points="1340.35,-388.028 1339.14,-380.92 1345.23,-377.065 1346.44,-384.173 1340.35,-388.028"/>
<text text-anchor="middle" x="1305.15" y="-585.5" font-family="Helvetica,sans-Serif" font-size="10.00"> +DisableOcclusion</text>
<text text-anchor="middle" x="1305.15" y="-574.5" font-family="Helvetica,sans-Serif" font-size="10.00">+DisableReverb</text>
</g>
<!-- Node180&#45;&gt;Node1 -->
<g id="edge4" class="edge"><title>Node180&#45;&gt;Node1</title>
<path fill="none" stroke="#404040" d="M609.226,-308.781C608.546,-263.285 614.493,-188.164 655.645,-142 691.822,-101.417 749.567,-81.6551 798.64,-72.0448"/>
<polygon fill="none" stroke="#404040" points="798.779,-72.0196 803.964,-67.0089 810.584,-69.8687 805.398,-74.8793 798.779,-72.0196"/>
<text text-anchor="middle" x="725.145" y="-156" font-family="Helvetica,sans-Serif" font-size="10.00"> +MechanismTriggerComponent</text>
</g>
<!-- Node183&#45;&gt;Node1 -->
<g id="edge6" class="edge"><title>Node183&#45;&gt;Node1</title>
<path fill="none" stroke="#404040" d="M963.452,-314.461C963.46,-272.997 960.113,-200.257 939.645,-142 938.804,-139.607 937.88,-137.212 936.886,-134.824"/>
<polygon fill="none" stroke="#404040" points="936.796,-134.63 930.65,-130.858 931.768,-123.734 937.914,-127.506 936.796,-134.63"/>
<text text-anchor="middle" x="1005.15" y="-156" font-family="Helvetica,sans-Serif" font-size="10.00"> +PositionTransitionCurve</text>
</g>
<!-- Node26 -->
<g id="node7" class="node"><title>Node26</title>
<g id="a_node7"><a xlink:title=" ">
<polygon fill="none" stroke="#bfbfbf" points="862.145,-320 862.145,-377 897.145,-377 897.145,-320 862.145,-320"/>
<text text-anchor="middle" x="879.645" y="-365" font-family="Helvetica,sans-Serif" font-size="10.00">float</text>
<polyline fill="none" stroke="#bfbfbf" points="862.145,-358 897.145,-358 "/>
<text text-anchor="middle" x="879.645" y="-346" font-family="Helvetica,sans-Serif" font-size="10.00"> </text>
<polyline fill="none" stroke="#bfbfbf" points="862.145,-339 897.145,-339 "/>
<text text-anchor="middle" x="879.645" y="-327" font-family="Helvetica,sans-Serif" font-size="10.00"> </text>
</a>
</g>
</g>
<!-- Node26&#45;&gt;Node1 -->
<g id="edge9" class="edge"><title>Node26&#45;&gt;Node1</title>
<path fill="none" stroke="#404040" d="M881.755,-319.878C882.853,-286.619 879.939,-230.556 852.645,-193 842.593,-179.169 827.464,-189.648 818.645,-175 811.08,-162.435 813.395,-155.695 818.645,-142 819.675,-139.312 820.844,-136.659 822.13,-134.045"/>
<polygon fill="none" stroke="#404040" points="822.154,-134.003 821.603,-126.813 828.028,-123.539 828.579,-130.729 822.154,-134.003"/>
<text text-anchor="start" x="818.645" y="-161.5" font-family="Helvetica,sans-Serif" font-size="10.00"> +TimeAfterActivationBefore</text>
<text text-anchor="middle" x="879.145" y="-150.5" font-family="Helvetica,sans-Serif" font-size="10.00">AutoDeactivating</text>
</g>
<!-- Node30&#45;&gt;Node1 -->
<g id="edge11" class="edge"><title>Node30&#45;&gt;Node1</title>
<path fill="none" stroke="#404040" d="M330.736,-240.666C366.43,-203.977 410.388,-166.115 457.645,-142 566.076,-86.6697 707.291,-69.627 798.22,-64.6357"/>
<polygon fill="none" stroke="#404040" points="798.448,-64.6244 804.239,-60.3279 810.432,-64.0213 804.641,-68.3178 798.448,-64.6244"/>
<text text-anchor="middle" x="473.145" y="-161.5" font-family="Helvetica,sans-Serif" font-size="10.00"> +Pivot</text>
<text text-anchor="middle" x="473.145" y="-150.5" font-family="Helvetica,sans-Serif" font-size="10.00">+Root</text>
</g>
<!-- Node30&#45;&gt;Node30 -->
<g id="edge13" class="edge"><title>Node30&#45;&gt;Node30</title>
<path fill="none" stroke="#404040" d="M330.779,-379.322C341.57,-373.803 348.645,-363.529 348.645,-348.5 348.645,-338.637 345.598,-330.822 340.454,-325.055"/>
<polygon fill="none" stroke="#404040" points="340.321,-324.954 333.125,-324.497 330.779,-317.678 337.975,-318.135 340.321,-324.954"/>
<text text-anchor="middle" x="382.145" y="-346" font-family="Helvetica,sans-Serif" font-size="10.00"> +AttachParent</text>
</g>
<!-- Node190&#45;&gt;Node1 -->
<g id="edge14" class="edge"><title>Node190&#45;&gt;Node1</title>
<path fill="none" stroke="#404040" d="M465.497,-319.788C463.712,-275.619 467.21,-189.414 515.645,-142 555.08,-103.396 701.127,-81.6081 798.618,-71.0802"/>
<polygon fill="none" stroke="#404040" points="798.618,-71.0803 804.166,-66.4728 810.552,-69.8213 805.005,-74.4287 798.618,-71.0803"/>
<text text-anchor="start" x="515.645" y="-167" font-family="Helvetica,sans-Serif" font-size="10.00"> +SwitchInteractionPrompt</text>
<text text-anchor="middle" x="573.145" y="-156" font-family="Helvetica,sans-Serif" font-size="10.00">Text</text>
<text text-anchor="middle" x="573.145" y="-145" font-family="Helvetica,sans-Serif" font-size="10.00">+SwitchNameText</text>
</g>
<!-- Node41 -->
<g id="node10" class="node"><title>Node41</title>
<g id="a_node10"><a xlink:title=" ">
<polygon fill="none" stroke="#bfbfbf" points="1526.15,-661.5 1526.15,-718.5 1555.15,-718.5 1555.15,-661.5 1526.15,-661.5"/>
<text text-anchor="middle" x="1540.65" y="-706.5" font-family="Helvetica,sans-Serif" font-size="10.00">int</text>
<polyline fill="none" stroke="#bfbfbf" points="1526.15,-699.5 1555.15,-699.5 "/>
<text text-anchor="middle" x="1540.65" y="-687.5" font-family="Helvetica,sans-Serif" font-size="10.00"> </text>
<polyline fill="none" stroke="#bfbfbf" points="1526.15,-680.5 1555.15,-680.5 "/>
<text text-anchor="middle" x="1540.65" y="-668.5" font-family="Helvetica,sans-Serif" font-size="10.00"> </text>
</a>
</g>
</g>
<!-- Node41&#45;&gt;Node1 -->
<g id="edge16" class="edge"><title>Node41&#45;&gt;Node1</title>
<path fill="none" stroke="#404040" d="M1555.51,-679.912C1567.61,-671.738 1584.18,-658.632 1593.65,-643 1645.59,-557.234 1685.35,-274.285 1626.65,-193 1552.24,-89.9735 1161.16,-68.4923 980.857,-64.0904"/>
<polygon fill="none" stroke="#404040" points="980.765,-64.0884 974.675,-67.9497 968.768,-63.8132 974.859,-59.9519 980.765,-64.0884"/>
<text text-anchor="middle" x="1711.65" y="-351.5" font-family="Helvetica,sans-Serif" font-size="10.00"> +CurrentPositionIndex</text>
<text text-anchor="middle" x="1711.65" y="-340.5" font-family="Helvetica,sans-Serif" font-size="10.00">+FixedStartPositionIndex</text>
</g>
<!-- Node41&#45;&gt;Node192 -->
<g id="edge21" class="edge"><title>Node41&#45;&gt;Node192</title>
<path fill="none" stroke="#404040" d="M1526.05,-662.076C1493.6,-602.205 1415.37,-457.846 1377.66,-388.271"/>
<polygon fill="none" stroke="#404040" points="1377.47,-387.925 1371.09,-384.556 1371.75,-377.375 1378.13,-380.744 1377.47,-387.925"/>
<text text-anchor="middle" x="1552.15" y="-585.5" font-family="Helvetica,sans-Serif" font-size="10.00"> +MaxResources</text>
<text text-anchor="middle" x="1552.15" y="-574.5" font-family="Helvetica,sans-Serif" font-size="10.00">+MaxProxies</text>
</g>
<!-- Node191 -->
<g id="node11" class="node"><title>Node191</title>
<g id="a_node11"><a xlink:href="a25611.html" target="_top" xlink:title=" ">
<polygon fill="none" stroke="black" points="1457.15,-287 1457.15,-410 1618.15,-410 1618.15,-287 1457.15,-287"/>
<text text-anchor="start" x="1465.15" y="-398" font-family="Helvetica,sans-Serif" font-size="10.00">SDK::TArray&lt; struct</text>
<text text-anchor="start" x="1465.15" y="-387" font-family="Helvetica,sans-Serif" font-size="10.00"> SDK::FSwitchMechanismTrigger</text>
<text text-anchor="middle" x="1537.65" y="-376" font-family="Helvetica,sans-Serif" font-size="10.00">Position &gt;</text>
<polyline fill="none" stroke="black" points="1457.15,-369 1618.15,-369 "/>
<text text-anchor="middle" x="1537.65" y="-357" font-family="Helvetica,sans-Serif" font-size="10.00"> </text>
<polyline fill="none" stroke="black" points="1457.15,-350 1618.15,-350 "/>
<text text-anchor="start" x="1465.15" y="-338" font-family="Helvetica,sans-Serif" font-size="10.00">+ TArray()</text>
<text text-anchor="start" x="1465.15" y="-327" font-family="Helvetica,sans-Serif" font-size="10.00">+ Num()</text>
<text text-anchor="start" x="1465.15" y="-316" font-family="Helvetica,sans-Serif" font-size="10.00">+ operator[]()</text>
<text text-anchor="start" x="1465.15" y="-305" font-family="Helvetica,sans-Serif" font-size="10.00">+ operator[]()</text>
<text text-anchor="start" x="1465.15" y="-294" font-family="Helvetica,sans-Serif" font-size="10.00">+ IsValidIndex()</text>
</a>
</g>
</g>
<!-- Node191&#45;&gt;Node1 -->
<g id="edge18" class="edge"><title>Node191&#45;&gt;Node1</title>
<path fill="none" stroke="#404040" d="M1513.65,-286.833C1498.65,-255.369 1476.63,-218.329 1447.65,-193 1378.69,-132.739 1120.25,-91.9106 980.577,-73.736"/>
<polygon fill="none" stroke="#404040" points="980.577,-73.7361 974.116,-76.9377 968.675,-72.2047 975.137,-69.0031 980.577,-73.7361"/>
<text text-anchor="middle" x="1443.65" y="-156" font-family="Helvetica,sans-Serif" font-size="10.00"> +Positions</text>
</g>
<!-- Node192&#45;&gt;Node1 -->
<g id="edge19" class="edge"><title>Node192&#45;&gt;Node1</title>
<path fill="none" stroke="#404040" d="M1346.23,-319.789C1331.96,-285.382 1303.14,-227.08 1260.65,-193 1178.86,-127.409 1061.64,-93.7261 980.959,-77.2748"/>
<polygon fill="none" stroke="#404040" points="980.605,-77.2048 973.943,-79.9641 968.833,-74.8755 975.496,-72.1162 980.605,-77.2048"/>
<text text-anchor="middle" x="1278.15" y="-156" font-family="Helvetica,sans-Serif" font-size="10.00"> +AudioEmitterPool</text>
</g>
<!-- Node198 -->
<g id="node13" class="node"><title>Node198</title>
<g id="a_node13"><a xlink:href="a25635.html" target="_top" xlink:title=" ">
<polygon fill="none" stroke="black" points="1783.15,-276 1783.15,-421 1956.15,-421 1956.15,-276 1783.15,-276"/>
<text text-anchor="start" x="1791.15" y="-409" font-family="Helvetica,sans-Serif" font-size="10.00">SDK::TEnumAsByte&lt; ESwitch</text>
<text text-anchor="start" x="1791.15" y="-398" font-family="Helvetica,sans-Serif" font-size="10.00">MechanismTriggerRandomSelection</text>
<text text-anchor="middle" x="1869.65" y="-387" font-family="Helvetica,sans-Serif" font-size="10.00">Mode &gt;</text>
<polyline fill="none" stroke="black" points="1783.15,-380 1956.15,-380 "/>
<text text-anchor="middle" x="1869.65" y="-368" font-family="Helvetica,sans-Serif" font-size="10.00"> </text>
<polyline fill="none" stroke="black" points="1783.15,-361 1956.15,-361 "/>
<text text-anchor="start" x="1791.15" y="-349" font-family="Helvetica,sans-Serif" font-size="10.00">+ TEnumAsByte()</text>
<text text-anchor="start" x="1791.15" y="-338" font-family="Helvetica,sans-Serif" font-size="10.00">+ TEnumAsByte()</text>
<text text-anchor="start" x="1791.15" y="-327" font-family="Helvetica,sans-Serif" font-size="10.00">+ TEnumAsByte()</text>
<text text-anchor="start" x="1791.15" y="-316" font-family="Helvetica,sans-Serif" font-size="10.00">+ TEnumAsByte()</text>
<text text-anchor="start" x="1791.15" y="-305" font-family="Helvetica,sans-Serif" font-size="10.00">+ operator ESwitchMechanism</text>
<text text-anchor="start" x="1791.15" y="-294" font-family="Helvetica,sans-Serif" font-size="10.00">TriggerRandomSelectionMode()</text>
<text text-anchor="start" x="1791.15" y="-283" font-family="Helvetica,sans-Serif" font-size="10.00">+ GetValue()</text>
</a>
</g>
</g>
<!-- Node198&#45;&gt;Node1 -->
<g id="edge23" class="edge"><title>Node198&#45;&gt;Node1</title>
<path fill="none" stroke="#404040" d="M1833.46,-275.87C1816.6,-247.523 1794.51,-216.231 1768.65,-193 1731.52,-159.666 1716.5,-156.091 1668.65,-142 1541.79,-104.651 1157.82,-78.4428 980.811,-68.0137"/>
<polygon fill="none" stroke="#404040" points="980.666,-68.0053 974.443,-71.6483 968.686,-67.3049 974.91,-63.6619 980.666,-68.0053"/>
<text text-anchor="middle" x="1830.65" y="-156" font-family="Helvetica,sans-Serif" font-size="10.00"> +RandomStartPositionSelectionMode</text>
</g>
</g>
</svg>
        <g id="navigator" transform="translate(0 0)" fill="#404254">
                <rect fill="#f2f5e9" fill-opacity="0.5" stroke="#606060" stroke-width=".5" x="0" y="0" width="60" height="60"/>
                <use id="zoomplus" xlink:href="#zoomPlus" x="17" y="9" onmousedown="handleZoom(evt,'in')"/>
                <use id="zoomminus" xlink:href="#zoomMin" x="42" y="9" onmousedown="handleZoom(evt,'out')"/>
                <use id="reset" xlink:href="#resetDef" x="30" y="36" onmousedown="handleReset()"/>
                <g id="arrowUp" xlink:href="#dirArrow" transform="translate(30 24)" onmousedown="handlePan(0,-1)">
                  <use xlink:href="#rim" fill="#404040">
                        <set attributeName="fill" to="#808080" begin="arrowUp.mouseover" end="arrowUp.mouseout"/>
                  </use>
                  <path fill="none" stroke="white" stroke-width="1.5" d="M0,-3.0v7 M-2.5,-0.5L0,-3.0L2.5,-0.5"/>
                </g>
                <g id="arrowRight" xlink:href="#dirArrow" transform="rotate(90) translate(36 -43)" onmousedown="handlePan(1,0)">
                  <use xlink:href="#rim" fill="#404040">
                        <set attributeName="fill" to="#808080" begin="arrowRight.mouseover" end="arrowRight.mouseout"/>
                  </use>
                  <path fill="none" stroke="white" stroke-width="1.5" d="M0,-3.0v7 M-2.5,-0.5L0,-3.0L2.5,-0.5"/>
                </g>
                <g id="arrowDown" xlink:href="#dirArrow" transform="rotate(180) translate(-30 -48)" onmousedown="handlePan(0,1)">
                  <use xlink:href="#rim" fill="#404040">
                        <set attributeName="fill" to="#808080" begin="arrowDown.mouseover" end="arrowDown.mouseout"/>
                  </use>
                  <path fill="none" stroke="white" stroke-width="1.5" d="M0,-3.0v7 M-2.5,-0.5L0,-3.0L2.5,-0.5"/>
                </g>
                <g id="arrowLeft" xlink:href="#dirArrow" transform="rotate(270) translate(-36 17)" onmousedown="handlePan(-1,0)">
                  <use xlink:href="#rim" fill="#404040">
                        <set attributeName="fill" to="#808080" begin="arrowLeft.mouseover" end="arrowLeft.mouseout"/>
                  </use>
                  <path fill="none" stroke="white" stroke-width="1.5" d="M0,-3.0v7 M-2.5,-0.5L0,-3.0L2.5,-0.5"/>
                </g>
        </g>
        <svg viewBox="0 0 15 15" width="100%" height="30px" preserveAspectRatio="xMaxYMin meet">
         <g id="arrow_out" transform="scale(0.3 0.3)">
          <a xlink:href="a07121_org.svg" target="_base">
           <rect id="button" ry="5" rx="5" y="6" x="6" height="38" width="38"
                fill="#f2f5e9" fill-opacity="0.5" stroke="#606060" stroke-width="1.0"/>
           <path id="arrow"
             d="M 11.500037,31.436501 C 11.940474,20.09759 22.043105,11.32322 32.158766,21.979434 L 37.068811,17.246167 C 37.068811,17.246167 37.088388,32 37.088388,32 L 22.160133,31.978069 C 22.160133,31.978069 26.997745,27.140456 26.997745,27.140456 C 18.528582,18.264221 13.291696,25.230495 11.500037,31.436501 z"
             style="fill:#404040;"/>
          </a>
         </g>
        </svg>
</svg>
