<?xml version="1.0" encoding="UTF-8" standalone="no"?>
<!DOCTYPE svg PUBLIC "-//W3C//DTD SVG 1.1//EN"
 "http://www.w3.org/Graphics/SVG/1.1/DTD/svg11.dtd">
<!-- Generated by graphviz version 2.38.0 (20140413.2041)
 -->
<!-- Title: SDK::UPetCustomizationCategory Pages: 1 -->
<svg width="174pt" height="171pt"
 viewBox="0.00 0.00 174.00 171.00" xmlns="http://www.w3.org/2000/svg" xmlns:xlink="http://www.w3.org/1999/xlink">
<g id="graph0" class="graph" transform="scale(1 1) rotate(0) translate(4 167)">
<title>SDK::UPetCustomizationCategory</title>
<!-- Node1 -->
<g id="node1" class="node"><title>Node1</title>
<g id="a_node1"><a xlink:title=" ">
<polygon fill="#bfbfbf" stroke="black" points="0,-0.5 0,-57.5 166,-57.5 166,-0.5 0,-0.5"/>
<text text-anchor="middle" x="83" y="-45.5" font-family="Helvetica,sans-Serif" font-size="10.00">SDK::UPetCustomizationCategory</text>
<polyline fill="none" stroke="black" points="0,-38.5 166,-38.5 "/>
<text text-anchor="middle" x="83" y="-26.5" font-family="Helvetica,sans-Serif" font-size="10.00"> </text>
<polyline fill="none" stroke="black" points="0,-19.5 166,-19.5 "/>
<text text-anchor="start" x="8" y="-7.5" font-family="Helvetica,sans-Serif" font-size="10.00">+ StaticClass()</text>
</a>
</g>
</g>
<!-- Node2 -->
<g id="node2" class="node"><title>Node2</title>
<g id="a_node2"><a xlink:href="a05903.html" target="_top" xlink:title=" ">
<polygon fill="none" stroke="red" points="14.5,-94.5 14.5,-162.5 151.5,-162.5 151.5,-94.5 14.5,-94.5"/>
<text text-anchor="start" x="22.5" y="-150.5" font-family="Helvetica,sans-Serif" font-size="10.00">SDK::UPetEntitlementBase</text>
<text text-anchor="middle" x="83" y="-139.5" font-family="Helvetica,sans-Serif" font-size="10.00">Category</text>
<polyline fill="none" stroke="red" points="14.5,-132.5 151.5,-132.5 "/>
<text text-anchor="middle" x="83" y="-120.5" font-family="Helvetica,sans-Serif" font-size="10.00"> </text>
<polyline fill="none" stroke="red" points="14.5,-113.5 151.5,-113.5 "/>
<text text-anchor="start" x="22.5" y="-101.5" font-family="Helvetica,sans-Serif" font-size="10.00">+ StaticClass()</text>
</a>
</g>
</g>
<!-- Node2&#45;&gt;Node1 -->
<g id="edge1" class="edge"><title>Node2&#45;&gt;Node1</title>
<path fill="none" stroke="midnightblue" d="M83,-84.4538C83,-75.4036 83,-66.0876 83,-57.7765"/>
<polygon fill="none" stroke="midnightblue" points="79.5001,-84.4909 83,-94.4909 86.5001,-84.491 79.5001,-84.4909"/>
</g>
</g>
</svg>
