<?xml version="1.0" encoding="UTF-8" standalone="no"?>
<!DOCTYPE svg PUBLIC "-//W3C//DTD SVG 1.1//EN"
 "http://www.w3.org/Graphics/SVG/1.1/DTD/svg11.dtd">
<!-- Generated by graphviz version 2.38.0 (20140413.2041)
 -->
<!-- Title: SDK::APickupActorMock Pages: 1 -->
<svg width="511pt" height="562pt"
 viewBox="0.00 0.00 510.56 562.00" xmlns="http://www.w3.org/2000/svg" xmlns:xlink="http://www.w3.org/1999/xlink">
<g id="graph0" class="graph" transform="scale(1 1) rotate(0) translate(4 558)">
<title>SDK::APickupActorMock</title>
<!-- Node1 -->
<g id="node1" class="node"><title>Node1</title>
<g id="a_node1"><a xlink:title=" ">
<polygon fill="#bfbfbf" stroke="black" points="155.557,-0.5 155.557,-57.5 282.557,-57.5 282.557,-0.5 155.557,-0.5"/>
<text text-anchor="middle" x="219.057" y="-45.5" font-family="Helvetica,sans-Serif" font-size="10.00">SDK::APickupActorMock</text>
<polyline fill="none" stroke="black" points="155.557,-38.5 282.557,-38.5 "/>
<text text-anchor="middle" x="219.057" y="-26.5" font-family="Helvetica,sans-Serif" font-size="10.00"> </text>
<polyline fill="none" stroke="black" points="155.557,-19.5 282.557,-19.5 "/>
<text text-anchor="start" x="163.557" y="-7.5" font-family="Helvetica,sans-Serif" font-size="10.00">+ StaticClass()</text>
</a>
</g>
</g>
<!-- Node2 -->
<g id="node2" class="node"><title>Node2</title>
<g id="a_node2"><a xlink:href="a26359.html" target="_top" xlink:title=" ">
<polygon fill="none" stroke="red" points="126.557,-105.5 126.557,-327.5 311.557,-327.5 311.557,-105.5 126.557,-105.5"/>
<text text-anchor="middle" x="219.057" y="-315.5" font-family="Helvetica,sans-Serif" font-size="10.00">SDK::ACharacter</text>
<polyline fill="none" stroke="red" points="126.557,-308.5 311.557,-308.5 "/>
<text text-anchor="start" x="134.557" y="-296.5" font-family="Helvetica,sans-Serif" font-size="10.00">+ UnknownData00</text>
<text text-anchor="start" x="134.557" y="-285.5" font-family="Helvetica,sans-Serif" font-size="10.00">+ bPressedJump</text>
<text text-anchor="start" x="134.557" y="-274.5" font-family="Helvetica,sans-Serif" font-size="10.00">+ bClientWasFalling</text>
<text text-anchor="start" x="134.557" y="-263.5" font-family="Helvetica,sans-Serif" font-size="10.00">+ bSimGravityDisabled</text>
<text text-anchor="start" x="134.557" y="-252.5" font-family="Helvetica,sans-Serif" font-size="10.00">+ bServerMoveIgnoreRootMotion</text>
<polyline fill="none" stroke="red" points="126.557,-245.5 311.557,-245.5 "/>
<text text-anchor="start" x="134.557" y="-233.5" font-family="Helvetica,sans-Serif" font-size="10.00">+ UnCrouch()</text>
<text text-anchor="start" x="134.557" y="-222.5" font-family="Helvetica,sans-Serif" font-size="10.00">+ StopJumping()</text>
<text text-anchor="start" x="134.557" y="-211.5" font-family="Helvetica,sans-Serif" font-size="10.00">+ StopAnimMontage()</text>
<text text-anchor="start" x="134.557" y="-200.5" font-family="Helvetica,sans-Serif" font-size="10.00">+ SetReplicateMovement()</text>
<text text-anchor="start" x="134.557" y="-189.5" font-family="Helvetica,sans-Serif" font-size="10.00">+ PlayAnimMontage()</text>
<text text-anchor="start" x="134.557" y="-178.5" font-family="Helvetica,sans-Serif" font-size="10.00">+ OnWalkingOffLedge()</text>
<text text-anchor="start" x="134.557" y="-167.5" font-family="Helvetica,sans-Serif" font-size="10.00">+ OnRep_RootMotion()</text>
<text text-anchor="start" x="134.557" y="-156.5" font-family="Helvetica,sans-Serif" font-size="10.00">+ OnRep_ReplicatedBasedMovement()</text>
<text text-anchor="start" x="134.557" y="-145.5" font-family="Helvetica,sans-Serif" font-size="10.00">+ OnRep_IsCrouched()</text>
<text text-anchor="start" x="134.557" y="-134.5" font-family="Helvetica,sans-Serif" font-size="10.00">+ OnLaunched()</text>
<text text-anchor="start" x="134.557" y="-123.5" font-family="Helvetica,sans-Serif" font-size="10.00">and 18 more...</text>
<text text-anchor="start" x="134.557" y="-112.5" font-family="Helvetica,sans-Serif" font-size="10.00">+ StaticClass()</text>
</a>
</g>
</g>
<!-- Node2&#45;&gt;Node1 -->
<g id="edge1" class="edge"><title>Node2&#45;&gt;Node1</title>
<path fill="none" stroke="midnightblue" d="M219.057,-95.2378C219.057,-81.4037 219.057,-68.4675 219.057,-57.8214"/>
<polygon fill="none" stroke="midnightblue" points="215.557,-95.4499 219.057,-105.45 222.557,-95.45 215.557,-95.4499"/>
</g>
<!-- Node14 -->
<g id="node3" class="node"><title>Node14</title>
<g id="a_node3"><a xlink:title=" ">
<polygon fill="none" stroke="#bfbfbf" points="66.5567,-496.5 66.5567,-553.5 101.557,-553.5 101.557,-496.5 66.5567,-496.5"/>
<text text-anchor="middle" x="84.0567" y="-541.5" font-family="Helvetica,sans-Serif" font-size="10.00">char</text>
<polyline fill="none" stroke="#bfbfbf" points="66.5567,-534.5 101.557,-534.5 "/>
<text text-anchor="middle" x="84.0567" y="-522.5" font-family="Helvetica,sans-Serif" font-size="10.00"> </text>
<polyline fill="none" stroke="#bfbfbf" points="66.5567,-515.5 101.557,-515.5 "/>
<text text-anchor="middle" x="84.0567" y="-503.5" font-family="Helvetica,sans-Serif" font-size="10.00"> </text>
</a>
</g>
</g>
<!-- Node14&#45;&gt;Node1 -->
<g id="edge3" class="edge"><title>Node14&#45;&gt;Node1</title>
<path fill="none" stroke="#404040" d="M69.6502,-496.372C34.5236,-424.785 -46.73,-230.15 37.0567,-105 60.834,-69.4845 104.815,-50.7702 143.586,-40.9175"/>
<polygon fill="none" stroke="#404040" points="143.741,-40.8811 148.666,-35.6144 155.422,-38.1354 150.497,-43.4022 143.741,-40.8811"/>
<text text-anchor="middle" x="77.0567" y="-219.5" font-family="Helvetica,sans-Serif" font-size="10.00"> +UnknownData01</text>
<text text-anchor="middle" x="77.0567" y="-208.5" font-family="Helvetica,sans-Serif" font-size="10.00">+UnknownData00</text>
</g>
<!-- Node14&#45;&gt;Node2 -->
<g id="edge2" class="edge"><title>Node14&#45;&gt;Node2</title>
<path fill="none" stroke="#404040" d="M96.2752,-496.26C111.976,-460.612 140.25,-396.421 165.71,-338.616"/>
<polygon fill="none" stroke="#404040" points="165.757,-338.511 164.515,-331.407 170.594,-327.529 171.836,-334.632 165.757,-338.511"/>
<text text-anchor="middle" x="220.557" y="-470" font-family="Helvetica,sans-Serif" font-size="10.00"> +UnknownData01</text>
<text text-anchor="middle" x="220.557" y="-459" font-family="Helvetica,sans-Serif" font-size="10.00">+UnknownData02</text>
<text text-anchor="start" x="160.057" y="-448" font-family="Helvetica,sans-Serif" font-size="10.00">+bClientResimulateRoot</text>
<text text-anchor="middle" x="220.557" y="-437" font-family="Helvetica,sans-Serif" font-size="10.00">Motion</text>
<text text-anchor="middle" x="220.557" y="-426" font-family="Helvetica,sans-Serif" font-size="10.00">+UnknownData03</text>
<text text-anchor="middle" x="220.557" y="-415" font-family="Helvetica,sans-Serif" font-size="10.00">+UnknownData04</text>
<text text-anchor="middle" x="220.557" y="-404" font-family="Helvetica,sans-Serif" font-size="10.00">+bIsCrouched</text>
<text text-anchor="middle" x="220.557" y="-393" font-family="Helvetica,sans-Serif" font-size="10.00">+UnknownData05</text>
<text text-anchor="middle" x="220.557" y="-382" font-family="Helvetica,sans-Serif" font-size="10.00">+UnknownData06</text>
<text text-anchor="middle" x="220.557" y="-371" font-family="Helvetica,sans-Serif" font-size="10.00">+ReplicatedMovementMode</text>
<text text-anchor="middle" x="220.557" y="-360" font-family="Helvetica,sans-Serif" font-size="10.00">+bClientUpdating</text>
<text text-anchor="middle" x="220.557" y="-349" font-family="Helvetica,sans-Serif" font-size="10.00">...</text>
</g>
<!-- Node177 -->
<g id="node4" class="node"><title>Node177</title>
<g id="a_node4"><a xlink:href="a25643.html" target="_top" xlink:title=" ">
<polygon fill="none" stroke="red" points="329.557,-171.5 329.557,-261.5 502.557,-261.5 502.557,-171.5 329.557,-171.5"/>
<text text-anchor="start" x="337.557" y="-249.5" font-family="Helvetica,sans-Serif" font-size="10.00">SDK::TScriptInterface</text>
<text text-anchor="middle" x="416.057" y="-238.5" font-family="Helvetica,sans-Serif" font-size="10.00">&lt; class SDK::UWieldableInterface &gt;</text>
<polyline fill="none" stroke="red" points="329.557,-231.5 502.557,-231.5 "/>
<text text-anchor="middle" x="416.057" y="-219.5" font-family="Helvetica,sans-Serif" font-size="10.00"> </text>
<polyline fill="none" stroke="red" points="329.557,-212.5 502.557,-212.5 "/>
<text text-anchor="start" x="337.557" y="-200.5" font-family="Helvetica,sans-Serif" font-size="10.00">+ operator&#45;&gt;()</text>
<text text-anchor="start" x="337.557" y="-189.5" font-family="Helvetica,sans-Serif" font-size="10.00">+ operator*()</text>
<text text-anchor="start" x="337.557" y="-178.5" font-family="Helvetica,sans-Serif" font-size="10.00">+ operator bool()</text>
</a>
</g>
</g>
<!-- Node177&#45;&gt;Node1 -->
<g id="edge4" class="edge"><title>Node177&#45;&gt;Node1</title>
<path fill="none" stroke="#404040" d="M381.4,-171.284C363.985,-150.234 341.963,-125.291 320.057,-105 304.797,-90.8661 286.913,-76.8687 270.47,-64.8624"/>
<polygon fill="none" stroke="#404040" points="270.197,-64.666 262.99,-64.4109 260.454,-57.6606 267.66,-57.9157 270.197,-64.666"/>
<text text-anchor="middle" x="347.557" y="-79" font-family="Helvetica,sans-Serif" font-size="10.00"> +MockWieldableItem</text>
</g>
</g>
</svg>
