<?xml version="1.0" encoding="UTF-8" standalone="no"?>
<!DOCTYPE svg PUBLIC "-//W3C//DTD SVG 1.1//EN"
 "http://www.w3.org/Graphics/SVG/1.1/DTD/svg11.dtd">
<!-- Generated by graphviz version 2.38.0 (20140413.2041)
 -->
<!-- Title: SDK::UPlayerOceanAudioComponent Pages: 1 -->
<!--zoomable 639 -->
<svg id="main" version="1.1" xmlns="http://www.w3.org/2000/svg" xmlns:xlink="http://www.w3.org/1999/xlink" xml:space="preserve" onload="init(evt)">
<style type="text/css"><![CDATA[
.edge:hover path { stroke: red; }
.edge:hover polygon { stroke: red; fill: red; }
]]></style>
<script type="text/javascript"><![CDATA[
var edges = document.getElementsByTagName('g');
if (edges && edges.length) {
  for (var i=0;i<edges.length;i++) {
    if (edges[i].id.substr(0,4)=='edge') {
      edges[i].setAttribute('class','edge');
    }
  }
}
]]></script>
        <defs>
                <circle id="rim" cx="0" cy="0" r="7"/>
                <circle id="rim2" cx="0" cy="0" r="3.5"/>
                <g id="zoomPlus">
                        <use xlink:href="#rim" fill="#404040">
                                <set attributeName="fill" to="#808080" begin="zoomplus.mouseover" end="zoomplus.mouseout"/>
                        </use>
                        <path d="M-4,0h8M0,-4v8" fill="none" stroke="white" stroke-width="1.5" pointer-events="none"/>
                </g>
                <g id="zoomMin">
                        <use xlink:href="#rim" fill="#404040">
                                <set attributeName="fill" to="#808080" begin="zoomminus.mouseover" end="zoomminus.mouseout"/>
                        </use>
                        <path d="M-4,0h8" fill="none" stroke="white" stroke-width="1.5" pointer-events="none"/>
                </g>
                <g id="dirArrow">
                        <path fill="none" stroke="white" stroke-width="1.5" d="M0,-3.0v7 M-2.5,-0.5L0,-3.0L2.5,-0.5"/>
                </g>
               <g id="resetDef">
                       <use xlink:href="#rim2" fill="#404040">
                               <set attributeName="fill" to="#808080" begin="reset.mouseover" end="reset.mouseout"/>
                       </use>
               </g>
        </defs>

<script type="text/javascript">
var viewWidth = 1097;
var viewHeight = 639;
var sectionId = 'dynsection-1';
</script>
<script xlink:href="svgpan.js"/>
<svg id="graph" class="graph">
<g id="viewport">
<title>SDK::UPlayerOceanAudioComponent</title>
<!-- Node1 -->
<g id="node1" class="node"><title>Node1</title>
<g id="a_node1"><a xlink:title=" ">
<polygon fill="#bfbfbf" stroke="black" points="362,-0.5 362,-101.5 542,-101.5 542,-0.5 362,-0.5"/>
<text text-anchor="middle" x="452" y="-89.5" font-family="Helvetica,sans-Serif" font-size="10.00">SDK::UPlayerOceanAudioComponent</text>
<polyline fill="none" stroke="black" points="362,-82.5 542,-82.5 "/>
<text text-anchor="middle" x="452" y="-70.5" font-family="Helvetica,sans-Serif" font-size="10.00"> </text>
<polyline fill="none" stroke="black" points="362,-63.5 542,-63.5 "/>
<text text-anchor="start" x="370" y="-51.5" font-family="Helvetica,sans-Serif" font-size="10.00">+ GetIsUnderwater()</text>
<text text-anchor="start" x="370" y="-40.5" font-family="Helvetica,sans-Serif" font-size="10.00">+ GetIsPlaying()</text>
<text text-anchor="start" x="370" y="-29.5" font-family="Helvetica,sans-Serif" font-size="10.00">+ GetIsOnIsland()</text>
<text text-anchor="start" x="370" y="-18.5" font-family="Helvetica,sans-Serif" font-size="10.00">+ GetEmitterPosition()</text>
<text text-anchor="start" x="370" y="-7.5" font-family="Helvetica,sans-Serif" font-size="10.00">+ StaticClass()</text>
</a>
</g>
</g>
<!-- Node2 -->
<g id="node2" class="node"><title>Node2</title>
<g id="a_node2"><a xlink:href="a34355.html" target="_top" xlink:title=" ">
<polygon fill="none" stroke="red" points="0,-237.5 0,-294.5 160,-294.5 160,-237.5 0,-237.5"/>
<text text-anchor="middle" x="80" y="-282.5" font-family="Helvetica,sans-Serif" font-size="10.00">SDK::UWwiseEmitterComponent</text>
<polyline fill="none" stroke="red" points="0,-275.5 160,-275.5 "/>
<text text-anchor="middle" x="80" y="-263.5" font-family="Helvetica,sans-Serif" font-size="10.00"> </text>
<polyline fill="none" stroke="red" points="0,-256.5 160,-256.5 "/>
<text text-anchor="start" x="8" y="-244.5" font-family="Helvetica,sans-Serif" font-size="10.00">+ StaticClass()</text>
</a>
</g>
</g>
<!-- Node2&#45;&gt;Node1 -->
<g id="edge1" class="edge"><title>Node2&#45;&gt;Node1</title>
<path fill="none" stroke="midnightblue" d="M96.6856,-227.836C113.519,-194.592 142.641,-147.057 182,-120 235.079,-83.5116 306.053,-66.585 361.912,-58.7419"/>
<polygon fill="none" stroke="midnightblue" points="93.3379,-226.712 92.0618,-237.229 99.6183,-229.803 93.3379,-226.712"/>
</g>
<!-- Node14 -->
<g id="node3" class="node"><title>Node14</title>
<g id="a_node3"><a xlink:title=" ">
<polygon fill="none" stroke="#bfbfbf" points="194.5,-546 194.5,-603 229.5,-603 229.5,-546 194.5,-546"/>
<text text-anchor="middle" x="212" y="-591" font-family="Helvetica,sans-Serif" font-size="10.00">char</text>
<polyline fill="none" stroke="#bfbfbf" points="194.5,-584 229.5,-584 "/>
<text text-anchor="middle" x="212" y="-572" font-family="Helvetica,sans-Serif" font-size="10.00"> </text>
<polyline fill="none" stroke="#bfbfbf" points="194.5,-565 229.5,-565 "/>
<text text-anchor="middle" x="212" y="-553" font-family="Helvetica,sans-Serif" font-size="10.00"> </text>
</a>
</g>
</g>
<!-- Node14&#45;&gt;Node1 -->
<g id="edge11" class="edge"><title>Node14&#45;&gt;Node1</title>
<path fill="none" stroke="#404040" d="M207.707,-545.778C195.823,-465.28 165.87,-233.287 205,-171 236.905,-120.213 297.242,-90.5919 350.293,-73.6043"/>
<polygon fill="none" stroke="#404040" points="350.366,-73.5821 354.93,-67.9995 361.839,-70.0656 357.275,-75.6483 350.366,-73.5821"/>
<text text-anchor="middle" x="245" y="-269" font-family="Helvetica,sans-Serif" font-size="10.00"> +UnknownData01</text>
<text text-anchor="middle" x="245" y="-258" font-family="Helvetica,sans-Serif" font-size="10.00">+UnknownData00</text>
</g>
<!-- Node14&#45;&gt;Node2 -->
<g id="edge2" class="edge"><title>Node14&#45;&gt;Node2</title>
<path fill="none" stroke="#404040" d="M194.273,-567.3C168.96,-557.417 123.183,-535.503 102,-500 66.283,-440.136 68.5584,-355.862 73.9448,-306.783"/>
<polygon fill="none" stroke="#404040" points="73.9526,-306.718 70.705,-300.28 75.3991,-294.806 78.6467,-301.244 73.9526,-306.718"/>
<text text-anchor="middle" x="142" y="-437" font-family="Helvetica,sans-Serif" font-size="10.00"> +UnknownData00</text>
</g>
<!-- Node43 -->
<g id="node4" class="node"><title>Node43</title>
<g id="a_node4"><a xlink:href="a02339.html" target="_top" xlink:title=" ">
<polygon fill="none" stroke="red" points="294,-171.5 294,-360.5 464,-360.5 464,-171.5 294,-171.5"/>
<text text-anchor="middle" x="379" y="-348.5" font-family="Helvetica,sans-Serif" font-size="10.00">SDK::AAthenaPlayerCharacter</text>
<polyline fill="none" stroke="red" points="294,-341.5 464,-341.5 "/>
<text text-anchor="start" x="302" y="-329.5" font-family="Helvetica,sans-Serif" font-size="10.00">+ UnknownData00</text>
<text text-anchor="start" x="302" y="-318.5" font-family="Helvetica,sans-Serif" font-size="10.00">+ UnknownData09</text>
<polyline fill="none" stroke="red" points="294,-311.5 464,-311.5 "/>
<text text-anchor="start" x="302" y="-299.5" font-family="Helvetica,sans-Serif" font-size="10.00">+ WalkActivate()</text>
<text text-anchor="start" x="302" y="-288.5" font-family="Helvetica,sans-Serif" font-size="10.00">+ UseItem()</text>
<text text-anchor="start" x="302" y="-277.5" font-family="Helvetica,sans-Serif" font-size="10.00">+ TriggerTattooGlow()</text>
<text text-anchor="start" x="302" y="-266.5" font-family="Helvetica,sans-Serif" font-size="10.00">+ TattooGlowClient()</text>
<text text-anchor="start" x="302" y="-255.5" font-family="Helvetica,sans-Serif" font-size="10.00">+ TattooGlow()</text>
<text text-anchor="start" x="302" y="-244.5" font-family="Helvetica,sans-Serif" font-size="10.00">+ SprintActivate()</text>
<text text-anchor="start" x="302" y="-233.5" font-family="Helvetica,sans-Serif" font-size="10.00">+ ServerWantsSprint()</text>
<text text-anchor="start" x="302" y="-222.5" font-family="Helvetica,sans-Serif" font-size="10.00">+ OnWieldedItem()</text>
<text text-anchor="start" x="302" y="-211.5" font-family="Helvetica,sans-Serif" font-size="10.00">+ OnRep_ReplicatedIsSprinting()</text>
<text text-anchor="start" x="302" y="-200.5" font-family="Helvetica,sans-Serif" font-size="10.00">+ OnRep_ReplicatedIsInvulnerable()</text>
<text text-anchor="start" x="302" y="-189.5" font-family="Helvetica,sans-Serif" font-size="10.00">and 24 more...</text>
<text text-anchor="start" x="302" y="-178.5" font-family="Helvetica,sans-Serif" font-size="10.00">+ StaticClass()</text>
</a>
</g>
</g>
<!-- Node14&#45;&gt;Node43 -->
<g id="edge6" class="edge"><title>Node14&#45;&gt;Node43</title>
<path fill="none" stroke="#404040" d="M211.366,-545.724C210.841,-498.307 212.402,-404.396 232,-379 245.92,-360.962 260.686,-373.086 280,-361 281.155,-360.277 282.309,-359.539 283.459,-358.787"/>
<polygon fill="none" stroke="#404040" points="283.87,-358.503 286.528,-351.799 293.738,-351.674 291.081,-358.378 283.87,-358.503"/>
<text text-anchor="middle" x="272" y="-492" font-family="Helvetica,sans-Serif" font-size="10.00"> +UnknownData01</text>
<text text-anchor="middle" x="272" y="-481" font-family="Helvetica,sans-Serif" font-size="10.00">+UnknownData02</text>
<text text-anchor="middle" x="272" y="-470" font-family="Helvetica,sans-Serif" font-size="10.00">+UnknownData10</text>
<text text-anchor="middle" x="272" y="-459" font-family="Helvetica,sans-Serif" font-size="10.00">+UnknownData03</text>
<text text-anchor="middle" x="272" y="-448" font-family="Helvetica,sans-Serif" font-size="10.00">+UnknownData11</text>
<text text-anchor="middle" x="272" y="-437" font-family="Helvetica,sans-Serif" font-size="10.00">+UnknownData04</text>
<text text-anchor="middle" x="272" y="-426" font-family="Helvetica,sans-Serif" font-size="10.00">+UnknownData05</text>
<text text-anchor="middle" x="272" y="-415" font-family="Helvetica,sans-Serif" font-size="10.00">+UnknownData06</text>
<text text-anchor="middle" x="272" y="-404" font-family="Helvetica,sans-Serif" font-size="10.00">+UnknownData07</text>
<text text-anchor="middle" x="272" y="-393" font-family="Helvetica,sans-Serif" font-size="10.00">+UnknownData08</text>
<text text-anchor="middle" x="272" y="-382" font-family="Helvetica,sans-Serif" font-size="10.00">...</text>
</g>
<!-- Node37 -->
<g id="node7" class="node"><title>Node37</title>
<g id="a_node7"><a xlink:href="a36295.html" target="_top" xlink:title=" ">
<polygon fill="none" stroke="red" points="482,-210 482,-322 598,-322 598,-210 482,-210"/>
<text text-anchor="middle" x="540" y="-310" font-family="Helvetica,sans-Serif" font-size="10.00">SDK::UWwiseEvent</text>
<polyline fill="none" stroke="red" points="482,-303 598,-303 "/>
<text text-anchor="middle" x="540" y="-291" font-family="Helvetica,sans-Serif" font-size="10.00"> </text>
<polyline fill="none" stroke="red" points="482,-284 598,-284 "/>
<text text-anchor="start" x="490" y="-272" font-family="Helvetica,sans-Serif" font-size="10.00">+ IsAudible()</text>
<text text-anchor="start" x="490" y="-261" font-family="Helvetica,sans-Serif" font-size="10.00">+ GetMaxAttenuation()</text>
<text text-anchor="start" x="490" y="-250" font-family="Helvetica,sans-Serif" font-size="10.00">+ GetDurationType()</text>
<text text-anchor="start" x="490" y="-239" font-family="Helvetica,sans-Serif" font-size="10.00">+ GetDurationMin()</text>
<text text-anchor="start" x="490" y="-228" font-family="Helvetica,sans-Serif" font-size="10.00">+ GetDurationMax()</text>
<text text-anchor="start" x="490" y="-217" font-family="Helvetica,sans-Serif" font-size="10.00">+ StaticClass()</text>
</a>
</g>
</g>
<!-- Node14&#45;&gt;Node37 -->
<g id="edge10" class="edge"><title>Node14&#45;&gt;Node37</title>
<path fill="none" stroke="#404040" d="M229.833,-570.816C282.259,-562.562 434.261,-535.927 467,-500 503.871,-459.539 473.621,-431.233 490,-379 494.747,-363.861 500.966,-348.047 507.399,-333.233"/>
<polygon fill="none" stroke="#404040" points="507.461,-333.092 506.245,-325.985 512.338,-322.128 513.555,-329.236 507.461,-333.092"/>
<text text-anchor="middle" x="530" y="-442.5" font-family="Helvetica,sans-Serif" font-size="10.00"> +UnknownData01</text>
<text text-anchor="middle" x="530" y="-431.5" font-family="Helvetica,sans-Serif" font-size="10.00">+UnknownData00</text>
</g>
<!-- Node43&#45;&gt;Node1 -->
<g id="edge3" class="edge"><title>Node43&#45;&gt;Node1</title>
<path fill="none" stroke="#404040" d="M394.136,-171.153C398.307,-153.826 403.523,-136.124 410,-120 410.988,-117.542 412.061,-115.071 413.203,-112.605"/>
<polygon fill="none" stroke="#404040" points="413.21,-112.592 412.323,-105.436 418.588,-101.865 419.475,-109.021 413.21,-112.592"/>
<text text-anchor="middle" x="449.5" y="-134" font-family="Helvetica,sans-Serif" font-size="10.00"> +PlayerCharacter</text>
</g>
<!-- Node6 -->
<g id="node5" class="node"><title>Node6</title>
<g id="a_node5"><a xlink:href="a25839.html" target="_top" xlink:title=" ">
<polygon fill="none" stroke="red" points="456,-518.5 456,-630.5 562,-630.5 562,-518.5 456,-518.5"/>
<text text-anchor="middle" x="509" y="-618.5" font-family="Helvetica,sans-Serif" font-size="10.00">SDK::FName</text>
<polyline fill="none" stroke="red" points="456,-611.5 562,-611.5 "/>
<text text-anchor="middle" x="509" y="-599.5" font-family="Helvetica,sans-Serif" font-size="10.00"> </text>
<polyline fill="none" stroke="red" points="456,-592.5 562,-592.5 "/>
<text text-anchor="start" x="464" y="-580.5" font-family="Helvetica,sans-Serif" font-size="10.00">+ FName()</text>
<text text-anchor="start" x="464" y="-569.5" font-family="Helvetica,sans-Serif" font-size="10.00">+ FName()</text>
<text text-anchor="start" x="464" y="-558.5" font-family="Helvetica,sans-Serif" font-size="10.00">+ FName()</text>
<text text-anchor="start" x="464" y="-547.5" font-family="Helvetica,sans-Serif" font-size="10.00">+ GetName()</text>
<text text-anchor="start" x="464" y="-536.5" font-family="Helvetica,sans-Serif" font-size="10.00">+ operator==()</text>
<text text-anchor="start" x="464" y="-525.5" font-family="Helvetica,sans-Serif" font-size="10.00">+ GetGlobalNames()</text>
</a>
</g>
</g>
<!-- Node6&#45;&gt;Node1 -->
<g id="edge7" class="edge"><title>Node6&#45;&gt;Node1</title>
<path fill="none" stroke="#404040" d="M562.001,-572.263C613.877,-567.879 690.417,-552.257 728,-500 759.4,-456.341 737.494,-431.933 728,-379 706.326,-258.164 718.536,-207.078 632,-120 610.683,-98.5496 581.934,-83.7665 553.674,-73.6177"/>
<polygon fill="none" stroke="#404040" points="553.409,-73.528 546.443,-75.3937 542.042,-69.6815 549.008,-67.8158 553.409,-73.528"/>
<text text-anchor="middle" x="793.5" y="-296.5" font-family="Helvetica,sans-Serif" font-size="10.00"> +SwitchSuperheatedWaterOn</text>
<text text-anchor="middle" x="793.5" y="-285.5" font-family="Helvetica,sans-Serif" font-size="10.00">+CoastlineStormynessRtpc</text>
<text text-anchor="middle" x="793.5" y="-274.5" font-family="Helvetica,sans-Serif" font-size="10.00">+ShorelineRtpc</text>
<text text-anchor="middle" x="793.5" y="-263.5" font-family="Helvetica,sans-Serif" font-size="10.00">+SwitchSuperheatedWaterOff</text>
<text text-anchor="middle" x="793.5" y="-252.5" font-family="Helvetica,sans-Serif" font-size="10.00">+SuperheatedWaterStateGroup</text>
<text text-anchor="middle" x="793.5" y="-241.5" font-family="Helvetica,sans-Serif" font-size="10.00">+ChoppinessRtpc</text>
<text text-anchor="middle" x="793.5" y="-230.5" font-family="Helvetica,sans-Serif" font-size="10.00">+StateUnderwater</text>
</g>
<!-- Node6&#45;&gt;Node43 -->
<g id="edge4" class="edge"><title>Node6&#45;&gt;Node43</title>
<path fill="none" stroke="#404040" d="M455.963,-567.071C414.747,-558.98 360.168,-540.787 333,-500 308.084,-462.593 312.727,-414.797 326.273,-372.242"/>
<polygon fill="none" stroke="#404040" points="326.342,-372.041 324.488,-365.072 330.208,-360.681 332.062,-367.65 326.342,-372.041"/>
<text text-anchor="start" x="333" y="-442.5" font-family="Helvetica,sans-Serif" font-size="10.00"> +ReplicatedOverrideAnimation</text>
<text text-anchor="middle" x="400" y="-431.5" font-family="Helvetica,sans-Serif" font-size="10.00">Entry</text>
</g>
<!-- Node20 -->
<g id="node6" class="node"><title>Node20</title>
<g id="a_node6"><a xlink:title=" ">
<polygon fill="none" stroke="#bfbfbf" points="757.5,-546 757.5,-603 792.5,-603 792.5,-546 757.5,-546"/>
<text text-anchor="middle" x="775" y="-591" font-family="Helvetica,sans-Serif" font-size="10.00">float</text>
<polyline fill="none" stroke="#bfbfbf" points="757.5,-584 792.5,-584 "/>
<text text-anchor="middle" x="775" y="-572" font-family="Helvetica,sans-Serif" font-size="10.00"> </text>
<polyline fill="none" stroke="#bfbfbf" points="757.5,-565 792.5,-565 "/>
<text text-anchor="middle" x="775" y="-553" font-family="Helvetica,sans-Serif" font-size="10.00"> </text>
</a>
</g>
</g>
<!-- Node20&#45;&gt;Node1 -->
<g id="edge12" class="edge"><title>Node20&#45;&gt;Node1</title>
<path fill="none" stroke="#404040" d="M792.531,-562.396C810.835,-549.737 838.694,-527.231 852,-500 916.254,-368.504 954.041,-287.912 866,-171 828.492,-121.192 664.197,-85.7813 554.198,-67.1447"/>
<polygon fill="none" stroke="#404040" points="553.902,-67.0954 547.325,-70.0529 542.065,-65.1197 548.642,-62.1621 553.902,-67.0954"/>
<text text-anchor="middle" x="1003" y="-291" font-family="Helvetica,sans-Serif" font-size="10.00"> +MaxCoastAttenuation</text>
<text text-anchor="middle" x="1003" y="-280" font-family="Helvetica,sans-Serif" font-size="10.00">+MinStormDistCms</text>
<text text-anchor="start" x="917" y="-269" font-family="Helvetica,sans-Serif" font-size="10.00">+MaxValidDistanceBetweenCoast</text>
<text text-anchor="middle" x="1003" y="-258" font-family="Helvetica,sans-Serif" font-size="10.00">AndInnerSpline</text>
<text text-anchor="middle" x="1003" y="-247" font-family="Helvetica,sans-Serif" font-size="10.00">+MaxDistanceForAccurateSplineCheck</text>
<text text-anchor="middle" x="1003" y="-236" font-family="Helvetica,sans-Serif" font-size="10.00">+MaxStormDistCms</text>
</g>
<!-- Node20&#45;&gt;Node43 -->
<g id="edge5" class="edge"><title>Node20&#45;&gt;Node43</title>
<path fill="none" stroke="#404040" d="M757.396,-571.948C720.456,-567.691 634.748,-552.393 592,-500 557.445,-457.649 608.58,-417.72 570,-379 541.53,-350.427 516.19,-376.472 475.274,-361.013"/>
<polygon fill="none" stroke="#404040" points="475.14,-360.951 468.021,-362.099 464.223,-355.969 471.342,-354.821 475.14,-360.951"/>
<text text-anchor="middle" x="659.5" y="-448" font-family="Helvetica,sans-Serif" font-size="10.00"> +PostSprintResetTime</text>
<text text-anchor="middle" x="659.5" y="-437" font-family="Helvetica,sans-Serif" font-size="10.00">+SprintingServerTimeTolerance</text>
<text text-anchor="middle" x="659.5" y="-426" font-family="Helvetica,sans-Serif" font-size="10.00">+CameraFOVWhenSprinting</text>
</g>
<!-- Node20&#45;&gt;Node37 -->
<g id="edge9" class="edge"><title>Node20&#45;&gt;Node37</title>
<path fill="none" stroke="#404040" d="M775.402,-545.888C774.633,-505.444 767.89,-429.44 731,-379 700.86,-337.788 650.58,-309.191 609.172,-291.213"/>
<polygon fill="none" stroke="#404040" points="609.093,-291.18 602.012,-292.545 598.028,-286.534 605.109,-285.169 609.093,-291.18"/>
<text text-anchor="middle" x="810.5" y="-448" font-family="Helvetica,sans-Serif" font-size="10.00"> +DurationMin</text>
<text text-anchor="middle" x="810.5" y="-437" font-family="Helvetica,sans-Serif" font-size="10.00">+DurationMax</text>
<text text-anchor="middle" x="810.5" y="-426" font-family="Helvetica,sans-Serif" font-size="10.00">+MaxAttenuation</text>
</g>
<!-- Node37&#45;&gt;Node1 -->
<g id="edge8" class="edge"><title>Node37&#45;&gt;Node1</title>
<path fill="none" stroke="#404040" d="M522.897,-209.798C513.825,-182.39 501.898,-149.018 489,-120 487.913,-117.555 486.772,-115.08 485.591,-112.592"/>
<polygon fill="none" stroke="#404040" points="485.515,-112.438 479.273,-108.826 480.206,-101.676 486.447,-105.287 485.515,-112.438"/>
<text text-anchor="middle" x="565" y="-145" font-family="Helvetica,sans-Serif" font-size="10.00"> +WaterAudioStopEvent</text>
<text text-anchor="middle" x="565" y="-134" font-family="Helvetica,sans-Serif" font-size="10.00">+WaterEmergeAudioEvent</text>
<text text-anchor="middle" x="565" y="-123" font-family="Helvetica,sans-Serif" font-size="10.00">+WaterSubmergeAudioEvent</text>
</g>
</g>
</svg>
        <g id="navigator" transform="translate(0 0)" fill="#404254">
                <rect fill="#f2f5e9" fill-opacity="0.5" stroke="#606060" stroke-width=".5" x="0" y="0" width="60" height="60"/>
                <use id="zoomplus" xlink:href="#zoomPlus" x="17" y="9" onmousedown="handleZoom(evt,'in')"/>
                <use id="zoomminus" xlink:href="#zoomMin" x="42" y="9" onmousedown="handleZoom(evt,'out')"/>
                <use id="reset" xlink:href="#resetDef" x="30" y="36" onmousedown="handleReset()"/>
                <g id="arrowUp" xlink:href="#dirArrow" transform="translate(30 24)" onmousedown="handlePan(0,-1)">
                  <use xlink:href="#rim" fill="#404040">
                        <set attributeName="fill" to="#808080" begin="arrowUp.mouseover" end="arrowUp.mouseout"/>
                  </use>
                  <path fill="none" stroke="white" stroke-width="1.5" d="M0,-3.0v7 M-2.5,-0.5L0,-3.0L2.5,-0.5"/>
                </g>
                <g id="arrowRight" xlink:href="#dirArrow" transform="rotate(90) translate(36 -43)" onmousedown="handlePan(1,0)">
                  <use xlink:href="#rim" fill="#404040">
                        <set attributeName="fill" to="#808080" begin="arrowRight.mouseover" end="arrowRight.mouseout"/>
                  </use>
                  <path fill="none" stroke="white" stroke-width="1.5" d="M0,-3.0v7 M-2.5,-0.5L0,-3.0L2.5,-0.5"/>
                </g>
                <g id="arrowDown" xlink:href="#dirArrow" transform="rotate(180) translate(-30 -48)" onmousedown="handlePan(0,1)">
                  <use xlink:href="#rim" fill="#404040">
                        <set attributeName="fill" to="#808080" begin="arrowDown.mouseover" end="arrowDown.mouseout"/>
                  </use>
                  <path fill="none" stroke="white" stroke-width="1.5" d="M0,-3.0v7 M-2.5,-0.5L0,-3.0L2.5,-0.5"/>
                </g>
                <g id="arrowLeft" xlink:href="#dirArrow" transform="rotate(270) translate(-36 17)" onmousedown="handlePan(-1,0)">
                  <use xlink:href="#rim" fill="#404040">
                        <set attributeName="fill" to="#808080" begin="arrowLeft.mouseover" end="arrowLeft.mouseout"/>
                  </use>
                  <path fill="none" stroke="white" stroke-width="1.5" d="M0,-3.0v7 M-2.5,-0.5L0,-3.0L2.5,-0.5"/>
                </g>
        </g>
        <svg viewBox="0 0 15 15" width="100%" height="30px" preserveAspectRatio="xMaxYMin meet">
         <g id="arrow_out" transform="scale(0.3 0.3)">
          <a xlink:href="a07269_org.svg" target="_base">
           <rect id="button" ry="5" rx="5" y="6" x="6" height="38" width="38"
                fill="#f2f5e9" fill-opacity="0.5" stroke="#606060" stroke-width="1.0"/>
           <path id="arrow"
             d="M 11.500037,31.436501 C 11.940474,20.09759 22.043105,11.32322 32.158766,21.979434 L 37.068811,17.246167 C 37.068811,17.246167 37.088388,32 37.088388,32 L 22.160133,31.978069 C 22.160133,31.978069 26.997745,27.140456 26.997745,27.140456 C 18.528582,18.264221 13.291696,25.230495 11.500037,31.436501 z"
             style="fill:#404040;"/>
          </a>
         </g>
        </svg>
</svg>
