<?xml version="1.0" encoding="UTF-8" standalone="no"?>
<!DOCTYPE svg PUBLIC "-//W3C//DTD SVG 1.1//EN"
 "http://www.w3.org/Graphics/SVG/1.1/DTD/svg11.dtd">
<!-- Generated by graphviz version 2.38.0 (20140413.2041)
 -->
<!-- Title: SDK::UPlayerEntitlementComponent Pages: 1 -->
<svg width="775pt" height="606pt"
 viewBox="0.00 0.00 774.52 606.00" xmlns="http://www.w3.org/2000/svg" xmlns:xlink="http://www.w3.org/1999/xlink">
<g id="graph0" class="graph" transform="scale(1 1) rotate(0) translate(4 602)">
<title>SDK::UPlayerEntitlementComponent</title>
<!-- Node1 -->
<g id="node1" class="node"><title>Node1</title>
<g id="a_node1"><a xlink:title=" ">
<polygon fill="#bfbfbf" stroke="black" points="313.025,-0.5 313.025,-79.5 489.025,-79.5 489.025,-0.5 313.025,-0.5"/>
<text text-anchor="middle" x="401.025" y="-67.5" font-family="Helvetica,sans-Serif" font-size="10.00">SDK::UPlayerEntitlementComponent</text>
<polyline fill="none" stroke="black" points="313.025,-60.5 489.025,-60.5 "/>
<text text-anchor="middle" x="401.025" y="-48.5" font-family="Helvetica,sans-Serif" font-size="10.00"> </text>
<polyline fill="none" stroke="black" points="313.025,-41.5 489.025,-41.5 "/>
<text text-anchor="start" x="321.025" y="-29.5" font-family="Helvetica,sans-Serif" font-size="10.00">+ ServerRequestEntitlements()</text>
<text text-anchor="start" x="321.025" y="-18.5" font-family="Helvetica,sans-Serif" font-size="10.00">+ OnRep_Entitlements()</text>
<text text-anchor="start" x="321.025" y="-7.5" font-family="Helvetica,sans-Serif" font-size="10.00">+ StaticClass()</text>
</a>
</g>
</g>
<!-- Node2 -->
<g id="node2" class="node"><title>Node2</title>
<g id="a_node2"><a xlink:href="a26339.html" target="_top" xlink:title=" ">
<polygon fill="none" stroke="red" points="132.525,-127.5 132.525,-371.5 317.525,-371.5 317.525,-127.5 132.525,-127.5"/>
<text text-anchor="middle" x="225.025" y="-359.5" font-family="Helvetica,sans-Serif" font-size="10.00">SDK::UActorComponent</text>
<polyline fill="none" stroke="red" points="132.525,-352.5 317.525,-352.5 "/>
<text text-anchor="start" x="140.525" y="-340.5" font-family="Helvetica,sans-Serif" font-size="10.00">+ UnknownData00</text>
<text text-anchor="start" x="140.525" y="-329.5" font-family="Helvetica,sans-Serif" font-size="10.00">+ bReplicates</text>
<text text-anchor="start" x="140.525" y="-318.5" font-family="Helvetica,sans-Serif" font-size="10.00">+ bNetAddressable</text>
<text text-anchor="start" x="140.525" y="-307.5" font-family="Helvetica,sans-Serif" font-size="10.00">+ bInstanceComponent</text>
<text text-anchor="start" x="140.525" y="-296.5" font-family="Helvetica,sans-Serif" font-size="10.00">+ bAutoActivate</text>
<text text-anchor="start" x="140.525" y="-285.5" font-family="Helvetica,sans-Serif" font-size="10.00">+ bIsActive</text>
<text text-anchor="start" x="140.525" y="-274.5" font-family="Helvetica,sans-Serif" font-size="10.00">+ bNeedsLoadForServer</text>
<polyline fill="none" stroke="red" points="132.525,-267.5 317.525,-267.5 "/>
<text text-anchor="start" x="140.525" y="-255.5" font-family="Helvetica,sans-Serif" font-size="10.00">+ ToggleActive()</text>
<text text-anchor="start" x="140.525" y="-244.5" font-family="Helvetica,sans-Serif" font-size="10.00">+ SetTickGroup()</text>
<text text-anchor="start" x="140.525" y="-233.5" font-family="Helvetica,sans-Serif" font-size="10.00">+ SetTickableWhenPaused()</text>
<text text-anchor="start" x="140.525" y="-222.5" font-family="Helvetica,sans-Serif" font-size="10.00">+ SetIsReplicated()</text>
<text text-anchor="start" x="140.525" y="-211.5" font-family="Helvetica,sans-Serif" font-size="10.00">+ SetComponentTickEnabled()</text>
<text text-anchor="start" x="140.525" y="-200.5" font-family="Helvetica,sans-Serif" font-size="10.00">+ SetActive()</text>
<text text-anchor="start" x="140.525" y="-189.5" font-family="Helvetica,sans-Serif" font-size="10.00">+ RemoveTickPrerequisiteComponent()</text>
<text text-anchor="start" x="140.525" y="-178.5" font-family="Helvetica,sans-Serif" font-size="10.00">+ RemoveTickPrerequisiteActor()</text>
<text text-anchor="start" x="140.525" y="-167.5" font-family="Helvetica,sans-Serif" font-size="10.00">+ ReceiveTick()</text>
<text text-anchor="start" x="140.525" y="-156.5" font-family="Helvetica,sans-Serif" font-size="10.00">+ ReceiveEndPlay()</text>
<text text-anchor="start" x="140.525" y="-145.5" font-family="Helvetica,sans-Serif" font-size="10.00">and 12 more...</text>
<text text-anchor="start" x="140.525" y="-134.5" font-family="Helvetica,sans-Serif" font-size="10.00">+ StaticClass()</text>
</a>
</g>
</g>
<!-- Node2&#45;&gt;Node1 -->
<g id="edge1" class="edge"><title>Node2&#45;&gt;Node1</title>
<path fill="none" stroke="midnightblue" d="M324.211,-129.132C324.817,-128.419 325.422,-127.708 326.025,-127 339.253,-111.464 353.978,-94.5079 366.853,-79.7894"/>
<polygon fill="none" stroke="midnightblue" points="321.46,-126.963 317.661,-136.853 326.799,-131.492 321.46,-126.963"/>
</g>
<!-- Node12 -->
<g id="node3" class="node"><title>Node12</title>
<g id="a_node3"><a xlink:title=" ">
<polygon fill="none" stroke="#bfbfbf" points="294.525,-540.5 294.525,-597.5 329.525,-597.5 329.525,-540.5 294.525,-540.5"/>
<text text-anchor="middle" x="312.025" y="-585.5" font-family="Helvetica,sans-Serif" font-size="10.00">char</text>
<polyline fill="none" stroke="#bfbfbf" points="294.525,-578.5 329.525,-578.5 "/>
<text text-anchor="middle" x="312.025" y="-566.5" font-family="Helvetica,sans-Serif" font-size="10.00"> </text>
<polyline fill="none" stroke="#bfbfbf" points="294.525,-559.5 329.525,-559.5 "/>
<text text-anchor="middle" x="312.025" y="-547.5" font-family="Helvetica,sans-Serif" font-size="10.00"> </text>
</a>
</g>
</g>
<!-- Node12&#45;&gt;Node1 -->
<g id="edge6" class="edge"><title>Node12&#45;&gt;Node1</title>
<path fill="none" stroke="#404040" d="M294.369,-562.099C242.968,-543.801 93.8501,-482.506 43.0245,-372 -2.47542,-273.073 -24.3821,-212.517 43.0245,-127 74.6304,-86.9026 206.194,-63.36 300.659,-51.325"/>
<polygon fill="none" stroke="#404040" points="300.947,-51.2893 306.407,-46.5794 312.855,-49.8084 307.395,-54.5183 300.947,-51.2893"/>
<text text-anchor="middle" x="83.0245" y="-258" font-family="Helvetica,sans-Serif" font-size="10.00"> +UnknownData01</text>
<text text-anchor="middle" x="83.0245" y="-247" font-family="Helvetica,sans-Serif" font-size="10.00">+UnknownData02</text>
<text text-anchor="middle" x="83.0245" y="-236" font-family="Helvetica,sans-Serif" font-size="10.00">+UnknownData00</text>
</g>
<!-- Node12&#45;&gt;Node2 -->
<g id="edge2" class="edge"><title>Node12&#45;&gt;Node2</title>
<path fill="none" stroke="#404040" d="M294.489,-558.593C281.553,-550.653 264.745,-538.024 256.025,-522 233.385,-480.401 223.688,-429.96 220.283,-383.898"/>
<polygon fill="none" stroke="#404040" points="220.267,-383.64 215.899,-377.902 219.516,-371.664 223.883,-377.402 220.267,-383.64"/>
<text text-anchor="middle" x="312.025" y="-514" font-family="Helvetica,sans-Serif" font-size="10.00"> +UnknownData01</text>
<text text-anchor="middle" x="312.025" y="-503" font-family="Helvetica,sans-Serif" font-size="10.00">+UnknownData02</text>
<text text-anchor="middle" x="312.025" y="-492" font-family="Helvetica,sans-Serif" font-size="10.00">+UnknownData03</text>
<text text-anchor="middle" x="312.025" y="-481" font-family="Helvetica,sans-Serif" font-size="10.00">+UnknownData04</text>
<text text-anchor="middle" x="312.025" y="-470" font-family="Helvetica,sans-Serif" font-size="10.00">+UnknownData05</text>
<text text-anchor="start" x="256.025" y="-459" font-family="Helvetica,sans-Serif" font-size="10.00">+bCreatedByConstruction</text>
<text text-anchor="middle" x="312.025" y="-448" font-family="Helvetica,sans-Serif" font-size="10.00">Script</text>
<text text-anchor="middle" x="312.025" y="-437" font-family="Helvetica,sans-Serif" font-size="10.00">+UnknownData06</text>
<text text-anchor="middle" x="312.025" y="-426" font-family="Helvetica,sans-Serif" font-size="10.00">+UnknownData07</text>
<text text-anchor="middle" x="312.025" y="-415" font-family="Helvetica,sans-Serif" font-size="10.00">+bEditableWhenInherited</text>
<text text-anchor="middle" x="312.025" y="-404" font-family="Helvetica,sans-Serif" font-size="10.00">+bNeedsLoadForClient</text>
<text text-anchor="middle" x="312.025" y="-393" font-family="Helvetica,sans-Serif" font-size="10.00">...</text>
</g>
<!-- Node23 -->
<g id="node5" class="node"><title>Node23</title>
<g id="a_node5"><a xlink:href="a15067.html" target="_top" xlink:title=" ">
<polygon fill="none" stroke="red" points="335.525,-221 335.525,-278 466.525,-278 466.525,-221 335.525,-221"/>
<text text-anchor="middle" x="401.025" y="-266" font-family="Helvetica,sans-Serif" font-size="10.00">SDK::FPlayerEntitlements</text>
<polyline fill="none" stroke="red" points="335.525,-259 466.525,-259 "/>
<text text-anchor="middle" x="401.025" y="-247" font-family="Helvetica,sans-Serif" font-size="10.00"> </text>
<polyline fill="none" stroke="red" points="335.525,-240 466.525,-240 "/>
<text text-anchor="middle" x="401.025" y="-228" font-family="Helvetica,sans-Serif" font-size="10.00"> </text>
</a>
</g>
</g>
<!-- Node12&#45;&gt;Node23 -->
<g id="edge5" class="edge"><title>Node12&#45;&gt;Node23</title>
<path fill="none" stroke="#404040" d="M329.528,-558.575C342.446,-550.626 359.246,-537.992 368.025,-522 408.619,-448.052 408.763,-345.982 405.049,-290.438"/>
<polygon fill="none" stroke="#404040" points="405.039,-290.306 400.595,-284.626 404.129,-278.34 408.572,-284.019 405.039,-290.306"/>
<text text-anchor="middle" x="444.025" y="-453.5" font-family="Helvetica,sans-Serif" font-size="10.00"> +UnknownData00</text>
</g>
<!-- Node27 -->
<g id="node6" class="node"><title>Node27</title>
<g id="a_node6"><a xlink:href="a15059.html" target="_top" xlink:title=" ">
<polygon fill="none" stroke="red" points="484.525,-215.5 484.525,-283.5 615.525,-283.5 615.525,-215.5 484.525,-215.5"/>
<text text-anchor="start" x="492.525" y="-271.5" font-family="Helvetica,sans-Serif" font-size="10.00">SDK::FPlayerEntitlements</text>
<text text-anchor="middle" x="550.025" y="-260.5" font-family="Helvetica,sans-Serif" font-size="10.00">Compact</text>
<polyline fill="none" stroke="red" points="484.525,-253.5 615.525,-253.5 "/>
<text text-anchor="middle" x="550.025" y="-241.5" font-family="Helvetica,sans-Serif" font-size="10.00"> </text>
<polyline fill="none" stroke="red" points="484.525,-234.5 615.525,-234.5 "/>
<text text-anchor="middle" x="550.025" y="-222.5" font-family="Helvetica,sans-Serif" font-size="10.00"> </text>
</a>
</g>
</g>
<!-- Node12&#45;&gt;Node27 -->
<g id="edge8" class="edge"><title>Node12&#45;&gt;Node27</title>
<path fill="none" stroke="#404040" d="M329.547,-565.74C369.556,-560.227 465.878,-544.847 488.025,-522 547.245,-460.906 554.344,-355.507 552.997,-295.588"/>
<polygon fill="none" stroke="#404040" points="552.994,-295.517 548.798,-289.653 552.596,-283.524 556.793,-289.388 552.994,-295.517"/>
<text text-anchor="middle" x="586.025" y="-453.5" font-family="Helvetica,sans-Serif" font-size="10.00"> +UnknownData00</text>
</g>
<!-- Node22 -->
<g id="node4" class="node"><title>Node22</title>
<g id="a_node4"><a xlink:href="a25611.html" target="_top" xlink:title=" ">
<polygon fill="none" stroke="black" points="633.525,-193.5 633.525,-305.5 766.525,-305.5 766.525,-193.5 633.525,-193.5"/>
<text text-anchor="start" x="641.525" y="-293.5" font-family="Helvetica,sans-Serif" font-size="10.00">SDK::TArray&lt; struct</text>
<text text-anchor="middle" x="700.025" y="-282.5" font-family="Helvetica,sans-Serif" font-size="10.00"> SDK::FEntitlementIdInfo &gt;</text>
<polyline fill="none" stroke="black" points="633.525,-275.5 766.525,-275.5 "/>
<text text-anchor="middle" x="700.025" y="-263.5" font-family="Helvetica,sans-Serif" font-size="10.00"> </text>
<polyline fill="none" stroke="black" points="633.525,-256.5 766.525,-256.5 "/>
<text text-anchor="start" x="641.525" y="-244.5" font-family="Helvetica,sans-Serif" font-size="10.00">+ TArray()</text>
<text text-anchor="start" x="641.525" y="-233.5" font-family="Helvetica,sans-Serif" font-size="10.00">+ Num()</text>
<text text-anchor="start" x="641.525" y="-222.5" font-family="Helvetica,sans-Serif" font-size="10.00">+ operator[]()</text>
<text text-anchor="start" x="641.525" y="-211.5" font-family="Helvetica,sans-Serif" font-size="10.00">+ operator[]()</text>
<text text-anchor="start" x="641.525" y="-200.5" font-family="Helvetica,sans-Serif" font-size="10.00">+ IsValidIndex()</text>
</a>
</g>
</g>
<!-- Node22&#45;&gt;Node1 -->
<g id="edge3" class="edge"><title>Node22&#45;&gt;Node1</title>
<path fill="none" stroke="#404040" d="M675.6,-193.326C657.607,-159.699 629.709,-119.234 592.025,-98 564.212,-82.328 531.641,-70.549 501.352,-61.8926"/>
<polygon fill="none" stroke="#404040" points="500.997,-61.7948 494.15,-64.0581 489.428,-58.6085 496.275,-56.3452 500.997,-61.7948"/>
<text text-anchor="middle" x="668.025" y="-101" font-family="Helvetica,sans-Serif" font-size="10.00"> +ReplicatedEntitlementIds</text>
</g>
<!-- Node23&#45;&gt;Node1 -->
<g id="edge4" class="edge"><title>Node23&#45;&gt;Node1</title>
<path fill="none" stroke="#404040" d="M401.025,-220.946C401.025,-188.076 401.025,-132.466 401.025,-91.7481"/>
<polygon fill="none" stroke="#404040" points="401.025,-91.631 397.025,-85.6311 401.025,-79.631 405.025,-85.631 401.025,-91.631"/>
<text text-anchor="middle" x="433.025" y="-101" font-family="Helvetica,sans-Serif" font-size="10.00"> +Entitlements</text>
</g>
<!-- Node27&#45;&gt;Node1 -->
<g id="edge7" class="edge"><title>Node27&#45;&gt;Node1</title>
<path fill="none" stroke="#404040" d="M536.518,-215.202C522.546,-183.161 498.63,-134.352 469.025,-98 466.366,-94.7358 463.5,-91.5189 460.502,-88.3765"/>
<polygon fill="none" stroke="#404040" points="460.298,-88.1747 453.218,-86.8027 451.762,-79.7402 458.841,-81.1122 460.298,-88.1747"/>
<text text-anchor="middle" x="533.025" y="-101" font-family="Helvetica,sans-Serif" font-size="10.00"> +ReplicatedEntitlements</text>
</g>
</g>
</svg>
