<?xml version="1.0" encoding="UTF-8" standalone="no"?>
<!DOCTYPE svg PUBLIC "-//W3C//DTD SVG 1.1//EN"
 "http://www.w3.org/Graphics/SVG/1.1/DTD/svg11.dtd">
<!-- Generated by graphviz version 2.38.0 (20140413.2041)
 -->
<!-- Title: SDK::UPlayerMusicControllerParams Pages: 1 -->
<!--zoomable 702 -->
<svg id="main" version="1.1" xmlns="http://www.w3.org/2000/svg" xmlns:xlink="http://www.w3.org/1999/xlink" xml:space="preserve" onload="init(evt)">
<style type="text/css"><![CDATA[
.edge:hover path { stroke: red; }
.edge:hover polygon { stroke: red; fill: red; }
]]></style>
<script type="text/javascript"><![CDATA[
var edges = document.getElementsByTagName('g');
if (edges && edges.length) {
  for (var i=0;i<edges.length;i++) {
    if (edges[i].id.substr(0,4)=='edge') {
      edges[i].setAttribute('class','edge');
    }
  }
}
]]></script>
        <defs>
                <circle id="rim" cx="0" cy="0" r="7"/>
                <circle id="rim2" cx="0" cy="0" r="3.5"/>
                <g id="zoomPlus">
                        <use xlink:href="#rim" fill="#404040">
                                <set attributeName="fill" to="#808080" begin="zoomplus.mouseover" end="zoomplus.mouseout"/>
                        </use>
                        <path d="M-4,0h8M0,-4v8" fill="none" stroke="white" stroke-width="1.5" pointer-events="none"/>
                </g>
                <g id="zoomMin">
                        <use xlink:href="#rim" fill="#404040">
                                <set attributeName="fill" to="#808080" begin="zoomminus.mouseover" end="zoomminus.mouseout"/>
                        </use>
                        <path d="M-4,0h8" fill="none" stroke="white" stroke-width="1.5" pointer-events="none"/>
                </g>
                <g id="dirArrow">
                        <path fill="none" stroke="white" stroke-width="1.5" d="M0,-3.0v7 M-2.5,-0.5L0,-3.0L2.5,-0.5"/>
                </g>
               <g id="resetDef">
                       <use xlink:href="#rim2" fill="#404040">
                               <set attributeName="fill" to="#808080" begin="reset.mouseover" end="reset.mouseout"/>
                       </use>
               </g>
        </defs>

<script type="text/javascript">
var viewWidth = 2155;
var viewHeight = 702;
var sectionId = 'dynsection-1';
</script>
<script xlink:href="svgpan.js"/>
<svg id="graph" class="graph">
<g id="viewport">
<title>SDK::UPlayerMusicControllerParams</title>
<!-- Node1 -->
<g id="node1" class="node"><title>Node1</title>
<g id="a_node1"><a xlink:title=" ">
<polygon fill="#bfbfbf" stroke="black" points="944.5,-0.5 944.5,-189.5 1122.5,-189.5 1122.5,-0.5 944.5,-0.5"/>
<text text-anchor="start" x="952.5" y="-177.5" font-family="Helvetica,sans-Serif" font-size="10.00">SDK::UPlayerMusicController</text>
<text text-anchor="middle" x="1033.5" y="-166.5" font-family="Helvetica,sans-Serif" font-size="10.00">Params</text>
<polyline fill="none" stroke="black" points="944.5,-159.5 1122.5,-159.5 "/>
<text text-anchor="start" x="952.5" y="-147.5" font-family="Helvetica,sans-Serif" font-size="10.00">+ PlayerOnIslandStart</text>
<text text-anchor="start" x="952.5" y="-136.5" font-family="Helvetica,sans-Serif" font-size="10.00">+ PlayerOnIslandStop</text>
<text text-anchor="start" x="952.5" y="-125.5" font-family="Helvetica,sans-Serif" font-size="10.00">+ PlayerAtSeaStart</text>
<text text-anchor="start" x="952.5" y="-114.5" font-family="Helvetica,sans-Serif" font-size="10.00">+ PlayerAtSeaStop</text>
<text text-anchor="start" x="952.5" y="-103.5" font-family="Helvetica,sans-Serif" font-size="10.00">+ PlayerUnderwaterStop</text>
<text text-anchor="start" x="952.5" y="-92.5" font-family="Helvetica,sans-Serif" font-size="10.00">+ FactorForSwitchingAtSeaMood</text>
<text text-anchor="start" x="952.5" y="-81.5" font-family="Helvetica,sans-Serif" font-size="10.00">MusicOn</text>
<text text-anchor="start" x="952.5" y="-70.5" font-family="Helvetica,sans-Serif" font-size="10.00">+ BoatSpeedRtpc</text>
<text text-anchor="start" x="952.5" y="-59.5" font-family="Helvetica,sans-Serif" font-size="10.00">+ AtSeaAtSpeedStingCooldownMin</text>
<text text-anchor="start" x="952.5" y="-48.5" font-family="Helvetica,sans-Serif" font-size="10.00">+ AtSeaAtSpeedPlay</text>
<text text-anchor="start" x="952.5" y="-37.5" font-family="Helvetica,sans-Serif" font-size="10.00">+ SailBillowOneshotPlayMediumShip</text>
<text text-anchor="start" x="952.5" y="-26.5" font-family="Helvetica,sans-Serif" font-size="10.00">and 85 more...</text>
<polyline fill="none" stroke="black" points="944.5,-19.5 1122.5,-19.5 "/>
<text text-anchor="start" x="952.5" y="-7.5" font-family="Helvetica,sans-Serif" font-size="10.00">+ StaticClass()</text>
</a>
</g>
</g>
<!-- Node2 -->
<g id="node2" class="node"><title>Node2</title>
<g id="a_node2"><a xlink:href="a26559.html" target="_top" xlink:title=" ">
<polygon fill="none" stroke="red" points="0,-401 0,-458 95,-458 95,-401 0,-401"/>
<text text-anchor="middle" x="47.5" y="-446" font-family="Helvetica,sans-Serif" font-size="10.00">SDK::UDataAsset</text>
<polyline fill="none" stroke="red" points="0,-439 95,-439 "/>
<text text-anchor="middle" x="47.5" y="-427" font-family="Helvetica,sans-Serif" font-size="10.00"> </text>
<polyline fill="none" stroke="red" points="0,-420 95,-420 "/>
<text text-anchor="start" x="8" y="-408" font-family="Helvetica,sans-Serif" font-size="10.00">+ StaticClass()</text>
</a>
</g>
</g>
<!-- Node2&#45;&gt;Node1 -->
<g id="edge1" class="edge"><title>Node2&#45;&gt;Node1</title>
<path fill="none" stroke="midnightblue" d="M53.9898,-390.879C64.8364,-340.381 91.7634,-251.951 152.5,-208 277.565,-117.499 746.036,-100.052 944.147,-96.7453"/>
<polygon fill="none" stroke="midnightblue" points="50.546,-390.25 51.9712,-400.749 57.404,-391.653 50.546,-390.25"/>
</g>
<!-- Node14 -->
<g id="node3" class="node"><title>Node14</title>
<g id="a_node3"><a xlink:href="a25823.html" target="_top" xlink:title=" ">
<polygon fill="none" stroke="black" points="113.5,-373.5 113.5,-485.5 255.5,-485.5 255.5,-373.5 113.5,-373.5"/>
<text text-anchor="start" x="121.5" y="-473.5" font-family="Helvetica,sans-Serif" font-size="10.00">SDK::TArray&lt; struct</text>
<text text-anchor="middle" x="184.5" y="-462.5" font-family="Helvetica,sans-Serif" font-size="10.00"> SDK::FKrakenMusicEvent &gt;</text>
<polyline fill="none" stroke="black" points="113.5,-455.5 255.5,-455.5 "/>
<text text-anchor="middle" x="184.5" y="-443.5" font-family="Helvetica,sans-Serif" font-size="10.00"> </text>
<polyline fill="none" stroke="black" points="113.5,-436.5 255.5,-436.5 "/>
<text text-anchor="start" x="121.5" y="-424.5" font-family="Helvetica,sans-Serif" font-size="10.00">+ TArray()</text>
<text text-anchor="start" x="121.5" y="-413.5" font-family="Helvetica,sans-Serif" font-size="10.00">+ Num()</text>
<text text-anchor="start" x="121.5" y="-402.5" font-family="Helvetica,sans-Serif" font-size="10.00">+ operator[]()</text>
<text text-anchor="start" x="121.5" y="-391.5" font-family="Helvetica,sans-Serif" font-size="10.00">+ operator[]()</text>
<text text-anchor="start" x="121.5" y="-380.5" font-family="Helvetica,sans-Serif" font-size="10.00">+ IsValidIndex()</text>
</a>
</g>
</g>
<!-- Node14&#45;&gt;Node1 -->
<g id="edge2" class="edge"><title>Node14&#45;&gt;Node1</title>
<path fill="none" stroke="#404040" d="M166.532,-373.411C154.19,-323.971 146.285,-252.531 185.5,-208 234.239,-152.654 717.922,-115.764 932.212,-102.012"/>
<polygon fill="none" stroke="#404040" points="932.406,-102 938.14,-97.6271 944.382,-101.238 938.648,-105.611 932.406,-102"/>
<text text-anchor="middle" x="233.5" y="-266" font-family="Helvetica,sans-Serif" font-size="10.00"> +KrakenMusicEvents</text>
</g>
<!-- Node15 -->
<g id="node4" class="node"><title>Node15</title>
<g id="a_node4"><a xlink:href="a36295.html" target="_top" xlink:title=" ">
<polygon fill="none" stroke="red" points="471.5,-373.5 471.5,-485.5 587.5,-485.5 587.5,-373.5 471.5,-373.5"/>
<text text-anchor="middle" x="529.5" y="-473.5" font-family="Helvetica,sans-Serif" font-size="10.00">SDK::UWwiseEvent</text>
<polyline fill="none" stroke="red" points="471.5,-466.5 587.5,-466.5 "/>
<text text-anchor="middle" x="529.5" y="-454.5" font-family="Helvetica,sans-Serif" font-size="10.00"> </text>
<polyline fill="none" stroke="red" points="471.5,-447.5 587.5,-447.5 "/>
<text text-anchor="start" x="479.5" y="-435.5" font-family="Helvetica,sans-Serif" font-size="10.00">+ IsAudible()</text>
<text text-anchor="start" x="479.5" y="-424.5" font-family="Helvetica,sans-Serif" font-size="10.00">+ GetMaxAttenuation()</text>
<text text-anchor="start" x="479.5" y="-413.5" font-family="Helvetica,sans-Serif" font-size="10.00">+ GetDurationType()</text>
<text text-anchor="start" x="479.5" y="-402.5" font-family="Helvetica,sans-Serif" font-size="10.00">+ GetDurationMin()</text>
<text text-anchor="start" x="479.5" y="-391.5" font-family="Helvetica,sans-Serif" font-size="10.00">+ GetDurationMax()</text>
<text text-anchor="start" x="479.5" y="-380.5" font-family="Helvetica,sans-Serif" font-size="10.00">+ StaticClass()</text>
</a>
</g>
</g>
<!-- Node15&#45;&gt;Node1 -->
<g id="edge3" class="edge"><title>Node15&#45;&gt;Node1</title>
<path fill="none" stroke="#404040" d="M492.023,-373.267C464.214,-324.752 437.161,-254.799 475.5,-208 532.084,-138.93 786.889,-111.562 931.83,-101.44"/>
<polygon fill="none" stroke="#404040" points="932.244,-101.412 937.959,-97.0144 944.216,-100.598 938.501,-104.996 932.244,-101.412"/>
<text text-anchor="middle" x="542.5" y="-321" font-family="Helvetica,sans-Serif" font-size="10.00"> +TinySharkSummonSting</text>
<text text-anchor="middle" x="542.5" y="-310" font-family="Helvetica,sans-Serif" font-size="10.00">+CompanyMoodStop</text>
<text text-anchor="middle" x="542.5" y="-299" font-family="Helvetica,sans-Serif" font-size="10.00">+AncientSkellyMusicPlay</text>
<text text-anchor="middle" x="542.5" y="-288" font-family="Helvetica,sans-Serif" font-size="10.00">+SailBillowOneshotPlay</text>
<text text-anchor="middle" x="542.5" y="-277" font-family="Helvetica,sans-Serif" font-size="10.00">+PlayerUnderwaterStart</text>
<text text-anchor="middle" x="542.5" y="-266" font-family="Helvetica,sans-Serif" font-size="10.00">+PlayerInCaveStop</text>
<text text-anchor="middle" x="542.5" y="-255" font-family="Helvetica,sans-Serif" font-size="10.00">+PlayerInCaveStart</text>
<text text-anchor="middle" x="542.5" y="-244" font-family="Helvetica,sans-Serif" font-size="10.00">+SkellyShipSunk</text>
<text text-anchor="middle" x="542.5" y="-233" font-family="Helvetica,sans-Serif" font-size="10.00">+FinalSkellyShipSpawned</text>
<text text-anchor="middle" x="542.5" y="-222" font-family="Helvetica,sans-Serif" font-size="10.00">+SkellyShipEncounterFinished</text>
<text text-anchor="middle" x="542.5" y="-211" font-family="Helvetica,sans-Serif" font-size="10.00">...</text>
</g>
<!-- Node17 -->
<g id="node5" class="node"><title>Node17</title>
<g id="a_node5"><a xlink:title=" ">
<polygon fill="none" stroke="#bfbfbf" points="320,-609 320,-666 355,-666 355,-609 320,-609"/>
<text text-anchor="middle" x="337.5" y="-654" font-family="Helvetica,sans-Serif" font-size="10.00">float</text>
<polyline fill="none" stroke="#bfbfbf" points="320,-647 355,-647 "/>
<text text-anchor="middle" x="337.5" y="-635" font-family="Helvetica,sans-Serif" font-size="10.00"> </text>
<polyline fill="none" stroke="#bfbfbf" points="320,-628 355,-628 "/>
<text text-anchor="middle" x="337.5" y="-616" font-family="Helvetica,sans-Serif" font-size="10.00"> </text>
</a>
</g>
</g>
<!-- Node17&#45;&gt;Node1 -->
<g id="edge9" class="edge"><title>Node17&#45;&gt;Node1</title>
<path fill="none" stroke="#404040" d="M325.417,-608.799C304.1,-555.614 265.579,-436.537 304.5,-347 340.604,-263.944 372.785,-249.074 453.5,-208 608.251,-129.251 812.004,-105.676 932.253,-98.7406"/>
<polygon fill="none" stroke="#404040" points="932.359,-98.7349 938.133,-94.415 944.341,-98.0833 938.567,-102.403 932.359,-98.7349"/>
<text text-anchor="start" x="304.5" y="-504" font-family="Helvetica,sans-Serif" font-size="10.00"> +BountyFortSkellyProximity</text>
<text text-anchor="middle" x="383.5" y="-493" font-family="Helvetica,sans-Serif" font-size="10.00">Max</text>
<text text-anchor="start" x="304.5" y="-482" font-family="Helvetica,sans-Serif" font-size="10.00">+FactorForChangingFortTo</text>
<text text-anchor="middle" x="383.5" y="-471" font-family="Helvetica,sans-Serif" font-size="10.00">ActionState</text>
<text text-anchor="start" x="304.5" y="-460" font-family="Helvetica,sans-Serif" font-size="10.00">+CooldownForAnticipationMusic</text>
<text text-anchor="middle" x="383.5" y="-449" font-family="Helvetica,sans-Serif" font-size="10.00">Retrigger</text>
<text text-anchor="start" x="304.5" y="-438" font-family="Helvetica,sans-Serif" font-size="10.00">+FactorForChangingBountyToAction</text>
<text text-anchor="middle" x="383.5" y="-427" font-family="Helvetica,sans-Serif" font-size="10.00">State</text>
<text text-anchor="middle" x="383.5" y="-416" font-family="Helvetica,sans-Serif" font-size="10.00">+AtSeaAtSpeedStingCooldownMax</text>
<text text-anchor="middle" x="383.5" y="-405" font-family="Helvetica,sans-Serif" font-size="10.00">+TinySharkEmergeHeight</text>
<text text-anchor="middle" x="383.5" y="-394" font-family="Helvetica,sans-Serif" font-size="10.00">+BoatSpeedRtpcMax</text>
<text text-anchor="middle" x="383.5" y="-383" font-family="Helvetica,sans-Serif" font-size="10.00">+SkellyShipMaxProximity</text>
<text text-anchor="middle" x="383.5" y="-372" font-family="Helvetica,sans-Serif" font-size="10.00">+SailBillowStingCooldown</text>
<text text-anchor="middle" x="383.5" y="-361" font-family="Helvetica,sans-Serif" font-size="10.00">+BoatSpeedRtpcMin</text>
<text text-anchor="middle" x="383.5" y="-350" font-family="Helvetica,sans-Serif" font-size="10.00">...</text>
</g>
<!-- Node17&#45;&gt;Node15 -->
<g id="edge4" class="edge"><title>Node17&#45;&gt;Node15</title>
<path fill="none" stroke="#404040" d="M355.238,-618.591C378.878,-594.61 421.871,-550.608 457.5,-512 462.626,-506.446 467.909,-500.636 473.175,-494.786"/>
<polygon fill="none" stroke="#404040" points="473.405,-494.529 474.428,-487.391 481.411,-485.591 480.387,-492.729 473.405,-494.529"/>
<text text-anchor="middle" x="476" y="-555" font-family="Helvetica,sans-Serif" font-size="10.00"> +DurationMin</text>
<text text-anchor="middle" x="476" y="-544" font-family="Helvetica,sans-Serif" font-size="10.00">+DurationMax</text>
<text text-anchor="middle" x="476" y="-533" font-family="Helvetica,sans-Serif" font-size="10.00">+MaxAttenuation</text>
</g>
<!-- Node12 -->
<g id="node6" class="node"><title>Node12</title>
<g id="a_node6"><a xlink:title=" ">
<polygon fill="none" stroke="#bfbfbf" points="606,-609 606,-666 641,-666 641,-609 606,-609"/>
<text text-anchor="middle" x="623.5" y="-654" font-family="Helvetica,sans-Serif" font-size="10.00">char</text>
<polyline fill="none" stroke="#bfbfbf" points="606,-647 641,-647 "/>
<text text-anchor="middle" x="623.5" y="-635" font-family="Helvetica,sans-Serif" font-size="10.00"> </text>
<polyline fill="none" stroke="#bfbfbf" points="606,-628 641,-628 "/>
<text text-anchor="middle" x="623.5" y="-616" font-family="Helvetica,sans-Serif" font-size="10.00"> </text>
</a>
</g>
</g>
<!-- Node12&#45;&gt;Node1 -->
<g id="edge8" class="edge"><title>Node12&#45;&gt;Node1</title>
<path fill="none" stroke="#404040" d="M619.617,-608.959C613.324,-556.048 604.916,-437.42 640.5,-347 669.862,-272.39 690.774,-255.322 755.5,-208 808.539,-169.223 876.889,-141.451 932.542,-123.262"/>
<polygon fill="none" stroke="#404040" points="932.787,-123.183 937.282,-117.545 944.215,-119.525 939.721,-125.164 932.787,-123.183"/>
<text text-anchor="middle" x="680.5" y="-465.5" font-family="Helvetica,sans-Serif" font-size="10.00"> +UnknownData01</text>
<text text-anchor="middle" x="680.5" y="-454.5" font-family="Helvetica,sans-Serif" font-size="10.00">+UnknownData02</text>
<text text-anchor="middle" x="680.5" y="-443.5" font-family="Helvetica,sans-Serif" font-size="10.00">+UnknownData03</text>
<text text-anchor="middle" x="680.5" y="-432.5" font-family="Helvetica,sans-Serif" font-size="10.00">+UnknownData04</text>
<text text-anchor="middle" x="680.5" y="-421.5" font-family="Helvetica,sans-Serif" font-size="10.00">+UnknownData05</text>
<text text-anchor="middle" x="680.5" y="-410.5" font-family="Helvetica,sans-Serif" font-size="10.00">+UnknownData06</text>
<text text-anchor="middle" x="680.5" y="-399.5" font-family="Helvetica,sans-Serif" font-size="10.00">+UnknownData07</text>
<text text-anchor="middle" x="680.5" y="-388.5" font-family="Helvetica,sans-Serif" font-size="10.00">+UnknownData00</text>
</g>
<!-- Node12&#45;&gt;Node15 -->
<g id="edge5" class="edge"><title>Node12&#45;&gt;Node15</title>
<path fill="none" stroke="#404040" d="M605.994,-628.869C583.479,-617.968 545.386,-595.587 529.5,-563 519.849,-543.203 517.417,-519.681 518.154,-497.989"/>
<polygon fill="none" stroke="#404040" points="518.166,-497.796 514.537,-491.564 518.893,-485.818 522.522,-492.049 518.166,-497.796"/>
<text text-anchor="middle" x="569.5" y="-549.5" font-family="Helvetica,sans-Serif" font-size="10.00"> +UnknownData01</text>
<text text-anchor="middle" x="569.5" y="-538.5" font-family="Helvetica,sans-Serif" font-size="10.00">+UnknownData00</text>
</g>
<!-- Node29 -->
<g id="node13" class="node"><title>Node29</title>
<g id="a_node13"><a xlink:href="a34387.html" target="_top" xlink:title=" ">
<polygon fill="none" stroke="red" points="1209.5,-401 1209.5,-458 1373.5,-458 1373.5,-401 1209.5,-401"/>
<text text-anchor="middle" x="1291.5" y="-446" font-family="Helvetica,sans-Serif" font-size="10.00">SDK::UWwiseObjectPoolWrapper</text>
<polyline fill="none" stroke="red" points="1209.5,-439 1373.5,-439 "/>
<text text-anchor="middle" x="1291.5" y="-427" font-family="Helvetica,sans-Serif" font-size="10.00"> </text>
<polyline fill="none" stroke="red" points="1209.5,-420 1373.5,-420 "/>
<text text-anchor="start" x="1217.5" y="-408" font-family="Helvetica,sans-Serif" font-size="10.00">+ StaticClass()</text>
</a>
</g>
</g>
<!-- Node12&#45;&gt;Node29 -->
<g id="edge16" class="edge"><title>Node12&#45;&gt;Node29</title>
<path fill="none" stroke="#404040" d="M641.138,-630.862C697.332,-613.121 877.461,-557.961 1030.5,-530 1105.24,-516.345 1131.06,-542.837 1200.5,-512 1223.4,-501.832 1244.54,-483.695 1260.67,-467.108"/>
<polygon fill="none" stroke="#404040" points="1260.89,-466.871 1262.07,-459.758 1269.09,-458.113 1267.91,-465.227 1260.89,-466.871"/>
<text text-anchor="middle" x="1070.5" y="-549.5" font-family="Helvetica,sans-Serif" font-size="10.00"> +UnknownData01</text>
<text text-anchor="middle" x="1070.5" y="-538.5" font-family="Helvetica,sans-Serif" font-size="10.00">+UnknownData00</text>
</g>
<!-- Node4 -->
<g id="node7" class="node"><title>Node4</title>
<g id="a_node7"><a xlink:href="a25839.html" target="_top" xlink:title=" ">
<polygon fill="none" stroke="red" points="895.5,-581.5 895.5,-693.5 1001.5,-693.5 1001.5,-581.5 895.5,-581.5"/>
<text text-anchor="middle" x="948.5" y="-681.5" font-family="Helvetica,sans-Serif" font-size="10.00">SDK::FName</text>
<polyline fill="none" stroke="red" points="895.5,-674.5 1001.5,-674.5 "/>
<text text-anchor="middle" x="948.5" y="-662.5" font-family="Helvetica,sans-Serif" font-size="10.00"> </text>
<polyline fill="none" stroke="red" points="895.5,-655.5 1001.5,-655.5 "/>
<text text-anchor="start" x="903.5" y="-643.5" font-family="Helvetica,sans-Serif" font-size="10.00">+ FName()</text>
<text text-anchor="start" x="903.5" y="-632.5" font-family="Helvetica,sans-Serif" font-size="10.00">+ FName()</text>
<text text-anchor="start" x="903.5" y="-621.5" font-family="Helvetica,sans-Serif" font-size="10.00">+ FName()</text>
<text text-anchor="start" x="903.5" y="-610.5" font-family="Helvetica,sans-Serif" font-size="10.00">+ GetName()</text>
<text text-anchor="start" x="903.5" y="-599.5" font-family="Helvetica,sans-Serif" font-size="10.00">+ operator==()</text>
<text text-anchor="start" x="903.5" y="-588.5" font-family="Helvetica,sans-Serif" font-size="10.00">+ GetGlobalNames()</text>
</a>
</g>
</g>
<!-- Node4&#45;&gt;Node1 -->
<g id="edge6" class="edge"><title>Node4&#45;&gt;Node1</title>
<path fill="none" stroke="#404040" d="M895.432,-620.056C847.404,-602.026 779.58,-567.957 748.5,-512 712.893,-447.892 718.305,-413.828 748.5,-347 786.381,-263.162 867.637,-196.148 933.731,-152.525"/>
<polygon fill="none" stroke="#404040" points="934.136,-152.262 936.989,-145.639 944.2,-145.725 941.347,-152.348 934.136,-152.262"/>
<text text-anchor="start" x="748.5" y="-487.5" font-family="Helvetica,sans-Serif" font-size="10.00"> +BountyFortSkellyProximity</text>
<text text-anchor="middle" x="816.5" y="-476.5" font-family="Helvetica,sans-Serif" font-size="10.00">Rtpc</text>
<text text-anchor="middle" x="816.5" y="-465.5" font-family="Helvetica,sans-Serif" font-size="10.00">+WorldRegionStateGroup</text>
<text text-anchor="middle" x="816.5" y="-454.5" font-family="Helvetica,sans-Serif" font-size="10.00">+FishOnLineStateGroup</text>
<text text-anchor="middle" x="816.5" y="-443.5" font-family="Helvetica,sans-Serif" font-size="10.00">+BountyQuestDistanceRtpc</text>
<text text-anchor="middle" x="816.5" y="-432.5" font-family="Helvetica,sans-Serif" font-size="10.00">+SharkAttackStateGroupName</text>
<text text-anchor="middle" x="816.5" y="-421.5" font-family="Helvetica,sans-Serif" font-size="10.00">+BountyQuestProgressFactor</text>
<text text-anchor="middle" x="816.5" y="-410.5" font-family="Helvetica,sans-Serif" font-size="10.00">+IslandRevealStateInitial</text>
<text text-anchor="middle" x="816.5" y="-399.5" font-family="Helvetica,sans-Serif" font-size="10.00">+PlayerHeightRtpc</text>
<text text-anchor="middle" x="816.5" y="-388.5" font-family="Helvetica,sans-Serif" font-size="10.00">+PuzzleVaultWaterFillRtpc</text>
<text text-anchor="middle" x="816.5" y="-377.5" font-family="Helvetica,sans-Serif" font-size="10.00">+SkeletonAmountRtpc</text>
<text text-anchor="middle" x="816.5" y="-366.5" font-family="Helvetica,sans-Serif" font-size="10.00">...</text>
</g>
<!-- Node4&#45;&gt;Node29 -->
<g id="edge15" class="edge"><title>Node4&#45;&gt;Node29</title>
<path fill="none" stroke="#404040" d="M1001.94,-615.143C1054.58,-592.965 1136.23,-555.465 1200.5,-512 1219.89,-498.89 1239.47,-481.94 1255.47,-466.896"/>
<polygon fill="none" stroke="#404040" points="1255.78,-466.598 1257.35,-459.56 1264.45,-458.302 1262.88,-465.34 1255.78,-466.598"/>
<text text-anchor="middle" x="1196" y="-544" font-family="Helvetica,sans-Serif" font-size="10.00"> +PoolName</text>
</g>
<!-- Node23 -->
<g id="node8" class="node"><title>Node23</title>
<g id="a_node8"><a xlink:href="a25823.html" target="_top" xlink:title=" ">
<polygon fill="none" stroke="black" points="893.5,-373.5 893.5,-485.5 1015.5,-485.5 1015.5,-373.5 893.5,-373.5"/>
<text text-anchor="start" x="901.5" y="-473.5" font-family="Helvetica,sans-Serif" font-size="10.00">SDK::TArray&lt; class</text>
<text text-anchor="middle" x="954.5" y="-462.5" font-family="Helvetica,sans-Serif" font-size="10.00"> SDK::UWwiseEvent * &gt;</text>
<polyline fill="none" stroke="black" points="893.5,-455.5 1015.5,-455.5 "/>
<text text-anchor="middle" x="954.5" y="-443.5" font-family="Helvetica,sans-Serif" font-size="10.00"> </text>
<polyline fill="none" stroke="black" points="893.5,-436.5 1015.5,-436.5 "/>
<text text-anchor="start" x="901.5" y="-424.5" font-family="Helvetica,sans-Serif" font-size="10.00">+ TArray()</text>
<text text-anchor="start" x="901.5" y="-413.5" font-family="Helvetica,sans-Serif" font-size="10.00">+ Num()</text>
<text text-anchor="start" x="901.5" y="-402.5" font-family="Helvetica,sans-Serif" font-size="10.00">+ operator[]()</text>
<text text-anchor="start" x="901.5" y="-391.5" font-family="Helvetica,sans-Serif" font-size="10.00">+ operator[]()</text>
<text text-anchor="start" x="901.5" y="-380.5" font-family="Helvetica,sans-Serif" font-size="10.00">+ IsValidIndex()</text>
</a>
</g>
</g>
<!-- Node23&#45;&gt;Node1 -->
<g id="edge7" class="edge"><title>Node23&#45;&gt;Node1</title>
<path fill="none" stroke="#404040" d="M944.942,-373.148C939.266,-327.662 936.151,-262.136 953.5,-208 954.269,-205.6 955.111,-203.208 956.017,-200.826"/>
<polygon fill="none" stroke="#404040" points="956.019,-200.822 954.682,-193.736 960.708,-189.776 962.046,-196.862 956.019,-200.822"/>
<text text-anchor="middle" x="1023" y="-271.5" font-family="Helvetica,sans-Serif" font-size="10.00"> +KrakenTentacleTakeHitEvents</text>
<text text-anchor="middle" x="1023" y="-260.5" font-family="Helvetica,sans-Serif" font-size="10.00">+KrakenTentacleKilledEvents</text>
</g>
<!-- Node24 -->
<g id="node9" class="node"><title>Node24</title>
<g id="a_node9"><a xlink:href="a25847.html" target="_top" xlink:title=" ">
<polygon fill="none" stroke="black" points="1033.5,-368 1033.5,-491 1191.5,-491 1191.5,-368 1033.5,-368"/>
<text text-anchor="start" x="1041.5" y="-479" font-family="Helvetica,sans-Serif" font-size="10.00">SDK::TEnumAsByte&lt; ECollision</text>
<text text-anchor="middle" x="1112.5" y="-468" font-family="Helvetica,sans-Serif" font-size="10.00">Channel &gt;</text>
<polyline fill="none" stroke="black" points="1033.5,-461 1191.5,-461 "/>
<text text-anchor="middle" x="1112.5" y="-449" font-family="Helvetica,sans-Serif" font-size="10.00"> </text>
<polyline fill="none" stroke="black" points="1033.5,-442 1191.5,-442 "/>
<text text-anchor="start" x="1041.5" y="-430" font-family="Helvetica,sans-Serif" font-size="10.00">+ TEnumAsByte()</text>
<text text-anchor="start" x="1041.5" y="-419" font-family="Helvetica,sans-Serif" font-size="10.00">+ TEnumAsByte()</text>
<text text-anchor="start" x="1041.5" y="-408" font-family="Helvetica,sans-Serif" font-size="10.00">+ TEnumAsByte()</text>
<text text-anchor="start" x="1041.5" y="-397" font-family="Helvetica,sans-Serif" font-size="10.00">+ TEnumAsByte()</text>
<text text-anchor="start" x="1041.5" y="-386" font-family="Helvetica,sans-Serif" font-size="10.00">+ operator ECollisionChannel()</text>
<text text-anchor="start" x="1041.5" y="-375" font-family="Helvetica,sans-Serif" font-size="10.00">+ GetValue()</text>
</a>
</g>
</g>
<!-- Node24&#45;&gt;Node1 -->
<g id="edge10" class="edge"><title>Node24&#45;&gt;Node1</title>
<path fill="none" stroke="#404040" d="M1113.36,-367.877C1112.48,-322.896 1108.04,-260.524 1092.5,-208 1091.82,-205.708 1091.1,-203.409 1090.32,-201.107"/>
<polygon fill="none" stroke="#404040" points="1090.24,-200.874 1084.43,-196.604 1086.14,-189.598 1091.95,-193.868 1090.24,-200.874"/>
<text text-anchor="middle" x="1147" y="-266" font-family="Helvetica,sans-Serif" font-size="10.00"> +TraceChannel</text>
</g>
<!-- Node25 -->
<g id="node10" class="node"><title>Node25</title>
<g id="a_node10"><a xlink:title=" ">
<polygon fill="none" stroke="#bfbfbf" points="1551,-609 1551,-666 1580,-666 1580,-609 1551,-609"/>
<text text-anchor="middle" x="1565.5" y="-654" font-family="Helvetica,sans-Serif" font-size="10.00">int</text>
<polyline fill="none" stroke="#bfbfbf" points="1551,-647 1580,-647 "/>
<text text-anchor="middle" x="1565.5" y="-635" font-family="Helvetica,sans-Serif" font-size="10.00"> </text>
<polyline fill="none" stroke="#bfbfbf" points="1551,-628 1580,-628 "/>
<text text-anchor="middle" x="1565.5" y="-616" font-family="Helvetica,sans-Serif" font-size="10.00"> </text>
</a>
</g>
</g>
<!-- Node25&#45;&gt;Node1 -->
<g id="edge11" class="edge"><title>Node25&#45;&gt;Node1</title>
<path fill="none" stroke="#404040" d="M1580.1,-624.121C1603.19,-603.553 1647.45,-559.837 1666.5,-512 1691.52,-449.171 1724.05,-259.737 1680.5,-208 1611.92,-126.533 1298.86,-104.323 1134.67,-98.2687"/>
<polygon fill="none" stroke="#404040" points="1134.63,-98.2671 1128.49,-102.053 1122.63,-97.8438 1128.77,-94.058 1134.63,-98.2671"/>
<text text-anchor="middle" x="1763.5" y="-438" font-family="Helvetica,sans-Serif" font-size="10.00"> +MinSkellies</text>
<text text-anchor="middle" x="1763.5" y="-427" font-family="Helvetica,sans-Serif" font-size="10.00">+SpottedStingCooldownTime</text>
<text text-anchor="middle" x="1763.5" y="-416" font-family="Helvetica,sans-Serif" font-size="10.00">+MaxSkellies</text>
</g>
<!-- Node25&#45;&gt;Node29 -->
<g id="edge17" class="edge"><title>Node25&#45;&gt;Node29</title>
<path fill="none" stroke="#404040" d="M1550.8,-627.443C1519.12,-607.72 1442.42,-558.882 1382.5,-512 1364.49,-497.908 1345.5,-481.226 1329.56,-466.638"/>
<polygon fill="none" stroke="#404040" points="1329.37,-466.465 1322.25,-465.335 1320.56,-458.326 1327.68,-459.456 1329.37,-466.465"/>
<text text-anchor="middle" x="1489" y="-549.5" font-family="Helvetica,sans-Serif" font-size="10.00"> +MaxResources</text>
<text text-anchor="middle" x="1489" y="-538.5" font-family="Helvetica,sans-Serif" font-size="10.00">+MaxProxies</text>
</g>
<!-- Node26 -->
<g id="node11" class="node"><title>Node26</title>
<g id="a_node11"><a xlink:href="a15175.html" target="_top" xlink:title=" ">
<polygon fill="none" stroke="red" points="1392,-401 1392,-458 1535,-458 1535,-401 1392,-401"/>
<text text-anchor="middle" x="1463.5" y="-446" font-family="Helvetica,sans-Serif" font-size="10.00">SDK::FTinySharkMusicEvent</text>
<polyline fill="none" stroke="red" points="1392,-439 1535,-439 "/>
<text text-anchor="middle" x="1463.5" y="-427" font-family="Helvetica,sans-Serif" font-size="10.00"> </text>
<polyline fill="none" stroke="red" points="1392,-420 1535,-420 "/>
<text text-anchor="middle" x="1463.5" y="-408" font-family="Helvetica,sans-Serif" font-size="10.00"> </text>
</a>
</g>
</g>
<!-- Node26&#45;&gt;Node1 -->
<g id="edge12" class="edge"><title>Node26&#45;&gt;Node1</title>
<path fill="none" stroke="#404040" d="M1447.06,-400.845C1435.82,-381.232 1421.11,-354.051 1410.5,-329 1388.46,-276.972 1411.29,-248.116 1371.5,-208 1308.82,-144.805 1209.72,-117.267 1135.01,-105.267"/>
<polygon fill="none" stroke="#404040" points="1134.63,-105.209 1128.09,-108.261 1122.76,-103.404 1129.3,-100.352 1134.63,-105.209"/>
<text text-anchor="middle" x="1474.5" y="-266" font-family="Helvetica,sans-Serif" font-size="10.00"> +TinySharkExperienceMusic</text>
</g>
<!-- Node28 -->
<g id="node12" class="node"><title>Node28</title>
<g id="a_node12"><a xlink:href="a25823.html" target="_top" xlink:title=" ">
<polygon fill="none" stroke="black" points="1553,-373.5 1553,-485.5 1658,-485.5 1658,-373.5 1553,-373.5"/>
<text text-anchor="start" x="1561" y="-473.5" font-family="Helvetica,sans-Serif" font-size="10.00">SDK::TArray&lt; struct</text>
<text text-anchor="middle" x="1605.5" y="-462.5" font-family="Helvetica,sans-Serif" font-size="10.00"> SDK::FName &gt;</text>
<polyline fill="none" stroke="black" points="1553,-455.5 1658,-455.5 "/>
<text text-anchor="middle" x="1605.5" y="-443.5" font-family="Helvetica,sans-Serif" font-size="10.00"> </text>
<polyline fill="none" stroke="black" points="1553,-436.5 1658,-436.5 "/>
<text text-anchor="start" x="1561" y="-424.5" font-family="Helvetica,sans-Serif" font-size="10.00">+ TArray()</text>
<text text-anchor="start" x="1561" y="-413.5" font-family="Helvetica,sans-Serif" font-size="10.00">+ Num()</text>
<text text-anchor="start" x="1561" y="-402.5" font-family="Helvetica,sans-Serif" font-size="10.00">+ operator[]()</text>
<text text-anchor="start" x="1561" y="-391.5" font-family="Helvetica,sans-Serif" font-size="10.00">+ operator[]()</text>
<text text-anchor="start" x="1561" y="-380.5" font-family="Helvetica,sans-Serif" font-size="10.00">+ IsValidIndex()</text>
</a>
</g>
</g>
<!-- Node28&#45;&gt;Node1 -->
<g id="edge13" class="edge"><title>Node28&#45;&gt;Node1</title>
<path fill="none" stroke="#404040" d="M1578.42,-373.318C1572.2,-359.12 1566.08,-343.697 1561.5,-329 1545.21,-276.738 1576.61,-247.292 1538.5,-208 1483.51,-151.313 1265.71,-119.652 1134.76,-105.386"/>
<polygon fill="none" stroke="#404040" points="1134.69,-105.379 1128.3,-108.717 1122.76,-104.101 1129.15,-100.763 1134.69,-105.379"/>
<text text-anchor="middle" x="1621" y="-271.5" font-family="Helvetica,sans-Serif" font-size="10.00"> +WorldRegionStateNames</text>
<text text-anchor="middle" x="1621" y="-260.5" font-family="Helvetica,sans-Serif" font-size="10.00">+CompanyRegionNames</text>
</g>
<!-- Node29&#45;&gt;Node1 -->
<g id="edge14" class="edge"><title>Node29&#45;&gt;Node1</title>
<path fill="none" stroke="#404040" d="M1283.13,-400.988C1268.67,-356.714 1235.64,-268.506 1185.5,-208 1170.29,-189.647 1151.46,-172.683 1132.29,-157.801"/>
<polygon fill="none" stroke="#404040" points="1132.13,-157.68 1124.93,-157.25 1122.56,-150.44 1129.76,-150.87 1132.13,-157.68"/>
<text text-anchor="middle" x="1311.5" y="-266" font-family="Helvetica,sans-Serif" font-size="10.00"> +SharkPoolForCollection</text>
</g>
<!-- Node31 -->
<g id="node14" class="node"><title>Node31</title>
<g id="a_node14"><a xlink:href="a25823.html" target="_top" xlink:title=" ">
<polygon fill="none" stroke="black" points="1838.5,-373.5 1838.5,-485.5 1942.5,-485.5 1942.5,-373.5 1838.5,-373.5"/>
<text text-anchor="start" x="1846.5" y="-473.5" font-family="Helvetica,sans-Serif" font-size="10.00">SDK::TArray&lt; class</text>
<text text-anchor="middle" x="1890.5" y="-462.5" font-family="Helvetica,sans-Serif" font-size="10.00"> SDK::UClass * &gt;</text>
<polyline fill="none" stroke="black" points="1838.5,-455.5 1942.5,-455.5 "/>
<text text-anchor="middle" x="1890.5" y="-443.5" font-family="Helvetica,sans-Serif" font-size="10.00"> </text>
<polyline fill="none" stroke="black" points="1838.5,-436.5 1942.5,-436.5 "/>
<text text-anchor="start" x="1846.5" y="-424.5" font-family="Helvetica,sans-Serif" font-size="10.00">+ TArray()</text>
<text text-anchor="start" x="1846.5" y="-413.5" font-family="Helvetica,sans-Serif" font-size="10.00">+ Num()</text>
<text text-anchor="start" x="1846.5" y="-402.5" font-family="Helvetica,sans-Serif" font-size="10.00">+ operator[]()</text>
<text text-anchor="start" x="1846.5" y="-391.5" font-family="Helvetica,sans-Serif" font-size="10.00">+ operator[]()</text>
<text text-anchor="start" x="1846.5" y="-380.5" font-family="Helvetica,sans-Serif" font-size="10.00">+ IsValidIndex()</text>
</a>
</g>
</g>
<!-- Node31&#45;&gt;Node1 -->
<g id="edge18" class="edge"><title>Node31&#45;&gt;Node1</title>
<path fill="none" stroke="#404040" d="M1860.83,-373.429C1829.94,-321.823 1776.56,-246.961 1708.5,-208 1612.39,-152.983 1298.19,-118.694 1134.59,-104.124"/>
<polygon fill="none" stroke="#404040" points="1134.55,-104.121 1128.22,-107.579 1122.6,-103.068 1128.92,-99.6097 1134.55,-104.121"/>
<text text-anchor="middle" x="1893.5" y="-266" font-family="Helvetica,sans-Serif" font-size="10.00"> +TinySharkPursuitStrategies</text>
</g>
<!-- Node32 -->
<g id="node15" class="node"><title>Node32</title>
<g id="a_node15"><a xlink:href="a25847.html" target="_top" xlink:title=" ">
<polygon fill="none" stroke="black" points="1961,-368 1961,-491 2120,-491 2120,-368 1961,-368"/>
<text text-anchor="start" x="1969" y="-479" font-family="Helvetica,sans-Serif" font-size="10.00">SDK::TEnumAsByte&lt; EPhysical</text>
<text text-anchor="middle" x="2040.5" y="-468" font-family="Helvetica,sans-Serif" font-size="10.00">Surface &gt;</text>
<polyline fill="none" stroke="black" points="1961,-461 2120,-461 "/>
<text text-anchor="middle" x="2040.5" y="-449" font-family="Helvetica,sans-Serif" font-size="10.00"> </text>
<polyline fill="none" stroke="black" points="1961,-442 2120,-442 "/>
<text text-anchor="start" x="1969" y="-430" font-family="Helvetica,sans-Serif" font-size="10.00">+ TEnumAsByte()</text>
<text text-anchor="start" x="1969" y="-419" font-family="Helvetica,sans-Serif" font-size="10.00">+ TEnumAsByte()</text>
<text text-anchor="start" x="1969" y="-408" font-family="Helvetica,sans-Serif" font-size="10.00">+ TEnumAsByte()</text>
<text text-anchor="start" x="1969" y="-397" font-family="Helvetica,sans-Serif" font-size="10.00">+ TEnumAsByte()</text>
<text text-anchor="start" x="1969" y="-386" font-family="Helvetica,sans-Serif" font-size="10.00">+ operator EPhysicalSurface()</text>
<text text-anchor="start" x="1969" y="-375" font-family="Helvetica,sans-Serif" font-size="10.00">+ GetValue()</text>
</a>
</g>
</g>
<!-- Node32&#45;&gt;Node1 -->
<g id="edge19" class="edge"><title>Node32&#45;&gt;Node1</title>
<path fill="none" stroke="#404040" d="M2035.9,-367.981C2028.61,-317.056 2009.82,-246.549 1961.5,-208 1835.82,-107.724 1348.71,-95.5797 1134.98,-95.2115"/>
<polygon fill="none" stroke="#404040" points="1134.85,-95.2115 1128.85,-99.2071 1122.85,-95.2028 1128.85,-91.2071 1134.85,-95.2115"/>
<text text-anchor="middle" x="2087.5" y="-266" font-family="Helvetica,sans-Serif" font-size="10.00"> +PredominantCaveSurface</text>
</g>
</g>
</svg>
        <g id="navigator" transform="translate(0 0)" fill="#404254">
                <rect fill="#f2f5e9" fill-opacity="0.5" stroke="#606060" stroke-width=".5" x="0" y="0" width="60" height="60"/>
                <use id="zoomplus" xlink:href="#zoomPlus" x="17" y="9" onmousedown="handleZoom(evt,'in')"/>
                <use id="zoomminus" xlink:href="#zoomMin" x="42" y="9" onmousedown="handleZoom(evt,'out')"/>
                <use id="reset" xlink:href="#resetDef" x="30" y="36" onmousedown="handleReset()"/>
                <g id="arrowUp" xlink:href="#dirArrow" transform="translate(30 24)" onmousedown="handlePan(0,-1)">
                  <use xlink:href="#rim" fill="#404040">
                        <set attributeName="fill" to="#808080" begin="arrowUp.mouseover" end="arrowUp.mouseout"/>
                  </use>
                  <path fill="none" stroke="white" stroke-width="1.5" d="M0,-3.0v7 M-2.5,-0.5L0,-3.0L2.5,-0.5"/>
                </g>
                <g id="arrowRight" xlink:href="#dirArrow" transform="rotate(90) translate(36 -43)" onmousedown="handlePan(1,0)">
                  <use xlink:href="#rim" fill="#404040">
                        <set attributeName="fill" to="#808080" begin="arrowRight.mouseover" end="arrowRight.mouseout"/>
                  </use>
                  <path fill="none" stroke="white" stroke-width="1.5" d="M0,-3.0v7 M-2.5,-0.5L0,-3.0L2.5,-0.5"/>
                </g>
                <g id="arrowDown" xlink:href="#dirArrow" transform="rotate(180) translate(-30 -48)" onmousedown="handlePan(0,1)">
                  <use xlink:href="#rim" fill="#404040">
                        <set attributeName="fill" to="#808080" begin="arrowDown.mouseover" end="arrowDown.mouseout"/>
                  </use>
                  <path fill="none" stroke="white" stroke-width="1.5" d="M0,-3.0v7 M-2.5,-0.5L0,-3.0L2.5,-0.5"/>
                </g>
                <g id="arrowLeft" xlink:href="#dirArrow" transform="rotate(270) translate(-36 17)" onmousedown="handlePan(-1,0)">
                  <use xlink:href="#rim" fill="#404040">
                        <set attributeName="fill" to="#808080" begin="arrowLeft.mouseover" end="arrowLeft.mouseout"/>
                  </use>
                  <path fill="none" stroke="white" stroke-width="1.5" d="M0,-3.0v7 M-2.5,-0.5L0,-3.0L2.5,-0.5"/>
                </g>
        </g>
        <svg viewBox="0 0 15 15" width="100%" height="30px" preserveAspectRatio="xMaxYMin meet">
         <g id="arrow_out" transform="scale(0.3 0.3)">
          <a xlink:href="a07253_org.svg" target="_base">
           <rect id="button" ry="5" rx="5" y="6" x="6" height="38" width="38"
                fill="#f2f5e9" fill-opacity="0.5" stroke="#606060" stroke-width="1.0"/>
           <path id="arrow"
             d="M 11.500037,31.436501 C 11.940474,20.09759 22.043105,11.32322 32.158766,21.979434 L 37.068811,17.246167 C 37.068811,17.246167 37.088388,32 37.088388,32 L 22.160133,31.978069 C 22.160133,31.978069 26.997745,27.140456 26.997745,27.140456 C 18.528582,18.264221 13.291696,25.230495 11.500037,31.436501 z"
             style="fill:#404040;"/>
          </a>
         </g>
        </svg>
</svg>
