<?xml version="1.0" encoding="UTF-8" standalone="no"?>
<!DOCTYPE svg PUBLIC "-//W3C//DTD SVG 1.1//EN"
 "http://www.w3.org/Graphics/SVG/1.1/DTD/svg11.dtd">
<!-- Generated by graphviz version 2.38.0 (20140413.2041)
 -->
<!-- Title: SDK::UPlayNpcAnimationStep Pages: 1 -->
<svg width="764pt" height="408pt"
 viewBox="0.00 0.00 763.52 408.00" xmlns="http://www.w3.org/2000/svg" xmlns:xlink="http://www.w3.org/1999/xlink">
<g id="graph0" class="graph" transform="scale(1 1) rotate(0) translate(4 404)">
<title>SDK::UPlayNpcAnimationStep</title>
<!-- Node1 -->
<g id="node1" class="node"><title>Node1</title>
<g id="a_node1"><a xlink:title=" ">
<polygon fill="#bfbfbf" stroke="black" points="249.521,-0.5 249.521,-57.5 399.521,-57.5 399.521,-0.5 249.521,-0.5"/>
<text text-anchor="middle" x="324.521" y="-45.5" font-family="Helvetica,sans-Serif" font-size="10.00">SDK::UPlayNpcAnimationStep</text>
<polyline fill="none" stroke="black" points="249.521,-38.5 399.521,-38.5 "/>
<text text-anchor="middle" x="324.521" y="-26.5" font-family="Helvetica,sans-Serif" font-size="10.00"> </text>
<polyline fill="none" stroke="black" points="249.521,-19.5 399.521,-19.5 "/>
<text text-anchor="start" x="257.521" y="-7.5" font-family="Helvetica,sans-Serif" font-size="10.00">+ StaticClass()</text>
</a>
</g>
</g>
<!-- Node2 -->
<g id="node2" class="node"><title>Node2</title>
<g id="a_node2"><a xlink:href="a35135.html" target="_top" xlink:title=" ">
<polygon fill="none" stroke="red" points="117.521,-149.5 117.521,-206.5 231.521,-206.5 231.521,-149.5 117.521,-149.5"/>
<text text-anchor="middle" x="174.521" y="-194.5" font-family="Helvetica,sans-Serif" font-size="10.00">SDK::UTaleQuestStep</text>
<polyline fill="none" stroke="red" points="117.521,-187.5 231.521,-187.5 "/>
<text text-anchor="middle" x="174.521" y="-175.5" font-family="Helvetica,sans-Serif" font-size="10.00"> </text>
<polyline fill="none" stroke="red" points="117.521,-168.5 231.521,-168.5 "/>
<text text-anchor="start" x="125.521" y="-156.5" font-family="Helvetica,sans-Serif" font-size="10.00">+ StaticClass()</text>
</a>
</g>
</g>
<!-- Node2&#45;&gt;Node1 -->
<g id="edge1" class="edge"><title>Node2&#45;&gt;Node1</title>
<path fill="none" stroke="midnightblue" d="M205.522,-141.775C216.347,-129.857 228.74,-116.628 240.521,-105 256.94,-88.7946 276.07,-71.5938 291.923,-57.7583"/>
<polygon fill="none" stroke="midnightblue" points="202.754,-139.618 198.656,-149.388 207.953,-144.306 202.754,-139.618"/>
</g>
<!-- Node12 -->
<g id="node3" class="node"><title>Node12</title>
<g id="a_node3"><a xlink:title=" ">
<polygon fill="none" stroke="#bfbfbf" points="307.021,-342.5 307.021,-399.5 342.021,-399.5 342.021,-342.5 307.021,-342.5"/>
<text text-anchor="middle" x="324.521" y="-387.5" font-family="Helvetica,sans-Serif" font-size="10.00">char</text>
<polyline fill="none" stroke="#bfbfbf" points="307.021,-380.5 342.021,-380.5 "/>
<text text-anchor="middle" x="324.521" y="-368.5" font-family="Helvetica,sans-Serif" font-size="10.00"> </text>
<polyline fill="none" stroke="#bfbfbf" points="307.021,-361.5 342.021,-361.5 "/>
<text text-anchor="middle" x="324.521" y="-349.5" font-family="Helvetica,sans-Serif" font-size="10.00"> </text>
</a>
</g>
</g>
<!-- Node12&#45;&gt;Node1 -->
<g id="edge5" class="edge"><title>Node12&#45;&gt;Node1</title>
<path fill="none" stroke="#404040" d="M306.669,-369.311C253.073,-366.161 93.2799,-348.614 28.521,-251 -7.35117,-196.928 -11.3311,-156.209 28.521,-105 54.0562,-72.1878 159.428,-51.4278 237.213,-40.2695"/>
<polygon fill="none" stroke="#404040" points="237.56,-40.2212 242.948,-35.4294 249.444,-38.5607 244.055,-43.3525 237.56,-40.2212"/>
<text text-anchor="middle" x="68.521" y="-181" font-family="Helvetica,sans-Serif" font-size="10.00"> +UnknownData01</text>
<text text-anchor="middle" x="68.521" y="-170" font-family="Helvetica,sans-Serif" font-size="10.00">+UnknownData00</text>
</g>
<!-- Node12&#45;&gt;Node2 -->
<g id="edge2" class="edge"><title>Node12&#45;&gt;Node2</title>
<path fill="none" stroke="#404040" d="M306.962,-364.189C288.332,-357.239 259.077,-343.98 240.521,-324 212.605,-293.942 194.883,-250.044 184.913,-218.431"/>
<polygon fill="none" stroke="#404040" points="184.797,-218.045 179.241,-213.449 181.346,-206.552 186.903,-211.149 184.797,-218.045"/>
<text text-anchor="middle" x="280.521" y="-294" font-family="Helvetica,sans-Serif" font-size="10.00"> +UnknownData00</text>
</g>
<!-- Node14 -->
<g id="node4" class="node"><title>Node14</title>
<g id="a_node4"><a xlink:href="a04499.html" target="_top" xlink:title=" ">
<polygon fill="none" stroke="red" points="249.521,-127.5 249.521,-228.5 399.521,-228.5 399.521,-127.5 249.521,-127.5"/>
<text text-anchor="middle" x="324.521" y="-216.5" font-family="Helvetica,sans-Serif" font-size="10.00">SDK::ACutSceneActor</text>
<polyline fill="none" stroke="red" points="249.521,-209.5 399.521,-209.5 "/>
<text text-anchor="middle" x="324.521" y="-197.5" font-family="Helvetica,sans-Serif" font-size="10.00"> </text>
<polyline fill="none" stroke="red" points="249.521,-190.5 399.521,-190.5 "/>
<text text-anchor="start" x="257.521" y="-178.5" font-family="Helvetica,sans-Serif" font-size="10.00">+ StartLocalAnimation()</text>
<text text-anchor="start" x="257.521" y="-167.5" font-family="Helvetica,sans-Serif" font-size="10.00">+ SetDialogueData()</text>
<text text-anchor="start" x="257.521" y="-156.5" font-family="Helvetica,sans-Serif" font-size="10.00">+ OnRep_TargetActor()</text>
<text text-anchor="start" x="257.521" y="-145.5" font-family="Helvetica,sans-Serif" font-size="10.00">+ OnRep_IsAnimationPlaying()</text>
<text text-anchor="start" x="257.521" y="-134.5" font-family="Helvetica,sans-Serif" font-size="10.00">+ StaticClass()</text>
</a>
</g>
</g>
<!-- Node12&#45;&gt;Node14 -->
<g id="edge4" class="edge"><title>Node12&#45;&gt;Node14</title>
<path fill="none" stroke="#404040" d="M324.521,-342.227C324.521,-315.781 324.521,-275.058 324.521,-240.905"/>
<polygon fill="none" stroke="#404040" points="324.521,-240.658 320.521,-234.658 324.521,-228.658 328.521,-234.658 324.521,-240.658"/>
<text text-anchor="middle" x="364.521" y="-299.5" font-family="Helvetica,sans-Serif" font-size="10.00"> +UnknownData01</text>
<text text-anchor="middle" x="364.521" y="-288.5" font-family="Helvetica,sans-Serif" font-size="10.00">+UnknownData00</text>
</g>
<!-- Node189 -->
<g id="node5" class="node"><title>Node189</title>
<g id="a_node5"><a xlink:href="a07331.html" target="_top" xlink:title=" ">
<polygon fill="none" stroke="red" points="418.021,-149.5 418.021,-206.5 591.021,-206.5 591.021,-149.5 418.021,-149.5"/>
<text text-anchor="middle" x="504.521" y="-194.5" font-family="Helvetica,sans-Serif" font-size="10.00">SDK::UPlayNpcAnimationStepDesc</text>
<polyline fill="none" stroke="red" points="418.021,-187.5 591.021,-187.5 "/>
<text text-anchor="middle" x="504.521" y="-175.5" font-family="Helvetica,sans-Serif" font-size="10.00"> </text>
<polyline fill="none" stroke="red" points="418.021,-168.5 591.021,-168.5 "/>
<text text-anchor="start" x="426.021" y="-156.5" font-family="Helvetica,sans-Serif" font-size="10.00">+ StaticClass()</text>
</a>
</g>
</g>
<!-- Node12&#45;&gt;Node189 -->
<g id="edge7" class="edge"><title>Node12&#45;&gt;Node189</title>
<path fill="none" stroke="#404040" d="M342.16,-363.323C360.322,-355.81 388.694,-342.232 408.521,-324 441.674,-293.515 468.788,-249.32 485.643,-217.746"/>
<polygon fill="none" stroke="#404040" points="485.836,-217.376 485.061,-210.206 491.381,-206.734 492.156,-213.903 485.836,-217.376"/>
<text text-anchor="middle" x="494.521" y="-294" font-family="Helvetica,sans-Serif" font-size="10.00"> +UnknownData00</text>
</g>
<!-- Node193 -->
<g id="node6" class="node"><title>Node193</title>
<g id="a_node6"><a xlink:href="a06731.html" target="_top" xlink:title=" ">
<polygon fill="none" stroke="red" points="609.521,-105.5 609.521,-250.5 755.521,-250.5 755.521,-105.5 609.521,-105.5"/>
<text text-anchor="middle" x="682.521" y="-238.5" font-family="Helvetica,sans-Serif" font-size="10.00">SDK::UNPCDialogComponent</text>
<polyline fill="none" stroke="red" points="609.521,-231.5 755.521,-231.5 "/>
<text text-anchor="middle" x="682.521" y="-219.5" font-family="Helvetica,sans-Serif" font-size="10.00"> </text>
<polyline fill="none" stroke="red" points="609.521,-212.5 755.521,-212.5 "/>
<text text-anchor="start" x="617.521" y="-200.5" font-family="Helvetica,sans-Serif" font-size="10.00">+ SetParameterFromString()</text>
<text text-anchor="start" x="617.521" y="-189.5" font-family="Helvetica,sans-Serif" font-size="10.00">+ SetIntegerParameter()</text>
<text text-anchor="start" x="617.521" y="-178.5" font-family="Helvetica,sans-Serif" font-size="10.00">+ SetBooleanParameter()</text>
<text text-anchor="start" x="617.521" y="-167.5" font-family="Helvetica,sans-Serif" font-size="10.00">+ OnRep_Disabled()</text>
<text text-anchor="start" x="617.521" y="-156.5" font-family="Helvetica,sans-Serif" font-size="10.00">+ OnRep_DialogBlackboard()</text>
<text text-anchor="start" x="617.521" y="-145.5" font-family="Helvetica,sans-Serif" font-size="10.00">+ GetParameterAsString()</text>
<text text-anchor="start" x="617.521" y="-134.5" font-family="Helvetica,sans-Serif" font-size="10.00">+ GetIntegerParameter()</text>
<text text-anchor="start" x="617.521" y="-123.5" font-family="Helvetica,sans-Serif" font-size="10.00">+ GetBooleanParameter()</text>
<text text-anchor="start" x="617.521" y="-112.5" font-family="Helvetica,sans-Serif" font-size="10.00">+ StaticClass()</text>
</a>
</g>
</g>
<!-- Node12&#45;&gt;Node193 -->
<g id="edge9" class="edge"><title>Node12&#45;&gt;Node193</title>
<path fill="none" stroke="#404040" d="M342.042,-369.557C380.125,-367.911 472.333,-360.184 538.521,-324 568.187,-307.782 595.721,-283.545 618.599,-259.507"/>
<polygon fill="none" stroke="#404040" points="618.641,-259.463 619.798,-252.345 626.813,-250.676 625.656,-257.793 618.641,-259.463"/>
<text text-anchor="middle" x="649.521" y="-316" font-family="Helvetica,sans-Serif" font-size="10.00"> +UnknownData01</text>
<text text-anchor="middle" x="649.521" y="-305" font-family="Helvetica,sans-Serif" font-size="10.00">+UnknownData02</text>
<text text-anchor="middle" x="649.521" y="-294" font-family="Helvetica,sans-Serif" font-size="10.00">+UnknownData03</text>
<text text-anchor="middle" x="649.521" y="-283" font-family="Helvetica,sans-Serif" font-size="10.00">+UnknownData04</text>
<text text-anchor="middle" x="649.521" y="-272" font-family="Helvetica,sans-Serif" font-size="10.00">+UnknownData00</text>
</g>
<!-- Node14&#45;&gt;Node1 -->
<g id="edge3" class="edge"><title>Node14&#45;&gt;Node1</title>
<path fill="none" stroke="#404040" d="M324.521,-127.233C324.521,-108.6 324.521,-87.6874 324.521,-70.0444"/>
<polygon fill="none" stroke="#404040" points="324.521,-69.8548 320.521,-63.8549 324.521,-57.8548 328.521,-63.8548 324.521,-69.8548"/>
<text text-anchor="middle" x="362.521" y="-79" font-family="Helvetica,sans-Serif" font-size="10.00"> +CutSceneActor</text>
</g>
<!-- Node189&#45;&gt;Node1 -->
<g id="edge6" class="edge"><title>Node189&#45;&gt;Node1</title>
<path fill="none" stroke="#404040" d="M480.81,-149.255C461.578,-127.737 433.067,-97.9771 404.521,-76 399.284,-71.9684 393.658,-68.0418 387.904,-64.2909"/>
<polygon fill="none" stroke="#404040" points="387.631,-64.1198 380.423,-64.3209 377.465,-57.7444 384.673,-57.5433 387.631,-64.1198"/>
<text text-anchor="middle" x="442.521" y="-79" font-family="Helvetica,sans-Serif" font-size="10.00"> +StepDesc</text>
</g>
<!-- Node193&#45;&gt;Node1 -->
<g id="edge8" class="edge"><title>Node193&#45;&gt;Node1</title>
<path fill="none" stroke="#404040" d="M609.046,-110.52C605.898,-108.557 602.718,-106.707 599.521,-105 540.752,-73.6233 467.745,-54.5063 411.726,-43.4319"/>
<polygon fill="none" stroke="#404040" points="411.467,-43.3823 404.821,-46.1808 399.682,-41.1224 406.328,-38.3239 411.467,-43.3823"/>
<text text-anchor="middle" x="610.521" y="-79" font-family="Helvetica,sans-Serif" font-size="10.00"> +NPCDialogComponent</text>
</g>
</g>
</svg>
