<?xml version="1.0" encoding="UTF-8" standalone="no"?>
<!DOCTYPE svg PUBLIC "-//W3C//DTD SVG 1.1//EN"
 "http://www.w3.org/Graphics/SVG/1.1/DTD/svg11.dtd">
<!-- Generated by graphviz version 2.38.0 (20140413.2041)
 -->
<!-- Title: SDK::UPlinthInteractableComponent Pages: 1 -->
<svg width="439pt" height="419pt"
 viewBox="0.00 0.00 439.04 419.00" xmlns="http://www.w3.org/2000/svg" xmlns:xlink="http://www.w3.org/1999/xlink">
<g id="graph0" class="graph" transform="scale(1 1) rotate(0) translate(4 415)">
<title>SDK::UPlinthInteractableComponent</title>
<!-- Node1 -->
<g id="node1" class="node"><title>Node1</title>
<g id="a_node1"><a xlink:title=" ">
<polygon fill="#bfbfbf" stroke="black" points="123.542,-0.5 123.542,-68.5 248.542,-68.5 248.542,-0.5 123.542,-0.5"/>
<text text-anchor="start" x="131.542" y="-56.5" font-family="Helvetica,sans-Serif" font-size="10.00">SDK::UPlinthInteractable</text>
<text text-anchor="middle" x="186.042" y="-45.5" font-family="Helvetica,sans-Serif" font-size="10.00">Component</text>
<polyline fill="none" stroke="black" points="123.542,-38.5 248.542,-38.5 "/>
<text text-anchor="middle" x="186.042" y="-26.5" font-family="Helvetica,sans-Serif" font-size="10.00"> </text>
<polyline fill="none" stroke="black" points="123.542,-19.5 248.542,-19.5 "/>
<text text-anchor="start" x="131.542" y="-7.5" font-family="Helvetica,sans-Serif" font-size="10.00">+ StaticClass()</text>
</a>
</g>
</g>
<!-- Node2 -->
<g id="node2" class="node"><title>Node2</title>
<g id="a_node2"><a xlink:href="a32639.html" target="_top" xlink:title=" ">
<polygon fill="none" stroke="red" points="111.542,-116.5 111.542,-250.5 260.542,-250.5 260.542,-116.5 111.542,-116.5"/>
<text text-anchor="middle" x="186.042" y="-238.5" font-family="Helvetica,sans-Serif" font-size="10.00">SDK::UInteractableComponent</text>
<polyline fill="none" stroke="red" points="111.542,-231.5 260.542,-231.5 "/>
<text text-anchor="middle" x="186.042" y="-219.5" font-family="Helvetica,sans-Serif" font-size="10.00"> </text>
<polyline fill="none" stroke="red" points="111.542,-212.5 260.542,-212.5 "/>
<text text-anchor="start" x="119.542" y="-200.5" font-family="Helvetica,sans-Serif" font-size="10.00">+ SetBoxOrigin()</text>
<text text-anchor="start" x="119.542" y="-189.5" font-family="Helvetica,sans-Serif" font-size="10.00">+ SetBoxExtent()</text>
<text text-anchor="start" x="119.542" y="-178.5" font-family="Helvetica,sans-Serif" font-size="10.00">+ GetInteractableArea()</text>
<text text-anchor="start" x="119.542" y="-167.5" font-family="Helvetica,sans-Serif" font-size="10.00">+ GetBoxWorldOrigin()</text>
<text text-anchor="start" x="119.542" y="-156.5" font-family="Helvetica,sans-Serif" font-size="10.00">+ GetBoxSphereRadius()</text>
<text text-anchor="start" x="119.542" y="-145.5" font-family="Helvetica,sans-Serif" font-size="10.00">+ GetBoxOrigin()</text>
<text text-anchor="start" x="119.542" y="-134.5" font-family="Helvetica,sans-Serif" font-size="10.00">+ GetBoxExtent()</text>
<text text-anchor="start" x="119.542" y="-123.5" font-family="Helvetica,sans-Serif" font-size="10.00">+ StaticClass()</text>
</a>
</g>
</g>
<!-- Node2&#45;&gt;Node1 -->
<g id="edge1" class="edge"><title>Node2&#45;&gt;Node1</title>
<path fill="none" stroke="midnightblue" d="M186.042,-106.247C186.042,-93.0799 186.042,-80.031 186.042,-68.7934"/>
<polygon fill="none" stroke="midnightblue" points="182.543,-106.31 186.042,-116.311 189.543,-106.311 182.543,-106.31"/>
</g>
<!-- Node13 -->
<g id="node3" class="node"><title>Node13</title>
<g id="a_node3"><a xlink:title=" ">
<polygon fill="none" stroke="#bfbfbf" points="168.542,-353.5 168.542,-410.5 203.542,-410.5 203.542,-353.5 168.542,-353.5"/>
<text text-anchor="middle" x="186.042" y="-398.5" font-family="Helvetica,sans-Serif" font-size="10.00">char</text>
<polyline fill="none" stroke="#bfbfbf" points="168.542,-391.5 203.542,-391.5 "/>
<text text-anchor="middle" x="186.042" y="-379.5" font-family="Helvetica,sans-Serif" font-size="10.00"> </text>
<polyline fill="none" stroke="#bfbfbf" points="168.542,-372.5 203.542,-372.5 "/>
<text text-anchor="middle" x="186.042" y="-360.5" font-family="Helvetica,sans-Serif" font-size="10.00"> </text>
</a>
</g>
</g>
<!-- Node13&#45;&gt;Node1 -->
<g id="edge3" class="edge"><title>Node13&#45;&gt;Node1</title>
<path fill="none" stroke="#404040" d="M168.346,-373.49C132.704,-357.257 53.0341,-315.114 22.0424,-251 -4.06989,-196.98 -9.68862,-166.923 22.0424,-116 41.8486,-84.2146 78.274,-64.6248 111.774,-52.7426"/>
<polygon fill="none" stroke="#404040" points="112.082,-52.6401 116.514,-46.9512 123.469,-48.8537 119.038,-54.5426 112.082,-52.6401"/>
<text text-anchor="middle" x="62.0424" y="-181" font-family="Helvetica,sans-Serif" font-size="10.00"> +UnknownData00</text>
</g>
<!-- Node13&#45;&gt;Node2 -->
<g id="edge2" class="edge"><title>Node13&#45;&gt;Node2</title>
<path fill="none" stroke="#404040" d="M186.042,-353.263C186.042,-329.717 186.042,-294.752 186.042,-262.745"/>
<polygon fill="none" stroke="#404040" points="186.043,-262.653 182.042,-256.653 186.042,-250.653 190.042,-256.653 186.043,-262.653"/>
<text text-anchor="middle" x="243.542" y="-327" font-family="Helvetica,sans-Serif" font-size="10.00"> +UnknownData01</text>
<text text-anchor="middle" x="243.542" y="-316" font-family="Helvetica,sans-Serif" font-size="10.00">+UnknownData02</text>
<text text-anchor="middle" x="243.542" y="-305" font-family="Helvetica,sans-Serif" font-size="10.00">+UnknownData03</text>
<text text-anchor="middle" x="243.542" y="-294" font-family="Helvetica,sans-Serif" font-size="10.00">+ProxyForActorInteraction</text>
<text text-anchor="middle" x="243.542" y="-283" font-family="Helvetica,sans-Serif" font-size="10.00">+MayBeGrouped</text>
<text text-anchor="middle" x="243.542" y="-272" font-family="Helvetica,sans-Serif" font-size="10.00">+UnknownData00</text>
</g>
<!-- Node181 -->
<g id="node4" class="node"><title>Node181</title>
<g id="a_node4"><a xlink:href="a10095.html" target="_top" xlink:title=" ">
<polygon fill="none" stroke="red" points="279.042,-155 279.042,-212 431.042,-212 431.042,-155 279.042,-155"/>
<text text-anchor="middle" x="355.042" y="-200" font-family="Helvetica,sans-Serif" font-size="10.00">SDK::UActionRulesComponent</text>
<polyline fill="none" stroke="red" points="279.042,-193 431.042,-193 "/>
<text text-anchor="middle" x="355.042" y="-181" font-family="Helvetica,sans-Serif" font-size="10.00"> </text>
<polyline fill="none" stroke="red" points="279.042,-174 431.042,-174 "/>
<text text-anchor="start" x="287.042" y="-162" font-family="Helvetica,sans-Serif" font-size="10.00">+ StaticClass()</text>
</a>
</g>
</g>
<!-- Node13&#45;&gt;Node181 -->
<g id="edge5" class="edge"><title>Node13&#45;&gt;Node181</title>
<path fill="none" stroke="#404040" d="M203.578,-378.942C229.349,-375 277.384,-364.022 305.042,-335 333.76,-304.867 345.996,-257.835 351.203,-224.374"/>
<polygon fill="none" stroke="#404040" points="351.232,-224.165 348.09,-217.674 352.874,-212.277 356.015,-218.768 351.232,-224.165"/>
<text text-anchor="middle" x="381.042" y="-305" font-family="Helvetica,sans-Serif" font-size="10.00"> +UnknownData01</text>
<text text-anchor="middle" x="381.042" y="-294" font-family="Helvetica,sans-Serif" font-size="10.00">+UnknownData00</text>
</g>
<!-- Node181&#45;&gt;Node1 -->
<g id="edge4" class="edge"><title>Node181&#45;&gt;Node1</title>
<path fill="none" stroke="#404040" d="M323.255,-154.85C297.999,-132.882 262.283,-101.815 233.621,-76.8848"/>
<polygon fill="none" stroke="#404040" points="233.251,-76.5628 226.098,-75.6431 224.197,-68.6873 231.349,-69.607 233.251,-76.5628"/>
<text text-anchor="middle" x="312.042" y="-90" font-family="Helvetica,sans-Serif" font-size="10.00"> +ActionRulesComponent</text>
</g>
</g>
</svg>
