<?xml version="1.0" encoding="UTF-8" standalone="no"?>
<!DOCTYPE svg PUBLIC "-//W3C//DTD SVG 1.1//EN"
 "http://www.w3.org/Graphics/SVG/1.1/DTD/svg11.dtd">
<!-- Generated by graphviz version 2.38.0 (20140413.2041)
 -->
<!-- Title: SDK::APoseableMeshWieldableItem Pages: 1 -->
<svg width="184pt" height="518pt"
 viewBox="0.00 0.00 184.00 518.00" xmlns="http://www.w3.org/2000/svg" xmlns:xlink="http://www.w3.org/1999/xlink">
<g id="graph0" class="graph" transform="scale(1 1) rotate(0) translate(4 514)">
<title>SDK::APoseableMeshWieldableItem</title>
<!-- Node1 -->
<g id="node1" class="node"><title>Node1</title>
<g id="a_node1"><a xlink:title=" ">
<polygon fill="#bfbfbf" stroke="black" points="0,-127.5 0,-184.5 176,-184.5 176,-127.5 0,-127.5"/>
<text text-anchor="middle" x="88" y="-172.5" font-family="Helvetica,sans-Serif" font-size="10.00">SDK::APoseableMeshWieldableItem</text>
<polyline fill="none" stroke="black" points="0,-165.5 176,-165.5 "/>
<text text-anchor="middle" x="88" y="-153.5" font-family="Helvetica,sans-Serif" font-size="10.00"> </text>
<polyline fill="none" stroke="black" points="0,-146.5 176,-146.5 "/>
<text text-anchor="start" x="8" y="-134.5" font-family="Helvetica,sans-Serif" font-size="10.00">+ StaticClass()</text>
</a>
</g>
</g>
<!-- Node5 -->
<g id="node3" class="node"><title>Node5</title>
<g id="a_node3"><a xlink:href="a07407.html" target="_top" xlink:title=" ">
<polygon fill="none" stroke="red" points="14,-0.5 14,-90.5 162,-90.5 162,-0.5 14,-0.5"/>
<text text-anchor="middle" x="88" y="-78.5" font-family="Helvetica,sans-Serif" font-size="10.00">SDK::ACompass</text>
<polyline fill="none" stroke="red" points="14,-71.5 162,-71.5 "/>
<text text-anchor="start" x="22" y="-59.5" font-family="Helvetica,sans-Serif" font-size="10.00">+ UsableWieldableComponent</text>
<text text-anchor="start" x="22" y="-48.5" font-family="Helvetica,sans-Serif" font-size="10.00">+ SpinComponent</text>
<text text-anchor="start" x="22" y="-37.5" font-family="Helvetica,sans-Serif" font-size="10.00">+ MeshToUse</text>
<text text-anchor="start" x="22" y="-26.5" font-family="Helvetica,sans-Serif" font-size="10.00">+ UnknownData00</text>
<polyline fill="none" stroke="red" points="14,-19.5 162,-19.5 "/>
<text text-anchor="start" x="22" y="-7.5" font-family="Helvetica,sans-Serif" font-size="10.00">+ StaticClass()</text>
</a>
</g>
</g>
<!-- Node1&#45;&gt;Node5 -->
<g id="edge2" class="edge"><title>Node1&#45;&gt;Node5</title>
<path fill="none" stroke="midnightblue" d="M88,-117.214C88,-108.609 88,-99.3943 88,-90.5541"/>
<polygon fill="none" stroke="midnightblue" points="84.5001,-117.34 88,-127.34 91.5001,-117.34 84.5001,-117.34"/>
</g>
<!-- Node2 -->
<g id="node2" class="node"><title>Node2</title>
<g id="a_node2"><a xlink:href="a00607.html" target="_top" xlink:title=" ">
<polygon fill="none" stroke="red" points="3,-221.5 3,-509.5 173,-509.5 173,-221.5 3,-221.5"/>
<text text-anchor="middle" x="88" y="-497.5" font-family="Helvetica,sans-Serif" font-size="10.00">SDK::AWieldableItem</text>
<polyline fill="none" stroke="red" points="3,-490.5 173,-490.5 "/>
<text text-anchor="start" x="11" y="-478.5" font-family="Helvetica,sans-Serif" font-size="10.00">+ UnknownData00</text>
<text text-anchor="start" x="11" y="-467.5" font-family="Helvetica,sans-Serif" font-size="10.00">+ FirstPersonMesh</text>
<text text-anchor="start" x="11" y="-456.5" font-family="Helvetica,sans-Serif" font-size="10.00">+ ThirdPersonMesh</text>
<text text-anchor="start" x="11" y="-445.5" font-family="Helvetica,sans-Serif" font-size="10.00">+ ActionRulesComponent</text>
<text text-anchor="start" x="11" y="-434.5" font-family="Helvetica,sans-Serif" font-size="10.00">+ AnimationKey</text>
<text text-anchor="start" x="11" y="-423.5" font-family="Helvetica,sans-Serif" font-size="10.00">+ MessagingDispatcher</text>
<text text-anchor="start" x="11" y="-412.5" font-family="Helvetica,sans-Serif" font-size="10.00">+ AnimationOffset</text>
<text text-anchor="start" x="11" y="-401.5" font-family="Helvetica,sans-Serif" font-size="10.00">+ EquipSfx</text>
<text text-anchor="start" x="11" y="-390.5" font-family="Helvetica,sans-Serif" font-size="10.00">+ UnequipSfx</text>
<text text-anchor="start" x="11" y="-379.5" font-family="Helvetica,sans-Serif" font-size="10.00">+ WielderLandedJumpSfx</text>
<text text-anchor="start" x="11" y="-368.5" font-family="Helvetica,sans-Serif" font-size="10.00">and 29 more...</text>
<polyline fill="none" stroke="red" points="3,-361.5 173,-361.5 "/>
<text text-anchor="start" x="11" y="-349.5" font-family="Helvetica,sans-Serif" font-size="10.00">+ SetItemWwiseSwitch()</text>
<text text-anchor="start" x="11" y="-338.5" font-family="Helvetica,sans-Serif" font-size="10.00">+ SetItemWwiseRTPC()</text>
<text text-anchor="start" x="11" y="-327.5" font-family="Helvetica,sans-Serif" font-size="10.00">+ PostItemWwiseEvent()</text>
<text text-anchor="start" x="11" y="-316.5" font-family="Helvetica,sans-Serif" font-size="10.00">+ OnWielderHasLandedFromJump</text>
<text text-anchor="start" x="11" y="-305.5" font-family="Helvetica,sans-Serif" font-size="10.00">BPImpl()</text>
<text text-anchor="start" x="11" y="-294.5" font-family="Helvetica,sans-Serif" font-size="10.00">+ IsUnderwater()</text>
<text text-anchor="start" x="11" y="-283.5" font-family="Helvetica,sans-Serif" font-size="10.00">+ GetWielder()</text>
<text text-anchor="start" x="11" y="-272.5" font-family="Helvetica,sans-Serif" font-size="10.00">+ GetWieldedItemAnimationOffset()</text>
<text text-anchor="start" x="11" y="-261.5" font-family="Helvetica,sans-Serif" font-size="10.00">+ GetWieldableItemSize()</text>
<text text-anchor="start" x="11" y="-250.5" font-family="Helvetica,sans-Serif" font-size="10.00">+ GetLastKnownWielder()</text>
<text text-anchor="start" x="11" y="-239.5" font-family="Helvetica,sans-Serif" font-size="10.00">+ GetIsFirstPerson()</text>
<text text-anchor="start" x="11" y="-228.5" font-family="Helvetica,sans-Serif" font-size="10.00">+ StaticClass()</text>
</a>
</g>
</g>
<!-- Node2&#45;&gt;Node1 -->
<g id="edge1" class="edge"><title>Node2&#45;&gt;Node1</title>
<path fill="none" stroke="midnightblue" d="M88,-211.174C88,-201.354 88,-192.309 88,-184.536"/>
<polygon fill="none" stroke="midnightblue" points="84.5001,-211.233 88,-221.233 91.5001,-211.233 84.5001,-211.233"/>
</g>
</g>
</svg>
