<?xml version="1.0" encoding="UTF-8" standalone="no"?>
<!DOCTYPE svg PUBLIC "-//W3C//DTD SVG 1.1//EN"
 "http://www.w3.org/Graphics/SVG/1.1/DTD/svg11.dtd">
<!-- Generated by graphviz version 2.38.0 (20140413.2041)
 -->
<!-- Title: SDK::URemoveMechanismTriggerStep Pages: 1 -->
<svg width="304pt" height="182pt"
 viewBox="0.00 0.00 304.00 182.00" xmlns="http://www.w3.org/2000/svg" xmlns:xlink="http://www.w3.org/1999/xlink">
<g id="graph0" class="graph" transform="scale(1 1) rotate(0) translate(4 178)">
<title>SDK::URemoveMechanismTriggerStep</title>
<!-- Node1 -->
<g id="node1" class="node"><title>Node1</title>
<g id="a_node1"><a xlink:title=" ">
<polygon fill="#bfbfbf" stroke="black" points="43,-0.5 43,-57.5 227,-57.5 227,-0.5 43,-0.5"/>
<text text-anchor="middle" x="135" y="-45.5" font-family="Helvetica,sans-Serif" font-size="10.00">SDK::URemoveMechanismTriggerStep</text>
<polyline fill="none" stroke="black" points="43,-38.5 227,-38.5 "/>
<text text-anchor="middle" x="135" y="-26.5" font-family="Helvetica,sans-Serif" font-size="10.00"> </text>
<polyline fill="none" stroke="black" points="43,-19.5 227,-19.5 "/>
<text text-anchor="start" x="51" y="-7.5" font-family="Helvetica,sans-Serif" font-size="10.00">+ StaticClass()</text>
</a>
</g>
</g>
<!-- Node2 -->
<g id="node2" class="node"><title>Node2</title>
<g id="a_node2"><a xlink:href="a35135.html" target="_top" xlink:title=" ">
<polygon fill="none" stroke="red" points="0,-111 0,-168 114,-168 114,-111 0,-111"/>
<text text-anchor="middle" x="57" y="-156" font-family="Helvetica,sans-Serif" font-size="10.00">SDK::UTaleQuestStep</text>
<polyline fill="none" stroke="red" points="0,-149 114,-149 "/>
<text text-anchor="middle" x="57" y="-137" font-family="Helvetica,sans-Serif" font-size="10.00"> </text>
<polyline fill="none" stroke="red" points="0,-130 114,-130 "/>
<text text-anchor="start" x="8" y="-118" font-family="Helvetica,sans-Serif" font-size="10.00">+ StaticClass()</text>
</a>
</g>
</g>
<!-- Node2&#45;&gt;Node1 -->
<g id="edge1" class="edge"><title>Node2&#45;&gt;Node1</title>
<path fill="none" stroke="midnightblue" d="M82.8811,-102.499C93.3943,-87.8746 105.347,-71.2479 115.152,-57.6094"/>
<polygon fill="none" stroke="midnightblue" points="79.8798,-100.678 76.8845,-110.84 85.5636,-104.764 79.8798,-100.678"/>
</g>
<!-- Node14 -->
<g id="node3" class="node"><title>Node14</title>
<g id="a_node3"><a xlink:href="a07663.html" target="_top" xlink:title=" ">
<polygon fill="none" stroke="red" points="132,-105.5 132,-173.5 296,-173.5 296,-105.5 132,-105.5"/>
<text text-anchor="start" x="140" y="-161.5" font-family="Helvetica,sans-Serif" font-size="10.00">SDK::URemoveMechanismTrigger</text>
<text text-anchor="middle" x="214" y="-150.5" font-family="Helvetica,sans-Serif" font-size="10.00">StepDesc</text>
<polyline fill="none" stroke="red" points="132,-143.5 296,-143.5 "/>
<text text-anchor="middle" x="214" y="-131.5" font-family="Helvetica,sans-Serif" font-size="10.00"> </text>
<polyline fill="none" stroke="red" points="132,-124.5 296,-124.5 "/>
<text text-anchor="start" x="140" y="-112.5" font-family="Helvetica,sans-Serif" font-size="10.00">+ StaticClass()</text>
</a>
</g>
</g>
<!-- Node14&#45;&gt;Node1 -->
<g id="edge2" class="edge"><title>Node14&#45;&gt;Node1</title>
<path fill="none" stroke="#404040" d="M189.868,-105.357C181.218,-93.4771 171.404,-79.9975 162.491,-67.7562"/>
<polygon fill="none" stroke="#404040" points="162.325,-67.5279 155.559,-65.0319 155.261,-57.827 162.026,-60.323 162.325,-67.5279"/>
<text text-anchor="middle" x="191" y="-79" font-family="Helvetica,sans-Serif" font-size="10.00"> +Desc</text>
</g>
</g>
</svg>
