<?xml version="1.0" encoding="UTF-8" standalone="no"?>
<!DOCTYPE svg PUBLIC "-//W3C//DTD SVG 1.1//EN"
 "http://www.w3.org/Graphics/SVG/1.1/DTD/svg11.dtd">
<!-- Generated by graphviz version 2.38.0 (20140413.2041)
 -->
<!-- Title: SDK::URevealerComponent Pages: 1 -->
<svg width="717pt" height="738pt"
 viewBox="0.00 0.00 716.58 738.00" xmlns="http://www.w3.org/2000/svg" xmlns:xlink="http://www.w3.org/1999/xlink">
<g id="graph0" class="graph" transform="scale(1 1) rotate(0) translate(4 734)">
<title>SDK::URevealerComponent</title>
<!-- Node1 -->
<g id="node1" class="node"><title>Node1</title>
<g id="a_node1"><a xlink:title=" ">
<polygon fill="#bfbfbf" stroke="black" points="322.582,-0.5 322.582,-79.5 458.582,-79.5 458.582,-0.5 322.582,-0.5"/>
<text text-anchor="middle" x="390.582" y="-67.5" font-family="Helvetica,sans-Serif" font-size="10.00">SDK::URevealerComponent</text>
<polyline fill="none" stroke="black" points="322.582,-60.5 458.582,-60.5 "/>
<text text-anchor="middle" x="390.582" y="-48.5" font-family="Helvetica,sans-Serif" font-size="10.00"> </text>
<polyline fill="none" stroke="black" points="322.582,-41.5 458.582,-41.5 "/>
<text text-anchor="start" x="330.582" y="-29.5" font-family="Helvetica,sans-Serif" font-size="10.00">+ StopRevealing()</text>
<text text-anchor="start" x="330.582" y="-18.5" font-family="Helvetica,sans-Serif" font-size="10.00">+ StartRevealing()</text>
<text text-anchor="start" x="330.582" y="-7.5" font-family="Helvetica,sans-Serif" font-size="10.00">+ StaticClass()</text>
</a>
</g>
</g>
<!-- Node2 -->
<g id="node2" class="node"><title>Node2</title>
<g id="a_node2"><a xlink:href="a26551.html" target="_top" xlink:title=" ">
<polygon fill="none" stroke="red" points="169.082,-160.5 169.082,-404.5 354.082,-404.5 354.082,-160.5 169.082,-160.5"/>
<text text-anchor="middle" x="261.582" y="-392.5" font-family="Helvetica,sans-Serif" font-size="10.00">SDK::UActorComponent</text>
<polyline fill="none" stroke="red" points="169.082,-385.5 354.082,-385.5 "/>
<text text-anchor="start" x="177.082" y="-373.5" font-family="Helvetica,sans-Serif" font-size="10.00">+ UnknownData00</text>
<text text-anchor="start" x="177.082" y="-362.5" font-family="Helvetica,sans-Serif" font-size="10.00">+ bReplicates</text>
<text text-anchor="start" x="177.082" y="-351.5" font-family="Helvetica,sans-Serif" font-size="10.00">+ bNetAddressable</text>
<text text-anchor="start" x="177.082" y="-340.5" font-family="Helvetica,sans-Serif" font-size="10.00">+ bInstanceComponent</text>
<text text-anchor="start" x="177.082" y="-329.5" font-family="Helvetica,sans-Serif" font-size="10.00">+ bAutoActivate</text>
<text text-anchor="start" x="177.082" y="-318.5" font-family="Helvetica,sans-Serif" font-size="10.00">+ bIsActive</text>
<text text-anchor="start" x="177.082" y="-307.5" font-family="Helvetica,sans-Serif" font-size="10.00">+ bNeedsLoadForServer</text>
<polyline fill="none" stroke="red" points="169.082,-300.5 354.082,-300.5 "/>
<text text-anchor="start" x="177.082" y="-288.5" font-family="Helvetica,sans-Serif" font-size="10.00">+ ToggleActive()</text>
<text text-anchor="start" x="177.082" y="-277.5" font-family="Helvetica,sans-Serif" font-size="10.00">+ SetTickGroup()</text>
<text text-anchor="start" x="177.082" y="-266.5" font-family="Helvetica,sans-Serif" font-size="10.00">+ SetTickableWhenPaused()</text>
<text text-anchor="start" x="177.082" y="-255.5" font-family="Helvetica,sans-Serif" font-size="10.00">+ SetIsReplicated()</text>
<text text-anchor="start" x="177.082" y="-244.5" font-family="Helvetica,sans-Serif" font-size="10.00">+ SetComponentTickEnabled()</text>
<text text-anchor="start" x="177.082" y="-233.5" font-family="Helvetica,sans-Serif" font-size="10.00">+ SetActive()</text>
<text text-anchor="start" x="177.082" y="-222.5" font-family="Helvetica,sans-Serif" font-size="10.00">+ RemoveTickPrerequisiteComponent()</text>
<text text-anchor="start" x="177.082" y="-211.5" font-family="Helvetica,sans-Serif" font-size="10.00">+ RemoveTickPrerequisiteActor()</text>
<text text-anchor="start" x="177.082" y="-200.5" font-family="Helvetica,sans-Serif" font-size="10.00">+ ReceiveTick()</text>
<text text-anchor="start" x="177.082" y="-189.5" font-family="Helvetica,sans-Serif" font-size="10.00">+ ReceiveEndPlay()</text>
<text text-anchor="start" x="177.082" y="-178.5" font-family="Helvetica,sans-Serif" font-size="10.00">and 12 more...</text>
<text text-anchor="start" x="177.082" y="-167.5" font-family="Helvetica,sans-Serif" font-size="10.00">+ StaticClass()</text>
</a>
</g>
</g>
<!-- Node2&#45;&gt;Node1 -->
<g id="edge1" class="edge"><title>Node2&#45;&gt;Node1</title>
<path fill="none" stroke="midnightblue" d="M331.413,-151.311C345.435,-125.169 359.119,-99.6576 369.789,-79.7646"/>
<polygon fill="none" stroke="midnightblue" points="328.291,-149.726 326.649,-160.193 334.46,-153.035 328.291,-149.726"/>
</g>
<!-- Node3 -->
<g id="node3" class="node"><title>Node3</title>
<g id="a_node3"><a xlink:href="a26095.html" target="_top" xlink:title=" ">
<polygon fill="none" stroke="red" points="48.5818,-573.5 48.5818,-729.5 160.582,-729.5 160.582,-573.5 48.5818,-573.5"/>
<text text-anchor="middle" x="104.582" y="-717.5" font-family="Helvetica,sans-Serif" font-size="10.00">SDK::UObject</text>
<polyline fill="none" stroke="red" points="48.5818,-710.5 160.582,-710.5 "/>
<text text-anchor="middle" x="104.582" y="-698.5" font-family="Helvetica,sans-Serif" font-size="10.00"> </text>
<polyline fill="none" stroke="red" points="48.5818,-691.5 160.582,-691.5 "/>
<text text-anchor="start" x="56.5818" y="-679.5" font-family="Helvetica,sans-Serif" font-size="10.00">+ GetName()</text>
<text text-anchor="start" x="56.5818" y="-668.5" font-family="Helvetica,sans-Serif" font-size="10.00">+ GetFullName()</text>
<text text-anchor="start" x="56.5818" y="-657.5" font-family="Helvetica,sans-Serif" font-size="10.00">+ IsA()</text>
<text text-anchor="start" x="56.5818" y="-646.5" font-family="Helvetica,sans-Serif" font-size="10.00">+ ProcessEvent()</text>
<text text-anchor="start" x="56.5818" y="-635.5" font-family="Helvetica,sans-Serif" font-size="10.00">+ ExecuteUbergraph()</text>
<text text-anchor="start" x="56.5818" y="-624.5" font-family="Helvetica,sans-Serif" font-size="10.00">+ StaticClass()</text>
<text text-anchor="start" x="56.5818" y="-613.5" font-family="Helvetica,sans-Serif" font-size="10.00">+ GetGlobalObjects()</text>
<text text-anchor="start" x="56.5818" y="-602.5" font-family="Helvetica,sans-Serif" font-size="10.00">+ FindObject()</text>
<text text-anchor="start" x="56.5818" y="-591.5" font-family="Helvetica,sans-Serif" font-size="10.00">+ FindClass()</text>
<text text-anchor="start" x="56.5818" y="-580.5" font-family="Helvetica,sans-Serif" font-size="10.00">+ GetObjectCasted()</text>
</a>
</g>
</g>
<!-- Node3&#45;&gt;Node1 -->
<g id="edge5" class="edge"><title>Node3&#45;&gt;Node1</title>
<path fill="none" stroke="#404040" d="M65.1709,-573.188C18.3008,-469.184 -43.2462,-283.084 44.5818,-160 104.657,-75.8096 228.274,-50.5745 310.306,-43.3581"/>
<polygon fill="none" stroke="#404040" points="310.383,-43.3521 316.048,-38.8893 322.346,-42.4015 316.681,-46.8642 310.383,-43.3521"/>
<text text-anchor="middle" x="102.082" y="-280" font-family="Helvetica,sans-Serif" font-size="10.00"> +TargetGameStateObject</text>
</g>
<!-- Node3&#45;&gt;Node2 -->
<g id="edge2" class="edge"><title>Node3&#45;&gt;Node2</title>
<path fill="none" stroke="midnightblue" d="M141.673,-563.796C161.967,-516.356 187.435,-456.823 209.674,-404.838"/>
<polygon fill="none" stroke="midnightblue" points="138.401,-562.547 137.686,-573.117 144.837,-565.3 138.401,-562.547"/>
</g>
<!-- Node3&#45;&gt;Node3 -->
<g id="edge3" class="edge"><title>Node3&#45;&gt;Node3</title>
<path fill="none" stroke="#404040" d="M160.728,-680.316C171.204,-676.767 178.582,-667.162 178.582,-651.5 178.582,-641.711 175.7,-634.288 170.981,-629.231"/>
<polygon fill="none" stroke="#404040" points="170.842,-629.143 163.632,-629.285 160.728,-622.684 167.938,-622.542 170.842,-629.143"/>
<text text-anchor="middle" x="195.582" y="-649" font-family="Helvetica,sans-Serif" font-size="10.00"> +Outer</text>
</g>
<!-- Node12 -->
<g id="node4" class="node"><title>Node12</title>
<g id="a_node4"><a xlink:title=" ">
<polygon fill="none" stroke="#bfbfbf" points="300.082,-623 300.082,-680 335.082,-680 335.082,-623 300.082,-623"/>
<text text-anchor="middle" x="317.582" y="-668" font-family="Helvetica,sans-Serif" font-size="10.00">char</text>
<polyline fill="none" stroke="#bfbfbf" points="300.082,-661 335.082,-661 "/>
<text text-anchor="middle" x="317.582" y="-649" font-family="Helvetica,sans-Serif" font-size="10.00"> </text>
<polyline fill="none" stroke="#bfbfbf" points="300.082,-642 335.082,-642 "/>
<text text-anchor="middle" x="317.582" y="-630" font-family="Helvetica,sans-Serif" font-size="10.00"> </text>
</a>
</g>
</g>
<!-- Node12&#45;&gt;Node1 -->
<g id="edge7" class="edge"><title>Node12&#45;&gt;Node1</title>
<path fill="none" stroke="#404040" d="M335.247,-629.346C349.396,-610.983 368.214,-583.01 376.582,-555 402.11,-469.552 396.318,-204.39 392.545,-92.0849"/>
<polygon fill="none" stroke="#404040" points="392.535,-91.7933 388.33,-85.9353 392.119,-79.8005 396.325,-85.6584 392.535,-91.7933"/>
<text text-anchor="middle" x="436.582" y="-291" font-family="Helvetica,sans-Serif" font-size="10.00"> +UnknownData01</text>
<text text-anchor="middle" x="436.582" y="-280" font-family="Helvetica,sans-Serif" font-size="10.00">+UnknownData02</text>
<text text-anchor="middle" x="436.582" y="-269" font-family="Helvetica,sans-Serif" font-size="10.00">+UnknownData00</text>
</g>
<!-- Node12&#45;&gt;Node2 -->
<g id="edge4" class="edge"><title>Node12&#45;&gt;Node2</title>
<path fill="none" stroke="#404040" d="M300.038,-626.813C287.467,-608.313 271.571,-581.396 264.582,-555 252.921,-510.963 249.637,-461.484 250.066,-416.947"/>
<polygon fill="none" stroke="#404040" points="250.068,-416.828 246.172,-410.76 250.275,-404.829 254.171,-410.897 250.068,-416.828"/>
<text text-anchor="middle" x="320.582" y="-547" font-family="Helvetica,sans-Serif" font-size="10.00"> +UnknownData01</text>
<text text-anchor="middle" x="320.582" y="-536" font-family="Helvetica,sans-Serif" font-size="10.00">+UnknownData02</text>
<text text-anchor="middle" x="320.582" y="-525" font-family="Helvetica,sans-Serif" font-size="10.00">+UnknownData03</text>
<text text-anchor="middle" x="320.582" y="-514" font-family="Helvetica,sans-Serif" font-size="10.00">+UnknownData04</text>
<text text-anchor="middle" x="320.582" y="-503" font-family="Helvetica,sans-Serif" font-size="10.00">+UnknownData05</text>
<text text-anchor="start" x="264.582" y="-492" font-family="Helvetica,sans-Serif" font-size="10.00">+bCreatedByConstruction</text>
<text text-anchor="middle" x="320.582" y="-481" font-family="Helvetica,sans-Serif" font-size="10.00">Script</text>
<text text-anchor="middle" x="320.582" y="-470" font-family="Helvetica,sans-Serif" font-size="10.00">+UnknownData06</text>
<text text-anchor="middle" x="320.582" y="-459" font-family="Helvetica,sans-Serif" font-size="10.00">+UnknownData07</text>
<text text-anchor="middle" x="320.582" y="-448" font-family="Helvetica,sans-Serif" font-size="10.00">+bEditableWhenInherited</text>
<text text-anchor="middle" x="320.582" y="-437" font-family="Helvetica,sans-Serif" font-size="10.00">+bNeedsLoadForClient</text>
<text text-anchor="middle" x="320.582" y="-426" font-family="Helvetica,sans-Serif" font-size="10.00">...</text>
</g>
<!-- Node18 -->
<g id="node5" class="node"><title>Node18</title>
<g id="a_node5"><a xlink:title=" ">
<polygon fill="none" stroke="#bfbfbf" points="489.082,-254 489.082,-311 524.082,-311 524.082,-254 489.082,-254"/>
<text text-anchor="middle" x="506.582" y="-299" font-family="Helvetica,sans-Serif" font-size="10.00">float</text>
<polyline fill="none" stroke="#bfbfbf" points="489.082,-292 524.082,-292 "/>
<text text-anchor="middle" x="506.582" y="-280" font-family="Helvetica,sans-Serif" font-size="10.00"> </text>
<polyline fill="none" stroke="#bfbfbf" points="489.082,-273 524.082,-273 "/>
<text text-anchor="middle" x="506.582" y="-261" font-family="Helvetica,sans-Serif" font-size="10.00"> </text>
</a>
</g>
</g>
<!-- Node18&#45;&gt;Node1 -->
<g id="edge6" class="edge"><title>Node18&#45;&gt;Node1</title>
<path fill="none" stroke="#404040" d="M502.238,-253.997C497.582,-228.723 488.863,-190.646 474.582,-160 463.015,-135.18 446.205,-110.067 430.657,-89.3486"/>
<polygon fill="none" stroke="#404040" points="430.45,-89.0785 423.626,-86.747 423.154,-79.5514 429.978,-81.8829 430.45,-89.0785"/>
<text text-anchor="middle" x="534.082" y="-134" font-family="Helvetica,sans-Serif" font-size="10.00"> +RevealStartTime</text>
<text text-anchor="middle" x="534.082" y="-123" font-family="Helvetica,sans-Serif" font-size="10.00">+VisibilityDistanceAddition</text>
<text text-anchor="middle" x="534.082" y="-112" font-family="Helvetica,sans-Serif" font-size="10.00">+AnimationDistanceAddition</text>
<text text-anchor="middle" x="534.082" y="-101" font-family="Helvetica,sans-Serif" font-size="10.00">+VisibilityAdditionChangeSpeed</text>
</g>
<!-- Node22 -->
<g id="node6" class="node"><title>Node22</title>
<g id="a_node6"><a xlink:title=" ">
<polygon fill="none" stroke="#bfbfbf" points="609.082,-254 609.082,-311 644.082,-311 644.082,-254 609.082,-254"/>
<text text-anchor="middle" x="626.582" y="-299" font-family="Helvetica,sans-Serif" font-size="10.00">bool</text>
<polyline fill="none" stroke="#bfbfbf" points="609.082,-292 644.082,-292 "/>
<text text-anchor="middle" x="626.582" y="-280" font-family="Helvetica,sans-Serif" font-size="10.00"> </text>
<polyline fill="none" stroke="#bfbfbf" points="609.082,-273 644.082,-273 "/>
<text text-anchor="middle" x="626.582" y="-261" font-family="Helvetica,sans-Serif" font-size="10.00"> </text>
</a>
</g>
</g>
<!-- Node22&#45;&gt;Node1 -->
<g id="edge8" class="edge"><title>Node22&#45;&gt;Node1</title>
<path fill="none" stroke="#404040" d="M631.977,-253.786C637.963,-214.21 642.337,-141.492 604.582,-98 586.803,-77.5192 523.627,-62.3009 470.489,-52.765"/>
<polygon fill="none" stroke="#404040" points="470.451,-52.7584 463.854,-55.6694 458.629,-50.6991 465.227,-47.7881 470.451,-52.7584"/>
<text text-anchor="middle" x="667.582" y="-117.5" font-family="Helvetica,sans-Serif" font-size="10.00"> +IsMultiplierActive</text>
</g>
</g>
</svg>
