<?xml version="1.0" encoding="UTF-8" standalone="no"?>
<!DOCTYPE svg PUBLIC "-//W3C//DTD SVG 1.1//EN"
 "http://www.w3.org/Graphics/SVG/1.1/DTD/svg11.dtd">
<!-- Generated by graphviz version 2.38.0 (20140413.2041)
 -->
<!-- Title: SDK::UScreenSpaceVFXComponentParams Pages: 1 -->
<!--zoomable 419 -->
<svg id="main" version="1.1" xmlns="http://www.w3.org/2000/svg" xmlns:xlink="http://www.w3.org/1999/xlink" xml:space="preserve" onload="init(evt)">
<style type="text/css"><![CDATA[
.edge:hover path { stroke: red; }
.edge:hover polygon { stroke: red; fill: red; }
]]></style>
<script type="text/javascript"><![CDATA[
var edges = document.getElementsByTagName('g');
if (edges && edges.length) {
  for (var i=0;i<edges.length;i++) {
    if (edges[i].id.substr(0,4)=='edge') {
      edges[i].setAttribute('class','edge');
    }
  }
}
]]></script>
        <defs>
                <circle id="rim" cx="0" cy="0" r="7"/>
                <circle id="rim2" cx="0" cy="0" r="3.5"/>
                <g id="zoomPlus">
                        <use xlink:href="#rim" fill="#404040">
                                <set attributeName="fill" to="#808080" begin="zoomplus.mouseover" end="zoomplus.mouseout"/>
                        </use>
                        <path d="M-4,0h8M0,-4v8" fill="none" stroke="white" stroke-width="1.5" pointer-events="none"/>
                </g>
                <g id="zoomMin">
                        <use xlink:href="#rim" fill="#404040">
                                <set attributeName="fill" to="#808080" begin="zoomminus.mouseover" end="zoomminus.mouseout"/>
                        </use>
                        <path d="M-4,0h8" fill="none" stroke="white" stroke-width="1.5" pointer-events="none"/>
                </g>
                <g id="dirArrow">
                        <path fill="none" stroke="white" stroke-width="1.5" d="M0,-3.0v7 M-2.5,-0.5L0,-3.0L2.5,-0.5"/>
                </g>
               <g id="resetDef">
                       <use xlink:href="#rim2" fill="#404040">
                               <set attributeName="fill" to="#808080" begin="reset.mouseover" end="reset.mouseout"/>
                       </use>
               </g>
        </defs>

<script type="text/javascript">
var viewWidth = 871;
var viewHeight = 419;
var sectionId = 'dynsection-1';
</script>
<script xlink:href="svgpan.js"/>
<svg id="graph" class="graph">
<g id="viewport">
<title>SDK::UScreenSpaceVFXComponentParams</title>
<!-- Node1 -->
<g id="node1" class="node"><title>Node1</title>
<g id="a_node1"><a xlink:title=" ">
<polygon fill="#bfbfbf" stroke="black" points="211.5,-0.5 211.5,-68.5 387.5,-68.5 387.5,-0.5 211.5,-0.5"/>
<text text-anchor="start" x="219.5" y="-56.5" font-family="Helvetica,sans-Serif" font-size="10.00">SDK::UScreenSpaceVFXComponent</text>
<text text-anchor="middle" x="299.5" y="-45.5" font-family="Helvetica,sans-Serif" font-size="10.00">Params</text>
<polyline fill="none" stroke="black" points="211.5,-38.5 387.5,-38.5 "/>
<text text-anchor="middle" x="299.5" y="-26.5" font-family="Helvetica,sans-Serif" font-size="10.00"> </text>
<polyline fill="none" stroke="black" points="211.5,-19.5 387.5,-19.5 "/>
<text text-anchor="start" x="219.5" y="-7.5" font-family="Helvetica,sans-Serif" font-size="10.00">+ StaticClass()</text>
</a>
</g>
</g>
<!-- Node2 -->
<g id="node2" class="node"><title>Node2</title>
<g id="a_node2"><a xlink:href="a26559.html" target="_top" xlink:title=" ">
<polygon fill="none" stroke="red" points="0,-221 0,-278 95,-278 95,-221 0,-221"/>
<text text-anchor="middle" x="47.5" y="-266" font-family="Helvetica,sans-Serif" font-size="10.00">SDK::UDataAsset</text>
<polyline fill="none" stroke="red" points="0,-259 95,-259 "/>
<text text-anchor="middle" x="47.5" y="-247" font-family="Helvetica,sans-Serif" font-size="10.00"> </text>
<polyline fill="none" stroke="red" points="0,-240 95,-240 "/>
<text text-anchor="start" x="8" y="-228" font-family="Helvetica,sans-Serif" font-size="10.00">+ StaticClass()</text>
</a>
</g>
</g>
<!-- Node2&#45;&gt;Node1 -->
<g id="edge1" class="edge"><title>Node2&#45;&gt;Node1</title>
<path fill="none" stroke="midnightblue" d="M61.0279,-211.659C76.2445,-175.093 104.337,-119.884 145.5,-87 164.552,-71.7795 188.312,-60.965 211.422,-53.3167"/>
<polygon fill="none" stroke="midnightblue" points="57.7605,-210.403 57.2569,-220.986 64.2502,-213.027 57.7605,-210.403"/>
</g>
<!-- Node4 -->
<g id="node3" class="node"><title>Node4</title>
<g id="a_node3"><a xlink:href="a25839.html" target="_top" xlink:title=" ">
<polygon fill="none" stroke="red" points="113.5,-193.5 113.5,-305.5 219.5,-305.5 219.5,-193.5 113.5,-193.5"/>
<text text-anchor="middle" x="166.5" y="-293.5" font-family="Helvetica,sans-Serif" font-size="10.00">SDK::FName</text>
<polyline fill="none" stroke="red" points="113.5,-286.5 219.5,-286.5 "/>
<text text-anchor="middle" x="166.5" y="-274.5" font-family="Helvetica,sans-Serif" font-size="10.00"> </text>
<polyline fill="none" stroke="red" points="113.5,-267.5 219.5,-267.5 "/>
<text text-anchor="start" x="121.5" y="-255.5" font-family="Helvetica,sans-Serif" font-size="10.00">+ FName()</text>
<text text-anchor="start" x="121.5" y="-244.5" font-family="Helvetica,sans-Serif" font-size="10.00">+ FName()</text>
<text text-anchor="start" x="121.5" y="-233.5" font-family="Helvetica,sans-Serif" font-size="10.00">+ FName()</text>
<text text-anchor="start" x="121.5" y="-222.5" font-family="Helvetica,sans-Serif" font-size="10.00">+ GetName()</text>
<text text-anchor="start" x="121.5" y="-211.5" font-family="Helvetica,sans-Serif" font-size="10.00">+ operator==()</text>
<text text-anchor="start" x="121.5" y="-200.5" font-family="Helvetica,sans-Serif" font-size="10.00">+ GetGlobalNames()</text>
</a>
</g>
</g>
<!-- Node4&#45;&gt;Node1 -->
<g id="edge2" class="edge"><title>Node4&#45;&gt;Node1</title>
<path fill="none" stroke="#404040" d="M152.274,-193.378C146.918,-159.797 146.446,-117.61 167.5,-87 175.777,-74.9661 187.315,-65.7439 200.157,-58.6766"/>
<polygon fill="none" stroke="#404040" points="200.443,-58.5358 204.057,-52.296 211.207,-53.2325 207.593,-59.4723 200.443,-58.5358"/>
<text text-anchor="middle" x="214" y="-139.5" font-family="Helvetica,sans-Serif" font-size="10.00"> +VFXNameDrowning</text>
<text text-anchor="middle" x="214" y="-128.5" font-family="Helvetica,sans-Serif" font-size="10.00">+VFXNameStunned</text>
<text text-anchor="middle" x="214" y="-117.5" font-family="Helvetica,sans-Serif" font-size="10.00">+VFXNameDamage</text>
</g>
<!-- Node14 -->
<g id="node4" class="node"><title>Node14</title>
<g id="a_node4"><a xlink:href="a27039.html" target="_top" xlink:title=" ">
<polygon fill="none" stroke="red" points="373,-215.5 373,-283.5 468,-283.5 468,-215.5 373,-215.5"/>
<text text-anchor="middle" x="420.5" y="-271.5" font-family="Helvetica,sans-Serif" font-size="10.00">SDK::UCurveFloat</text>
<polyline fill="none" stroke="red" points="373,-264.5 468,-264.5 "/>
<text text-anchor="middle" x="420.5" y="-252.5" font-family="Helvetica,sans-Serif" font-size="10.00"> </text>
<polyline fill="none" stroke="red" points="373,-245.5 468,-245.5 "/>
<text text-anchor="start" x="381" y="-233.5" font-family="Helvetica,sans-Serif" font-size="10.00">+ GetFloatValue()</text>
<text text-anchor="start" x="381" y="-222.5" font-family="Helvetica,sans-Serif" font-size="10.00">+ StaticClass()</text>
</a>
</g>
</g>
<!-- Node14&#45;&gt;Node1 -->
<g id="edge3" class="edge"><title>Node14&#45;&gt;Node1</title>
<path fill="none" stroke="#404040" d="M384.134,-215.224C375.802,-207.804 366.918,-200.049 358.5,-193 348.548,-184.667 342.61,-185.86 335.5,-175 317.062,-146.836 308.061,-109.73 303.67,-80.8674"/>
<polygon fill="none" stroke="#404040" points="303.626,-80.5418 298.853,-75.1358 302.008,-68.6513 306.78,-74.0573 303.626,-80.5418"/>
<text text-anchor="start" x="335.5" y="-145" font-family="Helvetica,sans-Serif" font-size="10.00"> +DrowningEffectStrengthOver</text>
<text text-anchor="middle" x="403.5" y="-134" font-family="Helvetica,sans-Serif" font-size="10.00">TimeCurve</text>
<text text-anchor="middle" x="403.5" y="-123" font-family="Helvetica,sans-Serif" font-size="10.00">+ContinuousDamageTimeCurve</text>
<text text-anchor="middle" x="403.5" y="-112" font-family="Helvetica,sans-Serif" font-size="10.00">+EffectStrengthOverTimeCurve</text>
</g>
<!-- Node12 -->
<g id="node5" class="node"><title>Node12</title>
<g id="a_node5"><a xlink:title=" ">
<polygon fill="none" stroke="#bfbfbf" points="301,-353.5 301,-410.5 336,-410.5 336,-353.5 301,-353.5"/>
<text text-anchor="middle" x="318.5" y="-398.5" font-family="Helvetica,sans-Serif" font-size="10.00">char</text>
<polyline fill="none" stroke="#bfbfbf" points="301,-391.5 336,-391.5 "/>
<text text-anchor="middle" x="318.5" y="-379.5" font-family="Helvetica,sans-Serif" font-size="10.00"> </text>
<polyline fill="none" stroke="#bfbfbf" points="301,-372.5 336,-372.5 "/>
<text text-anchor="middle" x="318.5" y="-360.5" font-family="Helvetica,sans-Serif" font-size="10.00"> </text>
</a>
</g>
</g>
<!-- Node12&#45;&gt;Node1 -->
<g id="edge5" class="edge"><title>Node12&#45;&gt;Node1</title>
<path fill="none" stroke="#404040" d="M301.97,-353.194C294.765,-339.489 287.141,-322.413 283.5,-306 266.249,-228.24 278.815,-135.016 289.304,-80.7965"/>
<polygon fill="none" stroke="#404040" points="289.338,-80.6268 286.599,-73.9563 291.702,-68.862 294.442,-75.5324 289.338,-80.6268"/>
<text text-anchor="middle" x="323.5" y="-263.5" font-family="Helvetica,sans-Serif" font-size="10.00"> +UnknownData01</text>
<text text-anchor="middle" x="323.5" y="-252.5" font-family="Helvetica,sans-Serif" font-size="10.00">+UnknownData02</text>
<text text-anchor="middle" x="323.5" y="-241.5" font-family="Helvetica,sans-Serif" font-size="10.00">+UnknownData03</text>
<text text-anchor="middle" x="323.5" y="-230.5" font-family="Helvetica,sans-Serif" font-size="10.00">+UnknownData00</text>
</g>
<!-- Node12&#45;&gt;Node14 -->
<g id="edge4" class="edge"><title>Node12&#45;&gt;Node14</title>
<path fill="none" stroke="#404040" d="M336.034,-358.566C349.964,-340.745 369.856,-315.294 386.838,-293.568"/>
<polygon fill="none" stroke="#404040" points="387.013,-293.343 387.557,-286.153 394.403,-283.889 393.86,-291.079 387.013,-293.343"/>
<text text-anchor="middle" x="400.5" y="-327" font-family="Helvetica,sans-Serif" font-size="10.00"> +UnknownData00</text>
</g>
<!-- Node19 -->
<g id="node6" class="node"><title>Node19</title>
<g id="a_node6"><a xlink:title=" ">
<polygon fill="none" stroke="#bfbfbf" points="486,-221 486,-278 521,-278 521,-221 486,-221"/>
<text text-anchor="middle" x="503.5" y="-266" font-family="Helvetica,sans-Serif" font-size="10.00">float</text>
<polyline fill="none" stroke="#bfbfbf" points="486,-259 521,-259 "/>
<text text-anchor="middle" x="503.5" y="-247" font-family="Helvetica,sans-Serif" font-size="10.00"> </text>
<polyline fill="none" stroke="#bfbfbf" points="486,-240 521,-240 "/>
<text text-anchor="middle" x="503.5" y="-228" font-family="Helvetica,sans-Serif" font-size="10.00"> </text>
</a>
</g>
</g>
<!-- Node19&#45;&gt;Node1 -->
<g id="edge6" class="edge"><title>Node19&#45;&gt;Node1</title>
<path fill="none" stroke="#404040" d="M499.585,-220.733C493.213,-177.2 480.416,-96.8089 471.5,-87 452.78,-66.4049 426.195,-53.9112 399.509,-46.3731"/>
<polygon fill="none" stroke="#404040" points="399.304,-46.3208 392.499,-48.7062 387.68,-43.342 394.485,-40.9566 399.304,-46.3208"/>
<text text-anchor="start" x="492.5" y="-167" font-family="Helvetica,sans-Serif" font-size="10.00"> +ContinuousDamageMaxDamage</text>
<text text-anchor="middle" x="597.5" y="-156" font-family="Helvetica,sans-Serif" font-size="10.00">Value</text>
<text text-anchor="start" x="492.5" y="-145" font-family="Helvetica,sans-Serif" font-size="10.00">+ContinuousDamageMaxDamage</text>
<text text-anchor="middle" x="597.5" y="-134" font-family="Helvetica,sans-Serif" font-size="10.00">Strength</text>
<text text-anchor="middle" x="597.5" y="-123" font-family="Helvetica,sans-Serif" font-size="10.00">+ContinuousDamageCycleTime</text>
<text text-anchor="middle" x="597.5" y="-112" font-family="Helvetica,sans-Serif" font-size="10.00">+DirectionalDamageIndicatorLifetime</text>
<text text-anchor="middle" x="597.5" y="-101" font-family="Helvetica,sans-Serif" font-size="10.00">+ContinuousDamageStrengthSpringAcceleration</text>
<text text-anchor="middle" x="597.5" y="-90" font-family="Helvetica,sans-Serif" font-size="10.00">+EffectStrengthSpringAcceleration</text>
</g>
<!-- Node23 -->
<g id="node7" class="node"><title>Node23</title>
<g id="a_node7"><a xlink:href="a25843.html" target="_top" xlink:title=" ">
<polygon fill="none" stroke="red" points="689.5,-199 689.5,-300 763.5,-300 763.5,-199 689.5,-199"/>
<text text-anchor="middle" x="726.5" y="-288" font-family="Helvetica,sans-Serif" font-size="10.00">SDK::FString</text>
<polyline fill="none" stroke="red" points="689.5,-281 763.5,-281 "/>
<text text-anchor="middle" x="726.5" y="-269" font-family="Helvetica,sans-Serif" font-size="10.00"> </text>
<polyline fill="none" stroke="red" points="689.5,-262 763.5,-262 "/>
<text text-anchor="start" x="697.5" y="-250" font-family="Helvetica,sans-Serif" font-size="10.00">+ FString()</text>
<text text-anchor="start" x="697.5" y="-239" font-family="Helvetica,sans-Serif" font-size="10.00">+ FString()</text>
<text text-anchor="start" x="697.5" y="-228" font-family="Helvetica,sans-Serif" font-size="10.00">+ IsValid()</text>
<text text-anchor="start" x="697.5" y="-217" font-family="Helvetica,sans-Serif" font-size="10.00">+ c_str()</text>
<text text-anchor="start" x="697.5" y="-206" font-family="Helvetica,sans-Serif" font-size="10.00">+ ToString()</text>
</a>
</g>
</g>
<!-- Node23&#45;&gt;Node1 -->
<g id="edge7" class="edge"><title>Node23&#45;&gt;Node1</title>
<path fill="none" stroke="#404040" d="M734.197,-198.907C736.761,-162.869 733.341,-115.585 704.5,-87 662.855,-45.7245 505.877,-36.2897 400.036,-34.7795"/>
<polygon fill="none" stroke="#404040" points="399.714,-34.7758 393.668,-38.7056 387.715,-34.6359 393.761,-30.7061 399.714,-34.7758"/>
<text text-anchor="start" x="734.5" y="-134" font-family="Helvetica,sans-Serif" font-size="10.00"> +DirectionalDamageIndicator</text>
<text text-anchor="middle" x="798.5" y="-123" font-family="Helvetica,sans-Serif" font-size="10.00">ParameterName</text>
</g>
</g>
</svg>
        <g id="navigator" transform="translate(0 0)" fill="#404254">
                <rect fill="#f2f5e9" fill-opacity="0.5" stroke="#606060" stroke-width=".5" x="0" y="0" width="60" height="60"/>
                <use id="zoomplus" xlink:href="#zoomPlus" x="17" y="9" onmousedown="handleZoom(evt,'in')"/>
                <use id="zoomminus" xlink:href="#zoomMin" x="42" y="9" onmousedown="handleZoom(evt,'out')"/>
                <use id="reset" xlink:href="#resetDef" x="30" y="36" onmousedown="handleReset()"/>
                <g id="arrowUp" xlink:href="#dirArrow" transform="translate(30 24)" onmousedown="handlePan(0,-1)">
                  <use xlink:href="#rim" fill="#404040">
                        <set attributeName="fill" to="#808080" begin="arrowUp.mouseover" end="arrowUp.mouseout"/>
                  </use>
                  <path fill="none" stroke="white" stroke-width="1.5" d="M0,-3.0v7 M-2.5,-0.5L0,-3.0L2.5,-0.5"/>
                </g>
                <g id="arrowRight" xlink:href="#dirArrow" transform="rotate(90) translate(36 -43)" onmousedown="handlePan(1,0)">
                  <use xlink:href="#rim" fill="#404040">
                        <set attributeName="fill" to="#808080" begin="arrowRight.mouseover" end="arrowRight.mouseout"/>
                  </use>
                  <path fill="none" stroke="white" stroke-width="1.5" d="M0,-3.0v7 M-2.5,-0.5L0,-3.0L2.5,-0.5"/>
                </g>
                <g id="arrowDown" xlink:href="#dirArrow" transform="rotate(180) translate(-30 -48)" onmousedown="handlePan(0,1)">
                  <use xlink:href="#rim" fill="#404040">
                        <set attributeName="fill" to="#808080" begin="arrowDown.mouseover" end="arrowDown.mouseout"/>
                  </use>
                  <path fill="none" stroke="white" stroke-width="1.5" d="M0,-3.0v7 M-2.5,-0.5L0,-3.0L2.5,-0.5"/>
                </g>
                <g id="arrowLeft" xlink:href="#dirArrow" transform="rotate(270) translate(-36 17)" onmousedown="handlePan(-1,0)">
                  <use xlink:href="#rim" fill="#404040">
                        <set attributeName="fill" to="#808080" begin="arrowLeft.mouseover" end="arrowLeft.mouseout"/>
                  </use>
                  <path fill="none" stroke="white" stroke-width="1.5" d="M0,-3.0v7 M-2.5,-0.5L0,-3.0L2.5,-0.5"/>
                </g>
        </g>
        <svg viewBox="0 0 15 15" width="100%" height="30px" preserveAspectRatio="xMaxYMin meet">
         <g id="arrow_out" transform="scale(0.3 0.3)">
          <a xlink:href="a07833_org.svg" target="_base">
           <rect id="button" ry="5" rx="5" y="6" x="6" height="38" width="38"
                fill="#f2f5e9" fill-opacity="0.5" stroke="#606060" stroke-width="1.0"/>
           <path id="arrow"
             d="M 11.500037,31.436501 C 11.940474,20.09759 22.043105,11.32322 32.158766,21.979434 L 37.068811,17.246167 C 37.068811,17.246167 37.088388,32 37.088388,32 L 22.160133,31.978069 C 22.160133,31.978069 26.997745,27.140456 26.997745,27.140456 C 18.528582,18.264221 13.291696,25.230495 11.500037,31.436501 z"
             style="fill:#404040;"/>
          </a>
         </g>
        </svg>
</svg>
