<?xml version="1.0" encoding="UTF-8" standalone="no"?>
<!DOCTYPE svg PUBLIC "-//W3C//DTD SVG 1.1//EN"
 "http://www.w3.org/Graphics/SVG/1.1/DTD/svg11.dtd">
<!-- Generated by graphviz version 2.38.0 (20140413.2041)
 -->
<!-- Title: SDK::ARudder Pages: 1 -->
<!--zoomable 628 -->
<svg id="main" version="1.1" xmlns="http://www.w3.org/2000/svg" xmlns:xlink="http://www.w3.org/1999/xlink" xml:space="preserve" onload="init(evt)">
<style type="text/css"><![CDATA[
.edge:hover path { stroke: red; }
.edge:hover polygon { stroke: red; fill: red; }
]]></style>
<script type="text/javascript"><![CDATA[
var edges = document.getElementsByTagName('g');
if (edges && edges.length) {
  for (var i=0;i<edges.length;i++) {
    if (edges[i].id.substr(0,4)=='edge') {
      edges[i].setAttribute('class','edge');
    }
  }
}
]]></script>
        <defs>
                <circle id="rim" cx="0" cy="0" r="7"/>
                <circle id="rim2" cx="0" cy="0" r="3.5"/>
                <g id="zoomPlus">
                        <use xlink:href="#rim" fill="#404040">
                                <set attributeName="fill" to="#808080" begin="zoomplus.mouseover" end="zoomplus.mouseout"/>
                        </use>
                        <path d="M-4,0h8M0,-4v8" fill="none" stroke="white" stroke-width="1.5" pointer-events="none"/>
                </g>
                <g id="zoomMin">
                        <use xlink:href="#rim" fill="#404040">
                                <set attributeName="fill" to="#808080" begin="zoomminus.mouseover" end="zoomminus.mouseout"/>
                        </use>
                        <path d="M-4,0h8" fill="none" stroke="white" stroke-width="1.5" pointer-events="none"/>
                </g>
                <g id="dirArrow">
                        <path fill="none" stroke="white" stroke-width="1.5" d="M0,-3.0v7 M-2.5,-0.5L0,-3.0L2.5,-0.5"/>
                </g>
               <g id="resetDef">
                       <use xlink:href="#rim2" fill="#404040">
                               <set attributeName="fill" to="#808080" begin="reset.mouseover" end="reset.mouseout"/>
                       </use>
               </g>
        </defs>

<script type="text/javascript">
var viewWidth = 754;
var viewHeight = 628;
var sectionId = 'dynsection-1';
</script>
<script xlink:href="svgpan.js"/>
<svg id="graph" class="graph">
<g id="viewport">
<title>SDK::ARudder</title>
<!-- Node1 -->
<g id="node1" class="node"><title>Node1</title>
<g id="a_node1"><a xlink:title=" ">
<polygon fill="#bfbfbf" stroke="black" points="301.838,-0.5 301.838,-79.5 426.838,-79.5 426.838,-0.5 301.838,-0.5"/>
<text text-anchor="middle" x="364.338" y="-67.5" font-family="Helvetica,sans-Serif" font-size="10.00">SDK::ARudder</text>
<polyline fill="none" stroke="black" points="301.838,-60.5 426.838,-60.5 "/>
<text text-anchor="middle" x="364.338" y="-48.5" font-family="Helvetica,sans-Serif" font-size="10.00"> </text>
<polyline fill="none" stroke="black" points="301.838,-41.5 426.838,-41.5 "/>
<text text-anchor="start" x="309.838" y="-29.5" font-family="Helvetica,sans-Serif" font-size="10.00">+ SetRudderAngleRatio()</text>
<text text-anchor="start" x="309.838" y="-18.5" font-family="Helvetica,sans-Serif" font-size="10.00">+ GetServerAngleRatio()</text>
<text text-anchor="start" x="309.838" y="-7.5" font-family="Helvetica,sans-Serif" font-size="10.00">+ StaticClass()</text>
</a>
</g>
</g>
<!-- Node2 -->
<g id="node2" class="node"><title>Node2</title>
<g id="a_node2"><a xlink:href="a26343.html" target="_top" xlink:title=" ">
<polygon fill="none" stroke="red" points="144.838,-149.5 144.838,-448.5 311.838,-448.5 311.838,-149.5 144.838,-149.5"/>
<text text-anchor="middle" x="228.338" y="-436.5" font-family="Helvetica,sans-Serif" font-size="10.00">SDK::AActor</text>
<polyline fill="none" stroke="red" points="144.838,-429.5 311.838,-429.5 "/>
<text text-anchor="start" x="152.838" y="-417.5" font-family="Helvetica,sans-Serif" font-size="10.00">+ bAllowRemovalFromServerWhen</text>
<text text-anchor="start" x="152.838" y="-406.5" font-family="Helvetica,sans-Serif" font-size="10.00">CollisionMerged</text>
<text text-anchor="start" x="152.838" y="-395.5" font-family="Helvetica,sans-Serif" font-size="10.00">+ bHidden</text>
<text text-anchor="start" x="152.838" y="-384.5" font-family="Helvetica,sans-Serif" font-size="10.00">+ bNetStartup</text>
<text text-anchor="start" x="152.838" y="-373.5" font-family="Helvetica,sans-Serif" font-size="10.00">+ bOnlyRelevantToOwner</text>
<text text-anchor="start" x="152.838" y="-362.5" font-family="Helvetica,sans-Serif" font-size="10.00">+ bAlwaysRelevant</text>
<text text-anchor="start" x="152.838" y="-351.5" font-family="Helvetica,sans-Serif" font-size="10.00">+ bReplicateMovement</text>
<text text-anchor="start" x="152.838" y="-340.5" font-family="Helvetica,sans-Serif" font-size="10.00">+ bExchangedRoles</text>
<text text-anchor="start" x="152.838" y="-329.5" font-family="Helvetica,sans-Serif" font-size="10.00">+ bNetLoadOnClient</text>
<text text-anchor="start" x="152.838" y="-318.5" font-family="Helvetica,sans-Serif" font-size="10.00">+ bBlockInput</text>
<text text-anchor="start" x="152.838" y="-307.5" font-family="Helvetica,sans-Serif" font-size="10.00">+ UnknownData00</text>
<text text-anchor="start" x="152.838" y="-296.5" font-family="Helvetica,sans-Serif" font-size="10.00">and 26 more...</text>
<polyline fill="none" stroke="red" points="144.838,-289.5 311.838,-289.5 "/>
<text text-anchor="start" x="152.838" y="-277.5" font-family="Helvetica,sans-Serif" font-size="10.00">+ UserConstructionScript()</text>
<text text-anchor="start" x="152.838" y="-266.5" font-family="Helvetica,sans-Serif" font-size="10.00">+ TearOff()</text>
<text text-anchor="start" x="152.838" y="-255.5" font-family="Helvetica,sans-Serif" font-size="10.00">+ SnapRootComponentTo()</text>
<text text-anchor="start" x="152.838" y="-244.5" font-family="Helvetica,sans-Serif" font-size="10.00">+ SetTickGroup()</text>
<text text-anchor="start" x="152.838" y="-233.5" font-family="Helvetica,sans-Serif" font-size="10.00">+ SetTickableWhenPaused()</text>
<text text-anchor="start" x="152.838" y="-222.5" font-family="Helvetica,sans-Serif" font-size="10.00">+ SetReplicates()</text>
<text text-anchor="start" x="152.838" y="-211.5" font-family="Helvetica,sans-Serif" font-size="10.00">+ SetReplicateMovement()</text>
<text text-anchor="start" x="152.838" y="-200.5" font-family="Helvetica,sans-Serif" font-size="10.00">+ SetOwner()</text>
<text text-anchor="start" x="152.838" y="-189.5" font-family="Helvetica,sans-Serif" font-size="10.00">+ SetLifeSpan()</text>
<text text-anchor="start" x="152.838" y="-178.5" font-family="Helvetica,sans-Serif" font-size="10.00">+ SetIgnoreNetTransformUpdates()</text>
<text text-anchor="start" x="152.838" y="-167.5" font-family="Helvetica,sans-Serif" font-size="10.00">and 109 more...</text>
<text text-anchor="start" x="152.838" y="-156.5" font-family="Helvetica,sans-Serif" font-size="10.00">+ StaticClass()</text>
</a>
</g>
</g>
<!-- Node2&#45;&gt;Node1 -->
<g id="edge1" class="edge"><title>Node2&#45;&gt;Node1</title>
<path fill="none" stroke="midnightblue" d="M311.819,-140.245C323.701,-117.792 334.916,-96.5979 343.908,-79.6058"/>
<polygon fill="none" stroke="midnightblue" points="308.64,-138.77 307.056,-149.246 314.827,-142.045 308.64,-138.77"/>
</g>
<!-- Node2&#45;&gt;Node2 -->
<g id="edge3" class="edge"><title>Node2&#45;&gt;Node2</title>
<path fill="none" stroke="#404040" d="M311.958,-329.236C322.725,-323.993 329.838,-313.914 329.838,-299 329.838,-289.213 326.774,-281.508 321.626,-275.885"/>
<polygon fill="none" stroke="#404040" points="321.62,-275.881 314.417,-275.543 311.958,-268.764 319.161,-269.102 321.62,-275.881"/>
<text text-anchor="middle" x="348.338" y="-296.5" font-family="Helvetica,sans-Serif" font-size="10.00"> +Owner</text>
</g>
<!-- Node25 -->
<g id="node3" class="node"><title>Node25</title>
<g id="a_node3"><a xlink:title=" ">
<polygon fill="none" stroke="#bfbfbf" points="210.838,-562.5 210.838,-619.5 245.838,-619.5 245.838,-562.5 210.838,-562.5"/>
<text text-anchor="middle" x="228.338" y="-607.5" font-family="Helvetica,sans-Serif" font-size="10.00">float</text>
<polyline fill="none" stroke="#bfbfbf" points="210.838,-600.5 245.838,-600.5 "/>
<text text-anchor="middle" x="228.338" y="-588.5" font-family="Helvetica,sans-Serif" font-size="10.00"> </text>
<polyline fill="none" stroke="#bfbfbf" points="210.838,-581.5 245.838,-581.5 "/>
<text text-anchor="middle" x="228.338" y="-569.5" font-family="Helvetica,sans-Serif" font-size="10.00"> </text>
</a>
</g>
</g>
<!-- Node25&#45;&gt;Node1 -->
<g id="edge7" class="edge"><title>Node25&#45;&gt;Node1</title>
<path fill="none" stroke="#404040" d="M210.684,-582.488C172.964,-565.333 85.1931,-519.254 51.3378,-449 -6.54509,-328.886 -26.0543,-257.574 51.3378,-149 105.148,-73.5094 215.378,-50.2713 289.587,-43.4101"/>
<polygon fill="none" stroke="#404040" points="289.671,-43.4032 295.32,-38.9204 301.63,-42.4102 295.982,-46.893 289.671,-43.4032"/>
<text text-anchor="middle" x="93.3378" y="-307.5" font-family="Helvetica,sans-Serif" font-size="10.00"> +ServerAngleRatio</text>
<text text-anchor="middle" x="93.3378" y="-296.5" font-family="Helvetica,sans-Serif" font-size="10.00">+MaxAngle</text>
<text text-anchor="middle" x="93.3378" y="-285.5" font-family="Helvetica,sans-Serif" font-size="10.00">+AngleBlend</text>
</g>
<!-- Node25&#45;&gt;Node2 -->
<g id="edge2" class="edge"><title>Node25&#45;&gt;Node2</title>
<path fill="none" stroke="#404040" d="M228.338,-562.456C228.338,-537.995 228.338,-500.096 228.338,-460.635"/>
<polygon fill="none" stroke="#404040" points="228.338,-460.633 224.338,-454.633 228.338,-448.633 232.338,-454.633 228.338,-460.633"/>
<text text-anchor="middle" x="284.338" y="-536" font-family="Helvetica,sans-Serif" font-size="10.00"> +InitialLifeSpan</text>
<text text-anchor="middle" x="284.338" y="-525" font-family="Helvetica,sans-Serif" font-size="10.00">+LastNetUpdateTime</text>
<text text-anchor="middle" x="284.338" y="-514" font-family="Helvetica,sans-Serif" font-size="10.00">+NetCullDistanceSquared</text>
<text text-anchor="middle" x="284.338" y="-503" font-family="Helvetica,sans-Serif" font-size="10.00">+NetUpdateFrequency</text>
<text text-anchor="middle" x="284.338" y="-492" font-family="Helvetica,sans-Serif" font-size="10.00">+NetUpdateTime</text>
<text text-anchor="middle" x="284.338" y="-481" font-family="Helvetica,sans-Serif" font-size="10.00">+CustomTimeDilation</text>
<text text-anchor="middle" x="284.338" y="-470" font-family="Helvetica,sans-Serif" font-size="10.00">+NetPriority</text>
</g>
<!-- Node33 -->
<g id="node4" class="node"><title>Node33</title>
<g id="a_node4"><a xlink:href="a26075.html" target="_top" xlink:title=" ">
<polygon fill="none" stroke="black" points="384.838,-226.5 384.838,-371.5 463.838,-371.5 463.838,-226.5 384.838,-226.5"/>
<text text-anchor="middle" x="424.338" y="-359.5" font-family="Helvetica,sans-Serif" font-size="10.00">SDK::FVector</text>
<polyline fill="none" stroke="black" points="384.838,-352.5 463.838,-352.5 "/>
<text text-anchor="middle" x="424.338" y="-340.5" font-family="Helvetica,sans-Serif" font-size="10.00"> </text>
<polyline fill="none" stroke="black" points="384.838,-333.5 463.838,-333.5 "/>
<text text-anchor="start" x="392.838" y="-321.5" font-family="Helvetica,sans-Serif" font-size="10.00">+ FVector()</text>
<text text-anchor="start" x="392.838" y="-310.5" font-family="Helvetica,sans-Serif" font-size="10.00">+ FVector()</text>
<text text-anchor="start" x="392.838" y="-299.5" font-family="Helvetica,sans-Serif" font-size="10.00">+ operator+()</text>
<text text-anchor="start" x="392.838" y="-288.5" font-family="Helvetica,sans-Serif" font-size="10.00">+ operator&#45;()</text>
<text text-anchor="start" x="392.838" y="-277.5" font-family="Helvetica,sans-Serif" font-size="10.00">+ operator*()</text>
<text text-anchor="start" x="392.838" y="-266.5" font-family="Helvetica,sans-Serif" font-size="10.00">+ operator=()</text>
<text text-anchor="start" x="392.838" y="-255.5" font-family="Helvetica,sans-Serif" font-size="10.00">+ operator+=()</text>
<text text-anchor="start" x="392.838" y="-244.5" font-family="Helvetica,sans-Serif" font-size="10.00">+ operator&#45;=()</text>
<text text-anchor="start" x="392.838" y="-233.5" font-family="Helvetica,sans-Serif" font-size="10.00">+ operator*=()</text>
</a>
</g>
</g>
<!-- Node25&#45;&gt;Node33 -->
<g id="edge5" class="edge"><title>Node25&#45;&gt;Node33</title>
<path fill="none" stroke="#404040" d="M245.872,-587.753C271.121,-583.603 317.613,-572.399 344.338,-544 385.365,-500.403 405.363,-435.403 415.105,-383.452"/>
<polygon fill="none" stroke="#404040" points="415.117,-383.383 412.219,-376.78 417.199,-371.565 420.097,-378.169 415.117,-383.383"/>
<text text-anchor="middle" x="398.838" y="-514" font-family="Helvetica,sans-Serif" font-size="10.00"> +X</text>
<text text-anchor="middle" x="398.838" y="-503" font-family="Helvetica,sans-Serif" font-size="10.00">+Y</text>
<text text-anchor="middle" x="398.838" y="-492" font-family="Helvetica,sans-Serif" font-size="10.00">+Z</text>
</g>
<!-- Node33&#45;&gt;Node1 -->
<g id="edge4" class="edge"><title>Node33&#45;&gt;Node1</title>
<path fill="none" stroke="#404040" d="M403.846,-226.483C395.919,-201.577 386.143,-173.698 375.338,-149 371.67,-140.616 367.683,-139.846 365.338,-131 362.031,-118.524 360.754,-104.728 360.541,-91.7647"/>
<polygon fill="none" stroke="#404040" points="360.542,-91.66 356.587,-85.6302 360.632,-79.6603 364.586,-85.6901 360.542,-91.66"/>
<text text-anchor="start" x="365.338" y="-123" font-family="Helvetica,sans-Serif" font-size="10.00"> +PositionForRudderDynamics</text>
<text text-anchor="middle" x="431.838" y="-112" font-family="Helvetica,sans-Serif" font-size="10.00">RelativeToRudderActor</text>
<text text-anchor="middle" x="431.838" y="-101" font-family="Helvetica,sans-Serif" font-size="10.00">+RelativeRightShipDir</text>
</g>
<!-- Node177 -->
<g id="node5" class="node"><title>Node177</title>
<g id="a_node5"><a xlink:title=" ">
<polygon fill="none" stroke="#bfbfbf" points="481.838,-270.5 481.838,-327.5 558.838,-327.5 558.838,-270.5 481.838,-270.5"/>
<text text-anchor="middle" x="520.338" y="-315.5" font-family="Helvetica,sans-Serif" font-size="10.00">unsigned char</text>
<polyline fill="none" stroke="#bfbfbf" points="481.838,-308.5 558.838,-308.5 "/>
<text text-anchor="middle" x="520.338" y="-296.5" font-family="Helvetica,sans-Serif" font-size="10.00"> </text>
<polyline fill="none" stroke="#bfbfbf" points="481.838,-289.5 558.838,-289.5 "/>
<text text-anchor="middle" x="520.338" y="-277.5" font-family="Helvetica,sans-Serif" font-size="10.00"> </text>
</a>
</g>
</g>
<!-- Node177&#45;&gt;Node1 -->
<g id="edge6" class="edge"><title>Node177&#45;&gt;Node1</title>
<path fill="none" stroke="#404040" d="M525.391,-270.318C531.38,-228.587 536.258,-149.028 498.338,-98 483.761,-78.3844 461.086,-65.4553 438.507,-56.9599"/>
<polygon fill="none" stroke="#404040" points="438.453,-56.9413 431.476,-58.7628 427.111,-53.0228 434.088,-51.2013 438.453,-56.9413"/>
<text text-anchor="middle" x="556.338" y="-123" font-family="Helvetica,sans-Serif" font-size="10.00"> +UnknownData01</text>
<text text-anchor="middle" x="556.338" y="-112" font-family="Helvetica,sans-Serif" font-size="10.00">+UnknownData02</text>
<text text-anchor="middle" x="556.338" y="-101" font-family="Helvetica,sans-Serif" font-size="10.00">+UnknownData00</text>
</g>
<!-- Node178 -->
<g id="node6" class="node"><title>Node178</title>
<g id="a_node6"><a xlink:href="a09107.html" target="_top" xlink:title=" ">
<polygon fill="none" stroke="red" points="576.838,-270.5 576.838,-327.5 745.838,-327.5 745.838,-270.5 576.838,-270.5"/>
<text text-anchor="middle" x="661.338" y="-315.5" font-family="Helvetica,sans-Serif" font-size="10.00">SDK::UBaseRudderDynamicsDesc</text>
<polyline fill="none" stroke="red" points="576.838,-308.5 745.838,-308.5 "/>
<text text-anchor="middle" x="661.338" y="-296.5" font-family="Helvetica,sans-Serif" font-size="10.00"> </text>
<polyline fill="none" stroke="red" points="576.838,-289.5 745.838,-289.5 "/>
<text text-anchor="start" x="584.838" y="-277.5" font-family="Helvetica,sans-Serif" font-size="10.00">+ StaticClass()</text>
</a>
</g>
</g>
<!-- Node178&#45;&gt;Node1 -->
<g id="edge8" class="edge"><title>Node178&#45;&gt;Node1</title>
<path fill="none" stroke="#404040" d="M661.11,-270.31C659.191,-227.092 648.942,-143.816 600.338,-98 577.167,-76.1584 499.14,-60.2435 439.08,-50.8676"/>
<polygon fill="none" stroke="#404040" points="438.81,-50.8267 432.277,-53.8795 426.946,-49.0231 433.48,-45.9703 438.81,-50.8267"/>
<text text-anchor="middle" x="678.338" y="-112" font-family="Helvetica,sans-Serif" font-size="10.00"> +RudderDynamicsDesc</text>
</g>
</g>
</svg>
        <g id="navigator" transform="translate(0 0)" fill="#404254">
                <rect fill="#f2f5e9" fill-opacity="0.5" stroke="#606060" stroke-width=".5" x="0" y="0" width="60" height="60"/>
                <use id="zoomplus" xlink:href="#zoomPlus" x="17" y="9" onmousedown="handleZoom(evt,'in')"/>
                <use id="zoomminus" xlink:href="#zoomMin" x="42" y="9" onmousedown="handleZoom(evt,'out')"/>
                <use id="reset" xlink:href="#resetDef" x="30" y="36" onmousedown="handleReset()"/>
                <g id="arrowUp" xlink:href="#dirArrow" transform="translate(30 24)" onmousedown="handlePan(0,-1)">
                  <use xlink:href="#rim" fill="#404040">
                        <set attributeName="fill" to="#808080" begin="arrowUp.mouseover" end="arrowUp.mouseout"/>
                  </use>
                  <path fill="none" stroke="white" stroke-width="1.5" d="M0,-3.0v7 M-2.5,-0.5L0,-3.0L2.5,-0.5"/>
                </g>
                <g id="arrowRight" xlink:href="#dirArrow" transform="rotate(90) translate(36 -43)" onmousedown="handlePan(1,0)">
                  <use xlink:href="#rim" fill="#404040">
                        <set attributeName="fill" to="#808080" begin="arrowRight.mouseover" end="arrowRight.mouseout"/>
                  </use>
                  <path fill="none" stroke="white" stroke-width="1.5" d="M0,-3.0v7 M-2.5,-0.5L0,-3.0L2.5,-0.5"/>
                </g>
                <g id="arrowDown" xlink:href="#dirArrow" transform="rotate(180) translate(-30 -48)" onmousedown="handlePan(0,1)">
                  <use xlink:href="#rim" fill="#404040">
                        <set attributeName="fill" to="#808080" begin="arrowDown.mouseover" end="arrowDown.mouseout"/>
                  </use>
                  <path fill="none" stroke="white" stroke-width="1.5" d="M0,-3.0v7 M-2.5,-0.5L0,-3.0L2.5,-0.5"/>
                </g>
                <g id="arrowLeft" xlink:href="#dirArrow" transform="rotate(270) translate(-36 17)" onmousedown="handlePan(-1,0)">
                  <use xlink:href="#rim" fill="#404040">
                        <set attributeName="fill" to="#808080" begin="arrowLeft.mouseover" end="arrowLeft.mouseout"/>
                  </use>
                  <path fill="none" stroke="white" stroke-width="1.5" d="M0,-3.0v7 M-2.5,-0.5L0,-3.0L2.5,-0.5"/>
                </g>
        </g>
        <svg viewBox="0 0 15 15" width="100%" height="30px" preserveAspectRatio="xMaxYMin meet">
         <g id="arrow_out" transform="scale(0.3 0.3)">
          <a xlink:href="a07813_org.svg" target="_base">
           <rect id="button" ry="5" rx="5" y="6" x="6" height="38" width="38"
                fill="#f2f5e9" fill-opacity="0.5" stroke="#606060" stroke-width="1.0"/>
           <path id="arrow"
             d="M 11.500037,31.436501 C 11.940474,20.09759 22.043105,11.32322 32.158766,21.979434 L 37.068811,17.246167 C 37.068811,17.246167 37.088388,32 37.088388,32 L 22.160133,31.978069 C 22.160133,31.978069 26.997745,27.140456 26.997745,27.140456 C 18.528582,18.264221 13.291696,25.230495 11.500037,31.436501 z"
             style="fill:#404040;"/>
          </a>
         </g>
        </svg>
</svg>
