<?xml version="1.0" encoding="UTF-8" standalone="no"?>
<!DOCTYPE svg PUBLIC "-//W3C//DTD SVG 1.1//EN"
 "http://www.w3.org/Graphics/SVG/1.1/DTD/svg11.dtd">
<!-- Generated by graphviz version 2.38.0 (20140413.2041)
 -->
<!-- Title: SDK::URotatingAudioSourceComponent Pages: 1 -->
<svg width="187pt" height="281pt"
 viewBox="0.00 0.00 187.00 281.00" xmlns="http://www.w3.org/2000/svg" xmlns:xlink="http://www.w3.org/1999/xlink">
<g id="graph0" class="graph" transform="scale(1 1) rotate(0) translate(4 277)">
<title>SDK::URotatingAudioSourceComponent</title>
<!-- Node1 -->
<g id="node1" class="node"><title>Node1</title>
<g id="a_node1"><a xlink:title=" ">
<polygon fill="#bfbfbf" stroke="black" points="19,-0.5 19,-145.5 160,-145.5 160,-0.5 19,-0.5"/>
<text text-anchor="start" x="27" y="-133.5" font-family="Helvetica,sans-Serif" font-size="10.00">SDK::URotatingAudioSource</text>
<text text-anchor="middle" x="89.5" y="-122.5" font-family="Helvetica,sans-Serif" font-size="10.00">Component</text>
<polyline fill="none" stroke="black" points="19,-115.5 160,-115.5 "/>
<text text-anchor="start" x="27" y="-103.5" font-family="Helvetica,sans-Serif" font-size="10.00">+ RotatingObjectPool</text>
<text text-anchor="start" x="27" y="-92.5" font-family="Helvetica,sans-Serif" font-size="10.00">+ PlayWwiseEvent</text>
<text text-anchor="start" x="27" y="-81.5" font-family="Helvetica,sans-Serif" font-size="10.00">+ StopWwiseEvent</text>
<text text-anchor="start" x="27" y="-70.5" font-family="Helvetica,sans-Serif" font-size="10.00">+ PitchRtpcName</text>
<text text-anchor="start" x="27" y="-59.5" font-family="Helvetica,sans-Serif" font-size="10.00">+ RollRtpcName</text>
<text text-anchor="start" x="27" y="-48.5" font-family="Helvetica,sans-Serif" font-size="10.00">+ YawRtpcName</text>
<text text-anchor="start" x="27" y="-37.5" font-family="Helvetica,sans-Serif" font-size="10.00">+ RtpcMax</text>
<text text-anchor="start" x="27" y="-26.5" font-family="Helvetica,sans-Serif" font-size="10.00">+ UnknownData00</text>
<polyline fill="none" stroke="black" points="19,-19.5 160,-19.5 "/>
<text text-anchor="start" x="27" y="-7.5" font-family="Helvetica,sans-Serif" font-size="10.00">+ StaticClass()</text>
</a>
</g>
</g>
<!-- Node2 -->
<g id="node2" class="node"><title>Node2</title>
<g id="a_node2"><a xlink:href="a26539.html" target="_top" xlink:title=" ">
<polygon fill="none" stroke="red" points="0,-182.5 0,-272.5 179,-272.5 179,-182.5 0,-182.5"/>
<text text-anchor="middle" x="89.5" y="-260.5" font-family="Helvetica,sans-Serif" font-size="10.00">SDK::URotatingMovementComponent</text>
<polyline fill="none" stroke="red" points="0,-253.5 179,-253.5 "/>
<text text-anchor="start" x="8" y="-241.5" font-family="Helvetica,sans-Serif" font-size="10.00">+ RotationRate</text>
<text text-anchor="start" x="8" y="-230.5" font-family="Helvetica,sans-Serif" font-size="10.00">+ PivotTranslation</text>
<text text-anchor="start" x="8" y="-219.5" font-family="Helvetica,sans-Serif" font-size="10.00">+ bRotationInLocalSpace</text>
<text text-anchor="start" x="8" y="-208.5" font-family="Helvetica,sans-Serif" font-size="10.00">+ UnknownData00</text>
<polyline fill="none" stroke="red" points="0,-201.5 179,-201.5 "/>
<text text-anchor="start" x="8" y="-189.5" font-family="Helvetica,sans-Serif" font-size="10.00">+ StaticClass()</text>
</a>
</g>
</g>
<!-- Node2&#45;&gt;Node1 -->
<g id="edge1" class="edge"><title>Node2&#45;&gt;Node1</title>
<path fill="none" stroke="midnightblue" d="M89.5,-172.13C89.5,-163.526 89.5,-154.516 89.5,-145.591"/>
<polygon fill="none" stroke="midnightblue" points="86.0001,-172.391 89.5,-182.391 93.0001,-172.391 86.0001,-172.391"/>
</g>
</g>
</svg>
