<?xml version="1.0" encoding="UTF-8" standalone="no"?>
<!DOCTYPE svg PUBLIC "-//W3C//DTD SVG 1.1//EN"
 "http://www.w3.org/Graphics/SVG/1.1/DTD/svg11.dtd">
<!-- Generated by graphviz version 2.38.0 (20140413.2041)
 -->
<!-- Title: SDK::USetMechanismActivationModeStepDesc Pages: 1 -->
<!--zoomable 364 -->
<svg id="main" version="1.1" xmlns="http://www.w3.org/2000/svg" xmlns:xlink="http://www.w3.org/1999/xlink" xml:space="preserve" onload="init(evt)">
<style type="text/css"><![CDATA[
.edge:hover path { stroke: red; }
.edge:hover polygon { stroke: red; fill: red; }
]]></style>
<script type="text/javascript"><![CDATA[
var edges = document.getElementsByTagName('g');
if (edges && edges.length) {
  for (var i=0;i<edges.length;i++) {
    if (edges[i].id.substr(0,4)=='edge') {
      edges[i].setAttribute('class','edge');
    }
  }
}
]]></script>
        <defs>
                <circle id="rim" cx="0" cy="0" r="7"/>
                <circle id="rim2" cx="0" cy="0" r="3.5"/>
                <g id="zoomPlus">
                        <use xlink:href="#rim" fill="#404040">
                                <set attributeName="fill" to="#808080" begin="zoomplus.mouseover" end="zoomplus.mouseout"/>
                        </use>
                        <path d="M-4,0h8M0,-4v8" fill="none" stroke="white" stroke-width="1.5" pointer-events="none"/>
                </g>
                <g id="zoomMin">
                        <use xlink:href="#rim" fill="#404040">
                                <set attributeName="fill" to="#808080" begin="zoomminus.mouseover" end="zoomminus.mouseout"/>
                        </use>
                        <path d="M-4,0h8" fill="none" stroke="white" stroke-width="1.5" pointer-events="none"/>
                </g>
                <g id="dirArrow">
                        <path fill="none" stroke="white" stroke-width="1.5" d="M0,-3.0v7 M-2.5,-0.5L0,-3.0L2.5,-0.5"/>
                </g>
               <g id="resetDef">
                       <use xlink:href="#rim2" fill="#404040">
                               <set attributeName="fill" to="#808080" begin="reset.mouseover" end="reset.mouseout"/>
                       </use>
               </g>
        </defs>

<script type="text/javascript">
var viewWidth = 595;
var viewHeight = 364;
var sectionId = 'dynsection-1';
</script>
<script xlink:href="svgpan.js"/>
<svg id="graph" class="graph">
<g id="viewport">
<title>SDK::USetMechanismActivationModeStepDesc</title>
<!-- Node1 -->
<g id="node1" class="node"><title>Node1</title>
<g id="a_node1"><a xlink:title=" ">
<polygon fill="#bfbfbf" stroke="black" points="226.709,-0.5 226.709,-68.5 383.709,-68.5 383.709,-0.5 226.709,-0.5"/>
<text text-anchor="start" x="234.709" y="-56.5" font-family="Helvetica,sans-Serif" font-size="10.00">SDK::USetMechanismActivation</text>
<text text-anchor="middle" x="305.209" y="-45.5" font-family="Helvetica,sans-Serif" font-size="10.00">ModeStepDesc</text>
<polyline fill="none" stroke="black" points="226.709,-38.5 383.709,-38.5 "/>
<text text-anchor="middle" x="305.209" y="-26.5" font-family="Helvetica,sans-Serif" font-size="10.00"> </text>
<polyline fill="none" stroke="black" points="226.709,-19.5 383.709,-19.5 "/>
<text text-anchor="start" x="234.709" y="-7.5" font-family="Helvetica,sans-Serif" font-size="10.00">+ StaticClass()</text>
</a>
</g>
</g>
<!-- Node2 -->
<g id="node2" class="node"><title>Node2</title>
<g id="a_node2"><a xlink:href="a34915.html" target="_top" xlink:title=" ">
<polygon fill="none" stroke="red" points="107.709,-155 107.709,-212 244.709,-212 244.709,-155 107.709,-155"/>
<text text-anchor="middle" x="176.209" y="-200" font-family="Helvetica,sans-Serif" font-size="10.00">SDK::UTaleQuestStepDesc</text>
<polyline fill="none" stroke="red" points="107.709,-193 244.709,-193 "/>
<text text-anchor="middle" x="176.209" y="-181" font-family="Helvetica,sans-Serif" font-size="10.00"> </text>
<polyline fill="none" stroke="red" points="107.709,-174 244.709,-174 "/>
<text text-anchor="start" x="115.709" y="-162" font-family="Helvetica,sans-Serif" font-size="10.00">+ StaticClass()</text>
</a>
</g>
</g>
<!-- Node2&#45;&gt;Node1 -->
<g id="edge1" class="edge"><title>Node2&#45;&gt;Node1</title>
<path fill="none" stroke="midnightblue" d="M207.298,-147.074C228.211,-123.243 255.596,-92.0359 276.086,-68.6873"/>
<polygon fill="none" stroke="midnightblue" points="204.439,-145.026 200.473,-154.85 209.7,-149.643 204.439,-145.026"/>
</g>
<!-- Node12 -->
<g id="node3" class="node"><title>Node12</title>
<g id="a_node3"><a xlink:title=" ">
<polygon fill="none" stroke="#bfbfbf" points="41.7094,-298.5 41.7094,-355.5 76.7094,-355.5 76.7094,-298.5 41.7094,-298.5"/>
<text text-anchor="middle" x="59.2094" y="-343.5" font-family="Helvetica,sans-Serif" font-size="10.00">char</text>
<polyline fill="none" stroke="#bfbfbf" points="41.7094,-336.5 76.7094,-336.5 "/>
<text text-anchor="middle" x="59.2094" y="-324.5" font-family="Helvetica,sans-Serif" font-size="10.00"> </text>
<polyline fill="none" stroke="#bfbfbf" points="41.7094,-317.5 76.7094,-317.5 "/>
<text text-anchor="middle" x="59.2094" y="-305.5" font-family="Helvetica,sans-Serif" font-size="10.00"> </text>
</a>
</g>
</g>
<!-- Node12&#45;&gt;Node1 -->
<g id="edge3" class="edge"><title>Node12&#45;&gt;Node1</title>
<path fill="none" stroke="#404040" d="M41.5055,-298.435C16.1634,-255.124 -23.0825,-170.467 18.2094,-116 42.0491,-84.5537 139.343,-62.005 214.11,-48.9132"/>
<polygon fill="none" stroke="#404040" points="214.543,-48.8392 219.782,-43.8843 226.371,-46.8147 221.132,-51.7696 214.543,-48.8392"/>
<text text-anchor="middle" x="58.2094" y="-181" font-family="Helvetica,sans-Serif" font-size="10.00"> +UnknownData00</text>
</g>
<!-- Node12&#45;&gt;Node2 -->
<g id="edge2" class="edge"><title>Node12&#45;&gt;Node2</title>
<path fill="none" stroke="#404040" d="M76.7255,-304.816C94.8938,-282.843 123.661,-248.053 145.597,-221.522"/>
<polygon fill="none" stroke="#404040" points="145.691,-221.409 146.432,-214.236 153.338,-212.161 152.597,-219.334 145.691,-221.409"/>
<text text-anchor="middle" x="144.209" y="-272" font-family="Helvetica,sans-Serif" font-size="10.00"> +UnknownData00</text>
</g>
<!-- Node15 -->
<g id="node4" class="node"><title>Node15</title>
<g id="a_node4"><a xlink:href="a25635.html" target="_top" xlink:title=" ">
<polygon fill="none" stroke="black" points="263.209,-116.5 263.209,-250.5 435.209,-250.5 435.209,-116.5 263.209,-116.5"/>
<text text-anchor="start" x="271.209" y="-238.5" font-family="Helvetica,sans-Serif" font-size="10.00">SDK::TEnumAsByte&lt; EMechanism</text>
<text text-anchor="middle" x="349.209" y="-227.5" font-family="Helvetica,sans-Serif" font-size="10.00">ActionActivationMode &gt;</text>
<polyline fill="none" stroke="black" points="263.209,-220.5 435.209,-220.5 "/>
<text text-anchor="middle" x="349.209" y="-208.5" font-family="Helvetica,sans-Serif" font-size="10.00"> </text>
<polyline fill="none" stroke="black" points="263.209,-201.5 435.209,-201.5 "/>
<text text-anchor="start" x="271.209" y="-189.5" font-family="Helvetica,sans-Serif" font-size="10.00">+ TEnumAsByte()</text>
<text text-anchor="start" x="271.209" y="-178.5" font-family="Helvetica,sans-Serif" font-size="10.00">+ TEnumAsByte()</text>
<text text-anchor="start" x="271.209" y="-167.5" font-family="Helvetica,sans-Serif" font-size="10.00">+ TEnumAsByte()</text>
<text text-anchor="start" x="271.209" y="-156.5" font-family="Helvetica,sans-Serif" font-size="10.00">+ TEnumAsByte()</text>
<text text-anchor="start" x="271.209" y="-145.5" font-family="Helvetica,sans-Serif" font-size="10.00">+ operator EMechanismAction</text>
<text text-anchor="start" x="271.209" y="-134.5" font-family="Helvetica,sans-Serif" font-size="10.00">ActivationMode()</text>
<text text-anchor="start" x="271.209" y="-123.5" font-family="Helvetica,sans-Serif" font-size="10.00">+ GetValue()</text>
</a>
</g>
</g>
<!-- Node15&#45;&gt;Node1 -->
<g id="edge4" class="edge"><title>Node15&#45;&gt;Node1</title>
<path fill="none" stroke="#404040" d="M329.398,-116.311C325.779,-104.222 322.081,-91.8677 318.7,-80.5721"/>
<polygon fill="none" stroke="#404040" points="318.616,-80.2895 313.063,-75.6885 315.175,-68.7934 320.727,-73.3944 318.616,-80.2895"/>
<text text-anchor="middle" x="362.209" y="-90" font-family="Helvetica,sans-Serif" font-size="10.00"> +ActivationMode</text>
</g>
<!-- Node16 -->
<g id="node5" class="node"><title>Node16</title>
<g id="a_node5"><a xlink:href="a12631.html" target="_top" xlink:title=" ">
<polygon fill="none" stroke="red" points="453.209,-155 453.209,-212 587.209,-212 587.209,-155 453.209,-155"/>
<text text-anchor="middle" x="520.209" y="-200" font-family="Helvetica,sans-Serif" font-size="10.00">SDK::FQuestVariableActor</text>
<polyline fill="none" stroke="red" points="453.209,-193 587.209,-193 "/>
<text text-anchor="middle" x="520.209" y="-181" font-family="Helvetica,sans-Serif" font-size="10.00"> </text>
<polyline fill="none" stroke="red" points="453.209,-174 587.209,-174 "/>
<text text-anchor="middle" x="520.209" y="-162" font-family="Helvetica,sans-Serif" font-size="10.00"> </text>
</a>
</g>
</g>
<!-- Node16&#45;&gt;Node1 -->
<g id="edge5" class="edge"><title>Node16&#45;&gt;Node1</title>
<path fill="none" stroke="#404040" d="M490.061,-154.993C476.323,-142.754 459.7,-128.35 444.209,-116 427.04,-102.311 422.889,-98.5427 404.209,-87 397.344,-82.7577 390.091,-78.5323 382.76,-74.4308"/>
<polygon fill="none" stroke="#404040" points="382.516,-74.2972 375.332,-74.9164 371.997,-68.5227 379.181,-67.9035 382.516,-74.2972"/>
<text text-anchor="middle" x="439.709" y="-90" font-family="Helvetica,sans-Serif" font-size="10.00"> +Action</text>
</g>
</g>
</svg>
        <g id="navigator" transform="translate(0 0)" fill="#404254">
                <rect fill="#f2f5e9" fill-opacity="0.5" stroke="#606060" stroke-width=".5" x="0" y="0" width="60" height="60"/>
                <use id="zoomplus" xlink:href="#zoomPlus" x="17" y="9" onmousedown="handleZoom(evt,'in')"/>
                <use id="zoomminus" xlink:href="#zoomMin" x="42" y="9" onmousedown="handleZoom(evt,'out')"/>
                <use id="reset" xlink:href="#resetDef" x="30" y="36" onmousedown="handleReset()"/>
                <g id="arrowUp" xlink:href="#dirArrow" transform="translate(30 24)" onmousedown="handlePan(0,-1)">
                  <use xlink:href="#rim" fill="#404040">
                        <set attributeName="fill" to="#808080" begin="arrowUp.mouseover" end="arrowUp.mouseout"/>
                  </use>
                  <path fill="none" stroke="white" stroke-width="1.5" d="M0,-3.0v7 M-2.5,-0.5L0,-3.0L2.5,-0.5"/>
                </g>
                <g id="arrowRight" xlink:href="#dirArrow" transform="rotate(90) translate(36 -43)" onmousedown="handlePan(1,0)">
                  <use xlink:href="#rim" fill="#404040">
                        <set attributeName="fill" to="#808080" begin="arrowRight.mouseover" end="arrowRight.mouseout"/>
                  </use>
                  <path fill="none" stroke="white" stroke-width="1.5" d="M0,-3.0v7 M-2.5,-0.5L0,-3.0L2.5,-0.5"/>
                </g>
                <g id="arrowDown" xlink:href="#dirArrow" transform="rotate(180) translate(-30 -48)" onmousedown="handlePan(0,1)">
                  <use xlink:href="#rim" fill="#404040">
                        <set attributeName="fill" to="#808080" begin="arrowDown.mouseover" end="arrowDown.mouseout"/>
                  </use>
                  <path fill="none" stroke="white" stroke-width="1.5" d="M0,-3.0v7 M-2.5,-0.5L0,-3.0L2.5,-0.5"/>
                </g>
                <g id="arrowLeft" xlink:href="#dirArrow" transform="rotate(270) translate(-36 17)" onmousedown="handlePan(-1,0)">
                  <use xlink:href="#rim" fill="#404040">
                        <set attributeName="fill" to="#808080" begin="arrowLeft.mouseover" end="arrowLeft.mouseout"/>
                  </use>
                  <path fill="none" stroke="white" stroke-width="1.5" d="M0,-3.0v7 M-2.5,-0.5L0,-3.0L2.5,-0.5"/>
                </g>
        </g>
        <svg viewBox="0 0 15 15" width="100%" height="30px" preserveAspectRatio="xMaxYMin meet">
         <g id="arrow_out" transform="scale(0.3 0.3)">
          <a xlink:href="a07921_org.svg" target="_base">
           <rect id="button" ry="5" rx="5" y="6" x="6" height="38" width="38"
                fill="#f2f5e9" fill-opacity="0.5" stroke="#606060" stroke-width="1.0"/>
           <path id="arrow"
             d="M 11.500037,31.436501 C 11.940474,20.09759 22.043105,11.32322 32.158766,21.979434 L 37.068811,17.246167 C 37.068811,17.246167 37.088388,32 37.088388,32 L 22.160133,31.978069 C 22.160133,31.978069 26.997745,27.140456 26.997745,27.140456 C 18.528582,18.264221 13.291696,25.230495 11.500037,31.436501 z"
             style="fill:#404040;"/>
          </a>
         </g>
        </svg>
</svg>
