<?xml version="1.0" encoding="UTF-8" standalone="no"?>
<!DOCTYPE svg PUBLIC "-//W3C//DTD SVG 1.1//EN"
 "http://www.w3.org/Graphics/SVG/1.1/DTD/svg11.dtd">
<!-- Generated by graphviz version 2.38.0 (20140413.2041)
 -->
<!-- Title: SDK::AShipwrightOneShot Pages: 1 -->
<svg width="1485pt" height="1022pt"
 viewBox="0.00 0.00 1485.29 1022.00" xmlns="http://www.w3.org/2000/svg" xmlns:xlink="http://www.w3.org/1999/xlink">
<g id="graph0" class="graph" transform="scale(1 1) rotate(0) translate(4 1018)">
<title>SDK::AShipwrightOneShot</title>
<!-- Node1 -->
<g id="node1" class="node"><title>Node1</title>
<g id="a_node1"><a xlink:title=" ">
<polygon fill="#bfbfbf" stroke="black" points="494.285,-0.5 494.285,-156.5 658.285,-156.5 658.285,-0.5 494.285,-0.5"/>
<text text-anchor="middle" x="576.285" y="-144.5" font-family="Helvetica,sans-Serif" font-size="10.00">SDK::AShipwrightOneShot</text>
<polyline fill="none" stroke="black" points="494.285,-137.5 658.285,-137.5 "/>
<text text-anchor="middle" x="576.285" y="-125.5" font-family="Helvetica,sans-Serif" font-size="10.00"> </text>
<polyline fill="none" stroke="black" points="494.285,-118.5 658.285,-118.5 "/>
<text text-anchor="start" x="502.285" y="-106.5" font-family="Helvetica,sans-Serif" font-size="10.00">+ TestForceExpireAllRestock</text>
<text text-anchor="start" x="502.285" y="-95.5" font-family="Helvetica,sans-Serif" font-size="10.00">Moratoriums()</text>
<text text-anchor="start" x="502.285" y="-84.5" font-family="Helvetica,sans-Serif" font-size="10.00">+ RestockShip()</text>
<text text-anchor="start" x="502.285" y="-73.5" font-family="Helvetica,sans-Serif" font-size="10.00">+ IsShipCloseAndSlowEnough</text>
<text text-anchor="start" x="502.285" y="-62.5" font-family="Helvetica,sans-Serif" font-size="10.00">ToRestock()</text>
<text text-anchor="start" x="502.285" y="-51.5" font-family="Helvetica,sans-Serif" font-size="10.00">+ GetTimeInSecondsUntilNext</text>
<text text-anchor="start" x="502.285" y="-40.5" font-family="Helvetica,sans-Serif" font-size="10.00">Restock()</text>
<text text-anchor="start" x="502.285" y="-29.5" font-family="Helvetica,sans-Serif" font-size="10.00">+ GetHasRestockMoratoriumData</text>
<text text-anchor="start" x="502.285" y="-18.5" font-family="Helvetica,sans-Serif" font-size="10.00">ForPlayerCrew()</text>
<text text-anchor="start" x="502.285" y="-7.5" font-family="Helvetica,sans-Serif" font-size="10.00">+ StaticClass()</text>
</a>
</g>
</g>
<!-- Node2 -->
<g id="node2" class="node"><title>Node2</title>
<g id="a_node2"><a xlink:href="a02487.html" target="_top" xlink:title=" ">
<polygon fill="none" stroke="red" points="240.285,-368.5 240.285,-480.5 368.285,-480.5 368.285,-368.5 240.285,-368.5"/>
<text text-anchor="middle" x="304.285" y="-468.5" font-family="Helvetica,sans-Serif" font-size="10.00">SDK::AInteractableObject</text>
<polyline fill="none" stroke="red" points="240.285,-461.5 368.285,-461.5 "/>
<text text-anchor="middle" x="304.285" y="-449.5" font-family="Helvetica,sans-Serif" font-size="10.00"> </text>
<polyline fill="none" stroke="red" points="240.285,-442.5 368.285,-442.5 "/>
<text text-anchor="start" x="248.285" y="-430.5" font-family="Helvetica,sans-Serif" font-size="10.00">+ ServerInteract()</text>
<text text-anchor="start" x="248.285" y="-419.5" font-family="Helvetica,sans-Serif" font-size="10.00">+ Blueprint_OnInteract</text>
<text text-anchor="start" x="248.285" y="-408.5" font-family="Helvetica,sans-Serif" font-size="10.00">_Server()</text>
<text text-anchor="start" x="248.285" y="-397.5" font-family="Helvetica,sans-Serif" font-size="10.00">+ Blueprint_OnInteract</text>
<text text-anchor="start" x="248.285" y="-386.5" font-family="Helvetica,sans-Serif" font-size="10.00">_Client()</text>
<text text-anchor="start" x="248.285" y="-375.5" font-family="Helvetica,sans-Serif" font-size="10.00">+ StaticClass()</text>
</a>
</g>
</g>
<!-- Node2&#45;&gt;Node1 -->
<g id="edge1" class="edge"><title>Node2&#45;&gt;Node1</title>
<path fill="none" stroke="midnightblue" d="M317.143,-358.347C330.841,-294.442 353.753,-202.682 377.285,-175 407.442,-139.526 453.798,-116.212 494.185,-101.507"/>
<polygon fill="none" stroke="midnightblue" points="313.673,-357.842 315.025,-368.35 320.521,-359.292 313.673,-357.842"/>
</g>
<!-- Node14 -->
<g id="node3" class="node"><title>Node14</title>
<g id="a_node3"><a xlink:title=" ">
<polygon fill="none" stroke="#bfbfbf" points="398.785,-956.5 398.785,-1013.5 433.785,-1013.5 433.785,-956.5 398.785,-956.5"/>
<text text-anchor="middle" x="416.285" y="-1001.5" font-family="Helvetica,sans-Serif" font-size="10.00">char</text>
<polyline fill="none" stroke="#bfbfbf" points="398.785,-994.5 433.785,-994.5 "/>
<text text-anchor="middle" x="416.285" y="-982.5" font-family="Helvetica,sans-Serif" font-size="10.00"> </text>
<polyline fill="none" stroke="#bfbfbf" points="398.785,-975.5 433.785,-975.5 "/>
<text text-anchor="middle" x="416.285" y="-963.5" font-family="Helvetica,sans-Serif" font-size="10.00"> </text>
</a>
</g>
</g>
<!-- Node14&#45;&gt;Node1 -->
<g id="edge8" class="edge"><title>Node14&#45;&gt;Node1</title>
<path fill="none" stroke="#404040" d="M412.618,-956.328C401.813,-868.945 373.455,-591.457 416.285,-368 433.83,-276.467 444.12,-250.843 498.285,-175 500.327,-172.142 502.426,-169.258 504.569,-166.363"/>
<polygon fill="none" stroke="#404040" points="504.777,-166.087 505.192,-158.888 511.996,-156.501 511.582,-163.7 504.777,-166.087"/>
<text text-anchor="middle" x="456.285" y="-422" font-family="Helvetica,sans-Serif" font-size="10.00"> +UnknownData00</text>
</g>
<!-- Node14&#45;&gt;Node2 -->
<g id="edge2" class="edge"><title>Node14&#45;&gt;Node2</title>
<path fill="none" stroke="#404040" d="M398.366,-983.067C371.166,-980.573 320.205,-971.432 297.285,-938 272.762,-902.228 289.651,-623.7 299.099,-492.913"/>
<polygon fill="none" stroke="#404040" points="299.114,-492.699 295.562,-486.423 299.988,-480.73 303.541,-487.006 299.114,-492.699"/>
<text text-anchor="middle" x="337.285" y="-880.5" font-family="Helvetica,sans-Serif" font-size="10.00"> +UnknownData01</text>
<text text-anchor="middle" x="337.285" y="-869.5" font-family="Helvetica,sans-Serif" font-size="10.00">+UnknownData00</text>
</g>
<!-- Node184 -->
<g id="node5" class="node"><title>Node184</title>
<g id="a_node5"><a xlink:href="a36295.html" target="_top" xlink:title=" ">
<polygon fill="none" stroke="red" points="568.285,-593 568.285,-705 684.285,-705 684.285,-593 568.285,-593"/>
<text text-anchor="middle" x="626.285" y="-693" font-family="Helvetica,sans-Serif" font-size="10.00">SDK::UWwiseEvent</text>
<polyline fill="none" stroke="red" points="568.285,-686 684.285,-686 "/>
<text text-anchor="middle" x="626.285" y="-674" font-family="Helvetica,sans-Serif" font-size="10.00"> </text>
<polyline fill="none" stroke="red" points="568.285,-667 684.285,-667 "/>
<text text-anchor="start" x="576.285" y="-655" font-family="Helvetica,sans-Serif" font-size="10.00">+ IsAudible()</text>
<text text-anchor="start" x="576.285" y="-644" font-family="Helvetica,sans-Serif" font-size="10.00">+ GetMaxAttenuation()</text>
<text text-anchor="start" x="576.285" y="-633" font-family="Helvetica,sans-Serif" font-size="10.00">+ GetDurationType()</text>
<text text-anchor="start" x="576.285" y="-622" font-family="Helvetica,sans-Serif" font-size="10.00">+ GetDurationMin()</text>
<text text-anchor="start" x="576.285" y="-611" font-family="Helvetica,sans-Serif" font-size="10.00">+ GetDurationMax()</text>
<text text-anchor="start" x="576.285" y="-600" font-family="Helvetica,sans-Serif" font-size="10.00">+ StaticClass()</text>
</a>
</g>
</g>
<!-- Node14&#45;&gt;Node184 -->
<g id="edge6" class="edge"><title>Node14&#45;&gt;Node184</title>
<path fill="none" stroke="#404040" d="M423.127,-956.317C424.554,-950.291 426.011,-943.941 427.285,-938 438.765,-884.477 412.128,-856.25 450.285,-817 476.294,-790.246 501.746,-820.437 532.285,-799 561.604,-778.42 583.771,-745.485 599.193,-715.807"/>
<polygon fill="none" stroke="#404040" points="599.205,-715.783 598.31,-708.627 604.57,-705.049 605.466,-712.204 599.205,-715.783"/>
<text text-anchor="middle" x="490.285" y="-880.5" font-family="Helvetica,sans-Serif" font-size="10.00"> +UnknownData01</text>
<text text-anchor="middle" x="490.285" y="-869.5" font-family="Helvetica,sans-Serif" font-size="10.00">+UnknownData00</text>
</g>
<!-- Node189 -->
<g id="node8" class="node"><title>Node189</title>
<g id="a_node8"><a xlink:href="a32639.html" target="_top" xlink:title=" ">
<polygon fill="none" stroke="red" points="39.7853,-210 39.7853,-344 188.785,-344 188.785,-210 39.7853,-210"/>
<text text-anchor="middle" x="114.285" y="-332" font-family="Helvetica,sans-Serif" font-size="10.00">SDK::UInteractableComponent</text>
<polyline fill="none" stroke="red" points="39.7853,-325 188.785,-325 "/>
<text text-anchor="middle" x="114.285" y="-313" font-family="Helvetica,sans-Serif" font-size="10.00"> </text>
<polyline fill="none" stroke="red" points="39.7853,-306 188.785,-306 "/>
<text text-anchor="start" x="47.7853" y="-294" font-family="Helvetica,sans-Serif" font-size="10.00">+ SetBoxOrigin()</text>
<text text-anchor="start" x="47.7853" y="-283" font-family="Helvetica,sans-Serif" font-size="10.00">+ SetBoxExtent()</text>
<text text-anchor="start" x="47.7853" y="-272" font-family="Helvetica,sans-Serif" font-size="10.00">+ GetInteractableArea()</text>
<text text-anchor="start" x="47.7853" y="-261" font-family="Helvetica,sans-Serif" font-size="10.00">+ GetBoxWorldOrigin()</text>
<text text-anchor="start" x="47.7853" y="-250" font-family="Helvetica,sans-Serif" font-size="10.00">+ GetBoxSphereRadius()</text>
<text text-anchor="start" x="47.7853" y="-239" font-family="Helvetica,sans-Serif" font-size="10.00">+ GetBoxOrigin()</text>
<text text-anchor="start" x="47.7853" y="-228" font-family="Helvetica,sans-Serif" font-size="10.00">+ GetBoxExtent()</text>
<text text-anchor="start" x="47.7853" y="-217" font-family="Helvetica,sans-Serif" font-size="10.00">+ StaticClass()</text>
</a>
</g>
</g>
<!-- Node14&#45;&gt;Node189 -->
<g id="edge11" class="edge"><title>Node14&#45;&gt;Node189</title>
<path fill="none" stroke="#404040" d="M398.619,-982.033C335.121,-973.886 118.017,-936.462 38.2853,-799 -43.1074,-658.674 24.8735,-462.524 74.2403,-355.387"/>
<polygon fill="none" stroke="#404040" points="74.3175,-355.222 73.2379,-348.092 79.4041,-344.353 80.4837,-351.483 74.3175,-355.222"/>
<text text-anchor="middle" x="95.7853" y="-674" font-family="Helvetica,sans-Serif" font-size="10.00"> +UnknownData01</text>
<text text-anchor="middle" x="95.7853" y="-663" font-family="Helvetica,sans-Serif" font-size="10.00">+UnknownData02</text>
<text text-anchor="middle" x="95.7853" y="-652" font-family="Helvetica,sans-Serif" font-size="10.00">+UnknownData03</text>
<text text-anchor="middle" x="95.7853" y="-641" font-family="Helvetica,sans-Serif" font-size="10.00">+ProxyForActorInteraction</text>
<text text-anchor="middle" x="95.7853" y="-630" font-family="Helvetica,sans-Serif" font-size="10.00">+MayBeGrouped</text>
<text text-anchor="middle" x="95.7853" y="-619" font-family="Helvetica,sans-Serif" font-size="10.00">+UnknownData00</text>
</g>
<!-- Node191 -->
<g id="node9" class="node"><title>Node191</title>
<g id="a_node9"><a xlink:href="a04155.html" target="_top" xlink:title=" ">
<polygon fill="none" stroke="red" points="713.785,-620.5 713.785,-677.5 874.785,-677.5 874.785,-620.5 713.785,-620.5"/>
<text text-anchor="middle" x="794.285" y="-665.5" font-family="Helvetica,sans-Serif" font-size="10.00">SDK::UCompanyNPCComponent</text>
<polyline fill="none" stroke="red" points="713.785,-658.5 874.785,-658.5 "/>
<text text-anchor="middle" x="794.285" y="-646.5" font-family="Helvetica,sans-Serif" font-size="10.00"> </text>
<polyline fill="none" stroke="red" points="713.785,-639.5 874.785,-639.5 "/>
<text text-anchor="start" x="721.785" y="-627.5" font-family="Helvetica,sans-Serif" font-size="10.00">+ StaticClass()</text>
</a>
</g>
</g>
<!-- Node14&#45;&gt;Node191 -->
<g id="edge15" class="edge"><title>Node14&#45;&gt;Node191</title>
<path fill="none" stroke="#404040" d="M434.015,-982.094C459.449,-978.369 505.905,-967.688 530.285,-938 565.026,-895.696 513.435,-854.53 553.285,-817 598.955,-773.99 639.851,-831.87 693.285,-799 734.777,-773.477 763.187,-723.792 779.063,-688.833"/>
<polygon fill="none" stroke="#404040" points="779.166,-688.596 777.9,-681.497 783.967,-677.598 785.232,-684.698 779.166,-688.596"/>
<text text-anchor="middle" x="593.285" y="-880.5" font-family="Helvetica,sans-Serif" font-size="10.00"> +UnknownData01</text>
<text text-anchor="middle" x="593.285" y="-869.5" font-family="Helvetica,sans-Serif" font-size="10.00">+UnknownData00</text>
</g>
<!-- Node119 -->
<g id="node10" class="node"><title>Node119</title>
<g id="a_node10"><a xlink:href="a27319.html" target="_top" xlink:title=" ">
<polygon fill="none" stroke="red" points="1059.29,-499.5 1059.29,-798.5 1217.29,-798.5 1217.29,-499.5 1059.29,-499.5"/>
<text text-anchor="middle" x="1138.29" y="-786.5" font-family="Helvetica,sans-Serif" font-size="10.00">SDK::USkeletalMeshComponent</text>
<polyline fill="none" stroke="red" points="1059.29,-779.5 1217.29,-779.5 "/>
<text text-anchor="start" x="1067.29" y="-767.5" font-family="Helvetica,sans-Serif" font-size="10.00">+ UnknownData00</text>
<text text-anchor="start" x="1067.29" y="-756.5" font-family="Helvetica,sans-Serif" font-size="10.00">+ bHasValidBodies</text>
<text text-anchor="start" x="1067.29" y="-745.5" font-family="Helvetica,sans-Serif" font-size="10.00">+ UnknownData04</text>
<text text-anchor="start" x="1067.29" y="-734.5" font-family="Helvetica,sans-Serif" font-size="10.00">+ UnknownData05</text>
<text text-anchor="start" x="1067.29" y="-723.5" font-family="Helvetica,sans-Serif" font-size="10.00">+ bBlendPhysics</text>
<text text-anchor="start" x="1067.29" y="-712.5" font-family="Helvetica,sans-Serif" font-size="10.00">+ bUpdateJointsFromAnimation</text>
<text text-anchor="start" x="1067.29" y="-701.5" font-family="Helvetica,sans-Serif" font-size="10.00">+ bCollideWithEnvironment</text>
<text text-anchor="start" x="1067.29" y="-690.5" font-family="Helvetica,sans-Serif" font-size="10.00">+ bCollideWithAttachedChildren</text>
<text text-anchor="start" x="1067.29" y="-679.5" font-family="Helvetica,sans-Serif" font-size="10.00">+ bClothMorphTarget</text>
<text text-anchor="start" x="1067.29" y="-668.5" font-family="Helvetica,sans-Serif" font-size="10.00">+ UnknownData06</text>
<text text-anchor="start" x="1067.29" y="-657.5" font-family="Helvetica,sans-Serif" font-size="10.00">and 12 more...</text>
<polyline fill="none" stroke="red" points="1059.29,-650.5 1217.29,-650.5 "/>
<text text-anchor="start" x="1067.29" y="-638.5" font-family="Helvetica,sans-Serif" font-size="10.00">+ UnbindClothFromMasterPose</text>
<text text-anchor="start" x="1067.29" y="-627.5" font-family="Helvetica,sans-Serif" font-size="10.00">Component()</text>
<text text-anchor="start" x="1067.29" y="-616.5" font-family="Helvetica,sans-Serif" font-size="10.00">+ Stop()</text>
<text text-anchor="start" x="1067.29" y="-605.5" font-family="Helvetica,sans-Serif" font-size="10.00">+ SetPosition()</text>
<text text-anchor="start" x="1067.29" y="-594.5" font-family="Helvetica,sans-Serif" font-size="10.00">+ SetPlayRate()</text>
<text text-anchor="start" x="1067.29" y="-583.5" font-family="Helvetica,sans-Serif" font-size="10.00">+ SetPhysicsBlendWeight()</text>
<text text-anchor="start" x="1067.29" y="-572.5" font-family="Helvetica,sans-Serif" font-size="10.00">+ SetMorphTarget()</text>
<text text-anchor="start" x="1067.29" y="-561.5" font-family="Helvetica,sans-Serif" font-size="10.00">+ SetEnablePhysicsBlending()</text>
<text text-anchor="start" x="1067.29" y="-550.5" font-family="Helvetica,sans-Serif" font-size="10.00">+ SetClothMaxDistanceScale()</text>
<text text-anchor="start" x="1067.29" y="-539.5" font-family="Helvetica,sans-Serif" font-size="10.00">+ SetAnimInstanceClass()</text>
<text text-anchor="start" x="1067.29" y="-528.5" font-family="Helvetica,sans-Serif" font-size="10.00">+ SetAnimationMode()</text>
<text text-anchor="start" x="1067.29" y="-517.5" font-family="Helvetica,sans-Serif" font-size="10.00">and 24 more...</text>
<text text-anchor="start" x="1067.29" y="-506.5" font-family="Helvetica,sans-Serif" font-size="10.00">+ StaticClass()</text>
</a>
</g>
</g>
<!-- Node14&#45;&gt;Node119 -->
<g id="edge18" class="edge"><title>Node14&#45;&gt;Node119</title>
<path fill="none" stroke="#404040" d="M433.846,-984.056C493.772,-983.867 688.853,-979.979 731.285,-938 769.984,-899.715 710.012,-853.625 750.285,-817 798.875,-772.812 988.848,-832.591 1045.29,-799 1046.65,-798.189 1048,-797.348 1049.32,-796.481"/>
<polygon fill="none" stroke="#404040" points="1049.47,-796.373 1051.98,-789.612 1059.19,-789.328 1056.68,-796.089 1049.47,-796.373"/>
<text text-anchor="middle" x="830.285" y="-930" font-family="Helvetica,sans-Serif" font-size="10.00"> +bNoSkeletonUpdate</text>
<text text-anchor="middle" x="830.285" y="-919" font-family="Helvetica,sans-Serif" font-size="10.00">+UnknownData01</text>
<text text-anchor="middle" x="830.285" y="-908" font-family="Helvetica,sans-Serif" font-size="10.00">+bLocalSpaceSimulation</text>
<text text-anchor="middle" x="830.285" y="-897" font-family="Helvetica,sans-Serif" font-size="10.00">+UnknownData10</text>
<text text-anchor="middle" x="830.285" y="-886" font-family="Helvetica,sans-Serif" font-size="10.00">+bForceRefpose</text>
<text text-anchor="middle" x="830.285" y="-875" font-family="Helvetica,sans-Serif" font-size="10.00">+bResetAfterTeleport</text>
<text text-anchor="middle" x="830.285" y="-864" font-family="Helvetica,sans-Serif" font-size="10.00">+bDisableClothSimulation</text>
<text text-anchor="middle" x="830.285" y="-853" font-family="Helvetica,sans-Serif" font-size="10.00">+bEnablePhysicsOnDedicatedServer</text>
<text text-anchor="middle" x="830.285" y="-842" font-family="Helvetica,sans-Serif" font-size="10.00">+UnknownData03</text>
<text text-anchor="middle" x="830.285" y="-831" font-family="Helvetica,sans-Serif" font-size="10.00">+UnknownData11</text>
<text text-anchor="middle" x="830.285" y="-820" font-family="Helvetica,sans-Serif" font-size="10.00">...</text>
</g>
<!-- Node193 -->
<g id="node11" class="node"><title>Node193</title>
<g id="a_node11"><a xlink:href="a06731.html" target="_top" xlink:title=" ">
<polygon fill="none" stroke="red" points="754.285,-204.5 754.285,-349.5 900.285,-349.5 900.285,-204.5 754.285,-204.5"/>
<text text-anchor="middle" x="827.285" y="-337.5" font-family="Helvetica,sans-Serif" font-size="10.00">SDK::UNPCDialogComponent</text>
<polyline fill="none" stroke="red" points="754.285,-330.5 900.285,-330.5 "/>
<text text-anchor="middle" x="827.285" y="-318.5" font-family="Helvetica,sans-Serif" font-size="10.00"> </text>
<polyline fill="none" stroke="red" points="754.285,-311.5 900.285,-311.5 "/>
<text text-anchor="start" x="762.285" y="-299.5" font-family="Helvetica,sans-Serif" font-size="10.00">+ SetParameterFromString()</text>
<text text-anchor="start" x="762.285" y="-288.5" font-family="Helvetica,sans-Serif" font-size="10.00">+ SetIntegerParameter()</text>
<text text-anchor="start" x="762.285" y="-277.5" font-family="Helvetica,sans-Serif" font-size="10.00">+ SetBooleanParameter()</text>
<text text-anchor="start" x="762.285" y="-266.5" font-family="Helvetica,sans-Serif" font-size="10.00">+ OnRep_Disabled()</text>
<text text-anchor="start" x="762.285" y="-255.5" font-family="Helvetica,sans-Serif" font-size="10.00">+ OnRep_DialogBlackboard()</text>
<text text-anchor="start" x="762.285" y="-244.5" font-family="Helvetica,sans-Serif" font-size="10.00">+ GetParameterAsString()</text>
<text text-anchor="start" x="762.285" y="-233.5" font-family="Helvetica,sans-Serif" font-size="10.00">+ GetIntegerParameter()</text>
<text text-anchor="start" x="762.285" y="-222.5" font-family="Helvetica,sans-Serif" font-size="10.00">+ GetBooleanParameter()</text>
<text text-anchor="start" x="762.285" y="-211.5" font-family="Helvetica,sans-Serif" font-size="10.00">+ StaticClass()</text>
</a>
</g>
</g>
<!-- Node14&#45;&gt;Node193 -->
<g id="edge22" class="edge"><title>Node14&#45;&gt;Node193</title>
<path fill="none" stroke="#404040" d="M416.627,-956.445C418.246,-865.155 427.453,-574.132 479.285,-499 546.308,-401.849 606.786,-424.729 710.285,-368 725.279,-359.782 730.181,-359.665 744.285,-350 744.389,-349.929 744.492,-349.858 744.595,-349.787"/>
<polygon fill="none" stroke="#404040" points="744.462,-349.882 747.016,-343.138 754.223,-342.902 751.67,-349.646 744.462,-349.882"/>
<text text-anchor="middle" x="519.285" y="-668.5" font-family="Helvetica,sans-Serif" font-size="10.00"> +UnknownData01</text>
<text text-anchor="middle" x="519.285" y="-657.5" font-family="Helvetica,sans-Serif" font-size="10.00">+UnknownData02</text>
<text text-anchor="middle" x="519.285" y="-646.5" font-family="Helvetica,sans-Serif" font-size="10.00">+UnknownData03</text>
<text text-anchor="middle" x="519.285" y="-635.5" font-family="Helvetica,sans-Serif" font-size="10.00">+UnknownData04</text>
<text text-anchor="middle" x="519.285" y="-624.5" font-family="Helvetica,sans-Serif" font-size="10.00">+UnknownData00</text>
</g>
<!-- Node6 -->
<g id="node4" class="node"><title>Node6</title>
<g id="a_node4"><a xlink:href="a25839.html" target="_top" xlink:title=" ">
<polygon fill="none" stroke="red" points="162.285,-593 162.285,-705 268.285,-705 268.285,-593 162.285,-593"/>
<text text-anchor="middle" x="215.285" y="-693" font-family="Helvetica,sans-Serif" font-size="10.00">SDK::FName</text>
<polyline fill="none" stroke="red" points="162.285,-686 268.285,-686 "/>
<text text-anchor="middle" x="215.285" y="-674" font-family="Helvetica,sans-Serif" font-size="10.00"> </text>
<polyline fill="none" stroke="red" points="162.285,-667 268.285,-667 "/>
<text text-anchor="start" x="170.285" y="-655" font-family="Helvetica,sans-Serif" font-size="10.00">+ FName()</text>
<text text-anchor="start" x="170.285" y="-644" font-family="Helvetica,sans-Serif" font-size="10.00">+ FName()</text>
<text text-anchor="start" x="170.285" y="-633" font-family="Helvetica,sans-Serif" font-size="10.00">+ FName()</text>
<text text-anchor="start" x="170.285" y="-622" font-family="Helvetica,sans-Serif" font-size="10.00">+ GetName()</text>
<text text-anchor="start" x="170.285" y="-611" font-family="Helvetica,sans-Serif" font-size="10.00">+ operator==()</text>
<text text-anchor="start" x="170.285" y="-600" font-family="Helvetica,sans-Serif" font-size="10.00">+ GetGlobalNames()</text>
</a>
</g>
</g>
<!-- Node6&#45;&gt;Node1 -->
<g id="edge3" class="edge"><title>Node6&#45;&gt;Node1</title>
<path fill="none" stroke="#404040" d="M213.734,-592.586C211.085,-480.454 207.948,-234.663 230.285,-204 287.998,-124.776 400.938,-95.7988 482.102,-85.2939"/>
<polygon fill="none" stroke="#404040" points="482.174,-85.2853 487.651,-80.5945 494.088,-83.846 488.611,-88.5367 482.174,-85.2853"/>
<text text-anchor="middle" x="272.785" y="-274.5" font-family="Helvetica,sans-Serif" font-size="10.00"> +InteractionSocket</text>
</g>
<!-- Node6&#45;&gt;Node189 -->
<g id="edge10" class="edge"><title>Node6&#45;&gt;Node189</title>
<path fill="none" stroke="#404040" d="M190.689,-592.881C177.159,-560.768 160.994,-519.195 150.285,-481 138.907,-440.417 130.379,-394.217 124.487,-356.154"/>
<polygon fill="none" stroke="#404040" points="124.459,-355.965 119.608,-350.63 122.667,-344.1 127.518,-349.435 124.459,-355.965"/>
<text text-anchor="middle" x="180.785" y="-422" font-family="Helvetica,sans-Serif" font-size="10.00"> +FeatureFlag</text>
</g>
<!-- Node184&#45;&gt;Node1 -->
<g id="edge4" class="edge"><title>Node184&#45;&gt;Node1</title>
<path fill="none" stroke="#404040" d="M593.733,-592.942C561.422,-534.838 514.08,-439.459 495.285,-350 481.944,-286.497 476.83,-266.209 495.285,-204 498.963,-191.603 504.309,-179.285 510.527,-167.491"/>
<polygon fill="none" stroke="#404040" points="510.629,-167.308 510.048,-160.12 516.46,-156.82 517.04,-164.008 510.629,-167.308"/>
<text text-anchor="middle" x="542.285" y="-280" font-family="Helvetica,sans-Serif" font-size="10.00"> +RestockMusicSting</text>
<text text-anchor="middle" x="542.285" y="-269" font-family="Helvetica,sans-Serif" font-size="10.00">+RestockSFX</text>
</g>
<!-- Node184&#45;&gt;Node193 -->
<g id="edge20" class="edge"><title>Node184&#45;&gt;Node193</title>
<path fill="none" stroke="#404040" d="M654.66,-592.98C669.309,-564.786 687.57,-529.96 704.285,-499 729.137,-452.97 757.495,-401.923 780.715,-360.495"/>
<polygon fill="none" stroke="#404040" points="780.785,-360.37 780.232,-353.18 786.656,-349.905 787.209,-357.095 780.785,-360.37"/>
<text text-anchor="middle" x="825.785" y="-433" font-family="Helvetica,sans-Serif" font-size="10.00"> +NpcDialogueBridge</text>
<text text-anchor="middle" x="825.785" y="-422" font-family="Helvetica,sans-Serif" font-size="10.00">+NpcDialogueWelcome</text>
<text text-anchor="middle" x="825.785" y="-411" font-family="Helvetica,sans-Serif" font-size="10.00">+NpcDialogueGoodbye</text>
</g>
<!-- Node27 -->
<g id="node6" class="node"><title>Node27</title>
<g id="a_node6"><a xlink:title=" ">
<polygon fill="none" stroke="#bfbfbf" points="1064.79,-956.5 1064.79,-1013.5 1099.79,-1013.5 1099.79,-956.5 1064.79,-956.5"/>
<text text-anchor="middle" x="1082.29" y="-1001.5" font-family="Helvetica,sans-Serif" font-size="10.00">float</text>
<polyline fill="none" stroke="#bfbfbf" points="1064.79,-994.5 1099.79,-994.5 "/>
<text text-anchor="middle" x="1082.29" y="-982.5" font-family="Helvetica,sans-Serif" font-size="10.00"> </text>
<polyline fill="none" stroke="#bfbfbf" points="1064.79,-975.5 1099.79,-975.5 "/>
<text text-anchor="middle" x="1082.29" y="-963.5" font-family="Helvetica,sans-Serif" font-size="10.00"> </text>
</a>
</g>
</g>
<!-- Node27&#45;&gt;Node1 -->
<g id="edge12" class="edge"><title>Node27&#45;&gt;Node1</title>
<path fill="none" stroke="#404040" d="M1099.94,-984.902C1133.24,-985.514 1204.88,-981.416 1237.29,-938 1433.08,-675.662 1401.11,-441.926 1176.29,-204 1108.21,-131.961 821.376,-98.8335 670.291,-86.1377"/>
<polygon fill="none" stroke="#404040" points="670.281,-86.137 663.973,-89.6304 658.322,-85.1508 664.63,-81.6574 670.281,-86.137"/>
<text text-anchor="middle" x="1412.79" y="-433" font-family="Helvetica,sans-Serif" font-size="10.00"> +MaxAntiCheatInteractorDist</text>
<text text-anchor="middle" x="1412.79" y="-422" font-family="Helvetica,sans-Serif" font-size="10.00">+RestockIntervalInSeconds</text>
<text text-anchor="middle" x="1412.79" y="-411" font-family="Helvetica,sans-Serif" font-size="10.00">+MaxShipSpeedXY</text>
</g>
<!-- Node27&#45;&gt;Node184 -->
<g id="edge5" class="edge"><title>Node27&#45;&gt;Node184</title>
<path fill="none" stroke="#404040" d="M1064.59,-983.378C987.758,-980.509 685.588,-967.413 656.285,-938 641.025,-922.682 632.727,-797.876 628.925,-717.664"/>
<polygon fill="none" stroke="#404040" points="628.903,-717.184 624.632,-711.374 628.353,-705.197 632.624,-711.007 628.903,-717.184"/>
<text text-anchor="middle" x="693.785" y="-886" font-family="Helvetica,sans-Serif" font-size="10.00"> +DurationMin</text>
<text text-anchor="middle" x="693.785" y="-875" font-family="Helvetica,sans-Serif" font-size="10.00">+DurationMax</text>
<text text-anchor="middle" x="693.785" y="-864" font-family="Helvetica,sans-Serif" font-size="10.00">+MaxAttenuation</text>
</g>
<!-- Node27&#45;&gt;Node191 -->
<g id="edge14" class="edge"><title>Node27&#45;&gt;Node191</title>
<path fill="none" stroke="#404040" d="M1064.5,-983.869C1033.66,-982.617 970.413,-975.337 937.285,-938 900.955,-897.053 943.701,-863.166 914.285,-817 906.928,-805.453 898.69,-808.951 889.285,-799 857.712,-765.592 830.554,-720.249 813.459,-688.386"/>
<polygon fill="none" stroke="#404040" points="813.433,-688.337 807.098,-684.892 807.841,-677.719 814.176,-681.164 813.433,-688.337"/>
<text text-anchor="middle" x="1002.79" y="-875" font-family="Helvetica,sans-Serif" font-size="10.00"> +HoldToHandInBootyDuration</text>
</g>
<!-- Node27&#45;&gt;Node119 -->
<g id="edge17" class="edge"><title>Node27&#45;&gt;Node119</title>
<path fill="none" stroke="#404040" d="M1089.28,-956.348C1090.69,-950.32 1092.11,-943.961 1093.29,-938 1101.4,-896.904 1108.97,-852.274 1115.5,-810.692"/>
<polygon fill="none" stroke="#404040" points="1115.51,-810.619 1112.48,-804.075 1117.36,-798.762 1120.39,-805.307 1115.51,-810.619"/>
<text text-anchor="middle" x="1174.79" y="-897" font-family="Helvetica,sans-Serif" font-size="10.00"> +ClothBlendWeight</text>
<text text-anchor="middle" x="1174.79" y="-886" font-family="Helvetica,sans-Serif" font-size="10.00">+TeleportDistanceThreshold</text>
<text text-anchor="middle" x="1174.79" y="-875" font-family="Helvetica,sans-Serif" font-size="10.00">+LastPoseTickTime</text>
<text text-anchor="middle" x="1174.79" y="-864" font-family="Helvetica,sans-Serif" font-size="10.00">+GlobalAnimRateScale</text>
<text text-anchor="middle" x="1174.79" y="-853" font-family="Helvetica,sans-Serif" font-size="10.00">+TeleportRotationThreshold</text>
</g>
<!-- Node27&#45;&gt;Node193 -->
<g id="edge21" class="edge"><title>Node27&#45;&gt;Node193</title>
<path fill="none" stroke="#404040" d="M1089.38,-956.387C1097.07,-919.353 1103.91,-853.984 1068.29,-817 1022.31,-769.278 966.413,-846.57 920.285,-799 853.338,-729.96 911.11,-459.427 881.285,-368 880.502,-365.598 879.644,-363.192 878.724,-360.789"/>
<polygon fill="none" stroke="#404040" points="878.667,-360.653 872.646,-356.685 873.993,-349.601 880.014,-353.569 878.667,-360.653"/>
<text text-anchor="middle" x="985.285" y="-646.5" font-family="Helvetica,sans-Serif" font-size="10.00"> +DialogueInputFocusTimeout</text>
</g>
<!-- Node188 -->
<g id="node7" class="node"><title>Node188</title>
<g id="a_node7"><a xlink:href="a25823.html" target="_top" xlink:title=" ">
<polygon fill="none" stroke="black" points="598.785,-221 598.785,-333 735.785,-333 735.785,-221 598.785,-221"/>
<text text-anchor="start" x="606.785" y="-321" font-family="Helvetica,sans-Serif" font-size="10.00">SDK::TArray&lt; struct</text>
<text text-anchor="middle" x="667.285" y="-310" font-family="Helvetica,sans-Serif" font-size="10.00"> SDK::FShipRestockData &gt;</text>
<polyline fill="none" stroke="black" points="598.785,-303 735.785,-303 "/>
<text text-anchor="middle" x="667.285" y="-291" font-family="Helvetica,sans-Serif" font-size="10.00"> </text>
<polyline fill="none" stroke="black" points="598.785,-284 735.785,-284 "/>
<text text-anchor="start" x="606.785" y="-272" font-family="Helvetica,sans-Serif" font-size="10.00">+ TArray()</text>
<text text-anchor="start" x="606.785" y="-261" font-family="Helvetica,sans-Serif" font-size="10.00">+ Num()</text>
<text text-anchor="start" x="606.785" y="-250" font-family="Helvetica,sans-Serif" font-size="10.00">+ operator[]()</text>
<text text-anchor="start" x="606.785" y="-239" font-family="Helvetica,sans-Serif" font-size="10.00">+ operator[]()</text>
<text text-anchor="start" x="606.785" y="-228" font-family="Helvetica,sans-Serif" font-size="10.00">+ IsValidIndex()</text>
</a>
</g>
</g>
<!-- Node188&#45;&gt;Node1 -->
<g id="edge7" class="edge"><title>Node188&#45;&gt;Node1</title>
<path fill="none" stroke="#404040" d="M641.695,-220.741C634.076,-204.29 625.53,-185.836 617.192,-167.831"/>
<polygon fill="none" stroke="#404040" points="617.08,-167.589 610.929,-163.826 612.037,-156.7 618.188,-160.464 617.08,-167.589"/>
<text text-anchor="middle" x="667.785" y="-178" font-family="Helvetica,sans-Serif" font-size="10.00"> +ShipRestockData</text>
</g>
<!-- Node189&#45;&gt;Node1 -->
<g id="edge9" class="edge"><title>Node189&#45;&gt;Node1</title>
<path fill="none" stroke="#404040" d="M110.544,-209.809C112.819,-196.991 117.534,-184.585 126.285,-175 173.159,-123.662 364.383,-97.9832 481.954,-86.8068"/>
<polygon fill="none" stroke="#404040" points="482.201,-86.7839 487.805,-82.2462 494.15,-85.6742 488.545,-90.2119 482.201,-86.7839"/>
<text text-anchor="middle" x="168.785" y="-178" font-family="Helvetica,sans-Serif" font-size="10.00"> +InteractionRegion</text>
</g>
<!-- Node191&#45;&gt;Node1 -->
<g id="edge13" class="edge"><title>Node191&#45;&gt;Node1</title>
<path fill="none" stroke="#404040" d="M811.641,-620.397C831.221,-588.117 862.745,-532.524 881.285,-481 923.182,-364.57 978.534,-306.547 909.285,-204 856.826,-126.315 749.408,-96.9863 670.705,-85.9798"/>
<polygon fill="none" stroke="#404040" points="670.232,-85.9182 663.765,-89.1085 658.333,-84.366 664.8,-81.1757 670.232,-85.9182"/>
<text text-anchor="middle" x="1002.79" y="-274.5" font-family="Helvetica,sans-Serif" font-size="10.00"> +CompanyNPCComponent</text>
</g>
<!-- Node119&#45;&gt;Node1 -->
<g id="edge16" class="edge"><title>Node119&#45;&gt;Node1</title>
<path fill="none" stroke="#404040" d="M1153.31,-499.495C1154.59,-403.66 1139.18,-282.651 1067.29,-204 1014.48,-146.227 797.71,-108.602 670.531,-91.039"/>
<polygon fill="none" stroke="#404040" points="670.402,-91.0214 663.917,-94.1751 658.512,-89.4019 664.997,-86.2483 670.402,-91.0214"/>
<text text-anchor="middle" x="1155.29" y="-274.5" font-family="Helvetica,sans-Serif" font-size="10.00"> +Mesh</text>
</g>
<!-- Node193&#45;&gt;Node1 -->
<g id="edge19" class="edge"><title>Node193&#45;&gt;Node1</title>
<path fill="none" stroke="#404040" d="M754.262,-208.369C741.188,-196.946 727.512,-185.423 714.285,-175 699.83,-163.61 684.107,-152.026 668.622,-141.039"/>
<polygon fill="none" stroke="#404040" points="668.309,-140.819 661.1,-140.637 658.496,-133.912 665.705,-134.094 668.309,-140.819"/>
<text text-anchor="middle" x="780.285" y="-178" font-family="Helvetica,sans-Serif" font-size="10.00"> +NPCDialogComponent</text>
</g>
</g>
</svg>
