<?xml version="1.0" encoding="UTF-8" standalone="no"?>
<!DOCTYPE svg PUBLIC "-//W3C//DTD SVG 1.1//EN"
 "http://www.w3.org/Graphics/SVG/1.1/DTD/svg11.dtd">
<!-- Generated by graphviz version 2.38.0 (20140413.2041)
 -->
<!-- Title: SDK::USkeletonFortAIToggler Pages: 1 -->
<svg width="448pt" height="270pt"
 viewBox="0.00 0.00 448.00 270.00" xmlns="http://www.w3.org/2000/svg" xmlns:xlink="http://www.w3.org/1999/xlink">
<g id="graph0" class="graph" transform="scale(1 1) rotate(0) translate(4 266)">
<title>SDK::USkeletonFortAIToggler</title>
<!-- Node1 -->
<g id="node1" class="node"><title>Node1</title>
<g id="a_node1"><a xlink:title=" ">
<polygon fill="#bfbfbf" stroke="black" points="157,-0.5 157,-57.5 303,-57.5 303,-0.5 157,-0.5"/>
<text text-anchor="middle" x="230" y="-45.5" font-family="Helvetica,sans-Serif" font-size="10.00">SDK::USkeletonFortAIToggler</text>
<polyline fill="none" stroke="black" points="157,-38.5 303,-38.5 "/>
<text text-anchor="middle" x="230" y="-26.5" font-family="Helvetica,sans-Serif" font-size="10.00"> </text>
<polyline fill="none" stroke="black" points="157,-19.5 303,-19.5 "/>
<text text-anchor="start" x="165" y="-7.5" font-family="Helvetica,sans-Serif" font-size="10.00">+ StaticClass()</text>
</a>
</g>
</g>
<!-- Node2 -->
<g id="node2" class="node"><title>Node2</title>
<g id="a_node2"><a xlink:href="a26095.html" target="_top" xlink:title=" ">
<polygon fill="none" stroke="red" points="0,-105.5 0,-261.5 112,-261.5 112,-105.5 0,-105.5"/>
<text text-anchor="middle" x="56" y="-249.5" font-family="Helvetica,sans-Serif" font-size="10.00">SDK::UObject</text>
<polyline fill="none" stroke="red" points="0,-242.5 112,-242.5 "/>
<text text-anchor="middle" x="56" y="-230.5" font-family="Helvetica,sans-Serif" font-size="10.00"> </text>
<polyline fill="none" stroke="red" points="0,-223.5 112,-223.5 "/>
<text text-anchor="start" x="8" y="-211.5" font-family="Helvetica,sans-Serif" font-size="10.00">+ GetName()</text>
<text text-anchor="start" x="8" y="-200.5" font-family="Helvetica,sans-Serif" font-size="10.00">+ GetFullName()</text>
<text text-anchor="start" x="8" y="-189.5" font-family="Helvetica,sans-Serif" font-size="10.00">+ IsA()</text>
<text text-anchor="start" x="8" y="-178.5" font-family="Helvetica,sans-Serif" font-size="10.00">+ ProcessEvent()</text>
<text text-anchor="start" x="8" y="-167.5" font-family="Helvetica,sans-Serif" font-size="10.00">+ ExecuteUbergraph()</text>
<text text-anchor="start" x="8" y="-156.5" font-family="Helvetica,sans-Serif" font-size="10.00">+ StaticClass()</text>
<text text-anchor="start" x="8" y="-145.5" font-family="Helvetica,sans-Serif" font-size="10.00">+ GetGlobalObjects()</text>
<text text-anchor="start" x="8" y="-134.5" font-family="Helvetica,sans-Serif" font-size="10.00">+ FindObject()</text>
<text text-anchor="start" x="8" y="-123.5" font-family="Helvetica,sans-Serif" font-size="10.00">+ FindClass()</text>
<text text-anchor="start" x="8" y="-112.5" font-family="Helvetica,sans-Serif" font-size="10.00">+ GetObjectCasted()</text>
</a>
</g>
</g>
<!-- Node2&#45;&gt;Node1 -->
<g id="edge1" class="edge"><title>Node2&#45;&gt;Node1</title>
<path fill="none" stroke="midnightblue" d="M115.508,-97.5225C122.626,-89.7908 130.166,-82.4547 138,-76 146.269,-69.1869 155.716,-63.0405 165.334,-57.6227"/>
<polygon fill="none" stroke="midnightblue" points="112.562,-95.5685 108.534,-105.368 117.793,-100.219 112.562,-95.5685"/>
</g>
<!-- Node2&#45;&gt;Node1 -->
<g id="edge3" class="edge"><title>Node2&#45;&gt;Node1</title>
<path fill="none" stroke="#404040" d="M112.199,-129.395C130.958,-112.077 152.143,-92.9518 172,-76 176.125,-72.4784 180.467,-68.8678 184.841,-65.2932"/>
<polygon fill="none" stroke="#404040" points="185.062,-65.114 187.217,-58.2322 194.398,-57.5738 192.243,-64.4556 185.062,-65.114"/>
<text text-anchor="middle" x="206.5" y="-79" font-family="Helvetica,sans-Serif" font-size="10.00"> +WorldContext</text>
</g>
<!-- Node2&#45;&gt;Node2 -->
<g id="edge2" class="edge"><title>Node2&#45;&gt;Node2</title>
<path fill="none" stroke="#404040" d="M112.146,-201.643C122.622,-199.409 130,-193.361 130,-183.5 130,-177.799 127.534,-173.372 123.429,-170.221"/>
<polygon fill="none" stroke="#404040" points="123.166,-170.107 116.073,-171.405 112.146,-165.357 119.239,-164.059 123.166,-170.107"/>
<text text-anchor="middle" x="147" y="-181" font-family="Helvetica,sans-Serif" font-size="10.00"> +Outer</text>
</g>
<!-- Node13 -->
<g id="node3" class="node"><title>Node13</title>
<g id="a_node3"><a xlink:href="a25823.html" target="_top" xlink:title=" ">
<polygon fill="none" stroke="black" points="182,-127.5 182,-239.5 370,-239.5 370,-127.5 182,-127.5"/>
<text text-anchor="start" x="190" y="-227.5" font-family="Helvetica,sans-Serif" font-size="10.00">SDK::TArray&lt; struct</text>
<text text-anchor="middle" x="276" y="-216.5" font-family="Helvetica,sans-Serif" font-size="10.00"> SDK::FNamedAITrackerAndSpawner &gt;</text>
<polyline fill="none" stroke="black" points="182,-209.5 370,-209.5 "/>
<text text-anchor="middle" x="276" y="-197.5" font-family="Helvetica,sans-Serif" font-size="10.00"> </text>
<polyline fill="none" stroke="black" points="182,-190.5 370,-190.5 "/>
<text text-anchor="start" x="190" y="-178.5" font-family="Helvetica,sans-Serif" font-size="10.00">+ TArray()</text>
<text text-anchor="start" x="190" y="-167.5" font-family="Helvetica,sans-Serif" font-size="10.00">+ Num()</text>
<text text-anchor="start" x="190" y="-156.5" font-family="Helvetica,sans-Serif" font-size="10.00">+ operator[]()</text>
<text text-anchor="start" x="190" y="-145.5" font-family="Helvetica,sans-Serif" font-size="10.00">+ operator[]()</text>
<text text-anchor="start" x="190" y="-134.5" font-family="Helvetica,sans-Serif" font-size="10.00">+ IsValidIndex()</text>
</a>
</g>
</g>
<!-- Node13&#45;&gt;Node1 -->
<g id="edge4" class="edge"><title>Node13&#45;&gt;Node1</title>
<path fill="none" stroke="#404040" d="M259.393,-127.444C253.58,-108.173 247.176,-86.9406 241.833,-69.2276"/>
<polygon fill="none" stroke="#404040" points="241.789,-69.0832 236.227,-64.494 238.324,-57.5945 243.886,-62.1837 241.789,-69.0832"/>
<text text-anchor="middle" x="284.5" y="-79" font-family="Helvetica,sans-Serif" font-size="10.00"> +PlayerTrackers</text>
</g>
<!-- Node11 -->
<g id="node4" class="node"><title>Node11</title>
<g id="a_node4"><a xlink:title=" ">
<polygon fill="none" stroke="#bfbfbf" points="388.5,-155 388.5,-212 423.5,-212 423.5,-155 388.5,-155"/>
<text text-anchor="middle" x="406" y="-200" font-family="Helvetica,sans-Serif" font-size="10.00">char</text>
<polyline fill="none" stroke="#bfbfbf" points="388.5,-193 423.5,-193 "/>
<text text-anchor="middle" x="406" y="-181" font-family="Helvetica,sans-Serif" font-size="10.00"> </text>
<polyline fill="none" stroke="#bfbfbf" points="388.5,-174 423.5,-174 "/>
<text text-anchor="middle" x="406" y="-162" font-family="Helvetica,sans-Serif" font-size="10.00"> </text>
</a>
</g>
</g>
<!-- Node11&#45;&gt;Node1 -->
<g id="edge5" class="edge"><title>Node11&#45;&gt;Node1</title>
<path fill="none" stroke="#404040" d="M401.516,-154.93C397.746,-138.899 390.97,-119.135 379,-105 361.873,-84.7768 337.953,-69.4284 314.283,-58.0537"/>
<polygon fill="none" stroke="#404040" points="314.002,-57.9255 306.883,-59.0743 303.084,-52.9448 310.203,-51.7959 314.002,-57.9255"/>
<text text-anchor="middle" x="400" y="-79" font-family="Helvetica,sans-Serif" font-size="10.00"> +UnknownData00</text>
</g>
</g>
</svg>
