<?xml version="1.0" encoding="UTF-8" standalone="no"?>
<!DOCTYPE svg PUBLIC "-//W3C//DTD SVG 1.1//EN"
 "http://www.w3.org/Graphics/SVG/1.1/DTD/svg11.dtd">
<!-- Generated by graphviz version 2.38.0 (20140413.2041)
 -->
<!-- Title: SDK::USicknessComponent Pages: 1 -->
<!--zoomable 727 -->
<svg id="main" version="1.1" xmlns="http://www.w3.org/2000/svg" xmlns:xlink="http://www.w3.org/1999/xlink" xml:space="preserve" onload="init(evt)">
<style type="text/css"><![CDATA[
.edge:hover path { stroke: red; }
.edge:hover polygon { stroke: red; fill: red; }
]]></style>
<script type="text/javascript"><![CDATA[
var edges = document.getElementsByTagName('g');
if (edges && edges.length) {
  for (var i=0;i<edges.length;i++) {
    if (edges[i].id.substr(0,4)=='edge') {
      edges[i].setAttribute('class','edge');
    }
  }
}
]]></script>
        <defs>
                <circle id="rim" cx="0" cy="0" r="7"/>
                <circle id="rim2" cx="0" cy="0" r="3.5"/>
                <g id="zoomPlus">
                        <use xlink:href="#rim" fill="#404040">
                                <set attributeName="fill" to="#808080" begin="zoomplus.mouseover" end="zoomplus.mouseout"/>
                        </use>
                        <path d="M-4,0h8M0,-4v8" fill="none" stroke="white" stroke-width="1.5" pointer-events="none"/>
                </g>
                <g id="zoomMin">
                        <use xlink:href="#rim" fill="#404040">
                                <set attributeName="fill" to="#808080" begin="zoomminus.mouseover" end="zoomminus.mouseout"/>
                        </use>
                        <path d="M-4,0h8" fill="none" stroke="white" stroke-width="1.5" pointer-events="none"/>
                </g>
                <g id="dirArrow">
                        <path fill="none" stroke="white" stroke-width="1.5" d="M0,-3.0v7 M-2.5,-0.5L0,-3.0L2.5,-0.5"/>
                </g>
               <g id="resetDef">
                       <use xlink:href="#rim2" fill="#404040">
                               <set attributeName="fill" to="#808080" begin="reset.mouseover" end="reset.mouseout"/>
                       </use>
               </g>
        </defs>

<script type="text/javascript">
var viewWidth = 799;
var viewHeight = 727;
var sectionId = 'dynsection-1';
</script>
<script xlink:href="svgpan.js"/>
<svg id="graph" class="graph">
<g id="viewport">
<title>SDK::USicknessComponent</title>
<!-- Node1 -->
<g id="node1" class="node"><title>Node1</title>
<g id="a_node1"><a xlink:title=" ">
<polygon fill="#bfbfbf" stroke="black" points="294.169,-0.5 294.169,-101.5 455.169,-101.5 455.169,-0.5 294.169,-0.5"/>
<text text-anchor="middle" x="374.669" y="-89.5" font-family="Helvetica,sans-Serif" font-size="10.00">SDK::USicknessComponent</text>
<polyline fill="none" stroke="black" points="294.169,-82.5 455.169,-82.5 "/>
<text text-anchor="middle" x="374.669" y="-70.5" font-family="Helvetica,sans-Serif" font-size="10.00"> </text>
<polyline fill="none" stroke="black" points="294.169,-63.5 455.169,-63.5 "/>
<text text-anchor="start" x="302.169" y="-51.5" font-family="Helvetica,sans-Serif" font-size="10.00">+ OnRep_SicknessScreenEffect</text>
<text text-anchor="start" x="302.169" y="-40.5" font-family="Helvetica,sans-Serif" font-size="10.00">Strength()</text>
<text text-anchor="start" x="302.169" y="-29.5" font-family="Helvetica,sans-Serif" font-size="10.00">+ OnRep_SicknessMaterialEffect</text>
<text text-anchor="start" x="302.169" y="-18.5" font-family="Helvetica,sans-Serif" font-size="10.00">Strength()</text>
<text text-anchor="start" x="302.169" y="-7.5" font-family="Helvetica,sans-Serif" font-size="10.00">+ StaticClass()</text>
</a>
</g>
</g>
<!-- Node2 -->
<g id="node2" class="node"><title>Node2</title>
<g id="a_node2"><a xlink:href="a26339.html" target="_top" xlink:title=" ">
<polygon fill="none" stroke="red" points="124.169,-248.5 124.169,-492.5 309.169,-492.5 309.169,-248.5 124.169,-248.5"/>
<text text-anchor="middle" x="216.669" y="-480.5" font-family="Helvetica,sans-Serif" font-size="10.00">SDK::UActorComponent</text>
<polyline fill="none" stroke="red" points="124.169,-473.5 309.169,-473.5 "/>
<text text-anchor="start" x="132.169" y="-461.5" font-family="Helvetica,sans-Serif" font-size="10.00">+ UnknownData00</text>
<text text-anchor="start" x="132.169" y="-450.5" font-family="Helvetica,sans-Serif" font-size="10.00">+ bReplicates</text>
<text text-anchor="start" x="132.169" y="-439.5" font-family="Helvetica,sans-Serif" font-size="10.00">+ bNetAddressable</text>
<text text-anchor="start" x="132.169" y="-428.5" font-family="Helvetica,sans-Serif" font-size="10.00">+ bInstanceComponent</text>
<text text-anchor="start" x="132.169" y="-417.5" font-family="Helvetica,sans-Serif" font-size="10.00">+ bAutoActivate</text>
<text text-anchor="start" x="132.169" y="-406.5" font-family="Helvetica,sans-Serif" font-size="10.00">+ bIsActive</text>
<text text-anchor="start" x="132.169" y="-395.5" font-family="Helvetica,sans-Serif" font-size="10.00">+ bNeedsLoadForServer</text>
<polyline fill="none" stroke="red" points="124.169,-388.5 309.169,-388.5 "/>
<text text-anchor="start" x="132.169" y="-376.5" font-family="Helvetica,sans-Serif" font-size="10.00">+ ToggleActive()</text>
<text text-anchor="start" x="132.169" y="-365.5" font-family="Helvetica,sans-Serif" font-size="10.00">+ SetTickGroup()</text>
<text text-anchor="start" x="132.169" y="-354.5" font-family="Helvetica,sans-Serif" font-size="10.00">+ SetTickableWhenPaused()</text>
<text text-anchor="start" x="132.169" y="-343.5" font-family="Helvetica,sans-Serif" font-size="10.00">+ SetIsReplicated()</text>
<text text-anchor="start" x="132.169" y="-332.5" font-family="Helvetica,sans-Serif" font-size="10.00">+ SetComponentTickEnabled()</text>
<text text-anchor="start" x="132.169" y="-321.5" font-family="Helvetica,sans-Serif" font-size="10.00">+ SetActive()</text>
<text text-anchor="start" x="132.169" y="-310.5" font-family="Helvetica,sans-Serif" font-size="10.00">+ RemoveTickPrerequisiteComponent()</text>
<text text-anchor="start" x="132.169" y="-299.5" font-family="Helvetica,sans-Serif" font-size="10.00">+ RemoveTickPrerequisiteActor()</text>
<text text-anchor="start" x="132.169" y="-288.5" font-family="Helvetica,sans-Serif" font-size="10.00">+ ReceiveTick()</text>
<text text-anchor="start" x="132.169" y="-277.5" font-family="Helvetica,sans-Serif" font-size="10.00">+ ReceiveEndPlay()</text>
<text text-anchor="start" x="132.169" y="-266.5" font-family="Helvetica,sans-Serif" font-size="10.00">and 12 more...</text>
<text text-anchor="start" x="132.169" y="-255.5" font-family="Helvetica,sans-Serif" font-size="10.00">+ StaticClass()</text>
</a>
</g>
</g>
<!-- Node2&#45;&gt;Node1 -->
<g id="edge1" class="edge"><title>Node2&#45;&gt;Node1</title>
<path fill="none" stroke="midnightblue" d="M281.561,-239.102C305.689,-190.616 331.631,-138.485 349.988,-101.596"/>
<polygon fill="none" stroke="midnightblue" points="278.4,-237.596 277.079,-248.108 284.667,-240.714 278.4,-237.596"/>
</g>
<!-- Node12 -->
<g id="node3" class="node"><title>Node12</title>
<g id="a_node3"><a xlink:title=" ">
<polygon fill="none" stroke="#bfbfbf" points="64.1693,-661.5 64.1693,-718.5 99.1693,-718.5 99.1693,-661.5 64.1693,-661.5"/>
<text text-anchor="middle" x="81.6693" y="-706.5" font-family="Helvetica,sans-Serif" font-size="10.00">char</text>
<polyline fill="none" stroke="#bfbfbf" points="64.1693,-699.5 99.1693,-699.5 "/>
<text text-anchor="middle" x="81.6693" y="-687.5" font-family="Helvetica,sans-Serif" font-size="10.00"> </text>
<polyline fill="none" stroke="#bfbfbf" points="64.1693,-680.5 99.1693,-680.5 "/>
<text text-anchor="middle" x="81.6693" y="-668.5" font-family="Helvetica,sans-Serif" font-size="10.00"> </text>
</a>
</g>
</g>
<!-- Node12&#45;&gt;Node1 -->
<g id="edge5" class="edge"><title>Node12&#45;&gt;Node1</title>
<path fill="none" stroke="#404040" d="M68.1553,-661.354C34.4897,-588.184 -44.8745,-385.669 34.6693,-248 87.463,-156.628 200.828,-104.075 282.148,-76.8143"/>
<polygon fill="none" stroke="#404040" points="282.495,-76.7008 286.956,-71.0352 293.902,-72.9742 289.441,-78.6397 282.495,-76.7008"/>
<text text-anchor="middle" x="74.6693" y="-373.5" font-family="Helvetica,sans-Serif" font-size="10.00"> +UnknownData01</text>
<text text-anchor="middle" x="74.6693" y="-362.5" font-family="Helvetica,sans-Serif" font-size="10.00">+UnknownData00</text>
</g>
<!-- Node12&#45;&gt;Node2 -->
<g id="edge2" class="edge"><title>Node12&#45;&gt;Node2</title>
<path fill="none" stroke="#404040" d="M93.4136,-661.379C108.42,-626.087 135.442,-562.534 160.369,-503.91"/>
<polygon fill="none" stroke="#404040" points="160.463,-503.689 159.13,-496.602 165.158,-492.646 166.492,-499.733 160.463,-503.689"/>
<text text-anchor="middle" x="213.669" y="-635" font-family="Helvetica,sans-Serif" font-size="10.00"> +UnknownData01</text>
<text text-anchor="middle" x="213.669" y="-624" font-family="Helvetica,sans-Serif" font-size="10.00">+UnknownData02</text>
<text text-anchor="middle" x="213.669" y="-613" font-family="Helvetica,sans-Serif" font-size="10.00">+UnknownData03</text>
<text text-anchor="middle" x="213.669" y="-602" font-family="Helvetica,sans-Serif" font-size="10.00">+UnknownData04</text>
<text text-anchor="middle" x="213.669" y="-591" font-family="Helvetica,sans-Serif" font-size="10.00">+UnknownData05</text>
<text text-anchor="start" x="157.669" y="-580" font-family="Helvetica,sans-Serif" font-size="10.00">+bCreatedByConstruction</text>
<text text-anchor="middle" x="213.669" y="-569" font-family="Helvetica,sans-Serif" font-size="10.00">Script</text>
<text text-anchor="middle" x="213.669" y="-558" font-family="Helvetica,sans-Serif" font-size="10.00">+UnknownData06</text>
<text text-anchor="middle" x="213.669" y="-547" font-family="Helvetica,sans-Serif" font-size="10.00">+UnknownData07</text>
<text text-anchor="middle" x="213.669" y="-536" font-family="Helvetica,sans-Serif" font-size="10.00">+bEditableWhenInherited</text>
<text text-anchor="middle" x="213.669" y="-525" font-family="Helvetica,sans-Serif" font-size="10.00">+bNeedsLoadForClient</text>
<text text-anchor="middle" x="213.669" y="-514" font-family="Helvetica,sans-Serif" font-size="10.00">...</text>
</g>
<!-- Node22 -->
<g id="node4" class="node"><title>Node22</title>
<g id="a_node4"><a xlink:href="a32947.html" target="_top" xlink:title=" ">
<polygon fill="none" stroke="red" points="327.669,-336.5 327.669,-404.5 463.669,-404.5 463.669,-336.5 327.669,-336.5"/>
<text text-anchor="start" x="335.669" y="-392.5" font-family="Helvetica,sans-Serif" font-size="10.00">SDK::FWeightedProbability</text>
<text text-anchor="middle" x="395.669" y="-381.5" font-family="Helvetica,sans-Serif" font-size="10.00">RangeOfRanges</text>
<polyline fill="none" stroke="red" points="327.669,-374.5 463.669,-374.5 "/>
<text text-anchor="middle" x="395.669" y="-362.5" font-family="Helvetica,sans-Serif" font-size="10.00"> </text>
<polyline fill="none" stroke="red" points="327.669,-355.5 463.669,-355.5 "/>
<text text-anchor="middle" x="395.669" y="-343.5" font-family="Helvetica,sans-Serif" font-size="10.00"> </text>
</a>
</g>
</g>
<!-- Node22&#45;&gt;Node1 -->
<g id="edge3" class="edge"><title>Node22&#45;&gt;Node1</title>
<path fill="none" stroke="#404040" d="M389.618,-336.38C384.783,-308.202 378.383,-266.599 375.669,-230 372.81,-191.436 372.507,-148.043 372.945,-113.756"/>
<polygon fill="none" stroke="#404040" points="372.947,-113.561 369.042,-107.499 373.136,-101.562 377.041,-107.624 372.947,-113.561"/>
<text text-anchor="middle" x="437.169" y="-194.5" font-family="Helvetica,sans-Serif" font-size="10.00"> +DelayBetweenVomitBouts</text>
<text text-anchor="middle" x="437.169" y="-183.5" font-family="Helvetica,sans-Serif" font-size="10.00">+LatentPeriodDuration</text>
<text text-anchor="middle" x="437.169" y="-172.5" font-family="Helvetica,sans-Serif" font-size="10.00">+IncubationPeriodDuration</text>
<text text-anchor="middle" x="437.169" y="-161.5" font-family="Helvetica,sans-Serif" font-size="10.00">+VomitingPeriodDuration</text>
<text text-anchor="middle" x="437.169" y="-150.5" font-family="Helvetica,sans-Serif" font-size="10.00">+VomitBoutDuration</text>
</g>
<!-- Node18 -->
<g id="node5" class="node"><title>Node18</title>
<g id="a_node5"><a xlink:title=" ">
<polygon fill="none" stroke="#bfbfbf" points="503.169,-342 503.169,-399 538.169,-399 538.169,-342 503.169,-342"/>
<text text-anchor="middle" x="520.669" y="-387" font-family="Helvetica,sans-Serif" font-size="10.00">float</text>
<polyline fill="none" stroke="#bfbfbf" points="503.169,-380 538.169,-380 "/>
<text text-anchor="middle" x="520.669" y="-368" font-family="Helvetica,sans-Serif" font-size="10.00"> </text>
<polyline fill="none" stroke="#bfbfbf" points="503.169,-361 538.169,-361 "/>
<text text-anchor="middle" x="520.669" y="-349" font-family="Helvetica,sans-Serif" font-size="10.00"> </text>
</a>
</g>
</g>
<!-- Node18&#45;&gt;Node1 -->
<g id="edge4" class="edge"><title>Node18&#45;&gt;Node1</title>
<path fill="none" stroke="#404040" d="M521.435,-341.566C522.493,-284.278 522.091,-155.861 498.669,-120 490.3,-107.186 478.655,-96.5806 465.824,-87.8679"/>
<polygon fill="none" stroke="#404040" points="465.487,-87.6562 458.279,-87.8569 455.321,-81.2803 462.529,-81.0796 465.487,-87.6562"/>
<text text-anchor="start" x="519.669" y="-222" font-family="Helvetica,sans-Serif" font-size="10.00"> +ScreenEffectStrengthWhile</text>
<text text-anchor="middle" x="604.169" y="-211" font-family="Helvetica,sans-Serif" font-size="10.00">Vomiting</text>
<text text-anchor="middle" x="604.169" y="-200" font-family="Helvetica,sans-Serif" font-size="10.00">+MaterialEffectSpringAcceleration</text>
<text text-anchor="start" x="519.669" y="-189" font-family="Helvetica,sans-Serif" font-size="10.00">+ScreenEffectStrengthWhenSickness</text>
<text text-anchor="middle" x="604.169" y="-178" font-family="Helvetica,sans-Serif" font-size="10.00">Active</text>
<text text-anchor="middle" x="604.169" y="-167" font-family="Helvetica,sans-Serif" font-size="10.00">+ScreenEffectSpringAcceleration</text>
<text text-anchor="middle" x="604.169" y="-156" font-family="Helvetica,sans-Serif" font-size="10.00">+TargetScreenEffectStrength</text>
<text text-anchor="start" x="519.669" y="-145" font-family="Helvetica,sans-Serif" font-size="10.00">+MaterialEffectStrengthWhenSickness</text>
<text text-anchor="middle" x="604.169" y="-134" font-family="Helvetica,sans-Serif" font-size="10.00">Active</text>
<text text-anchor="middle" x="604.169" y="-123" font-family="Helvetica,sans-Serif" font-size="10.00">+TargetMaterialEffectStrength</text>
</g>
<!-- Node27 -->
<g id="node6" class="node"><title>Node27</title>
<g id="a_node6"><a xlink:title=" ">
<polygon fill="none" stroke="#bfbfbf" points="695.169,-342 695.169,-399 730.169,-399 730.169,-342 695.169,-342"/>
<text text-anchor="middle" x="712.669" y="-387" font-family="Helvetica,sans-Serif" font-size="10.00">bool</text>
<polyline fill="none" stroke="#bfbfbf" points="695.169,-380 730.169,-380 "/>
<text text-anchor="middle" x="712.669" y="-368" font-family="Helvetica,sans-Serif" font-size="10.00"> </text>
<polyline fill="none" stroke="#bfbfbf" points="695.169,-361 730.169,-361 "/>
<text text-anchor="middle" x="712.669" y="-349" font-family="Helvetica,sans-Serif" font-size="10.00"> </text>
</a>
</g>
</g>
<!-- Node27&#45;&gt;Node1 -->
<g id="edge6" class="edge"><title>Node27&#45;&gt;Node1</title>
<path fill="none" stroke="#404040" d="M719.681,-341.853C730.755,-291.066 745.79,-182.418 690.669,-120 661.549,-87.0247 549.566,-68.9343 467.143,-59.8652"/>
<polygon fill="none" stroke="#404040" points="467.142,-59.8652 460.752,-63.206 455.21,-58.5919 461.6,-55.2511 467.142,-59.8652"/>
<text text-anchor="middle" x="759.669" y="-172.5" font-family="Helvetica,sans-Serif" font-size="10.00"> +CanGetSick</text>
</g>
</g>
</svg>
        <g id="navigator" transform="translate(0 0)" fill="#404254">
                <rect fill="#f2f5e9" fill-opacity="0.5" stroke="#606060" stroke-width=".5" x="0" y="0" width="60" height="60"/>
                <use id="zoomplus" xlink:href="#zoomPlus" x="17" y="9" onmousedown="handleZoom(evt,'in')"/>
                <use id="zoomminus" xlink:href="#zoomMin" x="42" y="9" onmousedown="handleZoom(evt,'out')"/>
                <use id="reset" xlink:href="#resetDef" x="30" y="36" onmousedown="handleReset()"/>
                <g id="arrowUp" xlink:href="#dirArrow" transform="translate(30 24)" onmousedown="handlePan(0,-1)">
                  <use xlink:href="#rim" fill="#404040">
                        <set attributeName="fill" to="#808080" begin="arrowUp.mouseover" end="arrowUp.mouseout"/>
                  </use>
                  <path fill="none" stroke="white" stroke-width="1.5" d="M0,-3.0v7 M-2.5,-0.5L0,-3.0L2.5,-0.5"/>
                </g>
                <g id="arrowRight" xlink:href="#dirArrow" transform="rotate(90) translate(36 -43)" onmousedown="handlePan(1,0)">
                  <use xlink:href="#rim" fill="#404040">
                        <set attributeName="fill" to="#808080" begin="arrowRight.mouseover" end="arrowRight.mouseout"/>
                  </use>
                  <path fill="none" stroke="white" stroke-width="1.5" d="M0,-3.0v7 M-2.5,-0.5L0,-3.0L2.5,-0.5"/>
                </g>
                <g id="arrowDown" xlink:href="#dirArrow" transform="rotate(180) translate(-30 -48)" onmousedown="handlePan(0,1)">
                  <use xlink:href="#rim" fill="#404040">
                        <set attributeName="fill" to="#808080" begin="arrowDown.mouseover" end="arrowDown.mouseout"/>
                  </use>
                  <path fill="none" stroke="white" stroke-width="1.5" d="M0,-3.0v7 M-2.5,-0.5L0,-3.0L2.5,-0.5"/>
                </g>
                <g id="arrowLeft" xlink:href="#dirArrow" transform="rotate(270) translate(-36 17)" onmousedown="handlePan(-1,0)">
                  <use xlink:href="#rim" fill="#404040">
                        <set attributeName="fill" to="#808080" begin="arrowLeft.mouseover" end="arrowLeft.mouseout"/>
                  </use>
                  <path fill="none" stroke="white" stroke-width="1.5" d="M0,-3.0v7 M-2.5,-0.5L0,-3.0L2.5,-0.5"/>
                </g>
        </g>
        <svg viewBox="0 0 15 15" width="100%" height="30px" preserveAspectRatio="xMaxYMin meet">
         <g id="arrow_out" transform="scale(0.3 0.3)">
          <a xlink:href="a08181_org.svg" target="_base">
           <rect id="button" ry="5" rx="5" y="6" x="6" height="38" width="38"
                fill="#f2f5e9" fill-opacity="0.5" stroke="#606060" stroke-width="1.0"/>
           <path id="arrow"
             d="M 11.500037,31.436501 C 11.940474,20.09759 22.043105,11.32322 32.158766,21.979434 L 37.068811,17.246167 C 37.068811,17.246167 37.088388,32 37.088388,32 L 22.160133,31.978069 C 22.160133,31.978069 26.997745,27.140456 26.997745,27.140456 C 18.528582,18.264221 13.291696,25.230495 11.500037,31.436501 z"
             style="fill:#404040;"/>
          </a>
         </g>
        </svg>
</svg>
