<?xml version="1.0" encoding="UTF-8" standalone="no"?>
<!DOCTYPE svg PUBLIC "-//W3C//DTD SVG 1.1//EN"
 "http://www.w3.org/Graphics/SVG/1.1/DTD/svg11.dtd">
<!-- Generated by graphviz version 2.38.0 (20140413.2041)
 -->
<!-- Title: SDK::USpawnCollectableQuestObjectStepDesc Pages: 1 -->
<svg width="332pt" height="342pt"
 viewBox="0.00 0.00 332.00 342.00" xmlns="http://www.w3.org/2000/svg" xmlns:xlink="http://www.w3.org/1999/xlink">
<g id="graph0" class="graph" transform="scale(1 1) rotate(0) translate(4 338)">
<title>SDK::USpawnCollectableQuestObjectStepDesc</title>
<!-- Node1 -->
<g id="node1" class="node"><title>Node1</title>
<g id="a_node1"><a xlink:title=" ">
<polygon fill="#bfbfbf" stroke="black" points="85,-138.5 85,-228.5 238,-228.5 238,-138.5 85,-138.5"/>
<text text-anchor="start" x="93" y="-216.5" font-family="Helvetica,sans-Serif" font-size="10.00">SDK::USpawnCollectableQuest</text>
<text text-anchor="middle" x="161.5" y="-205.5" font-family="Helvetica,sans-Serif" font-size="10.00">ObjectStepDesc</text>
<polyline fill="none" stroke="black" points="85,-198.5 238,-198.5 "/>
<text text-anchor="start" x="93" y="-186.5" font-family="Helvetica,sans-Serif" font-size="10.00">+ CollectableQuestBookPage</text>
<text text-anchor="start" x="93" y="-175.5" font-family="Helvetica,sans-Serif" font-size="10.00">ToSpawn</text>
<text text-anchor="start" x="93" y="-164.5" font-family="Helvetica,sans-Serif" font-size="10.00">+ CollectingPlayerActor</text>
<polyline fill="none" stroke="black" points="85,-157.5 238,-157.5 "/>
<text text-anchor="start" x="93" y="-145.5" font-family="Helvetica,sans-Serif" font-size="10.00">+ StaticClass()</text>
</a>
</g>
</g>
<!-- Node4 -->
<g id="node3" class="node"><title>Node4</title>
<g id="a_node3"><a xlink:href="a08279.html" target="_top" xlink:title=" ">
<polygon fill="none" stroke="black" points="0,-0.5 0,-101.5 153,-101.5 153,-0.5 0,-0.5"/>
<text text-anchor="start" x="8" y="-89.5" font-family="Helvetica,sans-Serif" font-size="10.00">SDK::USpawnCollectableQuest</text>
<text text-anchor="middle" x="76.5" y="-78.5" font-family="Helvetica,sans-Serif" font-size="10.00">ObjectStepFromActorDesc</text>
<polyline fill="none" stroke="black" points="0,-71.5 153,-71.5 "/>
<text text-anchor="start" x="8" y="-59.5" font-family="Helvetica,sans-Serif" font-size="10.00">+ PlaceableActor</text>
<text text-anchor="start" x="8" y="-48.5" font-family="Helvetica,sans-Serif" font-size="10.00">+ SocketName</text>
<text text-anchor="start" x="8" y="-37.5" font-family="Helvetica,sans-Serif" font-size="10.00">+ AttachToSocket</text>
<text text-anchor="start" x="8" y="-26.5" font-family="Helvetica,sans-Serif" font-size="10.00">+ UnknownData00</text>
<polyline fill="none" stroke="black" points="0,-19.5 153,-19.5 "/>
<text text-anchor="start" x="8" y="-7.5" font-family="Helvetica,sans-Serif" font-size="10.00">+ StaticClass()</text>
</a>
</g>
</g>
<!-- Node1&#45;&gt;Node4 -->
<g id="edge2" class="edge"><title>Node1&#45;&gt;Node4</title>
<path fill="none" stroke="midnightblue" d="M127.209,-129.853C121.116,-120.499 114.79,-110.786 108.756,-101.523"/>
<polygon fill="none" stroke="midnightblue" points="124.332,-131.85 132.723,-138.319 130.198,-128.029 124.332,-131.85"/>
</g>
<!-- Node5 -->
<g id="node4" class="node"><title>Node5</title>
<g id="a_node4"><a xlink:href="a08275.html" target="_top" xlink:title=" ">
<polygon fill="none" stroke="black" points="171,-17 171,-85 324,-85 324,-17 171,-17"/>
<text text-anchor="start" x="179" y="-73" font-family="Helvetica,sans-Serif" font-size="10.00">SDK::USpawnCollectableQuest</text>
<text text-anchor="middle" x="247.5" y="-62" font-family="Helvetica,sans-Serif" font-size="10.00">ObjectStepFromLocationDesc</text>
<polyline fill="none" stroke="black" points="171,-55 324,-55 "/>
<text text-anchor="start" x="179" y="-43" font-family="Helvetica,sans-Serif" font-size="10.00">+ ItemLocation</text>
<polyline fill="none" stroke="black" points="171,-36 324,-36 "/>
<text text-anchor="start" x="179" y="-24" font-family="Helvetica,sans-Serif" font-size="10.00">+ StaticClass()</text>
</a>
</g>
</g>
<!-- Node1&#45;&gt;Node5 -->
<g id="edge3" class="edge"><title>Node1&#45;&gt;Node5</title>
<path fill="none" stroke="midnightblue" d="M196.329,-129.649C206.178,-114.704 216.62,-98.8586 225.485,-85.4058"/>
<polygon fill="none" stroke="midnightblue" points="193.196,-128.043 190.616,-138.319 199.041,-131.895 193.196,-128.043"/>
</g>
<!-- Node2 -->
<g id="node2" class="node"><title>Node2</title>
<g id="a_node2"><a xlink:href="a35139.html" target="_top" xlink:title=" ">
<polygon fill="none" stroke="red" points="93,-265.5 93,-333.5 230,-333.5 230,-265.5 93,-265.5"/>
<text text-anchor="middle" x="161.5" y="-321.5" font-family="Helvetica,sans-Serif" font-size="10.00">SDK::UTaleQuestStepDesc</text>
<polyline fill="none" stroke="red" points="93,-314.5 230,-314.5 "/>
<text text-anchor="start" x="101" y="-302.5" font-family="Helvetica,sans-Serif" font-size="10.00">+ Fork</text>
<text text-anchor="start" x="101" y="-291.5" font-family="Helvetica,sans-Serif" font-size="10.00">+ UnknownData00</text>
<polyline fill="none" stroke="red" points="93,-284.5 230,-284.5 "/>
<text text-anchor="start" x="101" y="-272.5" font-family="Helvetica,sans-Serif" font-size="10.00">+ StaticClass()</text>
</a>
</g>
</g>
<!-- Node2&#45;&gt;Node1 -->
<g id="edge1" class="edge"><title>Node2&#45;&gt;Node1</title>
<path fill="none" stroke="midnightblue" d="M161.5,-254.972C161.5,-246.346 161.5,-237.284 161.5,-228.638"/>
<polygon fill="none" stroke="midnightblue" points="158,-255.22 161.5,-265.22 165,-255.22 158,-255.22"/>
</g>
</g>
</svg>
