<?xml version="1.0" encoding="UTF-8" standalone="no"?>
<!DOCTYPE svg PUBLIC "-//W3C//DTD SVG 1.1//EN"
 "http://www.w3.org/Graphics/SVG/1.1/DTD/svg11.dtd">
<!-- Generated by graphviz version 2.38.0 (20140413.2041)
 -->
<!-- Title: SDK::UStatusResponseAINamedControllerParamHealthChange Pages: 1 -->
<svg width="555pt" height="259pt"
 viewBox="0.00 0.00 555.00 259.00" xmlns="http://www.w3.org/2000/svg" xmlns:xlink="http://www.w3.org/1999/xlink">
<g id="graph0" class="graph" transform="scale(1 1) rotate(0) translate(4 255)">
<title>SDK::UStatusResponseAINamedControllerParamHealthChange</title>
<!-- Node1 -->
<g id="node1" class="node"><title>Node1</title>
<g id="a_node1"><a xlink:title=" ">
<polygon fill="#bfbfbf" stroke="black" points="183.5,-0.5 183.5,-68.5 344.5,-68.5 344.5,-0.5 183.5,-0.5"/>
<text text-anchor="start" x="191.5" y="-56.5" font-family="Helvetica,sans-Serif" font-size="10.00">SDK::UStatusResponseAINamed</text>
<text text-anchor="middle" x="264" y="-45.5" font-family="Helvetica,sans-Serif" font-size="10.00">ControllerParamHealthChange</text>
<polyline fill="none" stroke="black" points="183.5,-38.5 344.5,-38.5 "/>
<text text-anchor="middle" x="264" y="-26.5" font-family="Helvetica,sans-Serif" font-size="10.00"> </text>
<polyline fill="none" stroke="black" points="183.5,-19.5 344.5,-19.5 "/>
<text text-anchor="start" x="191.5" y="-7.5" font-family="Helvetica,sans-Serif" font-size="10.00">+ StaticClass()</text>
</a>
</g>
</g>
<!-- Node2 -->
<g id="node2" class="node"><title>Node2</title>
<g id="a_node2"><a xlink:href="a34659.html" target="_top" xlink:title=" ">
<polygon fill="none" stroke="red" points="0,-160.5 0,-217.5 122,-217.5 122,-160.5 0,-160.5"/>
<text text-anchor="middle" x="61" y="-205.5" font-family="Helvetica,sans-Serif" font-size="10.00">SDK::UStatusResponse</text>
<polyline fill="none" stroke="red" points="0,-198.5 122,-198.5 "/>
<text text-anchor="middle" x="61" y="-186.5" font-family="Helvetica,sans-Serif" font-size="10.00"> </text>
<polyline fill="none" stroke="red" points="0,-179.5 122,-179.5 "/>
<text text-anchor="start" x="8" y="-167.5" font-family="Helvetica,sans-Serif" font-size="10.00">+ StaticClass()</text>
</a>
</g>
</g>
<!-- Node2&#45;&gt;Node1 -->
<g id="edge1" class="edge"><title>Node2&#45;&gt;Node1</title>
<path fill="none" stroke="midnightblue" d="M99.2167,-153.842C109.421,-144.958 120.526,-135.498 131,-127 153.916,-108.406 159.798,-103.888 184,-87 192.669,-80.9505 202.004,-74.707 211.13,-68.7446"/>
<polygon fill="none" stroke="midnightblue" points="96.8321,-151.278 91.6138,-160.499 101.443,-156.545 96.8321,-151.278"/>
</g>
<!-- Node4 -->
<g id="node3" class="node"><title>Node4</title>
<g id="a_node3"><a xlink:href="a25627.html" target="_top" xlink:title=" ">
<polygon fill="none" stroke="red" points="140,-133 140,-245 246,-245 246,-133 140,-133"/>
<text text-anchor="middle" x="193" y="-233" font-family="Helvetica,sans-Serif" font-size="10.00">SDK::FName</text>
<polyline fill="none" stroke="red" points="140,-226 246,-226 "/>
<text text-anchor="middle" x="193" y="-214" font-family="Helvetica,sans-Serif" font-size="10.00"> </text>
<polyline fill="none" stroke="red" points="140,-207 246,-207 "/>
<text text-anchor="start" x="148" y="-195" font-family="Helvetica,sans-Serif" font-size="10.00">+ FName()</text>
<text text-anchor="start" x="148" y="-184" font-family="Helvetica,sans-Serif" font-size="10.00">+ FName()</text>
<text text-anchor="start" x="148" y="-173" font-family="Helvetica,sans-Serif" font-size="10.00">+ FName()</text>
<text text-anchor="start" x="148" y="-162" font-family="Helvetica,sans-Serif" font-size="10.00">+ GetName()</text>
<text text-anchor="start" x="148" y="-151" font-family="Helvetica,sans-Serif" font-size="10.00">+ operator==()</text>
<text text-anchor="start" x="148" y="-140" font-family="Helvetica,sans-Serif" font-size="10.00">+ GetGlobalNames()</text>
</a>
</g>
</g>
<!-- Node4&#45;&gt;Node1 -->
<g id="edge2" class="edge"><title>Node4&#45;&gt;Node1</title>
<path fill="none" stroke="#404040" d="M184.641,-132.869C184.599,-117.332 186.887,-100.892 194,-87 195.699,-83.6825 197.721,-80.5257 199.989,-77.5295"/>
<polygon fill="none" stroke="#404040" points="200.021,-77.4934 201.002,-70.3492 207.974,-68.5067 206.993,-75.6508 200.021,-77.4934"/>
<text text-anchor="middle" x="253.5" y="-95.5" font-family="Helvetica,sans-Serif" font-size="10.00"> +AINamedControllerParam</text>
</g>
<!-- Node12 -->
<g id="node4" class="node"><title>Node12</title>
<g id="a_node4"><a xlink:title=" ">
<polygon fill="none" stroke="#bfbfbf" points="317.5,-160.5 317.5,-217.5 352.5,-217.5 352.5,-160.5 317.5,-160.5"/>
<text text-anchor="middle" x="335" y="-205.5" font-family="Helvetica,sans-Serif" font-size="10.00">char</text>
<polyline fill="none" stroke="#bfbfbf" points="317.5,-198.5 352.5,-198.5 "/>
<text text-anchor="middle" x="335" y="-186.5" font-family="Helvetica,sans-Serif" font-size="10.00"> </text>
<polyline fill="none" stroke="#bfbfbf" points="317.5,-179.5 352.5,-179.5 "/>
<text text-anchor="middle" x="335" y="-167.5" font-family="Helvetica,sans-Serif" font-size="10.00"> </text>
</a>
</g>
</g>
<!-- Node12&#45;&gt;Node1 -->
<g id="edge3" class="edge"><title>Node12&#45;&gt;Node1</title>
<path fill="none" stroke="#404040" d="M333.053,-160.468C330.628,-139.339 325.189,-109.99 313,-87 311.455,-84.085 309.697,-81.2171 307.79,-78.4184"/>
<polygon fill="none" stroke="#404040" points="307.603,-78.1726 300.785,-75.8226 300.332,-68.6257 307.15,-70.9757 307.603,-78.1726"/>
<text text-anchor="middle" x="362" y="-101" font-family="Helvetica,sans-Serif" font-size="10.00"> +UnknownData01</text>
<text text-anchor="middle" x="362" y="-90" font-family="Helvetica,sans-Serif" font-size="10.00">+UnknownData00</text>
</g>
<!-- Node14 -->
<g id="node5" class="node"><title>Node14</title>
<g id="a_node5"><a xlink:href="a25635.html" target="_top" xlink:title=" ">
<polygon fill="none" stroke="black" points="371,-127.5 371,-250.5 547,-250.5 547,-127.5 371,-127.5"/>
<text text-anchor="start" x="379" y="-238.5" font-family="Helvetica,sans-Serif" font-size="10.00">SDK::TEnumAsByte&lt; EHealth</text>
<text text-anchor="middle" x="459" y="-227.5" font-family="Helvetica,sans-Serif" font-size="10.00">ChangedReason &gt;</text>
<polyline fill="none" stroke="black" points="371,-220.5 547,-220.5 "/>
<text text-anchor="middle" x="459" y="-208.5" font-family="Helvetica,sans-Serif" font-size="10.00"> </text>
<polyline fill="none" stroke="black" points="371,-201.5 547,-201.5 "/>
<text text-anchor="start" x="379" y="-189.5" font-family="Helvetica,sans-Serif" font-size="10.00">+ TEnumAsByte()</text>
<text text-anchor="start" x="379" y="-178.5" font-family="Helvetica,sans-Serif" font-size="10.00">+ TEnumAsByte()</text>
<text text-anchor="start" x="379" y="-167.5" font-family="Helvetica,sans-Serif" font-size="10.00">+ TEnumAsByte()</text>
<text text-anchor="start" x="379" y="-156.5" font-family="Helvetica,sans-Serif" font-size="10.00">+ TEnumAsByte()</text>
<text text-anchor="start" x="379" y="-145.5" font-family="Helvetica,sans-Serif" font-size="10.00">+ operator EHealthChangedReason()</text>
<text text-anchor="start" x="379" y="-134.5" font-family="Helvetica,sans-Serif" font-size="10.00">+ GetValue()</text>
</a>
</g>
</g>
<!-- Node14&#45;&gt;Node1 -->
<g id="edge4" class="edge"><title>Node14&#45;&gt;Node1</title>
<path fill="none" stroke="#404040" d="M436.343,-127.302C428.544,-112.575 418.53,-97.9398 406,-87 391.672,-74.4905 374.064,-64.9355 356.185,-57.6649"/>
<polygon fill="none" stroke="#404040" points="355.956,-57.5782 348.927,-59.1878 344.738,-53.3184 351.767,-51.7088 355.956,-57.5782"/>
<text text-anchor="middle" x="479.5" y="-95.5" font-family="Helvetica,sans-Serif" font-size="10.00"> +HealthChangedReason</text>
</g>
</g>
</svg>
