<?xml version="1.0" encoding="UTF-8" standalone="no"?>
<!DOCTYPE svg PUBLIC "-//W3C//DTD SVG 1.1//EN"
 "http://www.w3.org/Graphics/SVG/1.1/DTD/svg11.dtd">
<!-- Generated by graphviz version 2.38.0 (20140413.2041)
 -->
<!-- Title: SDK::UVenomSource Pages: 1 -->
<svg width="454pt" height="430pt"
 viewBox="0.00 0.00 453.79 430.00" xmlns="http://www.w3.org/2000/svg" xmlns:xlink="http://www.w3.org/1999/xlink">
<g id="graph0" class="graph" transform="scale(1 1) rotate(0) translate(4 426)">
<title>SDK::UVenomSource</title>
<!-- Node1 -->
<g id="node1" class="node"><title>Node1</title>
<g id="a_node1"><a xlink:title=" ">
<polygon fill="#bfbfbf" stroke="black" points="166.295,-0.5 166.295,-57.5 277.295,-57.5 277.295,-0.5 166.295,-0.5"/>
<text text-anchor="middle" x="221.795" y="-45.5" font-family="Helvetica,sans-Serif" font-size="10.00">SDK::UVenomSource</text>
<polyline fill="none" stroke="black" points="166.295,-38.5 277.295,-38.5 "/>
<text text-anchor="middle" x="221.795" y="-26.5" font-family="Helvetica,sans-Serif" font-size="10.00"> </text>
<polyline fill="none" stroke="black" points="166.295,-19.5 277.295,-19.5 "/>
<text text-anchor="start" x="174.295" y="-7.5" font-family="Helvetica,sans-Serif" font-size="10.00">+ StaticClass()</text>
</a>
</g>
</g>
<!-- Node2 -->
<g id="node2" class="node"><title>Node2</title>
<g id="a_node2"><a xlink:href="a25883.html" target="_top" xlink:title=" ">
<polygon fill="none" stroke="red" points="165.795,-105.5 165.795,-261.5 277.795,-261.5 277.795,-105.5 165.795,-105.5"/>
<text text-anchor="middle" x="221.795" y="-249.5" font-family="Helvetica,sans-Serif" font-size="10.00">SDK::UObject</text>
<polyline fill="none" stroke="red" points="165.795,-242.5 277.795,-242.5 "/>
<text text-anchor="middle" x="221.795" y="-230.5" font-family="Helvetica,sans-Serif" font-size="10.00"> </text>
<polyline fill="none" stroke="red" points="165.795,-223.5 277.795,-223.5 "/>
<text text-anchor="start" x="173.795" y="-211.5" font-family="Helvetica,sans-Serif" font-size="10.00">+ GetName()</text>
<text text-anchor="start" x="173.795" y="-200.5" font-family="Helvetica,sans-Serif" font-size="10.00">+ GetFullName()</text>
<text text-anchor="start" x="173.795" y="-189.5" font-family="Helvetica,sans-Serif" font-size="10.00">+ IsA()</text>
<text text-anchor="start" x="173.795" y="-178.5" font-family="Helvetica,sans-Serif" font-size="10.00">+ ProcessEvent()</text>
<text text-anchor="start" x="173.795" y="-167.5" font-family="Helvetica,sans-Serif" font-size="10.00">+ ExecuteUbergraph()</text>
<text text-anchor="start" x="173.795" y="-156.5" font-family="Helvetica,sans-Serif" font-size="10.00">+ StaticClass()</text>
<text text-anchor="start" x="173.795" y="-145.5" font-family="Helvetica,sans-Serif" font-size="10.00">+ GetGlobalObjects()</text>
<text text-anchor="start" x="173.795" y="-134.5" font-family="Helvetica,sans-Serif" font-size="10.00">+ FindObject()</text>
<text text-anchor="start" x="173.795" y="-123.5" font-family="Helvetica,sans-Serif" font-size="10.00">+ FindClass()</text>
<text text-anchor="start" x="173.795" y="-112.5" font-family="Helvetica,sans-Serif" font-size="10.00">+ GetObjectCasted()</text>
</a>
</g>
</g>
<!-- Node2&#45;&gt;Node1 -->
<g id="edge1" class="edge"><title>Node2&#45;&gt;Node1</title>
<path fill="none" stroke="midnightblue" d="M221.795,-95.3466C221.795,-81.68 221.795,-68.4906 221.795,-57.5835"/>
<polygon fill="none" stroke="midnightblue" points="218.295,-95.3564 221.795,-105.356 225.295,-95.3565 218.295,-95.3564"/>
</g>
<!-- Node2&#45;&gt;Node2 -->
<g id="edge2" class="edge"><title>Node2&#45;&gt;Node2</title>
<path fill="none" stroke="#404040" d="M277.941,-201.643C288.417,-199.409 295.795,-193.361 295.795,-183.5 295.795,-177.799 293.329,-173.372 289.224,-170.221"/>
<polygon fill="none" stroke="#404040" points="288.961,-170.107 281.867,-171.405 277.941,-165.357 285.034,-164.059 288.961,-170.107"/>
<text text-anchor="middle" x="312.795" y="-181" font-family="Helvetica,sans-Serif" font-size="10.00"> +Outer</text>
</g>
<!-- Node3 -->
<g id="node3" class="node"><title>Node3</title>
<g id="a_node3"><a xlink:href="a25627.html" target="_top" xlink:title=" ">
<polygon fill="none" stroke="red" points="18.7947,-309.5 18.7947,-421.5 124.795,-421.5 124.795,-309.5 18.7947,-309.5"/>
<text text-anchor="middle" x="71.7947" y="-409.5" font-family="Helvetica,sans-Serif" font-size="10.00">SDK::FName</text>
<polyline fill="none" stroke="red" points="18.7947,-402.5 124.795,-402.5 "/>
<text text-anchor="middle" x="71.7947" y="-390.5" font-family="Helvetica,sans-Serif" font-size="10.00"> </text>
<polyline fill="none" stroke="red" points="18.7947,-383.5 124.795,-383.5 "/>
<text text-anchor="start" x="26.7947" y="-371.5" font-family="Helvetica,sans-Serif" font-size="10.00">+ FName()</text>
<text text-anchor="start" x="26.7947" y="-360.5" font-family="Helvetica,sans-Serif" font-size="10.00">+ FName()</text>
<text text-anchor="start" x="26.7947" y="-349.5" font-family="Helvetica,sans-Serif" font-size="10.00">+ FName()</text>
<text text-anchor="start" x="26.7947" y="-338.5" font-family="Helvetica,sans-Serif" font-size="10.00">+ GetName()</text>
<text text-anchor="start" x="26.7947" y="-327.5" font-family="Helvetica,sans-Serif" font-size="10.00">+ operator==()</text>
<text text-anchor="start" x="26.7947" y="-316.5" font-family="Helvetica,sans-Serif" font-size="10.00">+ GetGlobalNames()</text>
</a>
</g>
</g>
<!-- Node3&#45;&gt;Node1 -->
<g id="edge4" class="edge"><title>Node3&#45;&gt;Node1</title>
<path fill="none" stroke="#404040" d="M38.7907,-309.424C9.87302,-253.247 -21.4911,-165.912 20.7947,-105 50.6263,-62.0281 108.225,-43.6329 154.144,-35.7818"/>
<polygon fill="none" stroke="#404040" points="154.288,-35.7595 159.603,-30.8868 166.146,-33.9196 160.83,-38.7922 154.288,-35.7595"/>
<text text-anchor="middle" x="88.7947" y="-181" font-family="Helvetica,sans-Serif" font-size="10.00"> +VenomEffectParameterName</text>
</g>
<!-- Node3&#45;&gt;Node2 -->
<g id="edge3" class="edge"><title>Node3&#45;&gt;Node2</title>
<path fill="none" stroke="#404040" d="M118.024,-309.025C130.616,-293.914 144.485,-277.272 157.871,-261.208"/>
<polygon fill="none" stroke="#404040" points="158.002,-261.051 158.77,-253.881 165.684,-251.832 164.916,-259.002 158.002,-261.051"/>
<text text-anchor="middle" x="156.295" y="-283" font-family="Helvetica,sans-Serif" font-size="10.00"> +Name</text>
</g>
<!-- Node13 -->
<g id="node4" class="node"><title>Node13</title>
<g id="a_node4"><a xlink:href="a26119.html" target="_top" xlink:title=" ">
<polygon fill="none" stroke="red" points="347.795,-133 347.795,-234 445.795,-234 445.795,-133 347.795,-133"/>
<text text-anchor="middle" x="396.795" y="-222" font-family="Helvetica,sans-Serif" font-size="10.00">SDK::FLinearColor</text>
<polyline fill="none" stroke="red" points="347.795,-215 445.795,-215 "/>
<text text-anchor="middle" x="396.795" y="-203" font-family="Helvetica,sans-Serif" font-size="10.00"> </text>
<polyline fill="none" stroke="red" points="347.795,-196 445.795,-196 "/>
<text text-anchor="start" x="355.795" y="-184" font-family="Helvetica,sans-Serif" font-size="10.00">+ FLinearColor()</text>
<text text-anchor="start" x="355.795" y="-173" font-family="Helvetica,sans-Serif" font-size="10.00">+ FLinearColor()</text>
<text text-anchor="start" x="355.795" y="-162" font-family="Helvetica,sans-Serif" font-size="10.00">+ FLinearColor()</text>
<text text-anchor="start" x="355.795" y="-151" font-family="Helvetica,sans-Serif" font-size="10.00">+ operator!=()</text>
<text text-anchor="start" x="355.795" y="-140" font-family="Helvetica,sans-Serif" font-size="10.00">+ operator==()</text>
</a>
</g>
</g>
<!-- Node13&#45;&gt;Node1 -->
<g id="edge5" class="edge"><title>Node13&#45;&gt;Node1</title>
<path fill="none" stroke="#404040" d="M363.709,-132.714C356.119,-122.976 347.655,-113.241 338.795,-105 322.323,-89.6798 302.33,-75.5708 283.566,-63.8228"/>
<polygon fill="none" stroke="#404040" points="283.537,-63.805 276.331,-64.0886 273.298,-57.5464 280.504,-57.2628 283.537,-63.805"/>
<text text-anchor="middle" x="356.295" y="-79" font-family="Helvetica,sans-Serif" font-size="10.00"> +ScreenEffectTint</text>
</g>
</g>
</svg>
