<?xml version="1.0" encoding="UTF-8" standalone="no"?>
<!DOCTYPE svg PUBLIC "-//W3C//DTD SVG 1.1//EN"
 "http://www.w3.org/Graphics/SVG/1.1/DTD/svg11.dtd">
<!-- Generated by graphviz version 2.38.0 (20140413.2041)
 -->
<!-- Title: SDK::USunkenCurseArtefactDynamicMaterialComponent Pages: 1 -->
<svg width="846pt" height="755pt"
 viewBox="0.00 0.00 845.63 755.00" xmlns="http://www.w3.org/2000/svg" xmlns:xlink="http://www.w3.org/1999/xlink">
<g id="graph0" class="graph" transform="scale(1 1) rotate(0) translate(4 751)">
<title>SDK::USunkenCurseArtefactDynamicMaterialComponent</title>
<!-- Node1 -->
<g id="node1" class="node"><title>Node1</title>
<g id="a_node1"><a xlink:title=" ">
<polygon fill="#bfbfbf" stroke="black" points="315.63,-116.5 315.63,-184.5 457.63,-184.5 457.63,-116.5 315.63,-116.5"/>
<text text-anchor="start" x="323.63" y="-172.5" font-family="Helvetica,sans-Serif" font-size="10.00">SDK::USunkenCurseArtefact</text>
<text text-anchor="middle" x="386.63" y="-161.5" font-family="Helvetica,sans-Serif" font-size="10.00">DynamicMaterialComponent</text>
<polyline fill="none" stroke="black" points="315.63,-154.5 457.63,-154.5 "/>
<text text-anchor="middle" x="386.63" y="-142.5" font-family="Helvetica,sans-Serif" font-size="10.00"> </text>
<polyline fill="none" stroke="black" points="315.63,-135.5 457.63,-135.5 "/>
<text text-anchor="start" x="323.63" y="-123.5" font-family="Helvetica,sans-Serif" font-size="10.00">+ StaticClass()</text>
</a>
</g>
</g>
<!-- Node45 -->
<g id="node6" class="node"><title>Node45</title>
<g id="a_node6"><a xlink:href="a08575.html" target="_top" xlink:title=" ">
<polygon fill="none" stroke="red" points="190.63,-0.5 190.63,-68.5 332.63,-68.5 332.63,-0.5 190.63,-0.5"/>
<text text-anchor="middle" x="261.63" y="-56.5" font-family="Helvetica,sans-Serif" font-size="10.00">SDK::ASunkenCurseArtefact</text>
<polyline fill="none" stroke="red" points="190.63,-49.5 332.63,-49.5 "/>
<text text-anchor="middle" x="261.63" y="-37.5" font-family="Helvetica,sans-Serif" font-size="10.00"> </text>
<polyline fill="none" stroke="red" points="190.63,-30.5 332.63,-30.5 "/>
<text text-anchor="start" x="198.63" y="-18.5" font-family="Helvetica,sans-Serif" font-size="10.00">+ Multicast_WasDefeated()</text>
<text text-anchor="start" x="198.63" y="-7.5" font-family="Helvetica,sans-Serif" font-size="10.00">+ StaticClass()</text>
</a>
</g>
</g>
<!-- Node1&#45;&gt;Node45 -->
<g id="edge6" class="edge"><title>Node1&#45;&gt;Node45</title>
<path fill="none" stroke="#404040" d="M380.151,-116.481C376.855,-106.141 371.935,-95.2819 364.63,-87 358.4,-79.9366 350.974,-73.7289 343.005,-68.3011"/>
<polygon fill="none" stroke="#404040" points="342.843,-68.1997 335.635,-68.41 332.668,-61.8372 339.876,-61.627 342.843,-68.1997"/>
<text text-anchor="middle" x="437.63" y="-90" font-family="Helvetica,sans-Serif" font-size="10.00"> +DamageMaterialComponent</text>
</g>
<!-- Node2 -->
<g id="node2" class="node"><title>Node2</title>
<g id="a_node2"><a xlink:href="a26339.html" target="_top" xlink:title=" ">
<polygon fill="none" stroke="red" points="35.1297,-276.5 35.1297,-520.5 220.13,-520.5 220.13,-276.5 35.1297,-276.5"/>
<text text-anchor="middle" x="127.63" y="-508.5" font-family="Helvetica,sans-Serif" font-size="10.00">SDK::UActorComponent</text>
<polyline fill="none" stroke="red" points="35.1297,-501.5 220.13,-501.5 "/>
<text text-anchor="start" x="43.1297" y="-489.5" font-family="Helvetica,sans-Serif" font-size="10.00">+ UnknownData00</text>
<text text-anchor="start" x="43.1297" y="-478.5" font-family="Helvetica,sans-Serif" font-size="10.00">+ bReplicates</text>
<text text-anchor="start" x="43.1297" y="-467.5" font-family="Helvetica,sans-Serif" font-size="10.00">+ bNetAddressable</text>
<text text-anchor="start" x="43.1297" y="-456.5" font-family="Helvetica,sans-Serif" font-size="10.00">+ bInstanceComponent</text>
<text text-anchor="start" x="43.1297" y="-445.5" font-family="Helvetica,sans-Serif" font-size="10.00">+ bAutoActivate</text>
<text text-anchor="start" x="43.1297" y="-434.5" font-family="Helvetica,sans-Serif" font-size="10.00">+ bIsActive</text>
<text text-anchor="start" x="43.1297" y="-423.5" font-family="Helvetica,sans-Serif" font-size="10.00">+ bNeedsLoadForServer</text>
<polyline fill="none" stroke="red" points="35.1297,-416.5 220.13,-416.5 "/>
<text text-anchor="start" x="43.1297" y="-404.5" font-family="Helvetica,sans-Serif" font-size="10.00">+ ToggleActive()</text>
<text text-anchor="start" x="43.1297" y="-393.5" font-family="Helvetica,sans-Serif" font-size="10.00">+ SetTickGroup()</text>
<text text-anchor="start" x="43.1297" y="-382.5" font-family="Helvetica,sans-Serif" font-size="10.00">+ SetTickableWhenPaused()</text>
<text text-anchor="start" x="43.1297" y="-371.5" font-family="Helvetica,sans-Serif" font-size="10.00">+ SetIsReplicated()</text>
<text text-anchor="start" x="43.1297" y="-360.5" font-family="Helvetica,sans-Serif" font-size="10.00">+ SetComponentTickEnabled()</text>
<text text-anchor="start" x="43.1297" y="-349.5" font-family="Helvetica,sans-Serif" font-size="10.00">+ SetActive()</text>
<text text-anchor="start" x="43.1297" y="-338.5" font-family="Helvetica,sans-Serif" font-size="10.00">+ RemoveTickPrerequisiteComponent()</text>
<text text-anchor="start" x="43.1297" y="-327.5" font-family="Helvetica,sans-Serif" font-size="10.00">+ RemoveTickPrerequisiteActor()</text>
<text text-anchor="start" x="43.1297" y="-316.5" font-family="Helvetica,sans-Serif" font-size="10.00">+ ReceiveTick()</text>
<text text-anchor="start" x="43.1297" y="-305.5" font-family="Helvetica,sans-Serif" font-size="10.00">+ ReceiveEndPlay()</text>
<text text-anchor="start" x="43.1297" y="-294.5" font-family="Helvetica,sans-Serif" font-size="10.00">and 12 more...</text>
<text text-anchor="start" x="43.1297" y="-283.5" font-family="Helvetica,sans-Serif" font-size="10.00">+ StaticClass()</text>
</a>
</g>
</g>
<!-- Node2&#45;&gt;Node1 -->
<g id="edge1" class="edge"><title>Node2&#45;&gt;Node1</title>
<path fill="none" stroke="midnightblue" d="M227.602,-277.013C227.945,-276.674 228.287,-276.336 228.63,-276 265.611,-239.658 278.851,-235.023 319.63,-203 327.245,-197.02 335.387,-190.7 343.278,-184.613"/>
<polygon fill="none" stroke="midnightblue" points="224.967,-274.7 220.414,-284.266 229.939,-279.627 224.967,-274.7"/>
</g>
<!-- Node12 -->
<g id="node3" class="node"><title>Node12</title>
<g id="a_node3"><a xlink:title=" ">
<polygon fill="none" stroke="#bfbfbf" points="110.13,-689.5 110.13,-746.5 145.13,-746.5 145.13,-689.5 110.13,-689.5"/>
<text text-anchor="middle" x="127.63" y="-734.5" font-family="Helvetica,sans-Serif" font-size="10.00">char</text>
<polyline fill="none" stroke="#bfbfbf" points="110.13,-727.5 145.13,-727.5 "/>
<text text-anchor="middle" x="127.63" y="-715.5" font-family="Helvetica,sans-Serif" font-size="10.00"> </text>
<polyline fill="none" stroke="#bfbfbf" points="110.13,-708.5 145.13,-708.5 "/>
<text text-anchor="middle" x="127.63" y="-696.5" font-family="Helvetica,sans-Serif" font-size="10.00"> </text>
</a>
</g>
</g>
<!-- Node12&#45;&gt;Node1 -->
<g id="edge8" class="edge"><title>Node12&#45;&gt;Node1</title>
<path fill="none" stroke="#404040" d="M145.287,-715.926C218.7,-710.478 502.566,-679.515 644.63,-521 741.089,-413.371 806.515,-312.882 712.63,-203 682,-167.151 556.011,-156.111 469.936,-152.797"/>
<polygon fill="none" stroke="#404040" points="469.799,-152.792 463.662,-156.579 457.806,-152.371 463.943,-148.584 469.799,-152.792"/>
<text text-anchor="middle" x="797.63" y="-401.5" font-family="Helvetica,sans-Serif" font-size="10.00"> +UnknownData01</text>
<text text-anchor="middle" x="797.63" y="-390.5" font-family="Helvetica,sans-Serif" font-size="10.00">+UnknownData00</text>
</g>
<!-- Node12&#45;&gt;Node2 -->
<g id="edge2" class="edge"><title>Node12&#45;&gt;Node2</title>
<path fill="none" stroke="#404040" d="M127.63,-689.379C127.63,-654.307 127.63,-591.325 127.63,-533.008"/>
<polygon fill="none" stroke="#404040" points="127.63,-532.646 123.63,-526.646 127.63,-520.646 131.63,-526.646 127.63,-532.646"/>
<text text-anchor="middle" x="183.63" y="-663" font-family="Helvetica,sans-Serif" font-size="10.00"> +UnknownData01</text>
<text text-anchor="middle" x="183.63" y="-652" font-family="Helvetica,sans-Serif" font-size="10.00">+UnknownData02</text>
<text text-anchor="middle" x="183.63" y="-641" font-family="Helvetica,sans-Serif" font-size="10.00">+UnknownData03</text>
<text text-anchor="middle" x="183.63" y="-630" font-family="Helvetica,sans-Serif" font-size="10.00">+UnknownData04</text>
<text text-anchor="middle" x="183.63" y="-619" font-family="Helvetica,sans-Serif" font-size="10.00">+UnknownData05</text>
<text text-anchor="start" x="127.63" y="-608" font-family="Helvetica,sans-Serif" font-size="10.00">+bCreatedByConstruction</text>
<text text-anchor="middle" x="183.63" y="-597" font-family="Helvetica,sans-Serif" font-size="10.00">Script</text>
<text text-anchor="middle" x="183.63" y="-586" font-family="Helvetica,sans-Serif" font-size="10.00">+UnknownData06</text>
<text text-anchor="middle" x="183.63" y="-575" font-family="Helvetica,sans-Serif" font-size="10.00">+UnknownData07</text>
<text text-anchor="middle" x="183.63" y="-564" font-family="Helvetica,sans-Serif" font-size="10.00">+bEditableWhenInherited</text>
<text text-anchor="middle" x="183.63" y="-553" font-family="Helvetica,sans-Serif" font-size="10.00">+bNeedsLoadForClient</text>
<text text-anchor="middle" x="183.63" y="-542" font-family="Helvetica,sans-Serif" font-size="10.00">...</text>
</g>
<!-- Node12&#45;&gt;Node45 -->
<g id="edge7" class="edge"><title>Node12&#45;&gt;Node45</title>
<path fill="none" stroke="#404040" d="M109.926,-692.573C85.3135,-656.948 41.946,-587.697 25.6297,-521 -0.245034,-415.23 -15.5648,-376.796 25.6297,-276 60.8082,-189.924 143.289,-118.018 200.767,-75.8705"/>
<polygon fill="none" stroke="#404040" points="201.104,-75.6273 203.628,-68.8723 210.834,-68.604 208.31,-75.359 201.104,-75.6273"/>
<text text-anchor="middle" x="108.63" y="-233.5" font-family="Helvetica,sans-Serif" font-size="10.00"> +UnknownData01</text>
<text text-anchor="middle" x="108.63" y="-222.5" font-family="Helvetica,sans-Serif" font-size="10.00">+UnknownData00</text>
</g>
<!-- Node22 -->
<g id="node4" class="node"><title>Node22</title>
<g id="a_node4"><a xlink:href="a28895.html" target="_top" xlink:title=" ">
<polygon fill="none" stroke="red" points="238.13,-309.5 238.13,-487.5 431.13,-487.5 431.13,-309.5 238.13,-309.5"/>
<text text-anchor="middle" x="334.63" y="-475.5" font-family="Helvetica,sans-Serif" font-size="10.00">SDK::UMaterialInstanceDynamic</text>
<polyline fill="none" stroke="red" points="238.13,-468.5 431.13,-468.5 "/>
<text text-anchor="middle" x="334.63" y="-456.5" font-family="Helvetica,sans-Serif" font-size="10.00"> </text>
<polyline fill="none" stroke="red" points="238.13,-449.5 431.13,-449.5 "/>
<text text-anchor="start" x="246.13" y="-437.5" font-family="Helvetica,sans-Serif" font-size="10.00">+ SetVectorParameterValue()</text>
<text text-anchor="start" x="246.13" y="-426.5" font-family="Helvetica,sans-Serif" font-size="10.00">+ SetTextureParameterValue()</text>
<text text-anchor="start" x="246.13" y="-415.5" font-family="Helvetica,sans-Serif" font-size="10.00">+ SetScalarParameterValue()</text>
<text text-anchor="start" x="246.13" y="-404.5" font-family="Helvetica,sans-Serif" font-size="10.00">+ MergeParameters()</text>
<text text-anchor="start" x="246.13" y="-393.5" font-family="Helvetica,sans-Serif" font-size="10.00">+ K2_InterpolateMaterialInstance</text>
<text text-anchor="start" x="246.13" y="-382.5" font-family="Helvetica,sans-Serif" font-size="10.00">Params()</text>
<text text-anchor="start" x="246.13" y="-371.5" font-family="Helvetica,sans-Serif" font-size="10.00">+ K2_GetVectorParameterValue()</text>
<text text-anchor="start" x="246.13" y="-360.5" font-family="Helvetica,sans-Serif" font-size="10.00">+ K2_GetTextureParameterValue()</text>
<text text-anchor="start" x="246.13" y="-349.5" font-family="Helvetica,sans-Serif" font-size="10.00">+ K2_GetScalarParameterValue()</text>
<text text-anchor="start" x="246.13" y="-338.5" font-family="Helvetica,sans-Serif" font-size="10.00">+ K2_CopyMaterialInstanceParameters()</text>
<text text-anchor="start" x="246.13" y="-327.5" font-family="Helvetica,sans-Serif" font-size="10.00">+ CopyParameterOverrides()</text>
<text text-anchor="start" x="246.13" y="-316.5" font-family="Helvetica,sans-Serif" font-size="10.00">+ StaticClass()</text>
</a>
</g>
</g>
<!-- Node22&#45;&gt;Node1 -->
<g id="edge3" class="edge"><title>Node22&#45;&gt;Node1</title>
<path fill="none" stroke="#404040" d="M321.145,-309.483C319.401,-275.097 321.928,-236.067 335.63,-203 336.81,-200.152 338.231,-197.377 339.837,-194.688"/>
<polygon fill="none" stroke="#404040" points="339.915,-194.578 340.098,-187.369 346.823,-184.765 346.639,-191.974 339.915,-194.578"/>
<text text-anchor="middle" x="376.63" y="-228" font-family="Helvetica,sans-Serif" font-size="10.00"> +DynamicMaterial</text>
</g>
<!-- Node4 -->
<g id="node5" class="node"><title>Node4</title>
<g id="a_node5"><a xlink:href="a25627.html" target="_top" xlink:title=" ">
<polygon fill="none" stroke="red" points="449.63,-342.5 449.63,-454.5 555.63,-454.5 555.63,-342.5 449.63,-342.5"/>
<text text-anchor="middle" x="502.63" y="-442.5" font-family="Helvetica,sans-Serif" font-size="10.00">SDK::FName</text>
<polyline fill="none" stroke="red" points="449.63,-435.5 555.63,-435.5 "/>
<text text-anchor="middle" x="502.63" y="-423.5" font-family="Helvetica,sans-Serif" font-size="10.00"> </text>
<polyline fill="none" stroke="red" points="449.63,-416.5 555.63,-416.5 "/>
<text text-anchor="start" x="457.63" y="-404.5" font-family="Helvetica,sans-Serif" font-size="10.00">+ FName()</text>
<text text-anchor="start" x="457.63" y="-393.5" font-family="Helvetica,sans-Serif" font-size="10.00">+ FName()</text>
<text text-anchor="start" x="457.63" y="-382.5" font-family="Helvetica,sans-Serif" font-size="10.00">+ FName()</text>
<text text-anchor="start" x="457.63" y="-371.5" font-family="Helvetica,sans-Serif" font-size="10.00">+ GetName()</text>
<text text-anchor="start" x="457.63" y="-360.5" font-family="Helvetica,sans-Serif" font-size="10.00">+ operator==()</text>
<text text-anchor="start" x="457.63" y="-349.5" font-family="Helvetica,sans-Serif" font-size="10.00">+ GetGlobalNames()</text>
</a>
</g>
</g>
<!-- Node4&#45;&gt;Node1 -->
<g id="edge4" class="edge"><title>Node4&#45;&gt;Node1</title>
<path fill="none" stroke="#404040" d="M477.758,-342.296C466.317,-316.711 452.647,-285.865 440.63,-258 430.137,-233.67 429.605,-226.635 417.63,-203 416.336,-200.447 414.964,-197.85 413.545,-195.248"/>
<polygon fill="none" stroke="#404040" points="413.441,-195.064 407.004,-191.813 407.529,-184.621 413.966,-187.872 413.441,-195.064"/>
<text text-anchor="middle" x="514.63" y="-250" font-family="Helvetica,sans-Serif" font-size="10.00"> +HitPositionPropertyName</text>
<text text-anchor="middle" x="514.63" y="-239" font-family="Helvetica,sans-Serif" font-size="10.00">+MagicColourPropertyName</text>
<text text-anchor="middle" x="514.63" y="-228" font-family="Helvetica,sans-Serif" font-size="10.00">+TimeBasedPropertyName</text>
<text text-anchor="middle" x="514.63" y="-217" font-family="Helvetica,sans-Serif" font-size="10.00">+DamageLevelPropertyName</text>
<text text-anchor="middle" x="514.63" y="-206" font-family="Helvetica,sans-Serif" font-size="10.00">+CollapseStartTimePropertyName</text>
</g>
<!-- Node45&#45;&gt;Node1 -->
<g id="edge5" class="edge"><title>Node45&#45;&gt;Node1</title>
<path fill="none" stroke="#404040" d="M255.439,-68.7702C255.242,-78.8929 256.899,-89.5611 262.63,-98 272.685,-112.807 287.863,-123.364 304.187,-130.889"/>
<polygon fill="none" stroke="#404040" points="304.537,-131.034 311.611,-129.637 315.622,-135.63 308.547,-137.027 304.537,-131.034"/>
<text text-anchor="middle" x="313.63" y="-90" font-family="Helvetica,sans-Serif" font-size="10.00"> +SunkenCurseArtefact</text>
</g>
<!-- Node198 -->
<g id="node7" class="node"><title>Node198</title>
<g id="a_node7"><a xlink:title=" ">
<polygon fill="none" stroke="#bfbfbf" points="585.13,-370 585.13,-427 636.13,-427 636.13,-370 585.13,-370"/>
<text text-anchor="middle" x="610.63" y="-415" font-family="Helvetica,sans-Serif" font-size="10.00">uint32_t</text>
<polyline fill="none" stroke="#bfbfbf" points="585.13,-408 636.13,-408 "/>
<text text-anchor="middle" x="610.63" y="-396" font-family="Helvetica,sans-Serif" font-size="10.00"> </text>
<polyline fill="none" stroke="#bfbfbf" points="585.13,-389 636.13,-389 "/>
<text text-anchor="middle" x="610.63" y="-377" font-family="Helvetica,sans-Serif" font-size="10.00"> </text>
</a>
</g>
</g>
<!-- Node198&#45;&gt;Node1 -->
<g id="edge9" class="edge"><title>Node198&#45;&gt;Node1</title>
<path fill="none" stroke="#404040" d="M611.23,-369.859C611.676,-322.186 609.786,-227.273 588.63,-203 572.675,-184.695 517.947,-171.43 469.477,-162.951"/>
<polygon fill="none" stroke="#404040" points="469.472,-162.95 462.89,-165.895 457.64,-160.951 464.222,-158.007 469.472,-162.95"/>
<text text-anchor="middle" x="657.13" y="-228" font-family="Helvetica,sans-Serif" font-size="10.00"> +MaterialElementIndex</text>
</g>
</g>
</svg>
