<?xml version="1.0" encoding="UTF-8" standalone="no"?>
<!DOCTYPE svg PUBLIC "-//W3C//DTD SVG 1.1//EN"
 "http://www.w3.org/Graphics/SVG/1.1/DTD/svg11.dtd">
<!-- Generated by graphviz version 2.38.0 (20140413.2041)
 -->
<!-- Title: SDK::UStatusResponseVenom Pages: 1 -->
<svg width="402pt" height="193pt"
 viewBox="0.00 0.00 402.00 193.00" xmlns="http://www.w3.org/2000/svg" xmlns:xlink="http://www.w3.org/1999/xlink">
<g id="graph0" class="graph" transform="scale(1 1) rotate(0) translate(4 189)">
<title>SDK::UStatusResponseVenom</title>
<!-- Node1 -->
<g id="node1" class="node"><title>Node1</title>
<g id="a_node1"><a xlink:title=" ">
<polygon fill="#bfbfbf" stroke="black" points="124,-0.5 124,-57.5 276,-57.5 276,-0.5 124,-0.5"/>
<text text-anchor="middle" x="200" y="-45.5" font-family="Helvetica,sans-Serif" font-size="10.00">SDK::UStatusResponseVenom</text>
<polyline fill="none" stroke="black" points="124,-38.5 276,-38.5 "/>
<text text-anchor="middle" x="200" y="-26.5" font-family="Helvetica,sans-Serif" font-size="10.00"> </text>
<polyline fill="none" stroke="black" points="124,-19.5 276,-19.5 "/>
<text text-anchor="start" x="132" y="-7.5" font-family="Helvetica,sans-Serif" font-size="10.00">+ StaticClass()</text>
</a>
</g>
</g>
<!-- Node2 -->
<g id="node2" class="node"><title>Node2</title>
<g id="a_node2"><a xlink:href="a34659.html" target="_top" xlink:title=" ">
<polygon fill="none" stroke="red" points="0,-116.5 0,-173.5 122,-173.5 122,-116.5 0,-116.5"/>
<text text-anchor="middle" x="61" y="-161.5" font-family="Helvetica,sans-Serif" font-size="10.00">SDK::UStatusResponse</text>
<polyline fill="none" stroke="red" points="0,-154.5 122,-154.5 "/>
<text text-anchor="middle" x="61" y="-142.5" font-family="Helvetica,sans-Serif" font-size="10.00"> </text>
<polyline fill="none" stroke="red" points="0,-135.5 122,-135.5 "/>
<text text-anchor="start" x="8" y="-123.5" font-family="Helvetica,sans-Serif" font-size="10.00">+ StaticClass()</text>
</a>
</g>
</g>
<!-- Node2&#45;&gt;Node1 -->
<g id="edge1" class="edge"><title>Node2&#45;&gt;Node1</title>
<path fill="none" stroke="midnightblue" d="M102.518,-109.949C122.842,-93.2803 146.999,-73.4685 166.18,-57.7372"/>
<polygon fill="none" stroke="midnightblue" points="100.161,-107.356 94.648,-116.404 104.6,-112.769 100.161,-107.356"/>
</g>
<!-- Node9 -->
<g id="node3" class="node"><title>Node9</title>
<g id="a_node3"><a xlink:href="a25915.html" target="_top" xlink:title=" ">
<polygon fill="none" stroke="red" points="140.5,-105.5 140.5,-184.5 259.5,-184.5 259.5,-105.5 140.5,-105.5"/>
<text text-anchor="middle" x="200" y="-172.5" font-family="Helvetica,sans-Serif" font-size="10.00">SDK::UClass</text>
<polyline fill="none" stroke="red" points="140.5,-165.5 259.5,-165.5 "/>
<text text-anchor="middle" x="200" y="-153.5" font-family="Helvetica,sans-Serif" font-size="10.00"> </text>
<polyline fill="none" stroke="red" points="140.5,-146.5 259.5,-146.5 "/>
<text text-anchor="start" x="148.5" y="-134.5" font-family="Helvetica,sans-Serif" font-size="10.00">+ CreateDefaultObject()</text>
<text text-anchor="start" x="148.5" y="-123.5" font-family="Helvetica,sans-Serif" font-size="10.00">+ CreateDefaultObject()</text>
<text text-anchor="start" x="148.5" y="-112.5" font-family="Helvetica,sans-Serif" font-size="10.00">+ StaticClass()</text>
</a>
</g>
</g>
<!-- Node9&#45;&gt;Node1 -->
<g id="edge2" class="edge"><title>Node9&#45;&gt;Node1</title>
<path fill="none" stroke="#404040" d="M200,-105.405C200,-93.9252 200,-81.3299 200,-69.7765"/>
<polygon fill="none" stroke="#404040" points="200,-69.7509 196,-63.7509 200,-57.7509 204,-63.7508 200,-69.7509"/>
<text text-anchor="middle" x="235.5" y="-79" font-family="Helvetica,sans-Serif" font-size="10.00"> +VenomSource</text>
</g>
<!-- Node14 -->
<g id="node4" class="node"><title>Node14</title>
<g id="a_node4"><a xlink:href="a15439.html" target="_top" xlink:title=" ">
<polygon fill="none" stroke="red" points="278,-116.5 278,-173.5 394,-173.5 394,-116.5 278,-116.5"/>
<text text-anchor="middle" x="336" y="-161.5" font-family="Helvetica,sans-Serif" font-size="10.00">SDK::FVenomDamage</text>
<polyline fill="none" stroke="red" points="278,-154.5 394,-154.5 "/>
<text text-anchor="middle" x="336" y="-142.5" font-family="Helvetica,sans-Serif" font-size="10.00"> </text>
<polyline fill="none" stroke="red" points="278,-135.5 394,-135.5 "/>
<text text-anchor="middle" x="336" y="-123.5" font-family="Helvetica,sans-Serif" font-size="10.00"> </text>
</a>
</g>
</g>
<!-- Node14&#45;&gt;Node1 -->
<g id="edge3" class="edge"><title>Node14&#45;&gt;Node1</title>
<path fill="none" stroke="#404040" d="M314.465,-116.47C303.458,-103.366 289.375,-87.9827 275,-76 270.281,-72.0664 265.194,-68.2335 259.97,-64.5666"/>
<polygon fill="none" stroke="#404040" points="259.775,-64.4352 252.564,-64.4048 249.818,-57.7368 257.03,-57.7671 259.775,-64.4352"/>
<text text-anchor="middle" x="325" y="-79" font-family="Helvetica,sans-Serif" font-size="10.00"> +VenomDamage</text>
</g>
</g>
</svg>
