<?xml version="1.0" encoding="UTF-8" standalone="no"?>
<!DOCTYPE svg PUBLIC "-//W3C//DTD SVG 1.1//EN"
 "http://www.w3.org/Graphics/SVG/1.1/DTD/svg11.dtd">
<!-- Generated by graphviz version 2.38.0 (20140413.2041)
 -->
<!-- Title: SDK::USunkenCurseArtefactAudioComponent Pages: 1 -->
<svg width="638pt" height="628pt"
 viewBox="0.00 0.00 637.67 628.00" xmlns="http://www.w3.org/2000/svg" xmlns:xlink="http://www.w3.org/1999/xlink">
<g id="graph0" class="graph" transform="scale(1 1) rotate(0) translate(4 624)">
<title>SDK::USunkenCurseArtefactAudioComponent</title>
<!-- Node1 -->
<g id="node1" class="node"><title>Node1</title>
<g id="a_node1"><a xlink:title=" ">
<polygon fill="#bfbfbf" stroke="black" points="193.669,-0.5 193.669,-68.5 335.669,-68.5 335.669,-0.5 193.669,-0.5"/>
<text text-anchor="start" x="201.669" y="-56.5" font-family="Helvetica,sans-Serif" font-size="10.00">SDK::USunkenCurseArtefact</text>
<text text-anchor="middle" x="264.669" y="-45.5" font-family="Helvetica,sans-Serif" font-size="10.00">AudioComponent</text>
<polyline fill="none" stroke="black" points="193.669,-38.5 335.669,-38.5 "/>
<text text-anchor="middle" x="264.669" y="-26.5" font-family="Helvetica,sans-Serif" font-size="10.00"> </text>
<polyline fill="none" stroke="black" points="193.669,-19.5 335.669,-19.5 "/>
<text text-anchor="start" x="201.669" y="-7.5" font-family="Helvetica,sans-Serif" font-size="10.00">+ StaticClass()</text>
</a>
</g>
</g>
<!-- Node2 -->
<g id="node2" class="node"><title>Node2</title>
<g id="a_node2"><a xlink:href="a26551.html" target="_top" xlink:title=" ">
<polygon fill="none" stroke="red" points="128.169,-149.5 128.169,-393.5 313.169,-393.5 313.169,-149.5 128.169,-149.5"/>
<text text-anchor="middle" x="220.669" y="-381.5" font-family="Helvetica,sans-Serif" font-size="10.00">SDK::UActorComponent</text>
<polyline fill="none" stroke="red" points="128.169,-374.5 313.169,-374.5 "/>
<text text-anchor="start" x="136.169" y="-362.5" font-family="Helvetica,sans-Serif" font-size="10.00">+ UnknownData00</text>
<text text-anchor="start" x="136.169" y="-351.5" font-family="Helvetica,sans-Serif" font-size="10.00">+ bReplicates</text>
<text text-anchor="start" x="136.169" y="-340.5" font-family="Helvetica,sans-Serif" font-size="10.00">+ bNetAddressable</text>
<text text-anchor="start" x="136.169" y="-329.5" font-family="Helvetica,sans-Serif" font-size="10.00">+ bInstanceComponent</text>
<text text-anchor="start" x="136.169" y="-318.5" font-family="Helvetica,sans-Serif" font-size="10.00">+ bAutoActivate</text>
<text text-anchor="start" x="136.169" y="-307.5" font-family="Helvetica,sans-Serif" font-size="10.00">+ bIsActive</text>
<text text-anchor="start" x="136.169" y="-296.5" font-family="Helvetica,sans-Serif" font-size="10.00">+ bNeedsLoadForServer</text>
<polyline fill="none" stroke="red" points="128.169,-289.5 313.169,-289.5 "/>
<text text-anchor="start" x="136.169" y="-277.5" font-family="Helvetica,sans-Serif" font-size="10.00">+ ToggleActive()</text>
<text text-anchor="start" x="136.169" y="-266.5" font-family="Helvetica,sans-Serif" font-size="10.00">+ SetTickGroup()</text>
<text text-anchor="start" x="136.169" y="-255.5" font-family="Helvetica,sans-Serif" font-size="10.00">+ SetTickableWhenPaused()</text>
<text text-anchor="start" x="136.169" y="-244.5" font-family="Helvetica,sans-Serif" font-size="10.00">+ SetIsReplicated()</text>
<text text-anchor="start" x="136.169" y="-233.5" font-family="Helvetica,sans-Serif" font-size="10.00">+ SetComponentTickEnabled()</text>
<text text-anchor="start" x="136.169" y="-222.5" font-family="Helvetica,sans-Serif" font-size="10.00">+ SetActive()</text>
<text text-anchor="start" x="136.169" y="-211.5" font-family="Helvetica,sans-Serif" font-size="10.00">+ RemoveTickPrerequisiteComponent()</text>
<text text-anchor="start" x="136.169" y="-200.5" font-family="Helvetica,sans-Serif" font-size="10.00">+ RemoveTickPrerequisiteActor()</text>
<text text-anchor="start" x="136.169" y="-189.5" font-family="Helvetica,sans-Serif" font-size="10.00">+ ReceiveTick()</text>
<text text-anchor="start" x="136.169" y="-178.5" font-family="Helvetica,sans-Serif" font-size="10.00">+ ReceiveEndPlay()</text>
<text text-anchor="start" x="136.169" y="-167.5" font-family="Helvetica,sans-Serif" font-size="10.00">and 12 more...</text>
<text text-anchor="start" x="136.169" y="-156.5" font-family="Helvetica,sans-Serif" font-size="10.00">+ StaticClass()</text>
</a>
</g>
</g>
<!-- Node2&#45;&gt;Node1 -->
<g id="edge1" class="edge"><title>Node2&#45;&gt;Node1</title>
<path fill="none" stroke="midnightblue" d="M245.259,-139.168C250.149,-113.047 254.867,-87.8496 258.427,-68.8385"/>
<polygon fill="none" stroke="midnightblue" points="241.778,-138.741 243.378,-149.214 248.658,-140.029 241.778,-138.741"/>
</g>
<!-- Node12 -->
<g id="node3" class="node"><title>Node12</title>
<g id="a_node3"><a xlink:title=" ">
<polygon fill="none" stroke="#bfbfbf" points="287.169,-562.5 287.169,-619.5 322.169,-619.5 322.169,-562.5 287.169,-562.5"/>
<text text-anchor="middle" x="304.669" y="-607.5" font-family="Helvetica,sans-Serif" font-size="10.00">char</text>
<polyline fill="none" stroke="#bfbfbf" points="287.169,-600.5 322.169,-600.5 "/>
<text text-anchor="middle" x="304.669" y="-588.5" font-family="Helvetica,sans-Serif" font-size="10.00"> </text>
<polyline fill="none" stroke="#bfbfbf" points="287.169,-581.5 322.169,-581.5 "/>
<text text-anchor="middle" x="304.669" y="-569.5" font-family="Helvetica,sans-Serif" font-size="10.00"> </text>
</a>
</g>
</g>
<!-- Node12&#45;&gt;Node1 -->
<g id="edge5" class="edge"><title>Node12&#45;&gt;Node1</title>
<path fill="none" stroke="#404040" d="M286.805,-583.918C235.528,-565.324 88.3779,-503.728 38.6688,-394 -6.26435,-294.814 -18.4956,-241.677 38.6688,-149 69.7827,-98.557 130.92,-69.7533 181.768,-53.7934"/>
<polygon fill="none" stroke="#404040" points="181.949,-53.7391 186.548,-48.1847 193.444,-50.2935 188.845,-55.8479 181.949,-53.7391"/>
<text text-anchor="middle" x="78.6688" y="-269" font-family="Helvetica,sans-Serif" font-size="10.00"> +UnknownData00</text>
</g>
<!-- Node12&#45;&gt;Node2 -->
<g id="edge2" class="edge"><title>Node12&#45;&gt;Node2</title>
<path fill="none" stroke="#404040" d="M286.985,-581.111C273.476,-573.302 255.691,-560.599 246.669,-544 224.095,-502.468 215.173,-452.042 212.688,-405.973"/>
<polygon fill="none" stroke="#404040" points="212.678,-405.726 208.428,-399.9 212.171,-393.737 216.421,-399.562 212.678,-405.726"/>
<text text-anchor="middle" x="302.669" y="-536" font-family="Helvetica,sans-Serif" font-size="10.00"> +UnknownData01</text>
<text text-anchor="middle" x="302.669" y="-525" font-family="Helvetica,sans-Serif" font-size="10.00">+UnknownData02</text>
<text text-anchor="middle" x="302.669" y="-514" font-family="Helvetica,sans-Serif" font-size="10.00">+UnknownData03</text>
<text text-anchor="middle" x="302.669" y="-503" font-family="Helvetica,sans-Serif" font-size="10.00">+UnknownData04</text>
<text text-anchor="middle" x="302.669" y="-492" font-family="Helvetica,sans-Serif" font-size="10.00">+UnknownData05</text>
<text text-anchor="start" x="246.669" y="-481" font-family="Helvetica,sans-Serif" font-size="10.00">+bCreatedByConstruction</text>
<text text-anchor="middle" x="302.669" y="-470" font-family="Helvetica,sans-Serif" font-size="10.00">Script</text>
<text text-anchor="middle" x="302.669" y="-459" font-family="Helvetica,sans-Serif" font-size="10.00">+UnknownData06</text>
<text text-anchor="middle" x="302.669" y="-448" font-family="Helvetica,sans-Serif" font-size="10.00">+UnknownData07</text>
<text text-anchor="middle" x="302.669" y="-437" font-family="Helvetica,sans-Serif" font-size="10.00">+bEditableWhenInherited</text>
<text text-anchor="middle" x="302.669" y="-426" font-family="Helvetica,sans-Serif" font-size="10.00">+bNeedsLoadForClient</text>
<text text-anchor="middle" x="302.669" y="-415" font-family="Helvetica,sans-Serif" font-size="10.00">...</text>
</g>
<!-- Node22 -->
<g id="node4" class="node"><title>Node22</title>
<g id="a_node4"><a xlink:href="a36295.html" target="_top" xlink:title=" ">
<polygon fill="none" stroke="red" points="331.669,-215.5 331.669,-327.5 447.669,-327.5 447.669,-215.5 331.669,-215.5"/>
<text text-anchor="middle" x="389.669" y="-315.5" font-family="Helvetica,sans-Serif" font-size="10.00">SDK::UWwiseEvent</text>
<polyline fill="none" stroke="red" points="331.669,-308.5 447.669,-308.5 "/>
<text text-anchor="middle" x="389.669" y="-296.5" font-family="Helvetica,sans-Serif" font-size="10.00"> </text>
<polyline fill="none" stroke="red" points="331.669,-289.5 447.669,-289.5 "/>
<text text-anchor="start" x="339.669" y="-277.5" font-family="Helvetica,sans-Serif" font-size="10.00">+ IsAudible()</text>
<text text-anchor="start" x="339.669" y="-266.5" font-family="Helvetica,sans-Serif" font-size="10.00">+ GetMaxAttenuation()</text>
<text text-anchor="start" x="339.669" y="-255.5" font-family="Helvetica,sans-Serif" font-size="10.00">+ GetDurationType()</text>
<text text-anchor="start" x="339.669" y="-244.5" font-family="Helvetica,sans-Serif" font-size="10.00">+ GetDurationMin()</text>
<text text-anchor="start" x="339.669" y="-233.5" font-family="Helvetica,sans-Serif" font-size="10.00">+ GetDurationMax()</text>
<text text-anchor="start" x="339.669" y="-222.5" font-family="Helvetica,sans-Serif" font-size="10.00">+ StaticClass()</text>
</a>
</g>
</g>
<!-- Node12&#45;&gt;Node22 -->
<g id="edge4" class="edge"><title>Node12&#45;&gt;Node22</title>
<path fill="none" stroke="#404040" d="M322.365,-579.941C334.732,-571.9 350.447,-559.435 358.669,-544 392.384,-480.708 397.092,-397.501 395.294,-339.965"/>
<polygon fill="none" stroke="#404040" points="395.284,-339.722 391.046,-333.888 394.802,-327.732 399.04,-333.566 395.284,-339.722"/>
<text text-anchor="middle" x="433.669" y="-481" font-family="Helvetica,sans-Serif" font-size="10.00"> +UnknownData01</text>
<text text-anchor="middle" x="433.669" y="-470" font-family="Helvetica,sans-Serif" font-size="10.00">+UnknownData00</text>
</g>
<!-- Node29 -->
<g id="node5" class="node"><title>Node29</title>
<g id="a_node5"><a xlink:href="a34387.html" target="_top" xlink:title=" ">
<polygon fill="none" stroke="red" points="465.669,-243 465.669,-300 629.669,-300 629.669,-243 465.669,-243"/>
<text text-anchor="middle" x="547.669" y="-288" font-family="Helvetica,sans-Serif" font-size="10.00">SDK::UWwiseObjectPoolWrapper</text>
<polyline fill="none" stroke="red" points="465.669,-281 629.669,-281 "/>
<text text-anchor="middle" x="547.669" y="-269" font-family="Helvetica,sans-Serif" font-size="10.00"> </text>
<polyline fill="none" stroke="red" points="465.669,-262 629.669,-262 "/>
<text text-anchor="start" x="473.669" y="-250" font-family="Helvetica,sans-Serif" font-size="10.00">+ StaticClass()</text>
</a>
</g>
</g>
<!-- Node12&#45;&gt;Node29 -->
<g id="edge7" class="edge"><title>Node12&#45;&gt;Node29</title>
<path fill="none" stroke="#404040" d="M322.184,-590.736C356.947,-591.189 434.978,-587.014 477.669,-544 539.803,-481.395 549.048,-371.39 549.146,-312.453"/>
<polygon fill="none" stroke="#404040" points="549.145,-312.343 545.091,-306.38 549.037,-300.344 553.091,-306.308 549.145,-312.343"/>
<text text-anchor="middle" x="578.669" y="-481" font-family="Helvetica,sans-Serif" font-size="10.00"> +UnknownData01</text>
<text text-anchor="middle" x="578.669" y="-470" font-family="Helvetica,sans-Serif" font-size="10.00">+UnknownData00</text>
</g>
<!-- Node22&#45;&gt;Node1 -->
<g id="edge3" class="edge"><title>Node22&#45;&gt;Node1</title>
<path fill="none" stroke="#404040" d="M360.362,-215.403C338.294,-173.916 308.449,-117.807 287.99,-79.3441"/>
<polygon fill="none" stroke="#404040" points="287.858,-79.0951 281.509,-75.6764 282.222,-68.5007 288.572,-71.9194 287.858,-79.0951"/>
<text text-anchor="middle" x="358.169" y="-123" font-family="Helvetica,sans-Serif" font-size="10.00"> +StopSongEvent</text>
<text text-anchor="middle" x="358.169" y="-112" font-family="Helvetica,sans-Serif" font-size="10.00">+PlayDamagedEvent</text>
<text text-anchor="middle" x="358.169" y="-101" font-family="Helvetica,sans-Serif" font-size="10.00">+PlayDefeatedEvent</text>
<text text-anchor="middle" x="358.169" y="-90" font-family="Helvetica,sans-Serif" font-size="10.00">+PlaySongEvent</text>
</g>
<!-- Node29&#45;&gt;Node1 -->
<g id="edge6" class="edge"><title>Node29&#45;&gt;Node1</title>
<path fill="none" stroke="#404040" d="M533.457,-242.725C511.642,-202.736 466.211,-129.133 407.669,-87 389.688,-74.0593 368.122,-64.0676 347.255,-56.4824"/>
<polygon fill="none" stroke="#404040" points="347.104,-56.4304 340.127,-58.2523 335.762,-52.5126 342.739,-50.6907 347.104,-56.4304"/>
<text text-anchor="middle" x="481.669" y="-106.5" font-family="Helvetica,sans-Serif" font-size="10.00"> +AudioPool</text>
</g>
</g>
</svg>
