<?xml version="1.0" encoding="UTF-8" standalone="no"?>
<!DOCTYPE svg PUBLIC "-//W3C//DTD SVG 1.1//EN"
 "http://www.w3.org/Graphics/SVG/1.1/DTD/svg11.dtd">
<!-- Generated by graphviz version 2.38.0 (20140413.2041)
 -->
<!-- Title: SDK::ASharkPawn Pages: 1 -->
<svg width="1863pt" height="956pt"
 viewBox="0.00 0.00 1862.95 956.00" xmlns="http://www.w3.org/2000/svg" xmlns:xlink="http://www.w3.org/1999/xlink">
<g id="graph0" class="graph" transform="scale(1 1) rotate(0) translate(4 952)">
<title>SDK::ASharkPawn</title>
<!-- Node1 -->
<g id="node1" class="node"><title>Node1</title>
<g id="a_node1"><a xlink:title=" ">
<polygon fill="#bfbfbf" stroke="black" points="746.95,-0.5 746.95,-90.5 900.95,-90.5 900.95,-0.5 746.95,-0.5"/>
<text text-anchor="middle" x="823.95" y="-78.5" font-family="Helvetica,sans-Serif" font-size="10.00">SDK::ASharkPawn</text>
<polyline fill="none" stroke="black" points="746.95,-71.5 900.95,-71.5 "/>
<text text-anchor="middle" x="823.95" y="-59.5" font-family="Helvetica,sans-Serif" font-size="10.00"> </text>
<polyline fill="none" stroke="black" points="746.95,-52.5 900.95,-52.5 "/>
<text text-anchor="start" x="754.95" y="-40.5" font-family="Helvetica,sans-Serif" font-size="10.00">+ Multicast_PlayMontageRPC()</text>
<text text-anchor="start" x="754.95" y="-29.5" font-family="Helvetica,sans-Serif" font-size="10.00">+ IsDoingQuickDeath()</text>
<text text-anchor="start" x="754.95" y="-18.5" font-family="Helvetica,sans-Serif" font-size="10.00">+ GetIndexForMontage()</text>
<text text-anchor="start" x="754.95" y="-7.5" font-family="Helvetica,sans-Serif" font-size="10.00">+ StaticClass()</text>
</a>
</g>
</g>
<!-- Node2 -->
<g id="node2" class="node"><title>Node2</title>
<g id="a_node2"><a xlink:href="a08599.html" target="_top" xlink:title=" ">
<polygon fill="none" stroke="red" points="576.45,-291.5 576.45,-414.5 741.45,-414.5 741.45,-291.5 576.45,-291.5"/>
<text text-anchor="middle" x="658.95" y="-402.5" font-family="Helvetica,sans-Serif" font-size="10.00">SDK::ASwimmingCreaturePawn</text>
<polyline fill="none" stroke="red" points="576.45,-395.5 741.45,-395.5 "/>
<text text-anchor="middle" x="658.95" y="-383.5" font-family="Helvetica,sans-Serif" font-size="10.00"> </text>
<polyline fill="none" stroke="red" points="576.45,-376.5 741.45,-376.5 "/>
<text text-anchor="start" x="584.45" y="-364.5" font-family="Helvetica,sans-Serif" font-size="10.00">+ SetAIStrategy()</text>
<text text-anchor="start" x="584.45" y="-353.5" font-family="Helvetica,sans-Serif" font-size="10.00">+ OnRep_CurrentAIStrategy()</text>
<text text-anchor="start" x="584.45" y="-342.5" font-family="Helvetica,sans-Serif" font-size="10.00">+ Multicast_DespawnRPC()</text>
<text text-anchor="start" x="584.45" y="-331.5" font-family="Helvetica,sans-Serif" font-size="10.00">+ GetCreatureDistanceFromWater</text>
<text text-anchor="start" x="584.45" y="-320.5" font-family="Helvetica,sans-Serif" font-size="10.00">Height()</text>
<text text-anchor="start" x="584.45" y="-309.5" font-family="Helvetica,sans-Serif" font-size="10.00">+ GetAIStrategy()</text>
<text text-anchor="start" x="584.45" y="-298.5" font-family="Helvetica,sans-Serif" font-size="10.00">+ StaticClass()</text>
</a>
</g>
</g>
<!-- Node2&#45;&gt;Node1 -->
<g id="edge1" class="edge"><title>Node2&#45;&gt;Node1</title>
<path fill="none" stroke="midnightblue" d="M639.237,-281.19C628.976,-227.796 625.639,-155.973 664.95,-109 685.509,-84.4345 717.019,-69.4725 746.583,-60.3832"/>
<polygon fill="none" stroke="midnightblue" points="635.866,-282.176 641.298,-291.272 642.724,-280.774 635.866,-282.176"/>
</g>
<!-- Node14 -->
<g id="node3" class="node"><title>Node14</title>
<g id="a_node3"><a xlink:title=" ">
<polygon fill="none" stroke="#bfbfbf" points="478.45,-890.5 478.45,-947.5 513.45,-947.5 513.45,-890.5 478.45,-890.5"/>
<text text-anchor="middle" x="495.95" y="-935.5" font-family="Helvetica,sans-Serif" font-size="10.00">char</text>
<polyline fill="none" stroke="#bfbfbf" points="478.45,-928.5 513.45,-928.5 "/>
<text text-anchor="middle" x="495.95" y="-916.5" font-family="Helvetica,sans-Serif" font-size="10.00"> </text>
<polyline fill="none" stroke="#bfbfbf" points="478.45,-909.5 513.45,-909.5 "/>
<text text-anchor="middle" x="495.95" y="-897.5" font-family="Helvetica,sans-Serif" font-size="10.00"> </text>
</a>
</g>
</g>
<!-- Node14&#45;&gt;Node1 -->
<g id="edge8" class="edge"><title>Node14&#45;&gt;Node1</title>
<path fill="none" stroke="#404040" d="M478.267,-917.574C421.468,-915.855 244.923,-907.691 202.95,-872 -0.217742,-699.24 -51.6505,-536.32 52.95,-291 102.321,-175.211 150.42,-148.459 269.95,-109 353.955,-81.2686 600.451,-61.2741 734.559,-52.1065"/>
<polygon fill="none" stroke="#404040" points="734.809,-52.0897 740.525,-47.6938 746.782,-51.2797 741.065,-55.6755 734.809,-52.0897"/>
<text text-anchor="middle" x="92.95" y="-367" font-family="Helvetica,sans-Serif" font-size="10.00"> +UnknownData01</text>
<text text-anchor="middle" x="92.95" y="-356" font-family="Helvetica,sans-Serif" font-size="10.00">+UnknownData02</text>
<text text-anchor="middle" x="92.95" y="-345" font-family="Helvetica,sans-Serif" font-size="10.00">+UnknownData03</text>
<text text-anchor="middle" x="92.95" y="-334" font-family="Helvetica,sans-Serif" font-size="10.00">+UnknownData00</text>
</g>
<!-- Node14&#45;&gt;Node2 -->
<g id="edge2" class="edge"><title>Node14&#45;&gt;Node2</title>
<path fill="none" stroke="#404040" d="M513.576,-913.435C533.135,-907.394 564.03,-894.75 579.95,-872 629.289,-801.491 648.85,-552.265 655.699,-427.001"/>
<polygon fill="none" stroke="#404040" points="655.704,-426.894 652.028,-420.69 656.341,-414.911 660.017,-421.114 655.704,-426.894"/>
<text text-anchor="middle" x="659.95" y="-820" font-family="Helvetica,sans-Serif" font-size="10.00"> +UnknownData01</text>
<text text-anchor="middle" x="659.95" y="-809" font-family="Helvetica,sans-Serif" font-size="10.00">+UnknownData02</text>
<text text-anchor="middle" x="659.95" y="-798" font-family="Helvetica,sans-Serif" font-size="10.00">+UnknownData00</text>
</g>
<!-- Node245 -->
<g id="node4" class="node"><title>Node245</title>
<g id="a_node4"><a xlink:href="a07923.html" target="_top" xlink:title=" ">
<polygon fill="none" stroke="red" points="420.45,-319 420.45,-387 571.45,-387 571.45,-319 420.45,-319"/>
<text text-anchor="start" x="428.45" y="-375" font-family="Helvetica,sans-Serif" font-size="10.00">SDK::USharkAICharacterAudio</text>
<text text-anchor="middle" x="495.95" y="-364" font-family="Helvetica,sans-Serif" font-size="10.00">Component</text>
<polyline fill="none" stroke="red" points="420.45,-357 571.45,-357 "/>
<text text-anchor="middle" x="495.95" y="-345" font-family="Helvetica,sans-Serif" font-size="10.00"> </text>
<polyline fill="none" stroke="red" points="420.45,-338 571.45,-338 "/>
<text text-anchor="start" x="428.45" y="-326" font-family="Helvetica,sans-Serif" font-size="10.00">+ StaticClass()</text>
</a>
</g>
</g>
<!-- Node14&#45;&gt;Node245 -->
<g id="edge4" class="edge"><title>Node14&#45;&gt;Node245</title>
<path fill="none" stroke="#404040" d="M495.95,-890.415C495.95,-799.91 495.95,-511.399 495.95,-399.222"/>
<polygon fill="none" stroke="#404040" points="495.95,-399.059 491.95,-393.059 495.95,-387.059 499.95,-393.059 495.95,-399.059"/>
<text text-anchor="middle" x="535.95" y="-814.5" font-family="Helvetica,sans-Serif" font-size="10.00"> +UnknownData01</text>
<text text-anchor="middle" x="535.95" y="-803.5" font-family="Helvetica,sans-Serif" font-size="10.00">+UnknownData00</text>
</g>
<!-- Node254 -->
<g id="node7" class="node"><title>Node254</title>
<g id="a_node7"><a xlink:href="a11479.html" target="_top" xlink:title=" ">
<polygon fill="none" stroke="red" points="142.45,-324.5 142.45,-381.5 273.45,-381.5 273.45,-324.5 142.45,-324.5"/>
<text text-anchor="middle" x="207.95" y="-369.5" font-family="Helvetica,sans-Serif" font-size="10.00">SDK::URewindComponent</text>
<polyline fill="none" stroke="red" points="142.45,-362.5 273.45,-362.5 "/>
<text text-anchor="middle" x="207.95" y="-350.5" font-family="Helvetica,sans-Serif" font-size="10.00"> </text>
<polyline fill="none" stroke="red" points="142.45,-343.5 273.45,-343.5 "/>
<text text-anchor="start" x="150.45" y="-331.5" font-family="Helvetica,sans-Serif" font-size="10.00">+ StaticClass()</text>
</a>
</g>
</g>
<!-- Node14&#45;&gt;Node254 -->
<g id="edge10" class="edge"><title>Node14&#45;&gt;Node254</title>
<path fill="none" stroke="#404040" d="M478.395,-916.924C430.93,-913.634 301.751,-902.046 273.95,-872 148.735,-736.673 180.813,-489.453 199.294,-393.521"/>
<polygon fill="none" stroke="#404040" points="199.337,-393.306 196.589,-386.639 201.686,-381.538 204.434,-388.205 199.337,-393.306"/>
<text text-anchor="middle" x="313.95" y="-809" font-family="Helvetica,sans-Serif" font-size="10.00"> +UnknownData00</text>
</g>
<!-- Node256 -->
<g id="node10" class="node"><title>Node256</title>
<g id="a_node10"><a xlink:href="a11987.html" target="_top" xlink:title=" ">
<polygon fill="none" stroke="red" points="278.95,-324.5 278.95,-381.5 414.95,-381.5 414.95,-324.5 278.95,-324.5"/>
<text text-anchor="middle" x="346.95" y="-369.5" font-family="Helvetica,sans-Serif" font-size="10.00">SDK::URammerComponent</text>
<polyline fill="none" stroke="red" points="278.95,-362.5 414.95,-362.5 "/>
<text text-anchor="middle" x="346.95" y="-350.5" font-family="Helvetica,sans-Serif" font-size="10.00"> </text>
<polyline fill="none" stroke="red" points="278.95,-343.5 414.95,-343.5 "/>
<text text-anchor="start" x="286.95" y="-331.5" font-family="Helvetica,sans-Serif" font-size="10.00">+ StaticClass()</text>
</a>
</g>
</g>
<!-- Node14&#45;&gt;Node256 -->
<g id="edge14" class="edge"><title>Node14&#45;&gt;Node256</title>
<path fill="none" stroke="#404040" d="M478.214,-913.511C458.555,-907.539 427.567,-894.959 411.95,-872 309.224,-720.975 327.95,-486.731 340.572,-393.873"/>
<polygon fill="none" stroke="#404040" points="340.609,-393.612 337.494,-387.109 342.299,-381.732 345.414,-388.236 340.609,-393.612"/>
<text text-anchor="middle" x="451.95" y="-809" font-family="Helvetica,sans-Serif" font-size="10.00"> +UnknownData00</text>
</g>
<!-- Node66 -->
<g id="node12" class="node"><title>Node66</title>
<g id="a_node12"><a xlink:href="a26631.html" target="_top" xlink:title=" ">
<polygon fill="none" stroke="red" points="814.45,-433.5 814.45,-732.5 983.45,-732.5 983.45,-433.5 814.45,-433.5"/>
<text text-anchor="middle" x="898.95" y="-720.5" font-family="Helvetica,sans-Serif" font-size="10.00">SDK::UPrimitiveComponent</text>
<polyline fill="none" stroke="red" points="814.45,-713.5 983.45,-713.5 "/>
<text text-anchor="start" x="822.45" y="-701.5" font-family="Helvetica,sans-Serif" font-size="10.00">+ UnknownData00</text>
<text text-anchor="start" x="822.45" y="-690.5" font-family="Helvetica,sans-Serif" font-size="10.00">+ bAlwaysCreatePhysicsState</text>
<text text-anchor="start" x="822.45" y="-679.5" font-family="Helvetica,sans-Serif" font-size="10.00">+ bGenerateOverlapEvents</text>
<text text-anchor="start" x="822.45" y="-668.5" font-family="Helvetica,sans-Serif" font-size="10.00">+ bMultiBodyOverlap</text>
<text text-anchor="start" x="822.45" y="-657.5" font-family="Helvetica,sans-Serif" font-size="10.00">+ bCheckAsyncSceneOnMove</text>
<text text-anchor="start" x="822.45" y="-646.5" font-family="Helvetica,sans-Serif" font-size="10.00">+ bReturnMaterialOnMove</text>
<text text-anchor="start" x="822.45" y="-635.5" font-family="Helvetica,sans-Serif" font-size="10.00">+ bUseViewOwnerDepthPriority</text>
<text text-anchor="start" x="822.45" y="-624.5" font-family="Helvetica,sans-Serif" font-size="10.00">Group</text>
<text text-anchor="start" x="822.45" y="-613.5" font-family="Helvetica,sans-Serif" font-size="10.00">+ bAllowCullDistanceVolume</text>
<text text-anchor="start" x="822.45" y="-602.5" font-family="Helvetica,sans-Serif" font-size="10.00">+ bHasMotionBlurVelocityMeshes</text>
<text text-anchor="start" x="822.45" y="-591.5" font-family="Helvetica,sans-Serif" font-size="10.00">+ bRenderInMainPass</text>
<text text-anchor="start" x="822.45" y="-580.5" font-family="Helvetica,sans-Serif" font-size="10.00">and 50 more...</text>
<polyline fill="none" stroke="red" points="814.45,-573.5 983.45,-573.5 "/>
<text text-anchor="start" x="822.45" y="-561.5" font-family="Helvetica,sans-Serif" font-size="10.00">+ WakeRigidBody()</text>
<text text-anchor="start" x="822.45" y="-550.5" font-family="Helvetica,sans-Serif" font-size="10.00">+ WakeAllRigidBodies()</text>
<text text-anchor="start" x="822.45" y="-539.5" font-family="Helvetica,sans-Serif" font-size="10.00">+ SetWalkableSlopeOverride()</text>
<text text-anchor="start" x="822.45" y="-528.5" font-family="Helvetica,sans-Serif" font-size="10.00">+ SetTranslucentSortPriority()</text>
<text text-anchor="start" x="822.45" y="-517.5" font-family="Helvetica,sans-Serif" font-size="10.00">+ SetSimulatePhysics()</text>
<text text-anchor="start" x="822.45" y="-506.5" font-family="Helvetica,sans-Serif" font-size="10.00">+ SetRenderInMainPass()</text>
<text text-anchor="start" x="822.45" y="-495.5" font-family="Helvetica,sans-Serif" font-size="10.00">+ SetRenderCustomDepth()</text>
<text text-anchor="start" x="822.45" y="-484.5" font-family="Helvetica,sans-Serif" font-size="10.00">+ SetPhysMaterialOverride()</text>
<text text-anchor="start" x="822.45" y="-473.5" font-family="Helvetica,sans-Serif" font-size="10.00">+ SetPhysicsMaxAngularVelocity()</text>
<text text-anchor="start" x="822.45" y="-462.5" font-family="Helvetica,sans-Serif" font-size="10.00">+ SetPhysicsLinearVelocity()</text>
<text text-anchor="start" x="822.45" y="-451.5" font-family="Helvetica,sans-Serif" font-size="10.00">and 64 more...</text>
<text text-anchor="start" x="822.45" y="-440.5" font-family="Helvetica,sans-Serif" font-size="10.00">+ StaticClass()</text>
</a>
</g>
</g>
<!-- Node14&#45;&gt;Node66 -->
<g id="edge17" class="edge"><title>Node14&#45;&gt;Node66</title>
<path fill="none" stroke="#404040" d="M513.549,-916.572C559.896,-912.466 683.76,-899.142 712.95,-872 753.948,-833.879 708.849,-791.064 747.95,-751 764.331,-734.216 779.817,-745.682 804.035,-732.155"/>
<polygon fill="none" stroke="#404040" points="804.215,-732.034 806.952,-725.362 814.163,-725.323 811.426,-731.994 804.215,-732.034"/>
<text text-anchor="middle" x="833.95" y="-864" font-family="Helvetica,sans-Serif" font-size="10.00"> +bSkipRenderingInOuterLPVCascades</text>
<text text-anchor="middle" x="833.95" y="-853" font-family="Helvetica,sans-Serif" font-size="10.00">+bCastShadowAsTwoSided</text>
<text text-anchor="middle" x="833.95" y="-842" font-family="Helvetica,sans-Serif" font-size="10.00">+bCastHiddenShadow</text>
<text text-anchor="middle" x="833.95" y="-831" font-family="Helvetica,sans-Serif" font-size="10.00">+CastShadow</text>
<text text-anchor="middle" x="833.95" y="-820" font-family="Helvetica,sans-Serif" font-size="10.00">+bReflectedOnLowQuality</text>
<text text-anchor="middle" x="833.95" y="-809" font-family="Helvetica,sans-Serif" font-size="10.00">+bTraceComplexOnMove</text>
<text text-anchor="middle" x="833.95" y="-798" font-family="Helvetica,sans-Serif" font-size="10.00">+UnknownData01</text>
<text text-anchor="middle" x="833.95" y="-787" font-family="Helvetica,sans-Serif" font-size="10.00">+bUseEditorCompositing</text>
<text text-anchor="middle" x="833.95" y="-776" font-family="Helvetica,sans-Serif" font-size="10.00">+bCastDynamicShadow</text>
<text text-anchor="middle" x="833.95" y="-765" font-family="Helvetica,sans-Serif" font-size="10.00">+bDontCull</text>
<text text-anchor="middle" x="833.95" y="-754" font-family="Helvetica,sans-Serif" font-size="10.00">...</text>
</g>
<!-- Node259 -->
<g id="node13" class="node"><title>Node259</title>
<g id="a_node13"><a xlink:href="a05147.html" target="_top" xlink:title=" ">
<polygon fill="none" stroke="red" points="1239.95,-483 1239.95,-683 1409.95,-683 1409.95,-483 1239.95,-483"/>
<text text-anchor="middle" x="1324.95" y="-671" font-family="Helvetica,sans-Serif" font-size="10.00">SDK::UHealthComponent</text>
<polyline fill="none" stroke="red" points="1239.95,-664 1409.95,-664 "/>
<text text-anchor="middle" x="1324.95" y="-652" font-family="Helvetica,sans-Serif" font-size="10.00"> </text>
<polyline fill="none" stroke="red" points="1239.95,-645 1409.95,-645 "/>
<text text-anchor="start" x="1247.95" y="-633" font-family="Helvetica,sans-Serif" font-size="10.00">+ ToggleGodMode()</text>
<text text-anchor="start" x="1247.95" y="-622" font-family="Helvetica,sans-Serif" font-size="10.00">+ TakeDamage()</text>
<text text-anchor="start" x="1247.95" y="-611" font-family="Helvetica,sans-Serif" font-size="10.00">+ StopContinuousHealthChange()</text>
<text text-anchor="start" x="1247.95" y="-600" font-family="Helvetica,sans-Serif" font-size="10.00">+ StartContinuousHealthChange()</text>
<text text-anchor="start" x="1247.95" y="-589" font-family="Helvetica,sans-Serif" font-size="10.00">+ SetHealth()</text>
<text text-anchor="start" x="1247.95" y="-578" font-family="Helvetica,sans-Serif" font-size="10.00">+ ResetToMaxHealth()</text>
<text text-anchor="start" x="1247.95" y="-567" font-family="Helvetica,sans-Serif" font-size="10.00">+ PreventAdjustmentFromHealth</text>
<text text-anchor="start" x="1247.95" y="-556" font-family="Helvetica,sans-Serif" font-size="10.00">ChangeReason()</text>
<text text-anchor="start" x="1247.95" y="-545" font-family="Helvetica,sans-Serif" font-size="10.00">+ PredictHealthChange()</text>
<text text-anchor="start" x="1247.95" y="-534" font-family="Helvetica,sans-Serif" font-size="10.00">+ OnRep_CurrentHealthInfo()</text>
<text text-anchor="start" x="1247.95" y="-523" font-family="Helvetica,sans-Serif" font-size="10.00">+ OnRep_ContinuousHealthChange</text>
<text text-anchor="start" x="1247.95" y="-512" font-family="Helvetica,sans-Serif" font-size="10.00">Sources()</text>
<text text-anchor="start" x="1247.95" y="-501" font-family="Helvetica,sans-Serif" font-size="10.00">and 9 more...</text>
<text text-anchor="start" x="1247.95" y="-490" font-family="Helvetica,sans-Serif" font-size="10.00">+ StaticClass()</text>
</a>
</g>
</g>
<!-- Node14&#45;&gt;Node259 -->
<g id="edge23" class="edge"><title>Node14&#45;&gt;Node259</title>
<path fill="none" stroke="#404040" d="M513.549,-917.303C614.782,-913.227 1119.29,-891.962 1144.95,-872 1189.66,-837.222 1157.38,-800.474 1184.95,-751 1198.11,-727.395 1214.82,-703.961 1232.08,-682.44"/>
<polygon fill="none" stroke="#404040" points="1232.19,-682.314 1232.88,-675.137 1239.77,-673.017 1239.08,-680.195 1232.19,-682.314"/>
<text text-anchor="middle" x="1224.95" y="-814.5" font-family="Helvetica,sans-Serif" font-size="10.00"> +UnknownData01</text>
<text text-anchor="middle" x="1224.95" y="-803.5" font-family="Helvetica,sans-Serif" font-size="10.00">+UnknownData00</text>
</g>
<!-- Node245&#45;&gt;Node1 -->
<g id="edge3" class="edge"><title>Node245&#45;&gt;Node1</title>
<path fill="none" stroke="#404040" d="M489.936,-318.753C483.991,-274.822 480.708,-197.365 519.95,-149 571.76,-85.146 664.918,-60.8514 734.502,-51.7252"/>
<polygon fill="none" stroke="#404040" points="734.853,-51.6827 740.329,-46.9904 746.766,-50.2402 741.291,-54.9324 734.853,-51.6827"/>
<text text-anchor="middle" x="574.45" y="-208.5" font-family="Helvetica,sans-Serif" font-size="10.00"> +SharkAudioComponent</text>
</g>
<!-- Node35 -->
<g id="node5" class="node"><title>Node35</title>
<g id="a_node5"><a xlink:href="a26287.html" target="_top" xlink:title=" ">
<polygon fill="none" stroke="black" points="717.45,-510.5 717.45,-655.5 796.45,-655.5 796.45,-510.5 717.45,-510.5"/>
<text text-anchor="middle" x="756.95" y="-643.5" font-family="Helvetica,sans-Serif" font-size="10.00">SDK::FVector</text>
<polyline fill="none" stroke="black" points="717.45,-636.5 796.45,-636.5 "/>
<text text-anchor="middle" x="756.95" y="-624.5" font-family="Helvetica,sans-Serif" font-size="10.00"> </text>
<polyline fill="none" stroke="black" points="717.45,-617.5 796.45,-617.5 "/>
<text text-anchor="start" x="725.45" y="-605.5" font-family="Helvetica,sans-Serif" font-size="10.00">+ FVector()</text>
<text text-anchor="start" x="725.45" y="-594.5" font-family="Helvetica,sans-Serif" font-size="10.00">+ FVector()</text>
<text text-anchor="start" x="725.45" y="-583.5" font-family="Helvetica,sans-Serif" font-size="10.00">+ operator+()</text>
<text text-anchor="start" x="725.45" y="-572.5" font-family="Helvetica,sans-Serif" font-size="10.00">+ operator&#45;()</text>
<text text-anchor="start" x="725.45" y="-561.5" font-family="Helvetica,sans-Serif" font-size="10.00">+ operator*()</text>
<text text-anchor="start" x="725.45" y="-550.5" font-family="Helvetica,sans-Serif" font-size="10.00">+ operator=()</text>
<text text-anchor="start" x="725.45" y="-539.5" font-family="Helvetica,sans-Serif" font-size="10.00">+ operator+=()</text>
<text text-anchor="start" x="725.45" y="-528.5" font-family="Helvetica,sans-Serif" font-size="10.00">+ operator&#45;=()</text>
<text text-anchor="start" x="725.45" y="-517.5" font-family="Helvetica,sans-Serif" font-size="10.00">+ operator*=()</text>
</a>
</g>
</g>
<!-- Node35&#45;&gt;Node1 -->
<g id="edge5" class="edge"><title>Node35&#45;&gt;Node1</title>
<path fill="none" stroke="#404040" d="M774.434,-510.348C785.614,-446.273 790.323,-353.149 742.95,-291 727.358,-270.545 703.046,-293.824 687.95,-273 655.604,-228.38 663.361,-198.322 687.95,-149 699.003,-126.829 717.39,-108.191 737.125,-93.1482"/>
<polygon fill="none" stroke="#404040" points="737.186,-93.104 739.691,-86.3417 746.896,-86.0526 744.392,-92.8148 737.186,-93.104"/>
<text text-anchor="middle" x="756.45" y="-208.5" font-family="Helvetica,sans-Serif" font-size="10.00"> +CollisionShapeScaleOnDeath</text>
</g>
<!-- Node27 -->
<g id="node6" class="node"><title>Node27</title>
<g id="a_node6"><a xlink:title=" ">
<polygon fill="none" stroke="#bfbfbf" points="1056.45,-890.5 1056.45,-947.5 1091.45,-947.5 1091.45,-890.5 1056.45,-890.5"/>
<text text-anchor="middle" x="1073.95" y="-935.5" font-family="Helvetica,sans-Serif" font-size="10.00">float</text>
<polyline fill="none" stroke="#bfbfbf" points="1056.45,-928.5 1091.45,-928.5 "/>
<text text-anchor="middle" x="1073.95" y="-916.5" font-family="Helvetica,sans-Serif" font-size="10.00"> </text>
<polyline fill="none" stroke="#bfbfbf" points="1056.45,-909.5 1091.45,-909.5 "/>
<text text-anchor="middle" x="1073.95" y="-897.5" font-family="Helvetica,sans-Serif" font-size="10.00"> </text>
</a>
</g>
</g>
<!-- Node27&#45;&gt;Node1 -->
<g id="edge7" class="edge"><title>Node27&#45;&gt;Node1</title>
<path fill="none" stroke="#404040" d="M1091.49,-911.4C1107.52,-904.33 1130.31,-891.43 1140.95,-872 1171.97,-815.345 1119.81,-341.606 1159.95,-291 1179.11,-266.842 1208.19,-297.468 1226.95,-273 1260.49,-229.266 1259.39,-193.552 1226.95,-149 1190.33,-98.7059 1020.34,-69.6723 913.172,-56.069"/>
<polygon fill="none" stroke="#404040" points="912.981,-56.0453 906.533,-59.2744 901.072,-54.5647 907.52,-51.3356 912.981,-56.0453"/>
<text text-anchor="middle" x="1235.95" y="-356" font-family="Helvetica,sans-Serif" font-size="10.00"> +CheckIntervalForQuickDeath</text>
<text text-anchor="middle" x="1235.95" y="-345" font-family="Helvetica,sans-Serif" font-size="10.00">+DistanceToGroundForQuickDeath</text>
</g>
<!-- Node27&#45;&gt;Node35 -->
<g id="edge6" class="edge"><title>Node27&#45;&gt;Node35</title>
<path fill="none" stroke="#404040" d="M1056.33,-916.589C1029.43,-913.454 978.342,-903.47 950.95,-872 914.774,-830.439 964.24,-788.586 923.95,-751 884.837,-714.512 845.702,-767.649 804.95,-733 785.466,-716.434 773.821,-691.914 766.884,-667.527"/>
<polygon fill="none" stroke="#404040" points="766.808,-667.228 761.449,-662.403 763.843,-655.6 769.201,-660.426 766.808,-667.228"/>
<text text-anchor="middle" x="958.45" y="-820" font-family="Helvetica,sans-Serif" font-size="10.00"> +X</text>
<text text-anchor="middle" x="958.45" y="-809" font-family="Helvetica,sans-Serif" font-size="10.00">+Y</text>
<text text-anchor="middle" x="958.45" y="-798" font-family="Helvetica,sans-Serif" font-size="10.00">+Z</text>
</g>
<!-- Node27&#45;&gt;Node66 -->
<g id="edge18" class="edge"><title>Node27&#45;&gt;Node66</title>
<path fill="none" stroke="#404040" d="M1056.15,-912.304C1038.13,-905.591 1010.85,-892.657 995.95,-872 963.775,-827.386 986.564,-803.436 969.95,-751 969.236,-748.748 968.504,-746.484 967.753,-744.211"/>
<polygon fill="none" stroke="#404040" points="967.732,-744.147 962.012,-739.756 963.866,-732.787 969.585,-737.178 967.732,-744.147"/>
<text text-anchor="middle" x="1068.45" y="-864" font-family="Helvetica,sans-Serif" font-size="10.00"> +MinDrawDistance</text>
<text text-anchor="middle" x="1068.45" y="-853" font-family="Helvetica,sans-Serif" font-size="10.00">+CachedMaxDrawDistance</text>
<text text-anchor="middle" x="1068.45" y="-842" font-family="Helvetica,sans-Serif" font-size="10.00">+OverriddenShadowMinTexelSize</text>
<text text-anchor="middle" x="1068.45" y="-831" font-family="Helvetica,sans-Serif" font-size="10.00">+OcclusionBoundsScale</text>
<text text-anchor="middle" x="1068.45" y="-820" font-family="Helvetica,sans-Serif" font-size="10.00">+LpvIntensityMultiplier</text>
<text text-anchor="middle" x="1068.45" y="-809" font-family="Helvetica,sans-Serif" font-size="10.00">+LpvBiasMultiplier</text>
<text text-anchor="middle" x="1068.45" y="-798" font-family="Helvetica,sans-Serif" font-size="10.00">+FarCascadeLPVBiasMultiplier</text>
<text text-anchor="middle" x="1068.45" y="-787" font-family="Helvetica,sans-Serif" font-size="10.00">+LastRenderTime</text>
<text text-anchor="middle" x="1068.45" y="-776" font-family="Helvetica,sans-Serif" font-size="10.00">+BoundsScale</text>
<text text-anchor="middle" x="1068.45" y="-765" font-family="Helvetica,sans-Serif" font-size="10.00">+LDMaxDrawDistance</text>
<text text-anchor="middle" x="1068.45" y="-754" font-family="Helvetica,sans-Serif" font-size="10.00">...</text>
</g>
<!-- Node27&#45;&gt;Node259 -->
<g id="edge22" class="edge"><title>Node27&#45;&gt;Node259</title>
<path fill="none" stroke="#404040" d="M1091.46,-916.284C1134.62,-911.692 1244.36,-897.694 1268.95,-872 1306.8,-832.454 1281.53,-804.74 1291.95,-751 1295.45,-732.945 1299.2,-713.8 1302.87,-695.162"/>
<polygon fill="none" stroke="#404040" points="1302.88,-695.095 1300.12,-688.435 1305.2,-683.322 1307.96,-689.982 1302.88,-695.095"/>
<text text-anchor="middle" x="1379.45" y="-820" font-family="Helvetica,sans-Serif" font-size="10.00"> +MaxHealth</text>
<text text-anchor="start" x="1291.95" y="-809" font-family="Helvetica,sans-Serif" font-size="10.00">+MinTimeSinceLastPredicted</text>
<text text-anchor="middle" x="1379.45" y="-798" font-family="Helvetica,sans-Serif" font-size="10.00">HealthChangeToFireChangedEventAgain</text>
</g>
<!-- Node254&#45;&gt;Node1 -->
<g id="edge9" class="edge"><title>Node254&#45;&gt;Node1</title>
<path fill="none" stroke="#404040" d="M204.986,-324.188C202.005,-280.722 203.147,-196.737 248.95,-149 314.436,-80.7482 589.852,-57.5379 734.442,-49.9682"/>
<polygon fill="none" stroke="#404040" points="734.758,-49.9523 740.548,-45.654 746.743,-49.3454 740.953,-53.6437 734.758,-49.9523"/>
<text text-anchor="middle" x="294.45" y="-208.5" font-family="Helvetica,sans-Serif" font-size="10.00"> +RewindComponent</text>
</g>
<!-- Node223 -->
<g id="node8" class="node"><title>Node223</title>
<g id="a_node8"><a xlink:title=" ">
<polygon fill="none" stroke="#bfbfbf" points="834.45,-182.5 834.45,-239.5 885.45,-239.5 885.45,-182.5 834.45,-182.5"/>
<text text-anchor="middle" x="859.95" y="-227.5" font-family="Helvetica,sans-Serif" font-size="10.00">uint32_t</text>
<polyline fill="none" stroke="#bfbfbf" points="834.45,-220.5 885.45,-220.5 "/>
<text text-anchor="middle" x="859.95" y="-208.5" font-family="Helvetica,sans-Serif" font-size="10.00"> </text>
<polyline fill="none" stroke="#bfbfbf" points="834.45,-201.5 885.45,-201.5 "/>
<text text-anchor="middle" x="859.95" y="-189.5" font-family="Helvetica,sans-Serif" font-size="10.00"> </text>
</a>
</g>
</g>
<!-- Node223&#45;&gt;Node1 -->
<g id="edge11" class="edge"><title>Node223&#45;&gt;Node1</title>
<path fill="none" stroke="#404040" d="M844.422,-182.423C836.976,-167.662 828.845,-148.882 824.95,-131 822.996,-122.029 821.938,-112.395 821.454,-102.958"/>
<polygon fill="none" stroke="#404040" points="821.448,-102.733 817.286,-96.844 821.122,-90.7374 825.283,-96.6265 821.448,-102.733"/>
<text text-anchor="middle" x="876.45" y="-117.5" font-family="Helvetica,sans-Serif" font-size="10.00"> +ExtentEstimationPow</text>
</g>
<!-- Node78 -->
<g id="node9" class="node"><title>Node78</title>
<g id="a_node9"><a xlink:href="a25847.html" target="_top" xlink:title=" ">
<polygon fill="none" stroke="black" points="903.95,-149.5 903.95,-272.5 1061.95,-272.5 1061.95,-149.5 903.95,-149.5"/>
<text text-anchor="start" x="911.95" y="-260.5" font-family="Helvetica,sans-Serif" font-size="10.00">SDK::TEnumAsByte&lt; ECollision</text>
<text text-anchor="middle" x="982.95" y="-249.5" font-family="Helvetica,sans-Serif" font-size="10.00">Channel &gt;</text>
<polyline fill="none" stroke="black" points="903.95,-242.5 1061.95,-242.5 "/>
<text text-anchor="middle" x="982.95" y="-230.5" font-family="Helvetica,sans-Serif" font-size="10.00"> </text>
<polyline fill="none" stroke="black" points="903.95,-223.5 1061.95,-223.5 "/>
<text text-anchor="start" x="911.95" y="-211.5" font-family="Helvetica,sans-Serif" font-size="10.00">+ TEnumAsByte()</text>
<text text-anchor="start" x="911.95" y="-200.5" font-family="Helvetica,sans-Serif" font-size="10.00">+ TEnumAsByte()</text>
<text text-anchor="start" x="911.95" y="-189.5" font-family="Helvetica,sans-Serif" font-size="10.00">+ TEnumAsByte()</text>
<text text-anchor="start" x="911.95" y="-178.5" font-family="Helvetica,sans-Serif" font-size="10.00">+ TEnumAsByte()</text>
<text text-anchor="start" x="911.95" y="-167.5" font-family="Helvetica,sans-Serif" font-size="10.00">+ operator ECollisionChannel()</text>
<text text-anchor="start" x="911.95" y="-156.5" font-family="Helvetica,sans-Serif" font-size="10.00">+ GetValue()</text>
</a>
</g>
</g>
<!-- Node78&#45;&gt;Node1 -->
<g id="edge12" class="edge"><title>Node78&#45;&gt;Node1</title>
<path fill="none" stroke="#404040" d="M956.672,-149.304C948.755,-135.075 939.14,-120.676 927.95,-109 922.737,-103.561 916.951,-98.4213 910.853,-93.6042"/>
<polygon fill="none" stroke="#404040" points="910.675,-93.4719 903.474,-93.0952 901.052,-86.3029 908.253,-86.6797 910.675,-93.4719"/>
<text text-anchor="start" x="943.95" y="-123" font-family="Helvetica,sans-Serif" font-size="10.00"> +DistanceToGroundTestTrace</text>
<text text-anchor="middle" x="1010.45" y="-112" font-family="Helvetica,sans-Serif" font-size="10.00">Channel</text>
</g>
<!-- Node256&#45;&gt;Node1 -->
<g id="edge13" class="edge"><title>Node256&#45;&gt;Node1</title>
<path fill="none" stroke="#404040" d="M343.935,-324.301C340.857,-280.992 341.743,-197.216 386.95,-149 433.619,-99.2239 620.928,-69.5839 734.626,-55.8235"/>
<polygon fill="none" stroke="#404040" points="734.835,-55.7987 740.321,-51.1185 746.751,-54.3823 741.265,-59.0626 734.835,-55.7987"/>
<text text-anchor="middle" x="434.95" y="-208.5" font-family="Helvetica,sans-Serif" font-size="10.00"> +RammerComponent</text>
</g>
<!-- Node44 -->
<g id="node11" class="node"><title>Node44</title>
<g id="a_node11"><a xlink:title=" ">
<polygon fill="none" stroke="#bfbfbf" points="1630.45,-890.5 1630.45,-947.5 1665.45,-947.5 1665.45,-890.5 1630.45,-890.5"/>
<text text-anchor="middle" x="1647.95" y="-935.5" font-family="Helvetica,sans-Serif" font-size="10.00">bool</text>
<polyline fill="none" stroke="#bfbfbf" points="1630.45,-928.5 1665.45,-928.5 "/>
<text text-anchor="middle" x="1647.95" y="-916.5" font-family="Helvetica,sans-Serif" font-size="10.00"> </text>
<polyline fill="none" stroke="#bfbfbf" points="1630.45,-909.5 1665.45,-909.5 "/>
<text text-anchor="middle" x="1647.95" y="-897.5" font-family="Helvetica,sans-Serif" font-size="10.00"> </text>
</a>
</g>
</g>
<!-- Node44&#45;&gt;Node1 -->
<g id="edge15" class="edge"><title>Node44&#45;&gt;Node1</title>
<path fill="none" stroke="#404040" d="M1665.85,-916.049C1690.38,-912.309 1733.57,-901.652 1752.95,-872 1782.37,-826.986 1759,-804.437 1752.95,-751 1722.09,-478.245 1795.46,-355.792 1614.95,-149 1581.84,-111.066 1558.02,-120.279 1508.95,-109 1299.24,-60.8015 1045.38,-49.4893 913.419,-47.0163"/>
<polygon fill="none" stroke="#404040" points="913.032,-47.0097 906.964,-50.9061 901.034,-46.8036 907.102,-42.9072 913.032,-47.0097"/>
<text text-anchor="middle" x="1796.45" y="-350.5" font-family="Helvetica,sans-Serif" font-size="10.00"> +AllowTestForQuickDeath</text>
</g>
<!-- Node44&#45;&gt;Node66 -->
<g id="edge20" class="edge"><title>Node44&#45;&gt;Node66</title>
<path fill="none" stroke="#404040" d="M1630.4,-918.686C1596.82,-918.958 1523.46,-914.347 1485.95,-872 1449.85,-831.252 1506.94,-787.93 1466.95,-751 1447.63,-733.159 1256.44,-739.481 1230.95,-733 1147.75,-711.844 1059.33,-671.165 994.676,-637.65"/>
<polygon fill="none" stroke="#404040" points="994.333,-637.471 987.163,-638.236 983.699,-631.911 990.87,-631.146 994.333,-637.471"/>
<text text-anchor="start" x="1485.95" y="-842" font-family="Helvetica,sans-Serif" font-size="10.00"> +bOverrideShadowCascades</text>
<text text-anchor="middle" x="1553.95" y="-831" font-family="Helvetica,sans-Serif" font-size="10.00">Exclusion</text>
<text text-anchor="middle" x="1553.95" y="-820" font-family="Helvetica,sans-Serif" font-size="10.00">+bGPUVisibility</text>
<text text-anchor="start" x="1485.95" y="-809" font-family="Helvetica,sans-Serif" font-size="10.00">+bOverrideShadowMinSize</text>
<text text-anchor="middle" x="1553.95" y="-798" font-family="Helvetica,sans-Serif" font-size="10.00">Culling</text>
<text text-anchor="middle" x="1553.95" y="-787" font-family="Helvetica,sans-Serif" font-size="10.00">+bStaticLightingBuildEnqueued</text>
<text text-anchor="middle" x="1553.95" y="-776" font-family="Helvetica,sans-Serif" font-size="10.00">+bHasCachedStaticLighting</text>
</g>
<!-- Node44&#45;&gt;Node259 -->
<g id="edge24" class="edge"><title>Node44&#45;&gt;Node259</title>
<path fill="none" stroke="#404040" d="M1647.28,-890.402C1645.78,-848.953 1641.01,-773.12 1625.95,-751 1578.03,-680.598 1490.19,-636.827 1421.72,-611.854"/>
<polygon fill="none" stroke="#404040" points="1421.35,-611.724 1414.36,-613.485 1410.04,-607.708 1417.04,-605.946 1421.35,-611.724"/>
<text text-anchor="middle" x="1698.95" y="-809" font-family="Helvetica,sans-Serif" font-size="10.00"> +IsHealthAdjustLocked</text>
</g>
<!-- Node66&#45;&gt;Node1 -->
<g id="edge16" class="edge"><title>Node66&#45;&gt;Node1</title>
<path fill="none" stroke="#404040" d="M983.507,-459.401C1016.76,-404.79 1051.56,-338.175 1070.95,-273 1091.77,-203.006 1126.07,-166.414 1080.95,-109 1060.15,-82.5327 978.868,-65.881 913.211,-56.4836"/>
<polygon fill="none" stroke="#404040" points="913.038,-56.4597 906.545,-59.5982 901.151,-54.8125 907.644,-51.674 913.038,-56.4597"/>
<text text-anchor="middle" x="1163.45" y="-208.5" font-family="Helvetica,sans-Serif" font-size="10.00"> +ProjectileTraceHitVolume</text>
</g>
<!-- Node66&#45;&gt;Node66 -->
<g id="edge19" class="edge"><title>Node66&#45;&gt;Node66</title>
<path fill="none" stroke="#404040" d="M983.786,-620.229C994.439,-613.667 1001.45,-601.258 1001.45,-583 1001.45,-570.733 998.285,-561.106 992.977,-554.119"/>
<polygon fill="none" stroke="#404040" points="992.669,-553.839 985.538,-552.766 983.786,-545.771 990.916,-546.844 992.669,-553.839"/>
<text text-anchor="start" x="1001.45" y="-591.5" font-family="Helvetica,sans-Serif" font-size="10.00"> +MergedCollisionComponent</text>
<text text-anchor="middle" x="1065.45" y="-580.5" font-family="Helvetica,sans-Serif" font-size="10.00">Parent</text>
<text text-anchor="middle" x="1065.45" y="-569.5" font-family="Helvetica,sans-Serif" font-size="10.00">+LODParentPrimitive</text>
</g>
<!-- Node259&#45;&gt;Node1 -->
<g id="edge21" class="edge"><title>Node259&#45;&gt;Node1</title>
<path fill="none" stroke="#404040" d="M1325.71,-482.902C1324.3,-358.771 1313.41,-156.537 1258.95,-109 1208.88,-65.2965 1025.49,-52.131 913.436,-48.1795"/>
<polygon fill="none" stroke="#404040" points="913.139,-48.1698 907.01,-51.9691 901.145,-47.7728 907.274,-43.9735 913.139,-48.1698"/>
<text text-anchor="middle" x="1356.45" y="-208.5" font-family="Helvetica,sans-Serif" font-size="10.00"> +HealthComponent</text>
</g>
<!-- Node263 -->
<g id="node14" class="node"><title>Node263</title>
<g id="a_node14"><a xlink:href="a10163.html" target="_top" xlink:title=" ">
<polygon fill="none" stroke="red" points="1429.95,-182.5 1429.95,-239.5 1605.95,-239.5 1605.95,-182.5 1429.95,-182.5"/>
<text text-anchor="middle" x="1517.95" y="-227.5" font-family="Helvetica,sans-Serif" font-size="10.00">SDK::UActorDamageableComponent</text>
<polyline fill="none" stroke="red" points="1429.95,-220.5 1605.95,-220.5 "/>
<text text-anchor="middle" x="1517.95" y="-208.5" font-family="Helvetica,sans-Serif" font-size="10.00"> </text>
<polyline fill="none" stroke="red" points="1429.95,-201.5 1605.95,-201.5 "/>
<text text-anchor="start" x="1437.95" y="-189.5" font-family="Helvetica,sans-Serif" font-size="10.00">+ StaticClass()</text>
</a>
</g>
</g>
<!-- Node259&#45;&gt;Node263 -->
<g id="edge26" class="edge"><title>Node259&#45;&gt;Node263</title>
<path fill="none" stroke="#404040" d="M1376.67,-482.847C1416.49,-406.506 1469.38,-305.106 1497.82,-250.596"/>
<polygon fill="none" stroke="#404040" points="1497.95,-250.341 1497.18,-243.171 1503.5,-239.701 1504.27,-246.871 1497.95,-250.341"/>
<text text-anchor="middle" x="1508.45" y="-350.5" font-family="Helvetica,sans-Serif" font-size="10.00"> +HealthComp</text>
</g>
<!-- Node263&#45;&gt;Node1 -->
<g id="edge25" class="edge"><title>Node263&#45;&gt;Node1</title>
<path fill="none" stroke="#404040" d="M1480.35,-182.408C1445.56,-158.487 1391.45,-125.236 1338.95,-109 1194.31,-64.2683 1017.58,-51.3332 913.256,-47.7242"/>
<polygon fill="none" stroke="#404040" points="913.206,-47.7227 907.081,-51.5283 901.212,-47.338 907.337,-43.5324 913.206,-47.7227"/>
<text text-anchor="middle" x="1448.45" y="-117.5" font-family="Helvetica,sans-Serif" font-size="10.00"> +DamageableComponent</text>
</g>
</g>
</svg>
