<?xml version="1.0" encoding="UTF-8" standalone="no"?>
<!DOCTYPE svg PUBLIC "-//W3C//DTD SVG 1.1//EN"
 "http://www.w3.org/Graphics/SVG/1.1/DTD/svg11.dtd">
<!-- Generated by graphviz version 2.38.0 (20140413.2041)
 -->
<!-- Title: SDK::UTaleQuestToolService Pages: 1 -->
<!--zoomable 364 -->
<svg id="main" version="1.1" xmlns="http://www.w3.org/2000/svg" xmlns:xlink="http://www.w3.org/1999/xlink" xml:space="preserve" onload="init(evt)">
<style type="text/css"><![CDATA[
.edge:hover path { stroke: red; }
.edge:hover polygon { stroke: red; fill: red; }
]]></style>
<script type="text/javascript"><![CDATA[
var edges = document.getElementsByTagName('g');
if (edges && edges.length) {
  for (var i=0;i<edges.length;i++) {
    if (edges[i].id.substr(0,4)=='edge') {
      edges[i].setAttribute('class','edge');
    }
  }
}
]]></script>
        <defs>
                <circle id="rim" cx="0" cy="0" r="7"/>
                <circle id="rim2" cx="0" cy="0" r="3.5"/>
                <g id="zoomPlus">
                        <use xlink:href="#rim" fill="#404040">
                                <set attributeName="fill" to="#808080" begin="zoomplus.mouseover" end="zoomplus.mouseout"/>
                        </use>
                        <path d="M-4,0h8M0,-4v8" fill="none" stroke="white" stroke-width="1.5" pointer-events="none"/>
                </g>
                <g id="zoomMin">
                        <use xlink:href="#rim" fill="#404040">
                                <set attributeName="fill" to="#808080" begin="zoomminus.mouseover" end="zoomminus.mouseout"/>
                        </use>
                        <path d="M-4,0h8" fill="none" stroke="white" stroke-width="1.5" pointer-events="none"/>
                </g>
                <g id="dirArrow">
                        <path fill="none" stroke="white" stroke-width="1.5" d="M0,-3.0v7 M-2.5,-0.5L0,-3.0L2.5,-0.5"/>
                </g>
               <g id="resetDef">
                       <use xlink:href="#rim2" fill="#404040">
                               <set attributeName="fill" to="#808080" begin="reset.mouseover" end="reset.mouseout"/>
                       </use>
               </g>
        </defs>

<script type="text/javascript">
var viewWidth = 1028;
var viewHeight = 364;
var sectionId = 'dynsection-0';
</script>
<script xlink:href="svgpan.js"/>
<svg id="graph" class="graph">
<g id="viewport">
<title>SDK::UTaleQuestToolService</title>
<!-- Node1 -->
<g id="node1" class="node"><title>Node1</title>
<g id="a_node1"><a xlink:title=" ">
<polygon fill="#bfbfbf" stroke="black" points="415.5,-105.5 415.5,-261.5 590.5,-261.5 590.5,-105.5 415.5,-105.5"/>
<text text-anchor="middle" x="503" y="-249.5" font-family="Helvetica,sans-Serif" font-size="10.00">SDK::UTaleQuestToolService</text>
<polyline fill="none" stroke="black" points="415.5,-242.5 590.5,-242.5 "/>
<text text-anchor="start" x="423.5" y="-230.5" font-family="Helvetica,sans-Serif" font-size="10.00">+ ServiceDesc</text>
<text text-anchor="start" x="423.5" y="-219.5" font-family="Helvetica,sans-Serif" font-size="10.00">+ WieldableDescs</text>
<text text-anchor="start" x="423.5" y="-208.5" font-family="Helvetica,sans-Serif" font-size="10.00">+ UnknownData00</text>
<polyline fill="none" stroke="black" points="415.5,-201.5 590.5,-201.5 "/>
<text text-anchor="start" x="423.5" y="-189.5" font-family="Helvetica,sans-Serif" font-size="10.00">+ RemoveToolsFromAllParticipants()</text>
<text text-anchor="start" x="423.5" y="-178.5" font-family="Helvetica,sans-Serif" font-size="10.00">+ GiveToolToAllParticipants()</text>
<text text-anchor="start" x="423.5" y="-167.5" font-family="Helvetica,sans-Serif" font-size="10.00">+ GiveToolsToAllParticipants</text>
<text text-anchor="start" x="423.5" y="-156.5" font-family="Helvetica,sans-Serif" font-size="10.00">AndInstantlyWieldByPlayer()</text>
<text text-anchor="start" x="423.5" y="-145.5" font-family="Helvetica,sans-Serif" font-size="10.00">+ GiveToolsToAllParticipants()</text>
<text text-anchor="start" x="423.5" y="-134.5" font-family="Helvetica,sans-Serif" font-size="10.00">+ AddTools()</text>
<text text-anchor="start" x="423.5" y="-123.5" font-family="Helvetica,sans-Serif" font-size="10.00">+ AddTool()</text>
<text text-anchor="start" x="423.5" y="-112.5" font-family="Helvetica,sans-Serif" font-size="10.00">+ StaticClass()</text>
</a>
</g>
</g>
<!-- Node4 -->
<g id="node3" class="node"><title>Node4</title>
<g id="a_node3"><a xlink:href="a08819.html" target="_top" xlink:title=" ">
<polygon fill="none" stroke="black" points="0,-6 0,-63 148,-63 148,-6 0,-6"/>
<text text-anchor="middle" x="74" y="-51" font-family="Helvetica,sans-Serif" font-size="10.00">SDK::UBookTaleQuestService</text>
<polyline fill="none" stroke="black" points="0,-44 148,-44 "/>
<text text-anchor="start" x="8" y="-32" font-family="Helvetica,sans-Serif" font-size="10.00">+ BookContents</text>
<polyline fill="none" stroke="black" points="0,-25 148,-25 "/>
<text text-anchor="start" x="8" y="-13" font-family="Helvetica,sans-Serif" font-size="10.00">+ StaticClass()</text>
</a>
</g>
</g>
<!-- Node1&#45;&gt;Node4 -->
<g id="edge2" class="edge"><title>Node1&#45;&gt;Node4</title>
<path fill="none" stroke="midnightblue" d="M405.698,-152.49C336.032,-130.541 240.225,-99.4075 157,-69 151.892,-67.1336 146.629,-65.1513 141.349,-63.1198"/>
<polygon fill="none" stroke="midnightblue" points="404.762,-155.864 415.351,-155.525 406.861,-149.187 404.762,-155.864"/>
</g>
<!-- Node5 -->
<g id="node4" class="node"><title>Node5</title>
<g id="a_node4"><a xlink:href="a08823.html" target="_top" xlink:title=" ">
<polygon fill="none" stroke="black" points="166.5,-0.5 166.5,-68.5 321.5,-68.5 321.5,-0.5 166.5,-0.5"/>
<text text-anchor="start" x="174.5" y="-56.5" font-family="Helvetica,sans-Serif" font-size="10.00">SDK::UTaleEnchantedSpyglass</text>
<text text-anchor="middle" x="244" y="-45.5" font-family="Helvetica,sans-Serif" font-size="10.00">Service</text>
<polyline fill="none" stroke="black" points="166.5,-38.5 321.5,-38.5 "/>
<text text-anchor="middle" x="244" y="-26.5" font-family="Helvetica,sans-Serif" font-size="10.00"> </text>
<polyline fill="none" stroke="black" points="166.5,-19.5 321.5,-19.5 "/>
<text text-anchor="start" x="174.5" y="-7.5" font-family="Helvetica,sans-Serif" font-size="10.00">+ StaticClass()</text>
</a>
</g>
</g>
<!-- Node1&#45;&gt;Node5 -->
<g id="edge3" class="edge"><title>Node1&#45;&gt;Node5</title>
<path fill="none" stroke="midnightblue" d="M406.49,-127.724C371.461,-107.843 332.983,-86.0037 302.266,-68.5698"/>
<polygon fill="none" stroke="midnightblue" points="404.89,-130.84 415.314,-132.733 408.345,-124.752 404.89,-130.84"/>
</g>
<!-- Node6 -->
<g id="node5" class="node"><title>Node6</title>
<g id="a_node5"><a xlink:href="a08827.html" target="_top" xlink:title=" ">
<polygon fill="none" stroke="black" points="339.5,-0.5 339.5,-68.5 490.5,-68.5 490.5,-0.5 339.5,-0.5"/>
<text text-anchor="start" x="347.5" y="-56.5" font-family="Helvetica,sans-Serif" font-size="10.00">SDK::UTaleQuestCommonTool</text>
<text text-anchor="middle" x="415" y="-45.5" font-family="Helvetica,sans-Serif" font-size="10.00">Service</text>
<polyline fill="none" stroke="black" points="339.5,-38.5 490.5,-38.5 "/>
<text text-anchor="middle" x="415" y="-26.5" font-family="Helvetica,sans-Serif" font-size="10.00"> </text>
<polyline fill="none" stroke="black" points="339.5,-19.5 490.5,-19.5 "/>
<text text-anchor="start" x="347.5" y="-7.5" font-family="Helvetica,sans-Serif" font-size="10.00">+ StaticClass()</text>
</a>
</g>
</g>
<!-- Node1&#45;&gt;Node6 -->
<g id="edge4" class="edge"><title>Node1&#45;&gt;Node6</title>
<path fill="none" stroke="midnightblue" d="M451.472,-96.4241C445.586,-86.592 439.885,-77.0694 434.808,-68.5884"/>
<polygon fill="none" stroke="midnightblue" points="448.541,-98.3433 456.681,-105.126 454.547,-94.7478 448.541,-98.3433"/>
</g>
<!-- Node7 -->
<g id="node6" class="node"><title>Node7</title>
<g id="a_node6"><a xlink:href="a08831.html" target="_top" xlink:title=" ">
<polygon fill="none" stroke="black" points="508.5,-6 508.5,-63 675.5,-63 675.5,-6 508.5,-6"/>
<text text-anchor="middle" x="592" y="-51" font-family="Helvetica,sans-Serif" font-size="10.00">SDK::UTaleQuestCompassService</text>
<polyline fill="none" stroke="black" points="508.5,-44 675.5,-44 "/>
<text text-anchor="start" x="516.5" y="-32" font-family="Helvetica,sans-Serif" font-size="10.00">+ CurrentTarget</text>
<polyline fill="none" stroke="black" points="508.5,-25 675.5,-25 "/>
<text text-anchor="start" x="516.5" y="-13" font-family="Helvetica,sans-Serif" font-size="10.00">+ StaticClass()</text>
</a>
</g>
</g>
<!-- Node1&#45;&gt;Node7 -->
<g id="edge5" class="edge"><title>Node1&#45;&gt;Node7</title>
<path fill="none" stroke="midnightblue" d="M555.168,-96.3344C562.426,-84.3475 569.402,-72.824 575.295,-63.0916"/>
<polygon fill="none" stroke="midnightblue" points="552.031,-94.7586 549.846,-105.126 558.019,-98.384 552.031,-94.7586"/>
</g>
<!-- Node8 -->
<g id="node7" class="node"><title>Node8</title>
<g id="a_node7"><a xlink:href="a08835.html" target="_top" xlink:title=" ">
<polygon fill="none" stroke="black" points="694,-6 694,-63 852,-63 852,-6 694,-6"/>
<text text-anchor="middle" x="773" y="-51" font-family="Helvetica,sans-Serif" font-size="10.00">SDK::UTaleQuestLanternService</text>
<polyline fill="none" stroke="black" points="694,-44 852,-44 "/>
<text text-anchor="middle" x="773" y="-32" font-family="Helvetica,sans-Serif" font-size="10.00"> </text>
<polyline fill="none" stroke="black" points="694,-25 852,-25 "/>
<text text-anchor="start" x="702" y="-13" font-family="Helvetica,sans-Serif" font-size="10.00">+ StaticClass()</text>
</a>
</g>
</g>
<!-- Node1&#45;&gt;Node8 -->
<g id="edge6" class="edge"><title>Node1&#45;&gt;Node8</title>
<path fill="none" stroke="midnightblue" d="M599.697,-129.854C641.16,-107.28 687.879,-81.8438 722.352,-63.0748"/>
<polygon fill="none" stroke="midnightblue" points="597.77,-126.918 590.661,-134.773 601.118,-133.066 597.77,-126.918"/>
</g>
<!-- Node9 -->
<g id="node8" class="node"><title>Node9</title>
<g id="a_node8"><a xlink:href="a08839.html" target="_top" xlink:title=" ">
<polygon fill="none" stroke="black" points="870,-0.5 870,-68.5 1020,-68.5 1020,-0.5 870,-0.5"/>
<text text-anchor="middle" x="945" y="-56.5" font-family="Helvetica,sans-Serif" font-size="10.00">SDK::UTaleQuestPlankService</text>
<polyline fill="none" stroke="black" points="870,-49.5 1020,-49.5 "/>
<text text-anchor="middle" x="945" y="-37.5" font-family="Helvetica,sans-Serif" font-size="10.00"> </text>
<polyline fill="none" stroke="black" points="870,-30.5 1020,-30.5 "/>
<text text-anchor="start" x="878" y="-18.5" font-family="Helvetica,sans-Serif" font-size="10.00">+ SetWoodenPlankDesc()</text>
<text text-anchor="start" x="878" y="-7.5" font-family="Helvetica,sans-Serif" font-size="10.00">+ StaticClass()</text>
</a>
</g>
</g>
<!-- Node1&#45;&gt;Node9 -->
<g id="edge7" class="edge"><title>Node1&#45;&gt;Node9</title>
<path fill="none" stroke="midnightblue" d="M600.779,-153.592C673.105,-131.703 773.773,-100.174 861,-69 863.957,-67.9432 866.964,-66.8471 869.997,-65.7242"/>
<polygon fill="none" stroke="midnightblue" points="599.327,-150.374 590.766,-156.616 601.35,-157.075 599.327,-150.374"/>
</g>
<!-- Node2 -->
<g id="node2" class="node"><title>Node2</title>
<g id="a_node2"><a xlink:href="a35143.html" target="_top" xlink:title=" ">
<polygon fill="none" stroke="red" points="440.5,-298.5 440.5,-355.5 565.5,-355.5 565.5,-298.5 440.5,-298.5"/>
<text text-anchor="middle" x="503" y="-343.5" font-family="Helvetica,sans-Serif" font-size="10.00">SDK::UTaleQuestService</text>
<polyline fill="none" stroke="red" points="440.5,-336.5 565.5,-336.5 "/>
<text text-anchor="start" x="448.5" y="-324.5" font-family="Helvetica,sans-Serif" font-size="10.00">+ UnknownData00</text>
<polyline fill="none" stroke="red" points="440.5,-317.5 565.5,-317.5 "/>
<text text-anchor="start" x="448.5" y="-305.5" font-family="Helvetica,sans-Serif" font-size="10.00">+ StaticClass()</text>
</a>
</g>
</g>
<!-- Node2&#45;&gt;Node1 -->
<g id="edge1" class="edge"><title>Node2&#45;&gt;Node1</title>
<path fill="none" stroke="midnightblue" d="M503,-288.34C503,-280.044 503,-270.964 503,-261.736"/>
<polygon fill="none" stroke="midnightblue" points="499.5,-288.381 503,-298.381 506.5,-288.382 499.5,-288.381"/>
</g>
</g>
</svg>
        <g id="navigator" transform="translate(0 0)" fill="#404254">
                <rect fill="#f2f5e9" fill-opacity="0.5" stroke="#606060" stroke-width=".5" x="0" y="0" width="60" height="60"/>
                <use id="zoomplus" xlink:href="#zoomPlus" x="17" y="9" onmousedown="handleZoom(evt,'in')"/>
                <use id="zoomminus" xlink:href="#zoomMin" x="42" y="9" onmousedown="handleZoom(evt,'out')"/>
                <use id="reset" xlink:href="#resetDef" x="30" y="36" onmousedown="handleReset()"/>
                <g id="arrowUp" xlink:href="#dirArrow" transform="translate(30 24)" onmousedown="handlePan(0,-1)">
                  <use xlink:href="#rim" fill="#404040">
                        <set attributeName="fill" to="#808080" begin="arrowUp.mouseover" end="arrowUp.mouseout"/>
                  </use>
                  <path fill="none" stroke="white" stroke-width="1.5" d="M0,-3.0v7 M-2.5,-0.5L0,-3.0L2.5,-0.5"/>
                </g>
                <g id="arrowRight" xlink:href="#dirArrow" transform="rotate(90) translate(36 -43)" onmousedown="handlePan(1,0)">
                  <use xlink:href="#rim" fill="#404040">
                        <set attributeName="fill" to="#808080" begin="arrowRight.mouseover" end="arrowRight.mouseout"/>
                  </use>
                  <path fill="none" stroke="white" stroke-width="1.5" d="M0,-3.0v7 M-2.5,-0.5L0,-3.0L2.5,-0.5"/>
                </g>
                <g id="arrowDown" xlink:href="#dirArrow" transform="rotate(180) translate(-30 -48)" onmousedown="handlePan(0,1)">
                  <use xlink:href="#rim" fill="#404040">
                        <set attributeName="fill" to="#808080" begin="arrowDown.mouseover" end="arrowDown.mouseout"/>
                  </use>
                  <path fill="none" stroke="white" stroke-width="1.5" d="M0,-3.0v7 M-2.5,-0.5L0,-3.0L2.5,-0.5"/>
                </g>
                <g id="arrowLeft" xlink:href="#dirArrow" transform="rotate(270) translate(-36 17)" onmousedown="handlePan(-1,0)">
                  <use xlink:href="#rim" fill="#404040">
                        <set attributeName="fill" to="#808080" begin="arrowLeft.mouseover" end="arrowLeft.mouseout"/>
                  </use>
                  <path fill="none" stroke="white" stroke-width="1.5" d="M0,-3.0v7 M-2.5,-0.5L0,-3.0L2.5,-0.5"/>
                </g>
        </g>
        <svg viewBox="0 0 15 15" width="100%" height="30px" preserveAspectRatio="xMaxYMin meet">
         <g id="arrow_out" transform="scale(0.3 0.3)">
          <a xlink:href="a08814_org.svg" target="_base">
           <rect id="button" ry="5" rx="5" y="6" x="6" height="38" width="38"
                fill="#f2f5e9" fill-opacity="0.5" stroke="#606060" stroke-width="1.0"/>
           <path id="arrow"
             d="M 11.500037,31.436501 C 11.940474,20.09759 22.043105,11.32322 32.158766,21.979434 L 37.068811,17.246167 C 37.068811,17.246167 37.088388,32 37.088388,32 L 22.160133,31.978069 C 22.160133,31.978069 26.997745,27.140456 26.997745,27.140456 C 18.528582,18.264221 13.291696,25.230495 11.500037,31.436501 z"
             style="fill:#404040;"/>
          </a>
         </g>
        </svg>
</svg>
