<?xml version="1.0" encoding="UTF-8" standalone="no"?>
<!DOCTYPE svg PUBLIC "-//W3C//DTD SVG 1.1//EN"
 "http://www.w3.org/Graphics/SVG/1.1/DTD/svg11.dtd">
<!-- Generated by graphviz version 2.38.0 (20140413.2041)
 -->
<!-- Title: SDK::ATestWieldableItem Pages: 1 -->
<svg width="169pt" height="265pt"
 viewBox="0.00 0.00 169.00 265.00" xmlns="http://www.w3.org/2000/svg" xmlns:xlink="http://www.w3.org/1999/xlink">
<g id="graph0" class="graph" transform="scale(1 1) rotate(0) translate(4 261)">
<title>SDK::ATestWieldableItem</title>
<!-- Node1 -->
<g id="node1" class="node"><title>Node1</title>
<g id="a_node1"><a xlink:title=" ">
<polygon fill="#bfbfbf" stroke="black" points="14.5,-94.5 14.5,-162.5 146.5,-162.5 146.5,-94.5 14.5,-94.5"/>
<text text-anchor="middle" x="80.5" y="-150.5" font-family="Helvetica,sans-Serif" font-size="10.00">SDK::ATestWieldableItem</text>
<polyline fill="none" stroke="black" points="14.5,-143.5 146.5,-143.5 "/>
<text text-anchor="start" x="22.5" y="-131.5" font-family="Helvetica,sans-Serif" font-size="10.00">+ InventoryItemComponent</text>
<text text-anchor="start" x="22.5" y="-120.5" font-family="Helvetica,sans-Serif" font-size="10.00">+ UnknownData00</text>
<polyline fill="none" stroke="black" points="14.5,-113.5 146.5,-113.5 "/>
<text text-anchor="start" x="22.5" y="-101.5" font-family="Helvetica,sans-Serif" font-size="10.00">+ StaticClass()</text>
</a>
</g>
</g>
<!-- Node6 -->
<g id="node3" class="node"><title>Node6</title>
<g id="a_node3"><a xlink:href="a09163.html" target="_top" xlink:title=" ">
<polygon fill="none" stroke="black" points="3.5,-0.5 3.5,-57.5 157.5,-57.5 157.5,-0.5 3.5,-0.5"/>
<text text-anchor="middle" x="80.5" y="-45.5" font-family="Helvetica,sans-Serif" font-size="10.00">SDK::ATestWieldableItemLarge</text>
<polyline fill="none" stroke="black" points="3.5,-38.5 157.5,-38.5 "/>
<text text-anchor="middle" x="80.5" y="-26.5" font-family="Helvetica,sans-Serif" font-size="10.00"> </text>
<polyline fill="none" stroke="black" points="3.5,-19.5 157.5,-19.5 "/>
<text text-anchor="start" x="11.5" y="-7.5" font-family="Helvetica,sans-Serif" font-size="10.00">+ StaticClass()</text>
</a>
</g>
</g>
<!-- Node1&#45;&gt;Node6 -->
<g id="edge2" class="edge"><title>Node1&#45;&gt;Node6</title>
<path fill="none" stroke="midnightblue" d="M80.5,-84.4538C80.5,-75.4036 80.5,-66.0876 80.5,-57.7765"/>
<polygon fill="none" stroke="midnightblue" points="77.0001,-84.4909 80.5,-94.4909 84.0001,-84.491 77.0001,-84.4909"/>
</g>
<!-- Node2 -->
<g id="node2" class="node"><title>Node2</title>
<g id="a_node2"><a xlink:href="a03171.html" target="_top" xlink:title=" ">
<polygon fill="none" stroke="red" points="0,-199.5 0,-256.5 161,-256.5 161,-199.5 0,-199.5"/>
<text text-anchor="middle" x="80.5" y="-244.5" font-family="Helvetica,sans-Serif" font-size="10.00">SDK::AStaticMeshWieldableItem</text>
<polyline fill="none" stroke="red" points="0,-237.5 161,-237.5 "/>
<text text-anchor="middle" x="80.5" y="-225.5" font-family="Helvetica,sans-Serif" font-size="10.00"> </text>
<polyline fill="none" stroke="red" points="0,-218.5 161,-218.5 "/>
<text text-anchor="start" x="8" y="-206.5" font-family="Helvetica,sans-Serif" font-size="10.00">+ StaticClass()</text>
</a>
</g>
</g>
<!-- Node2&#45;&gt;Node1 -->
<g id="edge1" class="edge"><title>Node2&#45;&gt;Node1</title>
<path fill="none" stroke="midnightblue" d="M80.5,-189.063C80.5,-180.393 80.5,-171.243 80.5,-162.786"/>
<polygon fill="none" stroke="midnightblue" points="77.0001,-189.321 80.5,-199.321 84.0001,-189.321 77.0001,-189.321"/>
</g>
</g>
</svg>
