<?xml version="1.0" encoding="UTF-8" standalone="no"?>
<!DOCTYPE svg PUBLIC "-//W3C//DTD SVG 1.1//EN"
 "http://www.w3.org/Graphics/SVG/1.1/DTD/svg11.dtd">
<!-- Generated by graphviz version 2.38.0 (20140413.2041)
 -->
<!-- Title: SDK::UTestRudderDynamicsDesc Pages: 1 -->
<svg width="264pt" height="171pt"
 viewBox="0.00 0.00 263.50 171.00" xmlns="http://www.w3.org/2000/svg" xmlns:xlink="http://www.w3.org/1999/xlink">
<g id="graph0" class="graph" transform="scale(1 1) rotate(0) translate(4 167)">
<title>SDK::UTestRudderDynamicsDesc</title>
<!-- Node1 -->
<g id="node1" class="node"><title>Node1</title>
<g id="a_node1"><a xlink:title=" ">
<polygon fill="#bfbfbf" stroke="black" points="62,-0.5 62,-57.5 227,-57.5 227,-0.5 62,-0.5"/>
<text text-anchor="middle" x="144.5" y="-45.5" font-family="Helvetica,sans-Serif" font-size="10.00">SDK::UTestRudderDynamicsDesc</text>
<polyline fill="none" stroke="black" points="62,-38.5 227,-38.5 "/>
<text text-anchor="middle" x="144.5" y="-26.5" font-family="Helvetica,sans-Serif" font-size="10.00"> </text>
<polyline fill="none" stroke="black" points="62,-19.5 227,-19.5 "/>
<text text-anchor="start" x="70" y="-7.5" font-family="Helvetica,sans-Serif" font-size="10.00">+ StaticClass()</text>
</a>
</g>
</g>
<!-- Node2 -->
<g id="node2" class="node"><title>Node2</title>
<g id="a_node2"><a xlink:href="a09107.html" target="_top" xlink:title=" ">
<polygon fill="none" stroke="red" points="0,-105.5 0,-162.5 169,-162.5 169,-105.5 0,-105.5"/>
<text text-anchor="middle" x="84.5" y="-150.5" font-family="Helvetica,sans-Serif" font-size="10.00">SDK::UBaseRudderDynamicsDesc</text>
<polyline fill="none" stroke="red" points="0,-143.5 169,-143.5 "/>
<text text-anchor="middle" x="84.5" y="-131.5" font-family="Helvetica,sans-Serif" font-size="10.00"> </text>
<polyline fill="none" stroke="red" points="0,-124.5 169,-124.5 "/>
<text text-anchor="start" x="8" y="-112.5" font-family="Helvetica,sans-Serif" font-size="10.00">+ StaticClass()</text>
</a>
</g>
</g>
<!-- Node2&#45;&gt;Node1 -->
<g id="edge1" class="edge"><title>Node2&#45;&gt;Node1</title>
<path fill="none" stroke="midnightblue" d="M105.819,-96.4029C113.243,-83.6575 121.444,-69.5794 128.377,-57.6783"/>
<polygon fill="none" stroke="midnightblue" points="102.588,-94.9953 100.579,-105.398 108.637,-98.5188 102.588,-94.9953"/>
</g>
<!-- Node13 -->
<g id="node3" class="node"><title>Node13</title>
<g id="a_node3"><a xlink:title=" ">
<polygon fill="none" stroke="#bfbfbf" points="187,-105.5 187,-162.5 222,-162.5 222,-105.5 187,-105.5"/>
<text text-anchor="middle" x="204.5" y="-150.5" font-family="Helvetica,sans-Serif" font-size="10.00">char</text>
<polyline fill="none" stroke="#bfbfbf" points="187,-143.5 222,-143.5 "/>
<text text-anchor="middle" x="204.5" y="-131.5" font-family="Helvetica,sans-Serif" font-size="10.00"> </text>
<polyline fill="none" stroke="#bfbfbf" points="187,-124.5 222,-124.5 "/>
<text text-anchor="middle" x="204.5" y="-112.5" font-family="Helvetica,sans-Serif" font-size="10.00"> </text>
</a>
</g>
</g>
<!-- Node13&#45;&gt;Node1 -->
<g id="edge2" class="edge"><title>Node13&#45;&gt;Node1</title>
<path fill="none" stroke="#404040" d="M188.421,-105.398C181.763,-93.9679 173.929,-80.5199 166.735,-68.1701"/>
<polygon fill="none" stroke="#404040" points="166.664,-68.0473 160.187,-64.8762 160.623,-57.6783 167.1,-60.8494 166.664,-68.0473"/>
<text text-anchor="middle" x="215.5" y="-79" font-family="Helvetica,sans-Serif" font-size="10.00"> +UnknownData00</text>
</g>
</g>
</svg>
