<?xml version="1.0" encoding="UTF-8" standalone="no"?>
<!DOCTYPE svg PUBLIC "-//W3C//DTD SVG 1.1//EN"
 "http://www.w3.org/Graphics/SVG/1.1/DTD/svg11.dtd">
<!-- Generated by graphviz version 2.38.0 (20140413.2041)
 -->
<!-- Title: SDK::UAthenaTutorialComponent Pages: 1 -->
<svg width="562pt" height="298pt"
 viewBox="0.00 0.00 561.50 298.00" xmlns="http://www.w3.org/2000/svg" xmlns:xlink="http://www.w3.org/1999/xlink">
<g id="graph0" class="graph" transform="scale(1 1) rotate(0) translate(4 294)">
<title>SDK::UAthenaTutorialComponent</title>
<!-- Node1 -->
<g id="node1" class="node"><title>Node1</title>
<g id="a_node1"><a xlink:title=" ">
<polygon fill="#bfbfbf" stroke="black" points="183,-0.5 183,-57.5 344,-57.5 344,-0.5 183,-0.5"/>
<text text-anchor="middle" x="263.5" y="-45.5" font-family="Helvetica,sans-Serif" font-size="10.00">SDK::UAthenaTutorialComponent</text>
<polyline fill="none" stroke="black" points="183,-38.5 344,-38.5 "/>
<text text-anchor="middle" x="263.5" y="-26.5" font-family="Helvetica,sans-Serif" font-size="10.00"> </text>
<polyline fill="none" stroke="black" points="183,-19.5 344,-19.5 "/>
<text text-anchor="start" x="191" y="-7.5" font-family="Helvetica,sans-Serif" font-size="10.00">+ StaticClass()</text>
</a>
</g>
</g>
<!-- Node2 -->
<g id="node2" class="node"><title>Node2</title>
<g id="a_node2"><a xlink:href="a09275.html" target="_top" xlink:title=" ">
<polygon fill="none" stroke="red" points="280,-105.5 280,-173.5 411,-173.5 411,-105.5 280,-105.5"/>
<text text-anchor="middle" x="345.5" y="-161.5" font-family="Helvetica,sans-Serif" font-size="10.00">SDK::UTutorialComponent</text>
<polyline fill="none" stroke="red" points="280,-154.5 411,-154.5 "/>
<text text-anchor="middle" x="345.5" y="-142.5" font-family="Helvetica,sans-Serif" font-size="10.00"> </text>
<polyline fill="none" stroke="red" points="280,-135.5 411,-135.5 "/>
<text text-anchor="start" x="288" y="-123.5" font-family="Helvetica,sans-Serif" font-size="10.00">+ OnRep_HasBegun()</text>
<text text-anchor="start" x="288" y="-112.5" font-family="Helvetica,sans-Serif" font-size="10.00">+ StaticClass()</text>
</a>
</g>
</g>
<!-- Node2&#45;&gt;Node1 -->
<g id="edge1" class="edge"><title>Node2&#45;&gt;Node1</title>
<path fill="none" stroke="midnightblue" d="M314.373,-97.3142C304.403,-84.1211 293.603,-69.832 284.531,-57.827"/>
<polygon fill="none" stroke="midnightblue" points="311.63,-99.4893 320.452,-105.357 317.215,-95.2687 311.63,-99.4893"/>
</g>
<!-- Node13 -->
<g id="node3" class="node"><title>Node13</title>
<g id="a_node3"><a xlink:title=" ">
<polygon fill="none" stroke="#bfbfbf" points="164,-232.5 164,-289.5 199,-289.5 199,-232.5 164,-232.5"/>
<text text-anchor="middle" x="181.5" y="-277.5" font-family="Helvetica,sans-Serif" font-size="10.00">char</text>
<polyline fill="none" stroke="#bfbfbf" points="164,-270.5 199,-270.5 "/>
<text text-anchor="middle" x="181.5" y="-258.5" font-family="Helvetica,sans-Serif" font-size="10.00"> </text>
<polyline fill="none" stroke="#bfbfbf" points="164,-251.5 199,-251.5 "/>
<text text-anchor="middle" x="181.5" y="-239.5" font-family="Helvetica,sans-Serif" font-size="10.00"> </text>
</a>
</g>
</g>
<!-- Node13&#45;&gt;Node1 -->
<g id="edge4" class="edge"><title>Node13&#45;&gt;Node1</title>
<path fill="none" stroke="#404040" d="M177.488,-232.336C174.073,-200.244 172.244,-146.442 190.5,-105 196.858,-90.567 207.296,-77.2995 218.317,-66.0661"/>
<polygon fill="none" stroke="#404040" points="218.565,-65.8282 220.117,-58.786 227.214,-57.51 225.662,-64.5521 218.565,-65.8282"/>
<text text-anchor="middle" x="230.5" y="-137" font-family="Helvetica,sans-Serif" font-size="10.00"> +UnknownData00</text>
</g>
<!-- Node13&#45;&gt;Node2 -->
<g id="edge2" class="edge"><title>Node13&#45;&gt;Node2</title>
<path fill="none" stroke="#404040" d="M199.051,-247.211C220.599,-231.51 258.189,-204.12 289.889,-181.022"/>
<polygon fill="none" stroke="#404040" points="290.248,-180.76 292.741,-173.994 299.946,-173.693 297.453,-180.459 290.248,-180.76"/>
<text text-anchor="middle" x="313.5" y="-206" font-family="Helvetica,sans-Serif" font-size="10.00"> +UnknownData01</text>
<text text-anchor="middle" x="313.5" y="-195" font-family="Helvetica,sans-Serif" font-size="10.00">+UnknownData00</text>
</g>
<!-- Node24 -->
<g id="node5" class="node"><title>Node24</title>
<g id="a_node5"><a xlink:href="a15771.html" target="_top" xlink:title=" ">
<polygon fill="none" stroke="red" points="0,-111 0,-168 145,-168 145,-111 0,-111"/>
<text text-anchor="middle" x="72.5" y="-156" font-family="Helvetica,sans-Serif" font-size="10.00">SDK::FMainTutorialSequence</text>
<polyline fill="none" stroke="red" points="0,-149 145,-149 "/>
<text text-anchor="middle" x="72.5" y="-137" font-family="Helvetica,sans-Serif" font-size="10.00"> </text>
<polyline fill="none" stroke="red" points="0,-130 145,-130 "/>
<text text-anchor="middle" x="72.5" y="-118" font-family="Helvetica,sans-Serif" font-size="10.00"> </text>
</a>
</g>
</g>
<!-- Node13&#45;&gt;Node24 -->
<g id="edge7" class="edge"><title>Node13&#45;&gt;Node24</title>
<path fill="none" stroke="#404040" d="M163.957,-256.375C142.483,-250.985 106.623,-238.716 87.5,-214 80.0473,-204.368 76.0378,-191.965 73.9505,-180.101"/>
<polygon fill="none" stroke="#404040" points="73.9343,-179.973 69.2033,-174.531 72.4074,-168.071 77.1383,-173.513 73.9343,-179.973"/>
<text text-anchor="middle" x="127.5" y="-206" font-family="Helvetica,sans-Serif" font-size="10.00"> +UnknownData01</text>
<text text-anchor="middle" x="127.5" y="-195" font-family="Helvetica,sans-Serif" font-size="10.00">+UnknownData00</text>
</g>
<!-- Node23 -->
<g id="node4" class="node"><title>Node23</title>
<g id="a_node4"><a xlink:title=" ">
<polygon fill="none" stroke="#bfbfbf" points="387,-232.5 387,-289.5 422,-289.5 422,-232.5 387,-232.5"/>
<text text-anchor="middle" x="404.5" y="-277.5" font-family="Helvetica,sans-Serif" font-size="10.00">bool</text>
<polyline fill="none" stroke="#bfbfbf" points="387,-270.5 422,-270.5 "/>
<text text-anchor="middle" x="404.5" y="-258.5" font-family="Helvetica,sans-Serif" font-size="10.00"> </text>
<polyline fill="none" stroke="#bfbfbf" points="387,-251.5 422,-251.5 "/>
<text text-anchor="middle" x="404.5" y="-239.5" font-family="Helvetica,sans-Serif" font-size="10.00"> </text>
</a>
</g>
</g>
<!-- Node23&#45;&gt;Node1 -->
<g id="edge5" class="edge"><title>Node23&#45;&gt;Node1</title>
<path fill="none" stroke="#404040" d="M422.293,-237.355C426.857,-230.272 431.142,-222.163 433.5,-214 442.641,-182.359 435.895,-126.97 419.5,-105 403.447,-83.4883 379.605,-67.8575 355.363,-56.6227"/>
<polygon fill="none" stroke="#404040" points="355.224,-56.5617 348.125,-57.8297 344.224,-51.7647 351.323,-50.4967 355.224,-56.5617"/>
<text text-anchor="middle" x="496" y="-137" font-family="Helvetica,sans-Serif" font-size="10.00"> +HasPlayedWakeupAnim</text>
</g>
<!-- Node23&#45;&gt;Node2 -->
<g id="edge3" class="edge"><title>Node23&#45;&gt;Node2</title>
<path fill="none" stroke="#404040" d="M388.407,-232.494C385.029,-226.457 381.564,-220.058 378.5,-214 373.781,-204.67 369.005,-194.522 364.606,-184.829"/>
<polygon fill="none" stroke="#404040" points="364.544,-184.689 358.442,-180.846 359.643,-173.736 365.745,-177.579 364.544,-184.689"/>
<text text-anchor="middle" x="406" y="-200.5" font-family="Helvetica,sans-Serif" font-size="10.00"> +HasBegun</text>
</g>
<!-- Node24&#45;&gt;Node1 -->
<g id="edge6" class="edge"><title>Node24&#45;&gt;Node1</title>
<path fill="none" stroke="#404040" d="M81.4169,-110.94C86.6599,-98.6719 94.4696,-84.9959 105.5,-76 124.251,-60.7078 147.887,-50.4992 171.125,-43.6843"/>
<polygon fill="none" stroke="#404040" points="171.26,-43.6478 176.007,-38.2191 182.843,-40.5126 178.097,-45.9413 171.26,-43.6478"/>
<text text-anchor="middle" x="136.5" y="-79" font-family="Helvetica,sans-Serif" font-size="10.00"> +MainTutorial</text>
</g>
</g>
</svg>
