<?xml version="1.0" encoding="UTF-8" standalone="no"?>
<!DOCTYPE svg PUBLIC "-//W3C//DTD SVG 1.1//EN"
 "http://www.w3.org/Graphics/SVG/1.1/DTD/svg11.dtd">
<!-- Generated by graphviz version 2.38.0 (20140413.2041)
 -->
<!-- Title: SDK::UTreasureMapCollectionComponent Pages: 1 -->
<!--zoomable 705 -->
<svg id="main" version="1.1" xmlns="http://www.w3.org/2000/svg" xmlns:xlink="http://www.w3.org/1999/xlink" xml:space="preserve" onload="init(evt)">
<style type="text/css"><![CDATA[
.edge:hover path { stroke: red; }
.edge:hover polygon { stroke: red; fill: red; }
]]></style>
<script type="text/javascript"><![CDATA[
var edges = document.getElementsByTagName('g');
if (edges && edges.length) {
  for (var i=0;i<edges.length;i++) {
    if (edges[i].id.substr(0,4)=='edge') {
      edges[i].setAttribute('class','edge');
    }
  }
}
]]></script>
        <defs>
                <circle id="rim" cx="0" cy="0" r="7"/>
                <circle id="rim2" cx="0" cy="0" r="3.5"/>
                <g id="zoomPlus">
                        <use xlink:href="#rim" fill="#404040">
                                <set attributeName="fill" to="#808080" begin="zoomplus.mouseover" end="zoomplus.mouseout"/>
                        </use>
                        <path d="M-4,0h8M0,-4v8" fill="none" stroke="white" stroke-width="1.5" pointer-events="none"/>
                </g>
                <g id="zoomMin">
                        <use xlink:href="#rim" fill="#404040">
                                <set attributeName="fill" to="#808080" begin="zoomminus.mouseover" end="zoomminus.mouseout"/>
                        </use>
                        <path d="M-4,0h8" fill="none" stroke="white" stroke-width="1.5" pointer-events="none"/>
                </g>
                <g id="dirArrow">
                        <path fill="none" stroke="white" stroke-width="1.5" d="M0,-3.0v7 M-2.5,-0.5L0,-3.0L2.5,-0.5"/>
                </g>
               <g id="resetDef">
                       <use xlink:href="#rim2" fill="#404040">
                               <set attributeName="fill" to="#808080" begin="reset.mouseover" end="reset.mouseout"/>
                       </use>
               </g>
        </defs>

<script type="text/javascript">
var viewWidth = 768;
var viewHeight = 705;
var sectionId = 'dynsection-1';
</script>
<script xlink:href="svgpan.js"/>
<svg id="graph" class="graph">
<g id="viewport">
<title>SDK::UTreasureMapCollectionComponent</title>
<!-- Node1 -->
<g id="node1" class="node"><title>Node1</title>
<g id="a_node1"><a xlink:title=" ">
<polygon fill="#bfbfbf" stroke="black" points="278.317,-0.5 278.317,-68.5 427.317,-68.5 427.317,-0.5 278.317,-0.5"/>
<text text-anchor="start" x="286.317" y="-56.5" font-family="Helvetica,sans-Serif" font-size="10.00">SDK::UTreasureMapCollection</text>
<text text-anchor="middle" x="352.817" y="-45.5" font-family="Helvetica,sans-Serif" font-size="10.00">Component</text>
<polyline fill="none" stroke="black" points="278.317,-38.5 427.317,-38.5 "/>
<text text-anchor="middle" x="352.817" y="-26.5" font-family="Helvetica,sans-Serif" font-size="10.00"> </text>
<polyline fill="none" stroke="black" points="278.317,-19.5 427.317,-19.5 "/>
<text text-anchor="start" x="286.317" y="-7.5" font-family="Helvetica,sans-Serif" font-size="10.00">+ StaticClass()</text>
</a>
</g>
</g>
<!-- Node2 -->
<g id="node2" class="node"><title>Node2</title>
<g id="a_node2"><a xlink:href="a26551.html" target="_top" xlink:title=" ">
<polygon fill="none" stroke="red" points="260.317,-171.5 260.317,-415.5 445.317,-415.5 445.317,-171.5 260.317,-171.5"/>
<text text-anchor="middle" x="352.817" y="-403.5" font-family="Helvetica,sans-Serif" font-size="10.00">SDK::UActorComponent</text>
<polyline fill="none" stroke="red" points="260.317,-396.5 445.317,-396.5 "/>
<text text-anchor="start" x="268.317" y="-384.5" font-family="Helvetica,sans-Serif" font-size="10.00">+ UnknownData00</text>
<text text-anchor="start" x="268.317" y="-373.5" font-family="Helvetica,sans-Serif" font-size="10.00">+ bReplicates</text>
<text text-anchor="start" x="268.317" y="-362.5" font-family="Helvetica,sans-Serif" font-size="10.00">+ bNetAddressable</text>
<text text-anchor="start" x="268.317" y="-351.5" font-family="Helvetica,sans-Serif" font-size="10.00">+ bInstanceComponent</text>
<text text-anchor="start" x="268.317" y="-340.5" font-family="Helvetica,sans-Serif" font-size="10.00">+ bAutoActivate</text>
<text text-anchor="start" x="268.317" y="-329.5" font-family="Helvetica,sans-Serif" font-size="10.00">+ bIsActive</text>
<text text-anchor="start" x="268.317" y="-318.5" font-family="Helvetica,sans-Serif" font-size="10.00">+ bNeedsLoadForServer</text>
<polyline fill="none" stroke="red" points="260.317,-311.5 445.317,-311.5 "/>
<text text-anchor="start" x="268.317" y="-299.5" font-family="Helvetica,sans-Serif" font-size="10.00">+ ToggleActive()</text>
<text text-anchor="start" x="268.317" y="-288.5" font-family="Helvetica,sans-Serif" font-size="10.00">+ SetTickGroup()</text>
<text text-anchor="start" x="268.317" y="-277.5" font-family="Helvetica,sans-Serif" font-size="10.00">+ SetTickableWhenPaused()</text>
<text text-anchor="start" x="268.317" y="-266.5" font-family="Helvetica,sans-Serif" font-size="10.00">+ SetIsReplicated()</text>
<text text-anchor="start" x="268.317" y="-255.5" font-family="Helvetica,sans-Serif" font-size="10.00">+ SetComponentTickEnabled()</text>
<text text-anchor="start" x="268.317" y="-244.5" font-family="Helvetica,sans-Serif" font-size="10.00">+ SetActive()</text>
<text text-anchor="start" x="268.317" y="-233.5" font-family="Helvetica,sans-Serif" font-size="10.00">+ RemoveTickPrerequisiteComponent()</text>
<text text-anchor="start" x="268.317" y="-222.5" font-family="Helvetica,sans-Serif" font-size="10.00">+ RemoveTickPrerequisiteActor()</text>
<text text-anchor="start" x="268.317" y="-211.5" font-family="Helvetica,sans-Serif" font-size="10.00">+ ReceiveTick()</text>
<text text-anchor="start" x="268.317" y="-200.5" font-family="Helvetica,sans-Serif" font-size="10.00">+ ReceiveEndPlay()</text>
<text text-anchor="start" x="268.317" y="-189.5" font-family="Helvetica,sans-Serif" font-size="10.00">and 12 more...</text>
<text text-anchor="start" x="268.317" y="-178.5" font-family="Helvetica,sans-Serif" font-size="10.00">+ StaticClass()</text>
</a>
</g>
</g>
<!-- Node2&#45;&gt;Node1 -->
<g id="edge1" class="edge"><title>Node2&#45;&gt;Node1</title>
<path fill="none" stroke="midnightblue" d="M352.817,-160.98C352.817,-126.638 352.817,-92.5827 352.817,-68.6346"/>
<polygon fill="none" stroke="midnightblue" points="349.317,-161.15 352.817,-171.15 356.317,-161.15 349.317,-161.15"/>
</g>
<!-- Node12 -->
<g id="node3" class="node"><title>Node12</title>
<g id="a_node3"><a xlink:title=" ">
<polygon fill="none" stroke="#bfbfbf" points="165.317,-612 165.317,-669 200.317,-669 200.317,-612 165.317,-612"/>
<text text-anchor="middle" x="182.817" y="-657" font-family="Helvetica,sans-Serif" font-size="10.00">char</text>
<polyline fill="none" stroke="#bfbfbf" points="165.317,-650 200.317,-650 "/>
<text text-anchor="middle" x="182.817" y="-638" font-family="Helvetica,sans-Serif" font-size="10.00"> </text>
<polyline fill="none" stroke="#bfbfbf" points="165.317,-631 200.317,-631 "/>
<text text-anchor="middle" x="182.817" y="-619" font-family="Helvetica,sans-Serif" font-size="10.00"> </text>
</a>
</g>
</g>
<!-- Node12&#45;&gt;Node1 -->
<g id="edge4" class="edge"><title>Node12&#45;&gt;Node1</title>
<path fill="none" stroke="#404040" d="M165.186,-621.483C131.712,-585.861 59.9664,-502.365 33.817,-416 2.26272,-311.783 -22.5095,-264.189 33.817,-171 82.1968,-90.9587 189.427,-58.1619 266.209,-44.7465"/>
<polygon fill="none" stroke="#404040" points="266.417,-44.7121 271.684,-39.7873 278.256,-42.7555 272.989,-47.6803 266.417,-44.7121"/>
<text text-anchor="middle" x="73.817" y="-296.5" font-family="Helvetica,sans-Serif" font-size="10.00"> +UnknownData01</text>
<text text-anchor="middle" x="73.817" y="-285.5" font-family="Helvetica,sans-Serif" font-size="10.00">+UnknownData00</text>
</g>
<!-- Node12&#45;&gt;Node2 -->
<g id="edge2" class="edge"><title>Node12&#45;&gt;Node2</title>
<path fill="none" stroke="#404040" d="M200.478,-628.383C219.477,-615.555 249.312,-592.756 266.817,-566 294.018,-524.425 313.115,-473.657 326.28,-427.32"/>
<polygon fill="none" stroke="#404040" points="326.31,-427.211 324.049,-420.363 329.5,-415.643 331.761,-422.49 326.31,-427.211"/>
<text text-anchor="middle" x="379.817" y="-558" font-family="Helvetica,sans-Serif" font-size="10.00"> +UnknownData01</text>
<text text-anchor="middle" x="379.817" y="-547" font-family="Helvetica,sans-Serif" font-size="10.00">+UnknownData02</text>
<text text-anchor="middle" x="379.817" y="-536" font-family="Helvetica,sans-Serif" font-size="10.00">+UnknownData03</text>
<text text-anchor="middle" x="379.817" y="-525" font-family="Helvetica,sans-Serif" font-size="10.00">+UnknownData04</text>
<text text-anchor="middle" x="379.817" y="-514" font-family="Helvetica,sans-Serif" font-size="10.00">+UnknownData05</text>
<text text-anchor="start" x="323.817" y="-503" font-family="Helvetica,sans-Serif" font-size="10.00">+bCreatedByConstruction</text>
<text text-anchor="middle" x="379.817" y="-492" font-family="Helvetica,sans-Serif" font-size="10.00">Script</text>
<text text-anchor="middle" x="379.817" y="-481" font-family="Helvetica,sans-Serif" font-size="10.00">+UnknownData06</text>
<text text-anchor="middle" x="379.817" y="-470" font-family="Helvetica,sans-Serif" font-size="10.00">+UnknownData07</text>
<text text-anchor="middle" x="379.817" y="-459" font-family="Helvetica,sans-Serif" font-size="10.00">+bEditableWhenInherited</text>
<text text-anchor="middle" x="379.817" y="-448" font-family="Helvetica,sans-Serif" font-size="10.00">+bNeedsLoadForClient</text>
<text text-anchor="middle" x="379.817" y="-437" font-family="Helvetica,sans-Serif" font-size="10.00">...</text>
</g>
<!-- Node9 -->
<g id="node6" class="node"><title>Node9</title>
<g id="a_node6"><a xlink:href="a26127.html" target="_top" xlink:title=" ">
<polygon fill="none" stroke="red" points="123.317,-254 123.317,-333 242.317,-333 242.317,-254 123.317,-254"/>
<text text-anchor="middle" x="182.817" y="-321" font-family="Helvetica,sans-Serif" font-size="10.00">SDK::UClass</text>
<polyline fill="none" stroke="red" points="123.317,-314 242.317,-314 "/>
<text text-anchor="middle" x="182.817" y="-302" font-family="Helvetica,sans-Serif" font-size="10.00"> </text>
<polyline fill="none" stroke="red" points="123.317,-295 242.317,-295 "/>
<text text-anchor="start" x="131.317" y="-283" font-family="Helvetica,sans-Serif" font-size="10.00">+ CreateDefaultObject()</text>
<text text-anchor="start" x="131.317" y="-272" font-family="Helvetica,sans-Serif" font-size="10.00">+ CreateDefaultObject()</text>
<text text-anchor="start" x="131.317" y="-261" font-family="Helvetica,sans-Serif" font-size="10.00">+ StaticClass()</text>
</a>
</g>
</g>
<!-- Node12&#45;&gt;Node9 -->
<g id="edge7" class="edge"><title>Node12&#45;&gt;Node9</title>
<path fill="none" stroke="#404040" d="M182.817,-611.85C182.817,-553.959 182.817,-419.253 182.817,-345.317"/>
<polygon fill="none" stroke="#404040" points="182.817,-345.122 178.817,-339.122 182.817,-333.122 186.817,-339.122 182.817,-345.122"/>
<text text-anchor="middle" x="222.817" y="-497.5" font-family="Helvetica,sans-Serif" font-size="10.00"> +UnknownData00</text>
</g>
<!-- Node21 -->
<g id="node4" class="node"><title>Node21</title>
<g id="a_node4"><a xlink:href="a25823.html" target="_top" xlink:title=" ">
<polygon fill="none" stroke="black" points="505.317,-584.5 505.317,-696.5 610.317,-696.5 610.317,-584.5 505.317,-584.5"/>
<text text-anchor="start" x="513.317" y="-684.5" font-family="Helvetica,sans-Serif" font-size="10.00">SDK::TArray&lt; struct</text>
<text text-anchor="middle" x="557.817" y="-673.5" font-family="Helvetica,sans-Serif" font-size="10.00"> SDK::FName &gt;</text>
<polyline fill="none" stroke="black" points="505.317,-666.5 610.317,-666.5 "/>
<text text-anchor="middle" x="557.817" y="-654.5" font-family="Helvetica,sans-Serif" font-size="10.00"> </text>
<polyline fill="none" stroke="black" points="505.317,-647.5 610.317,-647.5 "/>
<text text-anchor="start" x="513.317" y="-635.5" font-family="Helvetica,sans-Serif" font-size="10.00">+ TArray()</text>
<text text-anchor="start" x="513.317" y="-624.5" font-family="Helvetica,sans-Serif" font-size="10.00">+ Num()</text>
<text text-anchor="start" x="513.317" y="-613.5" font-family="Helvetica,sans-Serif" font-size="10.00">+ operator[]()</text>
<text text-anchor="start" x="513.317" y="-602.5" font-family="Helvetica,sans-Serif" font-size="10.00">+ operator[]()</text>
<text text-anchor="start" x="513.317" y="-591.5" font-family="Helvetica,sans-Serif" font-size="10.00">+ IsValidIndex()</text>
</a>
</g>
</g>
<!-- Node21&#45;&gt;Node1 -->
<g id="edge8" class="edge"><title>Node21&#45;&gt;Node1</title>
<path fill="none" stroke="#404040" d="M594.131,-584.267C596.837,-578.284 599.154,-572.136 600.817,-566 616.321,-508.795 621.486,-231.338 596.817,-171 577.306,-123.279 560.579,-114.256 516.817,-87 493.422,-72.4291 465.562,-61.6687 439.504,-53.8659"/>
<polygon fill="none" stroke="#404040" points="439.219,-53.7844 432.35,-55.9811 427.681,-50.4859 434.549,-48.2892 439.219,-53.7844"/>
<text text-anchor="middle" x="687.317" y="-291" font-family="Helvetica,sans-Serif" font-size="10.00"> +TreasureMapDestinationIslands</text>
</g>
<!-- Node21&#45;&gt;Node2 -->
<g id="edge3" class="edge"><title>Node21&#45;&gt;Node2</title>
<path fill="none" stroke="#404040" d="M526.804,-584.233C503.314,-542.683 470.036,-484.477 439.817,-434 438.246,-431.375 436.653,-428.725 435.044,-426.058"/>
<polygon fill="none" stroke="#404040" points="434.983,-425.957 428.454,-422.896 428.767,-415.692 435.297,-418.752 434.983,-425.957"/>
<text text-anchor="middle" x="556.817" y="-497.5" font-family="Helvetica,sans-Serif" font-size="10.00"> +ComponentTags</text>
</g>
<!-- Node22 -->
<g id="node5" class="node"><title>Node22</title>
<g id="a_node5"><a xlink:href="a25823.html" target="_top" xlink:title=" ">
<polygon fill="none" stroke="black" points="463.317,-237.5 463.317,-349.5 588.317,-349.5 588.317,-237.5 463.317,-237.5"/>
<text text-anchor="start" x="471.317" y="-337.5" font-family="Helvetica,sans-Serif" font-size="10.00">SDK::TArray&lt; class</text>
<text text-anchor="middle" x="525.817" y="-326.5" font-family="Helvetica,sans-Serif" font-size="10.00"> SDK::ATreasureMap * &gt;</text>
<polyline fill="none" stroke="black" points="463.317,-319.5 588.317,-319.5 "/>
<text text-anchor="middle" x="525.817" y="-307.5" font-family="Helvetica,sans-Serif" font-size="10.00"> </text>
<polyline fill="none" stroke="black" points="463.317,-300.5 588.317,-300.5 "/>
<text text-anchor="start" x="471.317" y="-288.5" font-family="Helvetica,sans-Serif" font-size="10.00">+ TArray()</text>
<text text-anchor="start" x="471.317" y="-277.5" font-family="Helvetica,sans-Serif" font-size="10.00">+ Num()</text>
<text text-anchor="start" x="471.317" y="-266.5" font-family="Helvetica,sans-Serif" font-size="10.00">+ operator[]()</text>
<text text-anchor="start" x="471.317" y="-255.5" font-family="Helvetica,sans-Serif" font-size="10.00">+ operator[]()</text>
<text text-anchor="start" x="471.317" y="-244.5" font-family="Helvetica,sans-Serif" font-size="10.00">+ IsValidIndex()</text>
</a>
</g>
</g>
<!-- Node22&#45;&gt;Node1 -->
<g id="edge5" class="edge"><title>Node22&#45;&gt;Node1</title>
<path fill="none" stroke="#404040" d="M494.765,-237.308C482.49,-216.252 467.957,-192.221 453.817,-171 432.611,-139.173 406.815,-104.628 386.601,-78.3838"/>
<polygon fill="none" stroke="#404040" points="386.493,-78.2446 379.658,-75.948 379.149,-68.7549 385.984,-71.0514 386.493,-78.2446"/>
<text text-anchor="middle" x="477.317" y="-117.5" font-family="Helvetica,sans-Serif" font-size="10.00"> +TreasureMaps</text>
</g>
<!-- Node9&#45;&gt;Node1 -->
<g id="edge6" class="edge"><title>Node9&#45;&gt;Node1</title>
<path fill="none" stroke="#404040" d="M181.853,-253.832C182.774,-208.735 190.909,-134.341 230.817,-87 240.58,-75.4185 253.399,-66.3871 267.054,-59.3604"/>
<polygon fill="none" stroke="#404040" points="267.283,-59.2525 271.01,-53.079 278.142,-54.1444 274.415,-60.318 267.283,-59.2525"/>
<text text-anchor="middle" x="289.817" y="-145" font-family="Helvetica,sans-Serif" font-size="10.00"> +XMarksTheSpotMapType</text>
<text text-anchor="middle" x="289.817" y="-134" font-family="Helvetica,sans-Serif" font-size="10.00">+MerchantMapType</text>
<text text-anchor="middle" x="289.817" y="-123" font-family="Helvetica,sans-Serif" font-size="10.00">+ContestMapType</text>
<text text-anchor="middle" x="289.817" y="-112" font-family="Helvetica,sans-Serif" font-size="10.00">+CargoRunMapType</text>
<text text-anchor="middle" x="289.817" y="-101" font-family="Helvetica,sans-Serif" font-size="10.00">+RiddleMapType</text>
<text text-anchor="middle" x="289.817" y="-90" font-family="Helvetica,sans-Serif" font-size="10.00">+BountyMapType</text>
</g>
</g>
</svg>
        <g id="navigator" transform="translate(0 0)" fill="#404254">
                <rect fill="#f2f5e9" fill-opacity="0.5" stroke="#606060" stroke-width=".5" x="0" y="0" width="60" height="60"/>
                <use id="zoomplus" xlink:href="#zoomPlus" x="17" y="9" onmousedown="handleZoom(evt,'in')"/>
                <use id="zoomminus" xlink:href="#zoomMin" x="42" y="9" onmousedown="handleZoom(evt,'out')"/>
                <use id="reset" xlink:href="#resetDef" x="30" y="36" onmousedown="handleReset()"/>
                <g id="arrowUp" xlink:href="#dirArrow" transform="translate(30 24)" onmousedown="handlePan(0,-1)">
                  <use xlink:href="#rim" fill="#404040">
                        <set attributeName="fill" to="#808080" begin="arrowUp.mouseover" end="arrowUp.mouseout"/>
                  </use>
                  <path fill="none" stroke="white" stroke-width="1.5" d="M0,-3.0v7 M-2.5,-0.5L0,-3.0L2.5,-0.5"/>
                </g>
                <g id="arrowRight" xlink:href="#dirArrow" transform="rotate(90) translate(36 -43)" onmousedown="handlePan(1,0)">
                  <use xlink:href="#rim" fill="#404040">
                        <set attributeName="fill" to="#808080" begin="arrowRight.mouseover" end="arrowRight.mouseout"/>
                  </use>
                  <path fill="none" stroke="white" stroke-width="1.5" d="M0,-3.0v7 M-2.5,-0.5L0,-3.0L2.5,-0.5"/>
                </g>
                <g id="arrowDown" xlink:href="#dirArrow" transform="rotate(180) translate(-30 -48)" onmousedown="handlePan(0,1)">
                  <use xlink:href="#rim" fill="#404040">
                        <set attributeName="fill" to="#808080" begin="arrowDown.mouseover" end="arrowDown.mouseout"/>
                  </use>
                  <path fill="none" stroke="white" stroke-width="1.5" d="M0,-3.0v7 M-2.5,-0.5L0,-3.0L2.5,-0.5"/>
                </g>
                <g id="arrowLeft" xlink:href="#dirArrow" transform="rotate(270) translate(-36 17)" onmousedown="handlePan(-1,0)">
                  <use xlink:href="#rim" fill="#404040">
                        <set attributeName="fill" to="#808080" begin="arrowLeft.mouseover" end="arrowLeft.mouseout"/>
                  </use>
                  <path fill="none" stroke="white" stroke-width="1.5" d="M0,-3.0v7 M-2.5,-0.5L0,-3.0L2.5,-0.5"/>
                </g>
        </g>
        <svg viewBox="0 0 15 15" width="100%" height="30px" preserveAspectRatio="xMaxYMin meet">
         <g id="arrow_out" transform="scale(0.3 0.3)">
          <a xlink:href="a09241_org.svg" target="_base">
           <rect id="button" ry="5" rx="5" y="6" x="6" height="38" width="38"
                fill="#f2f5e9" fill-opacity="0.5" stroke="#606060" stroke-width="1.0"/>
           <path id="arrow"
             d="M 11.500037,31.436501 C 11.940474,20.09759 22.043105,11.32322 32.158766,21.979434 L 37.068811,17.246167 C 37.068811,17.246167 37.088388,32 37.088388,32 L 22.160133,31.978069 C 22.160133,31.978069 26.997745,27.140456 26.997745,27.140456 C 18.528582,18.264221 13.291696,25.230495 11.500037,31.436501 z"
             style="fill:#404040;"/>
          </a>
         </g>
        </svg>
</svg>
