<?xml version="1.0" encoding="UTF-8" standalone="no"?>
<!DOCTYPE svg PUBLIC "-//W3C//DTD SVG 1.1//EN"
 "http://www.w3.org/Graphics/SVG/1.1/DTD/svg11.dtd">
<!-- Generated by graphviz version 2.38.0 (20140413.2041)
 -->
<!-- Title: SDK::ATutorialMap Pages: 1 -->
<svg width="114pt" height="160pt"
 viewBox="0.00 0.00 114.00 160.00" xmlns="http://www.w3.org/2000/svg" xmlns:xlink="http://www.w3.org/1999/xlink">
<g id="graph0" class="graph" transform="scale(1 1) rotate(0) translate(4 156)">
<title>SDK::ATutorialMap</title>
<!-- Node1 -->
<g id="node1" class="node"><title>Node1</title>
<g id="a_node1"><a xlink:title=" ">
<polygon fill="#bfbfbf" stroke="black" points="3,-0.5 3,-57.5 103,-57.5 103,-0.5 3,-0.5"/>
<text text-anchor="middle" x="53" y="-45.5" font-family="Helvetica,sans-Serif" font-size="10.00">SDK::ATutorialMap</text>
<polyline fill="none" stroke="black" points="3,-38.5 103,-38.5 "/>
<text text-anchor="middle" x="53" y="-26.5" font-family="Helvetica,sans-Serif" font-size="10.00"> </text>
<polyline fill="none" stroke="black" points="3,-19.5 103,-19.5 "/>
<text text-anchor="start" x="11" y="-7.5" font-family="Helvetica,sans-Serif" font-size="10.00">+ StaticClass()</text>
</a>
</g>
</g>
<!-- Node2 -->
<g id="node2" class="node"><title>Node2</title>
<g id="a_node2"><a xlink:href="a03055.html" target="_top" xlink:title=" ">
<polygon fill="none" stroke="red" points="0,-94.5 0,-151.5 106,-151.5 106,-94.5 0,-94.5"/>
<text text-anchor="middle" x="53" y="-139.5" font-family="Helvetica,sans-Serif" font-size="10.00">SDK::ATreasureMap</text>
<polyline fill="none" stroke="red" points="0,-132.5 106,-132.5 "/>
<text text-anchor="middle" x="53" y="-120.5" font-family="Helvetica,sans-Serif" font-size="10.00"> </text>
<polyline fill="none" stroke="red" points="0,-113.5 106,-113.5 "/>
<text text-anchor="start" x="8" y="-101.5" font-family="Helvetica,sans-Serif" font-size="10.00">+ StaticClass()</text>
</a>
</g>
</g>
<!-- Node2&#45;&gt;Node1 -->
<g id="edge1" class="edge"><title>Node2&#45;&gt;Node1</title>
<path fill="none" stroke="midnightblue" d="M53,-84.2092C53,-75.2929 53,-65.9513 53,-57.5836"/>
<polygon fill="none" stroke="midnightblue" points="49.5001,-84.3969 53,-94.397 56.5001,-84.397 49.5001,-84.3969"/>
</g>
</g>
</svg>
