<?xml version="1.0" encoding="UTF-8" standalone="no"?>
<!DOCTYPE svg PUBLIC "-//W3C//DTD SVG 1.1//EN"
 "http://www.w3.org/Graphics/SVG/1.1/DTD/svg11.dtd">
<!-- Generated by graphviz version 2.38.0 (20140413.2041)
 -->
<!-- Title: SDK::UVisualHealthResponseDataAsset Pages: 1 -->
<svg width="893pt" height="259pt"
 viewBox="0.00 0.00 892.50 259.00" xmlns="http://www.w3.org/2000/svg" xmlns:xlink="http://www.w3.org/1999/xlink">
<g id="graph0" class="graph" transform="scale(1 1) rotate(0) translate(4 255)">
<title>SDK::UVisualHealthResponseDataAsset</title>
<!-- Node1 -->
<g id="node1" class="node"><title>Node1</title>
<g id="a_node1"><a xlink:title=" ">
<polygon fill="#bfbfbf" stroke="black" points="327.5,-0.5 327.5,-68.5 475.5,-68.5 475.5,-0.5 327.5,-0.5"/>
<text text-anchor="start" x="335.5" y="-56.5" font-family="Helvetica,sans-Serif" font-size="10.00">SDK::UVisualHealthResponse</text>
<text text-anchor="middle" x="401.5" y="-45.5" font-family="Helvetica,sans-Serif" font-size="10.00">DataAsset</text>
<polyline fill="none" stroke="black" points="327.5,-38.5 475.5,-38.5 "/>
<text text-anchor="middle" x="401.5" y="-26.5" font-family="Helvetica,sans-Serif" font-size="10.00"> </text>
<polyline fill="none" stroke="black" points="327.5,-19.5 475.5,-19.5 "/>
<text text-anchor="start" x="335.5" y="-7.5" font-family="Helvetica,sans-Serif" font-size="10.00">+ StaticClass()</text>
</a>
</g>
</g>
<!-- Node2 -->
<g id="node2" class="node"><title>Node2</title>
<g id="a_node2"><a xlink:href="a26559.html" target="_top" xlink:title=" ">
<polygon fill="none" stroke="red" points="0,-166 0,-223 95,-223 95,-166 0,-166"/>
<text text-anchor="middle" x="47.5" y="-211" font-family="Helvetica,sans-Serif" font-size="10.00">SDK::UDataAsset</text>
<polyline fill="none" stroke="red" points="0,-204 95,-204 "/>
<text text-anchor="middle" x="47.5" y="-192" font-family="Helvetica,sans-Serif" font-size="10.00"> </text>
<polyline fill="none" stroke="red" points="0,-185 95,-185 "/>
<text text-anchor="start" x="8" y="-173" font-family="Helvetica,sans-Serif" font-size="10.00">+ StaticClass()</text>
</a>
</g>
</g>
<!-- Node2&#45;&gt;Node1 -->
<g id="edge1" class="edge"><title>Node2&#45;&gt;Node1</title>
<path fill="none" stroke="midnightblue" d="M75.7331,-157.96C96.6074,-134.162 127.108,-104.156 160.5,-87 212.637,-60.213 277.991,-47.3473 327.485,-41.1743"/>
<polygon fill="none" stroke="midnightblue" points="72.8906,-155.898 69.0328,-165.766 78.2021,-160.458 72.8906,-155.898"/>
</g>
<!-- Node4 -->
<g id="node3" class="node"><title>Node4</title>
<g id="a_node3"><a xlink:href="a25839.html" target="_top" xlink:title=" ">
<polygon fill="none" stroke="red" points="113.5,-138.5 113.5,-250.5 219.5,-250.5 219.5,-138.5 113.5,-138.5"/>
<text text-anchor="middle" x="166.5" y="-238.5" font-family="Helvetica,sans-Serif" font-size="10.00">SDK::FName</text>
<polyline fill="none" stroke="red" points="113.5,-231.5 219.5,-231.5 "/>
<text text-anchor="middle" x="166.5" y="-219.5" font-family="Helvetica,sans-Serif" font-size="10.00"> </text>
<polyline fill="none" stroke="red" points="113.5,-212.5 219.5,-212.5 "/>
<text text-anchor="start" x="121.5" y="-200.5" font-family="Helvetica,sans-Serif" font-size="10.00">+ FName()</text>
<text text-anchor="start" x="121.5" y="-189.5" font-family="Helvetica,sans-Serif" font-size="10.00">+ FName()</text>
<text text-anchor="start" x="121.5" y="-178.5" font-family="Helvetica,sans-Serif" font-size="10.00">+ FName()</text>
<text text-anchor="start" x="121.5" y="-167.5" font-family="Helvetica,sans-Serif" font-size="10.00">+ GetName()</text>
<text text-anchor="start" x="121.5" y="-156.5" font-family="Helvetica,sans-Serif" font-size="10.00">+ operator==()</text>
<text text-anchor="start" x="121.5" y="-145.5" font-family="Helvetica,sans-Serif" font-size="10.00">+ GetGlobalNames()</text>
</a>
</g>
</g>
<!-- Node4&#45;&gt;Node1 -->
<g id="edge2" class="edge"><title>Node4&#45;&gt;Node1</title>
<path fill="none" stroke="#404040" d="M160.659,-138.254C161.626,-119.986 166.181,-100.82 178.5,-87 196.781,-66.4905 260.386,-53.1109 315.013,-45.1431"/>
<polygon fill="none" stroke="#404040" points="315.346,-45.0964 320.731,-40.3008 327.229,-43.4274 321.844,-48.223 315.346,-45.0964"/>
<text text-anchor="middle" x="250" y="-112" font-family="Helvetica,sans-Serif" font-size="10.00"> +HealthPropertyName</text>
<text text-anchor="middle" x="250" y="-101" font-family="Helvetica,sans-Serif" font-size="10.00">+GatedByHealthVfxSocketName</text>
<text text-anchor="middle" x="250" y="-90" font-family="Helvetica,sans-Serif" font-size="10.00">+ItemDamagePropertyName</text>
</g>
<!-- Node14 -->
<g id="node4" class="node"><title>Node14</title>
<g id="a_node4"><a xlink:title=" ">
<polygon fill="none" stroke="#bfbfbf" points="315,-166 315,-223 350,-223 350,-166 315,-166"/>
<text text-anchor="middle" x="332.5" y="-211" font-family="Helvetica,sans-Serif" font-size="10.00">float</text>
<polyline fill="none" stroke="#bfbfbf" points="315,-204 350,-204 "/>
<text text-anchor="middle" x="332.5" y="-192" font-family="Helvetica,sans-Serif" font-size="10.00"> </text>
<polyline fill="none" stroke="#bfbfbf" points="315,-185 350,-185 "/>
<text text-anchor="middle" x="332.5" y="-173" font-family="Helvetica,sans-Serif" font-size="10.00"> </text>
</a>
</g>
</g>
<!-- Node14&#45;&gt;Node1 -->
<g id="edge3" class="edge"><title>Node14&#45;&gt;Node1</title>
<path fill="none" stroke="#404040" d="M326.319,-165.682C322.791,-143.223 321.204,-111.448 333.5,-87 335.091,-83.8372 336.977,-80.8159 339.091,-77.9375"/>
<polygon fill="none" stroke="#404040" points="339.216,-77.7925 340.102,-70.6362 347.049,-68.7023 346.163,-75.8587 339.216,-77.7925"/>
<text text-anchor="start" x="333.5" y="-106.5" font-family="Helvetica,sans-Serif" font-size="10.00"> +SignificantHealthChange</text>
<text text-anchor="middle" x="391" y="-95.5" font-family="Helvetica,sans-Serif" font-size="10.00">Normalised</text>
</g>
<!-- Node12 -->
<g id="node5" class="node"><title>Node12</title>
<g id="a_node5"><a xlink:title=" ">
<polygon fill="none" stroke="#bfbfbf" points="453,-166 453,-223 488,-223 488,-166 453,-166"/>
<text text-anchor="middle" x="470.5" y="-211" font-family="Helvetica,sans-Serif" font-size="10.00">char</text>
<polyline fill="none" stroke="#bfbfbf" points="453,-204 488,-204 "/>
<text text-anchor="middle" x="470.5" y="-192" font-family="Helvetica,sans-Serif" font-size="10.00"> </text>
<polyline fill="none" stroke="#bfbfbf" points="453,-185 488,-185 "/>
<text text-anchor="middle" x="470.5" y="-173" font-family="Helvetica,sans-Serif" font-size="10.00"> </text>
</a>
</g>
</g>
<!-- Node12&#45;&gt;Node1 -->
<g id="edge4" class="edge"><title>Node12&#45;&gt;Node1</title>
<path fill="none" stroke="#404040" d="M468.837,-165.919C466.567,-143.597 461.198,-111.891 448.5,-87 447.029,-84.1173 445.353,-81.2751 443.531,-78.4963"/>
<polygon fill="none" stroke="#404040" points="443.486,-78.4343 436.713,-75.9567 436.396,-68.7526 443.168,-71.2302 443.486,-78.4343"/>
<text text-anchor="middle" x="500.5" y="-101" font-family="Helvetica,sans-Serif" font-size="10.00"> +UnknownData00</text>
</g>
<!-- Node15 -->
<g id="node6" class="node"><title>Node15</title>
<g id="a_node6"><a xlink:title=" ">
<polygon fill="none" stroke="#bfbfbf" points="556,-166 556,-223 591,-223 591,-166 556,-166"/>
<text text-anchor="middle" x="573.5" y="-211" font-family="Helvetica,sans-Serif" font-size="10.00">bool</text>
<polyline fill="none" stroke="#bfbfbf" points="556,-204 591,-204 "/>
<text text-anchor="middle" x="573.5" y="-192" font-family="Helvetica,sans-Serif" font-size="10.00"> </text>
<polyline fill="none" stroke="#bfbfbf" points="556,-185 591,-185 "/>
<text text-anchor="middle" x="573.5" y="-173" font-family="Helvetica,sans-Serif" font-size="10.00"> </text>
</a>
</g>
</g>
<!-- Node15&#45;&gt;Node1 -->
<g id="edge5" class="edge"><title>Node15&#45;&gt;Node1</title>
<path fill="none" stroke="#404040" d="M572.813,-165.647C570.777,-141.934 564.258,-108.402 544.5,-87 529.252,-70.4832 508.316,-59.2561 487.168,-51.6272"/>
<polygon fill="none" stroke="#404040" points="487.167,-51.627 480.213,-53.5369 475.776,-47.8528 482.73,-45.9429 487.167,-51.627"/>
<text text-anchor="middle" x="643.5" y="-101" font-family="Helvetica,sans-Serif" font-size="10.00"> +GatedByHealthVfxValidUnderwater</text>
</g>
<!-- Node16 -->
<g id="node7" class="node"><title>Node16</title>
<g id="a_node7"><a xlink:href="a25823.html" target="_top" xlink:title=" ">
<polygon fill="none" stroke="black" points="704.5,-138.5 704.5,-250.5 808.5,-250.5 808.5,-138.5 704.5,-138.5"/>
<text text-anchor="start" x="712.5" y="-238.5" font-family="Helvetica,sans-Serif" font-size="10.00">SDK::TArray&lt; class</text>
<text text-anchor="middle" x="756.5" y="-227.5" font-family="Helvetica,sans-Serif" font-size="10.00"> SDK::UObject * &gt;</text>
<polyline fill="none" stroke="black" points="704.5,-220.5 808.5,-220.5 "/>
<text text-anchor="middle" x="756.5" y="-208.5" font-family="Helvetica,sans-Serif" font-size="10.00"> </text>
<polyline fill="none" stroke="black" points="704.5,-201.5 808.5,-201.5 "/>
<text text-anchor="start" x="712.5" y="-189.5" font-family="Helvetica,sans-Serif" font-size="10.00">+ TArray()</text>
<text text-anchor="start" x="712.5" y="-178.5" font-family="Helvetica,sans-Serif" font-size="10.00">+ Num()</text>
<text text-anchor="start" x="712.5" y="-167.5" font-family="Helvetica,sans-Serif" font-size="10.00">+ operator[]()</text>
<text text-anchor="start" x="712.5" y="-156.5" font-family="Helvetica,sans-Serif" font-size="10.00">+ operator[]()</text>
<text text-anchor="start" x="712.5" y="-145.5" font-family="Helvetica,sans-Serif" font-size="10.00">+ IsValidIndex()</text>
</a>
</g>
</g>
<!-- Node16&#45;&gt;Node1 -->
<g id="edge6" class="edge"><title>Node16&#45;&gt;Node1</title>
<path fill="none" stroke="#404040" d="M753.444,-138.412C749.615,-119.604 742.055,-100.046 727.5,-87 693.035,-56.1062 572.239,-43.6948 487.801,-38.7419"/>
<polygon fill="none" stroke="#404040" points="487.602,-38.731 481.389,-42.3913 475.621,-38.064 481.834,-34.4037 487.602,-38.731"/>
<text text-anchor="start" x="748.5" y="-106.5" font-family="Helvetica,sans-Serif" font-size="10.00"> +GatedByHealthVfxAscending</text>
<text text-anchor="middle" x="816.5" y="-95.5" font-family="Helvetica,sans-Serif" font-size="10.00">Order</text>
</g>
</g>
</svg>
