<?xml version="1.0" encoding="UTF-8" standalone="no"?>
<!DOCTYPE svg PUBLIC "-//W3C//DTD SVG 1.1//EN"
 "http://www.w3.org/Graphics/SVG/1.1/DTD/svg11.dtd">
<!-- Generated by graphviz version 2.38.0 (20140413.2041)
 -->
<!-- Title: SDK::UVoyageDescList Pages: 1 -->
<svg width="294pt" height="237pt"
 viewBox="0.00 0.00 294.00 237.00" xmlns="http://www.w3.org/2000/svg" xmlns:xlink="http://www.w3.org/1999/xlink">
<g id="graph0" class="graph" transform="scale(1 1) rotate(0) translate(4 233)">
<title>SDK::UVoyageDescList</title>
<!-- Node1 -->
<g id="node1" class="node"><title>Node1</title>
<g id="a_node1"><a xlink:title=" ">
<polygon fill="#bfbfbf" stroke="black" points="63,-0.5 63,-57.5 184,-57.5 184,-0.5 63,-0.5"/>
<text text-anchor="middle" x="123.5" y="-45.5" font-family="Helvetica,sans-Serif" font-size="10.00">SDK::UVoyageDescList</text>
<polyline fill="none" stroke="black" points="63,-38.5 184,-38.5 "/>
<text text-anchor="middle" x="123.5" y="-26.5" font-family="Helvetica,sans-Serif" font-size="10.00"> </text>
<polyline fill="none" stroke="black" points="63,-19.5 184,-19.5 "/>
<text text-anchor="start" x="71" y="-7.5" font-family="Helvetica,sans-Serif" font-size="10.00">+ StaticClass()</text>
</a>
</g>
</g>
<!-- Node2 -->
<g id="node2" class="node"><title>Node2</title>
<g id="a_node2"><a xlink:href="a26347.html" target="_top" xlink:title=" ">
<polygon fill="none" stroke="red" points="0,-138.5 0,-195.5 95,-195.5 95,-138.5 0,-138.5"/>
<text text-anchor="middle" x="47.5" y="-183.5" font-family="Helvetica,sans-Serif" font-size="10.00">SDK::UDataAsset</text>
<polyline fill="none" stroke="red" points="0,-176.5 95,-176.5 "/>
<text text-anchor="middle" x="47.5" y="-164.5" font-family="Helvetica,sans-Serif" font-size="10.00"> </text>
<polyline fill="none" stroke="red" points="0,-157.5 95,-157.5 "/>
<text text-anchor="start" x="8" y="-145.5" font-family="Helvetica,sans-Serif" font-size="10.00">+ StaticClass()</text>
</a>
</g>
</g>
<!-- Node2&#45;&gt;Node1 -->
<g id="edge1" class="edge"><title>Node2&#45;&gt;Node1</title>
<path fill="none" stroke="midnightblue" d="M67.8664,-129.555C80.4348,-107.064 96.3101,-78.6557 107.882,-57.9475"/>
<polygon fill="none" stroke="midnightblue" points="64.7027,-128.042 62.8797,-138.478 70.8133,-131.456 64.7027,-128.042"/>
</g>
<!-- Node14 -->
<g id="node3" class="node"><title>Node14</title>
<g id="a_node3"><a xlink:href="a25611.html" target="_top" xlink:title=" ">
<polygon fill="none" stroke="black" points="113,-105.5 113,-228.5 286,-228.5 286,-105.5 113,-105.5"/>
<text text-anchor="start" x="121" y="-216.5" font-family="Helvetica,sans-Serif" font-size="10.00">SDK::TArray&lt; SDK::TAsset</text>
<text text-anchor="start" x="121" y="-205.5" font-family="Helvetica,sans-Serif" font-size="10.00">Ptr&lt; class SDK::UVoyageDescData</text>
<text text-anchor="middle" x="199.5" y="-194.5" font-family="Helvetica,sans-Serif" font-size="10.00">Asset &gt; &gt;</text>
<polyline fill="none" stroke="black" points="113,-187.5 286,-187.5 "/>
<text text-anchor="middle" x="199.5" y="-175.5" font-family="Helvetica,sans-Serif" font-size="10.00"> </text>
<polyline fill="none" stroke="black" points="113,-168.5 286,-168.5 "/>
<text text-anchor="start" x="121" y="-156.5" font-family="Helvetica,sans-Serif" font-size="10.00">+ TArray()</text>
<text text-anchor="start" x="121" y="-145.5" font-family="Helvetica,sans-Serif" font-size="10.00">+ Num()</text>
<text text-anchor="start" x="121" y="-134.5" font-family="Helvetica,sans-Serif" font-size="10.00">+ operator[]()</text>
<text text-anchor="start" x="121" y="-123.5" font-family="Helvetica,sans-Serif" font-size="10.00">+ operator[]()</text>
<text text-anchor="start" x="121" y="-112.5" font-family="Helvetica,sans-Serif" font-size="10.00">+ IsValidIndex()</text>
</a>
</g>
</g>
<!-- Node14&#45;&gt;Node1 -->
<g id="edge2" class="edge"><title>Node14&#45;&gt;Node1</title>
<path fill="none" stroke="#404040" d="M165.501,-105.16C158.493,-92.6187 151.301,-79.7488 144.893,-68.2824"/>
<polygon fill="none" stroke="#404040" points="144.875,-68.2507 138.457,-64.9643 139.022,-57.7753 145.44,-61.0617 144.875,-68.2507"/>
<text text-anchor="middle" x="172" y="-79" font-family="Helvetica,sans-Serif" font-size="10.00"> +Tales</text>
</g>
</g>
</svg>
