<?xml version="1.0" encoding="UTF-8" standalone="no"?>
<!DOCTYPE svg PUBLIC "-//W3C//DTD SVG 1.1//EN"
 "http://www.w3.org/Graphics/SVG/1.1/DTD/svg11.dtd">
<!-- Generated by graphviz version 2.38.0 (20140413.2041)
 -->
<!-- Title: SDK::UWaitForVaultCompletionStepDesc Pages: 1 -->
<svg width="389pt" height="182pt"
 viewBox="0.00 0.00 388.50 182.00" xmlns="http://www.w3.org/2000/svg" xmlns:xlink="http://www.w3.org/1999/xlink">
<g id="graph0" class="graph" transform="scale(1 1) rotate(0) translate(4 178)">
<title>SDK::UWaitForVaultCompletionStepDesc</title>
<!-- Node1 -->
<g id="node1" class="node"><title>Node1</title>
<g id="a_node1"><a xlink:title=" ">
<polygon fill="#bfbfbf" stroke="black" points="112,-0.5 112,-68.5 267,-68.5 267,-0.5 112,-0.5"/>
<text text-anchor="start" x="120" y="-56.5" font-family="Helvetica,sans-Serif" font-size="10.00">SDK::UWaitForVaultCompletion</text>
<text text-anchor="middle" x="189.5" y="-45.5" font-family="Helvetica,sans-Serif" font-size="10.00">StepDesc</text>
<polyline fill="none" stroke="black" points="112,-38.5 267,-38.5 "/>
<text text-anchor="middle" x="189.5" y="-26.5" font-family="Helvetica,sans-Serif" font-size="10.00"> </text>
<polyline fill="none" stroke="black" points="112,-19.5 267,-19.5 "/>
<text text-anchor="start" x="120" y="-7.5" font-family="Helvetica,sans-Serif" font-size="10.00">+ StaticClass()</text>
</a>
</g>
</g>
<!-- Node2 -->
<g id="node2" class="node"><title>Node2</title>
<g id="a_node2"><a xlink:href="a34915.html" target="_top" xlink:title=" ">
<polygon fill="none" stroke="red" points="0,-116.5 0,-173.5 137,-173.5 137,-116.5 0,-116.5"/>
<text text-anchor="middle" x="68.5" y="-161.5" font-family="Helvetica,sans-Serif" font-size="10.00">SDK::UTaleQuestStepDesc</text>
<polyline fill="none" stroke="red" points="0,-154.5 137,-154.5 "/>
<text text-anchor="middle" x="68.5" y="-142.5" font-family="Helvetica,sans-Serif" font-size="10.00"> </text>
<polyline fill="none" stroke="red" points="0,-135.5 137,-135.5 "/>
<text text-anchor="start" x="8" y="-123.5" font-family="Helvetica,sans-Serif" font-size="10.00">+ StaticClass()</text>
</a>
</g>
</g>
<!-- Node2&#45;&gt;Node1 -->
<g id="edge1" class="edge"><title>Node2&#45;&gt;Node1</title>
<path fill="none" stroke="midnightblue" d="M106.809,-109.649C121.472,-96.4999 138.155,-81.5403 152.677,-68.5186"/>
<polygon fill="none" stroke="midnightblue" points="104.455,-107.058 99.3465,-116.34 109.128,-112.27 104.455,-107.058"/>
</g>
<!-- Node15 -->
<g id="node3" class="node"><title>Node15</title>
<g id="a_node3"><a xlink:href="a25647.html" target="_top" xlink:title=" ">
<polygon fill="none" stroke="red" points="155.5,-116.5 155.5,-173.5 223.5,-173.5 223.5,-116.5 155.5,-116.5"/>
<text text-anchor="middle" x="189.5" y="-161.5" font-family="Helvetica,sans-Serif" font-size="10.00">SDK::FText</text>
<polyline fill="none" stroke="red" points="155.5,-154.5 223.5,-154.5 "/>
<text text-anchor="middle" x="189.5" y="-142.5" font-family="Helvetica,sans-Serif" font-size="10.00"> </text>
<polyline fill="none" stroke="red" points="155.5,-135.5 223.5,-135.5 "/>
<text text-anchor="middle" x="189.5" y="-123.5" font-family="Helvetica,sans-Serif" font-size="10.00"> </text>
</a>
</g>
</g>
<!-- Node15&#45;&gt;Node1 -->
<g id="edge2" class="edge"><title>Node15&#45;&gt;Node1</title>
<path fill="none" stroke="#404040" d="M189.5,-116.34C189.5,-105.529 189.5,-92.847 189.5,-80.7745"/>
<polygon fill="none" stroke="#404040" points="189.5,-80.5186 185.5,-74.5186 189.5,-68.5186 193.5,-74.5185 189.5,-80.5186"/>
<text text-anchor="middle" x="240" y="-90" font-family="Helvetica,sans-Serif" font-size="10.00"> +VaultFailureMessage</text>
</g>
<!-- Node16 -->
<g id="node4" class="node"><title>Node16</title>
<g id="a_node4"><a xlink:href="a12631.html" target="_top" xlink:title=" ">
<polygon fill="none" stroke="red" points="246.5,-116.5 246.5,-173.5 380.5,-173.5 380.5,-116.5 246.5,-116.5"/>
<text text-anchor="middle" x="313.5" y="-161.5" font-family="Helvetica,sans-Serif" font-size="10.00">SDK::FQuestVariableActor</text>
<polyline fill="none" stroke="red" points="246.5,-154.5 380.5,-154.5 "/>
<text text-anchor="middle" x="313.5" y="-142.5" font-family="Helvetica,sans-Serif" font-size="10.00"> </text>
<polyline fill="none" stroke="red" points="246.5,-135.5 380.5,-135.5 "/>
<text text-anchor="middle" x="313.5" y="-123.5" font-family="Helvetica,sans-Serif" font-size="10.00"> </text>
</a>
</g>
</g>
<!-- Node16&#45;&gt;Node1 -->
<g id="edge3" class="edge"><title>Node16&#45;&gt;Node1</title>
<path fill="none" stroke="#404040" d="M307.273,-116.227C303.923,-106.118 298.904,-95.1777 291.5,-87 287.24,-82.2954 282.453,-77.9623 277.335,-73.9815"/>
<polygon fill="none" stroke="#404040" points="276.929,-73.694 269.721,-73.488 267.139,-66.755 274.347,-66.9611 276.929,-73.694"/>
<text text-anchor="middle" x="315.5" y="-90" font-family="Helvetica,sans-Serif" font-size="10.00"> +Vault</text>
</g>
</g>
</svg>
