<?xml version="1.0" encoding="UTF-8" standalone="no"?>
<!DOCTYPE svg PUBLIC "-//W3C//DTD SVG 1.1//EN"
 "http://www.w3.org/Graphics/SVG/1.1/DTD/svg11.dtd">
<!-- Generated by graphviz version 2.38.0 (20140413.2041)
 -->
<!-- Title: SDK::ATreasureChestItemInfo Pages: 1 -->
<svg width="245pt" height="332pt"
 viewBox="0.00 0.00 244.50 332.00" xmlns="http://www.w3.org/2000/svg" xmlns:xlink="http://www.w3.org/1999/xlink">
<g id="graph0" class="graph" transform="scale(1 1) rotate(0) translate(4 328)">
<title>SDK::ATreasureChestItemInfo</title>
<!-- Node1 -->
<g id="node1" class="node"><title>Node1</title>
<g id="a_node1"><a xlink:title=" ">
<polygon fill="#bfbfbf" stroke="black" points="0,-0.5 0,-57.5 146,-57.5 146,-0.5 0,-0.5"/>
<text text-anchor="middle" x="73" y="-45.5" font-family="Helvetica,sans-Serif" font-size="10.00">SDK::ATreasureChestItemInfo</text>
<polyline fill="none" stroke="black" points="0,-38.5 146,-38.5 "/>
<text text-anchor="middle" x="73" y="-26.5" font-family="Helvetica,sans-Serif" font-size="10.00"> </text>
<polyline fill="none" stroke="black" points="0,-19.5 146,-19.5 "/>
<text text-anchor="start" x="8" y="-7.5" font-family="Helvetica,sans-Serif" font-size="10.00">+ StaticClass()</text>
</a>
</g>
</g>
<!-- Node2 -->
<g id="node2" class="node"><title>Node2</title>
<g id="a_node2"><a xlink:href="a03155.html" target="_top" xlink:title=" ">
<polygon fill="none" stroke="red" points="127.5,-95.5 127.5,-152.5 236.5,-152.5 236.5,-95.5 127.5,-95.5"/>
<text text-anchor="middle" x="182" y="-140.5" font-family="Helvetica,sans-Serif" font-size="10.00">SDK::ABootyItemInfo</text>
<polyline fill="none" stroke="red" points="127.5,-133.5 236.5,-133.5 "/>
<text text-anchor="middle" x="182" y="-121.5" font-family="Helvetica,sans-Serif" font-size="10.00"> </text>
<polyline fill="none" stroke="red" points="127.5,-114.5 236.5,-114.5 "/>
<text text-anchor="start" x="135.5" y="-102.5" font-family="Helvetica,sans-Serif" font-size="10.00">+ StaticClass()</text>
</a>
</g>
</g>
<!-- Node2&#45;&gt;Node1 -->
<g id="edge1" class="edge"><title>Node2&#45;&gt;Node1</title>
<path fill="none" stroke="midnightblue" d="M141.884,-88.7725C129.895,-78.5434 116.906,-67.4609 105.472,-57.7053"/>
<polygon fill="none" stroke="midnightblue" points="139.712,-91.5206 149.592,-95.3487 144.256,-86.1955 139.712,-91.5206"/>
</g>
<!-- Node15 -->
<g id="node3" class="node"><title>Node15</title>
<g id="a_node3"><a xlink:title=" ">
<polygon fill="none" stroke="#bfbfbf" points="57.5,-266.5 57.5,-323.5 92.5,-323.5 92.5,-266.5 57.5,-266.5"/>
<text text-anchor="middle" x="75" y="-311.5" font-family="Helvetica,sans-Serif" font-size="10.00">char</text>
<polyline fill="none" stroke="#bfbfbf" points="57.5,-304.5 92.5,-304.5 "/>
<text text-anchor="middle" x="75" y="-292.5" font-family="Helvetica,sans-Serif" font-size="10.00"> </text>
<polyline fill="none" stroke="#bfbfbf" points="57.5,-285.5 92.5,-285.5 "/>
<text text-anchor="middle" x="75" y="-273.5" font-family="Helvetica,sans-Serif" font-size="10.00"> </text>
</a>
</g>
</g>
<!-- Node15&#45;&gt;Node1 -->
<g id="edge3" class="edge"><title>Node15&#45;&gt;Node1</title>
<path fill="none" stroke="#404040" d="M62.7257,-266.412C47.1861,-227.784 24.1279,-155.519 39,-95 41.2189,-85.9709 44.9374,-76.8052 49.1198,-68.3152"/>
<polygon fill="none" stroke="#404040" points="49.1743,-68.2124 48.4526,-61.0374 54.798,-57.6117 55.5197,-64.7866 49.1743,-68.2124"/>
<text text-anchor="middle" x="79" y="-121.5" font-family="Helvetica,sans-Serif" font-size="10.00"> +UnknownData00</text>
</g>
<!-- Node15&#45;&gt;Node2 -->
<g id="edge2" class="edge"><title>Node15&#45;&gt;Node2</title>
<path fill="none" stroke="#404040" d="M92.4295,-266.471C110.306,-238.236 138.24,-194.117 158.157,-162.659"/>
<polygon fill="none" stroke="#404040" points="158.159,-162.656 157.989,-155.447 164.578,-152.517 164.748,-159.726 158.159,-162.656"/>
<text text-anchor="middle" x="190" y="-240" font-family="Helvetica,sans-Serif" font-size="10.00"> +UnknownData01</text>
<text text-anchor="middle" x="190" y="-229" font-family="Helvetica,sans-Serif" font-size="10.00">+UnknownData02</text>
<text text-anchor="middle" x="190" y="-218" font-family="Helvetica,sans-Serif" font-size="10.00">+UnknownData03</text>
<text text-anchor="middle" x="190" y="-207" font-family="Helvetica,sans-Serif" font-size="10.00">+UnknownData04</text>
<text text-anchor="middle" x="190" y="-196" font-family="Helvetica,sans-Serif" font-size="10.00">+UnknownData05</text>
<text text-anchor="middle" x="190" y="-185" font-family="Helvetica,sans-Serif" font-size="10.00">+UnknownData06</text>
<text text-anchor="middle" x="190" y="-174" font-family="Helvetica,sans-Serif" font-size="10.00">+UnknownData00</text>
</g>
</g>
</svg>
