<?xml version="1.0" encoding="UTF-8" standalone="no"?>
<!DOCTYPE svg PUBLIC "-//W3C//DTD SVG 1.1//EN"
 "http://www.w3.org/Graphics/SVG/1.1/DTD/svg11.dtd">
<!-- Generated by graphviz version 2.38.0 (20140413.2041)
 -->
<!-- Title: SDK::UWetnessComponent Pages: 1 -->
<!--zoomable 639 -->
<svg id="main" version="1.1" xmlns="http://www.w3.org/2000/svg" xmlns:xlink="http://www.w3.org/1999/xlink" xml:space="preserve" onload="init(evt)">
<style type="text/css"><![CDATA[
.edge:hover path { stroke: red; }
.edge:hover polygon { stroke: red; fill: red; }
]]></style>
<script type="text/javascript"><![CDATA[
var edges = document.getElementsByTagName('g');
if (edges && edges.length) {
  for (var i=0;i<edges.length;i++) {
    if (edges[i].id.substr(0,4)=='edge') {
      edges[i].setAttribute('class','edge');
    }
  }
}
]]></script>
        <defs>
                <circle id="rim" cx="0" cy="0" r="7"/>
                <circle id="rim2" cx="0" cy="0" r="3.5"/>
                <g id="zoomPlus">
                        <use xlink:href="#rim" fill="#404040">
                                <set attributeName="fill" to="#808080" begin="zoomplus.mouseover" end="zoomplus.mouseout"/>
                        </use>
                        <path d="M-4,0h8M0,-4v8" fill="none" stroke="white" stroke-width="1.5" pointer-events="none"/>
                </g>
                <g id="zoomMin">
                        <use xlink:href="#rim" fill="#404040">
                                <set attributeName="fill" to="#808080" begin="zoomminus.mouseover" end="zoomminus.mouseout"/>
                        </use>
                        <path d="M-4,0h8" fill="none" stroke="white" stroke-width="1.5" pointer-events="none"/>
                </g>
                <g id="dirArrow">
                        <path fill="none" stroke="white" stroke-width="1.5" d="M0,-3.0v7 M-2.5,-0.5L0,-3.0L2.5,-0.5"/>
                </g>
               <g id="resetDef">
                       <use xlink:href="#rim2" fill="#404040">
                               <set attributeName="fill" to="#808080" begin="reset.mouseover" end="reset.mouseout"/>
                       </use>
               </g>
        </defs>

<script type="text/javascript">
var viewWidth = 727;
var viewHeight = 639;
var sectionId = 'dynsection-1';
</script>
<script xlink:href="svgpan.js"/>
<svg id="graph" class="graph">
<g id="viewport">
<title>SDK::UWetnessComponent</title>
<!-- Node1 -->
<g id="node1" class="node"><title>Node1</title>
<g id="a_node1"><a xlink:title=" ">
<polygon fill="#bfbfbf" stroke="black" points="282.843,-0.5 282.843,-90.5 420.843,-90.5 420.843,-0.5 282.843,-0.5"/>
<text text-anchor="middle" x="351.843" y="-78.5" font-family="Helvetica,sans-Serif" font-size="10.00">SDK::UWetnessComponent</text>
<polyline fill="none" stroke="black" points="282.843,-71.5 420.843,-71.5 "/>
<text text-anchor="middle" x="351.843" y="-59.5" font-family="Helvetica,sans-Serif" font-size="10.00"> </text>
<polyline fill="none" stroke="black" points="282.843,-52.5 420.843,-52.5 "/>
<text text-anchor="start" x="290.843" y="-40.5" font-family="Helvetica,sans-Serif" font-size="10.00">+ SetWet()</text>
<text text-anchor="start" x="290.843" y="-29.5" font-family="Helvetica,sans-Serif" font-size="10.00">+ OnRep_WetData()</text>
<text text-anchor="start" x="290.843" y="-18.5" font-family="Helvetica,sans-Serif" font-size="10.00">+ GetWet()</text>
<text text-anchor="start" x="290.843" y="-7.5" font-family="Helvetica,sans-Serif" font-size="10.00">+ StaticClass()</text>
</a>
</g>
</g>
<!-- Node2 -->
<g id="node2" class="node"><title>Node2</title>
<g id="a_node2"><a xlink:href="a26551.html" target="_top" xlink:title=" ">
<polygon fill="none" stroke="red" points="130.343,-160.5 130.343,-404.5 315.343,-404.5 315.343,-160.5 130.343,-160.5"/>
<text text-anchor="middle" x="222.843" y="-392.5" font-family="Helvetica,sans-Serif" font-size="10.00">SDK::UActorComponent</text>
<polyline fill="none" stroke="red" points="130.343,-385.5 315.343,-385.5 "/>
<text text-anchor="start" x="138.343" y="-373.5" font-family="Helvetica,sans-Serif" font-size="10.00">+ UnknownData00</text>
<text text-anchor="start" x="138.343" y="-362.5" font-family="Helvetica,sans-Serif" font-size="10.00">+ bReplicates</text>
<text text-anchor="start" x="138.343" y="-351.5" font-family="Helvetica,sans-Serif" font-size="10.00">+ bNetAddressable</text>
<text text-anchor="start" x="138.343" y="-340.5" font-family="Helvetica,sans-Serif" font-size="10.00">+ bInstanceComponent</text>
<text text-anchor="start" x="138.343" y="-329.5" font-family="Helvetica,sans-Serif" font-size="10.00">+ bAutoActivate</text>
<text text-anchor="start" x="138.343" y="-318.5" font-family="Helvetica,sans-Serif" font-size="10.00">+ bIsActive</text>
<text text-anchor="start" x="138.343" y="-307.5" font-family="Helvetica,sans-Serif" font-size="10.00">+ bNeedsLoadForServer</text>
<polyline fill="none" stroke="red" points="130.343,-300.5 315.343,-300.5 "/>
<text text-anchor="start" x="138.343" y="-288.5" font-family="Helvetica,sans-Serif" font-size="10.00">+ ToggleActive()</text>
<text text-anchor="start" x="138.343" y="-277.5" font-family="Helvetica,sans-Serif" font-size="10.00">+ SetTickGroup()</text>
<text text-anchor="start" x="138.343" y="-266.5" font-family="Helvetica,sans-Serif" font-size="10.00">+ SetTickableWhenPaused()</text>
<text text-anchor="start" x="138.343" y="-255.5" font-family="Helvetica,sans-Serif" font-size="10.00">+ SetIsReplicated()</text>
<text text-anchor="start" x="138.343" y="-244.5" font-family="Helvetica,sans-Serif" font-size="10.00">+ SetComponentTickEnabled()</text>
<text text-anchor="start" x="138.343" y="-233.5" font-family="Helvetica,sans-Serif" font-size="10.00">+ SetActive()</text>
<text text-anchor="start" x="138.343" y="-222.5" font-family="Helvetica,sans-Serif" font-size="10.00">+ RemoveTickPrerequisiteComponent()</text>
<text text-anchor="start" x="138.343" y="-211.5" font-family="Helvetica,sans-Serif" font-size="10.00">+ RemoveTickPrerequisiteActor()</text>
<text text-anchor="start" x="138.343" y="-200.5" font-family="Helvetica,sans-Serif" font-size="10.00">+ ReceiveTick()</text>
<text text-anchor="start" x="138.343" y="-189.5" font-family="Helvetica,sans-Serif" font-size="10.00">+ ReceiveEndPlay()</text>
<text text-anchor="start" x="138.343" y="-178.5" font-family="Helvetica,sans-Serif" font-size="10.00">and 12 more...</text>
<text text-anchor="start" x="138.343" y="-167.5" font-family="Helvetica,sans-Serif" font-size="10.00">+ StaticClass()</text>
</a>
</g>
</g>
<!-- Node2&#45;&gt;Node1 -->
<g id="edge1" class="edge"><title>Node2&#45;&gt;Node1</title>
<path fill="none" stroke="midnightblue" d="M294.38,-151.181C306.342,-129.389 317.978,-108.193 327.614,-90.6381"/>
<polygon fill="none" stroke="midnightblue" points="291.166,-149.764 289.422,-160.214 297.302,-153.132 291.166,-149.764"/>
</g>
<!-- Node12 -->
<g id="node3" class="node"><title>Node12</title>
<g id="a_node3"><a xlink:title=" ">
<polygon fill="none" stroke="#bfbfbf" points="70.3433,-573.5 70.3433,-630.5 105.343,-630.5 105.343,-573.5 70.3433,-573.5"/>
<text text-anchor="middle" x="87.8433" y="-618.5" font-family="Helvetica,sans-Serif" font-size="10.00">char</text>
<polyline fill="none" stroke="#bfbfbf" points="70.3433,-611.5 105.343,-611.5 "/>
<text text-anchor="middle" x="87.8433" y="-599.5" font-family="Helvetica,sans-Serif" font-size="10.00"> </text>
<polyline fill="none" stroke="#bfbfbf" points="70.3433,-592.5 105.343,-592.5 "/>
<text text-anchor="middle" x="87.8433" y="-580.5" font-family="Helvetica,sans-Serif" font-size="10.00"> </text>
</a>
</g>
</g>
<!-- Node12&#45;&gt;Node1 -->
<g id="edge5" class="edge"><title>Node12&#45;&gt;Node1</title>
<path fill="none" stroke="#404040" d="M73.4281,-573.339C36.8095,-498.833 -50.6282,-290.755 40.8433,-160 92.4166,-86.2777 197.2,-60.2762 270.838,-51.2003"/>
<polygon fill="none" stroke="#404040" points="270.908,-51.1923 276.418,-46.54 282.832,-49.8365 277.322,-54.4888 270.908,-51.1923"/>
<text text-anchor="middle" x="80.8433" y="-280" font-family="Helvetica,sans-Serif" font-size="10.00"> +UnknownData00</text>
</g>
<!-- Node12&#45;&gt;Node2 -->
<g id="edge2" class="edge"><title>Node12&#45;&gt;Node2</title>
<path fill="none" stroke="#404040" d="M99.5875,-573.379C114.594,-538.087 141.616,-474.534 166.543,-415.91"/>
<polygon fill="none" stroke="#404040" points="166.637,-415.689 165.304,-408.602 171.332,-404.646 172.666,-411.733 166.637,-415.689"/>
<text text-anchor="middle" x="219.843" y="-547" font-family="Helvetica,sans-Serif" font-size="10.00"> +UnknownData01</text>
<text text-anchor="middle" x="219.843" y="-536" font-family="Helvetica,sans-Serif" font-size="10.00">+UnknownData02</text>
<text text-anchor="middle" x="219.843" y="-525" font-family="Helvetica,sans-Serif" font-size="10.00">+UnknownData03</text>
<text text-anchor="middle" x="219.843" y="-514" font-family="Helvetica,sans-Serif" font-size="10.00">+UnknownData04</text>
<text text-anchor="middle" x="219.843" y="-503" font-family="Helvetica,sans-Serif" font-size="10.00">+UnknownData05</text>
<text text-anchor="start" x="163.843" y="-492" font-family="Helvetica,sans-Serif" font-size="10.00">+bCreatedByConstruction</text>
<text text-anchor="middle" x="219.843" y="-481" font-family="Helvetica,sans-Serif" font-size="10.00">Script</text>
<text text-anchor="middle" x="219.843" y="-470" font-family="Helvetica,sans-Serif" font-size="10.00">+UnknownData06</text>
<text text-anchor="middle" x="219.843" y="-459" font-family="Helvetica,sans-Serif" font-size="10.00">+UnknownData07</text>
<text text-anchor="middle" x="219.843" y="-448" font-family="Helvetica,sans-Serif" font-size="10.00">+bEditableWhenInherited</text>
<text text-anchor="middle" x="219.843" y="-437" font-family="Helvetica,sans-Serif" font-size="10.00">+bNeedsLoadForClient</text>
<text text-anchor="middle" x="219.843" y="-426" font-family="Helvetica,sans-Serif" font-size="10.00">...</text>
</g>
<!-- Node22 -->
<g id="node4" class="node"><title>Node22</title>
<g id="a_node4"><a xlink:href="a26287.html" target="_top" xlink:title=" ">
<polygon fill="none" stroke="black" points="443.343,-210 443.343,-355 522.343,-355 522.343,-210 443.343,-210"/>
<text text-anchor="middle" x="482.843" y="-343" font-family="Helvetica,sans-Serif" font-size="10.00">SDK::FVector</text>
<polyline fill="none" stroke="black" points="443.343,-336 522.343,-336 "/>
<text text-anchor="middle" x="482.843" y="-324" font-family="Helvetica,sans-Serif" font-size="10.00"> </text>
<polyline fill="none" stroke="black" points="443.343,-317 522.343,-317 "/>
<text text-anchor="start" x="451.343" y="-305" font-family="Helvetica,sans-Serif" font-size="10.00">+ FVector()</text>
<text text-anchor="start" x="451.343" y="-294" font-family="Helvetica,sans-Serif" font-size="10.00">+ FVector()</text>
<text text-anchor="start" x="451.343" y="-283" font-family="Helvetica,sans-Serif" font-size="10.00">+ operator+()</text>
<text text-anchor="start" x="451.343" y="-272" font-family="Helvetica,sans-Serif" font-size="10.00">+ operator&#45;()</text>
<text text-anchor="start" x="451.343" y="-261" font-family="Helvetica,sans-Serif" font-size="10.00">+ operator*()</text>
<text text-anchor="start" x="451.343" y="-250" font-family="Helvetica,sans-Serif" font-size="10.00">+ operator=()</text>
<text text-anchor="start" x="451.343" y="-239" font-family="Helvetica,sans-Serif" font-size="10.00">+ operator+=()</text>
<text text-anchor="start" x="451.343" y="-228" font-family="Helvetica,sans-Serif" font-size="10.00">+ operator&#45;=()</text>
<text text-anchor="start" x="451.343" y="-217" font-family="Helvetica,sans-Serif" font-size="10.00">+ operator*=()</text>
</a>
</g>
</g>
<!-- Node22&#45;&gt;Node1 -->
<g id="edge3" class="edge"><title>Node22&#45;&gt;Node1</title>
<path fill="none" stroke="#404040" d="M453.511,-209.792C446.017,-193.166 437.588,-175.739 428.843,-160 417.719,-139.979 404.084,-118.98 391.395,-100.564"/>
<polygon fill="none" stroke="#404040" points="391.327,-100.466 384.614,-97.831 384.465,-90.6214 391.177,-93.2565 391.327,-100.466"/>
<text text-anchor="middle" x="454.343" y="-134" font-family="Helvetica,sans-Serif" font-size="10.00"> +MinWaterLevel</text>
<text text-anchor="middle" x="454.343" y="-123" font-family="Helvetica,sans-Serif" font-size="10.00">+Rep_WetData</text>
<text text-anchor="middle" x="454.343" y="-112" font-family="Helvetica,sans-Serif" font-size="10.00">+MaxWaterLevel</text>
</g>
<!-- Node18 -->
<g id="node5" class="node"><title>Node18</title>
<g id="a_node5"><a xlink:title=" ">
<polygon fill="none" stroke="#bfbfbf" points="375.343,-573.5 375.343,-630.5 410.343,-630.5 410.343,-573.5 375.343,-573.5"/>
<text text-anchor="middle" x="392.843" y="-618.5" font-family="Helvetica,sans-Serif" font-size="10.00">float</text>
<polyline fill="none" stroke="#bfbfbf" points="375.343,-611.5 410.343,-611.5 "/>
<text text-anchor="middle" x="392.843" y="-599.5" font-family="Helvetica,sans-Serif" font-size="10.00"> </text>
<polyline fill="none" stroke="#bfbfbf" points="375.343,-592.5 410.343,-592.5 "/>
<text text-anchor="middle" x="392.843" y="-580.5" font-family="Helvetica,sans-Serif" font-size="10.00"> </text>
</a>
</g>
</g>
<!-- Node18&#45;&gt;Node1 -->
<g id="edge6" class="edge"><title>Node18&#45;&gt;Node1</title>
<path fill="none" stroke="#404040" d="M387.081,-573.241C379.508,-535.401 366.507,-465.417 360.843,-405 350.867,-298.573 350.224,-173.648 350.883,-102.908"/>
<polygon fill="none" stroke="#404040" points="350.884,-102.767 346.949,-96.7243 351.014,-90.7678 354.949,-96.8106 350.884,-102.767"/>
<text text-anchor="middle" x="397.343" y="-296.5" font-family="Helvetica,sans-Serif" font-size="10.00"> +DryingTime</text>
<text text-anchor="middle" x="397.343" y="-285.5" font-family="Helvetica,sans-Serif" font-size="10.00">+WaterLevel</text>
<text text-anchor="middle" x="397.343" y="-274.5" font-family="Helvetica,sans-Serif" font-size="10.00">+LastWetTime</text>
<text text-anchor="middle" x="397.343" y="-263.5" font-family="Helvetica,sans-Serif" font-size="10.00">+LastWaterLevel</text>
</g>
<!-- Node18&#45;&gt;Node22 -->
<g id="edge4" class="edge"><title>Node18&#45;&gt;Node22</title>
<path fill="none" stroke="#404040" d="M400.673,-573.379C413.589,-527.812 439.861,-435.133 459.236,-366.781"/>
<polygon fill="none" stroke="#404040" points="459.253,-366.721 457.041,-359.858 462.526,-355.176 464.738,-362.04 459.253,-366.721"/>
<text text-anchor="middle" x="451.343" y="-497.5" font-family="Helvetica,sans-Serif" font-size="10.00"> +X</text>
<text text-anchor="middle" x="451.343" y="-486.5" font-family="Helvetica,sans-Serif" font-size="10.00">+Y</text>
<text text-anchor="middle" x="451.343" y="-475.5" font-family="Helvetica,sans-Serif" font-size="10.00">+Z</text>
</g>
<!-- Node23 -->
<g id="node6" class="node"><title>Node23</title>
<g id="a_node6"><a xlink:href="a25823.html" target="_top" xlink:title=" ">
<polygon fill="none" stroke="black" points="540.843,-226.5 540.843,-338.5 718.843,-338.5 718.843,-226.5 540.843,-226.5"/>
<text text-anchor="start" x="548.843" y="-326.5" font-family="Helvetica,sans-Serif" font-size="10.00">SDK::TArray&lt; class</text>
<text text-anchor="middle" x="629.843" y="-315.5" font-family="Helvetica,sans-Serif" font-size="10.00"> SDK::UMaterialInstanceDynamic * &gt;</text>
<polyline fill="none" stroke="black" points="540.843,-308.5 718.843,-308.5 "/>
<text text-anchor="middle" x="629.843" y="-296.5" font-family="Helvetica,sans-Serif" font-size="10.00"> </text>
<polyline fill="none" stroke="black" points="540.843,-289.5 718.843,-289.5 "/>
<text text-anchor="start" x="548.843" y="-277.5" font-family="Helvetica,sans-Serif" font-size="10.00">+ TArray()</text>
<text text-anchor="start" x="548.843" y="-266.5" font-family="Helvetica,sans-Serif" font-size="10.00">+ Num()</text>
<text text-anchor="start" x="548.843" y="-255.5" font-family="Helvetica,sans-Serif" font-size="10.00">+ operator[]()</text>
<text text-anchor="start" x="548.843" y="-244.5" font-family="Helvetica,sans-Serif" font-size="10.00">+ operator[]()</text>
<text text-anchor="start" x="548.843" y="-233.5" font-family="Helvetica,sans-Serif" font-size="10.00">+ IsValidIndex()</text>
</a>
</g>
</g>
<!-- Node23&#45;&gt;Node1 -->
<g id="edge7" class="edge"><title>Node23&#45;&gt;Node1</title>
<path fill="none" stroke="#404040" d="M596.939,-226.232C572.571,-189.111 536.472,-141.268 494.843,-109 476.243,-94.5823 453.803,-82.7532 432.269,-73.416"/>
<polygon fill="none" stroke="#404040" points="432.19,-73.383 425.112,-74.7626 421.116,-68.7598 428.194,-67.3802 432.19,-73.383"/>
<text text-anchor="middle" x="574.843" y="-123" font-family="Helvetica,sans-Serif" font-size="10.00"> +DynamicMaterials</text>
</g>
</g>
</svg>
        <g id="navigator" transform="translate(0 0)" fill="#404254">
                <rect fill="#f2f5e9" fill-opacity="0.5" stroke="#606060" stroke-width=".5" x="0" y="0" width="60" height="60"/>
                <use id="zoomplus" xlink:href="#zoomPlus" x="17" y="9" onmousedown="handleZoom(evt,'in')"/>
                <use id="zoomminus" xlink:href="#zoomMin" x="42" y="9" onmousedown="handleZoom(evt,'out')"/>
                <use id="reset" xlink:href="#resetDef" x="30" y="36" onmousedown="handleReset()"/>
                <g id="arrowUp" xlink:href="#dirArrow" transform="translate(30 24)" onmousedown="handlePan(0,-1)">
                  <use xlink:href="#rim" fill="#404040">
                        <set attributeName="fill" to="#808080" begin="arrowUp.mouseover" end="arrowUp.mouseout"/>
                  </use>
                  <path fill="none" stroke="white" stroke-width="1.5" d="M0,-3.0v7 M-2.5,-0.5L0,-3.0L2.5,-0.5"/>
                </g>
                <g id="arrowRight" xlink:href="#dirArrow" transform="rotate(90) translate(36 -43)" onmousedown="handlePan(1,0)">
                  <use xlink:href="#rim" fill="#404040">
                        <set attributeName="fill" to="#808080" begin="arrowRight.mouseover" end="arrowRight.mouseout"/>
                  </use>
                  <path fill="none" stroke="white" stroke-width="1.5" d="M0,-3.0v7 M-2.5,-0.5L0,-3.0L2.5,-0.5"/>
                </g>
                <g id="arrowDown" xlink:href="#dirArrow" transform="rotate(180) translate(-30 -48)" onmousedown="handlePan(0,1)">
                  <use xlink:href="#rim" fill="#404040">
                        <set attributeName="fill" to="#808080" begin="arrowDown.mouseover" end="arrowDown.mouseout"/>
                  </use>
                  <path fill="none" stroke="white" stroke-width="1.5" d="M0,-3.0v7 M-2.5,-0.5L0,-3.0L2.5,-0.5"/>
                </g>
                <g id="arrowLeft" xlink:href="#dirArrow" transform="rotate(270) translate(-36 17)" onmousedown="handlePan(-1,0)">
                  <use xlink:href="#rim" fill="#404040">
                        <set attributeName="fill" to="#808080" begin="arrowLeft.mouseover" end="arrowLeft.mouseout"/>
                  </use>
                  <path fill="none" stroke="white" stroke-width="1.5" d="M0,-3.0v7 M-2.5,-0.5L0,-3.0L2.5,-0.5"/>
                </g>
        </g>
        <svg viewBox="0 0 15 15" width="100%" height="30px" preserveAspectRatio="xMaxYMin meet">
         <g id="arrow_out" transform="scale(0.3 0.3)">
          <a xlink:href="a09609_org.svg" target="_base">
           <rect id="button" ry="5" rx="5" y="6" x="6" height="38" width="38"
                fill="#f2f5e9" fill-opacity="0.5" stroke="#606060" stroke-width="1.0"/>
           <path id="arrow"
             d="M 11.500037,31.436501 C 11.940474,20.09759 22.043105,11.32322 32.158766,21.979434 L 37.068811,17.246167 C 37.068811,17.246167 37.088388,32 37.088388,32 L 22.160133,31.978069 C 22.160133,31.978069 26.997745,27.140456 26.997745,27.140456 C 18.528582,18.264221 13.291696,25.230495 11.500037,31.436501 z"
             style="fill:#404040;"/>
          </a>
         </g>
        </svg>
</svg>
