<?xml version="1.0" encoding="UTF-8" standalone="no"?>
<!DOCTYPE svg PUBLIC "-//W3C//DTD SVG 1.1//EN"
 "http://www.w3.org/Graphics/SVG/1.1/DTD/svg11.dtd">
<!-- Generated by graphviz version 2.38.0 (20140413.2041)
 -->
<!-- Title: SDK::UCharacterHitReactionDamagerTypeToAnimTypeLayer Pages: 1 -->
<svg width="383pt" height="281pt"
 viewBox="0.00 0.00 383.00 281.00" xmlns="http://www.w3.org/2000/svg" xmlns:xlink="http://www.w3.org/1999/xlink">
<g id="graph0" class="graph" transform="scale(1 1) rotate(0) translate(4 277)">
<title>SDK::UCharacterHitReactionDamagerTypeToAnimTypeLayer</title>
<!-- Node1 -->
<g id="node1" class="node"><title>Node1</title>
<g id="a_node1"><a xlink:title=" ">
<polygon fill="#bfbfbf" stroke="black" points="131.5,-0.5 131.5,-68.5 286.5,-68.5 286.5,-0.5 131.5,-0.5"/>
<text text-anchor="start" x="139.5" y="-56.5" font-family="Helvetica,sans-Serif" font-size="10.00">SDK::UCharacterHitReaction</text>
<text text-anchor="middle" x="209" y="-45.5" font-family="Helvetica,sans-Serif" font-size="10.00">DamagerTypeToAnimTypeLayer</text>
<polyline fill="none" stroke="black" points="131.5,-38.5 286.5,-38.5 "/>
<text text-anchor="middle" x="209" y="-26.5" font-family="Helvetica,sans-Serif" font-size="10.00"> </text>
<polyline fill="none" stroke="black" points="131.5,-19.5 286.5,-19.5 "/>
<text text-anchor="start" x="139.5" y="-7.5" font-family="Helvetica,sans-Serif" font-size="10.00">+ StaticClass()</text>
</a>
</g>
</g>
<!-- Node2 -->
<g id="node2" class="node"><title>Node2</title>
<g id="a_node2"><a xlink:href="a26095.html" target="_top" xlink:title=" ">
<polygon fill="none" stroke="red" points="0,-116.5 0,-272.5 112,-272.5 112,-116.5 0,-116.5"/>
<text text-anchor="middle" x="56" y="-260.5" font-family="Helvetica,sans-Serif" font-size="10.00">SDK::UObject</text>
<polyline fill="none" stroke="red" points="0,-253.5 112,-253.5 "/>
<text text-anchor="middle" x="56" y="-241.5" font-family="Helvetica,sans-Serif" font-size="10.00"> </text>
<polyline fill="none" stroke="red" points="0,-234.5 112,-234.5 "/>
<text text-anchor="start" x="8" y="-222.5" font-family="Helvetica,sans-Serif" font-size="10.00">+ GetName()</text>
<text text-anchor="start" x="8" y="-211.5" font-family="Helvetica,sans-Serif" font-size="10.00">+ GetFullName()</text>
<text text-anchor="start" x="8" y="-200.5" font-family="Helvetica,sans-Serif" font-size="10.00">+ IsA()</text>
<text text-anchor="start" x="8" y="-189.5" font-family="Helvetica,sans-Serif" font-size="10.00">+ ProcessEvent()</text>
<text text-anchor="start" x="8" y="-178.5" font-family="Helvetica,sans-Serif" font-size="10.00">+ ExecuteUbergraph()</text>
<text text-anchor="start" x="8" y="-167.5" font-family="Helvetica,sans-Serif" font-size="10.00">+ StaticClass()</text>
<text text-anchor="start" x="8" y="-156.5" font-family="Helvetica,sans-Serif" font-size="10.00">+ GetGlobalObjects()</text>
<text text-anchor="start" x="8" y="-145.5" font-family="Helvetica,sans-Serif" font-size="10.00">+ FindObject()</text>
<text text-anchor="start" x="8" y="-134.5" font-family="Helvetica,sans-Serif" font-size="10.00">+ FindClass()</text>
<text text-anchor="start" x="8" y="-123.5" font-family="Helvetica,sans-Serif" font-size="10.00">+ GetObjectCasted()</text>
</a>
</g>
</g>
<!-- Node2&#45;&gt;Node1 -->
<g id="edge1" class="edge"><title>Node2&#45;&gt;Node1</title>
<path fill="none" stroke="midnightblue" d="M119.081,-128.357C138.985,-107.803 160.139,-85.9574 176.926,-68.622"/>
<polygon fill="none" stroke="midnightblue" points="116.545,-125.945 112.103,-135.564 121.574,-130.815 116.545,-125.945"/>
</g>
<!-- Node2&#45;&gt;Node2 -->
<g id="edge2" class="edge"><title>Node2&#45;&gt;Node2</title>
<path fill="none" stroke="#404040" d="M112.146,-212.643C122.622,-210.409 130,-204.361 130,-194.5 130,-188.799 127.534,-184.372 123.429,-181.221"/>
<polygon fill="none" stroke="#404040" points="123.166,-181.107 116.073,-182.405 112.146,-176.357 119.239,-175.059 123.166,-181.107"/>
<text text-anchor="middle" x="147" y="-192" font-family="Helvetica,sans-Serif" font-size="10.00"> +Outer</text>
</g>
<!-- Node13 -->
<g id="node3" class="node"><title>Node13</title>
<g id="a_node3"><a xlink:href="a25823.html" target="_top" xlink:title=" ">
<polygon fill="none" stroke="black" points="182.5,-133 182.5,-256 339.5,-256 339.5,-133 182.5,-133"/>
<text text-anchor="start" x="190.5" y="-244" font-family="Helvetica,sans-Serif" font-size="10.00">SDK::TArray&lt; struct</text>
<text text-anchor="start" x="190.5" y="-233" font-family="Helvetica,sans-Serif" font-size="10.00"> SDK::FCharacterHitReaction</text>
<text text-anchor="middle" x="261" y="-222" font-family="Helvetica,sans-Serif" font-size="10.00">DamagerTypeToAnimTypePair &gt;</text>
<polyline fill="none" stroke="black" points="182.5,-215 339.5,-215 "/>
<text text-anchor="middle" x="261" y="-203" font-family="Helvetica,sans-Serif" font-size="10.00"> </text>
<polyline fill="none" stroke="black" points="182.5,-196 339.5,-196 "/>
<text text-anchor="start" x="190.5" y="-184" font-family="Helvetica,sans-Serif" font-size="10.00">+ TArray()</text>
<text text-anchor="start" x="190.5" y="-173" font-family="Helvetica,sans-Serif" font-size="10.00">+ Num()</text>
<text text-anchor="start" x="190.5" y="-162" font-family="Helvetica,sans-Serif" font-size="10.00">+ operator[]()</text>
<text text-anchor="start" x="190.5" y="-151" font-family="Helvetica,sans-Serif" font-size="10.00">+ operator[]()</text>
<text text-anchor="start" x="190.5" y="-140" font-family="Helvetica,sans-Serif" font-size="10.00">+ IsValidIndex()</text>
</a>
</g>
</g>
<!-- Node13&#45;&gt;Node1 -->
<g id="edge3" class="edge"><title>Node13&#45;&gt;Node1</title>
<path fill="none" stroke="#404040" d="M241.044,-132.865C235.282,-115.358 229.101,-96.5771 223.72,-80.2262"/>
<polygon fill="none" stroke="#404040" points="223.712,-80.2012 218.037,-75.7524 219.96,-68.8026 225.636,-73.2514 223.712,-80.2012"/>
<text text-anchor="middle" x="302" y="-90" font-family="Helvetica,sans-Serif" font-size="10.00"> +DamagerTypeToAnimTypePairs</text>
</g>
</g>
</svg>
