<?xml version="1.0" encoding="UTF-8" standalone="no"?>
<!DOCTYPE svg PUBLIC "-//W3C//DTD SVG 1.1//EN"
 "http://www.w3.org/Graphics/SVG/1.1/DTD/svg11.dtd">
<!-- Generated by graphviz version 2.38.0 (20140413.2041)
 -->
<!-- Title: SDK::UHealthRegenerationPoolComponent Pages: 1 -->
<!--zoomable 606 -->
<svg id="main" version="1.1" xmlns="http://www.w3.org/2000/svg" xmlns:xlink="http://www.w3.org/1999/xlink" xml:space="preserve" onload="init(evt)">
<style type="text/css"><![CDATA[
.edge:hover path { stroke: red; }
.edge:hover polygon { stroke: red; fill: red; }
]]></style>
<script type="text/javascript"><![CDATA[
var edges = document.getElementsByTagName('g');
if (edges && edges.length) {
  for (var i=0;i<edges.length;i++) {
    if (edges[i].id.substr(0,4)=='edge') {
      edges[i].setAttribute('class','edge');
    }
  }
}
]]></script>
        <defs>
                <circle id="rim" cx="0" cy="0" r="7"/>
                <circle id="rim2" cx="0" cy="0" r="3.5"/>
                <g id="zoomPlus">
                        <use xlink:href="#rim" fill="#404040">
                                <set attributeName="fill" to="#808080" begin="zoomplus.mouseover" end="zoomplus.mouseout"/>
                        </use>
                        <path d="M-4,0h8M0,-4v8" fill="none" stroke="white" stroke-width="1.5" pointer-events="none"/>
                </g>
                <g id="zoomMin">
                        <use xlink:href="#rim" fill="#404040">
                                <set attributeName="fill" to="#808080" begin="zoomminus.mouseover" end="zoomminus.mouseout"/>
                        </use>
                        <path d="M-4,0h8" fill="none" stroke="white" stroke-width="1.5" pointer-events="none"/>
                </g>
                <g id="dirArrow">
                        <path fill="none" stroke="white" stroke-width="1.5" d="M0,-3.0v7 M-2.5,-0.5L0,-3.0L2.5,-0.5"/>
                </g>
               <g id="resetDef">
                       <use xlink:href="#rim2" fill="#404040">
                               <set attributeName="fill" to="#808080" begin="reset.mouseover" end="reset.mouseout"/>
                       </use>
               </g>
        </defs>

<script type="text/javascript">
var viewWidth = 720;
var viewHeight = 606;
var sectionId = 'dynsection-1';
</script>
<script xlink:href="svgpan.js"/>
<svg id="graph" class="graph">
<g id="viewport">
<title>SDK::UHealthRegenerationPoolComponent</title>
<!-- Node1 -->
<g id="node1" class="node"><title>Node1</title>
<g id="a_node1"><a xlink:title=" ">
<polygon fill="#bfbfbf" stroke="black" points="319.596,-0.5 319.596,-79.5 466.596,-79.5 466.596,-0.5 319.596,-0.5"/>
<text text-anchor="start" x="327.596" y="-67.5" font-family="Helvetica,sans-Serif" font-size="10.00">SDK::UHealthRegeneration</text>
<text text-anchor="middle" x="393.096" y="-56.5" font-family="Helvetica,sans-Serif" font-size="10.00">PoolComponent</text>
<polyline fill="none" stroke="black" points="319.596,-49.5 466.596,-49.5 "/>
<text text-anchor="middle" x="393.096" y="-37.5" font-family="Helvetica,sans-Serif" font-size="10.00"> </text>
<polyline fill="none" stroke="black" points="319.596,-30.5 466.596,-30.5 "/>
<text text-anchor="start" x="327.596" y="-18.5" font-family="Helvetica,sans-Serif" font-size="10.00">+ OnRep_RegenerationState()</text>
<text text-anchor="start" x="327.596" y="-7.5" font-family="Helvetica,sans-Serif" font-size="10.00">+ StaticClass()</text>
</a>
</g>
</g>
<!-- Node2 -->
<g id="node2" class="node"><title>Node2</title>
<g id="a_node2"><a xlink:href="a26551.html" target="_top" xlink:title=" ">
<polygon fill="none" stroke="red" points="125.596,-127.5 125.596,-371.5 310.596,-371.5 310.596,-127.5 125.596,-127.5"/>
<text text-anchor="middle" x="218.096" y="-359.5" font-family="Helvetica,sans-Serif" font-size="10.00">SDK::UActorComponent</text>
<polyline fill="none" stroke="red" points="125.596,-352.5 310.596,-352.5 "/>
<text text-anchor="start" x="133.596" y="-340.5" font-family="Helvetica,sans-Serif" font-size="10.00">+ UnknownData00</text>
<text text-anchor="start" x="133.596" y="-329.5" font-family="Helvetica,sans-Serif" font-size="10.00">+ bReplicates</text>
<text text-anchor="start" x="133.596" y="-318.5" font-family="Helvetica,sans-Serif" font-size="10.00">+ bNetAddressable</text>
<text text-anchor="start" x="133.596" y="-307.5" font-family="Helvetica,sans-Serif" font-size="10.00">+ bInstanceComponent</text>
<text text-anchor="start" x="133.596" y="-296.5" font-family="Helvetica,sans-Serif" font-size="10.00">+ bAutoActivate</text>
<text text-anchor="start" x="133.596" y="-285.5" font-family="Helvetica,sans-Serif" font-size="10.00">+ bIsActive</text>
<text text-anchor="start" x="133.596" y="-274.5" font-family="Helvetica,sans-Serif" font-size="10.00">+ bNeedsLoadForServer</text>
<polyline fill="none" stroke="red" points="125.596,-267.5 310.596,-267.5 "/>
<text text-anchor="start" x="133.596" y="-255.5" font-family="Helvetica,sans-Serif" font-size="10.00">+ ToggleActive()</text>
<text text-anchor="start" x="133.596" y="-244.5" font-family="Helvetica,sans-Serif" font-size="10.00">+ SetTickGroup()</text>
<text text-anchor="start" x="133.596" y="-233.5" font-family="Helvetica,sans-Serif" font-size="10.00">+ SetTickableWhenPaused()</text>
<text text-anchor="start" x="133.596" y="-222.5" font-family="Helvetica,sans-Serif" font-size="10.00">+ SetIsReplicated()</text>
<text text-anchor="start" x="133.596" y="-211.5" font-family="Helvetica,sans-Serif" font-size="10.00">+ SetComponentTickEnabled()</text>
<text text-anchor="start" x="133.596" y="-200.5" font-family="Helvetica,sans-Serif" font-size="10.00">+ SetActive()</text>
<text text-anchor="start" x="133.596" y="-189.5" font-family="Helvetica,sans-Serif" font-size="10.00">+ RemoveTickPrerequisiteComponent()</text>
<text text-anchor="start" x="133.596" y="-178.5" font-family="Helvetica,sans-Serif" font-size="10.00">+ RemoveTickPrerequisiteActor()</text>
<text text-anchor="start" x="133.596" y="-167.5" font-family="Helvetica,sans-Serif" font-size="10.00">+ ReceiveTick()</text>
<text text-anchor="start" x="133.596" y="-156.5" font-family="Helvetica,sans-Serif" font-size="10.00">+ ReceiveEndPlay()</text>
<text text-anchor="start" x="133.596" y="-145.5" font-family="Helvetica,sans-Serif" font-size="10.00">and 12 more...</text>
<text text-anchor="start" x="133.596" y="-134.5" font-family="Helvetica,sans-Serif" font-size="10.00">+ StaticClass()</text>
</a>
</g>
</g>
<!-- Node2&#45;&gt;Node1 -->
<g id="edge1" class="edge"><title>Node2&#45;&gt;Node1</title>
<path fill="none" stroke="midnightblue" d="M317.167,-130.471C318.148,-129.308 319.124,-128.151 320.096,-127 333.108,-111.586 347.466,-94.6538 359.982,-79.9202"/>
<polygon fill="none" stroke="midnightblue" points="314.406,-128.315 310.635,-138.216 319.758,-132.827 314.406,-128.315"/>
</g>
<!-- Node12 -->
<g id="node3" class="node"><title>Node12</title>
<g id="a_node3"><a xlink:title=" ">
<polygon fill="none" stroke="#bfbfbf" points="135.596,-540.5 135.596,-597.5 170.596,-597.5 170.596,-540.5 135.596,-540.5"/>
<text text-anchor="middle" x="153.096" y="-585.5" font-family="Helvetica,sans-Serif" font-size="10.00">char</text>
<polyline fill="none" stroke="#bfbfbf" points="135.596,-578.5 170.596,-578.5 "/>
<text text-anchor="middle" x="153.096" y="-566.5" font-family="Helvetica,sans-Serif" font-size="10.00"> </text>
<polyline fill="none" stroke="#bfbfbf" points="135.596,-559.5 170.596,-559.5 "/>
<text text-anchor="middle" x="153.096" y="-547.5" font-family="Helvetica,sans-Serif" font-size="10.00"> </text>
</a>
</g>
</g>
<!-- Node12&#45;&gt;Node1 -->
<g id="edge8" class="edge"><title>Node12&#45;&gt;Node1</title>
<path fill="none" stroke="#404040" d="M135.465,-546.071C82.0193,-476.819 -68.3066,-259.539 36.0957,-127 69.2115,-84.9594 212.438,-61.0722 307.106,-49.6095"/>
<polygon fill="none" stroke="#404040" points="307.345,-49.5814 312.834,-44.9049 319.262,-48.1732 313.772,-52.8497 307.345,-49.5814"/>
<text text-anchor="middle" x="76.0957" y="-258" font-family="Helvetica,sans-Serif" font-size="10.00"> +UnknownData01</text>
<text text-anchor="middle" x="76.0957" y="-247" font-family="Helvetica,sans-Serif" font-size="10.00">+UnknownData02</text>
<text text-anchor="middle" x="76.0957" y="-236" font-family="Helvetica,sans-Serif" font-size="10.00">+UnknownData00</text>
</g>
<!-- Node12&#45;&gt;Node2 -->
<g id="edge2" class="edge"><title>Node12&#45;&gt;Node2</title>
<path fill="none" stroke="#404040" d="M149.699,-540.461C146.145,-505.137 142.539,-442.199 154.096,-390 154.582,-387.803 155.106,-385.599 155.665,-383.391"/>
<polygon fill="none" stroke="#404040" points="155.74,-383.12 153.499,-376.266 158.964,-371.561 161.205,-378.415 155.74,-383.12"/>
<text text-anchor="middle" x="210.096" y="-514" font-family="Helvetica,sans-Serif" font-size="10.00"> +UnknownData01</text>
<text text-anchor="middle" x="210.096" y="-503" font-family="Helvetica,sans-Serif" font-size="10.00">+UnknownData02</text>
<text text-anchor="middle" x="210.096" y="-492" font-family="Helvetica,sans-Serif" font-size="10.00">+UnknownData03</text>
<text text-anchor="middle" x="210.096" y="-481" font-family="Helvetica,sans-Serif" font-size="10.00">+UnknownData04</text>
<text text-anchor="middle" x="210.096" y="-470" font-family="Helvetica,sans-Serif" font-size="10.00">+UnknownData05</text>
<text text-anchor="start" x="154.096" y="-459" font-family="Helvetica,sans-Serif" font-size="10.00">+bCreatedByConstruction</text>
<text text-anchor="middle" x="210.096" y="-448" font-family="Helvetica,sans-Serif" font-size="10.00">Script</text>
<text text-anchor="middle" x="210.096" y="-437" font-family="Helvetica,sans-Serif" font-size="10.00">+UnknownData06</text>
<text text-anchor="middle" x="210.096" y="-426" font-family="Helvetica,sans-Serif" font-size="10.00">+UnknownData07</text>
<text text-anchor="middle" x="210.096" y="-415" font-family="Helvetica,sans-Serif" font-size="10.00">+bEditableWhenInherited</text>
<text text-anchor="middle" x="210.096" y="-404" font-family="Helvetica,sans-Serif" font-size="10.00">+bNeedsLoadForClient</text>
<text text-anchor="middle" x="210.096" y="-393" font-family="Helvetica,sans-Serif" font-size="10.00">...</text>
</g>
<!-- Node23 -->
<g id="node5" class="node"><title>Node23</title>
<g id="a_node5"><a xlink:href="a15987.html" target="_top" xlink:title=" ">
<polygon fill="none" stroke="red" points="329.096,-221 329.096,-278 457.096,-278 457.096,-221 329.096,-221"/>
<text text-anchor="middle" x="393.096" y="-266" font-family="Helvetica,sans-Serif" font-size="10.00">SDK::FHealthRegenState</text>
<polyline fill="none" stroke="red" points="329.096,-259 457.096,-259 "/>
<text text-anchor="middle" x="393.096" y="-247" font-family="Helvetica,sans-Serif" font-size="10.00"> </text>
<polyline fill="none" stroke="red" points="329.096,-240 457.096,-240 "/>
<text text-anchor="middle" x="393.096" y="-228" font-family="Helvetica,sans-Serif" font-size="10.00"> </text>
</a>
</g>
</g>
<!-- Node12&#45;&gt;Node23 -->
<g id="edge5" class="edge"><title>Node12&#45;&gt;Node23</title>
<path fill="none" stroke="#404040" d="M170.792,-566.14C196.155,-562.472 242.39,-551.861 266.096,-522 303.031,-475.474 253.158,-438.756 287.096,-390 296.418,-376.607 307.359,-383.337 319.096,-372 343.622,-348.309 363.218,-314.831 376.067,-289.014"/>
<polygon fill="none" stroke="#404040" points="376.112,-288.922 375.114,-281.78 381.323,-278.113 382.32,-285.254 376.112,-288.922"/>
<text text-anchor="middle" x="327.096" y="-453.5" font-family="Helvetica,sans-Serif" font-size="10.00"> +UnknownData00</text>
</g>
<!-- Node22 -->
<g id="node4" class="node"><title>Node22</title>
<g id="a_node4"><a xlink:title=" ">
<polygon fill="none" stroke="#bfbfbf" points="651.596,-221 651.596,-278 696.596,-278 696.596,-221 651.596,-221"/>
<text text-anchor="middle" x="674.096" y="-266" font-family="Helvetica,sans-Serif" font-size="10.00">double</text>
<polyline fill="none" stroke="#bfbfbf" points="651.596,-259 696.596,-259 "/>
<text text-anchor="middle" x="674.096" y="-247" font-family="Helvetica,sans-Serif" font-size="10.00"> </text>
<polyline fill="none" stroke="#bfbfbf" points="651.596,-240 696.596,-240 "/>
<text text-anchor="middle" x="674.096" y="-228" font-family="Helvetica,sans-Serif" font-size="10.00"> </text>
</a>
</g>
</g>
<!-- Node22&#45;&gt;Node1 -->
<g id="edge3" class="edge"><title>Node22&#45;&gt;Node1</title>
<path fill="none" stroke="#404040" d="M672.683,-220.806C669.85,-193.571 661.497,-152.481 637.096,-127 595.594,-83.663 530.96,-62.1367 478.638,-51.4591"/>
<polygon fill="none" stroke="#404040" points="478.437,-51.4205 471.79,-54.2165 466.652,-49.1562 473.299,-46.3602 478.437,-51.4205"/>
<text text-anchor="middle" x="664.596" y="-101" font-family="Helvetica,sans-Serif" font-size="10.00"> +UIUpdateThrottleMs</text>
</g>
<!-- Node23&#45;&gt;Node1 -->
<g id="edge4" class="edge"><title>Node23&#45;&gt;Node1</title>
<path fill="none" stroke="#404040" d="M393.096,-220.946C393.096,-188.076 393.096,-132.466 393.096,-91.7481"/>
<polygon fill="none" stroke="#404040" points="393.096,-91.631 389.096,-85.6311 393.096,-79.631 397.096,-85.631 393.096,-91.631"/>
<text text-anchor="middle" x="438.096" y="-101" font-family="Helvetica,sans-Serif" font-size="10.00"> +RegenerationState</text>
</g>
<!-- Node18 -->
<g id="node6" class="node"><title>Node18</title>
<g id="a_node6"><a xlink:title=" ">
<polygon fill="none" stroke="#bfbfbf" points="427.596,-540.5 427.596,-597.5 462.596,-597.5 462.596,-540.5 427.596,-540.5"/>
<text text-anchor="middle" x="445.096" y="-585.5" font-family="Helvetica,sans-Serif" font-size="10.00">float</text>
<polyline fill="none" stroke="#bfbfbf" points="427.596,-578.5 462.596,-578.5 "/>
<text text-anchor="middle" x="445.096" y="-566.5" font-family="Helvetica,sans-Serif" font-size="10.00"> </text>
<polyline fill="none" stroke="#bfbfbf" points="427.596,-559.5 462.596,-559.5 "/>
<text text-anchor="middle" x="445.096" y="-547.5" font-family="Helvetica,sans-Serif" font-size="10.00"> </text>
</a>
</g>
</g>
<!-- Node18&#45;&gt;Node1 -->
<g id="edge7" class="edge"><title>Node18&#45;&gt;Node1</title>
<path fill="none" stroke="#404040" d="M462.79,-553.81C471.606,-545.576 481.373,-534.396 486.096,-522 502.868,-477.976 509.114,-139.105 486.096,-98 483.239,-92.8985 479.719,-88.1985 475.736,-83.8773"/>
<polygon fill="none" stroke="#404040" points="475.665,-83.8098 468.562,-82.567 466.977,-75.5321 474.081,-76.775 475.665,-83.8098"/>
<text text-anchor="middle" x="568.596" y="-258" font-family="Helvetica,sans-Serif" font-size="10.00"> +HealingDelayWhenDamaged</text>
<text text-anchor="middle" x="568.596" y="-247" font-family="Helvetica,sans-Serif" font-size="10.00">+MaxCapacity</text>
<text text-anchor="middle" x="568.596" y="-236" font-family="Helvetica,sans-Serif" font-size="10.00">+HealingRate</text>
</g>
<!-- Node18&#45;&gt;Node23 -->
<g id="edge6" class="edge"><title>Node18&#45;&gt;Node23</title>
<path fill="none" stroke="#404040" d="M427.459,-558.29C415.017,-550.347 399.327,-537.851 392.096,-522 357.43,-446.011 371.233,-345.139 383.015,-290.239"/>
<polygon fill="none" stroke="#404040" points="383.072,-289.987 380.488,-283.254 385.708,-278.28 388.292,-285.012 383.072,-289.987"/>
<text text-anchor="middle" x="439.096" y="-453.5" font-family="Helvetica,sans-Serif" font-size="10.00"> +CurrentPoolAmount</text>
</g>
</g>
</svg>
        <g id="navigator" transform="translate(0 0)" fill="#404254">
                <rect fill="#f2f5e9" fill-opacity="0.5" stroke="#606060" stroke-width=".5" x="0" y="0" width="60" height="60"/>
                <use id="zoomplus" xlink:href="#zoomPlus" x="17" y="9" onmousedown="handleZoom(evt,'in')"/>
                <use id="zoomminus" xlink:href="#zoomMin" x="42" y="9" onmousedown="handleZoom(evt,'out')"/>
                <use id="reset" xlink:href="#resetDef" x="30" y="36" onmousedown="handleReset()"/>
                <g id="arrowUp" xlink:href="#dirArrow" transform="translate(30 24)" onmousedown="handlePan(0,-1)">
                  <use xlink:href="#rim" fill="#404040">
                        <set attributeName="fill" to="#808080" begin="arrowUp.mouseover" end="arrowUp.mouseout"/>
                  </use>
                  <path fill="none" stroke="white" stroke-width="1.5" d="M0,-3.0v7 M-2.5,-0.5L0,-3.0L2.5,-0.5"/>
                </g>
                <g id="arrowRight" xlink:href="#dirArrow" transform="rotate(90) translate(36 -43)" onmousedown="handlePan(1,0)">
                  <use xlink:href="#rim" fill="#404040">
                        <set attributeName="fill" to="#808080" begin="arrowRight.mouseover" end="arrowRight.mouseout"/>
                  </use>
                  <path fill="none" stroke="white" stroke-width="1.5" d="M0,-3.0v7 M-2.5,-0.5L0,-3.0L2.5,-0.5"/>
                </g>
                <g id="arrowDown" xlink:href="#dirArrow" transform="rotate(180) translate(-30 -48)" onmousedown="handlePan(0,1)">
                  <use xlink:href="#rim" fill="#404040">
                        <set attributeName="fill" to="#808080" begin="arrowDown.mouseover" end="arrowDown.mouseout"/>
                  </use>
                  <path fill="none" stroke="white" stroke-width="1.5" d="M0,-3.0v7 M-2.5,-0.5L0,-3.0L2.5,-0.5"/>
                </g>
                <g id="arrowLeft" xlink:href="#dirArrow" transform="rotate(270) translate(-36 17)" onmousedown="handlePan(-1,0)">
                  <use xlink:href="#rim" fill="#404040">
                        <set attributeName="fill" to="#808080" begin="arrowLeft.mouseover" end="arrowLeft.mouseout"/>
                  </use>
                  <path fill="none" stroke="white" stroke-width="1.5" d="M0,-3.0v7 M-2.5,-0.5L0,-3.0L2.5,-0.5"/>
                </g>
        </g>
        <svg viewBox="0 0 15 15" width="100%" height="30px" preserveAspectRatio="xMaxYMin meet">
         <g id="arrow_out" transform="scale(0.3 0.3)">
          <a xlink:href="a10181_org.svg" target="_base">
           <rect id="button" ry="5" rx="5" y="6" x="6" height="38" width="38"
                fill="#f2f5e9" fill-opacity="0.5" stroke="#606060" stroke-width="1.0"/>
           <path id="arrow"
             d="M 11.500037,31.436501 C 11.940474,20.09759 22.043105,11.32322 32.158766,21.979434 L 37.068811,17.246167 C 37.068811,17.246167 37.088388,32 37.088388,32 L 22.160133,31.978069 C 22.160133,31.978069 26.997745,27.140456 26.997745,27.140456 C 18.528582,18.264221 13.291696,25.230495 11.500037,31.436501 z"
             style="fill:#404040;"/>
          </a>
         </g>
        </svg>
</svg>
