<?xml version="1.0" encoding="UTF-8" standalone="no"?>
<!DOCTYPE svg PUBLIC "-//W3C//DTD SVG 1.1//EN"
 "http://www.w3.org/Graphics/SVG/1.1/DTD/svg11.dtd">
<!-- Generated by graphviz version 2.38.0 (20140413.2041)
 -->
<!-- Title: SDK::UItemDescSpawnData Pages: 1 -->
<svg width="166pt" height="309pt"
 viewBox="0.00 0.00 166.00 309.00" xmlns="http://www.w3.org/2000/svg" xmlns:xlink="http://www.w3.org/1999/xlink">
<g id="graph0" class="graph" transform="scale(1 1) rotate(0) translate(4 305)">
<title>SDK::UItemDescSpawnData</title>
<!-- Node1 -->
<g id="node1" class="node"><title>Node1</title>
<g id="a_node1"><a xlink:title=" ">
<polygon fill="#bfbfbf" stroke="black" points="9,-149.5 9,-206.5 149,-206.5 149,-149.5 9,-149.5"/>
<text text-anchor="middle" x="79" y="-194.5" font-family="Helvetica,sans-Serif" font-size="10.00">SDK::UItemDescSpawnData</text>
<polyline fill="none" stroke="black" points="9,-187.5 149,-187.5 "/>
<text text-anchor="start" x="17" y="-175.5" font-family="Helvetica,sans-Serif" font-size="10.00">+ ItemDesc</text>
<polyline fill="none" stroke="black" points="9,-168.5 149,-168.5 "/>
<text text-anchor="start" x="17" y="-156.5" font-family="Helvetica,sans-Serif" font-size="10.00">+ StaticClass()</text>
</a>
</g>
</g>
<!-- Node4 -->
<g id="node3" class="node"><title>Node4</title>
<g id="a_node3"><a xlink:href="a12479.html" target="_top" xlink:title=" ">
<polygon fill="none" stroke="black" points="0,-0.5 0,-112.5 158,-112.5 158,-0.5 0,-0.5"/>
<text text-anchor="start" x="8" y="-100.5" font-family="Helvetica,sans-Serif" font-size="10.00">SDK::UCollectorsChestItem</text>
<text text-anchor="middle" x="79" y="-89.5" font-family="Helvetica,sans-Serif" font-size="10.00">DescSpawnData</text>
<polyline fill="none" stroke="black" points="0,-82.5 158,-82.5 "/>
<text text-anchor="start" x="8" y="-70.5" font-family="Helvetica,sans-Serif" font-size="10.00">+ NumberOfItemsToSpawn</text>
<text text-anchor="start" x="8" y="-59.5" font-family="Helvetica,sans-Serif" font-size="10.00">+ ItemsToSpawnInsideCollectors</text>
<text text-anchor="start" x="8" y="-48.5" font-family="Helvetica,sans-Serif" font-size="10.00">Chest</text>
<text text-anchor="start" x="8" y="-37.5" font-family="Helvetica,sans-Serif" font-size="10.00">+ GoldToSpawnInsideCollectors</text>
<text text-anchor="start" x="8" y="-26.5" font-family="Helvetica,sans-Serif" font-size="10.00">Chest</text>
<polyline fill="none" stroke="black" points="0,-19.5 158,-19.5 "/>
<text text-anchor="start" x="8" y="-7.5" font-family="Helvetica,sans-Serif" font-size="10.00">+ StaticClass()</text>
</a>
</g>
</g>
<!-- Node1&#45;&gt;Node4 -->
<g id="edge2" class="edge"><title>Node1&#45;&gt;Node4</title>
<path fill="none" stroke="midnightblue" d="M79,-139.108C79,-130.748 79,-121.725 79,-112.834"/>
<polygon fill="none" stroke="midnightblue" points="75.5001,-139.284 79,-149.284 82.5001,-139.284 75.5001,-139.284"/>
</g>
<!-- Node2 -->
<g id="node2" class="node"><title>Node2</title>
<g id="a_node2"><a xlink:href="a00563.html" target="_top" xlink:title=" ">
<polygon fill="none" stroke="red" points="20,-243.5 20,-300.5 138,-300.5 138,-243.5 20,-243.5"/>
<text text-anchor="middle" x="79" y="-288.5" font-family="Helvetica,sans-Serif" font-size="10.00">SDK::UItemSpawnData</text>
<polyline fill="none" stroke="red" points="20,-281.5 138,-281.5 "/>
<text text-anchor="middle" x="79" y="-269.5" font-family="Helvetica,sans-Serif" font-size="10.00"> </text>
<polyline fill="none" stroke="red" points="20,-262.5 138,-262.5 "/>
<text text-anchor="start" x="28" y="-250.5" font-family="Helvetica,sans-Serif" font-size="10.00">+ StaticClass()</text>
</a>
</g>
</g>
<!-- Node2&#45;&gt;Node1 -->
<g id="edge1" class="edge"><title>Node2&#45;&gt;Node1</title>
<path fill="none" stroke="midnightblue" d="M79,-233.209C79,-224.293 79,-214.951 79,-206.584"/>
<polygon fill="none" stroke="midnightblue" points="75.5001,-233.397 79,-243.397 82.5001,-233.397 75.5001,-233.397"/>
</g>
</g>
</svg>
