<?xml version="1.0" encoding="UTF-8" standalone="no"?>
<!DOCTYPE svg PUBLIC "-//W3C//DTD SVG 1.1//EN"
 "http://www.w3.org/Graphics/SVG/1.1/DTD/svg11.dtd">
<!-- Generated by graphviz version 2.38.0 (20140413.2041)
 -->
<!-- Title: SDK::ATreasureChestItemProxy Pages: 1 -->
<svg width="340pt" height="386pt"
 viewBox="0.00 0.00 340.00 386.00" xmlns="http://www.w3.org/2000/svg" xmlns:xlink="http://www.w3.org/1999/xlink">
<g id="graph0" class="graph" transform="scale(1 1) rotate(0) translate(4 382)">
<title>SDK::ATreasureChestItemProxy</title>
<!-- Node1 -->
<g id="node1" class="node"><title>Node1</title>
<g id="a_node1"><a xlink:title=" ">
<polygon fill="#bfbfbf" stroke="black" points="80.5,-105.5 80.5,-283.5 250.5,-283.5 250.5,-105.5 80.5,-105.5"/>
<text text-anchor="middle" x="165.5" y="-271.5" font-family="Helvetica,sans-Serif" font-size="10.00">SDK::ATreasureChestItemProxy</text>
<polyline fill="none" stroke="black" points="80.5,-264.5 250.5,-264.5 "/>
<text text-anchor="start" x="88.5" y="-252.5" font-family="Helvetica,sans-Serif" font-size="10.00">+ UnknownData00</text>
<text text-anchor="start" x="88.5" y="-241.5" font-family="Helvetica,sans-Serif" font-size="10.00">+ ShovelEnterSurfaceSfx</text>
<text text-anchor="start" x="88.5" y="-230.5" font-family="Helvetica,sans-Serif" font-size="10.00">+ ExhumeStepSfx</text>
<text text-anchor="start" x="88.5" y="-219.5" font-family="Helvetica,sans-Serif" font-size="10.00">+ FullyDugUpSfx</text>
<text text-anchor="start" x="88.5" y="-208.5" font-family="Helvetica,sans-Serif" font-size="10.00">+ ChestAmbiencePool</text>
<text text-anchor="start" x="88.5" y="-197.5" font-family="Helvetica,sans-Serif" font-size="10.00">+ ChestAmbiencePlay</text>
<text text-anchor="start" x="88.5" y="-186.5" font-family="Helvetica,sans-Serif" font-size="10.00">+ ChestAmbienceStop</text>
<text text-anchor="start" x="88.5" y="-175.5" font-family="Helvetica,sans-Serif" font-size="10.00">+ DitherComponent</text>
<text text-anchor="start" x="88.5" y="-164.5" font-family="Helvetica,sans-Serif" font-size="10.00">+ CloseProximityEncounterParams</text>
<text text-anchor="start" x="88.5" y="-153.5" font-family="Helvetica,sans-Serif" font-size="10.00">+ UnknownData01</text>
<text text-anchor="start" x="88.5" y="-142.5" font-family="Helvetica,sans-Serif" font-size="10.00">+ CachedAudioConfig</text>
<text text-anchor="start" x="88.5" y="-131.5" font-family="Helvetica,sans-Serif" font-size="10.00">+ UnknownData02</text>
<polyline fill="none" stroke="black" points="80.5,-124.5 250.5,-124.5 "/>
<text text-anchor="start" x="88.5" y="-112.5" font-family="Helvetica,sans-Serif" font-size="10.00">+ StaticClass()</text>
</a>
</g>
</g>
<!-- Node9 -->
<g id="node3" class="node"><title>Node9</title>
<g id="a_node3"><a xlink:href="a11143.html" target="_top" xlink:title=" ">
<polygon fill="none" stroke="red" points="0,-0.5 0,-68.5 157,-68.5 157,-0.5 0,-0.5"/>
<text text-anchor="start" x="8" y="-56.5" font-family="Helvetica,sans-Serif" font-size="10.00">SDK::ATreasureChestItemProxy</text>
<text text-anchor="middle" x="78.5" y="-45.5" font-family="Helvetica,sans-Serif" font-size="10.00">Skeletal</text>
<polyline fill="none" stroke="red" points="0,-38.5 157,-38.5 "/>
<text text-anchor="middle" x="78.5" y="-26.5" font-family="Helvetica,sans-Serif" font-size="10.00"> </text>
<polyline fill="none" stroke="red" points="0,-19.5 157,-19.5 "/>
<text text-anchor="start" x="8" y="-7.5" font-family="Helvetica,sans-Serif" font-size="10.00">+ StaticClass()</text>
</a>
</g>
</g>
<!-- Node1&#45;&gt;Node9 -->
<g id="edge2" class="edge"><title>Node1&#45;&gt;Node9</title>
<path fill="none" stroke="midnightblue" d="M112.083,-96.4896C106.64,-86.6056 101.417,-77.119 96.7778,-68.6942"/>
<polygon fill="none" stroke="midnightblue" points="109.023,-98.1894 116.913,-105.261 115.155,-94.813 109.023,-98.1894"/>
</g>
<!-- Node11 -->
<g id="node4" class="node"><title>Node11</title>
<g id="a_node4"><a xlink:href="a11147.html" target="_top" xlink:title=" ">
<polygon fill="none" stroke="red" points="175,-0.5 175,-68.5 332,-68.5 332,-0.5 175,-0.5"/>
<text text-anchor="start" x="183" y="-56.5" font-family="Helvetica,sans-Serif" font-size="10.00">SDK::ATreasureChestItemProxy</text>
<text text-anchor="middle" x="253.5" y="-45.5" font-family="Helvetica,sans-Serif" font-size="10.00">Static</text>
<polyline fill="none" stroke="red" points="175,-38.5 332,-38.5 "/>
<text text-anchor="middle" x="253.5" y="-26.5" font-family="Helvetica,sans-Serif" font-size="10.00"> </text>
<polyline fill="none" stroke="red" points="175,-19.5 332,-19.5 "/>
<text text-anchor="start" x="183" y="-7.5" font-family="Helvetica,sans-Serif" font-size="10.00">+ StaticClass()</text>
</a>
</g>
</g>
<!-- Node1&#45;&gt;Node11 -->
<g id="edge3" class="edge"><title>Node1&#45;&gt;Node11</title>
<path fill="none" stroke="midnightblue" d="M219.531,-96.4896C225.036,-86.6056 230.32,-77.119 235.012,-68.6942"/>
<polygon fill="none" stroke="midnightblue" points="216.454,-94.8216 214.646,-105.261 222.569,-98.2277 216.454,-94.8216"/>
</g>
<!-- Node2 -->
<g id="node2" class="node"><title>Node2</title>
<g id="a_node2"><a xlink:href="a03123.html" target="_top" xlink:title=" ">
<polygon fill="none" stroke="red" points="103,-320.5 103,-377.5 228,-377.5 228,-320.5 103,-320.5"/>
<text text-anchor="middle" x="165.5" y="-365.5" font-family="Helvetica,sans-Serif" font-size="10.00">SDK::ABootyProxy</text>
<polyline fill="none" stroke="red" points="103,-358.5 228,-358.5 "/>
<text text-anchor="start" x="111" y="-346.5" font-family="Helvetica,sans-Serif" font-size="10.00">+ RetractableComponent</text>
<polyline fill="none" stroke="red" points="103,-339.5 228,-339.5 "/>
<text text-anchor="start" x="111" y="-327.5" font-family="Helvetica,sans-Serif" font-size="10.00">+ StaticClass()</text>
</a>
</g>
</g>
<!-- Node2&#45;&gt;Node1 -->
<g id="edge1" class="edge"><title>Node2&#45;&gt;Node1</title>
<path fill="none" stroke="midnightblue" d="M165.5,-310.374C165.5,-302.089 165.5,-292.977 165.5,-283.62"/>
<polygon fill="none" stroke="midnightblue" points="162,-310.383 165.5,-320.383 169,-310.383 162,-310.383"/>
</g>
</g>
</svg>
