<?xml version="1.0" encoding="UTF-8" standalone="no"?>
<!DOCTYPE svg PUBLIC "-//W3C//DTD SVG 1.1//EN"
 "http://www.w3.org/Graphics/SVG/1.1/DTD/svg11.dtd">
<!-- Generated by graphviz version 2.38.0 (20140413.2041)
 -->
<!-- Title: SDK::ATreasureChestItemProxyStatic Pages: 1 -->
<svg width="178pt" height="419pt"
 viewBox="0.00 0.00 178.00 419.00" xmlns="http://www.w3.org/2000/svg" xmlns:xlink="http://www.w3.org/1999/xlink">
<g id="graph0" class="graph" transform="scale(1 1) rotate(0) translate(4 415)">
<title>SDK::ATreasureChestItemProxyStatic</title>
<!-- Node1 -->
<g id="node1" class="node"><title>Node1</title>
<g id="a_node1"><a xlink:title=" ">
<polygon fill="#bfbfbf" stroke="black" points="6.5,-127.5 6.5,-195.5 163.5,-195.5 163.5,-127.5 6.5,-127.5"/>
<text text-anchor="start" x="14.5" y="-183.5" font-family="Helvetica,sans-Serif" font-size="10.00">SDK::ATreasureChestItemProxy</text>
<text text-anchor="middle" x="85" y="-172.5" font-family="Helvetica,sans-Serif" font-size="10.00">Static</text>
<polyline fill="none" stroke="black" points="6.5,-165.5 163.5,-165.5 "/>
<text text-anchor="middle" x="85" y="-153.5" font-family="Helvetica,sans-Serif" font-size="10.00"> </text>
<polyline fill="none" stroke="black" points="6.5,-146.5 163.5,-146.5 "/>
<text text-anchor="start" x="14.5" y="-134.5" font-family="Helvetica,sans-Serif" font-size="10.00">+ StaticClass()</text>
</a>
</g>
</g>
<!-- Node10 -->
<g id="node3" class="node"><title>Node10</title>
<g id="a_node3"><a xlink:href="a12499.html" target="_top" xlink:title=" ">
<polygon fill="none" stroke="black" points="16.5,-0.5 16.5,-90.5 153.5,-90.5 153.5,-0.5 16.5,-0.5"/>
<text text-anchor="start" x="24.5" y="-78.5" font-family="Helvetica,sans-Serif" font-size="10.00">SDK::ACollectorsChestItem</text>
<text text-anchor="middle" x="85" y="-67.5" font-family="Helvetica,sans-Serif" font-size="10.00">ProxyStatic</text>
<polyline fill="none" stroke="black" points="16.5,-60.5 153.5,-60.5 "/>
<text text-anchor="start" x="24.5" y="-48.5" font-family="Helvetica,sans-Serif" font-size="10.00">+ UnknownData00</text>
<text text-anchor="start" x="24.5" y="-37.5" font-family="Helvetica,sans-Serif" font-size="10.00">+ OpenableItemComponent</text>
<text text-anchor="start" x="24.5" y="-26.5" font-family="Helvetica,sans-Serif" font-size="10.00">+ UnknownData01</text>
<polyline fill="none" stroke="black" points="16.5,-19.5 153.5,-19.5 "/>
<text text-anchor="start" x="24.5" y="-7.5" font-family="Helvetica,sans-Serif" font-size="10.00">+ StaticClass()</text>
</a>
</g>
</g>
<!-- Node1&#45;&gt;Node10 -->
<g id="edge2" class="edge"><title>Node1&#45;&gt;Node10</title>
<path fill="none" stroke="midnightblue" d="M85,-116.972C85,-108.346 85,-99.2838 85,-90.6378"/>
<polygon fill="none" stroke="midnightblue" points="81.5001,-117.22 85,-127.22 88.5001,-117.22 81.5001,-117.22"/>
</g>
<!-- Node2 -->
<g id="node2" class="node"><title>Node2</title>
<g id="a_node2"><a xlink:href="a11139.html" target="_top" xlink:title=" ">
<polygon fill="none" stroke="red" points="0,-232.5 0,-410.5 170,-410.5 170,-232.5 0,-232.5"/>
<text text-anchor="middle" x="85" y="-398.5" font-family="Helvetica,sans-Serif" font-size="10.00">SDK::ATreasureChestItemProxy</text>
<polyline fill="none" stroke="red" points="0,-391.5 170,-391.5 "/>
<text text-anchor="start" x="8" y="-379.5" font-family="Helvetica,sans-Serif" font-size="10.00">+ UnknownData00</text>
<text text-anchor="start" x="8" y="-368.5" font-family="Helvetica,sans-Serif" font-size="10.00">+ ShovelEnterSurfaceSfx</text>
<text text-anchor="start" x="8" y="-357.5" font-family="Helvetica,sans-Serif" font-size="10.00">+ ExhumeStepSfx</text>
<text text-anchor="start" x="8" y="-346.5" font-family="Helvetica,sans-Serif" font-size="10.00">+ FullyDugUpSfx</text>
<text text-anchor="start" x="8" y="-335.5" font-family="Helvetica,sans-Serif" font-size="10.00">+ ChestAmbiencePool</text>
<text text-anchor="start" x="8" y="-324.5" font-family="Helvetica,sans-Serif" font-size="10.00">+ ChestAmbiencePlay</text>
<text text-anchor="start" x="8" y="-313.5" font-family="Helvetica,sans-Serif" font-size="10.00">+ ChestAmbienceStop</text>
<text text-anchor="start" x="8" y="-302.5" font-family="Helvetica,sans-Serif" font-size="10.00">+ DitherComponent</text>
<text text-anchor="start" x="8" y="-291.5" font-family="Helvetica,sans-Serif" font-size="10.00">+ CloseProximityEncounterParams</text>
<text text-anchor="start" x="8" y="-280.5" font-family="Helvetica,sans-Serif" font-size="10.00">+ UnknownData01</text>
<text text-anchor="start" x="8" y="-269.5" font-family="Helvetica,sans-Serif" font-size="10.00">+ CachedAudioConfig</text>
<text text-anchor="start" x="8" y="-258.5" font-family="Helvetica,sans-Serif" font-size="10.00">+ UnknownData02</text>
<polyline fill="none" stroke="red" points="0,-251.5 170,-251.5 "/>
<text text-anchor="start" x="8" y="-239.5" font-family="Helvetica,sans-Serif" font-size="10.00">+ StaticClass()</text>
</a>
</g>
</g>
<!-- Node2&#45;&gt;Node1 -->
<g id="edge1" class="edge"><title>Node2&#45;&gt;Node1</title>
<path fill="none" stroke="midnightblue" d="M85,-221.995C85,-212.65 85,-203.694 85,-195.694"/>
<polygon fill="none" stroke="midnightblue" points="81.5001,-222.261 85,-232.261 88.5001,-222.261 81.5001,-222.261"/>
</g>
</g>
</svg>
