<?xml version="1.0" encoding="UTF-8" standalone="no"?>
<!DOCTYPE svg PUBLIC "-//W3C//DTD SVG 1.1//EN"
 "http://www.w3.org/Graphics/SVG/1.1/DTD/svg11.dtd">
<!-- Generated by graphviz version 2.38.0 (20140413.2041)
 -->
<!-- Title: SDK::AWieldableIngestible Pages: 1 -->
<!--zoomable 703 -->
<svg id="main" version="1.1" xmlns="http://www.w3.org/2000/svg" xmlns:xlink="http://www.w3.org/1999/xlink" xml:space="preserve" onload="init(evt)">
<style type="text/css"><![CDATA[
.edge:hover path { stroke: red; }
.edge:hover polygon { stroke: red; fill: red; }
]]></style>
<script type="text/javascript"><![CDATA[
var edges = document.getElementsByTagName('g');
if (edges && edges.length) {
  for (var i=0;i<edges.length;i++) {
    if (edges[i].id.substr(0,4)=='edge') {
      edges[i].setAttribute('class','edge');
    }
  }
}
]]></script>
        <defs>
                <circle id="rim" cx="0" cy="0" r="7"/>
                <circle id="rim2" cx="0" cy="0" r="3.5"/>
                <g id="zoomPlus">
                        <use xlink:href="#rim" fill="#404040">
                                <set attributeName="fill" to="#808080" begin="zoomplus.mouseover" end="zoomplus.mouseout"/>
                        </use>
                        <path d="M-4,0h8M0,-4v8" fill="none" stroke="white" stroke-width="1.5" pointer-events="none"/>
                </g>
                <g id="zoomMin">
                        <use xlink:href="#rim" fill="#404040">
                                <set attributeName="fill" to="#808080" begin="zoomminus.mouseover" end="zoomminus.mouseout"/>
                        </use>
                        <path d="M-4,0h8" fill="none" stroke="white" stroke-width="1.5" pointer-events="none"/>
                </g>
                <g id="dirArrow">
                        <path fill="none" stroke="white" stroke-width="1.5" d="M0,-3.0v7 M-2.5,-0.5L0,-3.0L2.5,-0.5"/>
                </g>
               <g id="resetDef">
                       <use xlink:href="#rim2" fill="#404040">
                               <set attributeName="fill" to="#808080" begin="reset.mouseover" end="reset.mouseout"/>
                       </use>
               </g>
        </defs>

<script type="text/javascript">
var viewWidth = 1631;
var viewHeight = 703;
var sectionId = 'dynsection-1';
</script>
<script xlink:href="svgpan.js"/>
<svg id="graph" class="graph">
<g id="viewport">
<title>SDK::AWieldableIngestible</title>
<!-- Node1 -->
<g id="node1" class="node"><title>Node1</title>
<g id="a_node1"><a xlink:title=" ">
<polygon fill="#bfbfbf" stroke="black" points="654.5,-0.5 654.5,-68.5 788.5,-68.5 788.5,-0.5 654.5,-0.5"/>
<text text-anchor="middle" x="721.5" y="-56.5" font-family="Helvetica,sans-Serif" font-size="10.00">SDK::AWieldableIngestible</text>
<polyline fill="none" stroke="black" points="654.5,-49.5 788.5,-49.5 "/>
<text text-anchor="middle" x="721.5" y="-37.5" font-family="Helvetica,sans-Serif" font-size="10.00"> </text>
<polyline fill="none" stroke="black" points="654.5,-30.5 788.5,-30.5 "/>
<text text-anchor="start" x="662.5" y="-18.5" font-family="Helvetica,sans-Serif" font-size="10.00">+ Multicast_IngestRPC()</text>
<text text-anchor="start" x="662.5" y="-7.5" font-family="Helvetica,sans-Serif" font-size="10.00">+ StaticClass()</text>
</a>
</g>
</g>
<!-- Node2 -->
<g id="node2" class="node"><title>Node2</title>
<g id="a_node2"><a xlink:href="a00523.html" target="_top" xlink:title=" ">
<polygon fill="none" stroke="red" points="844.5,-127.5 844.5,-305.5 1014.5,-305.5 1014.5,-127.5 844.5,-127.5"/>
<text text-anchor="middle" x="929.5" y="-293.5" font-family="Helvetica,sans-Serif" font-size="10.00">SDK::AWieldableItem</text>
<polyline fill="none" stroke="red" points="844.5,-286.5 1014.5,-286.5 "/>
<text text-anchor="middle" x="929.5" y="-274.5" font-family="Helvetica,sans-Serif" font-size="10.00"> </text>
<polyline fill="none" stroke="red" points="844.5,-267.5 1014.5,-267.5 "/>
<text text-anchor="start" x="852.5" y="-255.5" font-family="Helvetica,sans-Serif" font-size="10.00">+ SetItemWwiseSwitch()</text>
<text text-anchor="start" x="852.5" y="-244.5" font-family="Helvetica,sans-Serif" font-size="10.00">+ SetItemWwiseRTPC()</text>
<text text-anchor="start" x="852.5" y="-233.5" font-family="Helvetica,sans-Serif" font-size="10.00">+ PostItemWwiseEvent()</text>
<text text-anchor="start" x="852.5" y="-222.5" font-family="Helvetica,sans-Serif" font-size="10.00">+ OnWielderHasLandedFromJump</text>
<text text-anchor="start" x="852.5" y="-211.5" font-family="Helvetica,sans-Serif" font-size="10.00">BPImpl()</text>
<text text-anchor="start" x="852.5" y="-200.5" font-family="Helvetica,sans-Serif" font-size="10.00">+ IsUnderwater()</text>
<text text-anchor="start" x="852.5" y="-189.5" font-family="Helvetica,sans-Serif" font-size="10.00">+ GetWielder()</text>
<text text-anchor="start" x="852.5" y="-178.5" font-family="Helvetica,sans-Serif" font-size="10.00">+ GetWieldedItemAnimationOffset()</text>
<text text-anchor="start" x="852.5" y="-167.5" font-family="Helvetica,sans-Serif" font-size="10.00">+ GetWieldableItemSize()</text>
<text text-anchor="start" x="852.5" y="-156.5" font-family="Helvetica,sans-Serif" font-size="10.00">+ GetLastKnownWielder()</text>
<text text-anchor="start" x="852.5" y="-145.5" font-family="Helvetica,sans-Serif" font-size="10.00">+ GetIsFirstPerson()</text>
<text text-anchor="start" x="852.5" y="-134.5" font-family="Helvetica,sans-Serif" font-size="10.00">+ StaticClass()</text>
</a>
</g>
</g>
<!-- Node2&#45;&gt;Node1 -->
<g id="edge1" class="edge"><title>Node2&#45;&gt;Node1</title>
<path fill="none" stroke="midnightblue" d="M856.754,-119.966C845.638,-108.139 833.759,-96.7868 821.5,-87 811.504,-79.0198 800.076,-71.7518 788.605,-65.354"/>
<polygon fill="none" stroke="midnightblue" points="854.228,-122.39 863.573,-127.381 859.381,-117.652 854.228,-122.39"/>
</g>
<!-- Node5 -->
<g id="node3" class="node"><title>Node5</title>
<g id="a_node3"><a xlink:href="a25839.html" target="_top" xlink:title=" ">
<polygon fill="none" stroke="red" points="187.5,-433.5 187.5,-545.5 293.5,-545.5 293.5,-433.5 187.5,-433.5"/>
<text text-anchor="middle" x="240.5" y="-533.5" font-family="Helvetica,sans-Serif" font-size="10.00">SDK::FName</text>
<polyline fill="none" stroke="red" points="187.5,-526.5 293.5,-526.5 "/>
<text text-anchor="middle" x="240.5" y="-514.5" font-family="Helvetica,sans-Serif" font-size="10.00"> </text>
<polyline fill="none" stroke="red" points="187.5,-507.5 293.5,-507.5 "/>
<text text-anchor="start" x="195.5" y="-495.5" font-family="Helvetica,sans-Serif" font-size="10.00">+ FName()</text>
<text text-anchor="start" x="195.5" y="-484.5" font-family="Helvetica,sans-Serif" font-size="10.00">+ FName()</text>
<text text-anchor="start" x="195.5" y="-473.5" font-family="Helvetica,sans-Serif" font-size="10.00">+ FName()</text>
<text text-anchor="start" x="195.5" y="-462.5" font-family="Helvetica,sans-Serif" font-size="10.00">+ GetName()</text>
<text text-anchor="start" x="195.5" y="-451.5" font-family="Helvetica,sans-Serif" font-size="10.00">+ operator==()</text>
<text text-anchor="start" x="195.5" y="-440.5" font-family="Helvetica,sans-Serif" font-size="10.00">+ GetGlobalNames()</text>
</a>
</g>
</g>
<!-- Node5&#45;&gt;Node1 -->
<g id="edge8" class="edge"><title>Node5&#45;&gt;Node1</title>
<path fill="none" stroke="#404040" d="M229.984,-433.375C214.309,-344.251 190.227,-173.763 225.5,-127 274.618,-61.8832 514.918,-43.0838 642.134,-37.6739"/>
<polygon fill="none" stroke="#404040" points="642.465,-37.6606 648.299,-33.4219 654.455,-37.1767 648.621,-41.4154 642.465,-37.6606"/>
<text text-anchor="middle" x="277" y="-214" font-family="Helvetica,sans-Serif" font-size="10.00"> +IngestAudioFoodType</text>
</g>
<!-- Node5&#45;&gt;Node2 -->
<g id="edge2" class="edge"><title>Node5&#45;&gt;Node2</title>
<path fill="none" stroke="#404040" d="M278.392,-433.378C286.943,-424.528 296.722,-416.487 307.5,-411 350.029,-389.347 475.611,-406.106 521.5,-393 586.292,-374.495 593.072,-346.744 656.5,-324 691.622,-311.406 703.141,-317.914 738.5,-306 769.978,-295.394 803.18,-281.164 832.913,-267.219"/>
<polygon fill="none" stroke="#404040" points="833.287,-267.042 836.993,-260.856 844.129,-261.897 840.423,-268.083 833.287,-267.042"/>
<text text-anchor="middle" x="721" y="-372.5" font-family="Helvetica,sans-Serif" font-size="10.00"> +StashedMeshAttachSocket</text>
<text text-anchor="middle" x="721" y="-361.5" font-family="Helvetica,sans-Serif" font-size="10.00">+AINoiseTag</text>
<text text-anchor="middle" x="721" y="-350.5" font-family="Helvetica,sans-Serif" font-size="10.00">+ServerWieldAttachSocket</text>
<text text-anchor="middle" x="721" y="-339.5" font-family="Helvetica,sans-Serif" font-size="10.00">+PlayerWalkSpeedRtpc</text>
</g>
<!-- Node245 -->
<g id="node12" class="node"><title>Node245</title>
<g id="a_node12"><a xlink:href="a00571.html" target="_top" xlink:title=" ">
<polygon fill="none" stroke="black" points="338,-188 338,-245 433,-245 433,-188 338,-188"/>
<text text-anchor="middle" x="385.5" y="-233" font-family="Helvetica,sans-Serif" font-size="10.00">SDK::FPlayerStat</text>
<polyline fill="none" stroke="black" points="338,-226 433,-226 "/>
<text text-anchor="middle" x="385.5" y="-214" font-family="Helvetica,sans-Serif" font-size="10.00"> </text>
<polyline fill="none" stroke="black" points="338,-207 433,-207 "/>
<text text-anchor="middle" x="385.5" y="-195" font-family="Helvetica,sans-Serif" font-size="10.00"> </text>
</a>
</g>
</g>
<!-- Node5&#45;&gt;Node245 -->
<g id="edge20" class="edge"><title>Node5&#45;&gt;Node245</title>
<path fill="none" stroke="#404040" d="M241.599,-433.219C245.029,-398.278 254.744,-354.182 280.5,-324 293.949,-308.24 307.365,-318.996 323.5,-306 340.438,-292.357 354.751,-272.92 365.342,-255.735"/>
<polygon fill="none" stroke="#404040" points="365.344,-255.731 364.95,-248.53 371.446,-245.398 371.839,-252.598 365.344,-255.731"/>
<text text-anchor="middle" x="298" y="-356" font-family="Helvetica,sans-Serif" font-size="10.00"> +Name</text>
</g>
<!-- Node190 -->
<g id="node4" class="node"><title>Node190</title>
<g id="a_node4"><a xlink:href="a36295.html" target="_top" xlink:title=" ">
<polygon fill="none" stroke="red" points="879.5,-433.5 879.5,-545.5 995.5,-545.5 995.5,-433.5 879.5,-433.5"/>
<text text-anchor="middle" x="937.5" y="-533.5" font-family="Helvetica,sans-Serif" font-size="10.00">SDK::UWwiseEvent</text>
<polyline fill="none" stroke="red" points="879.5,-526.5 995.5,-526.5 "/>
<text text-anchor="middle" x="937.5" y="-514.5" font-family="Helvetica,sans-Serif" font-size="10.00"> </text>
<polyline fill="none" stroke="red" points="879.5,-507.5 995.5,-507.5 "/>
<text text-anchor="start" x="887.5" y="-495.5" font-family="Helvetica,sans-Serif" font-size="10.00">+ IsAudible()</text>
<text text-anchor="start" x="887.5" y="-484.5" font-family="Helvetica,sans-Serif" font-size="10.00">+ GetMaxAttenuation()</text>
<text text-anchor="start" x="887.5" y="-473.5" font-family="Helvetica,sans-Serif" font-size="10.00">+ GetDurationType()</text>
<text text-anchor="start" x="887.5" y="-462.5" font-family="Helvetica,sans-Serif" font-size="10.00">+ GetDurationMin()</text>
<text text-anchor="start" x="887.5" y="-451.5" font-family="Helvetica,sans-Serif" font-size="10.00">+ GetDurationMax()</text>
<text text-anchor="start" x="887.5" y="-440.5" font-family="Helvetica,sans-Serif" font-size="10.00">+ StaticClass()</text>
</a>
</g>
</g>
<!-- Node190&#45;&gt;Node1 -->
<g id="edge9" class="edge"><title>Node190&#45;&gt;Node1</title>
<path fill="none" stroke="#404040" d="M995.663,-453.236C1016,-437.567 1036.48,-417.16 1047.5,-393 1075.02,-332.673 1066.93,-178.677 1023.5,-127 969.134,-62.313 870.652,-42.3587 800.948,-36.716"/>
<polygon fill="none" stroke="#404040" points="800.69,-36.6978 794.422,-40.2627 788.72,-35.8478 794.988,-32.2828 800.69,-36.6978"/>
<text text-anchor="middle" x="1106" y="-214" font-family="Helvetica,sans-Serif" font-size="10.00"> +IngestAudioEvent</text>
</g>
<!-- Node190&#45;&gt;Node2 -->
<g id="edge3" class="edge"><title>Node190&#45;&gt;Node2</title>
<path fill="none" stroke="#404040" d="M935.871,-433.332C934.892,-400.165 933.617,-356.947 932.464,-317.904"/>
<polygon fill="none" stroke="#404040" points="932.457,-317.66 928.281,-311.781 932.103,-305.665 936.278,-311.544 932.457,-317.66"/>
<text text-anchor="middle" x="989" y="-378" font-family="Helvetica,sans-Serif" font-size="10.00"> +EquipSfx</text>
<text text-anchor="middle" x="989" y="-367" font-family="Helvetica,sans-Serif" font-size="10.00">+UnequipSfx</text>
<text text-anchor="start" x="934.5" y="-356" font-family="Helvetica,sans-Serif" font-size="10.00">+WielderFootstepLayer</text>
<text text-anchor="middle" x="989" y="-345" font-family="Helvetica,sans-Serif" font-size="10.00">Oneshot</text>
<text text-anchor="middle" x="989" y="-334" font-family="Helvetica,sans-Serif" font-size="10.00">+WielderLandedJumpSfx</text>
</g>
<!-- Node26 -->
<g id="node5" class="node"><title>Node26</title>
<g id="a_node5"><a xlink:title=" ">
<polygon fill="none" stroke="#bfbfbf" points="738,-637.5 738,-694.5 773,-694.5 773,-637.5 738,-637.5"/>
<text text-anchor="middle" x="755.5" y="-682.5" font-family="Helvetica,sans-Serif" font-size="10.00">float</text>
<polyline fill="none" stroke="#bfbfbf" points="738,-675.5 773,-675.5 "/>
<text text-anchor="middle" x="755.5" y="-663.5" font-family="Helvetica,sans-Serif" font-size="10.00"> </text>
<polyline fill="none" stroke="#bfbfbf" points="738,-656.5 773,-656.5 "/>
<text text-anchor="middle" x="755.5" y="-644.5" font-family="Helvetica,sans-Serif" font-size="10.00"> </text>
</a>
</g>
</g>
<!-- Node26&#45;&gt;Node1 -->
<g id="edge17" class="edge"><title>Node26&#45;&gt;Node1</title>
<path fill="none" stroke="#404040" d="M756.32,-637.358C757.761,-621.561 761.261,-601.811 769.5,-586 774.728,-575.967 783.17,-578.453 787.5,-568 825.019,-477.42 802.573,-220.938 774.5,-127 769.509,-110.298 760.929,-93.3984 752.109,-78.7448"/>
<polygon fill="none" stroke="#404040" points="752.065,-78.6746 745.489,-75.7149 745.692,-68.5067 752.268,-71.4663 752.065,-78.6746"/>
<text text-anchor="middle" x="861" y="-361.5" font-family="Helvetica,sans-Serif" font-size="10.00"> +InToIngestionDuration</text>
<text text-anchor="middle" x="861" y="-350.5" font-family="Helvetica,sans-Serif" font-size="10.00">+OutOfIngestionDuration</text>
</g>
<!-- Node26&#45;&gt;Node190 -->
<g id="edge4" class="edge"><title>Node26&#45;&gt;Node190</title>
<path fill="none" stroke="#404040" d="M773.354,-661.789C797.689,-656.604 841.447,-644.298 869.5,-619 880.167,-609.38 894.791,-582.914 907.744,-556.482"/>
<polygon fill="none" stroke="#404040" points="907.777,-556.413 906.78,-549.271 912.988,-545.603 913.986,-552.745 907.777,-556.413"/>
<text text-anchor="middle" x="929" y="-611" font-family="Helvetica,sans-Serif" font-size="10.00"> +DurationMin</text>
<text text-anchor="middle" x="929" y="-600" font-family="Helvetica,sans-Serif" font-size="10.00">+DurationMax</text>
<text text-anchor="middle" x="929" y="-589" font-family="Helvetica,sans-Serif" font-size="10.00">+MaxAttenuation</text>
</g>
<!-- Node239 -->
<g id="node9" class="node"><title>Node239</title>
<g id="a_node9"><a xlink:href="a10559.html" target="_top" xlink:title=" ">
<polygon fill="none" stroke="red" points="465.5,-411.5 465.5,-567.5 621.5,-567.5 621.5,-411.5 465.5,-411.5"/>
<text text-anchor="middle" x="543.5" y="-555.5" font-family="Helvetica,sans-Serif" font-size="10.00">SDK::UInventoryItemComponent</text>
<polyline fill="none" stroke="red" points="465.5,-548.5 621.5,-548.5 "/>
<text text-anchor="middle" x="543.5" y="-536.5" font-family="Helvetica,sans-Serif" font-size="10.00"> </text>
<polyline fill="none" stroke="red" points="465.5,-529.5 621.5,-529.5 "/>
<text text-anchor="start" x="473.5" y="-517.5" font-family="Helvetica,sans-Serif" font-size="10.00">+ SetItemType()</text>
<text text-anchor="start" x="473.5" y="-506.5" font-family="Helvetica,sans-Serif" font-size="10.00">+ SetIconURL()</text>
<text text-anchor="start" x="473.5" y="-495.5" font-family="Helvetica,sans-Serif" font-size="10.00">+ SetIconRotation()</text>
<text text-anchor="start" x="473.5" y="-484.5" font-family="Helvetica,sans-Serif" font-size="10.00">+ OnAddedToInventory()</text>
<text text-anchor="start" x="473.5" y="-473.5" font-family="Helvetica,sans-Serif" font-size="10.00">+ GetItemType()</text>
<text text-anchor="start" x="473.5" y="-462.5" font-family="Helvetica,sans-Serif" font-size="10.00">+ GetIconURL()</text>
<text text-anchor="start" x="473.5" y="-451.5" font-family="Helvetica,sans-Serif" font-size="10.00">+ GetIconScale()</text>
<text text-anchor="start" x="473.5" y="-440.5" font-family="Helvetica,sans-Serif" font-size="10.00">+ GetIconRotation()</text>
<text text-anchor="start" x="473.5" y="-429.5" font-family="Helvetica,sans-Serif" font-size="10.00">+ GetBackgroundImageURL()</text>
<text text-anchor="start" x="473.5" y="-418.5" font-family="Helvetica,sans-Serif" font-size="10.00">+ StaticClass()</text>
</a>
</g>
</g>
<!-- Node26&#45;&gt;Node239 -->
<g id="edge13" class="edge"><title>Node26&#45;&gt;Node239</title>
<path fill="none" stroke="#404040" d="M737.969,-657.361C721.16,-649.45 695.717,-635.886 677.5,-619 664.389,-606.847 666.919,-598.859 654.5,-586 647.047,-578.282 642.731,-576.796 631.503,-568.426"/>
<polygon fill="none" stroke="#404040" points="631.397,-568.343 624.208,-567.78 621.962,-560.927 629.152,-561.49 631.397,-568.343"/>
<text text-anchor="middle" x="709.5" y="-605.5" font-family="Helvetica,sans-Serif" font-size="10.00"> +IconRotation</text>
<text text-anchor="middle" x="709.5" y="-594.5" font-family="Helvetica,sans-Serif" font-size="10.00">+IconScale</text>
</g>
<!-- Node13 -->
<g id="node6" class="node"><title>Node13</title>
<g id="a_node6"><a xlink:title=" ">
<polygon fill="none" stroke="#bfbfbf" points="436,-637.5 436,-694.5 471,-694.5 471,-637.5 436,-637.5"/>
<text text-anchor="middle" x="453.5" y="-682.5" font-family="Helvetica,sans-Serif" font-size="10.00">char</text>
<polyline fill="none" stroke="#bfbfbf" points="436,-675.5 471,-675.5 "/>
<text text-anchor="middle" x="453.5" y="-663.5" font-family="Helvetica,sans-Serif" font-size="10.00"> </text>
<polyline fill="none" stroke="#bfbfbf" points="436,-656.5 471,-656.5 "/>
<text text-anchor="middle" x="453.5" y="-644.5" font-family="Helvetica,sans-Serif" font-size="10.00"> </text>
</a>
</g>
</g>
<!-- Node13&#45;&gt;Node1 -->
<g id="edge16" class="edge"><title>Node13&#45;&gt;Node1</title>
<path fill="none" stroke="#404040" d="M452.956,-637.2C452.024,-587.977 450.156,-482.257 449.5,-393 449.275,-362.334 443.688,-354.111 449.5,-324 467.38,-231.377 478.624,-207.069 528.5,-127 541.146,-106.699 544.461,-100.057 564.5,-87 587.948,-71.7224 616.325,-60.6098 642.469,-52.7064"/>
<polygon fill="none" stroke="#404040" points="642.768,-52.6204 647.426,-47.1154 654.299,-49.2976 649.641,-54.8026 642.768,-52.6204"/>
<text text-anchor="middle" x="489.5" y="-361.5" font-family="Helvetica,sans-Serif" font-size="10.00"> +UnknownData01</text>
<text text-anchor="middle" x="489.5" y="-350.5" font-family="Helvetica,sans-Serif" font-size="10.00">+UnknownData00</text>
</g>
<!-- Node13&#45;&gt;Node190 -->
<g id="edge5" class="edge"><title>Node13&#45;&gt;Node190</title>
<path fill="none" stroke="#404040" d="M471.191,-665.385C518.135,-665.755 648.867,-662.505 745.5,-619 766.515,-609.539 766.815,-599.492 785.5,-586 812.044,-566.834 842.4,-547.315 868.968,-530.962"/>
<polygon fill="none" stroke="#404040" points="869.093,-530.885 872.125,-524.342 879.331,-524.625 876.299,-531.167 869.093,-530.885"/>
<text text-anchor="middle" x="825.5" y="-605.5" font-family="Helvetica,sans-Serif" font-size="10.00"> +UnknownData01</text>
<text text-anchor="middle" x="825.5" y="-594.5" font-family="Helvetica,sans-Serif" font-size="10.00">+UnknownData00</text>
</g>
<!-- Node237 -->
<g id="node8" class="node"><title>Node237</title>
<g id="a_node8"><a xlink:href="a25651.html" target="_top" xlink:title=" ">
<polygon fill="none" stroke="red" points="0,-324.5 0,-392.5 149,-392.5 149,-324.5 0,-324.5"/>
<text text-anchor="start" x="8" y="-380.5" font-family="Helvetica,sans-Serif" font-size="10.00">SDK::UNamedNotificationInput</text>
<text text-anchor="middle" x="74.5" y="-369.5" font-family="Helvetica,sans-Serif" font-size="10.00">Component</text>
<polyline fill="none" stroke="red" points="0,-362.5 149,-362.5 "/>
<text text-anchor="middle" x="74.5" y="-350.5" font-family="Helvetica,sans-Serif" font-size="10.00"> </text>
<polyline fill="none" stroke="red" points="0,-343.5 149,-343.5 "/>
<text text-anchor="start" x="8" y="-331.5" font-family="Helvetica,sans-Serif" font-size="10.00">+ StaticClass()</text>
</a>
</g>
</g>
<!-- Node13&#45;&gt;Node237 -->
<g id="edge11" class="edge"><title>Node13&#45;&gt;Node237</title>
<path fill="none" stroke="#404040" d="M435.813,-664.332C397.336,-662.244 303.993,-653.7 235.5,-619 151.033,-576.208 106.063,-466.826 86.59,-404.591"/>
<polygon fill="none" stroke="#404040" points="86.5004,-404.294 80.9366,-399.707 83.0313,-392.806 88.5951,-397.394 86.5004,-404.294"/>
<text text-anchor="middle" x="275.5" y="-600" font-family="Helvetica,sans-Serif" font-size="10.00"> +UnknownData00</text>
</g>
<!-- Node13&#45;&gt;Node239 -->
<g id="edge14" class="edge"><title>Node13&#45;&gt;Node239</title>
<path fill="none" stroke="#404040" d="M456.87,-637.378C459.483,-621.77 463.971,-602.201 471.5,-586 472.718,-583.379 474.017,-580.76 475.384,-578.151"/>
<polygon fill="none" stroke="#404040" points="475.485,-577.97 474.931,-570.78 481.354,-567.503 481.909,-574.693 475.485,-577.97"/>
<text text-anchor="middle" x="511.5" y="-605.5" font-family="Helvetica,sans-Serif" font-size="10.00"> +UnknownData01</text>
<text text-anchor="middle" x="511.5" y="-594.5" font-family="Helvetica,sans-Serif" font-size="10.00">+UnknownData00</text>
</g>
<!-- Node13&#45;&gt;Node245 -->
<g id="edge21" class="edge"><title>Node13&#45;&gt;Node245</title>
<path fill="none" stroke="#404040" d="M435.591,-655.717C409.599,-641.101 362.463,-610.004 343.5,-568 296.161,-463.139 340.836,-323.589 368.031,-256.615"/>
<polygon fill="none" stroke="#404040" points="368.105,-256.437 366.718,-249.361 372.717,-245.359 374.104,-252.436 368.105,-256.437"/>
<text text-anchor="middle" x="383.5" y="-487" font-family="Helvetica,sans-Serif" font-size="10.00"> +UnknownData00</text>
</g>
<!-- Node246 -->
<g id="node13" class="node"><title>Node246</title>
<g id="a_node13"><a xlink:href="a10795.html" target="_top" xlink:title=" ">
<polygon fill="none" stroke="red" points="640,-461 640,-518 779,-518 779,-461 640,-461"/>
<text text-anchor="middle" x="709.5" y="-506" font-family="Helvetica,sans-Serif" font-size="10.00">SDK::UFeedableComponent</text>
<polyline fill="none" stroke="red" points="640,-499 779,-499 "/>
<text text-anchor="middle" x="709.5" y="-487" font-family="Helvetica,sans-Serif" font-size="10.00"> </text>
<polyline fill="none" stroke="red" points="640,-480 779,-480 "/>
<text text-anchor="start" x="648" y="-468" font-family="Helvetica,sans-Serif" font-size="10.00">+ StaticClass()</text>
</a>
</g>
</g>
<!-- Node13&#45;&gt;Node246 -->
<g id="edge24" class="edge"><title>Node13&#45;&gt;Node246</title>
<path fill="none" stroke="#404040" d="M471.286,-660.237C492.484,-653.818 527.983,-640.63 551.5,-619 563.956,-607.543 557.234,-596.509 570.5,-586 592.324,-568.713 606.53,-582.162 630.5,-568 648.412,-557.418 665.305,-541.922 678.836,-527.563"/>
<polygon fill="none" stroke="#404040" points="679.141,-527.228 680.223,-520.098 687.22,-518.354 686.138,-525.484 679.141,-527.228"/>
<text text-anchor="middle" x="610.5" y="-605.5" font-family="Helvetica,sans-Serif" font-size="10.00"> +UnknownData01</text>
<text text-anchor="middle" x="610.5" y="-594.5" font-family="Helvetica,sans-Serif" font-size="10.00">+UnknownData00</text>
</g>
<!-- Node43 -->
<g id="node7" class="node"><title>Node43</title>
<g id="a_node7"><a xlink:title=" ">
<polygon fill="none" stroke="#bfbfbf" points="1100,-637.5 1100,-694.5 1135,-694.5 1135,-637.5 1100,-637.5"/>
<text text-anchor="middle" x="1117.5" y="-682.5" font-family="Helvetica,sans-Serif" font-size="10.00">bool</text>
<polyline fill="none" stroke="#bfbfbf" points="1100,-675.5 1135,-675.5 "/>
<text text-anchor="middle" x="1117.5" y="-663.5" font-family="Helvetica,sans-Serif" font-size="10.00"> </text>
<polyline fill="none" stroke="#bfbfbf" points="1100,-656.5 1135,-656.5 "/>
<text text-anchor="middle" x="1117.5" y="-644.5" font-family="Helvetica,sans-Serif" font-size="10.00"> </text>
</a>
</g>
</g>
<!-- Node43&#45;&gt;Node1 -->
<g id="edge22" class="edge"><title>Node43&#45;&gt;Node1</title>
<path fill="none" stroke="#404040" d="M1135.23,-656.782C1162.59,-642.963 1213.98,-612.183 1233.5,-568 1273.77,-476.86 1223.38,-197.026 1152.5,-127 1103.66,-78.7453 911.37,-53.1725 800.839,-42.1996"/>
<polygon fill="none" stroke="#404040" points="800.709,-42.187 794.35,-45.5881 788.765,-41.0267 795.124,-37.6256 800.709,-42.187"/>
<text text-anchor="middle" x="1269" y="-356" font-family="Helvetica,sans-Serif" font-size="10.00"> +CanIngest</text>
</g>
<!-- Node43&#45;&gt;Node2 -->
<g id="edge7" class="edge"><title>Node43&#45;&gt;Node2</title>
<path fill="none" stroke="#404040" d="M1135.12,-650.58C1153.02,-634.166 1176.07,-606.922 1160.5,-586 1143.88,-563.664 1119.41,-588.435 1100.5,-568 1025.13,-486.547 1103.14,-420.015 1047.5,-324 1040.76,-312.366 1032.31,-301.302 1023.04,-291.013"/>
<polygon fill="none" stroke="#404040" points="1022.94,-290.909 1015.92,-289.286 1014.71,-282.176 1021.74,-283.799 1022.94,-290.909"/>
<text text-anchor="middle" x="1167" y="-492.5" font-family="Helvetica,sans-Serif" font-size="10.00"> +OfferingEnabled</text>
<text text-anchor="middle" x="1167" y="-481.5" font-family="Helvetica,sans-Serif" font-size="10.00">+PropagateVisibilityToChildren</text>
</g>
<!-- Node43&#45;&gt;Node190 -->
<g id="edge6" class="edge"><title>Node43&#45;&gt;Node190</title>
<path fill="none" stroke="#404040" d="M1099.86,-652.191C1088.52,-643.508 1073.85,-631.393 1062.5,-619 1050.43,-605.816 1051.2,-599.517 1039.5,-586 1028.77,-573.602 1016.59,-561.094 1004.48,-549.397"/>
<polygon fill="none" stroke="#404040" points="1004.39,-549.31 997.289,-548.071 995.7,-541.037 1002.8,-542.276 1004.39,-549.31"/>
<text text-anchor="middle" x="1111.5" y="-605.5" font-family="Helvetica,sans-Serif" font-size="10.00"> +WaitForBankToLoad</text>
<text text-anchor="middle" x="1111.5" y="-594.5" font-family="Helvetica,sans-Serif" font-size="10.00">+CookedIsStopEvent</text>
</g>
<!-- Node43&#45;&gt;Node246 -->
<g id="edge25" class="edge"><title>Node43&#45;&gt;Node246</title>
<path fill="none" stroke="#404040" d="M1099.9,-662.787C1072.79,-658.579 1020.43,-647.182 986.5,-619 973.48,-608.188 981.314,-595.777 967.5,-586 931.711,-560.669 912.175,-581.629 870.5,-568 835.728,-556.629 798.825,-539.287 769.134,-523.889"/>
<polygon fill="none" stroke="#404040" points="768.748,-523.686 761.575,-524.433 758.127,-518.099 765.3,-517.353 768.748,-523.686"/>
<text text-anchor="middle" x="1011" y="-600" font-family="Helvetica,sans-Serif" font-size="10.00"> +Feedable</text>
</g>
<!-- Node237&#45;&gt;Node1 -->
<g id="edge10" class="edge"><title>Node237&#45;&gt;Node1</title>
<path fill="none" stroke="#404040" d="M44.691,-324.379C40.9235,-318.597 37.6428,-312.379 35.5,-306 10.1671,-230.586 -13.7688,-189.463 35.5,-127 72.6733,-79.8714 469.799,-50.5666 642.282,-39.9755"/>
<polygon fill="none" stroke="#404040" points="642.326,-39.9729 648.073,-35.6165 654.304,-39.2453 648.558,-43.6017 642.326,-39.9729"/>
<text text-anchor="middle" x="115" y="-214" font-family="Helvetica,sans-Serif" font-size="10.00"> +NamedNotificationInputComponent</text>
</g>
<!-- Node239&#45;&gt;Node1 -->
<g id="edge12" class="edge"><title>Node239&#45;&gt;Node1</title>
<path fill="none" stroke="#404040" d="M537.106,-411.346C530.985,-319.542 526.358,-172.902 554.5,-127 574.294,-94.7146 609.811,-73.0018 643.017,-58.8642"/>
<polygon fill="none" stroke="#404040" points="643.039,-58.8554 647.102,-52.8974 654.164,-54.3558 650.101,-60.3138 643.039,-58.8554"/>
<text text-anchor="middle" x="588" y="-214" font-family="Helvetica,sans-Serif" font-size="10.00"> +InventoryItem</text>
</g>
<!-- Node241 -->
<g id="node10" class="node"><title>Node241</title>
<g id="a_node10"><a xlink:href="a10967.html" target="_top" xlink:title=" ">
<polygon fill="none" stroke="red" points="1275.5,-182.5 1275.5,-250.5 1433.5,-250.5 1433.5,-182.5 1275.5,-182.5"/>
<text text-anchor="start" x="1283.5" y="-238.5" font-family="Helvetica,sans-Serif" font-size="10.00">SDK::UApplyStatusToConsumer</text>
<text text-anchor="middle" x="1354.5" y="-227.5" font-family="Helvetica,sans-Serif" font-size="10.00">Component</text>
<polyline fill="none" stroke="red" points="1275.5,-220.5 1433.5,-220.5 "/>
<text text-anchor="middle" x="1354.5" y="-208.5" font-family="Helvetica,sans-Serif" font-size="10.00"> </text>
<polyline fill="none" stroke="red" points="1275.5,-201.5 1433.5,-201.5 "/>
<text text-anchor="start" x="1283.5" y="-189.5" font-family="Helvetica,sans-Serif" font-size="10.00">+ StaticClass()</text>
</a>
</g>
</g>
<!-- Node241&#45;&gt;Node1 -->
<g id="edge15" class="edge"><title>Node241&#45;&gt;Node1</title>
<path fill="none" stroke="#404040" d="M1340.37,-182.345C1325.5,-151.938 1299.03,-108.472 1261.5,-87 1184.99,-43.2213 931.594,-35.9311 800.942,-35.1742"/>
<polygon fill="none" stroke="#404040" points="800.692,-35.1731 794.674,-39.1467 788.692,-35.1203 794.709,-31.1468 800.692,-35.1731"/>
<text text-anchor="middle" x="1373" y="-95.5" font-family="Helvetica,sans-Serif" font-size="10.00"> +ApplyStatusToConsumerComponent</text>
</g>
<!-- Node243 -->
<g id="node11" class="node"><title>Node243</title>
<g id="a_node11"><a xlink:href="a11159.html" target="_top" xlink:title=" ">
<polygon fill="none" stroke="red" points="1456,-182.5 1456,-250.5 1623,-250.5 1623,-182.5 1456,-182.5"/>
<text text-anchor="start" x="1464" y="-238.5" font-family="Helvetica,sans-Serif" font-size="10.00">SDK::UGiveItemUponConsumption</text>
<text text-anchor="middle" x="1539.5" y="-227.5" font-family="Helvetica,sans-Serif" font-size="10.00">Component</text>
<polyline fill="none" stroke="red" points="1456,-220.5 1623,-220.5 "/>
<text text-anchor="middle" x="1539.5" y="-208.5" font-family="Helvetica,sans-Serif" font-size="10.00"> </text>
<polyline fill="none" stroke="red" points="1456,-201.5 1623,-201.5 "/>
<text text-anchor="start" x="1464" y="-189.5" font-family="Helvetica,sans-Serif" font-size="10.00">+ StaticClass()</text>
</a>
</g>
</g>
<!-- Node243&#45;&gt;Node1 -->
<g id="edge18" class="edge"><title>Node243&#45;&gt;Node1</title>
<path fill="none" stroke="#404040" d="M1528.97,-182.268C1517.41,-151.805 1495.67,-108.3 1460.5,-87 1405.15,-53.4746 980.026,-40.8315 800.791,-36.9581"/>
<polygon fill="none" stroke="#404040" points="800.574,-36.9536 794.49,-40.8256 788.576,-36.6995 794.66,-32.8274 800.574,-36.9536"/>
<text text-anchor="start" x="1485.5" y="-101" font-family="Helvetica,sans-Serif" font-size="10.00"> +GiveItemUponConsumption</text>
<text text-anchor="middle" x="1549" y="-90" font-family="Helvetica,sans-Serif" font-size="10.00">Component</text>
</g>
<!-- Node245&#45;&gt;Node1 -->
<g id="edge19" class="edge"><title>Node245&#45;&gt;Node1</title>
<path fill="none" stroke="#404040" d="M374.603,-187.868C365.283,-159.139 356.767,-114.587 380.5,-87 413.585,-48.5429 552.29,-38.4331 642.286,-35.9926"/>
<polygon fill="none" stroke="#404040" points="642.375,-35.9905 648.278,-31.8477 654.372,-35.7026 648.47,-39.8454 642.375,-35.9905"/>
<text text-anchor="middle" x="414" y="-95.5" font-family="Helvetica,sans-Serif" font-size="10.00"> +IngestionStat</text>
</g>
<!-- Node246&#45;&gt;Node1 -->
<g id="edge23" class="edge"><title>Node246&#45;&gt;Node1</title>
<path fill="none" stroke="#404040" d="M680.551,-460.95C664.174,-443.296 645.264,-418.896 636.5,-393 599.111,-282.522 658.476,-147.511 695.469,-79.3525"/>
<polygon fill="none" stroke="#404040" points="695.606,-79.1049 695.013,-71.9182 701.419,-68.6067 702.012,-75.7934 695.606,-79.1049"/>
<text text-anchor="middle" x="721" y="-214" font-family="Helvetica,sans-Serif" font-size="10.00"> +FeedableComponent</text>
</g>
</g>
</svg>
        <g id="navigator" transform="translate(0 0)" fill="#404254">
                <rect fill="#f2f5e9" fill-opacity="0.5" stroke="#606060" stroke-width=".5" x="0" y="0" width="60" height="60"/>
                <use id="zoomplus" xlink:href="#zoomPlus" x="17" y="9" onmousedown="handleZoom(evt,'in')"/>
                <use id="zoomminus" xlink:href="#zoomMin" x="42" y="9" onmousedown="handleZoom(evt,'out')"/>
                <use id="reset" xlink:href="#resetDef" x="30" y="36" onmousedown="handleReset()"/>
                <g id="arrowUp" xlink:href="#dirArrow" transform="translate(30 24)" onmousedown="handlePan(0,-1)">
                  <use xlink:href="#rim" fill="#404040">
                        <set attributeName="fill" to="#808080" begin="arrowUp.mouseover" end="arrowUp.mouseout"/>
                  </use>
                  <path fill="none" stroke="white" stroke-width="1.5" d="M0,-3.0v7 M-2.5,-0.5L0,-3.0L2.5,-0.5"/>
                </g>
                <g id="arrowRight" xlink:href="#dirArrow" transform="rotate(90) translate(36 -43)" onmousedown="handlePan(1,0)">
                  <use xlink:href="#rim" fill="#404040">
                        <set attributeName="fill" to="#808080" begin="arrowRight.mouseover" end="arrowRight.mouseout"/>
                  </use>
                  <path fill="none" stroke="white" stroke-width="1.5" d="M0,-3.0v7 M-2.5,-0.5L0,-3.0L2.5,-0.5"/>
                </g>
                <g id="arrowDown" xlink:href="#dirArrow" transform="rotate(180) translate(-30 -48)" onmousedown="handlePan(0,1)">
                  <use xlink:href="#rim" fill="#404040">
                        <set attributeName="fill" to="#808080" begin="arrowDown.mouseover" end="arrowDown.mouseout"/>
                  </use>
                  <path fill="none" stroke="white" stroke-width="1.5" d="M0,-3.0v7 M-2.5,-0.5L0,-3.0L2.5,-0.5"/>
                </g>
                <g id="arrowLeft" xlink:href="#dirArrow" transform="rotate(270) translate(-36 17)" onmousedown="handlePan(-1,0)">
                  <use xlink:href="#rim" fill="#404040">
                        <set attributeName="fill" to="#808080" begin="arrowLeft.mouseover" end="arrowLeft.mouseout"/>
                  </use>
                  <path fill="none" stroke="white" stroke-width="1.5" d="M0,-3.0v7 M-2.5,-0.5L0,-3.0L2.5,-0.5"/>
                </g>
        </g>
        <svg viewBox="0 0 15 15" width="100%" height="30px" preserveAspectRatio="xMaxYMin meet">
         <g id="arrow_out" transform="scale(0.3 0.3)">
          <a xlink:href="a11193_org.svg" target="_base">
           <rect id="button" ry="5" rx="5" y="6" x="6" height="38" width="38"
                fill="#f2f5e9" fill-opacity="0.5" stroke="#606060" stroke-width="1.0"/>
           <path id="arrow"
             d="M 11.500037,31.436501 C 11.940474,20.09759 22.043105,11.32322 32.158766,21.979434 L 37.068811,17.246167 C 37.068811,17.246167 37.088388,32 37.088388,32 L 22.160133,31.978069 C 22.160133,31.978069 26.997745,27.140456 26.997745,27.140456 C 18.528582,18.264221 13.291696,25.230495 11.500037,31.436501 z"
             style="fill:#404040;"/>
          </a>
         </g>
        </svg>
</svg>
