<?xml version="1.0" encoding="UTF-8" standalone="no"?>
<!DOCTYPE svg PUBLIC "-//W3C//DTD SVG 1.1//EN"
 "http://www.w3.org/Graphics/SVG/1.1/DTD/svg11.dtd">
<!-- Generated by graphviz version 2.38.0 (20140413.2041)
 -->
<!-- Title: SDK::UVoyageModuleSettings Pages: 1 -->
<svg width="298pt" height="171pt"
 viewBox="0.00 0.00 297.50 171.00" xmlns="http://www.w3.org/2000/svg" xmlns:xlink="http://www.w3.org/1999/xlink">
<g id="graph0" class="graph" transform="scale(1 1) rotate(0) translate(4 167)">
<title>SDK::UVoyageModuleSettings</title>
<!-- Node1 -->
<g id="node1" class="node"><title>Node1</title>
<g id="a_node1"><a xlink:title=" ">
<polygon fill="#bfbfbf" stroke="black" points="66,-0.5 66,-57.5 216,-57.5 216,-0.5 66,-0.5"/>
<text text-anchor="middle" x="141" y="-45.5" font-family="Helvetica,sans-Serif" font-size="10.00">SDK::UVoyageModuleSettings</text>
<polyline fill="none" stroke="black" points="66,-38.5 216,-38.5 "/>
<text text-anchor="middle" x="141" y="-26.5" font-family="Helvetica,sans-Serif" font-size="10.00"> </text>
<polyline fill="none" stroke="black" points="66,-19.5 216,-19.5 "/>
<text text-anchor="start" x="74" y="-7.5" font-family="Helvetica,sans-Serif" font-size="10.00">+ StaticClass()</text>
</a>
</g>
</g>
<!-- Node2 -->
<g id="node2" class="node"><title>Node2</title>
<g id="a_node2"><a xlink:href="a27591.html" target="_top" xlink:title=" ">
<polygon fill="none" stroke="red" points="0,-105.5 0,-162.5 128,-162.5 128,-105.5 0,-105.5"/>
<text text-anchor="middle" x="64" y="-150.5" font-family="Helvetica,sans-Serif" font-size="10.00">SDK::UDeveloperSettings</text>
<polyline fill="none" stroke="red" points="0,-143.5 128,-143.5 "/>
<text text-anchor="middle" x="64" y="-131.5" font-family="Helvetica,sans-Serif" font-size="10.00"> </text>
<polyline fill="none" stroke="red" points="0,-124.5 128,-124.5 "/>
<text text-anchor="start" x="8" y="-112.5" font-family="Helvetica,sans-Serif" font-size="10.00">+ StaticClass()</text>
</a>
</g>
</g>
<!-- Node2&#45;&gt;Node1 -->
<g id="edge1" class="edge"><title>Node2&#45;&gt;Node1</title>
<path fill="none" stroke="midnightblue" d="M90.8051,-97.1438C100.478,-84.205 111.239,-69.8105 120.308,-57.6783"/>
<polygon fill="none" stroke="midnightblue" points="87.8189,-95.2929 84.6346,-105.398 93.4254,-99.4842 87.8189,-95.2929"/>
</g>
<!-- Node14 -->
<g id="node3" class="node"><title>Node14</title>
<g id="a_node3"><a xlink:href="a26419.html" target="_top" xlink:title=" ">
<polygon fill="none" stroke="red" points="146.5,-105.5 146.5,-162.5 289.5,-162.5 289.5,-105.5 146.5,-105.5"/>
<text text-anchor="middle" x="218" y="-150.5" font-family="Helvetica,sans-Serif" font-size="10.00">SDK::FStringAssetReference</text>
<polyline fill="none" stroke="red" points="146.5,-143.5 289.5,-143.5 "/>
<text text-anchor="middle" x="218" y="-131.5" font-family="Helvetica,sans-Serif" font-size="10.00"> </text>
<polyline fill="none" stroke="red" points="146.5,-124.5 289.5,-124.5 "/>
<text text-anchor="middle" x="218" y="-112.5" font-family="Helvetica,sans-Serif" font-size="10.00"> </text>
</a>
</g>
</g>
<!-- Node14&#45;&gt;Node1 -->
<g id="edge2" class="edge"><title>Node14&#45;&gt;Node1</title>
<path fill="none" stroke="#404040" d="M197.365,-105.398C188.648,-93.737 178.36,-79.9757 168.976,-67.423"/>
<polygon fill="none" stroke="#404040" points="168.877,-67.2895 162.08,-64.8789 161.692,-57.6783 168.488,-60.0889 168.877,-67.2895"/>
<text text-anchor="middle" x="229" y="-79" font-family="Helvetica,sans-Serif" font-size="10.00"> +QuestsConfigAsset</text>
</g>
</g>
</svg>
