<?xml version="1.0" encoding="UTF-8" standalone="no"?>
<!DOCTYPE svg PUBLIC "-//W3C//DTD SVG 1.1//EN"
 "http://www.w3.org/Graphics/SVG/1.1/DTD/svg11.dtd">
<!-- Generated by graphviz version 2.38.0 (20140413.2041)
 -->
<!-- Title: SDK::UAICharacterEngageEnemyMethod Pages: 1 -->
<!--zoomable 441 -->
<svg id="main" version="1.1" xmlns="http://www.w3.org/2000/svg" xmlns:xlink="http://www.w3.org/1999/xlink" xml:space="preserve" onload="init(evt)">
<style type="text/css"><![CDATA[
.edge:hover path { stroke: red; }
.edge:hover polygon { stroke: red; fill: red; }
]]></style>
<script type="text/javascript"><![CDATA[
var edges = document.getElementsByTagName('g');
if (edges && edges.length) {
  for (var i=0;i<edges.length;i++) {
    if (edges[i].id.substr(0,4)=='edge') {
      edges[i].setAttribute('class','edge');
    }
  }
}
]]></script>
        <defs>
                <circle id="rim" cx="0" cy="0" r="7"/>
                <circle id="rim2" cx="0" cy="0" r="3.5"/>
                <g id="zoomPlus">
                        <use xlink:href="#rim" fill="#404040">
                                <set attributeName="fill" to="#808080" begin="zoomplus.mouseover" end="zoomplus.mouseout"/>
                        </use>
                        <path d="M-4,0h8M0,-4v8" fill="none" stroke="white" stroke-width="1.5" pointer-events="none"/>
                </g>
                <g id="zoomMin">
                        <use xlink:href="#rim" fill="#404040">
                                <set attributeName="fill" to="#808080" begin="zoomminus.mouseover" end="zoomminus.mouseout"/>
                        </use>
                        <path d="M-4,0h8" fill="none" stroke="white" stroke-width="1.5" pointer-events="none"/>
                </g>
                <g id="dirArrow">
                        <path fill="none" stroke="white" stroke-width="1.5" d="M0,-3.0v7 M-2.5,-0.5L0,-3.0L2.5,-0.5"/>
                </g>
               <g id="resetDef">
                       <use xlink:href="#rim2" fill="#404040">
                               <set attributeName="fill" to="#808080" begin="reset.mouseover" end="reset.mouseout"/>
                       </use>
               </g>
        </defs>

<script type="text/javascript">
var viewWidth = 1036;
var viewHeight = 441;
var sectionId = 'dynsection-0';
</script>
<script xlink:href="svgpan.js"/>
<svg id="graph" class="graph">
<g id="viewport">
<title>SDK::UAICharacterEngageEnemyMethod</title>
<!-- Node1 -->
<g id="node1" class="node"><title>Node1</title>
<g id="a_node1"><a xlink:title=" ">
<polygon fill="#bfbfbf" stroke="black" points="422,-105.5 422,-173.5 586,-173.5 586,-105.5 422,-105.5"/>
<text text-anchor="start" x="430" y="-161.5" font-family="Helvetica,sans-Serif" font-size="10.00">SDK::UAICharacterEngageEnemy</text>
<text text-anchor="middle" x="504" y="-150.5" font-family="Helvetica,sans-Serif" font-size="10.00">Method</text>
<polyline fill="none" stroke="black" points="422,-143.5 586,-143.5 "/>
<text text-anchor="middle" x="504" y="-131.5" font-family="Helvetica,sans-Serif" font-size="10.00"> </text>
<polyline fill="none" stroke="black" points="422,-124.5 586,-124.5 "/>
<text text-anchor="start" x="430" y="-112.5" font-family="Helvetica,sans-Serif" font-size="10.00">+ StaticClass()</text>
</a>
</g>
</g>
<!-- Node3 -->
<g id="node3" class="node"><title>Node3</title>
<g id="a_node3"><a xlink:href="a11423.html" target="_top" xlink:title=" ">
<polygon fill="none" stroke="black" points="0,-0.5 0,-68.5 142,-68.5 142,-0.5 0,-0.5"/>
<text text-anchor="start" x="8" y="-56.5" font-family="Helvetica,sans-Serif" font-size="10.00">SDK::UExplosiveAICharacter</text>
<text text-anchor="middle" x="71" y="-45.5" font-family="Helvetica,sans-Serif" font-size="10.00">EngageEnemyMethod</text>
<polyline fill="none" stroke="black" points="0,-38.5 142,-38.5 "/>
<text text-anchor="middle" x="71" y="-26.5" font-family="Helvetica,sans-Serif" font-size="10.00"> </text>
<polyline fill="none" stroke="black" points="0,-19.5 142,-19.5 "/>
<text text-anchor="start" x="8" y="-7.5" font-family="Helvetica,sans-Serif" font-size="10.00">+ StaticClass()</text>
</a>
</g>
</g>
<!-- Node1&#45;&gt;Node3 -->
<g id="edge2" class="edge"><title>Node1&#45;&gt;Node3</title>
<path fill="none" stroke="midnightblue" d="M411.934,-125.603C339.961,-114.274 237.889,-95.4483 151,-69 148.119,-68.1231 145.2,-67.1787 142.266,-66.1827"/>
<polygon fill="none" stroke="midnightblue" points="411.466,-129.073 421.885,-127.152 412.542,-122.156 411.466,-129.073"/>
</g>
<!-- Node4 -->
<g id="node4" class="node"><title>Node4</title>
<g id="a_node4"><a xlink:href="a11407.html" target="_top" xlink:title=" ">
<polygon fill="none" stroke="black" points="160.5,-0.5 160.5,-68.5 311.5,-68.5 311.5,-0.5 160.5,-0.5"/>
<text text-anchor="start" x="168.5" y="-56.5" font-family="Helvetica,sans-Serif" font-size="10.00">SDK::UInteractableAICharacter</text>
<text text-anchor="middle" x="236" y="-45.5" font-family="Helvetica,sans-Serif" font-size="10.00">EngageEnemyMethod</text>
<polyline fill="none" stroke="black" points="160.5,-38.5 311.5,-38.5 "/>
<text text-anchor="middle" x="236" y="-26.5" font-family="Helvetica,sans-Serif" font-size="10.00"> </text>
<polyline fill="none" stroke="black" points="160.5,-19.5 311.5,-19.5 "/>
<text text-anchor="start" x="168.5" y="-7.5" font-family="Helvetica,sans-Serif" font-size="10.00">+ StaticClass()</text>
</a>
</g>
</g>
<!-- Node1&#45;&gt;Node4 -->
<g id="edge3" class="edge"><title>Node1&#45;&gt;Node4</title>
<path fill="none" stroke="midnightblue" d="M412.431,-104.29C382.884,-93.151 350.016,-80.6532 320,-69 317.219,-67.9204 314.388,-66.8165 311.53,-65.6979"/>
<polygon fill="none" stroke="midnightblue" points="411.307,-107.607 421.899,-107.856 413.775,-101.056 411.307,-107.607"/>
</g>
<!-- Node5 -->
<g id="node5" class="node"><title>Node5</title>
<g id="a_node5"><a xlink:href="a11411.html" target="_top" xlink:title=" ">
<polygon fill="none" stroke="black" points="329.5,-0.5 329.5,-68.5 496.5,-68.5 496.5,-0.5 329.5,-0.5"/>
<text text-anchor="start" x="337.5" y="-56.5" font-family="Helvetica,sans-Serif" font-size="10.00">SDK::ULongRangeGunAICharacter</text>
<text text-anchor="middle" x="413" y="-45.5" font-family="Helvetica,sans-Serif" font-size="10.00">EngageEnemyMethod</text>
<polyline fill="none" stroke="black" points="329.5,-38.5 496.5,-38.5 "/>
<text text-anchor="middle" x="413" y="-26.5" font-family="Helvetica,sans-Serif" font-size="10.00"> </text>
<polyline fill="none" stroke="black" points="329.5,-19.5 496.5,-19.5 "/>
<text text-anchor="start" x="337.5" y="-7.5" font-family="Helvetica,sans-Serif" font-size="10.00">+ StaticClass()</text>
</a>
</g>
</g>
<!-- Node1&#45;&gt;Node5 -->
<g id="edge4" class="edge"><title>Node1&#45;&gt;Node5</title>
<path fill="none" stroke="midnightblue" d="M467.981,-97.7318C459.441,-88.0655 450.435,-77.8714 442.239,-68.5947"/>
<polygon fill="none" stroke="midnightblue" points="465.462,-100.166 474.706,-105.343 470.708,-95.5317 465.462,-100.166"/>
</g>
<!-- Node6 -->
<g id="node6" class="node"><title>Node6</title>
<g id="a_node6"><a xlink:href="a11419.html" target="_top" xlink:title=" ">
<polygon fill="none" stroke="black" points="514.5,-0.5 514.5,-68.5 677.5,-68.5 677.5,-0.5 514.5,-0.5"/>
<text text-anchor="start" x="522.5" y="-56.5" font-family="Helvetica,sans-Serif" font-size="10.00">SDK::UMeleeWeaponAICharacter</text>
<text text-anchor="middle" x="596" y="-45.5" font-family="Helvetica,sans-Serif" font-size="10.00">EngageEnemyMethod</text>
<polyline fill="none" stroke="black" points="514.5,-38.5 677.5,-38.5 "/>
<text text-anchor="middle" x="596" y="-26.5" font-family="Helvetica,sans-Serif" font-size="10.00"> </text>
<polyline fill="none" stroke="black" points="514.5,-19.5 677.5,-19.5 "/>
<text text-anchor="start" x="522.5" y="-7.5" font-family="Helvetica,sans-Serif" font-size="10.00">+ StaticClass()</text>
</a>
</g>
</g>
<!-- Node1&#45;&gt;Node6 -->
<g id="edge5" class="edge"><title>Node1&#45;&gt;Node6</title>
<path fill="none" stroke="midnightblue" d="M540.414,-97.7318C549.048,-88.0655 558.154,-77.8714 566.44,-68.5947"/>
<polygon fill="none" stroke="midnightblue" points="537.667,-95.5535 533.616,-105.343 542.888,-100.217 537.667,-95.5535"/>
</g>
<!-- Node7 -->
<g id="node7" class="node"><title>Node7</title>
<g id="a_node7"><a xlink:href="a11415.html" target="_top" xlink:title=" ">
<polygon fill="none" stroke="black" points="696,-0.5 696,-68.5 866,-68.5 866,-0.5 696,-0.5"/>
<text text-anchor="start" x="704" y="-56.5" font-family="Helvetica,sans-Serif" font-size="10.00">SDK::UShortRangeGunAICharacter</text>
<text text-anchor="middle" x="781" y="-45.5" font-family="Helvetica,sans-Serif" font-size="10.00">EngageEnemyMethod</text>
<polyline fill="none" stroke="black" points="696,-38.5 866,-38.5 "/>
<text text-anchor="middle" x="781" y="-26.5" font-family="Helvetica,sans-Serif" font-size="10.00"> </text>
<polyline fill="none" stroke="black" points="696,-19.5 866,-19.5 "/>
<text text-anchor="start" x="704" y="-7.5" font-family="Helvetica,sans-Serif" font-size="10.00">+ StaticClass()</text>
</a>
</g>
</g>
<!-- Node1&#45;&gt;Node7 -->
<g id="edge6" class="edge"><title>Node1&#45;&gt;Node7</title>
<path fill="none" stroke="midnightblue" d="M595.771,-104.376C627.956,-92.4082 663.954,-79.0226 695.595,-67.257"/>
<polygon fill="none" stroke="midnightblue" points="594.512,-101.11 586.359,-107.875 596.952,-107.671 594.512,-101.11"/>
</g>
<!-- Node8 -->
<g id="node8" class="node"><title>Node8</title>
<g id="a_node8"><a xlink:href="a11427.html" target="_top" xlink:title=" ">
<polygon fill="none" stroke="black" points="884,-0.5 884,-68.5 1028,-68.5 1028,-0.5 884,-0.5"/>
<text text-anchor="start" x="892" y="-56.5" font-family="Helvetica,sans-Serif" font-size="10.00">SDK::UThrowableAICharacter</text>
<text text-anchor="middle" x="956" y="-45.5" font-family="Helvetica,sans-Serif" font-size="10.00">EngageEnemyMethod</text>
<polyline fill="none" stroke="black" points="884,-38.5 1028,-38.5 "/>
<text text-anchor="middle" x="956" y="-26.5" font-family="Helvetica,sans-Serif" font-size="10.00"> </text>
<polyline fill="none" stroke="black" points="884,-19.5 1028,-19.5 "/>
<text text-anchor="start" x="892" y="-7.5" font-family="Helvetica,sans-Serif" font-size="10.00">+ StaticClass()</text>
</a>
</g>
</g>
<!-- Node1&#45;&gt;Node8 -->
<g id="edge7" class="edge"><title>Node1&#45;&gt;Node8</title>
<path fill="none" stroke="midnightblue" d="M596.215,-126.646C672.054,-115.611 781.815,-96.6729 875,-69 877.918,-68.1336 880.874,-67.198 883.845,-66.2095"/>
<polygon fill="none" stroke="midnightblue" points="595.609,-123.197 586.209,-128.084 596.606,-130.126 595.609,-123.197"/>
</g>
<!-- Node2 -->
<g id="node2" class="node"><title>Node2</title>
<g id="a_node2"><a xlink:href="a26095.html" target="_top" xlink:title=" ">
<polygon fill="none" stroke="black" points="448,-210.5 448,-432.5 560,-432.5 560,-210.5 448,-210.5"/>
<text text-anchor="middle" x="504" y="-420.5" font-family="Helvetica,sans-Serif" font-size="10.00">SDK::UObject</text>
<polyline fill="none" stroke="black" points="448,-413.5 560,-413.5 "/>
<text text-anchor="start" x="456" y="-401.5" font-family="Helvetica,sans-Serif" font-size="10.00">+ Vtable</text>
<text text-anchor="start" x="456" y="-390.5" font-family="Helvetica,sans-Serif" font-size="10.00">+ ObjectFlags</text>
<text text-anchor="start" x="456" y="-379.5" font-family="Helvetica,sans-Serif" font-size="10.00">+ InternalIndex</text>
<text text-anchor="start" x="456" y="-368.5" font-family="Helvetica,sans-Serif" font-size="10.00">+ Class</text>
<text text-anchor="start" x="456" y="-357.5" font-family="Helvetica,sans-Serif" font-size="10.00">+ Name</text>
<text text-anchor="start" x="456" y="-346.5" font-family="Helvetica,sans-Serif" font-size="10.00">+ Outer</text>
<text text-anchor="start" x="456" y="-335.5" font-family="Helvetica,sans-Serif" font-size="10.00">+ GObjects</text>
<polyline fill="none" stroke="black" points="448,-328.5 560,-328.5 "/>
<text text-anchor="start" x="456" y="-316.5" font-family="Helvetica,sans-Serif" font-size="10.00">+ GetName()</text>
<text text-anchor="start" x="456" y="-305.5" font-family="Helvetica,sans-Serif" font-size="10.00">+ GetFullName()</text>
<text text-anchor="start" x="456" y="-294.5" font-family="Helvetica,sans-Serif" font-size="10.00">+ IsA()</text>
<text text-anchor="start" x="456" y="-283.5" font-family="Helvetica,sans-Serif" font-size="10.00">+ ProcessEvent()</text>
<text text-anchor="start" x="456" y="-272.5" font-family="Helvetica,sans-Serif" font-size="10.00">+ ExecuteUbergraph()</text>
<text text-anchor="start" x="456" y="-261.5" font-family="Helvetica,sans-Serif" font-size="10.00">+ StaticClass()</text>
<text text-anchor="start" x="456" y="-250.5" font-family="Helvetica,sans-Serif" font-size="10.00">+ GetGlobalObjects()</text>
<text text-anchor="start" x="456" y="-239.5" font-family="Helvetica,sans-Serif" font-size="10.00">+ FindObject()</text>
<text text-anchor="start" x="456" y="-228.5" font-family="Helvetica,sans-Serif" font-size="10.00">+ FindClass()</text>
<text text-anchor="start" x="456" y="-217.5" font-family="Helvetica,sans-Serif" font-size="10.00">+ GetObjectCasted()</text>
</a>
</g>
</g>
<!-- Node2&#45;&gt;Node1 -->
<g id="edge1" class="edge"><title>Node2&#45;&gt;Node1</title>
<path fill="none" stroke="midnightblue" d="M504,-200.221C504,-190.66 504,-181.615 504,-173.593"/>
<polygon fill="none" stroke="midnightblue" points="500.5,-200.35 504,-210.35 507.5,-200.35 500.5,-200.35"/>
</g>
</g>
</svg>
        <g id="navigator" transform="translate(0 0)" fill="#404254">
                <rect fill="#f2f5e9" fill-opacity="0.5" stroke="#606060" stroke-width=".5" x="0" y="0" width="60" height="60"/>
                <use id="zoomplus" xlink:href="#zoomPlus" x="17" y="9" onmousedown="handleZoom(evt,'in')"/>
                <use id="zoomminus" xlink:href="#zoomMin" x="42" y="9" onmousedown="handleZoom(evt,'out')"/>
                <use id="reset" xlink:href="#resetDef" x="30" y="36" onmousedown="handleReset()"/>
                <g id="arrowUp" xlink:href="#dirArrow" transform="translate(30 24)" onmousedown="handlePan(0,-1)">
                  <use xlink:href="#rim" fill="#404040">
                        <set attributeName="fill" to="#808080" begin="arrowUp.mouseover" end="arrowUp.mouseout"/>
                  </use>
                  <path fill="none" stroke="white" stroke-width="1.5" d="M0,-3.0v7 M-2.5,-0.5L0,-3.0L2.5,-0.5"/>
                </g>
                <g id="arrowRight" xlink:href="#dirArrow" transform="rotate(90) translate(36 -43)" onmousedown="handlePan(1,0)">
                  <use xlink:href="#rim" fill="#404040">
                        <set attributeName="fill" to="#808080" begin="arrowRight.mouseover" end="arrowRight.mouseout"/>
                  </use>
                  <path fill="none" stroke="white" stroke-width="1.5" d="M0,-3.0v7 M-2.5,-0.5L0,-3.0L2.5,-0.5"/>
                </g>
                <g id="arrowDown" xlink:href="#dirArrow" transform="rotate(180) translate(-30 -48)" onmousedown="handlePan(0,1)">
                  <use xlink:href="#rim" fill="#404040">
                        <set attributeName="fill" to="#808080" begin="arrowDown.mouseover" end="arrowDown.mouseout"/>
                  </use>
                  <path fill="none" stroke="white" stroke-width="1.5" d="M0,-3.0v7 M-2.5,-0.5L0,-3.0L2.5,-0.5"/>
                </g>
                <g id="arrowLeft" xlink:href="#dirArrow" transform="rotate(270) translate(-36 17)" onmousedown="handlePan(-1,0)">
                  <use xlink:href="#rim" fill="#404040">
                        <set attributeName="fill" to="#808080" begin="arrowLeft.mouseover" end="arrowLeft.mouseout"/>
                  </use>
                  <path fill="none" stroke="white" stroke-width="1.5" d="M0,-3.0v7 M-2.5,-0.5L0,-3.0L2.5,-0.5"/>
                </g>
        </g>
        <svg viewBox="0 0 15 15" width="100%" height="30px" preserveAspectRatio="xMaxYMin meet">
         <g id="arrow_out" transform="scale(0.3 0.3)">
          <a xlink:href="a11402_org.svg" target="_base">
           <rect id="button" ry="5" rx="5" y="6" x="6" height="38" width="38"
                fill="#f2f5e9" fill-opacity="0.5" stroke="#606060" stroke-width="1.0"/>
           <path id="arrow"
             d="M 11.500037,31.436501 C 11.940474,20.09759 22.043105,11.32322 32.158766,21.979434 L 37.068811,17.246167 C 37.068811,17.246167 37.088388,32 37.088388,32 L 22.160133,31.978069 C 22.160133,31.978069 26.997745,27.140456 26.997745,27.140456 C 18.528582,18.264221 13.291696,25.230495 11.500037,31.436501 z"
             style="fill:#404040;"/>
          </a>
         </g>
        </svg>
</svg>
