<?xml version="1.0" encoding="UTF-8" standalone="no"?>
<!DOCTYPE svg PUBLIC "-//W3C//DTD SVG 1.1//EN"
 "http://www.w3.org/Graphics/SVG/1.1/DTD/svg11.dtd">
<!-- Generated by graphviz version 2.38.0 (20140413.2041)
 -->
<!-- Title: SDK::ULandmarkFrameworkSettings Pages: 1 -->
<svg width="184pt" height="171pt"
 viewBox="0.00 0.00 184.00 171.00" xmlns="http://www.w3.org/2000/svg" xmlns:xlink="http://www.w3.org/1999/xlink">
<g id="graph0" class="graph" transform="scale(1 1) rotate(0) translate(4 167)">
<title>SDK::ULandmarkFrameworkSettings</title>
<!-- Node1 -->
<g id="node1" class="node"><title>Node1</title>
<g id="a_node1"><a xlink:title=" ">
<polygon fill="#bfbfbf" stroke="black" points="0,-0.5 0,-68.5 176,-68.5 176,-0.5 0,-0.5"/>
<text text-anchor="middle" x="88" y="-56.5" font-family="Helvetica,sans-Serif" font-size="10.00">SDK::ULandmarkFrameworkSettings</text>
<polyline fill="none" stroke="black" points="0,-49.5 176,-49.5 "/>
<text text-anchor="start" x="8" y="-37.5" font-family="Helvetica,sans-Serif" font-size="10.00">+ LandmarkAudioZoneRadius</text>
<text text-anchor="start" x="8" y="-26.5" font-family="Helvetica,sans-Serif" font-size="10.00">+ LandmarkAudioZoneHeight</text>
<polyline fill="none" stroke="black" points="0,-19.5 176,-19.5 "/>
<text text-anchor="start" x="8" y="-7.5" font-family="Helvetica,sans-Serif" font-size="10.00">+ StaticClass()</text>
</a>
</g>
</g>
<!-- Node2 -->
<g id="node2" class="node"><title>Node2</title>
<g id="a_node2"><a xlink:href="a27379.html" target="_top" xlink:title=" ">
<polygon fill="none" stroke="red" points="24,-105.5 24,-162.5 152,-162.5 152,-105.5 24,-105.5"/>
<text text-anchor="middle" x="88" y="-150.5" font-family="Helvetica,sans-Serif" font-size="10.00">SDK::UDeveloperSettings</text>
<polyline fill="none" stroke="red" points="24,-143.5 152,-143.5 "/>
<text text-anchor="start" x="32" y="-131.5" font-family="Helvetica,sans-Serif" font-size="10.00">+ UnknownData00</text>
<polyline fill="none" stroke="red" points="24,-124.5 152,-124.5 "/>
<text text-anchor="start" x="32" y="-112.5" font-family="Helvetica,sans-Serif" font-size="10.00">+ StaticClass()</text>
</a>
</g>
</g>
<!-- Node2&#45;&gt;Node1 -->
<g id="edge1" class="edge"><title>Node2&#45;&gt;Node1</title>
<path fill="none" stroke="midnightblue" d="M88,-95.0631C88,-86.3933 88,-77.2431 88,-68.7855"/>
<polygon fill="none" stroke="midnightblue" points="84.5001,-95.3212 88,-105.321 91.5001,-95.3212 84.5001,-95.3212"/>
</g>
</g>
</svg>
