<?xml version="1.0" encoding="UTF-8" standalone="no"?>
<!DOCTYPE svg PUBLIC "-//W3C//DTD SVG 1.1//EN"
 "http://www.w3.org/Graphics/SVG/1.1/DTD/svg11.dtd">
<!-- Generated by graphviz version 2.38.0 (20140413.2041)
 -->
<!-- Title: SDK::UNonVagueNonUniqueLandmarkComponent Pages: 1 -->
<svg width="456pt" height="650pt"
 viewBox="0.00 0.00 456.16 650.00" xmlns="http://www.w3.org/2000/svg" xmlns:xlink="http://www.w3.org/1999/xlink">
<g id="graph0" class="graph" transform="scale(1 1) rotate(0) translate(4 646)">
<title>SDK::UNonVagueNonUniqueLandmarkComponent</title>
<!-- Node1 -->
<g id="node1" class="node"><title>Node1</title>
<g id="a_node1"><a xlink:title=" ">
<polygon fill="#bfbfbf" stroke="black" points="128.662,-0.5 128.662,-68.5 313.662,-68.5 313.662,-0.5 128.662,-0.5"/>
<text text-anchor="start" x="136.662" y="-56.5" font-family="Helvetica,sans-Serif" font-size="10.00">SDK::UNonVagueNonUniqueLandmark</text>
<text text-anchor="middle" x="221.162" y="-45.5" font-family="Helvetica,sans-Serif" font-size="10.00">Component</text>
<polyline fill="none" stroke="black" points="128.662,-38.5 313.662,-38.5 "/>
<text text-anchor="middle" x="221.162" y="-26.5" font-family="Helvetica,sans-Serif" font-size="10.00"> </text>
<polyline fill="none" stroke="black" points="128.662,-19.5 313.662,-19.5 "/>
<text text-anchor="start" x="136.662" y="-7.5" font-family="Helvetica,sans-Serif" font-size="10.00">+ StaticClass()</text>
</a>
</g>
</g>
<!-- Node2 -->
<g id="node2" class="node"><title>Node2</title>
<g id="a_node2"><a xlink:href="a26363.html" target="_top" xlink:title=" ">
<polygon fill="none" stroke="red" points="133.162,-116.5 133.162,-426.5 309.162,-426.5 309.162,-116.5 133.162,-116.5"/>
<text text-anchor="middle" x="221.162" y="-414.5" font-family="Helvetica,sans-Serif" font-size="10.00">SDK::USceneComponent</text>
<polyline fill="none" stroke="red" points="133.162,-407.5 309.162,-407.5 "/>
<text text-anchor="start" x="141.162" y="-395.5" font-family="Helvetica,sans-Serif" font-size="10.00">+ bAbsoluteLocation</text>
<text text-anchor="start" x="141.162" y="-384.5" font-family="Helvetica,sans-Serif" font-size="10.00">+ bAbsoluteTranslation</text>
<text text-anchor="start" x="141.162" y="-373.5" font-family="Helvetica,sans-Serif" font-size="10.00">+ bAbsoluteRotation</text>
<text text-anchor="start" x="141.162" y="-362.5" font-family="Helvetica,sans-Serif" font-size="10.00">+ bShouldUpdatePhysicsVolume</text>
<text text-anchor="start" x="141.162" y="-351.5" font-family="Helvetica,sans-Serif" font-size="10.00">+ bBoundsChangeTriggersStreaming</text>
<text text-anchor="start" x="141.162" y="-340.5" font-family="Helvetica,sans-Serif" font-size="10.00">DataRebuild</text>
<text text-anchor="start" x="141.162" y="-329.5" font-family="Helvetica,sans-Serif" font-size="10.00">+ bUseAttachParentBound</text>
<text text-anchor="start" x="141.162" y="-318.5" font-family="Helvetica,sans-Serif" font-size="10.00">+ UnknownData00</text>
<text text-anchor="start" x="141.162" y="-307.5" font-family="Helvetica,sans-Serif" font-size="10.00">+ CacheRootVelocity</text>
<text text-anchor="start" x="141.162" y="-296.5" font-family="Helvetica,sans-Serif" font-size="10.00">+ bWorldToComponentUpdated</text>
<text text-anchor="start" x="141.162" y="-285.5" font-family="Helvetica,sans-Serif" font-size="10.00">+ UnknownData05</text>
<text text-anchor="start" x="141.162" y="-274.5" font-family="Helvetica,sans-Serif" font-size="10.00">+ UnknownData06</text>
<text text-anchor="start" x="141.162" y="-263.5" font-family="Helvetica,sans-Serif" font-size="10.00">+ UnknownData07</text>
<polyline fill="none" stroke="red" points="133.162,-256.5 309.162,-256.5 "/>
<text text-anchor="start" x="141.162" y="-244.5" font-family="Helvetica,sans-Serif" font-size="10.00">+ ToggleVisibility()</text>
<text text-anchor="start" x="141.162" y="-233.5" font-family="Helvetica,sans-Serif" font-size="10.00">+ SnapTo()</text>
<text text-anchor="start" x="141.162" y="-222.5" font-family="Helvetica,sans-Serif" font-size="10.00">+ SharesBasis()</text>
<text text-anchor="start" x="141.162" y="-211.5" font-family="Helvetica,sans-Serif" font-size="10.00">+ SetWorldScale3D()</text>
<text text-anchor="start" x="141.162" y="-200.5" font-family="Helvetica,sans-Serif" font-size="10.00">+ SetVisibility()</text>
<text text-anchor="start" x="141.162" y="-189.5" font-family="Helvetica,sans-Serif" font-size="10.00">+ SetRelativeScale3D()</text>
<text text-anchor="start" x="141.162" y="-178.5" font-family="Helvetica,sans-Serif" font-size="10.00">+ SetHiddenInGame()</text>
<text text-anchor="start" x="141.162" y="-167.5" font-family="Helvetica,sans-Serif" font-size="10.00">+ SetAbsolute()</text>
<text text-anchor="start" x="141.162" y="-156.5" font-family="Helvetica,sans-Serif" font-size="10.00">+ ResetRelativeTransform()</text>
<text text-anchor="start" x="141.162" y="-145.5" font-family="Helvetica,sans-Serif" font-size="10.00">+ OnRep_Visibility()</text>
<text text-anchor="start" x="141.162" y="-134.5" font-family="Helvetica,sans-Serif" font-size="10.00">and 45 more...</text>
<text text-anchor="start" x="141.162" y="-123.5" font-family="Helvetica,sans-Serif" font-size="10.00">+ StaticClass()</text>
</a>
</g>
</g>
<!-- Node2&#45;&gt;Node1 -->
<g id="edge1" class="edge"><title>Node2&#45;&gt;Node1</title>
<path fill="none" stroke="midnightblue" d="M221.162,-106.088C221.162,-92.1976 221.162,-79.3535 221.162,-68.5355"/>
<polygon fill="none" stroke="midnightblue" points="217.662,-106.374 221.162,-116.374 224.662,-106.374 217.662,-106.374"/>
</g>
<!-- Node2&#45;&gt;Node2 -->
<g id="edge3" class="edge"><title>Node2&#45;&gt;Node2</title>
<path fill="none" stroke="#404040" d="M309.296,-300.375C320.087,-295.205 327.162,-285.58 327.162,-271.5 327.162,-262.48 324.259,-255.288 319.334,-249.925"/>
<polygon fill="none" stroke="#404040" points="319.001,-249.682 311.796,-249.389 309.296,-242.625 316.501,-242.919 319.001,-249.682"/>
<text text-anchor="middle" x="360.662" y="-269" font-family="Helvetica,sans-Serif" font-size="10.00"> +AttachParent</text>
</g>
<!-- Node13 -->
<g id="node3" class="node"><title>Node13</title>
<g id="a_node3"><a xlink:title=" ">
<polygon fill="none" stroke="#bfbfbf" points="71.662,-584.5 71.662,-641.5 106.662,-641.5 106.662,-584.5 71.662,-584.5"/>
<text text-anchor="middle" x="89.162" y="-629.5" font-family="Helvetica,sans-Serif" font-size="10.00">char</text>
<polyline fill="none" stroke="#bfbfbf" points="71.662,-622.5 106.662,-622.5 "/>
<text text-anchor="middle" x="89.162" y="-610.5" font-family="Helvetica,sans-Serif" font-size="10.00"> </text>
<polyline fill="none" stroke="#bfbfbf" points="71.662,-603.5 106.662,-603.5 "/>
<text text-anchor="middle" x="89.162" y="-591.5" font-family="Helvetica,sans-Serif" font-size="10.00"> </text>
</a>
</g>
</g>
<!-- Node13&#45;&gt;Node1 -->
<g id="edge4" class="edge"><title>Node13&#45;&gt;Node1</title>
<path fill="none" stroke="#404040" d="M75.805,-584.5C39.1214,-504.632 -54.1245,-268.675 44.162,-116 61.0196,-89.8139 88.7133,-72.047 117.244,-60.0318"/>
<polygon fill="none" stroke="#404040" points="117.463,-59.9457 121.578,-54.0239 128.627,-55.5448 124.512,-61.4666 117.463,-59.9457"/>
<text text-anchor="middle" x="84.162" y="-269" font-family="Helvetica,sans-Serif" font-size="10.00"> +UnknownData00</text>
</g>
<!-- Node13&#45;&gt;Node2 -->
<g id="edge2" class="edge"><title>Node13&#45;&gt;Node2</title>
<path fill="none" stroke="#404040" d="M99.9641,-584.217C112.692,-551.48 134.899,-494.365 156.856,-437.892"/>
<polygon fill="none" stroke="#404040" points="156.893,-437.798 155.339,-430.757 161.241,-426.614 162.795,-433.656 156.893,-437.798"/>
<text text-anchor="middle" x="221.662" y="-558" font-family="Helvetica,sans-Serif" font-size="10.00"> +UnknownData01</text>
<text text-anchor="middle" x="221.662" y="-547" font-family="Helvetica,sans-Serif" font-size="10.00">+UnknownData02</text>
<text text-anchor="middle" x="221.662" y="-536" font-family="Helvetica,sans-Serif" font-size="10.00">+bComponentIsUnionOfChildren</text>
<text text-anchor="middle" x="221.662" y="-525" font-family="Helvetica,sans-Serif" font-size="10.00">+UnknownData03</text>
<text text-anchor="middle" x="221.662" y="-514" font-family="Helvetica,sans-Serif" font-size="10.00">+bJitterReduction</text>
<text text-anchor="middle" x="221.662" y="-503" font-family="Helvetica,sans-Serif" font-size="10.00">+bAbsoluteScale</text>
<text text-anchor="middle" x="221.662" y="-492" font-family="Helvetica,sans-Serif" font-size="10.00">+bRequiresCustomLocation</text>
<text text-anchor="middle" x="221.662" y="-481" font-family="Helvetica,sans-Serif" font-size="10.00">+UnknownData04</text>
<text text-anchor="middle" x="221.662" y="-470" font-family="Helvetica,sans-Serif" font-size="10.00">+bHiddenInGame</text>
<text text-anchor="middle" x="221.662" y="-459" font-family="Helvetica,sans-Serif" font-size="10.00">+bVisible</text>
<text text-anchor="middle" x="221.662" y="-448" font-family="Helvetica,sans-Serif" font-size="10.00">...</text>
</g>
<!-- Node19 -->
<g id="node4" class="node"><title>Node19</title>
<g id="a_node4"><a xlink:title=" ">
<polygon fill="none" stroke="#bfbfbf" points="412.662,-243 412.662,-300 447.662,-300 447.662,-243 412.662,-243"/>
<text text-anchor="middle" x="430.162" y="-288" font-family="Helvetica,sans-Serif" font-size="10.00">float</text>
<polyline fill="none" stroke="#bfbfbf" points="412.662,-281 447.662,-281 "/>
<text text-anchor="middle" x="430.162" y="-269" font-family="Helvetica,sans-Serif" font-size="10.00"> </text>
<polyline fill="none" stroke="#bfbfbf" points="412.662,-262 447.662,-262 "/>
<text text-anchor="middle" x="430.162" y="-250" font-family="Helvetica,sans-Serif" font-size="10.00"> </text>
</a>
</g>
</g>
<!-- Node19&#45;&gt;Node1 -->
<g id="edge5" class="edge"><title>Node19&#45;&gt;Node1</title>
<path fill="none" stroke="#404040" d="M432.695,-242.843C434.257,-209.292 431.845,-152.678 403.162,-116 383.535,-90.9017 354.431,-73.4396 325.224,-61.369"/>
<polygon fill="none" stroke="#404040" points="325.223,-61.3685 318.179,-62.9111 314.045,-57.0021 321.09,-55.4595 325.223,-61.3685"/>
<text text-anchor="middle" x="416.662" y="-90" font-family="Helvetica,sans-Serif" font-size="10.00"> +ExtraRadius</text>
</g>
</g>
</svg>
