<?xml version="1.0" encoding="UTF-8" standalone="no"?>
<!DOCTYPE svg PUBLIC "-//W3C//DTD SVG 1.1//EN"
 "http://www.w3.org/Graphics/SVG/1.1/DTD/svg11.dtd">
<!-- Generated by graphviz version 2.38.0 (20140413.2041)
 -->
<!-- Title: SDK::AGameEventService Pages: 1 -->
<svg width="500pt" height="628pt"
 viewBox="0.00 0.00 500.39 628.00" xmlns="http://www.w3.org/2000/svg" xmlns:xlink="http://www.w3.org/1999/xlink">
<g id="graph0" class="graph" transform="scale(1 1) rotate(0) translate(4 624)">
<title>SDK::AGameEventService</title>
<!-- Node1 -->
<g id="node1" class="node"><title>Node1</title>
<g id="a_node1"><a xlink:title=" ">
<polygon fill="#bfbfbf" stroke="black" points="151.39,-0.5 151.39,-57.5 282.39,-57.5 282.39,-0.5 151.39,-0.5"/>
<text text-anchor="middle" x="216.89" y="-45.5" font-family="Helvetica,sans-Serif" font-size="10.00">SDK::AGameEventService</text>
<polyline fill="none" stroke="black" points="151.39,-38.5 282.39,-38.5 "/>
<text text-anchor="middle" x="216.89" y="-26.5" font-family="Helvetica,sans-Serif" font-size="10.00"> </text>
<polyline fill="none" stroke="black" points="151.39,-19.5 282.39,-19.5 "/>
<text text-anchor="start" x="159.39" y="-7.5" font-family="Helvetica,sans-Serif" font-size="10.00">+ StaticClass()</text>
</a>
</g>
</g>
<!-- Node2 -->
<g id="node2" class="node"><title>Node2</title>
<g id="a_node2"><a xlink:href="a26343.html" target="_top" xlink:title=" ">
<polygon fill="none" stroke="red" points="133.39,-105.5 133.39,-404.5 300.39,-404.5 300.39,-105.5 133.39,-105.5"/>
<text text-anchor="middle" x="216.89" y="-392.5" font-family="Helvetica,sans-Serif" font-size="10.00">SDK::AActor</text>
<polyline fill="none" stroke="red" points="133.39,-385.5 300.39,-385.5 "/>
<text text-anchor="start" x="141.39" y="-373.5" font-family="Helvetica,sans-Serif" font-size="10.00">+ bAllowRemovalFromServerWhen</text>
<text text-anchor="start" x="141.39" y="-362.5" font-family="Helvetica,sans-Serif" font-size="10.00">CollisionMerged</text>
<text text-anchor="start" x="141.39" y="-351.5" font-family="Helvetica,sans-Serif" font-size="10.00">+ bHidden</text>
<text text-anchor="start" x="141.39" y="-340.5" font-family="Helvetica,sans-Serif" font-size="10.00">+ bNetStartup</text>
<text text-anchor="start" x="141.39" y="-329.5" font-family="Helvetica,sans-Serif" font-size="10.00">+ bOnlyRelevantToOwner</text>
<text text-anchor="start" x="141.39" y="-318.5" font-family="Helvetica,sans-Serif" font-size="10.00">+ bAlwaysRelevant</text>
<text text-anchor="start" x="141.39" y="-307.5" font-family="Helvetica,sans-Serif" font-size="10.00">+ bReplicateMovement</text>
<text text-anchor="start" x="141.39" y="-296.5" font-family="Helvetica,sans-Serif" font-size="10.00">+ bExchangedRoles</text>
<text text-anchor="start" x="141.39" y="-285.5" font-family="Helvetica,sans-Serif" font-size="10.00">+ bNetLoadOnClient</text>
<text text-anchor="start" x="141.39" y="-274.5" font-family="Helvetica,sans-Serif" font-size="10.00">+ bBlockInput</text>
<text text-anchor="start" x="141.39" y="-263.5" font-family="Helvetica,sans-Serif" font-size="10.00">+ UnknownData00</text>
<text text-anchor="start" x="141.39" y="-252.5" font-family="Helvetica,sans-Serif" font-size="10.00">and 26 more...</text>
<polyline fill="none" stroke="red" points="133.39,-245.5 300.39,-245.5 "/>
<text text-anchor="start" x="141.39" y="-233.5" font-family="Helvetica,sans-Serif" font-size="10.00">+ UserConstructionScript()</text>
<text text-anchor="start" x="141.39" y="-222.5" font-family="Helvetica,sans-Serif" font-size="10.00">+ TearOff()</text>
<text text-anchor="start" x="141.39" y="-211.5" font-family="Helvetica,sans-Serif" font-size="10.00">+ SnapRootComponentTo()</text>
<text text-anchor="start" x="141.39" y="-200.5" font-family="Helvetica,sans-Serif" font-size="10.00">+ SetTickGroup()</text>
<text text-anchor="start" x="141.39" y="-189.5" font-family="Helvetica,sans-Serif" font-size="10.00">+ SetTickableWhenPaused()</text>
<text text-anchor="start" x="141.39" y="-178.5" font-family="Helvetica,sans-Serif" font-size="10.00">+ SetReplicates()</text>
<text text-anchor="start" x="141.39" y="-167.5" font-family="Helvetica,sans-Serif" font-size="10.00">+ SetReplicateMovement()</text>
<text text-anchor="start" x="141.39" y="-156.5" font-family="Helvetica,sans-Serif" font-size="10.00">+ SetOwner()</text>
<text text-anchor="start" x="141.39" y="-145.5" font-family="Helvetica,sans-Serif" font-size="10.00">+ SetLifeSpan()</text>
<text text-anchor="start" x="141.39" y="-134.5" font-family="Helvetica,sans-Serif" font-size="10.00">+ SetIgnoreNetTransformUpdates()</text>
<text text-anchor="start" x="141.39" y="-123.5" font-family="Helvetica,sans-Serif" font-size="10.00">and 109 more...</text>
<text text-anchor="start" x="141.39" y="-112.5" font-family="Helvetica,sans-Serif" font-size="10.00">+ StaticClass()</text>
</a>
</g>
</g>
<!-- Node2&#45;&gt;Node1 -->
<g id="edge1" class="edge"><title>Node2&#45;&gt;Node1</title>
<path fill="none" stroke="midnightblue" d="M216.89,-94.8788C216.89,-80.9544 216.89,-68.2185 216.89,-57.7882"/>
<polygon fill="none" stroke="midnightblue" points="213.39,-95.2119 216.89,-105.212 220.39,-95.2119 213.39,-95.2119"/>
</g>
<!-- Node2&#45;&gt;Node2 -->
<g id="edge3" class="edge"><title>Node2&#45;&gt;Node2</title>
<path fill="none" stroke="#404040" d="M300.51,-283.264C311.277,-278.363 318.39,-268.941 318.39,-255 318.39,-246.069 315.471,-238.993 310.542,-233.771"/>
<polygon fill="none" stroke="#404040" points="310.335,-233.626 303.126,-233.456 300.51,-226.736 307.719,-226.906 310.335,-233.626"/>
<text text-anchor="middle" x="336.89" y="-252.5" font-family="Helvetica,sans-Serif" font-size="10.00"> +Owner</text>
</g>
<!-- Node12 -->
<g id="node3" class="node"><title>Node12</title>
<g id="a_node3"><a xlink:title=" ">
<polygon fill="none" stroke="#bfbfbf" points="70.3897,-562.5 70.3897,-619.5 105.39,-619.5 105.39,-562.5 70.3897,-562.5"/>
<text text-anchor="middle" x="87.8897" y="-607.5" font-family="Helvetica,sans-Serif" font-size="10.00">char</text>
<polyline fill="none" stroke="#bfbfbf" points="70.3897,-600.5 105.39,-600.5 "/>
<text text-anchor="middle" x="87.8897" y="-588.5" font-family="Helvetica,sans-Serif" font-size="10.00"> </text>
<polyline fill="none" stroke="#bfbfbf" points="70.3897,-581.5 105.39,-581.5 "/>
<text text-anchor="middle" x="87.8897" y="-569.5" font-family="Helvetica,sans-Serif" font-size="10.00"> </text>
</a>
</g>
</g>
<!-- Node12&#45;&gt;Node1 -->
<g id="edge4" class="edge"><title>Node12&#45;&gt;Node1</title>
<path fill="none" stroke="#404040" d="M74.4414,-562.464C38.047,-483.603 -53.3076,-253.076 43.8897,-105 65.1934,-72.5448 103.886,-54.0643 139.284,-43.5758"/>
<polygon fill="none" stroke="#404040" points="139.563,-43.4993 144.287,-38.0512 151.133,-40.3166 146.409,-45.7647 139.563,-43.4993"/>
<text text-anchor="middle" x="83.8897" y="-252.5" font-family="Helvetica,sans-Serif" font-size="10.00"> +UnknownData00</text>
</g>
<!-- Node12&#45;&gt;Node2 -->
<g id="edge2" class="edge"><title>Node12&#45;&gt;Node2</title>
<path fill="none" stroke="#404040" d="M98.556,-562.383C111.233,-529.562 133.418,-472.122 155.178,-415.78"/>
<polygon fill="none" stroke="#404040" points="155.198,-415.728 153.629,-408.689 159.522,-404.534 161.092,-411.572 155.198,-415.728"/>
<text text-anchor="middle" x="218.89" y="-536" font-family="Helvetica,sans-Serif" font-size="10.00"> +bEnableAutoLODGeneration</text>
<text text-anchor="middle" x="218.89" y="-525" font-family="Helvetica,sans-Serif" font-size="10.00">+UnknownData01</text>
<text text-anchor="middle" x="218.89" y="-514" font-family="Helvetica,sans-Serif" font-size="10.00">+bNetUseOwnerRelevancy</text>
<text text-anchor="middle" x="218.89" y="-503" font-family="Helvetica,sans-Serif" font-size="10.00">+bTearOff</text>
<text text-anchor="middle" x="218.89" y="-492" font-family="Helvetica,sans-Serif" font-size="10.00">+bNetTemporary</text>
<text text-anchor="middle" x="218.89" y="-481" font-family="Helvetica,sans-Serif" font-size="10.00">+UnknownData02</text>
<text text-anchor="middle" x="218.89" y="-470" font-family="Helvetica,sans-Serif" font-size="10.00">+bCanBeInCluster</text>
<text text-anchor="middle" x="218.89" y="-459" font-family="Helvetica,sans-Serif" font-size="10.00">+bPendingNetUpdate</text>
<text text-anchor="middle" x="218.89" y="-448" font-family="Helvetica,sans-Serif" font-size="10.00">+UnknownData10</text>
<text text-anchor="middle" x="218.89" y="-437" font-family="Helvetica,sans-Serif" font-size="10.00">+UnknownData03</text>
<text text-anchor="middle" x="218.89" y="-426" font-family="Helvetica,sans-Serif" font-size="10.00">...</text>
</g>
<!-- Node177 -->
<g id="node4" class="node"><title>Node177</title>
<g id="a_node4"><a xlink:href="a25611.html" target="_top" xlink:title=" ">
<polygon fill="none" stroke="black" points="373.39,-199 373.39,-311 492.39,-311 492.39,-199 373.39,-199"/>
<text text-anchor="start" x="381.39" y="-299" font-family="Helvetica,sans-Serif" font-size="10.00">SDK::TArray&lt; class</text>
<text text-anchor="middle" x="432.89" y="-288" font-family="Helvetica,sans-Serif" font-size="10.00"> SDK::AGameEvent * &gt;</text>
<polyline fill="none" stroke="black" points="373.39,-281 492.39,-281 "/>
<text text-anchor="middle" x="432.89" y="-269" font-family="Helvetica,sans-Serif" font-size="10.00"> </text>
<polyline fill="none" stroke="black" points="373.39,-262 492.39,-262 "/>
<text text-anchor="start" x="381.39" y="-250" font-family="Helvetica,sans-Serif" font-size="10.00">+ TArray()</text>
<text text-anchor="start" x="381.39" y="-239" font-family="Helvetica,sans-Serif" font-size="10.00">+ Num()</text>
<text text-anchor="start" x="381.39" y="-228" font-family="Helvetica,sans-Serif" font-size="10.00">+ operator[]()</text>
<text text-anchor="start" x="381.39" y="-217" font-family="Helvetica,sans-Serif" font-size="10.00">+ operator[]()</text>
<text text-anchor="start" x="381.39" y="-206" font-family="Helvetica,sans-Serif" font-size="10.00">+ IsValidIndex()</text>
</a>
</g>
</g>
<!-- Node177&#45;&gt;Node1 -->
<g id="edge5" class="edge"><title>Node177&#45;&gt;Node1</title>
<path fill="none" stroke="#404040" d="M417.241,-198.857C406.31,-168.248 389.096,-131.186 363.89,-105 344.505,-84.8628 318.547,-69.1815 293.84,-57.4845"/>
<polygon fill="none" stroke="#404040" points="293.533,-57.3453 286.416,-58.51 282.604,-52.3889 289.72,-51.2243 293.533,-57.3453"/>
<text text-anchor="middle" x="373.39" y="-79" font-family="Helvetica,sans-Serif" font-size="10.00"> +GameEvents</text>
</g>
</g>
</svg>
