<?xml version="1.0" encoding="UTF-8" standalone="no"?>
<!DOCTYPE svg PUBLIC "-//W3C//DTD SVG 1.1//EN"
 "http://www.w3.org/Graphics/SVG/1.1/DTD/svg11.dtd">
<!-- Generated by graphviz version 2.38.0 (20140413.2041)
 -->
<!-- Title: SDK::UEmblemDefinitionAssetList Pages: 1 -->
<svg width="271pt" height="237pt"
 viewBox="0.00 0.00 270.50 237.00" xmlns="http://www.w3.org/2000/svg" xmlns:xlink="http://www.w3.org/1999/xlink">
<g id="graph0" class="graph" transform="scale(1 1) rotate(0) translate(4 233)">
<title>SDK::UEmblemDefinitionAssetList</title>
<!-- Node1 -->
<g id="node1" class="node"><title>Node1</title>
<g id="a_node1"><a xlink:title=" ">
<polygon fill="#bfbfbf" stroke="black" points="34,-0.5 34,-57.5 201,-57.5 201,-0.5 34,-0.5"/>
<text text-anchor="middle" x="117.5" y="-45.5" font-family="Helvetica,sans-Serif" font-size="10.00">SDK::UEmblemDefinitionAssetList</text>
<polyline fill="none" stroke="black" points="34,-38.5 201,-38.5 "/>
<text text-anchor="middle" x="117.5" y="-26.5" font-family="Helvetica,sans-Serif" font-size="10.00"> </text>
<polyline fill="none" stroke="black" points="34,-19.5 201,-19.5 "/>
<text text-anchor="start" x="42" y="-7.5" font-family="Helvetica,sans-Serif" font-size="10.00">+ StaticClass()</text>
</a>
</g>
</g>
<!-- Node2 -->
<g id="node2" class="node"><title>Node2</title>
<g id="a_node2"><a xlink:href="a26559.html" target="_top" xlink:title=" ">
<polygon fill="none" stroke="red" points="0,-138.5 0,-195.5 95,-195.5 95,-138.5 0,-138.5"/>
<text text-anchor="middle" x="47.5" y="-183.5" font-family="Helvetica,sans-Serif" font-size="10.00">SDK::UDataAsset</text>
<polyline fill="none" stroke="red" points="0,-176.5 95,-176.5 "/>
<text text-anchor="middle" x="47.5" y="-164.5" font-family="Helvetica,sans-Serif" font-size="10.00"> </text>
<polyline fill="none" stroke="red" points="0,-157.5 95,-157.5 "/>
<text text-anchor="start" x="8" y="-145.5" font-family="Helvetica,sans-Serif" font-size="10.00">+ StaticClass()</text>
</a>
</g>
</g>
<!-- Node2&#45;&gt;Node1 -->
<g id="edge1" class="edge"><title>Node2&#45;&gt;Node1</title>
<path fill="none" stroke="midnightblue" d="M66.2586,-129.555C77.8347,-107.064 92.4566,-78.6557 103.115,-57.9475"/>
<polygon fill="none" stroke="midnightblue" points="63.1301,-127.985 61.6655,-138.478 69.354,-131.189 63.1301,-127.985"/>
</g>
<!-- Node14 -->
<g id="node3" class="node"><title>Node14</title>
<g id="a_node3"><a xlink:href="a25823.html" target="_top" xlink:title=" ">
<polygon fill="none" stroke="black" points="113,-105.5 113,-228.5 262,-228.5 262,-105.5 113,-105.5"/>
<text text-anchor="start" x="121" y="-216.5" font-family="Helvetica,sans-Serif" font-size="10.00">SDK::TArray&lt; class</text>
<text text-anchor="start" x="121" y="-205.5" font-family="Helvetica,sans-Serif" font-size="10.00"> SDK::UEmblemDefinitionData</text>
<text text-anchor="middle" x="187.5" y="-194.5" font-family="Helvetica,sans-Serif" font-size="10.00">Asset * &gt;</text>
<polyline fill="none" stroke="black" points="113,-187.5 262,-187.5 "/>
<text text-anchor="middle" x="187.5" y="-175.5" font-family="Helvetica,sans-Serif" font-size="10.00"> </text>
<polyline fill="none" stroke="black" points="113,-168.5 262,-168.5 "/>
<text text-anchor="start" x="121" y="-156.5" font-family="Helvetica,sans-Serif" font-size="10.00">+ TArray()</text>
<text text-anchor="start" x="121" y="-145.5" font-family="Helvetica,sans-Serif" font-size="10.00">+ Num()</text>
<text text-anchor="start" x="121" y="-134.5" font-family="Helvetica,sans-Serif" font-size="10.00">+ operator[]()</text>
<text text-anchor="start" x="121" y="-123.5" font-family="Helvetica,sans-Serif" font-size="10.00">+ operator[]()</text>
<text text-anchor="start" x="121" y="-112.5" font-family="Helvetica,sans-Serif" font-size="10.00">+ IsValidIndex()</text>
</a>
</g>
</g>
<!-- Node14&#45;&gt;Node1 -->
<g id="edge2" class="edge"><title>Node14&#45;&gt;Node1</title>
<path fill="none" stroke="#404040" d="M156.185,-105.16C149.797,-92.748 143.243,-80.0141 137.387,-68.6375"/>
<polygon fill="none" stroke="#404040" points="137.288,-68.445 130.985,-64.9408 131.796,-57.7753 138.099,-61.2796 137.288,-68.445"/>
<text text-anchor="middle" x="204.5" y="-79" font-family="Helvetica,sans-Serif" font-size="10.00"> +EmblemDefinitionAssets</text>
</g>
</g>
</svg>
