<?xml version="1.0" encoding="UTF-8" standalone="no"?>
<!DOCTYPE svg PUBLIC "-//W3C//DTD SVG 1.1//EN"
 "http://www.w3.org/Graphics/SVG/1.1/DTD/svg11.dtd">
<!-- Generated by graphviz version 2.38.0 (20140413.2041)
 -->
<!-- Title: SDK::UMechanismAnimationEvent_Audio Pages: 1 -->
<svg width="312pt" height="320pt"
 viewBox="0.00 0.00 312.00 320.00" xmlns="http://www.w3.org/2000/svg" xmlns:xlink="http://www.w3.org/1999/xlink">
<g id="graph0" class="graph" transform="scale(1 1) rotate(0) translate(4 316)">
<title>SDK::UMechanismAnimationEvent_Audio</title>
<!-- Node1 -->
<g id="node1" class="node"><title>Node1</title>
<g id="a_node1"><a xlink:title=" ">
<polygon fill="#bfbfbf" stroke="black" points="80,-116.5 80,-206.5 223,-206.5 223,-116.5 80,-116.5"/>
<text text-anchor="start" x="88" y="-194.5" font-family="Helvetica,sans-Serif" font-size="10.00">SDK::UMechanismAnimation</text>
<text text-anchor="middle" x="151.5" y="-183.5" font-family="Helvetica,sans-Serif" font-size="10.00">Event_Audio</text>
<polyline fill="none" stroke="black" points="80,-176.5 223,-176.5 "/>
<text text-anchor="start" x="88" y="-164.5" font-family="Helvetica,sans-Serif" font-size="10.00">+ Event</text>
<text text-anchor="start" x="88" y="-153.5" font-family="Helvetica,sans-Serif" font-size="10.00">+ Emitter</text>
<text text-anchor="start" x="88" y="-142.5" font-family="Helvetica,sans-Serif" font-size="10.00">+ UnknownData00</text>
<polyline fill="none" stroke="black" points="80,-135.5 223,-135.5 "/>
<text text-anchor="start" x="88" y="-123.5" font-family="Helvetica,sans-Serif" font-size="10.00">+ StaticClass()</text>
</a>
</g>
</g>
<!-- Node4 -->
<g id="node3" class="node"><title>Node4</title>
<g id="a_node3"><a xlink:href="a12131.html" target="_top" xlink:title=" ">
<polygon fill="none" stroke="black" points="0,-0.5 0,-79.5 143,-79.5 143,-0.5 0,-0.5"/>
<text text-anchor="start" x="8" y="-67.5" font-family="Helvetica,sans-Serif" font-size="10.00">SDK::UMechanismAnimation</text>
<text text-anchor="middle" x="71.5" y="-56.5" font-family="Helvetica,sans-Serif" font-size="10.00">Event_OneShotAudio</text>
<polyline fill="none" stroke="black" points="0,-49.5 143,-49.5 "/>
<text text-anchor="start" x="8" y="-37.5" font-family="Helvetica,sans-Serif" font-size="10.00">+ StartTime</text>
<text text-anchor="start" x="8" y="-26.5" font-family="Helvetica,sans-Serif" font-size="10.00">+ UnknownData00</text>
<polyline fill="none" stroke="black" points="0,-19.5 143,-19.5 "/>
<text text-anchor="start" x="8" y="-7.5" font-family="Helvetica,sans-Serif" font-size="10.00">+ StaticClass()</text>
</a>
</g>
</g>
<!-- Node1&#45;&gt;Node4 -->
<g id="edge2" class="edge"><title>Node1&#45;&gt;Node4</title>
<path fill="none" stroke="midnightblue" d="M116.224,-107.807C109.934,-98.4108 103.486,-88.7787 97.5134,-79.8576"/>
<polygon fill="none" stroke="midnightblue" points="113.467,-109.979 121.938,-116.342 119.284,-106.085 113.467,-109.979"/>
</g>
<!-- Node5 -->
<g id="node4" class="node"><title>Node5</title>
<g id="a_node4"><a xlink:href="a12135.html" target="_top" xlink:title=" ">
<polygon fill="none" stroke="black" points="161,-0.5 161,-79.5 304,-79.5 304,-0.5 161,-0.5"/>
<text text-anchor="start" x="169" y="-67.5" font-family="Helvetica,sans-Serif" font-size="10.00">SDK::UMechanismAnimation</text>
<text text-anchor="middle" x="232.5" y="-56.5" font-family="Helvetica,sans-Serif" font-size="10.00">Event_SwingAudio</text>
<polyline fill="none" stroke="black" points="161,-49.5 304,-49.5 "/>
<text text-anchor="start" x="169" y="-37.5" font-family="Helvetica,sans-Serif" font-size="10.00">+ Midpoint</text>
<text text-anchor="start" x="169" y="-26.5" font-family="Helvetica,sans-Serif" font-size="10.00">+ UnknownData00</text>
<polyline fill="none" stroke="black" points="161,-19.5 304,-19.5 "/>
<text text-anchor="start" x="169" y="-7.5" font-family="Helvetica,sans-Serif" font-size="10.00">+ StaticClass()</text>
</a>
</g>
</g>
<!-- Node1&#45;&gt;Node5 -->
<g id="edge3" class="edge"><title>Node1&#45;&gt;Node5</title>
<path fill="none" stroke="midnightblue" d="M187.217,-107.807C193.586,-98.4108 200.114,-88.7787 206.161,-79.8576"/>
<polygon fill="none" stroke="midnightblue" points="184.145,-106.101 181.431,-116.342 189.939,-110.028 184.145,-106.101"/>
</g>
<!-- Node2 -->
<g id="node2" class="node"><title>Node2</title>
<g id="a_node2"><a xlink:href="a12031.html" target="_top" xlink:title=" ">
<polygon fill="none" stroke="red" points="80,-243.5 80,-311.5 223,-311.5 223,-243.5 80,-243.5"/>
<text text-anchor="start" x="88" y="-299.5" font-family="Helvetica,sans-Serif" font-size="10.00">SDK::UMechanismAnimation</text>
<text text-anchor="middle" x="151.5" y="-288.5" font-family="Helvetica,sans-Serif" font-size="10.00">Event</text>
<polyline fill="none" stroke="red" points="80,-281.5 223,-281.5 "/>
<text text-anchor="start" x="88" y="-269.5" font-family="Helvetica,sans-Serif" font-size="10.00">+ UnknownData00</text>
<polyline fill="none" stroke="red" points="80,-262.5 223,-262.5 "/>
<text text-anchor="start" x="88" y="-250.5" font-family="Helvetica,sans-Serif" font-size="10.00">+ StaticClass()</text>
</a>
</g>
</g>
<!-- Node2&#45;&gt;Node1 -->
<g id="edge1" class="edge"><title>Node2&#45;&gt;Node1</title>
<path fill="none" stroke="midnightblue" d="M151.5,-232.972C151.5,-224.346 151.5,-215.284 151.5,-206.638"/>
<polygon fill="none" stroke="midnightblue" points="148,-233.22 151.5,-243.22 155,-233.22 148,-233.22"/>
</g>
</g>
</svg>
