<?xml version="1.0" encoding="UTF-8" standalone="no"?>
<!DOCTYPE svg PUBLIC "-//W3C//DTD SVG 1.1//EN"
 "http://www.w3.org/Graphics/SVG/1.1/DTD/svg11.dtd">
<!-- Generated by graphviz version 2.38.0 (20140413.2041)
 -->
<!-- Title: SDK::UScorchStatus Pages: 1 -->
<svg width="117pt" height="160pt"
 viewBox="0.00 0.00 117.00 160.00" xmlns="http://www.w3.org/2000/svg" xmlns:xlink="http://www.w3.org/1999/xlink">
<g id="graph0" class="graph" transform="scale(1 1) rotate(0) translate(4 156)">
<title>SDK::UScorchStatus</title>
<!-- Node1 -->
<g id="node1" class="node"><title>Node1</title>
<g id="a_node1"><a xlink:title=" ">
<polygon fill="#bfbfbf" stroke="black" points="0,-0.5 0,-57.5 109,-57.5 109,-0.5 0,-0.5"/>
<text text-anchor="middle" x="54.5" y="-45.5" font-family="Helvetica,sans-Serif" font-size="10.00">SDK::UScorchStatus</text>
<polyline fill="none" stroke="black" points="0,-38.5 109,-38.5 "/>
<text text-anchor="middle" x="54.5" y="-26.5" font-family="Helvetica,sans-Serif" font-size="10.00"> </text>
<polyline fill="none" stroke="black" points="0,-19.5 109,-19.5 "/>
<text text-anchor="start" x="8" y="-7.5" font-family="Helvetica,sans-Serif" font-size="10.00">+ StaticClass()</text>
</a>
</g>
</g>
<!-- Node2 -->
<g id="node2" class="node"><title>Node2</title>
<g id="a_node2"><a xlink:href="a34655.html" target="_top" xlink:title=" ">
<polygon fill="none" stroke="red" points="4,-94.5 4,-151.5 105,-151.5 105,-94.5 4,-94.5"/>
<text text-anchor="middle" x="54.5" y="-139.5" font-family="Helvetica,sans-Serif" font-size="10.00">SDK::UStatusBase</text>
<polyline fill="none" stroke="red" points="4,-132.5 105,-132.5 "/>
<text text-anchor="middle" x="54.5" y="-120.5" font-family="Helvetica,sans-Serif" font-size="10.00"> </text>
<polyline fill="none" stroke="red" points="4,-113.5 105,-113.5 "/>
<text text-anchor="start" x="12" y="-101.5" font-family="Helvetica,sans-Serif" font-size="10.00">+ StaticClass()</text>
</a>
</g>
</g>
<!-- Node2&#45;&gt;Node1 -->
<g id="edge1" class="edge"><title>Node2&#45;&gt;Node1</title>
<path fill="none" stroke="midnightblue" d="M54.5,-84.2092C54.5,-75.2929 54.5,-65.9513 54.5,-57.5836"/>
<polygon fill="none" stroke="midnightblue" points="51.0001,-84.3969 54.5,-94.397 58.0001,-84.397 51.0001,-84.3969"/>
</g>
</g>
</svg>
