<?xml version="1.0" encoding="UTF-8" standalone="no"?>
<!DOCTYPE svg PUBLIC "-//W3C//DTD SVG 1.1//EN"
 "http://www.w3.org/Graphics/SVG/1.1/DTD/svg11.dtd">
<!-- Generated by graphviz version 2.38.0 (20140413.2041)
 -->
<!-- Title: SDK::UProjectileCooldownServiceSettings Pages: 1 -->
<svg width="501pt" height="342pt"
 viewBox="0.00 0.00 500.78 342.00" xmlns="http://www.w3.org/2000/svg" xmlns:xlink="http://www.w3.org/1999/xlink">
<g id="graph0" class="graph" transform="scale(1 1) rotate(0) translate(4 338)">
<title>SDK::UProjectileCooldownServiceSettings</title>
<!-- Node1 -->
<g id="node1" class="node"><title>Node1</title>
<g id="a_node1"><a xlink:title=" ">
<polygon fill="#bfbfbf" stroke="black" points="158.782,-0.5 158.782,-68.5 290.782,-68.5 290.782,-0.5 158.782,-0.5"/>
<text text-anchor="start" x="166.782" y="-56.5" font-family="Helvetica,sans-Serif" font-size="10.00">SDK::UProjectileCooldown</text>
<text text-anchor="middle" x="224.782" y="-45.5" font-family="Helvetica,sans-Serif" font-size="10.00">ServiceSettings</text>
<polyline fill="none" stroke="black" points="158.782,-38.5 290.782,-38.5 "/>
<text text-anchor="middle" x="224.782" y="-26.5" font-family="Helvetica,sans-Serif" font-size="10.00"> </text>
<polyline fill="none" stroke="black" points="158.782,-19.5 290.782,-19.5 "/>
<text text-anchor="start" x="166.782" y="-7.5" font-family="Helvetica,sans-Serif" font-size="10.00">+ StaticClass()</text>
</a>
</g>
</g>
<!-- Node2 -->
<g id="node2" class="node"><title>Node2</title>
<g id="a_node2"><a xlink:href="a27591.html" target="_top" xlink:title=" ">
<polygon fill="none" stroke="red" points="103.782,-144 103.782,-201 231.782,-201 231.782,-144 103.782,-144"/>
<text text-anchor="middle" x="167.782" y="-189" font-family="Helvetica,sans-Serif" font-size="10.00">SDK::UDeveloperSettings</text>
<polyline fill="none" stroke="red" points="103.782,-182 231.782,-182 "/>
<text text-anchor="middle" x="167.782" y="-170" font-family="Helvetica,sans-Serif" font-size="10.00"> </text>
<polyline fill="none" stroke="red" points="103.782,-163 231.782,-163 "/>
<text text-anchor="start" x="111.782" y="-151" font-family="Helvetica,sans-Serif" font-size="10.00">+ StaticClass()</text>
</a>
</g>
</g>
<!-- Node2&#45;&gt;Node1 -->
<g id="edge1" class="edge"><title>Node2&#45;&gt;Node1</title>
<path fill="none" stroke="midnightblue" d="M183.24,-134.619C191.853,-114.068 202.492,-88.6831 210.848,-68.7476"/>
<polygon fill="none" stroke="midnightblue" points="179.955,-133.403 179.317,-143.978 186.411,-136.109 179.955,-133.403"/>
</g>
<!-- Node12 -->
<g id="node3" class="node"><title>Node12</title>
<g id="a_node3"><a xlink:title=" ">
<polygon fill="none" stroke="#bfbfbf" points="36.2824,-276.5 36.2824,-333.5 71.2824,-333.5 71.2824,-276.5 36.2824,-276.5"/>
<text text-anchor="middle" x="53.7824" y="-321.5" font-family="Helvetica,sans-Serif" font-size="10.00">char</text>
<polyline fill="none" stroke="#bfbfbf" points="36.2824,-314.5 71.2824,-314.5 "/>
<text text-anchor="middle" x="53.7824" y="-302.5" font-family="Helvetica,sans-Serif" font-size="10.00"> </text>
<polyline fill="none" stroke="#bfbfbf" points="36.2824,-295.5 71.2824,-295.5 "/>
<text text-anchor="middle" x="53.7824" y="-283.5" font-family="Helvetica,sans-Serif" font-size="10.00"> </text>
</a>
</g>
</g>
<!-- Node12&#45;&gt;Node1 -->
<g id="edge3" class="edge"><title>Node12&#45;&gt;Node1</title>
<path fill="none" stroke="#404040" d="M36.1444,-276.551C13.5125,-237.491 -19.025,-165.166 14.7824,-116 44.2918,-73.0848 100.063,-53.0363 146.717,-43.6763"/>
<polygon fill="none" stroke="#404040" points="146.87,-43.6482 152.043,-38.6242 158.67,-41.467 153.497,-46.4909 146.87,-43.6482"/>
<text text-anchor="middle" x="54.7824" y="-170" font-family="Helvetica,sans-Serif" font-size="10.00"> +UnknownData00</text>
</g>
<!-- Node12&#45;&gt;Node2 -->
<g id="edge2" class="edge"><title>Node12&#45;&gt;Node2</title>
<path fill="none" stroke="#404040" d="M71.345,-283.895C88.4377,-264.329 114.811,-234.139 135.659,-210.272"/>
<polygon fill="none" stroke="#404040" points="135.741,-210.179 136.675,-203.029 143.635,-201.142 142.7,-208.292 135.741,-210.179"/>
<text text-anchor="middle" x="140.782" y="-250" font-family="Helvetica,sans-Serif" font-size="10.00"> +UnknownData00</text>
</g>
<!-- Node14 -->
<g id="node4" class="node"><title>Node14</title>
<g id="a_node4"><a xlink:title=" ">
<polygon fill="none" stroke="#bfbfbf" points="250.282,-144 250.282,-201 285.282,-201 285.282,-144 250.282,-144"/>
<text text-anchor="middle" x="267.782" y="-189" font-family="Helvetica,sans-Serif" font-size="10.00">float</text>
<polyline fill="none" stroke="#bfbfbf" points="250.282,-182 285.282,-182 "/>
<text text-anchor="middle" x="267.782" y="-170" font-family="Helvetica,sans-Serif" font-size="10.00"> </text>
<polyline fill="none" stroke="#bfbfbf" points="250.282,-163 285.282,-163 "/>
<text text-anchor="middle" x="267.782" y="-151" font-family="Helvetica,sans-Serif" font-size="10.00"> </text>
</a>
</g>
</g>
<!-- Node14&#45;&gt;Node1 -->
<g id="edge4" class="edge"><title>Node14&#45;&gt;Node1</title>
<path fill="none" stroke="#404040" d="M259.081,-143.978C253.31,-125.726 245.605,-101.357 238.96,-80.34"/>
<polygon fill="none" stroke="#404040" points="238.912,-80.1893 233.289,-75.6743 235.294,-68.7476 240.917,-73.2626 238.912,-80.1893"/>
<text text-anchor="middle" x="300.282" y="-90" font-family="Helvetica,sans-Serif" font-size="10.00"> +ProjectileCooldownTime</text>
</g>
<!-- Node15 -->
<g id="node5" class="node"><title>Node15</title>
<g id="a_node5"><a xlink:href="a25823.html" target="_top" xlink:title=" ">
<polygon fill="none" stroke="black" points="327.782,-116.5 327.782,-228.5 431.782,-228.5 431.782,-116.5 327.782,-116.5"/>
<text text-anchor="start" x="335.782" y="-216.5" font-family="Helvetica,sans-Serif" font-size="10.00">SDK::TArray&lt; class</text>
<text text-anchor="middle" x="379.782" y="-205.5" font-family="Helvetica,sans-Serif" font-size="10.00"> SDK::UClass * &gt;</text>
<polyline fill="none" stroke="black" points="327.782,-198.5 431.782,-198.5 "/>
<text text-anchor="middle" x="379.782" y="-186.5" font-family="Helvetica,sans-Serif" font-size="10.00"> </text>
<polyline fill="none" stroke="black" points="327.782,-179.5 431.782,-179.5 "/>
<text text-anchor="start" x="335.782" y="-167.5" font-family="Helvetica,sans-Serif" font-size="10.00">+ TArray()</text>
<text text-anchor="start" x="335.782" y="-156.5" font-family="Helvetica,sans-Serif" font-size="10.00">+ Num()</text>
<text text-anchor="start" x="335.782" y="-145.5" font-family="Helvetica,sans-Serif" font-size="10.00">+ operator[]()</text>
<text text-anchor="start" x="335.782" y="-134.5" font-family="Helvetica,sans-Serif" font-size="10.00">+ operator[]()</text>
<text text-anchor="start" x="335.782" y="-123.5" font-family="Helvetica,sans-Serif" font-size="10.00">+ IsValidIndex()</text>
</a>
</g>
</g>
<!-- Node15&#45;&gt;Node1 -->
<g id="edge5" class="edge"><title>Node15&#45;&gt;Node1</title>
<path fill="none" stroke="#404040" d="M373.417,-116.358C370.099,-105.681 365.146,-95.2608 357.782,-87 343.253,-70.7004 322.952,-59.5193 302.58,-51.8644"/>
<polygon fill="none" stroke="#404040" points="302.302,-51.7687 295.326,-53.5955 290.957,-47.8588 297.933,-46.032 302.302,-51.7687"/>
<text text-anchor="middle" x="428.782" y="-90" font-family="Helvetica,sans-Serif" font-size="10.00"> +ClassesRequiringValidation</text>
</g>
</g>
</svg>
