<?xml version="1.0" encoding="UTF-8" standalone="no"?>
<!DOCTYPE svg PUBLIC "-//W3C//DTD SVG 1.1//EN"
 "http://www.w3.org/Graphics/SVG/1.1/DTD/svg11.dtd">
<!-- Generated by graphviz version 2.38.0 (20140413.2041)
 -->
<!-- Title: SDK::FSpawnedItem Pages: 1 -->
<svg width="323pt" height="215pt"
 viewBox="0.00 0.00 323.00 215.00" xmlns="http://www.w3.org/2000/svg" xmlns:xlink="http://www.w3.org/1999/xlink">
<g id="graph0" class="graph" transform="scale(1 1) rotate(0) translate(4 211)">
<title>SDK::FSpawnedItem</title>
<!-- Node1 -->
<g id="node1" class="node"><title>Node1</title>
<g id="a_node1"><a xlink:title=" ">
<polygon fill="#bfbfbf" stroke="black" points="67,-0.5 67,-57.5 174,-57.5 174,-0.5 67,-0.5"/>
<text text-anchor="middle" x="120.5" y="-45.5" font-family="Helvetica,sans-Serif" font-size="10.00">SDK::FSpawnedItem</text>
<polyline fill="none" stroke="black" points="67,-38.5 174,-38.5 "/>
<text text-anchor="middle" x="120.5" y="-26.5" font-family="Helvetica,sans-Serif" font-size="10.00"> </text>
<polyline fill="none" stroke="black" points="67,-19.5 174,-19.5 "/>
<text text-anchor="middle" x="120.5" y="-7.5" font-family="Helvetica,sans-Serif" font-size="10.00"> </text>
</a>
</g>
</g>
<!-- Node2 -->
<g id="node2" class="node"><title>Node2</title>
<g id="a_node2"><a xlink:title=" ">
<polygon fill="none" stroke="#bfbfbf" points="0,-127.5 0,-184.5 35,-184.5 35,-127.5 0,-127.5"/>
<text text-anchor="middle" x="17.5" y="-172.5" font-family="Helvetica,sans-Serif" font-size="10.00">char</text>
<polyline fill="none" stroke="#bfbfbf" points="0,-165.5 35,-165.5 "/>
<text text-anchor="middle" x="17.5" y="-153.5" font-family="Helvetica,sans-Serif" font-size="10.00"> </text>
<polyline fill="none" stroke="#bfbfbf" points="0,-146.5 35,-146.5 "/>
<text text-anchor="middle" x="17.5" y="-134.5" font-family="Helvetica,sans-Serif" font-size="10.00"> </text>
</a>
</g>
</g>
<!-- Node2&#45;&gt;Node1 -->
<g id="edge1" class="edge"><title>Node2&#45;&gt;Node1</title>
<path fill="none" stroke="#404040" d="M18.6365,-127.387C20.5617,-111.021 25.2739,-90.6786 36.5,-76 41.9781,-68.8372 48.9051,-62.6448 56.4213,-57.3331"/>
<polygon fill="none" stroke="#404040" points="56.4567,-57.3105 59.3595,-50.7094 66.5692,-50.85 63.6665,-57.4511 56.4567,-57.3105"/>
<text text-anchor="middle" x="76.5" y="-79" font-family="Helvetica,sans-Serif" font-size="10.00"> +UnknownData00</text>
</g>
<!-- Node3 -->
<g id="node3" class="node"><title>Node3</title>
<g id="a_node3"><a xlink:href="a00623.html" target="_top" xlink:title=" ">
<polygon fill="none" stroke="red" points="61.5,-127.5 61.5,-184.5 179.5,-184.5 179.5,-127.5 61.5,-127.5"/>
<text text-anchor="middle" x="120.5" y="-172.5" font-family="Helvetica,sans-Serif" font-size="10.00">SDK::UItemSpawnData</text>
<polyline fill="none" stroke="red" points="61.5,-165.5 179.5,-165.5 "/>
<text text-anchor="middle" x="120.5" y="-153.5" font-family="Helvetica,sans-Serif" font-size="10.00"> </text>
<polyline fill="none" stroke="red" points="61.5,-146.5 179.5,-146.5 "/>
<text text-anchor="start" x="69.5" y="-134.5" font-family="Helvetica,sans-Serif" font-size="10.00">+ StaticClass()</text>
</a>
</g>
</g>
<!-- Node3&#45;&gt;Node1 -->
<g id="edge2" class="edge"><title>Node3&#45;&gt;Node1</title>
<path fill="none" stroke="#404040" d="M120.5,-127.258C120.5,-110.347 120.5,-88.457 120.5,-69.7276"/>
<polygon fill="none" stroke="#404040" points="120.5,-69.664 116.5,-63.664 120.5,-57.664 124.5,-63.664 120.5,-69.664"/>
<text text-anchor="middle" x="159.5" y="-79" font-family="Helvetica,sans-Serif" font-size="10.00"> +ItemSpawnData</text>
</g>
<!-- Node14 -->
<g id="node4" class="node"><title>Node14</title>
<g id="a_node4"><a xlink:href="a25667.html" target="_top" xlink:title=" ">
<polygon fill="none" stroke="red" points="198,-105.5 198,-206.5 315,-206.5 315,-105.5 198,-105.5"/>
<text text-anchor="start" x="206" y="-194.5" font-family="Helvetica,sans-Serif" font-size="10.00">SDK::TWeakObjectPtr</text>
<text text-anchor="middle" x="256.5" y="-183.5" font-family="Helvetica,sans-Serif" font-size="10.00">&lt; class SDK::AActor &gt;</text>
<polyline fill="none" stroke="red" points="198,-176.5 315,-176.5 "/>
<text text-anchor="middle" x="256.5" y="-164.5" font-family="Helvetica,sans-Serif" font-size="10.00"> </text>
<polyline fill="none" stroke="red" points="198,-157.5 315,-157.5 "/>
<text text-anchor="start" x="206" y="-145.5" font-family="Helvetica,sans-Serif" font-size="10.00">+ Get()</text>
<text text-anchor="start" x="206" y="-134.5" font-family="Helvetica,sans-Serif" font-size="10.00">+ operator*()</text>
<text text-anchor="start" x="206" y="-123.5" font-family="Helvetica,sans-Serif" font-size="10.00">+ operator&#45;&gt;()</text>
<text text-anchor="start" x="206" y="-112.5" font-family="Helvetica,sans-Serif" font-size="10.00">+ IsValid()</text>
</a>
</g>
</g>
<!-- Node14&#45;&gt;Node1 -->
<g id="edge3" class="edge"><title>Node14&#45;&gt;Node1</title>
<path fill="none" stroke="#404040" d="M227.766,-105.398C220.357,-94.9508 211.814,-84.5249 202.5,-76 196.969,-70.9372 190.782,-66.2101 184.354,-61.8614"/>
<polygon fill="none" stroke="#404040" points="184.236,-61.7868 177.027,-61.9408 174.112,-55.3451 181.321,-55.1911 184.236,-61.7868"/>
<text text-anchor="middle" x="249" y="-79" font-family="Helvetica,sans-Serif" font-size="10.00"> +SpawnedActor</text>
</g>
</g>
</svg>
