<?xml version="1.0" encoding="UTF-8" standalone="no"?>
<!DOCTYPE svg PUBLIC "-//W3C//DTD SVG 1.1//EN"
 "http://www.w3.org/Graphics/SVG/1.1/DTD/svg11.dtd">
<!-- Generated by graphviz version 2.38.0 (20140413.2041)
 -->
<!-- Title: SDK::FOneShotAnimationElement Pages: 1 -->
<svg width="445pt" height="226pt"
 viewBox="0.00 0.00 445.00 226.00" xmlns="http://www.w3.org/2000/svg" xmlns:xlink="http://www.w3.org/1999/xlink">
<g id="graph0" class="graph" transform="scale(1 1) rotate(0) translate(4 222)">
<title>SDK::FOneShotAnimationElement</title>
<!-- Node1 -->
<g id="node1" class="node"><title>Node1</title>
<g id="a_node1"><a xlink:title=" ">
<polygon fill="#bfbfbf" stroke="black" points="172.5,-0.5 172.5,-57.5 339.5,-57.5 339.5,-0.5 172.5,-0.5"/>
<text text-anchor="middle" x="256" y="-45.5" font-family="Helvetica,sans-Serif" font-size="10.00">SDK::FOneShotAnimationElement</text>
<polyline fill="none" stroke="black" points="172.5,-38.5 339.5,-38.5 "/>
<text text-anchor="middle" x="256" y="-26.5" font-family="Helvetica,sans-Serif" font-size="10.00"> </text>
<polyline fill="none" stroke="black" points="172.5,-19.5 339.5,-19.5 "/>
<text text-anchor="middle" x="256" y="-7.5" font-family="Helvetica,sans-Serif" font-size="10.00"> </text>
</a>
</g>
</g>
<!-- Node2 -->
<g id="node2" class="node"><title>Node2</title>
<g id="a_node2"><a xlink:href="a25611.html" target="_top" xlink:title=" ">
<polygon fill="none" stroke="black" points="0,-105.5 0,-217.5 134,-217.5 134,-105.5 0,-105.5"/>
<text text-anchor="start" x="8" y="-205.5" font-family="Helvetica,sans-Serif" font-size="10.00">SDK::TArray&lt; class</text>
<text text-anchor="middle" x="67" y="-194.5" font-family="Helvetica,sans-Serif" font-size="10.00"> SDK::UAnimSequence * &gt;</text>
<polyline fill="none" stroke="black" points="0,-187.5 134,-187.5 "/>
<text text-anchor="middle" x="67" y="-175.5" font-family="Helvetica,sans-Serif" font-size="10.00"> </text>
<polyline fill="none" stroke="black" points="0,-168.5 134,-168.5 "/>
<text text-anchor="start" x="8" y="-156.5" font-family="Helvetica,sans-Serif" font-size="10.00">+ TArray()</text>
<text text-anchor="start" x="8" y="-145.5" font-family="Helvetica,sans-Serif" font-size="10.00">+ Num()</text>
<text text-anchor="start" x="8" y="-134.5" font-family="Helvetica,sans-Serif" font-size="10.00">+ operator[]()</text>
<text text-anchor="start" x="8" y="-123.5" font-family="Helvetica,sans-Serif" font-size="10.00">+ operator[]()</text>
<text text-anchor="start" x="8" y="-112.5" font-family="Helvetica,sans-Serif" font-size="10.00">+ IsValidIndex()</text>
</a>
</g>
</g>
<!-- Node2&#45;&gt;Node1 -->
<g id="edge1" class="edge"><title>Node2&#45;&gt;Node1</title>
<path fill="none" stroke="#404040" d="M85.5987,-105.466C91.3688,-94.5275 98.7273,-83.9734 108,-76 123.108,-63.0093 141.859,-53.6852 160.881,-46.9933"/>
<polygon fill="none" stroke="#404040" points="160.993,-46.9571 165.466,-41.3006 172.407,-43.2538 167.934,-48.9102 160.993,-46.9571"/>
<text text-anchor="middle" x="153.5" y="-79" font-family="Helvetica,sans-Serif" font-size="10.00"> +OneShotSequence</text>
</g>
<!-- Node3 -->
<g id="node3" class="node"><title>Node3</title>
<g id="a_node3"><a xlink:href="a25627.html" target="_top" xlink:title=" ">
<polygon fill="none" stroke="red" points="152,-105.5 152,-217.5 258,-217.5 258,-105.5 152,-105.5"/>
<text text-anchor="middle" x="205" y="-205.5" font-family="Helvetica,sans-Serif" font-size="10.00">SDK::FName</text>
<polyline fill="none" stroke="red" points="152,-198.5 258,-198.5 "/>
<text text-anchor="middle" x="205" y="-186.5" font-family="Helvetica,sans-Serif" font-size="10.00"> </text>
<polyline fill="none" stroke="red" points="152,-179.5 258,-179.5 "/>
<text text-anchor="start" x="160" y="-167.5" font-family="Helvetica,sans-Serif" font-size="10.00">+ FName()</text>
<text text-anchor="start" x="160" y="-156.5" font-family="Helvetica,sans-Serif" font-size="10.00">+ FName()</text>
<text text-anchor="start" x="160" y="-145.5" font-family="Helvetica,sans-Serif" font-size="10.00">+ FName()</text>
<text text-anchor="start" x="160" y="-134.5" font-family="Helvetica,sans-Serif" font-size="10.00">+ GetName()</text>
<text text-anchor="start" x="160" y="-123.5" font-family="Helvetica,sans-Serif" font-size="10.00">+ operator==()</text>
<text text-anchor="start" x="160" y="-112.5" font-family="Helvetica,sans-Serif" font-size="10.00">+ GetGlobalNames()</text>
</a>
</g>
</g>
<!-- Node3&#45;&gt;Node1 -->
<g id="edge2" class="edge"><title>Node3&#45;&gt;Node1</title>
<path fill="none" stroke="#404040" d="M199.252,-105.461C199.962,-95.3447 201.937,-85.1116 206,-76 207.35,-72.9735 209.005,-70.0573 210.883,-67.2636"/>
<polygon fill="none" stroke="#404040" points="211.025,-67.0858 211.64,-59.901 218.509,-57.7054 217.894,-64.8902 211.025,-67.0858"/>
<text text-anchor="middle" x="245.5" y="-79" font-family="Helvetica,sans-Serif" font-size="10.00"> +SequenceName</text>
</g>
<!-- Node6 -->
<g id="node4" class="node"><title>Node6</title>
<g id="a_node4"><a xlink:title=" ">
<polygon fill="none" stroke="#bfbfbf" points="289.5,-133 289.5,-190 324.5,-190 324.5,-133 289.5,-133"/>
<text text-anchor="middle" x="307" y="-178" font-family="Helvetica,sans-Serif" font-size="10.00">char</text>
<polyline fill="none" stroke="#bfbfbf" points="289.5,-171 324.5,-171 "/>
<text text-anchor="middle" x="307" y="-159" font-family="Helvetica,sans-Serif" font-size="10.00"> </text>
<polyline fill="none" stroke="#bfbfbf" points="289.5,-152 324.5,-152 "/>
<text text-anchor="middle" x="307" y="-140" font-family="Helvetica,sans-Serif" font-size="10.00"> </text>
</a>
</g>
</g>
<!-- Node6&#45;&gt;Node1 -->
<g id="edge3" class="edge"><title>Node6&#45;&gt;Node1</title>
<path fill="none" stroke="#404040" d="M302.03,-132.77C298.466,-115.923 292.89,-94.2238 285,-76 283.933,-73.5363 282.746,-71.0524 281.477,-68.583"/>
<polygon fill="none" stroke="#404040" points="281.39,-68.4267 274.967,-65.1484 275.523,-57.9587 281.946,-61.237 281.39,-68.4267"/>
<text text-anchor="middle" x="329" y="-79" font-family="Helvetica,sans-Serif" font-size="10.00"> +UnknownData00</text>
</g>
<!-- Node7 -->
<g id="node5" class="node"><title>Node7</title>
<g id="a_node5"><a xlink:title=" ">
<polygon fill="none" stroke="#bfbfbf" points="392.5,-133 392.5,-190 427.5,-190 427.5,-133 392.5,-133"/>
<text text-anchor="middle" x="410" y="-178" font-family="Helvetica,sans-Serif" font-size="10.00">float</text>
<polyline fill="none" stroke="#bfbfbf" points="392.5,-171 427.5,-171 "/>
<text text-anchor="middle" x="410" y="-159" font-family="Helvetica,sans-Serif" font-size="10.00"> </text>
<polyline fill="none" stroke="#bfbfbf" points="392.5,-152 427.5,-152 "/>
<text text-anchor="middle" x="410" y="-140" font-family="Helvetica,sans-Serif" font-size="10.00"> </text>
</a>
</g>
</g>
<!-- Node7&#45;&gt;Node1 -->
<g id="edge4" class="edge"><title>Node7&#45;&gt;Node1</title>
<path fill="none" stroke="#404040" d="M403.812,-132.96C398.43,-114.684 388.922,-91.3267 373,-76 366.256,-69.5079 358.487,-63.9 350.226,-59.0622"/>
<polygon fill="none" stroke="#404040" points="350.118,-59.0042 342.94,-59.6969 339.54,-53.3376 346.718,-52.645 350.118,-59.0042"/>
<text text-anchor="middle" x="409.5" y="-79" font-family="Helvetica,sans-Serif" font-size="10.00"> +EffectTime</text>
</g>
</g>
</svg>
