<?xml version="1.0" encoding="UTF-8" standalone="no"?>
<!DOCTYPE svg PUBLIC "-//W3C//DTD SVG 1.1//EN"
 "http://www.w3.org/Graphics/SVG/1.1/DTD/svg11.dtd">
<!-- Generated by graphviz version 2.38.0 (20140413.2041)
 -->
<!-- Title: SDK::FAthenaAnimationHarpoonLauncherAnimData Pages: 1 -->
<svg width="274pt" height="259pt"
 viewBox="0.00 0.00 273.50 259.00" xmlns="http://www.w3.org/2000/svg" xmlns:xlink="http://www.w3.org/1999/xlink">
<g id="graph0" class="graph" transform="scale(1 1) rotate(0) translate(4 255)">
<title>SDK::FAthenaAnimationHarpoonLauncherAnimData</title>
<!-- Node1 -->
<g id="node1" class="node"><title>Node1</title>
<g id="a_node1"><a xlink:title=" ">
<polygon fill="#bfbfbf" stroke="black" points="48.5,-0.5 48.5,-68.5 207.5,-68.5 207.5,-0.5 48.5,-0.5"/>
<text text-anchor="start" x="56.5" y="-56.5" font-family="Helvetica,sans-Serif" font-size="10.00">SDK::FAthenaAnimationHarpoon</text>
<text text-anchor="middle" x="128" y="-45.5" font-family="Helvetica,sans-Serif" font-size="10.00">LauncherAnimData</text>
<polyline fill="none" stroke="black" points="48.5,-38.5 207.5,-38.5 "/>
<text text-anchor="middle" x="128" y="-26.5" font-family="Helvetica,sans-Serif" font-size="10.00"> </text>
<polyline fill="none" stroke="black" points="48.5,-19.5 207.5,-19.5 "/>
<text text-anchor="middle" x="128" y="-7.5" font-family="Helvetica,sans-Serif" font-size="10.00"> </text>
</a>
</g>
</g>
<!-- Node2 -->
<g id="node2" class="node"><title>Node2</title>
<g id="a_node2"><a xlink:href="a27535.html" target="_top" xlink:title=" ">
<polygon fill="none" stroke="red" points="0,-166 0,-223 114,-223 114,-166 0,-166"/>
<text text-anchor="middle" x="57" y="-211" font-family="Helvetica,sans-Serif" font-size="10.00">SDK::UBlendSpace1D</text>
<polyline fill="none" stroke="red" points="0,-204 114,-204 "/>
<text text-anchor="middle" x="57" y="-192" font-family="Helvetica,sans-Serif" font-size="10.00"> </text>
<polyline fill="none" stroke="red" points="0,-185 114,-185 "/>
<text text-anchor="start" x="8" y="-173" font-family="Helvetica,sans-Serif" font-size="10.00">+ StaticClass()</text>
</a>
</g>
</g>
<!-- Node2&#45;&gt;Node1 -->
<g id="edge1" class="edge"><title>Node2&#45;&gt;Node1</title>
<path fill="none" stroke="#404040" d="M69.3673,-165.979C80.0526,-142.2 95.6904,-107.4 108.129,-79.7191"/>
<polygon fill="none" stroke="#404040" points="108.149,-79.676 106.959,-72.5636 113.067,-68.7303 114.257,-75.8427 108.149,-79.676"/>
<text text-anchor="middle" x="131" y="-112" font-family="Helvetica,sans-Serif" font-size="10.00"> +FireAction</text>
<text text-anchor="middle" x="131" y="-101" font-family="Helvetica,sans-Serif" font-size="10.00">+FireInto</text>
<text text-anchor="middle" x="131" y="-90" font-family="Helvetica,sans-Serif" font-size="10.00">+FireOutOf</text>
</g>
<!-- Node35 -->
<g id="node3" class="node"><title>Node35</title>
<g id="a_node3"><a xlink:href="a25611.html" target="_top" xlink:title=" ">
<polygon fill="none" stroke="black" points="132.5,-138.5 132.5,-250.5 265.5,-250.5 265.5,-138.5 132.5,-138.5"/>
<text text-anchor="start" x="140.5" y="-238.5" font-family="Helvetica,sans-Serif" font-size="10.00">SDK::TArray&lt; class</text>
<text text-anchor="middle" x="199" y="-227.5" font-family="Helvetica,sans-Serif" font-size="10.00"> SDK::UBlendSpace1D * &gt;</text>
<polyline fill="none" stroke="black" points="132.5,-220.5 265.5,-220.5 "/>
<text text-anchor="middle" x="199" y="-208.5" font-family="Helvetica,sans-Serif" font-size="10.00"> </text>
<polyline fill="none" stroke="black" points="132.5,-201.5 265.5,-201.5 "/>
<text text-anchor="start" x="140.5" y="-189.5" font-family="Helvetica,sans-Serif" font-size="10.00">+ TArray()</text>
<text text-anchor="start" x="140.5" y="-178.5" font-family="Helvetica,sans-Serif" font-size="10.00">+ Num()</text>
<text text-anchor="start" x="140.5" y="-167.5" font-family="Helvetica,sans-Serif" font-size="10.00">+ operator[]()</text>
<text text-anchor="start" x="140.5" y="-156.5" font-family="Helvetica,sans-Serif" font-size="10.00">+ operator[]()</text>
<text text-anchor="start" x="140.5" y="-145.5" font-family="Helvetica,sans-Serif" font-size="10.00">+ IsValidIndex()</text>
</a>
</g>
</g>
<!-- Node35&#45;&gt;Node1 -->
<g id="edge2" class="edge"><title>Node35&#45;&gt;Node1</title>
<path fill="none" stroke="#404040" d="M182.723,-138.254C177,-121.439 169.977,-103.144 162,-87 160.719,-84.4066 159.329,-81.7874 157.869,-79.1767"/>
<polygon fill="none" stroke="#404040" points="157.699,-78.8914 151.193,-75.7813 151.562,-68.5796 158.068,-71.6897 157.699,-78.8914"/>
<text text-anchor="middle" x="188.5" y="-101" font-family="Helvetica,sans-Serif" font-size="10.00"> +Idle</text>
</g>
</g>
</svg>
