<?xml version="1.0" encoding="UTF-8" standalone="no"?>
<!DOCTYPE svg PUBLIC "-//W3C//DTD SVG 1.1//EN"
 "http://www.w3.org/Graphics/SVG/1.1/DTD/svg11.dtd">
<!-- Generated by graphviz version 2.38.0 (20140413.2041)
 -->
<!-- Title: SDK::FAthenaAnimationWieldedItemStateMachine Pages: 1 -->
<svg width="1494pt" height="716pt"
 viewBox="0.00 0.00 1494.18 716.00" xmlns="http://www.w3.org/2000/svg" xmlns:xlink="http://www.w3.org/1999/xlink">
<g id="graph0" class="graph" transform="scale(1 1) rotate(0) translate(4 712)">
<title>SDK::FAthenaAnimationWieldedItemStateMachine</title>
<!-- Node1 -->
<g id="node1" class="node"><title>Node1</title>
<g id="a_node1"><a xlink:title=" ">
<polygon fill="#bfbfbf" stroke="black" points="529.183,-0.5 529.183,-68.5 687.183,-68.5 687.183,-0.5 529.183,-0.5"/>
<text text-anchor="start" x="537.183" y="-56.5" font-family="Helvetica,sans-Serif" font-size="10.00">SDK::FAthenaAnimationWielded</text>
<text text-anchor="middle" x="608.183" y="-45.5" font-family="Helvetica,sans-Serif" font-size="10.00">ItemStateMachine</text>
<polyline fill="none" stroke="black" points="529.183,-38.5 687.183,-38.5 "/>
<text text-anchor="middle" x="608.183" y="-26.5" font-family="Helvetica,sans-Serif" font-size="10.00"> </text>
<polyline fill="none" stroke="black" points="529.183,-19.5 687.183,-19.5 "/>
<text text-anchor="middle" x="608.183" y="-7.5" font-family="Helvetica,sans-Serif" font-size="10.00"> </text>
</a>
</g>
</g>
<!-- Node2 -->
<g id="node2" class="node"><title>Node2</title>
<g id="a_node2"><a xlink:href="a27747.html" target="_top" xlink:title=" ">
<polygon fill="none" stroke="red" points="272.183,-259.5 272.183,-316.5 386.183,-316.5 386.183,-259.5 272.183,-259.5"/>
<text text-anchor="middle" x="329.183" y="-304.5" font-family="Helvetica,sans-Serif" font-size="10.00">SDK::UBlendSpace1D</text>
<polyline fill="none" stroke="red" points="272.183,-297.5 386.183,-297.5 "/>
<text text-anchor="middle" x="329.183" y="-285.5" font-family="Helvetica,sans-Serif" font-size="10.00"> </text>
<polyline fill="none" stroke="red" points="272.183,-278.5 386.183,-278.5 "/>
<text text-anchor="start" x="280.183" y="-266.5" font-family="Helvetica,sans-Serif" font-size="10.00">+ StaticClass()</text>
</a>
</g>
</g>
<!-- Node2&#45;&gt;Node1 -->
<g id="edge1" class="edge"><title>Node2&#45;&gt;Node1</title>
<path fill="none" stroke="#404040" d="M331.574,-259.232C336.828,-215.906 353.321,-132.485 404.183,-87 434.965,-59.4713 478.345,-46.2131 517.192,-39.99"/>
<polygon fill="none" stroke="#404040" points="517.207,-39.988 522.575,-35.1732 529.084,-38.2765 523.716,-43.0914 517.207,-39.988"/>
<text text-anchor="middle" x="454.683" y="-101" font-family="Helvetica,sans-Serif" font-size="10.00"> +LastValidBlendspace</text>
</g>
<!-- Node14 -->
<g id="node3" class="node"><title>Node14</title>
<g id="a_node3"><a xlink:title=" ">
<polygon fill="none" stroke="#bfbfbf" points="234.683,-623 234.683,-680 269.683,-680 269.683,-623 234.683,-623"/>
<text text-anchor="middle" x="252.183" y="-668" font-family="Helvetica,sans-Serif" font-size="10.00">char</text>
<polyline fill="none" stroke="#bfbfbf" points="234.683,-661 269.683,-661 "/>
<text text-anchor="middle" x="252.183" y="-649" font-family="Helvetica,sans-Serif" font-size="10.00"> </text>
<polyline fill="none" stroke="#bfbfbf" points="234.683,-642 269.683,-642 "/>
<text text-anchor="middle" x="252.183" y="-630" font-family="Helvetica,sans-Serif" font-size="10.00"> </text>
</a>
</g>
</g>
<!-- Node14&#45;&gt;Node1 -->
<g id="edge6" class="edge"><title>Node14&#45;&gt;Node1</title>
<path fill="none" stroke="#404040" d="M234.321,-643.321C208.429,-632.219 160.086,-608.801 128.183,-577 77.2218,-526.204 64.316,-507.363 45.1827,-438 9.72772,-309.467 -34.829,-244.658 45.1827,-138 100.542,-64.2042 371.867,-43.5353 516.684,-37.7485"/>
<polygon fill="none" stroke="#404040" points="517.024,-37.7357 522.868,-33.5105 529.016,-37.2795 523.172,-41.5047 517.024,-37.7357"/>
<text text-anchor="middle" x="85.1827" y="-296.5" font-family="Helvetica,sans-Serif" font-size="10.00"> +UnknownData01</text>
<text text-anchor="middle" x="85.1827" y="-285.5" font-family="Helvetica,sans-Serif" font-size="10.00">+UnknownData02</text>
<text text-anchor="middle" x="85.1827" y="-274.5" font-family="Helvetica,sans-Serif" font-size="10.00">+UnknownData00</text>
</g>
<!-- Node14&#45;&gt;Node2 -->
<g id="edge2" class="edge"><title>Node14&#45;&gt;Node2</title>
<path fill="none" stroke="#404040" d="M248.444,-622.973C244.137,-584.859 239.301,-514.135 253.183,-456 255.26,-447.3 258.348,-446.08 262.183,-438 279.789,-400.902 298.911,-358.108 312.202,-327.927"/>
<polygon fill="none" stroke="#404040" points="312.344,-327.604 311.095,-320.502 317.17,-316.617 318.419,-323.719 312.344,-327.604"/>
<text text-anchor="middle" x="293.183" y="-514" font-family="Helvetica,sans-Serif" font-size="10.00"> +UnknownData00</text>
</g>
<!-- Node37 -->
<g id="node7" class="node"><title>Node37</title>
<g id="a_node7"><a xlink:href="a27731.html" target="_top" xlink:title=" ">
<polygon fill="none" stroke="red" points="969.183,-259.5 969.183,-316.5 1085.18,-316.5 1085.18,-259.5 969.183,-259.5"/>
<text text-anchor="middle" x="1027.18" y="-304.5" font-family="Helvetica,sans-Serif" font-size="10.00">SDK::UAnimSequence</text>
<polyline fill="none" stroke="red" points="969.183,-297.5 1085.18,-297.5 "/>
<text text-anchor="middle" x="1027.18" y="-285.5" font-family="Helvetica,sans-Serif" font-size="10.00"> </text>
<polyline fill="none" stroke="red" points="969.183,-278.5 1085.18,-278.5 "/>
<text text-anchor="start" x="977.183" y="-266.5" font-family="Helvetica,sans-Serif" font-size="10.00">+ StaticClass()</text>
</a>
</g>
</g>
<!-- Node14&#45;&gt;Node37 -->
<g id="edge9" class="edge"><title>Node14&#45;&gt;Node37</title>
<path fill="none" stroke="#404040" d="M269.726,-647.334C320.365,-638.269 471.202,-611.79 597.183,-595 634.839,-589.981 739.654,-603.179 767.183,-577 806.63,-539.487 746.701,-493.477 786.183,-456 814.216,-429.39 927.796,-460.558 959.183,-438 994.759,-412.431 1012.14,-363.666 1020.35,-328.889"/>
<polygon fill="none" stroke="#404040" points="1020.43,-328.506 1017.79,-321.795 1022.97,-316.778 1025.61,-323.489 1020.43,-328.506"/>
<text text-anchor="middle" x="826.183" y="-547" font-family="Helvetica,sans-Serif" font-size="10.00"> +UnknownData01</text>
<text text-anchor="middle" x="826.183" y="-536" font-family="Helvetica,sans-Serif" font-size="10.00">+UnknownData02</text>
<text text-anchor="middle" x="826.183" y="-525" font-family="Helvetica,sans-Serif" font-size="10.00">+UnknownData03</text>
<text text-anchor="middle" x="826.183" y="-514" font-family="Helvetica,sans-Serif" font-size="10.00">+UnknownData04</text>
<text text-anchor="middle" x="826.183" y="-503" font-family="Helvetica,sans-Serif" font-size="10.00">+UnknownData05</text>
<text text-anchor="middle" x="826.183" y="-492" font-family="Helvetica,sans-Serif" font-size="10.00">+UnknownData06</text>
<text text-anchor="middle" x="826.183" y="-481" font-family="Helvetica,sans-Serif" font-size="10.00">+UnknownData00</text>
</g>
<!-- Node53 -->
<g id="node8" class="node"><title>Node53</title>
<g id="a_node8"><a xlink:href="a26555.html" target="_top" xlink:title=" ">
<polygon fill="none" stroke="red" points="728.683,-138.5 728.683,-437.5 895.683,-437.5 895.683,-138.5 728.683,-138.5"/>
<text text-anchor="middle" x="812.183" y="-425.5" font-family="Helvetica,sans-Serif" font-size="10.00">SDK::AActor</text>
<polyline fill="none" stroke="red" points="728.683,-418.5 895.683,-418.5 "/>
<text text-anchor="start" x="736.683" y="-406.5" font-family="Helvetica,sans-Serif" font-size="10.00">+ bAllowRemovalFromServerWhen</text>
<text text-anchor="start" x="736.683" y="-395.5" font-family="Helvetica,sans-Serif" font-size="10.00">CollisionMerged</text>
<text text-anchor="start" x="736.683" y="-384.5" font-family="Helvetica,sans-Serif" font-size="10.00">+ bHidden</text>
<text text-anchor="start" x="736.683" y="-373.5" font-family="Helvetica,sans-Serif" font-size="10.00">+ bNetStartup</text>
<text text-anchor="start" x="736.683" y="-362.5" font-family="Helvetica,sans-Serif" font-size="10.00">+ bOnlyRelevantToOwner</text>
<text text-anchor="start" x="736.683" y="-351.5" font-family="Helvetica,sans-Serif" font-size="10.00">+ bAlwaysRelevant</text>
<text text-anchor="start" x="736.683" y="-340.5" font-family="Helvetica,sans-Serif" font-size="10.00">+ bReplicateMovement</text>
<text text-anchor="start" x="736.683" y="-329.5" font-family="Helvetica,sans-Serif" font-size="10.00">+ bExchangedRoles</text>
<text text-anchor="start" x="736.683" y="-318.5" font-family="Helvetica,sans-Serif" font-size="10.00">+ bNetLoadOnClient</text>
<text text-anchor="start" x="736.683" y="-307.5" font-family="Helvetica,sans-Serif" font-size="10.00">+ bBlockInput</text>
<text text-anchor="start" x="736.683" y="-296.5" font-family="Helvetica,sans-Serif" font-size="10.00">+ UnknownData00</text>
<text text-anchor="start" x="736.683" y="-285.5" font-family="Helvetica,sans-Serif" font-size="10.00">and 26 more...</text>
<polyline fill="none" stroke="red" points="728.683,-278.5 895.683,-278.5 "/>
<text text-anchor="start" x="736.683" y="-266.5" font-family="Helvetica,sans-Serif" font-size="10.00">+ UserConstructionScript()</text>
<text text-anchor="start" x="736.683" y="-255.5" font-family="Helvetica,sans-Serif" font-size="10.00">+ TearOff()</text>
<text text-anchor="start" x="736.683" y="-244.5" font-family="Helvetica,sans-Serif" font-size="10.00">+ SnapRootComponentTo()</text>
<text text-anchor="start" x="736.683" y="-233.5" font-family="Helvetica,sans-Serif" font-size="10.00">+ SetTickGroup()</text>
<text text-anchor="start" x="736.683" y="-222.5" font-family="Helvetica,sans-Serif" font-size="10.00">+ SetTickableWhenPaused()</text>
<text text-anchor="start" x="736.683" y="-211.5" font-family="Helvetica,sans-Serif" font-size="10.00">+ SetReplicates()</text>
<text text-anchor="start" x="736.683" y="-200.5" font-family="Helvetica,sans-Serif" font-size="10.00">+ SetReplicateMovement()</text>
<text text-anchor="start" x="736.683" y="-189.5" font-family="Helvetica,sans-Serif" font-size="10.00">+ SetOwner()</text>
<text text-anchor="start" x="736.683" y="-178.5" font-family="Helvetica,sans-Serif" font-size="10.00">+ SetLifeSpan()</text>
<text text-anchor="start" x="736.683" y="-167.5" font-family="Helvetica,sans-Serif" font-size="10.00">+ SetIgnoreNetTransformUpdates()</text>
<text text-anchor="start" x="736.683" y="-156.5" font-family="Helvetica,sans-Serif" font-size="10.00">and 109 more...</text>
<text text-anchor="start" x="736.683" y="-145.5" font-family="Helvetica,sans-Serif" font-size="10.00">+ StaticClass()</text>
</a>
</g>
</g>
<!-- Node14&#45;&gt;Node53 -->
<g id="edge14" class="edge"><title>Node14&#45;&gt;Node53</title>
<path fill="none" stroke="#404040" d="M269.925,-648.277C306.441,-642.799 390.638,-625.392 439.183,-577 480.157,-536.155 440.645,-490.371 487.183,-456 527.887,-425.937 670.627,-463.759 714.183,-438 715.569,-437.18 716.94,-436.332 718.295,-435.457"/>
<polygon fill="none" stroke="#404040" points="718.613,-435.229 721.167,-428.486 728.374,-428.249 725.82,-434.993 718.613,-435.229"/>
<text text-anchor="middle" x="553.183" y="-569" font-family="Helvetica,sans-Serif" font-size="10.00"> +bEnableAutoLODGeneration</text>
<text text-anchor="middle" x="553.183" y="-558" font-family="Helvetica,sans-Serif" font-size="10.00">+UnknownData01</text>
<text text-anchor="middle" x="553.183" y="-547" font-family="Helvetica,sans-Serif" font-size="10.00">+bNetUseOwnerRelevancy</text>
<text text-anchor="middle" x="553.183" y="-536" font-family="Helvetica,sans-Serif" font-size="10.00">+bTearOff</text>
<text text-anchor="middle" x="553.183" y="-525" font-family="Helvetica,sans-Serif" font-size="10.00">+bNetTemporary</text>
<text text-anchor="middle" x="553.183" y="-514" font-family="Helvetica,sans-Serif" font-size="10.00">+UnknownData02</text>
<text text-anchor="middle" x="553.183" y="-503" font-family="Helvetica,sans-Serif" font-size="10.00">+bCanBeInCluster</text>
<text text-anchor="middle" x="553.183" y="-492" font-family="Helvetica,sans-Serif" font-size="10.00">+bPendingNetUpdate</text>
<text text-anchor="middle" x="553.183" y="-481" font-family="Helvetica,sans-Serif" font-size="10.00">+UnknownData10</text>
<text text-anchor="middle" x="553.183" y="-470" font-family="Helvetica,sans-Serif" font-size="10.00">+UnknownData03</text>
<text text-anchor="middle" x="553.183" y="-459" font-family="Helvetica,sans-Serif" font-size="10.00">...</text>
</g>
<!-- Node11 -->
<g id="node9" class="node"><title>Node11</title>
<g id="a_node9"><a xlink:href="a26127.html" target="_top" xlink:title=" ">
<polygon fill="none" stroke="red" points="134.683,-248.5 134.683,-327.5 253.683,-327.5 253.683,-248.5 134.683,-248.5"/>
<text text-anchor="middle" x="194.183" y="-315.5" font-family="Helvetica,sans-Serif" font-size="10.00">SDK::UClass</text>
<polyline fill="none" stroke="red" points="134.683,-308.5 253.683,-308.5 "/>
<text text-anchor="middle" x="194.183" y="-296.5" font-family="Helvetica,sans-Serif" font-size="10.00"> </text>
<polyline fill="none" stroke="red" points="134.683,-289.5 253.683,-289.5 "/>
<text text-anchor="start" x="142.683" y="-277.5" font-family="Helvetica,sans-Serif" font-size="10.00">+ CreateDefaultObject()</text>
<text text-anchor="start" x="142.683" y="-266.5" font-family="Helvetica,sans-Serif" font-size="10.00">+ CreateDefaultObject()</text>
<text text-anchor="start" x="142.683" y="-255.5" font-family="Helvetica,sans-Serif" font-size="10.00">+ StaticClass()</text>
</a>
</g>
</g>
<!-- Node14&#45;&gt;Node11 -->
<g id="edge18" class="edge"><title>Node14&#45;&gt;Node11</title>
<path fill="none" stroke="#404040" d="M234.477,-643.819C210.285,-633.608 167.889,-611.583 150.183,-577 110.987,-500.444 143.273,-398.525 169.374,-338.712"/>
<polygon fill="none" stroke="#404040" points="169.408,-338.638 168.216,-331.526 174.323,-327.691 175.514,-334.803 169.408,-338.638"/>
<text text-anchor="middle" x="190.183" y="-514" font-family="Helvetica,sans-Serif" font-size="10.00"> +UnknownData00</text>
</g>
<!-- Node31 -->
<g id="node4" class="node"><title>Node31</title>
<g id="a_node4"><a xlink:title=" ">
<polygon fill="none" stroke="#bfbfbf" points="606.683,-623 606.683,-680 641.683,-680 641.683,-623 606.683,-623"/>
<text text-anchor="middle" x="624.183" y="-668" font-family="Helvetica,sans-Serif" font-size="10.00">bool</text>
<polyline fill="none" stroke="#bfbfbf" points="606.683,-661 641.683,-661 "/>
<text text-anchor="middle" x="624.183" y="-649" font-family="Helvetica,sans-Serif" font-size="10.00"> </text>
<polyline fill="none" stroke="#bfbfbf" points="606.683,-642 641.683,-642 "/>
<text text-anchor="middle" x="624.183" y="-630" font-family="Helvetica,sans-Serif" font-size="10.00"> </text>
</a>
</g>
</g>
<!-- Node31&#45;&gt;Node1 -->
<g id="edge19" class="edge"><title>Node31&#45;&gt;Node1</title>
<path fill="none" stroke="#404040" d="M623.184,-622.995C621.734,-582.492 619.019,-504.417 617.183,-438 613.599,-308.38 610.483,-155.249 609.039,-80.7544"/>
<polygon fill="none" stroke="#404040" points="609.036,-80.6326 604.922,-74.7108 608.805,-68.6348 612.92,-74.5566 609.036,-80.6326"/>
<text text-anchor="middle" x="668.183" y="-302" font-family="Helvetica,sans-Serif" font-size="10.00"> +OneShotIsAlternate</text>
<text text-anchor="middle" x="668.183" y="-291" font-family="Helvetica,sans-Serif" font-size="10.00">+IdleIsAlternate</text>
<text text-anchor="middle" x="668.183" y="-280" font-family="Helvetica,sans-Serif" font-size="10.00">+ExpectingTransition</text>
<text text-anchor="middle" x="668.183" y="-269" font-family="Helvetica,sans-Serif" font-size="10.00">+ContinuousIsAlternate</text>
</g>
<!-- Node31&#45;&gt;Node2 -->
<g id="edge3" class="edge"><title>Node31&#45;&gt;Node2</title>
<path fill="none" stroke="#404040" d="M606.453,-648.256C552.043,-640.987 389.139,-616.263 356.183,-577 340.579,-558.41 333.145,-403.667 330.44,-329.002"/>
<polygon fill="none" stroke="#404040" points="330.436,-328.882 326.229,-323.025 330.017,-316.889 334.224,-322.746 330.436,-328.882"/>
<text text-anchor="middle" x="397.683" y="-514" font-family="Helvetica,sans-Serif" font-size="10.00"> +bScaleAnimation</text>
</g>
<!-- Node31&#45;&gt;Node37 -->
<g id="edge11" class="edge"><title>Node31&#45;&gt;Node37</title>
<path fill="none" stroke="#404040" d="M641.756,-651.097C687.293,-651.603 809.767,-646.147 870.183,-577 906,-536.006 852.58,-496.294 889.183,-456 910.782,-432.222 934.555,-458.625 959.183,-438 992.48,-410.115 1010.25,-362.462 1019.17,-328.558"/>
<polygon fill="none" stroke="#404040" points="1019.21,-328.405 1016.75,-321.624 1022.07,-316.751 1024.52,-323.531 1019.21,-328.405"/>
<text text-anchor="start" x="889.183" y="-525" font-family="Helvetica,sans-Serif" font-size="10.00"> +bRootMotionSettingsCopied</text>
<text text-anchor="middle" x="954.183" y="-514" font-family="Helvetica,sans-Serif" font-size="10.00">FromMontage</text>
<text text-anchor="middle" x="954.183" y="-503" font-family="Helvetica,sans-Serif" font-size="10.00">+bEnableRootMotion</text>
</g>
<!-- Node31&#45;&gt;Node53 -->
<g id="edge16" class="edge"><title>Node31&#45;&gt;Node53</title>
<path fill="none" stroke="#404040" d="M622.96,-622.882C621.451,-575.246 621.262,-480.387 642.183,-456 663.66,-430.965 687.28,-457.085 714.183,-438 715.875,-436.799 717.547,-435.559 719.197,-434.283"/>
<polygon fill="none" stroke="#404040" points="719.197,-434.283 721.241,-427.367 728.41,-426.594 726.366,-433.51 719.197,-434.283"/>
<text text-anchor="middle" x="704.683" y="-514" font-family="Helvetica,sans-Serif" font-size="10.00"> +bDoOverlapNotifiesOnLoad</text>
</g>
<!-- Node36 -->
<g id="node5" class="node"><title>Node36</title>
<g id="a_node5"><a xlink:href="a25847.html" target="_top" xlink:title=" ">
<polygon fill="none" stroke="black" points="404.183,-221 404.183,-355 572.183,-355 572.183,-221 404.183,-221"/>
<text text-anchor="start" x="412.183" y="-343" font-family="Helvetica,sans-Serif" font-size="10.00">SDK::TEnumAsByte&lt; EWielded</text>
<text text-anchor="middle" x="488.183" y="-332" font-family="Helvetica,sans-Serif" font-size="10.00">ItemAnimationState &gt;</text>
<polyline fill="none" stroke="black" points="404.183,-325 572.183,-325 "/>
<text text-anchor="middle" x="488.183" y="-313" font-family="Helvetica,sans-Serif" font-size="10.00"> </text>
<polyline fill="none" stroke="black" points="404.183,-306 572.183,-306 "/>
<text text-anchor="start" x="412.183" y="-294" font-family="Helvetica,sans-Serif" font-size="10.00">+ TEnumAsByte()</text>
<text text-anchor="start" x="412.183" y="-283" font-family="Helvetica,sans-Serif" font-size="10.00">+ TEnumAsByte()</text>
<text text-anchor="start" x="412.183" y="-272" font-family="Helvetica,sans-Serif" font-size="10.00">+ TEnumAsByte()</text>
<text text-anchor="start" x="412.183" y="-261" font-family="Helvetica,sans-Serif" font-size="10.00">+ TEnumAsByte()</text>
<text text-anchor="start" x="412.183" y="-250" font-family="Helvetica,sans-Serif" font-size="10.00">+ operator EWieldedItemAnimation</text>
<text text-anchor="start" x="412.183" y="-239" font-family="Helvetica,sans-Serif" font-size="10.00">State()</text>
<text text-anchor="start" x="412.183" y="-228" font-family="Helvetica,sans-Serif" font-size="10.00">+ GetValue()</text>
</a>
</g>
</g>
<!-- Node36&#45;&gt;Node1 -->
<g id="edge4" class="edge"><title>Node36&#45;&gt;Node1</title>
<path fill="none" stroke="#404040" d="M486.745,-220.621C488.897,-179.001 497.51,-126.033 524.183,-87 526.571,-83.5044 529.283,-80.2034 532.234,-77.092"/>
<polygon fill="none" stroke="#404040" points="532.33,-77.0021 533.993,-69.9853 541.109,-68.8212 539.447,-75.838 532.33,-77.0021"/>
<text text-anchor="middle" x="559.183" y="-106.5" font-family="Helvetica,sans-Serif" font-size="10.00"> +PreviousState</text>
<text text-anchor="middle" x="559.183" y="-95.5" font-family="Helvetica,sans-Serif" font-size="10.00">+CurrentState</text>
</g>
<!-- Node6 -->
<g id="node6" class="node"><title>Node6</title>
<g id="a_node6"><a xlink:href="a25839.html" target="_top" xlink:title=" ">
<polygon fill="none" stroke="red" points="1089.18,-595.5 1089.18,-707.5 1195.18,-707.5 1195.18,-595.5 1089.18,-595.5"/>
<text text-anchor="middle" x="1142.18" y="-695.5" font-family="Helvetica,sans-Serif" font-size="10.00">SDK::FName</text>
<polyline fill="none" stroke="red" points="1089.18,-688.5 1195.18,-688.5 "/>
<text text-anchor="middle" x="1142.18" y="-676.5" font-family="Helvetica,sans-Serif" font-size="10.00"> </text>
<polyline fill="none" stroke="red" points="1089.18,-669.5 1195.18,-669.5 "/>
<text text-anchor="start" x="1097.18" y="-657.5" font-family="Helvetica,sans-Serif" font-size="10.00">+ FName()</text>
<text text-anchor="start" x="1097.18" y="-646.5" font-family="Helvetica,sans-Serif" font-size="10.00">+ FName()</text>
<text text-anchor="start" x="1097.18" y="-635.5" font-family="Helvetica,sans-Serif" font-size="10.00">+ FName()</text>
<text text-anchor="start" x="1097.18" y="-624.5" font-family="Helvetica,sans-Serif" font-size="10.00">+ GetName()</text>
<text text-anchor="start" x="1097.18" y="-613.5" font-family="Helvetica,sans-Serif" font-size="10.00">+ operator==()</text>
<text text-anchor="start" x="1097.18" y="-602.5" font-family="Helvetica,sans-Serif" font-size="10.00">+ GetGlobalNames()</text>
</a>
</g>
</g>
<!-- Node6&#45;&gt;Node1 -->
<g id="edge5" class="edge"><title>Node6&#45;&gt;Node1</title>
<path fill="none" stroke="#404040" d="M1195.33,-611.843C1205.43,-601.735 1214.58,-589.983 1220.18,-577 1263.4,-476.897 1224.8,-201.732 1176.18,-138 1119.67,-63.927 845.561,-43.3824 699.79,-37.6853"/>
<polygon fill="none" stroke="#404040" points="699.371,-37.6698 693.227,-41.4442 687.38,-37.224 693.524,-33.4497 699.371,-37.6698"/>
<text text-anchor="middle" x="1274.18" y="-285.5" font-family="Helvetica,sans-Serif" font-size="10.00"> +WieldSockets</text>
</g>
<!-- Node6&#45;&gt;Node37 -->
<g id="edge8" class="edge"><title>Node6&#45;&gt;Node37</title>
<path fill="none" stroke="#404040" d="M1141.69,-595.214C1139.97,-555.61 1134.76,-501.464 1120.18,-456 1104.96,-408.524 1075.57,-359.254 1053.89,-326.648"/>
<polygon fill="none" stroke="#404040" points="1053.87,-326.614 1047.19,-323.882 1047.15,-316.671 1053.82,-319.403 1053.87,-326.614"/>
<text text-anchor="middle" x="1179.68" y="-514" font-family="Helvetica,sans-Serif" font-size="10.00"> +RetargetSource</text>
</g>
<!-- Node6&#45;&gt;Node53 -->
<g id="edge13" class="edge"><title>Node6&#45;&gt;Node53</title>
<path fill="none" stroke="#404040" d="M1089.03,-622.743C1071.44,-610.956 1053.49,-595.594 1042.18,-577 1013.9,-530.488 1059.25,-496.777 1023.18,-456 1003.89,-434.186 985.256,-452.81 960.183,-438 940.668,-426.473 921.903,-411.758 904.676,-396.084"/>
<polygon fill="none" stroke="#404040" points="904.584,-395.998 897.469,-394.829 895.811,-387.811 902.927,-388.98 904.584,-395.998"/>
<text text-anchor="middle" x="1079.18" y="-519.5" font-family="Helvetica,sans-Serif" font-size="10.00"> +NetDriverName</text>
<text text-anchor="middle" x="1079.18" y="-508.5" font-family="Helvetica,sans-Serif" font-size="10.00">+Feature</text>
</g>
<!-- Node37&#45;&gt;Node1 -->
<g id="edge7" class="edge"><title>Node37&#45;&gt;Node1</title>
<path fill="none" stroke="#404040" d="M1021.66,-259.345C1013.6,-225.997 995.438,-170.4 959.183,-138 887.293,-73.7537 777.164,-49.6613 699.47,-40.6914"/>
<polygon fill="none" stroke="#404040" points="699.221,-40.6646 692.827,-43.9981 687.29,-39.3777 693.685,-36.0442 699.221,-40.6646"/>
<text text-anchor="middle" x="995.183" y="-101" font-family="Helvetica,sans-Serif" font-size="10.00"> +LastValidAnimSequence</text>
</g>
<!-- Node37&#45;&gt;Node37 -->
<g id="edge10" class="edge"><title>Node37&#45;&gt;Node37</title>
<path fill="none" stroke="#404040" d="M1054.06,-316.585C1077.85,-330.052 1103.18,-320.523 1103.18,-288 1103.18,-260.558 1085.15,-249.487 1065.22,-254.787"/>
<polygon fill="none" stroke="#404040" points="1065.15,-254.819 1061.13,-260.812 1054.06,-259.415 1058.07,-253.422 1065.15,-254.819"/>
<text text-anchor="middle" x="1135.18" y="-285.5" font-family="Helvetica,sans-Serif" font-size="10.00"> +RefPoseSeq</text>
</g>
<!-- Node53&#45;&gt;Node1 -->
<g id="edge12" class="edge"><title>Node53&#45;&gt;Node1</title>
<path fill="none" stroke="#404040" d="M728.578,-156.162C723.834,-149.928 719.023,-143.841 714.183,-138 696.345,-116.474 674.437,-94.6616 655.177,-76.7236"/>
<polygon fill="none" stroke="#404040" points="655.081,-76.6358 647.958,-75.5155 646.252,-68.5091 653.376,-69.6293 655.081,-76.6358"/>
<text text-anchor="middle" x="749.183" y="-101" font-family="Helvetica,sans-Serif" font-size="10.00"> +PreviousWieldedItem</text>
</g>
<!-- Node53&#45;&gt;Node53 -->
<g id="edge15" class="edge"><title>Node53&#45;&gt;Node53</title>
<path fill="none" stroke="#404040" d="M895.803,-318.236C906.57,-312.993 913.683,-302.914 913.683,-288 913.683,-278.213 910.619,-270.508 905.47,-264.885"/>
<polygon fill="none" stroke="#404040" points="905.465,-264.881 898.262,-264.543 895.803,-257.764 903.006,-258.102 905.465,-264.881"/>
<text text-anchor="middle" x="932.183" y="-285.5" font-family="Helvetica,sans-Serif" font-size="10.00"> +Owner</text>
</g>
<!-- Node11&#45;&gt;Node1 -->
<g id="edge17" class="edge"><title>Node11&#45;&gt;Node1</title>
<path fill="none" stroke="#404040" d="M192.871,-248.173C193.611,-202.424 202.402,-127.526 248.183,-87 286.905,-52.7221 423.488,-41.2253 516.829,-37.3901"/>
<polygon fill="none" stroke="#404040" points="516.851,-37.3894 522.693,-33.162 528.842,-36.9287 523,-41.1561 516.851,-37.3894"/>
<text text-anchor="middle" x="311.683" y="-112" font-family="Helvetica,sans-Serif" font-size="10.00"> +OneShotUseInputId</text>
<text text-anchor="middle" x="311.683" y="-101" font-family="Helvetica,sans-Serif" font-size="10.00">+ContinuousUseInputId</text>
<text text-anchor="middle" x="311.683" y="-90" font-family="Helvetica,sans-Serif" font-size="10.00">+OutOfContinuousUseInputId</text>
</g>
<!-- Node198 -->
<g id="node10" class="node"><title>Node198</title>
<g id="a_node10"><a xlink:href="a25847.html" target="_top" xlink:title=" ">
<polygon fill="none" stroke="black" points="1322.18,-221 1322.18,-355 1486.18,-355 1486.18,-221 1322.18,-221"/>
<text text-anchor="start" x="1330.18" y="-343" font-family="Helvetica,sans-Serif" font-size="10.00">SDK::TEnumAsByte&lt; EWieldable</text>
<text text-anchor="middle" x="1404.18" y="-332" font-family="Helvetica,sans-Serif" font-size="10.00">ItemAnimVariant &gt;</text>
<polyline fill="none" stroke="black" points="1322.18,-325 1486.18,-325 "/>
<text text-anchor="middle" x="1404.18" y="-313" font-family="Helvetica,sans-Serif" font-size="10.00"> </text>
<polyline fill="none" stroke="black" points="1322.18,-306 1486.18,-306 "/>
<text text-anchor="start" x="1330.18" y="-294" font-family="Helvetica,sans-Serif" font-size="10.00">+ TEnumAsByte()</text>
<text text-anchor="start" x="1330.18" y="-283" font-family="Helvetica,sans-Serif" font-size="10.00">+ TEnumAsByte()</text>
<text text-anchor="start" x="1330.18" y="-272" font-family="Helvetica,sans-Serif" font-size="10.00">+ TEnumAsByte()</text>
<text text-anchor="start" x="1330.18" y="-261" font-family="Helvetica,sans-Serif" font-size="10.00">+ TEnumAsByte()</text>
<text text-anchor="start" x="1330.18" y="-250" font-family="Helvetica,sans-Serif" font-size="10.00">+ operator EWieldableItemAnim</text>
<text text-anchor="start" x="1330.18" y="-239" font-family="Helvetica,sans-Serif" font-size="10.00">Variant()</text>
<text text-anchor="start" x="1330.18" y="-228" font-family="Helvetica,sans-Serif" font-size="10.00">+ GetValue()</text>
</a>
</g>
</g>
<!-- Node198&#45;&gt;Node1 -->
<g id="edge20" class="edge"><title>Node198&#45;&gt;Node1</title>
<path fill="none" stroke="#404040" d="M1374.91,-220.576C1349.39,-172.337 1307.18,-111.417 1248.18,-87 1151.41,-46.95 851.875,-37.9476 699.385,-35.992"/>
<polygon fill="none" stroke="#404040" points="699.326,-35.9914 693.278,-39.9195 687.327,-35.8481 693.374,-31.9201 699.326,-35.9914"/>
<text text-anchor="middle" x="1361.18" y="-101" font-family="Helvetica,sans-Serif" font-size="10.00"> +OneShotAnimationVariant</text>
</g>
</g>
</svg>
