<?xml version="1.0" encoding="UTF-8" standalone="no"?>
<!DOCTYPE svg PUBLIC "-//W3C//DTD SVG 1.1//EN"
 "http://www.w3.org/Graphics/SVG/1.1/DTD/svg11.dtd">
<!-- Generated by graphviz version 2.38.0 (20140413.2041)
 -->
<!-- Title: SDK::FAthenaAnimationShopInteractionParams Pages: 1 -->
<svg width="560pt" height="441pt"
 viewBox="0.00 0.00 559.96 441.00" xmlns="http://www.w3.org/2000/svg" xmlns:xlink="http://www.w3.org/1999/xlink">
<g id="graph0" class="graph" transform="scale(1 1) rotate(0) translate(4 437)">
<title>SDK::FAthenaAnimationShopInteractionParams</title>
<!-- Node1 -->
<g id="node1" class="node"><title>Node1</title>
<g id="a_node1"><a xlink:title=" ">
<polygon fill="#bfbfbf" stroke="black" points="223.46,-0.5 223.46,-68.5 369.46,-68.5 369.46,-0.5 223.46,-0.5"/>
<text text-anchor="start" x="231.46" y="-56.5" font-family="Helvetica,sans-Serif" font-size="10.00">SDK::FAthenaAnimationShop</text>
<text text-anchor="middle" x="296.46" y="-45.5" font-family="Helvetica,sans-Serif" font-size="10.00">InteractionParams</text>
<polyline fill="none" stroke="black" points="223.46,-38.5 369.46,-38.5 "/>
<text text-anchor="middle" x="296.46" y="-26.5" font-family="Helvetica,sans-Serif" font-size="10.00"> </text>
<polyline fill="none" stroke="black" points="223.46,-19.5 369.46,-19.5 "/>
<text text-anchor="middle" x="296.46" y="-7.5" font-family="Helvetica,sans-Serif" font-size="10.00"> </text>
</a>
</g>
</g>
<!-- Node2 -->
<g id="node2" class="node"><title>Node2</title>
<g id="a_node2"><a xlink:title=" ">
<polygon fill="none" stroke="#bfbfbf" points="27.9597,-375.5 27.9597,-432.5 62.9597,-432.5 62.9597,-375.5 27.9597,-375.5"/>
<text text-anchor="middle" x="45.4597" y="-420.5" font-family="Helvetica,sans-Serif" font-size="10.00">char</text>
<polyline fill="none" stroke="#bfbfbf" points="27.9597,-413.5 62.9597,-413.5 "/>
<text text-anchor="middle" x="45.4597" y="-401.5" font-family="Helvetica,sans-Serif" font-size="10.00"> </text>
<polyline fill="none" stroke="#bfbfbf" points="27.9597,-394.5 62.9597,-394.5 "/>
<text text-anchor="middle" x="45.4597" y="-382.5" font-family="Helvetica,sans-Serif" font-size="10.00"> </text>
</a>
</g>
</g>
<!-- Node2&#45;&gt;Node1 -->
<g id="edge1" class="edge"><title>Node2&#45;&gt;Node1</title>
<path fill="none" stroke="#404040" d="M32.8933,-375.259C11.5326,-323.503 -24.8946,-210.881 25.4597,-138 66.9612,-77.9322 148.518,-53.0286 211.368,-42.7241"/>
<polygon fill="none" stroke="#404040" points="211.408,-42.7181 216.736,-37.8589 223.271,-40.9082 217.943,-45.7674 211.408,-42.7181"/>
<text text-anchor="middle" x="65.4597" y="-197.5" font-family="Helvetica,sans-Serif" font-size="10.00"> +UnknownData00</text>
</g>
<!-- Node3 -->
<g id="node3" class="node"><title>Node3</title>
<g id="a_node3"><a xlink:href="a27519.html" target="_top" xlink:title=" ">
<polygon fill="none" stroke="red" points="114.46,-171.5 114.46,-228.5 230.46,-228.5 230.46,-171.5 114.46,-171.5"/>
<text text-anchor="middle" x="172.46" y="-216.5" font-family="Helvetica,sans-Serif" font-size="10.00">SDK::UAnimSequence</text>
<polyline fill="none" stroke="red" points="114.46,-209.5 230.46,-209.5 "/>
<text text-anchor="middle" x="172.46" y="-197.5" font-family="Helvetica,sans-Serif" font-size="10.00"> </text>
<polyline fill="none" stroke="red" points="114.46,-190.5 230.46,-190.5 "/>
<text text-anchor="start" x="122.46" y="-178.5" font-family="Helvetica,sans-Serif" font-size="10.00">+ StaticClass()</text>
</a>
</g>
</g>
<!-- Node2&#45;&gt;Node3 -->
<g id="edge3" class="edge"><title>Node2&#45;&gt;Node3</title>
<path fill="none" stroke="#404040" d="M52.7569,-375.061C60.355,-349.062 73.9007,-309.936 93.4597,-280 103.545,-264.564 117.034,-249.698 130.007,-237.108"/>
<polygon fill="none" stroke="#404040" points="130.121,-237.001 131.748,-229.976 138.859,-228.776 137.231,-235.802 130.121,-237.001"/>
<text text-anchor="middle" x="133.46" y="-349" font-family="Helvetica,sans-Serif" font-size="10.00"> +UnknownData01</text>
<text text-anchor="middle" x="133.46" y="-338" font-family="Helvetica,sans-Serif" font-size="10.00">+UnknownData02</text>
<text text-anchor="middle" x="133.46" y="-327" font-family="Helvetica,sans-Serif" font-size="10.00">+UnknownData03</text>
<text text-anchor="middle" x="133.46" y="-316" font-family="Helvetica,sans-Serif" font-size="10.00">+UnknownData04</text>
<text text-anchor="middle" x="133.46" y="-305" font-family="Helvetica,sans-Serif" font-size="10.00">+UnknownData05</text>
<text text-anchor="middle" x="133.46" y="-294" font-family="Helvetica,sans-Serif" font-size="10.00">+UnknownData06</text>
<text text-anchor="middle" x="133.46" y="-283" font-family="Helvetica,sans-Serif" font-size="10.00">+UnknownData00</text>
</g>
<!-- Node3&#45;&gt;Node1 -->
<g id="edge2" class="edge"><title>Node3&#45;&gt;Node1</title>
<path fill="none" stroke="#404040" d="M188.747,-171.307C202.913,-148.013 224.553,-114.243 246.46,-87 248.92,-83.9409 251.531,-80.8549 254.22,-77.7949"/>
<polygon fill="none" stroke="#404040" points="254.372,-77.6271 255.447,-70.4965 262.442,-68.746 261.368,-75.8766 254.372,-77.6271"/>
<text text-anchor="middle" x="290.46" y="-112" font-family="Helvetica,sans-Serif" font-size="10.00"> +OutOfAnimToPlay</text>
<text text-anchor="middle" x="290.46" y="-101" font-family="Helvetica,sans-Serif" font-size="10.00">+LoopAnimToPlay</text>
<text text-anchor="middle" x="290.46" y="-90" font-family="Helvetica,sans-Serif" font-size="10.00">+IntoAnimToPlay</text>
</g>
<!-- Node3&#45;&gt;Node3 -->
<g id="edge4" class="edge"><title>Node3&#45;&gt;Node3</title>
<path fill="none" stroke="#404040" d="M230.771,-216.944C241.186,-214.742 248.46,-209.094 248.46,-200 248.46,-194.743 246.028,-190.637 241.965,-187.683"/>
<polygon fill="none" stroke="#404040" points="241.861,-187.64 234.788,-189.045 230.771,-183.056 237.845,-181.651 241.861,-187.64"/>
<text text-anchor="middle" x="280.46" y="-197.5" font-family="Helvetica,sans-Serif" font-size="10.00"> +RefPoseSeq</text>
</g>
<!-- Node36 -->
<g id="node4" class="node"><title>Node36</title>
<g id="a_node4"><a xlink:title=" ">
<polygon fill="none" stroke="#bfbfbf" points="249.96,-375.5 249.96,-432.5 284.96,-432.5 284.96,-375.5 249.96,-375.5"/>
<text text-anchor="middle" x="267.46" y="-420.5" font-family="Helvetica,sans-Serif" font-size="10.00">bool</text>
<polyline fill="none" stroke="#bfbfbf" points="249.96,-413.5 284.96,-413.5 "/>
<text text-anchor="middle" x="267.46" y="-401.5" font-family="Helvetica,sans-Serif" font-size="10.00"> </text>
<polyline fill="none" stroke="#bfbfbf" points="249.96,-394.5 284.96,-394.5 "/>
<text text-anchor="middle" x="267.46" y="-382.5" font-family="Helvetica,sans-Serif" font-size="10.00"> </text>
</a>
</g>
</g>
<!-- Node36&#45;&gt;Node1 -->
<g id="edge7" class="edge"><title>Node36&#45;&gt;Node1</title>
<path fill="none" stroke="#404040" d="M285.14,-396.477C301.279,-389.462 324.141,-376.602 334.46,-357 362.409,-303.908 353.211,-143.995 334.46,-87 333.613,-84.4272 332.584,-81.8775 331.413,-79.3698"/>
<polygon fill="none" stroke="#404040" points="331.321,-79.2028 324.916,-75.8889 325.512,-68.7024 331.917,-72.0164 331.321,-79.2028"/>
<text text-anchor="middle" x="370.46" y="-197.5" font-family="Helvetica,sans-Serif" font-size="10.00"> +Active</text>
</g>
<!-- Node36&#45;&gt;Node3 -->
<g id="edge5" class="edge"><title>Node36&#45;&gt;Node3</title>
<path fill="none" stroke="#404040" d="M249.938,-394.815C235.448,-387.116 215.516,-374.203 204.46,-357 181.927,-321.94 174.835,-274.08 172.813,-240.65"/>
<polygon fill="none" stroke="#404040" points="172.81,-240.588 168.541,-234.777 172.264,-228.601 176.533,-234.413 172.81,-240.588"/>
<text text-anchor="start" x="204.46" y="-327" font-family="Helvetica,sans-Serif" font-size="10.00"> +bRootMotionSettingsCopied</text>
<text text-anchor="middle" x="269.46" y="-316" font-family="Helvetica,sans-Serif" font-size="10.00">FromMontage</text>
<text text-anchor="middle" x="269.46" y="-305" font-family="Helvetica,sans-Serif" font-size="10.00">+bEnableRootMotion</text>
</g>
<!-- Node40 -->
<g id="node5" class="node"><title>Node40</title>
<g id="a_node5"><a xlink:href="a25611.html" target="_top" xlink:title=" ">
<polygon fill="none" stroke="black" points="402.96,-138.5 402.96,-261.5 551.96,-261.5 551.96,-138.5 402.96,-138.5"/>
<text text-anchor="start" x="410.96" y="-249.5" font-family="Helvetica,sans-Serif" font-size="10.00">SDK::TArray&lt; struct</text>
<text text-anchor="start" x="410.96" y="-238.5" font-family="Helvetica,sans-Serif" font-size="10.00"> SDK::FAthenaAnimationShop</text>
<text text-anchor="middle" x="477.46" y="-227.5" font-family="Helvetica,sans-Serif" font-size="10.00">InteractionAnimations &gt;</text>
<polyline fill="none" stroke="black" points="402.96,-220.5 551.96,-220.5 "/>
<text text-anchor="middle" x="477.46" y="-208.5" font-family="Helvetica,sans-Serif" font-size="10.00"> </text>
<polyline fill="none" stroke="black" points="402.96,-201.5 551.96,-201.5 "/>
<text text-anchor="start" x="410.96" y="-189.5" font-family="Helvetica,sans-Serif" font-size="10.00">+ TArray()</text>
<text text-anchor="start" x="410.96" y="-178.5" font-family="Helvetica,sans-Serif" font-size="10.00">+ Num()</text>
<text text-anchor="start" x="410.96" y="-167.5" font-family="Helvetica,sans-Serif" font-size="10.00">+ operator[]()</text>
<text text-anchor="start" x="410.96" y="-156.5" font-family="Helvetica,sans-Serif" font-size="10.00">+ operator[]()</text>
<text text-anchor="start" x="410.96" y="-145.5" font-family="Helvetica,sans-Serif" font-size="10.00">+ IsValidIndex()</text>
</a>
</g>
</g>
<!-- Node40&#45;&gt;Node1 -->
<g id="edge6" class="edge"><title>Node40&#45;&gt;Node1</title>
<path fill="none" stroke="#404040" d="M417.76,-138.436C400.304,-121.396 380.94,-103.123 362.46,-87 358.408,-83.4647 354.148,-79.8755 349.826,-76.3218"/>
<polygon fill="none" stroke="#404040" points="349.65,-76.1797 342.47,-75.5169 340.32,-68.6337 347.5,-69.2965 349.65,-76.1797"/>
<text text-anchor="middle" x="471.46" y="-101" font-family="Helvetica,sans-Serif" font-size="10.00"> +AllLoadedInteractionAnimations</text>
</g>
</g>
</svg>
