<?xml version="1.0" encoding="UTF-8" standalone="no"?>
<!DOCTYPE svg PUBLIC "-//W3C//DTD SVG 1.1//EN"
 "http://www.w3.org/Graphics/SVG/1.1/DTD/svg11.dtd">
<!-- Generated by graphviz version 2.38.0 (20140413.2041)
 -->
<!-- Title: SDK::FAthenaAnimationLadder Pages: 1 -->
<!--zoomable 441 -->
<svg id="main" version="1.1" xmlns="http://www.w3.org/2000/svg" xmlns:xlink="http://www.w3.org/1999/xlink" xml:space="preserve" onload="init(evt)">
<style type="text/css"><![CDATA[
.edge:hover path { stroke: red; }
.edge:hover polygon { stroke: red; fill: red; }
]]></style>
<script type="text/javascript"><![CDATA[
var edges = document.getElementsByTagName('g');
if (edges && edges.length) {
  for (var i=0;i<edges.length;i++) {
    if (edges[i].id.substr(0,4)=='edge') {
      edges[i].setAttribute('class','edge');
    }
  }
}
]]></script>
        <defs>
                <circle id="rim" cx="0" cy="0" r="7"/>
                <circle id="rim2" cx="0" cy="0" r="3.5"/>
                <g id="zoomPlus">
                        <use xlink:href="#rim" fill="#404040">
                                <set attributeName="fill" to="#808080" begin="zoomplus.mouseover" end="zoomplus.mouseout"/>
                        </use>
                        <path d="M-4,0h8M0,-4v8" fill="none" stroke="white" stroke-width="1.5" pointer-events="none"/>
                </g>
                <g id="zoomMin">
                        <use xlink:href="#rim" fill="#404040">
                                <set attributeName="fill" to="#808080" begin="zoomminus.mouseover" end="zoomminus.mouseout"/>
                        </use>
                        <path d="M-4,0h8" fill="none" stroke="white" stroke-width="1.5" pointer-events="none"/>
                </g>
                <g id="dirArrow">
                        <path fill="none" stroke="white" stroke-width="1.5" d="M0,-3.0v7 M-2.5,-0.5L0,-3.0L2.5,-0.5"/>
                </g>
               <g id="resetDef">
                       <use xlink:href="#rim2" fill="#404040">
                               <set attributeName="fill" to="#808080" begin="reset.mouseover" end="reset.mouseout"/>
                       </use>
               </g>
        </defs>

<script type="text/javascript">
var viewWidth = 956;
var viewHeight = 441;
var sectionId = 'dynsection-0';
</script>
<script xlink:href="svgpan.js"/>
<svg id="graph" class="graph">
<g id="viewport">
<title>SDK::FAthenaAnimationLadder</title>
<!-- Node1 -->
<g id="node1" class="node"><title>Node1</title>
<g id="a_node1"><a xlink:title=" ">
<polygon fill="#bfbfbf" stroke="black" points="439,-0.5 439,-57.5 591,-57.5 591,-0.5 439,-0.5"/>
<text text-anchor="middle" x="515" y="-45.5" font-family="Helvetica,sans-Serif" font-size="10.00">SDK::FAthenaAnimationLadder</text>
<polyline fill="none" stroke="black" points="439,-38.5 591,-38.5 "/>
<text text-anchor="middle" x="515" y="-26.5" font-family="Helvetica,sans-Serif" font-size="10.00"> </text>
<polyline fill="none" stroke="black" points="439,-19.5 591,-19.5 "/>
<text text-anchor="middle" x="515" y="-7.5" font-family="Helvetica,sans-Serif" font-size="10.00"> </text>
</a>
</g>
</g>
<!-- Node2 -->
<g id="node2" class="node"><title>Node2</title>
<g id="a_node2"><a xlink:href="a25847.html" target="_top" xlink:title=" ">
<polygon fill="none" stroke="black" points="0,-193.5 0,-327.5 152,-327.5 152,-193.5 0,-193.5"/>
<text text-anchor="start" x="8" y="-315.5" font-family="Helvetica,sans-Serif" font-size="10.00">SDK::TEnumAsByte&lt; EAthena</text>
<text text-anchor="middle" x="76" y="-304.5" font-family="Helvetica,sans-Serif" font-size="10.00">AnimationLadderState &gt;</text>
<polyline fill="none" stroke="black" points="0,-297.5 152,-297.5 "/>
<text text-anchor="middle" x="76" y="-285.5" font-family="Helvetica,sans-Serif" font-size="10.00"> </text>
<polyline fill="none" stroke="black" points="0,-278.5 152,-278.5 "/>
<text text-anchor="start" x="8" y="-266.5" font-family="Helvetica,sans-Serif" font-size="10.00">+ TEnumAsByte()</text>
<text text-anchor="start" x="8" y="-255.5" font-family="Helvetica,sans-Serif" font-size="10.00">+ TEnumAsByte()</text>
<text text-anchor="start" x="8" y="-244.5" font-family="Helvetica,sans-Serif" font-size="10.00">+ TEnumAsByte()</text>
<text text-anchor="start" x="8" y="-233.5" font-family="Helvetica,sans-Serif" font-size="10.00">+ TEnumAsByte()</text>
<text text-anchor="start" x="8" y="-222.5" font-family="Helvetica,sans-Serif" font-size="10.00">+ operator EAthenaAnimation</text>
<text text-anchor="start" x="8" y="-211.5" font-family="Helvetica,sans-Serif" font-size="10.00">LadderState()</text>
<text text-anchor="start" x="8" y="-200.5" font-family="Helvetica,sans-Serif" font-size="10.00">+ GetValue()</text>
</a>
</g>
</g>
<!-- Node2&#45;&gt;Node1 -->
<g id="edge1" class="edge"><title>Node2&#45;&gt;Node1</title>
<path fill="none" stroke="#404040" d="M93.9471,-193.471C108.493,-152.974 133.25,-103.73 173,-76 212.83,-48.2146 339.377,-37.173 426.83,-32.8114"/>
<polygon fill="none" stroke="#404040" points="426.911,-32.8076 432.715,-28.5279 438.898,-32.2392 433.094,-36.5189 426.911,-32.8076"/>
<text text-anchor="middle" x="204" y="-123" font-family="Helvetica,sans-Serif" font-size="10.00"> +LadderState</text>
</g>
<!-- Node3 -->
<g id="node3" class="node"><title>Node3</title>
<g id="a_node3"><a xlink:href="a25847.html" target="_top" xlink:title=" ">
<polygon fill="none" stroke="black" points="170,-193.5 170,-327.5 334,-327.5 334,-193.5 170,-193.5"/>
<text text-anchor="start" x="178" y="-315.5" font-family="Helvetica,sans-Serif" font-size="10.00">SDK::TEnumAsByte&lt; EAthena</text>
<text text-anchor="middle" x="252" y="-304.5" font-family="Helvetica,sans-Serif" font-size="10.00">AnimationLadderTransitionState &gt;</text>
<polyline fill="none" stroke="black" points="170,-297.5 334,-297.5 "/>
<text text-anchor="middle" x="252" y="-285.5" font-family="Helvetica,sans-Serif" font-size="10.00"> </text>
<polyline fill="none" stroke="black" points="170,-278.5 334,-278.5 "/>
<text text-anchor="start" x="178" y="-266.5" font-family="Helvetica,sans-Serif" font-size="10.00">+ TEnumAsByte()</text>
<text text-anchor="start" x="178" y="-255.5" font-family="Helvetica,sans-Serif" font-size="10.00">+ TEnumAsByte()</text>
<text text-anchor="start" x="178" y="-244.5" font-family="Helvetica,sans-Serif" font-size="10.00">+ TEnumAsByte()</text>
<text text-anchor="start" x="178" y="-233.5" font-family="Helvetica,sans-Serif" font-size="10.00">+ TEnumAsByte()</text>
<text text-anchor="start" x="178" y="-222.5" font-family="Helvetica,sans-Serif" font-size="10.00">+ operator EAthenaAnimation</text>
<text text-anchor="start" x="178" y="-211.5" font-family="Helvetica,sans-Serif" font-size="10.00">LadderTransitionState()</text>
<text text-anchor="start" x="178" y="-200.5" font-family="Helvetica,sans-Serif" font-size="10.00">+ GetValue()</text>
</a>
</g>
</g>
<!-- Node3&#45;&gt;Node1 -->
<g id="edge2" class="edge"><title>Node3&#45;&gt;Node1</title>
<path fill="none" stroke="#404040" d="M239.585,-193.166C236.321,-154.349 239.851,-107.025 268,-76 289.089,-52.7557 364.519,-41.1085 426.532,-35.3652"/>
<polygon fill="none" stroke="#404040" points="426.782,-35.3434 432.409,-30.8338 438.736,-34.2936 433.109,-38.8031 426.782,-35.3434"/>
<text text-anchor="middle" x="320" y="-123" font-family="Helvetica,sans-Serif" font-size="10.00"> +LadderTransitionState</text>
</g>
<!-- Node4 -->
<g id="node4" class="node"><title>Node4</title>
<g id="a_node4"><a xlink:href="a25839.html" target="_top" xlink:title=" ">
<polygon fill="none" stroke="red" points="352,-204.5 352,-316.5 458,-316.5 458,-204.5 352,-204.5"/>
<text text-anchor="middle" x="405" y="-304.5" font-family="Helvetica,sans-Serif" font-size="10.00">SDK::FName</text>
<polyline fill="none" stroke="red" points="352,-297.5 458,-297.5 "/>
<text text-anchor="middle" x="405" y="-285.5" font-family="Helvetica,sans-Serif" font-size="10.00"> </text>
<polyline fill="none" stroke="red" points="352,-278.5 458,-278.5 "/>
<text text-anchor="start" x="360" y="-266.5" font-family="Helvetica,sans-Serif" font-size="10.00">+ FName()</text>
<text text-anchor="start" x="360" y="-255.5" font-family="Helvetica,sans-Serif" font-size="10.00">+ FName()</text>
<text text-anchor="start" x="360" y="-244.5" font-family="Helvetica,sans-Serif" font-size="10.00">+ FName()</text>
<text text-anchor="start" x="360" y="-233.5" font-family="Helvetica,sans-Serif" font-size="10.00">+ GetName()</text>
<text text-anchor="start" x="360" y="-222.5" font-family="Helvetica,sans-Serif" font-size="10.00">+ operator==()</text>
<text text-anchor="start" x="360" y="-211.5" font-family="Helvetica,sans-Serif" font-size="10.00">+ GetGlobalNames()</text>
</a>
</g>
</g>
<!-- Node4&#45;&gt;Node1 -->
<g id="edge3" class="edge"><title>Node4&#45;&gt;Node1</title>
<path fill="none" stroke="#404040" d="M384.409,-204.092C373.634,-164.929 367.393,-113.022 393,-76 401.586,-63.5871 413.975,-54.5197 427.604,-47.8972"/>
<polygon fill="none" stroke="#404040" points="427.731,-47.8425 431.658,-41.7944 438.751,-43.093 434.824,-49.1411 427.731,-47.8425"/>
<text text-anchor="middle" x="447" y="-139.5" font-family="Helvetica,sans-Serif" font-size="10.00"> +LeftFootSocketName</text>
<text text-anchor="middle" x="447" y="-128.5" font-family="Helvetica,sans-Serif" font-size="10.00">+LeftHandSocketName</text>
<text text-anchor="middle" x="447" y="-117.5" font-family="Helvetica,sans-Serif" font-size="10.00">+RightFootSocketName</text>
<text text-anchor="middle" x="447" y="-106.5" font-family="Helvetica,sans-Serif" font-size="10.00">+RightHandSocketName</text>
</g>
<!-- Node7 -->
<g id="node5" class="node"><title>Node7</title>
<g id="a_node5"><a xlink:title=" ">
<polygon fill="none" stroke="#bfbfbf" points="544.5,-375.5 544.5,-432.5 579.5,-432.5 579.5,-375.5 544.5,-375.5"/>
<text text-anchor="middle" x="562" y="-420.5" font-family="Helvetica,sans-Serif" font-size="10.00">char</text>
<polyline fill="none" stroke="#bfbfbf" points="544.5,-413.5 579.5,-413.5 "/>
<text text-anchor="middle" x="562" y="-401.5" font-family="Helvetica,sans-Serif" font-size="10.00"> </text>
<polyline fill="none" stroke="#bfbfbf" points="544.5,-394.5 579.5,-394.5 "/>
<text text-anchor="middle" x="562" y="-382.5" font-family="Helvetica,sans-Serif" font-size="10.00"> </text>
</a>
</g>
</g>
<!-- Node7&#45;&gt;Node1 -->
<g id="edge4" class="edge"><title>Node7&#45;&gt;Node1</title>
<path fill="none" stroke="#404040" d="M544.487,-375.665C536.66,-361.929 528.254,-344.691 524,-328 501.061,-238.005 505.856,-127.77 510.777,-69.8779"/>
<polygon fill="none" stroke="#404040" points="510.8,-69.6233 507.358,-63.2866 511.884,-57.6723 515.326,-64.0091 510.8,-69.6233"/>
<text text-anchor="middle" x="564" y="-269" font-family="Helvetica,sans-Serif" font-size="10.00"> +UnknownData01</text>
<text text-anchor="middle" x="564" y="-258" font-family="Helvetica,sans-Serif" font-size="10.00">+UnknownData02</text>
<text text-anchor="middle" x="564" y="-247" font-family="Helvetica,sans-Serif" font-size="10.00">+UnknownData00</text>
</g>
<!-- Node10 -->
<g id="node8" class="node"><title>Node10</title>
<g id="a_node8"><a xlink:href="a13107.html" target="_top" xlink:title=" ">
<polygon fill="none" stroke="red" points="613,-232 613,-289 731,-289 731,-232 613,-232"/>
<text text-anchor="middle" x="672" y="-277" font-family="Helvetica,sans-Serif" font-size="10.00">SDK::FLadderDefinition</text>
<polyline fill="none" stroke="red" points="613,-270 731,-270 "/>
<text text-anchor="middle" x="672" y="-258" font-family="Helvetica,sans-Serif" font-size="10.00"> </text>
<polyline fill="none" stroke="red" points="613,-251 731,-251 "/>
<text text-anchor="middle" x="672" y="-239" font-family="Helvetica,sans-Serif" font-size="10.00"> </text>
</a>
</g>
</g>
<!-- Node7&#45;&gt;Node10 -->
<g id="edge8" class="edge"><title>Node7&#45;&gt;Node10</title>
<path fill="none" stroke="#404040" d="M579.673,-380.266C596.798,-358.237 623.064,-324.449 643.208,-298.537"/>
<polygon fill="none" stroke="#404040" points="643.232,-298.506 643.757,-291.314 650.597,-289.032 650.073,-296.224 643.232,-298.506"/>
<text text-anchor="middle" x="644" y="-349" font-family="Helvetica,sans-Serif" font-size="10.00"> +UnknownData00</text>
</g>
<!-- Node8 -->
<g id="node6" class="node"><title>Node8</title>
<g id="a_node6"><a xlink:title=" ">
<polygon fill="none" stroke="#bfbfbf" points="749.5,-232 749.5,-289 784.5,-289 784.5,-232 749.5,-232"/>
<text text-anchor="middle" x="767" y="-277" font-family="Helvetica,sans-Serif" font-size="10.00">float</text>
<polyline fill="none" stroke="#bfbfbf" points="749.5,-270 784.5,-270 "/>
<text text-anchor="middle" x="767" y="-258" font-family="Helvetica,sans-Serif" font-size="10.00"> </text>
<polyline fill="none" stroke="#bfbfbf" points="749.5,-251 784.5,-251 "/>
<text text-anchor="middle" x="767" y="-239" font-family="Helvetica,sans-Serif" font-size="10.00"> </text>
</a>
</g>
</g>
<!-- Node8&#45;&gt;Node1 -->
<g id="edge5" class="edge"><title>Node8&#45;&gt;Node1</title>
<path fill="none" stroke="#404040" d="M757.057,-231.848C739.005,-181.938 702.135,-81.438 696,-76 670.613,-53.4972 635.742,-41.7047 603.38,-35.6266"/>
<polygon fill="none" stroke="#404040" points="602.959,-35.5559 596.379,-38.5058 591.125,-33.5665 597.705,-30.6165 602.959,-35.5559"/>
<text text-anchor="middle" x="780.5" y="-167" font-family="Helvetica,sans-Serif" font-size="10.00"> +BlendOutSpeed</text>
<text text-anchor="middle" x="780.5" y="-156" font-family="Helvetica,sans-Serif" font-size="10.00">+PlayerIntent</text>
<text text-anchor="middle" x="780.5" y="-145" font-family="Helvetica,sans-Serif" font-size="10.00">+BlendInSpeed</text>
<text text-anchor="middle" x="780.5" y="-134" font-family="Helvetica,sans-Serif" font-size="10.00">+TranslationStrength</text>
<text text-anchor="middle" x="780.5" y="-123" font-family="Helvetica,sans-Serif" font-size="10.00">+AnimationLoopMod</text>
<text text-anchor="middle" x="780.5" y="-112" font-family="Helvetica,sans-Serif" font-size="10.00">+ClimbDistance</text>
<text text-anchor="middle" x="780.5" y="-101" font-family="Helvetica,sans-Serif" font-size="10.00">+RotationStrength</text>
<text text-anchor="middle" x="780.5" y="-90" font-family="Helvetica,sans-Serif" font-size="10.00">+AnimationDistance</text>
<text text-anchor="middle" x="780.5" y="-79" font-family="Helvetica,sans-Serif" font-size="10.00">+HeightPerStep</text>
</g>
<!-- Node9 -->
<g id="node7" class="node"><title>Node9</title>
<g id="a_node7"><a xlink:title=" ">
<polygon fill="none" stroke="#bfbfbf" points="832.5,-232 832.5,-289 867.5,-289 867.5,-232 832.5,-232"/>
<text text-anchor="middle" x="850" y="-277" font-family="Helvetica,sans-Serif" font-size="10.00">bool</text>
<polyline fill="none" stroke="#bfbfbf" points="832.5,-270 867.5,-270 "/>
<text text-anchor="middle" x="850" y="-258" font-family="Helvetica,sans-Serif" font-size="10.00"> </text>
<polyline fill="none" stroke="#bfbfbf" points="832.5,-251 867.5,-251 "/>
<text text-anchor="middle" x="850" y="-239" font-family="Helvetica,sans-Serif" font-size="10.00"> </text>
</a>
</g>
</g>
<!-- Node9&#45;&gt;Node1 -->
<g id="edge6" class="edge"><title>Node9&#45;&gt;Node1</title>
<path fill="none" stroke="#404040" d="M855.931,-231.859C862.769,-191.699 868.404,-117.493 828,-76 797.627,-44.8085 684.839,-34.6082 603.357,-31.3623"/>
<polygon fill="none" stroke="#404040" points="603.316,-31.3609 597.174,-35.1398 591.324,-30.9239 597.466,-27.1451 603.316,-31.3609"/>
<text text-anchor="middle" x="904" y="-139.5" font-family="Helvetica,sans-Serif" font-size="10.00"> +ClimbOnComplete</text>
<text text-anchor="middle" x="904" y="-128.5" font-family="Helvetica,sans-Serif" font-size="10.00">+IsClambering</text>
<text text-anchor="middle" x="904" y="-117.5" font-family="Helvetica,sans-Serif" font-size="10.00">+ClimbOffComplete</text>
<text text-anchor="middle" x="904" y="-106.5" font-family="Helvetica,sans-Serif" font-size="10.00">+AnimationOverride</text>
</g>
<!-- Node10&#45;&gt;Node1 -->
<g id="edge7" class="edge"><title>Node10&#45;&gt;Node1</title>
<path fill="none" stroke="#404040" d="M653.062,-231.817C625.008,-190.808 572.332,-113.807 540.781,-67.6867"/>
<polygon fill="none" stroke="#404040" points="540.781,-67.6855 534.091,-64.9919 534.005,-57.7812 540.694,-60.4749 540.781,-67.6855"/>
<text text-anchor="middle" x="652.5" y="-123" font-family="Helvetica,sans-Serif" font-size="10.00"> +LadderDefinition</text>
</g>
</g>
</svg>
        <g id="navigator" transform="translate(0 0)" fill="#404254">
                <rect fill="#f2f5e9" fill-opacity="0.5" stroke="#606060" stroke-width=".5" x="0" y="0" width="60" height="60"/>
                <use id="zoomplus" xlink:href="#zoomPlus" x="17" y="9" onmousedown="handleZoom(evt,'in')"/>
                <use id="zoomminus" xlink:href="#zoomMin" x="42" y="9" onmousedown="handleZoom(evt,'out')"/>
                <use id="reset" xlink:href="#resetDef" x="30" y="36" onmousedown="handleReset()"/>
                <g id="arrowUp" xlink:href="#dirArrow" transform="translate(30 24)" onmousedown="handlePan(0,-1)">
                  <use xlink:href="#rim" fill="#404040">
                        <set attributeName="fill" to="#808080" begin="arrowUp.mouseover" end="arrowUp.mouseout"/>
                  </use>
                  <path fill="none" stroke="white" stroke-width="1.5" d="M0,-3.0v7 M-2.5,-0.5L0,-3.0L2.5,-0.5"/>
                </g>
                <g id="arrowRight" xlink:href="#dirArrow" transform="rotate(90) translate(36 -43)" onmousedown="handlePan(1,0)">
                  <use xlink:href="#rim" fill="#404040">
                        <set attributeName="fill" to="#808080" begin="arrowRight.mouseover" end="arrowRight.mouseout"/>
                  </use>
                  <path fill="none" stroke="white" stroke-width="1.5" d="M0,-3.0v7 M-2.5,-0.5L0,-3.0L2.5,-0.5"/>
                </g>
                <g id="arrowDown" xlink:href="#dirArrow" transform="rotate(180) translate(-30 -48)" onmousedown="handlePan(0,1)">
                  <use xlink:href="#rim" fill="#404040">
                        <set attributeName="fill" to="#808080" begin="arrowDown.mouseover" end="arrowDown.mouseout"/>
                  </use>
                  <path fill="none" stroke="white" stroke-width="1.5" d="M0,-3.0v7 M-2.5,-0.5L0,-3.0L2.5,-0.5"/>
                </g>
                <g id="arrowLeft" xlink:href="#dirArrow" transform="rotate(270) translate(-36 17)" onmousedown="handlePan(-1,0)">
                  <use xlink:href="#rim" fill="#404040">
                        <set attributeName="fill" to="#808080" begin="arrowLeft.mouseover" end="arrowLeft.mouseout"/>
                  </use>
                  <path fill="none" stroke="white" stroke-width="1.5" d="M0,-3.0v7 M-2.5,-0.5L0,-3.0L2.5,-0.5"/>
                </g>
        </g>
        <svg viewBox="0 0 15 15" width="100%" height="30px" preserveAspectRatio="xMaxYMin meet">
         <g id="arrow_out" transform="scale(0.3 0.3)">
          <a xlink:href="a13109_org.svg" target="_base">
           <rect id="button" ry="5" rx="5" y="6" x="6" height="38" width="38"
                fill="#f2f5e9" fill-opacity="0.5" stroke="#606060" stroke-width="1.0"/>
           <path id="arrow"
             d="M 11.500037,31.436501 C 11.940474,20.09759 22.043105,11.32322 32.158766,21.979434 L 37.068811,17.246167 C 37.068811,17.246167 37.088388,32 37.088388,32 L 22.160133,31.978069 C 22.160133,31.978069 26.997745,27.140456 26.997745,27.140456 C 18.528582,18.264221 13.291696,25.230495 11.500037,31.436501 z"
             style="fill:#404040;"/>
          </a>
         </g>
        </svg>
</svg>
