<?xml version="1.0" encoding="UTF-8" standalone="no"?>
<!DOCTYPE svg PUBLIC "-//W3C//DTD SVG 1.1//EN"
 "http://www.w3.org/Graphics/SVG/1.1/DTD/svg11.dtd">
<!-- Generated by graphviz version 2.38.0 (20140413.2041)
 -->
<!-- Title: SDK::FGhostShipCoordinator Pages: 1 -->
<!--zoomable 397 -->
<svg id="main" version="1.1" xmlns="http://www.w3.org/2000/svg" xmlns:xlink="http://www.w3.org/1999/xlink" xml:space="preserve" onload="init(evt)">
<style type="text/css"><![CDATA[
.edge:hover path { stroke: red; }
.edge:hover polygon { stroke: red; fill: red; }
]]></style>
<script type="text/javascript"><![CDATA[
var edges = document.getElementsByTagName('g');
if (edges && edges.length) {
  for (var i=0;i<edges.length;i++) {
    if (edges[i].id.substr(0,4)=='edge') {
      edges[i].setAttribute('class','edge');
    }
  }
}
]]></script>
        <defs>
                <circle id="rim" cx="0" cy="0" r="7"/>
                <circle id="rim2" cx="0" cy="0" r="3.5"/>
                <g id="zoomPlus">
                        <use xlink:href="#rim" fill="#404040">
                                <set attributeName="fill" to="#808080" begin="zoomplus.mouseover" end="zoomplus.mouseout"/>
                        </use>
                        <path d="M-4,0h8M0,-4v8" fill="none" stroke="white" stroke-width="1.5" pointer-events="none"/>
                </g>
                <g id="zoomMin">
                        <use xlink:href="#rim" fill="#404040">
                                <set attributeName="fill" to="#808080" begin="zoomminus.mouseover" end="zoomminus.mouseout"/>
                        </use>
                        <path d="M-4,0h8" fill="none" stroke="white" stroke-width="1.5" pointer-events="none"/>
                </g>
                <g id="dirArrow">
                        <path fill="none" stroke="white" stroke-width="1.5" d="M0,-3.0v7 M-2.5,-0.5L0,-3.0L2.5,-0.5"/>
                </g>
               <g id="resetDef">
                       <use xlink:href="#rim2" fill="#404040">
                               <set attributeName="fill" to="#808080" begin="reset.mouseover" end="reset.mouseout"/>
                       </use>
               </g>
        </defs>

<script type="text/javascript">
var viewWidth = 779;
var viewHeight = 397;
var sectionId = 'dynsection-0';
</script>
<script xlink:href="svgpan.js"/>
<svg id="graph" class="graph">
<g id="viewport">
<title>SDK::FGhostShipCoordinator</title>
<!-- Node1 -->
<g id="node1" class="node"><title>Node1</title>
<g id="a_node1"><a xlink:title=" ">
<polygon fill="#bfbfbf" stroke="black" points="268.561,-0.5 268.561,-57.5 412.561,-57.5 412.561,-0.5 268.561,-0.5"/>
<text text-anchor="middle" x="340.561" y="-45.5" font-family="Helvetica,sans-Serif" font-size="10.00">SDK::FGhostShipCoordinator</text>
<polyline fill="none" stroke="black" points="268.561,-38.5 412.561,-38.5 "/>
<text text-anchor="middle" x="340.561" y="-26.5" font-family="Helvetica,sans-Serif" font-size="10.00"> </text>
<polyline fill="none" stroke="black" points="268.561,-19.5 412.561,-19.5 "/>
<text text-anchor="middle" x="340.561" y="-7.5" font-family="Helvetica,sans-Serif" font-size="10.00"> </text>
</a>
</g>
</g>
<!-- Node2 -->
<g id="node2" class="node"><title>Node2</title>
<g id="a_node2"><a xlink:href="a05207.html" target="_top" xlink:title=" ">
<polygon fill="none" stroke="red" points="112.561,-138.5 112.561,-228.5 266.561,-228.5 266.561,-138.5 112.561,-138.5"/>
<text text-anchor="middle" x="189.561" y="-216.5" font-family="Helvetica,sans-Serif" font-size="10.00">SDK::AGhostShipDoor</text>
<polyline fill="none" stroke="red" points="112.561,-209.5 266.561,-209.5 "/>
<text text-anchor="middle" x="189.561" y="-197.5" font-family="Helvetica,sans-Serif" font-size="10.00"> </text>
<polyline fill="none" stroke="red" points="112.561,-190.5 266.561,-190.5 "/>
<text text-anchor="start" x="120.561" y="-178.5" font-family="Helvetica,sans-Serif" font-size="10.00">+ Multicast_ResetForPlayer()</text>
<text text-anchor="start" x="120.561" y="-167.5" font-family="Helvetica,sans-Serif" font-size="10.00">+ Multicast_OpenForPlayer()</text>
<text text-anchor="start" x="120.561" y="-156.5" font-family="Helvetica,sans-Serif" font-size="10.00">+ Multicast_OnDoorFullyOpen()</text>
<text text-anchor="start" x="120.561" y="-145.5" font-family="Helvetica,sans-Serif" font-size="10.00">+ StaticClass()</text>
</a>
</g>
</g>
<!-- Node2&#45;&gt;Node1 -->
<g id="edge1" class="edge"><title>Node2&#45;&gt;Node1</title>
<path fill="none" stroke="#404040" d="M212.68,-138.379C224.976,-117.742 241.497,-93.8421 260.561,-76 264.98,-71.8638 269.838,-67.9465 274.908,-64.2737"/>
<polygon fill="none" stroke="#404040" points="274.931,-64.2579 277.649,-57.5786 284.86,-57.5186 282.142,-64.1978 274.931,-64.2579"/>
<text text-anchor="middle" x="298.561" y="-79" font-family="Helvetica,sans-Serif" font-size="10.00"> +GhostShipDoor</text>
</g>
<!-- Node13 -->
<g id="node3" class="node"><title>Node13</title>
<g id="a_node3"><a xlink:title=" ">
<polygon fill="none" stroke="#bfbfbf" points="49.061,-331.5 49.061,-388.5 84.061,-388.5 84.061,-331.5 49.061,-331.5"/>
<text text-anchor="middle" x="66.561" y="-376.5" font-family="Helvetica,sans-Serif" font-size="10.00">char</text>
<polyline fill="none" stroke="#bfbfbf" points="49.061,-369.5 84.061,-369.5 "/>
<text text-anchor="middle" x="66.561" y="-357.5" font-family="Helvetica,sans-Serif" font-size="10.00"> </text>
<polyline fill="none" stroke="#bfbfbf" points="49.061,-350.5 84.061,-350.5 "/>
<text text-anchor="middle" x="66.561" y="-338.5" font-family="Helvetica,sans-Serif" font-size="10.00"> </text>
</a>
</g>
</g>
<!-- Node13&#45;&gt;Node1 -->
<g id="edge5" class="edge"><title>Node13&#45;&gt;Node1</title>
<path fill="none" stroke="#404040" d="M49.4025,-331.148C20.5851,-280.413 -29.4352,-171.998 23.561,-105 52.1111,-68.9069 172.476,-48.3934 256.379,-38.2377"/>
<polygon fill="none" stroke="#404040" points="256.561,-38.2164 262.052,-33.5425 268.479,-36.8138 262.987,-41.4877 256.561,-38.2164"/>
<text text-anchor="middle" x="63.561" y="-186.5" font-family="Helvetica,sans-Serif" font-size="10.00"> +UnknownData01</text>
<text text-anchor="middle" x="63.561" y="-175.5" font-family="Helvetica,sans-Serif" font-size="10.00">+UnknownData00</text>
</g>
<!-- Node13&#45;&gt;Node2 -->
<g id="edge2" class="edge"><title>Node13&#45;&gt;Node2</title>
<path fill="none" stroke="#404040" d="M84.1839,-333.998C101.626,-309.253 128.894,-270.568 151.322,-238.75"/>
<polygon fill="none" stroke="#404040" points="151.501,-238.495 151.689,-231.287 158.415,-228.687 158.227,-235.896 151.501,-238.495"/>
<text text-anchor="middle" x="161.561" y="-305" font-family="Helvetica,sans-Serif" font-size="10.00"> +UnknownData01</text>
<text text-anchor="middle" x="161.561" y="-294" font-family="Helvetica,sans-Serif" font-size="10.00">+UnknownData02</text>
<text text-anchor="middle" x="161.561" y="-283" font-family="Helvetica,sans-Serif" font-size="10.00">+UnknownData00</text>
</g>
<!-- Node4 -->
<g id="node4" class="node"><title>Node4</title>
<g id="a_node4"><a xlink:href="a26095.html" target="_top" xlink:title=" ">
<polygon fill="none" stroke="red" points="284.561,-105.5 284.561,-261.5 396.561,-261.5 396.561,-105.5 284.561,-105.5"/>
<text text-anchor="middle" x="340.561" y="-249.5" font-family="Helvetica,sans-Serif" font-size="10.00">SDK::UObject</text>
<polyline fill="none" stroke="red" points="284.561,-242.5 396.561,-242.5 "/>
<text text-anchor="middle" x="340.561" y="-230.5" font-family="Helvetica,sans-Serif" font-size="10.00"> </text>
<polyline fill="none" stroke="red" points="284.561,-223.5 396.561,-223.5 "/>
<text text-anchor="start" x="292.561" y="-211.5" font-family="Helvetica,sans-Serif" font-size="10.00">+ GetName()</text>
<text text-anchor="start" x="292.561" y="-200.5" font-family="Helvetica,sans-Serif" font-size="10.00">+ GetFullName()</text>
<text text-anchor="start" x="292.561" y="-189.5" font-family="Helvetica,sans-Serif" font-size="10.00">+ IsA()</text>
<text text-anchor="start" x="292.561" y="-178.5" font-family="Helvetica,sans-Serif" font-size="10.00">+ ProcessEvent()</text>
<text text-anchor="start" x="292.561" y="-167.5" font-family="Helvetica,sans-Serif" font-size="10.00">+ ExecuteUbergraph()</text>
<text text-anchor="start" x="292.561" y="-156.5" font-family="Helvetica,sans-Serif" font-size="10.00">+ StaticClass()</text>
<text text-anchor="start" x="292.561" y="-145.5" font-family="Helvetica,sans-Serif" font-size="10.00">+ GetGlobalObjects()</text>
<text text-anchor="start" x="292.561" y="-134.5" font-family="Helvetica,sans-Serif" font-size="10.00">+ FindObject()</text>
<text text-anchor="start" x="292.561" y="-123.5" font-family="Helvetica,sans-Serif" font-size="10.00">+ FindClass()</text>
<text text-anchor="start" x="292.561" y="-112.5" font-family="Helvetica,sans-Serif" font-size="10.00">+ GetObjectCasted()</text>
</a>
</g>
</g>
<!-- Node4&#45;&gt;Node1 -->
<g id="edge3" class="edge"><title>Node4&#45;&gt;Node1</title>
<path fill="none" stroke="#404040" d="M340.561,-105.356C340.561,-93.0375 340.561,-80.7497 340.561,-69.7794"/>
<polygon fill="none" stroke="#404040" points="340.561,-69.5835 336.561,-63.5835 340.561,-57.5835 344.561,-63.5834 340.561,-69.5835"/>
<text text-anchor="middle" x="359.561" y="-79" font-family="Helvetica,sans-Serif" font-size="10.00"> +Parent</text>
</g>
<!-- Node4&#45;&gt;Node4 -->
<g id="edge4" class="edge"><title>Node4&#45;&gt;Node4</title>
<path fill="none" stroke="#404040" d="M396.707,-201.643C407.183,-199.409 414.561,-193.361 414.561,-183.5 414.561,-177.799 412.095,-173.372 407.99,-170.221"/>
<polygon fill="none" stroke="#404040" points="407.727,-170.107 400.633,-171.405 396.707,-165.357 403.8,-164.059 407.727,-170.107"/>
<text text-anchor="middle" x="431.561" y="-181" font-family="Helvetica,sans-Serif" font-size="10.00"> +Outer</text>
</g>
<!-- Node197 -->
<g id="node5" class="node"><title>Node197</title>
<g id="a_node5"><a xlink:href="a11503.html" target="_top" xlink:title=" ">
<polygon fill="none" stroke="red" points="466.561,-149.5 466.561,-217.5 618.561,-217.5 618.561,-149.5 466.561,-149.5"/>
<text text-anchor="start" x="474.561" y="-205.5" font-family="Helvetica,sans-Serif" font-size="10.00">SDK::AGhostShipPlayerSpawn</text>
<text text-anchor="middle" x="542.561" y="-194.5" font-family="Helvetica,sans-Serif" font-size="10.00">Location</text>
<polyline fill="none" stroke="red" points="466.561,-187.5 618.561,-187.5 "/>
<text text-anchor="middle" x="542.561" y="-175.5" font-family="Helvetica,sans-Serif" font-size="10.00"> </text>
<polyline fill="none" stroke="red" points="466.561,-168.5 618.561,-168.5 "/>
<text text-anchor="start" x="474.561" y="-156.5" font-family="Helvetica,sans-Serif" font-size="10.00">+ StaticClass()</text>
</a>
</g>
</g>
<!-- Node197&#45;&gt;Node1 -->
<g id="edge6" class="edge"><title>Node197&#45;&gt;Node1</title>
<path fill="none" stroke="#404040" d="M508.975,-149.449C493.791,-135.155 475.303,-118.619 457.561,-105 438.823,-90.6169 417.305,-76.2656 397.873,-64.0255"/>
<polygon fill="none" stroke="#404040" points="397.813,-63.9877 390.605,-64.2103 387.627,-57.6427 394.835,-57.4201 397.813,-63.9877"/>
<text text-anchor="middle" x="467.561" y="-79" font-family="Helvetica,sans-Serif" font-size="10.00"> +SpawnLocation</text>
</g>
<!-- Node209 -->
<g id="node6" class="node"><title>Node209</title>
<g id="a_node6"><a xlink:href="a25823.html" target="_top" xlink:title=" ">
<polygon fill="none" stroke="black" points="636.561,-127.5 636.561,-239.5 770.561,-239.5 770.561,-127.5 636.561,-127.5"/>
<text text-anchor="start" x="644.561" y="-227.5" font-family="Helvetica,sans-Serif" font-size="10.00">SDK::TArray&lt; struct</text>
<text text-anchor="middle" x="703.561" y="-216.5" font-family="Helvetica,sans-Serif" font-size="10.00"> SDK::FGhostPawnEntry &gt;</text>
<polyline fill="none" stroke="black" points="636.561,-209.5 770.561,-209.5 "/>
<text text-anchor="middle" x="703.561" y="-197.5" font-family="Helvetica,sans-Serif" font-size="10.00"> </text>
<polyline fill="none" stroke="black" points="636.561,-190.5 770.561,-190.5 "/>
<text text-anchor="start" x="644.561" y="-178.5" font-family="Helvetica,sans-Serif" font-size="10.00">+ TArray()</text>
<text text-anchor="start" x="644.561" y="-167.5" font-family="Helvetica,sans-Serif" font-size="10.00">+ Num()</text>
<text text-anchor="start" x="644.561" y="-156.5" font-family="Helvetica,sans-Serif" font-size="10.00">+ operator[]()</text>
<text text-anchor="start" x="644.561" y="-145.5" font-family="Helvetica,sans-Serif" font-size="10.00">+ operator[]()</text>
<text text-anchor="start" x="644.561" y="-134.5" font-family="Helvetica,sans-Serif" font-size="10.00">+ IsValidIndex()</text>
</a>
</g>
</g>
<!-- Node209&#45;&gt;Node1 -->
<g id="edge7" class="edge"><title>Node209&#45;&gt;Node1</title>
<path fill="none" stroke="#404040" d="M657.043,-127.317C647.962,-118.917 637.995,-111.049 627.561,-105 564.933,-68.6924 484.553,-49.6446 424.797,-39.849"/>
<polygon fill="none" stroke="#404040" points="424.606,-39.8192 418.057,-42.8377 412.752,-37.9536 419.301,-34.935 424.606,-39.8192"/>
<text text-anchor="middle" x="624.061" y="-79" font-family="Helvetica,sans-Serif" font-size="10.00"> +GhostPawns</text>
</g>
</g>
</svg>
        <g id="navigator" transform="translate(0 0)" fill="#404254">
                <rect fill="#f2f5e9" fill-opacity="0.5" stroke="#606060" stroke-width=".5" x="0" y="0" width="60" height="60"/>
                <use id="zoomplus" xlink:href="#zoomPlus" x="17" y="9" onmousedown="handleZoom(evt,'in')"/>
                <use id="zoomminus" xlink:href="#zoomMin" x="42" y="9" onmousedown="handleZoom(evt,'out')"/>
                <use id="reset" xlink:href="#resetDef" x="30" y="36" onmousedown="handleReset()"/>
                <g id="arrowUp" xlink:href="#dirArrow" transform="translate(30 24)" onmousedown="handlePan(0,-1)">
                  <use xlink:href="#rim" fill="#404040">
                        <set attributeName="fill" to="#808080" begin="arrowUp.mouseover" end="arrowUp.mouseout"/>
                  </use>
                  <path fill="none" stroke="white" stroke-width="1.5" d="M0,-3.0v7 M-2.5,-0.5L0,-3.0L2.5,-0.5"/>
                </g>
                <g id="arrowRight" xlink:href="#dirArrow" transform="rotate(90) translate(36 -43)" onmousedown="handlePan(1,0)">
                  <use xlink:href="#rim" fill="#404040">
                        <set attributeName="fill" to="#808080" begin="arrowRight.mouseover" end="arrowRight.mouseout"/>
                  </use>
                  <path fill="none" stroke="white" stroke-width="1.5" d="M0,-3.0v7 M-2.5,-0.5L0,-3.0L2.5,-0.5"/>
                </g>
                <g id="arrowDown" xlink:href="#dirArrow" transform="rotate(180) translate(-30 -48)" onmousedown="handlePan(0,1)">
                  <use xlink:href="#rim" fill="#404040">
                        <set attributeName="fill" to="#808080" begin="arrowDown.mouseover" end="arrowDown.mouseout"/>
                  </use>
                  <path fill="none" stroke="white" stroke-width="1.5" d="M0,-3.0v7 M-2.5,-0.5L0,-3.0L2.5,-0.5"/>
                </g>
                <g id="arrowLeft" xlink:href="#dirArrow" transform="rotate(270) translate(-36 17)" onmousedown="handlePan(-1,0)">
                  <use xlink:href="#rim" fill="#404040">
                        <set attributeName="fill" to="#808080" begin="arrowLeft.mouseover" end="arrowLeft.mouseout"/>
                  </use>
                  <path fill="none" stroke="white" stroke-width="1.5" d="M0,-3.0v7 M-2.5,-0.5L0,-3.0L2.5,-0.5"/>
                </g>
        </g>
        <svg viewBox="0 0 15 15" width="100%" height="30px" preserveAspectRatio="xMaxYMin meet">
         <g id="arrow_out" transform="scale(0.3 0.3)">
          <a xlink:href="a13313_org.svg" target="_base">
           <rect id="button" ry="5" rx="5" y="6" x="6" height="38" width="38"
                fill="#f2f5e9" fill-opacity="0.5" stroke="#606060" stroke-width="1.0"/>
           <path id="arrow"
             d="M 11.500037,31.436501 C 11.940474,20.09759 22.043105,11.32322 32.158766,21.979434 L 37.068811,17.246167 C 37.068811,17.246167 37.088388,32 37.088388,32 L 22.160133,31.978069 C 22.160133,31.978069 26.997745,27.140456 26.997745,27.140456 C 18.528582,18.264221 13.291696,25.230495 11.500037,31.436501 z"
             style="fill:#404040;"/>
          </a>
         </g>
        </svg>
</svg>
