<?xml version="1.0" encoding="UTF-8" standalone="no"?>
<!DOCTYPE svg PUBLIC "-//W3C//DTD SVG 1.1//EN"
 "http://www.w3.org/Graphics/SVG/1.1/DTD/svg11.dtd">
<!-- Generated by graphviz version 2.38.0 (20140413.2041)
 -->
<!-- Title: SDK::FSharedShovelParams Pages: 1 -->
<!--zoomable 438 -->
<svg id="main" version="1.1" xmlns="http://www.w3.org/2000/svg" xmlns:xlink="http://www.w3.org/1999/xlink" xml:space="preserve" onload="init(evt)">
<style type="text/css"><![CDATA[
.edge:hover path { stroke: red; }
.edge:hover polygon { stroke: red; fill: red; }
]]></style>
<script type="text/javascript"><![CDATA[
var edges = document.getElementsByTagName('g');
if (edges && edges.length) {
  for (var i=0;i<edges.length;i++) {
    if (edges[i].id.substr(0,4)=='edge') {
      edges[i].setAttribute('class','edge');
    }
  }
}
]]></script>
        <defs>
                <circle id="rim" cx="0" cy="0" r="7"/>
                <circle id="rim2" cx="0" cy="0" r="3.5"/>
                <g id="zoomPlus">
                        <use xlink:href="#rim" fill="#404040">
                                <set attributeName="fill" to="#808080" begin="zoomplus.mouseover" end="zoomplus.mouseout"/>
                        </use>
                        <path d="M-4,0h8M0,-4v8" fill="none" stroke="white" stroke-width="1.5" pointer-events="none"/>
                </g>
                <g id="zoomMin">
                        <use xlink:href="#rim" fill="#404040">
                                <set attributeName="fill" to="#808080" begin="zoomminus.mouseover" end="zoomminus.mouseout"/>
                        </use>
                        <path d="M-4,0h8" fill="none" stroke="white" stroke-width="1.5" pointer-events="none"/>
                </g>
                <g id="dirArrow">
                        <path fill="none" stroke="white" stroke-width="1.5" d="M0,-3.0v7 M-2.5,-0.5L0,-3.0L2.5,-0.5"/>
                </g>
               <g id="resetDef">
                       <use xlink:href="#rim2" fill="#404040">
                               <set attributeName="fill" to="#808080" begin="reset.mouseover" end="reset.mouseout"/>
                       </use>
               </g>
        </defs>

<script type="text/javascript">
var viewWidth = 1164;
var viewHeight = 438;
var sectionId = 'dynsection-0';
</script>
<script xlink:href="svgpan.js"/>
<svg id="graph" class="graph">
<g id="viewport">
<title>SDK::FSharedShovelParams</title>
<!-- Node1 -->
<g id="node1" class="node"><title>Node1</title>
<g id="a_node1"><a xlink:title=" ">
<polygon fill="#bfbfbf" stroke="black" points="518.5,-0.5 518.5,-57.5 660.5,-57.5 660.5,-0.5 518.5,-0.5"/>
<text text-anchor="middle" x="589.5" y="-45.5" font-family="Helvetica,sans-Serif" font-size="10.00">SDK::FSharedShovelParams</text>
<polyline fill="none" stroke="black" points="518.5,-38.5 660.5,-38.5 "/>
<text text-anchor="middle" x="589.5" y="-26.5" font-family="Helvetica,sans-Serif" font-size="10.00"> </text>
<polyline fill="none" stroke="black" points="518.5,-19.5 660.5,-19.5 "/>
<text text-anchor="middle" x="589.5" y="-7.5" font-family="Helvetica,sans-Serif" font-size="10.00"> </text>
</a>
</g>
</g>
<!-- Node2 -->
<g id="node2" class="node"><title>Node2</title>
<g id="a_node2"><a xlink:href="a25823.html" target="_top" xlink:title=" ">
<polygon fill="none" stroke="black" points="0,-159 0,-271 163,-271 163,-159 0,-159"/>
<text text-anchor="start" x="8" y="-259" font-family="Helvetica,sans-Serif" font-size="10.00">SDK::TArray&lt; struct</text>
<text text-anchor="middle" x="81.5" y="-248" font-family="Helvetica,sans-Serif" font-size="10.00"> SDK::FDigSurfaceTypeParams &gt;</text>
<polyline fill="none" stroke="black" points="0,-241 163,-241 "/>
<text text-anchor="middle" x="81.5" y="-229" font-family="Helvetica,sans-Serif" font-size="10.00"> </text>
<polyline fill="none" stroke="black" points="0,-222 163,-222 "/>
<text text-anchor="start" x="8" y="-210" font-family="Helvetica,sans-Serif" font-size="10.00">+ TArray()</text>
<text text-anchor="start" x="8" y="-199" font-family="Helvetica,sans-Serif" font-size="10.00">+ Num()</text>
<text text-anchor="start" x="8" y="-188" font-family="Helvetica,sans-Serif" font-size="10.00">+ operator[]()</text>
<text text-anchor="start" x="8" y="-177" font-family="Helvetica,sans-Serif" font-size="10.00">+ operator[]()</text>
<text text-anchor="start" x="8" y="-166" font-family="Helvetica,sans-Serif" font-size="10.00">+ IsValidIndex()</text>
</a>
</g>
</g>
<!-- Node2&#45;&gt;Node1 -->
<g id="edge1" class="edge"><title>Node2&#45;&gt;Node1</title>
<path fill="none" stroke="#404040" d="M65.9257,-158.863C61.5288,-130.658 62.4658,-97.7752 82.5,-76 110.564,-45.4973 369.732,-34.9977 506.244,-31.5644"/>
<polygon fill="none" stroke="#404040" points="506.263,-31.564 512.164,-27.4195 518.259,-31.2725 512.358,-35.4171 506.263,-31.564"/>
<text text-anchor="middle" x="138.5" y="-90" font-family="Helvetica,sans-Serif" font-size="10.00"> +DigSurfaceTypeParams</text>
</g>
<!-- Node3 -->
<g id="node3" class="node"><title>Node3</title>
<g id="a_node3"><a xlink:href="a26287.html" target="_top" xlink:title=" ">
<polygon fill="none" stroke="black" points="423,-142.5 423,-287.5 502,-287.5 502,-142.5 423,-142.5"/>
<text text-anchor="middle" x="462.5" y="-275.5" font-family="Helvetica,sans-Serif" font-size="10.00">SDK::FVector</text>
<polyline fill="none" stroke="black" points="423,-268.5 502,-268.5 "/>
<text text-anchor="middle" x="462.5" y="-256.5" font-family="Helvetica,sans-Serif" font-size="10.00"> </text>
<polyline fill="none" stroke="black" points="423,-249.5 502,-249.5 "/>
<text text-anchor="start" x="431" y="-237.5" font-family="Helvetica,sans-Serif" font-size="10.00">+ FVector()</text>
<text text-anchor="start" x="431" y="-226.5" font-family="Helvetica,sans-Serif" font-size="10.00">+ FVector()</text>
<text text-anchor="start" x="431" y="-215.5" font-family="Helvetica,sans-Serif" font-size="10.00">+ operator+()</text>
<text text-anchor="start" x="431" y="-204.5" font-family="Helvetica,sans-Serif" font-size="10.00">+ operator&#45;()</text>
<text text-anchor="start" x="431" y="-193.5" font-family="Helvetica,sans-Serif" font-size="10.00">+ operator*()</text>
<text text-anchor="start" x="431" y="-182.5" font-family="Helvetica,sans-Serif" font-size="10.00">+ operator=()</text>
<text text-anchor="start" x="431" y="-171.5" font-family="Helvetica,sans-Serif" font-size="10.00">+ operator+=()</text>
<text text-anchor="start" x="431" y="-160.5" font-family="Helvetica,sans-Serif" font-size="10.00">+ operator&#45;=()</text>
<text text-anchor="start" x="431" y="-149.5" font-family="Helvetica,sans-Serif" font-size="10.00">+ operator*=()</text>
</a>
</g>
</g>
<!-- Node3&#45;&gt;Node1 -->
<g id="edge2" class="edge"><title>Node3&#45;&gt;Node1</title>
<path fill="none" stroke="#404040" d="M422.977,-147.648C418.267,-140.562 413.391,-133.554 408.5,-127 402.099,-118.421 396.304,-119.005 392.5,-109 387.288,-95.2907 383.384,-87.4897 392.5,-76 406.958,-57.7765 459.203,-46.0958 506.256,-39.0661"/>
<polygon fill="none" stroke="#404040" points="506.518,-39.0289 511.893,-34.2219 518.398,-37.3348 513.022,-42.1418 506.518,-39.0289"/>
<text text-anchor="middle" x="459.5" y="-90" font-family="Helvetica,sans-Serif" font-size="10.00"> +DigPosOffsetFromPlayerPos</text>
</g>
<!-- Node4 -->
<g id="node4" class="node"><title>Node4</title>
<g id="a_node4"><a xlink:title=" ">
<polygon fill="none" stroke="#bfbfbf" points="262,-372.5 262,-429.5 297,-429.5 297,-372.5 262,-372.5"/>
<text text-anchor="middle" x="279.5" y="-417.5" font-family="Helvetica,sans-Serif" font-size="10.00">float</text>
<polyline fill="none" stroke="#bfbfbf" points="262,-410.5 297,-410.5 "/>
<text text-anchor="middle" x="279.5" y="-398.5" font-family="Helvetica,sans-Serif" font-size="10.00"> </text>
<polyline fill="none" stroke="#bfbfbf" points="262,-391.5 297,-391.5 "/>
<text text-anchor="middle" x="279.5" y="-379.5" font-family="Helvetica,sans-Serif" font-size="10.00"> </text>
</a>
</g>
</g>
<!-- Node4&#45;&gt;Node1 -->
<g id="edge4" class="edge"><title>Node4&#45;&gt;Node1</title>
<path fill="none" stroke="#404040" d="M261.928,-380.144C246.817,-361.644 226.135,-332.543 217.5,-303 195.555,-227.919 171.015,-189.911 217.5,-127 251.577,-80.881 407.509,-52.9719 506.358,-39.6053"/>
<polygon fill="none" stroke="#404040" points="506.52,-39.584 511.943,-34.8308 518.416,-38.0084 512.993,-42.7616 506.52,-39.584"/>
<text text-anchor="start" x="217.5" y="-295" font-family="Helvetica,sans-Serif" font-size="10.00"> +InitialSphereCastRadius</text>
<text text-anchor="middle" x="315.5" y="-284" font-family="Helvetica,sans-Serif" font-size="10.00">ForSuccessfulDig</text>
<text text-anchor="start" x="217.5" y="-273" font-family="Helvetica,sans-Serif" font-size="10.00">+MaxWaterDepthToStartSuccessful</text>
<text text-anchor="middle" x="315.5" y="-262" font-family="Helvetica,sans-Serif" font-size="10.00">Dig</text>
<text text-anchor="start" x="217.5" y="-251" font-family="Helvetica,sans-Serif" font-size="10.00">+MaxHeightDifferenceToNotBe</text>
<text text-anchor="middle" x="315.5" y="-240" font-family="Helvetica,sans-Serif" font-size="10.00">ConsideredWetSand</text>
<text text-anchor="start" x="217.5" y="-229" font-family="Helvetica,sans-Serif" font-size="10.00">+ObstacleCheckStartOffsetZFrom</text>
<text text-anchor="middle" x="315.5" y="-218" font-family="Helvetica,sans-Serif" font-size="10.00">SphereTestPos</text>
<text text-anchor="middle" x="315.5" y="-207" font-family="Helvetica,sans-Serif" font-size="10.00">+AssumedPlayerWaistHeight</text>
<text text-anchor="middle" x="315.5" y="-196" font-family="Helvetica,sans-Serif" font-size="10.00">+MaxBumpinessForPlanarityTestInCm</text>
<text text-anchor="middle" x="315.5" y="-185" font-family="Helvetica,sans-Serif" font-size="10.00">+MinPlanarTestRadius</text>
<text text-anchor="start" x="217.5" y="-174" font-family="Helvetica,sans-Serif" font-size="10.00">+RequiredObstacleFreeRadiusForSuccessful</text>
<text text-anchor="middle" x="315.5" y="-163" font-family="Helvetica,sans-Serif" font-size="10.00">Dig</text>
<text text-anchor="middle" x="315.5" y="-152" font-family="Helvetica,sans-Serif" font-size="10.00">+SurfaceTypeRaycastLength</text>
<text text-anchor="middle" x="315.5" y="-141" font-family="Helvetica,sans-Serif" font-size="10.00">+MaxSurfaceAngleForDig</text>
<text text-anchor="middle" x="315.5" y="-130" font-family="Helvetica,sans-Serif" font-size="10.00">...</text>
</g>
<!-- Node4&#45;&gt;Node3 -->
<g id="edge3" class="edge"><title>Node4&#45;&gt;Node3</title>
<path fill="none" stroke="#404040" d="M297.416,-389.539C323.959,-373.419 374.273,-340.427 408.5,-303 410.862,-300.417 413.18,-297.717 415.447,-294.933"/>
<polygon fill="none" stroke="#404040" points="415.626,-294.701 416.117,-287.506 422.947,-285.193 422.456,-292.387 415.626,-294.701"/>
<text text-anchor="middle" x="398" y="-346" font-family="Helvetica,sans-Serif" font-size="10.00"> +X</text>
<text text-anchor="middle" x="398" y="-335" font-family="Helvetica,sans-Serif" font-size="10.00">+Y</text>
<text text-anchor="middle" x="398" y="-324" font-family="Helvetica,sans-Serif" font-size="10.00">+Z</text>
</g>
<!-- Node5 -->
<g id="node5" class="node"><title>Node5</title>
<g id="a_node5"><a xlink:title=" ">
<polygon fill="none" stroke="#bfbfbf" points="520,-186.5 520,-243.5 555,-243.5 555,-186.5 520,-186.5"/>
<text text-anchor="middle" x="537.5" y="-231.5" font-family="Helvetica,sans-Serif" font-size="10.00">char</text>
<polyline fill="none" stroke="#bfbfbf" points="520,-224.5 555,-224.5 "/>
<text text-anchor="middle" x="537.5" y="-212.5" font-family="Helvetica,sans-Serif" font-size="10.00"> </text>
<polyline fill="none" stroke="#bfbfbf" points="520,-205.5 555,-205.5 "/>
<text text-anchor="middle" x="537.5" y="-193.5" font-family="Helvetica,sans-Serif" font-size="10.00"> </text>
</a>
</g>
</g>
<!-- Node5&#45;&gt;Node1 -->
<g id="edge5" class="edge"><title>Node5&#45;&gt;Node1</title>
<path fill="none" stroke="#404040" d="M531.741,-186.444C527.077,-157.565 523.596,-111.54 539.5,-76 540.854,-72.9753 542.512,-70.0605 544.393,-67.2678"/>
<polygon fill="none" stroke="#404040" points="544.535,-67.0889 545.154,-59.9044 552.024,-57.7122 551.405,-64.8967 544.535,-67.0889"/>
<text text-anchor="middle" x="579.5" y="-101" font-family="Helvetica,sans-Serif" font-size="10.00"> +UnknownData01</text>
<text text-anchor="middle" x="579.5" y="-90" font-family="Helvetica,sans-Serif" font-size="10.00">+UnknownData02</text>
<text text-anchor="middle" x="579.5" y="-79" font-family="Helvetica,sans-Serif" font-size="10.00">+UnknownData00</text>
</g>
<!-- Node6 -->
<g id="node6" class="node"><title>Node6</title>
<g id="a_node6"><a xlink:href="a25847.html" target="_top" xlink:title=" ">
<polygon fill="none" stroke="black" points="573.5,-153.5 573.5,-276.5 731.5,-276.5 731.5,-153.5 573.5,-153.5"/>
<text text-anchor="start" x="581.5" y="-264.5" font-family="Helvetica,sans-Serif" font-size="10.00">SDK::TEnumAsByte&lt; ECollision</text>
<text text-anchor="middle" x="652.5" y="-253.5" font-family="Helvetica,sans-Serif" font-size="10.00">Channel &gt;</text>
<polyline fill="none" stroke="black" points="573.5,-246.5 731.5,-246.5 "/>
<text text-anchor="middle" x="652.5" y="-234.5" font-family="Helvetica,sans-Serif" font-size="10.00"> </text>
<polyline fill="none" stroke="black" points="573.5,-227.5 731.5,-227.5 "/>
<text text-anchor="start" x="581.5" y="-215.5" font-family="Helvetica,sans-Serif" font-size="10.00">+ TEnumAsByte()</text>
<text text-anchor="start" x="581.5" y="-204.5" font-family="Helvetica,sans-Serif" font-size="10.00">+ TEnumAsByte()</text>
<text text-anchor="start" x="581.5" y="-193.5" font-family="Helvetica,sans-Serif" font-size="10.00">+ TEnumAsByte()</text>
<text text-anchor="start" x="581.5" y="-182.5" font-family="Helvetica,sans-Serif" font-size="10.00">+ TEnumAsByte()</text>
<text text-anchor="start" x="581.5" y="-171.5" font-family="Helvetica,sans-Serif" font-size="10.00">+ operator ECollisionChannel()</text>
<text text-anchor="start" x="581.5" y="-160.5" font-family="Helvetica,sans-Serif" font-size="10.00">+ GetValue()</text>
</a>
</g>
</g>
<!-- Node6&#45;&gt;Node1 -->
<g id="edge6" class="edge"><title>Node6&#45;&gt;Node1</title>
<path fill="none" stroke="#404040" d="M642.707,-153.464C637.531,-128.818 630.015,-100.439 619.5,-76 618.428,-73.5094 617.225,-71.0045 615.931,-68.5192"/>
<polygon fill="none" stroke="#404040" points="615.786,-68.2657 609.333,-65.0484 609.82,-57.8538 616.274,-61.0711 615.786,-68.2657"/>
<text text-anchor="middle" x="681.5" y="-90" font-family="Helvetica,sans-Serif" font-size="10.00"> +HitTestTraceChannel</text>
</g>
<!-- Node7 -->
<g id="node7" class="node"><title>Node7</title>
<g id="a_node7"><a xlink:title=" ">
<polygon fill="none" stroke="#bfbfbf" points="750,-186.5 750,-243.5 779,-243.5 779,-186.5 750,-186.5"/>
<text text-anchor="middle" x="764.5" y="-231.5" font-family="Helvetica,sans-Serif" font-size="10.00">int</text>
<polyline fill="none" stroke="#bfbfbf" points="750,-224.5 779,-224.5 "/>
<text text-anchor="middle" x="764.5" y="-212.5" font-family="Helvetica,sans-Serif" font-size="10.00"> </text>
<polyline fill="none" stroke="#bfbfbf" points="750,-205.5 779,-205.5 "/>
<text text-anchor="middle" x="764.5" y="-193.5" font-family="Helvetica,sans-Serif" font-size="10.00"> </text>
</a>
</g>
</g>
<!-- Node7&#45;&gt;Node1 -->
<g id="edge7" class="edge"><title>Node7&#45;&gt;Node1</title>
<path fill="none" stroke="#404040" d="M766.383,-186.266C766.909,-155.493 762.875,-106.201 735.5,-76 719.087,-57.8921 695.625,-46.8579 672.297,-40.1519"/>
<polygon fill="none" stroke="#404040" points="672.138,-40.111 665.328,-42.4836 660.519,-37.1104 667.329,-34.7378 672.138,-40.111"/>
<text text-anchor="middle" x="842.5" y="-95.5" font-family="Helvetica,sans-Serif" font-size="10.00"> +NumSamplesForPlanarityTest</text>
<text text-anchor="middle" x="842.5" y="-84.5" font-family="Helvetica,sans-Serif" font-size="10.00">+NumSamplesForBlockingSurfacesTest</text>
</g>
<!-- Node8 -->
<g id="node8" class="node"><title>Node8</title>
<g id="a_node8"><a xlink:title=" ">
<polygon fill="none" stroke="#bfbfbf" points="944,-186.5 944,-243.5 979,-243.5 979,-186.5 944,-186.5"/>
<text text-anchor="middle" x="961.5" y="-231.5" font-family="Helvetica,sans-Serif" font-size="10.00">bool</text>
<polyline fill="none" stroke="#bfbfbf" points="944,-224.5 979,-224.5 "/>
<text text-anchor="middle" x="961.5" y="-212.5" font-family="Helvetica,sans-Serif" font-size="10.00"> </text>
<polyline fill="none" stroke="#bfbfbf" points="944,-205.5 979,-205.5 "/>
<text text-anchor="middle" x="961.5" y="-193.5" font-family="Helvetica,sans-Serif" font-size="10.00"> </text>
</a>
</g>
</g>
<!-- Node8&#45;&gt;Node1 -->
<g id="edge8" class="edge"><title>Node8&#45;&gt;Node1</title>
<path fill="none" stroke="#404040" d="M964.484,-186.234C966.184,-154.715 963.501,-104.048 933.5,-76 896.838,-41.724 762.215,-32.5784 672.654,-30.371"/>
<polygon fill="none" stroke="#404040" points="672.6,-30.3699 666.514,-34.2384 660.603,-30.1088 666.689,-26.2403 672.6,-30.3699"/>
<text text-anchor="middle" x="986.5" y="-90" font-family="Helvetica,sans-Serif" font-size="10.00"> +bDrawDebug</text>
</g>
<!-- Node9 -->
<g id="node9" class="node"><title>Node9</title>
<g id="a_node9"><a xlink:href="a25847.html" target="_top" xlink:title=" ">
<polygon fill="none" stroke="black" points="997,-153.5 997,-276.5 1156,-276.5 1156,-153.5 997,-153.5"/>
<text text-anchor="start" x="1005" y="-264.5" font-family="Helvetica,sans-Serif" font-size="10.00">SDK::TEnumAsByte&lt; EPhysical</text>
<text text-anchor="middle" x="1076.5" y="-253.5" font-family="Helvetica,sans-Serif" font-size="10.00">Surface &gt;</text>
<polyline fill="none" stroke="black" points="997,-246.5 1156,-246.5 "/>
<text text-anchor="middle" x="1076.5" y="-234.5" font-family="Helvetica,sans-Serif" font-size="10.00"> </text>
<polyline fill="none" stroke="black" points="997,-227.5 1156,-227.5 "/>
<text text-anchor="start" x="1005" y="-215.5" font-family="Helvetica,sans-Serif" font-size="10.00">+ TEnumAsByte()</text>
<text text-anchor="start" x="1005" y="-204.5" font-family="Helvetica,sans-Serif" font-size="10.00">+ TEnumAsByte()</text>
<text text-anchor="start" x="1005" y="-193.5" font-family="Helvetica,sans-Serif" font-size="10.00">+ TEnumAsByte()</text>
<text text-anchor="start" x="1005" y="-182.5" font-family="Helvetica,sans-Serif" font-size="10.00">+ TEnumAsByte()</text>
<text text-anchor="start" x="1005" y="-171.5" font-family="Helvetica,sans-Serif" font-size="10.00">+ operator EPhysicalSurface()</text>
<text text-anchor="start" x="1005" y="-160.5" font-family="Helvetica,sans-Serif" font-size="10.00">+ GetValue()</text>
</a>
</g>
</g>
<!-- Node9&#45;&gt;Node1 -->
<g id="edge9" class="edge"><title>Node9&#45;&gt;Node1</title>
<path fill="none" stroke="#404040" d="M1067.48,-153.339C1060.11,-125.436 1046.74,-94.4944 1022.5,-76 995.365,-55.2934 790.999,-40.9082 672.982,-34.2312"/>
<polygon fill="none" stroke="#404040" points="672.77,-34.2195 666.557,-37.8792 660.789,-33.5513 667.002,-29.8916 672.77,-34.2195"/>
<text text-anchor="middle" x="1099" y="-95.5" font-family="Helvetica,sans-Serif" font-size="10.00"> +SandSurfaceType</text>
<text text-anchor="middle" x="1099" y="-84.5" font-family="Helvetica,sans-Serif" font-size="10.00">+WetSandSurfaceType</text>
</g>
</g>
</svg>
        <g id="navigator" transform="translate(0 0)" fill="#404254">
                <rect fill="#f2f5e9" fill-opacity="0.5" stroke="#606060" stroke-width=".5" x="0" y="0" width="60" height="60"/>
                <use id="zoomplus" xlink:href="#zoomPlus" x="17" y="9" onmousedown="handleZoom(evt,'in')"/>
                <use id="zoomminus" xlink:href="#zoomMin" x="42" y="9" onmousedown="handleZoom(evt,'out')"/>
                <use id="reset" xlink:href="#resetDef" x="30" y="36" onmousedown="handleReset()"/>
                <g id="arrowUp" xlink:href="#dirArrow" transform="translate(30 24)" onmousedown="handlePan(0,-1)">
                  <use xlink:href="#rim" fill="#404040">
                        <set attributeName="fill" to="#808080" begin="arrowUp.mouseover" end="arrowUp.mouseout"/>
                  </use>
                  <path fill="none" stroke="white" stroke-width="1.5" d="M0,-3.0v7 M-2.5,-0.5L0,-3.0L2.5,-0.5"/>
                </g>
                <g id="arrowRight" xlink:href="#dirArrow" transform="rotate(90) translate(36 -43)" onmousedown="handlePan(1,0)">
                  <use xlink:href="#rim" fill="#404040">
                        <set attributeName="fill" to="#808080" begin="arrowRight.mouseover" end="arrowRight.mouseout"/>
                  </use>
                  <path fill="none" stroke="white" stroke-width="1.5" d="M0,-3.0v7 M-2.5,-0.5L0,-3.0L2.5,-0.5"/>
                </g>
                <g id="arrowDown" xlink:href="#dirArrow" transform="rotate(180) translate(-30 -48)" onmousedown="handlePan(0,1)">
                  <use xlink:href="#rim" fill="#404040">
                        <set attributeName="fill" to="#808080" begin="arrowDown.mouseover" end="arrowDown.mouseout"/>
                  </use>
                  <path fill="none" stroke="white" stroke-width="1.5" d="M0,-3.0v7 M-2.5,-0.5L0,-3.0L2.5,-0.5"/>
                </g>
                <g id="arrowLeft" xlink:href="#dirArrow" transform="rotate(270) translate(-36 17)" onmousedown="handlePan(-1,0)">
                  <use xlink:href="#rim" fill="#404040">
                        <set attributeName="fill" to="#808080" begin="arrowLeft.mouseover" end="arrowLeft.mouseout"/>
                  </use>
                  <path fill="none" stroke="white" stroke-width="1.5" d="M0,-3.0v7 M-2.5,-0.5L0,-3.0L2.5,-0.5"/>
                </g>
        </g>
        <svg viewBox="0 0 15 15" width="100%" height="30px" preserveAspectRatio="xMaxYMin meet">
         <g id="arrow_out" transform="scale(0.3 0.3)">
          <a xlink:href="a13345_org.svg" target="_base">
           <rect id="button" ry="5" rx="5" y="6" x="6" height="38" width="38"
                fill="#f2f5e9" fill-opacity="0.5" stroke="#606060" stroke-width="1.0"/>
           <path id="arrow"
             d="M 11.500037,31.436501 C 11.940474,20.09759 22.043105,11.32322 32.158766,21.979434 L 37.068811,17.246167 C 37.068811,17.246167 37.088388,32 37.088388,32 L 22.160133,31.978069 C 22.160133,31.978069 26.997745,27.140456 26.997745,27.140456 C 18.528582,18.264221 13.291696,25.230495 11.500037,31.436501 z"
             style="fill:#404040;"/>
          </a>
         </g>
        </svg>
</svg>
