<?xml version="1.0" encoding="UTF-8" standalone="no"?>
<!DOCTYPE svg PUBLIC "-//W3C//DTD SVG 1.1//EN"
 "http://www.w3.org/Graphics/SVG/1.1/DTD/svg11.dtd">
<!-- Generated by graphviz version 2.38.0 (20140413.2041)
 -->
<!-- Title: SDK::FBarrelsOfPlentyDebugLocationEntry Pages: 1 -->
<svg width="206pt" height="397pt"
 viewBox="0.00 0.00 205.50 397.00" xmlns="http://www.w3.org/2000/svg" xmlns:xlink="http://www.w3.org/1999/xlink">
<g id="graph0" class="graph" transform="scale(1 1) rotate(0) translate(4 393)">
<title>SDK::FBarrelsOfPlentyDebugLocationEntry</title>
<!-- Node1 -->
<g id="node1" class="node"><title>Node1</title>
<g id="a_node1"><a xlink:title=" ">
<polygon fill="#bfbfbf" stroke="black" points="0,-0.5 0,-68.5 145,-68.5 145,-0.5 0,-0.5"/>
<text text-anchor="start" x="8" y="-56.5" font-family="Helvetica,sans-Serif" font-size="10.00">SDK::FBarrelsOfPlentyDebug</text>
<text text-anchor="middle" x="72.5" y="-45.5" font-family="Helvetica,sans-Serif" font-size="10.00">LocationEntry</text>
<polyline fill="none" stroke="black" points="0,-38.5 145,-38.5 "/>
<text text-anchor="middle" x="72.5" y="-26.5" font-family="Helvetica,sans-Serif" font-size="10.00"> </text>
<polyline fill="none" stroke="black" points="0,-19.5 145,-19.5 "/>
<text text-anchor="middle" x="72.5" y="-7.5" font-family="Helvetica,sans-Serif" font-size="10.00"> </text>
</a>
</g>
</g>
<!-- Node2 -->
<g id="node2" class="node"><title>Node2</title>
<g id="a_node2"><a xlink:href="a26075.html" target="_top" xlink:title=" ">
<polygon fill="none" stroke="black" points="106,-116.5 106,-261.5 185,-261.5 185,-116.5 106,-116.5"/>
<text text-anchor="middle" x="145.5" y="-249.5" font-family="Helvetica,sans-Serif" font-size="10.00">SDK::FVector</text>
<polyline fill="none" stroke="black" points="106,-242.5 185,-242.5 "/>
<text text-anchor="middle" x="145.5" y="-230.5" font-family="Helvetica,sans-Serif" font-size="10.00"> </text>
<polyline fill="none" stroke="black" points="106,-223.5 185,-223.5 "/>
<text text-anchor="start" x="114" y="-211.5" font-family="Helvetica,sans-Serif" font-size="10.00">+ FVector()</text>
<text text-anchor="start" x="114" y="-200.5" font-family="Helvetica,sans-Serif" font-size="10.00">+ FVector()</text>
<text text-anchor="start" x="114" y="-189.5" font-family="Helvetica,sans-Serif" font-size="10.00">+ operator+()</text>
<text text-anchor="start" x="114" y="-178.5" font-family="Helvetica,sans-Serif" font-size="10.00">+ operator&#45;()</text>
<text text-anchor="start" x="114" y="-167.5" font-family="Helvetica,sans-Serif" font-size="10.00">+ operator*()</text>
<text text-anchor="start" x="114" y="-156.5" font-family="Helvetica,sans-Serif" font-size="10.00">+ operator=()</text>
<text text-anchor="start" x="114" y="-145.5" font-family="Helvetica,sans-Serif" font-size="10.00">+ operator+=()</text>
<text text-anchor="start" x="114" y="-134.5" font-family="Helvetica,sans-Serif" font-size="10.00">+ operator&#45;=()</text>
<text text-anchor="start" x="114" y="-123.5" font-family="Helvetica,sans-Serif" font-size="10.00">+ operator*=()</text>
</a>
</g>
</g>
<!-- Node2&#45;&gt;Node1 -->
<g id="edge1" class="edge"><title>Node2&#45;&gt;Node1</title>
<path fill="none" stroke="#404040" d="M111.138,-116.216C105.147,-103.7 99.0789,-91.0244 93.5825,-79.5422"/>
<polygon fill="none" stroke="#404040" points="93.4819,-79.3319 87.2833,-75.647 88.3006,-68.508 94.4992,-72.1929 93.4819,-79.3319"/>
<text text-anchor="middle" x="148.5" y="-90" font-family="Helvetica,sans-Serif" font-size="10.00"> +WorldSpacePosition</text>
</g>
<!-- Node3 -->
<g id="node3" class="node"><title>Node3</title>
<g id="a_node3"><a xlink:title=" ">
<polygon fill="none" stroke="#bfbfbf" points="55,-331.5 55,-388.5 90,-388.5 90,-331.5 55,-331.5"/>
<text text-anchor="middle" x="72.5" y="-376.5" font-family="Helvetica,sans-Serif" font-size="10.00">float</text>
<polyline fill="none" stroke="#bfbfbf" points="55,-369.5 90,-369.5 "/>
<text text-anchor="middle" x="72.5" y="-357.5" font-family="Helvetica,sans-Serif" font-size="10.00"> </text>
<polyline fill="none" stroke="#bfbfbf" points="55,-350.5 90,-350.5 "/>
<text text-anchor="middle" x="72.5" y="-338.5" font-family="Helvetica,sans-Serif" font-size="10.00"> </text>
</a>
</g>
</g>
<!-- Node3&#45;&gt;Node1 -->
<g id="edge3" class="edge"><title>Node3&#45;&gt;Node1</title>
<path fill="none" stroke="#404040" d="M63.386,-331.347C57.5476,-312.135 50.5188,-285.808 47.5,-262 39.3378,-197.627 37.7673,-180.155 47.5,-116 49.292,-104.188 52.4836,-91.7225 55.9998,-80.2221"/>
<polygon fill="none" stroke="#404040" points="56.0478,-80.0734 54.0859,-73.1343 59.7366,-68.6545 61.6985,-75.5936 56.0478,-80.0734"/>
<text text-anchor="middle" x="72.5" y="-186.5" font-family="Helvetica,sans-Serif" font-size="10.00"> +SinkTime</text>
</g>
<!-- Node3&#45;&gt;Node2 -->
<g id="edge2" class="edge"><title>Node3&#45;&gt;Node2</title>
<path fill="none" stroke="#404040" d="M84.3912,-331.471C91.3752,-315.303 100.609,-293.925 109.778,-272.699"/>
<polygon fill="none" stroke="#404040" points="109.796,-272.658 108.503,-265.563 114.554,-261.642 115.847,-268.736 109.796,-272.658"/>
<text text-anchor="middle" x="112" y="-305" font-family="Helvetica,sans-Serif" font-size="10.00"> +X</text>
<text text-anchor="middle" x="112" y="-294" font-family="Helvetica,sans-Serif" font-size="10.00">+Y</text>
<text text-anchor="middle" x="112" y="-283" font-family="Helvetica,sans-Serif" font-size="10.00">+Z</text>
</g>
</g>
</svg>
