<?xml version="1.0" encoding="UTF-8" standalone="no"?>
<!DOCTYPE svg PUBLIC "-//W3C//DTD SVG 1.1//EN"
 "http://www.w3.org/Graphics/SVG/1.1/DTD/svg11.dtd">
<!-- Generated by graphviz version 2.38.0 (20140413.2041)
 -->
<!-- Title: SDK::FBountyQuestRandomSpawnGeneratorParams Pages: 1 -->
<!--zoomable 463 -->
<svg id="main" version="1.1" xmlns="http://www.w3.org/2000/svg" xmlns:xlink="http://www.w3.org/1999/xlink" xml:space="preserve" onload="init(evt)">
<style type="text/css"><![CDATA[
.edge:hover path { stroke: red; }
.edge:hover polygon { stroke: red; fill: red; }
]]></style>
<script type="text/javascript"><![CDATA[
var edges = document.getElementsByTagName('g');
if (edges && edges.length) {
  for (var i=0;i<edges.length;i++) {
    if (edges[i].id.substr(0,4)=='edge') {
      edges[i].setAttribute('class','edge');
    }
  }
}
]]></script>
        <defs>
                <circle id="rim" cx="0" cy="0" r="7"/>
                <circle id="rim2" cx="0" cy="0" r="3.5"/>
                <g id="zoomPlus">
                        <use xlink:href="#rim" fill="#404040">
                                <set attributeName="fill" to="#808080" begin="zoomplus.mouseover" end="zoomplus.mouseout"/>
                        </use>
                        <path d="M-4,0h8M0,-4v8" fill="none" stroke="white" stroke-width="1.5" pointer-events="none"/>
                </g>
                <g id="zoomMin">
                        <use xlink:href="#rim" fill="#404040">
                                <set attributeName="fill" to="#808080" begin="zoomminus.mouseover" end="zoomminus.mouseout"/>
                        </use>
                        <path d="M-4,0h8" fill="none" stroke="white" stroke-width="1.5" pointer-events="none"/>
                </g>
                <g id="dirArrow">
                        <path fill="none" stroke="white" stroke-width="1.5" d="M0,-3.0v7 M-2.5,-0.5L0,-3.0L2.5,-0.5"/>
                </g>
               <g id="resetDef">
                       <use xlink:href="#rim2" fill="#404040">
                               <set attributeName="fill" to="#808080" begin="reset.mouseover" end="reset.mouseout"/>
                       </use>
               </g>
        </defs>

<script type="text/javascript">
var viewWidth = 848;
var viewHeight = 463;
var sectionId = 'dynsection-0';
</script>
<script xlink:href="svgpan.js"/>
<svg id="graph" class="graph">
<g id="viewport">
<title>SDK::FBountyQuestRandomSpawnGeneratorParams</title>
<!-- Node1 -->
<g id="node1" class="node"><title>Node1</title>
<g id="a_node1"><a xlink:title=" ">
<polygon fill="#bfbfbf" stroke="black" points="220.049,-0.5 220.049,-68.5 391.049,-68.5 391.049,-0.5 220.049,-0.5"/>
<text text-anchor="start" x="228.049" y="-56.5" font-family="Helvetica,sans-Serif" font-size="10.00">SDK::FBountyQuestRandomSpawn</text>
<text text-anchor="middle" x="305.549" y="-45.5" font-family="Helvetica,sans-Serif" font-size="10.00">GeneratorParams</text>
<polyline fill="none" stroke="black" points="220.049,-38.5 391.049,-38.5 "/>
<text text-anchor="middle" x="305.549" y="-26.5" font-family="Helvetica,sans-Serif" font-size="10.00"> </text>
<polyline fill="none" stroke="black" points="220.049,-19.5 391.049,-19.5 "/>
<text text-anchor="middle" x="305.549" y="-7.5" font-family="Helvetica,sans-Serif" font-size="10.00"> </text>
</a>
</g>
</g>
<!-- Node2 -->
<g id="node2" class="node"><title>Node2</title>
<g id="a_node2"><a xlink:title=" ">
<polygon fill="none" stroke="#bfbfbf" points="20.0487,-375.5 20.0487,-432.5 55.0487,-432.5 55.0487,-375.5 20.0487,-375.5"/>
<text text-anchor="middle" x="37.5487" y="-420.5" font-family="Helvetica,sans-Serif" font-size="10.00">char</text>
<polyline fill="none" stroke="#bfbfbf" points="20.0487,-413.5 55.0487,-413.5 "/>
<text text-anchor="middle" x="37.5487" y="-401.5" font-family="Helvetica,sans-Serif" font-size="10.00"> </text>
<polyline fill="none" stroke="#bfbfbf" points="20.0487,-394.5 55.0487,-394.5 "/>
<text text-anchor="middle" x="37.5487" y="-382.5" font-family="Helvetica,sans-Serif" font-size="10.00"> </text>
</a>
</g>
</g>
<!-- Node2&#45;&gt;Node1 -->
<g id="edge1" class="edge"><title>Node2&#45;&gt;Node1</title>
<path fill="none" stroke="#404040" d="M25.7618,-375.368C9.98298,-334.115 -13.3054,-254.674 11.5487,-193 35.9868,-132.359 57.2491,-120.24 113.549,-87 142.14,-70.1189 176.359,-58.6525 207.938,-50.9151"/>
<polygon fill="none" stroke="#404040" points="208.207,-50.8524 213.143,-45.5949 219.894,-48.1287 214.958,-53.3862 208.207,-50.8524"/>
<text text-anchor="middle" x="51.5487" y="-258" font-family="Helvetica,sans-Serif" font-size="10.00"> +UnknownData01</text>
<text text-anchor="middle" x="51.5487" y="-247" font-family="Helvetica,sans-Serif" font-size="10.00">+UnknownData02</text>
<text text-anchor="middle" x="51.5487" y="-236" font-family="Helvetica,sans-Serif" font-size="10.00">+UnknownData00</text>
</g>
<!-- Node21 -->
<g id="node8" class="node"><title>Node21</title>
<g id="a_node8"><a xlink:href="a33147.html" target="_top" xlink:title=" ">
<polygon fill="none" stroke="red" points="100.549,-215.5 100.549,-283.5 236.549,-283.5 236.549,-215.5 100.549,-215.5"/>
<text text-anchor="start" x="108.549" y="-271.5" font-family="Helvetica,sans-Serif" font-size="10.00">SDK::FWeightedProbability</text>
<text text-anchor="middle" x="168.549" y="-260.5" font-family="Helvetica,sans-Serif" font-size="10.00">Range</text>
<polyline fill="none" stroke="red" points="100.549,-253.5 236.549,-253.5 "/>
<text text-anchor="middle" x="168.549" y="-241.5" font-family="Helvetica,sans-Serif" font-size="10.00"> </text>
<polyline fill="none" stroke="red" points="100.549,-234.5 236.549,-234.5 "/>
<text text-anchor="middle" x="168.549" y="-222.5" font-family="Helvetica,sans-Serif" font-size="10.00"> </text>
</a>
</g>
</g>
<!-- Node2&#45;&gt;Node21 -->
<g id="edge8" class="edge"><title>Node2&#45;&gt;Node21</title>
<path fill="none" stroke="#404040" d="M55.216,-382.433C74.8777,-359.544 107.183,-321.937 132.283,-292.718"/>
<polygon fill="none" stroke="#404040" points="132.335,-292.658 133.21,-285.5 140.154,-283.555 139.278,-290.713 132.335,-292.658"/>
<text text-anchor="middle" x="143.549" y="-327" font-family="Helvetica,sans-Serif" font-size="10.00"> +UnknownData00</text>
</g>
<!-- Node3 -->
<g id="node3" class="node"><title>Node3</title>
<g id="a_node3"><a xlink:title=" ">
<polygon fill="none" stroke="#bfbfbf" points="378.049,-221 378.049,-278 413.049,-278 413.049,-221 378.049,-221"/>
<text text-anchor="middle" x="395.549" y="-266" font-family="Helvetica,sans-Serif" font-size="10.00">float</text>
<polyline fill="none" stroke="#bfbfbf" points="378.049,-259 413.049,-259 "/>
<text text-anchor="middle" x="395.549" y="-247" font-family="Helvetica,sans-Serif" font-size="10.00"> </text>
<polyline fill="none" stroke="#bfbfbf" points="378.049,-240 413.049,-240 "/>
<text text-anchor="middle" x="395.549" y="-228" font-family="Helvetica,sans-Serif" font-size="10.00"> </text>
</a>
</g>
</g>
<!-- Node3&#45;&gt;Node1 -->
<g id="edge2" class="edge"><title>Node3&#45;&gt;Node1</title>
<path fill="none" stroke="#404040" d="M384.785,-220.985C379.672,-210.965 372.653,-200.314 363.549,-193 342.838,-176.361 322.33,-196.371 306.549,-175 286.848,-148.32 287.937,-110.268 293.212,-80.6433"/>
<polygon fill="none" stroke="#404040" points="293.286,-80.2796 290.564,-73.6021 295.681,-68.5209 298.403,-75.1984 293.286,-80.2796"/>
<text text-anchor="middle" x="371.549" y="-167" font-family="Helvetica,sans-Serif" font-size="10.00"> +ChanceOfFemale</text>
<text text-anchor="middle" x="371.549" y="-156" font-family="Helvetica,sans-Serif" font-size="10.00">+MinTimeBetweenWaves</text>
<text text-anchor="start" x="306.549" y="-145" font-family="Helvetica,sans-Serif" font-size="10.00">+ChanceOfAllTargetsBeingOn</text>
<text text-anchor="middle" x="371.549" y="-134" font-family="Helvetica,sans-Serif" font-size="10.00">TheLastWave</text>
<text text-anchor="middle" x="371.549" y="-123" font-family="Helvetica,sans-Serif" font-size="10.00">+MaxTimeBetweenSpawns</text>
<text text-anchor="middle" x="371.549" y="-112" font-family="Helvetica,sans-Serif" font-size="10.00">+MinTimeBetweenSpawns</text>
<text text-anchor="middle" x="371.549" y="-101" font-family="Helvetica,sans-Serif" font-size="10.00">+MaxTimeBetweenWaves</text>
<text text-anchor="middle" x="371.549" y="-90" font-family="Helvetica,sans-Serif" font-size="10.00">+WaveSuicideMinDist</text>
</g>
<!-- Node4 -->
<g id="node4" class="node"><title>Node4</title>
<g id="a_node4"><a xlink:href="a25823.html" target="_top" xlink:title=" ">
<polygon fill="none" stroke="black" points="177.049,-353.5 177.049,-454.5 284.049,-454.5 284.049,-353.5 177.049,-353.5"/>
<text text-anchor="middle" x="230.549" y="-442.5" font-family="Helvetica,sans-Serif" font-size="10.00">SDK::TArray&lt; float &gt;</text>
<polyline fill="none" stroke="black" points="177.049,-435.5 284.049,-435.5 "/>
<text text-anchor="middle" x="230.549" y="-423.5" font-family="Helvetica,sans-Serif" font-size="10.00"> </text>
<polyline fill="none" stroke="black" points="177.049,-416.5 284.049,-416.5 "/>
<text text-anchor="start" x="185.049" y="-404.5" font-family="Helvetica,sans-Serif" font-size="10.00">+ TArray()</text>
<text text-anchor="start" x="185.049" y="-393.5" font-family="Helvetica,sans-Serif" font-size="10.00">+ Num()</text>
<text text-anchor="start" x="185.049" y="-382.5" font-family="Helvetica,sans-Serif" font-size="10.00">+ operator[]()</text>
<text text-anchor="start" x="185.049" y="-371.5" font-family="Helvetica,sans-Serif" font-size="10.00">+ operator[]()</text>
<text text-anchor="start" x="185.049" y="-360.5" font-family="Helvetica,sans-Serif" font-size="10.00">+ IsValidIndex()</text>
</a>
</g>
</g>
<!-- Node4&#45;&gt;Node1 -->
<g id="edge3" class="edge"><title>Node4&#45;&gt;Node1</title>
<path fill="none" stroke="#404040" d="M246.841,-353.481C248.579,-347.297 250.201,-341.029 251.549,-335 275.826,-226.365 259.352,-194.941 286.549,-87 287.116,-84.7475 287.748,-82.457 288.427,-80.1562"/>
<polygon fill="none" stroke="#404040" points="288.44,-80.1135 286.478,-73.1745 292.129,-68.6945 294.091,-75.6335 288.44,-80.1135"/>
<text text-anchor="middle" x="313.049" y="-247" font-family="Helvetica,sans-Serif" font-size="10.00"> +WaveSuicideTime</text>
</g>
<!-- Node4&#45;&gt;Node21 -->
<g id="edge9" class="edge"><title>Node4&#45;&gt;Node21</title>
<path fill="none" stroke="#404040" d="M210.419,-353.488C202.784,-334.707 194.141,-313.448 186.698,-295.142"/>
<polygon fill="none" stroke="#404040" points="186.641,-295.002 180.676,-290.95 182.122,-283.886 188.087,-287.937 186.641,-295.002"/>
<text text-anchor="middle" x="224.549" y="-327" font-family="Helvetica,sans-Serif" font-size="10.00"> +Weights</text>
</g>
<!-- Node5 -->
<g id="node5" class="node"><title>Node5</title>
<g id="a_node5"><a xlink:title=" ">
<polygon fill="none" stroke="#bfbfbf" points="444.049,-221 444.049,-278 473.049,-278 473.049,-221 444.049,-221"/>
<text text-anchor="middle" x="458.549" y="-266" font-family="Helvetica,sans-Serif" font-size="10.00">int</text>
<polyline fill="none" stroke="#bfbfbf" points="444.049,-259 473.049,-259 "/>
<text text-anchor="middle" x="458.549" y="-247" font-family="Helvetica,sans-Serif" font-size="10.00"> </text>
<polyline fill="none" stroke="#bfbfbf" points="444.049,-240 473.049,-240 "/>
<text text-anchor="middle" x="458.549" y="-228" font-family="Helvetica,sans-Serif" font-size="10.00"> </text>
</a>
</g>
</g>
<!-- Node5&#45;&gt;Node1 -->
<g id="edge4" class="edge"><title>Node5&#45;&gt;Node1</title>
<path fill="none" stroke="#404040" d="M458.084,-220.894C456.864,-180.335 452.455,-107.251 436.549,-87 427.377,-75.3235 415.18,-66.2887 401.911,-59.2992"/>
<polygon fill="none" stroke="#404040" points="401.903,-59.2955 394.765,-60.3172 391.076,-54.1209 398.214,-53.0992 401.903,-59.2955"/>
<text text-anchor="middle" x="519.549" y="-156" font-family="Helvetica,sans-Serif" font-size="10.00"> +MaxVarietiesPerEncounter</text>
<text text-anchor="middle" x="519.549" y="-145" font-family="Helvetica,sans-Serif" font-size="10.00">+MaxNumberOfAIPerWave</text>
<text text-anchor="middle" x="519.549" y="-134" font-family="Helvetica,sans-Serif" font-size="10.00">+MinVarietiesPerEncounter</text>
<text text-anchor="middle" x="519.549" y="-123" font-family="Helvetica,sans-Serif" font-size="10.00">+MinFormsPerEncounter</text>
<text text-anchor="middle" x="519.549" y="-112" font-family="Helvetica,sans-Serif" font-size="10.00">+MinNumberOfAIPerWave</text>
<text text-anchor="middle" x="519.549" y="-101" font-family="Helvetica,sans-Serif" font-size="10.00">+MaxFormsPerEncounter</text>
</g>
<!-- Node6 -->
<g id="node6" class="node"><title>Node6</title>
<g id="a_node6"><a xlink:href="a25823.html" target="_top" xlink:title=" ">
<polygon fill="none" stroke="black" points="543.549,-193.5 543.549,-305.5 671.549,-305.5 671.549,-193.5 543.549,-193.5"/>
<text text-anchor="start" x="551.549" y="-293.5" font-family="Helvetica,sans-Serif" font-size="10.00">SDK::TArray&lt; struct</text>
<text text-anchor="middle" x="607.549" y="-282.5" font-family="Helvetica,sans-Serif" font-size="10.00"> SDK::FAdditionalWave &gt;</text>
<polyline fill="none" stroke="black" points="543.549,-275.5 671.549,-275.5 "/>
<text text-anchor="middle" x="607.549" y="-263.5" font-family="Helvetica,sans-Serif" font-size="10.00"> </text>
<polyline fill="none" stroke="black" points="543.549,-256.5 671.549,-256.5 "/>
<text text-anchor="start" x="551.549" y="-244.5" font-family="Helvetica,sans-Serif" font-size="10.00">+ TArray()</text>
<text text-anchor="start" x="551.549" y="-233.5" font-family="Helvetica,sans-Serif" font-size="10.00">+ Num()</text>
<text text-anchor="start" x="551.549" y="-222.5" font-family="Helvetica,sans-Serif" font-size="10.00">+ operator[]()</text>
<text text-anchor="start" x="551.549" y="-211.5" font-family="Helvetica,sans-Serif" font-size="10.00">+ operator[]()</text>
<text text-anchor="start" x="551.549" y="-200.5" font-family="Helvetica,sans-Serif" font-size="10.00">+ IsValidIndex()</text>
</a>
</g>
</g>
<!-- Node6&#45;&gt;Node1 -->
<g id="edge5" class="edge"><title>Node6&#45;&gt;Node1</title>
<path fill="none" stroke="#404040" d="M615.112,-193.274C616.636,-158.355 612.023,-114.735 585.549,-87 560.748,-61.018 473.855,-47.9381 403.369,-41.485"/>
<polygon fill="none" stroke="#404040" points="403.271,-41.4764 396.945,-44.9381 391.316,-40.4303 397.642,-36.9686 403.271,-41.4764"/>
<text text-anchor="middle" x="656.549" y="-128.5" font-family="Helvetica,sans-Serif" font-size="10.00"> +AdditionalWaves</text>
</g>
<!-- Node7 -->
<g id="node7" class="node"><title>Node7</title>
<g id="a_node7"><a xlink:href="a24015.html" target="_top" xlink:title=" ">
<polygon fill="none" stroke="red" points="689.549,-215.5 689.549,-283.5 839.549,-283.5 839.549,-215.5 689.549,-215.5"/>
<text text-anchor="start" x="697.549" y="-271.5" font-family="Helvetica,sans-Serif" font-size="10.00">SDK::UAIEncounterGeneration</text>
<text text-anchor="middle" x="764.549" y="-260.5" font-family="Helvetica,sans-Serif" font-size="10.00">RecipeRankOrderList</text>
<polyline fill="none" stroke="red" points="689.549,-253.5 839.549,-253.5 "/>
<text text-anchor="middle" x="764.549" y="-241.5" font-family="Helvetica,sans-Serif" font-size="10.00"> </text>
<polyline fill="none" stroke="red" points="689.549,-234.5 839.549,-234.5 "/>
<text text-anchor="start" x="697.549" y="-222.5" font-family="Helvetica,sans-Serif" font-size="10.00">+ StaticClass()</text>
</a>
</g>
</g>
<!-- Node7&#45;&gt;Node1 -->
<g id="edge6" class="edge"><title>Node7&#45;&gt;Node1</title>
<path fill="none" stroke="#404040" d="M761.448,-215.417C756.054,-177.977 741.365,-118.163 701.549,-87 656.562,-51.7899 505.387,-40.5705 403.384,-37.0453"/>
<polygon fill="none" stroke="#404040" points="403.193,-37.0392 397.067,-40.8438 391.199,-36.6525 397.325,-32.8479 403.193,-37.0392"/>
<text text-anchor="middle" x="775.049" y="-128.5" font-family="Helvetica,sans-Serif" font-size="10.00"> +Recipes</text>
</g>
<!-- Node21&#45;&gt;Node1 -->
<g id="edge7" class="edge"><title>Node21&#45;&gt;Node1</title>
<path fill="none" stroke="#404040" d="M146.201,-215.252C125.662,-180.127 102.338,-124.71 130.549,-87 140.818,-73.2729 173.699,-61.9457 208.23,-53.4437"/>
<polygon fill="none" stroke="#404040" points="208.295,-53.4284 213.215,-48.156 219.974,-50.6692 215.054,-55.9416 208.295,-53.4284"/>
<text text-anchor="start" x="130.549" y="-156" font-family="Helvetica,sans-Serif" font-size="10.00"> +NumberOfTargetsWhichAre</text>
<text text-anchor="middle" x="194.549" y="-145" font-family="Helvetica,sans-Serif" font-size="10.00">Captains</text>
<text text-anchor="middle" x="194.549" y="-134" font-family="Helvetica,sans-Serif" font-size="10.00">+WaveSplitChance</text>
<text text-anchor="middle" x="194.549" y="-123" font-family="Helvetica,sans-Serif" font-size="10.00">+NumberOfWaves</text>
<text text-anchor="middle" x="194.549" y="-112" font-family="Helvetica,sans-Serif" font-size="10.00">+NumberOfTargetsTotal</text>
<text text-anchor="middle" x="194.549" y="-101" font-family="Helvetica,sans-Serif" font-size="10.00">+WavesPerRelocate</text>
</g>
</g>
</svg>
        <g id="navigator" transform="translate(0 0)" fill="#404254">
                <rect fill="#f2f5e9" fill-opacity="0.5" stroke="#606060" stroke-width=".5" x="0" y="0" width="60" height="60"/>
                <use id="zoomplus" xlink:href="#zoomPlus" x="17" y="9" onmousedown="handleZoom(evt,'in')"/>
                <use id="zoomminus" xlink:href="#zoomMin" x="42" y="9" onmousedown="handleZoom(evt,'out')"/>
                <use id="reset" xlink:href="#resetDef" x="30" y="36" onmousedown="handleReset()"/>
                <g id="arrowUp" xlink:href="#dirArrow" transform="translate(30 24)" onmousedown="handlePan(0,-1)">
                  <use xlink:href="#rim" fill="#404040">
                        <set attributeName="fill" to="#808080" begin="arrowUp.mouseover" end="arrowUp.mouseout"/>
                  </use>
                  <path fill="none" stroke="white" stroke-width="1.5" d="M0,-3.0v7 M-2.5,-0.5L0,-3.0L2.5,-0.5"/>
                </g>
                <g id="arrowRight" xlink:href="#dirArrow" transform="rotate(90) translate(36 -43)" onmousedown="handlePan(1,0)">
                  <use xlink:href="#rim" fill="#404040">
                        <set attributeName="fill" to="#808080" begin="arrowRight.mouseover" end="arrowRight.mouseout"/>
                  </use>
                  <path fill="none" stroke="white" stroke-width="1.5" d="M0,-3.0v7 M-2.5,-0.5L0,-3.0L2.5,-0.5"/>
                </g>
                <g id="arrowDown" xlink:href="#dirArrow" transform="rotate(180) translate(-30 -48)" onmousedown="handlePan(0,1)">
                  <use xlink:href="#rim" fill="#404040">
                        <set attributeName="fill" to="#808080" begin="arrowDown.mouseover" end="arrowDown.mouseout"/>
                  </use>
                  <path fill="none" stroke="white" stroke-width="1.5" d="M0,-3.0v7 M-2.5,-0.5L0,-3.0L2.5,-0.5"/>
                </g>
                <g id="arrowLeft" xlink:href="#dirArrow" transform="rotate(270) translate(-36 17)" onmousedown="handlePan(-1,0)">
                  <use xlink:href="#rim" fill="#404040">
                        <set attributeName="fill" to="#808080" begin="arrowLeft.mouseover" end="arrowLeft.mouseout"/>
                  </use>
                  <path fill="none" stroke="white" stroke-width="1.5" d="M0,-3.0v7 M-2.5,-0.5L0,-3.0L2.5,-0.5"/>
                </g>
        </g>
        <svg viewBox="0 0 15 15" width="100%" height="30px" preserveAspectRatio="xMaxYMin meet">
         <g id="arrow_out" transform="scale(0.3 0.3)">
          <a xlink:href="a13445_org.svg" target="_base">
           <rect id="button" ry="5" rx="5" y="6" x="6" height="38" width="38"
                fill="#f2f5e9" fill-opacity="0.5" stroke="#606060" stroke-width="1.0"/>
           <path id="arrow"
             d="M 11.500037,31.436501 C 11.940474,20.09759 22.043105,11.32322 32.158766,21.979434 L 37.068811,17.246167 C 37.068811,17.246167 37.088388,32 37.088388,32 L 22.160133,31.978069 C 22.160133,31.978069 26.997745,27.140456 26.997745,27.140456 C 18.528582,18.264221 13.291696,25.230495 11.500037,31.436501 z"
             style="fill:#404040;"/>
          </a>
         </g>
        </svg>
</svg>
