<?xml version="1.0" encoding="UTF-8" standalone="no"?>
<!DOCTYPE svg PUBLIC "-//W3C//DTD SVG 1.1//EN"
 "http://www.w3.org/Graphics/SVG/1.1/DTD/svg11.dtd">
<!-- Generated by graphviz version 2.38.0 (20140413.2041)
 -->
<!-- Title: SDK::FBellDesc Pages: 1 -->
<svg width="264pt" height="237pt"
 viewBox="0.00 0.00 264.00 237.00" xmlns="http://www.w3.org/2000/svg" xmlns:xlink="http://www.w3.org/1999/xlink">
<g id="graph0" class="graph" transform="scale(1 1) rotate(0) translate(4 233)">
<title>SDK::FBellDesc</title>
<!-- Node1 -->
<g id="node1" class="node"><title>Node1</title>
<g id="a_node1"><a xlink:title=" ">
<polygon fill="#bfbfbf" stroke="black" points="82,-0.5 82,-57.5 170,-57.5 170,-0.5 82,-0.5"/>
<text text-anchor="middle" x="126" y="-45.5" font-family="Helvetica,sans-Serif" font-size="10.00">SDK::FBellDesc</text>
<polyline fill="none" stroke="black" points="82,-38.5 170,-38.5 "/>
<text text-anchor="middle" x="126" y="-26.5" font-family="Helvetica,sans-Serif" font-size="10.00"> </text>
<polyline fill="none" stroke="black" points="82,-19.5 170,-19.5 "/>
<text text-anchor="middle" x="126" y="-7.5" font-family="Helvetica,sans-Serif" font-size="10.00"> </text>
</a>
</g>
</g>
<!-- Node2 -->
<g id="node2" class="node"><title>Node2</title>
<g id="a_node2"><a xlink:href="a36295.html" target="_top" xlink:title=" ">
<polygon fill="none" stroke="red" points="0,-116.5 0,-228.5 116,-228.5 116,-116.5 0,-116.5"/>
<text text-anchor="middle" x="58" y="-216.5" font-family="Helvetica,sans-Serif" font-size="10.00">SDK::UWwiseEvent</text>
<polyline fill="none" stroke="red" points="0,-209.5 116,-209.5 "/>
<text text-anchor="middle" x="58" y="-197.5" font-family="Helvetica,sans-Serif" font-size="10.00"> </text>
<polyline fill="none" stroke="red" points="0,-190.5 116,-190.5 "/>
<text text-anchor="start" x="8" y="-178.5" font-family="Helvetica,sans-Serif" font-size="10.00">+ IsAudible()</text>
<text text-anchor="start" x="8" y="-167.5" font-family="Helvetica,sans-Serif" font-size="10.00">+ GetMaxAttenuation()</text>
<text text-anchor="start" x="8" y="-156.5" font-family="Helvetica,sans-Serif" font-size="10.00">+ GetDurationType()</text>
<text text-anchor="start" x="8" y="-145.5" font-family="Helvetica,sans-Serif" font-size="10.00">+ GetDurationMin()</text>
<text text-anchor="start" x="8" y="-134.5" font-family="Helvetica,sans-Serif" font-size="10.00">+ GetDurationMax()</text>
<text text-anchor="start" x="8" y="-123.5" font-family="Helvetica,sans-Serif" font-size="10.00">+ StaticClass()</text>
</a>
</g>
</g>
<!-- Node2&#45;&gt;Node1 -->
<g id="edge1" class="edge"><title>Node2&#45;&gt;Node1</title>
<path fill="none" stroke="#404040" d="M52.0519,-116.214C52.741,-102.422 55.4605,-88.1219 62,-76 64.8159,-70.7802 68.513,-66.0094 72.7121,-61.685"/>
<polygon fill="none" stroke="#404040" points="72.9796,-61.4451 74.7772,-54.4616 81.9148,-53.435 80.1173,-60.4185 72.9796,-61.4451"/>
<text text-anchor="middle" x="117.5" y="-90" font-family="Helvetica,sans-Serif" font-size="10.00"> +BellRingTurbulenceSFX</text>
<text text-anchor="middle" x="117.5" y="-79" font-family="Helvetica,sans-Serif" font-size="10.00">+BellRingSFX</text>
</g>
<!-- Node21 -->
<g id="node3" class="node"><title>Node21</title>
<g id="a_node3"><a xlink:href="a27599.html" target="_top" xlink:title=" ">
<polygon fill="none" stroke="red" points="134,-127.5 134,-217.5 256,-217.5 256,-127.5 134,-127.5"/>
<text text-anchor="middle" x="195" y="-205.5" font-family="Helvetica,sans-Serif" font-size="10.00">SDK::UStaticMesh</text>
<polyline fill="none" stroke="red" points="134,-198.5 256,-198.5 "/>
<text text-anchor="middle" x="195" y="-186.5" font-family="Helvetica,sans-Serif" font-size="10.00"> </text>
<polyline fill="none" stroke="red" points="134,-179.5 256,-179.5 "/>
<text text-anchor="start" x="142" y="-167.5" font-family="Helvetica,sans-Serif" font-size="10.00">+ GetNumUVChannels()</text>
<text text-anchor="start" x="142" y="-156.5" font-family="Helvetica,sans-Serif" font-size="10.00">+ GetNumLODsBP()</text>
<text text-anchor="start" x="142" y="-145.5" font-family="Helvetica,sans-Serif" font-size="10.00">+ GetBoundingBox()</text>
<text text-anchor="start" x="142" y="-134.5" font-family="Helvetica,sans-Serif" font-size="10.00">+ StaticClass()</text>
</a>
</g>
</g>
<!-- Node21&#45;&gt;Node1 -->
<g id="edge2" class="edge"><title>Node21&#45;&gt;Node1</title>
<path fill="none" stroke="#404040" d="M190.191,-127.28C187.013,-110.446 181.741,-91.5802 173,-76 171.272,-72.9194 169.275,-69.9116 167.099,-67.004"/>
<polygon fill="none" stroke="#404040" points="166.868,-66.7291 159.945,-64.7105 159.146,-57.5438 166.069,-59.5624 166.868,-66.7291"/>
<text text-anchor="middle" x="207" y="-84.5" font-family="Helvetica,sans-Serif" font-size="10.00"> +BellMesh</text>
</g>
</g>
</svg>
