<?xml version="1.0" encoding="UTF-8" standalone="no"?>
<!DOCTYPE svg PUBLIC "-//W3C//DTD SVG 1.1//EN"
 "http://www.w3.org/Graphics/SVG/1.1/DTD/svg11.dtd">
<!-- Generated by graphviz version 2.38.0 (20140413.2041)
 -->
<!-- Title: SDK::FShipActiveCurseFXData Pages: 1 -->
<svg width="353pt" height="276pt"
 viewBox="0.00 0.00 353.46 276.00" xmlns="http://www.w3.org/2000/svg" xmlns:xlink="http://www.w3.org/1999/xlink">
<g id="graph0" class="graph" transform="scale(1 1) rotate(0) translate(4 272)">
<title>SDK::FShipActiveCurseFXData</title>
<!-- Node1 -->
<g id="node1" class="node"><title>Node1</title>
<g id="a_node1"><a xlink:title=" ">
<polygon fill="#bfbfbf" stroke="black" points="74.9561,-0.5 74.9561,-57.5 226.956,-57.5 226.956,-0.5 74.9561,-0.5"/>
<text text-anchor="middle" x="150.956" y="-45.5" font-family="Helvetica,sans-Serif" font-size="10.00">SDK::FShipActiveCurseFXData</text>
<polyline fill="none" stroke="black" points="74.9561,-38.5 226.956,-38.5 "/>
<text text-anchor="middle" x="150.956" y="-26.5" font-family="Helvetica,sans-Serif" font-size="10.00"> </text>
<polyline fill="none" stroke="black" points="74.9561,-19.5 226.956,-19.5 "/>
<text text-anchor="middle" x="150.956" y="-7.5" font-family="Helvetica,sans-Serif" font-size="10.00"> </text>
</a>
</g>
</g>
<!-- Node2 -->
<g id="node2" class="node"><title>Node2</title>
<g id="a_node2"><a xlink:href="a30715.html" target="_top" xlink:title=" ">
<polygon fill="none" stroke="black" points="99.4561,-105.5 99.4561,-162.5 202.456,-162.5 202.456,-105.5 99.4561,-105.5"/>
<text text-anchor="middle" x="150.956" y="-150.5" font-family="Helvetica,sans-Serif" font-size="10.00">SDK::FTimerHandle</text>
<polyline fill="none" stroke="black" points="99.4561,-143.5 202.456,-143.5 "/>
<text text-anchor="middle" x="150.956" y="-131.5" font-family="Helvetica,sans-Serif" font-size="10.00"> </text>
<polyline fill="none" stroke="black" points="99.4561,-124.5 202.456,-124.5 "/>
<text text-anchor="middle" x="150.956" y="-112.5" font-family="Helvetica,sans-Serif" font-size="10.00"> </text>
</a>
</g>
</g>
<!-- Node2&#45;&gt;Node1 -->
<g id="edge1" class="edge"><title>Node2&#45;&gt;Node1</title>
<path fill="none" stroke="#404040" d="M150.956,-105.398C150.956,-94.5451 150.956,-81.8731 150.956,-70.0493"/>
<polygon fill="none" stroke="#404040" points="150.956,-69.6783 146.956,-63.6783 150.956,-57.6783 154.956,-63.6783 150.956,-69.6783"/>
<text text-anchor="middle" x="182.956" y="-79" font-family="Helvetica,sans-Serif" font-size="10.00"> +TimerHandle</text>
</g>
<!-- Node3 -->
<g id="node3" class="node"><title>Node3</title>
<g id="a_node3"><a xlink:title=" ">
<polygon fill="none" stroke="#bfbfbf" points="133.456,-210.5 133.456,-267.5 168.456,-267.5 168.456,-210.5 133.456,-210.5"/>
<text text-anchor="middle" x="150.956" y="-255.5" font-family="Helvetica,sans-Serif" font-size="10.00">char</text>
<polyline fill="none" stroke="#bfbfbf" points="133.456,-248.5 168.456,-248.5 "/>
<text text-anchor="middle" x="150.956" y="-236.5" font-family="Helvetica,sans-Serif" font-size="10.00"> </text>
<polyline fill="none" stroke="#bfbfbf" points="133.456,-229.5 168.456,-229.5 "/>
<text text-anchor="middle" x="150.956" y="-217.5" font-family="Helvetica,sans-Serif" font-size="10.00"> </text>
</a>
</g>
</g>
<!-- Node3&#45;&gt;Node1 -->
<g id="edge5" class="edge"><title>Node3&#45;&gt;Node1</title>
<path fill="none" stroke="#404040" d="M133.082,-234.62C101.613,-227.598 37.0851,-208.158 9.95608,-163 -3.31869,-140.903 -3.31869,-127.097 9.95608,-105 22.354,-84.3626 42.5628,-69.0965 63.8575,-57.9323"/>
<polygon fill="none" stroke="#404040" points="63.9335,-57.8952 67.5636,-51.6644 74.7113,-52.6189 71.0811,-58.8496 63.9335,-57.8952"/>
<text text-anchor="middle" x="49.9561" y="-131.5" font-family="Helvetica,sans-Serif" font-size="10.00"> +UnknownData00</text>
</g>
<!-- Node3&#45;&gt;Node2 -->
<g id="edge2" class="edge"><title>Node3&#45;&gt;Node2</title>
<path fill="none" stroke="#404040" d="M150.956,-210.398C150.956,-199.545 150.956,-186.873 150.956,-175.049"/>
<polygon fill="none" stroke="#404040" points="150.956,-174.678 146.956,-168.678 150.956,-162.678 154.956,-168.678 150.956,-174.678"/>
<text text-anchor="middle" x="190.956" y="-184" font-family="Helvetica,sans-Serif" font-size="10.00"> +UnknownData00</text>
</g>
<!-- Node4 -->
<g id="node4" class="node"><title>Node4</title>
<g id="a_node4"><a xlink:href="a13607.html" target="_top" xlink:title=" ">
<polygon fill="none" stroke="red" points="220.456,-105.5 220.456,-162.5 345.456,-162.5 345.456,-105.5 220.456,-105.5"/>
<text text-anchor="middle" x="282.956" y="-150.5" font-family="Helvetica,sans-Serif" font-size="10.00">SDK::FShipCurseFXData</text>
<polyline fill="none" stroke="red" points="220.456,-143.5 345.456,-143.5 "/>
<text text-anchor="middle" x="282.956" y="-131.5" font-family="Helvetica,sans-Serif" font-size="10.00"> </text>
<polyline fill="none" stroke="red" points="220.456,-124.5 345.456,-124.5 "/>
<text text-anchor="middle" x="282.956" y="-112.5" font-family="Helvetica,sans-Serif" font-size="10.00"> </text>
</a>
</g>
</g>
<!-- Node3&#45;&gt;Node4 -->
<g id="edge4" class="edge"><title>Node3&#45;&gt;Node4</title>
<path fill="none" stroke="#404040" d="M168.516,-230.703C186.358,-222.779 214.242,-208.956 234.956,-192 242.045,-186.197 248.885,-179.243 255.071,-172.219"/>
<polygon fill="none" stroke="#404040" points="255.348,-171.889 256.142,-164.722 263.064,-162.699 262.269,-169.866 255.348,-171.889"/>
<text text-anchor="middle" x="285.956" y="-184" font-family="Helvetica,sans-Serif" font-size="10.00"> +UnknownData00</text>
</g>
<!-- Node4&#45;&gt;Node1 -->
<g id="edge3" class="edge"><title>Node4&#45;&gt;Node1</title>
<path fill="none" stroke="#404040" d="M253.706,-105.476C243.034,-95.8326 230.7,-85.1365 218.956,-76 214.089,-72.2133 208.925,-68.3927 203.703,-64.6578"/>
<polygon fill="none" stroke="#404040" points="203.479,-64.5006 196.269,-64.3318 193.652,-57.6123 200.862,-57.7811 203.479,-64.5006"/>
<text text-anchor="middle" x="265.456" y="-79" font-family="Helvetica,sans-Serif" font-size="10.00"> +CurseFXData</text>
</g>
</g>
</svg>
