<?xml version="1.0" encoding="UTF-8" standalone="no"?>
<!DOCTYPE svg PUBLIC "-//W3C//DTD SVG 1.1//EN"
 "http://www.w3.org/Graphics/SVG/1.1/DTD/svg11.dtd">
<!-- Generated by graphviz version 2.38.0 (20140413.2041)
 -->
<!-- Title: SDK::FDamageTypeToAudio Pages: 1 -->
<svg width="582pt" height="364pt"
 viewBox="0.00 0.00 581.52 364.00" xmlns="http://www.w3.org/2000/svg" xmlns:xlink="http://www.w3.org/1999/xlink">
<g id="graph0" class="graph" transform="scale(1 1) rotate(0) translate(4 360)">
<title>SDK::FDamageTypeToAudio</title>
<!-- Node1 -->
<g id="node1" class="node"><title>Node1</title>
<g id="a_node1"><a xlink:title=" ">
<polygon fill="#bfbfbf" stroke="black" points="161.021,-0.5 161.021,-57.5 302.021,-57.5 302.021,-0.5 161.021,-0.5"/>
<text text-anchor="middle" x="231.521" y="-45.5" font-family="Helvetica,sans-Serif" font-size="10.00">SDK::FDamageTypeToAudio</text>
<polyline fill="none" stroke="black" points="161.021,-38.5 302.021,-38.5 "/>
<text text-anchor="middle" x="231.521" y="-26.5" font-family="Helvetica,sans-Serif" font-size="10.00"> </text>
<polyline fill="none" stroke="black" points="161.021,-19.5 302.021,-19.5 "/>
<text text-anchor="middle" x="231.521" y="-7.5" font-family="Helvetica,sans-Serif" font-size="10.00"> </text>
</a>
</g>
</g>
<!-- Node2 -->
<g id="node2" class="node"><title>Node2</title>
<g id="a_node2"><a xlink:href="a36295.html" target="_top" xlink:title=" ">
<polygon fill="none" stroke="red" points="78.5207,-116.5 78.5207,-228.5 194.521,-228.5 194.521,-116.5 78.5207,-116.5"/>
<text text-anchor="middle" x="136.521" y="-216.5" font-family="Helvetica,sans-Serif" font-size="10.00">SDK::UWwiseEvent</text>
<polyline fill="none" stroke="red" points="78.5207,-209.5 194.521,-209.5 "/>
<text text-anchor="middle" x="136.521" y="-197.5" font-family="Helvetica,sans-Serif" font-size="10.00"> </text>
<polyline fill="none" stroke="red" points="78.5207,-190.5 194.521,-190.5 "/>
<text text-anchor="start" x="86.5207" y="-178.5" font-family="Helvetica,sans-Serif" font-size="10.00">+ IsAudible()</text>
<text text-anchor="start" x="86.5207" y="-167.5" font-family="Helvetica,sans-Serif" font-size="10.00">+ GetMaxAttenuation()</text>
<text text-anchor="start" x="86.5207" y="-156.5" font-family="Helvetica,sans-Serif" font-size="10.00">+ GetDurationType()</text>
<text text-anchor="start" x="86.5207" y="-145.5" font-family="Helvetica,sans-Serif" font-size="10.00">+ GetDurationMin()</text>
<text text-anchor="start" x="86.5207" y="-134.5" font-family="Helvetica,sans-Serif" font-size="10.00">+ GetDurationMax()</text>
<text text-anchor="start" x="86.5207" y="-123.5" font-family="Helvetica,sans-Serif" font-size="10.00">+ StaticClass()</text>
</a>
</g>
</g>
<!-- Node2&#45;&gt;Node1 -->
<g id="edge1" class="edge"><title>Node2&#45;&gt;Node1</title>
<path fill="none" stroke="#404040" d="M129.955,-116.443C130.712,-102.347 133.842,-87.8405 141.521,-76 144.313,-71.6935 147.643,-67.7707 151.35,-64.1999"/>
<polygon fill="none" stroke="#404040" points="151.387,-64.1691 153.44,-57.2563 160.61,-56.4924 158.557,-63.4052 151.387,-64.1691"/>
<text text-anchor="middle" x="179.521" y="-90" font-family="Helvetica,sans-Serif" font-size="10.00"> +EndAudioEvent</text>
<text text-anchor="middle" x="179.521" y="-79" font-family="Helvetica,sans-Serif" font-size="10.00">+StartAudioEvent</text>
</g>
<!-- Node15 -->
<g id="node3" class="node"><title>Node15</title>
<g id="a_node3"><a xlink:title=" ">
<polygon fill="none" stroke="#bfbfbf" points="5.02071,-298.5 5.02071,-355.5 40.0207,-355.5 40.0207,-298.5 5.02071,-298.5"/>
<text text-anchor="middle" x="22.5207" y="-343.5" font-family="Helvetica,sans-Serif" font-size="10.00">float</text>
<polyline fill="none" stroke="#bfbfbf" points="5.02071,-336.5 40.0207,-336.5 "/>
<text text-anchor="middle" x="22.5207" y="-324.5" font-family="Helvetica,sans-Serif" font-size="10.00"> </text>
<polyline fill="none" stroke="#bfbfbf" points="5.02071,-317.5 40.0207,-317.5 "/>
<text text-anchor="middle" x="22.5207" y="-305.5" font-family="Helvetica,sans-Serif" font-size="10.00"> </text>
</a>
</g>
</g>
<!-- Node15&#45;&gt;Node1 -->
<g id="edge6" class="edge"><title>Node15&#45;&gt;Node1</title>
<path fill="none" stroke="#404040" d="M13.7365,-298.372C1.8693,-255.348 -13.7981,-171.526 23.5207,-116 51.5335,-74.3202 103.84,-52.8145 148.99,-41.7316"/>
<polygon fill="none" stroke="#404040" points="149.203,-41.6829 154.158,-36.4441 160.9,-39.0032 155.944,-44.2421 149.203,-41.6829"/>
<text text-anchor="middle" x="46.5207" y="-170" font-family="Helvetica,sans-Serif" font-size="10.00"> +Duration</text>
</g>
<!-- Node15&#45;&gt;Node2 -->
<g id="edge2" class="edge"><title>Node15&#45;&gt;Node2</title>
<path fill="none" stroke="#404040" d="M27.6436,-298.341C31.538,-282.35 38.0582,-262.41 48.5207,-247 54.4511,-238.265 61.7015,-229.995 69.4705,-222.371"/>
<polygon fill="none" stroke="#404040" points="69.6321,-222.221 71.3017,-215.206 78.4194,-214.049 76.7498,-221.064 69.6321,-222.221"/>
<text text-anchor="middle" x="86.0207" y="-272" font-family="Helvetica,sans-Serif" font-size="10.00"> +DurationMin</text>
<text text-anchor="middle" x="86.0207" y="-261" font-family="Helvetica,sans-Serif" font-size="10.00">+DurationMax</text>
<text text-anchor="middle" x="86.0207" y="-250" font-family="Helvetica,sans-Serif" font-size="10.00">+MaxAttenuation</text>
</g>
<!-- Node12 -->
<g id="node4" class="node"><title>Node12</title>
<g id="a_node4"><a xlink:title=" ">
<polygon fill="none" stroke="#bfbfbf" points="214.021,-298.5 214.021,-355.5 249.021,-355.5 249.021,-298.5 214.021,-298.5"/>
<text text-anchor="middle" x="231.521" y="-343.5" font-family="Helvetica,sans-Serif" font-size="10.00">char</text>
<polyline fill="none" stroke="#bfbfbf" points="214.021,-336.5 249.021,-336.5 "/>
<text text-anchor="middle" x="231.521" y="-324.5" font-family="Helvetica,sans-Serif" font-size="10.00"> </text>
<polyline fill="none" stroke="#bfbfbf" points="214.021,-317.5 249.021,-317.5 "/>
<text text-anchor="middle" x="231.521" y="-305.5" font-family="Helvetica,sans-Serif" font-size="10.00"> </text>
</a>
</g>
</g>
<!-- Node12&#45;&gt;Node1 -->
<g id="edge5" class="edge"><title>Node12&#45;&gt;Node1</title>
<path fill="none" stroke="#404040" d="M231.521,-298.419C231.521,-245.761 231.521,-130.734 231.521,-69.7663"/>
<polygon fill="none" stroke="#404040" points="231.521,-69.619 227.521,-63.619 231.521,-57.619 235.521,-63.619 231.521,-69.619"/>
<text text-anchor="middle" x="271.521" y="-170" font-family="Helvetica,sans-Serif" font-size="10.00"> +UnknownData00</text>
</g>
<!-- Node12&#45;&gt;Node2 -->
<g id="edge3" class="edge"><title>Node12&#45;&gt;Node2</title>
<path fill="none" stroke="#404040" d="M213.956,-323.096C191.748,-318.382 154.381,-306.742 137.521,-280 130.198,-268.387 127.04,-254.551 126.245,-240.759"/>
<polygon fill="none" stroke="#404040" points="126.244,-240.706 122.177,-234.751 126.11,-228.707 130.177,-234.661 126.244,-240.706"/>
<text text-anchor="middle" x="177.521" y="-266.5" font-family="Helvetica,sans-Serif" font-size="10.00"> +UnknownData01</text>
<text text-anchor="middle" x="177.521" y="-255.5" font-family="Helvetica,sans-Serif" font-size="10.00">+UnknownData00</text>
</g>
<!-- Node9 -->
<g id="node6" class="node"><title>Node9</title>
<g id="a_node6"><a xlink:href="a26127.html" target="_top" xlink:title=" ">
<polygon fill="none" stroke="red" points="330.021,-133 330.021,-212 449.021,-212 449.021,-133 330.021,-133"/>
<text text-anchor="middle" x="389.521" y="-200" font-family="Helvetica,sans-Serif" font-size="10.00">SDK::UClass</text>
<polyline fill="none" stroke="red" points="330.021,-193 449.021,-193 "/>
<text text-anchor="middle" x="389.521" y="-181" font-family="Helvetica,sans-Serif" font-size="10.00"> </text>
<polyline fill="none" stroke="red" points="330.021,-174 449.021,-174 "/>
<text text-anchor="start" x="338.021" y="-162" font-family="Helvetica,sans-Serif" font-size="10.00">+ CreateDefaultObject()</text>
<text text-anchor="start" x="338.021" y="-151" font-family="Helvetica,sans-Serif" font-size="10.00">+ CreateDefaultObject()</text>
<text text-anchor="start" x="338.021" y="-140" font-family="Helvetica,sans-Serif" font-size="10.00">+ StaticClass()</text>
</a>
</g>
</g>
<!-- Node12&#45;&gt;Node9 -->
<g id="edge8" class="edge"><title>Node12&#45;&gt;Node9</title>
<path fill="none" stroke="#404040" d="M249.033,-309.097C270.971,-287.923 309.466,-250.768 340.618,-220.7"/>
<polygon fill="none" stroke="#404040" points="340.972,-220.359 342.511,-213.314 349.606,-212.025 348.067,-219.07 340.972,-220.359"/>
<text text-anchor="middle" x="350.521" y="-261" font-family="Helvetica,sans-Serif" font-size="10.00"> +UnknownData00</text>
</g>
<!-- Node4 -->
<g id="node5" class="node"><title>Node4</title>
<g id="a_node5"><a xlink:href="a25839.html" target="_top" xlink:title=" ">
<polygon fill="none" stroke="red" points="467.521,-116.5 467.521,-228.5 573.521,-228.5 573.521,-116.5 467.521,-116.5"/>
<text text-anchor="middle" x="520.521" y="-216.5" font-family="Helvetica,sans-Serif" font-size="10.00">SDK::FName</text>
<polyline fill="none" stroke="red" points="467.521,-209.5 573.521,-209.5 "/>
<text text-anchor="middle" x="520.521" y="-197.5" font-family="Helvetica,sans-Serif" font-size="10.00"> </text>
<polyline fill="none" stroke="red" points="467.521,-190.5 573.521,-190.5 "/>
<text text-anchor="start" x="475.521" y="-178.5" font-family="Helvetica,sans-Serif" font-size="10.00">+ FName()</text>
<text text-anchor="start" x="475.521" y="-167.5" font-family="Helvetica,sans-Serif" font-size="10.00">+ FName()</text>
<text text-anchor="start" x="475.521" y="-156.5" font-family="Helvetica,sans-Serif" font-size="10.00">+ FName()</text>
<text text-anchor="start" x="475.521" y="-145.5" font-family="Helvetica,sans-Serif" font-size="10.00">+ GetName()</text>
<text text-anchor="start" x="475.521" y="-134.5" font-family="Helvetica,sans-Serif" font-size="10.00">+ operator==()</text>
<text text-anchor="start" x="475.521" y="-123.5" font-family="Helvetica,sans-Serif" font-size="10.00">+ GetGlobalNames()</text>
</a>
</g>
</g>
<!-- Node4&#45;&gt;Node1 -->
<g id="edge4" class="edge"><title>Node4&#45;&gt;Node1</title>
<path fill="none" stroke="#404040" d="M467.269,-123.061C464.03,-120.597 460.767,-118.224 457.521,-116 413.953,-86.1519 358.63,-64.8717 313.625,-50.9464"/>
<polygon fill="none" stroke="#404040" points="313.61,-50.942 306.711,-53.0387 302.122,-47.4763 309.021,-45.3796 313.61,-50.942"/>
<text text-anchor="middle" x="453.521" y="-84.5" font-family="Helvetica,sans-Serif" font-size="10.00"> +AudioState</text>
</g>
<!-- Node9&#45;&gt;Node1 -->
<g id="edge7" class="edge"><title>Node9&#45;&gt;Node1</title>
<path fill="none" stroke="#404040" d="M346.347,-132.835C323.058,-111.978 294.5,-86.4024 271.69,-65.9747"/>
<polygon fill="none" stroke="#404040" points="271.558,-65.856 264.42,-64.8329 262.619,-57.8503 269.757,-58.8734 271.558,-65.856"/>
<text text-anchor="middle" x="341.521" y="-84.5" font-family="Helvetica,sans-Serif" font-size="10.00"> +DamagerType</text>
</g>
</g>
</svg>
