<?xml version="1.0" encoding="UTF-8" standalone="no"?>
<!DOCTYPE svg PUBLIC "-//W3C//DTD SVG 1.1//EN"
 "http://www.w3.org/Graphics/SVG/1.1/DTD/svg11.dtd">
<!-- Generated by graphviz version 2.38.0 (20140413.2041)
 -->
<!-- Title: SDK::FCompanyProgressIcons Pages: 1 -->
<svg width="331pt" height="226pt"
 viewBox="0.00 0.00 331.00 226.00" xmlns="http://www.w3.org/2000/svg" xmlns:xlink="http://www.w3.org/1999/xlink">
<g id="graph0" class="graph" transform="scale(1 1) rotate(0) translate(4 222)">
<title>SDK::FCompanyProgressIcons</title>
<!-- Node1 -->
<g id="node1" class="node"><title>Node1</title>
<g id="a_node1"><a xlink:title=" ">
<polygon fill="#bfbfbf" stroke="black" points="118.5,-0.5 118.5,-57.5 270.5,-57.5 270.5,-0.5 118.5,-0.5"/>
<text text-anchor="middle" x="194.5" y="-45.5" font-family="Helvetica,sans-Serif" font-size="10.00">SDK::FCompanyProgressIcons</text>
<polyline fill="none" stroke="black" points="118.5,-38.5 270.5,-38.5 "/>
<text text-anchor="middle" x="194.5" y="-26.5" font-family="Helvetica,sans-Serif" font-size="10.00"> </text>
<polyline fill="none" stroke="black" points="118.5,-19.5 270.5,-19.5 "/>
<text text-anchor="middle" x="194.5" y="-7.5" font-family="Helvetica,sans-Serif" font-size="10.00"> </text>
</a>
</g>
</g>
<!-- Node2 -->
<g id="node2" class="node"><title>Node2</title>
<g id="a_node2"><a xlink:href="a25611.html" target="_top" xlink:title=" ">
<polygon fill="none" stroke="black" points="0,-105.5 0,-217.5 159,-217.5 159,-105.5 0,-105.5"/>
<text text-anchor="start" x="8" y="-205.5" font-family="Helvetica,sans-Serif" font-size="10.00">SDK::TArray&lt; struct</text>
<text text-anchor="middle" x="79.5" y="-194.5" font-family="Helvetica,sans-Serif" font-size="10.00"> SDK::FCompanyProgressIcon &gt;</text>
<polyline fill="none" stroke="black" points="0,-187.5 159,-187.5 "/>
<text text-anchor="middle" x="79.5" y="-175.5" font-family="Helvetica,sans-Serif" font-size="10.00"> </text>
<polyline fill="none" stroke="black" points="0,-168.5 159,-168.5 "/>
<text text-anchor="start" x="8" y="-156.5" font-family="Helvetica,sans-Serif" font-size="10.00">+ TArray()</text>
<text text-anchor="start" x="8" y="-145.5" font-family="Helvetica,sans-Serif" font-size="10.00">+ Num()</text>
<text text-anchor="start" x="8" y="-134.5" font-family="Helvetica,sans-Serif" font-size="10.00">+ operator[]()</text>
<text text-anchor="start" x="8" y="-123.5" font-family="Helvetica,sans-Serif" font-size="10.00">+ operator[]()</text>
<text text-anchor="start" x="8" y="-112.5" font-family="Helvetica,sans-Serif" font-size="10.00">+ IsValidIndex()</text>
</a>
</g>
</g>
<!-- Node2&#45;&gt;Node1 -->
<g id="edge1" class="edge"><title>Node2&#45;&gt;Node1</title>
<path fill="none" stroke="#404040" d="M128.27,-105.156C139.67,-92.22 151.539,-78.7518 162.027,-66.8499"/>
<polygon fill="none" stroke="#404040" points="162.173,-66.6838 163.139,-59.5376 170.107,-57.6807 169.141,-64.8268 162.173,-66.6838"/>
<text text-anchor="middle" x="167" y="-79" font-family="Helvetica,sans-Serif" font-size="10.00"> +Icons</text>
</g>
<!-- Node3 -->
<g id="node3" class="node"><title>Node3</title>
<g id="a_node3"><a xlink:title=" ">
<polygon fill="none" stroke="#bfbfbf" points="177,-133 177,-190 212,-190 212,-133 177,-133"/>
<text text-anchor="middle" x="194.5" y="-178" font-family="Helvetica,sans-Serif" font-size="10.00">char</text>
<polyline fill="none" stroke="#bfbfbf" points="177,-171 212,-171 "/>
<text text-anchor="middle" x="194.5" y="-159" font-family="Helvetica,sans-Serif" font-size="10.00"> </text>
<polyline fill="none" stroke="#bfbfbf" points="177,-152 212,-152 "/>
<text text-anchor="middle" x="194.5" y="-140" font-family="Helvetica,sans-Serif" font-size="10.00"> </text>
</a>
</g>
</g>
<!-- Node3&#45;&gt;Node1 -->
<g id="edge2" class="edge"><title>Node3&#45;&gt;Node1</title>
<path fill="none" stroke="#404040" d="M194.5,-132.824C194.5,-114.484 194.5,-90.1369 194.5,-69.7378"/>
<polygon fill="none" stroke="#404040" points="194.5,-69.6358 190.5,-63.6358 194.5,-57.6358 198.5,-63.6358 194.5,-69.6358"/>
<text text-anchor="middle" x="234.5" y="-79" font-family="Helvetica,sans-Serif" font-size="10.00"> +UnknownData00</text>
</g>
<!-- Node4 -->
<g id="node4" class="node"><title>Node4</title>
<g id="a_node4"><a xlink:title=" ">
<polygon fill="none" stroke="#bfbfbf" points="272,-133 272,-190 323,-190 323,-133 272,-133"/>
<text text-anchor="middle" x="297.5" y="-178" font-family="Helvetica,sans-Serif" font-size="10.00">uint32_t</text>
<polyline fill="none" stroke="#bfbfbf" points="272,-171 323,-171 "/>
<text text-anchor="middle" x="297.5" y="-159" font-family="Helvetica,sans-Serif" font-size="10.00"> </text>
<polyline fill="none" stroke="#bfbfbf" points="272,-152 323,-152 "/>
<text text-anchor="middle" x="297.5" y="-140" font-family="Helvetica,sans-Serif" font-size="10.00"> </text>
</a>
</g>
</g>
<!-- Node4&#45;&gt;Node1 -->
<g id="edge3" class="edge"><title>Node4&#45;&gt;Node1</title>
<path fill="none" stroke="#404040" d="M295.803,-132.987C293.475,-115.182 288.051,-92.3561 275.5,-76 272.593,-72.2111 269.278,-68.6843 265.689,-65.4094"/>
<polygon fill="none" stroke="#404040" points="265.601,-65.3379 258.421,-64.6677 256.278,-57.7823 263.458,-58.4525 265.601,-65.3379"/>
<text text-anchor="middle" x="296.5" y="-79" font-family="Helvetica,sans-Serif" font-size="10.00"> +Step</text>
</g>
</g>
</svg>
