<?xml version="1.0" encoding="UTF-8" standalone="no"?>
<!DOCTYPE svg PUBLIC "-//W3C//DTD SVG 1.1//EN"
 "http://www.w3.org/Graphics/SVG/1.1/DTD/svg11.dtd">
<!-- Generated by graphviz version 2.38.0 (20140413.2041)
 -->
<!-- Title: SDK::FTrackedCrewInContest Pages: 1 -->
<svg width="249pt" height="226pt"
 viewBox="0.00 0.00 248.50 226.00" xmlns="http://www.w3.org/2000/svg" xmlns:xlink="http://www.w3.org/1999/xlink">
<g id="graph0" class="graph" transform="scale(1 1) rotate(0) translate(4 222)">
<title>SDK::FTrackedCrewInContest</title>
<!-- Node1 -->
<g id="node1" class="node"><title>Node1</title>
<g id="a_node1"><a xlink:title=" ">
<polygon fill="#bfbfbf" stroke="black" points="4.5,-0.5 4.5,-57.5 150.5,-57.5 150.5,-0.5 4.5,-0.5"/>
<text text-anchor="middle" x="77.5" y="-45.5" font-family="Helvetica,sans-Serif" font-size="10.00">SDK::FTrackedCrewInContest</text>
<polyline fill="none" stroke="black" points="4.5,-38.5 150.5,-38.5 "/>
<text text-anchor="middle" x="77.5" y="-26.5" font-family="Helvetica,sans-Serif" font-size="10.00"> </text>
<polyline fill="none" stroke="black" points="4.5,-19.5 150.5,-19.5 "/>
<text text-anchor="middle" x="77.5" y="-7.5" font-family="Helvetica,sans-Serif" font-size="10.00"> </text>
</a>
</g>
</g>
<!-- Node2 -->
<g id="node2" class="node"><title>Node2</title>
<g id="a_node2"><a xlink:title=" ">
<polygon fill="none" stroke="#bfbfbf" points="0,-133 0,-190 35,-190 35,-133 0,-133"/>
<text text-anchor="middle" x="17.5" y="-178" font-family="Helvetica,sans-Serif" font-size="10.00">char</text>
<polyline fill="none" stroke="#bfbfbf" points="0,-171 35,-171 "/>
<text text-anchor="middle" x="17.5" y="-159" font-family="Helvetica,sans-Serif" font-size="10.00"> </text>
<polyline fill="none" stroke="#bfbfbf" points="0,-152 35,-152 "/>
<text text-anchor="middle" x="17.5" y="-140" font-family="Helvetica,sans-Serif" font-size="10.00"> </text>
</a>
</g>
</g>
<!-- Node2&#45;&gt;Node1 -->
<g id="edge1" class="edge"><title>Node2&#45;&gt;Node1</title>
<path fill="none" stroke="#404040" d="M20.1709,-132.656C22.662,-115.569 27.4301,-93.6545 36.5,-76 38.0063,-73.068 39.7439,-70.1754 41.6354,-67.3552"/>
<polygon fill="none" stroke="#404040" points="41.8156,-67.1152 42.2189,-59.9154 49.02,-57.5185 48.6167,-64.7183 41.8156,-67.1152"/>
<text text-anchor="middle" x="76.5" y="-79" font-family="Helvetica,sans-Serif" font-size="10.00"> +UnknownData00</text>
</g>
<!-- Node3 -->
<g id="node3" class="node"><title>Node3</title>
<g id="a_node3"><a xlink:href="a25611.html" target="_top" xlink:title=" ">
<polygon fill="none" stroke="black" points="53,-105.5 53,-217.5 224,-217.5 224,-105.5 53,-105.5"/>
<text text-anchor="start" x="61" y="-205.5" font-family="Helvetica,sans-Serif" font-size="10.00">SDK::TArray&lt; struct</text>
<text text-anchor="middle" x="138.5" y="-194.5" font-family="Helvetica,sans-Serif" font-size="10.00"> SDK::FPlayersSpawningInTavern &gt;</text>
<polyline fill="none" stroke="black" points="53,-187.5 224,-187.5 "/>
<text text-anchor="middle" x="138.5" y="-175.5" font-family="Helvetica,sans-Serif" font-size="10.00"> </text>
<polyline fill="none" stroke="black" points="53,-168.5 224,-168.5 "/>
<text text-anchor="start" x="61" y="-156.5" font-family="Helvetica,sans-Serif" font-size="10.00">+ TArray()</text>
<text text-anchor="start" x="61" y="-145.5" font-family="Helvetica,sans-Serif" font-size="10.00">+ Num()</text>
<text text-anchor="start" x="61" y="-134.5" font-family="Helvetica,sans-Serif" font-size="10.00">+ operator[]()</text>
<text text-anchor="start" x="61" y="-123.5" font-family="Helvetica,sans-Serif" font-size="10.00">+ operator[]()</text>
<text text-anchor="start" x="61" y="-112.5" font-family="Helvetica,sans-Serif" font-size="10.00">+ IsValidIndex()</text>
</a>
</g>
</g>
<!-- Node3&#45;&gt;Node1 -->
<g id="edge2" class="edge"><title>Node3&#45;&gt;Node1</title>
<path fill="none" stroke="#404040" d="M127.886,-105.073C124.918,-95.0973 121.181,-85.0138 116.5,-76 114.991,-73.0948 113.269,-70.2132 111.409,-67.3926"/>
<polygon fill="none" stroke="#404040" points="111.273,-67.2058 104.504,-64.7177 104.198,-57.513 110.966,-60.0012 111.273,-67.2058"/>
<text text-anchor="middle" x="180.5" y="-79" font-family="Helvetica,sans-Serif" font-size="10.00"> +PlayersSpawningInTavern</text>
</g>
</g>
</svg>
