<?xml version="1.0" encoding="UTF-8" standalone="no"?>
<!DOCTYPE svg PUBLIC "-//W3C//DTD SVG 1.1//EN"
 "http://www.w3.org/Graphics/SVG/1.1/DTD/svg11.dtd">
<!-- Generated by graphviz version 2.38.0 (20140413.2041)
 -->
<!-- Title: SDK::FAnimationLODParameters Pages: 1 -->
<svg width="218pt" height="204pt"
 viewBox="0.00 0.00 217.50 204.00" xmlns="http://www.w3.org/2000/svg" xmlns:xlink="http://www.w3.org/1999/xlink">
<g id="graph0" class="graph" transform="scale(1 1) rotate(0) translate(4 200)">
<title>SDK::FAnimationLODParameters</title>
<!-- Node1 -->
<g id="node1" class="node"><title>Node1</title>
<g id="a_node1"><a xlink:title=" ">
<polygon fill="#bfbfbf" stroke="black" points="0.5,-0.5 0.5,-57.5 162.5,-57.5 162.5,-0.5 0.5,-0.5"/>
<text text-anchor="middle" x="81.5" y="-45.5" font-family="Helvetica,sans-Serif" font-size="10.00">SDK::FAnimationLODParameters</text>
<polyline fill="none" stroke="black" points="0.5,-38.5 162.5,-38.5 "/>
<text text-anchor="middle" x="81.5" y="-26.5" font-family="Helvetica,sans-Serif" font-size="10.00"> </text>
<polyline fill="none" stroke="black" points="0.5,-19.5 162.5,-19.5 "/>
<text text-anchor="middle" x="81.5" y="-7.5" font-family="Helvetica,sans-Serif" font-size="10.00"> </text>
</a>
</g>
</g>
<!-- Node2 -->
<g id="node2" class="node"><title>Node2</title>
<g id="a_node2"><a xlink:title=" ">
<polygon fill="none" stroke="#bfbfbf" points="0,-138.5 0,-195.5 35,-195.5 35,-138.5 0,-138.5"/>
<text text-anchor="middle" x="17.5" y="-183.5" font-family="Helvetica,sans-Serif" font-size="10.00">float</text>
<polyline fill="none" stroke="#bfbfbf" points="0,-176.5 35,-176.5 "/>
<text text-anchor="middle" x="17.5" y="-164.5" font-family="Helvetica,sans-Serif" font-size="10.00"> </text>
<polyline fill="none" stroke="#bfbfbf" points="0,-157.5 35,-157.5 "/>
<text text-anchor="middle" x="17.5" y="-145.5" font-family="Helvetica,sans-Serif" font-size="10.00"> </text>
</a>
</g>
</g>
<!-- Node2&#45;&gt;Node1 -->
<g id="edge1" class="edge"><title>Node2&#45;&gt;Node1</title>
<path fill="none" stroke="#404040" d="M11.6481,-138.482C9.10708,-119.826 8.62628,-95.1705 18.5,-76 20.2121,-72.6759 22.2876,-69.5338 24.6283,-66.573"/>
<polygon fill="none" stroke="#404040" points="24.6944,-66.5023 25.8675,-59.3873 32.8864,-57.7336 31.7133,-64.8486 24.6944,-66.5023"/>
<text text-anchor="middle" x="71.5" y="-112" font-family="Helvetica,sans-Serif" font-size="10.00"> +MaxIKDistance</text>
<text text-anchor="start" x="18.5" y="-101" font-family="Helvetica,sans-Serif" font-size="10.00">+MinFootPlantingActive</text>
<text text-anchor="middle" x="71.5" y="-90" font-family="Helvetica,sans-Serif" font-size="10.00">Distance</text>
<text text-anchor="middle" x="71.5" y="-79" font-family="Helvetica,sans-Serif" font-size="10.00">+MinLODSolverDistance</text>
</g>
<!-- Node3 -->
<g id="node3" class="node"><title>Node3</title>
<g id="a_node3"><a xlink:title=" ">
<polygon fill="none" stroke="#bfbfbf" points="132,-138.5 132,-195.5 161,-195.5 161,-138.5 132,-138.5"/>
<text text-anchor="middle" x="146.5" y="-183.5" font-family="Helvetica,sans-Serif" font-size="10.00">int</text>
<polyline fill="none" stroke="#bfbfbf" points="132,-176.5 161,-176.5 "/>
<text text-anchor="middle" x="146.5" y="-164.5" font-family="Helvetica,sans-Serif" font-size="10.00"> </text>
<polyline fill="none" stroke="#bfbfbf" points="132,-157.5 161,-157.5 "/>
<text text-anchor="middle" x="146.5" y="-145.5" font-family="Helvetica,sans-Serif" font-size="10.00"> </text>
</a>
</g>
</g>
<!-- Node3&#45;&gt;Node1 -->
<g id="edge2" class="edge"><title>Node3&#45;&gt;Node1</title>
<path fill="none" stroke="#404040" d="M143.453,-138.304C140.546,-119.796 134.982,-95.3839 124.5,-76 122.867,-72.98 120.987,-70.0086 118.946,-67.1194"/>
<polygon fill="none" stroke="#404040" points="118.927,-67.0944 112.073,-64.8507 111.509,-57.6617 118.362,-59.9054 118.927,-67.0944"/>
<text text-anchor="middle" x="174.5" y="-95.5" font-family="Helvetica,sans-Serif" font-size="10.00"> +MaxIKEntities</text>
</g>
</g>
</svg>
