<?xml version="1.0" encoding="UTF-8" standalone="no"?>
<!DOCTYPE svg PUBLIC "-//W3C//DTD SVG 1.1//EN"
 "http://www.w3.org/Graphics/SVG/1.1/DTD/svg11.dtd">
<!-- Generated by graphviz version 2.38.0 (20140413.2041)
 -->
<!-- Title: SDK::FControlObjectActionStateParams Pages: 1 -->
<!--zoomable 452 -->
<svg id="main" version="1.1" xmlns="http://www.w3.org/2000/svg" xmlns:xlink="http://www.w3.org/1999/xlink" xml:space="preserve" onload="init(evt)">
<style type="text/css"><![CDATA[
.edge:hover path { stroke: red; }
.edge:hover polygon { stroke: red; fill: red; }
]]></style>
<script type="text/javascript"><![CDATA[
var edges = document.getElementsByTagName('g');
if (edges && edges.length) {
  for (var i=0;i<edges.length;i++) {
    if (edges[i].id.substr(0,4)=='edge') {
      edges[i].setAttribute('class','edge');
    }
  }
}
]]></script>
        <defs>
                <circle id="rim" cx="0" cy="0" r="7"/>
                <circle id="rim2" cx="0" cy="0" r="3.5"/>
                <g id="zoomPlus">
                        <use xlink:href="#rim" fill="#404040">
                                <set attributeName="fill" to="#808080" begin="zoomplus.mouseover" end="zoomplus.mouseout"/>
                        </use>
                        <path d="M-4,0h8M0,-4v8" fill="none" stroke="white" stroke-width="1.5" pointer-events="none"/>
                </g>
                <g id="zoomMin">
                        <use xlink:href="#rim" fill="#404040">
                                <set attributeName="fill" to="#808080" begin="zoomminus.mouseover" end="zoomminus.mouseout"/>
                        </use>
                        <path d="M-4,0h8" fill="none" stroke="white" stroke-width="1.5" pointer-events="none"/>
                </g>
                <g id="dirArrow">
                        <path fill="none" stroke="white" stroke-width="1.5" d="M0,-3.0v7 M-2.5,-0.5L0,-3.0L2.5,-0.5"/>
                </g>
               <g id="resetDef">
                       <use xlink:href="#rim2" fill="#404040">
                               <set attributeName="fill" to="#808080" begin="reset.mouseover" end="reset.mouseout"/>
                       </use>
               </g>
        </defs>

<script type="text/javascript">
var viewWidth = 1512;
var viewHeight = 452;
var sectionId = 'dynsection-0';
</script>
<script xlink:href="svgpan.js"/>
<svg id="graph" class="graph">
<g id="viewport">
<title>SDK::FControlObjectActionStateParams</title>
<!-- Node1 -->
<g id="node1" class="node"><title>Node1</title>
<g id="a_node1"><a xlink:title=" ">
<polygon fill="#bfbfbf" stroke="black" points="659.5,-226.5 659.5,-294.5 795.5,-294.5 795.5,-226.5 659.5,-226.5"/>
<text text-anchor="start" x="667.5" y="-282.5" font-family="Helvetica,sans-Serif" font-size="10.00">SDK::FControlObjectAction</text>
<text text-anchor="middle" x="727.5" y="-271.5" font-family="Helvetica,sans-Serif" font-size="10.00">StateParams</text>
<polyline fill="none" stroke="black" points="659.5,-264.5 795.5,-264.5 "/>
<text text-anchor="middle" x="727.5" y="-252.5" font-family="Helvetica,sans-Serif" font-size="10.00"> </text>
<polyline fill="none" stroke="black" points="659.5,-245.5 795.5,-245.5 "/>
<text text-anchor="middle" x="727.5" y="-233.5" font-family="Helvetica,sans-Serif" font-size="10.00"> </text>
</a>
</g>
</g>
<!-- Node3 -->
<g id="node3" class="node"><title>Node3</title>
<g id="a_node3"><a xlink:href="a14383.html" target="_top" xlink:title=" ">
<polygon fill="none" stroke="black" points="0,-61 0,-129 161,-129 161,-61 0,-61"/>
<text text-anchor="start" x="8" y="-117" font-family="Helvetica,sans-Serif" font-size="10.00">SDK::FControlCapstanArmAction</text>
<text text-anchor="middle" x="80.5" y="-106" font-family="Helvetica,sans-Serif" font-size="10.00">StateParams</text>
<polyline fill="none" stroke="black" points="0,-99 161,-99 "/>
<text text-anchor="start" x="8" y="-87" font-family="Helvetica,sans-Serif" font-size="10.00">+ LookAtOffsetParams</text>
<polyline fill="none" stroke="black" points="0,-80 161,-80 "/>
<text text-anchor="middle" x="80.5" y="-68" font-family="Helvetica,sans-Serif" font-size="10.00"> </text>
</a>
</g>
</g>
<!-- Node1&#45;&gt;Node3 -->
<g id="edge2" class="edge"><title>Node1&#45;&gt;Node3</title>
<path fill="none" stroke="midnightblue" d="M649.307,-256.176C516.356,-249.469 252.66,-231.284 170.5,-190 142.842,-176.102 119.012,-150.159 102.833,-129.042"/>
<polygon fill="none" stroke="midnightblue" points="649.265,-259.678 659.426,-256.677 649.612,-252.687 649.265,-259.678"/>
</g>
<!-- Node4 -->
<g id="node4" class="node"><title>Node4</title>
<g id="a_node4"><a xlink:href="a14387.html" target="_top" xlink:title=" ">
<polygon fill="none" stroke="black" points="179.5,-61 179.5,-129 313.5,-129 313.5,-61 179.5,-61"/>
<text text-anchor="start" x="187.5" y="-117" font-family="Helvetica,sans-Serif" font-size="10.00">SDK::FControlPulleyAction</text>
<text text-anchor="middle" x="246.5" y="-106" font-family="Helvetica,sans-Serif" font-size="10.00">StateParams</text>
<polyline fill="none" stroke="black" points="179.5,-99 313.5,-99 "/>
<text text-anchor="start" x="187.5" y="-87" font-family="Helvetica,sans-Serif" font-size="10.00">+ LookAtOffsetParams</text>
<polyline fill="none" stroke="black" points="179.5,-80 313.5,-80 "/>
<text text-anchor="middle" x="246.5" y="-68" font-family="Helvetica,sans-Serif" font-size="10.00"> </text>
</a>
</g>
</g>
<!-- Node1&#45;&gt;Node4 -->
<g id="edge3" class="edge"><title>Node1&#45;&gt;Node4</title>
<path fill="none" stroke="midnightblue" d="M648.938,-252.637C547.218,-242.632 376.566,-221.708 322.5,-190 297.881,-175.561 277.97,-149.934 264.713,-129.082"/>
<polygon fill="none" stroke="midnightblue" points="648.876,-256.147 659.167,-253.629 649.552,-249.18 648.876,-256.147"/>
</g>
<!-- Node5 -->
<g id="node5" class="node"><title>Node5</title>
<g id="a_node5"><a xlink:href="a14379.html" target="_top" xlink:title=" ">
<polygon fill="none" stroke="black" points="332,-61 332,-129 467,-129 467,-61 332,-61"/>
<text text-anchor="start" x="340" y="-117" font-family="Helvetica,sans-Serif" font-size="10.00">SDK::FControlWheelAction</text>
<text text-anchor="middle" x="399.5" y="-106" font-family="Helvetica,sans-Serif" font-size="10.00">StateParams</text>
<polyline fill="none" stroke="black" points="332,-99 467,-99 "/>
<text text-anchor="start" x="340" y="-87" font-family="Helvetica,sans-Serif" font-size="10.00">+ LookAtOffsetParams</text>
<polyline fill="none" stroke="black" points="332,-80 467,-80 "/>
<text text-anchor="middle" x="399.5" y="-68" font-family="Helvetica,sans-Serif" font-size="10.00"> </text>
</a>
</g>
</g>
<!-- Node1&#45;&gt;Node5 -->
<g id="edge4" class="edge"><title>Node1&#45;&gt;Node5</title>
<path fill="none" stroke="midnightblue" d="M649.582,-250.448C597.269,-241.496 528.645,-223.964 476.5,-190 452.813,-174.572 432.826,-149.54 419.156,-129.186"/>
<polygon fill="none" stroke="midnightblue" points="649.049,-253.908 659.484,-252.074 650.184,-247 649.049,-253.908"/>
</g>
<!-- Node6 -->
<g id="node6" class="node"><title>Node6</title>
<g id="a_node6"><a xlink:href="a14471.html" target="_top" xlink:title=" ">
<polygon fill="none" stroke="black" points="485.5,-61 485.5,-129 643.5,-129 643.5,-61 485.5,-61"/>
<text text-anchor="start" x="493.5" y="-117" font-family="Helvetica,sans-Serif" font-size="10.00">SDK::FDockableCutsceneAction</text>
<text text-anchor="middle" x="564.5" y="-106" font-family="Helvetica,sans-Serif" font-size="10.00">StateParams</text>
<polyline fill="none" stroke="black" points="485.5,-99 643.5,-99 "/>
<text text-anchor="start" x="493.5" y="-87" font-family="Helvetica,sans-Serif" font-size="10.00">+ LookAtOffsetParams</text>
<polyline fill="none" stroke="black" points="485.5,-80 643.5,-80 "/>
<text text-anchor="middle" x="564.5" y="-68" font-family="Helvetica,sans-Serif" font-size="10.00"> </text>
</a>
</g>
</g>
<!-- Node1&#45;&gt;Node6 -->
<g id="edge5" class="edge"><title>Node1&#45;&gt;Node6</title>
<path fill="none" stroke="midnightblue" d="M683.403,-219.609C673.128,-210.047 662.323,-199.773 652.5,-190 632.691,-170.291 611.246,-147.418 594.485,-129.17"/>
<polygon fill="none" stroke="midnightblue" points="681.054,-222.203 690.77,-226.428 685.809,-217.066 681.054,-222.203"/>
</g>
<!-- Node7 -->
<g id="node7" class="node"><title>Node7</title>
<g id="a_node7"><a xlink:href="a14443.html" target="_top" xlink:title=" ">
<polygon fill="none" stroke="black" points="661.5,-61 661.5,-129 793.5,-129 793.5,-61 661.5,-61"/>
<text text-anchor="start" x="669.5" y="-117" font-family="Helvetica,sans-Serif" font-size="10.00">SDK::FHideInObjectAction</text>
<text text-anchor="middle" x="727.5" y="-106" font-family="Helvetica,sans-Serif" font-size="10.00">StateParams</text>
<polyline fill="none" stroke="black" points="661.5,-99 793.5,-99 "/>
<text text-anchor="middle" x="727.5" y="-87" font-family="Helvetica,sans-Serif" font-size="10.00"> </text>
<polyline fill="none" stroke="black" points="661.5,-80 793.5,-80 "/>
<text text-anchor="middle" x="727.5" y="-68" font-family="Helvetica,sans-Serif" font-size="10.00"> </text>
</a>
</g>
</g>
<!-- Node1&#45;&gt;Node7 -->
<g id="edge6" class="edge"><title>Node1&#45;&gt;Node7</title>
<path fill="none" stroke="midnightblue" d="M727.5,-216.336C727.5,-188.993 727.5,-154.178 727.5,-129.037"/>
<polygon fill="none" stroke="midnightblue" points="724,-216.413 727.5,-226.413 731,-216.413 724,-216.413"/>
</g>
<!-- Node8 -->
<g id="node8" class="node"><title>Node8</title>
<g id="a_node8"><a xlink:href="a16151.html" target="_top" xlink:title=" ">
<polygon fill="none" stroke="black" points="812,-0.5 812,-189.5 971,-189.5 971,-0.5 812,-0.5"/>
<text text-anchor="start" x="820" y="-177.5" font-family="Helvetica,sans-Serif" font-size="10.00">SDK::FSittingActionState</text>
<text text-anchor="middle" x="891.5" y="-166.5" font-family="Helvetica,sans-Serif" font-size="10.00">Params</text>
<polyline fill="none" stroke="black" points="812,-159.5 971,-159.5 "/>
<text text-anchor="start" x="820" y="-147.5" font-family="Helvetica,sans-Serif" font-size="10.00">+ LookAtOffsetParams</text>
<text text-anchor="start" x="820" y="-136.5" font-family="Helvetica,sans-Serif" font-size="10.00">+ ShouldHideFirstPersonMesh</text>
<text text-anchor="start" x="820" y="-125.5" font-family="Helvetica,sans-Serif" font-size="10.00">+ UnknownData00</text>
<text text-anchor="start" x="820" y="-114.5" font-family="Helvetica,sans-Serif" font-size="10.00">+ OnSitSfx</text>
<text text-anchor="start" x="820" y="-103.5" font-family="Helvetica,sans-Serif" font-size="10.00">+ OnStandSfx</text>
<text text-anchor="start" x="820" y="-92.5" font-family="Helvetica,sans-Serif" font-size="10.00">+ SeatPool</text>
<text text-anchor="start" x="820" y="-81.5" font-family="Helvetica,sans-Serif" font-size="10.00">+ AllowInteractWithOtherObjects</text>
<text text-anchor="start" x="820" y="-70.5" font-family="Helvetica,sans-Serif" font-size="10.00">WhileSitting</text>
<text text-anchor="start" x="820" y="-59.5" font-family="Helvetica,sans-Serif" font-size="10.00">+ UnknownData01</text>
<text text-anchor="start" x="820" y="-48.5" font-family="Helvetica,sans-Serif" font-size="10.00">+ AllowedInteractableTypes</text>
<text text-anchor="start" x="820" y="-37.5" font-family="Helvetica,sans-Serif" font-size="10.00">+ AllowedInteractionNotification</text>
<text text-anchor="start" x="820" y="-26.5" font-family="Helvetica,sans-Serif" font-size="10.00">InputIds</text>
<polyline fill="none" stroke="black" points="812,-19.5 971,-19.5 "/>
<text text-anchor="middle" x="891.5" y="-7.5" font-family="Helvetica,sans-Serif" font-size="10.00"> </text>
</a>
</g>
</g>
<!-- Node1&#45;&gt;Node8 -->
<g id="edge7" class="edge"><title>Node1&#45;&gt;Node8</title>
<path fill="none" stroke="midnightblue" d="M771.557,-219.569C781.834,-210.009 792.65,-199.745 802.5,-190 805.536,-186.997 808.611,-183.922 811.703,-180.802"/>
<polygon fill="none" stroke="midnightblue" points="769.151,-217.026 764.19,-226.388 773.907,-222.163 769.151,-217.026"/>
</g>
<!-- Node9 -->
<g id="node9" class="node"><title>Node9</title>
<g id="a_node9"><a xlink:href="a14407.html" target="_top" xlink:title=" ">
<polygon fill="none" stroke="black" points="989,-61 989,-129 1148,-129 1148,-61 989,-61"/>
<text text-anchor="start" x="997" y="-117" font-family="Helvetica,sans-Serif" font-size="10.00">SDK::FUseMapTableActionState</text>
<text text-anchor="middle" x="1068.5" y="-106" font-family="Helvetica,sans-Serif" font-size="10.00">Params</text>
<polyline fill="none" stroke="black" points="989,-99 1148,-99 "/>
<text text-anchor="start" x="997" y="-87" font-family="Helvetica,sans-Serif" font-size="10.00">+ CameraDockTime</text>
<polyline fill="none" stroke="black" points="989,-80 1148,-80 "/>
<text text-anchor="middle" x="1068.5" y="-68" font-family="Helvetica,sans-Serif" font-size="10.00"> </text>
</a>
</g>
</g>
<!-- Node1&#45;&gt;Node9 -->
<g id="edge8" class="edge"><title>Node1&#45;&gt;Node9</title>
<path fill="none" stroke="midnightblue" d="M805.598,-249.4C857.981,-239.994 926.925,-222.35 980.5,-190 1006.14,-174.516 1029.05,-149.487 1045.06,-129.148"/>
<polygon fill="none" stroke="midnightblue" points="804.941,-245.962 795.685,-251.118 806.136,-252.859 804.941,-245.962"/>
</g>
<!-- Node10 -->
<g id="node10" class="node"><title>Node10</title>
<g id="a_node10"><a xlink:href="a14399.html" target="_top" xlink:title=" ">
<polygon fill="none" stroke="black" points="1166,-28 1166,-162 1333,-162 1333,-28 1166,-28"/>
<text text-anchor="start" x="1174" y="-150" font-family="Helvetica,sans-Serif" font-size="10.00">SDK::FUseMountedWeaponAction</text>
<text text-anchor="middle" x="1249.5" y="-139" font-family="Helvetica,sans-Serif" font-size="10.00">StateParams</text>
<polyline fill="none" stroke="black" points="1166,-132 1333,-132 "/>
<text text-anchor="start" x="1174" y="-120" font-family="Helvetica,sans-Serif" font-size="10.00">+ CameraDockTime</text>
<text text-anchor="start" x="1174" y="-109" font-family="Helvetica,sans-Serif" font-size="10.00">+ UnknownData00</text>
<text text-anchor="start" x="1174" y="-98" font-family="Helvetica,sans-Serif" font-size="10.00">+ FireForceFeedbackEffect</text>
<text text-anchor="start" x="1174" y="-87" font-family="Helvetica,sans-Serif" font-size="10.00">+ FireCameraShake</text>
<text text-anchor="start" x="1174" y="-76" font-family="Helvetica,sans-Serif" font-size="10.00">+ FireInputId</text>
<text text-anchor="start" x="1174" y="-65" font-family="Helvetica,sans-Serif" font-size="10.00">+ AimYawInputId</text>
<text text-anchor="start" x="1174" y="-54" font-family="Helvetica,sans-Serif" font-size="10.00">+ AimPitchInputId</text>
<polyline fill="none" stroke="black" points="1166,-47 1333,-47 "/>
<text text-anchor="middle" x="1249.5" y="-35" font-family="Helvetica,sans-Serif" font-size="10.00"> </text>
</a>
</g>
</g>
<!-- Node1&#45;&gt;Node10 -->
<g id="edge9" class="edge"><title>Node1&#45;&gt;Node10</title>
<path fill="none" stroke="midnightblue" d="M805.839,-252.744C912.681,-242.534 1097.66,-221.015 1157.5,-190 1171.29,-182.854 1184.24,-172.873 1195.83,-162.066"/>
<polygon fill="none" stroke="midnightblue" points="805.377,-249.272 795.751,-253.697 806.035,-256.241 805.377,-249.272"/>
</g>
<!-- Node11 -->
<g id="node11" class="node"><title>Node11</title>
<g id="a_node11"><a xlink:href="a14467.html" target="_top" xlink:title=" ">
<polygon fill="none" stroke="black" points="1351.5,-61 1351.5,-129 1503.5,-129 1503.5,-61 1351.5,-61"/>
<text text-anchor="start" x="1359.5" y="-117" font-family="Helvetica,sans-Serif" font-size="10.00">SDK::FWaterBarrelActionState</text>
<text text-anchor="middle" x="1427.5" y="-106" font-family="Helvetica,sans-Serif" font-size="10.00">Params</text>
<polyline fill="none" stroke="black" points="1351.5,-99 1503.5,-99 "/>
<text text-anchor="start" x="1359.5" y="-87" font-family="Helvetica,sans-Serif" font-size="10.00">+ LookAtOffsetParams</text>
<polyline fill="none" stroke="black" points="1351.5,-80 1503.5,-80 "/>
<text text-anchor="middle" x="1427.5" y="-68" font-family="Helvetica,sans-Serif" font-size="10.00"> </text>
</a>
</g>
</g>
<!-- Node1&#45;&gt;Node11 -->
<g id="edge10" class="edge"><title>Node1&#45;&gt;Node11</title>
<path fill="none" stroke="midnightblue" d="M805.799,-257.49C949.859,-252.682 1250.6,-237.155 1342.5,-190 1369.32,-176.239 1391.78,-150.286 1406.86,-129.131"/>
<polygon fill="none" stroke="midnightblue" points="805.583,-253.995 795.702,-257.818 805.811,-260.991 805.583,-253.995"/>
</g>
<!-- Node2 -->
<g id="node2" class="node"><title>Node2</title>
<g id="a_node2"><a xlink:href="a14367.html" target="_top" xlink:title=" ">
<polygon fill="none" stroke="black" points="658.5,-331.5 658.5,-443.5 796.5,-443.5 796.5,-331.5 658.5,-331.5"/>
<text text-anchor="start" x="666.5" y="-431.5" font-family="Helvetica,sans-Serif" font-size="10.00">SDK::FDockToObjectAction</text>
<text text-anchor="middle" x="727.5" y="-420.5" font-family="Helvetica,sans-Serif" font-size="10.00">StateParams</text>
<polyline fill="none" stroke="black" points="658.5,-413.5 796.5,-413.5 "/>
<text text-anchor="start" x="666.5" y="-401.5" font-family="Helvetica,sans-Serif" font-size="10.00">+ DockTime</text>
<text text-anchor="start" x="666.5" y="-390.5" font-family="Helvetica,sans-Serif" font-size="10.00">+ DelayAfterDockingTime</text>
<text text-anchor="start" x="666.5" y="-379.5" font-family="Helvetica,sans-Serif" font-size="10.00">+ ForcedFieldOfView</text>
<text text-anchor="start" x="666.5" y="-368.5" font-family="Helvetica,sans-Serif" font-size="10.00">+ ForceStash</text>
<text text-anchor="start" x="666.5" y="-357.5" font-family="Helvetica,sans-Serif" font-size="10.00">+ UnknownData00</text>
<polyline fill="none" stroke="black" points="658.5,-350.5 796.5,-350.5 "/>
<text text-anchor="middle" x="727.5" y="-338.5" font-family="Helvetica,sans-Serif" font-size="10.00"> </text>
</a>
</g>
</g>
<!-- Node2&#45;&gt;Node1 -->
<g id="edge1" class="edge"><title>Node2&#45;&gt;Node1</title>
<path fill="none" stroke="midnightblue" d="M727.5,-321.257C727.5,-311.987 727.5,-302.797 727.5,-294.506"/>
<polygon fill="none" stroke="midnightblue" points="724,-321.309 727.5,-331.309 731,-321.309 724,-321.309"/>
</g>
</g>
</svg>
        <g id="navigator" transform="translate(0 0)" fill="#404254">
                <rect fill="#f2f5e9" fill-opacity="0.5" stroke="#606060" stroke-width=".5" x="0" y="0" width="60" height="60"/>
                <use id="zoomplus" xlink:href="#zoomPlus" x="17" y="9" onmousedown="handleZoom(evt,'in')"/>
                <use id="zoomminus" xlink:href="#zoomMin" x="42" y="9" onmousedown="handleZoom(evt,'out')"/>
                <use id="reset" xlink:href="#resetDef" x="30" y="36" onmousedown="handleReset()"/>
                <g id="arrowUp" xlink:href="#dirArrow" transform="translate(30 24)" onmousedown="handlePan(0,-1)">
                  <use xlink:href="#rim" fill="#404040">
                        <set attributeName="fill" to="#808080" begin="arrowUp.mouseover" end="arrowUp.mouseout"/>
                  </use>
                  <path fill="none" stroke="white" stroke-width="1.5" d="M0,-3.0v7 M-2.5,-0.5L0,-3.0L2.5,-0.5"/>
                </g>
                <g id="arrowRight" xlink:href="#dirArrow" transform="rotate(90) translate(36 -43)" onmousedown="handlePan(1,0)">
                  <use xlink:href="#rim" fill="#404040">
                        <set attributeName="fill" to="#808080" begin="arrowRight.mouseover" end="arrowRight.mouseout"/>
                  </use>
                  <path fill="none" stroke="white" stroke-width="1.5" d="M0,-3.0v7 M-2.5,-0.5L0,-3.0L2.5,-0.5"/>
                </g>
                <g id="arrowDown" xlink:href="#dirArrow" transform="rotate(180) translate(-30 -48)" onmousedown="handlePan(0,1)">
                  <use xlink:href="#rim" fill="#404040">
                        <set attributeName="fill" to="#808080" begin="arrowDown.mouseover" end="arrowDown.mouseout"/>
                  </use>
                  <path fill="none" stroke="white" stroke-width="1.5" d="M0,-3.0v7 M-2.5,-0.5L0,-3.0L2.5,-0.5"/>
                </g>
                <g id="arrowLeft" xlink:href="#dirArrow" transform="rotate(270) translate(-36 17)" onmousedown="handlePan(-1,0)">
                  <use xlink:href="#rim" fill="#404040">
                        <set attributeName="fill" to="#808080" begin="arrowLeft.mouseover" end="arrowLeft.mouseout"/>
                  </use>
                  <path fill="none" stroke="white" stroke-width="1.5" d="M0,-3.0v7 M-2.5,-0.5L0,-3.0L2.5,-0.5"/>
                </g>
        </g>
        <svg viewBox="0 0 15 15" width="100%" height="30px" preserveAspectRatio="xMaxYMin meet">
         <g id="arrow_out" transform="scale(0.3 0.3)">
          <a xlink:href="a14370_org.svg" target="_base">
           <rect id="button" ry="5" rx="5" y="6" x="6" height="38" width="38"
                fill="#f2f5e9" fill-opacity="0.5" stroke="#606060" stroke-width="1.0"/>
           <path id="arrow"
             d="M 11.500037,31.436501 C 11.940474,20.09759 22.043105,11.32322 32.158766,21.979434 L 37.068811,17.246167 C 37.068811,17.246167 37.088388,32 37.088388,32 L 22.160133,31.978069 C 22.160133,31.978069 26.997745,27.140456 26.997745,27.140456 C 18.528582,18.264221 13.291696,25.230495 11.500037,31.436501 z"
             style="fill:#404040;"/>
          </a>
         </g>
        </svg>
</svg>
