<?xml version="1.0" encoding="UTF-8" standalone="no"?>
<!DOCTYPE svg PUBLIC "-//W3C//DTD SVG 1.1//EN"
 "http://www.w3.org/Graphics/SVG/1.1/DTD/svg11.dtd">
<!-- Generated by graphviz version 2.38.0 (20140413.2041)
 -->
<!-- Title: SDK::FHullDamageNamedParamSet Pages: 1 -->
<svg width="394pt" height="331pt"
 viewBox="0.00 0.00 393.50 331.00" xmlns="http://www.w3.org/2000/svg" xmlns:xlink="http://www.w3.org/1999/xlink">
<g id="graph0" class="graph" transform="scale(1 1) rotate(0) translate(4 327)">
<title>SDK::FHullDamageNamedParamSet</title>
<!-- Node1 -->
<g id="node1" class="node"><title>Node1</title>
<g id="a_node1"><a xlink:title=" ">
<polygon fill="#bfbfbf" stroke="black" points="54,-0.5 54,-57.5 230,-57.5 230,-0.5 54,-0.5"/>
<text text-anchor="middle" x="142" y="-45.5" font-family="Helvetica,sans-Serif" font-size="10.00">SDK::FHullDamageNamedParamSet</text>
<polyline fill="none" stroke="black" points="54,-38.5 230,-38.5 "/>
<text text-anchor="middle" x="142" y="-26.5" font-family="Helvetica,sans-Serif" font-size="10.00"> </text>
<polyline fill="none" stroke="black" points="54,-19.5 230,-19.5 "/>
<text text-anchor="middle" x="142" y="-7.5" font-family="Helvetica,sans-Serif" font-size="10.00"> </text>
</a>
</g>
</g>
<!-- Node2 -->
<g id="node2" class="node"><title>Node2</title>
<g id="a_node2"><a xlink:href="a25627.html" target="_top" xlink:title=" ">
<polygon fill="none" stroke="red" points="0,-105.5 0,-217.5 106,-217.5 106,-105.5 0,-105.5"/>
<text text-anchor="middle" x="53" y="-205.5" font-family="Helvetica,sans-Serif" font-size="10.00">SDK::FName</text>
<polyline fill="none" stroke="red" points="0,-198.5 106,-198.5 "/>
<text text-anchor="middle" x="53" y="-186.5" font-family="Helvetica,sans-Serif" font-size="10.00"> </text>
<polyline fill="none" stroke="red" points="0,-179.5 106,-179.5 "/>
<text text-anchor="start" x="8" y="-167.5" font-family="Helvetica,sans-Serif" font-size="10.00">+ FName()</text>
<text text-anchor="start" x="8" y="-156.5" font-family="Helvetica,sans-Serif" font-size="10.00">+ FName()</text>
<text text-anchor="start" x="8" y="-145.5" font-family="Helvetica,sans-Serif" font-size="10.00">+ FName()</text>
<text text-anchor="start" x="8" y="-134.5" font-family="Helvetica,sans-Serif" font-size="10.00">+ GetName()</text>
<text text-anchor="start" x="8" y="-123.5" font-family="Helvetica,sans-Serif" font-size="10.00">+ operator==()</text>
<text text-anchor="start" x="8" y="-112.5" font-family="Helvetica,sans-Serif" font-size="10.00">+ GetGlobalNames()</text>
</a>
</g>
</g>
<!-- Node2&#45;&gt;Node1 -->
<g id="edge1" class="edge"><title>Node2&#45;&gt;Node1</title>
<path fill="none" stroke="#404040" d="M75.5188,-105.152C80.6334,-95.0649 86.5017,-84.9211 93,-76 95.3358,-72.7933 97.9154,-69.6271 100.633,-66.547"/>
<polygon fill="none" stroke="#404040" points="100.843,-66.3251 102.064,-59.2181 109.093,-57.6112 107.873,-64.7183 100.843,-66.3251"/>
<text text-anchor="middle" x="110.5" y="-79" font-family="Helvetica,sans-Serif" font-size="10.00"> +Name</text>
</g>
<!-- Node5 -->
<g id="node3" class="node"><title>Node5</title>
<g id="a_node3"><a xlink:href="a14355.html" target="_top" xlink:title=" ">
<polygon fill="none" stroke="red" points="240.5,-133 240.5,-190 385.5,-190 385.5,-133 240.5,-133"/>
<text text-anchor="middle" x="313" y="-178" font-family="Helvetica,sans-Serif" font-size="10.00">SDK::FHullDamageParamSet</text>
<polyline fill="none" stroke="red" points="240.5,-171 385.5,-171 "/>
<text text-anchor="middle" x="313" y="-159" font-family="Helvetica,sans-Serif" font-size="10.00"> </text>
<polyline fill="none" stroke="red" points="240.5,-152 385.5,-152 "/>
<text text-anchor="middle" x="313" y="-140" font-family="Helvetica,sans-Serif" font-size="10.00"> </text>
</a>
</g>
</g>
<!-- Node5&#45;&gt;Node1 -->
<g id="edge2" class="edge"><title>Node5&#45;&gt;Node1</title>
<path fill="none" stroke="#404040" d="M276.735,-132.824C250.89,-113.1 215.94,-86.4276 188.112,-65.1909"/>
<polygon fill="none" stroke="#404040" points="187.752,-64.9159 180.555,-64.4557 178.212,-57.6358 185.409,-58.096 187.752,-64.9159"/>
<text text-anchor="middle" x="234.5" y="-79" font-family="Helvetica,sans-Serif" font-size="10.00"> +Params</text>
</g>
<!-- Node10 -->
<g id="node4" class="node"><title>Node10</title>
<g id="a_node4"><a xlink:title=" ">
<polygon fill="none" stroke="#bfbfbf" points="175.5,-265.5 175.5,-322.5 210.5,-322.5 210.5,-265.5 175.5,-265.5"/>
<text text-anchor="middle" x="193" y="-310.5" font-family="Helvetica,sans-Serif" font-size="10.00">char</text>
<polyline fill="none" stroke="#bfbfbf" points="175.5,-303.5 210.5,-303.5 "/>
<text text-anchor="middle" x="193" y="-291.5" font-family="Helvetica,sans-Serif" font-size="10.00"> </text>
<polyline fill="none" stroke="#bfbfbf" points="175.5,-284.5 210.5,-284.5 "/>
<text text-anchor="middle" x="193" y="-272.5" font-family="Helvetica,sans-Serif" font-size="10.00"> </text>
</a>
</g>
</g>
<!-- Node10&#45;&gt;Node1 -->
<g id="edge4" class="edge"><title>Node10&#45;&gt;Node1</title>
<path fill="none" stroke="#404040" d="M175.3,-268.269C166.274,-254.234 156.14,-235.932 151,-218 136.772,-168.364 136.68,-108.375 138.693,-69.7256"/>
<polygon fill="none" stroke="#404040" points="138.695,-69.7026 135.066,-63.471 139.423,-57.7247 143.051,-63.9563 138.695,-69.7026"/>
<text text-anchor="middle" x="191" y="-159" font-family="Helvetica,sans-Serif" font-size="10.00"> +UnknownData00</text>
</g>
<!-- Node10&#45;&gt;Node5 -->
<g id="edge3" class="edge"><title>Node10&#45;&gt;Node5</title>
<path fill="none" stroke="#404040" d="M210.706,-273.744C228.743,-254.129 257.155,-223.232 279.463,-198.972"/>
<polygon fill="none" stroke="#404040" points="279.557,-198.869 280.674,-191.745 287.679,-190.036 286.563,-197.16 279.557,-198.869"/>
<text text-anchor="middle" x="283" y="-239" font-family="Helvetica,sans-Serif" font-size="10.00"> +UnknownData00</text>
</g>
</g>
</svg>
