<?xml version="1.0" encoding="UTF-8" standalone="no"?>
<!DOCTYPE svg PUBLIC "-//W3C//DTD SVG 1.1//EN"
 "http://www.w3.org/Graphics/SVG/1.1/DTD/svg11.dtd">
<!-- Generated by graphviz version 2.38.0 (20140413.2041)
 -->
<!-- Title: SDK::FFaunaAnimationCurrentPlayingAnimations Pages: 1 -->
<svg width="343pt" height="237pt"
 viewBox="0.00 0.00 343.00 237.00" xmlns="http://www.w3.org/2000/svg" xmlns:xlink="http://www.w3.org/1999/xlink">
<g id="graph0" class="graph" transform="scale(1 1) rotate(0) translate(4 233)">
<title>SDK::FFaunaAnimationCurrentPlayingAnimations</title>
<!-- Node1 -->
<g id="node1" class="node"><title>Node1</title>
<g id="a_node1"><a xlink:title=" ">
<polygon fill="#bfbfbf" stroke="black" points="50.5,-0.5 50.5,-68.5 201.5,-68.5 201.5,-0.5 50.5,-0.5"/>
<text text-anchor="start" x="58.5" y="-56.5" font-family="Helvetica,sans-Serif" font-size="10.00">SDK::FFaunaAnimationCurrent</text>
<text text-anchor="middle" x="126" y="-45.5" font-family="Helvetica,sans-Serif" font-size="10.00">PlayingAnimations</text>
<polyline fill="none" stroke="black" points="50.5,-38.5 201.5,-38.5 "/>
<text text-anchor="middle" x="126" y="-26.5" font-family="Helvetica,sans-Serif" font-size="10.00"> </text>
<polyline fill="none" stroke="black" points="50.5,-19.5 201.5,-19.5 "/>
<text text-anchor="middle" x="126" y="-7.5" font-family="Helvetica,sans-Serif" font-size="10.00"> </text>
</a>
</g>
</g>
<!-- Node2 -->
<g id="node2" class="node"><title>Node2</title>
<g id="a_node2"><a xlink:href="a27747.html" target="_top" xlink:title=" ">
<polygon fill="none" stroke="red" points="0,-171.5 0,-228.5 114,-228.5 114,-171.5 0,-171.5"/>
<text text-anchor="middle" x="57" y="-216.5" font-family="Helvetica,sans-Serif" font-size="10.00">SDK::UBlendSpace1D</text>
<polyline fill="none" stroke="red" points="0,-209.5 114,-209.5 "/>
<text text-anchor="middle" x="57" y="-197.5" font-family="Helvetica,sans-Serif" font-size="10.00"> </text>
<polyline fill="none" stroke="red" points="0,-190.5 114,-190.5 "/>
<text text-anchor="start" x="8" y="-178.5" font-family="Helvetica,sans-Serif" font-size="10.00">+ StaticClass()</text>
</a>
</g>
</g>
<!-- Node2&#45;&gt;Node1 -->
<g id="edge1" class="edge"><title>Node2&#45;&gt;Node1</title>
<path fill="none" stroke="#404040" d="M50.7115,-171.171C46.8348,-147.487 44.8132,-113.235 58,-87 59.59,-83.8368 61.476,-80.8153 63.5889,-77.9366"/>
<polygon fill="none" stroke="#404040" points="63.7136,-77.7919 64.5996,-70.6354 71.5464,-68.7008 70.6603,-75.8573 63.7136,-77.7919"/>
<text text-anchor="middle" x="115.5" y="-145" font-family="Helvetica,sans-Serif" font-size="10.00"> +UnderwaterLocomotionA</text>
<text text-anchor="middle" x="115.5" y="-134" font-family="Helvetica,sans-Serif" font-size="10.00">+UnderwaterLocomotionB</text>
<text text-anchor="middle" x="115.5" y="-123" font-family="Helvetica,sans-Serif" font-size="10.00">+LandLocomotionA</text>
<text text-anchor="middle" x="115.5" y="-112" font-family="Helvetica,sans-Serif" font-size="10.00">+LandLocomotionB</text>
<text text-anchor="middle" x="115.5" y="-101" font-family="Helvetica,sans-Serif" font-size="10.00">+SeaLocomotionA</text>
<text text-anchor="middle" x="115.5" y="-90" font-family="Helvetica,sans-Serif" font-size="10.00">+SeaLocomotionB</text>
</g>
<!-- Node36 -->
<g id="node3" class="node"><title>Node36</title>
<g id="a_node3"><a xlink:href="a27731.html" target="_top" xlink:title=" ">
<polygon fill="none" stroke="red" points="137,-171.5 137,-228.5 253,-228.5 253,-171.5 137,-171.5"/>
<text text-anchor="middle" x="195" y="-216.5" font-family="Helvetica,sans-Serif" font-size="10.00">SDK::UAnimSequence</text>
<polyline fill="none" stroke="red" points="137,-209.5 253,-209.5 "/>
<text text-anchor="middle" x="195" y="-197.5" font-family="Helvetica,sans-Serif" font-size="10.00"> </text>
<polyline fill="none" stroke="red" points="137,-190.5 253,-190.5 "/>
<text text-anchor="start" x="145" y="-178.5" font-family="Helvetica,sans-Serif" font-size="10.00">+ StaticClass()</text>
</a>
</g>
</g>
<!-- Node36&#45;&gt;Node1 -->
<g id="edge2" class="edge"><title>Node36&#45;&gt;Node1</title>
<path fill="none" stroke="#404040" d="M193.73,-171.417C191.702,-147.885 186.467,-113.72 173,-87 171.544,-84.1102 169.879,-81.2623 168.065,-78.4791"/>
<polygon fill="none" stroke="#404040" points="168.022,-78.4202 161.255,-75.9294 160.951,-68.7246 167.718,-71.2155 168.022,-78.4202"/>
<text text-anchor="middle" x="231" y="-145" font-family="Helvetica,sans-Serif" font-size="10.00"> +UnderwaterIdleA</text>
<text text-anchor="middle" x="231" y="-134" font-family="Helvetica,sans-Serif" font-size="10.00">+UnderwaterIdleB</text>
<text text-anchor="middle" x="231" y="-123" font-family="Helvetica,sans-Serif" font-size="10.00">+SeaIdleA</text>
<text text-anchor="middle" x="231" y="-112" font-family="Helvetica,sans-Serif" font-size="10.00">+LandIdleA</text>
<text text-anchor="middle" x="231" y="-101" font-family="Helvetica,sans-Serif" font-size="10.00">+SeaIdleB</text>
<text text-anchor="middle" x="231" y="-90" font-family="Helvetica,sans-Serif" font-size="10.00">+LandIdleB</text>
</g>
<!-- Node36&#45;&gt;Node36 -->
<g id="edge3" class="edge"><title>Node36&#45;&gt;Node36</title>
<path fill="none" stroke="#404040" d="M253.312,-214.12C263.726,-212.285 271,-207.578 271,-200 271,-195.737 268.698,-192.383 264.831,-189.937"/>
<polygon fill="none" stroke="#404040" points="264.63,-189.867 257.642,-191.646 253.312,-185.88 260.3,-184.101 264.63,-189.867"/>
<text text-anchor="middle" x="303" y="-197.5" font-family="Helvetica,sans-Serif" font-size="10.00"> +RefPoseSeq</text>
</g>
</g>
</svg>
