<?xml version="1.0" encoding="UTF-8" standalone="no"?>
<!DOCTYPE svg PUBLIC "-//W3C//DTD SVG 1.1//EN"
 "http://www.w3.org/Graphics/SVG/1.1/DTD/svg11.dtd">
<!-- Generated by graphviz version 2.38.0 (20140413.2041)
 -->
<!-- Title: SDK::FEnchantedCompassTarget Pages: 1 -->
<svg width="293pt" height="259pt"
 viewBox="0.00 0.00 293.00 259.00" xmlns="http://www.w3.org/2000/svg" xmlns:xlink="http://www.w3.org/1999/xlink">
<g id="graph0" class="graph" transform="scale(1 1) rotate(0) translate(4 255)">
<title>SDK::FEnchantedCompassTarget</title>
<!-- Node1 -->
<g id="node1" class="node"><title>Node1</title>
<g id="a_node1"><a xlink:title=" ">
<polygon fill="#bfbfbf" stroke="black" points="53.5,-0.5 53.5,-57.5 217.5,-57.5 217.5,-0.5 53.5,-0.5"/>
<text text-anchor="middle" x="135.5" y="-45.5" font-family="Helvetica,sans-Serif" font-size="10.00">SDK::FEnchantedCompassTarget</text>
<polyline fill="none" stroke="black" points="53.5,-38.5 217.5,-38.5 "/>
<text text-anchor="middle" x="135.5" y="-26.5" font-family="Helvetica,sans-Serif" font-size="10.00"> </text>
<polyline fill="none" stroke="black" points="53.5,-19.5 217.5,-19.5 "/>
<text text-anchor="middle" x="135.5" y="-7.5" font-family="Helvetica,sans-Serif" font-size="10.00"> </text>
</a>
</g>
</g>
<!-- Node2 -->
<g id="node2" class="node"><title>Node2</title>
<g id="a_node2"><a xlink:href="a26075.html" target="_top" xlink:title=" ">
<polygon fill="none" stroke="red" points="0,-105.5 0,-250.5 79,-250.5 79,-105.5 0,-105.5"/>
<text text-anchor="middle" x="39.5" y="-238.5" font-family="Helvetica,sans-Serif" font-size="10.00">SDK::FVector</text>
<polyline fill="none" stroke="red" points="0,-231.5 79,-231.5 "/>
<text text-anchor="middle" x="39.5" y="-219.5" font-family="Helvetica,sans-Serif" font-size="10.00"> </text>
<polyline fill="none" stroke="red" points="0,-212.5 79,-212.5 "/>
<text text-anchor="start" x="8" y="-200.5" font-family="Helvetica,sans-Serif" font-size="10.00">+ FVector()</text>
<text text-anchor="start" x="8" y="-189.5" font-family="Helvetica,sans-Serif" font-size="10.00">+ FVector()</text>
<text text-anchor="start" x="8" y="-178.5" font-family="Helvetica,sans-Serif" font-size="10.00">+ operator+()</text>
<text text-anchor="start" x="8" y="-167.5" font-family="Helvetica,sans-Serif" font-size="10.00">+ operator&#45;()</text>
<text text-anchor="start" x="8" y="-156.5" font-family="Helvetica,sans-Serif" font-size="10.00">+ operator*()</text>
<text text-anchor="start" x="8" y="-145.5" font-family="Helvetica,sans-Serif" font-size="10.00">+ operator=()</text>
<text text-anchor="start" x="8" y="-134.5" font-family="Helvetica,sans-Serif" font-size="10.00">+ operator+=()</text>
<text text-anchor="start" x="8" y="-123.5" font-family="Helvetica,sans-Serif" font-size="10.00">+ operator&#45;=()</text>
<text text-anchor="start" x="8" y="-112.5" font-family="Helvetica,sans-Serif" font-size="10.00">+ operator*=()</text>
</a>
</g>
</g>
<!-- Node2&#45;&gt;Node1 -->
<g id="edge1" class="edge"><title>Node2&#45;&gt;Node1</title>
<path fill="none" stroke="#404040" d="M45.087,-105.484C48.0774,-94.9925 52.375,-84.78 58.5,-76 61.1032,-72.2684 64.1152,-68.7893 67.4089,-65.5538"/>
<polygon fill="none" stroke="#404040" points="67.606,-65.384 69.5411,-58.4374 76.6977,-57.5519 74.7625,-64.4985 67.606,-65.384"/>
<text text-anchor="middle" x="95" y="-79" font-family="Helvetica,sans-Serif" font-size="10.00"> +TargetLocation</text>
</g>
<!-- Node4 -->
<g id="node3" class="node"><title>Node4</title>
<g id="a_node3"><a xlink:title=" ">
<polygon fill="none" stroke="#bfbfbf" points="121,-149.5 121,-206.5 150,-206.5 150,-149.5 121,-149.5"/>
<text text-anchor="middle" x="135.5" y="-194.5" font-family="Helvetica,sans-Serif" font-size="10.00">int</text>
<polyline fill="none" stroke="#bfbfbf" points="121,-187.5 150,-187.5 "/>
<text text-anchor="middle" x="135.5" y="-175.5" font-family="Helvetica,sans-Serif" font-size="10.00"> </text>
<polyline fill="none" stroke="#bfbfbf" points="121,-168.5 150,-168.5 "/>
<text text-anchor="middle" x="135.5" y="-156.5" font-family="Helvetica,sans-Serif" font-size="10.00"> </text>
</a>
</g>
</g>
<!-- Node4&#45;&gt;Node1 -->
<g id="edge2" class="edge"><title>Node4&#45;&gt;Node1</title>
<path fill="none" stroke="#404040" d="M135.5,-149.35C135.5,-126.868 135.5,-94.8549 135.5,-69.6431"/>
<polygon fill="none" stroke="#404040" points="135.5,-69.5256 131.5,-63.5256 135.5,-57.5256 139.5,-63.5256 135.5,-69.5256"/>
<text text-anchor="middle" x="158.5" y="-79" font-family="Helvetica,sans-Serif" font-size="10.00"> +TargetID</text>
</g>
<!-- Node5 -->
<g id="node4" class="node"><title>Node5</title>
<g id="a_node4"><a xlink:href="a25667.html" target="_top" xlink:title=" ">
<polygon fill="none" stroke="red" points="168,-127.5 168,-228.5 285,-228.5 285,-127.5 168,-127.5"/>
<text text-anchor="start" x="176" y="-216.5" font-family="Helvetica,sans-Serif" font-size="10.00">SDK::TWeakObjectPtr</text>
<text text-anchor="middle" x="226.5" y="-205.5" font-family="Helvetica,sans-Serif" font-size="10.00">&lt; class SDK::AActor &gt;</text>
<polyline fill="none" stroke="red" points="168,-198.5 285,-198.5 "/>
<text text-anchor="middle" x="226.5" y="-186.5" font-family="Helvetica,sans-Serif" font-size="10.00"> </text>
<polyline fill="none" stroke="red" points="168,-179.5 285,-179.5 "/>
<text text-anchor="start" x="176" y="-167.5" font-family="Helvetica,sans-Serif" font-size="10.00">+ Get()</text>
<text text-anchor="start" x="176" y="-156.5" font-family="Helvetica,sans-Serif" font-size="10.00">+ operator*()</text>
<text text-anchor="start" x="176" y="-145.5" font-family="Helvetica,sans-Serif" font-size="10.00">+ operator&#45;&gt;()</text>
<text text-anchor="start" x="176" y="-134.5" font-family="Helvetica,sans-Serif" font-size="10.00">+ IsValid()</text>
</a>
</g>
</g>
<!-- Node5&#45;&gt;Node1 -->
<g id="edge3" class="edge"><title>Node5&#45;&gt;Node1</title>
<path fill="none" stroke="#404040" d="M211.297,-127.261C204.813,-110.176 196.23,-91.4733 185.5,-76 183.248,-72.7529 180.73,-69.568 178.053,-66.4844"/>
<polygon fill="none" stroke="#404040" points="177.887,-66.3085 170.86,-64.6872 169.654,-57.5776 176.681,-59.1989 177.887,-66.3085"/>
<text text-anchor="middle" x="221.5" y="-79" font-family="Helvetica,sans-Serif" font-size="10.00"> +TargetActor</text>
</g>
</g>
</svg>
