<?xml version="1.0" encoding="UTF-8" standalone="no"?>
<!DOCTYPE svg PUBLIC "-//W3C//DTD SVG 1.1//EN"
 "http://www.w3.org/Graphics/SVG/1.1/DTD/svg11.dtd">
<!-- Generated by graphviz version 2.38.0 (20140413.2041)
 -->
<!-- Title: SDK::FRiddleTextPhrasebookEntry Pages: 1 -->
<svg width="278pt" height="237pt"
 viewBox="0.00 0.00 278.00 237.00" xmlns="http://www.w3.org/2000/svg" xmlns:xlink="http://www.w3.org/1999/xlink">
<g id="graph0" class="graph" transform="scale(1 1) rotate(0) translate(4 233)">
<title>SDK::FRiddleTextPhrasebookEntry</title>
<!-- Node1 -->
<g id="node1" class="node"><title>Node1</title>
<g id="a_node1"><a xlink:title=" ">
<polygon fill="#bfbfbf" stroke="black" points="52,-0.5 52,-68.5 198,-68.5 198,-0.5 52,-0.5"/>
<text text-anchor="start" x="60" y="-56.5" font-family="Helvetica,sans-Serif" font-size="10.00">SDK::FRiddleTextPhrasebook</text>
<text text-anchor="middle" x="125" y="-45.5" font-family="Helvetica,sans-Serif" font-size="10.00">Entry</text>
<polyline fill="none" stroke="black" points="52,-38.5 198,-38.5 "/>
<text text-anchor="middle" x="125" y="-26.5" font-family="Helvetica,sans-Serif" font-size="10.00"> </text>
<polyline fill="none" stroke="black" points="52,-19.5 198,-19.5 "/>
<text text-anchor="middle" x="125" y="-7.5" font-family="Helvetica,sans-Serif" font-size="10.00"> </text>
</a>
</g>
</g>
<!-- Node2 -->
<g id="node2" class="node"><title>Node2</title>
<g id="a_node2"><a xlink:href="a25627.html" target="_top" xlink:title=" ">
<polygon fill="none" stroke="red" points="0,-116.5 0,-228.5 106,-228.5 106,-116.5 0,-116.5"/>
<text text-anchor="middle" x="53" y="-216.5" font-family="Helvetica,sans-Serif" font-size="10.00">SDK::FName</text>
<polyline fill="none" stroke="red" points="0,-209.5 106,-209.5 "/>
<text text-anchor="middle" x="53" y="-197.5" font-family="Helvetica,sans-Serif" font-size="10.00"> </text>
<polyline fill="none" stroke="red" points="0,-190.5 106,-190.5 "/>
<text text-anchor="start" x="8" y="-178.5" font-family="Helvetica,sans-Serif" font-size="10.00">+ FName()</text>
<text text-anchor="start" x="8" y="-167.5" font-family="Helvetica,sans-Serif" font-size="10.00">+ FName()</text>
<text text-anchor="start" x="8" y="-156.5" font-family="Helvetica,sans-Serif" font-size="10.00">+ FName()</text>
<text text-anchor="start" x="8" y="-145.5" font-family="Helvetica,sans-Serif" font-size="10.00">+ GetName()</text>
<text text-anchor="start" x="8" y="-134.5" font-family="Helvetica,sans-Serif" font-size="10.00">+ operator==()</text>
<text text-anchor="start" x="8" y="-123.5" font-family="Helvetica,sans-Serif" font-size="10.00">+ GetGlobalNames()</text>
</a>
</g>
</g>
<!-- Node2&#45;&gt;Node1 -->
<g id="edge1" class="edge"><title>Node2&#45;&gt;Node1</title>
<path fill="none" stroke="#404040" d="M82.2852,-116.184C88.776,-103.923 95.5687,-91.0924 101.779,-79.3627"/>
<polygon fill="none" stroke="#404040" points="101.91,-79.1141 101.182,-71.9398 107.525,-68.5086 108.253,-75.6829 101.91,-79.1141"/>
<text text-anchor="middle" x="106.5" y="-90" font-family="Helvetica,sans-Serif" font-size="10.00"> +Id</text>
</g>
<!-- Node5 -->
<g id="node3" class="node"><title>Node5</title>
<g id="a_node3"><a xlink:href="a07795.html" target="_top" xlink:title=" ">
<polygon fill="none" stroke="red" points="124,-138.5 124,-206.5 270,-206.5 270,-138.5 124,-138.5"/>
<text text-anchor="start" x="132" y="-194.5" font-family="Helvetica,sans-Serif" font-size="10.00">SDK::URiddleTextPhraseData</text>
<text text-anchor="middle" x="197" y="-183.5" font-family="Helvetica,sans-Serif" font-size="10.00">Asset</text>
<polyline fill="none" stroke="red" points="124,-176.5 270,-176.5 "/>
<text text-anchor="middle" x="197" y="-164.5" font-family="Helvetica,sans-Serif" font-size="10.00"> </text>
<polyline fill="none" stroke="red" points="124,-157.5 270,-157.5 "/>
<text text-anchor="start" x="132" y="-145.5" font-family="Helvetica,sans-Serif" font-size="10.00">+ StaticClass()</text>
</a>
</g>
</g>
<!-- Node5&#45;&gt;Node1 -->
<g id="edge2" class="edge"><title>Node5&#45;&gt;Node1</title>
<path fill="none" stroke="#404040" d="M179.387,-138.231C170.06,-120.613 158.482,-98.7445 148.409,-79.7178"/>
<polygon fill="none" stroke="#404040" points="148.296,-79.5027 141.953,-76.0715 142.681,-68.8972 149.023,-72.3284 148.296,-79.5027"/>
<text text-anchor="middle" x="177" y="-90" font-family="Helvetica,sans-Serif" font-size="10.00"> +Phrase</text>
</g>
</g>
</svg>
