<?xml version="1.0" encoding="UTF-8" standalone="no"?>
<!DOCTYPE svg PUBLIC "-//W3C//DTD SVG 1.1//EN"
 "http://www.w3.org/Graphics/SVG/1.1/DTD/svg11.dtd">
<!-- Generated by graphviz version 2.38.0 (20140413.2041)
 -->
<!-- Title: SDK::FFireRequest Pages: 1 -->
<svg width="512pt" height="413pt"
 viewBox="0.00 0.00 511.50 413.00" xmlns="http://www.w3.org/2000/svg" xmlns:xlink="http://www.w3.org/1999/xlink">
<g id="graph0" class="graph" transform="scale(1 1) rotate(0) translate(4 409)">
<title>SDK::FFireRequest</title>
<!-- Node1 -->
<g id="node1" class="node"><title>Node1</title>
<g id="a_node1"><a xlink:title=" ">
<polygon fill="#bfbfbf" stroke="black" points="156,-0.5 156,-57.5 257,-57.5 257,-0.5 156,-0.5"/>
<text text-anchor="middle" x="206.5" y="-45.5" font-family="Helvetica,sans-Serif" font-size="10.00">SDK::FFireRequest</text>
<polyline fill="none" stroke="black" points="156,-38.5 257,-38.5 "/>
<text text-anchor="middle" x="206.5" y="-26.5" font-family="Helvetica,sans-Serif" font-size="10.00"> </text>
<polyline fill="none" stroke="black" points="156,-19.5 257,-19.5 "/>
<text text-anchor="middle" x="206.5" y="-7.5" font-family="Helvetica,sans-Serif" font-size="10.00"> </text>
</a>
</g>
</g>
<!-- Node2 -->
<g id="node2" class="node"><title>Node2</title>
<g id="a_node2"><a xlink:href="a25611.html" target="_top" xlink:title=" ">
<polygon fill="none" stroke="black" points="0,-199 0,-311 105,-311 105,-199 0,-199"/>
<text text-anchor="start" x="8" y="-299" font-family="Helvetica,sans-Serif" font-size="10.00">SDK::TArray&lt; struct</text>
<text text-anchor="middle" x="52.5" y="-288" font-family="Helvetica,sans-Serif" font-size="10.00"> SDK::FHitResult &gt;</text>
<polyline fill="none" stroke="black" points="0,-281 105,-281 "/>
<text text-anchor="middle" x="52.5" y="-269" font-family="Helvetica,sans-Serif" font-size="10.00"> </text>
<polyline fill="none" stroke="black" points="0,-262 105,-262 "/>
<text text-anchor="start" x="8" y="-250" font-family="Helvetica,sans-Serif" font-size="10.00">+ TArray()</text>
<text text-anchor="start" x="8" y="-239" font-family="Helvetica,sans-Serif" font-size="10.00">+ Num()</text>
<text text-anchor="start" x="8" y="-228" font-family="Helvetica,sans-Serif" font-size="10.00">+ operator[]()</text>
<text text-anchor="start" x="8" y="-217" font-family="Helvetica,sans-Serif" font-size="10.00">+ operator[]()</text>
<text text-anchor="start" x="8" y="-206" font-family="Helvetica,sans-Serif" font-size="10.00">+ IsValidIndex()</text>
</a>
</g>
</g>
<!-- Node2&#45;&gt;Node1 -->
<g id="edge1" class="edge"><title>Node2&#45;&gt;Node1</title>
<path fill="none" stroke="#404040" d="M68.0975,-198.759C78.1083,-169.201 93.0937,-133.189 113.5,-105 124.272,-90.12 138.721,-76.5594 153.014,-65.1862"/>
<polygon fill="none" stroke="#404040" points="153.305,-64.9632 155.641,-58.1408 162.837,-57.6726 160.501,-64.495 153.305,-64.9632"/>
<text text-anchor="middle" x="168" y="-79" font-family="Helvetica,sans-Serif" font-size="10.00"> +HitResults</text>
</g>
<!-- Node3 -->
<g id="node3" class="node"><title>Node3</title>
<g id="a_node3"><a xlink:href="a26343.html" target="_top" xlink:title=" ">
<polygon fill="none" stroke="red" points="123,-105.5 123,-404.5 290,-404.5 290,-105.5 123,-105.5"/>
<text text-anchor="middle" x="206.5" y="-392.5" font-family="Helvetica,sans-Serif" font-size="10.00">SDK::AActor</text>
<polyline fill="none" stroke="red" points="123,-385.5 290,-385.5 "/>
<text text-anchor="start" x="131" y="-373.5" font-family="Helvetica,sans-Serif" font-size="10.00">+ bAllowRemovalFromServerWhen</text>
<text text-anchor="start" x="131" y="-362.5" font-family="Helvetica,sans-Serif" font-size="10.00">CollisionMerged</text>
<text text-anchor="start" x="131" y="-351.5" font-family="Helvetica,sans-Serif" font-size="10.00">+ bHidden</text>
<text text-anchor="start" x="131" y="-340.5" font-family="Helvetica,sans-Serif" font-size="10.00">+ bNetStartup</text>
<text text-anchor="start" x="131" y="-329.5" font-family="Helvetica,sans-Serif" font-size="10.00">+ bOnlyRelevantToOwner</text>
<text text-anchor="start" x="131" y="-318.5" font-family="Helvetica,sans-Serif" font-size="10.00">+ bAlwaysRelevant</text>
<text text-anchor="start" x="131" y="-307.5" font-family="Helvetica,sans-Serif" font-size="10.00">+ bReplicateMovement</text>
<text text-anchor="start" x="131" y="-296.5" font-family="Helvetica,sans-Serif" font-size="10.00">+ bExchangedRoles</text>
<text text-anchor="start" x="131" y="-285.5" font-family="Helvetica,sans-Serif" font-size="10.00">+ bNetLoadOnClient</text>
<text text-anchor="start" x="131" y="-274.5" font-family="Helvetica,sans-Serif" font-size="10.00">+ bBlockInput</text>
<text text-anchor="start" x="131" y="-263.5" font-family="Helvetica,sans-Serif" font-size="10.00">+ UnknownData00</text>
<text text-anchor="start" x="131" y="-252.5" font-family="Helvetica,sans-Serif" font-size="10.00">and 26 more...</text>
<polyline fill="none" stroke="red" points="123,-245.5 290,-245.5 "/>
<text text-anchor="start" x="131" y="-233.5" font-family="Helvetica,sans-Serif" font-size="10.00">+ UserConstructionScript()</text>
<text text-anchor="start" x="131" y="-222.5" font-family="Helvetica,sans-Serif" font-size="10.00">+ TearOff()</text>
<text text-anchor="start" x="131" y="-211.5" font-family="Helvetica,sans-Serif" font-size="10.00">+ SnapRootComponentTo()</text>
<text text-anchor="start" x="131" y="-200.5" font-family="Helvetica,sans-Serif" font-size="10.00">+ SetTickGroup()</text>
<text text-anchor="start" x="131" y="-189.5" font-family="Helvetica,sans-Serif" font-size="10.00">+ SetTickableWhenPaused()</text>
<text text-anchor="start" x="131" y="-178.5" font-family="Helvetica,sans-Serif" font-size="10.00">+ SetReplicates()</text>
<text text-anchor="start" x="131" y="-167.5" font-family="Helvetica,sans-Serif" font-size="10.00">+ SetReplicateMovement()</text>
<text text-anchor="start" x="131" y="-156.5" font-family="Helvetica,sans-Serif" font-size="10.00">+ SetOwner()</text>
<text text-anchor="start" x="131" y="-145.5" font-family="Helvetica,sans-Serif" font-size="10.00">+ SetLifeSpan()</text>
<text text-anchor="start" x="131" y="-134.5" font-family="Helvetica,sans-Serif" font-size="10.00">+ SetIgnoreNetTransformUpdates()</text>
<text text-anchor="start" x="131" y="-123.5" font-family="Helvetica,sans-Serif" font-size="10.00">and 109 more...</text>
<text text-anchor="start" x="131" y="-112.5" font-family="Helvetica,sans-Serif" font-size="10.00">+ StaticClass()</text>
</a>
</g>
</g>
<!-- Node3&#45;&gt;Node1 -->
<g id="edge2" class="edge"><title>Node3&#45;&gt;Node1</title>
<path fill="none" stroke="#404040" d="M206.5,-105.212C206.5,-92.4583 206.5,-80.4206 206.5,-69.8694"/>
<polygon fill="none" stroke="#404040" points="206.5,-69.7882 202.5,-63.7883 206.5,-57.7882 210.5,-63.7882 206.5,-69.7882"/>
<text text-anchor="middle" x="231" y="-79" font-family="Helvetica,sans-Serif" font-size="10.00"> +Instigator</text>
</g>
<!-- Node3&#45;&gt;Node3 -->
<g id="edge3" class="edge"><title>Node3&#45;&gt;Node3</title>
<path fill="none" stroke="#404040" d="M290.12,-283.264C300.887,-278.363 308,-268.941 308,-255 308,-246.069 305.081,-238.993 300.152,-233.771"/>
<polygon fill="none" stroke="#404040" points="299.945,-233.626 292.736,-233.456 290.12,-226.736 297.329,-226.906 299.945,-233.626"/>
<text text-anchor="middle" x="326.5" y="-252.5" font-family="Helvetica,sans-Serif" font-size="10.00"> +Owner</text>
</g>
<!-- Node178 -->
<g id="node4" class="node"><title>Node178</title>
<g id="a_node4"><a xlink:href="a15203.html" target="_top" xlink:title=" ">
<polygon fill="none" stroke="red" points="363.5,-226.5 363.5,-283.5 503.5,-283.5 503.5,-226.5 363.5,-226.5"/>
<text text-anchor="middle" x="433.5" y="-271.5" font-family="Helvetica,sans-Serif" font-size="10.00">SDK::FRemoteProjectileAim</text>
<polyline fill="none" stroke="red" points="363.5,-264.5 503.5,-264.5 "/>
<text text-anchor="middle" x="433.5" y="-252.5" font-family="Helvetica,sans-Serif" font-size="10.00"> </text>
<polyline fill="none" stroke="red" points="363.5,-245.5 503.5,-245.5 "/>
<text text-anchor="middle" x="433.5" y="-233.5" font-family="Helvetica,sans-Serif" font-size="10.00"> </text>
</a>
</g>
</g>
<!-- Node178&#45;&gt;Node1 -->
<g id="edge4" class="edge"><title>Node178&#45;&gt;Node1</title>
<path fill="none" stroke="#404040" d="M424.45,-226.388C412.6,-193.85 389.057,-139.82 353.5,-105 329.555,-81.5522 296.802,-63.8736 268.289,-51.5875"/>
<polygon fill="none" stroke="#404040" points="268.271,-51.5804 261.196,-52.974 257.189,-46.979 264.264,-45.5854 268.271,-51.5804"/>
<text text-anchor="middle" x="370" y="-79" font-family="Helvetica,sans-Serif" font-size="10.00"> +RemoteAimData</text>
</g>
</g>
</svg>
