<?xml version="1.0" encoding="UTF-8" standalone="no"?>
<!DOCTYPE svg PUBLIC "-//W3C//DTD SVG 1.1//EN"
 "http://www.w3.org/Graphics/SVG/1.1/DTD/svg11.dtd">
<!-- Generated by graphviz version 2.38.0 (20140413.2041)
 -->
<!-- Title: SDK::FQuestBookPageRenderer Pages: 1 -->
<svg width="322pt" height="320pt"
 viewBox="0.00 0.00 322.06 320.00" xmlns="http://www.w3.org/2000/svg" xmlns:xlink="http://www.w3.org/1999/xlink">
<g id="graph0" class="graph" transform="scale(1 1) rotate(0) translate(4 316)">
<title>SDK::FQuestBookPageRenderer</title>
<!-- Node1 -->
<g id="node1" class="node"><title>Node1</title>
<g id="a_node1"><a xlink:title=" ">
<polygon fill="#bfbfbf" stroke="black" points="66.5617,-0.5 66.5617,-57.5 225.562,-57.5 225.562,-0.5 66.5617,-0.5"/>
<text text-anchor="middle" x="146.062" y="-45.5" font-family="Helvetica,sans-Serif" font-size="10.00">SDK::FQuestBookPageRenderer</text>
<polyline fill="none" stroke="black" points="66.5617,-38.5 225.562,-38.5 "/>
<text text-anchor="middle" x="146.062" y="-26.5" font-family="Helvetica,sans-Serif" font-size="10.00"> </text>
<polyline fill="none" stroke="black" points="66.5617,-19.5 225.562,-19.5 "/>
<text text-anchor="middle" x="146.062" y="-7.5" font-family="Helvetica,sans-Serif" font-size="10.00"> </text>
</a>
</g>
</g>
<!-- Node2 -->
<g id="node2" class="node"><title>Node2</title>
<g id="a_node2"><a xlink:title=" ">
<polygon fill="none" stroke="#bfbfbf" points="6.56168,-254.5 6.56168,-311.5 41.5617,-311.5 41.5617,-254.5 6.56168,-254.5"/>
<text text-anchor="middle" x="24.0617" y="-299.5" font-family="Helvetica,sans-Serif" font-size="10.00">char</text>
<polyline fill="none" stroke="#bfbfbf" points="6.56168,-292.5 41.5617,-292.5 "/>
<text text-anchor="middle" x="24.0617" y="-280.5" font-family="Helvetica,sans-Serif" font-size="10.00"> </text>
<polyline fill="none" stroke="#bfbfbf" points="6.56168,-273.5 41.5617,-273.5 "/>
<text text-anchor="middle" x="24.0617" y="-261.5" font-family="Helvetica,sans-Serif" font-size="10.00"> </text>
</a>
</g>
</g>
<!-- Node2&#45;&gt;Node1 -->
<g id="edge1" class="edge"><title>Node2&#45;&gt;Node1</title>
<path fill="none" stroke="#404040" d="M14.1767,-254.369C2.8411,-217.585 -10.9382,-151.748 16.0617,-105 25.9362,-87.9031 41.3546,-74.3565 58.1697,-63.7563"/>
<polygon fill="none" stroke="#404040" points="58.432,-63.6025 61.5838,-57.1167 68.783,-57.5315 65.6312,-64.0174 58.432,-63.6025"/>
<text text-anchor="middle" x="56.0617" y="-131.5" font-family="Helvetica,sans-Serif" font-size="10.00"> +UnknownData00</text>
</g>
<!-- Node4 -->
<g id="node4" class="node"><title>Node4</title>
<g id="a_node4"><a xlink:href="a28035.html" target="_top" xlink:title=" ">
<polygon fill="none" stroke="red" points="105.062,-105.5 105.062,-162.5 187.062,-162.5 187.062,-105.5 105.062,-105.5"/>
<text text-anchor="middle" x="146.062" y="-150.5" font-family="Helvetica,sans-Serif" font-size="10.00">SDK::UFont</text>
<polyline fill="none" stroke="red" points="105.062,-143.5 187.062,-143.5 "/>
<text text-anchor="middle" x="146.062" y="-131.5" font-family="Helvetica,sans-Serif" font-size="10.00"> </text>
<polyline fill="none" stroke="red" points="105.062,-124.5 187.062,-124.5 "/>
<text text-anchor="start" x="113.062" y="-112.5" font-family="Helvetica,sans-Serif" font-size="10.00">+ StaticClass()</text>
</a>
</g>
</g>
<!-- Node2&#45;&gt;Node4 -->
<g id="edge5" class="edge"><title>Node2&#45;&gt;Node4</title>
<path fill="none" stroke="#404040" d="M26.9499,-254.333C30.5242,-232.287 38.471,-201.776 56.0617,-181 56.1631,-180.88 74.1571,-171.676 94.0273,-161.533"/>
<polygon fill="none" stroke="#404040" points="94.1409,-161.475 97.667,-155.185 104.83,-156.02 101.303,-162.311 94.1409,-161.475"/>
<text text-anchor="middle" x="96.0617" y="-222.5" font-family="Helvetica,sans-Serif" font-size="10.00"> +UnknownData01</text>
<text text-anchor="middle" x="96.0617" y="-211.5" font-family="Helvetica,sans-Serif" font-size="10.00">+UnknownData02</text>
<text text-anchor="middle" x="96.0617" y="-200.5" font-family="Helvetica,sans-Serif" font-size="10.00">+UnknownData03</text>
<text text-anchor="middle" x="96.0617" y="-189.5" font-family="Helvetica,sans-Serif" font-size="10.00">+UnknownData00</text>
</g>
<!-- Node3 -->
<g id="node3" class="node"><title>Node3</title>
<g id="a_node3"><a xlink:title=" ">
<polygon fill="none" stroke="#bfbfbf" points="168.562,-254.5 168.562,-311.5 203.562,-311.5 203.562,-254.5 168.562,-254.5"/>
<text text-anchor="middle" x="186.062" y="-299.5" font-family="Helvetica,sans-Serif" font-size="10.00">float</text>
<polyline fill="none" stroke="#bfbfbf" points="168.562,-292.5 203.562,-292.5 "/>
<text text-anchor="middle" x="186.062" y="-280.5" font-family="Helvetica,sans-Serif" font-size="10.00"> </text>
<polyline fill="none" stroke="#bfbfbf" points="168.562,-273.5 203.562,-273.5 "/>
<text text-anchor="middle" x="186.062" y="-261.5" font-family="Helvetica,sans-Serif" font-size="10.00"> </text>
</a>
</g>
</g>
<!-- Node3&#45;&gt;Node1 -->
<g id="edge2" class="edge"><title>Node3&#45;&gt;Node1</title>
<path fill="none" stroke="#404040" d="M203.766,-257.291C207.584,-250.68 211.07,-243.328 213.062,-236 219.473,-212.411 215.746,-205.297 213.062,-181 209.261,-146.597 208.744,-137.205 196.062,-105 190.588,-91.0988 187.202,-88.5275 179.062,-76 177.314,-73.3113 175.477,-70.5607 173.6,-67.8078"/>
<polygon fill="none" stroke="#404040" points="173.581,-67.7816 166.87,-65.1442 166.723,-57.9346 173.434,-60.5719 173.581,-67.7816"/>
<text text-anchor="middle" x="262.062" y="-142.5" font-family="Helvetica,sans-Serif" font-size="10.00"> +FontMaxScale</text>
<text text-anchor="middle" x="262.062" y="-131.5" font-family="Helvetica,sans-Serif" font-size="10.00">+FontLineSpacingScale</text>
<text text-anchor="middle" x="262.062" y="-120.5" font-family="Helvetica,sans-Serif" font-size="10.00">+FontScale</text>
</g>
<!-- Node3&#45;&gt;Node4 -->
<g id="edge4" class="edge"><title>Node3&#45;&gt;Node4</title>
<path fill="none" stroke="#404040" d="M168.374,-267.324C159.881,-259.107 150.584,-248.093 146.062,-236 138.806,-216.599 138.247,-193.598 139.748,-174.45"/>
<polygon fill="none" stroke="#404040" points="139.749,-174.437 136.387,-168.057 140.983,-162.5 144.345,-168.88 139.749,-174.437"/>
<text text-anchor="middle" x="179.562" y="-228" font-family="Helvetica,sans-Serif" font-size="10.00"> +Descent</text>
<text text-anchor="middle" x="179.562" y="-217" font-family="Helvetica,sans-Serif" font-size="10.00">+Leading</text>
<text text-anchor="middle" x="179.562" y="-206" font-family="Helvetica,sans-Serif" font-size="10.00">+EmScale</text>
<text text-anchor="middle" x="179.562" y="-195" font-family="Helvetica,sans-Serif" font-size="10.00">+ScalingFactor</text>
<text text-anchor="middle" x="179.562" y="-184" font-family="Helvetica,sans-Serif" font-size="10.00">+Ascent</text>
</g>
<!-- Node4&#45;&gt;Node1 -->
<g id="edge3" class="edge"><title>Node4&#45;&gt;Node1</title>
<path fill="none" stroke="#404040" d="M146.062,-105.398C146.062,-94.5451 146.062,-81.8731 146.062,-70.0493"/>
<polygon fill="none" stroke="#404040" points="146.062,-69.6783 142.062,-63.6783 146.062,-57.6783 150.062,-63.6783 146.062,-69.6783"/>
<text text-anchor="middle" x="160.562" y="-79" font-family="Helvetica,sans-Serif" font-size="10.00"> +Font</text>
</g>
</g>
</svg>
