<?xml version="1.0" encoding="UTF-8" standalone="no"?>
<!DOCTYPE svg PUBLIC "-//W3C//DTD SVG 1.1//EN"
 "http://www.w3.org/Graphics/SVG/1.1/DTD/svg11.dtd">
<!-- Generated by graphviz version 2.38.0 (20140413.2041)
 -->
<!-- Title: SDK::FShipPartsCataloguePartCustomisation Pages: 1 -->
<svg width="258pt" height="237pt"
 viewBox="0.00 0.00 257.50 237.00" xmlns="http://www.w3.org/2000/svg" xmlns:xlink="http://www.w3.org/1999/xlink">
<g id="graph0" class="graph" transform="scale(1 1) rotate(0) translate(4 233)">
<title>SDK::FShipPartsCataloguePartCustomisation</title>
<!-- Node1 -->
<g id="node1" class="node"><title>Node1</title>
<g id="a_node1"><a xlink:title=" ">
<polygon fill="#bfbfbf" stroke="black" points="66,-0.5 66,-68.5 201,-68.5 201,-0.5 66,-0.5"/>
<text text-anchor="start" x="74" y="-56.5" font-family="Helvetica,sans-Serif" font-size="10.00">SDK::FShipPartsCatalogue</text>
<text text-anchor="middle" x="133.5" y="-45.5" font-family="Helvetica,sans-Serif" font-size="10.00">PartCustomisation</text>
<polyline fill="none" stroke="black" points="66,-38.5 201,-38.5 "/>
<text text-anchor="middle" x="133.5" y="-26.5" font-family="Helvetica,sans-Serif" font-size="10.00"> </text>
<polyline fill="none" stroke="black" points="66,-19.5 201,-19.5 "/>
<text text-anchor="middle" x="133.5" y="-7.5" font-family="Helvetica,sans-Serif" font-size="10.00"> </text>
</a>
</g>
</g>
<!-- Node2 -->
<g id="node2" class="node"><title>Node2</title>
<g id="a_node2"><a xlink:href="a25611.html" target="_top" xlink:title=" ">
<polygon fill="none" stroke="black" points="0,-116.5 0,-228.5 141,-228.5 141,-116.5 0,-116.5"/>
<text text-anchor="start" x="8" y="-216.5" font-family="Helvetica,sans-Serif" font-size="10.00">SDK::TArray&lt; struct</text>
<text text-anchor="middle" x="70.5" y="-205.5" font-family="Helvetica,sans-Serif" font-size="10.00"> SDK::FPartCustomisation &gt;</text>
<polyline fill="none" stroke="black" points="0,-198.5 141,-198.5 "/>
<text text-anchor="middle" x="70.5" y="-186.5" font-family="Helvetica,sans-Serif" font-size="10.00"> </text>
<polyline fill="none" stroke="black" points="0,-179.5 141,-179.5 "/>
<text text-anchor="start" x="8" y="-167.5" font-family="Helvetica,sans-Serif" font-size="10.00">+ TArray()</text>
<text text-anchor="start" x="8" y="-156.5" font-family="Helvetica,sans-Serif" font-size="10.00">+ Num()</text>
<text text-anchor="start" x="8" y="-145.5" font-family="Helvetica,sans-Serif" font-size="10.00">+ operator[]()</text>
<text text-anchor="start" x="8" y="-134.5" font-family="Helvetica,sans-Serif" font-size="10.00">+ operator[]()</text>
<text text-anchor="start" x="8" y="-123.5" font-family="Helvetica,sans-Serif" font-size="10.00">+ IsValidIndex()</text>
</a>
</g>
</g>
<!-- Node2&#45;&gt;Node1 -->
<g id="edge1" class="edge"><title>Node2&#45;&gt;Node1</title>
<path fill="none" stroke="#404040" d="M89.7443,-116.345C93.6617,-106.442 97.9787,-96.3139 102.5,-87 103.75,-84.4256 105.087,-81.8118 106.48,-79.1966"/>
<polygon fill="none" stroke="#404040" points="106.581,-79.0146 106.011,-71.8261 112.428,-68.535 112.998,-75.7236 106.581,-79.0146"/>
<text text-anchor="middle" x="138.5" y="-90" font-family="Helvetica,sans-Serif" font-size="10.00"> +Customisation</text>
</g>
<!-- Node3 -->
<g id="node3" class="node"><title>Node3</title>
<g id="a_node3"><a xlink:href="a25631.html" target="_top" xlink:title=" ">
<polygon fill="none" stroke="red" points="159.5,-122 159.5,-223 233.5,-223 233.5,-122 159.5,-122"/>
<text text-anchor="middle" x="196.5" y="-211" font-family="Helvetica,sans-Serif" font-size="10.00">SDK::FString</text>
<polyline fill="none" stroke="red" points="159.5,-204 233.5,-204 "/>
<text text-anchor="middle" x="196.5" y="-192" font-family="Helvetica,sans-Serif" font-size="10.00"> </text>
<polyline fill="none" stroke="red" points="159.5,-185 233.5,-185 "/>
<text text-anchor="start" x="167.5" y="-173" font-family="Helvetica,sans-Serif" font-size="10.00">+ FString()</text>
<text text-anchor="start" x="167.5" y="-162" font-family="Helvetica,sans-Serif" font-size="10.00">+ FString()</text>
<text text-anchor="start" x="167.5" y="-151" font-family="Helvetica,sans-Serif" font-size="10.00">+ IsValid()</text>
<text text-anchor="start" x="167.5" y="-140" font-family="Helvetica,sans-Serif" font-size="10.00">+ c_str()</text>
<text text-anchor="start" x="167.5" y="-129" font-family="Helvetica,sans-Serif" font-size="10.00">+ ToString()</text>
</a>
</g>
</g>
<!-- Node3&#45;&gt;Node1 -->
<g id="edge2" class="edge"><title>Node3&#45;&gt;Node1</title>
<path fill="none" stroke="#404040" d="M187.291,-121.98C184.104,-110.167 179.922,-97.8476 174.5,-87 173.136,-84.2719 171.611,-81.5529 169.974,-78.8708"/>
<polygon fill="none" stroke="#404040" points="169.882,-78.7346 163.219,-75.9783 163.2,-68.7672 169.864,-71.5235 169.882,-78.7346"/>
<text text-anchor="middle" x="214.5" y="-90" font-family="Helvetica,sans-Serif" font-size="10.00"> +FriendlyName</text>
</g>
</g>
</svg>
