<?xml version="1.0" encoding="UTF-8" standalone="no"?>
<!DOCTYPE svg PUBLIC "-//W3C//DTD SVG 1.1//EN"
 "http://www.w3.org/Graphics/SVG/1.1/DTD/svg11.dtd">
<!-- Generated by graphviz version 2.38.0 (20140413.2041)
 -->
<!-- Title: SDK::FRewardDistributionModelData Pages: 1 -->
<svg width="322pt" height="193pt"
 viewBox="0.00 0.00 322.00 193.00" xmlns="http://www.w3.org/2000/svg" xmlns:xlink="http://www.w3.org/1999/xlink">
<g id="graph0" class="graph" transform="scale(1 1) rotate(0) translate(4 189)">
<title>SDK::FRewardDistributionModelData</title>
<!-- Node1 -->
<g id="node1" class="node"><title>Node1</title>
<g id="a_node1"><a xlink:title=" ">
<polygon fill="#bfbfbf" stroke="black" points="79,-0.5 79,-68.5 209,-68.5 209,-0.5 79,-0.5"/>
<text text-anchor="start" x="87" y="-56.5" font-family="Helvetica,sans-Serif" font-size="10.00">SDK::FRewardDistribution</text>
<text text-anchor="middle" x="144" y="-45.5" font-family="Helvetica,sans-Serif" font-size="10.00">ModelData</text>
<polyline fill="none" stroke="black" points="79,-38.5 209,-38.5 "/>
<text text-anchor="middle" x="144" y="-26.5" font-family="Helvetica,sans-Serif" font-size="10.00"> </text>
<polyline fill="none" stroke="black" points="79,-19.5 209,-19.5 "/>
<text text-anchor="middle" x="144" y="-7.5" font-family="Helvetica,sans-Serif" font-size="10.00"> </text>
</a>
</g>
</g>
<!-- Node2 -->
<g id="node2" class="node"><title>Node2</title>
<g id="a_node2"><a xlink:href="a15411.html" target="_top" xlink:title=" ">
<polygon fill="none" stroke="red" points="0,-116.5 0,-184.5 132,-184.5 132,-116.5 0,-116.5"/>
<text text-anchor="start" x="8" y="-172.5" font-family="Helvetica,sans-Serif" font-size="10.00">SDK::FRelativePercentage</text>
<text text-anchor="middle" x="66" y="-161.5" font-family="Helvetica,sans-Serif" font-size="10.00">RewardDistributionModel</text>
<polyline fill="none" stroke="red" points="0,-154.5 132,-154.5 "/>
<text text-anchor="middle" x="66" y="-142.5" font-family="Helvetica,sans-Serif" font-size="10.00"> </text>
<polyline fill="none" stroke="red" points="0,-135.5 132,-135.5 "/>
<text text-anchor="middle" x="66" y="-123.5" font-family="Helvetica,sans-Serif" font-size="10.00"> </text>
</a>
</g>
</g>
<!-- Node2&#45;&gt;Node1 -->
<g id="edge1" class="edge"><title>Node2&#45;&gt;Node1</title>
<path fill="none" stroke="#404040" d="M88.12,-116.338C94.5004,-106.84 101.496,-96.4892 108,-87 109.844,-84.309 111.749,-81.5439 113.675,-78.7588"/>
<polygon fill="none" stroke="#404040" points="113.828,-78.5391 113.964,-71.3293 120.671,-68.6819 120.535,-75.8918 113.828,-78.5391"/>
<text text-anchor="middle" x="154.5" y="-90" font-family="Helvetica,sans-Serif" font-size="10.00"> +RelativePercentage</text>
</g>
<!-- Node6 -->
<g id="node3" class="node"><title>Node6</title>
<g id="a_node3"><a xlink:href="a15403.html" target="_top" xlink:title=" ">
<polygon fill="none" stroke="red" points="150.5,-116.5 150.5,-184.5 295.5,-184.5 295.5,-116.5 150.5,-116.5"/>
<text text-anchor="start" x="158.5" y="-172.5" font-family="Helvetica,sans-Serif" font-size="10.00">SDK::FConsistentPercentage</text>
<text text-anchor="middle" x="223" y="-161.5" font-family="Helvetica,sans-Serif" font-size="10.00">RewardDistributionModel</text>
<polyline fill="none" stroke="red" points="150.5,-154.5 295.5,-154.5 "/>
<text text-anchor="middle" x="223" y="-142.5" font-family="Helvetica,sans-Serif" font-size="10.00"> </text>
<polyline fill="none" stroke="red" points="150.5,-135.5 295.5,-135.5 "/>
<text text-anchor="middle" x="223" y="-123.5" font-family="Helvetica,sans-Serif" font-size="10.00"> </text>
</a>
</g>
</g>
<!-- Node6&#45;&gt;Node1 -->
<g id="edge2" class="edge"><title>Node6&#45;&gt;Node1</title>
<path fill="none" stroke="#404040" d="M214.701,-116.261C211.354,-106.36 206.864,-95.81 201,-87 198.924,-83.8809 196.617,-80.8262 194.155,-77.8593"/>
<polygon fill="none" stroke="#404040" points="193.919,-77.599 186.925,-75.8426 185.857,-68.711 192.851,-70.4675 193.919,-77.599"/>
<text text-anchor="middle" x="261" y="-90" font-family="Helvetica,sans-Serif" font-size="10.00"> +ConsistentPercentage</text>
</g>
</g>
</svg>
