<?xml version="1.0" encoding="UTF-8" standalone="no"?>
<!DOCTYPE svg PUBLIC "-//W3C//DTD SVG 1.1//EN"
 "http://www.w3.org/Graphics/SVG/1.1/DTD/svg11.dtd">
<!-- Generated by graphviz version 2.38.0 (20140413.2041)
 -->
<!-- Title: SDK::FAISwimmingCreatureDeadActionStateParams Pages: 1 -->
<svg width="523pt" height="353pt"
 viewBox="0.00 0.00 523.09 353.00" xmlns="http://www.w3.org/2000/svg" xmlns:xlink="http://www.w3.org/1999/xlink">
<g id="graph0" class="graph" transform="scale(1 1) rotate(0) translate(4 349)">
<title>SDK::FAISwimmingCreatureDeadActionStateParams</title>
<!-- Node1 -->
<g id="node1" class="node"><title>Node1</title>
<g id="a_node1"><a xlink:title=" ">
<polygon fill="#bfbfbf" stroke="black" points="179.586,-0.5 179.586,-68.5 319.586,-68.5 319.586,-0.5 179.586,-0.5"/>
<text text-anchor="start" x="187.586" y="-56.5" font-family="Helvetica,sans-Serif" font-size="10.00">SDK::FAISwimmingCreature</text>
<text text-anchor="middle" x="249.586" y="-45.5" font-family="Helvetica,sans-Serif" font-size="10.00">DeadActionStateParams</text>
<polyline fill="none" stroke="black" points="179.586,-38.5 319.586,-38.5 "/>
<text text-anchor="middle" x="249.586" y="-26.5" font-family="Helvetica,sans-Serif" font-size="10.00"> </text>
<polyline fill="none" stroke="black" points="179.586,-19.5 319.586,-19.5 "/>
<text text-anchor="middle" x="249.586" y="-7.5" font-family="Helvetica,sans-Serif" font-size="10.00"> </text>
</a>
</g>
</g>
<!-- Node2 -->
<g id="node2" class="node"><title>Node2</title>
<g id="a_node2"><a xlink:href="a15431.html" target="_top" xlink:title=" ">
<polygon fill="none" stroke="black" points="167.086,-149.5 167.086,-206.5 332.086,-206.5 332.086,-149.5 167.086,-149.5"/>
<text text-anchor="middle" x="249.586" y="-194.5" font-family="Helvetica,sans-Serif" font-size="10.00">SDK::FAIDeadActionStateParams</text>
<polyline fill="none" stroke="black" points="167.086,-187.5 332.086,-187.5 "/>
<text text-anchor="middle" x="249.586" y="-175.5" font-family="Helvetica,sans-Serif" font-size="10.00"> </text>
<polyline fill="none" stroke="black" points="167.086,-168.5 332.086,-168.5 "/>
<text text-anchor="middle" x="249.586" y="-156.5" font-family="Helvetica,sans-Serif" font-size="10.00"> </text>
</a>
</g>
</g>
<!-- Node2&#45;&gt;Node1 -->
<g id="edge1" class="edge"><title>Node2&#45;&gt;Node1</title>
<path fill="none" stroke="midnightblue" d="M249.586,-139.369C249.586,-117.318 249.586,-89.7228 249.586,-68.5192"/>
<polygon fill="none" stroke="midnightblue" points="246.086,-139.381 249.586,-149.381 253.086,-139.382 246.086,-139.381"/>
</g>
<!-- Node3 -->
<g id="node3" class="node"><title>Node3</title>
<g id="a_node3"><a xlink:title=" ">
<polygon fill="none" stroke="#bfbfbf" points="61.0858,-287.5 61.0858,-344.5 96.0858,-344.5 96.0858,-287.5 61.0858,-287.5"/>
<text text-anchor="middle" x="78.5858" y="-332.5" font-family="Helvetica,sans-Serif" font-size="10.00">float</text>
<polyline fill="none" stroke="#bfbfbf" points="61.0858,-325.5 96.0858,-325.5 "/>
<text text-anchor="middle" x="78.5858" y="-313.5" font-family="Helvetica,sans-Serif" font-size="10.00"> </text>
<polyline fill="none" stroke="#bfbfbf" points="61.0858,-306.5 96.0858,-306.5 "/>
<text text-anchor="middle" x="78.5858" y="-294.5" font-family="Helvetica,sans-Serif" font-size="10.00"> </text>
</a>
</g>
</g>
<!-- Node3&#45;&gt;Node1 -->
<g id="edge4" class="edge"><title>Node3&#45;&gt;Node1</title>
<path fill="none" stroke="#404040" d="M61.0816,-299.429C46.8261,-285.485 27.7696,-263.64 19.5858,-240 1.55657,-187.921 -12.3037,-160.948 19.5858,-116 52.9003,-69.0439 115.793,-49.2623 167.401,-41.0331"/>
<polygon fill="none" stroke="#404040" points="167.699,-40.99 173.063,-36.1707 179.574,-39.2686 174.21,-44.0879 167.699,-40.99"/>
<text text-anchor="start" x="19.5858" y="-192" font-family="Helvetica,sans-Serif" font-size="10.00"> +DoQuickDeathTestWhenLess</text>
<text text-anchor="middle" x="88.5858" y="-181" font-family="Helvetica,sans-Serif" font-size="10.00">ThanTimeLeftInState</text>
<text text-anchor="middle" x="88.5858" y="-170" font-family="Helvetica,sans-Serif" font-size="10.00">+QuickDeathTime</text>
<text text-anchor="middle" x="88.5858" y="-159" font-family="Helvetica,sans-Serif" font-size="10.00">+StartDitheringTimeIntoState</text>
</g>
<!-- Node3&#45;&gt;Node2 -->
<g id="edge2" class="edge"><title>Node3&#45;&gt;Node2</title>
<path fill="none" stroke="#404040" d="M96.2417,-300.958C121.747,-280.673 169.734,-242.508 205.261,-214.253"/>
<polygon fill="none" stroke="#404040" points="205.53,-214.039 207.736,-207.173 214.922,-206.569 212.716,-213.434 205.53,-214.039"/>
<text text-anchor="middle" x="179.586" y="-261" font-family="Helvetica,sans-Serif" font-size="10.00"> +DeathDelay</text>
</g>
<!-- Node4 -->
<g id="node4" class="node"><title>Node4</title>
<g id="a_node4"><a xlink:href="a25823.html" target="_top" xlink:title=" ">
<polygon fill="none" stroke="black" points="350.086,-116.5 350.086,-239.5 515.086,-239.5 515.086,-116.5 350.086,-116.5"/>
<text text-anchor="start" x="358.086" y="-227.5" font-family="Helvetica,sans-Serif" font-size="10.00">SDK::TArray&lt; struct</text>
<text text-anchor="start" x="358.086" y="-216.5" font-family="Helvetica,sans-Serif" font-size="10.00"> SDK::FAISwimmingCreatureDead</text>
<text text-anchor="middle" x="432.586" y="-205.5" font-family="Helvetica,sans-Serif" font-size="10.00">ActionStateEventMapItem &gt;</text>
<polyline fill="none" stroke="black" points="350.086,-198.5 515.086,-198.5 "/>
<text text-anchor="middle" x="432.586" y="-186.5" font-family="Helvetica,sans-Serif" font-size="10.00"> </text>
<polyline fill="none" stroke="black" points="350.086,-179.5 515.086,-179.5 "/>
<text text-anchor="start" x="358.086" y="-167.5" font-family="Helvetica,sans-Serif" font-size="10.00">+ TArray()</text>
<text text-anchor="start" x="358.086" y="-156.5" font-family="Helvetica,sans-Serif" font-size="10.00">+ Num()</text>
<text text-anchor="start" x="358.086" y="-145.5" font-family="Helvetica,sans-Serif" font-size="10.00">+ operator[]()</text>
<text text-anchor="start" x="358.086" y="-134.5" font-family="Helvetica,sans-Serif" font-size="10.00">+ operator[]()</text>
<text text-anchor="start" x="358.086" y="-123.5" font-family="Helvetica,sans-Serif" font-size="10.00">+ IsValidIndex()</text>
</a>
</g>
</g>
<!-- Node4&#45;&gt;Node1 -->
<g id="edge3" class="edge"><title>Node4&#45;&gt;Node1</title>
<path fill="none" stroke="#404040" d="M354.181,-116.375C336.587,-102.772 318.334,-88.6577 302.096,-76.102"/>
<polygon fill="none" stroke="#404040" points="301.763,-75.8446 294.569,-75.3388 292.27,-68.5042 299.463,-69.01 301.763,-75.8446"/>
<text text-anchor="middle" x="367.086" y="-90" font-family="Helvetica,sans-Serif" font-size="10.00"> +CustomEvents</text>
</g>
</g>
</svg>
