<?xml version="1.0" encoding="UTF-8" standalone="no"?>
<!DOCTYPE svg PUBLIC "-//W3C//DTD SVG 1.1//EN"
 "http://www.w3.org/Graphics/SVG/1.1/DTD/svg11.dtd">
<!-- Generated by graphviz version 2.38.0 (20140413.2041)
 -->
<!-- Title: SDK::FSharkMaterialEntry Pages: 1 -->
<svg width="299pt" height="171pt"
 viewBox="0.00 0.00 298.50 171.00" xmlns="http://www.w3.org/2000/svg" xmlns:xlink="http://www.w3.org/1999/xlink">
<g id="graph0" class="graph" transform="scale(1 1) rotate(0) translate(4 167)">
<title>SDK::FSharkMaterialEntry</title>
<!-- Node1 -->
<g id="node1" class="node"><title>Node1</title>
<g id="a_node1"><a xlink:title=" ">
<polygon fill="#bfbfbf" stroke="black" points="58.5,-0.5 58.5,-57.5 190.5,-57.5 190.5,-0.5 58.5,-0.5"/>
<text text-anchor="middle" x="124.5" y="-45.5" font-family="Helvetica,sans-Serif" font-size="10.00">SDK::FSharkMaterialEntry</text>
<polyline fill="none" stroke="black" points="58.5,-38.5 190.5,-38.5 "/>
<text text-anchor="middle" x="124.5" y="-26.5" font-family="Helvetica,sans-Serif" font-size="10.00"> </text>
<polyline fill="none" stroke="black" points="58.5,-19.5 190.5,-19.5 "/>
<text text-anchor="middle" x="124.5" y="-7.5" font-family="Helvetica,sans-Serif" font-size="10.00"> </text>
</a>
</g>
</g>
<!-- Node2 -->
<g id="node2" class="node"><title>Node2</title>
<g id="a_node2"><a xlink:title=" ">
<polygon fill="none" stroke="#bfbfbf" points="0,-105.5 0,-162.5 35,-162.5 35,-105.5 0,-105.5"/>
<text text-anchor="middle" x="17.5" y="-150.5" font-family="Helvetica,sans-Serif" font-size="10.00">char</text>
<polyline fill="none" stroke="#bfbfbf" points="0,-143.5 35,-143.5 "/>
<text text-anchor="middle" x="17.5" y="-131.5" font-family="Helvetica,sans-Serif" font-size="10.00"> </text>
<polyline fill="none" stroke="#bfbfbf" points="0,-124.5 35,-124.5 "/>
<text text-anchor="middle" x="17.5" y="-112.5" font-family="Helvetica,sans-Serif" font-size="10.00"> </text>
</a>
</g>
</g>
<!-- Node2&#45;&gt;Node1 -->
<g id="edge1" class="edge"><title>Node2&#45;&gt;Node1</title>
<path fill="none" stroke="#404040" d="M24.3985,-105.351C27.9485,-95.2571 33.1268,-84.2946 40.5,-76 44.0763,-71.9768 48.0915,-68.2355 52.3773,-64.7691"/>
<polygon fill="none" stroke="#404040" points="52.4512,-64.715 54.9231,-57.9407 62.127,-57.6171 59.655,-64.3913 52.4512,-64.715"/>
<text text-anchor="middle" x="80.5" y="-79" font-family="Helvetica,sans-Serif" font-size="10.00"> +UnknownData00</text>
</g>
<!-- Node3 -->
<g id="node3" class="node"><title>Node3</title>
<g id="a_node3"><a xlink:href="a26419.html" target="_top" xlink:title=" ">
<polygon fill="none" stroke="red" points="53,-105.5 53,-162.5 196,-162.5 196,-105.5 53,-105.5"/>
<text text-anchor="middle" x="124.5" y="-150.5" font-family="Helvetica,sans-Serif" font-size="10.00">SDK::FStringAssetReference</text>
<polyline fill="none" stroke="red" points="53,-143.5 196,-143.5 "/>
<text text-anchor="middle" x="124.5" y="-131.5" font-family="Helvetica,sans-Serif" font-size="10.00"> </text>
<polyline fill="none" stroke="red" points="53,-124.5 196,-124.5 "/>
<text text-anchor="middle" x="124.5" y="-112.5" font-family="Helvetica,sans-Serif" font-size="10.00"> </text>
</a>
</g>
</g>
<!-- Node3&#45;&gt;Node1 -->
<g id="edge2" class="edge"><title>Node3&#45;&gt;Node1</title>
<path fill="none" stroke="#404040" d="M124.5,-105.398C124.5,-94.5451 124.5,-81.8731 124.5,-70.0493"/>
<polygon fill="none" stroke="#404040" points="124.5,-69.6783 120.5,-63.6783 124.5,-57.6783 128.5,-63.6783 124.5,-69.6783"/>
<text text-anchor="middle" x="168.5" y="-79" font-family="Helvetica,sans-Serif" font-size="10.00"> +MaterialReference</text>
</g>
<!-- Node6 -->
<g id="node4" class="node"><title>Node6</title>
<g id="a_node4"><a xlink:title=" ">
<polygon fill="none" stroke="#bfbfbf" points="218,-105.5 218,-162.5 253,-162.5 253,-105.5 218,-105.5"/>
<text text-anchor="middle" x="235.5" y="-150.5" font-family="Helvetica,sans-Serif" font-size="10.00">bool</text>
<polyline fill="none" stroke="#bfbfbf" points="218,-143.5 253,-143.5 "/>
<text text-anchor="middle" x="235.5" y="-131.5" font-family="Helvetica,sans-Serif" font-size="10.00"> </text>
<polyline fill="none" stroke="#bfbfbf" points="218,-124.5 253,-124.5 "/>
<text text-anchor="middle" x="235.5" y="-112.5" font-family="Helvetica,sans-Serif" font-size="10.00"> </text>
</a>
</g>
</g>
<!-- Node6&#45;&gt;Node1 -->
<g id="edge3" class="edge"><title>Node6&#45;&gt;Node1</title>
<path fill="none" stroke="#404040" d="M229.232,-105.264C225.877,-95.1599 220.865,-84.2127 213.5,-76 209.639,-71.6945 205.279,-67.7315 200.616,-64.0945"/>
<polygon fill="none" stroke="#404040" points="200.484,-64.0013 193.275,-63.8097 190.679,-57.082 197.888,-57.2735 200.484,-64.0013"/>
<text text-anchor="middle" x="255.5" y="-79" font-family="Helvetica,sans-Serif" font-size="10.00"> +CastShadows</text>
</g>
</g>
</svg>
