<?xml version="1.0" encoding="UTF-8" standalone="no"?>
<!DOCTYPE svg PUBLIC "-//W3C//DTD SVG 1.1//EN"
 "http://www.w3.org/Graphics/SVG/1.1/DTD/svg11.dtd">
<!-- Generated by graphviz version 2.38.0 (20140413.2041)
 -->
<!-- Title: SDK::FStaggerModifiersEntry Pages: 1 -->
<svg width="666pt" height="259pt"
 viewBox="0.00 0.00 666.00 259.00" xmlns="http://www.w3.org/2000/svg" xmlns:xlink="http://www.w3.org/1999/xlink">
<g id="graph0" class="graph" transform="scale(1 1) rotate(0) translate(4 255)">
<title>SDK::FStaggerModifiersEntry</title>
<!-- Node1 -->
<g id="node1" class="node"><title>Node1</title>
<g id="a_node1"><a xlink:title=" ">
<polygon fill="#bfbfbf" stroke="black" points="198.5,-0.5 198.5,-57.5 343.5,-57.5 343.5,-0.5 198.5,-0.5"/>
<text text-anchor="middle" x="271" y="-45.5" font-family="Helvetica,sans-Serif" font-size="10.00">SDK::FStaggerModifiersEntry</text>
<polyline fill="none" stroke="black" points="198.5,-38.5 343.5,-38.5 "/>
<text text-anchor="middle" x="271" y="-26.5" font-family="Helvetica,sans-Serif" font-size="10.00"> </text>
<polyline fill="none" stroke="black" points="198.5,-19.5 343.5,-19.5 "/>
<text text-anchor="middle" x="271" y="-7.5" font-family="Helvetica,sans-Serif" font-size="10.00"> </text>
</a>
</g>
</g>
<!-- Node2 -->
<g id="node2" class="node"><title>Node2</title>
<g id="a_node2"><a xlink:href="a15511.html" target="_top" xlink:title=" ">
<polygon fill="none" stroke="red" points="0,-160.5 0,-217.5 122,-217.5 122,-160.5 0,-160.5"/>
<text text-anchor="middle" x="61" y="-205.5" font-family="Helvetica,sans-Serif" font-size="10.00">SDK::FStaggerModifiers</text>
<polyline fill="none" stroke="red" points="0,-198.5 122,-198.5 "/>
<text text-anchor="middle" x="61" y="-186.5" font-family="Helvetica,sans-Serif" font-size="10.00"> </text>
<polyline fill="none" stroke="red" points="0,-179.5 122,-179.5 "/>
<text text-anchor="middle" x="61" y="-167.5" font-family="Helvetica,sans-Serif" font-size="10.00"> </text>
</a>
</g>
</g>
<!-- Node2&#45;&gt;Node1 -->
<g id="edge1" class="edge"><title>Node2&#45;&gt;Node1</title>
<path fill="none" stroke="#404040" d="M68.3415,-160.072C76.4287,-134.639 91.8815,-97.8232 118,-76 137.389,-59.7993 162.352,-49.3037 186.468,-42.5044"/>
<polygon fill="none" stroke="#404040" points="186.595,-42.4713 191.397,-37.0914 198.21,-39.4546 193.408,-44.8345 186.595,-42.4713"/>
<text text-anchor="middle" x="142.5" y="-90" font-family="Helvetica,sans-Serif" font-size="10.00"> +Modifiers</text>
</g>
<!-- Node4 -->
<g id="node3" class="node"><title>Node4</title>
<g id="a_node3"><a xlink:title=" ">
<polygon fill="none" stroke="#bfbfbf" points="140.5,-160.5 140.5,-217.5 175.5,-217.5 175.5,-160.5 140.5,-160.5"/>
<text text-anchor="middle" x="158" y="-205.5" font-family="Helvetica,sans-Serif" font-size="10.00">char</text>
<polyline fill="none" stroke="#bfbfbf" points="140.5,-198.5 175.5,-198.5 "/>
<text text-anchor="middle" x="158" y="-186.5" font-family="Helvetica,sans-Serif" font-size="10.00"> </text>
<polyline fill="none" stroke="#bfbfbf" points="140.5,-179.5 175.5,-179.5 "/>
<text text-anchor="middle" x="158" y="-167.5" font-family="Helvetica,sans-Serif" font-size="10.00"> </text>
</a>
</g>
</g>
<!-- Node4&#45;&gt;Node1 -->
<g id="edge2" class="edge"><title>Node4&#45;&gt;Node1</title>
<path fill="none" stroke="#404040" d="M159.092,-160.451C161.362,-135.979 167.997,-100.406 187,-76 189.961,-72.1975 193.328,-68.6664 196.971,-65.394"/>
<polygon fill="none" stroke="#404040" points="197.137,-65.2619 199.338,-58.3949 206.523,-57.7852 204.322,-64.6523 197.137,-65.2619"/>
<text text-anchor="middle" x="227" y="-101" font-family="Helvetica,sans-Serif" font-size="10.00"> +UnknownData01</text>
<text text-anchor="middle" x="227" y="-90" font-family="Helvetica,sans-Serif" font-size="10.00">+UnknownData02</text>
<text text-anchor="middle" x="227" y="-79" font-family="Helvetica,sans-Serif" font-size="10.00">+UnknownData00</text>
</g>
<!-- Node5 -->
<g id="node4" class="node"><title>Node5</title>
<g id="a_node4"><a xlink:href="a25847.html" target="_top" xlink:title=" ">
<polygon fill="none" stroke="black" points="193.5,-127.5 193.5,-250.5 348.5,-250.5 348.5,-127.5 193.5,-127.5"/>
<text text-anchor="start" x="201.5" y="-238.5" font-family="Helvetica,sans-Serif" font-size="10.00">SDK::TEnumAsByte&lt; EStagger</text>
<text text-anchor="middle" x="271" y="-227.5" font-family="Helvetica,sans-Serif" font-size="10.00">Reason &gt;</text>
<polyline fill="none" stroke="black" points="193.5,-220.5 348.5,-220.5 "/>
<text text-anchor="middle" x="271" y="-208.5" font-family="Helvetica,sans-Serif" font-size="10.00"> </text>
<polyline fill="none" stroke="black" points="193.5,-201.5 348.5,-201.5 "/>
<text text-anchor="start" x="201.5" y="-189.5" font-family="Helvetica,sans-Serif" font-size="10.00">+ TEnumAsByte()</text>
<text text-anchor="start" x="201.5" y="-178.5" font-family="Helvetica,sans-Serif" font-size="10.00">+ TEnumAsByte()</text>
<text text-anchor="start" x="201.5" y="-167.5" font-family="Helvetica,sans-Serif" font-size="10.00">+ TEnumAsByte()</text>
<text text-anchor="start" x="201.5" y="-156.5" font-family="Helvetica,sans-Serif" font-size="10.00">+ TEnumAsByte()</text>
<text text-anchor="start" x="201.5" y="-145.5" font-family="Helvetica,sans-Serif" font-size="10.00">+ operator EStaggerReason()</text>
<text text-anchor="start" x="201.5" y="-134.5" font-family="Helvetica,sans-Serif" font-size="10.00">+ GetValue()</text>
</a>
</g>
</g>
<!-- Node5&#45;&gt;Node1 -->
<g id="edge3" class="edge"><title>Node5&#45;&gt;Node1</title>
<path fill="none" stroke="#404040" d="M271,-127.365C271,-108.037 271,-87.1569 271,-69.7077"/>
<polygon fill="none" stroke="#404040" points="271,-69.6797 267,-63.6797 271,-57.6797 275,-63.6796 271,-69.6797"/>
<text text-anchor="middle" x="312" y="-90" font-family="Helvetica,sans-Serif" font-size="10.00"> +StaggerToModify</text>
</g>
<!-- Node6 -->
<g id="node5" class="node"><title>Node6</title>
<g id="a_node5"><a xlink:href="a25823.html" target="_top" xlink:title=" ">
<polygon fill="none" stroke="black" points="366.5,-133 366.5,-245 515.5,-245 515.5,-133 366.5,-133"/>
<text text-anchor="start" x="374.5" y="-233" font-family="Helvetica,sans-Serif" font-size="10.00">SDK::TArray&lt; SDK::TEnumAs</text>
<text text-anchor="middle" x="441" y="-222" font-family="Helvetica,sans-Serif" font-size="10.00">Byte&lt; EStaggerReason &gt; &gt;</text>
<polyline fill="none" stroke="black" points="366.5,-215 515.5,-215 "/>
<text text-anchor="middle" x="441" y="-203" font-family="Helvetica,sans-Serif" font-size="10.00"> </text>
<polyline fill="none" stroke="black" points="366.5,-196 515.5,-196 "/>
<text text-anchor="start" x="374.5" y="-184" font-family="Helvetica,sans-Serif" font-size="10.00">+ TArray()</text>
<text text-anchor="start" x="374.5" y="-173" font-family="Helvetica,sans-Serif" font-size="10.00">+ Num()</text>
<text text-anchor="start" x="374.5" y="-162" font-family="Helvetica,sans-Serif" font-size="10.00">+ operator[]()</text>
<text text-anchor="start" x="374.5" y="-151" font-family="Helvetica,sans-Serif" font-size="10.00">+ operator[]()</text>
<text text-anchor="start" x="374.5" y="-140" font-family="Helvetica,sans-Serif" font-size="10.00">+ IsValidIndex()</text>
</a>
</g>
</g>
<!-- Node6&#45;&gt;Node1 -->
<g id="edge4" class="edge"><title>Node6&#45;&gt;Node1</title>
<path fill="none" stroke="#404040" d="M407.007,-132.987C393.138,-113.412 375.906,-92.2247 357,-76 352.101,-71.7959 346.754,-67.8238 341.201,-64.1078"/>
<polygon fill="none" stroke="#404040" points="341.187,-64.0991 333.978,-64.284 331.035,-57.7008 338.244,-57.5159 341.187,-64.0991"/>
<text text-anchor="middle" x="461.5" y="-90" font-family="Helvetica,sans-Serif" font-size="10.00"> +StaggersThatCancelThisModifier</text>
</g>
<!-- Node7 -->
<g id="node6" class="node"><title>Node7</title>
<g id="a_node6"><a xlink:title=" ">
<polygon fill="none" stroke="#bfbfbf" points="564.5,-160.5 564.5,-217.5 599.5,-217.5 599.5,-160.5 564.5,-160.5"/>
<text text-anchor="middle" x="582" y="-205.5" font-family="Helvetica,sans-Serif" font-size="10.00">bool</text>
<polyline fill="none" stroke="#bfbfbf" points="564.5,-198.5 599.5,-198.5 "/>
<text text-anchor="middle" x="582" y="-186.5" font-family="Helvetica,sans-Serif" font-size="10.00"> </text>
<polyline fill="none" stroke="#bfbfbf" points="564.5,-179.5 599.5,-179.5 "/>
<text text-anchor="middle" x="582" y="-167.5" font-family="Helvetica,sans-Serif" font-size="10.00"> </text>
</a>
</g>
</g>
<!-- Node7&#45;&gt;Node1 -->
<g id="edge5" class="edge"><title>Node7&#45;&gt;Node1</title>
<path fill="none" stroke="#404040" d="M579.29,-160.025C575.234,-134.19 565.131,-96.7709 540,-76 512.439,-53.2204 423.866,-41.3116 355.807,-35.3736"/>
<polygon fill="none" stroke="#404040" points="355.746,-35.3686 349.433,-38.8541 343.788,-34.3676 350.101,-30.882 355.746,-35.3686"/>
<text text-anchor="middle" x="611" y="-90" font-family="Helvetica,sans-Serif" font-size="10.00"> +OnlyWhenSprinting</text>
</g>
</g>
</svg>
