<?xml version="1.0" encoding="UTF-8" standalone="no"?>
<!DOCTYPE svg PUBLIC "-//W3C//DTD SVG 1.1//EN"
 "http://www.w3.org/Graphics/SVG/1.1/DTD/svg11.dtd">
<!-- Generated by graphviz version 2.38.0 (20140413.2041)
 -->
<!-- Title: SDK::FMigrationActionPair Pages: 1 -->
<svg width="300pt" height="171pt"
 viewBox="0.00 0.00 299.50 171.00" xmlns="http://www.w3.org/2000/svg" xmlns:xlink="http://www.w3.org/1999/xlink">
<g id="graph0" class="graph" transform="scale(1 1) rotate(0) translate(4 167)">
<title>SDK::FMigrationActionPair</title>
<!-- Node1 -->
<g id="node1" class="node"><title>Node1</title>
<g id="a_node1"><a xlink:title=" ">
<polygon fill="#bfbfbf" stroke="black" points="79,-0.5 79,-57.5 213,-57.5 213,-0.5 79,-0.5"/>
<text text-anchor="middle" x="146" y="-45.5" font-family="Helvetica,sans-Serif" font-size="10.00">SDK::FMigrationActionPair</text>
<polyline fill="none" stroke="black" points="79,-38.5 213,-38.5 "/>
<text text-anchor="middle" x="146" y="-26.5" font-family="Helvetica,sans-Serif" font-size="10.00"> </text>
<polyline fill="none" stroke="black" points="79,-19.5 213,-19.5 "/>
<text text-anchor="middle" x="146" y="-7.5" font-family="Helvetica,sans-Serif" font-size="10.00"> </text>
</a>
</g>
</g>
<!-- Node2 -->
<g id="node2" class="node"><title>Node2</title>
<g id="a_node2"><a xlink:href="a15551.html" target="_top" xlink:title=" ">
<polygon fill="none" stroke="red" points="0,-105.5 0,-162.5 138,-162.5 138,-105.5 0,-105.5"/>
<text text-anchor="middle" x="69" y="-150.5" font-family="Helvetica,sans-Serif" font-size="10.00">SDK::FTaleResourceHandle</text>
<polyline fill="none" stroke="red" points="0,-143.5 138,-143.5 "/>
<text text-anchor="middle" x="69" y="-131.5" font-family="Helvetica,sans-Serif" font-size="10.00"> </text>
<polyline fill="none" stroke="red" points="0,-124.5 138,-124.5 "/>
<text text-anchor="middle" x="69" y="-112.5" font-family="Helvetica,sans-Serif" font-size="10.00"> </text>
</a>
</g>
</g>
<!-- Node2&#45;&gt;Node1 -->
<g id="edge1" class="edge"><title>Node2&#45;&gt;Node1</title>
<path fill="none" stroke="#404040" d="M70.6547,-105.295C72.2813,-95.4214 75.3367,-84.6213 81,-76 83.3091,-72.4849 85.9873,-69.1555 88.9143,-66.0176"/>
<polygon fill="none" stroke="#404040" points="89.0048,-65.932 90.6144,-58.9028 97.722,-57.6851 96.1123,-64.7143 89.0048,-65.932"/>
<text text-anchor="middle" x="141.5" y="-79" font-family="Helvetica,sans-Serif" font-size="10.00"> +AllocatedResourceHandle</text>
</g>
<!-- Node4 -->
<g id="node3" class="node"><title>Node4</title>
<g id="a_node3"><a xlink:href="a08639.html" target="_top" xlink:title=" ">
<polygon fill="none" stroke="red" points="156.5,-105.5 156.5,-162.5 291.5,-162.5 291.5,-105.5 156.5,-105.5"/>
<text text-anchor="middle" x="224" y="-150.5" font-family="Helvetica,sans-Serif" font-size="10.00">SDK::UTaleMigrationAction</text>
<polyline fill="none" stroke="red" points="156.5,-143.5 291.5,-143.5 "/>
<text text-anchor="middle" x="224" y="-131.5" font-family="Helvetica,sans-Serif" font-size="10.00"> </text>
<polyline fill="none" stroke="red" points="156.5,-124.5 291.5,-124.5 "/>
<text text-anchor="start" x="164.5" y="-112.5" font-family="Helvetica,sans-Serif" font-size="10.00">+ StaticClass()</text>
</a>
</g>
</g>
<!-- Node4&#45;&gt;Node1 -->
<g id="edge2" class="edge"><title>Node4&#45;&gt;Node1</title>
<path fill="none" stroke="#404040" d="M216.574,-105.456C213.117,-95.5997 208.337,-84.7695 202,-76 199.53,-72.5821 196.747,-69.2707 193.776,-66.0965"/>
<polygon fill="none" stroke="#404040" points="193.594,-65.9191 186.506,-64.5927 185.004,-57.5397 192.092,-58.8661 193.594,-65.9191"/>
<text text-anchor="middle" x="247.5" y="-79" font-family="Helvetica,sans-Serif" font-size="10.00"> +MigrationAction</text>
</g>
</g>
</svg>
