<?xml version="1.0" encoding="UTF-8" standalone="no"?>
<!DOCTYPE svg PUBLIC "-//W3C//DTD SVG 1.1//EN"
 "http://www.w3.org/Graphics/SVG/1.1/DTD/svg11.dtd">
<!-- Generated by graphviz version 2.38.0 (20140413.2041)
 -->
<!-- Title: SDK::FVomitSFX Pages: 1 -->
<svg width="414pt" height="353pt"
 viewBox="0.00 0.00 413.74 353.00" xmlns="http://www.w3.org/2000/svg" xmlns:xlink="http://www.w3.org/1999/xlink">
<g id="graph0" class="graph" transform="scale(1 1) rotate(0) translate(4 349)">
<title>SDK::FVomitSFX</title>
<!-- Node1 -->
<g id="node1" class="node"><title>Node1</title>
<g id="a_node1"><a xlink:title=" ">
<polygon fill="#bfbfbf" stroke="black" points="119.74,-0.5 119.74,-57.5 211.74,-57.5 211.74,-0.5 119.74,-0.5"/>
<text text-anchor="middle" x="165.74" y="-45.5" font-family="Helvetica,sans-Serif" font-size="10.00">SDK::FVomitSFX</text>
<polyline fill="none" stroke="black" points="119.74,-38.5 211.74,-38.5 "/>
<text text-anchor="middle" x="165.74" y="-26.5" font-family="Helvetica,sans-Serif" font-size="10.00"> </text>
<polyline fill="none" stroke="black" points="119.74,-19.5 211.74,-19.5 "/>
<text text-anchor="middle" x="165.74" y="-7.5" font-family="Helvetica,sans-Serif" font-size="10.00"> </text>
</a>
</g>
</g>
<!-- Node2 -->
<g id="node2" class="node"><title>Node2</title>
<g id="a_node2"><a xlink:href="a36295.html" target="_top" xlink:title=" ">
<polygon fill="none" stroke="red" points="107.74,-116.5 107.74,-228.5 223.74,-228.5 223.74,-116.5 107.74,-116.5"/>
<text text-anchor="middle" x="165.74" y="-216.5" font-family="Helvetica,sans-Serif" font-size="10.00">SDK::UWwiseEvent</text>
<polyline fill="none" stroke="red" points="107.74,-209.5 223.74,-209.5 "/>
<text text-anchor="middle" x="165.74" y="-197.5" font-family="Helvetica,sans-Serif" font-size="10.00"> </text>
<polyline fill="none" stroke="red" points="107.74,-190.5 223.74,-190.5 "/>
<text text-anchor="start" x="115.74" y="-178.5" font-family="Helvetica,sans-Serif" font-size="10.00">+ IsAudible()</text>
<text text-anchor="start" x="115.74" y="-167.5" font-family="Helvetica,sans-Serif" font-size="10.00">+ GetMaxAttenuation()</text>
<text text-anchor="start" x="115.74" y="-156.5" font-family="Helvetica,sans-Serif" font-size="10.00">+ GetDurationType()</text>
<text text-anchor="start" x="115.74" y="-145.5" font-family="Helvetica,sans-Serif" font-size="10.00">+ GetDurationMin()</text>
<text text-anchor="start" x="115.74" y="-134.5" font-family="Helvetica,sans-Serif" font-size="10.00">+ GetDurationMax()</text>
<text text-anchor="start" x="115.74" y="-123.5" font-family="Helvetica,sans-Serif" font-size="10.00">+ StaticClass()</text>
</a>
</g>
</g>
<!-- Node2&#45;&gt;Node1 -->
<g id="edge1" class="edge"><title>Node2&#45;&gt;Node1</title>
<path fill="none" stroke="#404040" d="M165.74,-116.387C165.74,-100.782 165.74,-84.1094 165.74,-69.6144"/>
<polygon fill="none" stroke="#404040" points="165.74,-69.5187 161.74,-63.5187 165.74,-57.5187 169.74,-63.5186 165.74,-69.5187"/>
<text text-anchor="middle" x="221.74" y="-90" font-family="Helvetica,sans-Serif" font-size="10.00"> +VomitInBucketSfxEvent</text>
<text text-anchor="middle" x="221.74" y="-79" font-family="Helvetica,sans-Serif" font-size="10.00">+VomitSfxEvent</text>
</g>
<!-- Node12 -->
<g id="node3" class="node"><title>Node12</title>
<g id="a_node3"><a xlink:title=" ">
<polygon fill="none" stroke="#bfbfbf" points="148.24,-287.5 148.24,-344.5 183.24,-344.5 183.24,-287.5 148.24,-287.5"/>
<text text-anchor="middle" x="165.74" y="-332.5" font-family="Helvetica,sans-Serif" font-size="10.00">char</text>
<polyline fill="none" stroke="#bfbfbf" points="148.24,-325.5 183.24,-325.5 "/>
<text text-anchor="middle" x="165.74" y="-313.5" font-family="Helvetica,sans-Serif" font-size="10.00"> </text>
<polyline fill="none" stroke="#bfbfbf" points="148.24,-306.5 183.24,-306.5 "/>
<text text-anchor="middle" x="165.74" y="-294.5" font-family="Helvetica,sans-Serif" font-size="10.00"> </text>
</a>
</g>
</g>
<!-- Node12&#45;&gt;Node1 -->
<g id="edge3" class="edge"><title>Node12&#45;&gt;Node1</title>
<path fill="none" stroke="#404040" d="M148.066,-310.796C115.549,-301.998 46.983,-278.245 18.7396,-229 -6.24653,-185.434 -6.24653,-159.566 18.7396,-116 37.9512,-82.5026 75.8198,-60.8006 108.309,-47.5771"/>
<polygon fill="none" stroke="#404040" points="108.341,-47.565 112.5,-41.6742 119.537,-43.2479 115.378,-49.1386 108.341,-47.565"/>
<text text-anchor="middle" x="58.7396" y="-170" font-family="Helvetica,sans-Serif" font-size="10.00"> +UnknownData00</text>
</g>
<!-- Node12&#45;&gt;Node2 -->
<g id="edge2" class="edge"><title>Node12&#45;&gt;Node2</title>
<path fill="none" stroke="#404040" d="M165.74,-287.381C165.74,-274.051 165.74,-257.416 165.74,-241.014"/>
<polygon fill="none" stroke="#404040" points="165.74,-240.575 161.74,-234.575 165.74,-228.575 169.74,-234.575 165.74,-240.575"/>
<text text-anchor="middle" x="205.74" y="-261" font-family="Helvetica,sans-Serif" font-size="10.00"> +UnknownData01</text>
<text text-anchor="middle" x="205.74" y="-250" font-family="Helvetica,sans-Serif" font-size="10.00">+UnknownData00</text>
</g>
<!-- Node21 -->
<g id="node4" class="node"><title>Node21</title>
<g id="a_node4"><a xlink:href="a34387.html" target="_top" xlink:title=" ">
<polygon fill="none" stroke="red" points="241.74,-144 241.74,-201 405.74,-201 405.74,-144 241.74,-144"/>
<text text-anchor="middle" x="323.74" y="-189" font-family="Helvetica,sans-Serif" font-size="10.00">SDK::UWwiseObjectPoolWrapper</text>
<polyline fill="none" stroke="red" points="241.74,-182 405.74,-182 "/>
<text text-anchor="middle" x="323.74" y="-170" font-family="Helvetica,sans-Serif" font-size="10.00"> </text>
<polyline fill="none" stroke="red" points="241.74,-163 405.74,-163 "/>
<text text-anchor="start" x="249.74" y="-151" font-family="Helvetica,sans-Serif" font-size="10.00">+ StaticClass()</text>
</a>
</g>
</g>
<!-- Node12&#45;&gt;Node21 -->
<g id="edge5" class="edge"><title>Node12&#45;&gt;Node21</title>
<path fill="none" stroke="#404040" d="M183.444,-307.875C201.401,-300.089 229.374,-286.374 249.74,-269 269.127,-252.46 286.781,-230.109 299.979,-211.187"/>
<polygon fill="none" stroke="#404040" points="300.095,-211.016 300.156,-203.805 306.835,-201.087 306.775,-208.298 300.095,-211.016"/>
<text text-anchor="middle" x="310.74" y="-261" font-family="Helvetica,sans-Serif" font-size="10.00"> +UnknownData01</text>
<text text-anchor="middle" x="310.74" y="-250" font-family="Helvetica,sans-Serif" font-size="10.00">+UnknownData00</text>
</g>
<!-- Node21&#45;&gt;Node1 -->
<g id="edge4" class="edge"><title>Node21&#45;&gt;Node1</title>
<path fill="none" stroke="#404040" d="M317.686,-143.921C311.763,-122.833 300.779,-94.3516 281.74,-76 265.692,-60.5322 243.808,-50.0674 223.37,-43.0827"/>
<polygon fill="none" stroke="#404040" points="223.329,-43.0698 216.403,-45.0771 211.886,-39.4558 218.813,-37.4485 223.329,-43.0698"/>
<text text-anchor="middle" x="331.24" y="-84.5" font-family="Helvetica,sans-Serif" font-size="10.00"> +VomitSfxPool</text>
</g>
</g>
</svg>
