<?xml version="1.0" encoding="UTF-8" standalone="no"?>
<!DOCTYPE svg PUBLIC "-//W3C//DTD SVG 1.1//EN"
 "http://www.w3.org/Graphics/SVG/1.1/DTD/svg11.dtd">
<!-- Generated by graphviz version 2.38.0 (20140413.2041)
 -->
<!-- Title: SDK::FTutorialStep Pages: 1 -->
<svg width="1666pt" height="204pt"
 viewBox="0.00 0.00 1665.50 204.00" xmlns="http://www.w3.org/2000/svg" xmlns:xlink="http://www.w3.org/1999/xlink">
<g id="graph0" class="graph" transform="scale(1 1) rotate(0) translate(4 200)">
<title>SDK::FTutorialStep</title>
<!-- Node1 -->
<g id="node1" class="node"><title>Node1</title>
<g id="a_node1"><a xlink:title=" ">
<polygon fill="#bfbfbf" stroke="black" points="809.5,-116.5 809.5,-195.5 910.5,-195.5 910.5,-116.5 809.5,-116.5"/>
<text text-anchor="middle" x="860" y="-183.5" font-family="Helvetica,sans-Serif" font-size="10.00">SDK::FTutorialStep</text>
<polyline fill="none" stroke="black" points="809.5,-176.5 910.5,-176.5 "/>
<text text-anchor="start" x="817.5" y="-164.5" font-family="Helvetica,sans-Serif" font-size="10.00">+ UnknownData00</text>
<text text-anchor="start" x="817.5" y="-153.5" font-family="Helvetica,sans-Serif" font-size="10.00">+ Dependencies</text>
<text text-anchor="start" x="817.5" y="-142.5" font-family="Helvetica,sans-Serif" font-size="10.00">+ UnknownData01</text>
<polyline fill="none" stroke="black" points="809.5,-135.5 910.5,-135.5 "/>
<text text-anchor="middle" x="860" y="-123.5" font-family="Helvetica,sans-Serif" font-size="10.00"> </text>
</a>
</g>
</g>
<!-- Node2 -->
<g id="node2" class="node"><title>Node2</title>
<g id="a_node2"><a xlink:href="a15763.html" target="_top" xlink:title=" ">
<polygon fill="none" stroke="black" points="0,-11.5 0,-68.5 158,-68.5 158,-11.5 0,-11.5"/>
<text text-anchor="middle" x="79" y="-56.5" font-family="Helvetica,sans-Serif" font-size="10.00">SDK::FTutorialStepBeginTallTale</text>
<polyline fill="none" stroke="black" points="0,-49.5 158,-49.5 "/>
<text text-anchor="start" x="8" y="-37.5" font-family="Helvetica,sans-Serif" font-size="10.00">+ UnknownData00</text>
<polyline fill="none" stroke="black" points="0,-30.5 158,-30.5 "/>
<text text-anchor="middle" x="79" y="-18.5" font-family="Helvetica,sans-Serif" font-size="10.00"> </text>
</a>
</g>
</g>
<!-- Node1&#45;&gt;Node2 -->
<g id="edge1" class="edge"><title>Node1&#45;&gt;Node2</title>
<path fill="none" stroke="midnightblue" d="M799.194,-154.679C677.179,-152.676 394.688,-141.177 167,-80 156.187,-77.0947 145.006,-73.0388 134.391,-68.6336"/>
<polygon fill="none" stroke="midnightblue" points="799.398,-158.182 809.448,-154.831 799.501,-151.183 799.398,-158.182"/>
</g>
<!-- Node3 -->
<g id="node3" class="node"><title>Node3</title>
<g id="a_node3"><a xlink:href="a15755.html" target="_top" xlink:title=" ">
<polygon fill="none" stroke="black" points="176.5,-11.5 176.5,-68.5 327.5,-68.5 327.5,-11.5 176.5,-11.5"/>
<text text-anchor="middle" x="252" y="-56.5" font-family="Helvetica,sans-Serif" font-size="10.00">SDK::FTutorialStepBuyClothes</text>
<polyline fill="none" stroke="black" points="176.5,-49.5 327.5,-49.5 "/>
<text text-anchor="start" x="184.5" y="-37.5" font-family="Helvetica,sans-Serif" font-size="10.00">+ UnknownData00</text>
<polyline fill="none" stroke="black" points="176.5,-30.5 327.5,-30.5 "/>
<text text-anchor="middle" x="252" y="-18.5" font-family="Helvetica,sans-Serif" font-size="10.00"> </text>
</a>
</g>
</g>
<!-- Node1&#45;&gt;Node3 -->
<g id="edge2" class="edge"><title>Node1&#45;&gt;Node3</title>
<path fill="none" stroke="midnightblue" d="M799.366,-152.071C700.485,-146.028 499.164,-128.409 336,-80 325.827,-76.9816 315.315,-72.9274 305.317,-68.572"/>
<polygon fill="none" stroke="midnightblue" points="799.283,-155.572 809.472,-152.67 799.697,-148.585 799.283,-155.572"/>
</g>
<!-- Node4 -->
<g id="node4" class="node"><title>Node4</title>
<g id="a_node4"><a xlink:href="a15743.html" target="_top" xlink:title=" ">
<polygon fill="none" stroke="black" points="345.5,-11.5 345.5,-68.5 496.5,-68.5 496.5,-11.5 345.5,-11.5"/>
<text text-anchor="middle" x="421" y="-56.5" font-family="Helvetica,sans-Serif" font-size="10.00">SDK::FTutorialStepBuyVoyage</text>
<polyline fill="none" stroke="black" points="345.5,-49.5 496.5,-49.5 "/>
<text text-anchor="start" x="353.5" y="-37.5" font-family="Helvetica,sans-Serif" font-size="10.00">+ UnknownData00</text>
<polyline fill="none" stroke="black" points="345.5,-30.5 496.5,-30.5 "/>
<text text-anchor="middle" x="421" y="-18.5" font-family="Helvetica,sans-Serif" font-size="10.00"> </text>
</a>
</g>
</g>
<!-- Node1&#45;&gt;Node4 -->
<g id="edge3" class="edge"><title>Node1&#45;&gt;Node4</title>
<path fill="none" stroke="midnightblue" d="M799.182,-146.45C727.588,-135.407 605.685,-113.527 505,-80 495.389,-76.7998 485.422,-72.8128 475.855,-68.62"/>
<polygon fill="none" stroke="midnightblue" points="798.959,-149.956 809.371,-148 800.012,-143.036 798.959,-149.956"/>
</g>
<!-- Node5 -->
<g id="node5" class="node"><title>Node5</title>
<g id="a_node5"><a xlink:href="a15747.html" target="_top" xlink:title=" ">
<polygon fill="none" stroke="black" points="514.5,-11.5 514.5,-68.5 681.5,-68.5 681.5,-11.5 514.5,-11.5"/>
<text text-anchor="middle" x="598" y="-56.5" font-family="Helvetica,sans-Serif" font-size="10.00">SDK::FTutorialStepCycleWeapons</text>
<polyline fill="none" stroke="black" points="514.5,-49.5 681.5,-49.5 "/>
<text text-anchor="middle" x="598" y="-37.5" font-family="Helvetica,sans-Serif" font-size="10.00"> </text>
<polyline fill="none" stroke="black" points="514.5,-30.5 681.5,-30.5 "/>
<text text-anchor="middle" x="598" y="-18.5" font-family="Helvetica,sans-Serif" font-size="10.00"> </text>
</a>
</g>
</g>
<!-- Node1&#45;&gt;Node5 -->
<g id="edge4" class="edge"><title>Node1&#45;&gt;Node5</title>
<path fill="none" stroke="midnightblue" d="M800.055,-128.917C758.594,-110.877 703.518,-86.9123 661.339,-68.5599"/>
<polygon fill="none" stroke="midnightblue" points="798.918,-132.239 809.484,-133.02 801.711,-125.82 798.918,-132.239"/>
</g>
<!-- Node6 -->
<g id="node6" class="node"><title>Node6</title>
<g id="a_node6"><a xlink:href="a15735.html" target="_top" xlink:title=" ">
<polygon fill="none" stroke="black" points="699.5,-11.5 699.5,-68.5 848.5,-68.5 848.5,-11.5 699.5,-11.5"/>
<text text-anchor="middle" x="774" y="-56.5" font-family="Helvetica,sans-Serif" font-size="10.00">SDK::FTutorialStepEatBanana</text>
<polyline fill="none" stroke="black" points="699.5,-49.5 848.5,-49.5 "/>
<text text-anchor="start" x="707.5" y="-37.5" font-family="Helvetica,sans-Serif" font-size="10.00">+ UnknownData00</text>
<polyline fill="none" stroke="black" points="699.5,-30.5 848.5,-30.5 "/>
<text text-anchor="middle" x="774" y="-18.5" font-family="Helvetica,sans-Serif" font-size="10.00"> </text>
</a>
</g>
</g>
<!-- Node1&#45;&gt;Node6 -->
<g id="edge5" class="edge"><title>Node1&#45;&gt;Node6</title>
<path fill="none" stroke="midnightblue" d="M824.686,-108.189C814.577,-94.7882 803.882,-80.6109 794.935,-68.7509"/>
<polygon fill="none" stroke="midnightblue" points="822.068,-110.529 830.884,-116.405 827.656,-106.314 822.068,-110.529"/>
</g>
<!-- Node7 -->
<g id="node7" class="node"><title>Node7</title>
<g id="a_node7"><a xlink:href="a15767.html" target="_top" xlink:title=" ">
<polygon fill="none" stroke="black" points="866.5,-11.5 866.5,-68.5 1025.5,-68.5 1025.5,-11.5 866.5,-11.5"/>
<text text-anchor="middle" x="946" y="-56.5" font-family="Helvetica,sans-Serif" font-size="10.00">SDK::FTutorialStepEndOfTutorial</text>
<polyline fill="none" stroke="black" points="866.5,-49.5 1025.5,-49.5 "/>
<text text-anchor="middle" x="946" y="-37.5" font-family="Helvetica,sans-Serif" font-size="10.00"> </text>
<polyline fill="none" stroke="black" points="866.5,-30.5 1025.5,-30.5 "/>
<text text-anchor="middle" x="946" y="-18.5" font-family="Helvetica,sans-Serif" font-size="10.00"> </text>
</a>
</g>
</g>
<!-- Node1&#45;&gt;Node7 -->
<g id="edge6" class="edge"><title>Node1&#45;&gt;Node7</title>
<path fill="none" stroke="midnightblue" d="M895.314,-108.189C905.423,-94.7882 916.118,-80.6109 925.065,-68.7509"/>
<polygon fill="none" stroke="midnightblue" points="892.344,-106.314 889.116,-116.405 897.932,-110.529 892.344,-106.314"/>
</g>
<!-- Node8 -->
<g id="node8" class="node"><title>Node8</title>
<g id="a_node8"><a xlink:href="a15731.html" target="_top" xlink:title=" ">
<polygon fill="none" stroke="black" points="1043.5,-0.5 1043.5,-79.5 1182.5,-79.5 1182.5,-0.5 1043.5,-0.5"/>
<text text-anchor="start" x="1051.5" y="-67.5" font-family="Helvetica,sans-Serif" font-size="10.00">SDK::FTutorialStepPlayIntro</text>
<text text-anchor="middle" x="1113" y="-56.5" font-family="Helvetica,sans-Serif" font-size="10.00">Animatic</text>
<polyline fill="none" stroke="black" points="1043.5,-49.5 1182.5,-49.5 "/>
<text text-anchor="start" x="1051.5" y="-37.5" font-family="Helvetica,sans-Serif" font-size="10.00">+ AnimInstance</text>
<text text-anchor="start" x="1051.5" y="-26.5" font-family="Helvetica,sans-Serif" font-size="10.00">+ UnknownData00</text>
<polyline fill="none" stroke="black" points="1043.5,-19.5 1182.5,-19.5 "/>
<text text-anchor="middle" x="1113" y="-7.5" font-family="Helvetica,sans-Serif" font-size="10.00"> </text>
</a>
</g>
</g>
<!-- Node1&#45;&gt;Node8 -->
<g id="edge7" class="edge"><title>Node1&#45;&gt;Node8</title>
<path fill="none" stroke="midnightblue" d="M919.839,-130.38C953.825,-116.141 997.038,-97.6068 1035,-80 1037.75,-78.726 1040.54,-77.413 1043.36,-76.0749"/>
<polygon fill="none" stroke="midnightblue" points="918.388,-127.193 910.51,-134.278 921.086,-133.652 918.388,-127.193"/>
</g>
<!-- Node9 -->
<g id="node9" class="node"><title>Node9</title>
<g id="a_node9"><a xlink:href="a15759.html" target="_top" xlink:title=" ">
<polygon fill="none" stroke="black" points="1200.5,-6 1200.5,-74 1329.5,-74 1329.5,-6 1200.5,-6"/>
<text text-anchor="start" x="1208.5" y="-62" font-family="Helvetica,sans-Serif" font-size="10.00">SDK::FTutorialStepReturn</text>
<text text-anchor="middle" x="1265" y="-51" font-family="Helvetica,sans-Serif" font-size="10.00">ToStranger</text>
<polyline fill="none" stroke="black" points="1200.5,-44 1329.5,-44 "/>
<text text-anchor="start" x="1208.5" y="-32" font-family="Helvetica,sans-Serif" font-size="10.00">+ UnknownData00</text>
<polyline fill="none" stroke="black" points="1200.5,-25 1329.5,-25 "/>
<text text-anchor="middle" x="1265" y="-13" font-family="Helvetica,sans-Serif" font-size="10.00"> </text>
</a>
</g>
</g>
<!-- Node1&#45;&gt;Node9 -->
<g id="edge8" class="edge"><title>Node1&#45;&gt;Node9</title>
<path fill="none" stroke="midnightblue" d="M920.772,-146.302C988.439,-135.473 1100.35,-114.124 1192,-80 1196.71,-78.2452 1201.5,-76.2413 1206.26,-74.0891"/>
<polygon fill="none" stroke="midnightblue" points="920.043,-142.874 910.709,-147.887 921.132,-149.789 920.043,-142.874"/>
</g>
<!-- Node10 -->
<g id="node10" class="node"><title>Node10</title>
<g id="a_node10"><a xlink:href="a15751.html" target="_top" xlink:title=" ">
<polygon fill="none" stroke="black" points="1347.5,-0.5 1347.5,-79.5 1502.5,-79.5 1502.5,-0.5 1347.5,-0.5"/>
<text text-anchor="middle" x="1425" y="-67.5" font-family="Helvetica,sans-Serif" font-size="10.00">SDK::FTutorialStepSellTreasure</text>
<polyline fill="none" stroke="black" points="1347.5,-60.5 1502.5,-60.5 "/>
<text text-anchor="start" x="1355.5" y="-48.5" font-family="Helvetica,sans-Serif" font-size="10.00">+ UnknownData00</text>
<text text-anchor="start" x="1355.5" y="-37.5" font-family="Helvetica,sans-Serif" font-size="10.00">+ SpawnedChest</text>
<text text-anchor="start" x="1355.5" y="-26.5" font-family="Helvetica,sans-Serif" font-size="10.00">+ UnknownData01</text>
<polyline fill="none" stroke="black" points="1347.5,-19.5 1502.5,-19.5 "/>
<text text-anchor="middle" x="1425" y="-7.5" font-family="Helvetica,sans-Serif" font-size="10.00"> </text>
</a>
</g>
</g>
<!-- Node1&#45;&gt;Node10 -->
<g id="edge9" class="edge"><title>Node1&#45;&gt;Node10</title>
<path fill="none" stroke="midnightblue" d="M920.613,-150.784C1012.66,-143.212 1192.48,-123.81 1339,-80 1341.67,-79.2016 1344.36,-78.3373 1347.07,-77.4193"/>
<polygon fill="none" stroke="midnightblue" points="920.324,-147.296 910.637,-151.587 920.886,-154.274 920.324,-147.296"/>
</g>
<!-- Node11 -->
<g id="node11" class="node"><title>Node11</title>
<g id="a_node11"><a xlink:href="a15739.html" target="_top" xlink:title=" ">
<polygon fill="none" stroke="black" points="1520.5,-6 1520.5,-74 1657.5,-74 1657.5,-6 1520.5,-6"/>
<text text-anchor="middle" x="1589" y="-62" font-family="Helvetica,sans-Serif" font-size="10.00">SDK::FTutorialStepUseMap</text>
<polyline fill="none" stroke="black" points="1520.5,-55 1657.5,-55 "/>
<text text-anchor="start" x="1528.5" y="-43" font-family="Helvetica,sans-Serif" font-size="10.00">+ UnknownData00</text>
<text text-anchor="start" x="1528.5" y="-32" font-family="Helvetica,sans-Serif" font-size="10.00">+ TutorialMap</text>
<polyline fill="none" stroke="black" points="1520.5,-25 1657.5,-25 "/>
<text text-anchor="middle" x="1589" y="-13" font-family="Helvetica,sans-Serif" font-size="10.00"> </text>
</a>
</g>
</g>
<!-- Node1&#45;&gt;Node11 -->
<g id="edge10" class="edge"><title>Node1&#45;&gt;Node11</title>
<path fill="none" stroke="midnightblue" d="M920.891,-155.097C1037.96,-153.744 1301.46,-143.212 1512,-80 1517.45,-78.3626 1522.99,-76.3519 1528.45,-74.1149"/>
<polygon fill="none" stroke="midnightblue" points="920.663,-151.599 910.697,-155.195 920.73,-158.598 920.663,-151.599"/>
</g>
</g>
</svg>
