<?xml version="1.0" encoding="UTF-8" standalone="no"?>
<!DOCTYPE svg PUBLIC "-//W3C//DTD SVG 1.1//EN"
 "http://www.w3.org/Graphics/SVG/1.1/DTD/svg11.dtd">
<!-- Generated by graphviz version 2.38.0 (20140413.2041)
 -->
<!-- Title: SDK::FHealthRegenState Pages: 1 -->
<svg width="404pt" height="237pt"
 viewBox="0.00 0.00 403.50 237.00" xmlns="http://www.w3.org/2000/svg" xmlns:xlink="http://www.w3.org/1999/xlink">
<g id="graph0" class="graph" transform="scale(1 1) rotate(0) translate(4 233)">
<title>SDK::FHealthRegenState</title>
<!-- Node1 -->
<g id="node1" class="node"><title>Node1</title>
<g id="a_node1"><a xlink:title=" ">
<polygon fill="#bfbfbf" stroke="black" points="150.5,-0.5 150.5,-57.5 278.5,-57.5 278.5,-0.5 150.5,-0.5"/>
<text text-anchor="middle" x="214.5" y="-45.5" font-family="Helvetica,sans-Serif" font-size="10.00">SDK::FHealthRegenState</text>
<polyline fill="none" stroke="black" points="150.5,-38.5 278.5,-38.5 "/>
<text text-anchor="middle" x="214.5" y="-26.5" font-family="Helvetica,sans-Serif" font-size="10.00"> </text>
<polyline fill="none" stroke="black" points="150.5,-19.5 278.5,-19.5 "/>
<text text-anchor="middle" x="214.5" y="-7.5" font-family="Helvetica,sans-Serif" font-size="10.00"> </text>
</a>
</g>
</g>
<!-- Node2 -->
<g id="node2" class="node"><title>Node2</title>
<g id="a_node2"><a xlink:href="a25635.html" target="_top" xlink:title=" ">
<polygon fill="none" stroke="black" points="0,-105.5 0,-228.5 179,-228.5 179,-105.5 0,-105.5"/>
<text text-anchor="start" x="8" y="-216.5" font-family="Helvetica,sans-Serif" font-size="10.00">SDK::TEnumAsByte&lt; ERegeneration</text>
<text text-anchor="middle" x="89.5" y="-205.5" font-family="Helvetica,sans-Serif" font-size="10.00">State &gt;</text>
<polyline fill="none" stroke="black" points="0,-198.5 179,-198.5 "/>
<text text-anchor="middle" x="89.5" y="-186.5" font-family="Helvetica,sans-Serif" font-size="10.00"> </text>
<polyline fill="none" stroke="black" points="0,-179.5 179,-179.5 "/>
<text text-anchor="start" x="8" y="-167.5" font-family="Helvetica,sans-Serif" font-size="10.00">+ TEnumAsByte()</text>
<text text-anchor="start" x="8" y="-156.5" font-family="Helvetica,sans-Serif" font-size="10.00">+ TEnumAsByte()</text>
<text text-anchor="start" x="8" y="-145.5" font-family="Helvetica,sans-Serif" font-size="10.00">+ TEnumAsByte()</text>
<text text-anchor="start" x="8" y="-134.5" font-family="Helvetica,sans-Serif" font-size="10.00">+ TEnumAsByte()</text>
<text text-anchor="start" x="8" y="-123.5" font-family="Helvetica,sans-Serif" font-size="10.00">+ operator ERegenerationState()</text>
<text text-anchor="start" x="8" y="-112.5" font-family="Helvetica,sans-Serif" font-size="10.00">+ GetValue()</text>
</a>
</g>
</g>
<!-- Node2&#45;&gt;Node1 -->
<g id="edge1" class="edge"><title>Node2&#45;&gt;Node1</title>
<path fill="none" stroke="#404040" d="M145.419,-105.16C157.421,-92.1015 169.751,-78.6868 180.611,-66.8711"/>
<polygon fill="none" stroke="#404040" points="180.851,-66.6104 181.966,-59.4861 188.971,-57.7753 187.856,-64.8997 180.851,-66.6104"/>
<text text-anchor="middle" x="187" y="-79" font-family="Helvetica,sans-Serif" font-size="10.00"> +State</text>
</g>
<!-- Node3 -->
<g id="node3" class="node"><title>Node3</title>
<g id="a_node3"><a xlink:title=" ">
<polygon fill="none" stroke="#bfbfbf" points="197,-138.5 197,-195.5 232,-195.5 232,-138.5 197,-138.5"/>
<text text-anchor="middle" x="214.5" y="-183.5" font-family="Helvetica,sans-Serif" font-size="10.00">char</text>
<polyline fill="none" stroke="#bfbfbf" points="197,-176.5 232,-176.5 "/>
<text text-anchor="middle" x="214.5" y="-164.5" font-family="Helvetica,sans-Serif" font-size="10.00"> </text>
<polyline fill="none" stroke="#bfbfbf" points="197,-157.5 232,-157.5 "/>
<text text-anchor="middle" x="214.5" y="-145.5" font-family="Helvetica,sans-Serif" font-size="10.00"> </text>
</a>
</g>
</g>
<!-- Node3&#45;&gt;Node1 -->
<g id="edge2" class="edge"><title>Node3&#45;&gt;Node1</title>
<path fill="none" stroke="#404040" d="M214.5,-138.478C214.5,-118.792 214.5,-91.9899 214.5,-69.9526"/>
<polygon fill="none" stroke="#404040" points="214.5,-69.9475 210.5,-63.9475 214.5,-57.9475 218.5,-63.9475 214.5,-69.9475"/>
<text text-anchor="middle" x="254.5" y="-79" font-family="Helvetica,sans-Serif" font-size="10.00"> +UnknownData00</text>
</g>
<!-- Node4 -->
<g id="node4" class="node"><title>Node4</title>
<g id="a_node4"><a xlink:title=" ">
<polygon fill="none" stroke="#bfbfbf" points="300,-138.5 300,-195.5 335,-195.5 335,-138.5 300,-138.5"/>
<text text-anchor="middle" x="317.5" y="-183.5" font-family="Helvetica,sans-Serif" font-size="10.00">float</text>
<polyline fill="none" stroke="#bfbfbf" points="300,-176.5 335,-176.5 "/>
<text text-anchor="middle" x="317.5" y="-164.5" font-family="Helvetica,sans-Serif" font-size="10.00"> </text>
<polyline fill="none" stroke="#bfbfbf" points="300,-157.5 335,-157.5 "/>
<text text-anchor="middle" x="317.5" y="-145.5" font-family="Helvetica,sans-Serif" font-size="10.00"> </text>
</a>
</g>
</g>
<!-- Node4&#45;&gt;Node1 -->
<g id="edge3" class="edge"><title>Node4&#45;&gt;Node1</title>
<path fill="none" stroke="#404040" d="M316.404,-138.377C314.382,-119.2 309.075,-93.9675 295.5,-76 292.621,-72.1895 289.328,-68.646 285.756,-65.3586"/>
<polygon fill="none" stroke="#404040" points="285.675,-65.2925 278.497,-64.6003 276.375,-57.7084 283.553,-58.4006 285.675,-65.2925"/>
<text text-anchor="middle" x="348.5" y="-79" font-family="Helvetica,sans-Serif" font-size="10.00"> +CurrentPoolAmount</text>
</g>
</g>
</svg>
