<?xml version="1.0" encoding="UTF-8" standalone="no"?>
<!DOCTYPE svg PUBLIC "-//W3C//DTD SVG 1.1//EN"
 "http://www.w3.org/Graphics/SVG/1.1/DTD/svg11.dtd">
<!-- Generated by graphviz version 2.38.0 (20140413.2041)
 -->
<!-- Title: SDK::FBowSplashProbe Pages: 1 -->
<!--zoomable 843 -->
<svg id="main" version="1.1" xmlns="http://www.w3.org/2000/svg" xmlns:xlink="http://www.w3.org/1999/xlink" xml:space="preserve" onload="init(evt)">
<style type="text/css"><![CDATA[
.edge:hover path { stroke: red; }
.edge:hover polygon { stroke: red; fill: red; }
]]></style>
<script type="text/javascript"><![CDATA[
var edges = document.getElementsByTagName('g');
if (edges && edges.length) {
  for (var i=0;i<edges.length;i++) {
    if (edges[i].id.substr(0,4)=='edge') {
      edges[i].setAttribute('class','edge');
    }
  }
}
]]></script>
        <defs>
                <circle id="rim" cx="0" cy="0" r="7"/>
                <circle id="rim2" cx="0" cy="0" r="3.5"/>
                <g id="zoomPlus">
                        <use xlink:href="#rim" fill="#404040">
                                <set attributeName="fill" to="#808080" begin="zoomplus.mouseover" end="zoomplus.mouseout"/>
                        </use>
                        <path d="M-4,0h8M0,-4v8" fill="none" stroke="white" stroke-width="1.5" pointer-events="none"/>
                </g>
                <g id="zoomMin">
                        <use xlink:href="#rim" fill="#404040">
                                <set attributeName="fill" to="#808080" begin="zoomminus.mouseover" end="zoomminus.mouseout"/>
                        </use>
                        <path d="M-4,0h8" fill="none" stroke="white" stroke-width="1.5" pointer-events="none"/>
                </g>
                <g id="dirArrow">
                        <path fill="none" stroke="white" stroke-width="1.5" d="M0,-3.0v7 M-2.5,-0.5L0,-3.0L2.5,-0.5"/>
                </g>
               <g id="resetDef">
                       <use xlink:href="#rim2" fill="#404040">
                               <set attributeName="fill" to="#808080" begin="reset.mouseover" end="reset.mouseout"/>
                       </use>
               </g>
        </defs>

<script type="text/javascript">
var viewWidth = 1337;
var viewHeight = 843;
var sectionId = 'dynsection-0';
</script>
<script xlink:href="svgpan.js"/>
<svg id="graph" class="graph">
<g id="viewport">
<title>SDK::FBowSplashProbe</title>
<!-- Node1 -->
<g id="node1" class="node"><title>Node1</title>
<g id="a_node1"><a xlink:title=" ">
<polygon fill="#bfbfbf" stroke="black" points="581.01,-0.5 581.01,-57.5 704.01,-57.5 704.01,-0.5 581.01,-0.5"/>
<text text-anchor="middle" x="642.51" y="-45.5" font-family="Helvetica,sans-Serif" font-size="10.00">SDK::FBowSplashProbe</text>
<polyline fill="none" stroke="black" points="581.01,-38.5 704.01,-38.5 "/>
<text text-anchor="middle" x="642.51" y="-26.5" font-family="Helvetica,sans-Serif" font-size="10.00"> </text>
<polyline fill="none" stroke="black" points="581.01,-19.5 704.01,-19.5 "/>
<text text-anchor="middle" x="642.51" y="-7.5" font-family="Helvetica,sans-Serif" font-size="10.00"> </text>
</a>
</g>
</g>
<!-- Node2 -->
<g id="node2" class="node"><title>Node2</title>
<g id="a_node2"><a xlink:href="a26543.html" target="_top" xlink:title=" ">
<polygon fill="none" stroke="red" points="66.0096,-127.5 66.0096,-404.5 251.01,-404.5 251.01,-127.5 66.0096,-127.5"/>
<text text-anchor="middle" x="158.51" y="-392.5" font-family="Helvetica,sans-Serif" font-size="10.00">SDK::UParticleSystemComponent</text>
<polyline fill="none" stroke="red" points="66.0096,-385.5 251.01,-385.5 "/>
<text text-anchor="start" x="74.0096" y="-373.5" font-family="Helvetica,sans-Serif" font-size="10.00">+ UnknownData00</text>
<text text-anchor="start" x="74.0096" y="-362.5" font-family="Helvetica,sans-Serif" font-size="10.00">+ bResetOnDetach</text>
<text text-anchor="start" x="74.0096" y="-351.5" font-family="Helvetica,sans-Serif" font-size="10.00">+ bUpdateOnDedicatedServer</text>
<text text-anchor="start" x="74.0096" y="-340.5" font-family="Helvetica,sans-Serif" font-size="10.00">+ bOverrideLODMethod</text>
<text text-anchor="start" x="74.0096" y="-329.5" font-family="Helvetica,sans-Serif" font-size="10.00">+ UnknownData07</text>
<text text-anchor="start" x="74.0096" y="-318.5" font-family="Helvetica,sans-Serif" font-size="10.00">+ bSkipUpdateDynamicDataDuringTick</text>
<text text-anchor="start" x="74.0096" y="-307.5" font-family="Helvetica,sans-Serif" font-size="10.00">+ UnknownData08</text>
<text text-anchor="start" x="74.0096" y="-296.5" font-family="Helvetica,sans-Serif" font-size="10.00">+ UnknownData09</text>
<text text-anchor="start" x="74.0096" y="-285.5" font-family="Helvetica,sans-Serif" font-size="10.00">+ bUnbound</text>
<polyline fill="none" stroke="red" points="66.0096,-278.5 251.01,-278.5 "/>
<text text-anchor="start" x="74.0096" y="-266.5" font-family="Helvetica,sans-Serif" font-size="10.00">+ SetVectorParameter()</text>
<text text-anchor="start" x="74.0096" y="-255.5" font-family="Helvetica,sans-Serif" font-size="10.00">+ SetTrailSourceData()</text>
<text text-anchor="start" x="74.0096" y="-244.5" font-family="Helvetica,sans-Serif" font-size="10.00">+ SetTemplate()</text>
<text text-anchor="start" x="74.0096" y="-233.5" font-family="Helvetica,sans-Serif" font-size="10.00">+ SetMaterialParameter()</text>
<text text-anchor="start" x="74.0096" y="-222.5" font-family="Helvetica,sans-Serif" font-size="10.00">+ SetFloatParameter()</text>
<text text-anchor="start" x="74.0096" y="-211.5" font-family="Helvetica,sans-Serif" font-size="10.00">+ SetEnableDistanceFading()</text>
<text text-anchor="start" x="74.0096" y="-200.5" font-family="Helvetica,sans-Serif" font-size="10.00">+ SetEmitterEnable()</text>
<text text-anchor="start" x="74.0096" y="-189.5" font-family="Helvetica,sans-Serif" font-size="10.00">+ SetCustomLocalSpaceWorld</text>
<text text-anchor="start" x="74.0096" y="-178.5" font-family="Helvetica,sans-Serif" font-size="10.00">Space()</text>
<text text-anchor="start" x="74.0096" y="-167.5" font-family="Helvetica,sans-Serif" font-size="10.00">+ SetCustomLocalSpaceComponent()</text>
<text text-anchor="start" x="74.0096" y="-156.5" font-family="Helvetica,sans-Serif" font-size="10.00">+ SetColorParameter()</text>
<text text-anchor="start" x="74.0096" y="-145.5" font-family="Helvetica,sans-Serif" font-size="10.00">and 16 more...</text>
<text text-anchor="start" x="74.0096" y="-134.5" font-family="Helvetica,sans-Serif" font-size="10.00">+ StaticClass()</text>
</a>
</g>
</g>
<!-- Node2&#45;&gt;Node1 -->
<g id="edge1" class="edge"><title>Node2&#45;&gt;Node1</title>
<path fill="none" stroke="#404040" d="M148.556,-127.441C153.125,-108.173 161.476,-90.1535 175.51,-76 202.607,-48.6716 444.131,-36.6248 568.775,-32.1893"/>
<polygon fill="none" stroke="#404040" points="568.833,-32.1874 574.691,-27.9817 580.826,-31.7712 574.968,-35.9769 568.833,-32.1874"/>
<text text-anchor="middle" x="225.01" y="-90" font-family="Helvetica,sans-Serif" font-size="10.00"> +CurrentlyPlayingVFX</text>
</g>
<!-- Node29 -->
<g id="node3" class="node"><title>Node29</title>
<g id="a_node3"><a xlink:href="a26075.html" target="_top" xlink:title=" ">
<polygon fill="none" stroke="black" points="286.01,-562.5 286.01,-707.5 365.01,-707.5 365.01,-562.5 286.01,-562.5"/>
<text text-anchor="middle" x="325.51" y="-695.5" font-family="Helvetica,sans-Serif" font-size="10.00">SDK::FVector</text>
<polyline fill="none" stroke="black" points="286.01,-688.5 365.01,-688.5 "/>
<text text-anchor="middle" x="325.51" y="-676.5" font-family="Helvetica,sans-Serif" font-size="10.00"> </text>
<polyline fill="none" stroke="black" points="286.01,-669.5 365.01,-669.5 "/>
<text text-anchor="start" x="294.01" y="-657.5" font-family="Helvetica,sans-Serif" font-size="10.00">+ FVector()</text>
<text text-anchor="start" x="294.01" y="-646.5" font-family="Helvetica,sans-Serif" font-size="10.00">+ FVector()</text>
<text text-anchor="start" x="294.01" y="-635.5" font-family="Helvetica,sans-Serif" font-size="10.00">+ operator+()</text>
<text text-anchor="start" x="294.01" y="-624.5" font-family="Helvetica,sans-Serif" font-size="10.00">+ operator&#45;()</text>
<text text-anchor="start" x="294.01" y="-613.5" font-family="Helvetica,sans-Serif" font-size="10.00">+ operator*()</text>
<text text-anchor="start" x="294.01" y="-602.5" font-family="Helvetica,sans-Serif" font-size="10.00">+ operator=()</text>
<text text-anchor="start" x="294.01" y="-591.5" font-family="Helvetica,sans-Serif" font-size="10.00">+ operator+=()</text>
<text text-anchor="start" x="294.01" y="-580.5" font-family="Helvetica,sans-Serif" font-size="10.00">+ operator&#45;=()</text>
<text text-anchor="start" x="294.01" y="-569.5" font-family="Helvetica,sans-Serif" font-size="10.00">+ operator*=()</text>
</a>
</g>
</g>
<!-- Node29&#45;&gt;Node1 -->
<g id="edge8" class="edge"><title>Node29&#45;&gt;Node1</title>
<path fill="none" stroke="#404040" d="M305.744,-562.07C280.787,-453.986 252.633,-249.348 356.51,-127 409.141,-65.0106 502.975,-42.5295 568.769,-34.4379"/>
<polygon fill="none" stroke="#404040" points="568.788,-34.4359 574.3,-29.7874 580.712,-33.0882 575.199,-37.7368 568.788,-34.4359"/>
<text text-anchor="middle" x="396.01" y="-263.5" font-family="Helvetica,sans-Serif" font-size="10.00"> +VfxSpawnOffset</text>
</g>
<!-- Node29&#45;&gt;Node2 -->
<g id="edge2" class="edge"><title>Node29&#45;&gt;Node2</title>
<path fill="none" stroke="#404040" d="M285.783,-572.966C281.355,-568.814 276.592,-565.07 271.51,-562 228.353,-535.935 192.278,-582.315 159.51,-544 142.546,-524.166 139.788,-471.355 142.238,-417.097"/>
<polygon fill="none" stroke="#404040" points="142.256,-416.759 138.573,-410.559 142.88,-404.775 146.562,-410.975 142.256,-416.759"/>
<text text-anchor="middle" x="217.01" y="-492" font-family="Helvetica,sans-Serif" font-size="10.00"> +CustomInheritedVelocity</text>
<text text-anchor="middle" x="217.01" y="-481" font-family="Helvetica,sans-Serif" font-size="10.00">+PartSysVelocity</text>
<text text-anchor="middle" x="217.01" y="-470" font-family="Helvetica,sans-Serif" font-size="10.00">+OldPosition</text>
</g>
<!-- Node203 -->
<g id="node8" class="node"><title>Node203</title>
<g id="a_node8"><a xlink:href="a35779.html" target="_top" xlink:title=" ">
<polygon fill="none" stroke="red" points="445.01,-237.5 445.01,-294.5 576.01,-294.5 576.01,-237.5 445.01,-237.5"/>
<text text-anchor="middle" x="510.51" y="-282.5" font-family="Helvetica,sans-Serif" font-size="10.00">SDK::FWaterSplashProbe</text>
<polyline fill="none" stroke="red" points="445.01,-275.5 576.01,-275.5 "/>
<text text-anchor="middle" x="510.51" y="-263.5" font-family="Helvetica,sans-Serif" font-size="10.00"> </text>
<polyline fill="none" stroke="red" points="445.01,-256.5 576.01,-256.5 "/>
<text text-anchor="middle" x="510.51" y="-244.5" font-family="Helvetica,sans-Serif" font-size="10.00"> </text>
</a>
</g>
</g>
<!-- Node29&#45;&gt;Node203 -->
<g id="edge13" class="edge"><title>Node29&#45;&gt;Node203</title>
<path fill="none" stroke="#404040" d="M315.817,-562.486C310.32,-510.251 307.229,-444.893 322.51,-423 335.789,-403.975 351.938,-417.46 371.51,-405 414.607,-377.563 454.993,-334.8 481.007,-304.15"/>
<polygon fill="none" stroke="#404040" points="481.242,-303.869 482.017,-296.7 488.934,-294.659 488.158,-301.828 481.242,-303.869"/>
<text text-anchor="middle" x="375.01" y="-486.5" font-family="Helvetica,sans-Serif" font-size="10.00"> +LocalOffset</text>
<text text-anchor="middle" x="375.01" y="-475.5" font-family="Helvetica,sans-Serif" font-size="10.00">+LocalOffsetAdjustment</text>
</g>
<!-- Node21 -->
<g id="node4" class="node"><title>Node21</title>
<g id="a_node4"><a xlink:title=" ">
<polygon fill="none" stroke="#bfbfbf" points="163.01,-777.5 163.01,-834.5 198.01,-834.5 198.01,-777.5 163.01,-777.5"/>
<text text-anchor="middle" x="180.51" y="-822.5" font-family="Helvetica,sans-Serif" font-size="10.00">float</text>
<polyline fill="none" stroke="#bfbfbf" points="163.01,-815.5 198.01,-815.5 "/>
<text text-anchor="middle" x="180.51" y="-803.5" font-family="Helvetica,sans-Serif" font-size="10.00"> </text>
<polyline fill="none" stroke="#bfbfbf" points="163.01,-796.5 198.01,-796.5 "/>
<text text-anchor="middle" x="180.51" y="-784.5" font-family="Helvetica,sans-Serif" font-size="10.00"> </text>
</a>
</g>
</g>
<!-- Node21&#45;&gt;Node1 -->
<g id="edge11" class="edge"><title>Node21&#45;&gt;Node1</title>
<path fill="none" stroke="#404040" d="M162.904,-790.303C153.271,-781.751 141.502,-770.429 132.51,-759 64.1616,-672.133 36.279,-650.722 7.50959,-544 -23.015,-430.767 54.9379,-129.186 56.5096,-127 115.214,-45.3343 424.688,-31.8042 568.689,-29.9901"/>
<polygon fill="none" stroke="#404040" points="568.849,-29.9885 574.806,-25.9245 580.849,-29.8599 574.892,-33.924 568.849,-29.9885"/>
<text text-anchor="middle" x="60.0096" y="-486.5" font-family="Helvetica,sans-Serif" font-size="10.00"> +ProbeSamplingTime</text>
<text text-anchor="middle" x="60.0096" y="-475.5" font-family="Helvetica,sans-Serif" font-size="10.00">+TimeBetweenProbeVfx</text>
</g>
<!-- Node21&#45;&gt;Node2 -->
<g id="edge4" class="edge"><title>Node21&#45;&gt;Node2</title>
<path fill="none" stroke="#404040" d="M162.866,-779.178C151.13,-760.37 136.762,-733.777 130.51,-708 107.451,-612.941 114.307,-503.176 127,-416.935"/>
<polygon fill="none" stroke="#404040" points="127.022,-416.79 123.97,-410.256 128.827,-404.926 131.879,-411.46 127.022,-416.79"/>
<text text-anchor="middle" x="203.51" y="-665.5" font-family="Helvetica,sans-Serif" font-size="10.00"> +CustomParameterDrivingCurves</text>
<text text-anchor="middle" x="203.51" y="-654.5" font-family="Helvetica,sans-Serif" font-size="10.00">+SecondsBeforeInactive</text>
<text text-anchor="middle" x="203.51" y="-643.5" font-family="Helvetica,sans-Serif" font-size="10.00">+WarmupTime</text>
<text text-anchor="middle" x="203.51" y="-632.5" font-family="Helvetica,sans-Serif" font-size="10.00">+WarmupTickRate</text>
<text text-anchor="start" x="130.51" y="-621.5" font-family="Helvetica,sans-Serif" font-size="10.00">+MaxTimeBeforeForceUpdate</text>
<text text-anchor="middle" x="203.51" y="-610.5" font-family="Helvetica,sans-Serif" font-size="10.00">Transform</text>
<text text-anchor="middle" x="203.51" y="-599.5" font-family="Helvetica,sans-Serif" font-size="10.00">+CustomTimeDilation</text>
</g>
<!-- Node21&#45;&gt;Node29 -->
<g id="edge3" class="edge"><title>Node21&#45;&gt;Node29</title>
<path fill="none" stroke="#404040" d="M198.23,-787.309C217.032,-768.267 247.306,-736.824 271.51,-708 273.723,-705.364 275.956,-702.648 278.188,-699.886"/>
<polygon fill="none" stroke="#404040" points="278.284,-699.764 278.881,-692.578 285.745,-690.365 285.148,-697.552 278.284,-699.764"/>
<text text-anchor="middle" x="263.01" y="-751" font-family="Helvetica,sans-Serif" font-size="10.00"> +X</text>
<text text-anchor="middle" x="263.01" y="-740" font-family="Helvetica,sans-Serif" font-size="10.00">+Y</text>
<text text-anchor="middle" x="263.01" y="-729" font-family="Helvetica,sans-Serif" font-size="10.00">+Z</text>
</g>
<!-- Node21&#45;&gt;Node203 -->
<g id="edge14" class="edge"><title>Node21&#45;&gt;Node203</title>
<path fill="none" stroke="#404040" d="M198.031,-801.086C235.762,-791.753 325.18,-764.617 373.51,-708 459.084,-607.752 418.682,-549.556 455.51,-423 467.285,-382.535 483.634,-337.199 495.443,-305.874"/>
<polygon fill="none" stroke="#404040" points="495.466,-305.812 493.858,-298.783 499.728,-294.594 501.336,-301.624 495.466,-305.812"/>
<text text-anchor="middle" x="490.51" y="-665.5" font-family="Helvetica,sans-Serif" font-size="10.00"> +Yaw</text>
<text text-anchor="middle" x="490.51" y="-654.5" font-family="Helvetica,sans-Serif" font-size="10.00">+Height</text>
<text text-anchor="middle" x="490.51" y="-643.5" font-family="Helvetica,sans-Serif" font-size="10.00">+Pitch</text>
<text text-anchor="middle" x="490.51" y="-632.5" font-family="Helvetica,sans-Serif" font-size="10.00">+Roll</text>
<text text-anchor="start" x="434.51" y="-621.5" font-family="Helvetica,sans-Serif" font-size="10.00">+LocalOffsetAdjustment</text>
<text text-anchor="middle" x="490.51" y="-610.5" font-family="Helvetica,sans-Serif" font-size="10.00">Duration</text>
<text text-anchor="middle" x="490.51" y="-599.5" font-family="Helvetica,sans-Serif" font-size="10.00">+RateOfChangeThreshold</text>
</g>
<!-- Node15 -->
<g id="node5" class="node"><title>Node15</title>
<g id="a_node5"><a xlink:title=" ">
<polygon fill="none" stroke="#bfbfbf" points="572.01,-606.5 572.01,-663.5 607.01,-663.5 607.01,-606.5 572.01,-606.5"/>
<text text-anchor="middle" x="589.51" y="-651.5" font-family="Helvetica,sans-Serif" font-size="10.00">char</text>
<polyline fill="none" stroke="#bfbfbf" points="572.01,-644.5 607.01,-644.5 "/>
<text text-anchor="middle" x="589.51" y="-632.5" font-family="Helvetica,sans-Serif" font-size="10.00"> </text>
<polyline fill="none" stroke="#bfbfbf" points="572.01,-625.5 607.01,-625.5 "/>
<text text-anchor="middle" x="589.51" y="-613.5" font-family="Helvetica,sans-Serif" font-size="10.00"> </text>
</a>
</g>
</g>
<!-- Node15&#45;&gt;Node1 -->
<g id="edge9" class="edge"><title>Node15&#45;&gt;Node1</title>
<path fill="none" stroke="#404040" d="M607.072,-618.109C623.967,-601.53 648.39,-573.832 658.51,-544 675.785,-493.073 668.425,-475.856 658.51,-423 656.927,-414.564 653.193,-413.417 651.51,-405 627.507,-285.017 633.89,-139.152 638.985,-70.0292"/>
<polygon fill="none" stroke="#404040" points="639.017,-69.6123 635.493,-63.3208 639.945,-57.6482 643.469,-63.9397 639.017,-69.6123"/>
<text text-anchor="middle" x="691.51" y="-263.5" font-family="Helvetica,sans-Serif" font-size="10.00"> +UnknownData00</text>
</g>
<!-- Node15&#45;&gt;Node2 -->
<g id="edge5" class="edge"><title>Node15&#45;&gt;Node2</title>
<path fill="none" stroke="#404040" d="M583.725,-606.252C579.13,-591.002 571.13,-573.002 557.51,-562 527.131,-537.462 500.637,-570.01 471.51,-544 429.262,-506.274 475.548,-458.619 431.51,-423 374.154,-376.61 330.973,-440.864 266.51,-405 264.682,-403.983 262.874,-402.921 261.087,-401.818"/>
<polygon fill="none" stroke="#404040" points="261.025,-401.776 253.814,-401.735 251.079,-395.063 258.29,-395.104 261.025,-401.776"/>
<text text-anchor="middle" x="511.51" y="-536" font-family="Helvetica,sans-Serif" font-size="10.00"> +UnknownData01</text>
<text text-anchor="middle" x="511.51" y="-525" font-family="Helvetica,sans-Serif" font-size="10.00">+bWarmingUp</text>
<text text-anchor="middle" x="511.51" y="-514" font-family="Helvetica,sans-Serif" font-size="10.00">+UnknownData02</text>
<text text-anchor="middle" x="511.51" y="-503" font-family="Helvetica,sans-Serif" font-size="10.00">+UnknownData10</text>
<text text-anchor="middle" x="511.51" y="-492" font-family="Helvetica,sans-Serif" font-size="10.00">+UnknownData03</text>
<text text-anchor="middle" x="511.51" y="-481" font-family="Helvetica,sans-Serif" font-size="10.00">+UnknownData11</text>
<text text-anchor="middle" x="511.51" y="-470" font-family="Helvetica,sans-Serif" font-size="10.00">+UnknownData04</text>
<text text-anchor="middle" x="511.51" y="-459" font-family="Helvetica,sans-Serif" font-size="10.00">+UnknownData12</text>
<text text-anchor="middle" x="511.51" y="-448" font-family="Helvetica,sans-Serif" font-size="10.00">+UnknownData05</text>
<text text-anchor="middle" x="511.51" y="-437" font-family="Helvetica,sans-Serif" font-size="10.00">+UnknownData06</text>
<text text-anchor="middle" x="511.51" y="-426" font-family="Helvetica,sans-Serif" font-size="10.00">...</text>
</g>
<!-- Node15&#45;&gt;Node203 -->
<g id="edge15" class="edge"><title>Node15&#45;&gt;Node203</title>
<path fill="none" stroke="#404040" d="M586.158,-606.485C580.984,-566.012 570.104,-488.174 555.51,-423 546.51,-382.812 533.125,-337.683 523.292,-306.343"/>
<polygon fill="none" stroke="#404040" points="523.207,-306.075 517.582,-301.564 519.583,-294.636 525.208,-299.147 523.207,-306.075"/>
<text text-anchor="middle" x="617.51" y="-486.5" font-family="Helvetica,sans-Serif" font-size="10.00"> +UnknownData01</text>
<text text-anchor="middle" x="617.51" y="-475.5" font-family="Helvetica,sans-Serif" font-size="10.00">+UnknownData00</text>
</g>
<!-- Node6 -->
<g id="node6" class="node"><title>Node6</title>
<g id="a_node6"><a xlink:href="a25883.html" target="_top" xlink:title=" ">
<polygon fill="none" stroke="red" points="740.51,-188 740.51,-344 852.51,-344 852.51,-188 740.51,-188"/>
<text text-anchor="middle" x="796.51" y="-332" font-family="Helvetica,sans-Serif" font-size="10.00">SDK::UObject</text>
<polyline fill="none" stroke="red" points="740.51,-325 852.51,-325 "/>
<text text-anchor="middle" x="796.51" y="-313" font-family="Helvetica,sans-Serif" font-size="10.00"> </text>
<polyline fill="none" stroke="red" points="740.51,-306 852.51,-306 "/>
<text text-anchor="start" x="748.51" y="-294" font-family="Helvetica,sans-Serif" font-size="10.00">+ GetName()</text>
<text text-anchor="start" x="748.51" y="-283" font-family="Helvetica,sans-Serif" font-size="10.00">+ GetFullName()</text>
<text text-anchor="start" x="748.51" y="-272" font-family="Helvetica,sans-Serif" font-size="10.00">+ IsA()</text>
<text text-anchor="start" x="748.51" y="-261" font-family="Helvetica,sans-Serif" font-size="10.00">+ ProcessEvent()</text>
<text text-anchor="start" x="748.51" y="-250" font-family="Helvetica,sans-Serif" font-size="10.00">+ ExecuteUbergraph()</text>
<text text-anchor="start" x="748.51" y="-239" font-family="Helvetica,sans-Serif" font-size="10.00">+ StaticClass()</text>
<text text-anchor="start" x="748.51" y="-228" font-family="Helvetica,sans-Serif" font-size="10.00">+ GetGlobalObjects()</text>
<text text-anchor="start" x="748.51" y="-217" font-family="Helvetica,sans-Serif" font-size="10.00">+ FindObject()</text>
<text text-anchor="start" x="748.51" y="-206" font-family="Helvetica,sans-Serif" font-size="10.00">+ FindClass()</text>
<text text-anchor="start" x="748.51" y="-195" font-family="Helvetica,sans-Serif" font-size="10.00">+ GetObjectCasted()</text>
</a>
</g>
</g>
<!-- Node6&#45;&gt;Node1 -->
<g id="edge6" class="edge"><title>Node6&#45;&gt;Node1</title>
<path fill="none" stroke="#404040" d="M761.581,-187.91C751.239,-167.536 739.244,-145.954 726.51,-127 712.359,-105.937 694.171,-84.414 678.34,-67.0104"/>
<polygon fill="none" stroke="#404040" points="677.97,-66.6098 670.96,-64.9162 669.828,-57.7946 676.837,-59.4882 677.97,-66.6098"/>
<text text-anchor="middle" x="750.51" y="-90" font-family="Helvetica,sans-Serif" font-size="10.00"> +ParticleSystem</text>
</g>
<!-- Node6&#45;&gt;Node6 -->
<g id="edge7" class="edge"><title>Node6&#45;&gt;Node6</title>
<path fill="none" stroke="#404040" d="M852.656,-296.595C863.132,-292.827 870.51,-282.629 870.51,-266 870.51,-255.607 867.628,-247.726 862.909,-242.357"/>
<polygon fill="none" stroke="#404040" points="862.588,-242.14 855.377,-242.083 852.656,-235.405 859.867,-235.462 862.588,-242.14"/>
<text text-anchor="middle" x="887.51" y="-263.5" font-family="Helvetica,sans-Serif" font-size="10.00"> +Outer</text>
</g>
<!-- Node202 -->
<g id="node7" class="node"><title>Node202</title>
<g id="a_node7"><a xlink:href="a25635.html" target="_top" xlink:title=" ">
<polygon fill="none" stroke="black" points="922.51,-204.5 922.51,-327.5 1072.51,-327.5 1072.51,-204.5 922.51,-204.5"/>
<text text-anchor="start" x="930.51" y="-315.5" font-family="Helvetica,sans-Serif" font-size="10.00">SDK::TEnumAsByte&lt; EAttach</text>
<text text-anchor="middle" x="997.51" y="-304.5" font-family="Helvetica,sans-Serif" font-size="10.00">Location &gt;</text>
<polyline fill="none" stroke="black" points="922.51,-297.5 1072.51,-297.5 "/>
<text text-anchor="middle" x="997.51" y="-285.5" font-family="Helvetica,sans-Serif" font-size="10.00"> </text>
<polyline fill="none" stroke="black" points="922.51,-278.5 1072.51,-278.5 "/>
<text text-anchor="start" x="930.51" y="-266.5" font-family="Helvetica,sans-Serif" font-size="10.00">+ TEnumAsByte()</text>
<text text-anchor="start" x="930.51" y="-255.5" font-family="Helvetica,sans-Serif" font-size="10.00">+ TEnumAsByte()</text>
<text text-anchor="start" x="930.51" y="-244.5" font-family="Helvetica,sans-Serif" font-size="10.00">+ TEnumAsByte()</text>
<text text-anchor="start" x="930.51" y="-233.5" font-family="Helvetica,sans-Serif" font-size="10.00">+ TEnumAsByte()</text>
<text text-anchor="start" x="930.51" y="-222.5" font-family="Helvetica,sans-Serif" font-size="10.00">+ operator EAttachLocation()</text>
<text text-anchor="start" x="930.51" y="-211.5" font-family="Helvetica,sans-Serif" font-size="10.00">+ GetValue()</text>
</a>
</g>
</g>
<!-- Node202&#45;&gt;Node1 -->
<g id="edge10" class="edge"><title>Node202&#45;&gt;Node1</title>
<path fill="none" stroke="#404040" d="M971.184,-204.343C957.203,-177.787 937.834,-147.969 913.51,-127 857.296,-78.5413 775.096,-53.6616 715.981,-41.3121"/>
<polygon fill="none" stroke="#404040" points="715.875,-41.2908 709.206,-44.0348 704.108,-38.9345 710.777,-36.1905 715.875,-41.2908"/>
<text text-anchor="middle" x="934.01" y="-90" font-family="Helvetica,sans-Serif" font-size="10.00"> +SplashAttachType</text>
</g>
<!-- Node203&#45;&gt;Node1 -->
<g id="edge12" class="edge"><title>Node203&#45;&gt;Node1</title>
<path fill="none" stroke="#404040" d="M518.778,-237.237C531.087,-198.716 556.789,-127.942 593.51,-76 595.8,-72.7606 598.346,-69.5702 601.04,-66.4731"/>
<polygon fill="none" stroke="#404040" points="601.244,-66.2557 602.433,-59.1432 609.455,-57.5052 608.266,-64.6176 601.244,-66.2557"/>
<text text-anchor="middle" x="611.01" y="-90" font-family="Helvetica,sans-Serif" font-size="10.00"> +Probe</text>
</g>
<!-- Node44 -->
<g id="node9" class="node"><title>Node44</title>
<g id="a_node9"><a xlink:title=" ">
<polygon fill="none" stroke="#bfbfbf" points="1091.01,-237.5 1091.01,-294.5 1126.01,-294.5 1126.01,-237.5 1091.01,-237.5"/>
<text text-anchor="middle" x="1108.51" y="-282.5" font-family="Helvetica,sans-Serif" font-size="10.00">bool</text>
<polyline fill="none" stroke="#bfbfbf" points="1091.01,-275.5 1126.01,-275.5 "/>
<text text-anchor="middle" x="1108.51" y="-263.5" font-family="Helvetica,sans-Serif" font-size="10.00"> </text>
<polyline fill="none" stroke="#bfbfbf" points="1091.01,-256.5 1126.01,-256.5 "/>
<text text-anchor="middle" x="1108.51" y="-244.5" font-family="Helvetica,sans-Serif" font-size="10.00"> </text>
</a>
</g>
</g>
<!-- Node44&#45;&gt;Node1 -->
<g id="edge16" class="edge"><title>Node44&#45;&gt;Node1</title>
<path fill="none" stroke="#404040" d="M1109.87,-237.294C1109.92,-207.226 1105.7,-159.209 1081.51,-127 1051.79,-87.4233 1029.72,-90.8672 982.51,-76 893.539,-47.9815 786.192,-37.0287 716.243,-32.7473"/>
<polygon fill="none" stroke="#404040" points="716.041,-32.7357 709.821,-36.3842 704.06,-32.046 710.28,-28.3975 716.041,-32.7357"/>
<text text-anchor="middle" x="1117.01" y="-101" font-family="Helvetica,sans-Serif" font-size="10.00"> +Enabled</text>
<text text-anchor="middle" x="1117.01" y="-90" font-family="Helvetica,sans-Serif" font-size="10.00">+AttachToWaterSurface</text>
<text text-anchor="middle" x="1117.01" y="-79" font-family="Helvetica,sans-Serif" font-size="10.00">+SpawnAttached</text>
</g>
<!-- Node205 -->
<g id="node10" class="node"><title>Node205</title>
<g id="a_node10"><a xlink:href="a25635.html" target="_top" xlink:title=" ">
<polygon fill="none" stroke="black" points="1144.01,-204.5 1144.01,-327.5 1329.01,-327.5 1329.01,-204.5 1144.01,-204.5"/>
<text text-anchor="start" x="1152.01" y="-315.5" font-family="Helvetica,sans-Serif" font-size="10.00">SDK::TEnumAsByte&lt; EShipAlignment</text>
<text text-anchor="middle" x="1236.51" y="-304.5" font-family="Helvetica,sans-Serif" font-size="10.00">Type &gt;</text>
<polyline fill="none" stroke="black" points="1144.01,-297.5 1329.01,-297.5 "/>
<text text-anchor="middle" x="1236.51" y="-285.5" font-family="Helvetica,sans-Serif" font-size="10.00"> </text>
<polyline fill="none" stroke="black" points="1144.01,-278.5 1329.01,-278.5 "/>
<text text-anchor="start" x="1152.01" y="-266.5" font-family="Helvetica,sans-Serif" font-size="10.00">+ TEnumAsByte()</text>
<text text-anchor="start" x="1152.01" y="-255.5" font-family="Helvetica,sans-Serif" font-size="10.00">+ TEnumAsByte()</text>
<text text-anchor="start" x="1152.01" y="-244.5" font-family="Helvetica,sans-Serif" font-size="10.00">+ TEnumAsByte()</text>
<text text-anchor="start" x="1152.01" y="-233.5" font-family="Helvetica,sans-Serif" font-size="10.00">+ TEnumAsByte()</text>
<text text-anchor="start" x="1152.01" y="-222.5" font-family="Helvetica,sans-Serif" font-size="10.00">+ operator EShipAlignmentType()</text>
<text text-anchor="start" x="1152.01" y="-211.5" font-family="Helvetica,sans-Serif" font-size="10.00">+ GetValue()</text>
</a>
</g>
</g>
<!-- Node205&#45;&gt;Node1 -->
<g id="edge17" class="edge"><title>Node205&#45;&gt;Node1</title>
<path fill="none" stroke="#404040" d="M1233.16,-204.486C1227.35,-161.623 1212.21,-106.519 1173.51,-76 1138.42,-48.33 853.947,-36.2266 716.424,-31.9523"/>
<polygon fill="none" stroke="#404040" points="716.379,-31.951 710.261,-35.7669 704.385,-31.5864 710.504,-27.7706 716.379,-31.951"/>
<text text-anchor="middle" x="1248.51" y="-90" font-family="Helvetica,sans-Serif" font-size="10.00"> +ShipAlignmentType</text>
</g>
</g>
</svg>
        <g id="navigator" transform="translate(0 0)" fill="#404254">
                <rect fill="#f2f5e9" fill-opacity="0.5" stroke="#606060" stroke-width=".5" x="0" y="0" width="60" height="60"/>
                <use id="zoomplus" xlink:href="#zoomPlus" x="17" y="9" onmousedown="handleZoom(evt,'in')"/>
                <use id="zoomminus" xlink:href="#zoomMin" x="42" y="9" onmousedown="handleZoom(evt,'out')"/>
                <use id="reset" xlink:href="#resetDef" x="30" y="36" onmousedown="handleReset()"/>
                <g id="arrowUp" xlink:href="#dirArrow" transform="translate(30 24)" onmousedown="handlePan(0,-1)">
                  <use xlink:href="#rim" fill="#404040">
                        <set attributeName="fill" to="#808080" begin="arrowUp.mouseover" end="arrowUp.mouseout"/>
                  </use>
                  <path fill="none" stroke="white" stroke-width="1.5" d="M0,-3.0v7 M-2.5,-0.5L0,-3.0L2.5,-0.5"/>
                </g>
                <g id="arrowRight" xlink:href="#dirArrow" transform="rotate(90) translate(36 -43)" onmousedown="handlePan(1,0)">
                  <use xlink:href="#rim" fill="#404040">
                        <set attributeName="fill" to="#808080" begin="arrowRight.mouseover" end="arrowRight.mouseout"/>
                  </use>
                  <path fill="none" stroke="white" stroke-width="1.5" d="M0,-3.0v7 M-2.5,-0.5L0,-3.0L2.5,-0.5"/>
                </g>
                <g id="arrowDown" xlink:href="#dirArrow" transform="rotate(180) translate(-30 -48)" onmousedown="handlePan(0,1)">
                  <use xlink:href="#rim" fill="#404040">
                        <set attributeName="fill" to="#808080" begin="arrowDown.mouseover" end="arrowDown.mouseout"/>
                  </use>
                  <path fill="none" stroke="white" stroke-width="1.5" d="M0,-3.0v7 M-2.5,-0.5L0,-3.0L2.5,-0.5"/>
                </g>
                <g id="arrowLeft" xlink:href="#dirArrow" transform="rotate(270) translate(-36 17)" onmousedown="handlePan(-1,0)">
                  <use xlink:href="#rim" fill="#404040">
                        <set attributeName="fill" to="#808080" begin="arrowLeft.mouseover" end="arrowLeft.mouseout"/>
                  </use>
                  <path fill="none" stroke="white" stroke-width="1.5" d="M0,-3.0v7 M-2.5,-0.5L0,-3.0L2.5,-0.5"/>
                </g>
        </g>
        <svg viewBox="0 0 15 15" width="100%" height="30px" preserveAspectRatio="xMaxYMin meet">
         <g id="arrow_out" transform="scale(0.3 0.3)">
          <a xlink:href="a15877_org.svg" target="_base">
           <rect id="button" ry="5" rx="5" y="6" x="6" height="38" width="38"
                fill="#f2f5e9" fill-opacity="0.5" stroke="#606060" stroke-width="1.0"/>
           <path id="arrow"
             d="M 11.500037,31.436501 C 11.940474,20.09759 22.043105,11.32322 32.158766,21.979434 L 37.068811,17.246167 C 37.068811,17.246167 37.088388,32 37.088388,32 L 22.160133,31.978069 C 22.160133,31.978069 26.997745,27.140456 26.997745,27.140456 C 18.528582,18.264221 13.291696,25.230495 11.500037,31.436501 z"
             style="fill:#404040;"/>
          </a>
         </g>
        </svg>
</svg>
