<?xml version="1.0" encoding="UTF-8" standalone="no"?>
<!DOCTYPE svg PUBLIC "-//W3C//DTD SVG 1.1//EN"
 "http://www.w3.org/Graphics/SVG/1.1/DTD/svg11.dtd">
<!-- Generated by graphviz version 2.38.0 (20140413.2041)
 -->
<!-- Title: SDK::FBuoyancyComponentExclusionParams Pages: 1 -->
<svg width="325pt" height="248pt"
 viewBox="0.00 0.00 324.50 248.00" xmlns="http://www.w3.org/2000/svg" xmlns:xlink="http://www.w3.org/1999/xlink">
<g id="graph0" class="graph" transform="scale(1 1) rotate(0) translate(4 244)">
<title>SDK::FBuoyancyComponentExclusionParams</title>
<!-- Node1 -->
<g id="node1" class="node"><title>Node1</title>
<g id="a_node1"><a xlink:title=" ">
<polygon fill="#bfbfbf" stroke="black" points="28,-0.5 28,-68.5 213,-68.5 213,-0.5 28,-0.5"/>
<text text-anchor="start" x="36" y="-56.5" font-family="Helvetica,sans-Serif" font-size="10.00">SDK::FBuoyancyComponentExclusion</text>
<text text-anchor="middle" x="120.5" y="-45.5" font-family="Helvetica,sans-Serif" font-size="10.00">Params</text>
<polyline fill="none" stroke="black" points="28,-38.5 213,-38.5 "/>
<text text-anchor="middle" x="120.5" y="-26.5" font-family="Helvetica,sans-Serif" font-size="10.00"> </text>
<polyline fill="none" stroke="black" points="28,-19.5 213,-19.5 "/>
<text text-anchor="middle" x="120.5" y="-7.5" font-family="Helvetica,sans-Serif" font-size="10.00"> </text>
</a>
</g>
</g>
<!-- Node2 -->
<g id="node2" class="node"><title>Node2</title>
<g id="a_node2"><a xlink:title=" ">
<polygon fill="none" stroke="#bfbfbf" points="0,-149.5 0,-206.5 35,-206.5 35,-149.5 0,-149.5"/>
<text text-anchor="middle" x="17.5" y="-194.5" font-family="Helvetica,sans-Serif" font-size="10.00">char</text>
<polyline fill="none" stroke="#bfbfbf" points="0,-187.5 35,-187.5 "/>
<text text-anchor="middle" x="17.5" y="-175.5" font-family="Helvetica,sans-Serif" font-size="10.00"> </text>
<polyline fill="none" stroke="#bfbfbf" points="0,-168.5 35,-168.5 "/>
<text text-anchor="middle" x="17.5" y="-156.5" font-family="Helvetica,sans-Serif" font-size="10.00"> </text>
</a>
</g>
</g>
<!-- Node2&#45;&gt;Node1 -->
<g id="edge1" class="edge"><title>Node2&#45;&gt;Node1</title>
<path fill="none" stroke="#404040" d="M17.7596,-149.152C19.2016,-130.112 23.7033,-105.138 36.5,-87 39.0671,-83.3615 41.9806,-79.9305 45.1436,-76.7024"/>
<polygon fill="none" stroke="#404040" points="45.1499,-76.6967 46.9016,-69.7016 54.0323,-68.6281 52.2807,-75.6232 45.1499,-76.6967"/>
<text text-anchor="middle" x="76.5" y="-90" font-family="Helvetica,sans-Serif" font-size="10.00"> +UnknownData00</text>
</g>
<!-- Node3 -->
<g id="node3" class="node"><title>Node3</title>
<g id="a_node3"><a xlink:title=" ">
<polygon fill="none" stroke="#bfbfbf" points="103,-149.5 103,-206.5 138,-206.5 138,-149.5 103,-149.5"/>
<text text-anchor="middle" x="120.5" y="-194.5" font-family="Helvetica,sans-Serif" font-size="10.00">float</text>
<polyline fill="none" stroke="#bfbfbf" points="103,-187.5 138,-187.5 "/>
<text text-anchor="middle" x="120.5" y="-175.5" font-family="Helvetica,sans-Serif" font-size="10.00"> </text>
<polyline fill="none" stroke="#bfbfbf" points="103,-168.5 138,-168.5 "/>
<text text-anchor="middle" x="120.5" y="-156.5" font-family="Helvetica,sans-Serif" font-size="10.00"> </text>
</a>
</g>
</g>
<!-- Node3&#45;&gt;Node1 -->
<g id="edge2" class="edge"><title>Node3&#45;&gt;Node1</title>
<path fill="none" stroke="#404040" d="M120.5,-149.381C120.5,-129.837 120.5,-103.193 120.5,-80.5898"/>
<polygon fill="none" stroke="#404040" points="120.5,-80.5192 116.5,-74.5192 120.5,-68.5192 124.5,-74.5192 120.5,-80.5192"/>
<text text-anchor="middle" x="167.5" y="-90" font-family="Helvetica,sans-Serif" font-size="10.00"> +MaxDistanceCheck</text>
</g>
<!-- Node4 -->
<g id="node4" class="node"><title>Node4</title>
<g id="a_node4"><a xlink:href="a25635.html" target="_top" xlink:title=" ">
<polygon fill="none" stroke="black" points="158.5,-116.5 158.5,-239.5 316.5,-239.5 316.5,-116.5 158.5,-116.5"/>
<text text-anchor="start" x="166.5" y="-227.5" font-family="Helvetica,sans-Serif" font-size="10.00">SDK::TEnumAsByte&lt; ECollision</text>
<text text-anchor="middle" x="237.5" y="-216.5" font-family="Helvetica,sans-Serif" font-size="10.00">Channel &gt;</text>
<polyline fill="none" stroke="black" points="158.5,-209.5 316.5,-209.5 "/>
<text text-anchor="middle" x="237.5" y="-197.5" font-family="Helvetica,sans-Serif" font-size="10.00"> </text>
<polyline fill="none" stroke="black" points="158.5,-190.5 316.5,-190.5 "/>
<text text-anchor="start" x="166.5" y="-178.5" font-family="Helvetica,sans-Serif" font-size="10.00">+ TEnumAsByte()</text>
<text text-anchor="start" x="166.5" y="-167.5" font-family="Helvetica,sans-Serif" font-size="10.00">+ TEnumAsByte()</text>
<text text-anchor="start" x="166.5" y="-156.5" font-family="Helvetica,sans-Serif" font-size="10.00">+ TEnumAsByte()</text>
<text text-anchor="start" x="166.5" y="-145.5" font-family="Helvetica,sans-Serif" font-size="10.00">+ TEnumAsByte()</text>
<text text-anchor="start" x="166.5" y="-134.5" font-family="Helvetica,sans-Serif" font-size="10.00">+ operator ECollisionChannel()</text>
<text text-anchor="start" x="166.5" y="-123.5" font-family="Helvetica,sans-Serif" font-size="10.00">+ GetValue()</text>
</a>
</g>
</g>
<!-- Node4&#45;&gt;Node1 -->
<g id="edge3" class="edge"><title>Node4&#45;&gt;Node1</title>
<path fill="none" stroke="#404040" d="M229.993,-116.222C226.724,-105.766 222.081,-95.5342 215.5,-87 212.7,-83.3694 209.57,-79.9627 206.196,-76.7702"/>
<polygon fill="none" stroke="#404040" points="205.935,-76.5498 198.769,-75.7391 196.762,-68.8131 203.927,-69.6238 205.935,-76.5498"/>
<text text-anchor="middle" x="253.5" y="-90" font-family="Helvetica,sans-Serif" font-size="10.00"> +HitsChannel</text>
</g>
</g>
</svg>
