<?xml version="1.0" encoding="UTF-8" standalone="no"?>
<!DOCTYPE svg PUBLIC "-//W3C//DTD SVG 1.1//EN"
 "http://www.w3.org/Graphics/SVG/1.1/DTD/svg11.dtd">
<!-- Generated by graphviz version 2.38.0 (20140413.2041)
 -->
<!-- Title: SDK::FWeightedRewardDistribution Pages: 1 -->
<svg width="265pt" height="226pt"
 viewBox="0.00 0.00 265.00 226.00" xmlns="http://www.w3.org/2000/svg" xmlns:xlink="http://www.w3.org/1999/xlink">
<g id="graph0" class="graph" transform="scale(1 1) rotate(0) translate(4 222)">
<title>SDK::FWeightedRewardDistribution</title>
<!-- Node1 -->
<g id="node1" class="node"><title>Node1</title>
<g id="a_node1"><a xlink:title=" ">
<polygon fill="#bfbfbf" stroke="black" points="50.5,-0.5 50.5,-57.5 221.5,-57.5 221.5,-0.5 50.5,-0.5"/>
<text text-anchor="middle" x="136" y="-45.5" font-family="Helvetica,sans-Serif" font-size="10.00">SDK::FWeightedRewardDistribution</text>
<polyline fill="none" stroke="black" points="50.5,-38.5 221.5,-38.5 "/>
<text text-anchor="middle" x="136" y="-26.5" font-family="Helvetica,sans-Serif" font-size="10.00"> </text>
<polyline fill="none" stroke="black" points="50.5,-19.5 221.5,-19.5 "/>
<text text-anchor="middle" x="136" y="-7.5" font-family="Helvetica,sans-Serif" font-size="10.00"> </text>
</a>
</g>
</g>
<!-- Node2 -->
<g id="node2" class="node"><title>Node2</title>
<g id="a_node2"><a xlink:href="a25611.html" target="_top" xlink:title=" ">
<polygon fill="none" stroke="black" points="0,-105.5 0,-217.5 158,-217.5 158,-105.5 0,-105.5"/>
<text text-anchor="start" x="8" y="-205.5" font-family="Helvetica,sans-Serif" font-size="10.00">SDK::TArray&lt; struct</text>
<text text-anchor="middle" x="79" y="-194.5" font-family="Helvetica,sans-Serif" font-size="10.00"> SDK::FWeightedRewardEntry &gt;</text>
<polyline fill="none" stroke="black" points="0,-187.5 158,-187.5 "/>
<text text-anchor="middle" x="79" y="-175.5" font-family="Helvetica,sans-Serif" font-size="10.00"> </text>
<polyline fill="none" stroke="black" points="0,-168.5 158,-168.5 "/>
<text text-anchor="start" x="8" y="-156.5" font-family="Helvetica,sans-Serif" font-size="10.00">+ TArray()</text>
<text text-anchor="start" x="8" y="-145.5" font-family="Helvetica,sans-Serif" font-size="10.00">+ Num()</text>
<text text-anchor="start" x="8" y="-134.5" font-family="Helvetica,sans-Serif" font-size="10.00">+ operator[]()</text>
<text text-anchor="start" x="8" y="-123.5" font-family="Helvetica,sans-Serif" font-size="10.00">+ operator[]()</text>
<text text-anchor="start" x="8" y="-112.5" font-family="Helvetica,sans-Serif" font-size="10.00">+ IsValidIndex()</text>
</a>
</g>
</g>
<!-- Node2&#45;&gt;Node1 -->
<g id="edge1" class="edge"><title>Node2&#45;&gt;Node1</title>
<path fill="none" stroke="#404040" d="M73.6444,-105.263C74.4977,-95.1655 76.669,-84.9896 81,-76 82.5449,-72.7934 84.4308,-69.7292 86.5624,-66.8157"/>
<polygon fill="none" stroke="#404040" points="86.7674,-66.5786 87.6666,-59.4237 94.6169,-57.5019 93.7177,-64.6568 86.7674,-66.5786"/>
<text text-anchor="middle" x="126.5" y="-79" font-family="Helvetica,sans-Serif" font-size="10.00"> +RewardWeightings</text>
</g>
<!-- Node3 -->
<g id="node3" class="node"><title>Node3</title>
<g id="a_node3"><a xlink:title=" ">
<polygon fill="none" stroke="#bfbfbf" points="176.5,-133 176.5,-190 211.5,-190 211.5,-133 176.5,-133"/>
<text text-anchor="middle" x="194" y="-178" font-family="Helvetica,sans-Serif" font-size="10.00">char</text>
<polyline fill="none" stroke="#bfbfbf" points="176.5,-171 211.5,-171 "/>
<text text-anchor="middle" x="194" y="-159" font-family="Helvetica,sans-Serif" font-size="10.00"> </text>
<polyline fill="none" stroke="#bfbfbf" points="176.5,-152 211.5,-152 "/>
<text text-anchor="middle" x="194" y="-140" font-family="Helvetica,sans-Serif" font-size="10.00"> </text>
</a>
</g>
</g>
<!-- Node3&#45;&gt;Node1 -->
<g id="edge2" class="edge"><title>Node3&#45;&gt;Node1</title>
<path fill="none" stroke="#404040" d="M189.76,-132.854C186.444,-115.841 180.872,-93.9357 172,-76 170.643,-73.256 169.105,-70.5196 167.448,-67.827"/>
<polygon fill="none" stroke="#404040" points="167.338,-67.6646 160.658,-64.9472 160.598,-57.7364 167.277,-60.4537 167.338,-67.6646"/>
<text text-anchor="middle" x="217" y="-79" font-family="Helvetica,sans-Serif" font-size="10.00"> +UnknownData00</text>
</g>
</g>
</svg>
