<?xml version="1.0" encoding="UTF-8" standalone="no"?>
<!DOCTYPE svg PUBLIC "-//W3C//DTD SVG 1.1//EN"
 "http://www.w3.org/Graphics/SVG/1.1/DTD/svg11.dtd">
<!-- Generated by graphviz version 2.38.0 (20140413.2041)
 -->
<!-- Title: SDK::FAthenaAIEngageEnemyData Pages: 1 -->
<svg width="350pt" height="298pt"
 viewBox="0.00 0.00 350.29 298.00" xmlns="http://www.w3.org/2000/svg" xmlns:xlink="http://www.w3.org/1999/xlink">
<g id="graph0" class="graph" transform="scale(1 1) rotate(0) translate(4 294)">
<title>SDK::FAthenaAIEngageEnemyData</title>
<!-- Node1 -->
<g id="node1" class="node"><title>Node1</title>
<g id="a_node1"><a xlink:title=" ">
<polygon fill="#bfbfbf" stroke="black" points="55.7881,-0.5 55.7881,-57.5 228.788,-57.5 228.788,-0.5 55.7881,-0.5"/>
<text text-anchor="middle" x="142.288" y="-45.5" font-family="Helvetica,sans-Serif" font-size="10.00">SDK::FAthenaAIEngageEnemyData</text>
<polyline fill="none" stroke="black" points="55.7881,-38.5 228.788,-38.5 "/>
<text text-anchor="middle" x="142.288" y="-26.5" font-family="Helvetica,sans-Serif" font-size="10.00"> </text>
<polyline fill="none" stroke="black" points="55.7881,-19.5 228.788,-19.5 "/>
<text text-anchor="middle" x="142.288" y="-7.5" font-family="Helvetica,sans-Serif" font-size="10.00"> </text>
</a>
</g>
</g>
<!-- Node2 -->
<g id="node2" class="node"><title>Node2</title>
<g id="a_node2"><a xlink:title=" ">
<polygon fill="none" stroke="#bfbfbf" points="30.7881,-232.5 30.7881,-289.5 65.7881,-289.5 65.7881,-232.5 30.7881,-232.5"/>
<text text-anchor="middle" x="48.2881" y="-277.5" font-family="Helvetica,sans-Serif" font-size="10.00">char</text>
<polyline fill="none" stroke="#bfbfbf" points="30.7881,-270.5 65.7881,-270.5 "/>
<text text-anchor="middle" x="48.2881" y="-258.5" font-family="Helvetica,sans-Serif" font-size="10.00"> </text>
<polyline fill="none" stroke="#bfbfbf" points="30.7881,-251.5 65.7881,-251.5 "/>
<text text-anchor="middle" x="48.2881" y="-239.5" font-family="Helvetica,sans-Serif" font-size="10.00"> </text>
</a>
</g>
</g>
<!-- Node2&#45;&gt;Node1 -->
<g id="edge1" class="edge"><title>Node2&#45;&gt;Node1</title>
<path fill="none" stroke="#404040" d="M30.6205,-233.627C11.418,-201.351 -13.5426,-145.949 10.2881,-105 20.2239,-87.927 35.6553,-74.4225 52.5131,-63.8604"/>
<polygon fill="none" stroke="#404040" points="52.7889,-63.6997 55.9594,-57.223 63.1574,-57.6586 59.9868,-64.1353 52.7889,-63.6997"/>
<text text-anchor="middle" x="50.2881" y="-142.5" font-family="Helvetica,sans-Serif" font-size="10.00"> +UnknownData00</text>
</g>
<!-- Node4 -->
<g id="node4" class="node"><title>Node4</title>
<g id="a_node4"><a xlink:href="a25915.html" target="_top" xlink:title=" ">
<polygon fill="none" stroke="red" points="99.7881,-105.5 99.7881,-184.5 218.788,-184.5 218.788,-105.5 99.7881,-105.5"/>
<text text-anchor="middle" x="159.288" y="-172.5" font-family="Helvetica,sans-Serif" font-size="10.00">SDK::UClass</text>
<polyline fill="none" stroke="red" points="99.7881,-165.5 218.788,-165.5 "/>
<text text-anchor="middle" x="159.288" y="-153.5" font-family="Helvetica,sans-Serif" font-size="10.00"> </text>
<polyline fill="none" stroke="red" points="99.7881,-146.5 218.788,-146.5 "/>
<text text-anchor="start" x="107.788" y="-134.5" font-family="Helvetica,sans-Serif" font-size="10.00">+ CreateDefaultObject()</text>
<text text-anchor="start" x="107.788" y="-123.5" font-family="Helvetica,sans-Serif" font-size="10.00">+ CreateDefaultObject()</text>
<text text-anchor="start" x="107.788" y="-112.5" font-family="Helvetica,sans-Serif" font-size="10.00">+ StaticClass()</text>
</a>
</g>
</g>
<!-- Node2&#45;&gt;Node4 -->
<g id="edge4" class="edge"><title>Node2&#45;&gt;Node4</title>
<path fill="none" stroke="#404040" d="M65.8763,-241.936C78.5782,-228.891 96.3548,-210.634 112.995,-193.544"/>
<polygon fill="none" stroke="#404040" points="113.189,-193.344 114.509,-186.255 121.561,-184.747 120.241,-191.836 113.189,-193.344"/>
<text text-anchor="middle" x="144.288" y="-206" font-family="Helvetica,sans-Serif" font-size="10.00"> +UnknownData00</text>
</g>
<!-- Node3 -->
<g id="node3" class="node"><title>Node3</title>
<g id="a_node3"><a xlink:title=" ">
<polygon fill="none" stroke="#bfbfbf" points="253.788,-116.5 253.788,-173.5 288.788,-173.5 288.788,-116.5 253.788,-116.5"/>
<text text-anchor="middle" x="271.288" y="-161.5" font-family="Helvetica,sans-Serif" font-size="10.00">float</text>
<polyline fill="none" stroke="#bfbfbf" points="253.788,-154.5 288.788,-154.5 "/>
<text text-anchor="middle" x="271.288" y="-142.5" font-family="Helvetica,sans-Serif" font-size="10.00"> </text>
<polyline fill="none" stroke="#bfbfbf" points="253.788,-135.5 288.788,-135.5 "/>
<text text-anchor="middle" x="271.288" y="-123.5" font-family="Helvetica,sans-Serif" font-size="10.00"> </text>
</a>
</g>
</g>
<!-- Node3&#45;&gt;Node1 -->
<g id="edge2" class="edge"><title>Node3&#45;&gt;Node1</title>
<path fill="none" stroke="#404040" d="M267.822,-116.473C264.867,-102.897 259.399,-87.0989 249.288,-76 245.407,-71.7399 241.064,-67.8581 236.41,-64.3234"/>
<polygon fill="none" stroke="#404040" points="236.384,-64.3052 229.173,-64.23 226.469,-57.5451 233.68,-57.6202 236.384,-64.3052"/>
<text text-anchor="middle" x="299.788" y="-79" font-family="Helvetica,sans-Serif" font-size="10.00"> +BestTargetRange</text>
</g>
<!-- Node4&#45;&gt;Node1 -->
<g id="edge3" class="edge"><title>Node4&#45;&gt;Node1</title>
<path fill="none" stroke="#404040" d="M147.009,-105.347C145.492,-99.262 144.168,-93 143.288,-87 142.483,-81.5085 141.982,-75.6877 141.692,-69.9454"/>
<polygon fill="none" stroke="#404040" points="141.684,-69.6538 137.521,-63.766 141.354,-57.6583 145.518,-63.5462 141.684,-69.6538"/>
<text text-anchor="middle" x="196.288" y="-79" font-family="Helvetica,sans-Serif" font-size="10.00"> +EngageEnemyMethod</text>
</g>
</g>
</svg>
