<?xml version="1.0" encoding="UTF-8" standalone="no"?>
<!DOCTYPE svg PUBLIC "-//W3C//DTD SVG 1.1//EN"
 "http://www.w3.org/Graphics/SVG/1.1/DTD/svg11.dtd">
<!-- Generated by graphviz version 2.38.0 (20140413.2041)
 -->
<!-- Title: SDK::FWeightedItemDescSpawnData Pages: 1 -->
<svg width="552pt" height="226pt"
 viewBox="0.00 0.00 552.00 226.00" xmlns="http://www.w3.org/2000/svg" xmlns:xlink="http://www.w3.org/1999/xlink">
<g id="graph0" class="graph" transform="scale(1 1) rotate(0) translate(4 222)">
<title>SDK::FWeightedItemDescSpawnData</title>
<!-- Node1 -->
<g id="node1" class="node"><title>Node1</title>
<g id="a_node1"><a xlink:title=" ">
<polygon fill="#bfbfbf" stroke="black" points="154.5,-0.5 154.5,-57.5 335.5,-57.5 335.5,-0.5 154.5,-0.5"/>
<text text-anchor="middle" x="245" y="-45.5" font-family="Helvetica,sans-Serif" font-size="10.00">SDK::FWeightedItemDescSpawnData</text>
<polyline fill="none" stroke="black" points="154.5,-38.5 335.5,-38.5 "/>
<text text-anchor="middle" x="245" y="-26.5" font-family="Helvetica,sans-Serif" font-size="10.00"> </text>
<polyline fill="none" stroke="black" points="154.5,-19.5 335.5,-19.5 "/>
<text text-anchor="middle" x="245" y="-7.5" font-family="Helvetica,sans-Serif" font-size="10.00"> </text>
</a>
</g>
</g>
<!-- Node2 -->
<g id="node2" class="node"><title>Node2</title>
<g id="a_node2"><a xlink:href="a25839.html" target="_top" xlink:title=" ">
<polygon fill="none" stroke="red" points="0,-105.5 0,-217.5 106,-217.5 106,-105.5 0,-105.5"/>
<text text-anchor="middle" x="53" y="-205.5" font-family="Helvetica,sans-Serif" font-size="10.00">SDK::FName</text>
<polyline fill="none" stroke="red" points="0,-198.5 106,-198.5 "/>
<text text-anchor="middle" x="53" y="-186.5" font-family="Helvetica,sans-Serif" font-size="10.00"> </text>
<polyline fill="none" stroke="red" points="0,-179.5 106,-179.5 "/>
<text text-anchor="start" x="8" y="-167.5" font-family="Helvetica,sans-Serif" font-size="10.00">+ FName()</text>
<text text-anchor="start" x="8" y="-156.5" font-family="Helvetica,sans-Serif" font-size="10.00">+ FName()</text>
<text text-anchor="start" x="8" y="-145.5" font-family="Helvetica,sans-Serif" font-size="10.00">+ FName()</text>
<text text-anchor="start" x="8" y="-134.5" font-family="Helvetica,sans-Serif" font-size="10.00">+ GetName()</text>
<text text-anchor="start" x="8" y="-123.5" font-family="Helvetica,sans-Serif" font-size="10.00">+ operator==()</text>
<text text-anchor="start" x="8" y="-112.5" font-family="Helvetica,sans-Serif" font-size="10.00">+ GetGlobalNames()</text>
</a>
</g>
</g>
<!-- Node2&#45;&gt;Node1 -->
<g id="edge1" class="edge"><title>Node2&#45;&gt;Node1</title>
<path fill="none" stroke="#404040" d="M74.9645,-105.449C81.3756,-94.5115 89.3284,-83.962 99,-76 111.795,-65.4664 127.021,-57.3351 142.733,-51.0607"/>
<polygon fill="none" stroke="#404040" points="142.976,-50.971 147.218,-45.1396 154.233,-46.8124 149.991,-52.6438 142.976,-50.971"/>
<text text-anchor="middle" x="120.5" y="-79" font-family="Helvetica,sans-Serif" font-size="10.00"> +Feature</text>
</g>
<!-- Node5 -->
<g id="node3" class="node"><title>Node5</title>
<g id="a_node3"><a xlink:title=" ">
<polygon fill="none" stroke="#bfbfbf" points="124.5,-133 124.5,-190 159.5,-190 159.5,-133 124.5,-133"/>
<text text-anchor="middle" x="142" y="-178" font-family="Helvetica,sans-Serif" font-size="10.00">char</text>
<polyline fill="none" stroke="#bfbfbf" points="124.5,-171 159.5,-171 "/>
<text text-anchor="middle" x="142" y="-159" font-family="Helvetica,sans-Serif" font-size="10.00"> </text>
<polyline fill="none" stroke="#bfbfbf" points="124.5,-152 159.5,-152 "/>
<text text-anchor="middle" x="142" y="-140" font-family="Helvetica,sans-Serif" font-size="10.00"> </text>
</a>
</g>
</g>
<!-- Node5&#45;&gt;Node1 -->
<g id="edge2" class="edge"><title>Node5&#45;&gt;Node1</title>
<path fill="none" stroke="#404040" d="M138.474,-132.646C137.698,-114.921 139.576,-92.3144 151,-76 153.658,-72.2049 156.718,-68.7095 160.076,-65.4917"/>
<polygon fill="none" stroke="#404040" points="160.345,-65.2679 162.41,-58.3587 169.582,-57.6072 167.517,-64.5164 160.345,-65.2679"/>
<text text-anchor="middle" x="191" y="-79" font-family="Helvetica,sans-Serif" font-size="10.00"> +UnknownData00</text>
</g>
<!-- Node6 -->
<g id="node4" class="node"><title>Node6</title>
<g id="a_node4"><a xlink:title=" ">
<polygon fill="none" stroke="#bfbfbf" points="202.5,-133 202.5,-190 237.5,-190 237.5,-133 202.5,-133"/>
<text text-anchor="middle" x="220" y="-178" font-family="Helvetica,sans-Serif" font-size="10.00">float</text>
<polyline fill="none" stroke="#bfbfbf" points="202.5,-171 237.5,-171 "/>
<text text-anchor="middle" x="220" y="-159" font-family="Helvetica,sans-Serif" font-size="10.00"> </text>
<polyline fill="none" stroke="#bfbfbf" points="202.5,-152 237.5,-152 "/>
<text text-anchor="middle" x="220" y="-140" font-family="Helvetica,sans-Serif" font-size="10.00"> </text>
</a>
</g>
</g>
<!-- Node6&#45;&gt;Node1 -->
<g id="edge3" class="edge"><title>Node6&#45;&gt;Node1</title>
<path fill="none" stroke="#404040" d="M225.302,-132.824C228.832,-114.398 233.524,-89.907 237.443,-69.4494"/>
<polygon fill="none" stroke="#404040" points="237.448,-69.4215 234.648,-62.776 239.706,-57.6358 242.505,-64.2813 237.448,-69.4215"/>
<text text-anchor="middle" x="256" y="-79" font-family="Helvetica,sans-Serif" font-size="10.00"> +Weight</text>
</g>
<!-- Node7 -->
<g id="node5" class="node"><title>Node7</title>
<g id="a_node5"><a xlink:href="a25823.html" target="_top" xlink:title=" ">
<polygon fill="none" stroke="black" points="256,-105.5 256,-217.5 408,-217.5 408,-105.5 256,-105.5"/>
<text text-anchor="start" x="264" y="-205.5" font-family="Helvetica,sans-Serif" font-size="10.00">SDK::TArray&lt; class</text>
<text text-anchor="middle" x="332" y="-194.5" font-family="Helvetica,sans-Serif" font-size="10.00"> SDK::USpawnRequirement * &gt;</text>
<polyline fill="none" stroke="black" points="256,-187.5 408,-187.5 "/>
<text text-anchor="middle" x="332" y="-175.5" font-family="Helvetica,sans-Serif" font-size="10.00"> </text>
<polyline fill="none" stroke="black" points="256,-168.5 408,-168.5 "/>
<text text-anchor="start" x="264" y="-156.5" font-family="Helvetica,sans-Serif" font-size="10.00">+ TArray()</text>
<text text-anchor="start" x="264" y="-145.5" font-family="Helvetica,sans-Serif" font-size="10.00">+ Num()</text>
<text text-anchor="start" x="264" y="-134.5" font-family="Helvetica,sans-Serif" font-size="10.00">+ operator[]()</text>
<text text-anchor="start" x="264" y="-123.5" font-family="Helvetica,sans-Serif" font-size="10.00">+ operator[]()</text>
<text text-anchor="start" x="264" y="-112.5" font-family="Helvetica,sans-Serif" font-size="10.00">+ IsValidIndex()</text>
</a>
</g>
</g>
<!-- Node7&#45;&gt;Node1 -->
<g id="edge4" class="edge"><title>Node7&#45;&gt;Node1</title>
<path fill="none" stroke="#404040" d="M299.211,-105.448C292.999,-95.5345 286.429,-85.3764 280,-76 278.149,-73.2998 276.201,-70.5408 274.211,-67.7818"/>
<polygon fill="none" stroke="#404040" points="274.042,-67.553 267.262,-65.0985 266.919,-57.8955 273.7,-60.35 274.042,-67.553"/>
<text text-anchor="middle" x="322" y="-79" font-family="Helvetica,sans-Serif" font-size="10.00"> +Requirements</text>
</g>
<!-- Node8 -->
<g id="node6" class="node"><title>Node8</title>
<g id="a_node6"><a xlink:href="a00563.html" target="_top" xlink:title=" ">
<polygon fill="none" stroke="red" points="426,-133 426,-190 544,-190 544,-133 426,-133"/>
<text text-anchor="middle" x="485" y="-178" font-family="Helvetica,sans-Serif" font-size="10.00">SDK::UItemSpawnData</text>
<polyline fill="none" stroke="red" points="426,-171 544,-171 "/>
<text text-anchor="middle" x="485" y="-159" font-family="Helvetica,sans-Serif" font-size="10.00"> </text>
<polyline fill="none" stroke="red" points="426,-152 544,-152 "/>
<text text-anchor="start" x="434" y="-140" font-family="Helvetica,sans-Serif" font-size="10.00">+ StaticClass()</text>
</a>
</g>
</g>
<!-- Node8&#45;&gt;Node1 -->
<g id="edge5" class="edge"><title>Node8&#45;&gt;Node1</title>
<path fill="none" stroke="#404040" d="M453.871,-132.826C442.636,-123.459 429.609,-113.282 417,-105 391.633,-88.3378 361.95,-73.8701 334.452,-62.2064"/>
<polygon fill="none" stroke="#404040" points="334.31,-62.1477 327.235,-63.5415 323.227,-57.5467 330.302,-56.1529 334.31,-62.1477"/>
<text text-anchor="middle" x="426" y="-79" font-family="Helvetica,sans-Serif" font-size="10.00"> +ItemSpawnData</text>
</g>
</g>
</svg>
