<?xml version="1.0" encoding="UTF-8" standalone="no"?>
<!DOCTYPE svg PUBLIC "-//W3C//DTD SVG 1.1//EN"
 "http://www.w3.org/Graphics/SVG/1.1/DTD/svg11.dtd">
<!-- Generated by graphviz version 2.38.0 (20140413.2041)
 -->
<!-- Title: SDK::FGameEventSettings Pages: 1 -->
<!--zoomable 320 -->
<svg id="main" version="1.1" xmlns="http://www.w3.org/2000/svg" xmlns:xlink="http://www.w3.org/1999/xlink" xml:space="preserve" onload="init(evt)">
<style type="text/css"><![CDATA[
.edge:hover path { stroke: red; }
.edge:hover polygon { stroke: red; fill: red; }
]]></style>
<script type="text/javascript"><![CDATA[
var edges = document.getElementsByTagName('g');
if (edges && edges.length) {
  for (var i=0;i<edges.length;i++) {
    if (edges[i].id.substr(0,4)=='edge') {
      edges[i].setAttribute('class','edge');
    }
  }
}
]]></script>
        <defs>
                <circle id="rim" cx="0" cy="0" r="7"/>
                <circle id="rim2" cx="0" cy="0" r="3.5"/>
                <g id="zoomPlus">
                        <use xlink:href="#rim" fill="#404040">
                                <set attributeName="fill" to="#808080" begin="zoomplus.mouseover" end="zoomplus.mouseout"/>
                        </use>
                        <path d="M-4,0h8M0,-4v8" fill="none" stroke="white" stroke-width="1.5" pointer-events="none"/>
                </g>
                <g id="zoomMin">
                        <use xlink:href="#rim" fill="#404040">
                                <set attributeName="fill" to="#808080" begin="zoomminus.mouseover" end="zoomminus.mouseout"/>
                        </use>
                        <path d="M-4,0h8" fill="none" stroke="white" stroke-width="1.5" pointer-events="none"/>
                </g>
                <g id="dirArrow">
                        <path fill="none" stroke="white" stroke-width="1.5" d="M0,-3.0v7 M-2.5,-0.5L0,-3.0L2.5,-0.5"/>
                </g>
               <g id="resetDef">
                       <use xlink:href="#rim2" fill="#404040">
                               <set attributeName="fill" to="#808080" begin="reset.mouseover" end="reset.mouseout"/>
                       </use>
               </g>
        </defs>

<script type="text/javascript">
var viewWidth = 583;
var viewHeight = 320;
var sectionId = 'dynsection-0';
</script>
<script xlink:href="svgpan.js"/>
<svg id="graph" class="graph">
<g id="viewport">
<title>SDK::FGameEventSettings</title>
<!-- Node1 -->
<g id="node1" class="node"><title>Node1</title>
<g id="a_node1"><a xlink:title=" ">
<polygon fill="#bfbfbf" stroke="black" points="253.5,-0.5 253.5,-57.5 388.5,-57.5 388.5,-0.5 253.5,-0.5"/>
<text text-anchor="middle" x="321" y="-45.5" font-family="Helvetica,sans-Serif" font-size="10.00">SDK::FGameEventSettings</text>
<polyline fill="none" stroke="black" points="253.5,-38.5 388.5,-38.5 "/>
<text text-anchor="middle" x="321" y="-26.5" font-family="Helvetica,sans-Serif" font-size="10.00"> </text>
<polyline fill="none" stroke="black" points="253.5,-19.5 388.5,-19.5 "/>
<text text-anchor="middle" x="321" y="-7.5" font-family="Helvetica,sans-Serif" font-size="10.00"> </text>
</a>
</g>
</g>
<!-- Node2 -->
<g id="node2" class="node"><title>Node2</title>
<g id="a_node2"><a xlink:href="a32947.html" target="_top" xlink:title=" ">
<polygon fill="none" stroke="red" points="0,-133 0,-201 136,-201 136,-133 0,-133"/>
<text text-anchor="start" x="8" y="-189" font-family="Helvetica,sans-Serif" font-size="10.00">SDK::FWeightedProbability</text>
<text text-anchor="middle" x="68" y="-178" font-family="Helvetica,sans-Serif" font-size="10.00">RangeOfRanges</text>
<polyline fill="none" stroke="red" points="0,-171 136,-171 "/>
<text text-anchor="middle" x="68" y="-159" font-family="Helvetica,sans-Serif" font-size="10.00"> </text>
<polyline fill="none" stroke="red" points="0,-152 136,-152 "/>
<text text-anchor="middle" x="68" y="-140" font-family="Helvetica,sans-Serif" font-size="10.00"> </text>
</a>
</g>
</g>
<!-- Node2&#45;&gt;Node1 -->
<g id="edge1" class="edge"><title>Node2&#45;&gt;Node1</title>
<path fill="none" stroke="#404040" d="M61.0562,-132.675C59.1609,-113.834 60.5795,-91.0987 74,-76 95.8471,-51.4209 177.646,-39.8377 241.195,-34.4681"/>
<polygon fill="none" stroke="#404040" points="241.272,-34.4621 246.934,-29.9965 253.234,-33.5056 247.572,-37.9711 241.272,-34.4621"/>
<text text-anchor="middle" x="116" y="-101" font-family="Helvetica,sans-Serif" font-size="10.00"> +SpawnTime</text>
<text text-anchor="middle" x="116" y="-90" font-family="Helvetica,sans-Serif" font-size="10.00">+RegenInterval</text>
<text text-anchor="middle" x="116" y="-79" font-family="Helvetica,sans-Serif" font-size="10.00">+FirstRegenInterval</text>
</g>
<!-- Node4 -->
<g id="node3" class="node"><title>Node4</title>
<g id="a_node3"><a xlink:title=" ">
<polygon fill="none" stroke="#bfbfbf" points="201.5,-254.5 201.5,-311.5 236.5,-311.5 236.5,-254.5 201.5,-254.5"/>
<text text-anchor="middle" x="219" y="-299.5" font-family="Helvetica,sans-Serif" font-size="10.00">char</text>
<polyline fill="none" stroke="#bfbfbf" points="201.5,-292.5 236.5,-292.5 "/>
<text text-anchor="middle" x="219" y="-280.5" font-family="Helvetica,sans-Serif" font-size="10.00"> </text>
<polyline fill="none" stroke="#bfbfbf" points="201.5,-273.5 236.5,-273.5 "/>
<text text-anchor="middle" x="219" y="-261.5" font-family="Helvetica,sans-Serif" font-size="10.00"> </text>
</a>
</g>
</g>
<!-- Node4&#45;&gt;Node1 -->
<g id="edge2" class="edge"><title>Node4&#45;&gt;Node1</title>
<path fill="none" stroke="#404040" d="M201.454,-255.119C182.935,-223.065 159.212,-168.603 181,-127 195.107,-100.064 220.47,-79.116 245.77,-63.6922"/>
<polygon fill="none" stroke="#404040" points="245.821,-63.6628 248.997,-57.1887 256.195,-57.6304 253.019,-64.1044 245.821,-63.6628"/>
<text text-anchor="middle" x="221" y="-170" font-family="Helvetica,sans-Serif" font-size="10.00"> +UnknownData01</text>
<text text-anchor="middle" x="221" y="-159" font-family="Helvetica,sans-Serif" font-size="10.00">+UnknownData00</text>
</g>
<!-- Node10 -->
<g id="node6" class="node"><title>Node10</title>
<g id="a_node6"><a xlink:href="a25915.html" target="_top" xlink:title=" ">
<polygon fill="none" stroke="red" points="270.5,-127.5 270.5,-206.5 389.5,-206.5 389.5,-127.5 270.5,-127.5"/>
<text text-anchor="middle" x="330" y="-194.5" font-family="Helvetica,sans-Serif" font-size="10.00">SDK::UClass</text>
<polyline fill="none" stroke="red" points="270.5,-187.5 389.5,-187.5 "/>
<text text-anchor="middle" x="330" y="-175.5" font-family="Helvetica,sans-Serif" font-size="10.00"> </text>
<polyline fill="none" stroke="red" points="270.5,-168.5 389.5,-168.5 "/>
<text text-anchor="start" x="278.5" y="-156.5" font-family="Helvetica,sans-Serif" font-size="10.00">+ CreateDefaultObject()</text>
<text text-anchor="start" x="278.5" y="-145.5" font-family="Helvetica,sans-Serif" font-size="10.00">+ CreateDefaultObject()</text>
<text text-anchor="start" x="278.5" y="-134.5" font-family="Helvetica,sans-Serif" font-size="10.00">+ StaticClass()</text>
</a>
</g>
</g>
<!-- Node4&#45;&gt;Node10 -->
<g id="edge6" class="edge"><title>Node4&#45;&gt;Node10</title>
<path fill="none" stroke="#404040" d="M236.588,-263.936C249.29,-250.891 267.067,-232.634 283.707,-215.544"/>
<polygon fill="none" stroke="#404040" points="283.901,-215.344 285.221,-208.255 292.273,-206.747 290.953,-213.836 283.901,-215.344"/>
<text text-anchor="middle" x="315" y="-228" font-family="Helvetica,sans-Serif" font-size="10.00"> +UnknownData00</text>
</g>
<!-- Node8 -->
<g id="node4" class="node"><title>Node8</title>
<g id="a_node4"><a xlink:title=" ">
<polygon fill="none" stroke="#bfbfbf" points="407.5,-138.5 407.5,-195.5 442.5,-195.5 442.5,-138.5 407.5,-138.5"/>
<text text-anchor="middle" x="425" y="-183.5" font-family="Helvetica,sans-Serif" font-size="10.00">float</text>
<polyline fill="none" stroke="#bfbfbf" points="407.5,-176.5 442.5,-176.5 "/>
<text text-anchor="middle" x="425" y="-164.5" font-family="Helvetica,sans-Serif" font-size="10.00"> </text>
<polyline fill="none" stroke="#bfbfbf" points="407.5,-157.5 442.5,-157.5 "/>
<text text-anchor="middle" x="425" y="-145.5" font-family="Helvetica,sans-Serif" font-size="10.00"> </text>
</a>
</g>
</g>
<!-- Node8&#45;&gt;Node1 -->
<g id="edge3" class="edge"><title>Node8&#45;&gt;Node1</title>
<path fill="none" stroke="#404040" d="M423.933,-138.355C421.925,-119.167 416.622,-93.9318 403,-76 400.084,-72.1615 396.75,-68.5965 393.132,-65.2929"/>
<polygon fill="none" stroke="#404040" points="392.965,-65.158 385.785,-64.4959 383.634,-57.6129 390.815,-58.275 392.965,-65.158"/>
<text text-anchor="middle" x="461.5" y="-101" font-family="Helvetica,sans-Serif" font-size="10.00"> +InertCancelTime</text>
<text text-anchor="middle" x="461.5" y="-90" font-family="Helvetica,sans-Serif" font-size="10.00">+RepeatQueryTime</text>
<text text-anchor="middle" x="461.5" y="-79" font-family="Helvetica,sans-Serif" font-size="10.00">+InertQueryTime</text>
</g>
<!-- Node9 -->
<g id="node5" class="node"><title>Node9</title>
<g id="a_node5"><a xlink:title=" ">
<polygon fill="none" stroke="#bfbfbf" points="515.5,-138.5 515.5,-195.5 550.5,-195.5 550.5,-138.5 515.5,-138.5"/>
<text text-anchor="middle" x="533" y="-183.5" font-family="Helvetica,sans-Serif" font-size="10.00">bool</text>
<polyline fill="none" stroke="#bfbfbf" points="515.5,-176.5 550.5,-176.5 "/>
<text text-anchor="middle" x="533" y="-164.5" font-family="Helvetica,sans-Serif" font-size="10.00"> </text>
<polyline fill="none" stroke="#bfbfbf" points="515.5,-157.5 550.5,-157.5 "/>
<text text-anchor="middle" x="533" y="-145.5" font-family="Helvetica,sans-Serif" font-size="10.00"> </text>
</a>
</g>
</g>
<!-- Node9&#45;&gt;Node1 -->
<g id="edge4" class="edge"><title>Node9&#45;&gt;Node1</title>
<path fill="none" stroke="#404040" d="M532.413,-138.315C530.49,-118.342 524.64,-92.1519 508,-76 492.343,-60.8018 444.035,-49.1429 400.443,-41.3654"/>
<polygon fill="none" stroke="#404040" points="400.426,-41.3627 393.834,-44.2854 388.601,-39.3244 395.193,-36.4016 400.426,-41.3627"/>
<text text-anchor="middle" x="551" y="-90" font-family="Helvetica,sans-Serif" font-size="10.00"> +Required</text>
</g>
<!-- Node10&#45;&gt;Node1 -->
<g id="edge5" class="edge"><title>Node10&#45;&gt;Node1</title>
<path fill="none" stroke="#404040" d="M323.913,-127.439C323.137,-121.285 322.456,-114.978 322,-109 321.031,-96.2806 320.634,-82.3768 320.521,-69.8277"/>
<polygon fill="none" stroke="#404040" points="320.521,-69.8242 316.507,-63.8337 320.493,-57.8242 324.507,-63.8147 320.521,-69.8242"/>
<text text-anchor="middle" x="362.5" y="-90" font-family="Helvetica,sans-Serif" font-size="10.00"> +GameEventType</text>
</g>
</g>
</svg>
        <g id="navigator" transform="translate(0 0)" fill="#404254">
                <rect fill="#f2f5e9" fill-opacity="0.5" stroke="#606060" stroke-width=".5" x="0" y="0" width="60" height="60"/>
                <use id="zoomplus" xlink:href="#zoomPlus" x="17" y="9" onmousedown="handleZoom(evt,'in')"/>
                <use id="zoomminus" xlink:href="#zoomMin" x="42" y="9" onmousedown="handleZoom(evt,'out')"/>
                <use id="reset" xlink:href="#resetDef" x="30" y="36" onmousedown="handleReset()"/>
                <g id="arrowUp" xlink:href="#dirArrow" transform="translate(30 24)" onmousedown="handlePan(0,-1)">
                  <use xlink:href="#rim" fill="#404040">
                        <set attributeName="fill" to="#808080" begin="arrowUp.mouseover" end="arrowUp.mouseout"/>
                  </use>
                  <path fill="none" stroke="white" stroke-width="1.5" d="M0,-3.0v7 M-2.5,-0.5L0,-3.0L2.5,-0.5"/>
                </g>
                <g id="arrowRight" xlink:href="#dirArrow" transform="rotate(90) translate(36 -43)" onmousedown="handlePan(1,0)">
                  <use xlink:href="#rim" fill="#404040">
                        <set attributeName="fill" to="#808080" begin="arrowRight.mouseover" end="arrowRight.mouseout"/>
                  </use>
                  <path fill="none" stroke="white" stroke-width="1.5" d="M0,-3.0v7 M-2.5,-0.5L0,-3.0L2.5,-0.5"/>
                </g>
                <g id="arrowDown" xlink:href="#dirArrow" transform="rotate(180) translate(-30 -48)" onmousedown="handlePan(0,1)">
                  <use xlink:href="#rim" fill="#404040">
                        <set attributeName="fill" to="#808080" begin="arrowDown.mouseover" end="arrowDown.mouseout"/>
                  </use>
                  <path fill="none" stroke="white" stroke-width="1.5" d="M0,-3.0v7 M-2.5,-0.5L0,-3.0L2.5,-0.5"/>
                </g>
                <g id="arrowLeft" xlink:href="#dirArrow" transform="rotate(270) translate(-36 17)" onmousedown="handlePan(-1,0)">
                  <use xlink:href="#rim" fill="#404040">
                        <set attributeName="fill" to="#808080" begin="arrowLeft.mouseover" end="arrowLeft.mouseout"/>
                  </use>
                  <path fill="none" stroke="white" stroke-width="1.5" d="M0,-3.0v7 M-2.5,-0.5L0,-3.0L2.5,-0.5"/>
                </g>
        </g>
        <svg viewBox="0 0 15 15" width="100%" height="30px" preserveAspectRatio="xMaxYMin meet">
         <g id="arrow_out" transform="scale(0.3 0.3)">
          <a xlink:href="a16129_org.svg" target="_base">
           <rect id="button" ry="5" rx="5" y="6" x="6" height="38" width="38"
                fill="#f2f5e9" fill-opacity="0.5" stroke="#606060" stroke-width="1.0"/>
           <path id="arrow"
             d="M 11.500037,31.436501 C 11.940474,20.09759 22.043105,11.32322 32.158766,21.979434 L 37.068811,17.246167 C 37.068811,17.246167 37.088388,32 37.088388,32 L 22.160133,31.978069 C 22.160133,31.978069 26.997745,27.140456 26.997745,27.140456 C 18.528582,18.264221 13.291696,25.230495 11.500037,31.436501 z"
             style="fill:#404040;"/>
          </a>
         </g>
        </svg>
</svg>
