<?xml version="1.0" encoding="UTF-8" standalone="no"?>
<!DOCTYPE svg PUBLIC "-//W3C//DTD SVG 1.1//EN"
 "http://www.w3.org/Graphics/SVG/1.1/DTD/svg11.dtd">
<!-- Generated by graphviz version 2.38.0 (20140413.2041)
 -->
<!-- Title: SDK::FWeightedItemDescSpawnDataAssetWithWeight Pages: 1 -->
<!--zoomable 204 -->
<svg id="main" version="1.1" xmlns="http://www.w3.org/2000/svg" xmlns:xlink="http://www.w3.org/1999/xlink" xml:space="preserve" onload="init(evt)">
<style type="text/css"><![CDATA[
.edge:hover path { stroke: red; }
.edge:hover polygon { stroke: red; fill: red; }
]]></style>
<script type="text/javascript"><![CDATA[
var edges = document.getElementsByTagName('g');
if (edges && edges.length) {
  for (var i=0;i<edges.length;i++) {
    if (edges[i].id.substr(0,4)=='edge') {
      edges[i].setAttribute('class','edge');
    }
  }
}
]]></script>
        <defs>
                <circle id="rim" cx="0" cy="0" r="7"/>
                <circle id="rim2" cx="0" cy="0" r="3.5"/>
                <g id="zoomPlus">
                        <use xlink:href="#rim" fill="#404040">
                                <set attributeName="fill" to="#808080" begin="zoomplus.mouseover" end="zoomplus.mouseout"/>
                        </use>
                        <path d="M-4,0h8M0,-4v8" fill="none" stroke="white" stroke-width="1.5" pointer-events="none"/>
                </g>
                <g id="zoomMin">
                        <use xlink:href="#rim" fill="#404040">
                                <set attributeName="fill" to="#808080" begin="zoomminus.mouseover" end="zoomminus.mouseout"/>
                        </use>
                        <path d="M-4,0h8" fill="none" stroke="white" stroke-width="1.5" pointer-events="none"/>
                </g>
                <g id="dirArrow">
                        <path fill="none" stroke="white" stroke-width="1.5" d="M0,-3.0v7 M-2.5,-0.5L0,-3.0L2.5,-0.5"/>
                </g>
               <g id="resetDef">
                       <use xlink:href="#rim2" fill="#404040">
                               <set attributeName="fill" to="#808080" begin="reset.mouseover" end="reset.mouseout"/>
                       </use>
               </g>
        </defs>

<script type="text/javascript">
var viewWidth = 605;
var viewHeight = 204;
var sectionId = 'dynsection-0';
</script>
<script xlink:href="svgpan.js"/>
<svg id="graph" class="graph">
<g id="viewport">
<title>SDK::FWeightedItemDescSpawnDataAssetWithWeight</title>
<!-- Node1 -->
<g id="node1" class="node"><title>Node1</title>
<g id="a_node1"><a xlink:title=" ">
<polygon fill="#bfbfbf" stroke="black" points="103,-0.5 103,-68.5 264,-68.5 264,-0.5 103,-0.5"/>
<text text-anchor="start" x="111" y="-56.5" font-family="Helvetica,sans-Serif" font-size="10.00">SDK::FWeightedItemDescSpawn</text>
<text text-anchor="middle" x="183.5" y="-45.5" font-family="Helvetica,sans-Serif" font-size="10.00">DataAssetWithWeight</text>
<polyline fill="none" stroke="black" points="103,-38.5 264,-38.5 "/>
<text text-anchor="middle" x="183.5" y="-26.5" font-family="Helvetica,sans-Serif" font-size="10.00"> </text>
<polyline fill="none" stroke="black" points="103,-19.5 264,-19.5 "/>
<text text-anchor="middle" x="183.5" y="-7.5" font-family="Helvetica,sans-Serif" font-size="10.00"> </text>
</a>
</g>
</g>
<!-- Node2 -->
<g id="node2" class="node"><title>Node2</title>
<g id="a_node2"><a xlink:title=" ">
<polygon fill="none" stroke="#bfbfbf" points="0,-133 0,-190 35,-190 35,-133 0,-133"/>
<text text-anchor="middle" x="17.5" y="-178" font-family="Helvetica,sans-Serif" font-size="10.00">char</text>
<polyline fill="none" stroke="#bfbfbf" points="0,-171 35,-171 "/>
<text text-anchor="middle" x="17.5" y="-159" font-family="Helvetica,sans-Serif" font-size="10.00"> </text>
<polyline fill="none" stroke="#bfbfbf" points="0,-152 35,-152 "/>
<text text-anchor="middle" x="17.5" y="-140" font-family="Helvetica,sans-Serif" font-size="10.00"> </text>
</a>
</g>
</g>
<!-- Node2&#45;&gt;Node1 -->
<g id="edge1" class="edge"><title>Node2&#45;&gt;Node1</title>
<path fill="none" stroke="#404040" d="M23.0255,-132.986C27.3673,-117.689 34.8673,-99.3141 47.5,-87 59.9124,-74.9006 75.4488,-65.5869 91.5409,-58.435"/>
<polygon fill="none" stroke="#404040" points="91.6436,-58.3927 95.6674,-52.4086 102.739,-53.8213 98.715,-59.8054 91.6436,-58.3927"/>
<text text-anchor="middle" x="87.5" y="-101" font-family="Helvetica,sans-Serif" font-size="10.00"> +UnknownData01</text>
<text text-anchor="middle" x="87.5" y="-90" font-family="Helvetica,sans-Serif" font-size="10.00">+UnknownData00</text>
</g>
<!-- Node3 -->
<g id="node3" class="node"><title>Node3</title>
<g id="a_node3"><a xlink:title=" ">
<polygon fill="none" stroke="#bfbfbf" points="103,-133 103,-190 138,-190 138,-133 103,-133"/>
<text text-anchor="middle" x="120.5" y="-178" font-family="Helvetica,sans-Serif" font-size="10.00">float</text>
<polyline fill="none" stroke="#bfbfbf" points="103,-171 138,-171 "/>
<text text-anchor="middle" x="120.5" y="-159" font-family="Helvetica,sans-Serif" font-size="10.00"> </text>
<polyline fill="none" stroke="#bfbfbf" points="103,-152 138,-152 "/>
<text text-anchor="middle" x="120.5" y="-140" font-family="Helvetica,sans-Serif" font-size="10.00"> </text>
</a>
</g>
</g>
<!-- Node3&#45;&gt;Node1 -->
<g id="edge2" class="edge"><title>Node3&#45;&gt;Node1</title>
<path fill="none" stroke="#404040" d="M124.564,-132.891C127.412,-118.624 132.075,-101.262 139.5,-87 141.001,-84.1168 142.691,-81.2559 144.511,-78.446"/>
<polygon fill="none" stroke="#404040" points="144.603,-78.3165 144.83,-71.1089 151.57,-68.5458 151.344,-75.7534 144.603,-78.3165"/>
<text text-anchor="middle" x="159.5" y="-95.5" font-family="Helvetica,sans-Serif" font-size="10.00"> +Weight</text>
</g>
<!-- Node4 -->
<g id="node4" class="node"><title>Node4</title>
<g id="a_node4"><a xlink:title=" ">
<polygon fill="none" stroke="#bfbfbf" points="169,-133 169,-190 198,-190 198,-133 169,-133"/>
<text text-anchor="middle" x="183.5" y="-178" font-family="Helvetica,sans-Serif" font-size="10.00">int</text>
<polyline fill="none" stroke="#bfbfbf" points="169,-171 198,-171 "/>
<text text-anchor="middle" x="183.5" y="-159" font-family="Helvetica,sans-Serif" font-size="10.00"> </text>
<polyline fill="none" stroke="#bfbfbf" points="169,-152 198,-152 "/>
<text text-anchor="middle" x="183.5" y="-140" font-family="Helvetica,sans-Serif" font-size="10.00"> </text>
</a>
</g>
</g>
<!-- Node4&#45;&gt;Node1 -->
<g id="edge3" class="edge"><title>Node4&#45;&gt;Node1</title>
<path fill="none" stroke="#404040" d="M183.5,-132.758C183.5,-117.594 183.5,-98.4278 183.5,-81.1261"/>
<polygon fill="none" stroke="#404040" points="183.5,-80.9412 179.5,-74.9413 183.5,-68.9412 187.5,-74.9412 183.5,-80.9412"/>
<text text-anchor="middle" x="244.5" y="-95.5" font-family="Helvetica,sans-Serif" font-size="10.00"> +MaxTimesCanBeSelected</text>
</g>
<!-- Node5 -->
<g id="node5" class="node"><title>Node5</title>
<g id="a_node5"><a xlink:title=" ">
<polygon fill="none" stroke="#bfbfbf" points="311,-133 311,-190 346,-190 346,-133 311,-133"/>
<text text-anchor="middle" x="328.5" y="-178" font-family="Helvetica,sans-Serif" font-size="10.00">bool</text>
<polyline fill="none" stroke="#bfbfbf" points="311,-171 346,-171 "/>
<text text-anchor="middle" x="328.5" y="-159" font-family="Helvetica,sans-Serif" font-size="10.00"> </text>
<polyline fill="none" stroke="#bfbfbf" points="311,-152 346,-152 "/>
<text text-anchor="middle" x="328.5" y="-140" font-family="Helvetica,sans-Serif" font-size="10.00"> </text>
</a>
</g>
</g>
<!-- Node5&#45;&gt;Node1 -->
<g id="edge4" class="edge"><title>Node5&#45;&gt;Node1</title>
<path fill="none" stroke="#404040" d="M325.989,-132.9C323.316,-117.764 317.813,-99.5766 306.5,-87 297.728,-77.2485 286.815,-69.2909 275.137,-62.8107"/>
<polygon fill="none" stroke="#404040" points="274.933,-62.7068 267.771,-63.5515 264.237,-57.2658 271.399,-56.4211 274.933,-62.7068"/>
<text text-anchor="middle" x="375" y="-95.5" font-family="Helvetica,sans-Serif" font-size="10.00"> +LimitMaxSpawnedItems</text>
</g>
<!-- Node6 -->
<g id="node6" class="node"><title>Node6</title>
<g id="a_node6"><a xlink:href="a11143.html" target="_top" xlink:title=" ">
<polygon fill="none" stroke="red" points="384,-127.5 384,-195.5 545,-195.5 545,-127.5 384,-127.5"/>
<text text-anchor="start" x="392" y="-183.5" font-family="Helvetica,sans-Serif" font-size="10.00">SDK::UWeightedItemDescSpawn</text>
<text text-anchor="middle" x="464.5" y="-172.5" font-family="Helvetica,sans-Serif" font-size="10.00">DataAsset</text>
<polyline fill="none" stroke="red" points="384,-165.5 545,-165.5 "/>
<text text-anchor="middle" x="464.5" y="-153.5" font-family="Helvetica,sans-Serif" font-size="10.00"> </text>
<polyline fill="none" stroke="red" points="384,-146.5 545,-146.5 "/>
<text text-anchor="start" x="392" y="-134.5" font-family="Helvetica,sans-Serif" font-size="10.00">+ StaticClass()</text>
</a>
</g>
</g>
<!-- Node6&#45;&gt;Node1 -->
<g id="edge5" class="edge"><title>Node6&#45;&gt;Node1</title>
<path fill="none" stroke="#404040" d="M458.795,-127.401C454.662,-113.004 447.583,-97.1421 435.5,-87 411.451,-66.8143 337.783,-53.2652 276.265,-45.1525"/>
<polygon fill="none" stroke="#404040" points="276.045,-45.1245 269.586,-48.331 264.142,-43.6021 270.601,-40.3956 276.045,-45.1245"/>
<text text-anchor="middle" x="524" y="-95.5" font-family="Helvetica,sans-Serif" font-size="10.00"> +WeightedItemSpawnDataAsset</text>
</g>
</g>
</svg>
        <g id="navigator" transform="translate(0 0)" fill="#404254">
                <rect fill="#f2f5e9" fill-opacity="0.5" stroke="#606060" stroke-width=".5" x="0" y="0" width="60" height="60"/>
                <use id="zoomplus" xlink:href="#zoomPlus" x="17" y="9" onmousedown="handleZoom(evt,'in')"/>
                <use id="zoomminus" xlink:href="#zoomMin" x="42" y="9" onmousedown="handleZoom(evt,'out')"/>
                <use id="reset" xlink:href="#resetDef" x="30" y="36" onmousedown="handleReset()"/>
                <g id="arrowUp" xlink:href="#dirArrow" transform="translate(30 24)" onmousedown="handlePan(0,-1)">
                  <use xlink:href="#rim" fill="#404040">
                        <set attributeName="fill" to="#808080" begin="arrowUp.mouseover" end="arrowUp.mouseout"/>
                  </use>
                  <path fill="none" stroke="white" stroke-width="1.5" d="M0,-3.0v7 M-2.5,-0.5L0,-3.0L2.5,-0.5"/>
                </g>
                <g id="arrowRight" xlink:href="#dirArrow" transform="rotate(90) translate(36 -43)" onmousedown="handlePan(1,0)">
                  <use xlink:href="#rim" fill="#404040">
                        <set attributeName="fill" to="#808080" begin="arrowRight.mouseover" end="arrowRight.mouseout"/>
                  </use>
                  <path fill="none" stroke="white" stroke-width="1.5" d="M0,-3.0v7 M-2.5,-0.5L0,-3.0L2.5,-0.5"/>
                </g>
                <g id="arrowDown" xlink:href="#dirArrow" transform="rotate(180) translate(-30 -48)" onmousedown="handlePan(0,1)">
                  <use xlink:href="#rim" fill="#404040">
                        <set attributeName="fill" to="#808080" begin="arrowDown.mouseover" end="arrowDown.mouseout"/>
                  </use>
                  <path fill="none" stroke="white" stroke-width="1.5" d="M0,-3.0v7 M-2.5,-0.5L0,-3.0L2.5,-0.5"/>
                </g>
                <g id="arrowLeft" xlink:href="#dirArrow" transform="rotate(270) translate(-36 17)" onmousedown="handlePan(-1,0)">
                  <use xlink:href="#rim" fill="#404040">
                        <set attributeName="fill" to="#808080" begin="arrowLeft.mouseover" end="arrowLeft.mouseout"/>
                  </use>
                  <path fill="none" stroke="white" stroke-width="1.5" d="M0,-3.0v7 M-2.5,-0.5L0,-3.0L2.5,-0.5"/>
                </g>
        </g>
        <svg viewBox="0 0 15 15" width="100%" height="30px" preserveAspectRatio="xMaxYMin meet">
         <g id="arrow_out" transform="scale(0.3 0.3)">
          <a xlink:href="a16281_org.svg" target="_base">
           <rect id="button" ry="5" rx="5" y="6" x="6" height="38" width="38"
                fill="#f2f5e9" fill-opacity="0.5" stroke="#606060" stroke-width="1.0"/>
           <path id="arrow"
             d="M 11.500037,31.436501 C 11.940474,20.09759 22.043105,11.32322 32.158766,21.979434 L 37.068811,17.246167 C 37.068811,17.246167 37.088388,32 37.088388,32 L 22.160133,31.978069 C 22.160133,31.978069 26.997745,27.140456 26.997745,27.140456 C 18.528582,18.264221 13.291696,25.230495 11.500037,31.436501 z"
             style="fill:#404040;"/>
          </a>
         </g>
        </svg>
</svg>
