<?xml version="1.0" encoding="UTF-8" standalone="no"?>
<!DOCTYPE svg PUBLIC "-//W3C//DTD SVG 1.1//EN"
 "http://www.w3.org/Graphics/SVG/1.1/DTD/svg11.dtd">
<!-- Generated by graphviz version 2.38.0 (20140413.2041)
 -->
<!-- Title: SDK::FAllowedInteractableTypes Pages: 1 -->
<svg width="284pt" height="193pt"
 viewBox="0.00 0.00 283.50 193.00" xmlns="http://www.w3.org/2000/svg" xmlns:xlink="http://www.w3.org/1999/xlink">
<g id="graph0" class="graph" transform="scale(1 1) rotate(0) translate(4 189)">
<title>SDK::FAllowedInteractableTypes</title>
<!-- Node1 -->
<g id="node1" class="node"><title>Node1</title>
<g id="a_node1"><a xlink:title=" ">
<polygon fill="#bfbfbf" stroke="black" points="66,-0.5 66,-68.5 199,-68.5 199,-0.5 66,-0.5"/>
<text text-anchor="start" x="74" y="-56.5" font-family="Helvetica,sans-Serif" font-size="10.00">SDK::FAllowedInteractable</text>
<text text-anchor="middle" x="132.5" y="-45.5" font-family="Helvetica,sans-Serif" font-size="10.00">Types</text>
<polyline fill="none" stroke="black" points="66,-38.5 199,-38.5 "/>
<text text-anchor="middle" x="132.5" y="-26.5" font-family="Helvetica,sans-Serif" font-size="10.00"> </text>
<polyline fill="none" stroke="black" points="66,-19.5 199,-19.5 "/>
<text text-anchor="middle" x="132.5" y="-7.5" font-family="Helvetica,sans-Serif" font-size="10.00"> </text>
</a>
</g>
</g>
<!-- Node2 -->
<g id="node2" class="node"><title>Node2</title>
<g id="a_node2"><a xlink:href="a25903.html" target="_top" xlink:title=" ">
<polygon fill="none" stroke="red" points="0,-116.5 0,-184.5 119,-184.5 119,-116.5 0,-116.5"/>
<text text-anchor="start" x="8" y="-172.5" font-family="Helvetica,sans-Serif" font-size="10.00">SDK::TAssetPtr&lt; class</text>
<text text-anchor="middle" x="59.5" y="-161.5" font-family="Helvetica,sans-Serif" font-size="10.00"> SDK::UClass &gt;</text>
<polyline fill="none" stroke="red" points="0,-154.5 119,-154.5 "/>
<text text-anchor="middle" x="59.5" y="-142.5" font-family="Helvetica,sans-Serif" font-size="10.00"> </text>
<polyline fill="none" stroke="red" points="0,-135.5 119,-135.5 "/>
<text text-anchor="middle" x="59.5" y="-123.5" font-family="Helvetica,sans-Serif" font-size="10.00"> </text>
</a>
</g>
</g>
<!-- Node2&#45;&gt;Node1 -->
<g id="edge1" class="edge"><title>Node2&#45;&gt;Node1</title>
<path fill="none" stroke="#404040" d="M80.8109,-116.22C88.3071,-104.514 96.8436,-91.1826 104.789,-78.7743"/>
<polygon fill="none" stroke="#404040" points="104.818,-78.7299 104.685,-71.52 111.289,-68.6243 111.422,-75.8342 104.818,-78.7299"/>
<text text-anchor="middle" x="125.5" y="-90" font-family="Helvetica,sans-Serif" font-size="10.00"> +ActorType</text>
</g>
<!-- Node9 -->
<g id="node3" class="node"><title>Node9</title>
<g id="a_node3"><a xlink:href="a30919.html" target="_top" xlink:title=" ">
<polygon fill="none" stroke="red" points="137.5,-122 137.5,-179 275.5,-179 275.5,-122 137.5,-122"/>
<text text-anchor="middle" x="206.5" y="-167" font-family="Helvetica,sans-Serif" font-size="10.00">SDK::FCollisionProfileName</text>
<polyline fill="none" stroke="red" points="137.5,-160 275.5,-160 "/>
<text text-anchor="middle" x="206.5" y="-148" font-family="Helvetica,sans-Serif" font-size="10.00"> </text>
<polyline fill="none" stroke="red" points="137.5,-141 275.5,-141 "/>
<text text-anchor="middle" x="206.5" y="-129" font-family="Helvetica,sans-Serif" font-size="10.00"> </text>
</a>
</g>
</g>
<!-- Node9&#45;&gt;Node1 -->
<g id="edge2" class="edge"><title>Node9&#45;&gt;Node1</title>
<path fill="none" stroke="#404040" d="M188.587,-121.904C180.188,-108.966 169.983,-93.244 160.592,-78.7765"/>
<polygon fill="none" stroke="#404040" points="160.469,-78.5867 153.847,-75.7319 153.935,-68.5214 160.557,-71.3761 160.469,-78.5867"/>
<text text-anchor="middle" x="222" y="-90" font-family="Helvetica,sans-Serif" font-size="10.00"> +CollisionProfileName</text>
</g>
</g>
</svg>
