<?xml version="1.0" encoding="UTF-8" standalone="no"?>
<!DOCTYPE svg PUBLIC "-//W3C//DTD SVG 1.1//EN"
 "http://www.w3.org/Graphics/SVG/1.1/DTD/svg11.dtd">
<!-- Generated by graphviz version 2.38.0 (20140413.2041)
 -->
<!-- Title: SDK::FEventPlayerSendOutDirectTextMessage Pages: 1 -->
<svg width="287pt" height="320pt"
 viewBox="0.00 0.00 286.50 320.00" xmlns="http://www.w3.org/2000/svg" xmlns:xlink="http://www.w3.org/1999/xlink">
<g id="graph0" class="graph" transform="scale(1 1) rotate(0) translate(4 316)">
<title>SDK::FEventPlayerSendOutDirectTextMessage</title>
<!-- Node1 -->
<g id="node1" class="node"><title>Node1</title>
<g id="a_node1"><a xlink:title=" ">
<polygon fill="#bfbfbf" stroke="black" points="0,-0.5 0,-68.5 139,-68.5 139,-0.5 0,-0.5"/>
<text text-anchor="start" x="8" y="-56.5" font-family="Helvetica,sans-Serif" font-size="10.00">SDK::FEventPlayerSendOut</text>
<text text-anchor="middle" x="69.5" y="-45.5" font-family="Helvetica,sans-Serif" font-size="10.00">DirectTextMessage</text>
<polyline fill="none" stroke="black" points="0,-38.5 139,-38.5 "/>
<text text-anchor="middle" x="69.5" y="-26.5" font-family="Helvetica,sans-Serif" font-size="10.00"> </text>
<polyline fill="none" stroke="black" points="0,-19.5 139,-19.5 "/>
<text text-anchor="middle" x="69.5" y="-7.5" font-family="Helvetica,sans-Serif" font-size="10.00"> </text>
</a>
</g>
</g>
<!-- Node2 -->
<g id="node2" class="node"><title>Node2</title>
<g id="a_node2"><a xlink:href="a25647.html" target="_top" xlink:title=" ">
<polygon fill="none" stroke="red" points="63.5,-254.5 63.5,-311.5 131.5,-311.5 131.5,-254.5 63.5,-254.5"/>
<text text-anchor="middle" x="97.5" y="-299.5" font-family="Helvetica,sans-Serif" font-size="10.00">SDK::FText</text>
<polyline fill="none" stroke="red" points="63.5,-292.5 131.5,-292.5 "/>
<text text-anchor="middle" x="97.5" y="-280.5" font-family="Helvetica,sans-Serif" font-size="10.00"> </text>
<polyline fill="none" stroke="red" points="63.5,-273.5 131.5,-273.5 "/>
<text text-anchor="middle" x="97.5" y="-261.5" font-family="Helvetica,sans-Serif" font-size="10.00"> </text>
</a>
</g>
</g>
<!-- Node2&#45;&gt;Node1 -->
<g id="edge1" class="edge"><title>Node2&#45;&gt;Node1</title>
<path fill="none" stroke="#404040" d="M80.9701,-254.194C73.7647,-240.489 66.1411,-223.413 62.5,-207 53.1594,-164.896 56.6172,-115.586 61.3879,-80.6735"/>
<polygon fill="none" stroke="#404040" points="61.432,-80.374 58.3507,-73.8543 63.1837,-68.5025 66.265,-75.0221 61.432,-80.374"/>
<text text-anchor="middle" x="87" y="-159" font-family="Helvetica,sans-Serif" font-size="10.00"> +Message</text>
</g>
<!-- Node4 -->
<g id="node3" class="node"><title>Node4</title>
<g id="a_node3"><a xlink:href="a02891.html" target="_top" xlink:title=" ">
<polygon fill="none" stroke="red" points="120.5,-116.5 120.5,-206.5 278.5,-206.5 278.5,-116.5 120.5,-116.5"/>
<text text-anchor="middle" x="199.5" y="-194.5" font-family="Helvetica,sans-Serif" font-size="10.00">SDK::AAthenaPlayerState</text>
<polyline fill="none" stroke="red" points="120.5,-187.5 278.5,-187.5 "/>
<text text-anchor="middle" x="199.5" y="-175.5" font-family="Helvetica,sans-Serif" font-size="10.00"> </text>
<polyline fill="none" stroke="red" points="120.5,-168.5 278.5,-168.5 "/>
<text text-anchor="start" x="128.5" y="-156.5" font-family="Helvetica,sans-Serif" font-size="10.00">+ OnRep_PlayerIndexOnServer()</text>
<text text-anchor="start" x="128.5" y="-145.5" font-family="Helvetica,sans-Serif" font-size="10.00">+ OnRep_PirateDescription()</text>
<text text-anchor="start" x="128.5" y="-134.5" font-family="Helvetica,sans-Serif" font-size="10.00">+ GetUniquePlayerId()</text>
<text text-anchor="start" x="128.5" y="-123.5" font-family="Helvetica,sans-Serif" font-size="10.00">+ StaticClass()</text>
</a>
</g>
</g>
<!-- Node2&#45;&gt;Node4 -->
<g id="edge3" class="edge"><title>Node2&#45;&gt;Node4</title>
<path fill="none" stroke="#404040" d="M121.157,-254.284C130.818,-242.966 142.337,-229.47 153.53,-216.357"/>
<polygon fill="none" stroke="#404040" points="153.801,-216.04 154.654,-208.879 161.591,-206.912 160.739,-214.073 153.801,-216.04"/>
<text text-anchor="middle" x="193.5" y="-228" font-family="Helvetica,sans-Serif" font-size="10.00"> +PlayerNameOverride</text>
</g>
<!-- Node4&#45;&gt;Node1 -->
<g id="edge2" class="edge"><title>Node4&#45;&gt;Node1</title>
<path fill="none" stroke="#404040" d="M153.667,-116.43C140.362,-103.637 125.881,-89.713 112.742,-77.0784"/>
<polygon fill="none" stroke="#404040" points="112.54,-76.8845 105.442,-75.6092 103.89,-68.5672 110.987,-69.8425 112.54,-76.8845"/>
<text text-anchor="middle" x="154.5" y="-90" font-family="Helvetica,sans-Serif" font-size="10.00"> +Sender</text>
</g>
</g>
</svg>
