<?xml version="1.0" encoding="UTF-8" standalone="no"?>
<!DOCTYPE svg PUBLIC "-//W3C//DTD SVG 1.1//EN"
 "http://www.w3.org/Graphics/SVG/1.1/DTD/svg11.dtd">
<!-- Generated by graphviz version 2.38.0 (20140413.2041)
 -->
<!-- Title: SDK::FCharacterFootImpactResult Pages: 1 -->
<!--zoomable 463 -->
<svg id="main" version="1.1" xmlns="http://www.w3.org/2000/svg" xmlns:xlink="http://www.w3.org/1999/xlink" xml:space="preserve" onload="init(evt)">
<style type="text/css"><![CDATA[
.edge:hover path { stroke: red; }
.edge:hover polygon { stroke: red; fill: red; }
]]></style>
<script type="text/javascript"><![CDATA[
var edges = document.getElementsByTagName('g');
if (edges && edges.length) {
  for (var i=0;i<edges.length;i++) {
    if (edges[i].id.substr(0,4)=='edge') {
      edges[i].setAttribute('class','edge');
    }
  }
}
]]></script>
        <defs>
                <circle id="rim" cx="0" cy="0" r="7"/>
                <circle id="rim2" cx="0" cy="0" r="3.5"/>
                <g id="zoomPlus">
                        <use xlink:href="#rim" fill="#404040">
                                <set attributeName="fill" to="#808080" begin="zoomplus.mouseover" end="zoomplus.mouseout"/>
                        </use>
                        <path d="M-4,0h8M0,-4v8" fill="none" stroke="white" stroke-width="1.5" pointer-events="none"/>
                </g>
                <g id="zoomMin">
                        <use xlink:href="#rim" fill="#404040">
                                <set attributeName="fill" to="#808080" begin="zoomminus.mouseover" end="zoomminus.mouseout"/>
                        </use>
                        <path d="M-4,0h8" fill="none" stroke="white" stroke-width="1.5" pointer-events="none"/>
                </g>
                <g id="dirArrow">
                        <path fill="none" stroke="white" stroke-width="1.5" d="M0,-3.0v7 M-2.5,-0.5L0,-3.0L2.5,-0.5"/>
                </g>
               <g id="resetDef">
                       <use xlink:href="#rim2" fill="#404040">
                               <set attributeName="fill" to="#808080" begin="reset.mouseover" end="reset.mouseout"/>
                       </use>
               </g>
        </defs>

<script type="text/javascript">
var viewWidth = 744;
var viewHeight = 463;
var sectionId = 'dynsection-0';
</script>
<script xlink:href="svgpan.js"/>
<svg id="graph" class="graph">
<g id="viewport">
<title>SDK::FCharacterFootImpactResult</title>
<!-- Node1 -->
<g id="node1" class="node"><title>Node1</title>
<g id="a_node1"><a xlink:title=" ">
<polygon fill="#bfbfbf" stroke="black" points="227.901,-0.5 227.901,-68.5 367.901,-68.5 367.901,-0.5 227.901,-0.5"/>
<text text-anchor="start" x="235.901" y="-56.5" font-family="Helvetica,sans-Serif" font-size="10.00">SDK::FCharacterFootImpact</text>
<text text-anchor="middle" x="297.901" y="-45.5" font-family="Helvetica,sans-Serif" font-size="10.00">Result</text>
<polyline fill="none" stroke="black" points="227.901,-38.5 367.901,-38.5 "/>
<text text-anchor="middle" x="297.901" y="-26.5" font-family="Helvetica,sans-Serif" font-size="10.00"> </text>
<polyline fill="none" stroke="black" points="227.901,-19.5 367.901,-19.5 "/>
<text text-anchor="middle" x="297.901" y="-7.5" font-family="Helvetica,sans-Serif" font-size="10.00"> </text>
</a>
</g>
</g>
<!-- Node2 -->
<g id="node2" class="node"><title>Node2</title>
<g id="a_node2"><a xlink:href="a26075.html" target="_top" xlink:title=" ">
<polygon fill="none" stroke="red" points="3.40053,-309.5 3.40053,-454.5 82.4005,-454.5 82.4005,-309.5 3.40053,-309.5"/>
<text text-anchor="middle" x="42.9005" y="-442.5" font-family="Helvetica,sans-Serif" font-size="10.00">SDK::FVector</text>
<polyline fill="none" stroke="red" points="3.40053,-435.5 82.4005,-435.5 "/>
<text text-anchor="middle" x="42.9005" y="-423.5" font-family="Helvetica,sans-Serif" font-size="10.00"> </text>
<polyline fill="none" stroke="red" points="3.40053,-416.5 82.4005,-416.5 "/>
<text text-anchor="start" x="11.4005" y="-404.5" font-family="Helvetica,sans-Serif" font-size="10.00">+ FVector()</text>
<text text-anchor="start" x="11.4005" y="-393.5" font-family="Helvetica,sans-Serif" font-size="10.00">+ FVector()</text>
<text text-anchor="start" x="11.4005" y="-382.5" font-family="Helvetica,sans-Serif" font-size="10.00">+ operator+()</text>
<text text-anchor="start" x="11.4005" y="-371.5" font-family="Helvetica,sans-Serif" font-size="10.00">+ operator&#45;()</text>
<text text-anchor="start" x="11.4005" y="-360.5" font-family="Helvetica,sans-Serif" font-size="10.00">+ operator*()</text>
<text text-anchor="start" x="11.4005" y="-349.5" font-family="Helvetica,sans-Serif" font-size="10.00">+ operator=()</text>
<text text-anchor="start" x="11.4005" y="-338.5" font-family="Helvetica,sans-Serif" font-size="10.00">+ operator+=()</text>
<text text-anchor="start" x="11.4005" y="-327.5" font-family="Helvetica,sans-Serif" font-size="10.00">+ operator&#45;=()</text>
<text text-anchor="start" x="11.4005" y="-316.5" font-family="Helvetica,sans-Serif" font-size="10.00">+ operator*=()</text>
</a>
</g>
</g>
<!-- Node2&#45;&gt;Node1 -->
<g id="edge1" class="edge"><title>Node2&#45;&gt;Node1</title>
<path fill="none" stroke="#404040" d="M15.6393,-309.375C-1.35782,-251.52 -13.0627,-170.958 27.9005,-116 50.5596,-85.5995 144.794,-62.4969 215.604,-49.0023"/>
<polygon fill="none" stroke="#404040" points="215.843,-48.9577 221.007,-43.9253 227.639,-46.7571 222.474,-51.7896 215.843,-48.9577"/>
<text text-anchor="middle" x="65.9005" y="-175.5" font-family="Helvetica,sans-Serif" font-size="10.00"> +SocketVelocity</text>
</g>
<!-- Node4 -->
<g id="node3" class="node"><title>Node4</title>
<g id="a_node3"><a xlink:href="a26191.html" target="_top" xlink:title=" ">
<polygon fill="none" stroke="red" points="112.901,-149.5 112.901,-206.5 204.901,-206.5 204.901,-149.5 112.901,-149.5"/>
<text text-anchor="middle" x="158.901" y="-194.5" font-family="Helvetica,sans-Serif" font-size="10.00">SDK::FTransform</text>
<polyline fill="none" stroke="red" points="112.901,-187.5 204.901,-187.5 "/>
<text text-anchor="middle" x="158.901" y="-175.5" font-family="Helvetica,sans-Serif" font-size="10.00"> </text>
<polyline fill="none" stroke="red" points="112.901,-168.5 204.901,-168.5 "/>
<text text-anchor="middle" x="158.901" y="-156.5" font-family="Helvetica,sans-Serif" font-size="10.00"> </text>
</a>
</g>
</g>
<!-- Node2&#45;&gt;Node4 -->
<g id="edge3" class="edge"><title>Node2&#45;&gt;Node4</title>
<path fill="none" stroke="#404040" d="M68.4363,-309.332C75.7226,-292.037 84.3206,-273.954 93.9005,-258 102.644,-243.439 113.925,-228.734 124.627,-216.023"/>
<polygon fill="none" stroke="#404040" points="124.808,-215.813 125.699,-208.658 132.647,-206.728 131.756,-213.884 124.808,-215.813"/>
<text text-anchor="middle" x="120.901" y="-277.5" font-family="Helvetica,sans-Serif" font-size="10.00"> +Scale3D</text>
<text text-anchor="middle" x="120.901" y="-266.5" font-family="Helvetica,sans-Serif" font-size="10.00">+Translation</text>
</g>
<!-- Node4&#45;&gt;Node1 -->
<g id="edge2" class="edge"><title>Node4&#45;&gt;Node1</title>
<path fill="none" stroke="#404040" d="M150.317,-149.354C146.134,-130.166 144.361,-104.93 156.901,-87 170.764,-67.1775 193.11,-54.959 215.965,-47.4364"/>
<polygon fill="none" stroke="#404040" points="216.046,-47.4125 220.667,-41.8761 227.554,-44.0117 222.934,-49.5481 216.046,-47.4125"/>
<text text-anchor="middle" x="198.401" y="-90" font-family="Helvetica,sans-Serif" font-size="10.00"> +SocketTransform</text>
</g>
<!-- Node5 -->
<g id="node4" class="node"><title>Node5</title>
<g id="a_node4"><a xlink:title=" ">
<polygon fill="none" stroke="#bfbfbf" points="236.401,-353.5 236.401,-410.5 271.401,-410.5 271.401,-353.5 236.401,-353.5"/>
<text text-anchor="middle" x="253.901" y="-398.5" font-family="Helvetica,sans-Serif" font-size="10.00">char</text>
<polyline fill="none" stroke="#bfbfbf" points="236.401,-391.5 271.401,-391.5 "/>
<text text-anchor="middle" x="253.901" y="-379.5" font-family="Helvetica,sans-Serif" font-size="10.00"> </text>
<polyline fill="none" stroke="#bfbfbf" points="236.401,-372.5 271.401,-372.5 "/>
<text text-anchor="middle" x="253.901" y="-360.5" font-family="Helvetica,sans-Serif" font-size="10.00"> </text>
</a>
</g>
</g>
<!-- Node5&#45;&gt;Node1 -->
<g id="edge5" class="edge"><title>Node5&#45;&gt;Node1</title>
<path fill="none" stroke="#404040" d="M251.49,-353.486C247.966,-304.863 243.741,-200.867 262.901,-116 265.644,-103.848 270.205,-91.2475 275.142,-79.725"/>
<polygon fill="none" stroke="#404040" points="275.217,-79.557 274.038,-72.443 280.151,-68.6181 281.331,-75.7321 275.217,-79.557"/>
<text text-anchor="middle" x="302.901" y="-175.5" font-family="Helvetica,sans-Serif" font-size="10.00"> +UnknownData00</text>
</g>
<!-- Node5&#45;&gt;Node4 -->
<g id="edge4" class="edge"><title>Node5&#45;&gt;Node4</title>
<path fill="none" stroke="#404040" d="M236.336,-370.571C213.755,-356.023 175.59,-327.293 159.901,-291 150.18,-268.515 149.784,-241.037 151.89,-218.926"/>
<polygon fill="none" stroke="#404040" points="151.899,-218.85 148.638,-212.418 153.32,-206.934 156.581,-213.365 151.899,-218.85"/>
<text text-anchor="middle" x="199.901" y="-277.5" font-family="Helvetica,sans-Serif" font-size="10.00"> +UnknownData01</text>
<text text-anchor="middle" x="199.901" y="-266.5" font-family="Helvetica,sans-Serif" font-size="10.00">+UnknownData00</text>
</g>
<!-- Node9 -->
<g id="node7" class="node"><title>Node9</title>
<g id="a_node7"><a xlink:href="a29919.html" target="_top" xlink:title=" ">
<polygon fill="none" stroke="red" points="352.401,-149.5 352.401,-206.5 441.401,-206.5 441.401,-149.5 352.401,-149.5"/>
<text text-anchor="middle" x="396.901" y="-194.5" font-family="Helvetica,sans-Serif" font-size="10.00">SDK::FHitResult</text>
<polyline fill="none" stroke="red" points="352.401,-187.5 441.401,-187.5 "/>
<text text-anchor="middle" x="396.901" y="-175.5" font-family="Helvetica,sans-Serif" font-size="10.00"> </text>
<polyline fill="none" stroke="red" points="352.401,-168.5 441.401,-168.5 "/>
<text text-anchor="middle" x="396.901" y="-156.5" font-family="Helvetica,sans-Serif" font-size="10.00"> </text>
</a>
</g>
</g>
<!-- Node5&#45;&gt;Node9 -->
<g id="edge9" class="edge"><title>Node5&#45;&gt;Node9</title>
<path fill="none" stroke="#404040" d="M264.831,-353.45C275.933,-327.374 294.763,-287.882 317.901,-258 325.222,-248.544 329.294,-248.303 337.901,-240 345.999,-232.187 354.517,-223.607 362.483,-215.412"/>
<polygon fill="none" stroke="#404040" points="362.531,-215.362 363.819,-208.266 370.864,-206.726 369.576,-213.821 362.531,-215.362"/>
<text text-anchor="middle" x="358.901" y="-283" font-family="Helvetica,sans-Serif" font-size="10.00"> +bBlockingHit</text>
<text text-anchor="middle" x="358.901" y="-272" font-family="Helvetica,sans-Serif" font-size="10.00">+bStartPenetrating</text>
<text text-anchor="middle" x="358.901" y="-261" font-family="Helvetica,sans-Serif" font-size="10.00">+UnknownData00</text>
</g>
<!-- Node7 -->
<g id="node5" class="node"><title>Node7</title>
<g id="a_node5"><a xlink:href="a25635.html" target="_top" xlink:title=" ">
<polygon fill="none" stroke="black" points="547.901,-116.5 547.901,-239.5 735.901,-239.5 735.901,-116.5 547.901,-116.5"/>
<text text-anchor="start" x="555.901" y="-227.5" font-family="Helvetica,sans-Serif" font-size="10.00">SDK::TEnumAsByte&lt; ECharacter</text>
<text text-anchor="middle" x="641.901" y="-216.5" font-family="Helvetica,sans-Serif" font-size="10.00">FootImpactType &gt;</text>
<polyline fill="none" stroke="black" points="547.901,-209.5 735.901,-209.5 "/>
<text text-anchor="middle" x="641.901" y="-197.5" font-family="Helvetica,sans-Serif" font-size="10.00"> </text>
<polyline fill="none" stroke="black" points="547.901,-190.5 735.901,-190.5 "/>
<text text-anchor="start" x="555.901" y="-178.5" font-family="Helvetica,sans-Serif" font-size="10.00">+ TEnumAsByte()</text>
<text text-anchor="start" x="555.901" y="-167.5" font-family="Helvetica,sans-Serif" font-size="10.00">+ TEnumAsByte()</text>
<text text-anchor="start" x="555.901" y="-156.5" font-family="Helvetica,sans-Serif" font-size="10.00">+ TEnumAsByte()</text>
<text text-anchor="start" x="555.901" y="-145.5" font-family="Helvetica,sans-Serif" font-size="10.00">+ TEnumAsByte()</text>
<text text-anchor="start" x="555.901" y="-134.5" font-family="Helvetica,sans-Serif" font-size="10.00">+ operator ECharacterFootImpactType()</text>
<text text-anchor="start" x="555.901" y="-123.5" font-family="Helvetica,sans-Serif" font-size="10.00">+ GetValue()</text>
</a>
</g>
</g>
<!-- Node7&#45;&gt;Node1 -->
<g id="edge6" class="edge"><title>Node7&#45;&gt;Node1</title>
<path fill="none" stroke="#404040" d="M550.019,-116.384C531.282,-105.608 511.342,-95.2184 491.901,-87 456.287,-71.9448 415.1,-60.2656 379.862,-51.864"/>
<polygon fill="none" stroke="#404040" points="379.844,-51.86 373.094,-54.3961 368.157,-49.1403 374.907,-46.6042 379.844,-51.86"/>
<text text-anchor="middle" x="553.401" y="-90" font-family="Helvetica,sans-Serif" font-size="10.00"> +FootImpactType</text>
</g>
<!-- Node8 -->
<g id="node6" class="node"><title>Node8</title>
<g id="a_node6"><a xlink:title=" ">
<polygon fill="none" stroke="#bfbfbf" points="425.401,-353.5 425.401,-410.5 454.401,-410.5 454.401,-353.5 425.401,-353.5"/>
<text text-anchor="middle" x="439.901" y="-398.5" font-family="Helvetica,sans-Serif" font-size="10.00">int</text>
<polyline fill="none" stroke="#bfbfbf" points="425.401,-391.5 454.401,-391.5 "/>
<text text-anchor="middle" x="439.901" y="-379.5" font-family="Helvetica,sans-Serif" font-size="10.00"> </text>
<polyline fill="none" stroke="#bfbfbf" points="425.401,-372.5 454.401,-372.5 "/>
<text text-anchor="middle" x="439.901" y="-360.5" font-family="Helvetica,sans-Serif" font-size="10.00"> </text>
</a>
</g>
</g>
<!-- Node8&#45;&gt;Node1 -->
<g id="edge7" class="edge"><title>Node8&#45;&gt;Node1</title>
<path fill="none" stroke="#404040" d="M450.698,-353.357C468.903,-301.764 499.155,-189.402 449.901,-116 433.083,-90.9375 405.851,-73.1168 379.05,-60.7262"/>
<polygon fill="none" stroke="#404040" points="379.021,-60.7138 371.922,-61.977 368.025,-55.9093 375.125,-54.6461 379.021,-60.7138"/>
<text text-anchor="middle" x="502.901" y="-175.5" font-family="Helvetica,sans-Serif" font-size="10.00"> +FootIndex</text>
</g>
<!-- Node8&#45;&gt;Node9 -->
<g id="edge10" class="edge"><title>Node8&#45;&gt;Node9</title>
<path fill="none" stroke="#404040" d="M428.619,-353.493C421.861,-335.908 413.681,-312.453 408.901,-291 403.639,-267.385 400.66,-240.437 398.987,-218.893"/>
<polygon fill="none" stroke="#404040" points="398.985,-218.869 394.575,-213.164 398.145,-206.898 402.555,-212.603 398.985,-218.869"/>
<text text-anchor="middle" x="436.401" y="-277.5" font-family="Helvetica,sans-Serif" font-size="10.00"> +FaceIndex</text>
<text text-anchor="middle" x="436.401" y="-266.5" font-family="Helvetica,sans-Serif" font-size="10.00">+Item</text>
</g>
<!-- Node9&#45;&gt;Node1 -->
<g id="edge8" class="edge"><title>Node9&#45;&gt;Node1</title>
<path fill="none" stroke="#404040" d="M377.577,-149.381C363.46,-129.204 344.048,-101.458 327.919,-78.4054"/>
<polygon fill="none" stroke="#404040" points="327.882,-78.3516 321.164,-75.7285 321.002,-68.5192 327.719,-71.1423 327.882,-78.3516"/>
<text text-anchor="middle" x="366.401" y="-90" font-family="Helvetica,sans-Serif" font-size="10.00"> +HitResult</text>
</g>
</g>
</svg>
        <g id="navigator" transform="translate(0 0)" fill="#404254">
                <rect fill="#f2f5e9" fill-opacity="0.5" stroke="#606060" stroke-width=".5" x="0" y="0" width="60" height="60"/>
                <use id="zoomplus" xlink:href="#zoomPlus" x="17" y="9" onmousedown="handleZoom(evt,'in')"/>
                <use id="zoomminus" xlink:href="#zoomMin" x="42" y="9" onmousedown="handleZoom(evt,'out')"/>
                <use id="reset" xlink:href="#resetDef" x="30" y="36" onmousedown="handleReset()"/>
                <g id="arrowUp" xlink:href="#dirArrow" transform="translate(30 24)" onmousedown="handlePan(0,-1)">
                  <use xlink:href="#rim" fill="#404040">
                        <set attributeName="fill" to="#808080" begin="arrowUp.mouseover" end="arrowUp.mouseout"/>
                  </use>
                  <path fill="none" stroke="white" stroke-width="1.5" d="M0,-3.0v7 M-2.5,-0.5L0,-3.0L2.5,-0.5"/>
                </g>
                <g id="arrowRight" xlink:href="#dirArrow" transform="rotate(90) translate(36 -43)" onmousedown="handlePan(1,0)">
                  <use xlink:href="#rim" fill="#404040">
                        <set attributeName="fill" to="#808080" begin="arrowRight.mouseover" end="arrowRight.mouseout"/>
                  </use>
                  <path fill="none" stroke="white" stroke-width="1.5" d="M0,-3.0v7 M-2.5,-0.5L0,-3.0L2.5,-0.5"/>
                </g>
                <g id="arrowDown" xlink:href="#dirArrow" transform="rotate(180) translate(-30 -48)" onmousedown="handlePan(0,1)">
                  <use xlink:href="#rim" fill="#404040">
                        <set attributeName="fill" to="#808080" begin="arrowDown.mouseover" end="arrowDown.mouseout"/>
                  </use>
                  <path fill="none" stroke="white" stroke-width="1.5" d="M0,-3.0v7 M-2.5,-0.5L0,-3.0L2.5,-0.5"/>
                </g>
                <g id="arrowLeft" xlink:href="#dirArrow" transform="rotate(270) translate(-36 17)" onmousedown="handlePan(-1,0)">
                  <use xlink:href="#rim" fill="#404040">
                        <set attributeName="fill" to="#808080" begin="arrowLeft.mouseover" end="arrowLeft.mouseout"/>
                  </use>
                  <path fill="none" stroke="white" stroke-width="1.5" d="M0,-3.0v7 M-2.5,-0.5L0,-3.0L2.5,-0.5"/>
                </g>
        </g>
        <svg viewBox="0 0 15 15" width="100%" height="30px" preserveAspectRatio="xMaxYMin meet">
         <g id="arrow_out" transform="scale(0.3 0.3)">
          <a xlink:href="a16941_org.svg" target="_base">
           <rect id="button" ry="5" rx="5" y="6" x="6" height="38" width="38"
                fill="#f2f5e9" fill-opacity="0.5" stroke="#606060" stroke-width="1.0"/>
           <path id="arrow"
             d="M 11.500037,31.436501 C 11.940474,20.09759 22.043105,11.32322 32.158766,21.979434 L 37.068811,17.246167 C 37.068811,17.246167 37.088388,32 37.088388,32 L 22.160133,31.978069 C 22.160133,31.978069 26.997745,27.140456 26.997745,27.140456 C 18.528582,18.264221 13.291696,25.230495 11.500037,31.436501 z"
             style="fill:#404040;"/>
          </a>
         </g>
        </svg>
</svg>
