<?xml version="1.0" encoding="UTF-8" standalone="no"?>
<!DOCTYPE svg PUBLIC "-//W3C//DTD SVG 1.1//EN"
 "http://www.w3.org/Graphics/SVG/1.1/DTD/svg11.dtd">
<!-- Generated by graphviz version 2.38.0 (20140413.2041)
 -->
<!-- Title: SDK::FNPCChat Pages: 1 -->
<svg width="392pt" height="259pt"
 viewBox="0.00 0.00 391.50 259.00" xmlns="http://www.w3.org/2000/svg" xmlns:xlink="http://www.w3.org/1999/xlink">
<g id="graph0" class="graph" transform="scale(1 1) rotate(0) translate(4 255)">
<title>SDK::FNPCChat</title>
<!-- Node1 -->
<g id="node1" class="node"><title>Node1</title>
<g id="a_node1"><a xlink:title=" ">
<polygon fill="#bfbfbf" stroke="black" points="121,-0.5 121,-57.5 210,-57.5 210,-0.5 121,-0.5"/>
<text text-anchor="middle" x="165.5" y="-45.5" font-family="Helvetica,sans-Serif" font-size="10.00">SDK::FNPCChat</text>
<polyline fill="none" stroke="black" points="121,-38.5 210,-38.5 "/>
<text text-anchor="middle" x="165.5" y="-26.5" font-family="Helvetica,sans-Serif" font-size="10.00"> </text>
<polyline fill="none" stroke="black" points="121,-19.5 210,-19.5 "/>
<text text-anchor="middle" x="165.5" y="-7.5" font-family="Helvetica,sans-Serif" font-size="10.00"> </text>
</a>
</g>
</g>
<!-- Node2 -->
<g id="node2" class="node"><title>Node2</title>
<g id="a_node2"><a xlink:title=" ">
<polygon fill="none" stroke="#bfbfbf" points="0,-160.5 0,-217.5 35,-217.5 35,-160.5 0,-160.5"/>
<text text-anchor="middle" x="17.5" y="-205.5" font-family="Helvetica,sans-Serif" font-size="10.00">char</text>
<polyline fill="none" stroke="#bfbfbf" points="0,-198.5 35,-198.5 "/>
<text text-anchor="middle" x="17.5" y="-186.5" font-family="Helvetica,sans-Serif" font-size="10.00"> </text>
<polyline fill="none" stroke="#bfbfbf" points="0,-179.5 35,-179.5 "/>
<text text-anchor="middle" x="17.5" y="-167.5" font-family="Helvetica,sans-Serif" font-size="10.00"> </text>
</a>
</g>
</g>
<!-- Node2&#45;&gt;Node1 -->
<g id="edge1" class="edge"><title>Node2&#45;&gt;Node1</title>
<path fill="none" stroke="#404040" d="M14.2688,-160.418C12.9221,-135.581 15.0518,-99.4744 34.5,-76 52.8366,-53.8673 82.5116,-42.3728 108.985,-36.408"/>
<polygon fill="none" stroke="#404040" points="109.102,-36.3847 114.204,-31.2887 120.871,-34.0383 115.769,-39.1343 109.102,-36.3847"/>
<text text-anchor="middle" x="74.5" y="-95.5" font-family="Helvetica,sans-Serif" font-size="10.00"> +UnknownData01</text>
<text text-anchor="middle" x="74.5" y="-84.5" font-family="Helvetica,sans-Serif" font-size="10.00">+UnknownData00</text>
</g>
<!-- Node3 -->
<g id="node3" class="node"><title>Node3</title>
<g id="a_node3"><a xlink:title=" ">
<polygon fill="none" stroke="#bfbfbf" points="82,-160.5 82,-217.5 111,-217.5 111,-160.5 82,-160.5"/>
<text text-anchor="middle" x="96.5" y="-205.5" font-family="Helvetica,sans-Serif" font-size="10.00">int</text>
<polyline fill="none" stroke="#bfbfbf" points="82,-198.5 111,-198.5 "/>
<text text-anchor="middle" x="96.5" y="-186.5" font-family="Helvetica,sans-Serif" font-size="10.00"> </text>
<polyline fill="none" stroke="#bfbfbf" points="82,-179.5 111,-179.5 "/>
<text text-anchor="middle" x="96.5" y="-167.5" font-family="Helvetica,sans-Serif" font-size="10.00"> </text>
</a>
</g>
</g>
<!-- Node3&#45;&gt;Node1 -->
<g id="edge2" class="edge"><title>Node3&#45;&gt;Node1</title>
<path fill="none" stroke="#404040" d="M102.419,-160.31C108.03,-137.017 117.669,-103.248 131.5,-76 132.877,-73.288 134.41,-70.5666 136.044,-67.8769"/>
<polygon fill="none" stroke="#404040" points="136.117,-67.7665 136.078,-60.5555 142.719,-57.7461 142.758,-64.9571 136.117,-67.7665"/>
<text text-anchor="middle" x="153.5" y="-90" font-family="Helvetica,sans-Serif" font-size="10.00"> +Timeout</text>
</g>
<!-- Node4 -->
<g id="node4" class="node"><title>Node4</title>
<g id="a_node4"><a xlink:href="a25847.html" target="_top" xlink:title=" ">
<polygon fill="none" stroke="black" points="129.5,-127.5 129.5,-250.5 291.5,-250.5 291.5,-127.5 129.5,-127.5"/>
<text text-anchor="start" x="137.5" y="-238.5" font-family="Helvetica,sans-Serif" font-size="10.00">SDK::TEnumAsByte&lt; ENPCChat</text>
<text text-anchor="middle" x="210.5" y="-227.5" font-family="Helvetica,sans-Serif" font-size="10.00">Type &gt;</text>
<polyline fill="none" stroke="black" points="129.5,-220.5 291.5,-220.5 "/>
<text text-anchor="middle" x="210.5" y="-208.5" font-family="Helvetica,sans-Serif" font-size="10.00"> </text>
<polyline fill="none" stroke="black" points="129.5,-201.5 291.5,-201.5 "/>
<text text-anchor="start" x="137.5" y="-189.5" font-family="Helvetica,sans-Serif" font-size="10.00">+ TEnumAsByte()</text>
<text text-anchor="start" x="137.5" y="-178.5" font-family="Helvetica,sans-Serif" font-size="10.00">+ TEnumAsByte()</text>
<text text-anchor="start" x="137.5" y="-167.5" font-family="Helvetica,sans-Serif" font-size="10.00">+ TEnumAsByte()</text>
<text text-anchor="start" x="137.5" y="-156.5" font-family="Helvetica,sans-Serif" font-size="10.00">+ TEnumAsByte()</text>
<text text-anchor="start" x="137.5" y="-145.5" font-family="Helvetica,sans-Serif" font-size="10.00">+ operator ENPCChatType()</text>
<text text-anchor="start" x="137.5" y="-134.5" font-family="Helvetica,sans-Serif" font-size="10.00">+ GetValue()</text>
</a>
</g>
</g>
<!-- Node4&#45;&gt;Node1 -->
<g id="edge3" class="edge"><title>Node4&#45;&gt;Node1</title>
<path fill="none" stroke="#404040" d="M193.231,-127.365C187.699,-107.943 181.721,-86.9542 176.737,-69.4539"/>
<polygon fill="none" stroke="#404040" points="176.671,-69.2207 171.18,-64.5459 173.383,-57.6797 178.874,-62.3545 176.671,-69.2207"/>
<text text-anchor="middle" x="204" y="-90" font-family="Helvetica,sans-Serif" font-size="10.00"> +Type</text>
</g>
<!-- Node5 -->
<g id="node5" class="node"><title>Node5</title>
<g id="a_node5"><a xlink:href="a25843.html" target="_top" xlink:title=" ">
<polygon fill="none" stroke="red" points="309.5,-138.5 309.5,-239.5 383.5,-239.5 383.5,-138.5 309.5,-138.5"/>
<text text-anchor="middle" x="346.5" y="-227.5" font-family="Helvetica,sans-Serif" font-size="10.00">SDK::FString</text>
<polyline fill="none" stroke="red" points="309.5,-220.5 383.5,-220.5 "/>
<text text-anchor="middle" x="346.5" y="-208.5" font-family="Helvetica,sans-Serif" font-size="10.00"> </text>
<polyline fill="none" stroke="red" points="309.5,-201.5 383.5,-201.5 "/>
<text text-anchor="start" x="317.5" y="-189.5" font-family="Helvetica,sans-Serif" font-size="10.00">+ FString()</text>
<text text-anchor="start" x="317.5" y="-178.5" font-family="Helvetica,sans-Serif" font-size="10.00">+ FString()</text>
<text text-anchor="start" x="317.5" y="-167.5" font-family="Helvetica,sans-Serif" font-size="10.00">+ IsValid()</text>
<text text-anchor="start" x="317.5" y="-156.5" font-family="Helvetica,sans-Serif" font-size="10.00">+ c_str()</text>
<text text-anchor="start" x="317.5" y="-145.5" font-family="Helvetica,sans-Serif" font-size="10.00">+ ToString()</text>
</a>
</g>
</g>
<!-- Node5&#45;&gt;Node1 -->
<g id="edge4" class="edge"><title>Node5&#45;&gt;Node1</title>
<path fill="none" stroke="#404040" d="M311.082,-138.297C307.653,-134.344 304.105,-130.523 300.5,-127 276.371,-103.422 246.13,-81.1515 220.39,-63.9108"/>
<polygon fill="none" stroke="#404040" points="220.052,-63.6879 212.841,-63.7234 210.034,-57.0808 217.245,-57.0452 220.052,-63.6879"/>
<text text-anchor="middle" x="312" y="-101" font-family="Helvetica,sans-Serif" font-size="10.00"> +Text</text>
<text text-anchor="middle" x="312" y="-90" font-family="Helvetica,sans-Serif" font-size="10.00">+Image</text>
<text text-anchor="middle" x="312" y="-79" font-family="Helvetica,sans-Serif" font-size="10.00">+SenderName</text>
</g>
</g>
</svg>
