<?xml version="1.0" encoding="UTF-8" standalone="no"?>
<!DOCTYPE svg PUBLIC "-//W3C//DTD SVG 1.1//EN"
 "http://www.w3.org/Graphics/SVG/1.1/DTD/svg11.dtd">
<!-- Generated by graphviz version 2.38.0 (20140413.2041)
 -->
<!-- Title: SDK::FAthena_FMermaidDeactivatedLocally Pages: 1 -->
<!--zoomable 518 -->
<svg id="main" version="1.1" xmlns="http://www.w3.org/2000/svg" xmlns:xlink="http://www.w3.org/1999/xlink" xml:space="preserve" onload="init(evt)">
<style type="text/css"><![CDATA[
.edge:hover path { stroke: red; }
.edge:hover polygon { stroke: red; fill: red; }
]]></style>
<script type="text/javascript"><![CDATA[
var edges = document.getElementsByTagName('g');
if (edges && edges.length) {
  for (var i=0;i<edges.length;i++) {
    if (edges[i].id.substr(0,4)=='edge') {
      edges[i].setAttribute('class','edge');
    }
  }
}
]]></script>
        <defs>
                <circle id="rim" cx="0" cy="0" r="7"/>
                <circle id="rim2" cx="0" cy="0" r="3.5"/>
                <g id="zoomPlus">
                        <use xlink:href="#rim" fill="#404040">
                                <set attributeName="fill" to="#808080" begin="zoomplus.mouseover" end="zoomplus.mouseout"/>
                        </use>
                        <path d="M-4,0h8M0,-4v8" fill="none" stroke="white" stroke-width="1.5" pointer-events="none"/>
                </g>
                <g id="zoomMin">
                        <use xlink:href="#rim" fill="#404040">
                                <set attributeName="fill" to="#808080" begin="zoomminus.mouseover" end="zoomminus.mouseout"/>
                        </use>
                        <path d="M-4,0h8" fill="none" stroke="white" stroke-width="1.5" pointer-events="none"/>
                </g>
                <g id="dirArrow">
                        <path fill="none" stroke="white" stroke-width="1.5" d="M0,-3.0v7 M-2.5,-0.5L0,-3.0L2.5,-0.5"/>
                </g>
               <g id="resetDef">
                       <use xlink:href="#rim2" fill="#404040">
                               <set attributeName="fill" to="#808080" begin="reset.mouseover" end="reset.mouseout"/>
                       </use>
               </g>
        </defs>

<script type="text/javascript">
var viewWidth = 424;
var viewHeight = 518;
var sectionId = 'dynsection-0';
</script>
<script xlink:href="svgpan.js"/>
<svg id="graph" class="graph">
<g id="viewport">
<title>SDK::FAthena_FMermaidDeactivatedLocally</title>
<!-- Node1 -->
<g id="node1" class="node"><title>Node1</title>
<g id="a_node1"><a xlink:title=" ">
<polygon fill="#bfbfbf" stroke="black" points="116.774,-0.5 116.774,-68.5 295.774,-68.5 295.774,-0.5 116.774,-0.5"/>
<text text-anchor="start" x="124.774" y="-56.5" font-family="Helvetica,sans-Serif" font-size="10.00">SDK::FAthena_FMermaidDeactivated</text>
<text text-anchor="middle" x="206.274" y="-45.5" font-family="Helvetica,sans-Serif" font-size="10.00">Locally</text>
<polyline fill="none" stroke="black" points="116.774,-38.5 295.774,-38.5 "/>
<text text-anchor="middle" x="206.274" y="-26.5" font-family="Helvetica,sans-Serif" font-size="10.00"> </text>
<polyline fill="none" stroke="black" points="116.774,-19.5 295.774,-19.5 "/>
<text text-anchor="middle" x="206.274" y="-7.5" font-family="Helvetica,sans-Serif" font-size="10.00"> </text>
</a>
</g>
</g>
<!-- Node2 -->
<g id="node2" class="node"><title>Node2</title>
<g id="a_node2"><a xlink:title=" ">
<polygon fill="none" stroke="#bfbfbf" points="41.7736,-452.5 41.7736,-509.5 76.7736,-509.5 76.7736,-452.5 41.7736,-452.5"/>
<text text-anchor="middle" x="59.2736" y="-497.5" font-family="Helvetica,sans-Serif" font-size="10.00">char</text>
<polyline fill="none" stroke="#bfbfbf" points="41.7736,-490.5 76.7736,-490.5 "/>
<text text-anchor="middle" x="59.2736" y="-478.5" font-family="Helvetica,sans-Serif" font-size="10.00"> </text>
<polyline fill="none" stroke="#bfbfbf" points="41.7736,-471.5 76.7736,-471.5 "/>
<text text-anchor="middle" x="59.2736" y="-459.5" font-family="Helvetica,sans-Serif" font-size="10.00"> </text>
</a>
</g>
</g>
<!-- Node2&#45;&gt;Node1 -->
<g id="edge1" class="edge"><title>Node2&#45;&gt;Node1</title>
<path fill="none" stroke="#404040" d="M46.908,-452.168C20.1577,-387.344 -35.3625,-223.64 33.2736,-116 49.8618,-89.9852 77.2784,-72.2444 105.449,-60.2006"/>
<polygon fill="none" stroke="#404040" points="105.544,-60.1625 109.626,-54.218 116.683,-55.6996 112.601,-61.6441 105.544,-60.1625"/>
<text text-anchor="middle" x="73.2736" y="-225" font-family="Helvetica,sans-Serif" font-size="10.00"> +UnknownData00</text>
</g>
<!-- Node3 -->
<g id="node3" class="node"><title>Node3</title>
<g id="a_node3"><a xlink:href="a06467.html" target="_top" xlink:title=" ">
<polygon fill="none" stroke="red" points="122.774,-116.5 122.774,-338.5 289.774,-338.5 289.774,-116.5 122.774,-116.5"/>
<text text-anchor="middle" x="206.274" y="-326.5" font-family="Helvetica,sans-Serif" font-size="10.00">SDK::AMermaid</text>
<polyline fill="none" stroke="red" points="122.774,-319.5 289.774,-319.5 "/>
<text text-anchor="start" x="130.774" y="-307.5" font-family="Helvetica,sans-Serif" font-size="10.00">+ ChoppinessScalar</text>
<text text-anchor="start" x="130.774" y="-296.5" font-family="Helvetica,sans-Serif" font-size="10.00">+ MaxDisappearTime</text>
<text text-anchor="start" x="130.774" y="-285.5" font-family="Helvetica,sans-Serif" font-size="10.00">+ FacePlayerSpringAccel</text>
<text text-anchor="start" x="130.774" y="-274.5" font-family="Helvetica,sans-Serif" font-size="10.00">+ BlendToWaterSurfaceTimeWhen</text>
<text text-anchor="start" x="130.774" y="-263.5" font-family="Helvetica,sans-Serif" font-size="10.00">Surfacing</text>
<text text-anchor="start" x="130.774" y="-252.5" font-family="Helvetica,sans-Serif" font-size="10.00">+ BlendAwayFromWaterSurface</text>
<text text-anchor="start" x="130.774" y="-241.5" font-family="Helvetica,sans-Serif" font-size="10.00">TimeWhenDiving</text>
<polyline fill="none" stroke="red" points="122.774,-234.5 289.774,-234.5 "/>
<text text-anchor="start" x="130.774" y="-222.5" font-family="Helvetica,sans-Serif" font-size="10.00">+ OnRep_State()</text>
<text text-anchor="start" x="130.774" y="-211.5" font-family="Helvetica,sans-Serif" font-size="10.00">+ Multicast_TeleportPlayerRPC()</text>
<text text-anchor="start" x="130.774" y="-200.5" font-family="Helvetica,sans-Serif" font-size="10.00">+ Multicast_SurfacedRPC()</text>
<text text-anchor="start" x="130.774" y="-189.5" font-family="Helvetica,sans-Serif" font-size="10.00">+ Multicast_DiveRPC()</text>
<text text-anchor="start" x="130.774" y="-178.5" font-family="Helvetica,sans-Serif" font-size="10.00">+ IsBeaconActive()</text>
<text text-anchor="start" x="130.774" y="-167.5" font-family="Helvetica,sans-Serif" font-size="10.00">+ GetUniqueMermaidId()</text>
<text text-anchor="start" x="130.774" y="-156.5" font-family="Helvetica,sans-Serif" font-size="10.00">+ GetCrewIdsResponsibleFor</text>
<text text-anchor="start" x="130.774" y="-145.5" font-family="Helvetica,sans-Serif" font-size="10.00">SavingAsCopy()</text>
<text text-anchor="start" x="130.774" y="-134.5" font-family="Helvetica,sans-Serif" font-size="10.00">+ AddCrewResponsibleForSaving()</text>
<text text-anchor="start" x="130.774" y="-123.5" font-family="Helvetica,sans-Serif" font-size="10.00">+ StaticClass()</text>
</a>
</g>
</g>
<!-- Node2&#45;&gt;Node3 -->
<g id="edge3" class="edge"><title>Node2&#45;&gt;Node3</title>
<path fill="none" stroke="#404040" d="M74.3531,-452.489C88.1559,-427.46 109.264,-389.564 128.274,-357 129.799,-354.387 131.346,-351.747 132.91,-349.088"/>
<polygon fill="none" stroke="#404040" points="132.911,-349.086 132.519,-341.886 139.014,-338.754 139.407,-345.954 132.911,-349.086"/>
<text text-anchor="middle" x="168.274" y="-426" font-family="Helvetica,sans-Serif" font-size="10.00"> +UnknownData01</text>
<text text-anchor="middle" x="168.274" y="-415" font-family="Helvetica,sans-Serif" font-size="10.00">+UnknownData02</text>
<text text-anchor="middle" x="168.274" y="-404" font-family="Helvetica,sans-Serif" font-size="10.00">+UnknownData03</text>
<text text-anchor="middle" x="168.274" y="-393" font-family="Helvetica,sans-Serif" font-size="10.00">+UnknownData04</text>
<text text-anchor="middle" x="168.274" y="-382" font-family="Helvetica,sans-Serif" font-size="10.00">+UnknownData05</text>
<text text-anchor="middle" x="168.274" y="-371" font-family="Helvetica,sans-Serif" font-size="10.00">+UnknownData06</text>
<text text-anchor="middle" x="168.274" y="-360" font-family="Helvetica,sans-Serif" font-size="10.00">+UnknownData00</text>
</g>
<!-- Node3&#45;&gt;Node1 -->
<g id="edge2" class="edge"><title>Node3&#45;&gt;Node1</title>
<path fill="none" stroke="#404040" d="M206.274,-116.224C206.274,-103.859 206.274,-91.8322 206.274,-81.0007"/>
<polygon fill="none" stroke="#404040" points="206.274,-80.8857 202.274,-74.8857 206.274,-68.8857 210.274,-74.8857 206.274,-80.8857"/>
<text text-anchor="middle" x="229.774" y="-90" font-family="Helvetica,sans-Serif" font-size="10.00"> +Mermaid</text>
</g>
<!-- Node45 -->
<g id="node4" class="node"><title>Node45</title>
<g id="a_node4"><a xlink:title=" ">
<polygon fill="none" stroke="#bfbfbf" points="254.774,-452.5 254.774,-509.5 289.774,-509.5 289.774,-452.5 254.774,-452.5"/>
<text text-anchor="middle" x="272.274" y="-497.5" font-family="Helvetica,sans-Serif" font-size="10.00">bool</text>
<polyline fill="none" stroke="#bfbfbf" points="254.774,-490.5 289.774,-490.5 "/>
<text text-anchor="middle" x="272.274" y="-478.5" font-family="Helvetica,sans-Serif" font-size="10.00"> </text>
<polyline fill="none" stroke="#bfbfbf" points="254.774,-471.5 289.774,-471.5 "/>
<text text-anchor="middle" x="272.274" y="-459.5" font-family="Helvetica,sans-Serif" font-size="10.00"> </text>
</a>
</g>
</g>
<!-- Node45&#45;&gt;Node1 -->
<g id="edge5" class="edge"><title>Node45&#45;&gt;Node1</title>
<path fill="none" stroke="#404040" d="M289.961,-465.324C298.455,-457.107 307.751,-446.093 312.274,-434 335.595,-371.639 350.739,-223.24 298.274,-116 290.994,-101.12 279.6,-87.8295 267.279,-76.5435"/>
<polygon fill="none" stroke="#404040" points="267.266,-76.5331 260.111,-75.6355 258.188,-68.6856 265.343,-69.5832 267.266,-76.5331"/>
<text text-anchor="middle" x="375.274" y="-225" font-family="Helvetica,sans-Serif" font-size="10.00"> +IsForLocalPlayer</text>
</g>
<!-- Node45&#45;&gt;Node3 -->
<g id="edge4" class="edge"><title>Node45&#45;&gt;Node3</title>
<path fill="none" stroke="#404040" d="M254.452,-463.739C246.661,-455.591 238.192,-445.105 233.274,-434 221.83,-408.162 214.867,-378.838 210.712,-350.599"/>
<polygon fill="none" stroke="#404040" points="210.694,-350.469 205.932,-345.054 209.098,-338.576 213.861,-343.99 210.694,-350.469"/>
<text text-anchor="middle" x="272.774" y="-393" font-family="Helvetica,sans-Serif" font-size="10.00"> +bGlueToSurface</text>
</g>
</g>
</svg>
        <g id="navigator" transform="translate(0 0)" fill="#404254">
                <rect fill="#f2f5e9" fill-opacity="0.5" stroke="#606060" stroke-width=".5" x="0" y="0" width="60" height="60"/>
                <use id="zoomplus" xlink:href="#zoomPlus" x="17" y="9" onmousedown="handleZoom(evt,'in')"/>
                <use id="zoomminus" xlink:href="#zoomMin" x="42" y="9" onmousedown="handleZoom(evt,'out')"/>
                <use id="reset" xlink:href="#resetDef" x="30" y="36" onmousedown="handleReset()"/>
                <g id="arrowUp" xlink:href="#dirArrow" transform="translate(30 24)" onmousedown="handlePan(0,-1)">
                  <use xlink:href="#rim" fill="#404040">
                        <set attributeName="fill" to="#808080" begin="arrowUp.mouseover" end="arrowUp.mouseout"/>
                  </use>
                  <path fill="none" stroke="white" stroke-width="1.5" d="M0,-3.0v7 M-2.5,-0.5L0,-3.0L2.5,-0.5"/>
                </g>
                <g id="arrowRight" xlink:href="#dirArrow" transform="rotate(90) translate(36 -43)" onmousedown="handlePan(1,0)">
                  <use xlink:href="#rim" fill="#404040">
                        <set attributeName="fill" to="#808080" begin="arrowRight.mouseover" end="arrowRight.mouseout"/>
                  </use>
                  <path fill="none" stroke="white" stroke-width="1.5" d="M0,-3.0v7 M-2.5,-0.5L0,-3.0L2.5,-0.5"/>
                </g>
                <g id="arrowDown" xlink:href="#dirArrow" transform="rotate(180) translate(-30 -48)" onmousedown="handlePan(0,1)">
                  <use xlink:href="#rim" fill="#404040">
                        <set attributeName="fill" to="#808080" begin="arrowDown.mouseover" end="arrowDown.mouseout"/>
                  </use>
                  <path fill="none" stroke="white" stroke-width="1.5" d="M0,-3.0v7 M-2.5,-0.5L0,-3.0L2.5,-0.5"/>
                </g>
                <g id="arrowLeft" xlink:href="#dirArrow" transform="rotate(270) translate(-36 17)" onmousedown="handlePan(-1,0)">
                  <use xlink:href="#rim" fill="#404040">
                        <set attributeName="fill" to="#808080" begin="arrowLeft.mouseover" end="arrowLeft.mouseout"/>
                  </use>
                  <path fill="none" stroke="white" stroke-width="1.5" d="M0,-3.0v7 M-2.5,-0.5L0,-3.0L2.5,-0.5"/>
                </g>
        </g>
        <svg viewBox="0 0 15 15" width="100%" height="30px" preserveAspectRatio="xMaxYMin meet">
         <g id="arrow_out" transform="scale(0.3 0.3)">
          <a xlink:href="a17629_org.svg" target="_base">
           <rect id="button" ry="5" rx="5" y="6" x="6" height="38" width="38"
                fill="#f2f5e9" fill-opacity="0.5" stroke="#606060" stroke-width="1.0"/>
           <path id="arrow"
             d="M 11.500037,31.436501 C 11.940474,20.09759 22.043105,11.32322 32.158766,21.979434 L 37.068811,17.246167 C 37.068811,17.246167 37.088388,32 37.088388,32 L 22.160133,31.978069 C 22.160133,31.978069 26.997745,27.140456 26.997745,27.140456 C 18.528582,18.264221 13.291696,25.230495 11.500037,31.436501 z"
             style="fill:#404040;"/>
          </a>
         </g>
        </svg>
</svg>
