<?xml version="1.0" encoding="UTF-8" standalone="no"?>
<!DOCTYPE svg PUBLIC "-//W3C//DTD SVG 1.1//EN"
 "http://www.w3.org/Graphics/SVG/1.1/DTD/svg11.dtd">
<!-- Generated by graphviz version 2.38.0 (20140413.2041)
 -->
<!-- Title: SDK::FPioneerRewardEpochCompleteEvent Pages: 1 -->
<svg width="286pt" height="226pt"
 viewBox="0.00 0.00 286.00 226.00" xmlns="http://www.w3.org/2000/svg" xmlns:xlink="http://www.w3.org/1999/xlink">
<g id="graph0" class="graph" transform="scale(1 1) rotate(0) translate(4 222)">
<title>SDK::FPioneerRewardEpochCompleteEvent</title>
<!-- Node1 -->
<g id="node1" class="node"><title>Node1</title>
<g id="a_node1"><a xlink:title=" ">
<polygon fill="#bfbfbf" stroke="black" points="76,-0.5 76,-68.5 218,-68.5 218,-0.5 76,-0.5"/>
<text text-anchor="start" x="84" y="-56.5" font-family="Helvetica,sans-Serif" font-size="10.00">SDK::FPioneerRewardEpoch</text>
<text text-anchor="middle" x="147" y="-45.5" font-family="Helvetica,sans-Serif" font-size="10.00">CompleteEvent</text>
<polyline fill="none" stroke="black" points="76,-38.5 218,-38.5 "/>
<text text-anchor="middle" x="147" y="-26.5" font-family="Helvetica,sans-Serif" font-size="10.00"> </text>
<polyline fill="none" stroke="black" points="76,-19.5 218,-19.5 "/>
<text text-anchor="middle" x="147" y="-7.5" font-family="Helvetica,sans-Serif" font-size="10.00"> </text>
</a>
</g>
</g>
<!-- Node2 -->
<g id="node2" class="node"><title>Node2</title>
<g id="a_node2"><a xlink:href="a13259.html" target="_top" xlink:title=" ">
<polygon fill="none" stroke="red" points="0,-138.5 0,-195.5 106,-195.5 106,-138.5 0,-138.5"/>
<text text-anchor="middle" x="53" y="-183.5" font-family="Helvetica,sans-Serif" font-size="10.00">SDK::FPirateIdentity</text>
<polyline fill="none" stroke="red" points="0,-176.5 106,-176.5 "/>
<text text-anchor="middle" x="53" y="-164.5" font-family="Helvetica,sans-Serif" font-size="10.00"> </text>
<polyline fill="none" stroke="red" points="0,-157.5 106,-157.5 "/>
<text text-anchor="middle" x="53" y="-145.5" font-family="Helvetica,sans-Serif" font-size="10.00"> </text>
</a>
</g>
</g>
<!-- Node2&#45;&gt;Node1 -->
<g id="edge1" class="edge"><title>Node2&#45;&gt;Node1</title>
<path fill="none" stroke="#404040" d="M56.4629,-138.462C59.5478,-122.321 65.3119,-102.186 76,-87 78.4403,-83.5327 81.1897,-80.2105 84.1521,-77.0427"/>
<polygon fill="none" stroke="#404040" points="84.3433,-76.8584 85.8886,-69.8148 92.9847,-68.5321 91.4395,-75.5757 84.3433,-76.8584"/>
<text text-anchor="middle" x="109.5" y="-90" font-family="Helvetica,sans-Serif" font-size="10.00"> +PirateIdentity</text>
</g>
<!-- Node7 -->
<g id="node3" class="node"><title>Node7</title>
<g id="a_node3"><a xlink:title=" ">
<polygon fill="none" stroke="#bfbfbf" points="124,-138.5 124,-195.5 170,-195.5 170,-138.5 124,-138.5"/>
<text text-anchor="middle" x="147" y="-183.5" font-family="Helvetica,sans-Serif" font-size="10.00">int64_t</text>
<polyline fill="none" stroke="#bfbfbf" points="124,-176.5 170,-176.5 "/>
<text text-anchor="middle" x="147" y="-164.5" font-family="Helvetica,sans-Serif" font-size="10.00"> </text>
<polyline fill="none" stroke="#bfbfbf" points="124,-157.5 170,-157.5 "/>
<text text-anchor="middle" x="147" y="-145.5" font-family="Helvetica,sans-Serif" font-size="10.00"> </text>
</a>
</g>
</g>
<!-- Node7&#45;&gt;Node1 -->
<g id="edge2" class="edge"><title>Node7&#45;&gt;Node1</title>
<path fill="none" stroke="#404040" d="M147,-138.324C147,-121.63 147,-99.9589 147,-80.8185"/>
<polygon fill="none" stroke="#404040" points="147,-80.6838 143,-74.6838 147,-68.6838 151,-74.6838 147,-80.6838"/>
<text text-anchor="middle" x="172" y="-90" font-family="Helvetica,sans-Serif" font-size="10.00"> +PlayTime</text>
</g>
<!-- Node8 -->
<g id="node4" class="node"><title>Node8</title>
<g id="a_node4"><a xlink:href="a26071.html" target="_top" xlink:title=" ">
<polygon fill="none" stroke="red" points="188.5,-116.5 188.5,-217.5 261.5,-217.5 261.5,-116.5 188.5,-116.5"/>
<text text-anchor="middle" x="225" y="-205.5" font-family="Helvetica,sans-Serif" font-size="10.00">SDK::FGuid</text>
<polyline fill="none" stroke="red" points="188.5,-198.5 261.5,-198.5 "/>
<text text-anchor="middle" x="225" y="-186.5" font-family="Helvetica,sans-Serif" font-size="10.00"> </text>
<polyline fill="none" stroke="red" points="188.5,-179.5 261.5,-179.5 "/>
<text text-anchor="start" x="196.5" y="-167.5" font-family="Helvetica,sans-Serif" font-size="10.00">+ FGuid()</text>
<text text-anchor="start" x="196.5" y="-156.5" font-family="Helvetica,sans-Serif" font-size="10.00">+ FGuid()</text>
<text text-anchor="start" x="196.5" y="-145.5" font-family="Helvetica,sans-Serif" font-size="10.00">+ operator()()</text>
<text text-anchor="start" x="196.5" y="-134.5" font-family="Helvetica,sans-Serif" font-size="10.00">+ operator[]()</text>
<text text-anchor="start" x="196.5" y="-123.5" font-family="Helvetica,sans-Serif" font-size="10.00">+ operator[]()</text>
</a>
</g>
</g>
<!-- Node8&#45;&gt;Node1 -->
<g id="edge3" class="edge"><title>Node8&#45;&gt;Node1</title>
<path fill="none" stroke="#404040" d="M214.154,-116.267C210.797,-106.162 206.487,-95.9098 201,-87 199.153,-84.001 197.089,-81.0582 194.876,-78.1933"/>
<polygon fill="none" stroke="#404040" points="194.646,-77.9241 187.712,-75.9473 186.869,-68.7856 193.804,-70.7624 194.646,-77.9241"/>
<text text-anchor="middle" x="242.5" y="-90" font-family="Helvetica,sans-Serif" font-size="10.00"> +PlayerGameId</text>
</g>
</g>
</svg>
