<?xml version="1.0" encoding="UTF-8" standalone="no"?>
<!DOCTYPE svg PUBLIC "-//W3C//DTD SVG 1.1//EN"
 "http://www.w3.org/Graphics/SVG/1.1/DTD/svg11.dtd">
<!-- Generated by graphviz version 2.38.0 (20140413.2041)
 -->
<!-- Title: SDK::FCrewManagementMatchmakingVisibilityData Pages: 1 -->
<svg width="438pt" height="270pt"
 viewBox="0.00 0.00 437.50 270.00" xmlns="http://www.w3.org/2000/svg" xmlns:xlink="http://www.w3.org/1999/xlink">
<g id="graph0" class="graph" transform="scale(1 1) rotate(0) translate(4 266)">
<title>SDK::FCrewManagementMatchmakingVisibilityData</title>
<!-- Node1 -->
<g id="node1" class="node"><title>Node1</title>
<g id="a_node1"><a xlink:title=" ">
<polygon fill="#bfbfbf" stroke="black" points="174.5,-0.5 174.5,-68.5 359.5,-68.5 359.5,-0.5 174.5,-0.5"/>
<text text-anchor="start" x="182.5" y="-56.5" font-family="Helvetica,sans-Serif" font-size="10.00">SDK::FCrewManagementMatchmaking</text>
<text text-anchor="middle" x="267" y="-45.5" font-family="Helvetica,sans-Serif" font-size="10.00">VisibilityData</text>
<polyline fill="none" stroke="black" points="174.5,-38.5 359.5,-38.5 "/>
<text text-anchor="middle" x="267" y="-26.5" font-family="Helvetica,sans-Serif" font-size="10.00"> </text>
<polyline fill="none" stroke="black" points="174.5,-19.5 359.5,-19.5 "/>
<text text-anchor="middle" x="267" y="-7.5" font-family="Helvetica,sans-Serif" font-size="10.00"> </text>
</a>
</g>
</g>
<!-- Node2 -->
<g id="node2" class="node"><title>Node2</title>
<g id="a_node2"><a xlink:href="a25847.html" target="_top" xlink:title=" ">
<polygon fill="none" stroke="black" points="0,-127.5 0,-261.5 180,-261.5 180,-127.5 0,-127.5"/>
<text text-anchor="start" x="8" y="-249.5" font-family="Helvetica,sans-Serif" font-size="10.00">SDK::TEnumAsByte&lt; EMatchmaking</text>
<text text-anchor="middle" x="90" y="-238.5" font-family="Helvetica,sans-Serif" font-size="10.00">VisibilityState &gt;</text>
<polyline fill="none" stroke="black" points="0,-231.5 180,-231.5 "/>
<text text-anchor="middle" x="90" y="-219.5" font-family="Helvetica,sans-Serif" font-size="10.00"> </text>
<polyline fill="none" stroke="black" points="0,-212.5 180,-212.5 "/>
<text text-anchor="start" x="8" y="-200.5" font-family="Helvetica,sans-Serif" font-size="10.00">+ TEnumAsByte()</text>
<text text-anchor="start" x="8" y="-189.5" font-family="Helvetica,sans-Serif" font-size="10.00">+ TEnumAsByte()</text>
<text text-anchor="start" x="8" y="-178.5" font-family="Helvetica,sans-Serif" font-size="10.00">+ TEnumAsByte()</text>
<text text-anchor="start" x="8" y="-167.5" font-family="Helvetica,sans-Serif" font-size="10.00">+ TEnumAsByte()</text>
<text text-anchor="start" x="8" y="-156.5" font-family="Helvetica,sans-Serif" font-size="10.00">+ operator EMatchmakingVisibility</text>
<text text-anchor="start" x="8" y="-145.5" font-family="Helvetica,sans-Serif" font-size="10.00">State()</text>
<text text-anchor="start" x="8" y="-134.5" font-family="Helvetica,sans-Serif" font-size="10.00">+ GetValue()</text>
</a>
</g>
</g>
<!-- Node2&#45;&gt;Node1 -->
<g id="edge1" class="edge"><title>Node2&#45;&gt;Node1</title>
<path fill="none" stroke="#404040" d="M136.187,-127.397C147.889,-113.119 161.112,-98.7871 175,-87 179.762,-82.958 184.89,-79.0785 190.2,-75.39"/>
<polygon fill="none" stroke="#404040" points="190.572,-75.1449 193.38,-68.5027 200.591,-68.5397 197.783,-75.1818 190.572,-75.1449"/>
<text text-anchor="middle" x="191.5" y="-95.5" font-family="Helvetica,sans-Serif" font-size="10.00"> +State</text>
</g>
<!-- Node3 -->
<g id="node3" class="node"><title>Node3</title>
<g id="a_node3"><a xlink:title=" ">
<polygon fill="none" stroke="#bfbfbf" points="198.5,-166 198.5,-223 233.5,-223 233.5,-166 198.5,-166"/>
<text text-anchor="middle" x="216" y="-211" font-family="Helvetica,sans-Serif" font-size="10.00">char</text>
<polyline fill="none" stroke="#bfbfbf" points="198.5,-204 233.5,-204 "/>
<text text-anchor="middle" x="216" y="-192" font-family="Helvetica,sans-Serif" font-size="10.00"> </text>
<polyline fill="none" stroke="#bfbfbf" points="198.5,-185 233.5,-185 "/>
<text text-anchor="middle" x="216" y="-173" font-family="Helvetica,sans-Serif" font-size="10.00"> </text>
</a>
</g>
</g>
<!-- Node3&#45;&gt;Node1 -->
<g id="edge2" class="edge"><title>Node3&#45;&gt;Node1</title>
<path fill="none" stroke="#404040" d="M210.769,-165.692C207.87,-143.524 206.666,-112.14 217,-87 218.181,-84.1257 219.607,-81.3228 221.219,-78.6044"/>
<polygon fill="none" stroke="#404040" points="221.357,-78.4061 221.513,-71.1966 228.228,-68.5679 228.072,-75.7773 221.357,-78.4061"/>
<text text-anchor="middle" x="257" y="-101" font-family="Helvetica,sans-Serif" font-size="10.00"> +UnknownData01</text>
<text text-anchor="middle" x="257" y="-90" font-family="Helvetica,sans-Serif" font-size="10.00">+UnknownData00</text>
</g>
<!-- Node4 -->
<g id="node4" class="node"><title>Node4</title>
<g id="a_node4"><a xlink:title=" ">
<polygon fill="none" stroke="#bfbfbf" points="304.5,-166 304.5,-223 333.5,-223 333.5,-166 304.5,-166"/>
<text text-anchor="middle" x="319" y="-211" font-family="Helvetica,sans-Serif" font-size="10.00">int</text>
<polyline fill="none" stroke="#bfbfbf" points="304.5,-204 333.5,-204 "/>
<text text-anchor="middle" x="319" y="-192" font-family="Helvetica,sans-Serif" font-size="10.00"> </text>
<polyline fill="none" stroke="#bfbfbf" points="304.5,-185 333.5,-185 "/>
<text text-anchor="middle" x="319" y="-173" font-family="Helvetica,sans-Serif" font-size="10.00"> </text>
</a>
</g>
</g>
<!-- Node4&#45;&gt;Node1 -->
<g id="edge3" class="edge"><title>Node4&#45;&gt;Node1</title>
<path fill="none" stroke="#404040" d="M315.763,-165.667C312.624,-143.763 306.854,-112.743 297,-87 296.038,-84.4875 294.962,-81.9541 293.805,-79.43"/>
<polygon fill="none" stroke="#404040" points="293.709,-79.2373 287.439,-75.674 288.317,-68.5165 294.587,-72.0798 293.709,-79.2373"/>
<text text-anchor="middle" x="339" y="-101" font-family="Helvetica,sans-Serif" font-size="10.00"> +VotesCast</text>
<text text-anchor="middle" x="339" y="-90" font-family="Helvetica,sans-Serif" font-size="10.00">+VotesRequired</text>
</g>
<!-- Node5 -->
<g id="node5" class="node"><title>Node5</title>
<g id="a_node5"><a xlink:title=" ">
<polygon fill="none" stroke="#bfbfbf" points="394.5,-166 394.5,-223 429.5,-223 429.5,-166 394.5,-166"/>
<text text-anchor="middle" x="412" y="-211" font-family="Helvetica,sans-Serif" font-size="10.00">bool</text>
<polyline fill="none" stroke="#bfbfbf" points="394.5,-204 429.5,-204 "/>
<text text-anchor="middle" x="412" y="-192" font-family="Helvetica,sans-Serif" font-size="10.00"> </text>
<polyline fill="none" stroke="#bfbfbf" points="394.5,-185 429.5,-185 "/>
<text text-anchor="middle" x="412" y="-173" font-family="Helvetica,sans-Serif" font-size="10.00"> </text>
</a>
</g>
</g>
<!-- Node5&#45;&gt;Node1 -->
<g id="edge4" class="edge"><title>Node5&#45;&gt;Node1</title>
<path fill="none" stroke="#404040" d="M409.316,-165.542C405.73,-142.084 397.384,-108.981 378,-87 374.426,-82.9469 370.466,-79.1909 366.232,-75.7128"/>
<polygon fill="none" stroke="#404040" points="366.203,-75.6913 359.001,-75.3243 356.57,-68.5353 363.772,-68.9023 366.203,-75.6913"/>
<text text-anchor="middle" x="409.5" y="-95.5" font-family="Helvetica,sans-Serif" font-size="10.00"> +Voted</text>
</g>
</g>
</svg>
