<?xml version="1.0" encoding="UTF-8" standalone="no"?>
<!DOCTYPE svg PUBLIC "-//W3C//DTD SVG 1.1//EN"
 "http://www.w3.org/Graphics/SVG/1.1/DTD/svg11.dtd">
<!-- Generated by graphviz version 2.38.0 (20140413.2041)
 -->
<!-- Title: SDK::FProjectileHitEvent Pages: 1 -->
<svg width="624pt" height="549pt"
 viewBox="0.00 0.00 623.81 549.00" xmlns="http://www.w3.org/2000/svg" xmlns:xlink="http://www.w3.org/1999/xlink">
<g id="graph0" class="graph" transform="scale(1 1) rotate(0) translate(4 545)">
<title>SDK::FProjectileHitEvent</title>
<!-- Node1 -->
<g id="node1" class="node"><title>Node1</title>
<g id="a_node1"><a xlink:title=" ">
<polygon fill="#bfbfbf" stroke="black" points="244.314,-0.5 244.314,-57.5 369.314,-57.5 369.314,-0.5 244.314,-0.5"/>
<text text-anchor="middle" x="306.814" y="-45.5" font-family="Helvetica,sans-Serif" font-size="10.00">SDK::FProjectileHitEvent</text>
<polyline fill="none" stroke="black" points="244.314,-38.5 369.314,-38.5 "/>
<text text-anchor="middle" x="306.814" y="-26.5" font-family="Helvetica,sans-Serif" font-size="10.00"> </text>
<polyline fill="none" stroke="black" points="244.314,-19.5 369.314,-19.5 "/>
<text text-anchor="middle" x="306.814" y="-7.5" font-family="Helvetica,sans-Serif" font-size="10.00"> </text>
</a>
</g>
</g>
<!-- Node2 -->
<g id="node2" class="node"><title>Node2</title>
<g id="a_node2"><a xlink:href="a26075.html" target="_top" xlink:title=" ">
<polygon fill="none" stroke="red" points="74.3137,-268.5 74.3137,-413.5 153.314,-413.5 153.314,-268.5 74.3137,-268.5"/>
<text text-anchor="middle" x="113.814" y="-401.5" font-family="Helvetica,sans-Serif" font-size="10.00">SDK::FVector</text>
<polyline fill="none" stroke="red" points="74.3137,-394.5 153.314,-394.5 "/>
<text text-anchor="middle" x="113.814" y="-382.5" font-family="Helvetica,sans-Serif" font-size="10.00"> </text>
<polyline fill="none" stroke="red" points="74.3137,-375.5 153.314,-375.5 "/>
<text text-anchor="start" x="82.3137" y="-363.5" font-family="Helvetica,sans-Serif" font-size="10.00">+ FVector()</text>
<text text-anchor="start" x="82.3137" y="-352.5" font-family="Helvetica,sans-Serif" font-size="10.00">+ FVector()</text>
<text text-anchor="start" x="82.3137" y="-341.5" font-family="Helvetica,sans-Serif" font-size="10.00">+ operator+()</text>
<text text-anchor="start" x="82.3137" y="-330.5" font-family="Helvetica,sans-Serif" font-size="10.00">+ operator&#45;()</text>
<text text-anchor="start" x="82.3137" y="-319.5" font-family="Helvetica,sans-Serif" font-size="10.00">+ operator*()</text>
<text text-anchor="start" x="82.3137" y="-308.5" font-family="Helvetica,sans-Serif" font-size="10.00">+ operator=()</text>
<text text-anchor="start" x="82.3137" y="-297.5" font-family="Helvetica,sans-Serif" font-size="10.00">+ operator+=()</text>
<text text-anchor="start" x="82.3137" y="-286.5" font-family="Helvetica,sans-Serif" font-size="10.00">+ operator&#45;=()</text>
<text text-anchor="start" x="82.3137" y="-275.5" font-family="Helvetica,sans-Serif" font-size="10.00">+ operator*=()</text>
</a>
</g>
</g>
<!-- Node2&#45;&gt;Node1 -->
<g id="edge1" class="edge"><title>Node2&#45;&gt;Node1</title>
<path fill="none" stroke="#404040" d="M100.025,-268.335C90.3132,-209.024 81.9201,-130.515 99.8137,-105 129.593,-62.5363 185.958,-44.0168 232.36,-35.9886"/>
<polygon fill="none" stroke="#404040" points="232.373,-35.9867 237.678,-31.1028 244.227,-34.1217 238.922,-39.0056 232.373,-35.9867"/>
<text text-anchor="middle" x="133.314" y="-131.5" font-family="Helvetica,sans-Serif" font-size="10.00"> +InitialPosition</text>
</g>
<!-- Node13 -->
<g id="node5" class="node"><title>Node13</title>
<g id="a_node5"><a xlink:href="a00551.html" target="_top" xlink:title=" ">
<polygon fill="none" stroke="red" points="175.814,-105.5 175.814,-162.5 313.814,-162.5 313.814,-105.5 175.814,-105.5"/>
<text text-anchor="middle" x="244.814" y="-150.5" font-family="Helvetica,sans-Serif" font-size="10.00">SDK::FImpactDamageEvent</text>
<polyline fill="none" stroke="red" points="175.814,-143.5 313.814,-143.5 "/>
<text text-anchor="middle" x="244.814" y="-131.5" font-family="Helvetica,sans-Serif" font-size="10.00"> </text>
<polyline fill="none" stroke="red" points="175.814,-124.5 313.814,-124.5 "/>
<text text-anchor="middle" x="244.814" y="-112.5" font-family="Helvetica,sans-Serif" font-size="10.00"> </text>
</a>
</g>
</g>
<!-- Node2&#45;&gt;Node13 -->
<g id="edge6" class="edge"><title>Node2&#45;&gt;Node13</title>
<path fill="none" stroke="#404040" d="M130.933,-268.159C140.416,-238.952 154.51,-206.217 174.814,-181 177.806,-177.283 181.182,-173.764 184.792,-170.452"/>
<polygon fill="none" stroke="#404040" points="184.944,-170.326 186.999,-163.414 194.169,-162.653 192.114,-169.565 184.944,-170.326"/>
<text text-anchor="middle" x="209.814" y="-224" font-family="Helvetica,sans-Serif" font-size="10.00"> +Location</text>
<text text-anchor="middle" x="209.814" y="-213" font-family="Helvetica,sans-Serif" font-size="10.00">+Velocity</text>
<text text-anchor="middle" x="209.814" y="-202" font-family="Helvetica,sans-Serif" font-size="10.00">+SurfaceNormal</text>
</g>
<!-- Node4 -->
<g id="node3" class="node"><title>Node4</title>
<g id="a_node3"><a xlink:title=" ">
<polygon fill="none" stroke="#bfbfbf" points="370.314,-483.5 370.314,-540.5 405.314,-540.5 405.314,-483.5 370.314,-483.5"/>
<text text-anchor="middle" x="387.814" y="-528.5" font-family="Helvetica,sans-Serif" font-size="10.00">char</text>
<polyline fill="none" stroke="#bfbfbf" points="370.314,-521.5 405.314,-521.5 "/>
<text text-anchor="middle" x="387.814" y="-509.5" font-family="Helvetica,sans-Serif" font-size="10.00"> </text>
<polyline fill="none" stroke="#bfbfbf" points="370.314,-502.5 405.314,-502.5 "/>
<text text-anchor="middle" x="387.814" y="-490.5" font-family="Helvetica,sans-Serif" font-size="10.00"> </text>
</a>
</g>
</g>
<!-- Node4&#45;&gt;Node1 -->
<g id="edge2" class="edge"><title>Node4&#45;&gt;Node1</title>
<path fill="none" stroke="#404040" d="M370.054,-510.97C316.447,-509.908 154.462,-499.429 64.8137,-414 8.84405,-360.664 19.8911,-326.199 6.81375,-250 1.62654,-219.775 -5.05539,-209.277 6.81375,-181 32.6013,-119.565 55.5016,-108.233 113.814,-76 149.972,-56.0128 194.614,-44.6569 231.853,-38.2319"/>
<polygon fill="none" stroke="#404040" points="232.33,-38.1548 237.613,-33.2471 244.175,-36.2366 238.892,-41.1443 232.33,-38.1548"/>
<text text-anchor="middle" x="46.8137" y="-213" font-family="Helvetica,sans-Serif" font-size="10.00"> +UnknownData00</text>
</g>
<!-- Node5 -->
<g id="node4" class="node"><title>Node5</title>
<g id="a_node4"><a xlink:href="a15175.html" target="_top" xlink:title=" ">
<polygon fill="none" stroke="red" points="364.814,-181.5 364.814,-249.5 514.814,-249.5 514.814,-181.5 364.814,-181.5"/>
<text text-anchor="start" x="372.814" y="-237.5" font-family="Helvetica,sans-Serif" font-size="10.00">SDK::FWeaponProjectileEffect</text>
<text text-anchor="middle" x="439.814" y="-226.5" font-family="Helvetica,sans-Serif" font-size="10.00">Params</text>
<polyline fill="none" stroke="red" points="364.814,-219.5 514.814,-219.5 "/>
<text text-anchor="middle" x="439.814" y="-207.5" font-family="Helvetica,sans-Serif" font-size="10.00"> </text>
<polyline fill="none" stroke="red" points="364.814,-200.5 514.814,-200.5 "/>
<text text-anchor="middle" x="439.814" y="-188.5" font-family="Helvetica,sans-Serif" font-size="10.00"> </text>
</a>
</g>
</g>
<!-- Node4&#45;&gt;Node5 -->
<g id="edge4" class="edge"><title>Node4&#45;&gt;Node5</title>
<path fill="none" stroke="#404040" d="M405.444,-488.759C410.264,-481.562 414.946,-473.289 417.814,-465 441.313,-397.081 443.592,-312.803 442.286,-261.91"/>
<polygon fill="none" stroke="#404040" points="442.28,-261.714 438.086,-255.848 441.888,-249.721 446.082,-255.587 442.28,-261.714"/>
<text text-anchor="middle" x="467.814" y="-451.5" font-family="Helvetica,sans-Serif" font-size="10.00"> +UnknownData01</text>
<text text-anchor="middle" x="467.814" y="-440.5" font-family="Helvetica,sans-Serif" font-size="10.00">+UnknownData00</text>
</g>
<!-- Node19 -->
<g id="node6" class="node"><title>Node19</title>
<g id="a_node6"><a xlink:href="a25915.html" target="_top" xlink:title=" ">
<polygon fill="none" stroke="red" points="277.314,-301.5 277.314,-380.5 396.314,-380.5 396.314,-301.5 277.314,-301.5"/>
<text text-anchor="middle" x="336.814" y="-368.5" font-family="Helvetica,sans-Serif" font-size="10.00">SDK::UClass</text>
<polyline fill="none" stroke="red" points="277.314,-361.5 396.314,-361.5 "/>
<text text-anchor="middle" x="336.814" y="-349.5" font-family="Helvetica,sans-Serif" font-size="10.00"> </text>
<polyline fill="none" stroke="red" points="277.314,-342.5 396.314,-342.5 "/>
<text text-anchor="start" x="285.314" y="-330.5" font-family="Helvetica,sans-Serif" font-size="10.00">+ CreateDefaultObject()</text>
<text text-anchor="start" x="285.314" y="-319.5" font-family="Helvetica,sans-Serif" font-size="10.00">+ CreateDefaultObject()</text>
<text text-anchor="start" x="285.314" y="-308.5" font-family="Helvetica,sans-Serif" font-size="10.00">+ StaticClass()</text>
</a>
</g>
</g>
<!-- Node4&#45;&gt;Node19 -->
<g id="edge8" class="edge"><title>Node4&#45;&gt;Node19</title>
<path fill="none" stroke="#404040" d="M369.945,-500.173C358.429,-492.084 344.415,-479.879 337.814,-465 327.866,-442.58 326.644,-415.518 328.319,-392.493"/>
<polygon fill="none" stroke="#404040" points="328.322,-392.465 324.914,-386.11 329.47,-380.52 332.877,-386.875 328.322,-392.465"/>
<text text-anchor="middle" x="377.814" y="-446" font-family="Helvetica,sans-Serif" font-size="10.00"> +UnknownData00</text>
</g>
<!-- Node168 -->
<g id="node7" class="node"><title>Node168</title>
<g id="a_node7"><a xlink:href="a29919.html" target="_top" xlink:title=" ">
<polygon fill="none" stroke="red" points="520.314,-187 520.314,-244 609.314,-244 609.314,-187 520.314,-187"/>
<text text-anchor="middle" x="564.814" y="-232" font-family="Helvetica,sans-Serif" font-size="10.00">SDK::FHitResult</text>
<polyline fill="none" stroke="red" points="520.314,-225 609.314,-225 "/>
<text text-anchor="middle" x="564.814" y="-213" font-family="Helvetica,sans-Serif" font-size="10.00"> </text>
<polyline fill="none" stroke="red" points="520.314,-206 609.314,-206 "/>
<text text-anchor="middle" x="564.814" y="-194" font-family="Helvetica,sans-Serif" font-size="10.00"> </text>
</a>
</g>
</g>
<!-- Node4&#45;&gt;Node168 -->
<g id="edge11" class="edge"><title>Node4&#45;&gt;Node168</title>
<path fill="none" stroke="#404040" d="M405.609,-509.666C432.777,-506.635 484.334,-496.788 511.814,-465 562.826,-405.991 568.654,-309.942 567.379,-256.174"/>
<polygon fill="none" stroke="#404040" points="567.377,-256.091 563.168,-250.235 566.955,-244.098 571.164,-249.954 567.377,-256.091"/>
<text text-anchor="middle" x="574.814" y="-457" font-family="Helvetica,sans-Serif" font-size="10.00"> +bBlockingHit</text>
<text text-anchor="middle" x="574.814" y="-446" font-family="Helvetica,sans-Serif" font-size="10.00">+bStartPenetrating</text>
<text text-anchor="middle" x="574.814" y="-435" font-family="Helvetica,sans-Serif" font-size="10.00">+UnknownData00</text>
</g>
<!-- Node5&#45;&gt;Node1 -->
<g id="edge3" class="edge"><title>Node5&#45;&gt;Node1</title>
<path fill="none" stroke="#404040" d="M437.337,-181.388C434.254,-158.289 427.335,-127.666 411.814,-105 401.016,-89.2313 385.753,-75.6433 370.202,-64.5336"/>
<polygon fill="none" stroke="#404040" points="369.911,-64.336 362.7,-64.2732 359.984,-57.5929 367.195,-57.6557 369.911,-64.336"/>
<text text-anchor="middle" x="454.814" y="-131.5" font-family="Helvetica,sans-Serif" font-size="10.00"> +Effects</text>
</g>
<!-- Node13&#45;&gt;Node1 -->
<g id="edge5" class="edge"><title>Node13&#45;&gt;Node1</title>
<path fill="none" stroke="#404040" d="M252.659,-105.371C255.996,-95.7184 260.387,-85.0428 265.814,-76 267.594,-73.0331 269.579,-70.0816 271.689,-67.1891"/>
<polygon fill="none" stroke="#404040" points="271.788,-67.0631 272.366,-59.8752 279.224,-57.6444 278.645,-64.8323 271.788,-67.0631"/>
<text text-anchor="middle" x="300.814" y="-79" font-family="Helvetica,sans-Serif" font-size="10.00"> +DamageEvent</text>
</g>
<!-- Node19&#45;&gt;Node1 -->
<g id="edge9" class="edge"><title>Node19&#45;&gt;Node1</title>
<path fill="none" stroke="#404040" d="M343.184,-301.461C350.372,-249.191 358.35,-153.455 335.814,-76 335.064,-73.4222 334.122,-70.8495 333.042,-68.3125"/>
<polygon fill="none" stroke="#404040" points="332.994,-68.2185 326.714,-64.674 327.571,-57.5139 333.851,-61.0584 332.994,-68.2185"/>
<text text-anchor="middle" x="378.814" y="-131.5" font-family="Helvetica,sans-Serif" font-size="10.00"> +ProjectileId</text>
</g>
<!-- Node19&#45;&gt;Node13 -->
<g id="edge7" class="edge"><title>Node19&#45;&gt;Node13</title>
<path fill="none" stroke="#404040" d="M299.348,-301.119C286.885,-286.192 274.088,-268.319 265.814,-250 255.099,-226.279 249.849,-197.463 247.278,-174.61"/>
<polygon fill="none" stroke="#404040" points="247.271,-174.541 242.708,-168.958 246.108,-162.598 250.671,-168.182 247.271,-174.541"/>
<text text-anchor="middle" x="300.814" y="-213" font-family="Helvetica,sans-Serif" font-size="10.00"> +DamagerType</text>
</g>
<!-- Node168&#45;&gt;Node1 -->
<g id="edge10" class="edge"><title>Node168&#45;&gt;Node1</title>
<path fill="none" stroke="#404040" d="M548.461,-186.571C533.078,-162.315 508.074,-127.62 478.814,-105 449.892,-82.641 413.275,-65.4727 381.268,-53.2408"/>
<polygon fill="none" stroke="#404040" points="380.959,-53.1265 373.943,-54.7927 369.707,-48.9572 376.723,-47.2911 380.959,-53.1265"/>
<text text-anchor="middle" x="556.314" y="-131.5" font-family="Helvetica,sans-Serif" font-size="10.00"> +HitResult</text>
</g>
</g>
</svg>
