<?xml version="1.0" encoding="UTF-8" standalone="no"?>
<!DOCTYPE svg PUBLIC "-//W3C//DTD SVG 1.1//EN"
 "http://www.w3.org/Graphics/SVG/1.1/DTD/svg11.dtd">
<!-- Generated by graphviz version 2.38.0 (20140413.2041)
 -->
<!-- Title: SDK::FCrewSessionBaseTelemetryEvent Pages: 1 -->
<svg width="546pt" height="215pt"
 viewBox="0.00 0.00 546.00 215.00" xmlns="http://www.w3.org/2000/svg" xmlns:xlink="http://www.w3.org/1999/xlink">
<g id="graph0" class="graph" transform="scale(1 1) rotate(0) translate(4 211)">
<title>SDK::FCrewSessionBaseTelemetryEvent</title>
<!-- Node1 -->
<g id="node1" class="node"><title>Node1</title>
<g id="a_node1"><a xlink:title=" ">
<polygon fill="#bfbfbf" stroke="black" points="183.5,-138.5 183.5,-206.5 354.5,-206.5 354.5,-138.5 183.5,-138.5"/>
<text text-anchor="start" x="191.5" y="-194.5" font-family="Helvetica,sans-Serif" font-size="10.00">SDK::FCrewSessionBaseTelemetry</text>
<text text-anchor="middle" x="269" y="-183.5" font-family="Helvetica,sans-Serif" font-size="10.00">Event</text>
<polyline fill="none" stroke="black" points="183.5,-176.5 354.5,-176.5 "/>
<text text-anchor="start" x="191.5" y="-164.5" font-family="Helvetica,sans-Serif" font-size="10.00">+ CrewId</text>
<polyline fill="none" stroke="black" points="183.5,-157.5 354.5,-157.5 "/>
<text text-anchor="middle" x="269" y="-145.5" font-family="Helvetica,sans-Serif" font-size="10.00"> </text>
</a>
</g>
</g>
<!-- Node2 -->
<g id="node2" class="node"><title>Node2</title>
<g id="a_node2"><a xlink:href="a19099.html" target="_top" xlink:title=" ">
<polygon fill="none" stroke="red" points="0,-17 0,-85 164,-85 164,-17 0,-17"/>
<text text-anchor="start" x="8" y="-73" font-family="Helvetica,sans-Serif" font-size="10.00">SDK::FCrewSessionBaseSession</text>
<text text-anchor="middle" x="82" y="-62" font-family="Helvetica,sans-Serif" font-size="10.00">TelemetryEvent</text>
<polyline fill="none" stroke="red" points="0,-55 164,-55 "/>
<text text-anchor="start" x="8" y="-43" font-family="Helvetica,sans-Serif" font-size="10.00">+ Session</text>
<polyline fill="none" stroke="red" points="0,-36 164,-36 "/>
<text text-anchor="middle" x="82" y="-24" font-family="Helvetica,sans-Serif" font-size="10.00"> </text>
</a>
</g>
</g>
<!-- Node1&#45;&gt;Node2 -->
<g id="edge1" class="edge"><title>Node1&#45;&gt;Node2</title>
<path fill="none" stroke="midnightblue" d="M208.222,-132.661C184.198,-117.309 156.876,-99.8488 133.811,-85.1089"/>
<polygon fill="none" stroke="midnightblue" points="206.599,-135.777 216.91,-138.213 210.368,-129.879 206.599,-135.777"/>
</g>
<!-- Node7 -->
<g id="node3" class="node"><title>Node7</title>
<g id="a_node3"><a xlink:href="a19115.html" target="_top" xlink:title=" ">
<polygon fill="none" stroke="black" points="182.5,-17 182.5,-85 355.5,-85 355.5,-17 182.5,-17"/>
<text text-anchor="start" x="190.5" y="-73" font-family="Helvetica,sans-Serif" font-size="10.00">SDK::FCrewSessionLeaveTelemetry</text>
<text text-anchor="middle" x="269" y="-62" font-family="Helvetica,sans-Serif" font-size="10.00">Event</text>
<polyline fill="none" stroke="black" points="182.5,-55 355.5,-55 "/>
<text text-anchor="middle" x="269" y="-43" font-family="Helvetica,sans-Serif" font-size="10.00"> </text>
<polyline fill="none" stroke="black" points="182.5,-36 355.5,-36 "/>
<text text-anchor="middle" x="269" y="-24" font-family="Helvetica,sans-Serif" font-size="10.00"> </text>
</a>
</g>
</g>
<!-- Node1&#45;&gt;Node7 -->
<g id="edge2" class="edge"><title>Node1&#45;&gt;Node7</title>
<path fill="none" stroke="midnightblue" d="M269,-128.162C269,-113.964 269,-98.4265 269,-85.1089"/>
<polygon fill="none" stroke="midnightblue" points="265.5,-128.213 269,-138.213 272.5,-128.213 265.5,-128.213"/>
</g>
<!-- Node8 -->
<g id="node4" class="node"><title>Node8</title>
<g id="a_node4"><a xlink:href="a19111.html" target="_top" xlink:title=" ">
<polygon fill="none" stroke="black" points="374,-0.5 374,-101.5 538,-101.5 538,-0.5 374,-0.5"/>
<text text-anchor="start" x="382" y="-89.5" font-family="Helvetica,sans-Serif" font-size="10.00">SDK::FCrewSessionMatchmaking</text>
<text text-anchor="middle" x="456" y="-78.5" font-family="Helvetica,sans-Serif" font-size="10.00">StartedTelemetryEvent</text>
<polyline fill="none" stroke="black" points="374,-71.5 538,-71.5 "/>
<text text-anchor="start" x="382" y="-59.5" font-family="Helvetica,sans-Serif" font-size="10.00">+ TimeoutSeconds</text>
<text text-anchor="start" x="382" y="-48.5" font-family="Helvetica,sans-Serif" font-size="10.00">+ PreserveSession</text>
<text text-anchor="start" x="382" y="-37.5" font-family="Helvetica,sans-Serif" font-size="10.00">+ ResubmitTicket</text>
<text text-anchor="start" x="382" y="-26.5" font-family="Helvetica,sans-Serif" font-size="10.00">+ UnknownData00</text>
<polyline fill="none" stroke="black" points="374,-19.5 538,-19.5 "/>
<text text-anchor="middle" x="456" y="-7.5" font-family="Helvetica,sans-Serif" font-size="10.00"> </text>
</a>
</g>
</g>
<!-- Node1&#45;&gt;Node8 -->
<g id="edge3" class="edge"><title>Node1&#45;&gt;Node8</title>
<path fill="none" stroke="midnightblue" d="M329.567,-132.795C345.107,-122.865 362.038,-112.045 378.311,-101.646"/>
<polygon fill="none" stroke="midnightblue" points="327.632,-129.879 321.09,-138.213 331.401,-135.777 327.632,-129.879"/>
</g>
</g>
</svg>
