<?xml version="1.0" encoding="UTF-8" standalone="no"?>
<!DOCTYPE svg PUBLIC "-//W3C//DTD SVG 1.1//EN"
 "http://www.w3.org/Graphics/SVG/1.1/DTD/svg11.dtd">
<!-- Generated by graphviz version 2.38.0 (20140413.2041)
 -->
<!-- Title: SDK::FDebugSuperSailorSetSpeedAmpRPCEvent Pages: 1 -->
<svg width="223pt" height="193pt"
 viewBox="0.00 0.00 223.00 193.00" xmlns="http://www.w3.org/2000/svg" xmlns:xlink="http://www.w3.org/1999/xlink">
<g id="graph0" class="graph" transform="scale(1 1) rotate(0) translate(4 189)">
<title>SDK::FDebugSuperSailorSetSpeedAmpRPCEvent</title>
<!-- Node1 -->
<g id="node1" class="node"><title>Node1</title>
<g id="a_node1"><a xlink:title=" ">
<polygon fill="#bfbfbf" stroke="black" points="47,-0.5 47,-68.5 189,-68.5 189,-0.5 47,-0.5"/>
<text text-anchor="start" x="55" y="-56.5" font-family="Helvetica,sans-Serif" font-size="10.00">SDK::FDebugSuperSailorSet</text>
<text text-anchor="middle" x="118" y="-45.5" font-family="Helvetica,sans-Serif" font-size="10.00">SpeedAmpRPCEvent</text>
<polyline fill="none" stroke="black" points="47,-38.5 189,-38.5 "/>
<text text-anchor="middle" x="118" y="-26.5" font-family="Helvetica,sans-Serif" font-size="10.00"> </text>
<polyline fill="none" stroke="black" points="47,-19.5 189,-19.5 "/>
<text text-anchor="middle" x="118" y="-7.5" font-family="Helvetica,sans-Serif" font-size="10.00"> </text>
</a>
</g>
</g>
<!-- Node2 -->
<g id="node2" class="node"><title>Node2</title>
<g id="a_node2"><a xlink:href="a16583.html" target="_top" xlink:title=" ">
<polygon fill="none" stroke="red" points="0,-127.5 0,-184.5 134,-184.5 134,-127.5 0,-127.5"/>
<text text-anchor="middle" x="67" y="-172.5" font-family="Helvetica,sans-Serif" font-size="10.00">SDK::FNetworkEventStruct</text>
<polyline fill="none" stroke="red" points="0,-165.5 134,-165.5 "/>
<text text-anchor="middle" x="67" y="-153.5" font-family="Helvetica,sans-Serif" font-size="10.00"> </text>
<polyline fill="none" stroke="red" points="0,-146.5 134,-146.5 "/>
<text text-anchor="middle" x="67" y="-134.5" font-family="Helvetica,sans-Serif" font-size="10.00"> </text>
</a>
</g>
</g>
<!-- Node2&#45;&gt;Node1 -->
<g id="edge1" class="edge"><title>Node2&#45;&gt;Node1</title>
<path fill="none" stroke="midnightblue" d="M82.8591,-117.84C89.5829,-102.085 97.3554,-83.8732 103.878,-68.5891"/>
<polygon fill="none" stroke="midnightblue" points="79.5348,-116.713 78.8286,-127.284 85.973,-119.46 79.5348,-116.713"/>
</g>
<!-- Node16 -->
<g id="node3" class="node"><title>Node16</title>
<g id="a_node3"><a xlink:title=" ">
<polygon fill="none" stroke="#bfbfbf" points="152.5,-127.5 152.5,-184.5 187.5,-184.5 187.5,-127.5 152.5,-127.5"/>
<text text-anchor="middle" x="170" y="-172.5" font-family="Helvetica,sans-Serif" font-size="10.00">float</text>
<polyline fill="none" stroke="#bfbfbf" points="152.5,-165.5 187.5,-165.5 "/>
<text text-anchor="middle" x="170" y="-153.5" font-family="Helvetica,sans-Serif" font-size="10.00"> </text>
<polyline fill="none" stroke="#bfbfbf" points="152.5,-146.5 187.5,-146.5 "/>
<text text-anchor="middle" x="170" y="-134.5" font-family="Helvetica,sans-Serif" font-size="10.00"> </text>
</a>
</g>
</g>
<!-- Node16&#45;&gt;Node1 -->
<g id="edge2" class="edge"><title>Node16&#45;&gt;Node1</title>
<path fill="none" stroke="#404040" d="M157.939,-127.284C151.807,-113.192 144.206,-95.7238 137.286,-79.8213"/>
<polygon fill="none" stroke="#404040" points="137.187,-79.5925 131.125,-75.6868 132.399,-68.5891 138.46,-72.4947 137.187,-79.5925"/>
<text text-anchor="middle" x="182" y="-101" font-family="Helvetica,sans-Serif" font-size="10.00"> +YawSpdAmp</text>
<text text-anchor="middle" x="182" y="-90" font-family="Helvetica,sans-Serif" font-size="10.00">+FwdSpdAmp</text>
</g>
</g>
</svg>
