<?xml version="1.0" encoding="UTF-8" standalone="no"?>
<!DOCTYPE svg PUBLIC "-//W3C//DTD SVG 1.1//EN"
 "http://www.w3.org/Graphics/SVG/1.1/DTD/svg11.dtd">
<!-- Generated by graphviz version 2.38.0 (20140413.2041)
 -->
<!-- Title: SDK::FInteractLoadableActionStateConstructionInfo Pages: 1 -->
<!--zoomable 320 -->
<svg id="main" version="1.1" xmlns="http://www.w3.org/2000/svg" xmlns:xlink="http://www.w3.org/1999/xlink" xml:space="preserve" onload="init(evt)">
<style type="text/css"><![CDATA[
.edge:hover path { stroke: red; }
.edge:hover polygon { stroke: red; fill: red; }
]]></style>
<script type="text/javascript"><![CDATA[
var edges = document.getElementsByTagName('g');
if (edges && edges.length) {
  for (var i=0;i<edges.length;i++) {
    if (edges[i].id.substr(0,4)=='edge') {
      edges[i].setAttribute('class','edge');
    }
  }
}
]]></script>
        <defs>
                <circle id="rim" cx="0" cy="0" r="7"/>
                <circle id="rim2" cx="0" cy="0" r="3.5"/>
                <g id="zoomPlus">
                        <use xlink:href="#rim" fill="#404040">
                                <set attributeName="fill" to="#808080" begin="zoomplus.mouseover" end="zoomplus.mouseout"/>
                        </use>
                        <path d="M-4,0h8M0,-4v8" fill="none" stroke="white" stroke-width="1.5" pointer-events="none"/>
                </g>
                <g id="zoomMin">
                        <use xlink:href="#rim" fill="#404040">
                                <set attributeName="fill" to="#808080" begin="zoomminus.mouseover" end="zoomminus.mouseout"/>
                        </use>
                        <path d="M-4,0h8" fill="none" stroke="white" stroke-width="1.5" pointer-events="none"/>
                </g>
                <g id="dirArrow">
                        <path fill="none" stroke="white" stroke-width="1.5" d="M0,-3.0v7 M-2.5,-0.5L0,-3.0L2.5,-0.5"/>
                </g>
               <g id="resetDef">
                       <use xlink:href="#rim2" fill="#404040">
                               <set attributeName="fill" to="#808080" begin="reset.mouseover" end="reset.mouseout"/>
                       </use>
               </g>
        </defs>

<script type="text/javascript">
var viewWidth = 669;
var viewHeight = 320;
var sectionId = 'dynsection-1';
</script>
<script xlink:href="svgpan.js"/>
<svg id="graph" class="graph">
<g id="viewport">
<title>SDK::FInteractLoadableActionStateConstructionInfo</title>
<!-- Node1 -->
<g id="node1" class="node"><title>Node1</title>
<g id="a_node1"><a xlink:title=" ">
<polygon fill="#bfbfbf" stroke="black" points="304.5,-0.5 304.5,-68.5 452.5,-68.5 452.5,-0.5 304.5,-0.5"/>
<text text-anchor="start" x="312.5" y="-56.5" font-family="Helvetica,sans-Serif" font-size="10.00">SDK::FInteractLoadableAction</text>
<text text-anchor="middle" x="378.5" y="-45.5" font-family="Helvetica,sans-Serif" font-size="10.00">StateConstructionInfo</text>
<polyline fill="none" stroke="black" points="304.5,-38.5 452.5,-38.5 "/>
<text text-anchor="middle" x="378.5" y="-26.5" font-family="Helvetica,sans-Serif" font-size="10.00"> </text>
<polyline fill="none" stroke="black" points="304.5,-19.5 452.5,-19.5 "/>
<text text-anchor="middle" x="378.5" y="-7.5" font-family="Helvetica,sans-Serif" font-size="10.00"> </text>
</a>
</g>
</g>
<!-- Node2 -->
<g id="node2" class="node"><title>Node2</title>
<g id="a_node2"><a xlink:href="a00755.html" target="_top" xlink:title=" ">
<polygon fill="none" stroke="red" points="0,-138.5 0,-195.5 193,-195.5 193,-138.5 0,-138.5"/>
<text text-anchor="middle" x="96.5" y="-183.5" font-family="Helvetica,sans-Serif" font-size="10.00">SDK::FActorActionStateConstructionInfo</text>
<polyline fill="none" stroke="red" points="0,-176.5 193,-176.5 "/>
<text text-anchor="middle" x="96.5" y="-164.5" font-family="Helvetica,sans-Serif" font-size="10.00"> </text>
<polyline fill="none" stroke="red" points="0,-157.5 193,-157.5 "/>
<text text-anchor="middle" x="96.5" y="-145.5" font-family="Helvetica,sans-Serif" font-size="10.00"> </text>
</a>
</g>
</g>
<!-- Node2&#45;&gt;Node1 -->
<g id="edge1" class="edge"><title>Node2&#45;&gt;Node1</title>
<path fill="none" stroke="midnightblue" d="M140.516,-132.48C162.232,-117.085 189.331,-99.5135 215.5,-87 243.479,-73.621 275.776,-62.5833 304.204,-54.2047"/>
<polygon fill="none" stroke="midnightblue" points="138.246,-129.801 132.167,-138.479 142.331,-135.486 138.246,-129.801"/>
</g>
<!-- Node4 -->
<g id="node3" class="node"><title>Node4</title>
<g id="a_node3"><a xlink:title=" ">
<polygon fill="none" stroke="#bfbfbf" points="259,-254.5 259,-311.5 294,-311.5 294,-254.5 259,-254.5"/>
<text text-anchor="middle" x="276.5" y="-299.5" font-family="Helvetica,sans-Serif" font-size="10.00">char</text>
<polyline fill="none" stroke="#bfbfbf" points="259,-292.5 294,-292.5 "/>
<text text-anchor="middle" x="276.5" y="-280.5" font-family="Helvetica,sans-Serif" font-size="10.00"> </text>
<polyline fill="none" stroke="#bfbfbf" points="259,-273.5 294,-273.5 "/>
<text text-anchor="middle" x="276.5" y="-261.5" font-family="Helvetica,sans-Serif" font-size="10.00"> </text>
</a>
</g>
</g>
<!-- Node4&#45;&gt;Node1 -->
<g id="edge2" class="edge"><title>Node4&#45;&gt;Node1</title>
<path fill="none" stroke="#404040" d="M258.927,-255.301C240.198,-223.185 216.086,-168.426 238.5,-127 250.906,-104.072 271.829,-85.9717 293.77,-72.1332"/>
<polygon fill="none" stroke="#404040" points="293.94,-72.0317 297.039,-65.5205 304.242,-65.8768 301.142,-72.388 293.94,-72.0317"/>
<text text-anchor="middle" x="278.5" y="-164.5" font-family="Helvetica,sans-Serif" font-size="10.00"> +UnknownData00</text>
</g>
<!-- Node14 -->
<g id="node4" class="node"><title>Node14</title>
<g id="a_node4"><a xlink:href="a25915.html" target="_top" xlink:title=" ">
<polygon fill="none" stroke="red" points="328,-127.5 328,-206.5 447,-206.5 447,-127.5 328,-127.5"/>
<text text-anchor="middle" x="387.5" y="-194.5" font-family="Helvetica,sans-Serif" font-size="10.00">SDK::UClass</text>
<polyline fill="none" stroke="red" points="328,-187.5 447,-187.5 "/>
<text text-anchor="middle" x="387.5" y="-175.5" font-family="Helvetica,sans-Serif" font-size="10.00"> </text>
<polyline fill="none" stroke="red" points="328,-168.5 447,-168.5 "/>
<text text-anchor="start" x="336" y="-156.5" font-family="Helvetica,sans-Serif" font-size="10.00">+ CreateDefaultObject()</text>
<text text-anchor="start" x="336" y="-145.5" font-family="Helvetica,sans-Serif" font-size="10.00">+ CreateDefaultObject()</text>
<text text-anchor="start" x="336" y="-134.5" font-family="Helvetica,sans-Serif" font-size="10.00">+ StaticClass()</text>
</a>
</g>
</g>
<!-- Node4&#45;&gt;Node14 -->
<g id="edge4" class="edge"><title>Node4&#45;&gt;Node14</title>
<path fill="none" stroke="#404040" d="M294.088,-263.936C306.79,-250.891 324.567,-232.634 341.207,-215.544"/>
<polygon fill="none" stroke="#404040" points="341.401,-215.344 342.721,-208.255 349.773,-206.747 348.453,-213.836 341.401,-215.344"/>
<text text-anchor="middle" x="372.5" y="-228" font-family="Helvetica,sans-Serif" font-size="10.00"> +UnknownData00</text>
</g>
<!-- Node14&#45;&gt;Node1 -->
<g id="edge3" class="edge"><title>Node14&#45;&gt;Node1</title>
<path fill="none" stroke="#404040" d="M381.418,-127.438C380.641,-121.285 379.958,-114.978 379.5,-109 378.809,-99.9896 378.424,-90.3402 378.228,-81.0948"/>
<polygon fill="none" stroke="#404040" points="378.225,-80.8346 374.147,-74.8875 378.068,-68.8356 382.146,-74.7827 378.225,-80.8346"/>
<text text-anchor="middle" x="420" y="-95.5" font-family="Helvetica,sans-Serif" font-size="10.00"> +DefaultItemDesc</text>
</g>
<!-- Node18 -->
<g id="node5" class="node"><title>Node18</title>
<g id="a_node5"><a xlink:title=" ">
<polygon fill="none" stroke="#bfbfbf" points="465,-138.5 465,-195.5 500,-195.5 500,-138.5 465,-138.5"/>
<text text-anchor="middle" x="482.5" y="-183.5" font-family="Helvetica,sans-Serif" font-size="10.00">bool</text>
<polyline fill="none" stroke="#bfbfbf" points="465,-176.5 500,-176.5 "/>
<text text-anchor="middle" x="482.5" y="-164.5" font-family="Helvetica,sans-Serif" font-size="10.00"> </text>
<polyline fill="none" stroke="#bfbfbf" points="465,-157.5 500,-157.5 "/>
<text text-anchor="middle" x="482.5" y="-145.5" font-family="Helvetica,sans-Serif" font-size="10.00"> </text>
</a>
</g>
</g>
<!-- Node18&#45;&gt;Node1 -->
<g id="edge5" class="edge"><title>Node18&#45;&gt;Node1</title>
<path fill="none" stroke="#404040" d="M479.799,-138.208C477.065,-121.977 471.565,-101.837 460.5,-87 457.83,-83.4205 454.832,-80.0293 451.602,-76.8259"/>
<polygon fill="none" stroke="#404040" points="451.536,-76.7674 444.395,-75.7627 442.576,-68.7848 449.717,-69.7895 451.536,-76.7674"/>
<text text-anchor="middle" x="519.5" y="-95.5" font-family="Helvetica,sans-Serif" font-size="10.00"> +ControllingLoadable</text>
</g>
<!-- Node19 -->
<g id="node6" class="node"><title>Node19</title>
<g id="a_node6"><a xlink:href="a31231.html" target="_top" xlink:title=" ">
<polygon fill="none" stroke="red" points="549.5,-138.5 549.5,-195.5 649.5,-195.5 649.5,-138.5 549.5,-138.5"/>
<text text-anchor="middle" x="599.5" y="-183.5" font-family="Helvetica,sans-Serif" font-size="10.00">SDK::FNetActorPtr</text>
<polyline fill="none" stroke="red" points="549.5,-176.5 649.5,-176.5 "/>
<text text-anchor="middle" x="599.5" y="-164.5" font-family="Helvetica,sans-Serif" font-size="10.00"> </text>
<polyline fill="none" stroke="red" points="549.5,-157.5 649.5,-157.5 "/>
<text text-anchor="middle" x="599.5" y="-145.5" font-family="Helvetica,sans-Serif" font-size="10.00"> </text>
</a>
</g>
</g>
<!-- Node19&#45;&gt;Node1 -->
<g id="edge6" class="edge"><title>Node19&#45;&gt;Node1</title>
<path fill="none" stroke="#404040" d="M595.864,-138.275C592.219,-121.234 584.951,-100.208 570.5,-87 541.892,-60.851 501.434,-47.7334 465.028,-41.2462"/>
<polygon fill="none" stroke="#404040" points="464.708,-41.1949 458.15,-44.1924 452.86,-39.2911 459.419,-36.2937 464.708,-41.1949"/>
<text text-anchor="middle" x="623.5" y="-101" font-family="Helvetica,sans-Serif" font-size="10.00"> +Interactable</text>
<text text-anchor="middle" x="623.5" y="-90" font-family="Helvetica,sans-Serif" font-size="10.00">+LoadableObject</text>
</g>
</g>
</svg>
        <g id="navigator" transform="translate(0 0)" fill="#404254">
                <rect fill="#f2f5e9" fill-opacity="0.5" stroke="#606060" stroke-width=".5" x="0" y="0" width="60" height="60"/>
                <use id="zoomplus" xlink:href="#zoomPlus" x="17" y="9" onmousedown="handleZoom(evt,'in')"/>
                <use id="zoomminus" xlink:href="#zoomMin" x="42" y="9" onmousedown="handleZoom(evt,'out')"/>
                <use id="reset" xlink:href="#resetDef" x="30" y="36" onmousedown="handleReset()"/>
                <g id="arrowUp" xlink:href="#dirArrow" transform="translate(30 24)" onmousedown="handlePan(0,-1)">
                  <use xlink:href="#rim" fill="#404040">
                        <set attributeName="fill" to="#808080" begin="arrowUp.mouseover" end="arrowUp.mouseout"/>
                  </use>
                  <path fill="none" stroke="white" stroke-width="1.5" d="M0,-3.0v7 M-2.5,-0.5L0,-3.0L2.5,-0.5"/>
                </g>
                <g id="arrowRight" xlink:href="#dirArrow" transform="rotate(90) translate(36 -43)" onmousedown="handlePan(1,0)">
                  <use xlink:href="#rim" fill="#404040">
                        <set attributeName="fill" to="#808080" begin="arrowRight.mouseover" end="arrowRight.mouseout"/>
                  </use>
                  <path fill="none" stroke="white" stroke-width="1.5" d="M0,-3.0v7 M-2.5,-0.5L0,-3.0L2.5,-0.5"/>
                </g>
                <g id="arrowDown" xlink:href="#dirArrow" transform="rotate(180) translate(-30 -48)" onmousedown="handlePan(0,1)">
                  <use xlink:href="#rim" fill="#404040">
                        <set attributeName="fill" to="#808080" begin="arrowDown.mouseover" end="arrowDown.mouseout"/>
                  </use>
                  <path fill="none" stroke="white" stroke-width="1.5" d="M0,-3.0v7 M-2.5,-0.5L0,-3.0L2.5,-0.5"/>
                </g>
                <g id="arrowLeft" xlink:href="#dirArrow" transform="rotate(270) translate(-36 17)" onmousedown="handlePan(-1,0)">
                  <use xlink:href="#rim" fill="#404040">
                        <set attributeName="fill" to="#808080" begin="arrowLeft.mouseover" end="arrowLeft.mouseout"/>
                  </use>
                  <path fill="none" stroke="white" stroke-width="1.5" d="M0,-3.0v7 M-2.5,-0.5L0,-3.0L2.5,-0.5"/>
                </g>
        </g>
        <svg viewBox="0 0 15 15" width="100%" height="30px" preserveAspectRatio="xMaxYMin meet">
         <g id="arrow_out" transform="scale(0.3 0.3)">
          <a xlink:href="a19341_org.svg" target="_base">
           <rect id="button" ry="5" rx="5" y="6" x="6" height="38" width="38"
                fill="#f2f5e9" fill-opacity="0.5" stroke="#606060" stroke-width="1.0"/>
           <path id="arrow"
             d="M 11.500037,31.436501 C 11.940474,20.09759 22.043105,11.32322 32.158766,21.979434 L 37.068811,17.246167 C 37.068811,17.246167 37.088388,32 37.088388,32 L 22.160133,31.978069 C 22.160133,31.978069 26.997745,27.140456 26.997745,27.140456 C 18.528582,18.264221 13.291696,25.230495 11.500037,31.436501 z"
             style="fill:#404040;"/>
          </a>
         </g>
        </svg>
</svg>
