<?xml version="1.0" encoding="UTF-8" standalone="no"?>
<!DOCTYPE svg PUBLIC "-//W3C//DTD SVG 1.1//EN"
 "http://www.w3.org/Graphics/SVG/1.1/DTD/svg11.dtd">
<!-- Generated by graphviz version 2.38.0 (20140413.2041)
 -->
<!-- Title: SDK::FRepairObjectActionStateConstructionInfo Pages: 1 -->
<!--zoomable 204 -->
<svg id="main" version="1.1" xmlns="http://www.w3.org/2000/svg" xmlns:xlink="http://www.w3.org/1999/xlink" xml:space="preserve" onload="init(evt)">
<style type="text/css"><![CDATA[
.edge:hover path { stroke: red; }
.edge:hover polygon { stroke: red; fill: red; }
]]></style>
<script type="text/javascript"><![CDATA[
var edges = document.getElementsByTagName('g');
if (edges && edges.length) {
  for (var i=0;i<edges.length;i++) {
    if (edges[i].id.substr(0,4)=='edge') {
      edges[i].setAttribute('class','edge');
    }
  }
}
]]></script>
        <defs>
                <circle id="rim" cx="0" cy="0" r="7"/>
                <circle id="rim2" cx="0" cy="0" r="3.5"/>
                <g id="zoomPlus">
                        <use xlink:href="#rim" fill="#404040">
                                <set attributeName="fill" to="#808080" begin="zoomplus.mouseover" end="zoomplus.mouseout"/>
                        </use>
                        <path d="M-4,0h8M0,-4v8" fill="none" stroke="white" stroke-width="1.5" pointer-events="none"/>
                </g>
                <g id="zoomMin">
                        <use xlink:href="#rim" fill="#404040">
                                <set attributeName="fill" to="#808080" begin="zoomminus.mouseover" end="zoomminus.mouseout"/>
                        </use>
                        <path d="M-4,0h8" fill="none" stroke="white" stroke-width="1.5" pointer-events="none"/>
                </g>
                <g id="dirArrow">
                        <path fill="none" stroke="white" stroke-width="1.5" d="M0,-3.0v7 M-2.5,-0.5L0,-3.0L2.5,-0.5"/>
                </g>
               <g id="resetDef">
                       <use xlink:href="#rim2" fill="#404040">
                               <set attributeName="fill" to="#808080" begin="reset.mouseover" end="reset.mouseout"/>
                       </use>
               </g>
        </defs>

<script type="text/javascript">
var viewWidth = 598;
var viewHeight = 204;
var sectionId = 'dynsection-1';
</script>
<script xlink:href="svgpan.js"/>
<svg id="graph" class="graph">
<g id="viewport">
<title>SDK::FRepairObjectActionStateConstructionInfo</title>
<!-- Node1 -->
<g id="node1" class="node"><title>Node1</title>
<g id="a_node1"><a xlink:title=" ">
<polygon fill="#bfbfbf" stroke="black" points="275,-0.5 275,-68.5 408,-68.5 408,-0.5 275,-0.5"/>
<text text-anchor="start" x="283" y="-56.5" font-family="Helvetica,sans-Serif" font-size="10.00">SDK::FRepairObjectAction</text>
<text text-anchor="middle" x="341.5" y="-45.5" font-family="Helvetica,sans-Serif" font-size="10.00">StateConstructionInfo</text>
<polyline fill="none" stroke="black" points="275,-38.5 408,-38.5 "/>
<text text-anchor="middle" x="341.5" y="-26.5" font-family="Helvetica,sans-Serif" font-size="10.00"> </text>
<polyline fill="none" stroke="black" points="275,-19.5 408,-19.5 "/>
<text text-anchor="middle" x="341.5" y="-7.5" font-family="Helvetica,sans-Serif" font-size="10.00"> </text>
</a>
</g>
</g>
<!-- Node2 -->
<g id="node2" class="node"><title>Node2</title>
<g id="a_node2"><a xlink:href="a00755.html" target="_top" xlink:title=" ">
<polygon fill="none" stroke="red" points="0,-127.5 0,-184.5 193,-184.5 193,-127.5 0,-127.5"/>
<text text-anchor="middle" x="96.5" y="-172.5" font-family="Helvetica,sans-Serif" font-size="10.00">SDK::FActorActionStateConstructionInfo</text>
<polyline fill="none" stroke="red" points="0,-165.5 193,-165.5 "/>
<text text-anchor="middle" x="96.5" y="-153.5" font-family="Helvetica,sans-Serif" font-size="10.00"> </text>
<polyline fill="none" stroke="red" points="0,-146.5 193,-146.5 "/>
<text text-anchor="middle" x="96.5" y="-134.5" font-family="Helvetica,sans-Serif" font-size="10.00"> </text>
</a>
</g>
</g>
<!-- Node2&#45;&gt;Node1 -->
<g id="edge1" class="edge"><title>Node2&#45;&gt;Node1</title>
<path fill="none" stroke="midnightblue" d="M162.165,-122.972C197.04,-105.961 239.812,-85.0988 274.836,-68.0155"/>
<polygon fill="none" stroke="midnightblue" points="160.469,-119.905 153.016,-127.434 163.538,-126.196 160.469,-119.905"/>
</g>
<!-- Node18 -->
<g id="node3" class="node"><title>Node18</title>
<g id="a_node3"><a xlink:href="a31239.html" target="_top" xlink:title=" ">
<polygon fill="none" stroke="red" points="211.5,-127.5 211.5,-184.5 333.5,-184.5 333.5,-127.5 211.5,-127.5"/>
<text text-anchor="middle" x="272.5" y="-172.5" font-family="Helvetica,sans-Serif" font-size="10.00">SDK::FNetSubObjectPtr</text>
<polyline fill="none" stroke="red" points="211.5,-165.5 333.5,-165.5 "/>
<text text-anchor="middle" x="272.5" y="-153.5" font-family="Helvetica,sans-Serif" font-size="10.00"> </text>
<polyline fill="none" stroke="red" points="211.5,-146.5 333.5,-146.5 "/>
<text text-anchor="middle" x="272.5" y="-134.5" font-family="Helvetica,sans-Serif" font-size="10.00"> </text>
</a>
</g>
</g>
<!-- Node18&#45;&gt;Node1 -->
<g id="edge2" class="edge"><title>Node18&#45;&gt;Node1</title>
<path fill="none" stroke="#404040" d="M284.705,-127.351C290.553,-114.795 297.925,-99.8999 305.5,-87 307.127,-84.2293 308.856,-81.4145 310.642,-78.6024"/>
<polygon fill="none" stroke="#404040" points="310.684,-78.5391 310.64,-71.3281 317.28,-68.5145 317.323,-75.7255 310.684,-78.5391"/>
<text text-anchor="middle" x="347.5" y="-90" font-family="Helvetica,sans-Serif" font-size="10.00"> +RepairableObject</text>
</g>
<!-- Node14 -->
<g id="node4" class="node"><title>Node14</title>
<g id="a_node4"><a xlink:href="a25915.html" target="_top" xlink:title=" ">
<polygon fill="none" stroke="red" points="352,-116.5 352,-195.5 471,-195.5 471,-116.5 352,-116.5"/>
<text text-anchor="middle" x="411.5" y="-183.5" font-family="Helvetica,sans-Serif" font-size="10.00">SDK::UClass</text>
<polyline fill="none" stroke="red" points="352,-176.5 471,-176.5 "/>
<text text-anchor="middle" x="411.5" y="-164.5" font-family="Helvetica,sans-Serif" font-size="10.00"> </text>
<polyline fill="none" stroke="red" points="352,-157.5 471,-157.5 "/>
<text text-anchor="start" x="360" y="-145.5" font-family="Helvetica,sans-Serif" font-size="10.00">+ CreateDefaultObject()</text>
<text text-anchor="start" x="360" y="-134.5" font-family="Helvetica,sans-Serif" font-size="10.00">+ CreateDefaultObject()</text>
<text text-anchor="start" x="360" y="-123.5" font-family="Helvetica,sans-Serif" font-size="10.00">+ StaticClass()</text>
</a>
</g>
</g>
<!-- Node14&#45;&gt;Node1 -->
<g id="edge3" class="edge"><title>Node14&#45;&gt;Node1</title>
<path fill="none" stroke="#404040" d="M402.206,-116.327C398.968,-106.394 394.783,-95.9845 389.5,-87 387.758,-84.0368 385.819,-81.1031 383.747,-78.2282"/>
<polygon fill="none" stroke="#404040" points="383.697,-78.1633 376.846,-75.9121 376.289,-68.7225 383.14,-70.9737 383.697,-78.1633"/>
<text text-anchor="middle" x="415.5" y="-90" font-family="Helvetica,sans-Serif" font-size="10.00"> +InputID</text>
</g>
<!-- Node20 -->
<g id="node5" class="node"><title>Node20</title>
<g id="a_node5"><a xlink:href="a31231.html" target="_top" xlink:title=" ">
<polygon fill="none" stroke="red" points="489.5,-127.5 489.5,-184.5 589.5,-184.5 589.5,-127.5 489.5,-127.5"/>
<text text-anchor="middle" x="539.5" y="-172.5" font-family="Helvetica,sans-Serif" font-size="10.00">SDK::FNetActorPtr</text>
<polyline fill="none" stroke="red" points="489.5,-165.5 589.5,-165.5 "/>
<text text-anchor="middle" x="539.5" y="-153.5" font-family="Helvetica,sans-Serif" font-size="10.00"> </text>
<polyline fill="none" stroke="red" points="489.5,-146.5 589.5,-146.5 "/>
<text text-anchor="middle" x="539.5" y="-134.5" font-family="Helvetica,sans-Serif" font-size="10.00"> </text>
</a>
</g>
</g>
<!-- Node20&#45;&gt;Node1 -->
<g id="edge4" class="edge"><title>Node20&#45;&gt;Node1</title>
<path fill="none" stroke="#404040" d="M501.225,-127.477C482.872,-114.669 460.382,-99.5319 439.5,-87 432.443,-82.765 425.005,-78.5059 417.511,-74.3492"/>
<polygon fill="none" stroke="#404040" points="417.441,-74.3111 410.258,-74.9421 406.912,-68.5539 414.096,-67.9229 417.441,-74.3111"/>
<text text-anchor="middle" x="488.5" y="-90" font-family="Helvetica,sans-Serif" font-size="10.00"> +WieldedItem</text>
</g>
</g>
</svg>
        <g id="navigator" transform="translate(0 0)" fill="#404254">
                <rect fill="#f2f5e9" fill-opacity="0.5" stroke="#606060" stroke-width=".5" x="0" y="0" width="60" height="60"/>
                <use id="zoomplus" xlink:href="#zoomPlus" x="17" y="9" onmousedown="handleZoom(evt,'in')"/>
                <use id="zoomminus" xlink:href="#zoomMin" x="42" y="9" onmousedown="handleZoom(evt,'out')"/>
                <use id="reset" xlink:href="#resetDef" x="30" y="36" onmousedown="handleReset()"/>
                <g id="arrowUp" xlink:href="#dirArrow" transform="translate(30 24)" onmousedown="handlePan(0,-1)">
                  <use xlink:href="#rim" fill="#404040">
                        <set attributeName="fill" to="#808080" begin="arrowUp.mouseover" end="arrowUp.mouseout"/>
                  </use>
                  <path fill="none" stroke="white" stroke-width="1.5" d="M0,-3.0v7 M-2.5,-0.5L0,-3.0L2.5,-0.5"/>
                </g>
                <g id="arrowRight" xlink:href="#dirArrow" transform="rotate(90) translate(36 -43)" onmousedown="handlePan(1,0)">
                  <use xlink:href="#rim" fill="#404040">
                        <set attributeName="fill" to="#808080" begin="arrowRight.mouseover" end="arrowRight.mouseout"/>
                  </use>
                  <path fill="none" stroke="white" stroke-width="1.5" d="M0,-3.0v7 M-2.5,-0.5L0,-3.0L2.5,-0.5"/>
                </g>
                <g id="arrowDown" xlink:href="#dirArrow" transform="rotate(180) translate(-30 -48)" onmousedown="handlePan(0,1)">
                  <use xlink:href="#rim" fill="#404040">
                        <set attributeName="fill" to="#808080" begin="arrowDown.mouseover" end="arrowDown.mouseout"/>
                  </use>
                  <path fill="none" stroke="white" stroke-width="1.5" d="M0,-3.0v7 M-2.5,-0.5L0,-3.0L2.5,-0.5"/>
                </g>
                <g id="arrowLeft" xlink:href="#dirArrow" transform="rotate(270) translate(-36 17)" onmousedown="handlePan(-1,0)">
                  <use xlink:href="#rim" fill="#404040">
                        <set attributeName="fill" to="#808080" begin="arrowLeft.mouseover" end="arrowLeft.mouseout"/>
                  </use>
                  <path fill="none" stroke="white" stroke-width="1.5" d="M0,-3.0v7 M-2.5,-0.5L0,-3.0L2.5,-0.5"/>
                </g>
        </g>
        <svg viewBox="0 0 15 15" width="100%" height="30px" preserveAspectRatio="xMaxYMin meet">
         <g id="arrow_out" transform="scale(0.3 0.3)">
          <a xlink:href="a19397_org.svg" target="_base">
           <rect id="button" ry="5" rx="5" y="6" x="6" height="38" width="38"
                fill="#f2f5e9" fill-opacity="0.5" stroke="#606060" stroke-width="1.0"/>
           <path id="arrow"
             d="M 11.500037,31.436501 C 11.940474,20.09759 22.043105,11.32322 32.158766,21.979434 L 37.068811,17.246167 C 37.068811,17.246167 37.088388,32 37.088388,32 L 22.160133,31.978069 C 22.160133,31.978069 26.997745,27.140456 26.997745,27.140456 C 18.528582,18.264221 13.291696,25.230495 11.500037,31.436501 z"
             style="fill:#404040;"/>
          </a>
         </g>
        </svg>
</svg>
