<?xml version="1.0" encoding="UTF-8" standalone="no"?>
<!DOCTYPE svg PUBLIC "-//W3C//DTD SVG 1.1//EN"
 "http://www.w3.org/Graphics/SVG/1.1/DTD/svg11.dtd">
<!-- Generated by graphviz version 2.38.0 (20140413.2041)
 -->
<!-- Title: SDK::FTeleportActionStateSerialisableData Pages: 1 -->
<svg width="330pt" height="298pt"
 viewBox="0.00 0.00 329.88 298.00" xmlns="http://www.w3.org/2000/svg" xmlns:xlink="http://www.w3.org/1999/xlink">
<g id="graph0" class="graph" transform="scale(1 1) rotate(0) translate(4 294)">
<title>SDK::FTeleportActionStateSerialisableData</title>
<!-- Node1 -->
<g id="node1" class="node"><title>Node1</title>
<g id="a_node1"><a xlink:title=" ">
<polygon fill="#bfbfbf" stroke="black" points="116.383,-0.5 116.383,-68.5 250.383,-68.5 250.383,-0.5 116.383,-0.5"/>
<text text-anchor="start" x="124.383" y="-56.5" font-family="Helvetica,sans-Serif" font-size="10.00">SDK::FTeleportActionState</text>
<text text-anchor="middle" x="183.383" y="-45.5" font-family="Helvetica,sans-Serif" font-size="10.00">SerialisableData</text>
<polyline fill="none" stroke="black" points="116.383,-38.5 250.383,-38.5 "/>
<text text-anchor="middle" x="183.383" y="-26.5" font-family="Helvetica,sans-Serif" font-size="10.00"> </text>
<polyline fill="none" stroke="black" points="116.383,-19.5 250.383,-19.5 "/>
<text text-anchor="middle" x="183.383" y="-7.5" font-family="Helvetica,sans-Serif" font-size="10.00"> </text>
</a>
</g>
</g>
<!-- Node2 -->
<g id="node2" class="node"><title>Node2</title>
<g id="a_node2"><a xlink:href="a00719.html" target="_top" xlink:title=" ">
<polygon fill="none" stroke="red" points="98.3826,-116.5 98.3826,-173.5 268.383,-173.5 268.383,-116.5 98.3826,-116.5"/>
<text text-anchor="middle" x="183.383" y="-161.5" font-family="Helvetica,sans-Serif" font-size="10.00">SDK::FActionStateSerialisableData</text>
<polyline fill="none" stroke="red" points="98.3826,-154.5 268.383,-154.5 "/>
<text text-anchor="middle" x="183.383" y="-142.5" font-family="Helvetica,sans-Serif" font-size="10.00"> </text>
<polyline fill="none" stroke="red" points="98.3826,-135.5 268.383,-135.5 "/>
<text text-anchor="middle" x="183.383" y="-123.5" font-family="Helvetica,sans-Serif" font-size="10.00"> </text>
</a>
</g>
</g>
<!-- Node2&#45;&gt;Node1 -->
<g id="edge1" class="edge"><title>Node2&#45;&gt;Node1</title>
<path fill="none" stroke="midnightblue" d="M183.383,-105.987C183.383,-93.7713 183.383,-80.3457 183.383,-68.5186"/>
<polygon fill="none" stroke="midnightblue" points="179.883,-106.34 183.383,-116.34 186.883,-106.34 179.883,-106.34"/>
</g>
<!-- Node13 -->
<g id="node3" class="node"><title>Node13</title>
<g id="a_node3"><a xlink:title=" ">
<polygon fill="none" stroke="#bfbfbf" points="36.8826,-232.5 36.8826,-289.5 71.8826,-289.5 71.8826,-232.5 36.8826,-232.5"/>
<text text-anchor="middle" x="54.3826" y="-277.5" font-family="Helvetica,sans-Serif" font-size="10.00">char</text>
<polyline fill="none" stroke="#bfbfbf" points="36.8826,-270.5 71.8826,-270.5 "/>
<text text-anchor="middle" x="54.3826" y="-258.5" font-family="Helvetica,sans-Serif" font-size="10.00"> </text>
<polyline fill="none" stroke="#bfbfbf" points="36.8826,-251.5 71.8826,-251.5 "/>
<text text-anchor="middle" x="54.3826" y="-239.5" font-family="Helvetica,sans-Serif" font-size="10.00"> </text>
</a>
</g>
</g>
<!-- Node13&#45;&gt;Node1 -->
<g id="edge3" class="edge"><title>Node13&#45;&gt;Node1</title>
<path fill="none" stroke="#404040" d="M36.672,-237.981C15.1351,-208.339 -15.4446,-154.842 9.38262,-116 30.4808,-82.9924 68.9572,-63.32 104.373,-51.6979"/>
<polygon fill="none" stroke="#404040" points="104.765,-51.5778 109.328,-45.9936 116.237,-48.0575 111.675,-53.6417 104.765,-51.5778"/>
<text text-anchor="middle" x="49.3826" y="-142.5" font-family="Helvetica,sans-Serif" font-size="10.00"> +UnknownData00</text>
</g>
<!-- Node13&#45;&gt;Node2 -->
<g id="edge2" class="edge"><title>Node13&#45;&gt;Node2</title>
<path fill="none" stroke="#404040" d="M72.049,-244.388C90.2024,-228.345 119.094,-202.813 142.896,-181.778"/>
<polygon fill="none" stroke="#404040" points="143.077,-181.619 144.924,-174.648 152.069,-173.672 150.222,-180.643 143.077,-181.619"/>
<text text-anchor="middle" x="171.383" y="-206" font-family="Helvetica,sans-Serif" font-size="10.00"> +UnknownData01</text>
<text text-anchor="middle" x="171.383" y="-195" font-family="Helvetica,sans-Serif" font-size="10.00">+UnknownData00</text>
</g>
<!-- Node15 -->
<g id="node4" class="node"><title>Node15</title>
<g id="a_node4"><a xlink:title=" ">
<polygon fill="none" stroke="#bfbfbf" points="286.883,-116.5 286.883,-173.5 321.883,-173.5 321.883,-116.5 286.883,-116.5"/>
<text text-anchor="middle" x="304.383" y="-161.5" font-family="Helvetica,sans-Serif" font-size="10.00">bool</text>
<polyline fill="none" stroke="#bfbfbf" points="286.883,-154.5 321.883,-154.5 "/>
<text text-anchor="middle" x="304.383" y="-142.5" font-family="Helvetica,sans-Serif" font-size="10.00"> </text>
<polyline fill="none" stroke="#bfbfbf" points="286.883,-135.5 321.883,-135.5 "/>
<text text-anchor="middle" x="304.383" y="-123.5" font-family="Helvetica,sans-Serif" font-size="10.00"> </text>
</a>
</g>
</g>
<!-- Node15&#45;&gt;Node1 -->
<g id="edge4" class="edge"><title>Node15&#45;&gt;Node1</title>
<path fill="none" stroke="#404040" d="M286.615,-125.079C283.584,-121.995 280.429,-118.872 277.383,-116 263.403,-102.822 247.722,-89.0295 233.233,-76.6588"/>
<polygon fill="none" stroke="#404040" points="233.065,-76.517 225.902,-75.687 223.913,-68.7556 231.076,-69.5856 233.065,-76.517"/>
<text text-anchor="middle" x="289.383" y="-90" font-family="Helvetica,sans-Serif" font-size="10.00"> +IsTeleporting</text>
</g>
</g>
</svg>
