<?xml version="1.0" encoding="UTF-8" standalone="no"?>
<!DOCTYPE svg PUBLIC "-//W3C//DTD SVG 1.1//EN"
 "http://www.w3.org/Graphics/SVG/1.1/DTD/svg11.dtd">
<!-- Generated by graphviz version 2.38.0 (20140413.2041)
 -->
<!-- Title: SDK::FMeleeWeaponAttackTelemetryEvent Pages: 1 -->
<svg width="392pt" height="237pt"
 viewBox="0.00 0.00 391.50 237.00" xmlns="http://www.w3.org/2000/svg" xmlns:xlink="http://www.w3.org/1999/xlink">
<g id="graph0" class="graph" transform="scale(1 1) rotate(0) translate(4 233)">
<title>SDK::FMeleeWeaponAttackTelemetryEvent</title>
<!-- Node1 -->
<g id="node1" class="node"><title>Node1</title>
<g id="a_node1"><a xlink:title=" ">
<polygon fill="#bfbfbf" stroke="black" points="100.5,-0.5 100.5,-68.5 282.5,-68.5 282.5,-0.5 100.5,-0.5"/>
<text text-anchor="start" x="108.5" y="-56.5" font-family="Helvetica,sans-Serif" font-size="10.00">SDK::FMeleeWeaponAttackTelemetry</text>
<text text-anchor="middle" x="191.5" y="-45.5" font-family="Helvetica,sans-Serif" font-size="10.00">Event</text>
<polyline fill="none" stroke="black" points="100.5,-38.5 282.5,-38.5 "/>
<text text-anchor="middle" x="191.5" y="-26.5" font-family="Helvetica,sans-Serif" font-size="10.00"> </text>
<polyline fill="none" stroke="black" points="100.5,-19.5 282.5,-19.5 "/>
<text text-anchor="middle" x="191.5" y="-7.5" font-family="Helvetica,sans-Serif" font-size="10.00"> </text>
</a>
</g>
</g>
<!-- Node2 -->
<g id="node2" class="node"><title>Node2</title>
<g id="a_node2"><a xlink:title=" ">
<polygon fill="none" stroke="#bfbfbf" points="0,-149.5 0,-206.5 35,-206.5 35,-149.5 0,-149.5"/>
<text text-anchor="middle" x="17.5" y="-194.5" font-family="Helvetica,sans-Serif" font-size="10.00">float</text>
<polyline fill="none" stroke="#bfbfbf" points="0,-187.5 35,-187.5 "/>
<text text-anchor="middle" x="17.5" y="-175.5" font-family="Helvetica,sans-Serif" font-size="10.00"> </text>
<polyline fill="none" stroke="#bfbfbf" points="0,-168.5 35,-168.5 "/>
<text text-anchor="middle" x="17.5" y="-156.5" font-family="Helvetica,sans-Serif" font-size="10.00"> </text>
</a>
</g>
</g>
<!-- Node2&#45;&gt;Node1 -->
<g id="edge1" class="edge"><title>Node2&#45;&gt;Node1</title>
<path fill="none" stroke="#404040" d="M15.0381,-149.49C14.8059,-129.866 17.8149,-104.038 32.5,-87 47.1926,-69.9529 67.5772,-58.5082 88.8561,-50.8358"/>
<polygon fill="none" stroke="#404040" points="88.9853,-50.7934 93.4401,-45.1229 100.388,-47.054 95.9331,-52.7245 88.9853,-50.7934"/>
<text text-anchor="middle" x="82.5" y="-101" font-family="Helvetica,sans-Serif" font-size="10.00"> +RequesterTimeOffset</text>
<text text-anchor="middle" x="82.5" y="-90" font-family="Helvetica,sans-Serif" font-size="10.00">+RequesterLatencyMs</text>
</g>
<!-- Node3 -->
<g id="node3" class="node"><title>Node3</title>
<g id="a_node3"><a xlink:title=" ">
<polygon fill="none" stroke="#bfbfbf" points="123,-149.5 123,-206.5 158,-206.5 158,-149.5 123,-149.5"/>
<text text-anchor="middle" x="140.5" y="-194.5" font-family="Helvetica,sans-Serif" font-size="10.00">char</text>
<polyline fill="none" stroke="#bfbfbf" points="123,-187.5 158,-187.5 "/>
<text text-anchor="middle" x="140.5" y="-175.5" font-family="Helvetica,sans-Serif" font-size="10.00"> </text>
<polyline fill="none" stroke="#bfbfbf" points="123,-168.5 158,-168.5 "/>
<text text-anchor="middle" x="140.5" y="-156.5" font-family="Helvetica,sans-Serif" font-size="10.00"> </text>
</a>
</g>
</g>
<!-- Node3&#45;&gt;Node1 -->
<g id="edge2" class="edge"><title>Node3&#45;&gt;Node1</title>
<path fill="none" stroke="#404040" d="M135.616,-149.165C133.627,-130.821 133.403,-106.649 141.5,-87 142.684,-84.1268 144.112,-81.3246 145.725,-78.6069"/>
<polygon fill="none" stroke="#404040" points="145.864,-78.4078 146.022,-71.1984 152.738,-68.5721 152.58,-75.7815 145.864,-78.4078"/>
<text text-anchor="middle" x="181.5" y="-95.5" font-family="Helvetica,sans-Serif" font-size="10.00"> +UnknownData00</text>
</g>
<!-- Node4 -->
<g id="node4" class="node"><title>Node4</title>
<g id="a_node4"><a xlink:title=" ">
<polygon fill="none" stroke="#bfbfbf" points="229,-149.5 229,-206.5 258,-206.5 258,-149.5 229,-149.5"/>
<text text-anchor="middle" x="243.5" y="-194.5" font-family="Helvetica,sans-Serif" font-size="10.00">int</text>
<polyline fill="none" stroke="#bfbfbf" points="229,-187.5 258,-187.5 "/>
<text text-anchor="middle" x="243.5" y="-175.5" font-family="Helvetica,sans-Serif" font-size="10.00"> </text>
<polyline fill="none" stroke="#bfbfbf" points="229,-168.5 258,-168.5 "/>
<text text-anchor="middle" x="243.5" y="-156.5" font-family="Helvetica,sans-Serif" font-size="10.00"> </text>
</a>
</g>
</g>
<!-- Node4&#45;&gt;Node1 -->
<g id="edge3" class="edge"><title>Node4&#45;&gt;Node1</title>
<path fill="none" stroke="#404040" d="M238.848,-149.184C235.301,-131.064 229.627,-107.137 221.5,-87 220.493,-84.5052 219.381,-81.986 218.196,-79.473"/>
<polygon fill="none" stroke="#404040" points="218.094,-79.2738 211.801,-75.7535 212.63,-68.5902 218.923,-72.1105 218.094,-79.2738"/>
<text text-anchor="middle" x="261.5" y="-95.5" font-family="Helvetica,sans-Serif" font-size="10.00"> +ComboIndex</text>
</g>
<!-- Node5 -->
<g id="node5" class="node"><title>Node5</title>
<g id="a_node5"><a xlink:href="a25843.html" target="_top" xlink:title=" ">
<polygon fill="none" stroke="red" points="293.5,-127.5 293.5,-228.5 367.5,-228.5 367.5,-127.5 293.5,-127.5"/>
<text text-anchor="middle" x="330.5" y="-216.5" font-family="Helvetica,sans-Serif" font-size="10.00">SDK::FString</text>
<polyline fill="none" stroke="red" points="293.5,-209.5 367.5,-209.5 "/>
<text text-anchor="middle" x="330.5" y="-197.5" font-family="Helvetica,sans-Serif" font-size="10.00"> </text>
<polyline fill="none" stroke="red" points="293.5,-190.5 367.5,-190.5 "/>
<text text-anchor="start" x="301.5" y="-178.5" font-family="Helvetica,sans-Serif" font-size="10.00">+ FString()</text>
<text text-anchor="start" x="301.5" y="-167.5" font-family="Helvetica,sans-Serif" font-size="10.00">+ FString()</text>
<text text-anchor="start" x="301.5" y="-156.5" font-family="Helvetica,sans-Serif" font-size="10.00">+ IsValid()</text>
<text text-anchor="start" x="301.5" y="-145.5" font-family="Helvetica,sans-Serif" font-size="10.00">+ c_str()</text>
<text text-anchor="start" x="301.5" y="-134.5" font-family="Helvetica,sans-Serif" font-size="10.00">+ ToString()</text>
</a>
</g>
</g>
<!-- Node5&#45;&gt;Node1 -->
<g id="edge4" class="edge"><title>Node5&#45;&gt;Node1</title>
<path fill="none" stroke="#404040" d="M319.701,-127.033C314.761,-112.854 307.656,-98.2347 297.5,-87 293.851,-82.9636 289.817,-79.2101 285.516,-75.7243"/>
<polygon fill="none" stroke="#404040" points="285.386,-75.6285 278.183,-75.293 275.722,-68.5147 282.925,-68.8502 285.386,-75.6285"/>
<text text-anchor="middle" x="348" y="-101" font-family="Helvetica,sans-Serif" font-size="10.00"> +WeaponName</text>
<text text-anchor="middle" x="348" y="-90" font-family="Helvetica,sans-Serif" font-size="10.00">+AttackType</text>
</g>
</g>
</svg>
