<?xml version="1.0" encoding="UTF-8" standalone="no"?>
<!DOCTYPE svg PUBLIC "-//W3C//DTD SVG 1.1//EN"
 "http://www.w3.org/Graphics/SVG/1.1/DTD/svg11.dtd">
<!-- Generated by graphviz version 2.38.0 (20140413.2041)
 -->
<!-- Title: SDK::FEventFaunaAnimationSnakeInAttackStance Pages: 1 -->
<svg width="304pt" height="259pt"
 viewBox="0.00 0.00 304.00 259.00" xmlns="http://www.w3.org/2000/svg" xmlns:xlink="http://www.w3.org/1999/xlink">
<g id="graph0" class="graph" transform="scale(1 1) rotate(0) translate(4 255)">
<title>SDK::FEventFaunaAnimationSnakeInAttackStance</title>
<!-- Node1 -->
<g id="node1" class="node"><title>Node1</title>
<g id="a_node1"><a xlink:title=" ">
<polygon fill="#bfbfbf" stroke="black" points="73.5,-0.5 73.5,-68.5 216.5,-68.5 216.5,-0.5 73.5,-0.5"/>
<text text-anchor="start" x="81.5" y="-56.5" font-family="Helvetica,sans-Serif" font-size="10.00">SDK::FEventFaunaAnimation</text>
<text text-anchor="middle" x="145" y="-45.5" font-family="Helvetica,sans-Serif" font-size="10.00">SnakeInAttackStance</text>
<polyline fill="none" stroke="black" points="73.5,-38.5 216.5,-38.5 "/>
<text text-anchor="middle" x="145" y="-26.5" font-family="Helvetica,sans-Serif" font-size="10.00"> </text>
<polyline fill="none" stroke="black" points="73.5,-19.5 216.5,-19.5 "/>
<text text-anchor="middle" x="145" y="-7.5" font-family="Helvetica,sans-Serif" font-size="10.00"> </text>
</a>
</g>
</g>
<!-- Node2 -->
<g id="node2" class="node"><title>Node2</title>
<g id="a_node2"><a xlink:href="a25635.html" target="_top" xlink:title=" ">
<polygon fill="none" stroke="black" points="0,-116.5 0,-250.5 164,-250.5 164,-116.5 0,-116.5"/>
<text text-anchor="start" x="8" y="-238.5" font-family="Helvetica,sans-Serif" font-size="10.00">SDK::TEnumAsByte&lt; EFauna</text>
<text text-anchor="middle" x="82" y="-227.5" font-family="Helvetica,sans-Serif" font-size="10.00">AnimationSnakeAttackDirection &gt;</text>
<polyline fill="none" stroke="black" points="0,-220.5 164,-220.5 "/>
<text text-anchor="middle" x="82" y="-208.5" font-family="Helvetica,sans-Serif" font-size="10.00"> </text>
<polyline fill="none" stroke="black" points="0,-201.5 164,-201.5 "/>
<text text-anchor="start" x="8" y="-189.5" font-family="Helvetica,sans-Serif" font-size="10.00">+ TEnumAsByte()</text>
<text text-anchor="start" x="8" y="-178.5" font-family="Helvetica,sans-Serif" font-size="10.00">+ TEnumAsByte()</text>
<text text-anchor="start" x="8" y="-167.5" font-family="Helvetica,sans-Serif" font-size="10.00">+ TEnumAsByte()</text>
<text text-anchor="start" x="8" y="-156.5" font-family="Helvetica,sans-Serif" font-size="10.00">+ TEnumAsByte()</text>
<text text-anchor="start" x="8" y="-145.5" font-family="Helvetica,sans-Serif" font-size="10.00">+ operator EFaunaAnimation</text>
<text text-anchor="start" x="8" y="-134.5" font-family="Helvetica,sans-Serif" font-size="10.00">SnakeAttackDirection()</text>
<text text-anchor="start" x="8" y="-123.5" font-family="Helvetica,sans-Serif" font-size="10.00">+ GetValue()</text>
</a>
</g>
</g>
<!-- Node2&#45;&gt;Node1 -->
<g id="edge1" class="edge"><title>Node2&#45;&gt;Node1</title>
<path fill="none" stroke="#404040" d="M75.3189,-116.329C76.362,-106.169 78.6904,-96.0585 83,-87 84.4935,-83.8608 86.281,-80.8458 88.2914,-77.9606"/>
<polygon fill="none" stroke="#404040" points="88.2952,-77.9559 88.9896,-70.7783 95.8822,-68.6586 95.1878,-75.8362 88.2952,-77.9559"/>
<text text-anchor="middle" x="135" y="-90" font-family="Helvetica,sans-Serif" font-size="10.00"> +SnakeAttackDirection</text>
</g>
<!-- Node3 -->
<g id="node3" class="node"><title>Node3</title>
<g id="a_node3"><a xlink:title=" ">
<polygon fill="none" stroke="#bfbfbf" points="191.5,-155 191.5,-212 226.5,-212 226.5,-155 191.5,-155"/>
<text text-anchor="middle" x="209" y="-200" font-family="Helvetica,sans-Serif" font-size="10.00">bool</text>
<polyline fill="none" stroke="#bfbfbf" points="191.5,-193 226.5,-193 "/>
<text text-anchor="middle" x="209" y="-181" font-family="Helvetica,sans-Serif" font-size="10.00"> </text>
<polyline fill="none" stroke="#bfbfbf" points="191.5,-174 226.5,-174 "/>
<text text-anchor="middle" x="209" y="-162" font-family="Helvetica,sans-Serif" font-size="10.00"> </text>
</a>
</g>
</g>
<!-- Node3&#45;&gt;Node1 -->
<g id="edge2" class="edge"><title>Node3&#45;&gt;Node1</title>
<path fill="none" stroke="#404040" d="M205.994,-154.623C203.072,-134.949 197.474,-108.393 187,-87 185.646,-84.2346 184.118,-81.4861 182.467,-78.781"/>
<polygon fill="none" stroke="#404040" points="182.317,-78.5598 175.643,-75.8299 175.596,-68.6189 182.27,-71.3489 182.317,-78.5598"/>
<text text-anchor="middle" x="244" y="-90" font-family="Helvetica,sans-Serif" font-size="10.00"> +SnakeInAttackStance</text>
</g>
</g>
</svg>
