<?xml version="1.0" encoding="UTF-8" standalone="no"?>
<!DOCTYPE svg PUBLIC "-//W3C//DTD SVG 1.1//EN"
 "http://www.w3.org/Graphics/SVG/1.1/DTD/svg11.dtd">
<!-- Generated by graphviz version 2.38.0 (20140413.2041)
 -->
<!-- Title: SDK::FPlayerTookFlameOfFateEvent Pages: 1 -->
<!--zoomable 529 -->
<svg id="main" version="1.1" xmlns="http://www.w3.org/2000/svg" xmlns:xlink="http://www.w3.org/1999/xlink" xml:space="preserve" onload="init(evt)">
<style type="text/css"><![CDATA[
.edge:hover path { stroke: red; }
.edge:hover polygon { stroke: red; fill: red; }
]]></style>
<script type="text/javascript"><![CDATA[
var edges = document.getElementsByTagName('g');
if (edges && edges.length) {
  for (var i=0;i<edges.length;i++) {
    if (edges[i].id.substr(0,4)=='edge') {
      edges[i].setAttribute('class','edge');
    }
  }
}
]]></script>
        <defs>
                <circle id="rim" cx="0" cy="0" r="7"/>
                <circle id="rim2" cx="0" cy="0" r="3.5"/>
                <g id="zoomPlus">
                        <use xlink:href="#rim" fill="#404040">
                                <set attributeName="fill" to="#808080" begin="zoomplus.mouseover" end="zoomplus.mouseout"/>
                        </use>
                        <path d="M-4,0h8M0,-4v8" fill="none" stroke="white" stroke-width="1.5" pointer-events="none"/>
                </g>
                <g id="zoomMin">
                        <use xlink:href="#rim" fill="#404040">
                                <set attributeName="fill" to="#808080" begin="zoomminus.mouseover" end="zoomminus.mouseout"/>
                        </use>
                        <path d="M-4,0h8" fill="none" stroke="white" stroke-width="1.5" pointer-events="none"/>
                </g>
                <g id="dirArrow">
                        <path fill="none" stroke="white" stroke-width="1.5" d="M0,-3.0v7 M-2.5,-0.5L0,-3.0L2.5,-0.5"/>
                </g>
               <g id="resetDef">
                       <use xlink:href="#rim2" fill="#404040">
                               <set attributeName="fill" to="#808080" begin="reset.mouseover" end="reset.mouseout"/>
                       </use>
               </g>
        </defs>

<script type="text/javascript">
var viewWidth = 656;
var viewHeight = 529;
var sectionId = 'dynsection-0';
</script>
<script xlink:href="svgpan.js"/>
<svg id="graph" class="graph">
<g id="viewport">
<title>SDK::FPlayerTookFlameOfFateEvent</title>
<!-- Node1 -->
<g id="node1" class="node"><title>Node1</title>
<g id="a_node1"><a xlink:title=" ">
<polygon fill="#bfbfbf" stroke="black" points="211.186,-0.5 211.186,-68.5 365.186,-68.5 365.186,-0.5 211.186,-0.5"/>
<text text-anchor="start" x="219.186" y="-56.5" font-family="Helvetica,sans-Serif" font-size="10.00">SDK::FPlayerTookFlameOfFate</text>
<text text-anchor="middle" x="288.186" y="-45.5" font-family="Helvetica,sans-Serif" font-size="10.00">Event</text>
<polyline fill="none" stroke="black" points="211.186,-38.5 365.186,-38.5 "/>
<text text-anchor="middle" x="288.186" y="-26.5" font-family="Helvetica,sans-Serif" font-size="10.00"> </text>
<polyline fill="none" stroke="black" points="211.186,-19.5 365.186,-19.5 "/>
<text text-anchor="middle" x="288.186" y="-7.5" font-family="Helvetica,sans-Serif" font-size="10.00"> </text>
</a>
</g>
</g>
<!-- Node2 -->
<g id="node2" class="node"><title>Node2</title>
<g id="a_node2"><a xlink:href="a02339.html" target="_top" xlink:title=" ">
<polygon fill="none" stroke="red" points="124.186,-116.5 124.186,-305.5 294.186,-305.5 294.186,-116.5 124.186,-116.5"/>
<text text-anchor="middle" x="209.186" y="-293.5" font-family="Helvetica,sans-Serif" font-size="10.00">SDK::AAthenaPlayerCharacter</text>
<polyline fill="none" stroke="red" points="124.186,-286.5 294.186,-286.5 "/>
<text text-anchor="start" x="132.186" y="-274.5" font-family="Helvetica,sans-Serif" font-size="10.00">+ UnknownData00</text>
<text text-anchor="start" x="132.186" y="-263.5" font-family="Helvetica,sans-Serif" font-size="10.00">+ UnknownData09</text>
<polyline fill="none" stroke="red" points="124.186,-256.5 294.186,-256.5 "/>
<text text-anchor="start" x="132.186" y="-244.5" font-family="Helvetica,sans-Serif" font-size="10.00">+ WalkActivate()</text>
<text text-anchor="start" x="132.186" y="-233.5" font-family="Helvetica,sans-Serif" font-size="10.00">+ UseItem()</text>
<text text-anchor="start" x="132.186" y="-222.5" font-family="Helvetica,sans-Serif" font-size="10.00">+ TriggerTattooGlow()</text>
<text text-anchor="start" x="132.186" y="-211.5" font-family="Helvetica,sans-Serif" font-size="10.00">+ TattooGlowClient()</text>
<text text-anchor="start" x="132.186" y="-200.5" font-family="Helvetica,sans-Serif" font-size="10.00">+ TattooGlow()</text>
<text text-anchor="start" x="132.186" y="-189.5" font-family="Helvetica,sans-Serif" font-size="10.00">+ SprintActivate()</text>
<text text-anchor="start" x="132.186" y="-178.5" font-family="Helvetica,sans-Serif" font-size="10.00">+ ServerWantsSprint()</text>
<text text-anchor="start" x="132.186" y="-167.5" font-family="Helvetica,sans-Serif" font-size="10.00">+ OnWieldedItem()</text>
<text text-anchor="start" x="132.186" y="-156.5" font-family="Helvetica,sans-Serif" font-size="10.00">+ OnRep_ReplicatedIsSprinting()</text>
<text text-anchor="start" x="132.186" y="-145.5" font-family="Helvetica,sans-Serif" font-size="10.00">+ OnRep_ReplicatedIsInvulnerable()</text>
<text text-anchor="start" x="132.186" y="-134.5" font-family="Helvetica,sans-Serif" font-size="10.00">and 24 more...</text>
<text text-anchor="start" x="132.186" y="-123.5" font-family="Helvetica,sans-Serif" font-size="10.00">+ StaticClass()</text>
</a>
</g>
</g>
<!-- Node2&#45;&gt;Node1 -->
<g id="edge1" class="edge"><title>Node2&#45;&gt;Node1</title>
<path fill="none" stroke="#404040" d="M238.946,-116.185C243.017,-106.168 247.444,-96.2625 252.186,-87 253.556,-84.3236 255.049,-81.6266 256.621,-78.9443"/>
<polygon fill="none" stroke="#404040" points="256.634,-78.9235 256.422,-71.7155 262.994,-68.7473 263.206,-75.9553 256.634,-78.9235"/>
<text text-anchor="middle" x="291.686" y="-90" font-family="Helvetica,sans-Serif" font-size="10.00"> +PlayerCharacter</text>
</g>
<!-- Node16 -->
<g id="node3" class="node"><title>Node16</title>
<g id="a_node3"><a xlink:title=" ">
<polygon fill="none" stroke="#bfbfbf" points="62.6861,-463.5 62.6861,-520.5 97.6861,-520.5 97.6861,-463.5 62.6861,-463.5"/>
<text text-anchor="middle" x="80.1861" y="-508.5" font-family="Helvetica,sans-Serif" font-size="10.00">char</text>
<polyline fill="none" stroke="#bfbfbf" points="62.6861,-501.5 97.6861,-501.5 "/>
<text text-anchor="middle" x="80.1861" y="-489.5" font-family="Helvetica,sans-Serif" font-size="10.00"> </text>
<polyline fill="none" stroke="#bfbfbf" points="62.6861,-482.5 97.6861,-482.5 "/>
<text text-anchor="middle" x="80.1861" y="-470.5" font-family="Helvetica,sans-Serif" font-size="10.00"> </text>
</a>
</g>
</g>
<!-- Node16&#45;&gt;Node1 -->
<g id="edge5" class="edge"><title>Node16&#45;&gt;Node1</title>
<path fill="none" stroke="#404040" d="M65.0956,-463.252C30.9499,-396.29 -43.3822,-223.449 35.1861,-116 72.3827,-65.1306 142.009,-45.6355 198.817,-38.5123"/>
<polygon fill="none" stroke="#404040" points="199.171,-38.4726 204.689,-33.8295 211.097,-37.1366 205.58,-41.7797 199.171,-38.4726"/>
<text text-anchor="middle" x="75.1861" y="-208.5" font-family="Helvetica,sans-Serif" font-size="10.00"> +UnknownData00</text>
</g>
<!-- Node16&#45;&gt;Node2 -->
<g id="edge2" class="edge"><title>Node16&#45;&gt;Node2</title>
<path fill="none" stroke="#404040" d="M92.9081,-463.485C108.634,-429.473 136.312,-369.612 160.719,-316.824"/>
<polygon fill="none" stroke="#404040" points="160.836,-316.57 159.724,-309.446 165.872,-305.678 166.985,-312.803 160.836,-316.57"/>
<text text-anchor="middle" x="197.186" y="-437" font-family="Helvetica,sans-Serif" font-size="10.00"> +UnknownData01</text>
<text text-anchor="middle" x="197.186" y="-426" font-family="Helvetica,sans-Serif" font-size="10.00">+UnknownData02</text>
<text text-anchor="middle" x="197.186" y="-415" font-family="Helvetica,sans-Serif" font-size="10.00">+UnknownData10</text>
<text text-anchor="middle" x="197.186" y="-404" font-family="Helvetica,sans-Serif" font-size="10.00">+UnknownData03</text>
<text text-anchor="middle" x="197.186" y="-393" font-family="Helvetica,sans-Serif" font-size="10.00">+UnknownData11</text>
<text text-anchor="middle" x="197.186" y="-382" font-family="Helvetica,sans-Serif" font-size="10.00">+UnknownData04</text>
<text text-anchor="middle" x="197.186" y="-371" font-family="Helvetica,sans-Serif" font-size="10.00">+UnknownData05</text>
<text text-anchor="middle" x="197.186" y="-360" font-family="Helvetica,sans-Serif" font-size="10.00">+UnknownData06</text>
<text text-anchor="middle" x="197.186" y="-349" font-family="Helvetica,sans-Serif" font-size="10.00">+UnknownData07</text>
<text text-anchor="middle" x="197.186" y="-338" font-family="Helvetica,sans-Serif" font-size="10.00">+UnknownData08</text>
<text text-anchor="middle" x="197.186" y="-327" font-family="Helvetica,sans-Serif" font-size="10.00">...</text>
</g>
<!-- Node7 -->
<g id="node4" class="node"><title>Node7</title>
<g id="a_node4"><a xlink:href="a26095.html" target="_top" xlink:title=" ">
<polygon fill="none" stroke="red" points="312.186,-133 312.186,-289 424.186,-289 424.186,-133 312.186,-133"/>
<text text-anchor="middle" x="368.186" y="-277" font-family="Helvetica,sans-Serif" font-size="10.00">SDK::UObject</text>
<polyline fill="none" stroke="red" points="312.186,-270 424.186,-270 "/>
<text text-anchor="middle" x="368.186" y="-258" font-family="Helvetica,sans-Serif" font-size="10.00"> </text>
<polyline fill="none" stroke="red" points="312.186,-251 424.186,-251 "/>
<text text-anchor="start" x="320.186" y="-239" font-family="Helvetica,sans-Serif" font-size="10.00">+ GetName()</text>
<text text-anchor="start" x="320.186" y="-228" font-family="Helvetica,sans-Serif" font-size="10.00">+ GetFullName()</text>
<text text-anchor="start" x="320.186" y="-217" font-family="Helvetica,sans-Serif" font-size="10.00">+ IsA()</text>
<text text-anchor="start" x="320.186" y="-206" font-family="Helvetica,sans-Serif" font-size="10.00">+ ProcessEvent()</text>
<text text-anchor="start" x="320.186" y="-195" font-family="Helvetica,sans-Serif" font-size="10.00">+ ExecuteUbergraph()</text>
<text text-anchor="start" x="320.186" y="-184" font-family="Helvetica,sans-Serif" font-size="10.00">+ StaticClass()</text>
<text text-anchor="start" x="320.186" y="-173" font-family="Helvetica,sans-Serif" font-size="10.00">+ GetGlobalObjects()</text>
<text text-anchor="start" x="320.186" y="-162" font-family="Helvetica,sans-Serif" font-size="10.00">+ FindObject()</text>
<text text-anchor="start" x="320.186" y="-151" font-family="Helvetica,sans-Serif" font-size="10.00">+ FindClass()</text>
<text text-anchor="start" x="320.186" y="-140" font-family="Helvetica,sans-Serif" font-size="10.00">+ GetObjectCasted()</text>
</a>
</g>
</g>
<!-- Node7&#45;&gt;Node1 -->
<g id="edge3" class="edge"><title>Node7&#45;&gt;Node1</title>
<path fill="none" stroke="#404040" d="M350.222,-132.949C345.142,-117.272 338.851,-101.235 331.186,-87 329.66,-84.1653 327.962,-81.3424 326.147,-78.5617"/>
<polygon fill="none" stroke="#404040" points="326.113,-78.5138 319.377,-75.94 319.162,-68.7321 325.898,-71.3059 326.113,-78.5138"/>
<text text-anchor="middle" x="356.186" y="-90" font-family="Helvetica,sans-Serif" font-size="10.00"> +Source</text>
</g>
<!-- Node7&#45;&gt;Node7 -->
<g id="edge4" class="edge"><title>Node7&#45;&gt;Node7</title>
<path fill="none" stroke="#404040" d="M424.332,-231.989C434.808,-229.405 442.186,-222.408 442.186,-211 442.186,-204.226 439.585,-199.008 435.279,-195.345"/>
<polygon fill="none" stroke="#404040" points="435.12,-195.267 427.974,-196.235 424.332,-190.011 431.478,-189.043 435.12,-195.267"/>
<text text-anchor="middle" x="459.186" y="-208.5" font-family="Helvetica,sans-Serif" font-size="10.00"> +Outer</text>
</g>
<!-- Node690 -->
<g id="node5" class="node"><title>Node690</title>
<g id="a_node5"><a xlink:href="a25847.html" target="_top" xlink:title=" ">
<polygon fill="none" stroke="black" points="494.186,-149.5 494.186,-272.5 648.186,-272.5 648.186,-149.5 494.186,-149.5"/>
<text text-anchor="start" x="502.186" y="-260.5" font-family="Helvetica,sans-Serif" font-size="10.00">SDK::TEnumAsByte&lt; EFlame</text>
<text text-anchor="middle" x="571.186" y="-249.5" font-family="Helvetica,sans-Serif" font-size="10.00">OfFateType &gt;</text>
<polyline fill="none" stroke="black" points="494.186,-242.5 648.186,-242.5 "/>
<text text-anchor="middle" x="571.186" y="-230.5" font-family="Helvetica,sans-Serif" font-size="10.00"> </text>
<polyline fill="none" stroke="black" points="494.186,-223.5 648.186,-223.5 "/>
<text text-anchor="start" x="502.186" y="-211.5" font-family="Helvetica,sans-Serif" font-size="10.00">+ TEnumAsByte()</text>
<text text-anchor="start" x="502.186" y="-200.5" font-family="Helvetica,sans-Serif" font-size="10.00">+ TEnumAsByte()</text>
<text text-anchor="start" x="502.186" y="-189.5" font-family="Helvetica,sans-Serif" font-size="10.00">+ TEnumAsByte()</text>
<text text-anchor="start" x="502.186" y="-178.5" font-family="Helvetica,sans-Serif" font-size="10.00">+ TEnumAsByte()</text>
<text text-anchor="start" x="502.186" y="-167.5" font-family="Helvetica,sans-Serif" font-size="10.00">+ operator EFlameOfFateType()</text>
<text text-anchor="start" x="502.186" y="-156.5" font-family="Helvetica,sans-Serif" font-size="10.00">+ GetValue()</text>
</a>
</g>
</g>
<!-- Node690&#45;&gt;Node1 -->
<g id="edge6" class="edge"><title>Node690&#45;&gt;Node1</title>
<path fill="none" stroke="#404040" d="M522.948,-149.217C511.463,-137.165 498.613,-125.361 485.186,-116 452.506,-93.2142 412.405,-75.3414 376.932,-62.2855"/>
<polygon fill="none" stroke="#404040" points="376.888,-62.2695 369.889,-64.0074 365.593,-58.2157 372.592,-56.4778 376.888,-62.2695"/>
<text text-anchor="middle" x="498.686" y="-90" font-family="Helvetica,sans-Serif" font-size="10.00"> +FlameOfFateType</text>
</g>
</g>
</svg>
        <g id="navigator" transform="translate(0 0)" fill="#404254">
                <rect fill="#f2f5e9" fill-opacity="0.5" stroke="#606060" stroke-width=".5" x="0" y="0" width="60" height="60"/>
                <use id="zoomplus" xlink:href="#zoomPlus" x="17" y="9" onmousedown="handleZoom(evt,'in')"/>
                <use id="zoomminus" xlink:href="#zoomMin" x="42" y="9" onmousedown="handleZoom(evt,'out')"/>
                <use id="reset" xlink:href="#resetDef" x="30" y="36" onmousedown="handleReset()"/>
                <g id="arrowUp" xlink:href="#dirArrow" transform="translate(30 24)" onmousedown="handlePan(0,-1)">
                  <use xlink:href="#rim" fill="#404040">
                        <set attributeName="fill" to="#808080" begin="arrowUp.mouseover" end="arrowUp.mouseout"/>
                  </use>
                  <path fill="none" stroke="white" stroke-width="1.5" d="M0,-3.0v7 M-2.5,-0.5L0,-3.0L2.5,-0.5"/>
                </g>
                <g id="arrowRight" xlink:href="#dirArrow" transform="rotate(90) translate(36 -43)" onmousedown="handlePan(1,0)">
                  <use xlink:href="#rim" fill="#404040">
                        <set attributeName="fill" to="#808080" begin="arrowRight.mouseover" end="arrowRight.mouseout"/>
                  </use>
                  <path fill="none" stroke="white" stroke-width="1.5" d="M0,-3.0v7 M-2.5,-0.5L0,-3.0L2.5,-0.5"/>
                </g>
                <g id="arrowDown" xlink:href="#dirArrow" transform="rotate(180) translate(-30 -48)" onmousedown="handlePan(0,1)">
                  <use xlink:href="#rim" fill="#404040">
                        <set attributeName="fill" to="#808080" begin="arrowDown.mouseover" end="arrowDown.mouseout"/>
                  </use>
                  <path fill="none" stroke="white" stroke-width="1.5" d="M0,-3.0v7 M-2.5,-0.5L0,-3.0L2.5,-0.5"/>
                </g>
                <g id="arrowLeft" xlink:href="#dirArrow" transform="rotate(270) translate(-36 17)" onmousedown="handlePan(-1,0)">
                  <use xlink:href="#rim" fill="#404040">
                        <set attributeName="fill" to="#808080" begin="arrowLeft.mouseover" end="arrowLeft.mouseout"/>
                  </use>
                  <path fill="none" stroke="white" stroke-width="1.5" d="M0,-3.0v7 M-2.5,-0.5L0,-3.0L2.5,-0.5"/>
                </g>
        </g>
        <svg viewBox="0 0 15 15" width="100%" height="30px" preserveAspectRatio="xMaxYMin meet">
         <g id="arrow_out" transform="scale(0.3 0.3)">
          <a xlink:href="a19677_org.svg" target="_base">
           <rect id="button" ry="5" rx="5" y="6" x="6" height="38" width="38"
                fill="#f2f5e9" fill-opacity="0.5" stroke="#606060" stroke-width="1.0"/>
           <path id="arrow"
             d="M 11.500037,31.436501 C 11.940474,20.09759 22.043105,11.32322 32.158766,21.979434 L 37.068811,17.246167 C 37.068811,17.246167 37.088388,32 37.088388,32 L 22.160133,31.978069 C 22.160133,31.978069 26.997745,27.140456 26.997745,27.140456 C 18.528582,18.264221 13.291696,25.230495 11.500037,31.436501 z"
             style="fill:#404040;"/>
          </a>
         </g>
        </svg>
</svg>
