<?xml version="1.0" encoding="UTF-8" standalone="no"?>
<!DOCTYPE svg PUBLIC "-//W3C//DTD SVG 1.1//EN"
 "http://www.w3.org/Graphics/SVG/1.1/DTD/svg11.dtd">
<!-- Generated by graphviz version 2.38.0 (20140413.2041)
 -->
<!-- Title: SDK::FEventPlayerTreasureMapSet Pages: 1 -->
<svg width="258pt" height="237pt"
 viewBox="0.00 0.00 257.50 237.00" xmlns="http://www.w3.org/2000/svg" xmlns:xlink="http://www.w3.org/1999/xlink">
<g id="graph0" class="graph" transform="scale(1 1) rotate(0) translate(4 233)">
<title>SDK::FEventPlayerTreasureMapSet</title>
<!-- Node1 -->
<g id="node1" class="node"><title>Node1</title>
<g id="a_node1"><a xlink:title=" ">
<polygon fill="#bfbfbf" stroke="black" points="50.5,-0.5 50.5,-68.5 188.5,-68.5 188.5,-0.5 50.5,-0.5"/>
<text text-anchor="start" x="58.5" y="-56.5" font-family="Helvetica,sans-Serif" font-size="10.00">SDK::FEventPlayerTreasure</text>
<text text-anchor="middle" x="119.5" y="-45.5" font-family="Helvetica,sans-Serif" font-size="10.00">MapSet</text>
<polyline fill="none" stroke="black" points="50.5,-38.5 188.5,-38.5 "/>
<text text-anchor="middle" x="119.5" y="-26.5" font-family="Helvetica,sans-Serif" font-size="10.00"> </text>
<polyline fill="none" stroke="black" points="50.5,-19.5 188.5,-19.5 "/>
<text text-anchor="middle" x="119.5" y="-7.5" font-family="Helvetica,sans-Serif" font-size="10.00"> </text>
</a>
</g>
</g>
<!-- Node2 -->
<g id="node2" class="node"><title>Node2</title>
<g id="a_node2"><a xlink:href="a25611.html" target="_top" xlink:title=" ">
<polygon fill="none" stroke="black" points="0,-116.5 0,-228.5 105,-228.5 105,-116.5 0,-116.5"/>
<text text-anchor="start" x="8" y="-216.5" font-family="Helvetica,sans-Serif" font-size="10.00">SDK::TArray&lt; struct</text>
<text text-anchor="middle" x="52.5" y="-205.5" font-family="Helvetica,sans-Serif" font-size="10.00"> SDK::FVector2D &gt;</text>
<polyline fill="none" stroke="black" points="0,-198.5 105,-198.5 "/>
<text text-anchor="middle" x="52.5" y="-186.5" font-family="Helvetica,sans-Serif" font-size="10.00"> </text>
<polyline fill="none" stroke="black" points="0,-179.5 105,-179.5 "/>
<text text-anchor="start" x="8" y="-167.5" font-family="Helvetica,sans-Serif" font-size="10.00">+ TArray()</text>
<text text-anchor="start" x="8" y="-156.5" font-family="Helvetica,sans-Serif" font-size="10.00">+ Num()</text>
<text text-anchor="start" x="8" y="-145.5" font-family="Helvetica,sans-Serif" font-size="10.00">+ operator[]()</text>
<text text-anchor="start" x="8" y="-134.5" font-family="Helvetica,sans-Serif" font-size="10.00">+ operator[]()</text>
<text text-anchor="start" x="8" y="-123.5" font-family="Helvetica,sans-Serif" font-size="10.00">+ IsValidIndex()</text>
</a>
</g>
</g>
<!-- Node2&#45;&gt;Node1 -->
<g id="edge1" class="edge"><title>Node2&#45;&gt;Node1</title>
<path fill="none" stroke="#404040" d="M79.7515,-116.184C85.7915,-103.923 92.1126,-91.0924 97.8912,-79.3627"/>
<polygon fill="none" stroke="#404040" points="97.9352,-79.2732 96.9986,-72.1232 103.238,-68.5086 104.175,-75.6586 97.9352,-79.2732"/>
<text text-anchor="middle" x="113" y="-90" font-family="Helvetica,sans-Serif" font-size="10.00"> +Marks</text>
</g>
<!-- Node3 -->
<g id="node3" class="node"><title>Node3</title>
<g id="a_node3"><a xlink:href="a25667.html" target="_top" xlink:title=" ">
<polygon fill="none" stroke="red" points="123.5,-122 123.5,-223 249.5,-223 249.5,-122 123.5,-122"/>
<text text-anchor="start" x="131.5" y="-211" font-family="Helvetica,sans-Serif" font-size="10.00">SDK::TWeakObjectPtr</text>
<text text-anchor="middle" x="186.5" y="-200" font-family="Helvetica,sans-Serif" font-size="10.00">&lt; class SDK::UTexture &gt;</text>
<polyline fill="none" stroke="red" points="123.5,-193 249.5,-193 "/>
<text text-anchor="middle" x="186.5" y="-181" font-family="Helvetica,sans-Serif" font-size="10.00"> </text>
<polyline fill="none" stroke="red" points="123.5,-174 249.5,-174 "/>
<text text-anchor="start" x="131.5" y="-162" font-family="Helvetica,sans-Serif" font-size="10.00">+ Get()</text>
<text text-anchor="start" x="131.5" y="-151" font-family="Helvetica,sans-Serif" font-size="10.00">+ operator*()</text>
<text text-anchor="start" x="131.5" y="-140" font-family="Helvetica,sans-Serif" font-size="10.00">+ operator&#45;&gt;()</text>
<text text-anchor="start" x="131.5" y="-129" font-family="Helvetica,sans-Serif" font-size="10.00">+ IsValid()</text>
</a>
</g>
</g>
<!-- Node3&#45;&gt;Node1 -->
<g id="edge2" class="edge"><title>Node3&#45;&gt;Node1</title>
<path fill="none" stroke="#404040" d="M161.932,-121.631C155.163,-107.89 147.869,-93.0845 141.27,-79.6894"/>
<polygon fill="none" stroke="#404040" points="141.22,-79.5884 134.98,-75.9738 135.917,-68.8237 142.157,-72.4383 141.22,-79.5884"/>
<text text-anchor="middle" x="180" y="-90" font-family="Helvetica,sans-Serif" font-size="10.00"> +MapTexture</text>
</g>
</g>
</svg>
