<?xml version="1.0" encoding="UTF-8" standalone="no"?>
<!DOCTYPE svg PUBLIC "-//W3C//DTD SVG 1.1//EN"
 "http://www.w3.org/Graphics/SVG/1.1/DTD/svg11.dtd">
<!-- Generated by graphviz version 2.38.0 (20140413.2041)
 -->
<!-- Title: SDK::FXPGrantedNetworkEvent Pages: 1 -->
<svg width="449pt" height="248pt"
 viewBox="0.00 0.00 449.00 248.00" xmlns="http://www.w3.org/2000/svg" xmlns:xlink="http://www.w3.org/1999/xlink">
<g id="graph0" class="graph" transform="scale(1 1) rotate(0) translate(4 244)">
<title>SDK::FXPGrantedNetworkEvent</title>
<!-- Node1 -->
<g id="node1" class="node"><title>Node1</title>
<g id="a_node1"><a xlink:title=" ">
<polygon fill="#bfbfbf" stroke="black" points="169.5,-0.5 169.5,-57.5 324.5,-57.5 324.5,-0.5 169.5,-0.5"/>
<text text-anchor="middle" x="247" y="-45.5" font-family="Helvetica,sans-Serif" font-size="10.00">SDK::FXPGrantedNetworkEvent</text>
<polyline fill="none" stroke="black" points="169.5,-38.5 324.5,-38.5 "/>
<text text-anchor="middle" x="247" y="-26.5" font-family="Helvetica,sans-Serif" font-size="10.00"> </text>
<polyline fill="none" stroke="black" points="169.5,-19.5 324.5,-19.5 "/>
<text text-anchor="middle" x="247" y="-7.5" font-family="Helvetica,sans-Serif" font-size="10.00"> </text>
</a>
</g>
</g>
<!-- Node2 -->
<g id="node2" class="node"><title>Node2</title>
<g id="a_node2"><a xlink:href="a16583.html" target="_top" xlink:title=" ">
<polygon fill="none" stroke="red" points="0,-155 0,-212 134,-212 134,-155 0,-155"/>
<text text-anchor="middle" x="67" y="-200" font-family="Helvetica,sans-Serif" font-size="10.00">SDK::FNetworkEventStruct</text>
<polyline fill="none" stroke="red" points="0,-193 134,-193 "/>
<text text-anchor="middle" x="67" y="-181" font-family="Helvetica,sans-Serif" font-size="10.00"> </text>
<polyline fill="none" stroke="red" points="0,-174 134,-174 "/>
<text text-anchor="middle" x="67" y="-162" font-family="Helvetica,sans-Serif" font-size="10.00"> </text>
</a>
</g>
</g>
<!-- Node2&#45;&gt;Node1 -->
<g id="edge1" class="edge"><title>Node2&#45;&gt;Node1</title>
<path fill="none" stroke="midnightblue" d="M107.517,-148.173C139.776,-120.843 184.342,-83.0849 214.342,-57.6684"/>
<polygon fill="none" stroke="midnightblue" points="104.964,-145.749 99.5966,-154.883 109.489,-151.09 104.964,-145.749"/>
</g>
<!-- Node8 -->
<g id="node3" class="node"><title>Node8</title>
<g id="a_node3"><a xlink:href="a25627.html" target="_top" xlink:title=" ">
<polygon fill="none" stroke="red" points="152,-127.5 152,-239.5 258,-239.5 258,-127.5 152,-127.5"/>
<text text-anchor="middle" x="205" y="-227.5" font-family="Helvetica,sans-Serif" font-size="10.00">SDK::FName</text>
<polyline fill="none" stroke="red" points="152,-220.5 258,-220.5 "/>
<text text-anchor="middle" x="205" y="-208.5" font-family="Helvetica,sans-Serif" font-size="10.00"> </text>
<polyline fill="none" stroke="red" points="152,-201.5 258,-201.5 "/>
<text text-anchor="start" x="160" y="-189.5" font-family="Helvetica,sans-Serif" font-size="10.00">+ FName()</text>
<text text-anchor="start" x="160" y="-178.5" font-family="Helvetica,sans-Serif" font-size="10.00">+ FName()</text>
<text text-anchor="start" x="160" y="-167.5" font-family="Helvetica,sans-Serif" font-size="10.00">+ FName()</text>
<text text-anchor="start" x="160" y="-156.5" font-family="Helvetica,sans-Serif" font-size="10.00">+ GetName()</text>
<text text-anchor="start" x="160" y="-145.5" font-family="Helvetica,sans-Serif" font-size="10.00">+ operator==()</text>
<text text-anchor="start" x="160" y="-134.5" font-family="Helvetica,sans-Serif" font-size="10.00">+ GetGlobalNames()</text>
</a>
</g>
</g>
<!-- Node8&#45;&gt;Node1 -->
<g id="edge2" class="edge"><title>Node8&#45;&gt;Node1</title>
<path fill="none" stroke="#404040" d="M201.09,-127.258C201.599,-110.356 203.934,-92.0111 210,-76 211.026,-73.291 212.277,-70.6194 213.69,-68.01"/>
<polygon fill="none" stroke="#404040" points="213.811,-67.82 213.658,-60.6105 220.255,-57.6966 220.407,-64.9061 213.811,-67.82"/>
<text text-anchor="middle" x="239" y="-90" font-family="Helvetica,sans-Serif" font-size="10.00"> +CompanyId</text>
</g>
<!-- Node14 -->
<g id="node4" class="node"><title>Node14</title>
<g id="a_node4"><a xlink:title=" ">
<polygon fill="none" stroke="#bfbfbf" points="276.5,-155 276.5,-212 311.5,-212 311.5,-155 276.5,-155"/>
<text text-anchor="middle" x="294" y="-200" font-family="Helvetica,sans-Serif" font-size="10.00">char</text>
<polyline fill="none" stroke="#bfbfbf" points="276.5,-193 311.5,-193 "/>
<text text-anchor="middle" x="294" y="-181" font-family="Helvetica,sans-Serif" font-size="10.00"> </text>
<polyline fill="none" stroke="#bfbfbf" points="276.5,-174 311.5,-174 "/>
<text text-anchor="middle" x="294" y="-162" font-family="Helvetica,sans-Serif" font-size="10.00"> </text>
</a>
</g>
</g>
<!-- Node14&#45;&gt;Node1 -->
<g id="edge3" class="edge"><title>Node14&#45;&gt;Node1</title>
<path fill="none" stroke="#404040" d="M288.768,-154.95C284.282,-133.201 277.106,-102.253 268,-76 267.223,-73.7606 266.377,-71.4818 265.484,-69.197"/>
<polygon fill="none" stroke="#404040" points="265.378,-68.9435 259.37,-64.9552 260.741,-57.8755 266.749,-61.8639 265.378,-68.9435"/>
<text text-anchor="middle" x="318" y="-90" font-family="Helvetica,sans-Serif" font-size="10.00"> +UnknownData00</text>
</g>
<!-- Node16 -->
<g id="node5" class="node"><title>Node16</title>
<g id="a_node5"><a xlink:title=" ">
<polygon fill="none" stroke="#bfbfbf" points="367.5,-155 367.5,-212 418.5,-212 418.5,-155 367.5,-155"/>
<text text-anchor="middle" x="393" y="-200" font-family="Helvetica,sans-Serif" font-size="10.00">uint32_t</text>
<polyline fill="none" stroke="#bfbfbf" points="367.5,-193 418.5,-193 "/>
<text text-anchor="middle" x="393" y="-181" font-family="Helvetica,sans-Serif" font-size="10.00"> </text>
<polyline fill="none" stroke="#bfbfbf" points="367.5,-174 418.5,-174 "/>
<text text-anchor="middle" x="393" y="-162" font-family="Helvetica,sans-Serif" font-size="10.00"> </text>
</a>
</g>
</g>
<!-- Node16&#45;&gt;Node1 -->
<g id="edge4" class="edge"><title>Node16&#45;&gt;Node1</title>
<path fill="none" stroke="#404040" d="M391.546,-154.785C388.908,-131.16 381.667,-97.679 362,-76 354.52,-67.7545 345.361,-60.9626 335.51,-55.3737"/>
<polygon fill="none" stroke="#404040" points="335.27,-55.2504 328.105,-56.0684 324.594,-49.7695 331.759,-48.9516 335.27,-55.2504"/>
<text text-anchor="middle" x="411" y="-101" font-family="Helvetica,sans-Serif" font-size="10.00"> +XPGranted</text>
<text text-anchor="middle" x="411" y="-90" font-family="Helvetica,sans-Serif" font-size="10.00">+CurrentXP</text>
<text text-anchor="middle" x="411" y="-79" font-family="Helvetica,sans-Serif" font-size="10.00">+CurrentLevel</text>
</g>
</g>
</svg>
