<?xml version="1.0" encoding="UTF-8" standalone="no"?>
<!DOCTYPE svg PUBLIC "-//W3C//DTD SVG 1.1//EN"
 "http://www.w3.org/Graphics/SVG/1.1/DTD/svg11.dtd">
<!-- Generated by graphviz version 2.38.0 (20140413.2041)
 -->
<!-- Title: SDK::FEnableObjectLeakDetectionTelemetryRpc Pages: 1 -->
<svg width="253pt" height="287pt"
 viewBox="0.00 0.00 252.95 287.00" xmlns="http://www.w3.org/2000/svg" xmlns:xlink="http://www.w3.org/1999/xlink">
<g id="graph0" class="graph" transform="scale(1 1) rotate(0) translate(4 283)">
<title>SDK::FEnableObjectLeakDetectionTelemetryRpc</title>
<!-- Node1 -->
<g id="node1" class="node"><title>Node1</title>
<g id="a_node1"><a xlink:title=" ">
<polygon fill="#bfbfbf" stroke="black" points="59.4543,-0.5 59.4543,-68.5 229.454,-68.5 229.454,-0.5 59.4543,-0.5"/>
<text text-anchor="start" x="67.4543" y="-56.5" font-family="Helvetica,sans-Serif" font-size="10.00">SDK::FEnableObjectLeakDetection</text>
<text text-anchor="middle" x="144.454" y="-45.5" font-family="Helvetica,sans-Serif" font-size="10.00">TelemetryRpc</text>
<polyline fill="none" stroke="black" points="59.4543,-38.5 229.454,-38.5 "/>
<text text-anchor="middle" x="144.454" y="-26.5" font-family="Helvetica,sans-Serif" font-size="10.00"> </text>
<polyline fill="none" stroke="black" points="59.4543,-19.5 229.454,-19.5 "/>
<text text-anchor="middle" x="144.454" y="-7.5" font-family="Helvetica,sans-Serif" font-size="10.00"> </text>
</a>
</g>
</g>
<!-- Node2 -->
<g id="node2" class="node"><title>Node2</title>
<g id="a_node2"><a xlink:href="a25367.html" target="_top" xlink:title=" ">
<polygon fill="none" stroke="red" points="97.4543,-116.5 97.4543,-173.5 191.454,-173.5 191.454,-116.5 97.4543,-116.5"/>
<text text-anchor="middle" x="144.454" y="-161.5" font-family="Helvetica,sans-Serif" font-size="10.00">SDK::FBoxedRpc</text>
<polyline fill="none" stroke="red" points="97.4543,-154.5 191.454,-154.5 "/>
<text text-anchor="middle" x="144.454" y="-142.5" font-family="Helvetica,sans-Serif" font-size="10.00"> </text>
<polyline fill="none" stroke="red" points="97.4543,-135.5 191.454,-135.5 "/>
<text text-anchor="middle" x="144.454" y="-123.5" font-family="Helvetica,sans-Serif" font-size="10.00"> </text>
</a>
</g>
</g>
<!-- Node2&#45;&gt;Node1 -->
<g id="edge1" class="edge"><title>Node2&#45;&gt;Node1</title>
<path fill="none" stroke="midnightblue" d="M144.454,-105.987C144.454,-93.7713 144.454,-80.3457 144.454,-68.5186"/>
<polygon fill="none" stroke="midnightblue" points="140.954,-106.34 144.454,-116.34 147.954,-106.34 140.954,-106.34"/>
</g>
<!-- Node13 -->
<g id="node3" class="node"><title>Node13</title>
<g id="a_node3"><a xlink:title=" ">
<polygon fill="none" stroke="#bfbfbf" points="25.9543,-221.5 25.9543,-278.5 60.9543,-278.5 60.9543,-221.5 25.9543,-221.5"/>
<text text-anchor="middle" x="43.4543" y="-266.5" font-family="Helvetica,sans-Serif" font-size="10.00">char</text>
<polyline fill="none" stroke="#bfbfbf" points="25.9543,-259.5 60.9543,-259.5 "/>
<text text-anchor="middle" x="43.4543" y="-247.5" font-family="Helvetica,sans-Serif" font-size="10.00"> </text>
<polyline fill="none" stroke="#bfbfbf" points="25.9543,-240.5 60.9543,-240.5 "/>
<text text-anchor="middle" x="43.4543" y="-228.5" font-family="Helvetica,sans-Serif" font-size="10.00"> </text>
</a>
</g>
</g>
<!-- Node13&#45;&gt;Node1 -->
<g id="edge3" class="edge"><title>Node13&#45;&gt;Node1</title>
<path fill="none" stroke="#404040" d="M25.9341,-223.504C9.12175,-195.582 -11.0583,-150.224 8.45429,-116 18.0763,-99.1234 32.7794,-85.4242 49.0168,-74.4359"/>
<polygon fill="none" stroke="#404040" points="49.1499,-74.3519 52.0845,-67.7649 59.2935,-67.9403 56.3588,-74.5273 49.1499,-74.3519"/>
<text text-anchor="middle" x="48.4543" y="-142.5" font-family="Helvetica,sans-Serif" font-size="10.00"> +UnknownData00</text>
</g>
<!-- Node13&#45;&gt;Node2 -->
<g id="edge2" class="edge"><title>Node13&#45;&gt;Node2</title>
<path fill="none" stroke="#404040" d="M61.0472,-231.059C74.1134,-217.734 92.3854,-199.1 108.498,-182.668"/>
<polygon fill="none" stroke="#404040" points="108.779,-182.382 110.124,-175.297 117.18,-173.814 115.836,-180.899 108.779,-182.382"/>
<text text-anchor="middle" x="137.454" y="-195" font-family="Helvetica,sans-Serif" font-size="10.00"> +UnknownData00</text>
</g>
<!-- Node15 -->
<g id="node4" class="node"><title>Node15</title>
<g id="a_node4"><a xlink:title=" ">
<polygon fill="none" stroke="#bfbfbf" points="209.954,-116.5 209.954,-173.5 244.954,-173.5 244.954,-116.5 209.954,-116.5"/>
<text text-anchor="middle" x="227.454" y="-161.5" font-family="Helvetica,sans-Serif" font-size="10.00">float</text>
<polyline fill="none" stroke="#bfbfbf" points="209.954,-154.5 244.954,-154.5 "/>
<text text-anchor="middle" x="227.454" y="-142.5" font-family="Helvetica,sans-Serif" font-size="10.00"> </text>
<polyline fill="none" stroke="#bfbfbf" points="209.954,-135.5 244.954,-135.5 "/>
<text text-anchor="middle" x="227.454" y="-123.5" font-family="Helvetica,sans-Serif" font-size="10.00"> </text>
</a>
</g>
</g>
<!-- Node15&#45;&gt;Node1 -->
<g id="edge4" class="edge"><title>Node15&#45;&gt;Node1</title>
<path fill="none" stroke="#404040" d="M209.852,-120.99C200.418,-108.658 188.485,-93.0583 177.402,-78.5708"/>
<polygon fill="none" stroke="#404040" points="177.198,-78.3035 170.375,-75.9683 169.907,-68.7725 176.73,-71.1076 177.198,-78.3035"/>
<text text-anchor="middle" x="211.454" y="-90" font-family="Helvetica,sans-Serif" font-size="10.00"> +Interval</text>
</g>
</g>
</svg>
