<?xml version="1.0" encoding="UTF-8" standalone="no"?>
<!DOCTYPE svg PUBLIC "-//W3C//DTD SVG 1.1//EN"
 "http://www.w3.org/Graphics/SVG/1.1/DTD/svg11.dtd">
<!-- Generated by graphviz version 2.38.0 (20140413.2041)
 -->
<!-- Title: SDK::FObjectLeakDetectionTelemetryRpc Pages: 1 -->
<svg width="240pt" height="237pt"
 viewBox="0.00 0.00 239.50 237.00" xmlns="http://www.w3.org/2000/svg" xmlns:xlink="http://www.w3.org/1999/xlink">
<g id="graph0" class="graph" transform="scale(1 1) rotate(0) translate(4 233)">
<title>SDK::FObjectLeakDetectionTelemetryRpc</title>
<!-- Node1 -->
<g id="node1" class="node"><title>Node1</title>
<g id="a_node1"><a xlink:title=" ">
<polygon fill="#bfbfbf" stroke="black" points="39,-0.5 39,-68.5 179,-68.5 179,-0.5 39,-0.5"/>
<text text-anchor="start" x="47" y="-56.5" font-family="Helvetica,sans-Serif" font-size="10.00">SDK::FObjectLeakDetection</text>
<text text-anchor="middle" x="109" y="-45.5" font-family="Helvetica,sans-Serif" font-size="10.00">TelemetryRpc</text>
<polyline fill="none" stroke="black" points="39,-38.5 179,-38.5 "/>
<text text-anchor="middle" x="109" y="-26.5" font-family="Helvetica,sans-Serif" font-size="10.00"> </text>
<polyline fill="none" stroke="black" points="39,-19.5 179,-19.5 "/>
<text text-anchor="middle" x="109" y="-7.5" font-family="Helvetica,sans-Serif" font-size="10.00"> </text>
</a>
</g>
</g>
<!-- Node2 -->
<g id="node2" class="node"><title>Node2</title>
<g id="a_node2"><a xlink:href="a25579.html" target="_top" xlink:title=" ">
<polygon fill="none" stroke="red" points="0,-144 0,-201 94,-201 94,-144 0,-144"/>
<text text-anchor="middle" x="47" y="-189" font-family="Helvetica,sans-Serif" font-size="10.00">SDK::FBoxedRpc</text>
<polyline fill="none" stroke="red" points="0,-182 94,-182 "/>
<text text-anchor="middle" x="47" y="-170" font-family="Helvetica,sans-Serif" font-size="10.00"> </text>
<polyline fill="none" stroke="red" points="0,-163 94,-163 "/>
<text text-anchor="middle" x="47" y="-151" font-family="Helvetica,sans-Serif" font-size="10.00"> </text>
</a>
</g>
</g>
<!-- Node2&#45;&gt;Node1 -->
<g id="edge1" class="edge"><title>Node2&#45;&gt;Node1</title>
<path fill="none" stroke="midnightblue" d="M63.8133,-134.619C73.182,-114.068 84.7548,-88.6831 93.843,-68.7476"/>
<polygon fill="none" stroke="midnightblue" points="60.5101,-133.427 59.5466,-143.978 66.8795,-136.331 60.5101,-133.427"/>
</g>
<!-- Node15 -->
<g id="node3" class="node"><title>Node15</title>
<g id="a_node3"><a xlink:href="a25823.html" target="_top" xlink:title=" ">
<polygon fill="none" stroke="black" points="112.5,-116.5 112.5,-228.5 231.5,-228.5 231.5,-116.5 112.5,-116.5"/>
<text text-anchor="start" x="120.5" y="-216.5" font-family="Helvetica,sans-Serif" font-size="10.00">SDK::TArray&lt; unsigned</text>
<text text-anchor="middle" x="172" y="-205.5" font-family="Helvetica,sans-Serif" font-size="10.00"> char &gt;</text>
<polyline fill="none" stroke="black" points="112.5,-198.5 231.5,-198.5 "/>
<text text-anchor="middle" x="172" y="-186.5" font-family="Helvetica,sans-Serif" font-size="10.00"> </text>
<polyline fill="none" stroke="black" points="112.5,-179.5 231.5,-179.5 "/>
<text text-anchor="start" x="120.5" y="-167.5" font-family="Helvetica,sans-Serif" font-size="10.00">+ TArray()</text>
<text text-anchor="start" x="120.5" y="-156.5" font-family="Helvetica,sans-Serif" font-size="10.00">+ Num()</text>
<text text-anchor="start" x="120.5" y="-145.5" font-family="Helvetica,sans-Serif" font-size="10.00">+ operator[]()</text>
<text text-anchor="start" x="120.5" y="-134.5" font-family="Helvetica,sans-Serif" font-size="10.00">+ operator[]()</text>
<text text-anchor="start" x="120.5" y="-123.5" font-family="Helvetica,sans-Serif" font-size="10.00">+ IsValidIndex()</text>
</a>
</g>
</g>
<!-- Node15&#45;&gt;Node1 -->
<g id="edge2" class="edge"><title>Node15&#45;&gt;Node1</title>
<path fill="none" stroke="#404040" d="M146.375,-116.184C140.755,-104.05 134.875,-91.3569 129.487,-79.7258"/>
<polygon fill="none" stroke="#404040" points="129.335,-79.3971 123.183,-75.6342 124.291,-68.5086 130.442,-72.2715 129.335,-79.3971"/>
<text text-anchor="middle" x="161.5" y="-90" font-family="Helvetica,sans-Serif" font-size="10.00"> +DataBlob</text>
</g>
</g>
</svg>
