<?xml version="1.0" encoding="UTF-8" standalone="no"?>
<!DOCTYPE svg PUBLIC "-//W3C//DTD SVG 1.1//EN"
 "http://www.w3.org/Graphics/SVG/1.1/DTD/svg11.dtd">
<!-- Generated by graphviz version 2.38.0 (20140413.2041)
 -->
<!-- Title: SDK::FRewardGrantedNetworkEvent Pages: 1 -->
<svg width="159pt" height="248pt"
 viewBox="0.00 0.00 159.00 248.00" xmlns="http://www.w3.org/2000/svg" xmlns:xlink="http://www.w3.org/1999/xlink">
<g id="graph0" class="graph" transform="scale(1 1) rotate(0) translate(4 244)">
<title>SDK::FRewardGrantedNetworkEvent</title>
<!-- Node1 -->
<g id="node1" class="node"><title>Node1</title>
<g id="a_node1"><a xlink:title=" ">
<polygon fill="#bfbfbf" stroke="black" points="0,-0.5 0,-145.5 151,-145.5 151,-0.5 0,-0.5"/>
<text text-anchor="start" x="8" y="-133.5" font-family="Helvetica,sans-Serif" font-size="10.00">SDK::FRewardGrantedNetwork</text>
<text text-anchor="middle" x="75.5" y="-122.5" font-family="Helvetica,sans-Serif" font-size="10.00">Event</text>
<polyline fill="none" stroke="black" points="0,-115.5 151,-115.5 "/>
<text text-anchor="start" x="8" y="-103.5" font-family="Helvetica,sans-Serif" font-size="10.00">+ RewardId</text>
<text text-anchor="start" x="8" y="-92.5" font-family="Helvetica,sans-Serif" font-size="10.00">+ CurrencyId</text>
<text text-anchor="start" x="8" y="-81.5" font-family="Helvetica,sans-Serif" font-size="10.00">+ UnknownData00</text>
<text text-anchor="start" x="8" y="-70.5" font-family="Helvetica,sans-Serif" font-size="10.00">+ CurrencyAmount</text>
<text text-anchor="start" x="8" y="-59.5" font-family="Helvetica,sans-Serif" font-size="10.00">+ CompanyId</text>
<text text-anchor="start" x="8" y="-48.5" font-family="Helvetica,sans-Serif" font-size="10.00">+ Xp</text>
<text text-anchor="start" x="8" y="-37.5" font-family="Helvetica,sans-Serif" font-size="10.00">+ NumLevels</text>
<text text-anchor="start" x="8" y="-26.5" font-family="Helvetica,sans-Serif" font-size="10.00">+ Entitlements</text>
<polyline fill="none" stroke="black" points="0,-19.5 151,-19.5 "/>
<text text-anchor="middle" x="75.5" y="-7.5" font-family="Helvetica,sans-Serif" font-size="10.00"> </text>
</a>
</g>
</g>
<!-- Node2 -->
<g id="node2" class="node"><title>Node2</title>
<g id="a_node2"><a xlink:href="a16723.html" target="_top" xlink:title=" ">
<polygon fill="none" stroke="red" points="8.5,-182.5 8.5,-239.5 142.5,-239.5 142.5,-182.5 8.5,-182.5"/>
<text text-anchor="middle" x="75.5" y="-227.5" font-family="Helvetica,sans-Serif" font-size="10.00">SDK::FNetworkEventStruct</text>
<polyline fill="none" stroke="red" points="8.5,-220.5 142.5,-220.5 "/>
<text text-anchor="middle" x="75.5" y="-208.5" font-family="Helvetica,sans-Serif" font-size="10.00"> </text>
<polyline fill="none" stroke="red" points="8.5,-201.5 142.5,-201.5 "/>
<text text-anchor="middle" x="75.5" y="-189.5" font-family="Helvetica,sans-Serif" font-size="10.00"> </text>
</a>
</g>
</g>
<!-- Node2&#45;&gt;Node1 -->
<g id="edge1" class="edge"><title>Node2&#45;&gt;Node1</title>
<path fill="none" stroke="midnightblue" d="M75.5,-172.356C75.5,-163.999 75.5,-154.872 75.5,-145.656"/>
<polygon fill="none" stroke="midnightblue" points="72.0001,-172.478 75.5,-182.478 79.0001,-172.478 72.0001,-172.478"/>
</g>
</g>
</svg>
