<?xml version="1.0" encoding="UTF-8" standalone="no"?>
<!DOCTYPE svg PUBLIC "-//W3C//DTD SVG 1.1//EN"
 "http://www.w3.org/Graphics/SVG/1.1/DTD/svg11.dtd">
<!-- Generated by graphviz version 2.38.0 (20140413.2041)
 -->
<!-- Title: SDK::FContestScoreTelemetryFragmentInput Pages: 1 -->
<svg width="286pt" height="277pt"
 viewBox="0.00 0.00 285.50 277.00" xmlns="http://www.w3.org/2000/svg" xmlns:xlink="http://www.w3.org/1999/xlink">
<g id="graph0" class="graph" transform="scale(1 1) rotate(0) translate(4 273)">
<title>SDK::FContestScoreTelemetryFragmentInput</title>
<!-- Node1 -->
<g id="node1" class="node"><title>Node1</title>
<g id="a_node1"><a xlink:title=" ">
<polygon fill="#bfbfbf" stroke="black" points="0,-0.5 0,-68.5 151,-68.5 151,-0.5 0,-0.5"/>
<text text-anchor="start" x="8" y="-56.5" font-family="Helvetica,sans-Serif" font-size="10.00">SDK::FContestScoreTelemetry</text>
<text text-anchor="middle" x="75.5" y="-45.5" font-family="Helvetica,sans-Serif" font-size="10.00">FragmentInput</text>
<polyline fill="none" stroke="black" points="0,-38.5 151,-38.5 "/>
<text text-anchor="middle" x="75.5" y="-26.5" font-family="Helvetica,sans-Serif" font-size="10.00"> </text>
<polyline fill="none" stroke="black" points="0,-19.5 151,-19.5 "/>
<text text-anchor="middle" x="75.5" y="-7.5" font-family="Helvetica,sans-Serif" font-size="10.00"> </text>
</a>
</g>
</g>
<!-- Node2 -->
<g id="node2" class="node"><title>Node2</title>
<g id="a_node2"><a xlink:href="a00559.html" target="_top" xlink:title=" ">
<polygon fill="none" stroke="black" points="123.5,-106.5 123.5,-163.5 277.5,-163.5 277.5,-106.5 123.5,-106.5"/>
<text text-anchor="middle" x="200.5" y="-151.5" font-family="Helvetica,sans-Serif" font-size="10.00">SDK::FTelemetryFragmentInput</text>
<polyline fill="none" stroke="black" points="123.5,-144.5 277.5,-144.5 "/>
<text text-anchor="middle" x="200.5" y="-132.5" font-family="Helvetica,sans-Serif" font-size="10.00"> </text>
<polyline fill="none" stroke="black" points="123.5,-125.5 277.5,-125.5 "/>
<text text-anchor="middle" x="200.5" y="-113.5" font-family="Helvetica,sans-Serif" font-size="10.00"> </text>
</a>
</g>
</g>
<!-- Node2&#45;&gt;Node1 -->
<g id="edge1" class="edge"><title>Node2&#45;&gt;Node1</title>
<path fill="none" stroke="midnightblue" d="M157.472,-100.094C144.53,-89.8959 130.351,-78.7224 117.478,-68.5784"/>
<polygon fill="none" stroke="midnightblue" points="155.327,-102.86 165.348,-106.3 159.66,-97.3617 155.327,-102.86"/>
</g>
<!-- Node3 -->
<g id="node3" class="node"><title>Node3</title>
<g id="a_node3"><a xlink:title=" ">
<polygon fill="none" stroke="#bfbfbf" points="60,-211.5 60,-268.5 95,-268.5 95,-211.5 60,-211.5"/>
<text text-anchor="middle" x="77.5" y="-256.5" font-family="Helvetica,sans-Serif" font-size="10.00">char</text>
<polyline fill="none" stroke="#bfbfbf" points="60,-249.5 95,-249.5 "/>
<text text-anchor="middle" x="77.5" y="-237.5" font-family="Helvetica,sans-Serif" font-size="10.00"> </text>
<polyline fill="none" stroke="#bfbfbf" points="60,-230.5 95,-230.5 "/>
<text text-anchor="middle" x="77.5" y="-218.5" font-family="Helvetica,sans-Serif" font-size="10.00"> </text>
</a>
</g>
</g>
<!-- Node3&#45;&gt;Node1 -->
<g id="edge3" class="edge"><title>Node3&#45;&gt;Node1</title>
<path fill="none" stroke="#404040" d="M59.931,-215.753C50.3626,-201.607 39.483,-182.71 34.5,-164 27.8658,-139.091 27.789,-130.889 34.5,-106 36.9622,-96.8684 40.9309,-87.7024 45.4522,-79.1416"/>
<polygon fill="none" stroke="#404040" points="45.4742,-79.1028 44.961,-71.91 51.4031,-68.6697 51.9164,-75.8625 45.4742,-79.1028"/>
<text text-anchor="middle" x="74.5" y="-132.5" font-family="Helvetica,sans-Serif" font-size="10.00"> +UnknownData00</text>
</g>
<!-- Node3&#45;&gt;Node2 -->
<g id="edge2" class="edge"><title>Node3&#45;&gt;Node2</title>
<path fill="none" stroke="#404040" d="M95.1229,-224.243C111.556,-210.481 136.711,-189.417 158.323,-171.319"/>
<polygon fill="none" stroke="#404040" points="158.444,-171.218 160.476,-164.299 167.644,-163.513 165.612,-170.432 158.444,-171.218"/>
<text text-anchor="middle" x="182.5" y="-185" font-family="Helvetica,sans-Serif" font-size="10.00"> +UnknownData00</text>
</g>
</g>
</svg>
