<?xml version="1.0" encoding="UTF-8" standalone="no"?>
<!DOCTYPE svg PUBLIC "-//W3C//DTD SVG 1.1//EN"
 "http://www.w3.org/Graphics/SVG/1.1/DTD/svg11.dtd">
<!-- Generated by graphviz version 2.38.0 (20140413.2041)
 -->
<!-- Title: SDK::FRivalChangeTelemetryEvent Pages: 1 -->
<svg width="153pt" height="226pt"
 viewBox="0.00 0.00 153.00 226.00" xmlns="http://www.w3.org/2000/svg" xmlns:xlink="http://www.w3.org/1999/xlink">
<g id="graph0" class="graph" transform="scale(1 1) rotate(0) translate(4 222)">
<title>SDK::FRivalChangeTelemetryEvent</title>
<!-- Node1 -->
<g id="node1" class="node"><title>Node1</title>
<g id="a_node1"><a xlink:title=" ">
<polygon fill="#bfbfbf" stroke="black" points="0,-0.5 0,-68.5 145,-68.5 145,-0.5 0,-0.5"/>
<text text-anchor="start" x="8" y="-56.5" font-family="Helvetica,sans-Serif" font-size="10.00">SDK::FRivalChangeTelemetry</text>
<text text-anchor="middle" x="72.5" y="-45.5" font-family="Helvetica,sans-Serif" font-size="10.00">Event</text>
<polyline fill="none" stroke="black" points="0,-38.5 145,-38.5 "/>
<text text-anchor="middle" x="72.5" y="-26.5" font-family="Helvetica,sans-Serif" font-size="10.00"> </text>
<polyline fill="none" stroke="black" points="0,-19.5 145,-19.5 "/>
<text text-anchor="middle" x="72.5" y="-7.5" font-family="Helvetica,sans-Serif" font-size="10.00"> </text>
</a>
</g>
</g>
<!-- Node2 -->
<g id="node2" class="node"><title>Node2</title>
<g id="a_node2"><a xlink:href="a26071.html" target="_top" xlink:title=" ">
<polygon fill="none" stroke="red" points="36,-116.5 36,-217.5 109,-217.5 109,-116.5 36,-116.5"/>
<text text-anchor="middle" x="72.5" y="-205.5" font-family="Helvetica,sans-Serif" font-size="10.00">SDK::FGuid</text>
<polyline fill="none" stroke="red" points="36,-198.5 109,-198.5 "/>
<text text-anchor="middle" x="72.5" y="-186.5" font-family="Helvetica,sans-Serif" font-size="10.00"> </text>
<polyline fill="none" stroke="red" points="36,-179.5 109,-179.5 "/>
<text text-anchor="start" x="44" y="-167.5" font-family="Helvetica,sans-Serif" font-size="10.00">+ FGuid()</text>
<text text-anchor="start" x="44" y="-156.5" font-family="Helvetica,sans-Serif" font-size="10.00">+ FGuid()</text>
<text text-anchor="start" x="44" y="-145.5" font-family="Helvetica,sans-Serif" font-size="10.00">+ operator()()</text>
<text text-anchor="start" x="44" y="-134.5" font-family="Helvetica,sans-Serif" font-size="10.00">+ operator[]()</text>
<text text-anchor="start" x="44" y="-123.5" font-family="Helvetica,sans-Serif" font-size="10.00">+ operator[]()</text>
</a>
</g>
</g>
<!-- Node2&#45;&gt;Node1 -->
<g id="edge1" class="edge"><title>Node2&#45;&gt;Node1</title>
<path fill="none" stroke="#404040" d="M72.5,-116.291C72.5,-104.548 72.5,-92.092 72.5,-80.5675"/>
<polygon fill="none" stroke="#404040" points="72.5001,-80.5058 68.5,-74.5058 72.5,-68.5058 76.5,-74.5057 72.5001,-80.5058"/>
<text text-anchor="middle" x="92" y="-90" font-family="Helvetica,sans-Serif" font-size="10.00"> +CrewId</text>
</g>
</g>
</svg>
