<?xml version="1.0" encoding="UTF-8" standalone="no"?>
<!DOCTYPE svg PUBLIC "-//W3C//DTD SVG 1.1//EN"
 "http://www.w3.org/Graphics/SVG/1.1/DTD/svg11.dtd">
<!-- Generated by graphviz version 2.38.0 (20140413.2041)
 -->
<!-- Title: SDK::FLevelCancelCompletedTelemetryEvent Pages: 1 -->
<svg width="166pt" height="270pt"
 viewBox="0.00 0.00 166.00 270.00" xmlns="http://www.w3.org/2000/svg" xmlns:xlink="http://www.w3.org/1999/xlink">
<g id="graph0" class="graph" transform="scale(1 1) rotate(0) translate(4 266)">
<title>SDK::FLevelCancelCompletedTelemetryEvent</title>
<!-- Node1 -->
<g id="node1" class="node"><title>Node1</title>
<g id="a_node1"><a xlink:title=" ">
<polygon fill="#bfbfbf" stroke="black" points="5,-0.5 5,-79.5 153,-79.5 153,-0.5 5,-0.5"/>
<text text-anchor="start" x="13" y="-67.5" font-family="Helvetica,sans-Serif" font-size="10.00">SDK::FLevelCancelCompleted</text>
<text text-anchor="middle" x="79" y="-56.5" font-family="Helvetica,sans-Serif" font-size="10.00">TelemetryEvent</text>
<polyline fill="none" stroke="black" points="5,-49.5 153,-49.5 "/>
<text text-anchor="start" x="13" y="-37.5" font-family="Helvetica,sans-Serif" font-size="10.00">+ TimeSinceCancelRequested</text>
<text text-anchor="start" x="13" y="-26.5" font-family="Helvetica,sans-Serif" font-size="10.00">+ UnknownData00</text>
<polyline fill="none" stroke="black" points="5,-19.5 153,-19.5 "/>
<text text-anchor="middle" x="79" y="-7.5" font-family="Helvetica,sans-Serif" font-size="10.00"> </text>
</a>
</g>
</g>
<!-- Node2 -->
<g id="node2" class="node"><title>Node2</title>
<g id="a_node2"><a xlink:href="a21175.html" target="_top" xlink:title=" ">
<polygon fill="none" stroke="black" points="0,-116.5 0,-261.5 158,-261.5 158,-116.5 0,-116.5"/>
<text text-anchor="start" x="8" y="-249.5" font-family="Helvetica,sans-Serif" font-size="10.00">SDK::FStreamingTelemetry</text>
<text text-anchor="middle" x="79" y="-238.5" font-family="Helvetica,sans-Serif" font-size="10.00">BaseEvent</text>
<polyline fill="none" stroke="black" points="0,-231.5 158,-231.5 "/>
<text text-anchor="start" x="8" y="-219.5" font-family="Helvetica,sans-Serif" font-size="10.00">+ LevelName</text>
<text text-anchor="start" x="8" y="-208.5" font-family="Helvetica,sans-Serif" font-size="10.00">+ LodLevel</text>
<text text-anchor="start" x="8" y="-197.5" font-family="Helvetica,sans-Serif" font-size="10.00">+ PlayerPosition</text>
<text text-anchor="start" x="8" y="-186.5" font-family="Helvetica,sans-Serif" font-size="10.00">+ DistanceFromPlayer</text>
<text text-anchor="start" x="8" y="-175.5" font-family="Helvetica,sans-Serif" font-size="10.00">+ DistanceFromBoundsToPlayer</text>
<text text-anchor="start" x="8" y="-164.5" font-family="Helvetica,sans-Serif" font-size="10.00">+ PlayerIsWaitingToSpawn</text>
<text text-anchor="start" x="8" y="-153.5" font-family="Helvetica,sans-Serif" font-size="10.00">+ PlayerIsTeleporting</text>
<text text-anchor="start" x="8" y="-142.5" font-family="Helvetica,sans-Serif" font-size="10.00">+ UnknownData00</text>
<polyline fill="none" stroke="black" points="0,-135.5 158,-135.5 "/>
<text text-anchor="middle" x="79" y="-123.5" font-family="Helvetica,sans-Serif" font-size="10.00"> </text>
</a>
</g>
</g>
<!-- Node2&#45;&gt;Node1 -->
<g id="edge1" class="edge"><title>Node2&#45;&gt;Node1</title>
<path fill="none" stroke="midnightblue" d="M79,-105.954C79,-96.8992 79,-88.0195 79,-79.875"/>
<polygon fill="none" stroke="midnightblue" points="75.5001,-106.222 79,-116.223 82.5001,-106.223 75.5001,-106.222"/>
</g>
</g>
</svg>
