<?xml version="1.0" encoding="UTF-8" standalone="no"?>
<!DOCTYPE svg PUBLIC "-//W3C//DTD SVG 1.1//EN"
 "http://www.w3.org/Graphics/SVG/1.1/DTD/svg11.dtd">
<!-- Generated by graphviz version 2.38.0 (20140413.2041)
 -->
<!-- Title: SDK::FStreamingTelemetryBaseEvent Pages: 1 -->
<!--zoomable 325 -->
<svg id="main" version="1.1" xmlns="http://www.w3.org/2000/svg" xmlns:xlink="http://www.w3.org/1999/xlink" xml:space="preserve" onload="init(evt)">
<style type="text/css"><![CDATA[
.edge:hover path { stroke: red; }
.edge:hover polygon { stroke: red; fill: red; }
]]></style>
<script type="text/javascript"><![CDATA[
var edges = document.getElementsByTagName('g');
if (edges && edges.length) {
  for (var i=0;i<edges.length;i++) {
    if (edges[i].id.substr(0,4)=='edge') {
      edges[i].setAttribute('class','edge');
    }
  }
}
]]></script>
        <defs>
                <circle id="rim" cx="0" cy="0" r="7"/>
                <circle id="rim2" cx="0" cy="0" r="3.5"/>
                <g id="zoomPlus">
                        <use xlink:href="#rim" fill="#404040">
                                <set attributeName="fill" to="#808080" begin="zoomplus.mouseover" end="zoomplus.mouseout"/>
                        </use>
                        <path d="M-4,0h8M0,-4v8" fill="none" stroke="white" stroke-width="1.5" pointer-events="none"/>
                </g>
                <g id="zoomMin">
                        <use xlink:href="#rim" fill="#404040">
                                <set attributeName="fill" to="#808080" begin="zoomminus.mouseover" end="zoomminus.mouseout"/>
                        </use>
                        <path d="M-4,0h8" fill="none" stroke="white" stroke-width="1.5" pointer-events="none"/>
                </g>
                <g id="dirArrow">
                        <path fill="none" stroke="white" stroke-width="1.5" d="M0,-3.0v7 M-2.5,-0.5L0,-3.0L2.5,-0.5"/>
                </g>
               <g id="resetDef">
                       <use xlink:href="#rim2" fill="#404040">
                               <set attributeName="fill" to="#808080" begin="reset.mouseover" end="reset.mouseout"/>
                       </use>
               </g>
        </defs>

<script type="text/javascript">
var viewWidth = 1166;
var viewHeight = 325;
var sectionId = 'dynsection-0';
</script>
<script xlink:href="svgpan.js"/>
<svg id="graph" class="graph">
<g id="viewport">
<title>SDK::FStreamingTelemetryBaseEvent</title>
<!-- Node1 -->
<g id="node1" class="node"><title>Node1</title>
<g id="a_node1"><a xlink:title=" ">
<polygon fill="#bfbfbf" stroke="black" points="494,-171.5 494,-316.5 652,-316.5 652,-171.5 494,-171.5"/>
<text text-anchor="start" x="502" y="-304.5" font-family="Helvetica,sans-Serif" font-size="10.00">SDK::FStreamingTelemetry</text>
<text text-anchor="middle" x="573" y="-293.5" font-family="Helvetica,sans-Serif" font-size="10.00">BaseEvent</text>
<polyline fill="none" stroke="black" points="494,-286.5 652,-286.5 "/>
<text text-anchor="start" x="502" y="-274.5" font-family="Helvetica,sans-Serif" font-size="10.00">+ LevelName</text>
<text text-anchor="start" x="502" y="-263.5" font-family="Helvetica,sans-Serif" font-size="10.00">+ LodLevel</text>
<text text-anchor="start" x="502" y="-252.5" font-family="Helvetica,sans-Serif" font-size="10.00">+ PlayerPosition</text>
<text text-anchor="start" x="502" y="-241.5" font-family="Helvetica,sans-Serif" font-size="10.00">+ DistanceFromPlayer</text>
<text text-anchor="start" x="502" y="-230.5" font-family="Helvetica,sans-Serif" font-size="10.00">+ DistanceFromBoundsToPlayer</text>
<text text-anchor="start" x="502" y="-219.5" font-family="Helvetica,sans-Serif" font-size="10.00">+ PlayerIsWaitingToSpawn</text>
<text text-anchor="start" x="502" y="-208.5" font-family="Helvetica,sans-Serif" font-size="10.00">+ PlayerIsTeleporting</text>
<text text-anchor="start" x="502" y="-197.5" font-family="Helvetica,sans-Serif" font-size="10.00">+ UnknownData00</text>
<polyline fill="none" stroke="black" points="494,-190.5 652,-190.5 "/>
<text text-anchor="middle" x="573" y="-178.5" font-family="Helvetica,sans-Serif" font-size="10.00"> </text>
</a>
</g>
</g>
<!-- Node2 -->
<g id="node2" class="node"><title>Node2</title>
<g id="a_node2"><a xlink:href="a21179.html" target="_top" xlink:title=" ">
<polygon fill="none" stroke="black" points="0,-28 0,-107 148,-107 148,-28 0,-28"/>
<text text-anchor="start" x="8" y="-95" font-family="Helvetica,sans-Serif" font-size="10.00">SDK::FLevelCancelCompleted</text>
<text text-anchor="middle" x="74" y="-84" font-family="Helvetica,sans-Serif" font-size="10.00">TelemetryEvent</text>
<polyline fill="none" stroke="black" points="0,-77 148,-77 "/>
<text text-anchor="start" x="8" y="-65" font-family="Helvetica,sans-Serif" font-size="10.00">+ TimeSinceCancelRequested</text>
<text text-anchor="start" x="8" y="-54" font-family="Helvetica,sans-Serif" font-size="10.00">+ UnknownData00</text>
<polyline fill="none" stroke="black" points="0,-47 148,-47 "/>
<text text-anchor="middle" x="74" y="-35" font-family="Helvetica,sans-Serif" font-size="10.00"> </text>
</a>
</g>
</g>
<!-- Node1&#45;&gt;Node2 -->
<g id="edge1" class="edge"><title>Node1&#45;&gt;Node2</title>
<path fill="none" stroke="midnightblue" d="M483.507,-230.93C396.55,-216.68 262.546,-187.918 157,-135 142.31,-127.635 127.802,-117.353 115.125,-107.073"/>
<polygon fill="none" stroke="midnightblue" points="483.181,-234.423 493.61,-232.555 484.292,-227.512 483.181,-234.423"/>
</g>
<!-- Node3 -->
<g id="node3" class="node"><title>Node3</title>
<g id="a_node3"><a xlink:href="a21183.html" target="_top" xlink:title=" ">
<polygon fill="none" stroke="black" points="166.5,-28 166.5,-107 313.5,-107 313.5,-28 166.5,-28"/>
<text text-anchor="start" x="174.5" y="-95" font-family="Helvetica,sans-Serif" font-size="10.00">SDK::FLevelCancelRequested</text>
<text text-anchor="middle" x="240" y="-84" font-family="Helvetica,sans-Serif" font-size="10.00">TelemetryEvent</text>
<polyline fill="none" stroke="black" points="166.5,-77 313.5,-77 "/>
<text text-anchor="start" x="174.5" y="-65" font-family="Helvetica,sans-Serif" font-size="10.00">+ TimeCancelRequested</text>
<text text-anchor="start" x="174.5" y="-54" font-family="Helvetica,sans-Serif" font-size="10.00">+ UnknownData00</text>
<polyline fill="none" stroke="black" points="166.5,-47 313.5,-47 "/>
<text text-anchor="middle" x="240" y="-35" font-family="Helvetica,sans-Serif" font-size="10.00"> </text>
</a>
</g>
</g>
<!-- Node1&#45;&gt;Node3 -->
<g id="edge2" class="edge"><title>Node1&#45;&gt;Node3</title>
<path fill="none" stroke="midnightblue" d="M484.428,-211.442C435.295,-192.306 374,-165.684 323,-135 309.552,-126.909 295.884,-116.859 283.624,-107.044"/>
<polygon fill="none" stroke="midnightblue" points="483.181,-214.712 493.77,-215.048 485.701,-208.182 483.181,-214.712"/>
</g>
<!-- Node4 -->
<g id="node4" class="node"><title>Node4</title>
<g id="a_node4"><a xlink:href="a21199.html" target="_top" xlink:title=" ">
<polygon fill="none" stroke="red" points="332,-0.5 332,-134.5 486,-134.5 486,-0.5 332,-0.5"/>
<text text-anchor="start" x="340" y="-122.5" font-family="Helvetica,sans-Serif" font-size="10.00">SDK::FLevelLoadCompleted</text>
<text text-anchor="middle" x="409" y="-111.5" font-family="Helvetica,sans-Serif" font-size="10.00">TelemetryEvent</text>
<polyline fill="none" stroke="red" points="332,-104.5 486,-104.5 "/>
<text text-anchor="start" x="340" y="-92.5" font-family="Helvetica,sans-Serif" font-size="10.00">+ WasCancelRequested</text>
<text text-anchor="start" x="340" y="-81.5" font-family="Helvetica,sans-Serif" font-size="10.00">+ WasCancelActioned</text>
<text text-anchor="start" x="340" y="-70.5" font-family="Helvetica,sans-Serif" font-size="10.00">+ UnknownData00</text>
<text text-anchor="start" x="340" y="-59.5" font-family="Helvetica,sans-Serif" font-size="10.00">+ DistancePlayerTravelledSince</text>
<text text-anchor="start" x="340" y="-48.5" font-family="Helvetica,sans-Serif" font-size="10.00">LoadRequest</text>
<text text-anchor="start" x="340" y="-37.5" font-family="Helvetica,sans-Serif" font-size="10.00">+ TimeSinceLoadRequested</text>
<text text-anchor="start" x="340" y="-26.5" font-family="Helvetica,sans-Serif" font-size="10.00">+ UnknownData01</text>
<polyline fill="none" stroke="red" points="332,-19.5 486,-19.5 "/>
<text text-anchor="middle" x="409" y="-7.5" font-family="Helvetica,sans-Serif" font-size="10.00"> </text>
</a>
</g>
</g>
<!-- Node1&#45;&gt;Node4 -->
<g id="edge3" class="edge"><title>Node1&#45;&gt;Node4</title>
<path fill="none" stroke="midnightblue" d="M498.6,-163.836C489.422,-154.071 480.117,-144.17 471.149,-134.628"/>
<polygon fill="none" stroke="midnightblue" points="496.186,-166.379 505.585,-171.269 501.287,-161.585 496.186,-166.379"/>
</g>
<!-- Node6 -->
<g id="node5" class="node"><title>Node6</title>
<g id="a_node5"><a xlink:href="a21207.html" target="_top" xlink:title=" ">
<polygon fill="none" stroke="black" points="504,-33.5 504,-101.5 642,-101.5 642,-33.5 504,-33.5"/>
<text text-anchor="start" x="512" y="-89.5" font-family="Helvetica,sans-Serif" font-size="10.00">SDK::FLevelLoadRequested</text>
<text text-anchor="middle" x="573" y="-78.5" font-family="Helvetica,sans-Serif" font-size="10.00">TelemetryEvent</text>
<polyline fill="none" stroke="black" points="504,-71.5 642,-71.5 "/>
<text text-anchor="middle" x="573" y="-59.5" font-family="Helvetica,sans-Serif" font-size="10.00"> </text>
<polyline fill="none" stroke="black" points="504,-52.5 642,-52.5 "/>
<text text-anchor="middle" x="573" y="-40.5" font-family="Helvetica,sans-Serif" font-size="10.00"> </text>
</a>
</g>
</g>
<!-- Node1&#45;&gt;Node6 -->
<g id="edge4" class="edge"><title>Node1&#45;&gt;Node6</title>
<path fill="none" stroke="midnightblue" d="M573,-161.041C573,-140.097 573,-118.745 573,-101.836"/>
<polygon fill="none" stroke="midnightblue" points="569.5,-161.269 573,-171.269 576.5,-161.269 569.5,-161.269"/>
</g>
<!-- Node7 -->
<g id="node6" class="node"><title>Node7</title>
<g id="a_node6"><a xlink:href="a21195.html" target="_top" xlink:title=" ">
<polygon fill="none" stroke="black" points="660.5,-33.5 660.5,-101.5 827.5,-101.5 827.5,-33.5 660.5,-33.5"/>
<text text-anchor="start" x="668.5" y="-89.5" font-family="Helvetica,sans-Serif" font-size="10.00">SDK::FLevelMadeHiddenTelemetry</text>
<text text-anchor="middle" x="744" y="-78.5" font-family="Helvetica,sans-Serif" font-size="10.00">Event</text>
<polyline fill="none" stroke="black" points="660.5,-71.5 827.5,-71.5 "/>
<text text-anchor="middle" x="744" y="-59.5" font-family="Helvetica,sans-Serif" font-size="10.00"> </text>
<polyline fill="none" stroke="black" points="660.5,-52.5 827.5,-52.5 "/>
<text text-anchor="middle" x="744" y="-40.5" font-family="Helvetica,sans-Serif" font-size="10.00"> </text>
</a>
</g>
</g>
<!-- Node1&#45;&gt;Node7 -->
<g id="edge5" class="edge"><title>Node1&#45;&gt;Node7</title>
<path fill="none" stroke="midnightblue" d="M650.519,-163.894C671.928,-142.047 694.01,-119.513 711.333,-101.836"/>
<polygon fill="none" stroke="midnightblue" points="647.792,-161.677 643.293,-171.269 652.791,-166.576 647.792,-161.677"/>
</g>
<!-- Node8 -->
<g id="node7" class="node"><title>Node8</title>
<g id="a_node7"><a xlink:href="a21187.html" target="_top" xlink:title=" ">
<polygon fill="none" stroke="black" points="845.5,-33.5 845.5,-101.5 992.5,-101.5 992.5,-33.5 845.5,-33.5"/>
<text text-anchor="start" x="853.5" y="-89.5" font-family="Helvetica,sans-Serif" font-size="10.00">SDK::FLevelUnloadCompleted</text>
<text text-anchor="middle" x="919" y="-78.5" font-family="Helvetica,sans-Serif" font-size="10.00">TelemetryEvent</text>
<polyline fill="none" stroke="black" points="845.5,-71.5 992.5,-71.5 "/>
<text text-anchor="middle" x="919" y="-59.5" font-family="Helvetica,sans-Serif" font-size="10.00"> </text>
<polyline fill="none" stroke="black" points="845.5,-52.5 992.5,-52.5 "/>
<text text-anchor="middle" x="919" y="-40.5" font-family="Helvetica,sans-Serif" font-size="10.00"> </text>
</a>
</g>
</g>
<!-- Node1&#45;&gt;Node8 -->
<g id="edge6" class="edge"><title>Node1&#45;&gt;Node8</title>
<path fill="none" stroke="midnightblue" d="M661.76,-214.075C714.49,-195.115 781.651,-167.792 837,-135 852.927,-125.564 869.05,-113.222 882.736,-101.737"/>
<polygon fill="none" stroke="midnightblue" points="660.336,-210.867 652.088,-217.518 662.683,-217.462 660.336,-210.867"/>
</g>
<!-- Node9 -->
<g id="node8" class="node"><title>Node9</title>
<g id="a_node8"><a xlink:href="a21191.html" target="_top" xlink:title=" ">
<polygon fill="none" stroke="black" points="1010.5,-33.5 1010.5,-101.5 1157.5,-101.5 1157.5,-33.5 1010.5,-33.5"/>
<text text-anchor="start" x="1018.5" y="-89.5" font-family="Helvetica,sans-Serif" font-size="10.00">SDK::FLevelUnloadRequested</text>
<text text-anchor="middle" x="1084" y="-78.5" font-family="Helvetica,sans-Serif" font-size="10.00">TelemetryEvent</text>
<polyline fill="none" stroke="black" points="1010.5,-71.5 1157.5,-71.5 "/>
<text text-anchor="middle" x="1084" y="-59.5" font-family="Helvetica,sans-Serif" font-size="10.00"> </text>
<polyline fill="none" stroke="black" points="1010.5,-52.5 1157.5,-52.5 "/>
<text text-anchor="middle" x="1084" y="-40.5" font-family="Helvetica,sans-Serif" font-size="10.00"> </text>
</a>
</g>
</g>
<!-- Node1&#45;&gt;Node9 -->
<g id="edge7" class="edge"><title>Node1&#45;&gt;Node9</title>
<path fill="none" stroke="midnightblue" d="M662.242,-232.05C751.862,-218.463 892.053,-190.023 1002,-135 1019.21,-126.387 1036.1,-113.652 1050.03,-101.626"/>
<polygon fill="none" stroke="midnightblue" points="661.488,-228.624 652.111,-233.555 662.516,-235.548 661.488,-228.624"/>
</g>
</g>
</svg>
        <g id="navigator" transform="translate(0 0)" fill="#404254">
                <rect fill="#f2f5e9" fill-opacity="0.5" stroke="#606060" stroke-width=".5" x="0" y="0" width="60" height="60"/>
                <use id="zoomplus" xlink:href="#zoomPlus" x="17" y="9" onmousedown="handleZoom(evt,'in')"/>
                <use id="zoomminus" xlink:href="#zoomMin" x="42" y="9" onmousedown="handleZoom(evt,'out')"/>
                <use id="reset" xlink:href="#resetDef" x="30" y="36" onmousedown="handleReset()"/>
                <g id="arrowUp" xlink:href="#dirArrow" transform="translate(30 24)" onmousedown="handlePan(0,-1)">
                  <use xlink:href="#rim" fill="#404040">
                        <set attributeName="fill" to="#808080" begin="arrowUp.mouseover" end="arrowUp.mouseout"/>
                  </use>
                  <path fill="none" stroke="white" stroke-width="1.5" d="M0,-3.0v7 M-2.5,-0.5L0,-3.0L2.5,-0.5"/>
                </g>
                <g id="arrowRight" xlink:href="#dirArrow" transform="rotate(90) translate(36 -43)" onmousedown="handlePan(1,0)">
                  <use xlink:href="#rim" fill="#404040">
                        <set attributeName="fill" to="#808080" begin="arrowRight.mouseover" end="arrowRight.mouseout"/>
                  </use>
                  <path fill="none" stroke="white" stroke-width="1.5" d="M0,-3.0v7 M-2.5,-0.5L0,-3.0L2.5,-0.5"/>
                </g>
                <g id="arrowDown" xlink:href="#dirArrow" transform="rotate(180) translate(-30 -48)" onmousedown="handlePan(0,1)">
                  <use xlink:href="#rim" fill="#404040">
                        <set attributeName="fill" to="#808080" begin="arrowDown.mouseover" end="arrowDown.mouseout"/>
                  </use>
                  <path fill="none" stroke="white" stroke-width="1.5" d="M0,-3.0v7 M-2.5,-0.5L0,-3.0L2.5,-0.5"/>
                </g>
                <g id="arrowLeft" xlink:href="#dirArrow" transform="rotate(270) translate(-36 17)" onmousedown="handlePan(-1,0)">
                  <use xlink:href="#rim" fill="#404040">
                        <set attributeName="fill" to="#808080" begin="arrowLeft.mouseover" end="arrowLeft.mouseout"/>
                  </use>
                  <path fill="none" stroke="white" stroke-width="1.5" d="M0,-3.0v7 M-2.5,-0.5L0,-3.0L2.5,-0.5"/>
                </g>
        </g>
        <svg viewBox="0 0 15 15" width="100%" height="30px" preserveAspectRatio="xMaxYMin meet">
         <g id="arrow_out" transform="scale(0.3 0.3)">
          <a xlink:href="a21174_org.svg" target="_base">
           <rect id="button" ry="5" rx="5" y="6" x="6" height="38" width="38"
                fill="#f2f5e9" fill-opacity="0.5" stroke="#606060" stroke-width="1.0"/>
           <path id="arrow"
             d="M 11.500037,31.436501 C 11.940474,20.09759 22.043105,11.32322 32.158766,21.979434 L 37.068811,17.246167 C 37.068811,17.246167 37.088388,32 37.088388,32 L 22.160133,31.978069 C 22.160133,31.978069 26.997745,27.140456 26.997745,27.140456 C 18.528582,18.264221 13.291696,25.230495 11.500037,31.436501 z"
             style="fill:#404040;"/>
          </a>
         </g>
        </svg>
</svg>
