<?xml version="1.0" encoding="UTF-8" standalone="no"?>
<!DOCTYPE svg PUBLIC "-//W3C//DTD SVG 1.1//EN"
 "http://www.w3.org/Graphics/SVG/1.1/DTD/svg11.dtd">
<!-- Generated by graphviz version 2.38.0 (20140413.2041)
 -->
<!-- Title: SDK::FFrameDurationDataTelemetryFragment Pages: 1 -->
<svg width="184pt" height="402pt"
 viewBox="0.00 0.00 184.00 402.00" xmlns="http://www.w3.org/2000/svg" xmlns:xlink="http://www.w3.org/1999/xlink">
<g id="graph0" class="graph" transform="scale(1 1) rotate(0) translate(4 398)">
<title>SDK::FFrameDurationDataTelemetryFragment</title>
<!-- Node1 -->
<g id="node1" class="node"><title>Node1</title>
<g id="a_node1"><a xlink:title=" ">
<polygon fill="#bfbfbf" stroke="black" points="0,-0.5 0,-178.5 176,-178.5 176,-0.5 0,-0.5"/>
<text text-anchor="start" x="8" y="-166.5" font-family="Helvetica,sans-Serif" font-size="10.00">SDK::FFrameDurationDataTelemetry</text>
<text text-anchor="middle" x="88" y="-155.5" font-family="Helvetica,sans-Serif" font-size="10.00">Fragment</text>
<polyline fill="none" stroke="black" points="0,-148.5 176,-148.5 "/>
<text text-anchor="start" x="8" y="-136.5" font-family="Helvetica,sans-Serif" font-size="10.00">+ Num04ms</text>
<text text-anchor="start" x="8" y="-125.5" font-family="Helvetica,sans-Serif" font-size="10.00">+ Num06ms</text>
<text text-anchor="start" x="8" y="-114.5" font-family="Helvetica,sans-Serif" font-size="10.00">+ Num10ms</text>
<text text-anchor="start" x="8" y="-103.5" font-family="Helvetica,sans-Serif" font-size="10.00">+ Num14ms</text>
<text text-anchor="start" x="8" y="-92.5" font-family="Helvetica,sans-Serif" font-size="10.00">+ Num16ms</text>
<text text-anchor="start" x="8" y="-81.5" font-family="Helvetica,sans-Serif" font-size="10.00">+ Num20ms</text>
<text text-anchor="start" x="8" y="-70.5" font-family="Helvetica,sans-Serif" font-size="10.00">+ Num22ms</text>
<text text-anchor="start" x="8" y="-59.5" font-family="Helvetica,sans-Serif" font-size="10.00">+ Num24ms</text>
<text text-anchor="start" x="8" y="-48.5" font-family="Helvetica,sans-Serif" font-size="10.00">+ Num30ms</text>
<text text-anchor="start" x="8" y="-37.5" font-family="Helvetica,sans-Serif" font-size="10.00">+ Num32ms</text>
<text text-anchor="start" x="8" y="-26.5" font-family="Helvetica,sans-Serif" font-size="10.00">and 14 more...</text>
<polyline fill="none" stroke="black" points="0,-19.5 176,-19.5 "/>
<text text-anchor="middle" x="88" y="-7.5" font-family="Helvetica,sans-Serif" font-size="10.00"> </text>
</a>
</g>
</g>
<!-- Node2 -->
<g id="node2" class="node"><title>Node2</title>
<g id="a_node2"><a xlink:title=" ">
<polygon fill="none" stroke="#bfbfbf" points="38.5,-336.5 38.5,-393.5 73.5,-393.5 73.5,-336.5 38.5,-336.5"/>
<text text-anchor="middle" x="56" y="-381.5" font-family="Helvetica,sans-Serif" font-size="10.00">float</text>
<polyline fill="none" stroke="#bfbfbf" points="38.5,-374.5 73.5,-374.5 "/>
<text text-anchor="middle" x="56" y="-362.5" font-family="Helvetica,sans-Serif" font-size="10.00"> </text>
<polyline fill="none" stroke="#bfbfbf" points="38.5,-355.5 73.5,-355.5 "/>
<text text-anchor="middle" x="56" y="-343.5" font-family="Helvetica,sans-Serif" font-size="10.00"> </text>
</a>
</g>
</g>
<!-- Node2&#45;&gt;Node1 -->
<g id="edge1" class="edge"><title>Node2&#45;&gt;Node1</title>
<path fill="none" stroke="#404040" d="M53.8395,-336.342C51.7754,-303.075 49.9175,-245.631 57,-197 57.3005,-194.937 57.6311,-192.857 57.9886,-190.767"/>
<polygon fill="none" stroke="#404040" points="58.041,-190.494 55.2473,-183.846 60.3095,-178.711 63.1031,-185.359 58.041,-190.494"/>
<text text-anchor="middle" x="77.5" y="-266" font-family="Helvetica,sans-Serif" font-size="10.00"> +Min</text>
<text text-anchor="middle" x="77.5" y="-255" font-family="Helvetica,sans-Serif" font-size="10.00">+Max</text>
<text text-anchor="middle" x="77.5" y="-244" font-family="Helvetica,sans-Serif" font-size="10.00">+Average</text>
</g>
<!-- Node3 -->
<g id="node3" class="node"><title>Node3</title>
<g id="a_node3"><a xlink:title=" ">
<polygon fill="none" stroke="#bfbfbf" points="94.5,-336.5 94.5,-393.5 145.5,-393.5 145.5,-336.5 94.5,-336.5"/>
<text text-anchor="middle" x="120" y="-381.5" font-family="Helvetica,sans-Serif" font-size="10.00">uint32_t</text>
<polyline fill="none" stroke="#bfbfbf" points="94.5,-374.5 145.5,-374.5 "/>
<text text-anchor="middle" x="120" y="-362.5" font-family="Helvetica,sans-Serif" font-size="10.00"> </text>
<polyline fill="none" stroke="#bfbfbf" points="94.5,-355.5 145.5,-355.5 "/>
<text text-anchor="middle" x="120" y="-343.5" font-family="Helvetica,sans-Serif" font-size="10.00"> </text>
</a>
</g>
</g>
<!-- Node3&#45;&gt;Node1 -->
<g id="edge2" class="edge"><title>Node3&#45;&gt;Node1</title>
<path fill="none" stroke="#404040" d="M116.756,-336.27C112.775,-302.253 105.807,-242.695 99.7271,-190.73"/>
<polygon fill="none" stroke="#404040" points="99.7188,-190.659 95.0486,-185.164 98.3242,-178.74 102.994,-184.235 99.7188,-190.659"/>
<text text-anchor="middle" x="140" y="-310" font-family="Helvetica,sans-Serif" font-size="10.00"> +Num56ms</text>
<text text-anchor="middle" x="140" y="-299" font-family="Helvetica,sans-Serif" font-size="10.00">+Num38ms</text>
<text text-anchor="middle" x="140" y="-288" font-family="Helvetica,sans-Serif" font-size="10.00">+Num12ms</text>
<text text-anchor="middle" x="140" y="-277" font-family="Helvetica,sans-Serif" font-size="10.00">+Num46ms</text>
<text text-anchor="middle" x="140" y="-266" font-family="Helvetica,sans-Serif" font-size="10.00">+Num28ms</text>
<text text-anchor="middle" x="140" y="-255" font-family="Helvetica,sans-Serif" font-size="10.00">+Num02ms</text>
<text text-anchor="middle" x="140" y="-244" font-family="Helvetica,sans-Serif" font-size="10.00">+Num36ms</text>
<text text-anchor="middle" x="140" y="-233" font-family="Helvetica,sans-Serif" font-size="10.00">+Num18ms</text>
<text text-anchor="middle" x="140" y="-222" font-family="Helvetica,sans-Serif" font-size="10.00">+Num26ms</text>
<text text-anchor="middle" x="140" y="-211" font-family="Helvetica,sans-Serif" font-size="10.00">+Num08ms</text>
<text text-anchor="middle" x="140" y="-200" font-family="Helvetica,sans-Serif" font-size="10.00">...</text>
</g>
</g>
</svg>
