<?xml version="1.0" encoding="UTF-8" standalone="no"?>
<!DOCTYPE svg PUBLIC "-//W3C//DTD SVG 1.1//EN"
 "http://www.w3.org/Graphics/SVG/1.1/DTD/svg11.dtd">
<!-- Generated by graphviz version 2.38.0 (20140413.2041)
 -->
<!-- Title: SDK::FProgressPoint Pages: 1 -->
<svg width="239pt" height="215pt"
 viewBox="0.00 0.00 238.50 215.00" xmlns="http://www.w3.org/2000/svg" xmlns:xlink="http://www.w3.org/1999/xlink">
<g id="graph0" class="graph" transform="scale(1 1) rotate(0) translate(4 211)">
<title>SDK::FProgressPoint</title>
<!-- Node1 -->
<g id="node1" class="node"><title>Node1</title>
<g id="a_node1"><a xlink:title=" ">
<polygon fill="#bfbfbf" stroke="black" points="65.5,-0.5 65.5,-57.5 175.5,-57.5 175.5,-0.5 65.5,-0.5"/>
<text text-anchor="middle" x="120.5" y="-45.5" font-family="Helvetica,sans-Serif" font-size="10.00">SDK::FProgressPoint</text>
<polyline fill="none" stroke="black" points="65.5,-38.5 175.5,-38.5 "/>
<text text-anchor="middle" x="120.5" y="-26.5" font-family="Helvetica,sans-Serif" font-size="10.00"> </text>
<polyline fill="none" stroke="black" points="65.5,-19.5 175.5,-19.5 "/>
<text text-anchor="middle" x="120.5" y="-7.5" font-family="Helvetica,sans-Serif" font-size="10.00"> </text>
</a>
</g>
</g>
<!-- Node2 -->
<g id="node2" class="node"><title>Node2</title>
<g id="a_node2"><a xlink:title=" ">
<polygon fill="none" stroke="#bfbfbf" points="0,-127.5 0,-184.5 35,-184.5 35,-127.5 0,-127.5"/>
<text text-anchor="middle" x="17.5" y="-172.5" font-family="Helvetica,sans-Serif" font-size="10.00">char</text>
<polyline fill="none" stroke="#bfbfbf" points="0,-165.5 35,-165.5 "/>
<text text-anchor="middle" x="17.5" y="-153.5" font-family="Helvetica,sans-Serif" font-size="10.00"> </text>
<polyline fill="none" stroke="#bfbfbf" points="0,-146.5 35,-146.5 "/>
<text text-anchor="middle" x="17.5" y="-134.5" font-family="Helvetica,sans-Serif" font-size="10.00"> </text>
</a>
</g>
</g>
<!-- Node2&#45;&gt;Node1 -->
<g id="edge1" class="edge"><title>Node2&#45;&gt;Node1</title>
<path fill="none" stroke="#404040" d="M18.6365,-127.387C20.5617,-111.021 25.2739,-90.6786 36.5,-76 41.5898,-69.3449 47.9305,-63.5274 54.8324,-58.4757"/>
<polygon fill="none" stroke="#404040" points="55.2397,-58.2079 58.0548,-51.5689 65.2657,-51.614 62.4507,-58.2529 55.2397,-58.2079"/>
<text text-anchor="middle" x="76.5" y="-79" font-family="Helvetica,sans-Serif" font-size="10.00"> +UnknownData00</text>
</g>
<!-- Node3 -->
<g id="node3" class="node"><title>Node3</title>
<g id="a_node3"><a xlink:title=" ">
<polygon fill="none" stroke="#bfbfbf" points="103,-127.5 103,-184.5 138,-184.5 138,-127.5 103,-127.5"/>
<text text-anchor="middle" x="120.5" y="-172.5" font-family="Helvetica,sans-Serif" font-size="10.00">float</text>
<polyline fill="none" stroke="#bfbfbf" points="103,-165.5 138,-165.5 "/>
<text text-anchor="middle" x="120.5" y="-153.5" font-family="Helvetica,sans-Serif" font-size="10.00"> </text>
<polyline fill="none" stroke="#bfbfbf" points="103,-146.5 138,-146.5 "/>
<text text-anchor="middle" x="120.5" y="-134.5" font-family="Helvetica,sans-Serif" font-size="10.00"> </text>
</a>
</g>
</g>
<!-- Node3&#45;&gt;Node1 -->
<g id="edge2" class="edge"><title>Node3&#45;&gt;Node1</title>
<path fill="none" stroke="#404040" d="M120.5,-127.258C120.5,-110.347 120.5,-88.457 120.5,-69.7276"/>
<polygon fill="none" stroke="#404040" points="120.5,-69.664 116.5,-63.664 120.5,-57.664 124.5,-63.664 120.5,-69.664"/>
<text text-anchor="middle" x="145" y="-79" font-family="Helvetica,sans-Serif" font-size="10.00"> +Progress</text>
</g>
<!-- Node4 -->
<g id="node4" class="node"><title>Node4</title>
<g id="a_node4"><a xlink:href="a25631.html" target="_top" xlink:title=" ">
<polygon fill="none" stroke="red" points="156.5,-105.5 156.5,-206.5 230.5,-206.5 230.5,-105.5 156.5,-105.5"/>
<text text-anchor="middle" x="193.5" y="-194.5" font-family="Helvetica,sans-Serif" font-size="10.00">SDK::FString</text>
<polyline fill="none" stroke="red" points="156.5,-187.5 230.5,-187.5 "/>
<text text-anchor="middle" x="193.5" y="-175.5" font-family="Helvetica,sans-Serif" font-size="10.00"> </text>
<polyline fill="none" stroke="red" points="156.5,-168.5 230.5,-168.5 "/>
<text text-anchor="start" x="164.5" y="-156.5" font-family="Helvetica,sans-Serif" font-size="10.00">+ FString()</text>
<text text-anchor="start" x="164.5" y="-145.5" font-family="Helvetica,sans-Serif" font-size="10.00">+ FString()</text>
<text text-anchor="start" x="164.5" y="-134.5" font-family="Helvetica,sans-Serif" font-size="10.00">+ IsValid()</text>
<text text-anchor="start" x="164.5" y="-123.5" font-family="Helvetica,sans-Serif" font-size="10.00">+ c_str()</text>
<text text-anchor="start" x="164.5" y="-112.5" font-family="Helvetica,sans-Serif" font-size="10.00">+ ToString()</text>
</a>
</g>
</g>
<!-- Node4&#45;&gt;Node1 -->
<g id="edge3" class="edge"><title>Node4&#45;&gt;Node1</title>
<path fill="none" stroke="#404040" d="M184.232,-105.155C181.109,-95.0583 176.97,-84.8372 171.5,-76 169.524,-72.8079 167.263,-69.7052 164.816,-66.7182"/>
<polygon fill="none" stroke="#404040" points="164.586,-66.4655 157.586,-64.732 156.494,-57.604 163.494,-59.3375 164.586,-66.4655"/>
<text text-anchor="middle" x="195.5" y="-79" font-family="Helvetica,sans-Serif" font-size="10.00"> +Image</text>
</g>
</g>
</svg>
