<?xml version="1.0" encoding="UTF-8" standalone="no"?>
<!DOCTYPE svg PUBLIC "-//W3C//DTD SVG 1.1//EN"
 "http://www.w3.org/Graphics/SVG/1.1/DTD/svg11.dtd">
<!-- Generated by graphviz version 2.38.0 (20140413.2041)
 -->
<!-- Title: SDK::FRequestPlayerNameplateUIEventData Pages: 1 -->
<svg width="214pt" height="193pt"
 viewBox="0.00 0.00 214.00 193.00" xmlns="http://www.w3.org/2000/svg" xmlns:xlink="http://www.w3.org/1999/xlink">
<g id="graph0" class="graph" transform="scale(1 1) rotate(0) translate(4 189)">
<title>SDK::FRequestPlayerNameplateUIEventData</title>
<!-- Node1 -->
<g id="node1" class="node"><title>Node1</title>
<g id="a_node1"><a xlink:title=" ">
<polygon fill="#bfbfbf" stroke="black" points="0,-0.5 0,-68.5 159,-68.5 159,-0.5 0,-0.5"/>
<text text-anchor="start" x="8" y="-56.5" font-family="Helvetica,sans-Serif" font-size="10.00">SDK::FRequestPlayerNameplate</text>
<text text-anchor="middle" x="79.5" y="-45.5" font-family="Helvetica,sans-Serif" font-size="10.00">UIEventData</text>
<polyline fill="none" stroke="black" points="0,-38.5 159,-38.5 "/>
<text text-anchor="middle" x="79.5" y="-26.5" font-family="Helvetica,sans-Serif" font-size="10.00"> </text>
<polyline fill="none" stroke="black" points="0,-19.5 159,-19.5 "/>
<text text-anchor="middle" x="79.5" y="-7.5" font-family="Helvetica,sans-Serif" font-size="10.00"> </text>
</a>
</g>
</g>
<!-- Node2 -->
<g id="node2" class="node"><title>Node2</title>
<g id="a_node2"><a xlink:title=" ">
<polygon fill="none" stroke="#bfbfbf" points="12,-127.5 12,-184.5 41,-184.5 41,-127.5 12,-127.5"/>
<text text-anchor="middle" x="26.5" y="-172.5" font-family="Helvetica,sans-Serif" font-size="10.00">int</text>
<polyline fill="none" stroke="#bfbfbf" points="12,-165.5 41,-165.5 "/>
<text text-anchor="middle" x="26.5" y="-153.5" font-family="Helvetica,sans-Serif" font-size="10.00"> </text>
<polyline fill="none" stroke="#bfbfbf" points="12,-146.5 41,-146.5 "/>
<text text-anchor="middle" x="26.5" y="-134.5" font-family="Helvetica,sans-Serif" font-size="10.00"> </text>
</a>
</g>
</g>
<!-- Node2&#45;&gt;Node1 -->
<g id="edge1" class="edge"><title>Node2&#45;&gt;Node1</title>
<path fill="none" stroke="#404040" d="M38.7925,-127.284C45.0427,-113.192 52.7899,-95.7238 59.8429,-79.8213"/>
<polygon fill="none" stroke="#404040" points="59.9593,-79.5586 58.7354,-72.4521 64.8245,-68.5891 66.0484,-75.6956 59.9593,-79.5586"/>
<text text-anchor="middle" x="71.5" y="-101" font-family="Helvetica,sans-Serif" font-size="10.00"> +Id</text>
<text text-anchor="middle" x="71.5" y="-90" font-family="Helvetica,sans-Serif" font-size="10.00">+Index</text>
</g>
<!-- Node3 -->
<g id="node3" class="node"><title>Node3</title>
<g id="a_node3"><a xlink:href="a21311.html" target="_top" xlink:title=" ">
<polygon fill="none" stroke="red" points="59,-127.5 59,-184.5 206,-184.5 206,-127.5 59,-127.5"/>
<text text-anchor="middle" x="132.5" y="-172.5" font-family="Helvetica,sans-Serif" font-size="10.00">SDK::FPlayerNameplateUIInfo</text>
<polyline fill="none" stroke="red" points="59,-165.5 206,-165.5 "/>
<text text-anchor="middle" x="132.5" y="-153.5" font-family="Helvetica,sans-Serif" font-size="10.00"> </text>
<polyline fill="none" stroke="red" points="59,-146.5 206,-146.5 "/>
<text text-anchor="middle" x="132.5" y="-134.5" font-family="Helvetica,sans-Serif" font-size="10.00"> </text>
</a>
</g>
</g>
<!-- Node3&#45;&gt;Node1 -->
<g id="edge2" class="edge"><title>Node3&#45;&gt;Node1</title>
<path fill="none" stroke="#404040" d="M120.208,-127.284C113.957,-113.192 106.21,-95.7238 99.1571,-79.8213"/>
<polygon fill="none" stroke="#404040" points="99.0407,-79.5586 92.9516,-75.6956 94.1755,-68.5891 100.265,-72.4521 99.0407,-79.5586"/>
<text text-anchor="middle" x="125.5" y="-95.5" font-family="Helvetica,sans-Serif" font-size="10.00"> +Data</text>
</g>
</g>
</svg>
