<?xml version="1.0" encoding="UTF-8" standalone="no"?>
<!DOCTYPE svg PUBLIC "-//W3C//DTD SVG 1.1//EN"
 "http://www.w3.org/Graphics/SVG/1.1/DTD/svg11.dtd">
<!-- Generated by graphviz version 2.38.0 (20140413.2041)
 -->
<!-- Title: SDK::FInventoryResponseEvent Pages: 1 -->
<svg width="316pt" height="237pt"
 viewBox="0.00 0.00 315.50 237.00" xmlns="http://www.w3.org/2000/svg" xmlns:xlink="http://www.w3.org/1999/xlink">
<g id="graph0" class="graph" transform="scale(1 1) rotate(0) translate(4 233)">
<title>SDK::FInventoryResponseEvent</title>
<!-- Node1 -->
<g id="node1" class="node"><title>Node1</title>
<g id="a_node1"><a xlink:title=" ">
<polygon fill="#bfbfbf" stroke="black" points="63.5,-0.5 63.5,-57.5 218.5,-57.5 218.5,-0.5 63.5,-0.5"/>
<text text-anchor="middle" x="141" y="-45.5" font-family="Helvetica,sans-Serif" font-size="10.00">SDK::FInventoryResponseEvent</text>
<polyline fill="none" stroke="black" points="63.5,-38.5 218.5,-38.5 "/>
<text text-anchor="middle" x="141" y="-26.5" font-family="Helvetica,sans-Serif" font-size="10.00"> </text>
<polyline fill="none" stroke="black" points="63.5,-19.5 218.5,-19.5 "/>
<text text-anchor="middle" x="141" y="-7.5" font-family="Helvetica,sans-Serif" font-size="10.00"> </text>
</a>
</g>
</g>
<!-- Node2 -->
<g id="node2" class="node"><title>Node2</title>
<g id="a_node2"><a xlink:href="a25611.html" target="_top" xlink:title=" ">
<polygon fill="none" stroke="black" points="0,-116.5 0,-228.5 120,-228.5 120,-116.5 0,-116.5"/>
<text text-anchor="start" x="8" y="-216.5" font-family="Helvetica,sans-Serif" font-size="10.00">SDK::TArray&lt; struct</text>
<text text-anchor="middle" x="60" y="-205.5" font-family="Helvetica,sans-Serif" font-size="10.00"> SDK::FIInventoryItem &gt;</text>
<polyline fill="none" stroke="black" points="0,-198.5 120,-198.5 "/>
<text text-anchor="middle" x="60" y="-186.5" font-family="Helvetica,sans-Serif" font-size="10.00"> </text>
<polyline fill="none" stroke="black" points="0,-179.5 120,-179.5 "/>
<text text-anchor="start" x="8" y="-167.5" font-family="Helvetica,sans-Serif" font-size="10.00">+ TArray()</text>
<text text-anchor="start" x="8" y="-156.5" font-family="Helvetica,sans-Serif" font-size="10.00">+ Num()</text>
<text text-anchor="start" x="8" y="-145.5" font-family="Helvetica,sans-Serif" font-size="10.00">+ operator[]()</text>
<text text-anchor="start" x="8" y="-134.5" font-family="Helvetica,sans-Serif" font-size="10.00">+ operator[]()</text>
<text text-anchor="start" x="8" y="-123.5" font-family="Helvetica,sans-Serif" font-size="10.00">+ IsValidIndex()</text>
</a>
</g>
</g>
<!-- Node2&#45;&gt;Node1 -->
<g id="edge1" class="edge"><title>Node2&#45;&gt;Node1</title>
<path fill="none" stroke="#404040" d="M91.5487,-116.387C100.752,-100.31 110.605,-83.098 119.074,-68.3028"/>
<polygon fill="none" stroke="#404040" points="119.286,-67.9331 118.795,-60.7386 125.247,-57.5187 125.738,-64.7131 119.286,-67.9331"/>
<text text-anchor="middle" x="141" y="-90" font-family="Helvetica,sans-Serif" font-size="10.00"> +Equipment</text>
<text text-anchor="middle" x="141" y="-79" font-family="Helvetica,sans-Serif" font-size="10.00">+Resources</text>
</g>
<!-- Node3 -->
<g id="node3" class="node"><title>Node3</title>
<g id="a_node3"><a xlink:href="a25611.html" target="_top" xlink:title=" ">
<polygon fill="none" stroke="black" points="138.5,-116.5 138.5,-228.5 307.5,-228.5 307.5,-116.5 138.5,-116.5"/>
<text text-anchor="start" x="146.5" y="-216.5" font-family="Helvetica,sans-Serif" font-size="10.00">SDK::TArray&lt; struct</text>
<text text-anchor="middle" x="223" y="-205.5" font-family="Helvetica,sans-Serif" font-size="10.00"> SDK::FIInventoryItemDescription &gt;</text>
<polyline fill="none" stroke="black" points="138.5,-198.5 307.5,-198.5 "/>
<text text-anchor="middle" x="223" y="-186.5" font-family="Helvetica,sans-Serif" font-size="10.00"> </text>
<polyline fill="none" stroke="black" points="138.5,-179.5 307.5,-179.5 "/>
<text text-anchor="start" x="146.5" y="-167.5" font-family="Helvetica,sans-Serif" font-size="10.00">+ TArray()</text>
<text text-anchor="start" x="146.5" y="-156.5" font-family="Helvetica,sans-Serif" font-size="10.00">+ Num()</text>
<text text-anchor="start" x="146.5" y="-145.5" font-family="Helvetica,sans-Serif" font-size="10.00">+ operator[]()</text>
<text text-anchor="start" x="146.5" y="-134.5" font-family="Helvetica,sans-Serif" font-size="10.00">+ operator[]()</text>
<text text-anchor="start" x="146.5" y="-123.5" font-family="Helvetica,sans-Serif" font-size="10.00">+ IsValidIndex()</text>
</a>
</g>
</g>
<!-- Node3&#45;&gt;Node1 -->
<g id="edge2" class="edge"><title>Node3&#45;&gt;Node1</title>
<path fill="none" stroke="#404040" d="M195.604,-116.303C188.556,-102.929 180.762,-88.8024 173,-76 171.411,-73.3796 169.729,-70.7076 168,-68.0364"/>
<polygon fill="none" stroke="#404040" points="167.862,-67.83 161.205,-65.0593 161.202,-57.8482 167.859,-60.6189 167.862,-67.83"/>
<text text-anchor="middle" x="217" y="-84.5" font-family="Helvetica,sans-Serif" font-size="10.00"> +Descriptions</text>
</g>
</g>
</svg>
