<?xml version="1.0" encoding="UTF-8" standalone="no"?>
<!DOCTYPE svg PUBLIC "-//W3C//DTD SVG 1.1//EN"
 "http://www.w3.org/Graphics/SVG/1.1/DTD/svg11.dtd">
<!-- Generated by graphviz version 2.38.0 (20140413.2041)
 -->
<!-- Title: SDK::FQuestBaseTelemetryFragmentInput Pages: 1 -->
<svg width="254pt" height="226pt"
 viewBox="0.00 0.00 253.50 226.00" xmlns="http://www.w3.org/2000/svg" xmlns:xlink="http://www.w3.org/1999/xlink">
<g id="graph0" class="graph" transform="scale(1 1) rotate(0) translate(4 222)">
<title>SDK::FQuestBaseTelemetryFragmentInput</title>
<!-- Node1 -->
<g id="node1" class="node"><title>Node1</title>
<g id="a_node1"><a xlink:title=" ">
<polygon fill="#bfbfbf" stroke="black" points="73,-0.5 73,-68.5 213,-68.5 213,-0.5 73,-0.5"/>
<text text-anchor="start" x="81" y="-56.5" font-family="Helvetica,sans-Serif" font-size="10.00">SDK::FQuestBaseTelemetry</text>
<text text-anchor="middle" x="143" y="-45.5" font-family="Helvetica,sans-Serif" font-size="10.00">FragmentInput</text>
<polyline fill="none" stroke="black" points="73,-38.5 213,-38.5 "/>
<text text-anchor="middle" x="143" y="-26.5" font-family="Helvetica,sans-Serif" font-size="10.00"> </text>
<polyline fill="none" stroke="black" points="73,-19.5 213,-19.5 "/>
<text text-anchor="middle" x="143" y="-7.5" font-family="Helvetica,sans-Serif" font-size="10.00"> </text>
</a>
</g>
</g>
<!-- Node2 -->
<g id="node2" class="node"><title>Node2</title>
<g id="a_node2"><a xlink:href="a00559.html" target="_top" xlink:title=" ">
<polygon fill="none" stroke="red" points="0,-138.5 0,-195.5 154,-195.5 154,-138.5 0,-138.5"/>
<text text-anchor="middle" x="77" y="-183.5" font-family="Helvetica,sans-Serif" font-size="10.00">SDK::FTelemetryFragmentInput</text>
<polyline fill="none" stroke="red" points="0,-176.5 154,-176.5 "/>
<text text-anchor="middle" x="77" y="-164.5" font-family="Helvetica,sans-Serif" font-size="10.00"> </text>
<polyline fill="none" stroke="red" points="0,-157.5 154,-157.5 "/>
<text text-anchor="middle" x="77" y="-145.5" font-family="Helvetica,sans-Serif" font-size="10.00"> </text>
</a>
</g>
</g>
<!-- Node2&#45;&gt;Node1 -->
<g id="edge1" class="edge"><title>Node2&#45;&gt;Node1</title>
<path fill="none" stroke="midnightblue" d="M95.5418,-129.338C105.174,-110.292 116.855,-87.1965 126.217,-68.6838"/>
<polygon fill="none" stroke="midnightblue" points="92.3868,-127.821 90.9969,-138.324 98.6334,-130.98 92.3868,-127.821"/>
</g>
<!-- Node4 -->
<g id="node3" class="node"><title>Node4</title>
<g id="a_node3"><a xlink:href="a26071.html" target="_top" xlink:title=" ">
<polygon fill="none" stroke="red" points="172.5,-116.5 172.5,-217.5 245.5,-217.5 245.5,-116.5 172.5,-116.5"/>
<text text-anchor="middle" x="209" y="-205.5" font-family="Helvetica,sans-Serif" font-size="10.00">SDK::FGuid</text>
<polyline fill="none" stroke="red" points="172.5,-198.5 245.5,-198.5 "/>
<text text-anchor="middle" x="209" y="-186.5" font-family="Helvetica,sans-Serif" font-size="10.00"> </text>
<polyline fill="none" stroke="red" points="172.5,-179.5 245.5,-179.5 "/>
<text text-anchor="start" x="180.5" y="-167.5" font-family="Helvetica,sans-Serif" font-size="10.00">+ FGuid()</text>
<text text-anchor="start" x="180.5" y="-156.5" font-family="Helvetica,sans-Serif" font-size="10.00">+ FGuid()</text>
<text text-anchor="start" x="180.5" y="-145.5" font-family="Helvetica,sans-Serif" font-size="10.00">+ operator()()</text>
<text text-anchor="start" x="180.5" y="-134.5" font-family="Helvetica,sans-Serif" font-size="10.00">+ operator[]()</text>
<text text-anchor="start" x="180.5" y="-123.5" font-family="Helvetica,sans-Serif" font-size="10.00">+ operator[]()</text>
</a>
</g>
</g>
<!-- Node4&#45;&gt;Node1 -->
<g id="edge2" class="edge"><title>Node4&#45;&gt;Node1</title>
<path fill="none" stroke="#404040" d="M183.86,-116.291C177.731,-104.173 171.219,-91.2962 165.236,-79.467"/>
<polygon fill="none" stroke="#404040" points="165.108,-79.2142 158.831,-75.6652 159.693,-68.5058 165.97,-72.0547 165.108,-79.2142"/>
<text text-anchor="middle" x="196.5" y="-90" font-family="Helvetica,sans-Serif" font-size="10.00"> +QuestId</text>
</g>
</g>
</svg>
