<?xml version="1.0" encoding="UTF-8" standalone="no"?>
<!DOCTYPE svg PUBLIC "-//W3C//DTD SVG 1.1//EN"
 "http://www.w3.org/Graphics/SVG/1.1/DTD/svg11.dtd">
<!-- Generated by graphviz version 2.38.0 (20140413.2041)
 -->
<!-- Title: SDK::FAthenaPlayerControllerEndingPlayInContestStage Pages: 1 -->
<svg width="165pt" height="270pt"
 viewBox="0.00 0.00 165.00 270.00" xmlns="http://www.w3.org/2000/svg" xmlns:xlink="http://www.w3.org/1999/xlink">
<g id="graph0" class="graph" transform="scale(1 1) rotate(0) translate(4 266)">
<title>SDK::FAthenaPlayerControllerEndingPlayInContestStage</title>
<!-- Node1 -->
<g id="node1" class="node"><title>Node1</title>
<g id="a_node1"><a xlink:title=" ">
<polygon fill="#bfbfbf" stroke="black" points="4,-0.5 4,-68.5 153,-68.5 153,-0.5 4,-0.5"/>
<text text-anchor="start" x="12" y="-56.5" font-family="Helvetica,sans-Serif" font-size="10.00">SDK::FAthenaPlayerController</text>
<text text-anchor="middle" x="78.5" y="-45.5" font-family="Helvetica,sans-Serif" font-size="10.00">EndingPlayInContestStage</text>
<polyline fill="none" stroke="black" points="4,-38.5 153,-38.5 "/>
<text text-anchor="middle" x="78.5" y="-26.5" font-family="Helvetica,sans-Serif" font-size="10.00"> </text>
<polyline fill="none" stroke="black" points="4,-19.5 153,-19.5 "/>
<text text-anchor="middle" x="78.5" y="-7.5" font-family="Helvetica,sans-Serif" font-size="10.00"> </text>
</a>
</g>
</g>
<!-- Node2 -->
<g id="node2" class="node"><title>Node2</title>
<g id="a_node2"><a xlink:href="a02995.html" target="_top" xlink:title=" ">
<polygon fill="none" stroke="red" points="0,-116.5 0,-261.5 157,-261.5 157,-116.5 0,-116.5"/>
<text text-anchor="middle" x="78.5" y="-249.5" font-family="Helvetica,sans-Serif" font-size="10.00">SDK::AAthenaPlayerController</text>
<polyline fill="none" stroke="red" points="0,-242.5 157,-242.5 "/>
<text text-anchor="middle" x="78.5" y="-230.5" font-family="Helvetica,sans-Serif" font-size="10.00"> </text>
<polyline fill="none" stroke="red" points="0,-223.5 157,-223.5 "/>
<text text-anchor="start" x="8" y="-211.5" font-family="Helvetica,sans-Serif" font-size="10.00">+ Server_ReportPlayerDelta()</text>
<text text-anchor="start" x="8" y="-200.5" font-family="Helvetica,sans-Serif" font-size="10.00">+ Server_ExecuteCommand()</text>
<text text-anchor="start" x="8" y="-189.5" font-family="Helvetica,sans-Serif" font-size="10.00">+ GetPlayerStreamingReference</text>
<text text-anchor="start" x="8" y="-178.5" font-family="Helvetica,sans-Serif" font-size="10.00">Location()</text>
<text text-anchor="start" x="8" y="-167.5" font-family="Helvetica,sans-Serif" font-size="10.00">+ GetAthenaCheatManager()</text>
<text text-anchor="start" x="8" y="-156.5" font-family="Helvetica,sans-Serif" font-size="10.00">+ EOS()</text>
<text text-anchor="start" x="8" y="-145.5" font-family="Helvetica,sans-Serif" font-size="10.00">+ AddYawRotationInput()</text>
<text text-anchor="start" x="8" y="-134.5" font-family="Helvetica,sans-Serif" font-size="10.00">+ AddPitchRotationInput()</text>
<text text-anchor="start" x="8" y="-123.5" font-family="Helvetica,sans-Serif" font-size="10.00">+ StaticClass()</text>
</a>
</g>
</g>
<!-- Node2&#45;&gt;Node1 -->
<g id="edge1" class="edge"><title>Node2&#45;&gt;Node1</title>
<path fill="none" stroke="#404040" d="M78.5,-116.216C78.5,-104.092 78.5,-91.8165 78.5,-80.6221"/>
<polygon fill="none" stroke="#404040" points="78.5001,-80.508 74.5,-74.5081 78.5,-68.508 82.5,-74.508 78.5001,-80.508"/>
<text text-anchor="middle" x="104" y="-90" font-family="Helvetica,sans-Serif" font-size="10.00"> +Controller</text>
</g>
</g>
</svg>
