<?xml version="1.0" encoding="UTF-8" standalone="no"?>
<!DOCTYPE svg PUBLIC "-//W3C//DTD SVG 1.1//EN"
 "http://www.w3.org/Graphics/SVG/1.1/DTD/svg11.dtd">
<!-- Generated by graphviz version 2.38.0 (20140413.2041)
 -->
<!-- Title: SDK::FCrewCompletedTaleEvent Pages: 1 -->
<svg width="294pt" height="215pt"
 viewBox="0.00 0.00 294.00 215.00" xmlns="http://www.w3.org/2000/svg" xmlns:xlink="http://www.w3.org/1999/xlink">
<g id="graph0" class="graph" transform="scale(1 1) rotate(0) translate(4 211)">
<title>SDK::FCrewCompletedTaleEvent</title>
<!-- Node1 -->
<g id="node1" class="node"><title>Node1</title>
<g id="a_node1"><a xlink:title=" ">
<polygon fill="#bfbfbf" stroke="black" points="41,-0.5 41,-57.5 200,-57.5 200,-0.5 41,-0.5"/>
<text text-anchor="middle" x="120.5" y="-45.5" font-family="Helvetica,sans-Serif" font-size="10.00">SDK::FCrewCompletedTaleEvent</text>
<polyline fill="none" stroke="black" points="41,-38.5 200,-38.5 "/>
<text text-anchor="middle" x="120.5" y="-26.5" font-family="Helvetica,sans-Serif" font-size="10.00"> </text>
<polyline fill="none" stroke="black" points="41,-19.5 200,-19.5 "/>
<text text-anchor="middle" x="120.5" y="-7.5" font-family="Helvetica,sans-Serif" font-size="10.00"> </text>
</a>
</g>
</g>
<!-- Node2 -->
<g id="node2" class="node"><title>Node2</title>
<g id="a_node2"><a xlink:title=" ">
<polygon fill="none" stroke="#bfbfbf" points="0,-127.5 0,-184.5 35,-184.5 35,-127.5 0,-127.5"/>
<text text-anchor="middle" x="17.5" y="-172.5" font-family="Helvetica,sans-Serif" font-size="10.00">char</text>
<polyline fill="none" stroke="#bfbfbf" points="0,-165.5 35,-165.5 "/>
<text text-anchor="middle" x="17.5" y="-153.5" font-family="Helvetica,sans-Serif" font-size="10.00"> </text>
<polyline fill="none" stroke="#bfbfbf" points="0,-146.5 35,-146.5 "/>
<text text-anchor="middle" x="17.5" y="-134.5" font-family="Helvetica,sans-Serif" font-size="10.00"> </text>
</a>
</g>
</g>
<!-- Node2&#45;&gt;Node1 -->
<g id="edge1" class="edge"><title>Node2&#45;&gt;Node1</title>
<path fill="none" stroke="#404040" d="M18.6365,-127.387C20.5617,-111.021 25.2739,-90.6786 36.5,-76 39.4276,-72.172 42.7691,-68.6212 46.3932,-65.3338"/>
<polygon fill="none" stroke="#404040" points="46.5501,-65.2079 48.726,-58.3329 55.909,-57.6971 53.7332,-64.5721 46.5501,-65.2079"/>
<text text-anchor="middle" x="76.5" y="-79" font-family="Helvetica,sans-Serif" font-size="10.00"> +UnknownData00</text>
</g>
<!-- Node3 -->
<g id="node3" class="node"><title>Node3</title>
<g id="a_node3"><a xlink:title=" ">
<polygon fill="none" stroke="#bfbfbf" points="103,-127.5 103,-184.5 138,-184.5 138,-127.5 103,-127.5"/>
<text text-anchor="middle" x="120.5" y="-172.5" font-family="Helvetica,sans-Serif" font-size="10.00">bool</text>
<polyline fill="none" stroke="#bfbfbf" points="103,-165.5 138,-165.5 "/>
<text text-anchor="middle" x="120.5" y="-153.5" font-family="Helvetica,sans-Serif" font-size="10.00"> </text>
<polyline fill="none" stroke="#bfbfbf" points="103,-146.5 138,-146.5 "/>
<text text-anchor="middle" x="120.5" y="-134.5" font-family="Helvetica,sans-Serif" font-size="10.00"> </text>
</a>
</g>
</g>
<!-- Node3&#45;&gt;Node1 -->
<g id="edge2" class="edge"><title>Node3&#45;&gt;Node1</title>
<path fill="none" stroke="#404040" d="M120.5,-127.258C120.5,-110.347 120.5,-88.457 120.5,-69.7276"/>
<polygon fill="none" stroke="#404040" points="120.5,-69.664 116.5,-63.664 120.5,-57.664 124.5,-63.664 120.5,-69.664"/>
<text text-anchor="middle" x="173.5" y="-79" font-family="Helvetica,sans-Serif" font-size="10.00"> +DontNotifyParticipants</text>
</g>
<!-- Node4 -->
<g id="node4" class="node"><title>Node4</title>
<g id="a_node4"><a xlink:href="a26283.html" target="_top" xlink:title=" ">
<polygon fill="none" stroke="red" points="213,-105.5 213,-206.5 286,-206.5 286,-105.5 213,-105.5"/>
<text text-anchor="middle" x="249.5" y="-194.5" font-family="Helvetica,sans-Serif" font-size="10.00">SDK::FGuid</text>
<polyline fill="none" stroke="red" points="213,-187.5 286,-187.5 "/>
<text text-anchor="middle" x="249.5" y="-175.5" font-family="Helvetica,sans-Serif" font-size="10.00"> </text>
<polyline fill="none" stroke="red" points="213,-168.5 286,-168.5 "/>
<text text-anchor="start" x="221" y="-156.5" font-family="Helvetica,sans-Serif" font-size="10.00">+ FGuid()</text>
<text text-anchor="start" x="221" y="-145.5" font-family="Helvetica,sans-Serif" font-size="10.00">+ FGuid()</text>
<text text-anchor="start" x="221" y="-134.5" font-family="Helvetica,sans-Serif" font-size="10.00">+ operator()()</text>
<text text-anchor="start" x="221" y="-123.5" font-family="Helvetica,sans-Serif" font-size="10.00">+ operator[]()</text>
<text text-anchor="start" x="221" y="-112.5" font-family="Helvetica,sans-Serif" font-size="10.00">+ operator[]()</text>
</a>
</g>
</g>
<!-- Node4&#45;&gt;Node1 -->
<g id="edge3" class="edge"><title>Node4&#45;&gt;Node1</title>
<path fill="none" stroke="#404040" d="M242.854,-105.249C239.578,-94.691 234.714,-84.2548 227.5,-76 222.523,-70.3046 216.716,-65.2914 210.428,-60.8828"/>
<polygon fill="none" stroke="#404040" points="210.354,-60.8365 203.145,-61.0236 200.2,-54.4413 207.409,-54.2543 210.354,-60.8365"/>
<text text-anchor="middle" x="254" y="-79" font-family="Helvetica,sans-Serif" font-size="10.00"> +CrewId</text>
</g>
</g>
</svg>
