<?xml version="1.0" encoding="UTF-8" standalone="no"?>
<!DOCTYPE svg PUBLIC "-//W3C//DTD SVG 1.1//EN"
 "http://www.w3.org/Graphics/SVG/1.1/DTD/svg11.dtd">
<!-- Generated by graphviz version 2.38.0 (20140413.2041)
 -->
<!-- Title: SDK::FCargoRunQuestDesc Pages: 1 -->
<svg width="332pt" height="353pt"
 viewBox="0.00 0.00 332.16 353.00" xmlns="http://www.w3.org/2000/svg" xmlns:xlink="http://www.w3.org/1999/xlink">
<g id="graph0" class="graph" transform="scale(1 1) rotate(0) translate(4 349)">
<title>SDK::FCargoRunQuestDesc</title>
<!-- Node1 -->
<g id="node1" class="node"><title>Node1</title>
<g id="a_node1"><a xlink:title=" ">
<polygon fill="#bfbfbf" stroke="black" points="83.1627,-0.5 83.1627,-57.5 223.163,-57.5 223.163,-0.5 83.1627,-0.5"/>
<text text-anchor="middle" x="153.163" y="-45.5" font-family="Helvetica,sans-Serif" font-size="10.00">SDK::FCargoRunQuestDesc</text>
<polyline fill="none" stroke="black" points="83.1627,-38.5 223.163,-38.5 "/>
<text text-anchor="middle" x="153.163" y="-26.5" font-family="Helvetica,sans-Serif" font-size="10.00"> </text>
<polyline fill="none" stroke="black" points="83.1627,-19.5 223.163,-19.5 "/>
<text text-anchor="middle" x="153.163" y="-7.5" font-family="Helvetica,sans-Serif" font-size="10.00"> </text>
</a>
</g>
</g>
<!-- Node2 -->
<g id="node2" class="node"><title>Node2</title>
<g id="a_node2"><a xlink:href="a15651.html" target="_top" xlink:title=" ">
<polygon fill="none" stroke="red" points="104.163,-133 104.163,-190 202.163,-190 202.163,-133 104.163,-133"/>
<text text-anchor="middle" x="153.163" y="-178" font-family="Helvetica,sans-Serif" font-size="10.00">SDK::FQuestDesc</text>
<polyline fill="none" stroke="red" points="104.163,-171 202.163,-171 "/>
<text text-anchor="middle" x="153.163" y="-159" font-family="Helvetica,sans-Serif" font-size="10.00"> </text>
<polyline fill="none" stroke="red" points="104.163,-152 202.163,-152 "/>
<text text-anchor="middle" x="153.163" y="-140" font-family="Helvetica,sans-Serif" font-size="10.00"> </text>
</a>
</g>
</g>
<!-- Node2&#45;&gt;Node1 -->
<g id="edge1" class="edge"><title>Node2&#45;&gt;Node1</title>
<path fill="none" stroke="midnightblue" d="M153.163,-122.726C153.163,-101.927 153.163,-76.5723 153.163,-57.6358"/>
<polygon fill="none" stroke="midnightblue" points="149.663,-122.824 153.163,-132.824 156.663,-122.824 149.663,-122.824"/>
</g>
<!-- Node6 -->
<g id="node3" class="node"><title>Node6</title>
<g id="a_node3"><a xlink:title=" ">
<polygon fill="none" stroke="#bfbfbf" points="33.6627,-287.5 33.6627,-344.5 68.6627,-344.5 68.6627,-287.5 33.6627,-287.5"/>
<text text-anchor="middle" x="51.1627" y="-332.5" font-family="Helvetica,sans-Serif" font-size="10.00">char</text>
<polyline fill="none" stroke="#bfbfbf" points="33.6627,-325.5 68.6627,-325.5 "/>
<text text-anchor="middle" x="51.1627" y="-313.5" font-family="Helvetica,sans-Serif" font-size="10.00"> </text>
<polyline fill="none" stroke="#bfbfbf" points="33.6627,-306.5 68.6627,-306.5 "/>
<text text-anchor="middle" x="51.1627" y="-294.5" font-family="Helvetica,sans-Serif" font-size="10.00"> </text>
</a>
</g>
</g>
<!-- Node6&#45;&gt;Node1 -->
<g id="edge3" class="edge"><title>Node6&#45;&gt;Node1</title>
<path fill="none" stroke="#404040" d="M35.4314,-287.357C13.6455,-245.043 -19.3415,-163.023 15.1627,-105 28.0383,-83.3481 49.5925,-67.5563 71.8847,-56.2146"/>
<polygon fill="none" stroke="#404040" points="72.0159,-56.1523 75.7163,-49.963 82.8527,-50.9982 79.1523,-57.1875 72.0159,-56.1523"/>
<text text-anchor="middle" x="55.1627" y="-159" font-family="Helvetica,sans-Serif" font-size="10.00"> +UnknownData00</text>
</g>
<!-- Node6&#45;&gt;Node2 -->
<g id="edge2" class="edge"><title>Node6&#45;&gt;Node2</title>
<path fill="none" stroke="#404040" d="M68.6972,-288.784C85.011,-264.394 109.504,-227.774 127.921,-200.239"/>
<polygon fill="none" stroke="#404040" points="127.981,-200.15 127.991,-192.939 134.652,-190.175 134.641,-197.386 127.981,-200.15"/>
<text text-anchor="middle" x="142.163" y="-261" font-family="Helvetica,sans-Serif" font-size="10.00"> +UnknownData01</text>
<text text-anchor="middle" x="142.163" y="-250" font-family="Helvetica,sans-Serif" font-size="10.00">+UnknownData02</text>
<text text-anchor="middle" x="142.163" y="-239" font-family="Helvetica,sans-Serif" font-size="10.00">+UnknownData00</text>
</g>
<!-- Node17 -->
<g id="node4" class="node"><title>Node17</title>
<g id="a_node4"><a xlink:href="a25823.html" target="_top" xlink:title=" ">
<polygon fill="none" stroke="black" points="220.163,-105.5 220.163,-217.5 324.163,-217.5 324.163,-105.5 220.163,-105.5"/>
<text text-anchor="start" x="228.163" y="-205.5" font-family="Helvetica,sans-Serif" font-size="10.00">SDK::TArray&lt; class</text>
<text text-anchor="middle" x="272.163" y="-194.5" font-family="Helvetica,sans-Serif" font-size="10.00"> SDK::UClass * &gt;</text>
<polyline fill="none" stroke="black" points="220.163,-187.5 324.163,-187.5 "/>
<text text-anchor="middle" x="272.163" y="-175.5" font-family="Helvetica,sans-Serif" font-size="10.00"> </text>
<polyline fill="none" stroke="black" points="220.163,-168.5 324.163,-168.5 "/>
<text text-anchor="start" x="228.163" y="-156.5" font-family="Helvetica,sans-Serif" font-size="10.00">+ TArray()</text>
<text text-anchor="start" x="228.163" y="-145.5" font-family="Helvetica,sans-Serif" font-size="10.00">+ Num()</text>
<text text-anchor="start" x="228.163" y="-134.5" font-family="Helvetica,sans-Serif" font-size="10.00">+ operator[]()</text>
<text text-anchor="start" x="228.163" y="-123.5" font-family="Helvetica,sans-Serif" font-size="10.00">+ operator[]()</text>
<text text-anchor="start" x="228.163" y="-112.5" font-family="Helvetica,sans-Serif" font-size="10.00">+ IsValidIndex()</text>
</a>
</g>
</g>
<!-- Node17&#45;&gt;Node1 -->
<g id="edge4" class="edge"><title>Node17&#45;&gt;Node1</title>
<path fill="none" stroke="#404040" d="M221.696,-105.156C209.9,-92.22 197.618,-78.7518 186.765,-66.8499"/>
<polygon fill="none" stroke="#404040" points="186.49,-66.5477 179.491,-64.8094 178.404,-57.6807 185.403,-59.419 186.49,-66.5477"/>
<text text-anchor="middle" x="239.163" y="-79" font-family="Helvetica,sans-Serif" font-size="10.00"> +CrateItemDesc</text>
</g>
</g>
</svg>
