<?xml version="1.0" encoding="UTF-8" standalone="no"?>
<!DOCTYPE svg PUBLIC "-//W3C//DTD SVG 1.1//EN"
 "http://www.w3.org/Graphics/SVG/1.1/DTD/svg11.dtd">
<!-- Generated by graphviz version 2.38.0 (20140413.2041)
 -->
<!-- Title: SDK::FVoyageInfo Pages: 1 -->
<svg width="1069pt" height="397pt"
 viewBox="0.00 0.00 1069.00 397.00" xmlns="http://www.w3.org/2000/svg" xmlns:xlink="http://www.w3.org/1999/xlink">
<g id="graph0" class="graph" transform="scale(1 1) rotate(0) translate(4 393)">
<title>SDK::FVoyageInfo</title>
<!-- Node1 -->
<g id="node1" class="node"><title>Node1</title>
<g id="a_node1"><a xlink:title=" ">
<polygon fill="#bfbfbf" stroke="black" points="496,-0.5 496,-57.5 593,-57.5 593,-0.5 496,-0.5"/>
<text text-anchor="middle" x="544.5" y="-45.5" font-family="Helvetica,sans-Serif" font-size="10.00">SDK::FVoyageInfo</text>
<polyline fill="none" stroke="black" points="496,-38.5 593,-38.5 "/>
<text text-anchor="middle" x="544.5" y="-26.5" font-family="Helvetica,sans-Serif" font-size="10.00"> </text>
<polyline fill="none" stroke="black" points="496,-19.5 593,-19.5 "/>
<text text-anchor="middle" x="544.5" y="-7.5" font-family="Helvetica,sans-Serif" font-size="10.00"> </text>
</a>
</g>
</g>
<!-- Node2 -->
<g id="node2" class="node"><title>Node2</title>
<g id="a_node2"><a xlink:href="a25611.html" target="_top" xlink:title=" ">
<polygon fill="none" stroke="black" points="0,-127.5 0,-239.5 107,-239.5 107,-127.5 0,-127.5"/>
<text text-anchor="start" x="8" y="-227.5" font-family="Helvetica,sans-Serif" font-size="10.00">SDK::TArray&lt; struct</text>
<text text-anchor="middle" x="53.5" y="-216.5" font-family="Helvetica,sans-Serif" font-size="10.00"> SDK::FPlayerStat &gt;</text>
<polyline fill="none" stroke="black" points="0,-209.5 107,-209.5 "/>
<text text-anchor="middle" x="53.5" y="-197.5" font-family="Helvetica,sans-Serif" font-size="10.00"> </text>
<polyline fill="none" stroke="black" points="0,-190.5 107,-190.5 "/>
<text text-anchor="start" x="8" y="-178.5" font-family="Helvetica,sans-Serif" font-size="10.00">+ TArray()</text>
<text text-anchor="start" x="8" y="-167.5" font-family="Helvetica,sans-Serif" font-size="10.00">+ Num()</text>
<text text-anchor="start" x="8" y="-156.5" font-family="Helvetica,sans-Serif" font-size="10.00">+ operator[]()</text>
<text text-anchor="start" x="8" y="-145.5" font-family="Helvetica,sans-Serif" font-size="10.00">+ operator[]()</text>
<text text-anchor="start" x="8" y="-134.5" font-family="Helvetica,sans-Serif" font-size="10.00">+ IsValidIndex()</text>
</a>
</g>
</g>
<!-- Node2&#45;&gt;Node1 -->
<g id="edge1" class="edge"><title>Node2&#45;&gt;Node1</title>
<path fill="none" stroke="#404040" d="M40.2393,-127.497C39.0689,-109.034 41.9247,-89.6815 54.5,-76 83.0095,-44.9825 358.426,-34.4549 483.385,-31.2558"/>
<polygon fill="none" stroke="#404040" points="483.715,-31.2478 489.615,-27.1009 495.711,-30.9516 489.812,-35.0985 483.715,-31.2478"/>
<text text-anchor="middle" x="122.5" y="-90" font-family="Helvetica,sans-Serif" font-size="10.00"> +VoyageCompletionStats</text>
<text text-anchor="middle" x="122.5" y="-79" font-family="Helvetica,sans-Serif" font-size="10.00">+ReapersMarkCompletionStats</text>
</g>
<!-- Node3 -->
<g id="node3" class="node"><title>Node3</title>
<g id="a_node3"><a xlink:title=" ">
<polygon fill="none" stroke="#bfbfbf" points="319,-331.5 319,-388.5 354,-388.5 354,-331.5 319,-331.5"/>
<text text-anchor="middle" x="336.5" y="-376.5" font-family="Helvetica,sans-Serif" font-size="10.00">char</text>
<polyline fill="none" stroke="#bfbfbf" points="319,-369.5 354,-369.5 "/>
<text text-anchor="middle" x="336.5" y="-357.5" font-family="Helvetica,sans-Serif" font-size="10.00"> </text>
<polyline fill="none" stroke="#bfbfbf" points="319,-350.5 354,-350.5 "/>
<text text-anchor="middle" x="336.5" y="-338.5" font-family="Helvetica,sans-Serif" font-size="10.00"> </text>
</a>
</g>
</g>
<!-- Node3&#45;&gt;Node1 -->
<g id="edge2" class="edge"><title>Node3&#45;&gt;Node1</title>
<path fill="none" stroke="#404040" d="M318.83,-349.992C290.353,-334.346 235.3,-299.152 213.5,-251 188.754,-196.341 176.794,-163.462 213.5,-116 246.293,-73.598 397.494,-48.2267 483.757,-36.9561"/>
<polygon fill="none" stroke="#404040" points="483.831,-36.9467 489.277,-32.2191 495.735,-35.4272 490.29,-40.1547 483.831,-36.9467"/>
<text text-anchor="middle" x="253.5" y="-186.5" font-family="Helvetica,sans-Serif" font-size="10.00"> +UnknownData01</text>
<text text-anchor="middle" x="253.5" y="-175.5" font-family="Helvetica,sans-Serif" font-size="10.00">+UnknownData00</text>
</g>
<!-- Node4 -->
<g id="node4" class="node"><title>Node4</title>
<g id="a_node4"><a xlink:href="a25647.html" target="_top" xlink:title=" ">
<polygon fill="none" stroke="black" points="302.5,-155 302.5,-212 370.5,-212 370.5,-155 302.5,-155"/>
<text text-anchor="middle" x="336.5" y="-200" font-family="Helvetica,sans-Serif" font-size="10.00">SDK::FText</text>
<polyline fill="none" stroke="black" points="302.5,-193 370.5,-193 "/>
<text text-anchor="middle" x="336.5" y="-181" font-family="Helvetica,sans-Serif" font-size="10.00"> </text>
<polyline fill="none" stroke="black" points="302.5,-174 370.5,-174 "/>
<text text-anchor="middle" x="336.5" y="-162" font-family="Helvetica,sans-Serif" font-size="10.00"> </text>
</a>
</g>
</g>
<!-- Node3&#45;&gt;Node4 -->
<g id="edge4" class="edge"><title>Node3&#45;&gt;Node4</title>
<path fill="none" stroke="#404040" d="M336.5,-331.35C336.5,-302.504 336.5,-257.01 336.5,-224.302"/>
<polygon fill="none" stroke="#404040" points="336.5,-224.021 332.5,-218.021 336.5,-212.021 340.5,-218.021 336.5,-224.021"/>
<text text-anchor="middle" x="371.5" y="-288.5" font-family="Helvetica,sans-Serif" font-size="10.00"> +UnknownData</text>
</g>
<!-- Node8 -->
<g id="node8" class="node"><title>Node8</title>
<g id="a_node8"><a xlink:href="a25915.html" target="_top" xlink:title=" ">
<polygon fill="none" stroke="red" points="389,-144 389,-223 508,-223 508,-144 389,-144"/>
<text text-anchor="middle" x="448.5" y="-211" font-family="Helvetica,sans-Serif" font-size="10.00">SDK::UClass</text>
<polyline fill="none" stroke="red" points="389,-204 508,-204 "/>
<text text-anchor="middle" x="448.5" y="-192" font-family="Helvetica,sans-Serif" font-size="10.00"> </text>
<polyline fill="none" stroke="red" points="389,-185 508,-185 "/>
<text text-anchor="start" x="397" y="-173" font-family="Helvetica,sans-Serif" font-size="10.00">+ CreateDefaultObject()</text>
<text text-anchor="start" x="397" y="-162" font-family="Helvetica,sans-Serif" font-size="10.00">+ CreateDefaultObject()</text>
<text text-anchor="start" x="397" y="-151" font-family="Helvetica,sans-Serif" font-size="10.00">+ StaticClass()</text>
</a>
</g>
</g>
<!-- Node3&#45;&gt;Node8 -->
<g id="edge9" class="edge"><title>Node3&#45;&gt;Node8</title>
<path fill="none" stroke="#404040" d="M354.043,-352.432C370.908,-345.243 395.923,-332.132 410.5,-313 427.584,-290.577 437.009,-260.592 442.198,-235.227"/>
<polygon fill="none" stroke="#404040" points="442.24,-235 439.396,-228.373 444.42,-223.2 447.263,-229.827 442.24,-235"/>
<text text-anchor="middle" x="472.5" y="-288.5" font-family="Helvetica,sans-Serif" font-size="10.00"> +UnknownData00</text>
</g>
<!-- Node4&#45;&gt;Node1 -->
<g id="edge3" class="edge"><title>Node4&#45;&gt;Node1</title>
<path fill="none" stroke="#404040" d="M351.09,-154.896C358.573,-142.22 368.439,-127.489 379.5,-116 408.486,-85.8935 450.316,-64.2525 484.604,-50.2098"/>
<polygon fill="none" stroke="#404040" points="484.755,-50.1503 488.864,-44.2242 495.914,-45.7375 491.806,-51.6636 484.755,-50.1503"/>
<text text-anchor="middle" x="446.5" y="-84.5" font-family="Helvetica,sans-Serif" font-size="10.00"> +Title</text>
</g>
<!-- Node5 -->
<g id="node5" class="node"><title>Node5</title>
<g id="a_node5"><a xlink:title=" ">
<polygon fill="none" stroke="#bfbfbf" points="560,-331.5 560,-388.5 589,-388.5 589,-331.5 560,-331.5"/>
<text text-anchor="middle" x="574.5" y="-376.5" font-family="Helvetica,sans-Serif" font-size="10.00">int</text>
<polyline fill="none" stroke="#bfbfbf" points="560,-369.5 589,-369.5 "/>
<text text-anchor="middle" x="574.5" y="-357.5" font-family="Helvetica,sans-Serif" font-size="10.00"> </text>
<polyline fill="none" stroke="#bfbfbf" points="560,-350.5 589,-350.5 "/>
<text text-anchor="middle" x="574.5" y="-338.5" font-family="Helvetica,sans-Serif" font-size="10.00"> </text>
</a>
</g>
</g>
<!-- Node5&#45;&gt;Node1 -->
<g id="edge5" class="edge"><title>Node5&#45;&gt;Node1</title>
<path fill="none" stroke="#404040" d="M567.893,-331.21C563.026,-309.504 556.716,-278.509 553.5,-251 546.135,-187.995 544.527,-114.279 544.314,-69.9108"/>
<polygon fill="none" stroke="#404040" points="544.313,-69.6681 540.3,-63.6768 544.287,-57.6681 548.3,-63.6593 544.313,-69.6681"/>
<text text-anchor="middle" x="569.5" y="-181" font-family="Helvetica,sans-Serif" font-size="10.00"> +Rank</text>
</g>
<!-- Node18 -->
<g id="node9" class="node"><title>Node18</title>
<g id="a_node9"><a xlink:href="a26071.html" target="_top" xlink:title=" ">
<polygon fill="none" stroke="black" points="595,-133 595,-234 668,-234 668,-133 595,-133"/>
<text text-anchor="middle" x="631.5" y="-222" font-family="Helvetica,sans-Serif" font-size="10.00">SDK::FGuid</text>
<polyline fill="none" stroke="black" points="595,-215 668,-215 "/>
<text text-anchor="middle" x="631.5" y="-203" font-family="Helvetica,sans-Serif" font-size="10.00"> </text>
<polyline fill="none" stroke="black" points="595,-196 668,-196 "/>
<text text-anchor="start" x="603" y="-184" font-family="Helvetica,sans-Serif" font-size="10.00">+ FGuid()</text>
<text text-anchor="start" x="603" y="-173" font-family="Helvetica,sans-Serif" font-size="10.00">+ FGuid()</text>
<text text-anchor="start" x="603" y="-162" font-family="Helvetica,sans-Serif" font-size="10.00">+ operator()()</text>
<text text-anchor="start" x="603" y="-151" font-family="Helvetica,sans-Serif" font-size="10.00">+ operator[]()</text>
<text text-anchor="start" x="603" y="-140" font-family="Helvetica,sans-Serif" font-size="10.00">+ operator[]()</text>
</a>
</g>
</g>
<!-- Node5&#45;&gt;Node18 -->
<g id="edge11" class="edge"><title>Node5&#45;&gt;Node18</title>
<path fill="none" stroke="#404040" d="M583.532,-331.35C591.009,-308.46 601.91,-275.087 611.432,-245.938"/>
<polygon fill="none" stroke="#404040" points="611.55,-245.575 609.611,-238.63 615.276,-234.168 617.215,-241.114 611.55,-245.575"/>
<text text-anchor="middle" x="611.5" y="-305" font-family="Helvetica,sans-Serif" font-size="10.00"> +A</text>
<text text-anchor="middle" x="611.5" y="-294" font-family="Helvetica,sans-Serif" font-size="10.00">+B</text>
<text text-anchor="middle" x="611.5" y="-283" font-family="Helvetica,sans-Serif" font-size="10.00">+C</text>
<text text-anchor="middle" x="611.5" y="-272" font-family="Helvetica,sans-Serif" font-size="10.00">+D</text>
</g>
<!-- Node6 -->
<g id="node6" class="node"><title>Node6</title>
<g id="a_node6"><a xlink:href="a25635.html" target="_top" xlink:title=" ">
<polygon fill="none" stroke="black" points="686.5,-116.5 686.5,-250.5 850.5,-250.5 850.5,-116.5 686.5,-116.5"/>
<text text-anchor="start" x="694.5" y="-238.5" font-family="Helvetica,sans-Serif" font-size="10.00">SDK::TEnumAsByte&lt; EEmergent</text>
<text text-anchor="middle" x="768.5" y="-227.5" font-family="Helvetica,sans-Serif" font-size="10.00">VoyageSource &gt;</text>
<polyline fill="none" stroke="black" points="686.5,-220.5 850.5,-220.5 "/>
<text text-anchor="middle" x="768.5" y="-208.5" font-family="Helvetica,sans-Serif" font-size="10.00"> </text>
<polyline fill="none" stroke="black" points="686.5,-201.5 850.5,-201.5 "/>
<text text-anchor="start" x="694.5" y="-189.5" font-family="Helvetica,sans-Serif" font-size="10.00">+ TEnumAsByte()</text>
<text text-anchor="start" x="694.5" y="-178.5" font-family="Helvetica,sans-Serif" font-size="10.00">+ TEnumAsByte()</text>
<text text-anchor="start" x="694.5" y="-167.5" font-family="Helvetica,sans-Serif" font-size="10.00">+ TEnumAsByte()</text>
<text text-anchor="start" x="694.5" y="-156.5" font-family="Helvetica,sans-Serif" font-size="10.00">+ TEnumAsByte()</text>
<text text-anchor="start" x="694.5" y="-145.5" font-family="Helvetica,sans-Serif" font-size="10.00">+ operator EEmergentVoyage</text>
<text text-anchor="start" x="694.5" y="-134.5" font-family="Helvetica,sans-Serif" font-size="10.00">Source()</text>
<text text-anchor="start" x="694.5" y="-123.5" font-family="Helvetica,sans-Serif" font-size="10.00">+ GetValue()</text>
</a>
</g>
</g>
<!-- Node6&#45;&gt;Node1 -->
<g id="edge6" class="edge"><title>Node6&#45;&gt;Node1</title>
<path fill="none" stroke="#404040" d="M686.381,-122.842C683.053,-120.519 679.749,-118.231 676.5,-116 651.064,-98.5362 622.414,-79.7644 598.321,-64.2283"/>
<polygon fill="none" stroke="#404040" points="598.043,-64.0494 590.833,-64.1682 587.95,-57.5584 595.16,-57.4396 598.043,-64.0494"/>
<text text-anchor="middle" x="689.5" y="-84.5" font-family="Helvetica,sans-Serif" font-size="10.00"> +EmergentSource</text>
</g>
<!-- Node7 -->
<g id="node7" class="node"><title>Node7</title>
<g id="a_node7"><a xlink:title=" ">
<polygon fill="none" stroke="#bfbfbf" points="869,-155 869,-212 904,-212 904,-155 869,-155"/>
<text text-anchor="middle" x="886.5" y="-200" font-family="Helvetica,sans-Serif" font-size="10.00">bool</text>
<polyline fill="none" stroke="#bfbfbf" points="869,-193 904,-193 "/>
<text text-anchor="middle" x="886.5" y="-181" font-family="Helvetica,sans-Serif" font-size="10.00"> </text>
<polyline fill="none" stroke="#bfbfbf" points="869,-174 904,-174 "/>
<text text-anchor="middle" x="886.5" y="-162" font-family="Helvetica,sans-Serif" font-size="10.00"> </text>
</a>
</g>
</g>
<!-- Node7&#45;&gt;Node1 -->
<g id="edge7" class="edge"><title>Node7&#45;&gt;Node1</title>
<path fill="none" stroke="#404040" d="M881.022,-154.742C877.085,-141.411 870.467,-126.164 859.5,-116 789.486,-51.113 675.289,-34.3786 605.327,-30.5242"/>
<polygon fill="none" stroke="#404040" points="605.209,-30.5188 599.03,-34.2359 593.222,-29.9616 599.402,-26.2445 605.209,-30.5188"/>
<text text-anchor="middle" x="862" y="-90" font-family="Helvetica,sans-Serif" font-size="10.00"> +IsEmergent</text>
<text text-anchor="middle" x="862" y="-79" font-family="Helvetica,sans-Serif" font-size="10.00">+IsTale</text>
</g>
<!-- Node8&#45;&gt;Node1 -->
<g id="edge8" class="edge"><title>Node8&#45;&gt;Node1</title>
<path fill="none" stroke="#404040" d="M453.371,-143.798C457.568,-122.284 465.308,-95.9174 479.5,-76 481.982,-72.5168 484.813,-69.2036 487.873,-66.0703"/>
<polygon fill="none" stroke="#404040" points="488.146,-65.8211 489.875,-58.8205 497.003,-57.7243 495.273,-64.725 488.146,-65.8211"/>
<text text-anchor="middle" x="505" y="-84.5" font-family="Helvetica,sans-Serif" font-size="10.00"> +Company</text>
</g>
<!-- Node18&#45;&gt;Node1 -->
<g id="edge10" class="edge"><title>Node18&#45;&gt;Node1</title>
<path fill="none" stroke="#404040" d="M603.254,-132.988C591.253,-111.952 577.478,-87.8068 566.284,-68.1852"/>
<polygon fill="none" stroke="#404040" points="566.138,-67.9294 559.691,-64.6999 560.192,-57.5062 566.64,-60.7357 566.138,-67.9294"/>
<text text-anchor="middle" x="592" y="-84.5" font-family="Helvetica,sans-Serif" font-size="10.00"> +Id</text>
</g>
<!-- Node19 -->
<g id="node10" class="node"><title>Node19</title>
<g id="a_node10"><a xlink:href="a13147.html" target="_top" xlink:title=" ">
<polygon fill="none" stroke="red" points="922,-155 922,-212 1061,-212 1061,-155 922,-155"/>
<text text-anchor="middle" x="991.5" y="-200" font-family="Helvetica,sans-Serif" font-size="10.00">SDK::FViewVoyageBanners</text>
<polyline fill="none" stroke="red" points="922,-193 1061,-193 "/>
<text text-anchor="middle" x="991.5" y="-181" font-family="Helvetica,sans-Serif" font-size="10.00"> </text>
<polyline fill="none" stroke="red" points="922,-174 1061,-174 "/>
<text text-anchor="middle" x="991.5" y="-162" font-family="Helvetica,sans-Serif" font-size="10.00"> </text>
</a>
</g>
</g>
<!-- Node19&#45;&gt;Node1 -->
<g id="edge12" class="edge"><title>Node19&#45;&gt;Node1</title>
<path fill="none" stroke="#404040" d="M974.735,-154.712C958.005,-129.658 929.877,-94.0613 895.5,-76 846.381,-50.193 691.934,-37.9064 605.177,-32.9062"/>
<polygon fill="none" stroke="#404040" points="605.127,-32.9035 598.913,-36.5628 593.145,-32.2345 599.359,-28.5752 605.127,-32.9035"/>
<text text-anchor="middle" x="974.5" y="-84.5" font-family="Helvetica,sans-Serif" font-size="10.00"> +ViewVoyageBanners</text>
</g>
</g>
</svg>
