<?xml version="1.0" encoding="UTF-8" standalone="no"?>
<!DOCTYPE svg PUBLIC "-//W3C//DTD SVG 1.1//EN"
 "http://www.w3.org/Graphics/SVG/1.1/DTD/svg11.dtd">
<!-- Generated by graphviz version 2.38.0 (20140413.2041)
 -->
<!-- Title: SDK::FEventPlayerStatePawnPossessed Pages: 1 -->
<!--zoomable 708 -->
<svg id="main" version="1.1" xmlns="http://www.w3.org/2000/svg" xmlns:xlink="http://www.w3.org/1999/xlink" xml:space="preserve" onload="init(evt)">
<style type="text/css"><![CDATA[
.edge:hover path { stroke: red; }
.edge:hover polygon { stroke: red; fill: red; }
]]></style>
<script type="text/javascript"><![CDATA[
var edges = document.getElementsByTagName('g');
if (edges && edges.length) {
  for (var i=0;i<edges.length;i++) {
    if (edges[i].id.substr(0,4)=='edge') {
      edges[i].setAttribute('class','edge');
    }
  }
}
]]></script>
        <defs>
                <circle id="rim" cx="0" cy="0" r="7"/>
                <circle id="rim2" cx="0" cy="0" r="3.5"/>
                <g id="zoomPlus">
                        <use xlink:href="#rim" fill="#404040">
                                <set attributeName="fill" to="#808080" begin="zoomplus.mouseover" end="zoomplus.mouseout"/>
                        </use>
                        <path d="M-4,0h8M0,-4v8" fill="none" stroke="white" stroke-width="1.5" pointer-events="none"/>
                </g>
                <g id="zoomMin">
                        <use xlink:href="#rim" fill="#404040">
                                <set attributeName="fill" to="#808080" begin="zoomminus.mouseover" end="zoomminus.mouseout"/>
                        </use>
                        <path d="M-4,0h8" fill="none" stroke="white" stroke-width="1.5" pointer-events="none"/>
                </g>
                <g id="dirArrow">
                        <path fill="none" stroke="white" stroke-width="1.5" d="M0,-3.0v7 M-2.5,-0.5L0,-3.0L2.5,-0.5"/>
                </g>
               <g id="resetDef">
                       <use xlink:href="#rim2" fill="#404040">
                               <set attributeName="fill" to="#808080" begin="reset.mouseover" end="reset.mouseout"/>
                       </use>
               </g>
        </defs>

<script type="text/javascript">
var viewWidth = 420;
var viewHeight = 708;
var sectionId = 'dynsection-0';
</script>
<script xlink:href="svgpan.js"/>
<svg id="graph" class="graph">
<g id="viewport">
<title>SDK::FEventPlayerStatePawnPossessed</title>
<!-- Node1 -->
<g id="node1" class="node"><title>Node1</title>
<g id="a_node1"><a xlink:title=" ">
<polygon fill="#bfbfbf" stroke="black" points="53.4906,-0.5 53.4906,-68.5 201.491,-68.5 201.491,-0.5 53.4906,-0.5"/>
<text text-anchor="start" x="61.4906" y="-56.5" font-family="Helvetica,sans-Serif" font-size="10.00">SDK::FEventPlayerStatePawn</text>
<text text-anchor="middle" x="127.491" y="-45.5" font-family="Helvetica,sans-Serif" font-size="10.00">Possessed</text>
<polyline fill="none" stroke="black" points="53.4906,-38.5 201.491,-38.5 "/>
<text text-anchor="middle" x="127.491" y="-26.5" font-family="Helvetica,sans-Serif" font-size="10.00"> </text>
<polyline fill="none" stroke="black" points="53.4906,-19.5 201.491,-19.5 "/>
<text text-anchor="middle" x="127.491" y="-7.5" font-family="Helvetica,sans-Serif" font-size="10.00"> </text>
</a>
</g>
</g>
<!-- Node2 -->
<g id="node2" class="node"><title>Node2</title>
<g id="a_node2"><a xlink:href="a26443.html" target="_top" xlink:title=" ">
<polygon fill="none" stroke="red" points="46.4906,-368.5 46.4906,-469.5 166.491,-469.5 166.491,-368.5 46.4906,-368.5"/>
<text text-anchor="middle" x="106.491" y="-457.5" font-family="Helvetica,sans-Serif" font-size="10.00">SDK::APlayerState</text>
<polyline fill="none" stroke="red" points="46.4906,-450.5 166.491,-450.5 "/>
<text text-anchor="start" x="54.4906" y="-438.5" font-family="Helvetica,sans-Serif" font-size="10.00">+ Ping</text>
<text text-anchor="start" x="54.4906" y="-427.5" font-family="Helvetica,sans-Serif" font-size="10.00">+ UnknownData00</text>
<text text-anchor="start" x="54.4906" y="-416.5" font-family="Helvetica,sans-Serif" font-size="10.00">+ bOnlySpectator</text>
<polyline fill="none" stroke="red" points="46.4906,-409.5 166.491,-409.5 "/>
<text text-anchor="start" x="54.4906" y="-397.5" font-family="Helvetica,sans-Serif" font-size="10.00">+ OnRep_UniqueId()</text>
<text text-anchor="start" x="54.4906" y="-386.5" font-family="Helvetica,sans-Serif" font-size="10.00">+ OnRep_PlayerName()</text>
<text text-anchor="start" x="54.4906" y="-375.5" font-family="Helvetica,sans-Serif" font-size="10.00">+ StaticClass()</text>
</a>
</g>
</g>
<!-- Node2&#45;&gt;Node1 -->
<g id="edge1" class="edge"><title>Node2&#45;&gt;Node1</title>
<path fill="none" stroke="#404040" d="M94.235,-368.328C81.3505,-307.843 65.6141,-202.989 86.4906,-116 89.4862,-103.518 94.7569,-90.7893 100.542,-79.2472"/>
<polygon fill="none" stroke="#404040" points="100.57,-79.1949 99.8447,-72.0203 106.189,-68.5916 106.914,-75.7662 100.57,-79.1949"/>
<text text-anchor="middle" x="116.991" y="-208.5" font-family="Helvetica,sans-Serif" font-size="10.00"> +PlayerState</text>
</g>
<!-- Node46 -->
<g id="node5" class="node"><title>Node46</title>
<g id="a_node5"><a xlink:href="a26355.html" target="_top" xlink:title=" ">
<polygon fill="none" stroke="red" points="156.491,-116.5 156.491,-305.5 336.491,-305.5 336.491,-116.5 156.491,-116.5"/>
<text text-anchor="middle" x="246.491" y="-293.5" font-family="Helvetica,sans-Serif" font-size="10.00">SDK::APawn</text>
<polyline fill="none" stroke="red" points="156.491,-286.5 336.491,-286.5 "/>
<text text-anchor="start" x="164.491" y="-274.5" font-family="Helvetica,sans-Serif" font-size="10.00">+ UnknownData00</text>
<polyline fill="none" stroke="red" points="156.491,-267.5 336.491,-267.5 "/>
<text text-anchor="start" x="164.491" y="-255.5" font-family="Helvetica,sans-Serif" font-size="10.00">+ SpawnDefaultController()</text>
<text text-anchor="start" x="164.491" y="-244.5" font-family="Helvetica,sans-Serif" font-size="10.00">+ SetCanAffectNavigationGeneration()</text>
<text text-anchor="start" x="164.491" y="-233.5" font-family="Helvetica,sans-Serif" font-size="10.00">+ ReceiveUnpossessed()</text>
<text text-anchor="start" x="164.491" y="-222.5" font-family="Helvetica,sans-Serif" font-size="10.00">+ ReceivePossessed()</text>
<text text-anchor="start" x="164.491" y="-211.5" font-family="Helvetica,sans-Serif" font-size="10.00">+ PawnMakeNoise()</text>
<text text-anchor="start" x="164.491" y="-200.5" font-family="Helvetica,sans-Serif" font-size="10.00">+ OnRep_PlayerState()</text>
<text text-anchor="start" x="164.491" y="-189.5" font-family="Helvetica,sans-Serif" font-size="10.00">+ OnRep_Controller()</text>
<text text-anchor="start" x="164.491" y="-178.5" font-family="Helvetica,sans-Serif" font-size="10.00">+ LaunchPawn()</text>
<text text-anchor="start" x="164.491" y="-167.5" font-family="Helvetica,sans-Serif" font-size="10.00">+ K2_GetMovementInputVector()</text>
<text text-anchor="start" x="164.491" y="-156.5" font-family="Helvetica,sans-Serif" font-size="10.00">+ IsMoveInputIgnored()</text>
<text text-anchor="start" x="164.491" y="-145.5" font-family="Helvetica,sans-Serif" font-size="10.00">and 15 more...</text>
<text text-anchor="start" x="164.491" y="-134.5" font-family="Helvetica,sans-Serif" font-size="10.00">+ StaticClass()</text>
<text text-anchor="start" x="164.491" y="-123.5" font-family="Helvetica,sans-Serif" font-size="10.00">+ GetMovementBaseActor()</text>
</a>
</g>
</g>
<!-- Node2&#45;&gt;Node46 -->
<g id="edge6" class="edge"><title>Node2&#45;&gt;Node46</title>
<path fill="none" stroke="#404040" d="M130.746,-368.205C138.435,-353.63 147.334,-337.889 156.491,-324 158.295,-321.263 160.151,-318.513 162.049,-315.756"/>
<polygon fill="none" stroke="#404040" points="162.175,-315.578 162.36,-308.369 169.086,-305.768 168.9,-312.977 162.175,-315.578"/>
<text text-anchor="middle" x="186.991" y="-327" font-family="Helvetica,sans-Serif" font-size="10.00"> +PlayerState</text>
</g>
<!-- Node14 -->
<g id="node3" class="node"><title>Node14</title>
<g id="a_node3"><a xlink:title=" ">
<polygon fill="none" stroke="#bfbfbf" points="88.9906,-642.5 88.9906,-699.5 123.991,-699.5 123.991,-642.5 88.9906,-642.5"/>
<text text-anchor="middle" x="106.491" y="-687.5" font-family="Helvetica,sans-Serif" font-size="10.00">char</text>
<polyline fill="none" stroke="#bfbfbf" points="88.9906,-680.5 123.991,-680.5 "/>
<text text-anchor="middle" x="106.491" y="-668.5" font-family="Helvetica,sans-Serif" font-size="10.00"> </text>
<polyline fill="none" stroke="#bfbfbf" points="88.9906,-661.5 123.991,-661.5 "/>
<text text-anchor="middle" x="106.491" y="-649.5" font-family="Helvetica,sans-Serif" font-size="10.00"> </text>
</a>
</g>
</g>
<!-- Node14&#45;&gt;Node1 -->
<g id="edge3" class="edge"><title>Node14&#45;&gt;Node1</title>
<path fill="none" stroke="#404040" d="M89.2021,-642.319C55.0464,-584.37 -16.149,-445.579 3.49061,-324 19.0227,-227.848 33.4671,-205.239 72.4906,-116 78.1029,-103.166 85.8344,-90.2167 93.7284,-78.5684"/>
<polygon fill="none" stroke="#404040" points="93.7609,-78.5222 93.9363,-71.3132 100.658,-68.7024 100.483,-75.9114 93.7609,-78.5222"/>
<text text-anchor="middle" x="43.4906" y="-327" font-family="Helvetica,sans-Serif" font-size="10.00"> +UnknownData00</text>
</g>
<!-- Node14&#45;&gt;Node2 -->
<g id="edge2" class="edge"><title>Node14&#45;&gt;Node2</title>
<path fill="none" stroke="#404040" d="M106.491,-642.29C106.491,-603.885 106.491,-533.415 106.491,-482.087"/>
<polygon fill="none" stroke="#404040" points="106.491,-481.81 102.491,-475.81 106.491,-469.81 110.491,-475.81 106.491,-481.81"/>
<text text-anchor="middle" x="154.491" y="-616" font-family="Helvetica,sans-Serif" font-size="10.00"> +bFromPreviousLevel</text>
<text text-anchor="middle" x="154.491" y="-605" font-family="Helvetica,sans-Serif" font-size="10.00">+UnknownData01</text>
<text text-anchor="middle" x="154.491" y="-594" font-family="Helvetica,sans-Serif" font-size="10.00">+UnknownData02</text>
<text text-anchor="middle" x="154.491" y="-583" font-family="Helvetica,sans-Serif" font-size="10.00">+bIsABot</text>
<text text-anchor="middle" x="154.491" y="-572" font-family="Helvetica,sans-Serif" font-size="10.00">+UnknownData03</text>
<text text-anchor="middle" x="154.491" y="-561" font-family="Helvetica,sans-Serif" font-size="10.00">+UnknownData04</text>
<text text-anchor="middle" x="154.491" y="-550" font-family="Helvetica,sans-Serif" font-size="10.00">+UnknownData05</text>
<text text-anchor="middle" x="154.491" y="-539" font-family="Helvetica,sans-Serif" font-size="10.00">+bIsInactive</text>
<text text-anchor="middle" x="154.491" y="-528" font-family="Helvetica,sans-Serif" font-size="10.00">+UnknownData06</text>
<text text-anchor="middle" x="154.491" y="-517" font-family="Helvetica,sans-Serif" font-size="10.00">+bIsSpectator</text>
<text text-anchor="middle" x="154.491" y="-506" font-family="Helvetica,sans-Serif" font-size="10.00">...</text>
</g>
<!-- Node14&#45;&gt;Node46 -->
<g id="edge7" class="edge"><title>Node14&#45;&gt;Node46</title>
<path fill="none" stroke="#404040" d="M124.368,-667.284C147.495,-662.742 187.108,-651.252 206.491,-624 269.507,-535.397 272.01,-407.619 263.515,-317.919"/>
<polygon fill="none" stroke="#404040" points="263.496,-317.736 258.908,-312.173 262.279,-305.798 266.867,-311.361 263.496,-317.736"/>
<text text-anchor="middle" x="339.991" y="-477" font-family="Helvetica,sans-Serif" font-size="10.00"> +UnknownData01</text>
<text text-anchor="start" x="267.491" y="-466" font-family="Helvetica,sans-Serif" font-size="10.00">+bUseControllerRotation</text>
<text text-anchor="middle" x="339.991" y="-455" font-family="Helvetica,sans-Serif" font-size="10.00">Roll</text>
<text text-anchor="middle" x="339.991" y="-444" font-family="Helvetica,sans-Serif" font-size="10.00">+UnknownData02</text>
<text text-anchor="middle" x="339.991" y="-433" font-family="Helvetica,sans-Serif" font-size="10.00">+UnknownData03</text>
<text text-anchor="middle" x="339.991" y="-422" font-family="Helvetica,sans-Serif" font-size="10.00">+UnknownData04</text>
<text text-anchor="middle" x="339.991" y="-411" font-family="Helvetica,sans-Serif" font-size="10.00">+UnknownData05</text>
<text text-anchor="middle" x="339.991" y="-400" font-family="Helvetica,sans-Serif" font-size="10.00">+bCanAffectNavigationGeneration</text>
<text text-anchor="middle" x="339.991" y="-389" font-family="Helvetica,sans-Serif" font-size="10.00">+bUseControllerRotationYaw</text>
<text text-anchor="middle" x="339.991" y="-378" font-family="Helvetica,sans-Serif" font-size="10.00">+bUseControllerRotationPitch</text>
<text text-anchor="middle" x="339.991" y="-367" font-family="Helvetica,sans-Serif" font-size="10.00">+RemoteViewPitch</text>
<text text-anchor="middle" x="339.991" y="-356" font-family="Helvetica,sans-Serif" font-size="10.00">...</text>
</g>
<!-- Node44 -->
<g id="node4" class="node"><title>Node44</title>
<g id="a_node4"><a xlink:title=" ">
<polygon fill="none" stroke="#bfbfbf" points="354.991,-182.5 354.991,-239.5 389.991,-239.5 389.991,-182.5 354.991,-182.5"/>
<text text-anchor="middle" x="372.491" y="-227.5" font-family="Helvetica,sans-Serif" font-size="10.00">bool</text>
<polyline fill="none" stroke="#bfbfbf" points="354.991,-220.5 389.991,-220.5 "/>
<text text-anchor="middle" x="372.491" y="-208.5" font-family="Helvetica,sans-Serif" font-size="10.00"> </text>
<polyline fill="none" stroke="#bfbfbf" points="354.991,-201.5 389.991,-201.5 "/>
<text text-anchor="middle" x="372.491" y="-189.5" font-family="Helvetica,sans-Serif" font-size="10.00"> </text>
</a>
</g>
</g>
<!-- Node44&#45;&gt;Node1 -->
<g id="edge4" class="edge"><title>Node44&#45;&gt;Node1</title>
<path fill="none" stroke="#404040" d="M371.113,-182.484C368.68,-161.802 362.243,-134.041 345.491,-116 311.217,-79.0905 258.527,-59.0357 213.533,-48.1743"/>
<polygon fill="none" stroke="#404040" points="213.375,-48.1385 206.637,-50.7083 201.674,-45.4773 208.412,-42.9075 213.375,-48.1385"/>
<text text-anchor="middle" x="356.491" y="-90" font-family="Helvetica,sans-Serif" font-size="10.00"> +IsLocalPlayer</text>
</g>
<!-- Node46&#45;&gt;Node1 -->
<g id="edge5" class="edge"><title>Node46&#45;&gt;Node1</title>
<path fill="none" stroke="#404040" d="M182.636,-116.365C173.687,-103.241 164.87,-90.312 157,-78.7722"/>
<polygon fill="none" stroke="#404040" points="156.824,-78.5136 150.139,-75.8102 150.063,-68.5995 156.748,-71.3029 156.824,-78.5136"/>
<text text-anchor="middle" x="210.491" y="-90" font-family="Helvetica,sans-Serif" font-size="10.00"> +PossessedPawn</text>
</g>
</g>
</svg>
        <g id="navigator" transform="translate(0 0)" fill="#404254">
                <rect fill="#f2f5e9" fill-opacity="0.5" stroke="#606060" stroke-width=".5" x="0" y="0" width="60" height="60"/>
                <use id="zoomplus" xlink:href="#zoomPlus" x="17" y="9" onmousedown="handleZoom(evt,'in')"/>
                <use id="zoomminus" xlink:href="#zoomMin" x="42" y="9" onmousedown="handleZoom(evt,'out')"/>
                <use id="reset" xlink:href="#resetDef" x="30" y="36" onmousedown="handleReset()"/>
                <g id="arrowUp" xlink:href="#dirArrow" transform="translate(30 24)" onmousedown="handlePan(0,-1)">
                  <use xlink:href="#rim" fill="#404040">
                        <set attributeName="fill" to="#808080" begin="arrowUp.mouseover" end="arrowUp.mouseout"/>
                  </use>
                  <path fill="none" stroke="white" stroke-width="1.5" d="M0,-3.0v7 M-2.5,-0.5L0,-3.0L2.5,-0.5"/>
                </g>
                <g id="arrowRight" xlink:href="#dirArrow" transform="rotate(90) translate(36 -43)" onmousedown="handlePan(1,0)">
                  <use xlink:href="#rim" fill="#404040">
                        <set attributeName="fill" to="#808080" begin="arrowRight.mouseover" end="arrowRight.mouseout"/>
                  </use>
                  <path fill="none" stroke="white" stroke-width="1.5" d="M0,-3.0v7 M-2.5,-0.5L0,-3.0L2.5,-0.5"/>
                </g>
                <g id="arrowDown" xlink:href="#dirArrow" transform="rotate(180) translate(-30 -48)" onmousedown="handlePan(0,1)">
                  <use xlink:href="#rim" fill="#404040">
                        <set attributeName="fill" to="#808080" begin="arrowDown.mouseover" end="arrowDown.mouseout"/>
                  </use>
                  <path fill="none" stroke="white" stroke-width="1.5" d="M0,-3.0v7 M-2.5,-0.5L0,-3.0L2.5,-0.5"/>
                </g>
                <g id="arrowLeft" xlink:href="#dirArrow" transform="rotate(270) translate(-36 17)" onmousedown="handlePan(-1,0)">
                  <use xlink:href="#rim" fill="#404040">
                        <set attributeName="fill" to="#808080" begin="arrowLeft.mouseover" end="arrowLeft.mouseout"/>
                  </use>
                  <path fill="none" stroke="white" stroke-width="1.5" d="M0,-3.0v7 M-2.5,-0.5L0,-3.0L2.5,-0.5"/>
                </g>
        </g>
        <svg viewBox="0 0 15 15" width="100%" height="30px" preserveAspectRatio="xMaxYMin meet">
         <g id="arrow_out" transform="scale(0.3 0.3)">
          <a xlink:href="a22129_org.svg" target="_base">
           <rect id="button" ry="5" rx="5" y="6" x="6" height="38" width="38"
                fill="#f2f5e9" fill-opacity="0.5" stroke="#606060" stroke-width="1.0"/>
           <path id="arrow"
             d="M 11.500037,31.436501 C 11.940474,20.09759 22.043105,11.32322 32.158766,21.979434 L 37.068811,17.246167 C 37.068811,17.246167 37.088388,32 37.088388,32 L 22.160133,31.978069 C 22.160133,31.978069 26.997745,27.140456 26.997745,27.140456 C 18.528582,18.264221 13.291696,25.230495 11.500037,31.436501 z"
             style="fill:#404040;"/>
          </a>
         </g>
        </svg>
</svg>
