<?xml version="1.0" encoding="UTF-8" standalone="no"?>
<!DOCTYPE svg PUBLIC "-//W3C//DTD SVG 1.1//EN"
 "http://www.w3.org/Graphics/SVG/1.1/DTD/svg11.dtd">
<!-- Generated by graphviz version 2.38.0 (20140413.2041)
 -->
<!-- Title: SDK::FEventAthenaLocalPlayerRequestRequiredControllersConnectedResponse Pages: 1 -->
<svg width="197pt" height="193pt"
 viewBox="0.00 0.00 197.00 193.00" xmlns="http://www.w3.org/2000/svg" xmlns:xlink="http://www.w3.org/1999/xlink">
<g id="graph0" class="graph" transform="scale(1 1) rotate(0) translate(4 189)">
<title>SDK::FEventAthenaLocalPlayerRequestRequiredControllersConnectedResponse</title>
<!-- Node1 -->
<g id="node1" class="node"><title>Node1</title>
<g id="a_node1"><a xlink:title=" ">
<polygon fill="#bfbfbf" stroke="black" points="0,-0.5 0,-79.5 184,-79.5 184,-0.5 0,-0.5"/>
<text text-anchor="start" x="8" y="-67.5" font-family="Helvetica,sans-Serif" font-size="10.00">SDK::FEventAthenaLocalPlayer</text>
<text text-anchor="start" x="8" y="-56.5" font-family="Helvetica,sans-Serif" font-size="10.00">RequestRequiredControllersConnected</text>
<text text-anchor="middle" x="92" y="-45.5" font-family="Helvetica,sans-Serif" font-size="10.00">Response</text>
<polyline fill="none" stroke="black" points="0,-38.5 184,-38.5 "/>
<text text-anchor="middle" x="92" y="-26.5" font-family="Helvetica,sans-Serif" font-size="10.00"> </text>
<polyline fill="none" stroke="black" points="0,-19.5 184,-19.5 "/>
<text text-anchor="middle" x="92" y="-7.5" font-family="Helvetica,sans-Serif" font-size="10.00"> </text>
</a>
</g>
</g>
<!-- Node2 -->
<g id="node2" class="node"><title>Node2</title>
<g id="a_node2"><a xlink:title=" ">
<polygon fill="none" stroke="#bfbfbf" points="74.5,-127.5 74.5,-184.5 109.5,-184.5 109.5,-127.5 74.5,-127.5"/>
<text text-anchor="middle" x="92" y="-172.5" font-family="Helvetica,sans-Serif" font-size="10.00">bool</text>
<polyline fill="none" stroke="#bfbfbf" points="74.5,-165.5 109.5,-165.5 "/>
<text text-anchor="middle" x="92" y="-153.5" font-family="Helvetica,sans-Serif" font-size="10.00"> </text>
<polyline fill="none" stroke="#bfbfbf" points="74.5,-146.5 109.5,-146.5 "/>
<text text-anchor="middle" x="92" y="-134.5" font-family="Helvetica,sans-Serif" font-size="10.00"> </text>
</a>
</g>
</g>
<!-- Node2&#45;&gt;Node1 -->
<g id="edge1" class="edge"><title>Node2&#45;&gt;Node1</title>
<path fill="none" stroke="#404040" d="M92,-127.404C92,-116.63 92,-103.926 92,-91.6231"/>
<polygon fill="none" stroke="#404040" points="92.0001,-91.5406 88,-85.5406 92,-79.5406 96,-85.5405 92.0001,-91.5406"/>
<text text-anchor="middle" x="140.5" y="-101" font-family="Helvetica,sans-Serif" font-size="10.00"> +ControllerConnected</text>
</g>
</g>
</svg>
