<?xml version="1.0" encoding="UTF-8" standalone="no"?>
<!DOCTYPE svg PUBLIC "-//W3C//DTD SVG 1.1//EN"
 "http://www.w3.org/Graphics/SVG/1.1/DTD/svg11.dtd">
<!-- Generated by graphviz version 2.38.0 (20140413.2041)
 -->
<!-- Title: SDK::FPersistentUserGameSettings Pages: 1 -->
<!--zoomable 490 -->
<svg id="main" version="1.1" xmlns="http://www.w3.org/2000/svg" xmlns:xlink="http://www.w3.org/1999/xlink" xml:space="preserve" onload="init(evt)">
<style type="text/css"><![CDATA[
.edge:hover path { stroke: red; }
.edge:hover polygon { stroke: red; fill: red; }
]]></style>
<script type="text/javascript"><![CDATA[
var edges = document.getElementsByTagName('g');
if (edges && edges.length) {
  for (var i=0;i<edges.length;i++) {
    if (edges[i].id.substr(0,4)=='edge') {
      edges[i].setAttribute('class','edge');
    }
  }
}
]]></script>
        <defs>
                <circle id="rim" cx="0" cy="0" r="7"/>
                <circle id="rim2" cx="0" cy="0" r="3.5"/>
                <g id="zoomPlus">
                        <use xlink:href="#rim" fill="#404040">
                                <set attributeName="fill" to="#808080" begin="zoomplus.mouseover" end="zoomplus.mouseout"/>
                        </use>
                        <path d="M-4,0h8M0,-4v8" fill="none" stroke="white" stroke-width="1.5" pointer-events="none"/>
                </g>
                <g id="zoomMin">
                        <use xlink:href="#rim" fill="#404040">
                                <set attributeName="fill" to="#808080" begin="zoomminus.mouseover" end="zoomminus.mouseout"/>
                        </use>
                        <path d="M-4,0h8" fill="none" stroke="white" stroke-width="1.5" pointer-events="none"/>
                </g>
                <g id="dirArrow">
                        <path fill="none" stroke="white" stroke-width="1.5" d="M0,-3.0v7 M-2.5,-0.5L0,-3.0L2.5,-0.5"/>
                </g>
               <g id="resetDef">
                       <use xlink:href="#rim2" fill="#404040">
                               <set attributeName="fill" to="#808080" begin="reset.mouseover" end="reset.mouseout"/>
                       </use>
               </g>
        </defs>

<script type="text/javascript">
var viewWidth = 710;
var viewHeight = 490;
var sectionId = 'dynsection-0';
</script>
<script xlink:href="svgpan.js"/>
<svg id="graph" class="graph">
<g id="viewport">
<title>SDK::FPersistentUserGameSettings</title>
<!-- Node1 -->
<g id="node1" class="node"><title>Node1</title>
<g id="a_node1"><a xlink:title=" ">
<polygon fill="#bfbfbf" stroke="black" points="170.5,-0.5 170.5,-178.5 341.5,-178.5 341.5,-0.5 170.5,-0.5"/>
<text text-anchor="start" x="178.5" y="-166.5" font-family="Helvetica,sans-Serif" font-size="10.00">SDK::FPersistentUserGame</text>
<text text-anchor="middle" x="256" y="-155.5" font-family="Helvetica,sans-Serif" font-size="10.00">Settings</text>
<polyline fill="none" stroke="black" points="170.5,-148.5 341.5,-148.5 "/>
<text text-anchor="start" x="178.5" y="-136.5" font-family="Helvetica,sans-Serif" font-size="10.00">+ InvertYAxisGamepad</text>
<text text-anchor="start" x="178.5" y="-125.5" font-family="Helvetica,sans-Serif" font-size="10.00">+ InvertYAxisMouse</text>
<text text-anchor="start" x="178.5" y="-114.5" font-family="Helvetica,sans-Serif" font-size="10.00">+ InvertXAxisGamepad</text>
<text text-anchor="start" x="178.5" y="-103.5" font-family="Helvetica,sans-Serif" font-size="10.00">+ InvertXAxisMouse</text>
<text text-anchor="start" x="178.5" y="-92.5" font-family="Helvetica,sans-Serif" font-size="10.00">+ UseVirtualKeyboard</text>
<text text-anchor="start" x="178.5" y="-81.5" font-family="Helvetica,sans-Serif" font-size="10.00">+ UsePlatformForUnattenuatedChat</text>
<text text-anchor="start" x="178.5" y="-70.5" font-family="Helvetica,sans-Serif" font-size="10.00">+ UsePushToTalk</text>
<text text-anchor="start" x="178.5" y="-59.5" font-family="Helvetica,sans-Serif" font-size="10.00">+ MasterVolume</text>
<text text-anchor="start" x="178.5" y="-48.5" font-family="Helvetica,sans-Serif" font-size="10.00">+ SfxVolume</text>
<text text-anchor="start" x="178.5" y="-37.5" font-family="Helvetica,sans-Serif" font-size="10.00">+ MusicVolume</text>
<text text-anchor="start" x="178.5" y="-26.5" font-family="Helvetica,sans-Serif" font-size="10.00">and 28 more...</text>
<polyline fill="none" stroke="black" points="170.5,-19.5 341.5,-19.5 "/>
<text text-anchor="middle" x="256" y="-7.5" font-family="Helvetica,sans-Serif" font-size="10.00"> </text>
</a>
</g>
</g>
<!-- Node2 -->
<g id="node2" class="node"><title>Node2</title>
<g id="a_node2"><a xlink:href="a25823.html" target="_top" xlink:title=" ">
<polygon fill="none" stroke="black" points="0,-369.5 0,-481.5 110,-481.5 110,-369.5 0,-369.5"/>
<text text-anchor="start" x="8" y="-469.5" font-family="Helvetica,sans-Serif" font-size="10.00">SDK::TArray&lt; struct</text>
<text text-anchor="middle" x="55" y="-458.5" font-family="Helvetica,sans-Serif" font-size="10.00"> SDK::FKeyBinding &gt;</text>
<polyline fill="none" stroke="black" points="0,-451.5 110,-451.5 "/>
<text text-anchor="middle" x="55" y="-439.5" font-family="Helvetica,sans-Serif" font-size="10.00"> </text>
<polyline fill="none" stroke="black" points="0,-432.5 110,-432.5 "/>
<text text-anchor="start" x="8" y="-420.5" font-family="Helvetica,sans-Serif" font-size="10.00">+ TArray()</text>
<text text-anchor="start" x="8" y="-409.5" font-family="Helvetica,sans-Serif" font-size="10.00">+ Num()</text>
<text text-anchor="start" x="8" y="-398.5" font-family="Helvetica,sans-Serif" font-size="10.00">+ operator[]()</text>
<text text-anchor="start" x="8" y="-387.5" font-family="Helvetica,sans-Serif" font-size="10.00">+ operator[]()</text>
<text text-anchor="start" x="8" y="-376.5" font-family="Helvetica,sans-Serif" font-size="10.00">+ IsValidIndex()</text>
</a>
</g>
</g>
<!-- Node2&#45;&gt;Node1 -->
<g id="edge1" class="edge"><title>Node2&#45;&gt;Node1</title>
<path fill="none" stroke="#404040" d="M44.8084,-369.076C38.8321,-320.06 37.8128,-248.533 70,-197 90.6333,-163.965 125.489,-140.14 159.487,-123.516"/>
<polygon fill="none" stroke="#404040" points="159.609,-123.459 163.346,-117.292 170.476,-118.37 166.739,-124.537 159.609,-123.459"/>
<text text-anchor="middle" x="107.5" y="-277" font-family="Helvetica,sans-Serif" font-size="10.00"> +ActionBindings</text>
<text text-anchor="middle" x="107.5" y="-266" font-family="Helvetica,sans-Serif" font-size="10.00">+AxisBindings</text>
</g>
<!-- Node3 -->
<g id="node3" class="node"><title>Node3</title>
<g id="a_node3"><a xlink:title=" ">
<polygon fill="none" stroke="#bfbfbf" points="135.5,-397 135.5,-454 170.5,-454 170.5,-397 135.5,-397"/>
<text text-anchor="middle" x="153" y="-442" font-family="Helvetica,sans-Serif" font-size="10.00">char</text>
<polyline fill="none" stroke="#bfbfbf" points="135.5,-435 170.5,-435 "/>
<text text-anchor="middle" x="153" y="-423" font-family="Helvetica,sans-Serif" font-size="10.00"> </text>
<polyline fill="none" stroke="#bfbfbf" points="135.5,-416 170.5,-416 "/>
<text text-anchor="middle" x="153" y="-404" font-family="Helvetica,sans-Serif" font-size="10.00"> </text>
</a>
</g>
</g>
<!-- Node3&#45;&gt;Node1 -->
<g id="edge2" class="edge"><title>Node3&#45;&gt;Node1</title>
<path fill="none" stroke="#404040" d="M150.315,-396.735C147.138,-352.689 145.25,-264.843 172,-197 173,-194.464 174.082,-191.939 175.235,-189.43"/>
<polygon fill="none" stroke="#404040" points="175.322,-189.257 174.451,-182.099 180.724,-178.542 181.595,-185.7 175.322,-189.257"/>
<text text-anchor="middle" x="212" y="-299" font-family="Helvetica,sans-Serif" font-size="10.00"> +UnknownData01</text>
<text text-anchor="middle" x="212" y="-288" font-family="Helvetica,sans-Serif" font-size="10.00">+UnknownData02</text>
<text text-anchor="middle" x="212" y="-277" font-family="Helvetica,sans-Serif" font-size="10.00">+UnknownData03</text>
<text text-anchor="middle" x="212" y="-266" font-family="Helvetica,sans-Serif" font-size="10.00">+UnknownData04</text>
<text text-anchor="middle" x="212" y="-255" font-family="Helvetica,sans-Serif" font-size="10.00">+UnknownData05</text>
<text text-anchor="middle" x="212" y="-244" font-family="Helvetica,sans-Serif" font-size="10.00">+UnknownData00</text>
</g>
<!-- Node4 -->
<g id="node4" class="node"><title>Node4</title>
<g id="a_node4"><a xlink:title=" ">
<polygon fill="none" stroke="#bfbfbf" points="238.5,-397 238.5,-454 273.5,-454 273.5,-397 238.5,-397"/>
<text text-anchor="middle" x="256" y="-442" font-family="Helvetica,sans-Serif" font-size="10.00">float</text>
<polyline fill="none" stroke="#bfbfbf" points="238.5,-435 273.5,-435 "/>
<text text-anchor="middle" x="256" y="-423" font-family="Helvetica,sans-Serif" font-size="10.00"> </text>
<polyline fill="none" stroke="#bfbfbf" points="238.5,-416 273.5,-416 "/>
<text text-anchor="middle" x="256" y="-404" font-family="Helvetica,sans-Serif" font-size="10.00"> </text>
</a>
</g>
</g>
<!-- Node4&#45;&gt;Node1 -->
<g id="edge3" class="edge"><title>Node4&#45;&gt;Node1</title>
<path fill="none" stroke="#404040" d="M256,-396.883C256,-352.19 256,-261.849 256,-190.791"/>
<polygon fill="none" stroke="#404040" points="256,-190.665 252,-184.665 256,-178.665 260,-184.665 256,-190.665"/>
<text text-anchor="start" x="256" y="-343" font-family="Helvetica,sans-Serif" font-size="10.00"> +ControllerSensitivity</text>
<text text-anchor="middle" x="326" y="-332" font-family="Helvetica,sans-Serif" font-size="10.00">_Spyglass</text>
<text text-anchor="start" x="256" y="-321" font-family="Helvetica,sans-Serif" font-size="10.00">+MouseSensitivity</text>
<text text-anchor="middle" x="326" y="-310" font-family="Helvetica,sans-Serif" font-size="10.00">_Blunderbuss</text>
<text text-anchor="middle" x="326" y="-299" font-family="Helvetica,sans-Serif" font-size="10.00">+ForceFeedbackIntensity</text>
<text text-anchor="middle" x="326" y="-288" font-family="Helvetica,sans-Serif" font-size="10.00">+MouseSensitivity_EyeOfReach</text>
<text text-anchor="middle" x="326" y="-277" font-family="Helvetica,sans-Serif" font-size="10.00">+ControllerDeadzone</text>
<text text-anchor="middle" x="326" y="-266" font-family="Helvetica,sans-Serif" font-size="10.00">+ShantyVolume</text>
<text text-anchor="middle" x="326" y="-255" font-family="Helvetica,sans-Serif" font-size="10.00">+MouseSensitivity</text>
<text text-anchor="middle" x="326" y="-244" font-family="Helvetica,sans-Serif" font-size="10.00">+FieldOfView</text>
<text text-anchor="start" x="256" y="-233" font-family="Helvetica,sans-Serif" font-size="10.00">+ControllerSensitivity</text>
<text text-anchor="middle" x="326" y="-222" font-family="Helvetica,sans-Serif" font-size="10.00">_EyeOfReach</text>
<text text-anchor="middle" x="326" y="-211" font-family="Helvetica,sans-Serif" font-size="10.00">+ControllerNonLinearity</text>
<text text-anchor="middle" x="326" y="-200" font-family="Helvetica,sans-Serif" font-size="10.00">...</text>
</g>
<!-- Node5 -->
<g id="node5" class="node"><title>Node5</title>
<g id="a_node5"><a xlink:title=" ">
<polygon fill="none" stroke="#bfbfbf" points="404.5,-397 404.5,-454 433.5,-454 433.5,-397 404.5,-397"/>
<text text-anchor="middle" x="419" y="-442" font-family="Helvetica,sans-Serif" font-size="10.00">int</text>
<polyline fill="none" stroke="#bfbfbf" points="404.5,-435 433.5,-435 "/>
<text text-anchor="middle" x="419" y="-423" font-family="Helvetica,sans-Serif" font-size="10.00"> </text>
<polyline fill="none" stroke="#bfbfbf" points="404.5,-416 433.5,-416 "/>
<text text-anchor="middle" x="419" y="-404" font-family="Helvetica,sans-Serif" font-size="10.00"> </text>
</a>
</g>
</g>
<!-- Node5&#45;&gt;Node1 -->
<g id="edge4" class="edge"><title>Node5&#45;&gt;Node1</title>
<path fill="none" stroke="#404040" d="M419.061,-396.842C418.738,-343.919 415.795,-230.589 397,-197 385.838,-177.052 369.229,-159.694 351.289,-145.108"/>
<polygon fill="none" stroke="#404040" points="351.28,-145.102 344.088,-144.576 341.808,-137.735 349,-138.261 351.28,-145.102"/>
<text text-anchor="middle" x="481" y="-326.5" font-family="Helvetica,sans-Serif" font-size="10.00"> +ParticleResolutionQuality</text>
<text text-anchor="middle" x="481" y="-315.5" font-family="Helvetica,sans-Serif" font-size="10.00">+MaxFPS</text>
<text text-anchor="middle" x="481" y="-304.5" font-family="Helvetica,sans-Serif" font-size="10.00">+VSync</text>
<text text-anchor="middle" x="481" y="-293.5" font-family="Helvetica,sans-Serif" font-size="10.00">+BackBufferCount</text>
<text text-anchor="middle" x="481" y="-282.5" font-family="Helvetica,sans-Serif" font-size="10.00">+DefaultDetail</text>
<text text-anchor="middle" x="481" y="-271.5" font-family="Helvetica,sans-Serif" font-size="10.00">+NumberOfLogins</text>
<text text-anchor="middle" x="481" y="-260.5" font-family="Helvetica,sans-Serif" font-size="10.00">+ShowPerformanceCounters</text>
<text text-anchor="middle" x="481" y="-249.5" font-family="Helvetica,sans-Serif" font-size="10.00">+ModelDetail</text>
<text text-anchor="middle" x="481" y="-238.5" font-family="Helvetica,sans-Serif" font-size="10.00">+CVDMode</text>
<text text-anchor="middle" x="481" y="-227.5" font-family="Helvetica,sans-Serif" font-size="10.00">+LightingDetail</text>
<text text-anchor="middle" x="481" y="-216.5" font-family="Helvetica,sans-Serif" font-size="10.00">...</text>
</g>
<!-- Node6 -->
<g id="node6" class="node"><title>Node6</title>
<g id="a_node6"><a xlink:title=" ">
<polygon fill="none" stroke="#bfbfbf" points="548.5,-397 548.5,-454 583.5,-454 583.5,-397 548.5,-397"/>
<text text-anchor="middle" x="566" y="-442" font-family="Helvetica,sans-Serif" font-size="10.00">bool</text>
<polyline fill="none" stroke="#bfbfbf" points="548.5,-435 583.5,-435 "/>
<text text-anchor="middle" x="566" y="-423" font-family="Helvetica,sans-Serif" font-size="10.00"> </text>
<polyline fill="none" stroke="#bfbfbf" points="548.5,-416 583.5,-416 "/>
<text text-anchor="middle" x="566" y="-404" font-family="Helvetica,sans-Serif" font-size="10.00"> </text>
</a>
</g>
</g>
<!-- Node6&#45;&gt;Node1 -->
<g id="edge5" class="edge"><title>Node6&#45;&gt;Node1</title>
<path fill="none" stroke="#404040" d="M571.937,-396.638C580.153,-350.076 589.29,-255.779 544,-197 498.896,-138.463 418.194,-112.093 353.67,-100.218"/>
<polygon fill="none" stroke="#404040" points="353.646,-100.214 347.051,-103.131 341.823,-98.165 348.418,-95.2483 353.646,-100.214"/>
<text text-anchor="middle" x="640" y="-326.5" font-family="Helvetica,sans-Serif" font-size="10.00"> +Joinable</text>
<text text-anchor="middle" x="640" y="-315.5" font-family="Helvetica,sans-Serif" font-size="10.00">+ToggleRadialMenu</text>
<text text-anchor="middle" x="640" y="-304.5" font-family="Helvetica,sans-Serif" font-size="10.00">+CrossInputPreference</text>
<text text-anchor="middle" x="640" y="-293.5" font-family="Helvetica,sans-Serif" font-size="10.00">+StickyRadialItems</text>
<text text-anchor="middle" x="640" y="-282.5" font-family="Helvetica,sans-Serif" font-size="10.00">+VariableRefreshRate</text>
<text text-anchor="middle" x="640" y="-271.5" font-family="Helvetica,sans-Serif" font-size="10.00">+UseAltMapMarkTexture</text>
<text text-anchor="middle" x="640" y="-260.5" font-family="Helvetica,sans-Serif" font-size="10.00">+OptedInToMarketing</text>
<text text-anchor="middle" x="640" y="-249.5" font-family="Helvetica,sans-Serif" font-size="10.00">+Fullscreen</text>
<text text-anchor="middle" x="640" y="-238.5" font-family="Helvetica,sans-Serif" font-size="10.00">+ShowOwnCrewNameplates</text>
<text text-anchor="middle" x="640" y="-227.5" font-family="Helvetica,sans-Serif" font-size="10.00">+UseProximityChatDirection</text>
<text text-anchor="middle" x="640" y="-216.5" font-family="Helvetica,sans-Serif" font-size="10.00">...</text>
</g>
</g>
</svg>
        <g id="navigator" transform="translate(0 0)" fill="#404254">
                <rect fill="#f2f5e9" fill-opacity="0.5" stroke="#606060" stroke-width=".5" x="0" y="0" width="60" height="60"/>
                <use id="zoomplus" xlink:href="#zoomPlus" x="17" y="9" onmousedown="handleZoom(evt,'in')"/>
                <use id="zoomminus" xlink:href="#zoomMin" x="42" y="9" onmousedown="handleZoom(evt,'out')"/>
                <use id="reset" xlink:href="#resetDef" x="30" y="36" onmousedown="handleReset()"/>
                <g id="arrowUp" xlink:href="#dirArrow" transform="translate(30 24)" onmousedown="handlePan(0,-1)">
                  <use xlink:href="#rim" fill="#404040">
                        <set attributeName="fill" to="#808080" begin="arrowUp.mouseover" end="arrowUp.mouseout"/>
                  </use>
                  <path fill="none" stroke="white" stroke-width="1.5" d="M0,-3.0v7 M-2.5,-0.5L0,-3.0L2.5,-0.5"/>
                </g>
                <g id="arrowRight" xlink:href="#dirArrow" transform="rotate(90) translate(36 -43)" onmousedown="handlePan(1,0)">
                  <use xlink:href="#rim" fill="#404040">
                        <set attributeName="fill" to="#808080" begin="arrowRight.mouseover" end="arrowRight.mouseout"/>
                  </use>
                  <path fill="none" stroke="white" stroke-width="1.5" d="M0,-3.0v7 M-2.5,-0.5L0,-3.0L2.5,-0.5"/>
                </g>
                <g id="arrowDown" xlink:href="#dirArrow" transform="rotate(180) translate(-30 -48)" onmousedown="handlePan(0,1)">
                  <use xlink:href="#rim" fill="#404040">
                        <set attributeName="fill" to="#808080" begin="arrowDown.mouseover" end="arrowDown.mouseout"/>
                  </use>
                  <path fill="none" stroke="white" stroke-width="1.5" d="M0,-3.0v7 M-2.5,-0.5L0,-3.0L2.5,-0.5"/>
                </g>
                <g id="arrowLeft" xlink:href="#dirArrow" transform="rotate(270) translate(-36 17)" onmousedown="handlePan(-1,0)">
                  <use xlink:href="#rim" fill="#404040">
                        <set attributeName="fill" to="#808080" begin="arrowLeft.mouseover" end="arrowLeft.mouseout"/>
                  </use>
                  <path fill="none" stroke="white" stroke-width="1.5" d="M0,-3.0v7 M-2.5,-0.5L0,-3.0L2.5,-0.5"/>
                </g>
        </g>
        <svg viewBox="0 0 15 15" width="100%" height="30px" preserveAspectRatio="xMaxYMin meet">
         <g id="arrow_out" transform="scale(0.3 0.3)">
          <a xlink:href="a22425_org.svg" target="_base">
           <rect id="button" ry="5" rx="5" y="6" x="6" height="38" width="38"
                fill="#f2f5e9" fill-opacity="0.5" stroke="#606060" stroke-width="1.0"/>
           <path id="arrow"
             d="M 11.500037,31.436501 C 11.940474,20.09759 22.043105,11.32322 32.158766,21.979434 L 37.068811,17.246167 C 37.068811,17.246167 37.088388,32 37.088388,32 L 22.160133,31.978069 C 22.160133,31.978069 26.997745,27.140456 26.997745,27.140456 C 18.528582,18.264221 13.291696,25.230495 11.500037,31.436501 z"
             style="fill:#404040;"/>
          </a>
         </g>
        </svg>
</svg>
