<?xml version="1.0" encoding="UTF-8" standalone="no"?>
<!DOCTYPE svg PUBLIC "-//W3C//DTD SVG 1.1//EN"
 "http://www.w3.org/Graphics/SVG/1.1/DTD/svg11.dtd">
<!-- Generated by graphviz version 2.38.0 (20140413.2041)
 -->
<!-- Title: SDK::FAthenaAnimationDeathAnimData Pages: 1 -->
<svg width="347pt" height="215pt"
 viewBox="0.00 0.00 347.00 215.00" xmlns="http://www.w3.org/2000/svg" xmlns:xlink="http://www.w3.org/1999/xlink">
<g id="graph0" class="graph" transform="scale(1 1) rotate(0) translate(4 211)">
<title>SDK::FAthenaAnimationDeathAnimData</title>
<!-- Node1 -->
<g id="node1" class="node"><title>Node1</title>
<g id="a_node1"><a xlink:title=" ">
<polygon fill="#bfbfbf" stroke="black" points="53.5,-0.5 53.5,-68.5 202.5,-68.5 202.5,-0.5 53.5,-0.5"/>
<text text-anchor="start" x="61.5" y="-56.5" font-family="Helvetica,sans-Serif" font-size="10.00">SDK::FAthenaAnimationDeath</text>
<text text-anchor="middle" x="128" y="-45.5" font-family="Helvetica,sans-Serif" font-size="10.00">AnimData</text>
<polyline fill="none" stroke="black" points="53.5,-38.5 202.5,-38.5 "/>
<text text-anchor="middle" x="128" y="-26.5" font-family="Helvetica,sans-Serif" font-size="10.00"> </text>
<polyline fill="none" stroke="black" points="53.5,-19.5 202.5,-19.5 "/>
<text text-anchor="middle" x="128" y="-7.5" font-family="Helvetica,sans-Serif" font-size="10.00"> </text>
</a>
</g>
</g>
<!-- Node2 -->
<g id="node2" class="node"><title>Node2</title>
<g id="a_node2"><a xlink:href="a27747.html" target="_top" xlink:title=" ">
<polygon fill="none" stroke="red" points="0,-149.5 0,-206.5 114,-206.5 114,-149.5 0,-149.5"/>
<text text-anchor="middle" x="57" y="-194.5" font-family="Helvetica,sans-Serif" font-size="10.00">SDK::UBlendSpace1D</text>
<polyline fill="none" stroke="red" points="0,-187.5 114,-187.5 "/>
<text text-anchor="middle" x="57" y="-175.5" font-family="Helvetica,sans-Serif" font-size="10.00"> </text>
<polyline fill="none" stroke="red" points="0,-168.5 114,-168.5 "/>
<text text-anchor="start" x="8" y="-156.5" font-family="Helvetica,sans-Serif" font-size="10.00">+ StaticClass()</text>
</a>
</g>
</g>
<!-- Node2&#45;&gt;Node1 -->
<g id="edge1" class="edge"><title>Node2&#45;&gt;Node1</title>
<path fill="none" stroke="#404040" d="M51.1702,-149.493C48.639,-130.842 48.1609,-106.188 58,-87 59.7006,-83.6835 61.7248,-80.5275 63.9943,-77.532"/>
<polygon fill="none" stroke="#404040" points="64.0268,-77.4953 65.0093,-70.3514 71.9816,-68.5107 70.999,-75.6546 64.0268,-77.4953"/>
<text text-anchor="middle" x="117.5" y="-106.5" font-family="Helvetica,sans-Serif" font-size="10.00"> +DrowningDeath3rdPerson</text>
</g>
<!-- Node36 -->
<g id="node3" class="node"><title>Node36</title>
<g id="a_node3"><a xlink:href="a27731.html" target="_top" xlink:title=" ">
<polygon fill="none" stroke="red" points="141,-149.5 141,-206.5 257,-206.5 257,-149.5 141,-149.5"/>
<text text-anchor="middle" x="199" y="-194.5" font-family="Helvetica,sans-Serif" font-size="10.00">SDK::UAnimSequence</text>
<polyline fill="none" stroke="red" points="141,-187.5 257,-187.5 "/>
<text text-anchor="middle" x="199" y="-175.5" font-family="Helvetica,sans-Serif" font-size="10.00"> </text>
<polyline fill="none" stroke="red" points="141,-168.5 257,-168.5 "/>
<text text-anchor="start" x="149" y="-156.5" font-family="Helvetica,sans-Serif" font-size="10.00">+ StaticClass()</text>
</a>
</g>
</g>
<!-- Node36&#45;&gt;Node1 -->
<g id="edge2" class="edge"><title>Node36&#45;&gt;Node1</title>
<path fill="none" stroke="#404040" d="M196.009,-149.274C193.125,-130.753 187.567,-106.337 177,-87 175.418,-84.1047 173.632,-81.2525 171.701,-78.466"/>
<polygon fill="none" stroke="#404040" points="171.507,-78.2132 164.678,-75.8977 164.188,-68.7032 171.018,-71.0187 171.507,-78.2132"/>
<text text-anchor="middle" x="248.5" y="-123" font-family="Helvetica,sans-Serif" font-size="10.00"> +SwimmingSurfaceDeath</text>
<text text-anchor="middle" x="248.5" y="-112" font-family="Helvetica,sans-Serif" font-size="10.00">+WakeUp</text>
<text text-anchor="middle" x="248.5" y="-101" font-family="Helvetica,sans-Serif" font-size="10.00">+DrowningDeath</text>
<text text-anchor="middle" x="248.5" y="-90" font-family="Helvetica,sans-Serif" font-size="10.00">+LocomotionDeath</text>
</g>
<!-- Node36&#45;&gt;Node36 -->
<g id="edge3" class="edge"><title>Node36&#45;&gt;Node36</title>
<path fill="none" stroke="#404040" d="M257.312,-190.002C267.726,-188.442 275,-184.441 275,-178 275,-174.377 272.698,-171.526 268.831,-169.447"/>
<polygon fill="none" stroke="#404040" points="268.808,-169.44 261.912,-171.551 257.312,-165.998 264.207,-163.887 268.808,-169.44"/>
<text text-anchor="middle" x="307" y="-175.5" font-family="Helvetica,sans-Serif" font-size="10.00"> +RefPoseSeq</text>
</g>
</g>
</svg>
