<?xml version="1.0" encoding="UTF-8" standalone="no"?>
<!DOCTYPE svg PUBLIC "-//W3C//DTD SVG 1.1//EN"
 "http://www.w3.org/Graphics/SVG/1.1/DTD/svg11.dtd">
<!-- Generated by graphviz version 2.38.0 (20140413.2041)
 -->
<!-- Title: SDK::FInteractingActorData Pages: 1 -->
<svg width="261pt" height="237pt"
 viewBox="0.00 0.00 261.00 237.00" xmlns="http://www.w3.org/2000/svg" xmlns:xlink="http://www.w3.org/1999/xlink">
<g id="graph0" class="graph" transform="scale(1 1) rotate(0) translate(4 233)">
<title>SDK::FInteractingActorData</title>
<!-- Node1 -->
<g id="node1" class="node"><title>Node1</title>
<g id="a_node1"><a xlink:title=" ">
<polygon fill="#bfbfbf" stroke="black" points="50.5,-0.5 50.5,-57.5 187.5,-57.5 187.5,-0.5 50.5,-0.5"/>
<text text-anchor="middle" x="119" y="-45.5" font-family="Helvetica,sans-Serif" font-size="10.00">SDK::FInteractingActorData</text>
<polyline fill="none" stroke="black" points="50.5,-38.5 187.5,-38.5 "/>
<text text-anchor="middle" x="119" y="-26.5" font-family="Helvetica,sans-Serif" font-size="10.00"> </text>
<polyline fill="none" stroke="black" points="50.5,-19.5 187.5,-19.5 "/>
<text text-anchor="middle" x="119" y="-7.5" font-family="Helvetica,sans-Serif" font-size="10.00"> </text>
</a>
</g>
</g>
<!-- Node2 -->
<g id="node2" class="node"><title>Node2</title>
<g id="a_node2"><a xlink:href="a25627.html" target="_top" xlink:title=" ">
<polygon fill="none" stroke="red" points="0,-116.5 0,-228.5 106,-228.5 106,-116.5 0,-116.5"/>
<text text-anchor="middle" x="53" y="-216.5" font-family="Helvetica,sans-Serif" font-size="10.00">SDK::FName</text>
<polyline fill="none" stroke="red" points="0,-209.5 106,-209.5 "/>
<text text-anchor="middle" x="53" y="-197.5" font-family="Helvetica,sans-Serif" font-size="10.00"> </text>
<polyline fill="none" stroke="red" points="0,-190.5 106,-190.5 "/>
<text text-anchor="start" x="8" y="-178.5" font-family="Helvetica,sans-Serif" font-size="10.00">+ FName()</text>
<text text-anchor="start" x="8" y="-167.5" font-family="Helvetica,sans-Serif" font-size="10.00">+ FName()</text>
<text text-anchor="start" x="8" y="-156.5" font-family="Helvetica,sans-Serif" font-size="10.00">+ FName()</text>
<text text-anchor="start" x="8" y="-145.5" font-family="Helvetica,sans-Serif" font-size="10.00">+ GetName()</text>
<text text-anchor="start" x="8" y="-134.5" font-family="Helvetica,sans-Serif" font-size="10.00">+ operator==()</text>
<text text-anchor="start" x="8" y="-123.5" font-family="Helvetica,sans-Serif" font-size="10.00">+ GetGlobalNames()</text>
</a>
</g>
</g>
<!-- Node2&#45;&gt;Node1 -->
<g id="edge1" class="edge"><title>Node2&#45;&gt;Node1</title>
<path fill="none" stroke="#404040" d="M45.0011,-116.307C45.2612,-102.514 47.6121,-88.1897 54,-76 55.7717,-72.6192 57.9173,-69.4326 60.3355,-66.4376"/>
<polygon fill="none" stroke="#404040" points="60.5689,-66.1936 61.8251,-59.0927 68.863,-57.5212 67.6067,-64.6221 60.5689,-66.1936"/>
<text text-anchor="middle" x="109" y="-84.5" font-family="Helvetica,sans-Serif" font-size="10.00"> +PreviousCollisionProfile</text>
</g>
<!-- Node5 -->
<g id="node3" class="node"><title>Node5</title>
<g id="a_node3"><a xlink:title=" ">
<polygon fill="none" stroke="#bfbfbf" points="168.5,-144 168.5,-201 203.5,-201 203.5,-144 168.5,-144"/>
<text text-anchor="middle" x="186" y="-189" font-family="Helvetica,sans-Serif" font-size="10.00">char</text>
<polyline fill="none" stroke="#bfbfbf" points="168.5,-182 203.5,-182 "/>
<text text-anchor="middle" x="186" y="-170" font-family="Helvetica,sans-Serif" font-size="10.00"> </text>
<polyline fill="none" stroke="#bfbfbf" points="168.5,-163 203.5,-163 "/>
<text text-anchor="middle" x="186" y="-151" font-family="Helvetica,sans-Serif" font-size="10.00"> </text>
</a>
</g>
</g>
<!-- Node5&#45;&gt;Node1 -->
<g id="edge2" class="edge"><title>Node5&#45;&gt;Node1</title>
<path fill="none" stroke="#404040" d="M183.638,-143.742C181.015,-123.882 175.51,-97.0484 164,-76 162.342,-72.9675 160.427,-69.9961 158.342,-67.1154"/>
<polygon fill="none" stroke="#404040" points="158.278,-67.0364 151.393,-64.8931 150.723,-57.7132 157.608,-59.8564 158.278,-67.0364"/>
<text text-anchor="middle" x="213" y="-90" font-family="Helvetica,sans-Serif" font-size="10.00"> +UnknownData01</text>
<text text-anchor="middle" x="213" y="-79" font-family="Helvetica,sans-Serif" font-size="10.00">+UnknownData00</text>
</g>
</g>
</svg>
