<?xml version="1.0" encoding="UTF-8" standalone="no"?>
<!DOCTYPE svg PUBLIC "-//W3C//DTD SVG 1.1//EN"
 "http://www.w3.org/Graphics/SVG/1.1/DTD/svg11.dtd">
<!-- Generated by graphviz version 2.38.0 (20140413.2041)
 -->
<!-- Title: SDK::UAIAmmoRankProgression Pages: 1 -->
<svg width="464pt" height="226pt"
 viewBox="0.00 0.00 463.50 226.00" xmlns="http://www.w3.org/2000/svg" xmlns:xlink="http://www.w3.org/1999/xlink">
<g id="graph0" class="graph" transform="scale(1 1) rotate(0) translate(4 222)">
<title>SDK::UAIAmmoRankProgression</title>
<!-- Node1 -->
<g id="node1" class="node"><title>Node1</title>
<g id="a_node1"><a xlink:title=" ">
<polygon fill="#bfbfbf" stroke="black" points="165,-0.5 165,-57.5 326,-57.5 326,-0.5 165,-0.5"/>
<text text-anchor="middle" x="245.5" y="-45.5" font-family="Helvetica,sans-Serif" font-size="10.00">SDK::UAIAmmoRankProgression</text>
<polyline fill="none" stroke="black" points="165,-38.5 326,-38.5 "/>
<text text-anchor="middle" x="245.5" y="-26.5" font-family="Helvetica,sans-Serif" font-size="10.00"> </text>
<polyline fill="none" stroke="black" points="165,-19.5 326,-19.5 "/>
<text text-anchor="start" x="173" y="-7.5" font-family="Helvetica,sans-Serif" font-size="10.00">+ StaticClass()</text>
</a>
</g>
</g>
<!-- Node2 -->
<g id="node2" class="node"><title>Node2</title>
<g id="a_node2"><a xlink:href="a26347.html" target="_top" xlink:title=" ">
<polygon fill="none" stroke="red" points="0,-133 0,-190 95,-190 95,-133 0,-133"/>
<text text-anchor="middle" x="47.5" y="-178" font-family="Helvetica,sans-Serif" font-size="10.00">SDK::UDataAsset</text>
<polyline fill="none" stroke="red" points="0,-171 95,-171 "/>
<text text-anchor="middle" x="47.5" y="-159" font-family="Helvetica,sans-Serif" font-size="10.00"> </text>
<polyline fill="none" stroke="red" points="0,-152 95,-152 "/>
<text text-anchor="start" x="8" y="-140" font-family="Helvetica,sans-Serif" font-size="10.00">+ StaticClass()</text>
</a>
</g>
</g>
<!-- Node2&#45;&gt;Node1 -->
<g id="edge1" class="edge"><title>Node2&#45;&gt;Node1</title>
<path fill="none" stroke="midnightblue" d="M80.141,-125.658C87.7755,-118.399 96.1325,-111.107 104.5,-105 129.248,-86.9384 158.902,-70.4955 184.615,-57.6391"/>
<polygon fill="none" stroke="midnightblue" points="77.4775,-123.367 72.7737,-132.86 82.371,-128.372 77.4775,-123.367"/>
</g>
<!-- Node14 -->
<g id="node3" class="node"><title>Node14</title>
<g id="a_node3"><a xlink:href="a25611.html" target="_top" xlink:title=" ">
<polygon fill="none" stroke="black" points="113.5,-105.5 113.5,-217.5 271.5,-217.5 271.5,-105.5 113.5,-105.5"/>
<text text-anchor="start" x="121.5" y="-205.5" font-family="Helvetica,sans-Serif" font-size="10.00">SDK::TArray&lt; struct</text>
<text text-anchor="middle" x="192.5" y="-194.5" font-family="Helvetica,sans-Serif" font-size="10.00"> SDK::FAIAmmoRankMapping &gt;</text>
<polyline fill="none" stroke="black" points="113.5,-187.5 271.5,-187.5 "/>
<text text-anchor="middle" x="192.5" y="-175.5" font-family="Helvetica,sans-Serif" font-size="10.00"> </text>
<polyline fill="none" stroke="black" points="113.5,-168.5 271.5,-168.5 "/>
<text text-anchor="start" x="121.5" y="-156.5" font-family="Helvetica,sans-Serif" font-size="10.00">+ TArray()</text>
<text text-anchor="start" x="121.5" y="-145.5" font-family="Helvetica,sans-Serif" font-size="10.00">+ Num()</text>
<text text-anchor="start" x="121.5" y="-134.5" font-family="Helvetica,sans-Serif" font-size="10.00">+ operator[]()</text>
<text text-anchor="start" x="121.5" y="-123.5" font-family="Helvetica,sans-Serif" font-size="10.00">+ operator[]()</text>
<text text-anchor="start" x="121.5" y="-112.5" font-family="Helvetica,sans-Serif" font-size="10.00">+ IsValidIndex()</text>
</a>
</g>
</g>
<!-- Node14&#45;&gt;Node1 -->
<g id="edge2" class="edge"><title>Node14&#45;&gt;Node1</title>
<path fill="none" stroke="#404040" d="M193.913,-105.459C195.58,-95.3436 198.269,-85.1108 202.5,-76 203.877,-73.0348 205.519,-70.1346 207.346,-67.3247"/>
<polygon fill="none" stroke="#404040" points="207.438,-67.2015 207.826,-60.0008 214.622,-57.59 214.234,-64.7907 207.438,-67.2015"/>
<text text-anchor="middle" x="239.5" y="-79" font-family="Helvetica,sans-Serif" font-size="10.00"> +RankMappings</text>
</g>
<!-- Node12 -->
<g id="node4" class="node"><title>Node12</title>
<g id="a_node4"><a xlink:title=" ">
<polygon fill="none" stroke="#bfbfbf" points="290,-133 290,-190 325,-190 325,-133 290,-133"/>
<text text-anchor="middle" x="307.5" y="-178" font-family="Helvetica,sans-Serif" font-size="10.00">char</text>
<polyline fill="none" stroke="#bfbfbf" points="290,-171 325,-171 "/>
<text text-anchor="middle" x="307.5" y="-159" font-family="Helvetica,sans-Serif" font-size="10.00"> </text>
<polyline fill="none" stroke="#bfbfbf" points="290,-152 325,-152 "/>
<text text-anchor="middle" x="307.5" y="-140" font-family="Helvetica,sans-Serif" font-size="10.00"> </text>
</a>
</g>
</g>
<!-- Node12&#45;&gt;Node1 -->
<g id="edge3" class="edge"><title>Node12&#45;&gt;Node1</title>
<path fill="none" stroke="#404040" d="M299.206,-132.774C293.712,-115.929 285.813,-94.2292 276.5,-76 275.12,-73.2986 273.61,-70.5655 272.023,-67.8494"/>
<polygon fill="none" stroke="#404040" points="271.965,-67.7553 265.401,-64.7685 265.634,-57.5611 272.198,-60.5479 271.965,-67.7553"/>
<text text-anchor="middle" x="321.5" y="-79" font-family="Helvetica,sans-Serif" font-size="10.00"> +UnknownData00</text>
</g>
<!-- Node15 -->
<g id="node5" class="node"><title>Node15</title>
<g id="a_node5"><a xlink:title=" ">
<polygon fill="none" stroke="#bfbfbf" points="387,-133 387,-190 416,-190 416,-133 387,-133"/>
<text text-anchor="middle" x="401.5" y="-178" font-family="Helvetica,sans-Serif" font-size="10.00">int</text>
<polyline fill="none" stroke="#bfbfbf" points="387,-171 416,-171 "/>
<text text-anchor="middle" x="401.5" y="-159" font-family="Helvetica,sans-Serif" font-size="10.00"> </text>
<polyline fill="none" stroke="#bfbfbf" points="387,-152 416,-152 "/>
<text text-anchor="middle" x="401.5" y="-140" font-family="Helvetica,sans-Serif" font-size="10.00"> </text>
</a>
</g>
</g>
<!-- Node15&#45;&gt;Node1 -->
<g id="edge4" class="edge"><title>Node15&#45;&gt;Node1</title>
<path fill="none" stroke="#404040" d="M395.703,-132.925C390.567,-114.634 381.343,-91.2722 365.5,-76 357.274,-68.0702 347.537,-61.4722 337.222,-55.9905"/>
<polygon fill="none" stroke="#404040" points="337.093,-55.9274 329.947,-56.8964 326.304,-50.6731 333.45,-49.704 337.093,-55.9274"/>
<text text-anchor="middle" x="415" y="-79" font-family="Helvetica,sans-Serif" font-size="10.00"> +NumberOfRanks</text>
</g>
</g>
</svg>
