<?xml version="1.0" encoding="UTF-8" standalone="no"?>
<!DOCTYPE svg PUBLIC "-//W3C//DTD SVG 1.1//EN"
 "http://www.w3.org/Graphics/SVG/1.1/DTD/svg11.dtd">
<!-- Generated by graphviz version 2.38.0 (20140413.2041)
 -->
<!-- Title: SDK::UAIPartsDesc Pages: 1 -->
<svg width="204pt" height="171pt"
 viewBox="0.00 0.00 204.00 171.00" xmlns="http://www.w3.org/2000/svg" xmlns:xlink="http://www.w3.org/1999/xlink">
<g id="graph0" class="graph" transform="scale(1 1) rotate(0) translate(4 167)">
<title>SDK::UAIPartsDesc</title>
<!-- Node1 -->
<g id="node1" class="node"><title>Node1</title>
<g id="a_node1"><a xlink:title=" ">
<polygon fill="#bfbfbf" stroke="black" points="48.5,-0.5 48.5,-57.5 152.5,-57.5 152.5,-0.5 48.5,-0.5"/>
<text text-anchor="middle" x="100.5" y="-45.5" font-family="Helvetica,sans-Serif" font-size="10.00">SDK::UAIPartsDesc</text>
<polyline fill="none" stroke="black" points="48.5,-38.5 152.5,-38.5 "/>
<text text-anchor="middle" x="100.5" y="-26.5" font-family="Helvetica,sans-Serif" font-size="10.00"> </text>
<polyline fill="none" stroke="black" points="48.5,-19.5 152.5,-19.5 "/>
<text text-anchor="start" x="56.5" y="-7.5" font-family="Helvetica,sans-Serif" font-size="10.00">+ StaticClass()</text>
</a>
</g>
</g>
<!-- Node2 -->
<g id="node2" class="node"><title>Node2</title>
<g id="a_node2"><a xlink:href="a26559.html" target="_top" xlink:title=" ">
<polygon fill="none" stroke="red" points="0,-105.5 0,-162.5 95,-162.5 95,-105.5 0,-105.5"/>
<text text-anchor="middle" x="47.5" y="-150.5" font-family="Helvetica,sans-Serif" font-size="10.00">SDK::UDataAsset</text>
<polyline fill="none" stroke="red" points="0,-143.5 95,-143.5 "/>
<text text-anchor="middle" x="47.5" y="-131.5" font-family="Helvetica,sans-Serif" font-size="10.00"> </text>
<polyline fill="none" stroke="red" points="0,-124.5 95,-124.5 "/>
<text text-anchor="start" x="8" y="-112.5" font-family="Helvetica,sans-Serif" font-size="10.00">+ StaticClass()</text>
</a>
</g>
</g>
<!-- Node2&#45;&gt;Node1 -->
<g id="edge1" class="edge"><title>Node2&#45;&gt;Node1</title>
<path fill="none" stroke="midnightblue" d="M66.3315,-96.4029C72.8899,-83.6575 80.1339,-69.5794 86.2578,-57.6783"/>
<polygon fill="none" stroke="midnightblue" points="63.1664,-94.9046 61.703,-105.398 69.3907,-98.1074 63.1664,-94.9046"/>
</g>
<!-- Node14 -->
<g id="node3" class="node"><title>Node14</title>
<g id="a_node3"><a xlink:href="a24971.html" target="_top" xlink:title=" ">
<polygon fill="none" stroke="red" points="113,-105.5 113,-162.5 196,-162.5 196,-105.5 113,-105.5"/>
<text text-anchor="middle" x="154.5" y="-150.5" font-family="Helvetica,sans-Serif" font-size="10.00">SDK::FAIPartId</text>
<polyline fill="none" stroke="red" points="113,-143.5 196,-143.5 "/>
<text text-anchor="middle" x="154.5" y="-131.5" font-family="Helvetica,sans-Serif" font-size="10.00"> </text>
<polyline fill="none" stroke="red" points="113,-124.5 196,-124.5 "/>
<text text-anchor="middle" x="154.5" y="-112.5" font-family="Helvetica,sans-Serif" font-size="10.00"> </text>
</a>
</g>
</g>
<!-- Node14&#45;&gt;Node1 -->
<g id="edge2" class="edge"><title>Node14&#45;&gt;Node1</title>
<path fill="none" stroke="#404040" d="M140.029,-105.398C134.097,-94.0833 127.128,-80.7913 120.708,-68.5447"/>
<polygon fill="none" stroke="#404040" points="120.583,-68.3063 114.254,-64.8496 115.011,-57.6783 121.34,-61.135 120.583,-68.3063"/>
<text text-anchor="middle" x="150.5" y="-79" font-family="Helvetica,sans-Serif" font-size="10.00"> +AIPartId</text>
</g>
</g>
</svg>
