<?xml version="1.0" encoding="UTF-8" standalone="no"?>
<!DOCTYPE svg PUBLIC "-//W3C//DTD SVG 1.1//EN"
 "http://www.w3.org/Graphics/SVG/1.1/DTD/svg11.dtd">
<!-- Generated by graphviz version 2.38.0 (20140413.2041)
 -->
<!-- Title: SDK::UAISpawner Pages: 1 -->
<svg width="2255pt" height="474pt"
 viewBox="0.00 0.00 2254.89 474.00" xmlns="http://www.w3.org/2000/svg" xmlns:xlink="http://www.w3.org/1999/xlink">
<g id="graph0" class="graph" transform="scale(1 1) rotate(0) translate(4 470)">
<title>SDK::UAISpawner</title>
<!-- Node1 -->
<g id="node1" class="node"><title>Node1</title>
<g id="a_node1"><a xlink:title=" ">
<polygon fill="#bfbfbf" stroke="black" points="911.389,-0.5 911.389,-68.5 1059.39,-68.5 1059.39,-0.5 911.389,-0.5"/>
<text text-anchor="middle" x="985.389" y="-56.5" font-family="Helvetica,sans-Serif" font-size="10.00">SDK::UAISpawner</text>
<polyline fill="none" stroke="black" points="911.389,-49.5 1059.39,-49.5 "/>
<text text-anchor="middle" x="985.389" y="-37.5" font-family="Helvetica,sans-Serif" font-size="10.00"> </text>
<polyline fill="none" stroke="black" points="911.389,-30.5 1059.39,-30.5 "/>
<text text-anchor="start" x="919.389" y="-18.5" font-family="Helvetica,sans-Serif" font-size="10.00">+ GetNumOfSpawnRequests()</text>
<text text-anchor="start" x="919.389" y="-7.5" font-family="Helvetica,sans-Serif" font-size="10.00">+ StaticClass()</text>
</a>
</g>
</g>
<!-- Node2 -->
<g id="node2" class="node"><title>Node2</title>
<g id="a_node2"><a xlink:href="a26559.html" target="_top" xlink:title=" ">
<polygon fill="none" stroke="red" points="319.889,-408.5 319.889,-465.5 414.889,-465.5 414.889,-408.5 319.889,-408.5"/>
<text text-anchor="middle" x="367.389" y="-453.5" font-family="Helvetica,sans-Serif" font-size="10.00">SDK::UDataAsset</text>
<polyline fill="none" stroke="red" points="319.889,-446.5 414.889,-446.5 "/>
<text text-anchor="middle" x="367.389" y="-434.5" font-family="Helvetica,sans-Serif" font-size="10.00"> </text>
<polyline fill="none" stroke="red" points="319.889,-427.5 414.889,-427.5 "/>
<text text-anchor="start" x="327.889" y="-415.5" font-family="Helvetica,sans-Serif" font-size="10.00">+ StaticClass()</text>
</a>
</g>
</g>
<!-- Node2&#45;&gt;Node1 -->
<g id="edge1" class="edge"><title>Node2&#45;&gt;Node1</title>
<path fill="none" stroke="midnightblue" d="M309.715,-434.843C231.492,-429.758 94.5262,-407.579 33.3893,-317 -25.1876,-230.213 -5.35689,-140.933 84.3893,-87 154.39,-44.9327 708.03,-37.2274 911.072,-35.8163"/>
<polygon fill="none" stroke="midnightblue" points="309.699,-438.348 319.884,-435.43 310.102,-431.36 309.699,-438.348"/>
</g>
<!-- Node14 -->
<g id="node3" class="node"><title>Node14</title>
<g id="a_node3"><a xlink:href="a24071.html" target="_top" xlink:title=" ">
<polygon fill="none" stroke="red" points="42.8893,-215.5 42.8893,-272.5 181.889,-272.5 181.889,-215.5 42.8893,-215.5"/>
<text text-anchor="middle" x="112.389" y="-260.5" font-family="Helvetica,sans-Serif" font-size="10.00">SDK::UAIEncounterSettings</text>
<polyline fill="none" stroke="red" points="42.8893,-253.5 181.889,-253.5 "/>
<text text-anchor="middle" x="112.389" y="-241.5" font-family="Helvetica,sans-Serif" font-size="10.00"> </text>
<polyline fill="none" stroke="red" points="42.8893,-234.5 181.889,-234.5 "/>
<text text-anchor="start" x="50.8893" y="-222.5" font-family="Helvetica,sans-Serif" font-size="10.00">+ StaticClass()</text>
</a>
</g>
</g>
<!-- Node2&#45;&gt;Node14 -->
<g id="edge3" class="edge"><title>Node2&#45;&gt;Node14</title>
<path fill="none" stroke="midnightblue" d="M313.568,-402.87C277.693,-380.056 230.03,-348.32 190.389,-317 173.037,-303.29 154.814,-286.613 140.349,-272.763"/>
<polygon fill="none" stroke="midnightblue" points="312.1,-406.083 322.422,-408.472 315.843,-400.167 312.1,-406.083"/>
</g>
<!-- Node25 -->
<g id="node8" class="node"><title>Node25</title>
<g id="a_node8"><a xlink:href="a24135.html" target="_top" xlink:title=" ">
<polygon fill="none" stroke="red" points="924.889,-210 924.889,-278 1079.89,-278 1079.89,-210 924.889,-210"/>
<text text-anchor="start" x="932.889" y="-266" font-family="Helvetica,sans-Serif" font-size="10.00">SDK::UAISpawnWaveSequence</text>
<text text-anchor="middle" x="1002.39" y="-255" font-family="Helvetica,sans-Serif" font-size="10.00">RankProgression</text>
<polyline fill="none" stroke="red" points="924.889,-248 1079.89,-248 "/>
<text text-anchor="middle" x="1002.39" y="-236" font-family="Helvetica,sans-Serif" font-size="10.00"> </text>
<polyline fill="none" stroke="red" points="924.889,-229 1079.89,-229 "/>
<text text-anchor="start" x="932.889" y="-217" font-family="Helvetica,sans-Serif" font-size="10.00">+ StaticClass()</text>
</a>
</g>
</g>
<!-- Node2&#45;&gt;Node25 -->
<g id="edge9" class="edge"><title>Node2&#45;&gt;Node25</title>
<path fill="none" stroke="midnightblue" d="M425.354,-434.337C558.735,-430.063 879.079,-417.079 919.389,-390 942.159,-374.704 934.005,-358.943 947.389,-335 958.022,-315.979 970.654,-295.195 981.129,-278.396"/>
<polygon fill="none" stroke="midnightblue" points="425.203,-430.84 415.318,-434.654 425.424,-437.837 425.203,-430.84"/>
</g>
<!-- Node36 -->
<g id="node15" class="node"><title>Node36</title>
<g id="a_node15"><a xlink:href="a24143.html" target="_top" xlink:title=" ">
<polygon fill="none" stroke="red" points="745.889,-210 745.889,-278 906.889,-278 906.889,-210 745.889,-210"/>
<text text-anchor="start" x="753.889" y="-266" font-family="Helvetica,sans-Serif" font-size="10.00">SDK::UAIWeightedProbability</text>
<text text-anchor="middle" x="826.389" y="-255" font-family="Helvetica,sans-Serif" font-size="10.00">RangeOfRangesRankProgression</text>
<polyline fill="none" stroke="red" points="745.889,-248 906.889,-248 "/>
<text text-anchor="middle" x="826.389" y="-236" font-family="Helvetica,sans-Serif" font-size="10.00"> </text>
<polyline fill="none" stroke="red" points="745.889,-229 906.889,-229 "/>
<text text-anchor="start" x="753.889" y="-217" font-family="Helvetica,sans-Serif" font-size="10.00">+ StaticClass()</text>
</a>
</g>
</g>
<!-- Node2&#45;&gt;Node36 -->
<g id="edge20" class="edge"><title>Node2&#45;&gt;Node36</title>
<path fill="none" stroke="midnightblue" d="M425.093,-423.439C498.917,-405.979 629.423,-370.377 731.389,-317 751.557,-306.443 771.933,-291.664 788.615,-278.242"/>
<polygon fill="none" stroke="midnightblue" points="424.003,-420.099 415.062,-425.782 425.596,-426.916 424.003,-420.099"/>
</g>
<!-- Node14&#45;&gt;Node1 -->
<g id="edge2" class="edge"><title>Node14&#45;&gt;Node1</title>
<path fill="none" stroke="#404040" d="M101.116,-215.495C88.8961,-180.7 75.1336,-121.203 107.389,-87 134.285,-58.4803 683.175,-42.5736 899.158,-37.3987"/>
<polygon fill="none" stroke="#404040" points="899.358,-37.3941 905.261,-33.2529 911.354,-37.1095 905.451,-41.2507 899.358,-37.3941"/>
<text text-anchor="middle" x="167.389" y="-117.5" font-family="Helvetica,sans-Serif" font-size="10.00"> +DefaultEncounterSettings</text>
</g>
<!-- Node23 -->
<g id="node4" class="node"><title>Node23</title>
<g id="a_node4"><a xlink:href="a25823.html" target="_top" xlink:title=" ">
<polygon fill="none" stroke="black" points="199.889,-188 199.889,-300 304.889,-300 304.889,-188 199.889,-188"/>
<text text-anchor="start" x="207.889" y="-288" font-family="Helvetica,sans-Serif" font-size="10.00">SDK::TArray&lt; struct</text>
<text text-anchor="middle" x="252.389" y="-277" font-family="Helvetica,sans-Serif" font-size="10.00"> SDK::FVector &gt;</text>
<polyline fill="none" stroke="black" points="199.889,-270 304.889,-270 "/>
<text text-anchor="middle" x="252.389" y="-258" font-family="Helvetica,sans-Serif" font-size="10.00"> </text>
<polyline fill="none" stroke="black" points="199.889,-251 304.889,-251 "/>
<text text-anchor="start" x="207.889" y="-239" font-family="Helvetica,sans-Serif" font-size="10.00">+ TArray()</text>
<text text-anchor="start" x="207.889" y="-228" font-family="Helvetica,sans-Serif" font-size="10.00">+ Num()</text>
<text text-anchor="start" x="207.889" y="-217" font-family="Helvetica,sans-Serif" font-size="10.00">+ operator[]()</text>
<text text-anchor="start" x="207.889" y="-206" font-family="Helvetica,sans-Serif" font-size="10.00">+ operator[]()</text>
<text text-anchor="start" x="207.889" y="-195" font-family="Helvetica,sans-Serif" font-size="10.00">+ IsValidIndex()</text>
</a>
</g>
</g>
<!-- Node23&#45;&gt;Node1 -->
<g id="edge4" class="edge"><title>Node23&#45;&gt;Node1</title>
<path fill="none" stroke="#404040" d="M235.379,-187.815C228.787,-154.425 227.828,-113.348 252.389,-87 295.672,-40.5698 714.706,-35.2059 899.07,-35.118"/>
<polygon fill="none" stroke="#404040" points="899.134,-35.1179 905.134,-31.1188 911.134,-35.1197 905.133,-39.1188 899.134,-35.1179"/>
<text text-anchor="middle" x="319.889" y="-117.5" font-family="Helvetica,sans-Serif" font-size="10.00"> +DefaultWaveSpawnLocations</text>
</g>
<!-- Node4 -->
<g id="node5" class="node"><title>Node4</title>
<g id="a_node5"><a xlink:href="a25839.html" target="_top" xlink:title=" ">
<polygon fill="none" stroke="red" points="323.389,-188 323.389,-300 429.389,-300 429.389,-188 323.389,-188"/>
<text text-anchor="middle" x="376.389" y="-288" font-family="Helvetica,sans-Serif" font-size="10.00">SDK::FName</text>
<polyline fill="none" stroke="red" points="323.389,-281 429.389,-281 "/>
<text text-anchor="middle" x="376.389" y="-269" font-family="Helvetica,sans-Serif" font-size="10.00"> </text>
<polyline fill="none" stroke="red" points="323.389,-262 429.389,-262 "/>
<text text-anchor="start" x="331.389" y="-250" font-family="Helvetica,sans-Serif" font-size="10.00">+ FName()</text>
<text text-anchor="start" x="331.389" y="-239" font-family="Helvetica,sans-Serif" font-size="10.00">+ FName()</text>
<text text-anchor="start" x="331.389" y="-228" font-family="Helvetica,sans-Serif" font-size="10.00">+ FName()</text>
<text text-anchor="start" x="331.389" y="-217" font-family="Helvetica,sans-Serif" font-size="10.00">+ GetName()</text>
<text text-anchor="start" x="331.389" y="-206" font-family="Helvetica,sans-Serif" font-size="10.00">+ operator==()</text>
<text text-anchor="start" x="331.389" y="-195" font-family="Helvetica,sans-Serif" font-size="10.00">+ GetGlobalNames()</text>
</a>
</g>
</g>
<!-- Node4&#45;&gt;Node1 -->
<g id="edge5" class="edge"><title>Node4&#45;&gt;Node1</title>
<path fill="none" stroke="#404040" d="M384.823,-187.61C391.762,-145.568 401.676,-93.8439 409.389,-87 445.181,-55.2419 747.094,-42.2237 898.923,-37.6464"/>
<polygon fill="none" stroke="#404040" points="899.368,-37.6334 905.248,-33.4585 911.363,-37.2801 905.483,-41.455 899.368,-37.6334"/>
<text text-anchor="middle" x="457.889" y="-123" font-family="Helvetica,sans-Serif" font-size="10.00"> +SpawnLocationType</text>
<text text-anchor="middle" x="457.889" y="-112" font-family="Helvetica,sans-Serif" font-size="10.00">+NavMeshOverride</text>
</g>
<!-- Node24 -->
<g id="node6" class="node"><title>Node24</title>
<g id="a_node6"><a xlink:href="a25847.html" target="_top" xlink:title=" ">
<polygon fill="none" stroke="black" points="447.389,-182.5 447.389,-305.5 611.389,-305.5 611.389,-182.5 447.389,-182.5"/>
<text text-anchor="start" x="455.389" y="-293.5" font-family="Helvetica,sans-Serif" font-size="10.00">SDK::TEnumAsByte&lt; EEnvQuery</text>
<text text-anchor="middle" x="529.389" y="-282.5" font-family="Helvetica,sans-Serif" font-size="10.00">RunMode &gt;</text>
<polyline fill="none" stroke="black" points="447.389,-275.5 611.389,-275.5 "/>
<text text-anchor="middle" x="529.389" y="-263.5" font-family="Helvetica,sans-Serif" font-size="10.00"> </text>
<polyline fill="none" stroke="black" points="447.389,-256.5 611.389,-256.5 "/>
<text text-anchor="start" x="455.389" y="-244.5" font-family="Helvetica,sans-Serif" font-size="10.00">+ TEnumAsByte()</text>
<text text-anchor="start" x="455.389" y="-233.5" font-family="Helvetica,sans-Serif" font-size="10.00">+ TEnumAsByte()</text>
<text text-anchor="start" x="455.389" y="-222.5" font-family="Helvetica,sans-Serif" font-size="10.00">+ TEnumAsByte()</text>
<text text-anchor="start" x="455.389" y="-211.5" font-family="Helvetica,sans-Serif" font-size="10.00">+ TEnumAsByte()</text>
<text text-anchor="start" x="455.389" y="-200.5" font-family="Helvetica,sans-Serif" font-size="10.00">+ operator EEnvQueryRunMode()</text>
<text text-anchor="start" x="455.389" y="-189.5" font-family="Helvetica,sans-Serif" font-size="10.00">+ GetValue()</text>
</a>
</g>
</g>
<!-- Node24&#45;&gt;Node1 -->
<g id="edge6" class="edge"><title>Node24&#45;&gt;Node1</title>
<path fill="none" stroke="#404040" d="M512.189,-182.421C506.981,-150.263 507.665,-112.278 530.389,-87 554.532,-60.1448 773.616,-45.4674 898.755,-39.2098"/>
<polygon fill="none" stroke="#404040" points="898.947,-39.2005 904.744,-34.9113 910.933,-38.6126 905.136,-42.9017 898.947,-39.2005"/>
<text text-anchor="middle" x="601.389" y="-117.5" font-family="Helvetica,sans-Serif" font-size="10.00"> +FindSpawnPosQueryRunMode</text>
</g>
<!-- Node12 -->
<g id="node7" class="node"><title>Node12</title>
<g id="a_node7"><a xlink:title=" ">
<polygon fill="none" stroke="#bfbfbf" points="887.889,-408.5 887.889,-465.5 922.889,-465.5 922.889,-408.5 887.889,-408.5"/>
<text text-anchor="middle" x="905.389" y="-453.5" font-family="Helvetica,sans-Serif" font-size="10.00">char</text>
<polyline fill="none" stroke="#bfbfbf" points="887.889,-446.5 922.889,-446.5 "/>
<text text-anchor="middle" x="905.389" y="-434.5" font-family="Helvetica,sans-Serif" font-size="10.00"> </text>
<polyline fill="none" stroke="#bfbfbf" points="887.889,-427.5 922.889,-427.5 "/>
<text text-anchor="middle" x="905.389" y="-415.5" font-family="Helvetica,sans-Serif" font-size="10.00"> </text>
</a>
</g>
</g>
<!-- Node12&#45;&gt;Node1 -->
<g id="edge7" class="edge"><title>Node12&#45;&gt;Node1</title>
<path fill="none" stroke="#404040" d="M887.673,-433.861C840.068,-427.048 709.408,-401.101 656.389,-317 621.785,-262.108 622.752,-226.49 656.389,-171 682.745,-127.523 811.234,-83.9343 899.615,-58.3537"/>
<polygon fill="none" stroke="#404040" points="899.727,-58.3216 904.394,-52.8247 911.264,-55.0187 906.596,-60.5157 899.727,-58.3216"/>
<text text-anchor="middle" x="696.389" y="-274.5" font-family="Helvetica,sans-Serif" font-size="10.00"> +UnknownData01</text>
<text text-anchor="middle" x="696.389" y="-263.5" font-family="Helvetica,sans-Serif" font-size="10.00">+UnknownData02</text>
<text text-anchor="middle" x="696.389" y="-252.5" font-family="Helvetica,sans-Serif" font-size="10.00">+UnknownData03</text>
<text text-anchor="middle" x="696.389" y="-241.5" font-family="Helvetica,sans-Serif" font-size="10.00">+UnknownData04</text>
<text text-anchor="middle" x="696.389" y="-230.5" font-family="Helvetica,sans-Serif" font-size="10.00">+UnknownData05</text>
<text text-anchor="middle" x="696.389" y="-219.5" font-family="Helvetica,sans-Serif" font-size="10.00">+UnknownData06</text>
<text text-anchor="middle" x="696.389" y="-208.5" font-family="Helvetica,sans-Serif" font-size="10.00">+UnknownData00</text>
</g>
<!-- Node12&#45;&gt;Node25 -->
<g id="edge10" class="edge"><title>Node12&#45;&gt;Node25</title>
<path fill="none" stroke="#404040" d="M923.019,-419.787C931.26,-411.493 940.706,-400.87 947.389,-390 966.662,-358.654 981.032,-319.45 990.242,-289.713"/>
<polygon fill="none" stroke="#404040" points="990.306,-289.5 988.198,-282.603 993.754,-278.006 995.861,-284.902 990.306,-289.5"/>
<text text-anchor="middle" x="1014.39" y="-360" font-family="Helvetica,sans-Serif" font-size="10.00"> +UnknownData00</text>
</g>
<!-- Node12&#45;&gt;Node36 -->
<g id="edge21" class="edge"><title>Node12&#45;&gt;Node36</title>
<path fill="none" stroke="#404040" d="M887.747,-410.325C883.713,-403.855 879.656,-396.81 876.389,-390 860.801,-357.504 847.719,-318.837 838.851,-289.608"/>
<polygon fill="none" stroke="#404040" points="838.851,-289.607 833.306,-284.996 835.43,-278.105 840.974,-282.716 838.851,-289.607"/>
<text text-anchor="middle" x="916.389" y="-360" font-family="Helvetica,sans-Serif" font-size="10.00"> +UnknownData00</text>
</g>
<!-- Node38 -->
<g id="node16" class="node"><title>Node38</title>
<g id="a_node16"><a xlink:href="a24983.html" target="_top" xlink:title=" ">
<polygon fill="none" stroke="red" points="1335.89,-215.5 1335.89,-272.5 1520.89,-272.5 1520.89,-215.5 1335.89,-215.5"/>
<text text-anchor="middle" x="1428.39" y="-260.5" font-family="Helvetica,sans-Serif" font-size="10.00">SDK::FAISpawnTypeParamsCollection</text>
<polyline fill="none" stroke="red" points="1335.89,-253.5 1520.89,-253.5 "/>
<text text-anchor="middle" x="1428.39" y="-241.5" font-family="Helvetica,sans-Serif" font-size="10.00"> </text>
<polyline fill="none" stroke="red" points="1335.89,-234.5 1520.89,-234.5 "/>
<text text-anchor="middle" x="1428.39" y="-222.5" font-family="Helvetica,sans-Serif" font-size="10.00"> </text>
</a>
</g>
</g>
<!-- Node12&#45;&gt;Node38 -->
<g id="edge24" class="edge"><title>Node12&#45;&gt;Node38</title>
<path fill="none" stroke="#404040" d="M922.897,-436.382C972.58,-436.872 1117.94,-434.152 1227.39,-390 1290.66,-364.477 1352.67,-314.944 1390.7,-280.935"/>
<polygon fill="none" stroke="#404040" points="1390.95,-280.708 1392.71,-273.715 1399.84,-272.647 1398.08,-279.641 1390.95,-280.708"/>
<text text-anchor="middle" x="1361.39" y="-365.5" font-family="Helvetica,sans-Serif" font-size="10.00"> +UnknownData01</text>
<text text-anchor="middle" x="1361.39" y="-354.5" font-family="Helvetica,sans-Serif" font-size="10.00">+UnknownData00</text>
</g>
<!-- Node25&#45;&gt;Node1 -->
<g id="edge8" class="edge"><title>Node25&#45;&gt;Node1</title>
<path fill="none" stroke="#404040" d="M995.125,-209.842C991.768,-192.924 988.143,-171.963 986.389,-153 984.198,-129.312 983.796,-102.824 984.007,-81.0013"/>
<polygon fill="none" stroke="#404040" points="984.011,-80.7469 980.103,-74.6867 984.194,-68.7483 988.102,-74.8085 984.011,-80.7469"/>
<text text-anchor="middle" x="1058.89" y="-117.5" font-family="Helvetica,sans-Serif" font-size="10.00"> +DefaultSpawnWaveProgression</text>
</g>
<!-- Node26 -->
<g id="node9" class="node"><title>Node26</title>
<g id="a_node9"><a xlink:title=" ">
<polygon fill="none" stroke="#bfbfbf" points="1730.89,-408.5 1730.89,-465.5 1759.89,-465.5 1759.89,-408.5 1730.89,-408.5"/>
<text text-anchor="middle" x="1745.39" y="-453.5" font-family="Helvetica,sans-Serif" font-size="10.00">int</text>
<polyline fill="none" stroke="#bfbfbf" points="1730.89,-446.5 1759.89,-446.5 "/>
<text text-anchor="middle" x="1745.39" y="-434.5" font-family="Helvetica,sans-Serif" font-size="10.00"> </text>
<polyline fill="none" stroke="#bfbfbf" points="1730.89,-427.5 1759.89,-427.5 "/>
<text text-anchor="middle" x="1745.39" y="-415.5" font-family="Helvetica,sans-Serif" font-size="10.00"> </text>
</a>
</g>
</g>
<!-- Node26&#45;&gt;Node1 -->
<g id="edge13" class="edge"><title>Node26&#45;&gt;Node1</title>
<path fill="none" stroke="#404040" d="M1759.99,-420.78C1779.75,-399.343 1814.79,-358.245 1834.39,-317 1856.67,-270.107 1911.02,-124.756 1875.39,-87 1848.07,-58.0537 1289.85,-42.3712 1071.69,-37.3288"/>
<polygon fill="none" stroke="#404040" points="1071.68,-37.3288 1065.59,-41.1904 1059.69,-37.0542 1065.78,-33.1925 1071.68,-37.3288"/>
<text text-anchor="middle" x="1944.39" y="-247" font-family="Helvetica,sans-Serif" font-size="10.00"> +PriorityForSpawnedPawns</text>
<text text-anchor="middle" x="1944.39" y="-236" font-family="Helvetica,sans-Serif" font-size="10.00">+MaxNumOfSpawnedPawns</text>
</g>
<!-- Node26&#45;&gt;Node25 -->
<g id="edge11" class="edge"><title>Node26&#45;&gt;Node25</title>
<path fill="none" stroke="#404040" d="M1730.77,-430.317C1684.17,-412.493 1534.6,-357.544 1405.39,-335 1335.88,-322.872 1154,-342.966 1088.39,-317 1071.18,-310.188 1054.89,-298.507 1041.21,-286.512"/>
<polygon fill="none" stroke="#404040" points="1041.02,-286.333 1033.89,-285.219 1032.18,-278.214 1039.31,-279.328 1041.02,-286.333"/>
<text text-anchor="middle" x="1649.89" y="-360" font-family="Helvetica,sans-Serif" font-size="10.00"> +NumberOfRanks</text>
</g>
<!-- Node30 -->
<g id="node12" class="node"><title>Node30</title>
<g id="a_node12"><a xlink:href="a24159.html" target="_top" xlink:title=" ">
<polygon fill="none" stroke="red" points="2031.89,-171.5 2031.89,-316.5 2246.89,-316.5 2246.89,-171.5 2031.89,-171.5"/>
<text text-anchor="middle" x="2139.39" y="-304.5" font-family="Helvetica,sans-Serif" font-size="10.00">SDK::UAthenaAISettings</text>
<polyline fill="none" stroke="red" points="2031.89,-297.5 2246.89,-297.5 "/>
<text text-anchor="start" x="2039.89" y="-285.5" font-family="Helvetica,sans-Serif" font-size="10.00">+ CharacterNetRelevancy</text>
<text text-anchor="start" x="2039.89" y="-274.5" font-family="Helvetica,sans-Serif" font-size="10.00">+ CharacterWorldDensityCheck</text>
<text text-anchor="start" x="2039.89" y="-263.5" font-family="Helvetica,sans-Serif" font-size="10.00">Timer</text>
<text text-anchor="start" x="2039.89" y="-252.5" font-family="Helvetica,sans-Serif" font-size="10.00">+ MaxRetryingCanSpawnRequestTime</text>
<text text-anchor="start" x="2039.89" y="-241.5" font-family="Helvetica,sans-Serif" font-size="10.00">+ FaunaPlayerProximityTickTime</text>
<text text-anchor="start" x="2039.89" y="-230.5" font-family="Helvetica,sans-Serif" font-size="10.00">+ FaunaTimeOutOfPlayerProximity</text>
<text text-anchor="start" x="2039.89" y="-219.5" font-family="Helvetica,sans-Serif" font-size="10.00">ForDormancy</text>
<text text-anchor="start" x="2039.89" y="-208.5" font-family="Helvetica,sans-Serif" font-size="10.00">+ DefaultNavAgentCapsuleRadius</text>
<text text-anchor="start" x="2039.89" y="-197.5" font-family="Helvetica,sans-Serif" font-size="10.00">+ MaxDelayBeforeRetryingUnsuccessfulWave</text>
<polyline fill="none" stroke="red" points="2031.89,-190.5 2246.89,-190.5 "/>
<text text-anchor="start" x="2039.89" y="-178.5" font-family="Helvetica,sans-Serif" font-size="10.00">+ StaticClass()</text>
</a>
</g>
</g>
<!-- Node26&#45;&gt;Node30 -->
<g id="edge16" class="edge"><title>Node26&#45;&gt;Node30</title>
<path fill="none" stroke="#404040" d="M1760.23,-433.072C1788.77,-427.14 1852.98,-412.339 1903.39,-390 1944.98,-371.569 1988.06,-346.958 2025.85,-323.252"/>
<polygon fill="none" stroke="#404040" points="2026.23,-323.015 2029.16,-316.425 2036.37,-316.595 2033.44,-323.184 2026.23,-323.015"/>
<text text-anchor="middle" x="2081.89" y="-382" font-family="Helvetica,sans-Serif" font-size="10.00"> +MaxWorldAICostUnitsForWorld</text>
<text text-anchor="middle" x="2081.89" y="-371" font-family="Helvetica,sans-Serif" font-size="10.00">+MaxPlayerEquivalentAIsPerRegion</text>
<text text-anchor="middle" x="2081.89" y="-360" font-family="Helvetica,sans-Serif" font-size="10.00">+FallbackAIDifficultyRank</text>
<text text-anchor="middle" x="2081.89" y="-349" font-family="Helvetica,sans-Serif" font-size="10.00">+AIRegionCostUnitsForPlayer</text>
<text text-anchor="middle" x="2081.89" y="-338" font-family="Helvetica,sans-Serif" font-size="10.00">+MaxNumOfSpawnedActors</text>
</g>
<!-- Node26&#45;&gt;Node36 -->
<g id="edge22" class="edge"><title>Node26&#45;&gt;Node36</title>
<path fill="none" stroke="#404040" d="M1730.75,-435.868C1649.77,-434.989 1256.32,-428.761 1142.39,-390 1100.14,-375.627 1100.27,-350.405 1058.39,-335 998.27,-312.887 974.322,-342.105 915.389,-317 898.305,-309.722 881.835,-298.165 867.808,-286.423"/>
<polygon fill="none" stroke="#404040" points="867.553,-286.201 860.402,-285.272 858.509,-278.314 865.66,-279.242 867.553,-286.201"/>
<text text-anchor="middle" x="1182.89" y="-360" font-family="Helvetica,sans-Serif" font-size="10.00"> +NumberOfRanks</text>
</g>
<!-- Node28 -->
<g id="node10" class="node"><title>Node28</title>
<g id="a_node10"><a xlink:href="a25847.html" target="_top" xlink:title=" ">
<polygon fill="none" stroke="black" points="1097.89,-182.5 1097.89,-305.5 1264.89,-305.5 1264.89,-182.5 1097.89,-182.5"/>
<text text-anchor="start" x="1105.89" y="-293.5" font-family="Helvetica,sans-Serif" font-size="10.00">SDK::TEnumAsByte&lt; EAthena</text>
<text text-anchor="middle" x="1181.39" y="-282.5" font-family="Helvetica,sans-Serif" font-size="10.00">AISpawnType &gt;</text>
<polyline fill="none" stroke="black" points="1097.89,-275.5 1264.89,-275.5 "/>
<text text-anchor="middle" x="1181.39" y="-263.5" font-family="Helvetica,sans-Serif" font-size="10.00"> </text>
<polyline fill="none" stroke="black" points="1097.89,-256.5 1264.89,-256.5 "/>
<text text-anchor="start" x="1105.89" y="-244.5" font-family="Helvetica,sans-Serif" font-size="10.00">+ TEnumAsByte()</text>
<text text-anchor="start" x="1105.89" y="-233.5" font-family="Helvetica,sans-Serif" font-size="10.00">+ TEnumAsByte()</text>
<text text-anchor="start" x="1105.89" y="-222.5" font-family="Helvetica,sans-Serif" font-size="10.00">+ TEnumAsByte()</text>
<text text-anchor="start" x="1105.89" y="-211.5" font-family="Helvetica,sans-Serif" font-size="10.00">+ TEnumAsByte()</text>
<text text-anchor="start" x="1105.89" y="-200.5" font-family="Helvetica,sans-Serif" font-size="10.00">+ operator EAthenaAISpawnType()</text>
<text text-anchor="start" x="1105.89" y="-189.5" font-family="Helvetica,sans-Serif" font-size="10.00">+ GetValue()</text>
</a>
</g>
</g>
<!-- Node28&#45;&gt;Node1 -->
<g id="edge12" class="edge"><title>Node28&#45;&gt;Node1</title>
<path fill="none" stroke="#404040" d="M1163.23,-182.095C1150.44,-139.912 1134.97,-90.6846 1131.39,-87 1115.12,-70.2547 1093.09,-58.9439 1071.07,-51.3075"/>
<polygon fill="none" stroke="#404040" points="1071.02,-51.2914 1064.08,-53.2759 1059.59,-47.6397 1066.52,-45.6552 1071.02,-51.2914"/>
<text text-anchor="middle" x="1200.89" y="-117.5" font-family="Helvetica,sans-Serif" font-size="10.00"> +OverrideSpawnType</text>
</g>
<!-- Node29 -->
<g id="node11" class="node"><title>Node29</title>
<g id="a_node11"><a xlink:title=" ">
<polygon fill="none" stroke="#bfbfbf" points="1282.89,-215.5 1282.89,-272.5 1317.89,-272.5 1317.89,-215.5 1282.89,-215.5"/>
<text text-anchor="middle" x="1300.39" y="-260.5" font-family="Helvetica,sans-Serif" font-size="10.00">bool</text>
<polyline fill="none" stroke="#bfbfbf" points="1282.89,-253.5 1317.89,-253.5 "/>
<text text-anchor="middle" x="1300.39" y="-241.5" font-family="Helvetica,sans-Serif" font-size="10.00"> </text>
<polyline fill="none" stroke="#bfbfbf" points="1282.89,-234.5 1317.89,-234.5 "/>
<text text-anchor="middle" x="1300.39" y="-222.5" font-family="Helvetica,sans-Serif" font-size="10.00"> </text>
</a>
</g>
</g>
<!-- Node29&#45;&gt;Node1 -->
<g id="edge14" class="edge"><title>Node29&#45;&gt;Node1</title>
<path fill="none" stroke="#404040" d="M1291.7,-215.236C1277.81,-170.989 1251.88,-89.1994 1249.39,-87 1223.37,-64.0025 1138.46,-50.3434 1071.88,-42.9347"/>
<polygon fill="none" stroke="#404040" points="1071.61,-42.9059 1065.22,-46.2416 1059.68,-41.6232 1066.07,-38.2875 1071.61,-42.9059"/>
<text text-anchor="start" x="1272.39" y="-145" font-family="Helvetica,sans-Serif" font-size="10.00"> +IgnoreSpawningGracePeriod</text>
<text text-anchor="middle" x="1345.39" y="-134" font-family="Helvetica,sans-Serif" font-size="10.00">ForNewCrew</text>
<text text-anchor="start" x="1272.39" y="-123" font-family="Helvetica,sans-Serif" font-size="10.00">+RemoveWhenRemovingRegional</text>
<text text-anchor="middle" x="1345.39" y="-112" font-family="Helvetica,sans-Serif" font-size="10.00">Spawners</text>
<text text-anchor="middle" x="1345.39" y="-101" font-family="Helvetica,sans-Serif" font-size="10.00">+HasSpawnerLevelEncounters</text>
<text text-anchor="middle" x="1345.39" y="-90" font-family="Helvetica,sans-Serif" font-size="10.00">+UseOverrideSpawnType</text>
</g>
<!-- Node30&#45;&gt;Node1 -->
<g id="edge15" class="edge"><title>Node30&#45;&gt;Node1</title>
<path fill="none" stroke="#404040" d="M2055,-171.367C2012.38,-139.51 1958.17,-105.157 1903.39,-87 1825.82,-61.2894 1284.97,-43.7588 1071.63,-37.7726"/>
<polygon fill="none" stroke="#404040" points="1071.58,-37.7712 1065.47,-41.6025 1059.58,-37.437 1065.69,-33.6056 1071.58,-37.7712"/>
<text text-anchor="middle" x="2067.89" y="-117.5" font-family="Helvetica,sans-Serif" font-size="10.00"> +AthenaAISettings</text>
</g>
<!-- Node33 -->
<g id="node13" class="node"><title>Node33</title>
<g id="a_node13"><a xlink:href="a25823.html" target="_top" xlink:title=" ">
<polygon fill="none" stroke="black" points="1539.39,-182.5 1539.39,-305.5 1715.39,-305.5 1715.39,-182.5 1539.39,-182.5"/>
<text text-anchor="start" x="1547.39" y="-293.5" font-family="Helvetica,sans-Serif" font-size="10.00">SDK::TArray&lt; struct</text>
<text text-anchor="start" x="1547.39" y="-282.5" font-family="Helvetica,sans-Serif" font-size="10.00"> SDK::FAISpawnContextIdEncounter</text>
<text text-anchor="middle" x="1627.39" y="-271.5" font-family="Helvetica,sans-Serif" font-size="10.00">SettingsPair &gt;</text>
<polyline fill="none" stroke="black" points="1539.39,-264.5 1715.39,-264.5 "/>
<text text-anchor="middle" x="1627.39" y="-252.5" font-family="Helvetica,sans-Serif" font-size="10.00"> </text>
<polyline fill="none" stroke="black" points="1539.39,-245.5 1715.39,-245.5 "/>
<text text-anchor="start" x="1547.39" y="-233.5" font-family="Helvetica,sans-Serif" font-size="10.00">+ TArray()</text>
<text text-anchor="start" x="1547.39" y="-222.5" font-family="Helvetica,sans-Serif" font-size="10.00">+ Num()</text>
<text text-anchor="start" x="1547.39" y="-211.5" font-family="Helvetica,sans-Serif" font-size="10.00">+ operator[]()</text>
<text text-anchor="start" x="1547.39" y="-200.5" font-family="Helvetica,sans-Serif" font-size="10.00">+ operator[]()</text>
<text text-anchor="start" x="1547.39" y="-189.5" font-family="Helvetica,sans-Serif" font-size="10.00">+ IsValidIndex()</text>
</a>
</g>
</g>
<!-- Node33&#45;&gt;Node1 -->
<g id="edge17" class="edge"><title>Node33&#45;&gt;Node1</title>
<path fill="none" stroke="#404040" d="M1609.44,-182.326C1596.71,-141.231 1580.5,-93.2919 1572.39,-87 1533.75,-57.0316 1225.4,-43.1009 1071.76,-37.9684"/>
<polygon fill="none" stroke="#404040" points="1071.62,-37.9639 1065.49,-41.7651 1059.63,-37.5706 1065.75,-33.7694 1071.62,-37.9639"/>
<text text-anchor="start" x="1600.39" y="-123" font-family="Helvetica,sans-Serif" font-size="10.00"> +SpawnContextSpecificEncounter</text>
<text text-anchor="middle" x="1675.89" y="-112" font-family="Helvetica,sans-Serif" font-size="10.00">Settings</text>
</g>
<!-- Node34 -->
<g id="node14" class="node"><title>Node34</title>
<g id="a_node14"><a xlink:href="a01287.html" target="_top" xlink:title=" ">
<polygon fill="none" stroke="red" points="1733.39,-215.5 1733.39,-272.5 1825.39,-272.5 1825.39,-215.5 1733.39,-215.5"/>
<text text-anchor="middle" x="1779.39" y="-260.5" font-family="Helvetica,sans-Serif" font-size="10.00">SDK::UEnvQuery</text>
<polyline fill="none" stroke="red" points="1733.39,-253.5 1825.39,-253.5 "/>
<text text-anchor="middle" x="1779.39" y="-241.5" font-family="Helvetica,sans-Serif" font-size="10.00"> </text>
<polyline fill="none" stroke="red" points="1733.39,-234.5 1825.39,-234.5 "/>
<text text-anchor="start" x="1741.39" y="-222.5" font-family="Helvetica,sans-Serif" font-size="10.00">+ StaticClass()</text>
</a>
</g>
</g>
<!-- Node34&#45;&gt;Node1 -->
<g id="edge18" class="edge"><title>Node34&#45;&gt;Node1</title>
<path fill="none" stroke="#404040" d="M1778.38,-215.286C1776.29,-175.109 1769.99,-103.655 1751.39,-87 1701.68,-42.4986 1261.13,-36.1051 1071.54,-35.4315"/>
<polygon fill="none" stroke="#404040" points="1071.42,-35.4312 1065.41,-39.4131 1059.42,-35.3951 1065.43,-31.4132 1071.42,-35.4312"/>
<text text-anchor="middle" x="1823.89" y="-117.5" font-family="Helvetica,sans-Serif" font-size="10.00"> +FindSpawnPosQuery</text>
</g>
<!-- Node36&#45;&gt;Node1 -->
<g id="edge19" class="edge"><title>Node36&#45;&gt;Node1</title>
<path fill="none" stroke="#404040" d="M820.861,-209.693C817.098,-175.268 816.957,-121.787 844.389,-87 858.209,-69.4748 878.563,-57.9117 899.531,-50.2828"/>
<polygon fill="none" stroke="#404040" points="899.809,-50.1914 904.256,-44.5148 911.206,-46.4365 906.759,-52.1131 899.809,-50.1914"/>
<text text-anchor="middle" x="912.389" y="-117.5" font-family="Helvetica,sans-Serif" font-size="10.00"> +DefaultRespawnTimerRanges</text>
</g>
<!-- Node38&#45;&gt;Node1 -->
<g id="edge23" class="edge"><title>Node38&#45;&gt;Node1</title>
<path fill="none" stroke="#404040" d="M1430.67,-215.268C1433.28,-175.432 1435.28,-104.833 1418.39,-87 1395.02,-62.3228 1191.36,-46.9246 1071.86,-39.9306"/>
<polygon fill="none" stroke="#404040" points="1071.83,-39.9293 1065.61,-43.5779 1059.85,-39.2397 1066.07,-35.5911 1071.83,-39.9293"/>
<text text-anchor="middle" x="1500.39" y="-117.5" font-family="Helvetica,sans-Serif" font-size="10.00"> +SpawnTypeParamsCollection</text>
</g>
</g>
</svg>
