<?xml version="1.0" encoding="UTF-8" standalone="no"?>
<!DOCTYPE svg PUBLIC "-//W3C//DTD SVG 1.1//EN"
 "http://www.w3.org/Graphics/SVG/1.1/DTD/svg11.dtd">
<!-- Generated by graphviz version 2.38.0 (20140413.2041)
 -->
<!-- Title: SDK::UAthenaAISettings Pages: 1 -->
<!--zoomable 413 -->
<svg id="main" version="1.1" xmlns="http://www.w3.org/2000/svg" xmlns:xlink="http://www.w3.org/1999/xlink" xml:space="preserve" onload="init(evt)">
<style type="text/css"><![CDATA[
.edge:hover path { stroke: red; }
.edge:hover polygon { stroke: red; fill: red; }
]]></style>
<script type="text/javascript"><![CDATA[
var edges = document.getElementsByTagName('g');
if (edges && edges.length) {
  for (var i=0;i<edges.length;i++) {
    if (edges[i].id.substr(0,4)=='edge') {
      edges[i].setAttribute('class','edge');
    }
  }
}
]]></script>
        <defs>
                <circle id="rim" cx="0" cy="0" r="7"/>
                <circle id="rim2" cx="0" cy="0" r="3.5"/>
                <g id="zoomPlus">
                        <use xlink:href="#rim" fill="#404040">
                                <set attributeName="fill" to="#808080" begin="zoomplus.mouseover" end="zoomplus.mouseout"/>
                        </use>
                        <path d="M-4,0h8M0,-4v8" fill="none" stroke="white" stroke-width="1.5" pointer-events="none"/>
                </g>
                <g id="zoomMin">
                        <use xlink:href="#rim" fill="#404040">
                                <set attributeName="fill" to="#808080" begin="zoomminus.mouseover" end="zoomminus.mouseout"/>
                        </use>
                        <path d="M-4,0h8" fill="none" stroke="white" stroke-width="1.5" pointer-events="none"/>
                </g>
                <g id="dirArrow">
                        <path fill="none" stroke="white" stroke-width="1.5" d="M0,-3.0v7 M-2.5,-0.5L0,-3.0L2.5,-0.5"/>
                </g>
               <g id="resetDef">
                       <use xlink:href="#rim2" fill="#404040">
                               <set attributeName="fill" to="#808080" begin="reset.mouseover" end="reset.mouseout"/>
                       </use>
               </g>
        </defs>

<script type="text/javascript">
var viewWidth = 702;
var viewHeight = 413;
var sectionId = 'dynsection-1';
</script>
<script xlink:href="svgpan.js"/>
<svg id="graph" class="graph">
<g id="viewport">
<title>SDK::UAthenaAISettings</title>
<!-- Node1 -->
<g id="node1" class="node"><title>Node1</title>
<g id="a_node1"><a xlink:title=" ">
<polygon fill="#bfbfbf" stroke="black" points="156.5,-0.5 156.5,-145.5 371.5,-145.5 371.5,-0.5 156.5,-0.5"/>
<text text-anchor="middle" x="264" y="-133.5" font-family="Helvetica,sans-Serif" font-size="10.00">SDK::UAthenaAISettings</text>
<polyline fill="none" stroke="black" points="156.5,-126.5 371.5,-126.5 "/>
<text text-anchor="start" x="164.5" y="-114.5" font-family="Helvetica,sans-Serif" font-size="10.00">+ CharacterNetRelevancy</text>
<text text-anchor="start" x="164.5" y="-103.5" font-family="Helvetica,sans-Serif" font-size="10.00">+ CharacterWorldDensityCheck</text>
<text text-anchor="start" x="164.5" y="-92.5" font-family="Helvetica,sans-Serif" font-size="10.00">Timer</text>
<text text-anchor="start" x="164.5" y="-81.5" font-family="Helvetica,sans-Serif" font-size="10.00">+ MaxRetryingCanSpawnRequestTime</text>
<text text-anchor="start" x="164.5" y="-70.5" font-family="Helvetica,sans-Serif" font-size="10.00">+ FaunaPlayerProximityTickTime</text>
<text text-anchor="start" x="164.5" y="-59.5" font-family="Helvetica,sans-Serif" font-size="10.00">+ FaunaTimeOutOfPlayerProximity</text>
<text text-anchor="start" x="164.5" y="-48.5" font-family="Helvetica,sans-Serif" font-size="10.00">ForDormancy</text>
<text text-anchor="start" x="164.5" y="-37.5" font-family="Helvetica,sans-Serif" font-size="10.00">+ DefaultNavAgentCapsuleRadius</text>
<text text-anchor="start" x="164.5" y="-26.5" font-family="Helvetica,sans-Serif" font-size="10.00">+ MaxDelayBeforeRetryingUnsuccessfulWave</text>
<polyline fill="none" stroke="black" points="156.5,-19.5 371.5,-19.5 "/>
<text text-anchor="start" x="164.5" y="-7.5" font-family="Helvetica,sans-Serif" font-size="10.00">+ StaticClass()</text>
</a>
</g>
</g>
<!-- Node2 -->
<g id="node2" class="node"><title>Node2</title>
<g id="a_node2"><a xlink:href="a27591.html" target="_top" xlink:title=" ">
<polygon fill="none" stroke="red" points="0,-347.5 0,-404.5 128,-404.5 128,-347.5 0,-347.5"/>
<text text-anchor="middle" x="64" y="-392.5" font-family="Helvetica,sans-Serif" font-size="10.00">SDK::UDeveloperSettings</text>
<polyline fill="none" stroke="red" points="0,-385.5 128,-385.5 "/>
<text text-anchor="middle" x="64" y="-373.5" font-family="Helvetica,sans-Serif" font-size="10.00"> </text>
<polyline fill="none" stroke="red" points="0,-366.5 128,-366.5 "/>
<text text-anchor="start" x="8" y="-354.5" font-family="Helvetica,sans-Serif" font-size="10.00">+ StaticClass()</text>
</a>
</g>
</g>
<!-- Node2&#45;&gt;Node1 -->
<g id="edge1" class="edge"><title>Node2&#45;&gt;Node1</title>
<path fill="none" stroke="midnightblue" d="M71.5069,-337.405C81.8839,-292.608 104.021,-217.156 144,-164 148.774,-157.652 154.114,-151.54 159.817,-145.696"/>
<polygon fill="none" stroke="midnightblue" points="68.0632,-336.767 69.2932,-347.29 74.894,-338.297 68.0632,-336.767"/>
</g>
<!-- Node14 -->
<g id="node3" class="node"><title>Node14</title>
<g id="a_node3"><a xlink:title=" ">
<polygon fill="none" stroke="#bfbfbf" points="146.5,-347.5 146.5,-404.5 181.5,-404.5 181.5,-347.5 146.5,-347.5"/>
<text text-anchor="middle" x="164" y="-392.5" font-family="Helvetica,sans-Serif" font-size="10.00">float</text>
<polyline fill="none" stroke="#bfbfbf" points="146.5,-385.5 181.5,-385.5 "/>
<text text-anchor="middle" x="164" y="-373.5" font-family="Helvetica,sans-Serif" font-size="10.00"> </text>
<polyline fill="none" stroke="#bfbfbf" points="146.5,-366.5 181.5,-366.5 "/>
<text text-anchor="middle" x="164" y="-354.5" font-family="Helvetica,sans-Serif" font-size="10.00"> </text>
</a>
</g>
</g>
<!-- Node14&#45;&gt;Node1 -->
<g id="edge2" class="edge"><title>Node14&#45;&gt;Node1</title>
<path fill="none" stroke="#404040" d="M157.334,-347.224C148.758,-305.414 137.958,-224.74 165,-164 166.196,-161.314 167.515,-158.674 168.943,-156.082"/>
<polygon fill="none" stroke="#404040" points="169.06,-155.894 168.824,-148.687 175.387,-145.697 175.622,-152.905 169.06,-155.894"/>
<text text-anchor="start" x="165" y="-321" font-family="Helvetica,sans-Serif" font-size="10.00"> +DefaultNavAgentCapsuleHalf</text>
<text text-anchor="middle" x="254" y="-310" font-family="Helvetica,sans-Serif" font-size="10.00">Height</text>
<text text-anchor="start" x="165" y="-299" font-family="Helvetica,sans-Serif" font-size="10.00">+MinRetryingCanSpawnRequest</text>
<text text-anchor="middle" x="254" y="-288" font-family="Helvetica,sans-Serif" font-size="10.00">Time</text>
<text text-anchor="middle" x="254" y="-277" font-family="Helvetica,sans-Serif" font-size="10.00">+CharacterAINoiseTickInterval</text>
<text text-anchor="start" x="165" y="-266" font-family="Helvetica,sans-Serif" font-size="10.00">+FaunaPlayerProximityDormancy</text>
<text text-anchor="middle" x="254" y="-255" font-family="Helvetica,sans-Serif" font-size="10.00">Range</text>
<text text-anchor="middle" x="254" y="-244" font-family="Helvetica,sans-Serif" font-size="10.00">+MinRetryingLocationCheckTime</text>
<text text-anchor="start" x="165" y="-233" font-family="Helvetica,sans-Serif" font-size="10.00">+MinDelayBeforeRetryingUnsuccessful</text>
<text text-anchor="middle" x="254" y="-222" font-family="Helvetica,sans-Serif" font-size="10.00">Wave</text>
<text text-anchor="middle" x="254" y="-211" font-family="Helvetica,sans-Serif" font-size="10.00">+PeriodicAINoiseComponentTickInterval</text>
<text text-anchor="middle" x="254" y="-200" font-family="Helvetica,sans-Serif" font-size="10.00">+MaxRetryingLocationCheckTime</text>
<text text-anchor="middle" x="254" y="-189" font-family="Helvetica,sans-Serif" font-size="10.00">+DistanceToPlayerToRaiseSpawnPriority</text>
<text text-anchor="middle" x="254" y="-178" font-family="Helvetica,sans-Serif" font-size="10.00">+CharacterRegionDensityCheckTimer</text>
<text text-anchor="middle" x="254" y="-167" font-family="Helvetica,sans-Serif" font-size="10.00">...</text>
</g>
<!-- Node15 -->
<g id="node4" class="node"><title>Node15</title>
<g id="a_node4"><a xlink:href="a26419.html" target="_top" xlink:title=" ">
<polygon fill="none" stroke="red" points="293.5,-347.5 293.5,-404.5 436.5,-404.5 436.5,-347.5 293.5,-347.5"/>
<text text-anchor="middle" x="365" y="-392.5" font-family="Helvetica,sans-Serif" font-size="10.00">SDK::FStringAssetReference</text>
<polyline fill="none" stroke="red" points="293.5,-385.5 436.5,-385.5 "/>
<text text-anchor="middle" x="365" y="-373.5" font-family="Helvetica,sans-Serif" font-size="10.00"> </text>
<polyline fill="none" stroke="red" points="293.5,-366.5 436.5,-366.5 "/>
<text text-anchor="middle" x="365" y="-354.5" font-family="Helvetica,sans-Serif" font-size="10.00"> </text>
</a>
</g>
</g>
<!-- Node15&#45;&gt;Node1 -->
<g id="edge3" class="edge"><title>Node15&#45;&gt;Node1</title>
<path fill="none" stroke="#404040" d="M364.19,-347.332C362.401,-297.82 357.09,-196.228 343,-164 341.841,-161.348 340.574,-158.718 339.214,-156.116"/>
<polygon fill="none" stroke="#404040" points="339.138,-155.984 332.676,-152.785 333.144,-145.589 339.606,-148.788 339.138,-155.984"/>
<text text-anchor="middle" x="433.5" y="-277" font-family="Helvetica,sans-Serif" font-size="10.00"> +AITypesAsset</text>
<text text-anchor="start" x="364" y="-266" font-family="Helvetica,sans-Serif" font-size="10.00">+AIEncounterServiceAsset</text>
<text text-anchor="middle" x="433.5" y="-255" font-family="Helvetica,sans-Serif" font-size="10.00">ClassFileLocation</text>
<text text-anchor="middle" x="433.5" y="-244" font-family="Helvetica,sans-Serif" font-size="10.00">+AIPartIdListingAsset</text>
<text text-anchor="middle" x="433.5" y="-233" font-family="Helvetica,sans-Serif" font-size="10.00">+AISpawnContextListAsset</text>
<text text-anchor="start" x="364" y="-222" font-family="Helvetica,sans-Serif" font-size="10.00">+AIEncounterGenerationService</text>
<text text-anchor="middle" x="433.5" y="-211" font-family="Helvetica,sans-Serif" font-size="10.00">AssetClassFileLocation</text>
</g>
<!-- Node18 -->
<g id="node5" class="node"><title>Node18</title>
<g id="a_node5"><a xlink:title=" ">
<polygon fill="none" stroke="#bfbfbf" points="512.5,-347.5 512.5,-404.5 541.5,-404.5 541.5,-347.5 512.5,-347.5"/>
<text text-anchor="middle" x="527" y="-392.5" font-family="Helvetica,sans-Serif" font-size="10.00">int</text>
<polyline fill="none" stroke="#bfbfbf" points="512.5,-385.5 541.5,-385.5 "/>
<text text-anchor="middle" x="527" y="-373.5" font-family="Helvetica,sans-Serif" font-size="10.00"> </text>
<polyline fill="none" stroke="#bfbfbf" points="512.5,-366.5 541.5,-366.5 "/>
<text text-anchor="middle" x="527" y="-354.5" font-family="Helvetica,sans-Serif" font-size="10.00"> </text>
</a>
</g>
</g>
<!-- Node18&#45;&gt;Node1 -->
<g id="edge4" class="edge"><title>Node18&#45;&gt;Node1</title>
<path fill="none" stroke="#404040" d="M532.543,-347.392C539.659,-303.614 546.59,-217.738 505,-164 475.579,-125.984 428.297,-104.026 383.373,-91.3428"/>
<polygon fill="none" stroke="#404040" points="383.304,-91.3246 376.477,-93.6461 371.708,-88.237 378.535,-85.9155 383.304,-91.3246"/>
<text text-anchor="middle" x="615.5" y="-266" font-family="Helvetica,sans-Serif" font-size="10.00"> +MaxWorldAICostUnitsForWorld</text>
<text text-anchor="middle" x="615.5" y="-255" font-family="Helvetica,sans-Serif" font-size="10.00">+MaxPlayerEquivalentAIsPerRegion</text>
<text text-anchor="middle" x="615.5" y="-244" font-family="Helvetica,sans-Serif" font-size="10.00">+FallbackAIDifficultyRank</text>
<text text-anchor="middle" x="615.5" y="-233" font-family="Helvetica,sans-Serif" font-size="10.00">+AIRegionCostUnitsForPlayer</text>
<text text-anchor="middle" x="615.5" y="-222" font-family="Helvetica,sans-Serif" font-size="10.00">+MaxNumOfSpawnedActors</text>
</g>
</g>
</svg>
        <g id="navigator" transform="translate(0 0)" fill="#404254">
                <rect fill="#f2f5e9" fill-opacity="0.5" stroke="#606060" stroke-width=".5" x="0" y="0" width="60" height="60"/>
                <use id="zoomplus" xlink:href="#zoomPlus" x="17" y="9" onmousedown="handleZoom(evt,'in')"/>
                <use id="zoomminus" xlink:href="#zoomMin" x="42" y="9" onmousedown="handleZoom(evt,'out')"/>
                <use id="reset" xlink:href="#resetDef" x="30" y="36" onmousedown="handleReset()"/>
                <g id="arrowUp" xlink:href="#dirArrow" transform="translate(30 24)" onmousedown="handlePan(0,-1)">
                  <use xlink:href="#rim" fill="#404040">
                        <set attributeName="fill" to="#808080" begin="arrowUp.mouseover" end="arrowUp.mouseout"/>
                  </use>
                  <path fill="none" stroke="white" stroke-width="1.5" d="M0,-3.0v7 M-2.5,-0.5L0,-3.0L2.5,-0.5"/>
                </g>
                <g id="arrowRight" xlink:href="#dirArrow" transform="rotate(90) translate(36 -43)" onmousedown="handlePan(1,0)">
                  <use xlink:href="#rim" fill="#404040">
                        <set attributeName="fill" to="#808080" begin="arrowRight.mouseover" end="arrowRight.mouseout"/>
                  </use>
                  <path fill="none" stroke="white" stroke-width="1.5" d="M0,-3.0v7 M-2.5,-0.5L0,-3.0L2.5,-0.5"/>
                </g>
                <g id="arrowDown" xlink:href="#dirArrow" transform="rotate(180) translate(-30 -48)" onmousedown="handlePan(0,1)">
                  <use xlink:href="#rim" fill="#404040">
                        <set attributeName="fill" to="#808080" begin="arrowDown.mouseover" end="arrowDown.mouseout"/>
                  </use>
                  <path fill="none" stroke="white" stroke-width="1.5" d="M0,-3.0v7 M-2.5,-0.5L0,-3.0L2.5,-0.5"/>
                </g>
                <g id="arrowLeft" xlink:href="#dirArrow" transform="rotate(270) translate(-36 17)" onmousedown="handlePan(-1,0)">
                  <use xlink:href="#rim" fill="#404040">
                        <set attributeName="fill" to="#808080" begin="arrowLeft.mouseover" end="arrowLeft.mouseout"/>
                  </use>
                  <path fill="none" stroke="white" stroke-width="1.5" d="M0,-3.0v7 M-2.5,-0.5L0,-3.0L2.5,-0.5"/>
                </g>
        </g>
        <svg viewBox="0 0 15 15" width="100%" height="30px" preserveAspectRatio="xMaxYMin meet">
         <g id="arrow_out" transform="scale(0.3 0.3)">
          <a xlink:href="a24157_org.svg" target="_base">
           <rect id="button" ry="5" rx="5" y="6" x="6" height="38" width="38"
                fill="#f2f5e9" fill-opacity="0.5" stroke="#606060" stroke-width="1.0"/>
           <path id="arrow"
             d="M 11.500037,31.436501 C 11.940474,20.09759 22.043105,11.32322 32.158766,21.979434 L 37.068811,17.246167 C 37.068811,17.246167 37.088388,32 37.088388,32 L 22.160133,31.978069 C 22.160133,31.978069 26.997745,27.140456 26.997745,27.140456 C 18.528582,18.264221 13.291696,25.230495 11.500037,31.436501 z"
             style="fill:#404040;"/>
          </a>
         </g>
        </svg>
</svg>
