<?xml version="1.0" encoding="UTF-8" standalone="no"?>
<!DOCTYPE svg PUBLIC "-//W3C//DTD SVG 1.1//EN"
 "http://www.w3.org/Graphics/SVG/1.1/DTD/svg11.dtd">
<!-- Generated by graphviz version 2.38.0 (20140413.2041)
 -->
<!-- Title: SDK::UBTService_IncrementFloatValueWithTimeSpentInBranch Pages: 1 -->
<svg width="372pt" height="182pt"
 viewBox="0.00 0.00 372.00 182.00" xmlns="http://www.w3.org/2000/svg" xmlns:xlink="http://www.w3.org/1999/xlink">
<g id="graph0" class="graph" transform="scale(1 1) rotate(0) translate(4 178)">
<title>SDK::UBTService_IncrementFloatValueWithTimeSpentInBranch</title>
<!-- Node1 -->
<g id="node1" class="node"><title>Node1</title>
<g id="a_node1"><a xlink:title=" ">
<polygon fill="#bfbfbf" stroke="black" points="122,-0.5 122,-68.5 290,-68.5 290,-0.5 122,-0.5"/>
<text text-anchor="start" x="130" y="-56.5" font-family="Helvetica,sans-Serif" font-size="10.00">SDK::UBTService_Increment</text>
<text text-anchor="middle" x="206" y="-45.5" font-family="Helvetica,sans-Serif" font-size="10.00">FloatValueWithTimeSpentInBranch</text>
<polyline fill="none" stroke="black" points="122,-38.5 290,-38.5 "/>
<text text-anchor="middle" x="206" y="-26.5" font-family="Helvetica,sans-Serif" font-size="10.00"> </text>
<polyline fill="none" stroke="black" points="122,-19.5 290,-19.5 "/>
<text text-anchor="start" x="130" y="-7.5" font-family="Helvetica,sans-Serif" font-size="10.00">+ StaticClass()</text>
</a>
</g>
</g>
<!-- Node2 -->
<g id="node2" class="node"><title>Node2</title>
<g id="a_node2"><a xlink:href="a01163.html" target="_top" xlink:title=" ">
<polygon fill="none" stroke="red" points="0,-116.5 0,-173.5 170,-173.5 170,-116.5 0,-116.5"/>
<text text-anchor="middle" x="85" y="-161.5" font-family="Helvetica,sans-Serif" font-size="10.00">SDK::UBTService_BlackboardBase</text>
<polyline fill="none" stroke="red" points="0,-154.5 170,-154.5 "/>
<text text-anchor="middle" x="85" y="-142.5" font-family="Helvetica,sans-Serif" font-size="10.00"> </text>
<polyline fill="none" stroke="red" points="0,-135.5 170,-135.5 "/>
<text text-anchor="start" x="8" y="-123.5" font-family="Helvetica,sans-Serif" font-size="10.00">+ StaticClass()</text>
</a>
</g>
</g>
<!-- Node2&#45;&gt;Node1 -->
<g id="edge1" class="edge"><title>Node2&#45;&gt;Node1</title>
<path fill="none" stroke="midnightblue" d="M123.309,-109.649C137.972,-96.4999 154.655,-81.5403 169.177,-68.5186"/>
<polygon fill="none" stroke="midnightblue" points="120.955,-107.058 115.846,-116.34 125.628,-112.27 120.955,-107.058"/>
</g>
<!-- Node15 -->
<g id="node3" class="node"><title>Node15</title>
<g id="a_node3"><a xlink:title=" ">
<polygon fill="none" stroke="#bfbfbf" points="188.5,-116.5 188.5,-173.5 223.5,-173.5 223.5,-116.5 188.5,-116.5"/>
<text text-anchor="middle" x="206" y="-161.5" font-family="Helvetica,sans-Serif" font-size="10.00">char</text>
<polyline fill="none" stroke="#bfbfbf" points="188.5,-154.5 223.5,-154.5 "/>
<text text-anchor="middle" x="206" y="-142.5" font-family="Helvetica,sans-Serif" font-size="10.00"> </text>
<polyline fill="none" stroke="#bfbfbf" points="188.5,-135.5 223.5,-135.5 "/>
<text text-anchor="middle" x="206" y="-123.5" font-family="Helvetica,sans-Serif" font-size="10.00"> </text>
</a>
</g>
</g>
<!-- Node15&#45;&gt;Node1 -->
<g id="edge2" class="edge"><title>Node15&#45;&gt;Node1</title>
<path fill="none" stroke="#404040" d="M206,-116.34C206,-105.529 206,-92.847 206,-80.7745"/>
<polygon fill="none" stroke="#404040" points="206,-80.5186 202,-74.5186 206,-68.5186 210,-74.5185 206,-80.5186"/>
<text text-anchor="middle" x="246" y="-90" font-family="Helvetica,sans-Serif" font-size="10.00"> +UnknownData00</text>
</g>
<!-- Node28 -->
<g id="node4" class="node"><title>Node28</title>
<g id="a_node4"><a xlink:title=" ">
<polygon fill="none" stroke="#bfbfbf" points="291.5,-116.5 291.5,-173.5 326.5,-173.5 326.5,-116.5 291.5,-116.5"/>
<text text-anchor="middle" x="309" y="-161.5" font-family="Helvetica,sans-Serif" font-size="10.00">float</text>
<polyline fill="none" stroke="#bfbfbf" points="291.5,-154.5 326.5,-154.5 "/>
<text text-anchor="middle" x="309" y="-142.5" font-family="Helvetica,sans-Serif" font-size="10.00"> </text>
<polyline fill="none" stroke="#bfbfbf" points="291.5,-135.5 326.5,-135.5 "/>
<text text-anchor="middle" x="309" y="-123.5" font-family="Helvetica,sans-Serif" font-size="10.00"> </text>
</a>
</g>
</g>
<!-- Node28&#45;&gt;Node1 -->
<g id="edge3" class="edge"><title>Node28&#45;&gt;Node1</title>
<path fill="none" stroke="#404040" d="M302.238,-116.313C298.838,-106.329 293.924,-95.4512 287,-87 283.997,-83.3343 280.661,-79.8476 277.104,-76.5452"/>
<polygon fill="none" stroke="#404040" points="277.024,-76.4776 269.861,-75.6501 267.87,-68.7194 275.033,-69.5469 277.024,-76.4776"/>
<text text-anchor="middle" x="329" y="-90" font-family="Helvetica,sans-Serif" font-size="10.00"> +TimeMultiplier</text>
</g>
</g>
</svg>
