<?xml version="1.0" encoding="UTF-8" standalone="no"?>
<!DOCTYPE svg PUBLIC "-//W3C//DTD SVG 1.1//EN"
 "http://www.w3.org/Graphics/SVG/1.1/DTD/svg11.dtd">
<!-- Generated by graphviz version 2.38.0 (20140413.2041)
 -->
<!-- Title: SDK::UBTService_AimAIInteractable Pages: 1 -->
<svg width="183pt" height="226pt"
 viewBox="0.00 0.00 183.00 226.00" xmlns="http://www.w3.org/2000/svg" xmlns:xlink="http://www.w3.org/1999/xlink">
<g id="graph0" class="graph" transform="scale(1 1) rotate(0) translate(4 222)">
<title>SDK::UBTService_AimAIInteractable</title>
<!-- Node1 -->
<g id="node1" class="node"><title>Node1</title>
<g id="a_node1"><a xlink:title=" ">
<polygon fill="#bfbfbf" stroke="black" points="0,-0.5 0,-79.5 175,-79.5 175,-0.5 0,-0.5"/>
<text text-anchor="middle" x="87.5" y="-67.5" font-family="Helvetica,sans-Serif" font-size="10.00">SDK::UBTService_AimAIInteractable</text>
<polyline fill="none" stroke="black" points="0,-60.5 175,-60.5 "/>
<text text-anchor="start" x="8" y="-48.5" font-family="Helvetica,sans-Serif" font-size="10.00">+ Interactable</text>
<text text-anchor="start" x="8" y="-37.5" font-family="Helvetica,sans-Serif" font-size="10.00">+ TargetForInteractable</text>
<text text-anchor="start" x="8" y="-26.5" font-family="Helvetica,sans-Serif" font-size="10.00">+ TargetRelativeAimVector</text>
<polyline fill="none" stroke="black" points="0,-19.5 175,-19.5 "/>
<text text-anchor="start" x="8" y="-7.5" font-family="Helvetica,sans-Serif" font-size="10.00">+ StaticClass()</text>
</a>
</g>
</g>
<!-- Node2 -->
<g id="node2" class="node"><title>Node2</title>
<g id="a_node2"><a xlink:href="a00803.html" target="_top" xlink:title=" ">
<polygon fill="none" stroke="red" points="5.5,-116.5 5.5,-217.5 169.5,-217.5 169.5,-116.5 5.5,-116.5"/>
<text text-anchor="middle" x="87.5" y="-205.5" font-family="Helvetica,sans-Serif" font-size="10.00">SDK::UBTService</text>
<polyline fill="none" stroke="red" points="5.5,-198.5 169.5,-198.5 "/>
<text text-anchor="start" x="13.5" y="-186.5" font-family="Helvetica,sans-Serif" font-size="10.00">+ Interval</text>
<text text-anchor="start" x="13.5" y="-175.5" font-family="Helvetica,sans-Serif" font-size="10.00">+ RandomDeviation</text>
<text text-anchor="start" x="13.5" y="-164.5" font-family="Helvetica,sans-Serif" font-size="10.00">+ bCallTickOnSearchStart</text>
<text text-anchor="start" x="13.5" y="-153.5" font-family="Helvetica,sans-Serif" font-size="10.00">+ bRestartTimerOnEachActivation</text>
<text text-anchor="start" x="13.5" y="-142.5" font-family="Helvetica,sans-Serif" font-size="10.00">+ UnknownData00</text>
<polyline fill="none" stroke="red" points="5.5,-135.5 169.5,-135.5 "/>
<text text-anchor="start" x="13.5" y="-123.5" font-family="Helvetica,sans-Serif" font-size="10.00">+ StaticClass()</text>
</a>
</g>
</g>
<!-- Node2&#45;&gt;Node1 -->
<g id="edge1" class="edge"><title>Node2&#45;&gt;Node1</title>
<path fill="none" stroke="midnightblue" d="M87.5,-106.186C87.5,-97.2207 87.5,-88.1815 87.5,-79.8082"/>
<polygon fill="none" stroke="midnightblue" points="84.0001,-106.237 87.5,-116.238 91.0001,-106.238 84.0001,-106.237"/>
</g>
</g>
</svg>
