<?xml version="1.0" encoding="UTF-8" standalone="no"?>
<!DOCTYPE svg PUBLIC "-//W3C//DTD SVG 1.1//EN"
 "http://www.w3.org/Graphics/SVG/1.1/DTD/svg11.dtd">
<!-- Generated by graphviz version 2.38.0 (20140413.2041)
 -->
<!-- Title: SDK::UFilterFirstPlayerEnterPlayerTrackerDecorator Pages: 1 -->
<svg width="283pt" height="277pt"
 viewBox="0.00 0.00 283.00 277.00" xmlns="http://www.w3.org/2000/svg" xmlns:xlink="http://www.w3.org/1999/xlink">
<g id="graph0" class="graph" transform="scale(1 1) rotate(0) translate(4 273)">
<title>SDK::UFilterFirstPlayerEnterPlayerTrackerDecorator</title>
<!-- Node1 -->
<g id="node1" class="node"><title>Node1</title>
<g id="a_node1"><a xlink:title=" ">
<polygon fill="#bfbfbf" stroke="black" points="0,-0.5 0,-68.5 142,-68.5 142,-0.5 0,-0.5"/>
<text text-anchor="start" x="8" y="-56.5" font-family="Helvetica,sans-Serif" font-size="10.00">SDK::UFilterFirstPlayerEnter</text>
<text text-anchor="middle" x="71" y="-45.5" font-family="Helvetica,sans-Serif" font-size="10.00">PlayerTrackerDecorator</text>
<polyline fill="none" stroke="black" points="0,-38.5 142,-38.5 "/>
<text text-anchor="middle" x="71" y="-26.5" font-family="Helvetica,sans-Serif" font-size="10.00"> </text>
<polyline fill="none" stroke="black" points="0,-19.5 142,-19.5 "/>
<text text-anchor="start" x="8" y="-7.5" font-family="Helvetica,sans-Serif" font-size="10.00">+ StaticClass()</text>
</a>
</g>
</g>
<!-- Node2 -->
<g id="node2" class="node"><title>Node2</title>
<g id="a_node2"><a xlink:href="a23899.html" target="_top" xlink:title=" ">
<polygon fill="none" stroke="red" points="119,-106.5 119,-163.5 275,-163.5 275,-106.5 119,-106.5"/>
<text text-anchor="middle" x="197" y="-151.5" font-family="Helvetica,sans-Serif" font-size="10.00">SDK::UAISpawnerPlayerTracker</text>
<polyline fill="none" stroke="red" points="119,-144.5 275,-144.5 "/>
<text text-anchor="middle" x="197" y="-132.5" font-family="Helvetica,sans-Serif" font-size="10.00"> </text>
<polyline fill="none" stroke="red" points="119,-125.5 275,-125.5 "/>
<text text-anchor="start" x="127" y="-113.5" font-family="Helvetica,sans-Serif" font-size="10.00">+ StaticClass()</text>
</a>
</g>
</g>
<!-- Node2&#45;&gt;Node1 -->
<g id="edge1" class="edge"><title>Node2&#45;&gt;Node1</title>
<path fill="none" stroke="midnightblue" d="M153.628,-100.094C140.583,-89.8959 126.29,-78.7224 113.314,-68.5784"/>
<polygon fill="none" stroke="midnightblue" points="151.533,-102.899 161.567,-106.3 155.844,-97.3838 151.533,-102.899"/>
</g>
<!-- Node13 -->
<g id="node3" class="node"><title>Node13</title>
<g id="a_node3"><a xlink:title=" ">
<polygon fill="none" stroke="#bfbfbf" points="55.5,-211.5 55.5,-268.5 90.5,-268.5 90.5,-211.5 55.5,-211.5"/>
<text text-anchor="middle" x="73" y="-256.5" font-family="Helvetica,sans-Serif" font-size="10.00">char</text>
<polyline fill="none" stroke="#bfbfbf" points="55.5,-249.5 90.5,-249.5 "/>
<text text-anchor="middle" x="73" y="-237.5" font-family="Helvetica,sans-Serif" font-size="10.00"> </text>
<polyline fill="none" stroke="#bfbfbf" points="55.5,-230.5 90.5,-230.5 "/>
<text text-anchor="middle" x="73" y="-218.5" font-family="Helvetica,sans-Serif" font-size="10.00"> </text>
</a>
</g>
</g>
<!-- Node13&#45;&gt;Node1 -->
<g id="edge3" class="edge"><title>Node13&#45;&gt;Node1</title>
<path fill="none" stroke="#404040" d="M55.431,-215.753C45.8626,-201.607 34.983,-182.71 30,-164 23.3658,-139.091 23.289,-130.889 30,-106 32.4622,-96.8684 36.4309,-87.7024 40.9522,-79.1416"/>
<polygon fill="none" stroke="#404040" points="40.9742,-79.1028 40.461,-71.91 46.9031,-68.6697 47.4164,-75.8625 40.9742,-79.1028"/>
<text text-anchor="middle" x="70" y="-132.5" font-family="Helvetica,sans-Serif" font-size="10.00"> +UnknownData00</text>
</g>
<!-- Node13&#45;&gt;Node2 -->
<g id="edge2" class="edge"><title>Node13&#45;&gt;Node2</title>
<path fill="none" stroke="#404040" d="M90.5032,-224.461C107.019,-210.742 132.438,-189.628 154.3,-171.468"/>
<polygon fill="none" stroke="#404040" points="154.501,-171.301 156.561,-164.391 163.732,-163.634 161.672,-170.545 154.501,-171.301"/>
<text text-anchor="middle" x="178" y="-185" font-family="Helvetica,sans-Serif" font-size="10.00"> +UnknownData00</text>
</g>
</g>
</svg>
