<?xml version="1.0" encoding="UTF-8" standalone="no"?>
<!DOCTYPE svg PUBLIC "-//W3C//DTD SVG 1.1//EN"
 "http://www.w3.org/Graphics/SVG/1.1/DTD/svg11.dtd">
<!-- Generated by graphviz version 2.38.0 (20140413.2041)
 -->
<!-- Title: SDK::UAIPartsRetrievalComponent Pages: 1 -->
<!--zoomable 758 -->
<svg id="main" version="1.1" xmlns="http://www.w3.org/2000/svg" xmlns:xlink="http://www.w3.org/1999/xlink" xml:space="preserve" onload="init(evt)">
<style type="text/css"><![CDATA[
.edge:hover path { stroke: red; }
.edge:hover polygon { stroke: red; fill: red; }
]]></style>
<script type="text/javascript"><![CDATA[
var edges = document.getElementsByTagName('g');
if (edges && edges.length) {
  for (var i=0;i<edges.length;i++) {
    if (edges[i].id.substr(0,4)=='edge') {
      edges[i].setAttribute('class','edge');
    }
  }
}
]]></script>
        <defs>
                <circle id="rim" cx="0" cy="0" r="7"/>
                <circle id="rim2" cx="0" cy="0" r="3.5"/>
                <g id="zoomPlus">
                        <use xlink:href="#rim" fill="#404040">
                                <set attributeName="fill" to="#808080" begin="zoomplus.mouseover" end="zoomplus.mouseout"/>
                        </use>
                        <path d="M-4,0h8M0,-4v8" fill="none" stroke="white" stroke-width="1.5" pointer-events="none"/>
                </g>
                <g id="zoomMin">
                        <use xlink:href="#rim" fill="#404040">
                                <set attributeName="fill" to="#808080" begin="zoomminus.mouseover" end="zoomminus.mouseout"/>
                        </use>
                        <path d="M-4,0h8" fill="none" stroke="white" stroke-width="1.5" pointer-events="none"/>
                </g>
                <g id="dirArrow">
                        <path fill="none" stroke="white" stroke-width="1.5" d="M0,-3.0v7 M-2.5,-0.5L0,-3.0L2.5,-0.5"/>
                </g>
               <g id="resetDef">
                       <use xlink:href="#rim2" fill="#404040">
                               <set attributeName="fill" to="#808080" begin="reset.mouseover" end="reset.mouseout"/>
                       </use>
               </g>
        </defs>

<script type="text/javascript">
var viewWidth = 564;
var viewHeight = 758;
var sectionId = 'dynsection-1';
</script>
<script xlink:href="svgpan.js"/>
<svg id="graph" class="graph">
<g id="viewport">
<title>SDK::UAIPartsRetrievalComponent</title>
<!-- Node1 -->
<g id="node1" class="node"><title>Node1</title>
<g id="a_node1"><a xlink:title=" ">
<polygon fill="#bfbfbf" stroke="black" points="207.724,-0.5 207.724,-79.5 375.724,-79.5 375.724,-0.5 207.724,-0.5"/>
<text text-anchor="middle" x="291.724" y="-67.5" font-family="Helvetica,sans-Serif" font-size="10.00">SDK::UAIPartsRetrievalComponent</text>
<polyline fill="none" stroke="black" points="207.724,-60.5 375.724,-60.5 "/>
<text text-anchor="middle" x="291.724" y="-48.5" font-family="Helvetica,sans-Serif" font-size="10.00"> </text>
<polyline fill="none" stroke="black" points="207.724,-41.5 375.724,-41.5 "/>
<text text-anchor="start" x="215.724" y="-29.5" font-family="Helvetica,sans-Serif" font-size="10.00">+ RequestNewAIParts()</text>
<text text-anchor="start" x="215.724" y="-18.5" font-family="Helvetica,sans-Serif" font-size="10.00">+ OnRep_ReplicatedAIPartsData()</text>
<text text-anchor="start" x="215.724" y="-7.5" font-family="Helvetica,sans-Serif" font-size="10.00">+ StaticClass()</text>
</a>
</g>
</g>
<!-- Node2 -->
<g id="node2" class="node"><title>Node2</title>
<g id="a_node2"><a xlink:href="a26551.html" target="_top" xlink:title=" ">
<polygon fill="none" stroke="red" points="118.224,-203.5 118.224,-447.5 303.224,-447.5 303.224,-203.5 118.224,-203.5"/>
<text text-anchor="middle" x="210.724" y="-435.5" font-family="Helvetica,sans-Serif" font-size="10.00">SDK::UActorComponent</text>
<polyline fill="none" stroke="red" points="118.224,-428.5 303.224,-428.5 "/>
<text text-anchor="start" x="126.224" y="-416.5" font-family="Helvetica,sans-Serif" font-size="10.00">+ UnknownData00</text>
<text text-anchor="start" x="126.224" y="-405.5" font-family="Helvetica,sans-Serif" font-size="10.00">+ bReplicates</text>
<text text-anchor="start" x="126.224" y="-394.5" font-family="Helvetica,sans-Serif" font-size="10.00">+ bNetAddressable</text>
<text text-anchor="start" x="126.224" y="-383.5" font-family="Helvetica,sans-Serif" font-size="10.00">+ bInstanceComponent</text>
<text text-anchor="start" x="126.224" y="-372.5" font-family="Helvetica,sans-Serif" font-size="10.00">+ bAutoActivate</text>
<text text-anchor="start" x="126.224" y="-361.5" font-family="Helvetica,sans-Serif" font-size="10.00">+ bIsActive</text>
<text text-anchor="start" x="126.224" y="-350.5" font-family="Helvetica,sans-Serif" font-size="10.00">+ bNeedsLoadForServer</text>
<polyline fill="none" stroke="red" points="118.224,-343.5 303.224,-343.5 "/>
<text text-anchor="start" x="126.224" y="-331.5" font-family="Helvetica,sans-Serif" font-size="10.00">+ ToggleActive()</text>
<text text-anchor="start" x="126.224" y="-320.5" font-family="Helvetica,sans-Serif" font-size="10.00">+ SetTickGroup()</text>
<text text-anchor="start" x="126.224" y="-309.5" font-family="Helvetica,sans-Serif" font-size="10.00">+ SetTickableWhenPaused()</text>
<text text-anchor="start" x="126.224" y="-298.5" font-family="Helvetica,sans-Serif" font-size="10.00">+ SetIsReplicated()</text>
<text text-anchor="start" x="126.224" y="-287.5" font-family="Helvetica,sans-Serif" font-size="10.00">+ SetComponentTickEnabled()</text>
<text text-anchor="start" x="126.224" y="-276.5" font-family="Helvetica,sans-Serif" font-size="10.00">+ SetActive()</text>
<text text-anchor="start" x="126.224" y="-265.5" font-family="Helvetica,sans-Serif" font-size="10.00">+ RemoveTickPrerequisiteComponent()</text>
<text text-anchor="start" x="126.224" y="-254.5" font-family="Helvetica,sans-Serif" font-size="10.00">+ RemoveTickPrerequisiteActor()</text>
<text text-anchor="start" x="126.224" y="-243.5" font-family="Helvetica,sans-Serif" font-size="10.00">+ ReceiveTick()</text>
<text text-anchor="start" x="126.224" y="-232.5" font-family="Helvetica,sans-Serif" font-size="10.00">+ ReceiveEndPlay()</text>
<text text-anchor="start" x="126.224" y="-221.5" font-family="Helvetica,sans-Serif" font-size="10.00">and 12 more...</text>
<text text-anchor="start" x="126.224" y="-210.5" font-family="Helvetica,sans-Serif" font-size="10.00">+ StaticClass()</text>
</a>
</g>
</g>
<!-- Node2&#45;&gt;Node1 -->
<g id="edge1" class="edge"><title>Node2&#45;&gt;Node1</title>
<path fill="none" stroke="midnightblue" d="M248.08,-193.754C259.969,-152.14 272.223,-109.254 280.707,-79.5568"/>
<polygon fill="none" stroke="midnightblue" points="244.692,-192.871 245.31,-203.448 251.422,-194.794 244.692,-192.871"/>
</g>
<!-- Node12 -->
<g id="node3" class="node"><title>Node12</title>
<g id="a_node3"><a xlink:title=" ">
<polygon fill="none" stroke="#bfbfbf" points="179.224,-692.5 179.224,-749.5 214.224,-749.5 214.224,-692.5 179.224,-692.5"/>
<text text-anchor="middle" x="196.724" y="-737.5" font-family="Helvetica,sans-Serif" font-size="10.00">char</text>
<polyline fill="none" stroke="#bfbfbf" points="179.224,-730.5 214.224,-730.5 "/>
<text text-anchor="middle" x="196.724" y="-718.5" font-family="Helvetica,sans-Serif" font-size="10.00"> </text>
<polyline fill="none" stroke="#bfbfbf" points="179.224,-711.5 214.224,-711.5 "/>
<text text-anchor="middle" x="196.724" y="-699.5" font-family="Helvetica,sans-Serif" font-size="10.00"> </text>
</a>
</g>
</g>
<!-- Node12&#45;&gt;Node1 -->
<g id="edge3" class="edge"><title>Node12&#45;&gt;Node1</title>
<path fill="none" stroke="#404040" d="M178.843,-699.614C118.133,-627.815 -70.9093,-381.388 28.7236,-203 64.3444,-139.223 136.523,-97.4494 196.269,-72.3212"/>
<polygon fill="none" stroke="#404040" points="196.544,-72.2087 200.585,-66.236 207.652,-67.6687 203.611,-73.6414 196.544,-72.2087"/>
<text text-anchor="middle" x="68.7236" y="-328.5" font-family="Helvetica,sans-Serif" font-size="10.00"> +UnknownData01</text>
<text text-anchor="middle" x="68.7236" y="-317.5" font-family="Helvetica,sans-Serif" font-size="10.00">+UnknownData00</text>
</g>
<!-- Node12&#45;&gt;Node2 -->
<g id="edge2" class="edge"><title>Node12&#45;&gt;Node2</title>
<path fill="none" stroke="#404040" d="M194.623,-692.284C194.248,-686.26 193.916,-679.919 193.724,-674 191.814,-615.364 191.415,-600.621 193.724,-542 194.772,-515.377 196.546,-486.947 198.563,-459.759"/>
<polygon fill="none" stroke="#404040" points="198.564,-459.746 195.03,-453.461 199.473,-447.781 203.007,-454.067 198.564,-459.746"/>
<text text-anchor="middle" x="249.724" y="-666" font-family="Helvetica,sans-Serif" font-size="10.00"> +UnknownData01</text>
<text text-anchor="middle" x="249.724" y="-655" font-family="Helvetica,sans-Serif" font-size="10.00">+UnknownData02</text>
<text text-anchor="middle" x="249.724" y="-644" font-family="Helvetica,sans-Serif" font-size="10.00">+UnknownData03</text>
<text text-anchor="middle" x="249.724" y="-633" font-family="Helvetica,sans-Serif" font-size="10.00">+UnknownData04</text>
<text text-anchor="middle" x="249.724" y="-622" font-family="Helvetica,sans-Serif" font-size="10.00">+UnknownData05</text>
<text text-anchor="start" x="193.724" y="-611" font-family="Helvetica,sans-Serif" font-size="10.00">+bCreatedByConstruction</text>
<text text-anchor="middle" x="249.724" y="-600" font-family="Helvetica,sans-Serif" font-size="10.00">Script</text>
<text text-anchor="middle" x="249.724" y="-589" font-family="Helvetica,sans-Serif" font-size="10.00">+UnknownData06</text>
<text text-anchor="middle" x="249.724" y="-578" font-family="Helvetica,sans-Serif" font-size="10.00">+UnknownData07</text>
<text text-anchor="middle" x="249.724" y="-567" font-family="Helvetica,sans-Serif" font-size="10.00">+bEditableWhenInherited</text>
<text text-anchor="middle" x="249.724" y="-556" font-family="Helvetica,sans-Serif" font-size="10.00">+bNeedsLoadForClient</text>
<text text-anchor="middle" x="249.724" y="-545" font-family="Helvetica,sans-Serif" font-size="10.00">...</text>
</g>
<!-- Node22 -->
<g id="node4" class="node"><title>Node22</title>
<g id="a_node4"><a xlink:href="a23987.html" target="_top" xlink:title=" ">
<polygon fill="none" stroke="red" points="271.224,-466.5 271.224,-523.5 392.224,-523.5 392.224,-466.5 271.224,-466.5"/>
<text text-anchor="middle" x="331.724" y="-511.5" font-family="Helvetica,sans-Serif" font-size="10.00">SDK::UAIPartsCategory</text>
<polyline fill="none" stroke="red" points="271.224,-504.5 392.224,-504.5 "/>
<text text-anchor="middle" x="331.724" y="-492.5" font-family="Helvetica,sans-Serif" font-size="10.00"> </text>
<polyline fill="none" stroke="red" points="271.224,-485.5 392.224,-485.5 "/>
<text text-anchor="start" x="279.224" y="-473.5" font-family="Helvetica,sans-Serif" font-size="10.00">+ StaticClass()</text>
</a>
</g>
</g>
<!-- Node12&#45;&gt;Node22 -->
<g id="edge5" class="edge"><title>Node12&#45;&gt;Node22</title>
<path fill="none" stroke="#404040" d="M214.559,-718.248C240.094,-714.714 286.541,-704.269 309.724,-674 340.048,-634.406 341.039,-574.68 337.532,-535.512"/>
<polygon fill="none" stroke="#404040" points="337.531,-535.502 332.921,-529.957 336.266,-523.569 340.876,-529.114 337.531,-535.502"/>
<text text-anchor="middle" x="379.724" y="-605.5" font-family="Helvetica,sans-Serif" font-size="10.00"> +UnknownData00</text>
</g>
<!-- Node22&#45;&gt;Node1 -->
<g id="edge4" class="edge"><title>Node22&#45;&gt;Node1</title>
<path fill="none" stroke="#404040" d="M329.282,-466.345C322.732,-392.165 304.697,-187.923 296.228,-92.008"/>
<polygon fill="none" stroke="#404040" points="296.202,-91.719 291.69,-86.0941 295.147,-79.7655 299.659,-85.3904 296.202,-91.719"/>
<text text-anchor="middle" x="340.724" y="-153.5" font-family="Helvetica,sans-Serif" font-size="10.00"> +PartsCategory</text>
</g>
<!-- Node30 -->
<g id="node5" class="node"><title>Node30</title>
<g id="a_node5"><a xlink:href="a25143.html" target="_top" xlink:title=" ">
<polygon fill="none" stroke="red" points="409.224,-127.5 409.224,-184.5 556.224,-184.5 556.224,-127.5 409.224,-127.5"/>
<text text-anchor="middle" x="482.724" y="-172.5" font-family="Helvetica,sans-Serif" font-size="10.00">SDK::FReplicatedAIPartsData</text>
<polyline fill="none" stroke="red" points="409.224,-165.5 556.224,-165.5 "/>
<text text-anchor="middle" x="482.724" y="-153.5" font-family="Helvetica,sans-Serif" font-size="10.00"> </text>
<polyline fill="none" stroke="red" points="409.224,-146.5 556.224,-146.5 "/>
<text text-anchor="middle" x="482.724" y="-134.5" font-family="Helvetica,sans-Serif" font-size="10.00"> </text>
</a>
</g>
</g>
<!-- Node22&#45;&gt;Node30 -->
<g id="edge7" class="edge"><title>Node22&#45;&gt;Node30</title>
<path fill="none" stroke="#404040" d="M344.081,-466.422C370.847,-406.684 434.257,-265.167 465.17,-196.175"/>
<polygon fill="none" stroke="#404040" points="465.289,-195.91 464.092,-188.799 470.196,-184.959 471.393,-192.07 465.289,-195.91"/>
<text text-anchor="middle" x="497.724" y="-323" font-family="Helvetica,sans-Serif" font-size="10.00"> +PartsCategory</text>
</g>
<!-- Node30&#45;&gt;Node1 -->
<g id="edge6" class="edge"><title>Node30&#45;&gt;Node1</title>
<path fill="none" stroke="#404040" d="M436.488,-127.404C415.522,-114.89 390.194,-99.7732 366.624,-85.7052"/>
<polygon fill="none" stroke="#404040" points="366.6,-85.6907 359.398,-86.0504 356.296,-79.5406 363.498,-79.1809 366.6,-85.6907"/>
<text text-anchor="middle" x="458.724" y="-101" font-family="Helvetica,sans-Serif" font-size="10.00"> +ReplicatedAIPartsData</text>
</g>
</g>
</svg>
        <g id="navigator" transform="translate(0 0)" fill="#404254">
                <rect fill="#f2f5e9" fill-opacity="0.5" stroke="#606060" stroke-width=".5" x="0" y="0" width="60" height="60"/>
                <use id="zoomplus" xlink:href="#zoomPlus" x="17" y="9" onmousedown="handleZoom(evt,'in')"/>
                <use id="zoomminus" xlink:href="#zoomMin" x="42" y="9" onmousedown="handleZoom(evt,'out')"/>
                <use id="reset" xlink:href="#resetDef" x="30" y="36" onmousedown="handleReset()"/>
                <g id="arrowUp" xlink:href="#dirArrow" transform="translate(30 24)" onmousedown="handlePan(0,-1)">
                  <use xlink:href="#rim" fill="#404040">
                        <set attributeName="fill" to="#808080" begin="arrowUp.mouseover" end="arrowUp.mouseout"/>
                  </use>
                  <path fill="none" stroke="white" stroke-width="1.5" d="M0,-3.0v7 M-2.5,-0.5L0,-3.0L2.5,-0.5"/>
                </g>
                <g id="arrowRight" xlink:href="#dirArrow" transform="rotate(90) translate(36 -43)" onmousedown="handlePan(1,0)">
                  <use xlink:href="#rim" fill="#404040">
                        <set attributeName="fill" to="#808080" begin="arrowRight.mouseover" end="arrowRight.mouseout"/>
                  </use>
                  <path fill="none" stroke="white" stroke-width="1.5" d="M0,-3.0v7 M-2.5,-0.5L0,-3.0L2.5,-0.5"/>
                </g>
                <g id="arrowDown" xlink:href="#dirArrow" transform="rotate(180) translate(-30 -48)" onmousedown="handlePan(0,1)">
                  <use xlink:href="#rim" fill="#404040">
                        <set attributeName="fill" to="#808080" begin="arrowDown.mouseover" end="arrowDown.mouseout"/>
                  </use>
                  <path fill="none" stroke="white" stroke-width="1.5" d="M0,-3.0v7 M-2.5,-0.5L0,-3.0L2.5,-0.5"/>
                </g>
                <g id="arrowLeft" xlink:href="#dirArrow" transform="rotate(270) translate(-36 17)" onmousedown="handlePan(-1,0)">
                  <use xlink:href="#rim" fill="#404040">
                        <set attributeName="fill" to="#808080" begin="arrowLeft.mouseover" end="arrowLeft.mouseout"/>
                  </use>
                  <path fill="none" stroke="white" stroke-width="1.5" d="M0,-3.0v7 M-2.5,-0.5L0,-3.0L2.5,-0.5"/>
                </g>
        </g>
        <svg viewBox="0 0 15 15" width="100%" height="30px" preserveAspectRatio="xMaxYMin meet">
         <g id="arrow_out" transform="scale(0.3 0.3)">
          <a xlink:href="a24201_org.svg" target="_base">
           <rect id="button" ry="5" rx="5" y="6" x="6" height="38" width="38"
                fill="#f2f5e9" fill-opacity="0.5" stroke="#606060" stroke-width="1.0"/>
           <path id="arrow"
             d="M 11.500037,31.436501 C 11.940474,20.09759 22.043105,11.32322 32.158766,21.979434 L 37.068811,17.246167 C 37.068811,17.246167 37.088388,32 37.088388,32 L 22.160133,31.978069 C 22.160133,31.978069 26.997745,27.140456 26.997745,27.140456 C 18.528582,18.264221 13.291696,25.230495 11.500037,31.436501 z"
             style="fill:#404040;"/>
          </a>
         </g>
        </svg>
</svg>
