<?xml version="1.0" encoding="UTF-8" standalone="no"?>
<!DOCTYPE svg PUBLIC "-//W3C//DTD SVG 1.1//EN"
 "http://www.w3.org/Graphics/SVG/1.1/DTD/svg11.dtd">
<!-- Generated by graphviz version 2.38.0 (20140413.2041)
 -->
<!-- Title: SDK::UBTTask_AthenaMoveTo Pages: 1 -->
<!--zoomable 342 -->
<svg id="main" version="1.1" xmlns="http://www.w3.org/2000/svg" xmlns:xlink="http://www.w3.org/1999/xlink" xml:space="preserve" onload="init(evt)">
<style type="text/css"><![CDATA[
.edge:hover path { stroke: red; }
.edge:hover polygon { stroke: red; fill: red; }
]]></style>
<script type="text/javascript"><![CDATA[
var edges = document.getElementsByTagName('g');
if (edges && edges.length) {
  for (var i=0;i<edges.length;i++) {
    if (edges[i].id.substr(0,4)=='edge') {
      edges[i].setAttribute('class','edge');
    }
  }
}
]]></script>
        <defs>
                <circle id="rim" cx="0" cy="0" r="7"/>
                <circle id="rim2" cx="0" cy="0" r="3.5"/>
                <g id="zoomPlus">
                        <use xlink:href="#rim" fill="#404040">
                                <set attributeName="fill" to="#808080" begin="zoomplus.mouseover" end="zoomplus.mouseout"/>
                        </use>
                        <path d="M-4,0h8M0,-4v8" fill="none" stroke="white" stroke-width="1.5" pointer-events="none"/>
                </g>
                <g id="zoomMin">
                        <use xlink:href="#rim" fill="#404040">
                                <set attributeName="fill" to="#808080" begin="zoomminus.mouseover" end="zoomminus.mouseout"/>
                        </use>
                        <path d="M-4,0h8" fill="none" stroke="white" stroke-width="1.5" pointer-events="none"/>
                </g>
                <g id="dirArrow">
                        <path fill="none" stroke="white" stroke-width="1.5" d="M0,-3.0v7 M-2.5,-0.5L0,-3.0L2.5,-0.5"/>
                </g>
               <g id="resetDef">
                       <use xlink:href="#rim2" fill="#404040">
                               <set attributeName="fill" to="#808080" begin="reset.mouseover" end="reset.mouseout"/>
                       </use>
               </g>
        </defs>

<script type="text/javascript">
var viewWidth = 558;
var viewHeight = 342;
var sectionId = 'dynsection-1';
</script>
<script xlink:href="svgpan.js"/>
<svg id="graph" class="graph">
<g id="viewport">
<title>SDK::UBTTask_AthenaMoveTo</title>
<!-- Node1 -->
<g id="node1" class="node"><title>Node1</title>
<g id="a_node1"><a xlink:title=" ">
<polygon fill="#bfbfbf" stroke="black" points="163.166,-0.5 163.166,-57.5 315.166,-57.5 315.166,-0.5 163.166,-0.5"/>
<text text-anchor="middle" x="239.166" y="-45.5" font-family="Helvetica,sans-Serif" font-size="10.00">SDK::UBTTask_AthenaMoveTo</text>
<polyline fill="none" stroke="black" points="163.166,-38.5 315.166,-38.5 "/>
<text text-anchor="middle" x="239.166" y="-26.5" font-family="Helvetica,sans-Serif" font-size="10.00"> </text>
<polyline fill="none" stroke="black" points="163.166,-19.5 315.166,-19.5 "/>
<text text-anchor="start" x="171.166" y="-7.5" font-family="Helvetica,sans-Serif" font-size="10.00">+ StaticClass()</text>
</a>
</g>
</g>
<!-- Node2 -->
<g id="node2" class="node"><title>Node2</title>
<g id="a_node2"><a xlink:href="a01191.html" target="_top" xlink:title=" ">
<polygon fill="none" stroke="red" points="106.666,-127.5 106.666,-184.5 227.666,-184.5 227.666,-127.5 106.666,-127.5"/>
<text text-anchor="middle" x="167.166" y="-172.5" font-family="Helvetica,sans-Serif" font-size="10.00">SDK::UBTTask_MoveTo</text>
<polyline fill="none" stroke="red" points="106.666,-165.5 227.666,-165.5 "/>
<text text-anchor="middle" x="167.166" y="-153.5" font-family="Helvetica,sans-Serif" font-size="10.00"> </text>
<polyline fill="none" stroke="red" points="106.666,-146.5 227.666,-146.5 "/>
<text text-anchor="start" x="114.666" y="-134.5" font-family="Helvetica,sans-Serif" font-size="10.00">+ StaticClass()</text>
</a>
</g>
</g>
<!-- Node2&#45;&gt;Node1 -->
<g id="edge1" class="edge"><title>Node2&#45;&gt;Node1</title>
<path fill="none" stroke="midnightblue" d="M188.258,-118.382C199.435,-98.9773 212.941,-75.5304 223.232,-57.664"/>
<polygon fill="none" stroke="midnightblue" points="185.104,-116.846 183.145,-127.258 191.169,-120.34 185.104,-116.846"/>
</g>
<!-- Node15 -->
<g id="node3" class="node"><title>Node15</title>
<g id="a_node3"><a xlink:title=" ">
<polygon fill="none" stroke="#bfbfbf" points="10.6662,-276.5 10.6662,-333.5 45.6662,-333.5 45.6662,-276.5 10.6662,-276.5"/>
<text text-anchor="middle" x="28.1662" y="-321.5" font-family="Helvetica,sans-Serif" font-size="10.00">char</text>
<polyline fill="none" stroke="#bfbfbf" points="10.6662,-314.5 45.6662,-314.5 "/>
<text text-anchor="middle" x="28.1662" y="-302.5" font-family="Helvetica,sans-Serif" font-size="10.00"> </text>
<polyline fill="none" stroke="#bfbfbf" points="10.6662,-295.5 45.6662,-295.5 "/>
<text text-anchor="middle" x="28.1662" y="-283.5" font-family="Helvetica,sans-Serif" font-size="10.00"> </text>
</a>
</g>
</g>
<!-- Node15&#45;&gt;Node1 -->
<g id="edge5" class="edge"><title>Node15&#45;&gt;Node1</title>
<path fill="none" stroke="#404040" d="M16.9225,-276.232C3.8215,-238.999 -12.5041,-172.343 17.1662,-127 46.8457,-81.6429 102.904,-57.3703 151.26,-44.4484"/>
<polygon fill="none" stroke="#404040" points="151.409,-44.411 156.249,-39.0659 163.045,-41.4781 158.204,-46.8233 151.409,-44.411"/>
<text text-anchor="middle" x="57.1662" y="-164.5" font-family="Helvetica,sans-Serif" font-size="10.00"> +UnknownData01</text>
<text text-anchor="middle" x="57.1662" y="-153.5" font-family="Helvetica,sans-Serif" font-size="10.00">+UnknownData02</text>
<text text-anchor="middle" x="57.1662" y="-142.5" font-family="Helvetica,sans-Serif" font-size="10.00">+UnknownData00</text>
</g>
<!-- Node15&#45;&gt;Node2 -->
<g id="edge2" class="edge"><title>Node15&#45;&gt;Node2</title>
<path fill="none" stroke="#404040" d="M33.6114,-276.092C39.2033,-253.906 49.8956,-223.325 69.1662,-203 73.892,-198.016 83.9078,-192.128 95.8075,-186.259"/>
<polygon fill="none" stroke="#404040" points="95.8145,-186.255 99.5305,-180.075 106.664,-181.129 102.948,-187.309 95.8145,-186.255"/>
<text text-anchor="middle" x="110.666" y="-250" font-family="Helvetica,sans-Serif" font-size="10.00"> +UnknownData01</text>
<text text-anchor="middle" x="110.666" y="-239" font-family="Helvetica,sans-Serif" font-size="10.00">+bAllowPartialPath</text>
<text text-anchor="middle" x="110.666" y="-228" font-family="Helvetica,sans-Serif" font-size="10.00">+bStopOnOverlap</text>
<text text-anchor="middle" x="110.666" y="-217" font-family="Helvetica,sans-Serif" font-size="10.00">+bAllowStrafe</text>
<text text-anchor="middle" x="110.666" y="-206" font-family="Helvetica,sans-Serif" font-size="10.00">+UnknownData00</text>
</g>
<!-- Node30 -->
<g id="node4" class="node"><title>Node30</title>
<g id="a_node4"><a xlink:title=" ">
<polygon fill="none" stroke="#bfbfbf" points="194.666,-276.5 194.666,-333.5 229.666,-333.5 229.666,-276.5 194.666,-276.5"/>
<text text-anchor="middle" x="212.166" y="-321.5" font-family="Helvetica,sans-Serif" font-size="10.00">float</text>
<polyline fill="none" stroke="#bfbfbf" points="194.666,-314.5 229.666,-314.5 "/>
<text text-anchor="middle" x="212.166" y="-302.5" font-family="Helvetica,sans-Serif" font-size="10.00"> </text>
<polyline fill="none" stroke="#bfbfbf" points="194.666,-295.5 229.666,-295.5 "/>
<text text-anchor="middle" x="212.166" y="-283.5" font-family="Helvetica,sans-Serif" font-size="10.00"> </text>
</a>
</g>
</g>
<!-- Node30&#45;&gt;Node1 -->
<g id="edge4" class="edge"><title>Node30&#45;&gt;Node1</title>
<path fill="none" stroke="#404040" d="M229.782,-288.337C237.633,-280.174 246.03,-269.502 250.166,-258 272.818,-195.013 260.79,-115.889 249.985,-69.3413"/>
<polygon fill="none" stroke="#404040" points="249.984,-69.3367 244.677,-64.4542 247.143,-57.6778 252.45,-62.5603 249.984,-69.3367"/>
<text text-anchor="start" x="263.166" y="-170" font-family="Helvetica,sans-Serif" font-size="10.00"> +OverrideMaxSpeedToSlowDistance</text>
<text text-anchor="middle" x="343.666" y="-159" font-family="Helvetica,sans-Serif" font-size="10.00">Factor</text>
<text text-anchor="start" x="263.166" y="-148" font-family="Helvetica,sans-Serif" font-size="10.00">+ExitBeforeSlowDownDistance</text>
<text text-anchor="middle" x="343.666" y="-137" font-family="Helvetica,sans-Serif" font-size="10.00">Tolerance</text>
</g>
<!-- Node30&#45;&gt;Node2 -->
<g id="edge3" class="edge"><title>Node30&#45;&gt;Node2</title>
<path fill="none" stroke="#404040" d="M194.259,-293.19C182.726,-285.108 168.707,-272.906 162.166,-258 153.833,-239.01 154.254,-216.04 157.126,-196.807"/>
<polygon fill="none" stroke="#404040" points="157.164,-196.596 154.295,-189.98 159.299,-184.787 162.168,-191.403 157.164,-196.596"/>
<text text-anchor="middle" x="206.166" y="-228" font-family="Helvetica,sans-Serif" font-size="10.00"> +AcceptableRadius</text>
</g>
<!-- Node31 -->
<g id="node5" class="node"><title>Node31</title>
<g id="a_node5"><a xlink:title=" ">
<polygon fill="none" stroke="#bfbfbf" points="443.666,-127.5 443.666,-184.5 478.666,-184.5 478.666,-127.5 443.666,-127.5"/>
<text text-anchor="middle" x="461.166" y="-172.5" font-family="Helvetica,sans-Serif" font-size="10.00">bool</text>
<polyline fill="none" stroke="#bfbfbf" points="443.666,-165.5 478.666,-165.5 "/>
<text text-anchor="middle" x="461.166" y="-153.5" font-family="Helvetica,sans-Serif" font-size="10.00"> </text>
<polyline fill="none" stroke="#bfbfbf" points="443.666,-146.5 478.666,-146.5 "/>
<text text-anchor="middle" x="461.166" y="-134.5" font-family="Helvetica,sans-Serif" font-size="10.00"> </text>
</a>
</g>
</g>
<!-- Node31&#45;&gt;Node1 -->
<g id="edge6" class="edge"><title>Node31&#45;&gt;Node1</title>
<path fill="none" stroke="#404040" d="M443.521,-138.191C439.014,-134.289 434.056,-130.312 429.166,-127 392.903,-102.433 349.595,-79.8633 313.491,-62.6881"/>
<polygon fill="none" stroke="#404040" points="313.392,-62.6417 306.261,-63.708 302.533,-57.5348 309.665,-56.4686 313.392,-62.6417"/>
<text text-anchor="middle" x="475.166" y="-101" font-family="Helvetica,sans-Serif" font-size="10.00"> +MaintainFacingBeforeMove</text>
<text text-anchor="middle" x="475.166" y="-90" font-family="Helvetica,sans-Serif" font-size="10.00">+ShouldFailBeforeSlowDown</text>
<text text-anchor="middle" x="475.166" y="-79" font-family="Helvetica,sans-Serif" font-size="10.00">+ShouldOverrideMaxSpeedToSlow</text>
</g>
</g>
</svg>
        <g id="navigator" transform="translate(0 0)" fill="#404254">
                <rect fill="#f2f5e9" fill-opacity="0.5" stroke="#606060" stroke-width=".5" x="0" y="0" width="60" height="60"/>
                <use id="zoomplus" xlink:href="#zoomPlus" x="17" y="9" onmousedown="handleZoom(evt,'in')"/>
                <use id="zoomminus" xlink:href="#zoomMin" x="42" y="9" onmousedown="handleZoom(evt,'out')"/>
                <use id="reset" xlink:href="#resetDef" x="30" y="36" onmousedown="handleReset()"/>
                <g id="arrowUp" xlink:href="#dirArrow" transform="translate(30 24)" onmousedown="handlePan(0,-1)">
                  <use xlink:href="#rim" fill="#404040">
                        <set attributeName="fill" to="#808080" begin="arrowUp.mouseover" end="arrowUp.mouseout"/>
                  </use>
                  <path fill="none" stroke="white" stroke-width="1.5" d="M0,-3.0v7 M-2.5,-0.5L0,-3.0L2.5,-0.5"/>
                </g>
                <g id="arrowRight" xlink:href="#dirArrow" transform="rotate(90) translate(36 -43)" onmousedown="handlePan(1,0)">
                  <use xlink:href="#rim" fill="#404040">
                        <set attributeName="fill" to="#808080" begin="arrowRight.mouseover" end="arrowRight.mouseout"/>
                  </use>
                  <path fill="none" stroke="white" stroke-width="1.5" d="M0,-3.0v7 M-2.5,-0.5L0,-3.0L2.5,-0.5"/>
                </g>
                <g id="arrowDown" xlink:href="#dirArrow" transform="rotate(180) translate(-30 -48)" onmousedown="handlePan(0,1)">
                  <use xlink:href="#rim" fill="#404040">
                        <set attributeName="fill" to="#808080" begin="arrowDown.mouseover" end="arrowDown.mouseout"/>
                  </use>
                  <path fill="none" stroke="white" stroke-width="1.5" d="M0,-3.0v7 M-2.5,-0.5L0,-3.0L2.5,-0.5"/>
                </g>
                <g id="arrowLeft" xlink:href="#dirArrow" transform="rotate(270) translate(-36 17)" onmousedown="handlePan(-1,0)">
                  <use xlink:href="#rim" fill="#404040">
                        <set attributeName="fill" to="#808080" begin="arrowLeft.mouseover" end="arrowLeft.mouseout"/>
                  </use>
                  <path fill="none" stroke="white" stroke-width="1.5" d="M0,-3.0v7 M-2.5,-0.5L0,-3.0L2.5,-0.5"/>
                </g>
        </g>
        <svg viewBox="0 0 15 15" width="100%" height="30px" preserveAspectRatio="xMaxYMin meet">
         <g id="arrow_out" transform="scale(0.3 0.3)">
          <a xlink:href="a24345_org.svg" target="_base">
           <rect id="button" ry="5" rx="5" y="6" x="6" height="38" width="38"
                fill="#f2f5e9" fill-opacity="0.5" stroke="#606060" stroke-width="1.0"/>
           <path id="arrow"
             d="M 11.500037,31.436501 C 11.940474,20.09759 22.043105,11.32322 32.158766,21.979434 L 37.068811,17.246167 C 37.068811,17.246167 37.088388,32 37.088388,32 L 22.160133,31.978069 C 22.160133,31.978069 26.997745,27.140456 26.997745,27.140456 C 18.528582,18.264221 13.291696,25.230495 11.500037,31.436501 z"
             style="fill:#404040;"/>
          </a>
         </g>
        </svg>
</svg>
