<?xml version="1.0" encoding="UTF-8" standalone="no"?>
<!DOCTYPE svg PUBLIC "-//W3C//DTD SVG 1.1//EN"
 "http://www.w3.org/Graphics/SVG/1.1/DTD/svg11.dtd">
<!-- Generated by graphviz version 2.38.0 (20140413.2041)
 -->
<!-- Title: SDK::UBTTask_SetBlackboardEQSValue Pages: 1 -->
<svg width="278pt" height="182pt"
 viewBox="0.00 0.00 277.50 182.00" xmlns="http://www.w3.org/2000/svg" xmlns:xlink="http://www.w3.org/1999/xlink">
<g id="graph0" class="graph" transform="scale(1 1) rotate(0) translate(4 178)">
<title>SDK::UBTTask_SetBlackboardEQSValue</title>
<!-- Node1 -->
<g id="node1" class="node"><title>Node1</title>
<g id="a_node1"><a xlink:title=" ">
<polygon fill="#bfbfbf" stroke="black" points="75.5,-0.5 75.5,-68.5 227.5,-68.5 227.5,-0.5 75.5,-0.5"/>
<text text-anchor="start" x="83.5" y="-56.5" font-family="Helvetica,sans-Serif" font-size="10.00">SDK::UBTTask_SetBlackboard</text>
<text text-anchor="middle" x="151.5" y="-45.5" font-family="Helvetica,sans-Serif" font-size="10.00">EQSValue</text>
<polyline fill="none" stroke="black" points="75.5,-38.5 227.5,-38.5 "/>
<text text-anchor="middle" x="151.5" y="-26.5" font-family="Helvetica,sans-Serif" font-size="10.00"> </text>
<polyline fill="none" stroke="black" points="75.5,-19.5 227.5,-19.5 "/>
<text text-anchor="start" x="83.5" y="-7.5" font-family="Helvetica,sans-Serif" font-size="10.00">+ StaticClass()</text>
</a>
</g>
</g>
<!-- Node2 -->
<g id="node2" class="node"><title>Node2</title>
<g id="a_node2"><a xlink:href="a00811.html" target="_top" xlink:title=" ">
<polygon fill="none" stroke="red" points="0,-116.5 0,-173.5 159,-173.5 159,-116.5 0,-116.5"/>
<text text-anchor="middle" x="79.5" y="-161.5" font-family="Helvetica,sans-Serif" font-size="10.00">SDK::UBTTask_BlackboardBase</text>
<polyline fill="none" stroke="red" points="0,-154.5 159,-154.5 "/>
<text text-anchor="middle" x="79.5" y="-142.5" font-family="Helvetica,sans-Serif" font-size="10.00"> </text>
<polyline fill="none" stroke="red" points="0,-135.5 159,-135.5 "/>
<text text-anchor="start" x="8" y="-123.5" font-family="Helvetica,sans-Serif" font-size="10.00">+ StaticClass()</text>
</a>
</g>
</g>
<!-- Node2&#45;&gt;Node1 -->
<g id="edge1" class="edge"><title>Node2&#45;&gt;Node1</title>
<path fill="none" stroke="midnightblue" d="M103.503,-107.828C111.929,-95.1315 121.344,-80.943 129.589,-68.5186"/>
<polygon fill="none" stroke="midnightblue" points="100.468,-106.073 97.8549,-116.34 106.301,-109.943 100.468,-106.073"/>
</g>
<!-- Node29 -->
<g id="node3" class="node"><title>Node29</title>
<g id="a_node3"><a xlink:href="a01259.html" target="_top" xlink:title=" ">
<polygon fill="none" stroke="red" points="177.5,-116.5 177.5,-173.5 269.5,-173.5 269.5,-116.5 177.5,-116.5"/>
<text text-anchor="middle" x="223.5" y="-161.5" font-family="Helvetica,sans-Serif" font-size="10.00">SDK::UEnvQuery</text>
<polyline fill="none" stroke="red" points="177.5,-154.5 269.5,-154.5 "/>
<text text-anchor="middle" x="223.5" y="-142.5" font-family="Helvetica,sans-Serif" font-size="10.00"> </text>
<polyline fill="none" stroke="red" points="177.5,-135.5 269.5,-135.5 "/>
<text text-anchor="start" x="185.5" y="-123.5" font-family="Helvetica,sans-Serif" font-size="10.00">+ StaticClass()</text>
</a>
</g>
</g>
<!-- Node29&#45;&gt;Node1 -->
<g id="edge2" class="edge"><title>Node29&#45;&gt;Node1</title>
<path fill="none" stroke="#404040" d="M205.145,-116.34C197.594,-104.96 188.666,-91.5068 180.283,-78.8738"/>
<polygon fill="none" stroke="#404040" points="180.046,-78.5173 173.396,-75.7297 173.411,-68.5186 180.061,-71.3062 180.046,-78.5173"/>
<text text-anchor="middle" x="208" y="-90" font-family="Helvetica,sans-Serif" font-size="10.00"> +EQS</text>
</g>
</g>
</svg>
