<?xml version="1.0" encoding="UTF-8" standalone="no"?>
<!DOCTYPE svg PUBLIC "-//W3C//DTD SVG 1.1//EN"
 "http://www.w3.org/Graphics/SVG/1.1/DTD/svg11.dtd">
<!-- Generated by graphviz version 2.38.0 (20140413.2041)
 -->
<!-- Title: SDK::UEnvQueryTest_WaterHeight Pages: 1 -->
<svg width="497pt" height="353pt"
 viewBox="0.00 0.00 497.15 353.00" xmlns="http://www.w3.org/2000/svg" xmlns:xlink="http://www.w3.org/1999/xlink">
<g id="graph0" class="graph" transform="scale(1 1) rotate(0) translate(4 349)">
<title>SDK::UEnvQueryTest_WaterHeight</title>
<!-- Node1 -->
<g id="node1" class="node"><title>Node1</title>
<g id="a_node1"><a xlink:title=" ">
<polygon fill="#bfbfbf" stroke="black" points="135.154,-0.5 135.154,-68.5 245.154,-68.5 245.154,-0.5 135.154,-0.5"/>
<text text-anchor="start" x="143.154" y="-56.5" font-family="Helvetica,sans-Serif" font-size="10.00">SDK::UEnvQueryTest</text>
<text text-anchor="middle" x="190.154" y="-45.5" font-family="Helvetica,sans-Serif" font-size="10.00">_WaterHeight</text>
<polyline fill="none" stroke="black" points="135.154,-38.5 245.154,-38.5 "/>
<text text-anchor="middle" x="190.154" y="-26.5" font-family="Helvetica,sans-Serif" font-size="10.00"> </text>
<polyline fill="none" stroke="black" points="135.154,-19.5 245.154,-19.5 "/>
<text text-anchor="start" x="143.154" y="-7.5" font-family="Helvetica,sans-Serif" font-size="10.00">+ StaticClass()</text>
</a>
</g>
</g>
<!-- Node2 -->
<g id="node2" class="node"><title>Node2</title>
<g id="a_node2"><a xlink:href="a00835.html" target="_top" xlink:title=" ">
<polygon fill="none" stroke="red" points="102.154,-127.5 102.154,-184.5 212.154,-184.5 212.154,-127.5 102.154,-127.5"/>
<text text-anchor="middle" x="157.154" y="-172.5" font-family="Helvetica,sans-Serif" font-size="10.00">SDK::UEnvQueryTest</text>
<polyline fill="none" stroke="red" points="102.154,-165.5 212.154,-165.5 "/>
<text text-anchor="middle" x="157.154" y="-153.5" font-family="Helvetica,sans-Serif" font-size="10.00"> </text>
<polyline fill="none" stroke="red" points="102.154,-146.5 212.154,-146.5 "/>
<text text-anchor="start" x="110.154" y="-134.5" font-family="Helvetica,sans-Serif" font-size="10.00">+ StaticClass()</text>
</a>
</g>
</g>
<!-- Node2&#45;&gt;Node1 -->
<g id="edge1" class="edge"><title>Node2&#45;&gt;Node1</title>
<path fill="none" stroke="midnightblue" d="M167.539,-117.393C171.861,-101.742 176.835,-83.729 181.016,-68.5891"/>
<polygon fill="none" stroke="midnightblue" points="164.096,-116.713 164.807,-127.284 170.843,-118.576 164.096,-116.713"/>
</g>
<!-- Node13 -->
<g id="node3" class="node"><title>Node13</title>
<g id="a_node3"><a xlink:title=" ">
<polygon fill="none" stroke="#bfbfbf" points="139.654,-287.5 139.654,-344.5 174.654,-344.5 174.654,-287.5 139.654,-287.5"/>
<text text-anchor="middle" x="157.154" y="-332.5" font-family="Helvetica,sans-Serif" font-size="10.00">char</text>
<polyline fill="none" stroke="#bfbfbf" points="139.654,-325.5 174.654,-325.5 "/>
<text text-anchor="middle" x="157.154" y="-313.5" font-family="Helvetica,sans-Serif" font-size="10.00"> </text>
<polyline fill="none" stroke="#bfbfbf" points="139.654,-306.5 174.654,-306.5 "/>
<text text-anchor="middle" x="157.154" y="-294.5" font-family="Helvetica,sans-Serif" font-size="10.00"> </text>
</a>
</g>
</g>
<!-- Node13&#45;&gt;Node1 -->
<g id="edge3" class="edge"><title>Node13&#45;&gt;Node1</title>
<path fill="none" stroke="#404040" d="M139.628,-306.969C107.418,-291.105 39.6814,-252.336 13.1537,-196 -1.99357,-163.832 -6.09241,-145.896 13.1537,-116 37.3833,-78.3624 83.999,-58.1176 123.31,-47.3456"/>
<polygon fill="none" stroke="#404040" points="123.35,-47.3354 128.172,-41.9732 134.976,-44.3614 130.154,-49.7236 123.35,-47.3354"/>
<text text-anchor="middle" x="53.1537" y="-153.5" font-family="Helvetica,sans-Serif" font-size="10.00"> +UnknownData00</text>
</g>
<!-- Node13&#45;&gt;Node2 -->
<g id="edge2" class="edge"><title>Node13&#45;&gt;Node2</title>
<path fill="none" stroke="#404040" d="M157.154,-287.479C157.154,-262.484 157.154,-225.311 157.154,-197.029"/>
<polygon fill="none" stroke="#404040" points="157.154,-196.736 153.154,-190.736 157.154,-184.736 161.154,-190.736 157.154,-196.736"/>
<text text-anchor="middle" x="207.154" y="-261" font-family="Helvetica,sans-Serif" font-size="10.00"> +UnknownData01</text>
<text text-anchor="middle" x="207.154" y="-250" font-family="Helvetica,sans-Serif" font-size="10.00">+UnknownData02</text>
<text text-anchor="middle" x="207.154" y="-239" font-family="Helvetica,sans-Serif" font-size="10.00">+UnknownData03</text>
<text text-anchor="middle" x="207.154" y="-228" font-family="Helvetica,sans-Serif" font-size="10.00">+bWorkOnFloatValues</text>
<text text-anchor="middle" x="207.154" y="-217" font-family="Helvetica,sans-Serif" font-size="10.00">+UnknownData00</text>
</g>
<!-- Node10 -->
<g id="node5" class="node"><title>Node10</title>
<g id="a_node5"><a xlink:href="a25915.html" target="_top" xlink:title=" ">
<polygon fill="none" stroke="red" points="230.654,-116.5 230.654,-195.5 349.654,-195.5 349.654,-116.5 230.654,-116.5"/>
<text text-anchor="middle" x="290.154" y="-183.5" font-family="Helvetica,sans-Serif" font-size="10.00">SDK::UClass</text>
<polyline fill="none" stroke="red" points="230.654,-176.5 349.654,-176.5 "/>
<text text-anchor="middle" x="290.154" y="-164.5" font-family="Helvetica,sans-Serif" font-size="10.00"> </text>
<polyline fill="none" stroke="red" points="230.654,-157.5 349.654,-157.5 "/>
<text text-anchor="start" x="238.654" y="-145.5" font-family="Helvetica,sans-Serif" font-size="10.00">+ CreateDefaultObject()</text>
<text text-anchor="start" x="238.654" y="-134.5" font-family="Helvetica,sans-Serif" font-size="10.00">+ CreateDefaultObject()</text>
<text text-anchor="start" x="238.654" y="-123.5" font-family="Helvetica,sans-Serif" font-size="10.00">+ StaticClass()</text>
</a>
</g>
</g>
<!-- Node13&#45;&gt;Node10 -->
<g id="edge6" class="edge"><title>Node13&#45;&gt;Node10</title>
<path fill="none" stroke="#404040" d="M174.687,-312.092C197.943,-307.298 238.666,-295.49 261.154,-269 275.606,-251.976 282.975,-228.614 286.687,-207.63"/>
<polygon fill="none" stroke="#404040" points="286.708,-207.485 283.636,-200.962 288.476,-195.616 291.549,-202.14 286.708,-207.485"/>
<text text-anchor="middle" x="325.154" y="-239" font-family="Helvetica,sans-Serif" font-size="10.00"> +UnknownData00</text>
</g>
<!-- Node23 -->
<g id="node4" class="node"><title>Node23</title>
<g id="a_node4"><a xlink:title=" ">
<polygon fill="none" stroke="#bfbfbf" points="367.654,-127.5 367.654,-184.5 402.654,-184.5 402.654,-127.5 367.654,-127.5"/>
<text text-anchor="middle" x="385.154" y="-172.5" font-family="Helvetica,sans-Serif" font-size="10.00">float</text>
<polyline fill="none" stroke="#bfbfbf" points="367.654,-165.5 402.654,-165.5 "/>
<text text-anchor="middle" x="385.154" y="-153.5" font-family="Helvetica,sans-Serif" font-size="10.00"> </text>
<polyline fill="none" stroke="#bfbfbf" points="367.654,-146.5 402.654,-146.5 "/>
<text text-anchor="middle" x="385.154" y="-134.5" font-family="Helvetica,sans-Serif" font-size="10.00"> </text>
</a>
</g>
</g>
<!-- Node23&#45;&gt;Node1 -->
<g id="edge4" class="edge"><title>Node23&#45;&gt;Node1</title>
<path fill="none" stroke="#404040" d="M382.282,-127.305C379.487,-113.517 373.983,-97.5772 363.154,-87 335.078,-59.5785 293.07,-46.6613 257.48,-40.6199"/>
<polygon fill="none" stroke="#404040" points="257.057,-40.5559 250.525,-43.6114 245.193,-38.7573 251.724,-35.7018 257.057,-40.5559"/>
<text text-anchor="middle" x="430.654" y="-90" font-family="Helvetica,sans-Serif" font-size="10.00"> +WaterHeightCheckOffset</text>
</g>
<!-- Node10&#45;&gt;Node1 -->
<g id="edge5" class="edge"><title>Node10&#45;&gt;Node1</title>
<path fill="none" stroke="#404040" d="M242.137,-116.304C236.095,-110.476 230.254,-104.299 225.154,-98 220.541,-92.3038 216.197,-85.9178 212.243,-79.4614"/>
<polygon fill="none" stroke="#404040" points="211.989,-79.0238 205.521,-75.8354 205.977,-68.6387 212.445,-71.827 211.989,-79.0238"/>
<text text-anchor="middle" x="294.154" y="-90" font-family="Helvetica,sans-Serif" font-size="10.00"> +ActorWithWaterPlaneContext</text>
</g>
</g>
</svg>
