<?xml version="1.0" encoding="UTF-8" standalone="no"?>
<!DOCTYPE svg PUBLIC "-//W3C//DTD SVG 1.1//EN"
 "http://www.w3.org/Graphics/SVG/1.1/DTD/svg11.dtd">
<!-- Generated by graphviz version 2.38.0 (20140413.2041)
 -->
<!-- Title: SDK::UBTTask_MoveToTarget Pages: 1 -->
<svg width="185pt" height="270pt"
 viewBox="0.00 0.00 185.00 270.00" xmlns="http://www.w3.org/2000/svg" xmlns:xlink="http://www.w3.org/1999/xlink">
<g id="graph0" class="graph" transform="scale(1 1) rotate(0) translate(4 266)">
<title>SDK::UBTTask_MoveToTarget</title>
<!-- Node1 -->
<g id="node1" class="node"><title>Node1</title>
<g id="a_node1"><a xlink:title=" ">
<polygon fill="#bfbfbf" stroke="black" points="0,-0.5 0,-101.5 177,-101.5 177,-0.5 0,-0.5"/>
<text text-anchor="middle" x="88.5" y="-89.5" font-family="Helvetica,sans-Serif" font-size="10.00">SDK::UBTTask_MoveToTarget</text>
<polyline fill="none" stroke="black" points="0,-82.5 177,-82.5 "/>
<text text-anchor="start" x="8" y="-70.5" font-family="Helvetica,sans-Serif" font-size="10.00">+ MaxDistFromDestinationPos</text>
<text text-anchor="start" x="8" y="-59.5" font-family="Helvetica,sans-Serif" font-size="10.00">ToTargetPos</text>
<text text-anchor="start" x="8" y="-48.5" font-family="Helvetica,sans-Serif" font-size="10.00">+ OverrideMaxSpeedToSlowDistance</text>
<text text-anchor="start" x="8" y="-37.5" font-family="Helvetica,sans-Serif" font-size="10.00">Factor</text>
<text text-anchor="start" x="8" y="-26.5" font-family="Helvetica,sans-Serif" font-size="10.00">+ TargetBlackboardKey</text>
<polyline fill="none" stroke="black" points="0,-19.5 177,-19.5 "/>
<text text-anchor="start" x="8" y="-7.5" font-family="Helvetica,sans-Serif" font-size="10.00">+ StaticClass()</text>
</a>
</g>
</g>
<!-- Node2 -->
<g id="node2" class="node"><title>Node2</title>
<g id="a_node2"><a xlink:href="a01219.html" target="_top" xlink:title=" ">
<polygon fill="none" stroke="red" points="28,-138.5 28,-261.5 149,-261.5 149,-138.5 28,-138.5"/>
<text text-anchor="middle" x="88.5" y="-249.5" font-family="Helvetica,sans-Serif" font-size="10.00">SDK::UBTTask_MoveTo</text>
<polyline fill="none" stroke="red" points="28,-242.5 149,-242.5 "/>
<text text-anchor="start" x="36" y="-230.5" font-family="Helvetica,sans-Serif" font-size="10.00">+ AcceptableRadius</text>
<text text-anchor="start" x="36" y="-219.5" font-family="Helvetica,sans-Serif" font-size="10.00">+ UnknownData00</text>
<text text-anchor="start" x="36" y="-208.5" font-family="Helvetica,sans-Serif" font-size="10.00">+ FilterClass</text>
<text text-anchor="start" x="36" y="-197.5" font-family="Helvetica,sans-Serif" font-size="10.00">+ bAllowStrafe</text>
<text text-anchor="start" x="36" y="-186.5" font-family="Helvetica,sans-Serif" font-size="10.00">+ bAllowPartialPath</text>
<text text-anchor="start" x="36" y="-175.5" font-family="Helvetica,sans-Serif" font-size="10.00">+ bStopOnOverlap</text>
<text text-anchor="start" x="36" y="-164.5" font-family="Helvetica,sans-Serif" font-size="10.00">+ UnknownData01</text>
<polyline fill="none" stroke="red" points="28,-157.5 149,-157.5 "/>
<text text-anchor="start" x="36" y="-145.5" font-family="Helvetica,sans-Serif" font-size="10.00">+ StaticClass()</text>
</a>
</g>
</g>
<!-- Node2&#45;&gt;Node1 -->
<g id="edge1" class="edge"><title>Node2&#45;&gt;Node1</title>
<path fill="none" stroke="midnightblue" d="M88.5,-128.289C88.5,-119.323 88.5,-110.301 88.5,-101.758"/>
<polygon fill="none" stroke="midnightblue" points="85.0001,-128.361 88.5,-138.361 92.0001,-128.361 85.0001,-128.361"/>
</g>
</g>
</svg>
