<?xml version="1.0" encoding="UTF-8" standalone="no"?>
<!DOCTYPE svg PUBLIC "-//W3C//DTD SVG 1.1//EN"
 "http://www.w3.org/Graphics/SVG/1.1/DTD/svg11.dtd">
<!-- Generated by graphviz version 2.38.0 (20140413.2041)
 -->
<!-- Title: SDK::UBTTask_PlayMontage Pages: 1 -->
<!--zoomable 375 -->
<svg id="main" version="1.1" xmlns="http://www.w3.org/2000/svg" xmlns:xlink="http://www.w3.org/1999/xlink" xml:space="preserve" onload="init(evt)">
<style type="text/css"><![CDATA[
.edge:hover path { stroke: red; }
.edge:hover polygon { stroke: red; fill: red; }
]]></style>
<script type="text/javascript"><![CDATA[
var edges = document.getElementsByTagName('g');
if (edges && edges.length) {
  for (var i=0;i<edges.length;i++) {
    if (edges[i].id.substr(0,4)=='edge') {
      edges[i].setAttribute('class','edge');
    }
  }
}
]]></script>
        <defs>
                <circle id="rim" cx="0" cy="0" r="7"/>
                <circle id="rim2" cx="0" cy="0" r="3.5"/>
                <g id="zoomPlus">
                        <use xlink:href="#rim" fill="#404040">
                                <set attributeName="fill" to="#808080" begin="zoomplus.mouseover" end="zoomplus.mouseout"/>
                        </use>
                        <path d="M-4,0h8M0,-4v8" fill="none" stroke="white" stroke-width="1.5" pointer-events="none"/>
                </g>
                <g id="zoomMin">
                        <use xlink:href="#rim" fill="#404040">
                                <set attributeName="fill" to="#808080" begin="zoomminus.mouseover" end="zoomminus.mouseout"/>
                        </use>
                        <path d="M-4,0h8" fill="none" stroke="white" stroke-width="1.5" pointer-events="none"/>
                </g>
                <g id="dirArrow">
                        <path fill="none" stroke="white" stroke-width="1.5" d="M0,-3.0v7 M-2.5,-0.5L0,-3.0L2.5,-0.5"/>
                </g>
               <g id="resetDef">
                       <use xlink:href="#rim2" fill="#404040">
                               <set attributeName="fill" to="#808080" begin="reset.mouseover" end="reset.mouseout"/>
                       </use>
               </g>
        </defs>

<script type="text/javascript">
var viewWidth = 508;
var viewHeight = 375;
var sectionId = 'dynsection-1';
</script>
<script xlink:href="svgpan.js"/>
<svg id="graph" class="graph">
<g id="viewport">
<title>SDK::UBTTask_PlayMontage</title>
<!-- Node1 -->
<g id="node1" class="node"><title>Node1</title>
<g id="a_node1"><a xlink:title=" ">
<polygon fill="#bfbfbf" stroke="black" points="152.244,-0.5 152.244,-57.5 297.244,-57.5 297.244,-0.5 152.244,-0.5"/>
<text text-anchor="middle" x="224.744" y="-45.5" font-family="Helvetica,sans-Serif" font-size="10.00">SDK::UBTTask_PlayMontage</text>
<polyline fill="none" stroke="black" points="152.244,-38.5 297.244,-38.5 "/>
<text text-anchor="middle" x="224.744" y="-26.5" font-family="Helvetica,sans-Serif" font-size="10.00"> </text>
<polyline fill="none" stroke="black" points="152.244,-19.5 297.244,-19.5 "/>
<text text-anchor="start" x="160.244" y="-7.5" font-family="Helvetica,sans-Serif" font-size="10.00">+ StaticClass()</text>
</a>
</g>
</g>
<!-- Node2 -->
<g id="node2" class="node"><title>Node2</title>
<g id="a_node2"><a xlink:href="a00835.html" target="_top" xlink:title=" ">
<polygon fill="none" stroke="red" points="109.244,-155 109.244,-212 214.244,-212 214.244,-155 109.244,-155"/>
<text text-anchor="middle" x="161.744" y="-200" font-family="Helvetica,sans-Serif" font-size="10.00">SDK::UBTTaskNode</text>
<polyline fill="none" stroke="red" points="109.244,-193 214.244,-193 "/>
<text text-anchor="middle" x="161.744" y="-181" font-family="Helvetica,sans-Serif" font-size="10.00"> </text>
<polyline fill="none" stroke="red" points="109.244,-174 214.244,-174 "/>
<text text-anchor="start" x="117.244" y="-162" font-family="Helvetica,sans-Serif" font-size="10.00">+ StaticClass()</text>
</a>
</g>
</g>
<!-- Node2&#45;&gt;Node1 -->
<g id="edge1" class="edge"><title>Node2&#45;&gt;Node1</title>
<path fill="none" stroke="midnightblue" d="M177.088,-145.359C188.267,-118.297 203.17,-82.2234 213.314,-57.6684"/>
<polygon fill="none" stroke="midnightblue" points="173.736,-144.305 173.153,-154.883 180.206,-146.977 173.736,-144.305"/>
</g>
<!-- Node13 -->
<g id="node3" class="node"><title>Node13</title>
<g id="a_node3"><a xlink:title=" ">
<polygon fill="none" stroke="#bfbfbf" points="39.2442,-309.5 39.2442,-366.5 74.2442,-366.5 74.2442,-309.5 39.2442,-309.5"/>
<text text-anchor="middle" x="56.7442" y="-354.5" font-family="Helvetica,sans-Serif" font-size="10.00">char</text>
<polyline fill="none" stroke="#bfbfbf" points="39.2442,-347.5 74.2442,-347.5 "/>
<text text-anchor="middle" x="56.7442" y="-335.5" font-family="Helvetica,sans-Serif" font-size="10.00"> </text>
<polyline fill="none" stroke="#bfbfbf" points="39.2442,-328.5 74.2442,-328.5 "/>
<text text-anchor="middle" x="56.7442" y="-316.5" font-family="Helvetica,sans-Serif" font-size="10.00"> </text>
</a>
</g>
</g>
<!-- Node13&#45;&gt;Node1 -->
<g id="edge5" class="edge"><title>Node13&#45;&gt;Node1</title>
<path fill="none" stroke="#404040" d="M40.6062,-309.147C15.9322,-262.491 -23.9513,-167.514 19.7442,-105 46.9408,-66.0905 96.6052,-47.3018 140.238,-38.2592"/>
<polygon fill="none" stroke="#404040" points="140.277,-38.2519 145.424,-33.2013 152.065,-36.0097 146.918,-41.0604 140.277,-38.2519"/>
<text text-anchor="middle" x="59.7442" y="-181" font-family="Helvetica,sans-Serif" font-size="10.00"> +UnknownData00</text>
</g>
<!-- Node13&#45;&gt;Node2 -->
<g id="edge2" class="edge"><title>Node13&#45;&gt;Node2</title>
<path fill="none" stroke="#404040" d="M74.3188,-311.475C91.0914,-287.115 116.568,-250.113 135.699,-222.327"/>
<polygon fill="none" stroke="#404040" points="135.884,-222.058 135.992,-214.848 142.69,-212.175 142.581,-219.385 135.884,-222.058"/>
<text text-anchor="middle" x="133.744" y="-283" font-family="Helvetica,sans-Serif" font-size="10.00"> +UnknownData00</text>
</g>
<!-- Node4 -->
<g id="node4" class="node"><title>Node4</title>
<g id="a_node4"><a xlink:href="a26095.html" target="_top" xlink:title=" ">
<polygon fill="none" stroke="red" points="232.744,-105.5 232.744,-261.5 344.744,-261.5 344.744,-105.5 232.744,-105.5"/>
<text text-anchor="middle" x="288.744" y="-249.5" font-family="Helvetica,sans-Serif" font-size="10.00">SDK::UObject</text>
<polyline fill="none" stroke="red" points="232.744,-242.5 344.744,-242.5 "/>
<text text-anchor="middle" x="288.744" y="-230.5" font-family="Helvetica,sans-Serif" font-size="10.00"> </text>
<polyline fill="none" stroke="red" points="232.744,-223.5 344.744,-223.5 "/>
<text text-anchor="start" x="240.744" y="-211.5" font-family="Helvetica,sans-Serif" font-size="10.00">+ GetName()</text>
<text text-anchor="start" x="240.744" y="-200.5" font-family="Helvetica,sans-Serif" font-size="10.00">+ GetFullName()</text>
<text text-anchor="start" x="240.744" y="-189.5" font-family="Helvetica,sans-Serif" font-size="10.00">+ IsA()</text>
<text text-anchor="start" x="240.744" y="-178.5" font-family="Helvetica,sans-Serif" font-size="10.00">+ ProcessEvent()</text>
<text text-anchor="start" x="240.744" y="-167.5" font-family="Helvetica,sans-Serif" font-size="10.00">+ ExecuteUbergraph()</text>
<text text-anchor="start" x="240.744" y="-156.5" font-family="Helvetica,sans-Serif" font-size="10.00">+ StaticClass()</text>
<text text-anchor="start" x="240.744" y="-145.5" font-family="Helvetica,sans-Serif" font-size="10.00">+ GetGlobalObjects()</text>
<text text-anchor="start" x="240.744" y="-134.5" font-family="Helvetica,sans-Serif" font-size="10.00">+ FindObject()</text>
<text text-anchor="start" x="240.744" y="-123.5" font-family="Helvetica,sans-Serif" font-size="10.00">+ FindClass()</text>
<text text-anchor="start" x="240.744" y="-112.5" font-family="Helvetica,sans-Serif" font-size="10.00">+ GetObjectCasted()</text>
</a>
</g>
</g>
<!-- Node4&#45;&gt;Node1 -->
<g id="edge3" class="edge"><title>Node4&#45;&gt;Node1</title>
<path fill="none" stroke="#404040" d="M256.369,-105.356C251.031,-92.6358 245.706,-79.9484 240.99,-68.7105"/>
<polygon fill="none" stroke="#404040" points="240.964,-68.6486 234.954,-64.6639 236.32,-57.5835 242.33,-61.5681 240.964,-68.6486"/>
<text text-anchor="middle" x="286.244" y="-79" font-family="Helvetica,sans-Serif" font-size="10.00"> +MontageToPlay</text>
</g>
<!-- Node4&#45;&gt;Node4 -->
<g id="edge4" class="edge"><title>Node4&#45;&gt;Node4</title>
<path fill="none" stroke="#404040" d="M344.89,-201.643C355.366,-199.409 362.744,-193.361 362.744,-183.5 362.744,-177.799 360.278,-173.372 356.173,-170.221"/>
<polygon fill="none" stroke="#404040" points="355.91,-170.107 348.817,-171.405 344.89,-165.357 351.984,-164.059 355.91,-170.107"/>
<text text-anchor="middle" x="379.744" y="-181" font-family="Helvetica,sans-Serif" font-size="10.00"> +Outer</text>
</g>
<!-- Node26 -->
<g id="node5" class="node"><title>Node26</title>
<g id="a_node5"><a xlink:title=" ">
<polygon fill="none" stroke="#bfbfbf" points="415.244,-155 415.244,-212 450.244,-212 450.244,-155 415.244,-155"/>
<text text-anchor="middle" x="432.744" y="-200" font-family="Helvetica,sans-Serif" font-size="10.00">bool</text>
<polyline fill="none" stroke="#bfbfbf" points="415.244,-193 450.244,-193 "/>
<text text-anchor="middle" x="432.744" y="-181" font-family="Helvetica,sans-Serif" font-size="10.00"> </text>
<polyline fill="none" stroke="#bfbfbf" points="415.244,-174 450.244,-174 "/>
<text text-anchor="middle" x="432.744" y="-162" font-family="Helvetica,sans-Serif" font-size="10.00"> </text>
</a>
</g>
</g>
<!-- Node26&#45;&gt;Node1 -->
<g id="edge6" class="edge"><title>Node26&#45;&gt;Node1</title>
<path fill="none" stroke="#404040" d="M428.883,-154.82C425.327,-138.548 418.557,-118.573 405.744,-105 380.053,-77.7854 343.011,-60.1099 309.121,-48.801"/>
<polygon fill="none" stroke="#404040" points="308.731,-48.6778 301.804,-50.6835 297.289,-45.0612 304.215,-43.0555 308.731,-48.6778"/>
<text text-anchor="middle" x="441.244" y="-79" font-family="Helvetica,sans-Serif" font-size="10.00"> +PlayAsDynamicMontage</text>
</g>
</g>
</svg>
        <g id="navigator" transform="translate(0 0)" fill="#404254">
                <rect fill="#f2f5e9" fill-opacity="0.5" stroke="#606060" stroke-width=".5" x="0" y="0" width="60" height="60"/>
                <use id="zoomplus" xlink:href="#zoomPlus" x="17" y="9" onmousedown="handleZoom(evt,'in')"/>
                <use id="zoomminus" xlink:href="#zoomMin" x="42" y="9" onmousedown="handleZoom(evt,'out')"/>
                <use id="reset" xlink:href="#resetDef" x="30" y="36" onmousedown="handleReset()"/>
                <g id="arrowUp" xlink:href="#dirArrow" transform="translate(30 24)" onmousedown="handlePan(0,-1)">
                  <use xlink:href="#rim" fill="#404040">
                        <set attributeName="fill" to="#808080" begin="arrowUp.mouseover" end="arrowUp.mouseout"/>
                  </use>
                  <path fill="none" stroke="white" stroke-width="1.5" d="M0,-3.0v7 M-2.5,-0.5L0,-3.0L2.5,-0.5"/>
                </g>
                <g id="arrowRight" xlink:href="#dirArrow" transform="rotate(90) translate(36 -43)" onmousedown="handlePan(1,0)">
                  <use xlink:href="#rim" fill="#404040">
                        <set attributeName="fill" to="#808080" begin="arrowRight.mouseover" end="arrowRight.mouseout"/>
                  </use>
                  <path fill="none" stroke="white" stroke-width="1.5" d="M0,-3.0v7 M-2.5,-0.5L0,-3.0L2.5,-0.5"/>
                </g>
                <g id="arrowDown" xlink:href="#dirArrow" transform="rotate(180) translate(-30 -48)" onmousedown="handlePan(0,1)">
                  <use xlink:href="#rim" fill="#404040">
                        <set attributeName="fill" to="#808080" begin="arrowDown.mouseover" end="arrowDown.mouseout"/>
                  </use>
                  <path fill="none" stroke="white" stroke-width="1.5" d="M0,-3.0v7 M-2.5,-0.5L0,-3.0L2.5,-0.5"/>
                </g>
                <g id="arrowLeft" xlink:href="#dirArrow" transform="rotate(270) translate(-36 17)" onmousedown="handlePan(-1,0)">
                  <use xlink:href="#rim" fill="#404040">
                        <set attributeName="fill" to="#808080" begin="arrowLeft.mouseover" end="arrowLeft.mouseout"/>
                  </use>
                  <path fill="none" stroke="white" stroke-width="1.5" d="M0,-3.0v7 M-2.5,-0.5L0,-3.0L2.5,-0.5"/>
                </g>
        </g>
        <svg viewBox="0 0 15 15" width="100%" height="30px" preserveAspectRatio="xMaxYMin meet">
         <g id="arrow_out" transform="scale(0.3 0.3)">
          <a xlink:href="a24625_org.svg" target="_base">
           <rect id="button" ry="5" rx="5" y="6" x="6" height="38" width="38"
                fill="#f2f5e9" fill-opacity="0.5" stroke="#606060" stroke-width="1.0"/>
           <path id="arrow"
             d="M 11.500037,31.436501 C 11.940474,20.09759 22.043105,11.32322 32.158766,21.979434 L 37.068811,17.246167 C 37.068811,17.246167 37.088388,32 37.088388,32 L 22.160133,31.978069 C 22.160133,31.978069 26.997745,27.140456 26.997745,27.140456 C 18.528582,18.264221 13.291696,25.230495 11.500037,31.436501 z"
             style="fill:#404040;"/>
          </a>
         </g>
        </svg>
</svg>
