<?xml version="1.0" encoding="UTF-8" standalone="no"?>
<!DOCTYPE svg PUBLIC "-//W3C//DTD SVG 1.1//EN"
 "http://www.w3.org/Graphics/SVG/1.1/DTD/svg11.dtd">
<!-- Generated by graphviz version 2.38.0 (20140413.2041)
 -->
<!-- Title: SDK::UBTTask_TriggerNotification Pages: 1 -->
<svg width="250pt" height="193pt"
 viewBox="0.00 0.00 250.00 193.00" xmlns="http://www.w3.org/2000/svg" xmlns:xlink="http://www.w3.org/1999/xlink">
<g id="graph0" class="graph" transform="scale(1 1) rotate(0) translate(4 189)">
<title>SDK::UBTTask_TriggerNotification</title>
<!-- Node1 -->
<g id="node1" class="node"><title>Node1</title>
<g id="a_node1"><a xlink:title=" ">
<polygon fill="#bfbfbf" stroke="black" points="35,-0.5 35,-57.5 200,-57.5 200,-0.5 35,-0.5"/>
<text text-anchor="middle" x="117.5" y="-45.5" font-family="Helvetica,sans-Serif" font-size="10.00">SDK::UBTTask_TriggerNotification</text>
<polyline fill="none" stroke="black" points="35,-38.5 200,-38.5 "/>
<text text-anchor="middle" x="117.5" y="-26.5" font-family="Helvetica,sans-Serif" font-size="10.00"> </text>
<polyline fill="none" stroke="black" points="35,-19.5 200,-19.5 "/>
<text text-anchor="start" x="43" y="-7.5" font-family="Helvetica,sans-Serif" font-size="10.00">+ StaticClass()</text>
</a>
</g>
</g>
<!-- Node2 -->
<g id="node2" class="node"><title>Node2</title>
<g id="a_node2"><a xlink:href="a00835.html" target="_top" xlink:title=" ">
<polygon fill="none" stroke="red" points="0,-116.5 0,-173.5 105,-173.5 105,-116.5 0,-116.5"/>
<text text-anchor="middle" x="52.5" y="-161.5" font-family="Helvetica,sans-Serif" font-size="10.00">SDK::UBTTaskNode</text>
<polyline fill="none" stroke="red" points="0,-154.5 105,-154.5 "/>
<text text-anchor="middle" x="52.5" y="-142.5" font-family="Helvetica,sans-Serif" font-size="10.00"> </text>
<polyline fill="none" stroke="red" points="0,-135.5 105,-135.5 "/>
<text text-anchor="start" x="8" y="-123.5" font-family="Helvetica,sans-Serif" font-size="10.00">+ StaticClass()</text>
</a>
</g>
</g>
<!-- Node2&#45;&gt;Node1 -->
<g id="edge1" class="edge"><title>Node2&#45;&gt;Node1</title>
<path fill="none" stroke="midnightblue" d="M73.4436,-107.268C82.6122,-91.1879 93.1916,-72.6332 101.685,-57.7372"/>
<polygon fill="none" stroke="midnightblue" points="70.1474,-105.983 68.2347,-116.404 76.2284,-109.45 70.1474,-105.983"/>
</g>
<!-- Node10 -->
<g id="node3" class="node"><title>Node10</title>
<g id="a_node3"><a xlink:href="a26127.html" target="_top" xlink:title=" ">
<polygon fill="none" stroke="red" points="123,-105.5 123,-184.5 242,-184.5 242,-105.5 123,-105.5"/>
<text text-anchor="middle" x="182.5" y="-172.5" font-family="Helvetica,sans-Serif" font-size="10.00">SDK::UClass</text>
<polyline fill="none" stroke="red" points="123,-165.5 242,-165.5 "/>
<text text-anchor="middle" x="182.5" y="-153.5" font-family="Helvetica,sans-Serif" font-size="10.00"> </text>
<polyline fill="none" stroke="red" points="123,-146.5 242,-146.5 "/>
<text text-anchor="start" x="131" y="-134.5" font-family="Helvetica,sans-Serif" font-size="10.00">+ CreateDefaultObject()</text>
<text text-anchor="start" x="131" y="-123.5" font-family="Helvetica,sans-Serif" font-size="10.00">+ CreateDefaultObject()</text>
<text text-anchor="start" x="131" y="-112.5" font-family="Helvetica,sans-Serif" font-size="10.00">+ StaticClass()</text>
</a>
</g>
</g>
<!-- Node10&#45;&gt;Node1 -->
<g id="edge2" class="edge"><title>Node10&#45;&gt;Node1</title>
<path fill="none" stroke="#404040" d="M160.494,-105.405C153.67,-93.4367 146.155,-80.2559 139.342,-68.3074"/>
<polygon fill="none" stroke="#404040" points="139.267,-68.1754 132.82,-64.9444 133.323,-57.7509 139.77,-60.9819 139.267,-68.1754"/>
<text text-anchor="middle" x="182" y="-79" font-family="Helvetica,sans-Serif" font-size="10.00"> +NotificationId</text>
</g>
</g>
</svg>
