<?xml version="1.0" encoding="UTF-8" standalone="no"?>
<!DOCTYPE svg PUBLIC "-//W3C//DTD SVG 1.1//EN"
 "http://www.w3.org/Graphics/SVG/1.1/DTD/svg11.dtd">
<!-- Generated by graphviz version 2.38.0 (20140413.2041)
 -->
<!-- Title: SDK::UBTTask_SwimTo Pages: 1 -->
<svg width="167pt" height="281pt"
 viewBox="0.00 0.00 167.00 281.00" xmlns="http://www.w3.org/2000/svg" xmlns:xlink="http://www.w3.org/1999/xlink">
<g id="graph0" class="graph" transform="scale(1 1) rotate(0) translate(4 277)">
<title>SDK::UBTTask_SwimTo</title>
<!-- Node1 -->
<g id="node1" class="node"><title>Node1</title>
<g id="a_node1"><a xlink:title=" ">
<polygon fill="#bfbfbf" stroke="black" points="15.5,-0.5 15.5,-178.5 143.5,-178.5 143.5,-0.5 15.5,-0.5"/>
<text text-anchor="middle" x="79.5" y="-166.5" font-family="Helvetica,sans-Serif" font-size="10.00">SDK::UBTTask_SwimTo</text>
<polyline fill="none" stroke="black" points="15.5,-159.5 143.5,-159.5 "/>
<text text-anchor="start" x="23.5" y="-147.5" font-family="Helvetica,sans-Serif" font-size="10.00">+ AcceptableRadius</text>
<text text-anchor="start" x="23.5" y="-136.5" font-family="Helvetica,sans-Serif" font-size="10.00">+ GoalCheckMode</text>
<text text-anchor="start" x="23.5" y="-125.5" font-family="Helvetica,sans-Serif" font-size="10.00">+ ArcMode</text>
<text text-anchor="start" x="23.5" y="-114.5" font-family="Helvetica,sans-Serif" font-size="10.00">+ Abort3DSwimIfCresting</text>
<text text-anchor="start" x="23.5" y="-103.5" font-family="Helvetica,sans-Serif" font-size="10.00">+ UnknownData00</text>
<text text-anchor="start" x="23.5" y="-92.5" font-family="Helvetica,sans-Serif" font-size="10.00">+ TargetActorZOffset</text>
<text text-anchor="start" x="23.5" y="-81.5" font-family="Helvetica,sans-Serif" font-size="10.00">+ SwimSyncMode</text>
<text text-anchor="start" x="23.5" y="-70.5" font-family="Helvetica,sans-Serif" font-size="10.00">+ TrackTargetActor</text>
<text text-anchor="start" x="23.5" y="-59.5" font-family="Helvetica,sans-Serif" font-size="10.00">+ UnknownData01</text>
<text text-anchor="start" x="23.5" y="-48.5" font-family="Helvetica,sans-Serif" font-size="10.00">+ TrackedTargetActorKey</text>
<text text-anchor="start" x="23.5" y="-37.5" font-family="Helvetica,sans-Serif" font-size="10.00">+ LineOfSightTestMode</text>
<text text-anchor="start" x="23.5" y="-26.5" font-family="Helvetica,sans-Serif" font-size="10.00">+ UnknownData02</text>
<polyline fill="none" stroke="black" points="15.5,-19.5 143.5,-19.5 "/>
<text text-anchor="start" x="23.5" y="-7.5" font-family="Helvetica,sans-Serif" font-size="10.00">+ StaticClass()</text>
</a>
</g>
</g>
<!-- Node2 -->
<g id="node2" class="node"><title>Node2</title>
<g id="a_node2"><a xlink:href="a00839.html" target="_top" xlink:title=" ">
<polygon fill="none" stroke="red" points="0,-215.5 0,-272.5 159,-272.5 159,-215.5 0,-215.5"/>
<text text-anchor="middle" x="79.5" y="-260.5" font-family="Helvetica,sans-Serif" font-size="10.00">SDK::UBTTask_BlackboardBase</text>
<polyline fill="none" stroke="red" points="0,-253.5 159,-253.5 "/>
<text text-anchor="start" x="8" y="-241.5" font-family="Helvetica,sans-Serif" font-size="10.00">+ BlackboardKey</text>
<polyline fill="none" stroke="red" points="0,-234.5 159,-234.5 "/>
<text text-anchor="start" x="8" y="-222.5" font-family="Helvetica,sans-Serif" font-size="10.00">+ StaticClass()</text>
</a>
</g>
</g>
<!-- Node2&#45;&gt;Node1 -->
<g id="edge1" class="edge"><title>Node2&#45;&gt;Node1</title>
<path fill="none" stroke="midnightblue" d="M79.5,-205.374C79.5,-197.089 79.5,-187.977 79.5,-178.62"/>
<polygon fill="none" stroke="midnightblue" points="76.0001,-205.383 79.5,-215.383 83.0001,-205.383 76.0001,-205.383"/>
</g>
</g>
</svg>
