<?xml version="1.0" encoding="UTF-8" standalone="no"?>
<!DOCTYPE svg PUBLIC "-//W3C//DTD SVG 1.1//EN"
 "http://www.w3.org/Graphics/SVG/1.1/DTD/svg11.dtd">
<!-- Generated by graphviz version 2.38.0 (20140413.2041)
 -->
<!-- Title: SDK::FEventAIBountySpawnerWaveCompleted Pages: 1 -->
<!--zoomable 628 -->
<svg id="main" version="1.1" xmlns="http://www.w3.org/2000/svg" xmlns:xlink="http://www.w3.org/1999/xlink" xml:space="preserve" onload="init(evt)">
<style type="text/css"><![CDATA[
.edge:hover path { stroke: red; }
.edge:hover polygon { stroke: red; fill: red; }
]]></style>
<script type="text/javascript"><![CDATA[
var edges = document.getElementsByTagName('g');
if (edges && edges.length) {
  for (var i=0;i<edges.length;i++) {
    if (edges[i].id.substr(0,4)=='edge') {
      edges[i].setAttribute('class','edge');
    }
  }
}
]]></script>
        <defs>
                <circle id="rim" cx="0" cy="0" r="7"/>
                <circle id="rim2" cx="0" cy="0" r="3.5"/>
                <g id="zoomPlus">
                        <use xlink:href="#rim" fill="#404040">
                                <set attributeName="fill" to="#808080" begin="zoomplus.mouseover" end="zoomplus.mouseout"/>
                        </use>
                        <path d="M-4,0h8M0,-4v8" fill="none" stroke="white" stroke-width="1.5" pointer-events="none"/>
                </g>
                <g id="zoomMin">
                        <use xlink:href="#rim" fill="#404040">
                                <set attributeName="fill" to="#808080" begin="zoomminus.mouseover" end="zoomminus.mouseout"/>
                        </use>
                        <path d="M-4,0h8" fill="none" stroke="white" stroke-width="1.5" pointer-events="none"/>
                </g>
                <g id="dirArrow">
                        <path fill="none" stroke="white" stroke-width="1.5" d="M0,-3.0v7 M-2.5,-0.5L0,-3.0L2.5,-0.5"/>
                </g>
               <g id="resetDef">
                       <use xlink:href="#rim2" fill="#404040">
                               <set attributeName="fill" to="#808080" begin="reset.mouseover" end="reset.mouseout"/>
                       </use>
               </g>
        </defs>

<script type="text/javascript">
var viewWidth = 530;
var viewHeight = 628;
var sectionId = 'dynsection-0';
</script>
<script xlink:href="svgpan.js"/>
<svg id="graph" class="graph">
<g id="viewport">
<title>SDK::FEventAIBountySpawnerWaveCompleted</title>
<!-- Node1 -->
<g id="node1" class="node"><title>Node1</title>
<g id="a_node1"><a xlink:title=" ">
<polygon fill="#bfbfbf" stroke="black" points="219.08,-0.5 219.08,-68.5 369.08,-68.5 369.08,-0.5 219.08,-0.5"/>
<text text-anchor="start" x="227.08" y="-56.5" font-family="Helvetica,sans-Serif" font-size="10.00">SDK::FEventAIBountySpawner</text>
<text text-anchor="middle" x="294.08" y="-45.5" font-family="Helvetica,sans-Serif" font-size="10.00">WaveCompleted</text>
<polyline fill="none" stroke="black" points="219.08,-38.5 369.08,-38.5 "/>
<text text-anchor="middle" x="294.08" y="-26.5" font-family="Helvetica,sans-Serif" font-size="10.00"> </text>
<polyline fill="none" stroke="black" points="219.08,-19.5 369.08,-19.5 "/>
<text text-anchor="middle" x="294.08" y="-7.5" font-family="Helvetica,sans-Serif" font-size="10.00"> </text>
</a>
</g>
</g>
<!-- Node2 -->
<g id="node2" class="node"><title>Node2</title>
<g id="a_node2"><a xlink:href="a25627.html" target="_top" xlink:title=" ">
<polygon fill="none" stroke="red" points="28.0804,-507.5 28.0804,-619.5 134.08,-619.5 134.08,-507.5 28.0804,-507.5"/>
<text text-anchor="middle" x="81.0804" y="-607.5" font-family="Helvetica,sans-Serif" font-size="10.00">SDK::FName</text>
<polyline fill="none" stroke="red" points="28.0804,-600.5 134.08,-600.5 "/>
<text text-anchor="middle" x="81.0804" y="-588.5" font-family="Helvetica,sans-Serif" font-size="10.00"> </text>
<polyline fill="none" stroke="red" points="28.0804,-581.5 134.08,-581.5 "/>
<text text-anchor="start" x="36.0804" y="-569.5" font-family="Helvetica,sans-Serif" font-size="10.00">+ FName()</text>
<text text-anchor="start" x="36.0804" y="-558.5" font-family="Helvetica,sans-Serif" font-size="10.00">+ FName()</text>
<text text-anchor="start" x="36.0804" y="-547.5" font-family="Helvetica,sans-Serif" font-size="10.00">+ FName()</text>
<text text-anchor="start" x="36.0804" y="-536.5" font-family="Helvetica,sans-Serif" font-size="10.00">+ GetName()</text>
<text text-anchor="start" x="36.0804" y="-525.5" font-family="Helvetica,sans-Serif" font-size="10.00">+ operator==()</text>
<text text-anchor="start" x="36.0804" y="-514.5" font-family="Helvetica,sans-Serif" font-size="10.00">+ GetGlobalNames()</text>
</a>
</g>
</g>
<!-- Node2&#45;&gt;Node1 -->
<g id="edge1" class="edge"><title>Node2&#45;&gt;Node1</title>
<path fill="none" stroke="#404040" d="M55.0911,-507.478C17.3693,-418.685 -39.7122,-242.134 41.0804,-127 78.2766,-73.9935 149.386,-51.5636 206.768,-42.1383"/>
<polygon fill="none" stroke="#404040" points="206.922,-42.115 212.255,-37.2617 218.787,-40.3182 213.453,-45.1715 206.922,-42.115"/>
<text text-anchor="middle" x="71.5804" y="-274.5" font-family="Helvetica,sans-Serif" font-size="10.00"> +IslandName</text>
</g>
<!-- Node5 -->
<g id="node3" class="node"><title>Node5</title>
<g id="a_node3"><a xlink:href="a26343.html" target="_top" xlink:title=" ">
<polygon fill="none" stroke="red" points="111.58,-127.5 111.58,-426.5 278.58,-426.5 278.58,-127.5 111.58,-127.5"/>
<text text-anchor="middle" x="195.08" y="-414.5" font-family="Helvetica,sans-Serif" font-size="10.00">SDK::AActor</text>
<polyline fill="none" stroke="red" points="111.58,-407.5 278.58,-407.5 "/>
<text text-anchor="start" x="119.58" y="-395.5" font-family="Helvetica,sans-Serif" font-size="10.00">+ bAllowRemovalFromServerWhen</text>
<text text-anchor="start" x="119.58" y="-384.5" font-family="Helvetica,sans-Serif" font-size="10.00">CollisionMerged</text>
<text text-anchor="start" x="119.58" y="-373.5" font-family="Helvetica,sans-Serif" font-size="10.00">+ bHidden</text>
<text text-anchor="start" x="119.58" y="-362.5" font-family="Helvetica,sans-Serif" font-size="10.00">+ bNetStartup</text>
<text text-anchor="start" x="119.58" y="-351.5" font-family="Helvetica,sans-Serif" font-size="10.00">+ bOnlyRelevantToOwner</text>
<text text-anchor="start" x="119.58" y="-340.5" font-family="Helvetica,sans-Serif" font-size="10.00">+ bAlwaysRelevant</text>
<text text-anchor="start" x="119.58" y="-329.5" font-family="Helvetica,sans-Serif" font-size="10.00">+ bReplicateMovement</text>
<text text-anchor="start" x="119.58" y="-318.5" font-family="Helvetica,sans-Serif" font-size="10.00">+ bExchangedRoles</text>
<text text-anchor="start" x="119.58" y="-307.5" font-family="Helvetica,sans-Serif" font-size="10.00">+ bNetLoadOnClient</text>
<text text-anchor="start" x="119.58" y="-296.5" font-family="Helvetica,sans-Serif" font-size="10.00">+ bBlockInput</text>
<text text-anchor="start" x="119.58" y="-285.5" font-family="Helvetica,sans-Serif" font-size="10.00">+ UnknownData00</text>
<text text-anchor="start" x="119.58" y="-274.5" font-family="Helvetica,sans-Serif" font-size="10.00">and 26 more...</text>
<polyline fill="none" stroke="red" points="111.58,-267.5 278.58,-267.5 "/>
<text text-anchor="start" x="119.58" y="-255.5" font-family="Helvetica,sans-Serif" font-size="10.00">+ UserConstructionScript()</text>
<text text-anchor="start" x="119.58" y="-244.5" font-family="Helvetica,sans-Serif" font-size="10.00">+ TearOff()</text>
<text text-anchor="start" x="119.58" y="-233.5" font-family="Helvetica,sans-Serif" font-size="10.00">+ SnapRootComponentTo()</text>
<text text-anchor="start" x="119.58" y="-222.5" font-family="Helvetica,sans-Serif" font-size="10.00">+ SetTickGroup()</text>
<text text-anchor="start" x="119.58" y="-211.5" font-family="Helvetica,sans-Serif" font-size="10.00">+ SetTickableWhenPaused()</text>
<text text-anchor="start" x="119.58" y="-200.5" font-family="Helvetica,sans-Serif" font-size="10.00">+ SetReplicates()</text>
<text text-anchor="start" x="119.58" y="-189.5" font-family="Helvetica,sans-Serif" font-size="10.00">+ SetReplicateMovement()</text>
<text text-anchor="start" x="119.58" y="-178.5" font-family="Helvetica,sans-Serif" font-size="10.00">+ SetOwner()</text>
<text text-anchor="start" x="119.58" y="-167.5" font-family="Helvetica,sans-Serif" font-size="10.00">+ SetLifeSpan()</text>
<text text-anchor="start" x="119.58" y="-156.5" font-family="Helvetica,sans-Serif" font-size="10.00">+ SetIgnoreNetTransformUpdates()</text>
<text text-anchor="start" x="119.58" y="-145.5" font-family="Helvetica,sans-Serif" font-size="10.00">and 109 more...</text>
<text text-anchor="start" x="119.58" y="-134.5" font-family="Helvetica,sans-Serif" font-size="10.00">+ StaticClass()</text>
</a>
</g>
</g>
<!-- Node2&#45;&gt;Node5 -->
<g id="edge3" class="edge"><title>Node2&#45;&gt;Node5</title>
<path fill="none" stroke="#404040" d="M103.196,-507.308C111.31,-487.06 120.956,-462.987 130.898,-438.175"/>
<polygon fill="none" stroke="#404040" points="131.019,-437.873 129.537,-430.816 135.482,-426.734 136.964,-433.791 131.019,-437.873"/>
<text text-anchor="middle" x="165.08" y="-470" font-family="Helvetica,sans-Serif" font-size="10.00"> +NetDriverName</text>
<text text-anchor="middle" x="165.08" y="-459" font-family="Helvetica,sans-Serif" font-size="10.00">+Feature</text>
</g>
<!-- Node5&#45;&gt;Node1 -->
<g id="edge2" class="edge"><title>Node5&#45;&gt;Node1</title>
<path fill="none" stroke="#404040" d="M224.774,-127.031C229.945,-113.1 235.999,-99.5245 243.08,-87 244.793,-83.9707 246.731,-80.9948 248.826,-78.0963"/>
<polygon fill="none" stroke="#404040" points="248.95,-77.941 249.578,-70.7572 256.45,-68.5735 255.823,-75.7573 248.95,-77.941"/>
<text text-anchor="start" x="243.08" y="-101" font-family="Helvetica,sans-Serif" font-size="10.00"> +InstigatorOfFinalAIPawn</text>
<text text-anchor="middle" x="299.58" y="-90" font-family="Helvetica,sans-Serif" font-size="10.00">Death</text>
</g>
<!-- Node5&#45;&gt;Node5 -->
<g id="edge4" class="edge"><title>Node5&#45;&gt;Node5</title>
<path fill="none" stroke="#404040" d="M278.701,-306.25C289.467,-301.178 296.58,-291.428 296.58,-277 296.58,-267.757 293.661,-260.434 288.732,-255.031"/>
<polygon fill="none" stroke="#404040" points="288.412,-254.799 281.207,-254.512 278.701,-247.75 285.906,-248.037 288.412,-254.799"/>
<text text-anchor="middle" x="315.08" y="-274.5" font-family="Helvetica,sans-Serif" font-size="10.00"> +Owner</text>
</g>
<!-- Node40 -->
<g id="node4" class="node"><title>Node40</title>
<g id="a_node4"><a xlink:title=" ">
<polygon fill="none" stroke="#bfbfbf" points="355.58,-535 355.58,-592 384.58,-592 384.58,-535 355.58,-535"/>
<text text-anchor="middle" x="370.08" y="-580" font-family="Helvetica,sans-Serif" font-size="10.00">int</text>
<polyline fill="none" stroke="#bfbfbf" points="355.58,-573 384.58,-573 "/>
<text text-anchor="middle" x="370.08" y="-561" font-family="Helvetica,sans-Serif" font-size="10.00"> </text>
<polyline fill="none" stroke="#bfbfbf" points="355.58,-554 384.58,-554 "/>
<text text-anchor="middle" x="370.08" y="-542" font-family="Helvetica,sans-Serif" font-size="10.00"> </text>
</a>
</g>
</g>
<!-- Node40&#45;&gt;Node1 -->
<g id="edge6" class="edge"><title>Node40&#45;&gt;Node1</title>
<path fill="none" stroke="#404040" d="M370.582,-534.902C372.137,-439.484 375.666,-127.182 356.08,-87 354.557,-83.8751 352.746,-80.8717 350.716,-77.9956"/>
<polygon fill="none" stroke="#404040" points="350.705,-77.9814 343.803,-75.8908 343.079,-68.7162 349.98,-70.8068 350.705,-77.9814"/>
<text text-anchor="middle" x="402.08" y="-280" font-family="Helvetica,sans-Serif" font-size="10.00"> +TotalWaves</text>
<text text-anchor="middle" x="402.08" y="-269" font-family="Helvetica,sans-Serif" font-size="10.00">+WaveIndex</text>
</g>
<!-- Node40&#45;&gt;Node5 -->
<g id="edge5" class="edge"><title>Node40&#45;&gt;Node5</title>
<path fill="none" stroke="#404040" d="M355.3,-550.774C338.963,-537.235 312.641,-513.648 295.08,-489 283.627,-472.924 272.912,-455.329 263.07,-437.376"/>
<polygon fill="none" stroke="#404040" points="263.054,-437.345 256.691,-433.951 257.377,-426.772 263.74,-430.167 263.054,-437.345"/>
<text text-anchor="middle" x="325.58" y="-470" font-family="Helvetica,sans-Serif" font-size="10.00"> +InputPriority</text>
<text text-anchor="middle" x="325.58" y="-459" font-family="Helvetica,sans-Serif" font-size="10.00">+NetTag</text>
</g>
<!-- Node177 -->
<g id="node5" class="node"><title>Node177</title>
<g id="a_node5"><a xlink:href="a26071.html" target="_top" xlink:title=" ">
<polygon fill="none" stroke="black" points="448.58,-226.5 448.58,-327.5 521.58,-327.5 521.58,-226.5 448.58,-226.5"/>
<text text-anchor="middle" x="485.08" y="-315.5" font-family="Helvetica,sans-Serif" font-size="10.00">SDK::FGuid</text>
<polyline fill="none" stroke="black" points="448.58,-308.5 521.58,-308.5 "/>
<text text-anchor="middle" x="485.08" y="-296.5" font-family="Helvetica,sans-Serif" font-size="10.00"> </text>
<polyline fill="none" stroke="black" points="448.58,-289.5 521.58,-289.5 "/>
<text text-anchor="start" x="456.58" y="-277.5" font-family="Helvetica,sans-Serif" font-size="10.00">+ FGuid()</text>
<text text-anchor="start" x="456.58" y="-266.5" font-family="Helvetica,sans-Serif" font-size="10.00">+ FGuid()</text>
<text text-anchor="start" x="456.58" y="-255.5" font-family="Helvetica,sans-Serif" font-size="10.00">+ operator()()</text>
<text text-anchor="start" x="456.58" y="-244.5" font-family="Helvetica,sans-Serif" font-size="10.00">+ operator[]()</text>
<text text-anchor="start" x="456.58" y="-233.5" font-family="Helvetica,sans-Serif" font-size="10.00">+ operator[]()</text>
</a>
</g>
</g>
<!-- Node40&#45;&gt;Node177 -->
<g id="edge8" class="edge"><title>Node40&#45;&gt;Node177</title>
<path fill="none" stroke="#404040" d="M384.241,-534.877C397.867,-507.776 418.623,-465.089 434.08,-427 445.589,-398.642 456.784,-366.596 465.739,-339.509"/>
<polygon fill="none" stroke="#404040" points="465.827,-339.242 463.893,-332.295 469.561,-327.838 471.495,-334.785 465.827,-339.242"/>
<text text-anchor="middle" x="435.08" y="-481" font-family="Helvetica,sans-Serif" font-size="10.00"> +A</text>
<text text-anchor="middle" x="435.08" y="-470" font-family="Helvetica,sans-Serif" font-size="10.00">+B</text>
<text text-anchor="middle" x="435.08" y="-459" font-family="Helvetica,sans-Serif" font-size="10.00">+C</text>
<text text-anchor="middle" x="435.08" y="-448" font-family="Helvetica,sans-Serif" font-size="10.00">+D</text>
</g>
<!-- Node177&#45;&gt;Node1 -->
<g id="edge7" class="edge"><title>Node177&#45;&gt;Node1</title>
<path fill="none" stroke="#404040" d="M475.561,-226.463C467.948,-195.8 454.999,-156.745 434.08,-127 419.439,-106.181 398.41,-88.8913 377.085,-75.155"/>
<polygon fill="none" stroke="#404040" points="376.831,-74.9986 369.625,-75.2521 366.619,-68.6973 373.826,-68.4438 376.831,-74.9986"/>
<text text-anchor="middle" x="436.58" y="-95.5" font-family="Helvetica,sans-Serif" font-size="10.00"> +CrewId</text>
</g>
</g>
</svg>
        <g id="navigator" transform="translate(0 0)" fill="#404254">
                <rect fill="#f2f5e9" fill-opacity="0.5" stroke="#606060" stroke-width=".5" x="0" y="0" width="60" height="60"/>
                <use id="zoomplus" xlink:href="#zoomPlus" x="17" y="9" onmousedown="handleZoom(evt,'in')"/>
                <use id="zoomminus" xlink:href="#zoomMin" x="42" y="9" onmousedown="handleZoom(evt,'out')"/>
                <use id="reset" xlink:href="#resetDef" x="30" y="36" onmousedown="handleReset()"/>
                <g id="arrowUp" xlink:href="#dirArrow" transform="translate(30 24)" onmousedown="handlePan(0,-1)">
                  <use xlink:href="#rim" fill="#404040">
                        <set attributeName="fill" to="#808080" begin="arrowUp.mouseover" end="arrowUp.mouseout"/>
                  </use>
                  <path fill="none" stroke="white" stroke-width="1.5" d="M0,-3.0v7 M-2.5,-0.5L0,-3.0L2.5,-0.5"/>
                </g>
                <g id="arrowRight" xlink:href="#dirArrow" transform="rotate(90) translate(36 -43)" onmousedown="handlePan(1,0)">
                  <use xlink:href="#rim" fill="#404040">
                        <set attributeName="fill" to="#808080" begin="arrowRight.mouseover" end="arrowRight.mouseout"/>
                  </use>
                  <path fill="none" stroke="white" stroke-width="1.5" d="M0,-3.0v7 M-2.5,-0.5L0,-3.0L2.5,-0.5"/>
                </g>
                <g id="arrowDown" xlink:href="#dirArrow" transform="rotate(180) translate(-30 -48)" onmousedown="handlePan(0,1)">
                  <use xlink:href="#rim" fill="#404040">
                        <set attributeName="fill" to="#808080" begin="arrowDown.mouseover" end="arrowDown.mouseout"/>
                  </use>
                  <path fill="none" stroke="white" stroke-width="1.5" d="M0,-3.0v7 M-2.5,-0.5L0,-3.0L2.5,-0.5"/>
                </g>
                <g id="arrowLeft" xlink:href="#dirArrow" transform="rotate(270) translate(-36 17)" onmousedown="handlePan(-1,0)">
                  <use xlink:href="#rim" fill="#404040">
                        <set attributeName="fill" to="#808080" begin="arrowLeft.mouseover" end="arrowLeft.mouseout"/>
                  </use>
                  <path fill="none" stroke="white" stroke-width="1.5" d="M0,-3.0v7 M-2.5,-0.5L0,-3.0L2.5,-0.5"/>
                </g>
        </g>
        <svg viewBox="0 0 15 15" width="100%" height="30px" preserveAspectRatio="xMaxYMin meet">
         <g id="arrow_out" transform="scale(0.3 0.3)">
          <a xlink:href="a25233_org.svg" target="_base">
           <rect id="button" ry="5" rx="5" y="6" x="6" height="38" width="38"
                fill="#f2f5e9" fill-opacity="0.5" stroke="#606060" stroke-width="1.0"/>
           <path id="arrow"
             d="M 11.500037,31.436501 C 11.940474,20.09759 22.043105,11.32322 32.158766,21.979434 L 37.068811,17.246167 C 37.068811,17.246167 37.088388,32 37.088388,32 L 22.160133,31.978069 C 22.160133,31.978069 26.997745,27.140456 26.997745,27.140456 C 18.528582,18.264221 13.291696,25.230495 11.500037,31.436501 z"
             style="fill:#404040;"/>
          </a>
         </g>
        </svg>
</svg>
