<?xml version="1.0" encoding="UTF-8" standalone="no"?>
<!DOCTYPE svg PUBLIC "-//W3C//DTD SVG 1.1//EN"
 "http://www.w3.org/Graphics/SVG/1.1/DTD/svg11.dtd">
<!-- Generated by graphviz version 2.38.0 (20140413.2041)
 -->
<!-- Title: SDK::FAITargetInfo Pages: 1 -->
<!--zoomable 502 -->
<svg id="main" version="1.1" xmlns="http://www.w3.org/2000/svg" xmlns:xlink="http://www.w3.org/1999/xlink" xml:space="preserve" onload="init(evt)">
<style type="text/css"><![CDATA[
.edge:hover path { stroke: red; }
.edge:hover polygon { stroke: red; fill: red; }
]]></style>
<script type="text/javascript"><![CDATA[
var edges = document.getElementsByTagName('g');
if (edges && edges.length) {
  for (var i=0;i<edges.length;i++) {
    if (edges[i].id.substr(0,4)=='edge') {
      edges[i].setAttribute('class','edge');
    }
  }
}
]]></script>
        <defs>
                <circle id="rim" cx="0" cy="0" r="7"/>
                <circle id="rim2" cx="0" cy="0" r="3.5"/>
                <g id="zoomPlus">
                        <use xlink:href="#rim" fill="#404040">
                                <set attributeName="fill" to="#808080" begin="zoomplus.mouseover" end="zoomplus.mouseout"/>
                        </use>
                        <path d="M-4,0h8M0,-4v8" fill="none" stroke="white" stroke-width="1.5" pointer-events="none"/>
                </g>
                <g id="zoomMin">
                        <use xlink:href="#rim" fill="#404040">
                                <set attributeName="fill" to="#808080" begin="zoomminus.mouseover" end="zoomminus.mouseout"/>
                        </use>
                        <path d="M-4,0h8" fill="none" stroke="white" stroke-width="1.5" pointer-events="none"/>
                </g>
                <g id="dirArrow">
                        <path fill="none" stroke="white" stroke-width="1.5" d="M0,-3.0v7 M-2.5,-0.5L0,-3.0L2.5,-0.5"/>
                </g>
               <g id="resetDef">
                       <use xlink:href="#rim2" fill="#404040">
                               <set attributeName="fill" to="#808080" begin="reset.mouseover" end="reset.mouseout"/>
                       </use>
               </g>
        </defs>

<script type="text/javascript">
var viewWidth = 280;
var viewHeight = 502;
var sectionId = 'dynsection-0';
</script>
<script xlink:href="svgpan.js"/>
<svg id="graph" class="graph">
<g id="viewport">
<title>SDK::FAITargetInfo</title>
<!-- Node1 -->
<g id="node1" class="node"><title>Node1</title>
<g id="a_node1"><a xlink:title=" ">
<polygon fill="#bfbfbf" stroke="black" points="17.1211,-0.5 17.1211,-57.5 117.121,-57.5 117.121,-0.5 17.1211,-0.5"/>
<text text-anchor="middle" x="67.1211" y="-45.5" font-family="Helvetica,sans-Serif" font-size="10.00">SDK::FAITargetInfo</text>
<polyline fill="none" stroke="black" points="17.1211,-38.5 117.121,-38.5 "/>
<text text-anchor="middle" x="67.1211" y="-26.5" font-family="Helvetica,sans-Serif" font-size="10.00"> </text>
<polyline fill="none" stroke="black" points="17.1211,-19.5 117.121,-19.5 "/>
<text text-anchor="middle" x="67.1211" y="-7.5" font-family="Helvetica,sans-Serif" font-size="10.00"> </text>
</a>
</g>
</g>
<!-- Node2 -->
<g id="node2" class="node"><title>Node2</title>
<g id="a_node2"><a xlink:href="a26075.html" target="_top" xlink:title=" ">
<polygon fill="none" stroke="black" points="27.6211,-221.5 27.6211,-366.5 106.621,-366.5 106.621,-221.5 27.6211,-221.5"/>
<text text-anchor="middle" x="67.1211" y="-354.5" font-family="Helvetica,sans-Serif" font-size="10.00">SDK::FVector</text>
<polyline fill="none" stroke="black" points="27.6211,-347.5 106.621,-347.5 "/>
<text text-anchor="middle" x="67.1211" y="-335.5" font-family="Helvetica,sans-Serif" font-size="10.00"> </text>
<polyline fill="none" stroke="black" points="27.6211,-328.5 106.621,-328.5 "/>
<text text-anchor="start" x="35.6211" y="-316.5" font-family="Helvetica,sans-Serif" font-size="10.00">+ FVector()</text>
<text text-anchor="start" x="35.6211" y="-305.5" font-family="Helvetica,sans-Serif" font-size="10.00">+ FVector()</text>
<text text-anchor="start" x="35.6211" y="-294.5" font-family="Helvetica,sans-Serif" font-size="10.00">+ operator+()</text>
<text text-anchor="start" x="35.6211" y="-283.5" font-family="Helvetica,sans-Serif" font-size="10.00">+ operator&#45;()</text>
<text text-anchor="start" x="35.6211" y="-272.5" font-family="Helvetica,sans-Serif" font-size="10.00">+ operator*()</text>
<text text-anchor="start" x="35.6211" y="-261.5" font-family="Helvetica,sans-Serif" font-size="10.00">+ operator=()</text>
<text text-anchor="start" x="35.6211" y="-250.5" font-family="Helvetica,sans-Serif" font-size="10.00">+ operator+=()</text>
<text text-anchor="start" x="35.6211" y="-239.5" font-family="Helvetica,sans-Serif" font-size="10.00">+ operator&#45;=()</text>
<text text-anchor="start" x="35.6211" y="-228.5" font-family="Helvetica,sans-Serif" font-size="10.00">+ operator*=()</text>
</a>
</g>
</g>
<!-- Node2&#45;&gt;Node1 -->
<g id="edge1" class="edge"><title>Node2&#45;&gt;Node1</title>
<path fill="none" stroke="#404040" d="M67.1211,-221.481C67.1211,-172.756 67.1211,-110.048 67.1211,-69.9265"/>
<polygon fill="none" stroke="#404040" points="67.1212,-69.74 63.1211,-63.74 67.1211,-57.74 71.1211,-63.74 67.1212,-69.74"/>
<text text-anchor="middle" x="101.621" y="-137" font-family="Helvetica,sans-Serif" font-size="10.00"> +TargetPos</text>
<text text-anchor="middle" x="101.621" y="-126" font-family="Helvetica,sans-Serif" font-size="10.00">+TargetVelocity</text>
</g>
<!-- Node4 -->
<g id="node4" class="node"><title>Node4</title>
<g id="a_node4"><a xlink:href="a25251.html" target="_top" xlink:title=" ">
<polygon fill="none" stroke="black" points="154.121,-105.5 154.121,-162.5 272.121,-162.5 272.121,-105.5 154.121,-105.5"/>
<text text-anchor="middle" x="213.121" y="-150.5" font-family="Helvetica,sans-Serif" font-size="10.00">SDK::FAITargetBounds</text>
<polyline fill="none" stroke="black" points="154.121,-143.5 272.121,-143.5 "/>
<text text-anchor="middle" x="213.121" y="-131.5" font-family="Helvetica,sans-Serif" font-size="10.00"> </text>
<polyline fill="none" stroke="black" points="154.121,-124.5 272.121,-124.5 "/>
<text text-anchor="middle" x="213.121" y="-112.5" font-family="Helvetica,sans-Serif" font-size="10.00"> </text>
</a>
</g>
</g>
<!-- Node2&#45;&gt;Node4 -->
<g id="edge5" class="edge"><title>Node2&#45;&gt;Node4</title>
<path fill="none" stroke="#404040" d="M106.631,-250.243C129.295,-225.716 157.458,-195.238 179.128,-171.787"/>
<polygon fill="none" stroke="#404040" points="179.243,-171.663 180.377,-164.542 187.387,-162.85 186.253,-169.971 179.243,-171.663"/>
<text text-anchor="middle" x="190.621" y="-195" font-family="Helvetica,sans-Serif" font-size="10.00"> +Extents</text>
<text text-anchor="middle" x="190.621" y="-184" font-family="Helvetica,sans-Serif" font-size="10.00">+Offset</text>
</g>
<!-- Node3 -->
<g id="node3" class="node"><title>Node3</title>
<g id="a_node3"><a xlink:title=" ">
<polygon fill="none" stroke="#bfbfbf" points="4.62108,-436.5 4.62108,-493.5 39.6211,-493.5 39.6211,-436.5 4.62108,-436.5"/>
<text text-anchor="middle" x="22.1211" y="-481.5" font-family="Helvetica,sans-Serif" font-size="10.00">float</text>
<polyline fill="none" stroke="#bfbfbf" points="4.62108,-474.5 39.6211,-474.5 "/>
<text text-anchor="middle" x="22.1211" y="-462.5" font-family="Helvetica,sans-Serif" font-size="10.00"> </text>
<polyline fill="none" stroke="#bfbfbf" points="4.62108,-455.5 39.6211,-455.5 "/>
<text text-anchor="middle" x="22.1211" y="-443.5" font-family="Helvetica,sans-Serif" font-size="10.00"> </text>
</a>
</g>
</g>
<!-- Node3&#45;&gt;Node1 -->
<g id="edge3" class="edge"><title>Node3&#45;&gt;Node1</title>
<path fill="none" stroke="#404040" d="M16.5069,-436.389C7.07939,-385.421 -9.27682,-273.332 8.12108,-181 15.5976,-141.322 33.2222,-98.6955 47.2735,-68.8852"/>
<polygon fill="none" stroke="#404040" points="47.4402,-68.5392 46.4405,-61.3977 52.6482,-57.7282 53.6478,-64.8697 47.4402,-68.5392"/>
<text text-anchor="middle" x="35.6211" y="-189.5" font-family="Helvetica,sans-Serif" font-size="10.00"> +TargetYaw</text>
</g>
<!-- Node3&#45;&gt;Node2 -->
<g id="edge2" class="edge"><title>Node3&#45;&gt;Node2</title>
<path fill="none" stroke="#404040" d="M29.4513,-436.471C33.717,-420.451 39.3444,-399.317 44.945,-378.283"/>
<polygon fill="none" stroke="#404040" points="44.9572,-378.238 42.6357,-371.41 48.0449,-366.642 50.3664,-373.469 44.9572,-378.238"/>
<text text-anchor="middle" x="49.6211" y="-410" font-family="Helvetica,sans-Serif" font-size="10.00"> +X</text>
<text text-anchor="middle" x="49.6211" y="-399" font-family="Helvetica,sans-Serif" font-size="10.00">+Y</text>
<text text-anchor="middle" x="49.6211" y="-388" font-family="Helvetica,sans-Serif" font-size="10.00">+Z</text>
</g>
<!-- Node4&#45;&gt;Node1 -->
<g id="edge4" class="edge"><title>Node4&#45;&gt;Node1</title>
<path fill="none" stroke="#404040" d="M173.996,-105.398C156.239,-92.8711 135.047,-77.9204 116.234,-64.6479"/>
<polygon fill="none" stroke="#404040" points="116.16,-64.5959 108.951,-64.4056 106.354,-57.6783 113.563,-57.8686 116.16,-64.5959"/>
<text text-anchor="middle" x="165.621" y="-79" font-family="Helvetica,sans-Serif" font-size="10.00"> +Bounds</text>
</g>
</g>
</svg>
        <g id="navigator" transform="translate(0 0)" fill="#404254">
                <rect fill="#f2f5e9" fill-opacity="0.5" stroke="#606060" stroke-width=".5" x="0" y="0" width="60" height="60"/>
                <use id="zoomplus" xlink:href="#zoomPlus" x="17" y="9" onmousedown="handleZoom(evt,'in')"/>
                <use id="zoomminus" xlink:href="#zoomMin" x="42" y="9" onmousedown="handleZoom(evt,'out')"/>
                <use id="reset" xlink:href="#resetDef" x="30" y="36" onmousedown="handleReset()"/>
                <g id="arrowUp" xlink:href="#dirArrow" transform="translate(30 24)" onmousedown="handlePan(0,-1)">
                  <use xlink:href="#rim" fill="#404040">
                        <set attributeName="fill" to="#808080" begin="arrowUp.mouseover" end="arrowUp.mouseout"/>
                  </use>
                  <path fill="none" stroke="white" stroke-width="1.5" d="M0,-3.0v7 M-2.5,-0.5L0,-3.0L2.5,-0.5"/>
                </g>
                <g id="arrowRight" xlink:href="#dirArrow" transform="rotate(90) translate(36 -43)" onmousedown="handlePan(1,0)">
                  <use xlink:href="#rim" fill="#404040">
                        <set attributeName="fill" to="#808080" begin="arrowRight.mouseover" end="arrowRight.mouseout"/>
                  </use>
                  <path fill="none" stroke="white" stroke-width="1.5" d="M0,-3.0v7 M-2.5,-0.5L0,-3.0L2.5,-0.5"/>
                </g>
                <g id="arrowDown" xlink:href="#dirArrow" transform="rotate(180) translate(-30 -48)" onmousedown="handlePan(0,1)">
                  <use xlink:href="#rim" fill="#404040">
                        <set attributeName="fill" to="#808080" begin="arrowDown.mouseover" end="arrowDown.mouseout"/>
                  </use>
                  <path fill="none" stroke="white" stroke-width="1.5" d="M0,-3.0v7 M-2.5,-0.5L0,-3.0L2.5,-0.5"/>
                </g>
                <g id="arrowLeft" xlink:href="#dirArrow" transform="rotate(270) translate(-36 17)" onmousedown="handlePan(-1,0)">
                  <use xlink:href="#rim" fill="#404040">
                        <set attributeName="fill" to="#808080" begin="arrowLeft.mouseover" end="arrowLeft.mouseout"/>
                  </use>
                  <path fill="none" stroke="white" stroke-width="1.5" d="M0,-3.0v7 M-2.5,-0.5L0,-3.0L2.5,-0.5"/>
                </g>
        </g>
        <svg viewBox="0 0 15 15" width="100%" height="30px" preserveAspectRatio="xMaxYMin meet">
         <g id="arrow_out" transform="scale(0.3 0.3)">
          <a xlink:href="a25253_org.svg" target="_base">
           <rect id="button" ry="5" rx="5" y="6" x="6" height="38" width="38"
                fill="#f2f5e9" fill-opacity="0.5" stroke="#606060" stroke-width="1.0"/>
           <path id="arrow"
             d="M 11.500037,31.436501 C 11.940474,20.09759 22.043105,11.32322 32.158766,21.979434 L 37.068811,17.246167 C 37.068811,17.246167 37.088388,32 37.088388,32 L 22.160133,31.978069 C 22.160133,31.978069 26.997745,27.140456 26.997745,27.140456 C 18.528582,18.264221 13.291696,25.230495 11.500037,31.436501 z"
             style="fill:#404040;"/>
          </a>
         </g>
        </svg>
</svg>
