<?xml version="1.0" encoding="UTF-8" standalone="no"?>
<!DOCTYPE svg PUBLIC "-//W3C//DTD SVG 1.1//EN"
 "http://www.w3.org/Graphics/SVG/1.1/DTD/svg11.dtd">
<!-- Generated by graphviz version 2.38.0 (20140413.2041)
 -->
<!-- Title: SDK::FPlaySoundRpc Pages: 1 -->
<svg width="464pt" height="342pt"
 viewBox="0.00 0.00 463.96 342.00" xmlns="http://www.w3.org/2000/svg" xmlns:xlink="http://www.w3.org/1999/xlink">
<g id="graph0" class="graph" transform="scale(1 1) rotate(0) translate(4 338)">
<title>SDK::FPlaySoundRpc</title>
<!-- Node1 -->
<g id="node1" class="node"><title>Node1</title>
<g id="a_node1"><a xlink:title=" ">
<polygon fill="#bfbfbf" stroke="black" points="172.463,-0.5 172.463,-57.5 285.463,-57.5 285.463,-0.5 172.463,-0.5"/>
<text text-anchor="middle" x="228.963" y="-45.5" font-family="Helvetica,sans-Serif" font-size="10.00">SDK::FPlaySoundRpc</text>
<polyline fill="none" stroke="black" points="172.463,-38.5 285.463,-38.5 "/>
<text text-anchor="middle" x="228.963" y="-26.5" font-family="Helvetica,sans-Serif" font-size="10.00"> </text>
<polyline fill="none" stroke="black" points="172.463,-19.5 285.463,-19.5 "/>
<text text-anchor="middle" x="228.963" y="-7.5" font-family="Helvetica,sans-Serif" font-size="10.00"> </text>
</a>
</g>
</g>
<!-- Node2 -->
<g id="node2" class="node"><title>Node2</title>
<g id="a_node2"><a xlink:href="a25367.html" target="_top" xlink:title=" ">
<polygon fill="none" stroke="red" points="105.963,-133 105.963,-190 199.963,-190 199.963,-133 105.963,-133"/>
<text text-anchor="middle" x="152.963" y="-178" font-family="Helvetica,sans-Serif" font-size="10.00">SDK::FBoxedRpc</text>
<polyline fill="none" stroke="red" points="105.963,-171 199.963,-171 "/>
<text text-anchor="middle" x="152.963" y="-159" font-family="Helvetica,sans-Serif" font-size="10.00"> </text>
<polyline fill="none" stroke="red" points="105.963,-152 199.963,-152 "/>
<text text-anchor="middle" x="152.963" y="-140" font-family="Helvetica,sans-Serif" font-size="10.00"> </text>
</a>
</g>
</g>
<!-- Node2&#45;&gt;Node1 -->
<g id="edge1" class="edge"><title>Node2&#45;&gt;Node1</title>
<path fill="none" stroke="midnightblue" d="M174.136,-124.143C186.398,-103.088 201.589,-77.0046 212.869,-57.6358"/>
<polygon fill="none" stroke="midnightblue" points="171.089,-122.421 169.081,-132.824 177.138,-125.944 171.089,-122.421"/>
</g>
<!-- Node13 -->
<g id="node3" class="node"><title>Node13</title>
<g id="a_node3"><a xlink:title=" ">
<polygon fill="none" stroke="#bfbfbf" points="52.4631,-276.5 52.4631,-333.5 87.4631,-333.5 87.4631,-276.5 52.4631,-276.5"/>
<text text-anchor="middle" x="69.9631" y="-321.5" font-family="Helvetica,sans-Serif" font-size="10.00">char</text>
<polyline fill="none" stroke="#bfbfbf" points="52.4631,-314.5 87.4631,-314.5 "/>
<text text-anchor="middle" x="69.9631" y="-302.5" font-family="Helvetica,sans-Serif" font-size="10.00"> </text>
<polyline fill="none" stroke="#bfbfbf" points="52.4631,-295.5 87.4631,-295.5 "/>
<text text-anchor="middle" x="69.9631" y="-283.5" font-family="Helvetica,sans-Serif" font-size="10.00"> </text>
</a>
</g>
</g>
<!-- Node13&#45;&gt;Node1 -->
<g id="edge6" class="edge"><title>Node13&#45;&gt;Node1</title>
<path fill="none" stroke="#404040" d="M52.36,-282.973C39.7578,-266.472 23.849,-242.298 16.9631,-218 3.26973,-169.681 -12.0287,-146.009 16.9631,-105 49.1666,-59.448 111.469,-41.3809 160.237,-34.3082"/>
<polygon fill="none" stroke="#404040" points="160.417,-34.2848 165.851,-29.5443 172.317,-32.7369 166.883,-37.4774 160.417,-34.2848"/>
<text text-anchor="middle" x="56.9631" y="-159" font-family="Helvetica,sans-Serif" font-size="10.00"> +UnknownData00</text>
</g>
<!-- Node13&#45;&gt;Node2 -->
<g id="edge2" class="edge"><title>Node13&#45;&gt;Node2</title>
<path fill="none" stroke="#404040" d="M65.3165,-276.359C64.3984,-263.525 65.1488,-248.401 70.9631,-236 76.1817,-224.87 82.7492,-226.137 91.9631,-218 99.1315,-211.669 106.712,-204.864 114.002,-198.262"/>
<polygon fill="none" stroke="#404040" points="114.146,-198.131 115.896,-191.135 123.027,-190.06 121.277,-197.056 114.146,-198.131"/>
<text text-anchor="middle" x="110.963" y="-244.5" font-family="Helvetica,sans-Serif" font-size="10.00"> +UnknownData00</text>
</g>
<!-- Node15 -->
<g id="node4" class="node"><title>Node15</title>
<g id="a_node4"><a xlink:href="a36055.html" target="_top" xlink:title=" ">
<polygon fill="none" stroke="red" points="217.963,-105.5 217.963,-217.5 333.963,-217.5 333.963,-105.5 217.963,-105.5"/>
<text text-anchor="middle" x="275.963" y="-205.5" font-family="Helvetica,sans-Serif" font-size="10.00">SDK::UWwiseEvent</text>
<polyline fill="none" stroke="red" points="217.963,-198.5 333.963,-198.5 "/>
<text text-anchor="middle" x="275.963" y="-186.5" font-family="Helvetica,sans-Serif" font-size="10.00"> </text>
<polyline fill="none" stroke="red" points="217.963,-179.5 333.963,-179.5 "/>
<text text-anchor="start" x="225.963" y="-167.5" font-family="Helvetica,sans-Serif" font-size="10.00">+ IsAudible()</text>
<text text-anchor="start" x="225.963" y="-156.5" font-family="Helvetica,sans-Serif" font-size="10.00">+ GetMaxAttenuation()</text>
<text text-anchor="start" x="225.963" y="-145.5" font-family="Helvetica,sans-Serif" font-size="10.00">+ GetDurationType()</text>
<text text-anchor="start" x="225.963" y="-134.5" font-family="Helvetica,sans-Serif" font-size="10.00">+ GetDurationMin()</text>
<text text-anchor="start" x="225.963" y="-123.5" font-family="Helvetica,sans-Serif" font-size="10.00">+ GetDurationMax()</text>
<text text-anchor="start" x="225.963" y="-112.5" font-family="Helvetica,sans-Serif" font-size="10.00">+ StaticClass()</text>
</a>
</g>
</g>
<!-- Node13&#45;&gt;Node15 -->
<g id="edge4" class="edge"><title>Node13&#45;&gt;Node15</title>
<path fill="none" stroke="#404040" d="M87.6021,-294.562C104.187,-285.553 129.59,-271.403 150.963,-258 174.694,-243.118 182.399,-237.973 207.917,-218.689"/>
<polygon fill="none" stroke="#404040" points="208.18,-218.489 210.544,-211.677 217.742,-211.239 215.378,-218.051 208.18,-218.489"/>
<text text-anchor="middle" x="224.963" y="-250" font-family="Helvetica,sans-Serif" font-size="10.00"> +UnknownData01</text>
<text text-anchor="middle" x="224.963" y="-239" font-family="Helvetica,sans-Serif" font-size="10.00">+UnknownData00</text>
</g>
<!-- Node15&#45;&gt;Node1 -->
<g id="edge3" class="edge"><title>Node15&#45;&gt;Node1</title>
<path fill="none" stroke="#404040" d="M256.031,-105.156C251.649,-92.9884 247.097,-80.3501 243.004,-68.9872"/>
<polygon fill="none" stroke="#404040" points="242.999,-68.9708 237.202,-64.6811 238.932,-57.6807 244.729,-61.9703 242.999,-68.9708"/>
<text text-anchor="middle" x="279.463" y="-79" font-family="Helvetica,sans-Serif" font-size="10.00"> +WwiseEvent</text>
</g>
<!-- Node19 -->
<g id="node5" class="node"><title>Node19</title>
<g id="a_node5"><a xlink:title=" ">
<polygon fill="none" stroke="#bfbfbf" points="314.463,-276.5 314.463,-333.5 349.463,-333.5 349.463,-276.5 314.463,-276.5"/>
<text text-anchor="middle" x="331.963" y="-321.5" font-family="Helvetica,sans-Serif" font-size="10.00">bool</text>
<polyline fill="none" stroke="#bfbfbf" points="314.463,-314.5 349.463,-314.5 "/>
<text text-anchor="middle" x="331.963" y="-302.5" font-family="Helvetica,sans-Serif" font-size="10.00"> </text>
<polyline fill="none" stroke="#bfbfbf" points="314.463,-295.5 349.463,-295.5 "/>
<text text-anchor="middle" x="331.963" y="-283.5" font-family="Helvetica,sans-Serif" font-size="10.00"> </text>
</a>
</g>
</g>
<!-- Node19&#45;&gt;Node1 -->
<g id="edge7" class="edge"><title>Node19&#45;&gt;Node1</title>
<path fill="none" stroke="#404040" d="M349.611,-290.762C359.077,-282.516 369.827,-271.016 374.963,-258 391.644,-215.728 400.225,-208.897 342.963,-105 332.399,-85.8322 314.613,-70.7316 296.194,-59.2588"/>
<polygon fill="none" stroke="#404040" points="295.994,-59.142 288.796,-59.5687 285.633,-53.088 292.832,-52.6613 295.994,-59.142"/>
<text text-anchor="middle" x="421.463" y="-159" font-family="Helvetica,sans-Serif" font-size="10.00"> +PlayOnTarget</text>
</g>
<!-- Node19&#45;&gt;Node15 -->
<g id="edge5" class="edge"><title>Node19&#45;&gt;Node15</title>
<path fill="none" stroke="#404040" d="M314.267,-294.755C301.309,-286.903 284.69,-274.312 276.963,-258 272.871,-249.36 270.571,-239.768 269.464,-230.091"/>
<polygon fill="none" stroke="#404040" points="269.447,-229.826 265.059,-224.104 268.654,-217.853 273.042,-223.576 269.447,-229.826"/>
<text text-anchor="middle" x="325.963" y="-250" font-family="Helvetica,sans-Serif" font-size="10.00"> +WaitForBankToLoad</text>
<text text-anchor="middle" x="325.963" y="-239" font-family="Helvetica,sans-Serif" font-size="10.00">+CookedIsStopEvent</text>
</g>
</g>
</svg>
