<?xml version="1.0" encoding="UTF-8" standalone="no"?>
<!DOCTYPE svg PUBLIC "-//W3C//DTD SVG 1.1//EN"
 "http://www.w3.org/Graphics/SVG/1.1/DTD/svg11.dtd">
<!-- Generated by graphviz version 2.38.0 (20140413.2041)
 -->
<!-- Title: SDK::FUObjectItem Pages: 1 -->
<svg width="264pt" height="397pt"
 viewBox="0.00 0.00 263.50 397.00" xmlns="http://www.w3.org/2000/svg" xmlns:xlink="http://www.w3.org/1999/xlink">
<g id="graph0" class="graph" transform="scale(1 1) rotate(0) translate(4 393)">
<title>SDK::FUObjectItem</title>
<!-- Node1 -->
<g id="node1" class="node"><title>Node1</title>
<g id="a_node1"><a xlink:title=" ">
<polygon fill="#bfbfbf" stroke="black" points="0,-0.5 0,-68.5 103,-68.5 103,-0.5 0,-0.5"/>
<text text-anchor="middle" x="51.5" y="-56.5" font-family="Helvetica,sans-Serif" font-size="10.00">SDK::FUObjectItem</text>
<polyline fill="none" stroke="black" points="0,-49.5 103,-49.5 "/>
<text text-anchor="middle" x="51.5" y="-37.5" font-family="Helvetica,sans-Serif" font-size="10.00"> </text>
<polyline fill="none" stroke="black" points="0,-30.5 103,-30.5 "/>
<text text-anchor="start" x="8" y="-18.5" font-family="Helvetica,sans-Serif" font-size="10.00">+ IsUnreachable()</text>
<text text-anchor="start" x="8" y="-7.5" font-family="Helvetica,sans-Serif" font-size="10.00">+ IsPendingKill()</text>
</a>
</g>
</g>
<!-- Node2 -->
<g id="node2" class="node"><title>Node2</title>
<g id="a_node2"><a xlink:href="a25883.html" target="_top" xlink:title=" ">
<polygon fill="none" stroke="red" points="91.5,-116.5 91.5,-272.5 203.5,-272.5 203.5,-116.5 91.5,-116.5"/>
<text text-anchor="middle" x="147.5" y="-260.5" font-family="Helvetica,sans-Serif" font-size="10.00">SDK::UObject</text>
<polyline fill="none" stroke="red" points="91.5,-253.5 203.5,-253.5 "/>
<text text-anchor="middle" x="147.5" y="-241.5" font-family="Helvetica,sans-Serif" font-size="10.00"> </text>
<polyline fill="none" stroke="red" points="91.5,-234.5 203.5,-234.5 "/>
<text text-anchor="start" x="99.5" y="-222.5" font-family="Helvetica,sans-Serif" font-size="10.00">+ GetName()</text>
<text text-anchor="start" x="99.5" y="-211.5" font-family="Helvetica,sans-Serif" font-size="10.00">+ GetFullName()</text>
<text text-anchor="start" x="99.5" y="-200.5" font-family="Helvetica,sans-Serif" font-size="10.00">+ IsA()</text>
<text text-anchor="start" x="99.5" y="-189.5" font-family="Helvetica,sans-Serif" font-size="10.00">+ ProcessEvent()</text>
<text text-anchor="start" x="99.5" y="-178.5" font-family="Helvetica,sans-Serif" font-size="10.00">+ ExecuteUbergraph()</text>
<text text-anchor="start" x="99.5" y="-167.5" font-family="Helvetica,sans-Serif" font-size="10.00">+ StaticClass()</text>
<text text-anchor="start" x="99.5" y="-156.5" font-family="Helvetica,sans-Serif" font-size="10.00">+ GetGlobalObjects()</text>
<text text-anchor="start" x="99.5" y="-145.5" font-family="Helvetica,sans-Serif" font-size="10.00">+ FindObject()</text>
<text text-anchor="start" x="99.5" y="-134.5" font-family="Helvetica,sans-Serif" font-size="10.00">+ FindClass()</text>
<text text-anchor="start" x="99.5" y="-123.5" font-family="Helvetica,sans-Serif" font-size="10.00">+ GetObjectCasted()</text>
</a>
</g>
</g>
<!-- Node2&#45;&gt;Node1 -->
<g id="edge1" class="edge"><title>Node2&#45;&gt;Node1</title>
<path fill="none" stroke="#404040" d="M100.625,-116.351C92.8266,-103.517 84.9887,-90.6169 77.9352,-79.0079"/>
<polygon fill="none" stroke="#404040" points="77.9327,-79.0038 71.3987,-75.9532 71.7016,-68.7484 78.2356,-71.799 77.9327,-79.0038"/>
<text text-anchor="middle" x="106.5" y="-90" font-family="Helvetica,sans-Serif" font-size="10.00"> +Object</text>
</g>
<!-- Node2&#45;&gt;Node2 -->
<g id="edge2" class="edge"><title>Node2&#45;&gt;Node2</title>
<path fill="none" stroke="#404040" d="M203.646,-212.643C214.122,-210.409 221.5,-204.361 221.5,-194.5 221.5,-188.799 219.034,-184.372 214.929,-181.221"/>
<polygon fill="none" stroke="#404040" points="214.666,-181.107 207.573,-182.405 203.646,-176.357 210.739,-175.059 214.666,-181.107"/>
<text text-anchor="middle" x="238.5" y="-192" font-family="Helvetica,sans-Serif" font-size="10.00"> +Outer</text>
</g>
<!-- Node4 -->
<g id="node3" class="node"><title>Node4</title>
<g id="a_node3"><a xlink:href="a36163.html" target="_top" xlink:title=" ">
<polygon fill="none" stroke="black" points="28.5,-331.5 28.5,-388.5 74.5,-388.5 74.5,-331.5 28.5,-331.5"/>
<text text-anchor="middle" x="51.5" y="-376.5" font-family="Helvetica,sans-Serif" font-size="10.00">int32_t</text>
<polyline fill="none" stroke="black" points="28.5,-369.5 74.5,-369.5 "/>
<text text-anchor="middle" x="51.5" y="-357.5" font-family="Helvetica,sans-Serif" font-size="10.00"> </text>
<polyline fill="none" stroke="black" points="28.5,-350.5 74.5,-350.5 "/>
<text text-anchor="middle" x="51.5" y="-338.5" font-family="Helvetica,sans-Serif" font-size="10.00"> </text>
</a>
</g>
</g>
<!-- Node4&#45;&gt;Node1 -->
<g id="edge4" class="edge"><title>Node4&#45;&gt;Node1</title>
<path fill="none" stroke="#404040" d="M37.3843,-331.141C29.8457,-314.687 21.3457,-293.187 17.5,-273 4.44211,-204.455 3.64986,-184.389 17.5,-116 19.9617,-103.844 24.3184,-91.2432 29.1087,-79.7206"/>
<polygon fill="none" stroke="#404040" points="29.1617,-79.6 27.9135,-72.4977 33.9895,-68.6139 35.2376,-75.7162 29.1617,-79.6"/>
<text text-anchor="middle" x="50" y="-203" font-family="Helvetica,sans-Serif" font-size="10.00"> +ClusterIndex</text>
<text text-anchor="middle" x="50" y="-192" font-family="Helvetica,sans-Serif" font-size="10.00">+SerialNumber</text>
<text text-anchor="middle" x="50" y="-181" font-family="Helvetica,sans-Serif" font-size="10.00">+Flags</text>
</g>
<!-- Node4&#45;&gt;Node2 -->
<g id="edge3" class="edge"><title>Node4&#45;&gt;Node2</title>
<path fill="none" stroke="#404040" d="M67.7851,-331.264C75.6705,-317.835 85.6229,-300.884 95.7984,-283.554"/>
<polygon fill="none" stroke="#404040" points="96.0705,-283.091 95.6591,-275.891 102.147,-272.743 102.558,-279.942 96.0705,-283.091"/>
<text text-anchor="middle" x="121.5" y="-305" font-family="Helvetica,sans-Serif" font-size="10.00"> +ObjectFlags</text>
<text text-anchor="middle" x="121.5" y="-294" font-family="Helvetica,sans-Serif" font-size="10.00">+InternalIndex</text>
</g>
</g>
</svg>
