<?xml version="1.0" encoding="UTF-8" standalone="no"?>
<!DOCTYPE svg PUBLIC "-//W3C//DTD SVG 1.1//EN"
 "http://www.w3.org/Graphics/SVG/1.1/DTD/svg11.dtd">
<!-- Generated by graphviz version 2.38.0 (20140413.2041)
 -->
<!-- Title: SDK::FPlayModeDefiniton Pages: 1 -->
<svg width="177pt" height="237pt"
 viewBox="0.00 0.00 177.00 237.00" xmlns="http://www.w3.org/2000/svg" xmlns:xlink="http://www.w3.org/1999/xlink">
<g id="graph0" class="graph" transform="scale(1 1) rotate(0) translate(4 233)">
<title>SDK::FPlayModeDefiniton</title>
<!-- Node1 -->
<g id="node1" class="node"><title>Node1</title>
<g id="a_node1"><a xlink:title=" ">
<polygon fill="#bfbfbf" stroke="black" points="29,-0.5 29,-57.5 159,-57.5 159,-0.5 29,-0.5"/>
<text text-anchor="middle" x="94" y="-45.5" font-family="Helvetica,sans-Serif" font-size="10.00">SDK::FPlayModeDefiniton</text>
<polyline fill="none" stroke="black" points="29,-38.5 159,-38.5 "/>
<text text-anchor="middle" x="94" y="-26.5" font-family="Helvetica,sans-Serif" font-size="10.00"> </text>
<polyline fill="none" stroke="black" points="29,-19.5 159,-19.5 "/>
<text text-anchor="middle" x="94" y="-7.5" font-family="Helvetica,sans-Serif" font-size="10.00"> </text>
</a>
</g>
</g>
<!-- Node2 -->
<g id="node2" class="node"><title>Node2</title>
<g id="a_node2"><a xlink:href="a25823.html" target="_top" xlink:title=" ">
<polygon fill="none" stroke="black" points="0,-116.5 0,-228.5 104,-228.5 104,-116.5 0,-116.5"/>
<text text-anchor="start" x="8" y="-216.5" font-family="Helvetica,sans-Serif" font-size="10.00">SDK::TArray&lt; class</text>
<text text-anchor="middle" x="52" y="-205.5" font-family="Helvetica,sans-Serif" font-size="10.00"> SDK::FString &gt;</text>
<polyline fill="none" stroke="black" points="0,-198.5 104,-198.5 "/>
<text text-anchor="middle" x="52" y="-186.5" font-family="Helvetica,sans-Serif" font-size="10.00"> </text>
<polyline fill="none" stroke="black" points="0,-179.5 104,-179.5 "/>
<text text-anchor="start" x="8" y="-167.5" font-family="Helvetica,sans-Serif" font-size="10.00">+ TArray()</text>
<text text-anchor="start" x="8" y="-156.5" font-family="Helvetica,sans-Serif" font-size="10.00">+ Num()</text>
<text text-anchor="start" x="8" y="-145.5" font-family="Helvetica,sans-Serif" font-size="10.00">+ operator[]()</text>
<text text-anchor="start" x="8" y="-134.5" font-family="Helvetica,sans-Serif" font-size="10.00">+ operator[]()</text>
<text text-anchor="start" x="8" y="-123.5" font-family="Helvetica,sans-Serif" font-size="10.00">+ IsValidIndex()</text>
</a>
</g>
</g>
<!-- Node2&#45;&gt;Node1 -->
<g id="edge1" class="edge"><title>Node2&#45;&gt;Node1</title>
<path fill="none" stroke="#404040" d="M68.0428,-116.426C71.9305,-103.179 76.0927,-89.0783 80,-76 80.6631,-73.7804 81.347,-71.5015 82.0393,-69.2023"/>
<polygon fill="none" stroke="#404040" points="82.0392,-69.2023 79.9482,-62.301 85.5144,-57.7165 87.6054,-64.6178 82.0392,-69.2023"/>
<text text-anchor="middle" x="97.5" y="-90" font-family="Helvetica,sans-Serif" font-size="10.00"> +Tags</text>
<text text-anchor="middle" x="97.5" y="-79" font-family="Helvetica,sans-Serif" font-size="10.00">+States</text>
</g>
<!-- Node3 -->
<g id="node3" class="node"><title>Node3</title>
<g id="a_node3"><a xlink:title=" ">
<polygon fill="none" stroke="#bfbfbf" points="122.5,-144 122.5,-201 151.5,-201 151.5,-144 122.5,-144"/>
<text text-anchor="middle" x="137" y="-189" font-family="Helvetica,sans-Serif" font-size="10.00">int</text>
<polyline fill="none" stroke="#bfbfbf" points="122.5,-182 151.5,-182 "/>
<text text-anchor="middle" x="137" y="-170" font-family="Helvetica,sans-Serif" font-size="10.00"> </text>
<polyline fill="none" stroke="#bfbfbf" points="122.5,-163 151.5,-163 "/>
<text text-anchor="middle" x="137" y="-151" font-family="Helvetica,sans-Serif" font-size="10.00"> </text>
</a>
</g>
</g>
<!-- Node3&#45;&gt;Node1 -->
<g id="edge2" class="edge"><title>Node3&#45;&gt;Node1</title>
<path fill="none" stroke="#404040" d="M132.179,-143.923C128.436,-124.624 122.604,-98.3938 115,-76 114.238,-73.7555 113.403,-71.4728 112.519,-69.1849"/>
<polygon fill="none" stroke="#404040" points="112.414,-68.9329 106.415,-64.9314 107.801,-57.8548 113.8,-61.8562 112.414,-68.9329"/>
<text text-anchor="middle" x="145.5" y="-90" font-family="Helvetica,sans-Serif" font-size="10.00"> +CrewMin</text>
<text text-anchor="middle" x="145.5" y="-79" font-family="Helvetica,sans-Serif" font-size="10.00">+CrewMax</text>
</g>
</g>
</svg>
