<?xml version="1.0" encoding="UTF-8" standalone="no"?>
<!DOCTYPE svg PUBLIC "-//W3C//DTD SVG 1.1//EN"
 "http://www.w3.org/Graphics/SVG/1.1/DTD/svg11.dtd">
<!-- Generated by graphviz version 2.38.0 (20140413.2041)
 -->
<!-- Title: SDK::UCoherentUIGTHUD Pages: 1 -->
<!--zoomable 529 -->
<svg id="main" version="1.1" xmlns="http://www.w3.org/2000/svg" xmlns:xlink="http://www.w3.org/1999/xlink" xml:space="preserve" onload="init(evt)">
<style type="text/css"><![CDATA[
.edge:hover path { stroke: red; }
.edge:hover polygon { stroke: red; fill: red; }
]]></style>
<script type="text/javascript"><![CDATA[
var edges = document.getElementsByTagName('g');
if (edges && edges.length) {
  for (var i=0;i<edges.length;i++) {
    if (edges[i].id.substr(0,4)=='edge') {
      edges[i].setAttribute('class','edge');
    }
  }
}
]]></script>
        <defs>
                <circle id="rim" cx="0" cy="0" r="7"/>
                <circle id="rim2" cx="0" cy="0" r="3.5"/>
                <g id="zoomPlus">
                        <use xlink:href="#rim" fill="#404040">
                                <set attributeName="fill" to="#808080" begin="zoomplus.mouseover" end="zoomplus.mouseout"/>
                        </use>
                        <path d="M-4,0h8M0,-4v8" fill="none" stroke="white" stroke-width="1.5" pointer-events="none"/>
                </g>
                <g id="zoomMin">
                        <use xlink:href="#rim" fill="#404040">
                                <set attributeName="fill" to="#808080" begin="zoomminus.mouseover" end="zoomminus.mouseout"/>
                        </use>
                        <path d="M-4,0h8" fill="none" stroke="white" stroke-width="1.5" pointer-events="none"/>
                </g>
                <g id="dirArrow">
                        <path fill="none" stroke="white" stroke-width="1.5" d="M0,-3.0v7 M-2.5,-0.5L0,-3.0L2.5,-0.5"/>
                </g>
               <g id="resetDef">
                       <use xlink:href="#rim2" fill="#404040">
                               <set attributeName="fill" to="#808080" begin="reset.mouseover" end="reset.mouseout"/>
                       </use>
               </g>
        </defs>

<script type="text/javascript">
var viewWidth = 863;
var viewHeight = 529;
var sectionId = 'dynsection-1';
</script>
<script xlink:href="svgpan.js"/>
<svg id="graph" class="graph">
<g id="viewport">
<title>SDK::UCoherentUIGTHUD</title>
<!-- Node1 -->
<g id="node1" class="node"><title>Node1</title>
<g id="a_node1"><a xlink:title=" ">
<polygon fill="#bfbfbf" stroke="black" points="338.033,-0.5 338.033,-57.5 469.033,-57.5 469.033,-0.5 338.033,-0.5"/>
<text text-anchor="middle" x="403.533" y="-45.5" font-family="Helvetica,sans-Serif" font-size="10.00">SDK::UCoherentUIGTHUD</text>
<polyline fill="none" stroke="black" points="338.033,-38.5 469.033,-38.5 "/>
<text text-anchor="middle" x="403.533" y="-26.5" font-family="Helvetica,sans-Serif" font-size="10.00"> </text>
<polyline fill="none" stroke="black" points="338.033,-19.5 469.033,-19.5 "/>
<text text-anchor="start" x="346.033" y="-7.5" font-family="Helvetica,sans-Serif" font-size="10.00">+ StaticClass()</text>
</a>
</g>
</g>
<!-- Node2 -->
<g id="node2" class="node"><title>Node2</title>
<g id="a_node2"><a xlink:href="a25731.html" target="_top" xlink:title=" ">
<polygon fill="none" stroke="red" points="123.533,-105.5 123.533,-305.5 305.533,-305.5 305.533,-105.5 123.533,-105.5"/>
<text text-anchor="middle" x="214.533" y="-293.5" font-family="Helvetica,sans-Serif" font-size="10.00">SDK::UCoherentUIGTBaseComponent</text>
<polyline fill="none" stroke="red" points="123.533,-286.5 305.533,-286.5 "/>
<text text-anchor="middle" x="214.533" y="-274.5" font-family="Helvetica,sans-Serif" font-size="10.00"> </text>
<polyline fill="none" stroke="red" points="123.533,-267.5 305.533,-267.5 "/>
<text text-anchor="start" x="131.533" y="-255.5" font-family="Helvetica,sans-Serif" font-size="10.00">+ UpdateWholeDataModelFrom</text>
<text text-anchor="start" x="131.533" y="-244.5" font-family="Helvetica,sans-Serif" font-size="10.00">Struct()</text>
<text text-anchor="start" x="131.533" y="-233.5" font-family="Helvetica,sans-Serif" font-size="10.00">+ UpdateWholeDataModelFrom</text>
<text text-anchor="start" x="131.533" y="-222.5" font-family="Helvetica,sans-Serif" font-size="10.00">Object()</text>
<text text-anchor="start" x="131.533" y="-211.5" font-family="Helvetica,sans-Serif" font-size="10.00">+ TriggerJSEvent()</text>
<text text-anchor="start" x="131.533" y="-200.5" font-family="Helvetica,sans-Serif" font-size="10.00">+ SynchronizeModels()</text>
<text text-anchor="start" x="131.533" y="-189.5" font-family="Helvetica,sans-Serif" font-size="10.00">+ ShowPaintRects()</text>
<text text-anchor="start" x="131.533" y="-178.5" font-family="Helvetica,sans-Serif" font-size="10.00">+ SetClickThroughAlphaThreshold()</text>
<text text-anchor="start" x="131.533" y="-167.5" font-family="Helvetica,sans-Serif" font-size="10.00">+ Resize()</text>
<text text-anchor="start" x="131.533" y="-156.5" font-family="Helvetica,sans-Serif" font-size="10.00">+ Reload()</text>
<text text-anchor="start" x="131.533" y="-145.5" font-family="Helvetica,sans-Serif" font-size="10.00">+ Redraw()</text>
<text text-anchor="start" x="131.533" y="-134.5" font-family="Helvetica,sans-Serif" font-size="10.00">+ Load()</text>
<text text-anchor="start" x="131.533" y="-123.5" font-family="Helvetica,sans-Serif" font-size="10.00">and 13 more...</text>
<text text-anchor="start" x="131.533" y="-112.5" font-family="Helvetica,sans-Serif" font-size="10.00">+ StaticClass()</text>
</a>
</g>
</g>
<!-- Node2&#45;&gt;Node1 -->
<g id="edge1" class="edge"><title>Node2&#45;&gt;Node1</title>
<path fill="none" stroke="midnightblue" d="M313.177,-106.245C313.629,-105.829 314.082,-105.414 314.533,-105 332.115,-88.8953 352.398,-71.7023 369.157,-57.846"/>
<polygon fill="none" stroke="midnightblue" points="310.742,-103.729 305.791,-113.096 315.503,-108.861 310.742,-103.729"/>
</g>
<!-- Node13 -->
<g id="node3" class="node"><title>Node13</title>
<g id="a_node3"><a xlink:title=" ">
<polygon fill="none" stroke="#bfbfbf" points="197.033,-463.5 197.033,-520.5 232.033,-520.5 232.033,-463.5 197.033,-463.5"/>
<text text-anchor="middle" x="214.533" y="-508.5" font-family="Helvetica,sans-Serif" font-size="10.00">char</text>
<polyline fill="none" stroke="#bfbfbf" points="197.033,-501.5 232.033,-501.5 "/>
<text text-anchor="middle" x="214.533" y="-489.5" font-family="Helvetica,sans-Serif" font-size="10.00"> </text>
<polyline fill="none" stroke="#bfbfbf" points="197.033,-482.5 232.033,-482.5 "/>
<text text-anchor="middle" x="214.533" y="-470.5" font-family="Helvetica,sans-Serif" font-size="10.00"> </text>
</a>
</g>
</g>
<!-- Node13&#45;&gt;Node1 -->
<g id="edge6" class="edge"><title>Node13&#45;&gt;Node1</title>
<path fill="none" stroke="#404040" d="M197.017,-480.047C158.699,-454.912 68.1787,-388.827 34.5332,-306 0.912881,-223.235 -21.9951,-174.174 34.5332,-105 70.583,-60.8859 228.593,-42.0753 325.781,-34.5618"/>
<polygon fill="none" stroke="#404040" points="325.936,-34.5503 331.622,-30.1155 337.903,-33.6586 332.217,-38.0934 325.936,-34.5503"/>
<text text-anchor="middle" x="74.5332" y="-203" font-family="Helvetica,sans-Serif" font-size="10.00"> +UnknownData00</text>
</g>
<!-- Node13&#45;&gt;Node2 -->
<g id="edge2" class="edge"><title>Node13&#45;&gt;Node2</title>
<path fill="none" stroke="#404040" d="M214.533,-463.462C214.533,-429.825 214.533,-370.85 214.533,-317.876"/>
<polygon fill="none" stroke="#404040" points="214.533,-317.621 210.533,-311.621 214.533,-305.621 218.533,-311.62 214.533,-317.621"/>
<text text-anchor="middle" x="254.533" y="-387.5" font-family="Helvetica,sans-Serif" font-size="10.00"> +UnknownData01</text>
<text text-anchor="middle" x="254.533" y="-376.5" font-family="Helvetica,sans-Serif" font-size="10.00">+UnknownData00</text>
</g>
<!-- Node58 -->
<g id="node5" class="node"><title>Node58</title>
<g id="a_node5"><a xlink:href="a26531.html" target="_top" xlink:title=" ">
<polygon fill="none" stroke="red" points="324.033,-122 324.033,-289 483.033,-289 483.033,-122 324.033,-122"/>
<text text-anchor="middle" x="403.533" y="-277" font-family="Helvetica,sans-Serif" font-size="10.00">SDK::UMaterial</text>
<polyline fill="none" stroke="red" points="324.033,-270 483.033,-270 "/>
<text text-anchor="start" x="332.033" y="-258" font-family="Helvetica,sans-Serif" font-size="10.00">+ UnknownData00</text>
<text text-anchor="start" x="332.033" y="-247" font-family="Helvetica,sans-Serif" font-size="10.00">+ OpacityMaskClipValue</text>
<text text-anchor="start" x="332.033" y="-236" font-family="Helvetica,sans-Serif" font-size="10.00">+ DepthWeightExponent</text>
<text text-anchor="start" x="332.033" y="-225" font-family="Helvetica,sans-Serif" font-size="10.00">+ DepthWeightBase</text>
<text text-anchor="start" x="332.033" y="-214" font-family="Helvetica,sans-Serif" font-size="10.00">+ bBlendedOITAfterTranslucency</text>
<text text-anchor="start" x="332.033" y="-203" font-family="Helvetica,sans-Serif" font-size="10.00">+ bForceResolution</text>
<text text-anchor="start" x="332.033" y="-192" font-family="Helvetica,sans-Serif" font-size="10.00">+ FirstSplitDistance</text>
<text text-anchor="start" x="332.033" y="-181" font-family="Helvetica,sans-Serif" font-size="10.00">+ FullResInFront</text>
<text text-anchor="start" x="332.033" y="-170" font-family="Helvetica,sans-Serif" font-size="10.00">+ PopPerParticle</text>
<text text-anchor="start" x="332.033" y="-159" font-family="Helvetica,sans-Serif" font-size="10.00">+ UnknownData03</text>
<text text-anchor="start" x="332.033" y="-148" font-family="Helvetica,sans-Serif" font-size="10.00">and 84 more...</text>
<polyline fill="none" stroke="red" points="324.033,-141 483.033,-141 "/>
<text text-anchor="start" x="332.033" y="-129" font-family="Helvetica,sans-Serif" font-size="10.00">+ StaticClass()</text>
</a>
</g>
</g>
<!-- Node13&#45;&gt;Node58 -->
<g id="edge5" class="edge"><title>Node13&#45;&gt;Node58</title>
<path fill="none" stroke="#404040" d="M232.14,-485.233C250.812,-478.322 280.101,-465.095 298.533,-445 335.825,-404.343 361.414,-348.302 377.988,-300.759"/>
<polygon fill="none" stroke="#404040" points="378.058,-300.552 376.193,-293.586 381.906,-289.186 383.771,-296.151 378.058,-300.552"/>
<text text-anchor="middle" x="445.033" y="-437" font-family="Helvetica,sans-Serif" font-size="10.00"> +bUsedWithGPUInstanceCulling</text>
<text text-anchor="middle" x="445.033" y="-426" font-family="Helvetica,sans-Serif" font-size="10.00">+UnknownData01</text>
<text text-anchor="middle" x="445.033" y="-415" font-family="Helvetica,sans-Serif" font-size="10.00">+bUsedWithDynamicObjectFading</text>
<text text-anchor="middle" x="445.033" y="-404" font-family="Helvetica,sans-Serif" font-size="10.00">+bUsedWithStaticLighting</text>
<text text-anchor="middle" x="445.033" y="-393" font-family="Helvetica,sans-Serif" font-size="10.00">+bUsedWithCoverage</text>
<text text-anchor="middle" x="445.033" y="-382" font-family="Helvetica,sans-Serif" font-size="10.00">+UnknownData02</text>
<text text-anchor="middle" x="445.033" y="-371" font-family="Helvetica,sans-Serif" font-size="10.00">+UnknownData10</text>
<text text-anchor="middle" x="445.033" y="-360" font-family="Helvetica,sans-Serif" font-size="10.00">+bApplyWaterMask</text>
<text text-anchor="middle" x="445.033" y="-349" font-family="Helvetica,sans-Serif" font-size="10.00">+bUsedWithInstancedRopes</text>
<text text-anchor="middle" x="445.033" y="-338" font-family="Helvetica,sans-Serif" font-size="10.00">+bUsedWithClouds</text>
<text text-anchor="middle" x="445.033" y="-327" font-family="Helvetica,sans-Serif" font-size="10.00">...</text>
</g>
<!-- Node38 -->
<g id="node4" class="node"><title>Node38</title>
<g id="a_node4"><a xlink:href="a28895.html" target="_top" xlink:title=" ">
<polygon fill="none" stroke="red" points="501.033,-116.5 501.033,-294.5 694.033,-294.5 694.033,-116.5 501.033,-116.5"/>
<text text-anchor="middle" x="597.533" y="-282.5" font-family="Helvetica,sans-Serif" font-size="10.00">SDK::UMaterialInstanceDynamic</text>
<polyline fill="none" stroke="red" points="501.033,-275.5 694.033,-275.5 "/>
<text text-anchor="middle" x="597.533" y="-263.5" font-family="Helvetica,sans-Serif" font-size="10.00"> </text>
<polyline fill="none" stroke="red" points="501.033,-256.5 694.033,-256.5 "/>
<text text-anchor="start" x="509.033" y="-244.5" font-family="Helvetica,sans-Serif" font-size="10.00">+ SetVectorParameterValue()</text>
<text text-anchor="start" x="509.033" y="-233.5" font-family="Helvetica,sans-Serif" font-size="10.00">+ SetTextureParameterValue()</text>
<text text-anchor="start" x="509.033" y="-222.5" font-family="Helvetica,sans-Serif" font-size="10.00">+ SetScalarParameterValue()</text>
<text text-anchor="start" x="509.033" y="-211.5" font-family="Helvetica,sans-Serif" font-size="10.00">+ MergeParameters()</text>
<text text-anchor="start" x="509.033" y="-200.5" font-family="Helvetica,sans-Serif" font-size="10.00">+ K2_InterpolateMaterialInstance</text>
<text text-anchor="start" x="509.033" y="-189.5" font-family="Helvetica,sans-Serif" font-size="10.00">Params()</text>
<text text-anchor="start" x="509.033" y="-178.5" font-family="Helvetica,sans-Serif" font-size="10.00">+ K2_GetVectorParameterValue()</text>
<text text-anchor="start" x="509.033" y="-167.5" font-family="Helvetica,sans-Serif" font-size="10.00">+ K2_GetTextureParameterValue()</text>
<text text-anchor="start" x="509.033" y="-156.5" font-family="Helvetica,sans-Serif" font-size="10.00">+ K2_GetScalarParameterValue()</text>
<text text-anchor="start" x="509.033" y="-145.5" font-family="Helvetica,sans-Serif" font-size="10.00">+ K2_CopyMaterialInstanceParameters()</text>
<text text-anchor="start" x="509.033" y="-134.5" font-family="Helvetica,sans-Serif" font-size="10.00">+ CopyParameterOverrides()</text>
<text text-anchor="start" x="509.033" y="-123.5" font-family="Helvetica,sans-Serif" font-size="10.00">+ StaticClass()</text>
</a>
</g>
</g>
<!-- Node38&#45;&gt;Node1 -->
<g id="edge3" class="edge"><title>Node38&#45;&gt;Node1</title>
<path fill="none" stroke="#404040" d="M515.758,-116.333C501.474,-102.339 486.412,-88.4051 471.533,-76 467.048,-72.2606 462.257,-68.54 457.373,-64.9279"/>
<polygon fill="none" stroke="#404040" points="457.037,-64.6871 449.83,-64.4417 447.285,-57.6948 454.492,-57.9402 457.037,-64.6871"/>
<text text-anchor="middle" x="534.033" y="-79" font-family="Helvetica,sans-Serif" font-size="10.00"> +HUDMaterialInstance</text>
</g>
<!-- Node58&#45;&gt;Node1 -->
<g id="edge4" class="edge"><title>Node58&#45;&gt;Node1</title>
<path fill="none" stroke="#404040" d="M403.533,-121.849C403.533,-103.818 403.533,-85.524 403.533,-70.0593"/>
<polygon fill="none" stroke="#404040" points="403.533,-69.8023 399.533,-63.8023 403.533,-57.8023 407.533,-63.8022 403.533,-69.8023"/>
<text text-anchor="middle" x="435.533" y="-79" font-family="Helvetica,sans-Serif" font-size="10.00"> +HUDMaterial</text>
</g>
<!-- Node85 -->
<g id="node6" class="node"><title>Node85</title>
<g id="a_node6"><a xlink:href="a26207.html" target="_top" xlink:title=" ">
<polygon fill="none" stroke="red" points="712.033,-177 712.033,-234 855.033,-234 855.033,-177 712.033,-177"/>
<text text-anchor="middle" x="783.533" y="-222" font-family="Helvetica,sans-Serif" font-size="10.00">SDK::FStringAssetReference</text>
<polyline fill="none" stroke="red" points="712.033,-215 855.033,-215 "/>
<text text-anchor="middle" x="783.533" y="-203" font-family="Helvetica,sans-Serif" font-size="10.00"> </text>
<polyline fill="none" stroke="red" points="712.033,-196 855.033,-196 "/>
<text text-anchor="middle" x="783.533" y="-184" font-family="Helvetica,sans-Serif" font-size="10.00"> </text>
</a>
</g>
</g>
<!-- Node85&#45;&gt;Node1 -->
<g id="edge7" class="edge"><title>Node85&#45;&gt;Node1</title>
<path fill="none" stroke="#404040" d="M767.856,-176.699C753.662,-154.053 730.693,-122.983 702.533,-105 635.264,-62.042 544.896,-43.682 481.172,-35.8393"/>
<polygon fill="none" stroke="#404040" points="481.117,-35.833 474.696,-39.115 469.197,-34.4502 475.618,-31.1683 481.117,-35.833"/>
<text text-anchor="middle" x="711.533" y="-79" font-family="Helvetica,sans-Serif" font-size="10.00"> +HUDMaterialName</text>
</g>
</g>
</svg>
        <g id="navigator" transform="translate(0 0)" fill="#404254">
                <rect fill="#f2f5e9" fill-opacity="0.5" stroke="#606060" stroke-width=".5" x="0" y="0" width="60" height="60"/>
                <use id="zoomplus" xlink:href="#zoomPlus" x="17" y="9" onmousedown="handleZoom(evt,'in')"/>
                <use id="zoomminus" xlink:href="#zoomMin" x="42" y="9" onmousedown="handleZoom(evt,'out')"/>
                <use id="reset" xlink:href="#resetDef" x="30" y="36" onmousedown="handleReset()"/>
                <g id="arrowUp" xlink:href="#dirArrow" transform="translate(30 24)" onmousedown="handlePan(0,-1)">
                  <use xlink:href="#rim" fill="#404040">
                        <set attributeName="fill" to="#808080" begin="arrowUp.mouseover" end="arrowUp.mouseout"/>
                  </use>
                  <path fill="none" stroke="white" stroke-width="1.5" d="M0,-3.0v7 M-2.5,-0.5L0,-3.0L2.5,-0.5"/>
                </g>
                <g id="arrowRight" xlink:href="#dirArrow" transform="rotate(90) translate(36 -43)" onmousedown="handlePan(1,0)">
                  <use xlink:href="#rim" fill="#404040">
                        <set attributeName="fill" to="#808080" begin="arrowRight.mouseover" end="arrowRight.mouseout"/>
                  </use>
                  <path fill="none" stroke="white" stroke-width="1.5" d="M0,-3.0v7 M-2.5,-0.5L0,-3.0L2.5,-0.5"/>
                </g>
                <g id="arrowDown" xlink:href="#dirArrow" transform="rotate(180) translate(-30 -48)" onmousedown="handlePan(0,1)">
                  <use xlink:href="#rim" fill="#404040">
                        <set attributeName="fill" to="#808080" begin="arrowDown.mouseover" end="arrowDown.mouseout"/>
                  </use>
                  <path fill="none" stroke="white" stroke-width="1.5" d="M0,-3.0v7 M-2.5,-0.5L0,-3.0L2.5,-0.5"/>
                </g>
                <g id="arrowLeft" xlink:href="#dirArrow" transform="rotate(270) translate(-36 17)" onmousedown="handlePan(-1,0)">
                  <use xlink:href="#rim" fill="#404040">
                        <set attributeName="fill" to="#808080" begin="arrowLeft.mouseover" end="arrowLeft.mouseout"/>
                  </use>
                  <path fill="none" stroke="white" stroke-width="1.5" d="M0,-3.0v7 M-2.5,-0.5L0,-3.0L2.5,-0.5"/>
                </g>
        </g>
        <svg viewBox="0 0 15 15" width="100%" height="30px" preserveAspectRatio="xMaxYMin meet">
         <g id="arrow_out" transform="scale(0.3 0.3)">
          <a xlink:href="a25765_org.svg" target="_base">
           <rect id="button" ry="5" rx="5" y="6" x="6" height="38" width="38"
                fill="#f2f5e9" fill-opacity="0.5" stroke="#606060" stroke-width="1.0"/>
           <path id="arrow"
             d="M 11.500037,31.436501 C 11.940474,20.09759 22.043105,11.32322 32.158766,21.979434 L 37.068811,17.246167 C 37.068811,17.246167 37.088388,32 37.088388,32 L 22.160133,31.978069 C 22.160133,31.978069 26.997745,27.140456 26.997745,27.140456 C 18.528582,18.264221 13.291696,25.230495 11.500037,31.436501 z"
             style="fill:#404040;"/>
          </a>
         </g>
        </svg>
</svg>
