<?xml version="1.0" encoding="UTF-8" standalone="no"?>
<!DOCTYPE svg PUBLIC "-//W3C//DTD SVG 1.1//EN"
 "http://www.w3.org/Graphics/SVG/1.1/DTD/svg11.dtd">
<!-- Generated by graphviz version 2.38.0 (20140413.2041)
 -->
<!-- Title: SDK::UCoherentUIGTWidget Pages: 1 -->
<!--zoomable 895 -->
<svg id="main" version="1.1" xmlns="http://www.w3.org/2000/svg" xmlns:xlink="http://www.w3.org/1999/xlink" xml:space="preserve" onload="init(evt)">
<style type="text/css"><![CDATA[
.edge:hover path { stroke: red; }
.edge:hover polygon { stroke: red; fill: red; }
]]></style>
<script type="text/javascript"><![CDATA[
var edges = document.getElementsByTagName('g');
if (edges && edges.length) {
  for (var i=0;i<edges.length;i++) {
    if (edges[i].id.substr(0,4)=='edge') {
      edges[i].setAttribute('class','edge');
    }
  }
}
]]></script>
        <defs>
                <circle id="rim" cx="0" cy="0" r="7"/>
                <circle id="rim2" cx="0" cy="0" r="3.5"/>
                <g id="zoomPlus">
                        <use xlink:href="#rim" fill="#404040">
                                <set attributeName="fill" to="#808080" begin="zoomplus.mouseover" end="zoomplus.mouseout"/>
                        </use>
                        <path d="M-4,0h8M0,-4v8" fill="none" stroke="white" stroke-width="1.5" pointer-events="none"/>
                </g>
                <g id="zoomMin">
                        <use xlink:href="#rim" fill="#404040">
                                <set attributeName="fill" to="#808080" begin="zoomminus.mouseover" end="zoomminus.mouseout"/>
                        </use>
                        <path d="M-4,0h8" fill="none" stroke="white" stroke-width="1.5" pointer-events="none"/>
                </g>
                <g id="dirArrow">
                        <path fill="none" stroke="white" stroke-width="1.5" d="M0,-3.0v7 M-2.5,-0.5L0,-3.0L2.5,-0.5"/>
                </g>
               <g id="resetDef">
                       <use xlink:href="#rim2" fill="#404040">
                               <set attributeName="fill" to="#808080" begin="reset.mouseover" end="reset.mouseout"/>
                       </use>
               </g>
        </defs>

<script type="text/javascript">
var viewWidth = 1487;
var viewHeight = 895;
var sectionId = 'dynsection-1';
</script>
<script xlink:href="svgpan.js"/>
<svg id="graph" class="graph">
<g id="viewport">
<title>SDK::UCoherentUIGTWidget</title>
<!-- Node1 -->
<g id="node1" class="node"><title>Node1</title>
<g id="a_node1"><a xlink:title=" ">
<polygon fill="#bfbfbf" stroke="black" points="721.769,-0.5 721.769,-200.5 891.769,-200.5 891.769,-0.5 721.769,-0.5"/>
<text text-anchor="middle" x="806.769" y="-188.5" font-family="Helvetica,sans-Serif" font-size="10.00">SDK::UCoherentUIGTWidget</text>
<polyline fill="none" stroke="black" points="721.769,-181.5 891.769,-181.5 "/>
<text text-anchor="middle" x="806.769" y="-169.5" font-family="Helvetica,sans-Serif" font-size="10.00"> </text>
<polyline fill="none" stroke="black" points="721.769,-162.5 891.769,-162.5 "/>
<text text-anchor="start" x="729.769" y="-150.5" font-family="Helvetica,sans-Serif" font-size="10.00">+ UpdateWholeDataModelFrom</text>
<text text-anchor="start" x="729.769" y="-139.5" font-family="Helvetica,sans-Serif" font-size="10.00">Struct()</text>
<text text-anchor="start" x="729.769" y="-128.5" font-family="Helvetica,sans-Serif" font-size="10.00">+ UpdateWholeDataModelFrom</text>
<text text-anchor="start" x="729.769" y="-117.5" font-family="Helvetica,sans-Serif" font-size="10.00">Object()</text>
<text text-anchor="start" x="729.769" y="-106.5" font-family="Helvetica,sans-Serif" font-size="10.00">+ TriggerJSEvent()</text>
<text text-anchor="start" x="729.769" y="-95.5" font-family="Helvetica,sans-Serif" font-size="10.00">+ SynchronizeModels()</text>
<text text-anchor="start" x="729.769" y="-84.5" font-family="Helvetica,sans-Serif" font-size="10.00">+ ShowPaintRects()</text>
<text text-anchor="start" x="729.769" y="-73.5" font-family="Helvetica,sans-Serif" font-size="10.00">+ SetClickThroughAlphaThreshold()</text>
<text text-anchor="start" x="729.769" y="-62.5" font-family="Helvetica,sans-Serif" font-size="10.00">+ Reload()</text>
<text text-anchor="start" x="729.769" y="-51.5" font-family="Helvetica,sans-Serif" font-size="10.00">+ Redraw()</text>
<text text-anchor="start" x="729.769" y="-40.5" font-family="Helvetica,sans-Serif" font-size="10.00">+ Load()</text>
<text text-anchor="start" x="729.769" y="-29.5" font-family="Helvetica,sans-Serif" font-size="10.00">+ IsTransparent()</text>
<text text-anchor="start" x="729.769" y="-18.5" font-family="Helvetica,sans-Serif" font-size="10.00">and 12 more...</text>
<text text-anchor="start" x="729.769" y="-7.5" font-family="Helvetica,sans-Serif" font-size="10.00">+ StaticClass()</text>
</a>
</g>
</g>
<!-- Node2 -->
<g id="node2" class="node"><title>Node2</title>
<g id="a_node2"><a xlink:href="a35523.html" target="_top" xlink:title=" ">
<polygon fill="none" stroke="red" points="73.2689,-309 73.2689,-487 214.269,-487 214.269,-309 73.2689,-309"/>
<text text-anchor="middle" x="143.769" y="-475" font-family="Helvetica,sans-Serif" font-size="10.00">SDK::UWidget</text>
<polyline fill="none" stroke="red" points="73.2689,-468 214.269,-468 "/>
<text text-anchor="middle" x="143.769" y="-456" font-family="Helvetica,sans-Serif" font-size="10.00"> </text>
<polyline fill="none" stroke="red" points="73.2689,-449 214.269,-449 "/>
<text text-anchor="start" x="81.2689" y="-437" font-family="Helvetica,sans-Serif" font-size="10.00">+ SetVisibility()</text>
<text text-anchor="start" x="81.2689" y="-426" font-family="Helvetica,sans-Serif" font-size="10.00">+ SetUserFocus()</text>
<text text-anchor="start" x="81.2689" y="-415" font-family="Helvetica,sans-Serif" font-size="10.00">+ SetToolTipText()</text>
<text text-anchor="start" x="81.2689" y="-404" font-family="Helvetica,sans-Serif" font-size="10.00">+ SetToolTip()</text>
<text text-anchor="start" x="81.2689" y="-393" font-family="Helvetica,sans-Serif" font-size="10.00">+ SetRenderTranslation()</text>
<text text-anchor="start" x="81.2689" y="-382" font-family="Helvetica,sans-Serif" font-size="10.00">+ SetRenderTransformPivot()</text>
<text text-anchor="start" x="81.2689" y="-371" font-family="Helvetica,sans-Serif" font-size="10.00">+ SetRenderTransform()</text>
<text text-anchor="start" x="81.2689" y="-360" font-family="Helvetica,sans-Serif" font-size="10.00">+ SetRenderShear()</text>
<text text-anchor="start" x="81.2689" y="-349" font-family="Helvetica,sans-Serif" font-size="10.00">+ SetRenderScale()</text>
<text text-anchor="start" x="81.2689" y="-338" font-family="Helvetica,sans-Serif" font-size="10.00">+ SetRenderAngle()</text>
<text text-anchor="start" x="81.2689" y="-327" font-family="Helvetica,sans-Serif" font-size="10.00">and 35 more...</text>
<text text-anchor="start" x="81.2689" y="-316" font-family="Helvetica,sans-Serif" font-size="10.00">+ StaticClass()</text>
</a>
</g>
</g>
<!-- Node2&#45;&gt;Node1 -->
<g id="edge1" class="edge"><title>Node2&#45;&gt;Node1</title>
<path fill="none" stroke="midnightblue" d="M221.536,-302.724C251.254,-272.008 287.315,-240.355 325.769,-219 452.587,-148.572 621.216,-119.938 721.43,-108.6"/>
<polygon fill="none" stroke="midnightblue" points="218.882,-300.435 214.514,-310.088 223.948,-305.267 218.882,-300.435"/>
</g>
<!-- Node2&#45;&gt;Node2 -->
<g id="edge3" class="edge"><title>Node2&#45;&gt;Node2</title>
<path fill="none" stroke="#404040" d="M214.595,-427.256C225.138,-422.701 232.269,-412.949 232.269,-398 232.269,-388.423 229.342,-380.979 224.467,-375.668"/>
<polygon fill="none" stroke="#404040" points="224.419,-375.635 217.21,-375.464 214.595,-368.744 221.804,-368.914 224.419,-375.635"/>
<text text-anchor="middle" x="267.769" y="-395.5" font-family="Helvetica,sans-Serif" font-size="10.00"> +ToolTipWidget</text>
</g>
<!-- Node13 -->
<g id="node3" class="node"><title>Node13</title>
<g id="a_node3"><a xlink:title=" ">
<polygon fill="none" stroke="#bfbfbf" points="395.269,-829.5 395.269,-886.5 430.269,-886.5 430.269,-829.5 395.269,-829.5"/>
<text text-anchor="middle" x="412.769" y="-874.5" font-family="Helvetica,sans-Serif" font-size="10.00">char</text>
<polyline fill="none" stroke="#bfbfbf" points="395.269,-867.5 430.269,-867.5 "/>
<text text-anchor="middle" x="412.769" y="-855.5" font-family="Helvetica,sans-Serif" font-size="10.00"> </text>
<polyline fill="none" stroke="#bfbfbf" points="395.269,-848.5 430.269,-848.5 "/>
<text text-anchor="middle" x="412.769" y="-836.5" font-family="Helvetica,sans-Serif" font-size="10.00"> </text>
</a>
</g>
</g>
<!-- Node13&#45;&gt;Node1 -->
<g id="edge8" class="edge"><title>Node13&#45;&gt;Node1</title>
<path fill="none" stroke="#404040" d="M395.239,-855.838C351.236,-852.139 234.183,-837.375 157.769,-782 96.3542,-737.495 81.866,-715.243 58.7689,-643 27.5158,-545.247 -58.1138,-393.908 63.7689,-248 145.186,-150.534 526.84,-116.743 709.229,-106.028"/>
<polygon fill="none" stroke="#404040" points="709.499,-106.013 715.261,-101.676 721.48,-105.325 715.719,-109.662 709.499,-106.013"/>
<text text-anchor="middle" x="98.7689" y="-624" font-family="Helvetica,sans-Serif" font-size="10.00"> +UnknownData01</text>
<text text-anchor="middle" x="98.7689" y="-613" font-family="Helvetica,sans-Serif" font-size="10.00">+UnknownData02</text>
<text text-anchor="middle" x="98.7689" y="-602" font-family="Helvetica,sans-Serif" font-size="10.00">+UnknownData03</text>
<text text-anchor="middle" x="98.7689" y="-591" font-family="Helvetica,sans-Serif" font-size="10.00">+UnknownData04</text>
<text text-anchor="middle" x="98.7689" y="-580" font-family="Helvetica,sans-Serif" font-size="10.00">+UnknownData00</text>
</g>
<!-- Node13&#45;&gt;Node2 -->
<g id="edge2" class="edge"><title>Node13&#45;&gt;Node2</title>
<path fill="none" stroke="#404040" d="M395.092,-853.967C359.885,-847.095 280.236,-827.281 231.769,-782 155.111,-710.38 138.793,-586.617 137.986,-499.19"/>
<polygon fill="none" stroke="#404040" points="137.986,-499.104 133.979,-493.109 137.971,-487.104 141.978,-493.099 137.986,-499.104"/>
<text text-anchor="middle" x="272.269" y="-757.5" font-family="Helvetica,sans-Serif" font-size="10.00"> +UnknownData01</text>
<text text-anchor="middle" x="272.269" y="-746.5" font-family="Helvetica,sans-Serif" font-size="10.00">+UnknownData02</text>
<text text-anchor="middle" x="272.269" y="-735.5" font-family="Helvetica,sans-Serif" font-size="10.00">+UnknownData03</text>
<text text-anchor="middle" x="272.269" y="-724.5" font-family="Helvetica,sans-Serif" font-size="10.00">+UnknownData04</text>
<text text-anchor="middle" x="272.269" y="-713.5" font-family="Helvetica,sans-Serif" font-size="10.00">+UnknownData05</text>
<text text-anchor="middle" x="272.269" y="-702.5" font-family="Helvetica,sans-Serif" font-size="10.00">+UnknownData06</text>
<text text-anchor="middle" x="272.269" y="-691.5" font-family="Helvetica,sans-Serif" font-size="10.00">+bOverride_Cursor</text>
<text text-anchor="middle" x="272.269" y="-680.5" font-family="Helvetica,sans-Serif" font-size="10.00">+UnknownData00</text>
</g>
<!-- Node30 -->
<g id="node5" class="node"><title>Node30</title>
<g id="a_node5"><a xlink:href="a25867.html" target="_top" xlink:title=" ">
<polygon fill="none" stroke="black" points="828.769,-693 828.769,-750 980.769,-750 980.769,-693 828.769,-693"/>
<text text-anchor="middle" x="904.769" y="-738" font-family="Helvetica,sans-Serif" font-size="10.00">SDK::FScriptMulticastDelegate</text>
<polyline fill="none" stroke="black" points="828.769,-731 980.769,-731 "/>
<text text-anchor="middle" x="904.769" y="-719" font-family="Helvetica,sans-Serif" font-size="10.00"> </text>
<polyline fill="none" stroke="black" points="828.769,-712 980.769,-712 "/>
<text text-anchor="middle" x="904.769" y="-700" font-family="Helvetica,sans-Serif" font-size="10.00"> </text>
</a>
</g>
</g>
<!-- Node13&#45;&gt;Node30 -->
<g id="edge6" class="edge"><title>Node13&#45;&gt;Node30</title>
<path fill="none" stroke="#404040" d="M430.422,-856.483C488.109,-854.224 675.355,-842.388 814.769,-782 829.972,-775.415 845.414,-766.277 859.114,-757.136"/>
<polygon fill="none" stroke="#404040" points="859.331,-756.987 862.008,-750.292 869.219,-750.188 866.541,-756.884 859.331,-756.987"/>
<text text-anchor="middle" x="798.769" y="-803" font-family="Helvetica,sans-Serif" font-size="10.00"> +UnknownData</text>
</g>
<!-- Node31 -->
<g id="node7" class="node"><title>Node31</title>
<g id="a_node7"><a xlink:href="a26555.html" target="_top" xlink:title=" ">
<polygon fill="none" stroke="red" points="723.269,-248.5 723.269,-547.5 890.269,-547.5 890.269,-248.5 723.269,-248.5"/>
<text text-anchor="middle" x="806.769" y="-535.5" font-family="Helvetica,sans-Serif" font-size="10.00">SDK::AActor</text>
<polyline fill="none" stroke="red" points="723.269,-528.5 890.269,-528.5 "/>
<text text-anchor="start" x="731.269" y="-516.5" font-family="Helvetica,sans-Serif" font-size="10.00">+ bAllowRemovalFromServerWhen</text>
<text text-anchor="start" x="731.269" y="-505.5" font-family="Helvetica,sans-Serif" font-size="10.00">CollisionMerged</text>
<text text-anchor="start" x="731.269" y="-494.5" font-family="Helvetica,sans-Serif" font-size="10.00">+ bHidden</text>
<text text-anchor="start" x="731.269" y="-483.5" font-family="Helvetica,sans-Serif" font-size="10.00">+ bNetStartup</text>
<text text-anchor="start" x="731.269" y="-472.5" font-family="Helvetica,sans-Serif" font-size="10.00">+ bOnlyRelevantToOwner</text>
<text text-anchor="start" x="731.269" y="-461.5" font-family="Helvetica,sans-Serif" font-size="10.00">+ bAlwaysRelevant</text>
<text text-anchor="start" x="731.269" y="-450.5" font-family="Helvetica,sans-Serif" font-size="10.00">+ bReplicateMovement</text>
<text text-anchor="start" x="731.269" y="-439.5" font-family="Helvetica,sans-Serif" font-size="10.00">+ bExchangedRoles</text>
<text text-anchor="start" x="731.269" y="-428.5" font-family="Helvetica,sans-Serif" font-size="10.00">+ bNetLoadOnClient</text>
<text text-anchor="start" x="731.269" y="-417.5" font-family="Helvetica,sans-Serif" font-size="10.00">+ bBlockInput</text>
<text text-anchor="start" x="731.269" y="-406.5" font-family="Helvetica,sans-Serif" font-size="10.00">+ UnknownData00</text>
<text text-anchor="start" x="731.269" y="-395.5" font-family="Helvetica,sans-Serif" font-size="10.00">and 26 more...</text>
<polyline fill="none" stroke="red" points="723.269,-388.5 890.269,-388.5 "/>
<text text-anchor="start" x="731.269" y="-376.5" font-family="Helvetica,sans-Serif" font-size="10.00">+ UserConstructionScript()</text>
<text text-anchor="start" x="731.269" y="-365.5" font-family="Helvetica,sans-Serif" font-size="10.00">+ TearOff()</text>
<text text-anchor="start" x="731.269" y="-354.5" font-family="Helvetica,sans-Serif" font-size="10.00">+ SnapRootComponentTo()</text>
<text text-anchor="start" x="731.269" y="-343.5" font-family="Helvetica,sans-Serif" font-size="10.00">+ SetTickGroup()</text>
<text text-anchor="start" x="731.269" y="-332.5" font-family="Helvetica,sans-Serif" font-size="10.00">+ SetTickableWhenPaused()</text>
<text text-anchor="start" x="731.269" y="-321.5" font-family="Helvetica,sans-Serif" font-size="10.00">+ SetReplicates()</text>
<text text-anchor="start" x="731.269" y="-310.5" font-family="Helvetica,sans-Serif" font-size="10.00">+ SetReplicateMovement()</text>
<text text-anchor="start" x="731.269" y="-299.5" font-family="Helvetica,sans-Serif" font-size="10.00">+ SetOwner()</text>
<text text-anchor="start" x="731.269" y="-288.5" font-family="Helvetica,sans-Serif" font-size="10.00">+ SetLifeSpan()</text>
<text text-anchor="start" x="731.269" y="-277.5" font-family="Helvetica,sans-Serif" font-size="10.00">+ SetIgnoreNetTransformUpdates()</text>
<text text-anchor="start" x="731.269" y="-266.5" font-family="Helvetica,sans-Serif" font-size="10.00">and 109 more...</text>
<text text-anchor="start" x="731.269" y="-255.5" font-family="Helvetica,sans-Serif" font-size="10.00">+ StaticClass()</text>
</a>
</g>
</g>
<!-- Node13&#45;&gt;Node31 -->
<g id="edge11" class="edge"><title>Node13&#45;&gt;Node31</title>
<path fill="none" stroke="#404040" d="M430.713,-850.974C460.207,-840.44 519.747,-816.464 560.769,-782 632.861,-721.432 691.134,-634.281 732.835,-558.41"/>
<polygon fill="none" stroke="#404040" points="732.88,-558.328 732.23,-551.146 738.609,-547.784 739.259,-554.965 732.88,-558.328"/>
<text text-anchor="middle" x="732.769" y="-774" font-family="Helvetica,sans-Serif" font-size="10.00"> +bEnableAutoLODGeneration</text>
<text text-anchor="middle" x="732.769" y="-763" font-family="Helvetica,sans-Serif" font-size="10.00">+UnknownData01</text>
<text text-anchor="middle" x="732.769" y="-752" font-family="Helvetica,sans-Serif" font-size="10.00">+bNetUseOwnerRelevancy</text>
<text text-anchor="middle" x="732.769" y="-741" font-family="Helvetica,sans-Serif" font-size="10.00">+bTearOff</text>
<text text-anchor="middle" x="732.769" y="-730" font-family="Helvetica,sans-Serif" font-size="10.00">+bNetTemporary</text>
<text text-anchor="middle" x="732.769" y="-719" font-family="Helvetica,sans-Serif" font-size="10.00">+UnknownData02</text>
<text text-anchor="middle" x="732.769" y="-708" font-family="Helvetica,sans-Serif" font-size="10.00">+bCanBeInCluster</text>
<text text-anchor="middle" x="732.769" y="-697" font-family="Helvetica,sans-Serif" font-size="10.00">+bPendingNetUpdate</text>
<text text-anchor="middle" x="732.769" y="-686" font-family="Helvetica,sans-Serif" font-size="10.00">+UnknownData10</text>
<text text-anchor="middle" x="732.769" y="-675" font-family="Helvetica,sans-Serif" font-size="10.00">+UnknownData03</text>
<text text-anchor="middle" x="732.769" y="-664" font-family="Helvetica,sans-Serif" font-size="10.00">...</text>
</g>
<!-- Node24 -->
<g id="node4" class="node"><title>Node24</title>
<g id="a_node4"><a xlink:title=" ">
<polygon fill="none" stroke="#bfbfbf" points="322.269,-693 322.269,-750 357.269,-750 357.269,-693 322.269,-693"/>
<text text-anchor="middle" x="339.769" y="-738" font-family="Helvetica,sans-Serif" font-size="10.00">bool</text>
<polyline fill="none" stroke="#bfbfbf" points="322.269,-731 357.269,-731 "/>
<text text-anchor="middle" x="339.769" y="-719" font-family="Helvetica,sans-Serif" font-size="10.00"> </text>
<polyline fill="none" stroke="#bfbfbf" points="322.269,-712 357.269,-712 "/>
<text text-anchor="middle" x="339.769" y="-700" font-family="Helvetica,sans-Serif" font-size="10.00"> </text>
</a>
</g>
</g>
<!-- Node24&#45;&gt;Node1 -->
<g id="edge17" class="edge"><title>Node24&#45;&gt;Node1</title>
<path fill="none" stroke="#404040" d="M336.918,-692.811C328.211,-602.493 305.66,-318.23 358.769,-248 440.55,-139.856 604.137,-110.33 709.378,-102.957"/>
<polygon fill="none" stroke="#404040" points="709.62,-102.941 715.354,-98.5694 721.596,-102.181 715.861,-106.553 709.62,-102.941"/>
<text text-anchor="start" x="358.769" y="-428.5" font-family="Helvetica,sans-Serif" font-size="10.00"> +bEnableAdditionalDefault</text>
<text text-anchor="middle" x="430.269" y="-417.5" font-family="Helvetica,sans-Serif" font-size="10.00">Styles</text>
<text text-anchor="middle" x="430.269" y="-406.5" font-family="Helvetica,sans-Serif" font-size="10.00">+bReceiveInputWhenTransparent</text>
<text text-anchor="middle" x="430.269" y="-395.5" font-family="Helvetica,sans-Serif" font-size="10.00">+bGammaCorrectedMaterial</text>
<text text-anchor="middle" x="430.269" y="-384.5" font-family="Helvetica,sans-Serif" font-size="10.00">+AllowPerformanceWarnings</text>
<text text-anchor="middle" x="430.269" y="-373.5" font-family="Helvetica,sans-Serif" font-size="10.00">+bReceiveInput</text>
<text text-anchor="middle" x="430.269" y="-362.5" font-family="Helvetica,sans-Serif" font-size="10.00">+Transparent</text>
</g>
<!-- Node24&#45;&gt;Node2 -->
<g id="edge4" class="edge"><title>Node24&#45;&gt;Node2</title>
<path fill="none" stroke="#404040" d="M322.196,-709.834C301.139,-697.285 264.583,-676.234 231.769,-661 211.48,-651.581 198.934,-660.312 184.769,-643 175.362,-631.503 164.149,-561.183 155.829,-498.97"/>
<polygon fill="none" stroke="#404040" points="155.828,-498.957 151.077,-493.532 154.258,-487.061 159.009,-492.486 155.828,-498.957"/>
<text text-anchor="middle" x="255.269" y="-618.5" font-family="Helvetica,sans-Serif" font-size="10.00"> +bCreatedByConstructionScript</text>
<text text-anchor="middle" x="255.269" y="-607.5" font-family="Helvetica,sans-Serif" font-size="10.00">+bIsEnabled</text>
<text text-anchor="middle" x="255.269" y="-596.5" font-family="Helvetica,sans-Serif" font-size="10.00">+bIsVolatile</text>
<text text-anchor="middle" x="255.269" y="-585.5" font-family="Helvetica,sans-Serif" font-size="10.00">+bIsVariable</text>
</g>
<!-- Node24&#45;&gt;Node31 -->
<g id="edge15" class="edge"><title>Node24&#45;&gt;Node31</title>
<path fill="none" stroke="#404040" d="M343.057,-692.696C348.933,-656.761 364.849,-595.334 406.769,-566 461.852,-527.454 650.569,-581.654 708.769,-548 710.164,-547.194 711.542,-546.358 712.904,-545.496"/>
<polygon fill="none" stroke="#404040" points="713.217,-545.276 715.825,-538.553 723.034,-538.374 720.426,-545.098 713.217,-545.276"/>
<text text-anchor="middle" x="469.269" y="-602" font-family="Helvetica,sans-Serif" font-size="10.00"> +bDoOverlapNotifiesOnLoad</text>
</g>
<!-- Node30&#45;&gt;Node1 -->
<g id="edge5" class="edge"><title>Node30&#45;&gt;Node1</title>
<path fill="none" stroke="#404040" d="M934.977,-692.968C947.704,-679.338 961.095,-661.791 967.769,-643 981.972,-603.01 1002.4,-358.209 953.769,-248 941.688,-220.621 921.973,-195.587 900.849,-174.258"/>
<polygon fill="none" stroke="#404040" points="900.633,-174.047 893.546,-172.712 892.053,-165.657 899.14,-166.992 900.633,-174.047"/>
<text text-anchor="middle" x="1031.77" y="-434" font-family="Helvetica,sans-Serif" font-size="10.00"> +FinishLoad</text>
<text text-anchor="middle" x="1031.77" y="-423" font-family="Helvetica,sans-Serif" font-size="10.00">+UIGTScriptingReady</text>
<text text-anchor="middle" x="1031.77" y="-412" font-family="Helvetica,sans-Serif" font-size="10.00">+StartLoading</text>
<text text-anchor="middle" x="1031.77" y="-401" font-family="Helvetica,sans-Serif" font-size="10.00">+NavigateTo</text>
<text text-anchor="middle" x="1031.77" y="-390" font-family="Helvetica,sans-Serif" font-size="10.00">+BindingsReleased</text>
<text text-anchor="middle" x="1031.77" y="-379" font-family="Helvetica,sans-Serif" font-size="10.00">+JavaScriptEvent</text>
<text text-anchor="middle" x="1031.77" y="-368" font-family="Helvetica,sans-Serif" font-size="10.00">+FailLoad</text>
<text text-anchor="middle" x="1031.77" y="-357" font-family="Helvetica,sans-Serif" font-size="10.00">+ReadyForBindings</text>
</g>
<!-- Node30&#45;&gt;Node31 -->
<g id="edge10" class="edge"><title>Node30&#45;&gt;Node31</title>
<path fill="none" stroke="#404040" d="M874.765,-692.677C861.879,-678.986 847.933,-661.471 839.769,-643 828.315,-617.085 820.58,-588.233 815.406,-559.702"/>
<polygon fill="none" stroke="#404040" points="815.344,-559.335 810.399,-554.087 813.342,-547.504 818.287,-552.752 815.344,-559.335"/>
<text text-anchor="middle" x="903.769" y="-629.5" font-family="Helvetica,sans-Serif" font-size="10.00"> +OnActorEndOverlap</text>
<text text-anchor="middle" x="903.769" y="-618.5" font-family="Helvetica,sans-Serif" font-size="10.00">+OnPreNetOwnershipChange</text>
<text text-anchor="middle" x="903.769" y="-607.5" font-family="Helvetica,sans-Serif" font-size="10.00">+OnActorBeginOverlap</text>
<text text-anchor="middle" x="903.769" y="-596.5" font-family="Helvetica,sans-Serif" font-size="10.00">+OnDestroyed</text>
<text text-anchor="middle" x="903.769" y="-585.5" font-family="Helvetica,sans-Serif" font-size="10.00">+OnEndPlay</text>
<text text-anchor="middle" x="903.769" y="-574.5" font-family="Helvetica,sans-Serif" font-size="10.00">+OnActorHit</text>
</g>
<!-- Node16 -->
<g id="node6" class="node"><title>Node16</title>
<g id="a_node6"><a xlink:title=" ">
<polygon fill="none" stroke="#bfbfbf" points="517.269,-693 517.269,-750 552.269,-750 552.269,-693 517.269,-693"/>
<text text-anchor="middle" x="534.769" y="-738" font-family="Helvetica,sans-Serif" font-size="10.00">float</text>
<polyline fill="none" stroke="#bfbfbf" points="517.269,-731 552.269,-731 "/>
<text text-anchor="middle" x="534.769" y="-719" font-family="Helvetica,sans-Serif" font-size="10.00"> </text>
<polyline fill="none" stroke="#bfbfbf" points="517.269,-712 552.269,-712 "/>
<text text-anchor="middle" x="534.769" y="-700" font-family="Helvetica,sans-Serif" font-size="10.00"> </text>
</a>
</g>
</g>
<!-- Node16&#45;&gt;Node1 -->
<g id="edge7" class="edge"><title>Node16&#45;&gt;Node1</title>
<path fill="none" stroke="#404040" d="M530.644,-692.899C517.844,-603.484 482.31,-323.215 527.769,-248 567.13,-182.874 646.082,-145.27 709.984,-124.507"/>
<polygon fill="none" stroke="#404040" points="710.277,-124.415 714.805,-118.802 721.727,-120.823 717.2,-126.435 710.277,-124.415"/>
<text text-anchor="middle" x="620.769" y="-423" font-family="Helvetica,sans-Serif" font-size="10.00"> +PaintWarningThresholdMs</text>
<text text-anchor="middle" x="620.769" y="-412" font-family="Helvetica,sans-Serif" font-size="10.00">+ExecuteJSTimersThresholdMs</text>
<text text-anchor="start" x="527.769" y="-401" font-family="Helvetica,sans-Serif" font-size="10.00">+UpdateStylesAndLayoutThreshold</text>
<text text-anchor="middle" x="620.769" y="-390" font-family="Helvetica,sans-Serif" font-size="10.00">Ms</text>
<text text-anchor="middle" x="620.769" y="-379" font-family="Helvetica,sans-Serif" font-size="10.00">+ClickThroughAlphaThreshold</text>
<text text-anchor="middle" x="620.769" y="-368" font-family="Helvetica,sans-Serif" font-size="10.00">+RecordRenderingCommandsThresholdMs</text>
</g>
<!-- Node16&#45;&gt;Node31 -->
<g id="edge12" class="edge"><title>Node16&#45;&gt;Node31</title>
<path fill="none" stroke="#404040" d="M534.046,-692.935C533.64,-653.353 535.478,-583.271 552.769,-566 577.458,-541.338 679.054,-566.298 708.769,-548 710.334,-547.036 711.88,-546.037 713.405,-545.004"/>
<polygon fill="none" stroke="#404040" points="713.559,-544.89 715.986,-538.1 723.188,-537.728 720.761,-544.519 713.559,-544.89"/>
<text text-anchor="middle" x="608.769" y="-635" font-family="Helvetica,sans-Serif" font-size="10.00"> +InitialLifeSpan</text>
<text text-anchor="middle" x="608.769" y="-624" font-family="Helvetica,sans-Serif" font-size="10.00">+LastNetUpdateTime</text>
<text text-anchor="middle" x="608.769" y="-613" font-family="Helvetica,sans-Serif" font-size="10.00">+NetCullDistanceSquared</text>
<text text-anchor="middle" x="608.769" y="-602" font-family="Helvetica,sans-Serif" font-size="10.00">+NetUpdateFrequency</text>
<text text-anchor="middle" x="608.769" y="-591" font-family="Helvetica,sans-Serif" font-size="10.00">+NetUpdateTime</text>
<text text-anchor="middle" x="608.769" y="-580" font-family="Helvetica,sans-Serif" font-size="10.00">+CustomTimeDilation</text>
<text text-anchor="middle" x="608.769" y="-569" font-family="Helvetica,sans-Serif" font-size="10.00">+NetPriority</text>
</g>
<!-- Node31&#45;&gt;Node1 -->
<g id="edge9" class="edge"><title>Node31&#45;&gt;Node1</title>
<path fill="none" stroke="#404040" d="M806.769,-248.384C806.769,-236.563 806.769,-224.75 806.769,-213.246"/>
<polygon fill="none" stroke="#404040" points="806.769,-212.899 802.769,-206.899 806.769,-200.899 810.769,-206.899 806.769,-212.899"/>
<text text-anchor="middle" x="825.269" y="-222" font-family="Helvetica,sans-Serif" font-size="10.00"> +Owner</text>
</g>
<!-- Node31&#45;&gt;Node31 -->
<g id="edge13" class="edge"><title>Node31&#45;&gt;Node31</title>
<path fill="none" stroke="#404040" d="M890.389,-426.264C901.156,-421.363 908.269,-411.941 908.269,-398 908.269,-389.069 905.35,-381.993 900.421,-376.771"/>
<polygon fill="none" stroke="#404040" points="900.214,-376.626 893.005,-376.456 890.389,-369.736 897.598,-369.906 900.214,-376.626"/>
<text text-anchor="middle" x="926.769" y="-395.5" font-family="Helvetica,sans-Serif" font-size="10.00"> +Owner</text>
</g>
<!-- Node56 -->
<g id="node8" class="node"><title>Node56</title>
<g id="a_node8"><a xlink:title=" ">
<polygon fill="none" stroke="#bfbfbf" points="1053.27,-693 1053.27,-750 1082.27,-750 1082.27,-693 1053.27,-693"/>
<text text-anchor="middle" x="1067.77" y="-738" font-family="Helvetica,sans-Serif" font-size="10.00">int</text>
<polyline fill="none" stroke="#bfbfbf" points="1053.27,-731 1082.27,-731 "/>
<text text-anchor="middle" x="1067.77" y="-719" font-family="Helvetica,sans-Serif" font-size="10.00"> </text>
<polyline fill="none" stroke="#bfbfbf" points="1053.27,-712 1082.27,-712 "/>
<text text-anchor="middle" x="1067.77" y="-700" font-family="Helvetica,sans-Serif" font-size="10.00"> </text>
</a>
</g>
</g>
<!-- Node56&#45;&gt;Node1 -->
<g id="edge16" class="edge"><title>Node56&#45;&gt;Node1</title>
<path fill="none" stroke="#404040" d="M1076.72,-692.851C1080.99,-678.207 1085.63,-659.818 1087.77,-643 1102.06,-530.421 1134.6,-332.672 1082.77,-248 1043.64,-184.079 966.367,-146.484 903.512,-125.416"/>
<polygon fill="none" stroke="#404040" points="903.372,-125.371 896.431,-127.327 891.956,-121.672 898.897,-119.716 903.372,-125.371"/>
<text text-anchor="middle" x="1163.27" y="-406.5" font-family="Helvetica,sans-Serif" font-size="10.00"> +LayerWidthThreshold</text>
<text text-anchor="middle" x="1163.27" y="-395.5" font-family="Helvetica,sans-Serif" font-size="10.00">+LayerHeightThreshold</text>
<text text-anchor="middle" x="1163.27" y="-384.5" font-family="Helvetica,sans-Serif" font-size="10.00">+LayersCountThreshold</text>
</g>
<!-- Node56&#45;&gt;Node31 -->
<g id="edge14" class="edge"><title>Node56&#45;&gt;Node31</title>
<path fill="none" stroke="#404040" d="M1053.18,-693.051C1035.7,-661.179 1004.62,-607.661 971.769,-566 949.872,-538.229 923.863,-510.098 899.045,-485.042"/>
<polygon fill="none" stroke="#404040" points="898.806,-484.803 891.736,-483.385 890.325,-476.313 897.396,-477.731 898.806,-484.803"/>
<text text-anchor="middle" x="1053.27" y="-607.5" font-family="Helvetica,sans-Serif" font-size="10.00"> +InputPriority</text>
<text text-anchor="middle" x="1053.27" y="-596.5" font-family="Helvetica,sans-Serif" font-size="10.00">+NetTag</text>
</g>
<!-- Node63 -->
<g id="node9" class="node"><title>Node63</title>
<g id="a_node9"><a xlink:href="a25843.html" target="_top" xlink:title=" ">
<polygon fill="none" stroke="red" points="1232.77,-347.5 1232.77,-448.5 1306.77,-448.5 1306.77,-347.5 1232.77,-347.5"/>
<text text-anchor="middle" x="1269.77" y="-436.5" font-family="Helvetica,sans-Serif" font-size="10.00">SDK::FString</text>
<polyline fill="none" stroke="red" points="1232.77,-429.5 1306.77,-429.5 "/>
<text text-anchor="middle" x="1269.77" y="-417.5" font-family="Helvetica,sans-Serif" font-size="10.00"> </text>
<polyline fill="none" stroke="red" points="1232.77,-410.5 1306.77,-410.5 "/>
<text text-anchor="start" x="1240.77" y="-398.5" font-family="Helvetica,sans-Serif" font-size="10.00">+ FString()</text>
<text text-anchor="start" x="1240.77" y="-387.5" font-family="Helvetica,sans-Serif" font-size="10.00">+ FString()</text>
<text text-anchor="start" x="1240.77" y="-376.5" font-family="Helvetica,sans-Serif" font-size="10.00">+ IsValid()</text>
<text text-anchor="start" x="1240.77" y="-365.5" font-family="Helvetica,sans-Serif" font-size="10.00">+ c_str()</text>
<text text-anchor="start" x="1240.77" y="-354.5" font-family="Helvetica,sans-Serif" font-size="10.00">+ ToString()</text>
</a>
</g>
</g>
<!-- Node63&#45;&gt;Node1 -->
<g id="edge18" class="edge"><title>Node63&#45;&gt;Node1</title>
<path fill="none" stroke="#404040" d="M1263.95,-347.263C1257.76,-315.145 1245,-274.546 1218.77,-248 1134.29,-162.516 996.74,-126.734 904.061,-111.874"/>
<polygon fill="none" stroke="#404040" points="904.001,-111.865 897.462,-114.905 892.141,-110.038 898.68,-106.998 904.001,-111.865"/>
<text text-anchor="middle" x="1207.77" y="-222" font-family="Helvetica,sans-Serif" font-size="10.00"> +URL</text>
</g>
<!-- Node193 -->
<g id="node10" class="node"><title>Node193</title>
<g id="a_node10"><a xlink:href="a25847.html" target="_top" xlink:title=" ">
<polygon fill="none" stroke="black" points="1324.77,-336.5 1324.77,-459.5 1478.77,-459.5 1478.77,-336.5 1324.77,-336.5"/>
<text text-anchor="start" x="1332.77" y="-447.5" font-family="Helvetica,sans-Serif" font-size="10.00">SDK::TEnumAsByte&lt; ETexture</text>
<text text-anchor="middle" x="1401.77" y="-436.5" font-family="Helvetica,sans-Serif" font-size="10.00">Filter &gt;</text>
<polyline fill="none" stroke="black" points="1324.77,-429.5 1478.77,-429.5 "/>
<text text-anchor="middle" x="1401.77" y="-417.5" font-family="Helvetica,sans-Serif" font-size="10.00"> </text>
<polyline fill="none" stroke="black" points="1324.77,-410.5 1478.77,-410.5 "/>
<text text-anchor="start" x="1332.77" y="-398.5" font-family="Helvetica,sans-Serif" font-size="10.00">+ TEnumAsByte()</text>
<text text-anchor="start" x="1332.77" y="-387.5" font-family="Helvetica,sans-Serif" font-size="10.00">+ TEnumAsByte()</text>
<text text-anchor="start" x="1332.77" y="-376.5" font-family="Helvetica,sans-Serif" font-size="10.00">+ TEnumAsByte()</text>
<text text-anchor="start" x="1332.77" y="-365.5" font-family="Helvetica,sans-Serif" font-size="10.00">+ TEnumAsByte()</text>
<text text-anchor="start" x="1332.77" y="-354.5" font-family="Helvetica,sans-Serif" font-size="10.00">+ operator ETextureFilter()</text>
<text text-anchor="start" x="1332.77" y="-343.5" font-family="Helvetica,sans-Serif" font-size="10.00">+ GetValue()</text>
</a>
</g>
</g>
<!-- Node193&#45;&gt;Node1 -->
<g id="edge19" class="edge"><title>Node193&#45;&gt;Node1</title>
<path fill="none" stroke="#404040" d="M1379.22,-336.459C1365.14,-306.098 1344.23,-270.993 1315.77,-248 1195.98,-151.224 1015.09,-118.371 904.302,-107.222"/>
<polygon fill="none" stroke="#404040" points="904.091,-107.202 897.737,-110.611 892.146,-106.057 898.5,-102.648 904.091,-107.202"/>
<text text-anchor="middle" x="1297.27" y="-222" font-family="Helvetica,sans-Serif" font-size="10.00"> +Filter</text>
</g>
</g>
</svg>
        <g id="navigator" transform="translate(0 0)" fill="#404254">
                <rect fill="#f2f5e9" fill-opacity="0.5" stroke="#606060" stroke-width=".5" x="0" y="0" width="60" height="60"/>
                <use id="zoomplus" xlink:href="#zoomPlus" x="17" y="9" onmousedown="handleZoom(evt,'in')"/>
                <use id="zoomminus" xlink:href="#zoomMin" x="42" y="9" onmousedown="handleZoom(evt,'out')"/>
                <use id="reset" xlink:href="#resetDef" x="30" y="36" onmousedown="handleReset()"/>
                <g id="arrowUp" xlink:href="#dirArrow" transform="translate(30 24)" onmousedown="handlePan(0,-1)">
                  <use xlink:href="#rim" fill="#404040">
                        <set attributeName="fill" to="#808080" begin="arrowUp.mouseover" end="arrowUp.mouseout"/>
                  </use>
                  <path fill="none" stroke="white" stroke-width="1.5" d="M0,-3.0v7 M-2.5,-0.5L0,-3.0L2.5,-0.5"/>
                </g>
                <g id="arrowRight" xlink:href="#dirArrow" transform="rotate(90) translate(36 -43)" onmousedown="handlePan(1,0)">
                  <use xlink:href="#rim" fill="#404040">
                        <set attributeName="fill" to="#808080" begin="arrowRight.mouseover" end="arrowRight.mouseout"/>
                  </use>
                  <path fill="none" stroke="white" stroke-width="1.5" d="M0,-3.0v7 M-2.5,-0.5L0,-3.0L2.5,-0.5"/>
                </g>
                <g id="arrowDown" xlink:href="#dirArrow" transform="rotate(180) translate(-30 -48)" onmousedown="handlePan(0,1)">
                  <use xlink:href="#rim" fill="#404040">
                        <set attributeName="fill" to="#808080" begin="arrowDown.mouseover" end="arrowDown.mouseout"/>
                  </use>
                  <path fill="none" stroke="white" stroke-width="1.5" d="M0,-3.0v7 M-2.5,-0.5L0,-3.0L2.5,-0.5"/>
                </g>
                <g id="arrowLeft" xlink:href="#dirArrow" transform="rotate(270) translate(-36 17)" onmousedown="handlePan(-1,0)">
                  <use xlink:href="#rim" fill="#404040">
                        <set attributeName="fill" to="#808080" begin="arrowLeft.mouseover" end="arrowLeft.mouseout"/>
                  </use>
                  <path fill="none" stroke="white" stroke-width="1.5" d="M0,-3.0v7 M-2.5,-0.5L0,-3.0L2.5,-0.5"/>
                </g>
        </g>
        <svg viewBox="0 0 15 15" width="100%" height="30px" preserveAspectRatio="xMaxYMin meet">
         <g id="arrow_out" transform="scale(0.3 0.3)">
          <a xlink:href="a25997_org.svg" target="_base">
           <rect id="button" ry="5" rx="5" y="6" x="6" height="38" width="38"
                fill="#f2f5e9" fill-opacity="0.5" stroke="#606060" stroke-width="1.0"/>
           <path id="arrow"
             d="M 11.500037,31.436501 C 11.940474,20.09759 22.043105,11.32322 32.158766,21.979434 L 37.068811,17.246167 C 37.068811,17.246167 37.088388,32 37.088388,32 L 22.160133,31.978069 C 22.160133,31.978069 26.997745,27.140456 26.997745,27.140456 C 18.528582,18.264221 13.291696,25.230495 11.500037,31.436501 z"
             style="fill:#404040;"/>
          </a>
         </g>
        </svg>
</svg>
