<?xml version="1.0" encoding="UTF-8" standalone="no"?>
<!DOCTYPE svg PUBLIC "-//W3C//DTD SVG 1.1//EN"
 "http://www.w3.org/Graphics/SVG/1.1/DTD/svg11.dtd">
<!-- Generated by graphviz version 2.38.0 (20140413.2041)
 -->
<!-- Title: SDK::FVector4 Pages: 1 -->
<svg width="91pt" height="204pt"
 viewBox="0.00 0.00 91.00 204.00" xmlns="http://www.w3.org/2000/svg" xmlns:xlink="http://www.w3.org/1999/xlink">
<g id="graph0" class="graph" transform="scale(1 1) rotate(0) translate(4 200)">
<title>SDK::FVector4</title>
<!-- Node1 -->
<g id="node1" class="node"><title>Node1</title>
<g id="a_node1"><a xlink:title=" ">
<polygon fill="#bfbfbf" stroke="black" points="0,-0.5 0,-57.5 83,-57.5 83,-0.5 0,-0.5"/>
<text text-anchor="middle" x="41.5" y="-45.5" font-family="Helvetica,sans-Serif" font-size="10.00">SDK::FVector4</text>
<polyline fill="none" stroke="black" points="0,-38.5 83,-38.5 "/>
<text text-anchor="middle" x="41.5" y="-26.5" font-family="Helvetica,sans-Serif" font-size="10.00"> </text>
<polyline fill="none" stroke="black" points="0,-19.5 83,-19.5 "/>
<text text-anchor="middle" x="41.5" y="-7.5" font-family="Helvetica,sans-Serif" font-size="10.00"> </text>
</a>
</g>
</g>
<!-- Node2 -->
<g id="node2" class="node"><title>Node2</title>
<g id="a_node2"><a xlink:title=" ">
<polygon fill="none" stroke="#bfbfbf" points="24,-138.5 24,-195.5 59,-195.5 59,-138.5 24,-138.5"/>
<text text-anchor="middle" x="41.5" y="-183.5" font-family="Helvetica,sans-Serif" font-size="10.00">float</text>
<polyline fill="none" stroke="#bfbfbf" points="24,-176.5 59,-176.5 "/>
<text text-anchor="middle" x="41.5" y="-164.5" font-family="Helvetica,sans-Serif" font-size="10.00"> </text>
<polyline fill="none" stroke="#bfbfbf" points="24,-157.5 59,-157.5 "/>
<text text-anchor="middle" x="41.5" y="-145.5" font-family="Helvetica,sans-Serif" font-size="10.00"> </text>
</a>
</g>
</g>
<!-- Node2&#45;&gt;Node1 -->
<g id="edge1" class="edge"><title>Node2&#45;&gt;Node1</title>
<path fill="none" stroke="#404040" d="M41.5,-138.478C41.5,-118.792 41.5,-91.9899 41.5,-69.9526"/>
<polygon fill="none" stroke="#404040" points="41.5001,-69.9475 37.5,-63.9475 41.5,-57.9475 45.5,-63.9475 41.5001,-69.9475"/>
<text text-anchor="middle" x="51" y="-112" font-family="Helvetica,sans-Serif" font-size="10.00"> +W</text>
<text text-anchor="middle" x="51" y="-101" font-family="Helvetica,sans-Serif" font-size="10.00">+X</text>
<text text-anchor="middle" x="51" y="-90" font-family="Helvetica,sans-Serif" font-size="10.00">+Y</text>
<text text-anchor="middle" x="51" y="-79" font-family="Helvetica,sans-Serif" font-size="10.00">+Z</text>
</g>
</g>
</svg>
