<?xml version="1.0" encoding="UTF-8" standalone="no"?>
<!DOCTYPE svg PUBLIC "-//W3C//DTD SVG 1.1//EN"
 "http://www.w3.org/Graphics/SVG/1.1/DTD/svg11.dtd">
<!-- Generated by graphviz version 2.38.0 (20140413.2041)
 -->
<!-- Title: SDK::UAnimNotifyState Pages: 1 -->
<svg width="179pt" height="304pt"
 viewBox="0.00 0.00 178.50 304.00" xmlns="http://www.w3.org/2000/svg" xmlns:xlink="http://www.w3.org/1999/xlink">
<g id="graph0" class="graph" transform="scale(1 1) rotate(0) translate(4 300)">
<title>SDK::UAnimNotifyState</title>
<!-- Node1 -->
<g id="node1" class="node"><title>Node1</title>
<g id="a_node1"><a xlink:title=" ">
<polygon fill="#bfbfbf" stroke="black" points="0,-0.5 0,-101.5 125,-101.5 125,-0.5 0,-0.5"/>
<text text-anchor="middle" x="62.5" y="-89.5" font-family="Helvetica,sans-Serif" font-size="10.00">SDK::UAnimNotifyState</text>
<polyline fill="none" stroke="black" points="0,-82.5 125,-82.5 "/>
<text text-anchor="middle" x="62.5" y="-70.5" font-family="Helvetica,sans-Serif" font-size="10.00"> </text>
<polyline fill="none" stroke="black" points="0,-63.5 125,-63.5 "/>
<text text-anchor="start" x="8" y="-51.5" font-family="Helvetica,sans-Serif" font-size="10.00">+ Received_NotifyTick()</text>
<text text-anchor="start" x="8" y="-40.5" font-family="Helvetica,sans-Serif" font-size="10.00">+ Received_NotifyEnd()</text>
<text text-anchor="start" x="8" y="-29.5" font-family="Helvetica,sans-Serif" font-size="10.00">+ Received_NotifyBegin()</text>
<text text-anchor="start" x="8" y="-18.5" font-family="Helvetica,sans-Serif" font-size="10.00">+ GetNotifyName()</text>
<text text-anchor="start" x="8" y="-7.5" font-family="Helvetica,sans-Serif" font-size="10.00">+ StaticClass()</text>
</a>
</g>
</g>
<!-- Node2 -->
<g id="node2" class="node"><title>Node2</title>
<g id="a_node2"><a xlink:href="a25883.html" target="_top" xlink:title=" ">
<polygon fill="none" stroke="red" points="6.5,-139.5 6.5,-295.5 118.5,-295.5 118.5,-139.5 6.5,-139.5"/>
<text text-anchor="middle" x="62.5" y="-283.5" font-family="Helvetica,sans-Serif" font-size="10.00">SDK::UObject</text>
<polyline fill="none" stroke="red" points="6.5,-276.5 118.5,-276.5 "/>
<text text-anchor="middle" x="62.5" y="-264.5" font-family="Helvetica,sans-Serif" font-size="10.00"> </text>
<polyline fill="none" stroke="red" points="6.5,-257.5 118.5,-257.5 "/>
<text text-anchor="start" x="14.5" y="-245.5" font-family="Helvetica,sans-Serif" font-size="10.00">+ GetName()</text>
<text text-anchor="start" x="14.5" y="-234.5" font-family="Helvetica,sans-Serif" font-size="10.00">+ GetFullName()</text>
<text text-anchor="start" x="14.5" y="-223.5" font-family="Helvetica,sans-Serif" font-size="10.00">+ IsA()</text>
<text text-anchor="start" x="14.5" y="-212.5" font-family="Helvetica,sans-Serif" font-size="10.00">+ ProcessEvent()</text>
<text text-anchor="start" x="14.5" y="-201.5" font-family="Helvetica,sans-Serif" font-size="10.00">+ ExecuteUbergraph()</text>
<text text-anchor="start" x="14.5" y="-190.5" font-family="Helvetica,sans-Serif" font-size="10.00">+ StaticClass()</text>
<text text-anchor="start" x="14.5" y="-179.5" font-family="Helvetica,sans-Serif" font-size="10.00">+ GetGlobalObjects()</text>
<text text-anchor="start" x="14.5" y="-168.5" font-family="Helvetica,sans-Serif" font-size="10.00">+ FindObject()</text>
<text text-anchor="start" x="14.5" y="-157.5" font-family="Helvetica,sans-Serif" font-size="10.00">+ FindClass()</text>
<text text-anchor="start" x="14.5" y="-146.5" font-family="Helvetica,sans-Serif" font-size="10.00">+ GetObjectCasted()</text>
</a>
</g>
</g>
<!-- Node2&#45;&gt;Node1 -->
<g id="edge1" class="edge"><title>Node2&#45;&gt;Node1</title>
<path fill="none" stroke="midnightblue" d="M62.5,-128.964C62.5,-119.664 62.5,-110.456 62.5,-101.816"/>
<polygon fill="none" stroke="midnightblue" points="59.0001,-129.067 62.5,-139.067 66.0001,-129.067 59.0001,-129.067"/>
</g>
<!-- Node2&#45;&gt;Node2 -->
<g id="edge2" class="edge"><title>Node2&#45;&gt;Node2</title>
<path fill="none" stroke="#404040" d="M118.646,-234.576C129.122,-232.473 136.5,-226.781 136.5,-217.5 136.5,-212.134 134.034,-207.968 129.929,-205.002"/>
<polygon fill="none" stroke="#404040" points="129.766,-204.935 122.702,-206.386 118.646,-200.424 125.71,-198.973 129.766,-204.935"/>
<text text-anchor="middle" x="153.5" y="-215" font-family="Helvetica,sans-Serif" font-size="10.00"> +Outer</text>
</g>
</g>
</svg>
