<?xml version="1.0" encoding="UTF-8" standalone="no"?>
<!DOCTYPE svg PUBLIC "-//W3C//DTD SVG 1.1//EN"
 "http://www.w3.org/Graphics/SVG/1.1/DTD/svg11.dtd">
<!-- Generated by graphviz version 2.38.0 (20140413.2041)
 -->
<!-- Title: SDK::FInt32Range Pages: 1 -->
<svg width="134pt" height="182pt"
 viewBox="0.00 0.00 133.50 182.00" xmlns="http://www.w3.org/2000/svg" xmlns:xlink="http://www.w3.org/1999/xlink">
<g id="graph0" class="graph" transform="scale(1 1) rotate(0) translate(4 178)">
<title>SDK::FInt32Range</title>
<!-- Node1 -->
<g id="node1" class="node"><title>Node1</title>
<g id="a_node1"><a xlink:title=" ">
<polygon fill="#bfbfbf" stroke="black" points="13.5,-0.5 13.5,-57.5 111.5,-57.5 111.5,-0.5 13.5,-0.5"/>
<text text-anchor="middle" x="62.5" y="-45.5" font-family="Helvetica,sans-Serif" font-size="10.00">SDK::FInt32Range</text>
<polyline fill="none" stroke="black" points="13.5,-38.5 111.5,-38.5 "/>
<text text-anchor="middle" x="62.5" y="-26.5" font-family="Helvetica,sans-Serif" font-size="10.00"> </text>
<polyline fill="none" stroke="black" points="13.5,-19.5 111.5,-19.5 "/>
<text text-anchor="middle" x="62.5" y="-7.5" font-family="Helvetica,sans-Serif" font-size="10.00"> </text>
</a>
</g>
</g>
<!-- Node2 -->
<g id="node2" class="node"><title>Node2</title>
<g id="a_node2"><a xlink:href="a26439.html" target="_top" xlink:title=" ">
<polygon fill="none" stroke="red" points="0,-116.5 0,-173.5 125,-173.5 125,-116.5 0,-116.5"/>
<text text-anchor="middle" x="62.5" y="-161.5" font-family="Helvetica,sans-Serif" font-size="10.00">SDK::FInt32RangeBound</text>
<polyline fill="none" stroke="red" points="0,-154.5 125,-154.5 "/>
<text text-anchor="middle" x="62.5" y="-142.5" font-family="Helvetica,sans-Serif" font-size="10.00"> </text>
<polyline fill="none" stroke="red" points="0,-135.5 125,-135.5 "/>
<text text-anchor="middle" x="62.5" y="-123.5" font-family="Helvetica,sans-Serif" font-size="10.00"> </text>
</a>
</g>
</g>
<!-- Node2&#45;&gt;Node1 -->
<g id="edge1" class="edge"><title>Node2&#45;&gt;Node1</title>
<path fill="none" stroke="#404040" d="M62.5,-116.404C62.5,-102.504 62.5,-85.3915 62.5,-70.073"/>
<polygon fill="none" stroke="#404040" points="62.5001,-69.7372 58.5,-63.7372 62.5,-57.7372 66.5,-63.7372 62.5001,-69.7372"/>
<text text-anchor="middle" x="94" y="-90" font-family="Helvetica,sans-Serif" font-size="10.00"> +LowerBound</text>
<text text-anchor="middle" x="94" y="-79" font-family="Helvetica,sans-Serif" font-size="10.00">+UpperBound</text>
</g>
</g>
</svg>
