<?xml version="1.0" encoding="UTF-8" standalone="no"?>
<!DOCTYPE svg PUBLIC "-//W3C//DTD SVG 1.1//EN"
 "http://www.w3.org/Graphics/SVG/1.1/DTD/svg11.dtd">
<!-- Generated by graphviz version 2.38.0 (20140413.2041)
 -->
<!-- Title: SDK::AInfo Pages: 1 -->
<svg width="1646pt" height="727pt"
 viewBox="0.00 0.00 1646.00 727.00" xmlns="http://www.w3.org/2000/svg" xmlns:xlink="http://www.w3.org/1999/xlink">
<g id="graph0" class="graph" transform="scale(1 1) rotate(0) translate(4 723)">
<title>SDK::AInfo</title>
<!-- Node1 -->
<g id="node1" class="node"><title>Node1</title>
<g id="a_node1"><a xlink:title=" ">
<polygon fill="#bfbfbf" stroke="black" points="820,-325.5 820,-382.5 902,-382.5 902,-325.5 820,-325.5"/>
<text text-anchor="middle" x="861" y="-370.5" font-family="Helvetica,sans-Serif" font-size="10.00">SDK::AInfo</text>
<polyline fill="none" stroke="black" points="820,-363.5 902,-363.5 "/>
<text text-anchor="middle" x="861" y="-351.5" font-family="Helvetica,sans-Serif" font-size="10.00"> </text>
<polyline fill="none" stroke="black" points="820,-344.5 902,-344.5 "/>
<text text-anchor="start" x="828" y="-332.5" font-family="Helvetica,sans-Serif" font-size="10.00">+ StaticClass()</text>
</a>
</g>
</g>
<!-- Node4 -->
<g id="node3" class="node"><title>Node4</title>
<g id="a_node3"><a xlink:href="a27079.html" target="_top" xlink:title=" ">
<polygon fill="none" stroke="black" points="0,-116 0,-173 146,-173 146,-116 0,-116"/>
<text text-anchor="middle" x="73" y="-161" font-family="Helvetica,sans-Serif" font-size="10.00">SDK::AAtmosphericFog</text>
<polyline fill="none" stroke="black" points="0,-154 146,-154 "/>
<text text-anchor="start" x="8" y="-142" font-family="Helvetica,sans-Serif" font-size="10.00">+ AtmosphericFogComponent</text>
<polyline fill="none" stroke="black" points="0,-135 146,-135 "/>
<text text-anchor="start" x="8" y="-123" font-family="Helvetica,sans-Serif" font-size="10.00">+ StaticClass()</text>
</a>
</g>
</g>
<!-- Node1&#45;&gt;Node4 -->
<g id="edge2" class="edge"><title>Node1&#45;&gt;Node4</title>
<path fill="none" stroke="midnightblue" d="M809.68,-351.071C656.501,-344.939 209.786,-324.195 155,-289 113.477,-262.325 90.7343,-206.716 80.2801,-173.095"/>
<polygon fill="none" stroke="midnightblue" points="809.635,-354.572 819.765,-351.471 809.912,-347.577 809.635,-354.572"/>
</g>
<!-- Node5 -->
<g id="node4" class="node"><title>Node5</title>
<g id="a_node4"><a xlink:href="a27083.html" target="_top" xlink:title=" ">
<polygon fill="none" stroke="black" points="164.5,-99.5 164.5,-189.5 309.5,-189.5 309.5,-99.5 164.5,-99.5"/>
<text text-anchor="middle" x="237" y="-177.5" font-family="Helvetica,sans-Serif" font-size="10.00">SDK::AExponentialHeightFog</text>
<polyline fill="none" stroke="black" points="164.5,-170.5 309.5,-170.5 "/>
<text text-anchor="start" x="172.5" y="-158.5" font-family="Helvetica,sans-Serif" font-size="10.00">+ Component</text>
<text text-anchor="start" x="172.5" y="-147.5" font-family="Helvetica,sans-Serif" font-size="10.00">+ bEnabled</text>
<text text-anchor="start" x="172.5" y="-136.5" font-family="Helvetica,sans-Serif" font-size="10.00">+ UnknownData00</text>
<polyline fill="none" stroke="black" points="164.5,-129.5 309.5,-129.5 "/>
<text text-anchor="start" x="172.5" y="-117.5" font-family="Helvetica,sans-Serif" font-size="10.00">+ OnRep_bEnabled()</text>
<text text-anchor="start" x="172.5" y="-106.5" font-family="Helvetica,sans-Serif" font-size="10.00">+ StaticClass()</text>
</a>
</g>
</g>
<!-- Node1&#45;&gt;Node5 -->
<g id="edge3" class="edge"><title>Node1&#45;&gt;Node5</title>
<path fill="none" stroke="midnightblue" d="M809.63,-352.751C690.186,-351.267 397.877,-342.149 318,-289 283.346,-265.941 261.918,-222.739 249.876,-189.739"/>
<polygon fill="none" stroke="midnightblue" points="809.923,-356.254 819.961,-352.866 810.001,-349.255 809.923,-356.254"/>
</g>
<!-- Node6 -->
<g id="node5" class="node"><title>Node6</title>
<g id="a_node5"><a xlink:href="a26627.html" target="_top" xlink:title=" ">
<polygon fill="none" stroke="red" points="327.5,-0.5 327.5,-288.5 502.5,-288.5 502.5,-0.5 327.5,-0.5"/>
<text text-anchor="middle" x="415" y="-276.5" font-family="Helvetica,sans-Serif" font-size="10.00">SDK::AGameMode</text>
<polyline fill="none" stroke="red" points="327.5,-269.5 502.5,-269.5 "/>
<text text-anchor="start" x="335.5" y="-257.5" font-family="Helvetica,sans-Serif" font-size="10.00">+ UnknownData00</text>
<text text-anchor="start" x="335.5" y="-246.5" font-family="Helvetica,sans-Serif" font-size="10.00">+ bDisableAsyncOcclusionChecking</text>
<text text-anchor="start" x="335.5" y="-235.5" font-family="Helvetica,sans-Serif" font-size="10.00">+ bUseSeamlessTravel</text>
<text text-anchor="start" x="335.5" y="-224.5" font-family="Helvetica,sans-Serif" font-size="10.00">+ bPauseable</text>
<text text-anchor="start" x="335.5" y="-213.5" font-family="Helvetica,sans-Serif" font-size="10.00">+ bStartPlayersAsSpectators</text>
<text text-anchor="start" x="335.5" y="-202.5" font-family="Helvetica,sans-Serif" font-size="10.00">+ bDelayedStart</text>
<text text-anchor="start" x="335.5" y="-191.5" font-family="Helvetica,sans-Serif" font-size="10.00">+ UnknownData01</text>
<text text-anchor="start" x="335.5" y="-180.5" font-family="Helvetica,sans-Serif" font-size="10.00">+ OptionsString</text>
<text text-anchor="start" x="335.5" y="-169.5" font-family="Helvetica,sans-Serif" font-size="10.00">+ DefaultPawnClass</text>
<text text-anchor="start" x="335.5" y="-158.5" font-family="Helvetica,sans-Serif" font-size="10.00">+ HUDClass</text>
<text text-anchor="start" x="335.5" y="-147.5" font-family="Helvetica,sans-Serif" font-size="10.00">and 21 more...</text>
<polyline fill="none" stroke="red" points="327.5,-140.5 502.5,-140.5 "/>
<text text-anchor="start" x="335.5" y="-128.5" font-family="Helvetica,sans-Serif" font-size="10.00">+ StartPlay()</text>
<text text-anchor="start" x="335.5" y="-117.5" font-family="Helvetica,sans-Serif" font-size="10.00">+ StartMatch()</text>
<text text-anchor="start" x="335.5" y="-106.5" font-family="Helvetica,sans-Serif" font-size="10.00">+ SpawnDefaultPawnFor()</text>
<text text-anchor="start" x="335.5" y="-95.5" font-family="Helvetica,sans-Serif" font-size="10.00">+ ShouldReset()</text>
<text text-anchor="start" x="335.5" y="-84.5" font-family="Helvetica,sans-Serif" font-size="10.00">+ SetBandwidthLimit()</text>
<text text-anchor="start" x="335.5" y="-73.5" font-family="Helvetica,sans-Serif" font-size="10.00">+ ReturnToMainMenuHost()</text>
<text text-anchor="start" x="335.5" y="-62.5" font-family="Helvetica,sans-Serif" font-size="10.00">+ RestartGame()</text>
<text text-anchor="start" x="335.5" y="-51.5" font-family="Helvetica,sans-Serif" font-size="10.00">+ ResetLevel()</text>
<text text-anchor="start" x="335.5" y="-40.5" font-family="Helvetica,sans-Serif" font-size="10.00">+ ReadyToStartMatch()</text>
<text text-anchor="start" x="335.5" y="-29.5" font-family="Helvetica,sans-Serif" font-size="10.00">+ ReadyToEndMatch()</text>
<text text-anchor="start" x="335.5" y="-18.5" font-family="Helvetica,sans-Serif" font-size="10.00">and 22 more...</text>
<text text-anchor="start" x="335.5" y="-7.5" font-family="Helvetica,sans-Serif" font-size="10.00">+ StaticClass()</text>
</a>
</g>
</g>
<!-- Node1&#45;&gt;Node6 -->
<g id="edge4" class="edge"><title>Node1&#45;&gt;Node6</title>
<path fill="none" stroke="midnightblue" d="M809.701,-348.483C724.97,-340.226 560.324,-320.583 512,-289 508.854,-286.944 505.783,-284.746 502.789,-282.426"/>
<polygon fill="none" stroke="midnightblue" points="809.584,-351.987 819.872,-349.457 810.251,-345.019 809.584,-351.987"/>
</g>
<!-- Node16 -->
<g id="node6" class="node"><title>Node16</title>
<g id="a_node6"><a xlink:href="a27095.html" target="_top" xlink:title=" ">
<polygon fill="none" stroke="black" points="521,-61 521,-228 671,-228 671,-61 521,-61"/>
<text text-anchor="middle" x="596" y="-216" font-family="Helvetica,sans-Serif" font-size="10.00">SDK::AGameNetworkManager</text>
<polyline fill="none" stroke="black" points="521,-209 671,-209 "/>
<text text-anchor="start" x="529" y="-197" font-family="Helvetica,sans-Serif" font-size="10.00">+ AdjustedNetSpeed</text>
<text text-anchor="start" x="529" y="-186" font-family="Helvetica,sans-Serif" font-size="10.00">+ LastNetSpeedUpdateTime</text>
<text text-anchor="start" x="529" y="-175" font-family="Helvetica,sans-Serif" font-size="10.00">+ TotalNetBandwidth</text>
<text text-anchor="start" x="529" y="-164" font-family="Helvetica,sans-Serif" font-size="10.00">+ MinDynamicBandwidth</text>
<text text-anchor="start" x="529" y="-153" font-family="Helvetica,sans-Serif" font-size="10.00">+ MaxDynamicBandwidth</text>
<text text-anchor="start" x="529" y="-142" font-family="Helvetica,sans-Serif" font-size="10.00">+ bIsStandbyCheckingEnabled</text>
<text text-anchor="start" x="529" y="-131" font-family="Helvetica,sans-Serif" font-size="10.00">+ bHasStandbyCheatTriggered</text>
<text text-anchor="start" x="529" y="-120" font-family="Helvetica,sans-Serif" font-size="10.00">+ UnknownData00</text>
<text text-anchor="start" x="529" y="-109" font-family="Helvetica,sans-Serif" font-size="10.00">+ StandbyRxCheatTime</text>
<text text-anchor="start" x="529" y="-98" font-family="Helvetica,sans-Serif" font-size="10.00">+ StandbyTxCheatTime</text>
<text text-anchor="start" x="529" y="-87" font-family="Helvetica,sans-Serif" font-size="10.00">and 24 more...</text>
<polyline fill="none" stroke="black" points="521,-80 671,-80 "/>
<text text-anchor="start" x="529" y="-68" font-family="Helvetica,sans-Serif" font-size="10.00">+ StaticClass()</text>
</a>
</g>
</g>
<!-- Node1&#45;&gt;Node16 -->
<g id="edge5" class="edge"><title>Node1&#45;&gt;Node16</title>
<path fill="none" stroke="midnightblue" d="M809.839,-344.787C770.741,-336.34 717.385,-319.889 680,-289 660.194,-272.635 644.006,-250.305 631.316,-228.135"/>
<polygon fill="none" stroke="midnightblue" points="809.457,-348.281 819.957,-346.864 810.865,-341.424 809.457,-348.281"/>
</g>
<!-- Node17 -->
<g id="node7" class="node"><title>Node17</title>
<g id="a_node7"><a xlink:href="a27099.html" target="_top" xlink:title=" ">
<polygon fill="none" stroke="black" points="689,-83 689,-206 851,-206 851,-83 689,-83"/>
<text text-anchor="middle" x="770" y="-194" font-family="Helvetica,sans-Serif" font-size="10.00">SDK::AGameSession</text>
<polyline fill="none" stroke="black" points="689,-187 851,-187 "/>
<text text-anchor="start" x="697" y="-175" font-family="Helvetica,sans-Serif" font-size="10.00">+ MaxSpectators</text>
<text text-anchor="start" x="697" y="-164" font-family="Helvetica,sans-Serif" font-size="10.00">+ MaxPlayers</text>
<text text-anchor="start" x="697" y="-153" font-family="Helvetica,sans-Serif" font-size="10.00">+ MaxSplitscreensPerConnection</text>
<text text-anchor="start" x="697" y="-142" font-family="Helvetica,sans-Serif" font-size="10.00">+ bRequiresPushToTalk</text>
<text text-anchor="start" x="697" y="-131" font-family="Helvetica,sans-Serif" font-size="10.00">+ UnknownData00</text>
<text text-anchor="start" x="697" y="-120" font-family="Helvetica,sans-Serif" font-size="10.00">+ SessionName</text>
<text text-anchor="start" x="697" y="-109" font-family="Helvetica,sans-Serif" font-size="10.00">+ UnknownData01</text>
<polyline fill="none" stroke="black" points="689,-102 851,-102 "/>
<text text-anchor="start" x="697" y="-90" font-family="Helvetica,sans-Serif" font-size="10.00">+ StaticClass()</text>
</a>
</g>
</g>
<!-- Node1&#45;&gt;Node17 -->
<g id="edge6" class="edge"><title>Node1&#45;&gt;Node17</title>
<path fill="none" stroke="midnightblue" d="M844.806,-316.074C831.478,-285.684 812.311,-241.979 796.716,-206.418"/>
<polygon fill="none" stroke="midnightblue" points="841.694,-317.693 848.916,-325.446 848.105,-314.882 841.694,-317.693"/>
</g>
<!-- Node18 -->
<g id="node8" class="node"><title>Node18</title>
<g id="a_node8"><a xlink:href="a26635.html" target="_top" xlink:title=" ">
<polygon fill="none" stroke="red" points="869,-11.5 869,-277.5 1037,-277.5 1037,-11.5 869,-11.5"/>
<text text-anchor="middle" x="953" y="-265.5" font-family="Helvetica,sans-Serif" font-size="10.00">SDK::AGameState</text>
<polyline fill="none" stroke="red" points="869,-258.5 1037,-258.5 "/>
<text text-anchor="start" x="877" y="-246.5" font-family="Helvetica,sans-Serif" font-size="10.00">+ GameModeClass</text>
<text text-anchor="start" x="877" y="-235.5" font-family="Helvetica,sans-Serif" font-size="10.00">+ AuthorityGameMode</text>
<text text-anchor="start" x="877" y="-224.5" font-family="Helvetica,sans-Serif" font-size="10.00">+ SpectatorClass</text>
<text text-anchor="start" x="877" y="-213.5" font-family="Helvetica,sans-Serif" font-size="10.00">+ MatchState</text>
<text text-anchor="start" x="877" y="-202.5" font-family="Helvetica,sans-Serif" font-size="10.00">+ PreviousMatchState</text>
<text text-anchor="start" x="877" y="-191.5" font-family="Helvetica,sans-Serif" font-size="10.00">+ ElapsedTime</text>
<text text-anchor="start" x="877" y="-180.5" font-family="Helvetica,sans-Serif" font-size="10.00">+ UnknownData00</text>
<text text-anchor="start" x="877" y="-169.5" font-family="Helvetica,sans-Serif" font-size="10.00">+ PlayerArray</text>
<text text-anchor="start" x="877" y="-158.5" font-family="Helvetica,sans-Serif" font-size="10.00">+ ReplicatedWorldTimeSeconds</text>
<text text-anchor="start" x="877" y="-147.5" font-family="Helvetica,sans-Serif" font-size="10.00">+ ServerWorldTimeSecondsDelta</text>
<text text-anchor="start" x="877" y="-136.5" font-family="Helvetica,sans-Serif" font-size="10.00">+ ServerWorldTimeSecondsUpdate</text>
<text text-anchor="start" x="877" y="-125.5" font-family="Helvetica,sans-Serif" font-size="10.00">Frequency</text>
<text text-anchor="start" x="877" y="-114.5" font-family="Helvetica,sans-Serif" font-size="10.00">+ UnknownData01</text>
<polyline fill="none" stroke="red" points="869,-107.5 1037,-107.5 "/>
<text text-anchor="start" x="877" y="-95.5" font-family="Helvetica,sans-Serif" font-size="10.00">+ OnRep_SpectatorClass()</text>
<text text-anchor="start" x="877" y="-84.5" font-family="Helvetica,sans-Serif" font-size="10.00">+ OnRep_ReplicatedWorldTime</text>
<text text-anchor="start" x="877" y="-73.5" font-family="Helvetica,sans-Serif" font-size="10.00">Seconds()</text>
<text text-anchor="start" x="877" y="-62.5" font-family="Helvetica,sans-Serif" font-size="10.00">+ OnRep_MatchState()</text>
<text text-anchor="start" x="877" y="-51.5" font-family="Helvetica,sans-Serif" font-size="10.00">+ OnRep_GameModeClass()</text>
<text text-anchor="start" x="877" y="-40.5" font-family="Helvetica,sans-Serif" font-size="10.00">+ OnRep_ElapsedTime()</text>
<text text-anchor="start" x="877" y="-29.5" font-family="Helvetica,sans-Serif" font-size="10.00">+ GetServerWorldTimeSeconds()</text>
<text text-anchor="start" x="877" y="-18.5" font-family="Helvetica,sans-Serif" font-size="10.00">+ StaticClass()</text>
</a>
</g>
</g>
<!-- Node1&#45;&gt;Node18 -->
<g id="edge7" class="edge"><title>Node1&#45;&gt;Node18</title>
<path fill="none" stroke="midnightblue" d="M877.405,-315.999C882.425,-304.678 888.261,-291.514 894.424,-277.614"/>
<polygon fill="none" stroke="midnightblue" points="874.071,-314.885 873.217,-325.446 880.47,-317.722 874.071,-314.885"/>
</g>
<!-- Node21 -->
<g id="node9" class="node"><title>Node21</title>
<g id="a_node9"><a xlink:href="a26655.html" target="_top" xlink:title=" ">
<polygon fill="none" stroke="red" points="1055,-50 1055,-239 1175,-239 1175,-50 1055,-50"/>
<text text-anchor="middle" x="1115" y="-227" font-family="Helvetica,sans-Serif" font-size="10.00">SDK::APlayerState</text>
<polyline fill="none" stroke="red" points="1055,-220 1175,-220 "/>
<text text-anchor="start" x="1063" y="-208" font-family="Helvetica,sans-Serif" font-size="10.00">+ Score</text>
<text text-anchor="start" x="1063" y="-197" font-family="Helvetica,sans-Serif" font-size="10.00">+ Ping</text>
<text text-anchor="start" x="1063" y="-186" font-family="Helvetica,sans-Serif" font-size="10.00">+ UnknownData00</text>
<text text-anchor="start" x="1063" y="-175" font-family="Helvetica,sans-Serif" font-size="10.00">+ PlayerName</text>
<text text-anchor="start" x="1063" y="-164" font-family="Helvetica,sans-Serif" font-size="10.00">+ UnknownData01</text>
<text text-anchor="start" x="1063" y="-153" font-family="Helvetica,sans-Serif" font-size="10.00">+ PlayerId</text>
<text text-anchor="start" x="1063" y="-142" font-family="Helvetica,sans-Serif" font-size="10.00">+ bIsSpectator</text>
<text text-anchor="start" x="1063" y="-131" font-family="Helvetica,sans-Serif" font-size="10.00">+ bOnlySpectator</text>
<text text-anchor="start" x="1063" y="-120" font-family="Helvetica,sans-Serif" font-size="10.00">+ bIsABot</text>
<text text-anchor="start" x="1063" y="-109" font-family="Helvetica,sans-Serif" font-size="10.00">+ UnknownData02</text>
<text text-anchor="start" x="1063" y="-98" font-family="Helvetica,sans-Serif" font-size="10.00">and 9 more...</text>
<polyline fill="none" stroke="red" points="1055,-91 1175,-91 "/>
<text text-anchor="start" x="1063" y="-79" font-family="Helvetica,sans-Serif" font-size="10.00">+ OnRep_UniqueId()</text>
<text text-anchor="start" x="1063" y="-68" font-family="Helvetica,sans-Serif" font-size="10.00">+ OnRep_PlayerName()</text>
<text text-anchor="start" x="1063" y="-57" font-family="Helvetica,sans-Serif" font-size="10.00">+ StaticClass()</text>
</a>
</g>
</g>
<!-- Node1&#45;&gt;Node21 -->
<g id="edge8" class="edge"><title>Node1&#45;&gt;Node21</title>
<path fill="none" stroke="midnightblue" d="M911.977,-346.299C952.511,-338.615 1008.46,-322.452 1046,-289 1061.27,-275.391 1073.48,-257.66 1083.12,-239.326"/>
<polygon fill="none" stroke="midnightblue" points="911.254,-342.873 902.025,-348.075 912.484,-349.764 911.254,-342.873"/>
</g>
<!-- Node24 -->
<g id="node10" class="node"><title>Node24</title>
<g id="a_node10"><a xlink:href="a27103.html" target="_top" xlink:title=" ">
<polygon fill="none" stroke="black" points="1193.5,-99.5 1193.5,-189.5 1300.5,-189.5 1300.5,-99.5 1193.5,-99.5"/>
<text text-anchor="middle" x="1247" y="-177.5" font-family="Helvetica,sans-Serif" font-size="10.00">SDK::ASkyLight</text>
<polyline fill="none" stroke="black" points="1193.5,-170.5 1300.5,-170.5 "/>
<text text-anchor="start" x="1201.5" y="-158.5" font-family="Helvetica,sans-Serif" font-size="10.00">+ LightComponent</text>
<text text-anchor="start" x="1201.5" y="-147.5" font-family="Helvetica,sans-Serif" font-size="10.00">+ bEnabled</text>
<text text-anchor="start" x="1201.5" y="-136.5" font-family="Helvetica,sans-Serif" font-size="10.00">+ UnknownData00</text>
<polyline fill="none" stroke="black" points="1193.5,-129.5 1300.5,-129.5 "/>
<text text-anchor="start" x="1201.5" y="-117.5" font-family="Helvetica,sans-Serif" font-size="10.00">+ OnRep_bEnabled()</text>
<text text-anchor="start" x="1201.5" y="-106.5" font-family="Helvetica,sans-Serif" font-size="10.00">+ StaticClass()</text>
</a>
</g>
</g>
<!-- Node1&#45;&gt;Node24 -->
<g id="edge9" class="edge"><title>Node1&#45;&gt;Node24</title>
<path fill="none" stroke="midnightblue" d="M912.619,-348.563C992.921,-340.724 1142.83,-322.048 1184,-289 1214.55,-264.475 1230.67,-222.136 1238.92,-189.784"/>
<polygon fill="none" stroke="midnightblue" points="911.863,-345.119 902.24,-349.554 912.528,-352.088 911.863,-345.119"/>
</g>
<!-- Node25 -->
<g id="node11" class="node"><title>Node25</title>
<g id="a_node11"><a xlink:href="a27107.html" target="_top" xlink:title=" ">
<polygon fill="none" stroke="black" points="1318.5,-110.5 1318.5,-178.5 1467.5,-178.5 1467.5,-110.5 1318.5,-110.5"/>
<text text-anchor="middle" x="1393" y="-166.5" font-family="Helvetica,sans-Serif" font-size="10.00">SDK::AWindDirectionalSource</text>
<polyline fill="none" stroke="black" points="1318.5,-159.5 1467.5,-159.5 "/>
<text text-anchor="start" x="1326.5" y="-147.5" font-family="Helvetica,sans-Serif" font-size="10.00">+ Component</text>
<polyline fill="none" stroke="black" points="1318.5,-140.5 1467.5,-140.5 "/>
<text text-anchor="start" x="1326.5" y="-128.5" font-family="Helvetica,sans-Serif" font-size="10.00">+ GetComponent()</text>
<text text-anchor="start" x="1326.5" y="-117.5" font-family="Helvetica,sans-Serif" font-size="10.00">+ StaticClass()</text>
</a>
</g>
</g>
<!-- Node1&#45;&gt;Node25 -->
<g id="edge10" class="edge"><title>Node1&#45;&gt;Node25</title>
<path fill="none" stroke="midnightblue" d="M912.481,-351.236C1016.22,-346.798 1245.97,-332.245 1310,-289 1348.64,-262.905 1371.61,-212.372 1383.27,-178.78"/>
<polygon fill="none" stroke="midnightblue" points="912.097,-347.749 902.25,-351.658 912.386,-354.743 912.097,-347.749"/>
</g>
<!-- Node26 -->
<g id="node12" class="node"><title>Node26</title>
<g id="a_node12"><a xlink:href="a26687.html" target="_top" xlink:title=" ">
<polygon fill="none" stroke="red" points="1486,-55.5 1486,-233.5 1638,-233.5 1638,-55.5 1486,-55.5"/>
<text text-anchor="middle" x="1562" y="-221.5" font-family="Helvetica,sans-Serif" font-size="10.00">SDK::AWorldSettings</text>
<polyline fill="none" stroke="red" points="1486,-214.5 1638,-214.5 "/>
<text text-anchor="start" x="1494" y="-202.5" font-family="Helvetica,sans-Serif" font-size="10.00">+ UnknownData00</text>
<text text-anchor="start" x="1494" y="-191.5" font-family="Helvetica,sans-Serif" font-size="10.00">+ bEnableWorldBoundsChecks</text>
<text text-anchor="start" x="1494" y="-180.5" font-family="Helvetica,sans-Serif" font-size="10.00">+ bEnableNavigationSystem</text>
<text text-anchor="start" x="1494" y="-169.5" font-family="Helvetica,sans-Serif" font-size="10.00">+ UnknownData01</text>
<text text-anchor="start" x="1494" y="-158.5" font-family="Helvetica,sans-Serif" font-size="10.00">+ WorldCompositionSetting</text>
<text text-anchor="start" x="1494" y="-147.5" font-family="Helvetica,sans-Serif" font-size="10.00">+ UnknownData02</text>
<text text-anchor="start" x="1494" y="-136.5" font-family="Helvetica,sans-Serif" font-size="10.00">+ bEnableWorldOriginRebasing</text>
<text text-anchor="start" x="1494" y="-125.5" font-family="Helvetica,sans-Serif" font-size="10.00">+ bWorldGravitySet</text>
<text text-anchor="start" x="1494" y="-114.5" font-family="Helvetica,sans-Serif" font-size="10.00">+ bGlobalGravitySet</text>
<text text-anchor="start" x="1494" y="-103.5" font-family="Helvetica,sans-Serif" font-size="10.00">+ UnknownData03</text>
<text text-anchor="start" x="1494" y="-92.5" font-family="Helvetica,sans-Serif" font-size="10.00">and 41 more...</text>
<polyline fill="none" stroke="red" points="1486,-85.5 1638,-85.5 "/>
<text text-anchor="start" x="1494" y="-73.5" font-family="Helvetica,sans-Serif" font-size="10.00">+ OnRep_WorldGravityZ()</text>
<text text-anchor="start" x="1494" y="-62.5" font-family="Helvetica,sans-Serif" font-size="10.00">+ StaticClass()</text>
</a>
</g>
</g>
<!-- Node1&#45;&gt;Node26 -->
<g id="edge11" class="edge"><title>Node1&#45;&gt;Node26</title>
<path fill="none" stroke="midnightblue" d="M912.253,-353.468C1042.76,-353.762 1383.89,-348.648 1477,-289 1497.97,-275.567 1514.44,-254.964 1527.07,-233.526"/>
<polygon fill="none" stroke="midnightblue" points="912.134,-349.967 902.122,-353.433 912.11,-356.967 912.134,-349.967"/>
</g>
<!-- Node2 -->
<g id="node2" class="node"><title>Node2</title>
<g id="a_node2"><a xlink:href="a26555.html" target="_top" xlink:title=" ">
<polygon fill="none" stroke="red" points="777.5,-419.5 777.5,-718.5 944.5,-718.5 944.5,-419.5 777.5,-419.5"/>
<text text-anchor="middle" x="861" y="-706.5" font-family="Helvetica,sans-Serif" font-size="10.00">SDK::AActor</text>
<polyline fill="none" stroke="red" points="777.5,-699.5 944.5,-699.5 "/>
<text text-anchor="start" x="785.5" y="-687.5" font-family="Helvetica,sans-Serif" font-size="10.00">+ PrimaryActorTick</text>
<text text-anchor="start" x="785.5" y="-676.5" font-family="Helvetica,sans-Serif" font-size="10.00">+ CustomTimeDilation</text>
<text text-anchor="start" x="785.5" y="-665.5" font-family="Helvetica,sans-Serif" font-size="10.00">+ bAllowRemovalFromServerWhen</text>
<text text-anchor="start" x="785.5" y="-654.5" font-family="Helvetica,sans-Serif" font-size="10.00">CollisionMerged</text>
<text text-anchor="start" x="785.5" y="-643.5" font-family="Helvetica,sans-Serif" font-size="10.00">+ bHidden</text>
<text text-anchor="start" x="785.5" y="-632.5" font-family="Helvetica,sans-Serif" font-size="10.00">+ bNetTemporary</text>
<text text-anchor="start" x="785.5" y="-621.5" font-family="Helvetica,sans-Serif" font-size="10.00">+ bNetStartup</text>
<text text-anchor="start" x="785.5" y="-610.5" font-family="Helvetica,sans-Serif" font-size="10.00">+ bOnlyRelevantToOwner</text>
<text text-anchor="start" x="785.5" y="-599.5" font-family="Helvetica,sans-Serif" font-size="10.00">+ bAlwaysRelevant</text>
<text text-anchor="start" x="785.5" y="-588.5" font-family="Helvetica,sans-Serif" font-size="10.00">+ bReplicateMovement</text>
<text text-anchor="start" x="785.5" y="-577.5" font-family="Helvetica,sans-Serif" font-size="10.00">+ bTearOff</text>
<text text-anchor="start" x="785.5" y="-566.5" font-family="Helvetica,sans-Serif" font-size="10.00">and 77 more...</text>
<polyline fill="none" stroke="red" points="777.5,-559.5 944.5,-559.5 "/>
<text text-anchor="start" x="785.5" y="-547.5" font-family="Helvetica,sans-Serif" font-size="10.00">+ UserConstructionScript()</text>
<text text-anchor="start" x="785.5" y="-536.5" font-family="Helvetica,sans-Serif" font-size="10.00">+ TearOff()</text>
<text text-anchor="start" x="785.5" y="-525.5" font-family="Helvetica,sans-Serif" font-size="10.00">+ SnapRootComponentTo()</text>
<text text-anchor="start" x="785.5" y="-514.5" font-family="Helvetica,sans-Serif" font-size="10.00">+ SetTickGroup()</text>
<text text-anchor="start" x="785.5" y="-503.5" font-family="Helvetica,sans-Serif" font-size="10.00">+ SetTickableWhenPaused()</text>
<text text-anchor="start" x="785.5" y="-492.5" font-family="Helvetica,sans-Serif" font-size="10.00">+ SetReplicates()</text>
<text text-anchor="start" x="785.5" y="-481.5" font-family="Helvetica,sans-Serif" font-size="10.00">+ SetReplicateMovement()</text>
<text text-anchor="start" x="785.5" y="-470.5" font-family="Helvetica,sans-Serif" font-size="10.00">+ SetOwner()</text>
<text text-anchor="start" x="785.5" y="-459.5" font-family="Helvetica,sans-Serif" font-size="10.00">+ SetLifeSpan()</text>
<text text-anchor="start" x="785.5" y="-448.5" font-family="Helvetica,sans-Serif" font-size="10.00">+ SetIgnoreNetTransformUpdates()</text>
<text text-anchor="start" x="785.5" y="-437.5" font-family="Helvetica,sans-Serif" font-size="10.00">and 109 more...</text>
<text text-anchor="start" x="785.5" y="-426.5" font-family="Helvetica,sans-Serif" font-size="10.00">+ StaticClass()</text>
</a>
</g>
</g>
<!-- Node2&#45;&gt;Node1 -->
<g id="edge1" class="edge"><title>Node2&#45;&gt;Node1</title>
<path fill="none" stroke="midnightblue" d="M861,-409.357C861,-399.476 861,-390.39 861,-382.59"/>
<polygon fill="none" stroke="midnightblue" points="857.5,-409.485 861,-419.485 864.5,-409.485 857.5,-409.485"/>
</g>
</g>
</svg>
