<?xml version="1.0" encoding="UTF-8" standalone="no"?>
<!DOCTYPE svg PUBLIC "-//W3C//DTD SVG 1.1//EN"
 "http://www.w3.org/Graphics/SVG/1.1/DTD/svg11.dtd">
<!-- Generated by graphviz version 2.38.0 (20140413.2041)
 -->
<!-- Title: SDK::UNetConnection Pages: 1 -->
<svg width="1549pt" height="854pt"
 viewBox="0.00 0.00 1548.92 854.00" xmlns="http://www.w3.org/2000/svg" xmlns:xlink="http://www.w3.org/1999/xlink">
<g id="graph0" class="graph" transform="scale(1 1) rotate(0) translate(4 850)">
<title>SDK::UNetConnection</title>
<!-- Node1 -->
<g id="node1" class="node"><title>Node1</title>
<g id="a_node1"><a xlink:title=" ">
<polygon fill="#bfbfbf" stroke="black" points="520.424,-105.5 520.424,-162.5 633.424,-162.5 633.424,-105.5 520.424,-105.5"/>
<text text-anchor="middle" x="576.924" y="-150.5" font-family="Helvetica,sans-Serif" font-size="10.00">SDK::UNetConnection</text>
<polyline fill="none" stroke="black" points="520.424,-143.5 633.424,-143.5 "/>
<text text-anchor="middle" x="576.924" y="-131.5" font-family="Helvetica,sans-Serif" font-size="10.00"> </text>
<polyline fill="none" stroke="black" points="520.424,-124.5 633.424,-124.5 "/>
<text text-anchor="start" x="528.424" y="-112.5" font-family="Helvetica,sans-Serif" font-size="10.00">+ StaticClass()</text>
</a>
</g>
</g>
<!-- Node273 -->
<g id="node6" class="node"><title>Node273</title>
<g id="a_node6"><a xlink:href="a26619.html" target="_top" xlink:title=" ">
<polygon fill="none" stroke="red" points="531.424,-0.5 531.424,-57.5 620.424,-57.5 620.424,-0.5 531.424,-0.5"/>
<text text-anchor="middle" x="575.924" y="-45.5" font-family="Helvetica,sans-Serif" font-size="10.00">SDK::UNetDriver</text>
<polyline fill="none" stroke="red" points="531.424,-38.5 620.424,-38.5 "/>
<text text-anchor="middle" x="575.924" y="-26.5" font-family="Helvetica,sans-Serif" font-size="10.00"> </text>
<polyline fill="none" stroke="red" points="531.424,-19.5 620.424,-19.5 "/>
<text text-anchor="start" x="539.424" y="-7.5" font-family="Helvetica,sans-Serif" font-size="10.00">+ StaticClass()</text>
</a>
</g>
</g>
<!-- Node1&#45;&gt;Node273 -->
<g id="edge8" class="edge"><title>Node1&#45;&gt;Node273</title>
<path fill="none" stroke="#404040" d="M581.835,-105.487C582.967,-96.1389 583.652,-85.6245 582.924,-76 582.769,-73.951 582.576,-71.855 582.353,-69.7416"/>
<polygon fill="none" stroke="#404040" points="582.33,-69.5581 577.608,-64.1077 580.824,-57.653 585.545,-63.1034 582.33,-69.5581"/>
<text text-anchor="middle" x="626.424" y="-79" font-family="Helvetica,sans-Serif" font-size="10.00"> +ServerConnection</text>
</g>
<!-- Node2 -->
<g id="node2" class="node"><title>Node2</title>
<g id="a_node2"><a xlink:href="a26611.html" target="_top" xlink:title=" ">
<polygon fill="none" stroke="red" points="458.924,-397.5 458.924,-454.5 540.924,-454.5 540.924,-397.5 458.924,-397.5"/>
<text text-anchor="middle" x="499.924" y="-442.5" font-family="Helvetica,sans-Serif" font-size="10.00">SDK::UPlayer</text>
<polyline fill="none" stroke="red" points="458.924,-435.5 540.924,-435.5 "/>
<text text-anchor="middle" x="499.924" y="-423.5" font-family="Helvetica,sans-Serif" font-size="10.00"> </text>
<polyline fill="none" stroke="red" points="458.924,-416.5 540.924,-416.5 "/>
<text text-anchor="start" x="466.924" y="-404.5" font-family="Helvetica,sans-Serif" font-size="10.00">+ StaticClass()</text>
</a>
</g>
</g>
<!-- Node2&#45;&gt;Node1 -->
<g id="edge1" class="edge"><title>Node2&#45;&gt;Node1</title>
<path fill="none" stroke="midnightblue" d="M509.074,-387.513C520.915,-339.498 542.461,-253.787 562.924,-181 564.596,-175.053 566.471,-168.701 568.292,-162.674"/>
<polygon fill="none" stroke="midnightblue" points="505.619,-386.906 506.629,-397.453 512.416,-388.579 505.619,-386.906"/>
</g>
<!-- Node12 -->
<g id="node3" class="node"><title>Node12</title>
<g id="a_node3"><a xlink:title=" ">
<polygon fill="none" stroke="#bfbfbf" points="676.424,-761 676.424,-818 711.424,-818 711.424,-761 676.424,-761"/>
<text text-anchor="middle" x="693.924" y="-806" font-family="Helvetica,sans-Serif" font-size="10.00">char</text>
<polyline fill="none" stroke="#bfbfbf" points="676.424,-799 711.424,-799 "/>
<text text-anchor="middle" x="693.924" y="-787" font-family="Helvetica,sans-Serif" font-size="10.00"> </text>
<polyline fill="none" stroke="#bfbfbf" points="676.424,-780 711.424,-780 "/>
<text text-anchor="middle" x="693.924" y="-768" font-family="Helvetica,sans-Serif" font-size="10.00"> </text>
</a>
</g>
</g>
<!-- Node12&#45;&gt;Node1 -->
<g id="edge10" class="edge"><title>Node12&#45;&gt;Node1</title>
<path fill="none" stroke="#404040" d="M676.224,-781.779C652.008,-771.52 609.447,-749.438 590.924,-715 540.739,-621.697 563.578,-290.091 573.316,-174.828"/>
<polygon fill="none" stroke="#404040" points="573.322,-174.757 569.851,-168.436 574.351,-162.802 577.821,-169.123 573.322,-174.757"/>
<text text-anchor="middle" x="605.924" y="-445.5" font-family="Helvetica,sans-Serif" font-size="10.00"> +UnknownData01</text>
<text text-anchor="middle" x="605.924" y="-434.5" font-family="Helvetica,sans-Serif" font-size="10.00">+UnknownData02</text>
<text text-anchor="middle" x="605.924" y="-423.5" font-family="Helvetica,sans-Serif" font-size="10.00">+UnknownData03</text>
<text text-anchor="middle" x="605.924" y="-412.5" font-family="Helvetica,sans-Serif" font-size="10.00">+InternalAck</text>
<text text-anchor="middle" x="605.924" y="-401.5" font-family="Helvetica,sans-Serif" font-size="10.00">+UnknownData00</text>
</g>
<!-- Node12&#45;&gt;Node2 -->
<g id="edge2" class="edge"><title>Node12&#45;&gt;Node2</title>
<path fill="none" stroke="#404040" d="M676.402,-788.607C634.487,-787.795 528.537,-779.19 482.924,-715 429.996,-640.516 461.136,-525.934 483.406,-466.229"/>
<polygon fill="none" stroke="#404040" points="483.533,-465.898 481.96,-458.861 487.852,-454.702 489.425,-461.74 483.533,-465.898"/>
<text text-anchor="middle" x="522.924" y="-657.5" font-family="Helvetica,sans-Serif" font-size="10.00"> +UnknownData01</text>
<text text-anchor="middle" x="522.924" y="-646.5" font-family="Helvetica,sans-Serif" font-size="10.00">+UnknownData00</text>
</g>
<!-- Node12&#45;&gt;Node273 -->
<g id="edge6" class="edge"><title>Node12&#45;&gt;Node273</title>
<path fill="none" stroke="#404040" d="M711.573,-784.527C758.018,-774.234 887.594,-746.558 996.924,-733 1027.2,-729.245 1250.07,-737.27 1270.92,-715 1307.68,-675.747 1277.69,-647.35 1270.92,-594 1252.56,-449.204 1285.03,-385.851 1188.92,-276 1039.43,-105.119 754.5,-51.4122 633.053,-35.8467"/>
<polygon fill="none" stroke="#404040" points="632.697,-35.8028 626.252,-39.0383 620.787,-34.334 627.232,-31.0985 632.697,-35.8028"/>
<text text-anchor="middle" x="1226.42" y="-250" font-family="Helvetica,sans-Serif" font-size="10.00"> +UnknownData01</text>
<text text-anchor="middle" x="1226.42" y="-239" font-family="Helvetica,sans-Serif" font-size="10.00">+UnknownData02</text>
<text text-anchor="middle" x="1226.42" y="-228" font-family="Helvetica,sans-Serif" font-size="10.00">+UnknownData03</text>
<text text-anchor="middle" x="1226.42" y="-217" font-family="Helvetica,sans-Serif" font-size="10.00">+UnknownData04</text>
<text text-anchor="start" x="1170.92" y="-206" font-family="Helvetica,sans-Serif" font-size="10.00">+bClampListenServerTick</text>
<text text-anchor="middle" x="1226.42" y="-195" font-family="Helvetica,sans-Serif" font-size="10.00">Rate</text>
<text text-anchor="middle" x="1226.42" y="-184" font-family="Helvetica,sans-Serif" font-size="10.00">+UnknownData00</text>
</g>
<!-- Node16 -->
<g id="node8" class="node"><title>Node16</title>
<g id="a_node8"><a xlink:href="a26343.html" target="_top" xlink:title=" ">
<polygon fill="none" stroke="red" points="800.424,-276.5 800.424,-575.5 967.424,-575.5 967.424,-276.5 800.424,-276.5"/>
<text text-anchor="middle" x="883.924" y="-563.5" font-family="Helvetica,sans-Serif" font-size="10.00">SDK::AActor</text>
<polyline fill="none" stroke="red" points="800.424,-556.5 967.424,-556.5 "/>
<text text-anchor="start" x="808.424" y="-544.5" font-family="Helvetica,sans-Serif" font-size="10.00">+ bAllowRemovalFromServerWhen</text>
<text text-anchor="start" x="808.424" y="-533.5" font-family="Helvetica,sans-Serif" font-size="10.00">CollisionMerged</text>
<text text-anchor="start" x="808.424" y="-522.5" font-family="Helvetica,sans-Serif" font-size="10.00">+ bHidden</text>
<text text-anchor="start" x="808.424" y="-511.5" font-family="Helvetica,sans-Serif" font-size="10.00">+ bNetStartup</text>
<text text-anchor="start" x="808.424" y="-500.5" font-family="Helvetica,sans-Serif" font-size="10.00">+ bOnlyRelevantToOwner</text>
<text text-anchor="start" x="808.424" y="-489.5" font-family="Helvetica,sans-Serif" font-size="10.00">+ bAlwaysRelevant</text>
<text text-anchor="start" x="808.424" y="-478.5" font-family="Helvetica,sans-Serif" font-size="10.00">+ bReplicateMovement</text>
<text text-anchor="start" x="808.424" y="-467.5" font-family="Helvetica,sans-Serif" font-size="10.00">+ bExchangedRoles</text>
<text text-anchor="start" x="808.424" y="-456.5" font-family="Helvetica,sans-Serif" font-size="10.00">+ bNetLoadOnClient</text>
<text text-anchor="start" x="808.424" y="-445.5" font-family="Helvetica,sans-Serif" font-size="10.00">+ bBlockInput</text>
<text text-anchor="start" x="808.424" y="-434.5" font-family="Helvetica,sans-Serif" font-size="10.00">+ UnknownData00</text>
<text text-anchor="start" x="808.424" y="-423.5" font-family="Helvetica,sans-Serif" font-size="10.00">and 26 more...</text>
<polyline fill="none" stroke="red" points="800.424,-416.5 967.424,-416.5 "/>
<text text-anchor="start" x="808.424" y="-404.5" font-family="Helvetica,sans-Serif" font-size="10.00">+ UserConstructionScript()</text>
<text text-anchor="start" x="808.424" y="-393.5" font-family="Helvetica,sans-Serif" font-size="10.00">+ TearOff()</text>
<text text-anchor="start" x="808.424" y="-382.5" font-family="Helvetica,sans-Serif" font-size="10.00">+ SnapRootComponentTo()</text>
<text text-anchor="start" x="808.424" y="-371.5" font-family="Helvetica,sans-Serif" font-size="10.00">+ SetTickGroup()</text>
<text text-anchor="start" x="808.424" y="-360.5" font-family="Helvetica,sans-Serif" font-size="10.00">+ SetTickableWhenPaused()</text>
<text text-anchor="start" x="808.424" y="-349.5" font-family="Helvetica,sans-Serif" font-size="10.00">+ SetReplicates()</text>
<text text-anchor="start" x="808.424" y="-338.5" font-family="Helvetica,sans-Serif" font-size="10.00">+ SetReplicateMovement()</text>
<text text-anchor="start" x="808.424" y="-327.5" font-family="Helvetica,sans-Serif" font-size="10.00">+ SetOwner()</text>
<text text-anchor="start" x="808.424" y="-316.5" font-family="Helvetica,sans-Serif" font-size="10.00">+ SetLifeSpan()</text>
<text text-anchor="start" x="808.424" y="-305.5" font-family="Helvetica,sans-Serif" font-size="10.00">+ SetIgnoreNetTransformUpdates()</text>
<text text-anchor="start" x="808.424" y="-294.5" font-family="Helvetica,sans-Serif" font-size="10.00">and 109 more...</text>
<text text-anchor="start" x="808.424" y="-283.5" font-family="Helvetica,sans-Serif" font-size="10.00">+ StaticClass()</text>
</a>
</g>
</g>
<!-- Node12&#45;&gt;Node16 -->
<g id="edge13" class="edge"><title>Node12&#45;&gt;Node16</title>
<path fill="none" stroke="#404040" d="M711.712,-777.693C730.697,-765.137 760.045,-742.574 774.924,-715 800.775,-667.093 776.54,-645.587 793.924,-594 794.693,-591.718 795.492,-589.43 796.317,-587.138"/>
<polygon fill="none" stroke="#404040" points="796.414,-586.881 794.797,-579.854 800.662,-575.658 802.279,-582.685 796.414,-586.881"/>
<text text-anchor="middle" x="859.924" y="-707" font-family="Helvetica,sans-Serif" font-size="10.00"> +bEnableAutoLODGeneration</text>
<text text-anchor="middle" x="859.924" y="-696" font-family="Helvetica,sans-Serif" font-size="10.00">+UnknownData01</text>
<text text-anchor="middle" x="859.924" y="-685" font-family="Helvetica,sans-Serif" font-size="10.00">+bNetUseOwnerRelevancy</text>
<text text-anchor="middle" x="859.924" y="-674" font-family="Helvetica,sans-Serif" font-size="10.00">+bTearOff</text>
<text text-anchor="middle" x="859.924" y="-663" font-family="Helvetica,sans-Serif" font-size="10.00">+bNetTemporary</text>
<text text-anchor="middle" x="859.924" y="-652" font-family="Helvetica,sans-Serif" font-size="10.00">+UnknownData02</text>
<text text-anchor="middle" x="859.924" y="-641" font-family="Helvetica,sans-Serif" font-size="10.00">+bCanBeInCluster</text>
<text text-anchor="middle" x="859.924" y="-630" font-family="Helvetica,sans-Serif" font-size="10.00">+bPendingNetUpdate</text>
<text text-anchor="middle" x="859.924" y="-619" font-family="Helvetica,sans-Serif" font-size="10.00">+UnknownData10</text>
<text text-anchor="middle" x="859.924" y="-608" font-family="Helvetica,sans-Serif" font-size="10.00">+UnknownData03</text>
<text text-anchor="middle" x="859.924" y="-597" font-family="Helvetica,sans-Serif" font-size="10.00">...</text>
</g>
<!-- Node341 -->
<g id="node10" class="node"><title>Node341</title>
<g id="a_node10"><a xlink:href="a25927.html" target="_top" xlink:title=" ">
<polygon fill="none" stroke="red" points="675.424,-397.5 675.424,-454.5 782.424,-454.5 782.424,-397.5 675.424,-397.5"/>
<text text-anchor="middle" x="728.924" y="-442.5" font-family="Helvetica,sans-Serif" font-size="10.00">SDK::UPackageMap</text>
<polyline fill="none" stroke="red" points="675.424,-435.5 782.424,-435.5 "/>
<text text-anchor="middle" x="728.924" y="-423.5" font-family="Helvetica,sans-Serif" font-size="10.00"> </text>
<polyline fill="none" stroke="red" points="675.424,-416.5 782.424,-416.5 "/>
<text text-anchor="start" x="683.424" y="-404.5" font-family="Helvetica,sans-Serif" font-size="10.00">+ StaticClass()</text>
</a>
</g>
</g>
<!-- Node12&#45;&gt;Node341 -->
<g id="edge19" class="edge"><title>Node12&#45;&gt;Node341</title>
<path fill="none" stroke="#404040" d="M692.366,-760.708C690.632,-722.879 688.814,-653.116 694.924,-594 699.482,-549.896 710.355,-500.202 718.587,-466.575"/>
<polygon fill="none" stroke="#404040" points="718.69,-466.163 716.261,-459.373 721.594,-454.519 724.023,-461.309 718.69,-466.163"/>
<text text-anchor="middle" x="734.924" y="-652" font-family="Helvetica,sans-Serif" font-size="10.00"> +UnknownData00</text>
</g>
<!-- Node43 -->
<g id="node4" class="node"><title>Node43</title>
<g id="a_node4"><a xlink:title=" ">
<polygon fill="none" stroke="#bfbfbf" points="274.424,-761 274.424,-818 303.424,-818 303.424,-761 274.424,-761"/>
<text text-anchor="middle" x="288.924" y="-806" font-family="Helvetica,sans-Serif" font-size="10.00">int</text>
<polyline fill="none" stroke="#bfbfbf" points="274.424,-799 303.424,-799 "/>
<text text-anchor="middle" x="288.924" y="-787" font-family="Helvetica,sans-Serif" font-size="10.00"> </text>
<polyline fill="none" stroke="#bfbfbf" points="274.424,-780 303.424,-780 "/>
<text text-anchor="middle" x="288.924" y="-768" font-family="Helvetica,sans-Serif" font-size="10.00"> </text>
</a>
</g>
</g>
<!-- Node43&#45;&gt;Node1 -->
<g id="edge17" class="edge"><title>Node43&#45;&gt;Node1</title>
<path fill="none" stroke="#404040" d="M284.481,-760.883C269.921,-667.176 226.919,-362.384 268.924,-276 312.193,-187.017 431.625,-154.093 508.419,-141.978"/>
<polygon fill="none" stroke="#404040" points="508.489,-141.967 513.837,-137.13 520.359,-140.207 515.011,-145.044 508.489,-141.967"/>
<text text-anchor="middle" x="298.424" y="-423.5" font-family="Helvetica,sans-Serif" font-size="10.00"> +MaxPacket</text>
</g>
<!-- Node43&#45;&gt;Node2 -->
<g id="edge3" class="edge"><title>Node43&#45;&gt;Node2</title>
<path fill="none" stroke="#404040" d="M286.66,-760.945C284.825,-718.435 288.202,-637.257 334.924,-594 372.885,-558.854 410.394,-609.373 449.924,-576 481.814,-549.076 493.446,-501.133 497.643,-466.9"/>
<polygon fill="none" stroke="#404040" points="497.688,-466.461 494.322,-460.084 498.914,-454.524 502.28,-460.901 497.688,-466.461"/>
<text text-anchor="middle" x="392.424" y="-663" font-family="Helvetica,sans-Serif" font-size="10.00"> +ConfiguredInternetSpeed</text>
<text text-anchor="middle" x="392.424" y="-652" font-family="Helvetica,sans-Serif" font-size="10.00">+CurrentNetSpeed</text>
<text text-anchor="middle" x="392.424" y="-641" font-family="Helvetica,sans-Serif" font-size="10.00">+ConfiguredLanSpeed</text>
</g>
<!-- Node43&#45;&gt;Node273 -->
<g id="edge7" class="edge"><title>Node43&#45;&gt;Node273</title>
<path fill="none" stroke="#404040" d="M274.393,-779.769C233.755,-754.407 119.033,-676.145 74.9239,-576 4.12157,-415.251 -43.33,-321.623 61.9239,-181 117.422,-106.853 397.66,-56.6834 519.367,-38.0604"/>
<polygon fill="none" stroke="#404040" points="519.464,-38.0458 524.8,-33.1945 531.33,-36.2536 525.994,-41.1048 519.464,-38.0458"/>
<text text-anchor="middle" x="114.924" y="-233.5" font-family="Helvetica,sans-Serif" font-size="10.00"> +MaxDownloadSize</text>
<text text-anchor="middle" x="114.924" y="-222.5" font-family="Helvetica,sans-Serif" font-size="10.00">+MaxClientRate</text>
<text text-anchor="middle" x="114.924" y="-211.5" font-family="Helvetica,sans-Serif" font-size="10.00">+NetServerMaxTickRate</text>
<text text-anchor="middle" x="114.924" y="-200.5" font-family="Helvetica,sans-Serif" font-size="10.00">+MaxInternetClientRate</text>
</g>
<!-- Node43&#45;&gt;Node16 -->
<g id="edge15" class="edge"><title>Node43&#45;&gt;Node16</title>
<path fill="none" stroke="#404040" d="M303.491,-788.687C348.164,-788.501 485.151,-782.188 566.924,-715 613.152,-677.018 576.983,-628.416 625.924,-594 683.201,-553.721 724.121,-609.038 789.602,-575.621"/>
<polygon fill="none" stroke="#404040" points="789.92,-575.438 793.134,-568.983 800.329,-569.467 797.115,-575.922 789.92,-575.438"/>
<text text-anchor="middle" x="656.424" y="-657.5" font-family="Helvetica,sans-Serif" font-size="10.00"> +InputPriority</text>
<text text-anchor="middle" x="656.424" y="-646.5" font-family="Helvetica,sans-Serif" font-size="10.00">+NetTag</text>
</g>
<!-- Node20 -->
<g id="node5" class="node"><title>Node20</title>
<g id="a_node5"><a xlink:title=" ">
<polygon fill="none" stroke="#bfbfbf" points="1006.42,-761 1006.42,-818 1051.42,-818 1051.42,-761 1006.42,-761"/>
<text text-anchor="middle" x="1028.92" y="-806" font-family="Helvetica,sans-Serif" font-size="10.00">double</text>
<polyline fill="none" stroke="#bfbfbf" points="1006.42,-799 1051.42,-799 "/>
<text text-anchor="middle" x="1028.92" y="-787" font-family="Helvetica,sans-Serif" font-size="10.00"> </text>
<polyline fill="none" stroke="#bfbfbf" points="1006.42,-780 1051.42,-780 "/>
<text text-anchor="middle" x="1028.92" y="-768" font-family="Helvetica,sans-Serif" font-size="10.00"> </text>
</a>
</g>
</g>
<!-- Node20&#45;&gt;Node1 -->
<g id="edge4" class="edge"><title>Node20&#45;&gt;Node1</title>
<path fill="none" stroke="#404040" d="M1051.61,-769.913C1066.2,-756.411 1083.88,-736.752 1091.92,-715 1134.56,-599.744 1053.55,-307.595 1030.92,-276 981.201,-206.579 944.482,-209.321 863.924,-181 792.035,-155.726 705.094,-144.263 645.873,-139.112"/>
<polygon fill="none" stroke="#404040" points="645.631,-139.092 639.323,-142.586 633.672,-138.106 639.98,-134.613 645.631,-139.092"/>
<text text-anchor="middle" x="1143.42" y="-423.5" font-family="Helvetica,sans-Serif" font-size="10.00"> +LastReceiveTime</text>
</g>
<!-- Node20&#45;&gt;Node16 -->
<g id="edge12" class="edge"><title>Node20&#45;&gt;Node16</title>
<path fill="none" stroke="#404040" d="M1006.29,-772.786C988.898,-759.454 965.741,-738.744 952.924,-715 926.921,-666.829 942.314,-647.32 929.924,-594 929.422,-591.842 928.912,-589.67 928.393,-587.486"/>
<polygon fill="none" stroke="#404040" points="928.366,-587.377 923.067,-582.486 925.544,-575.714 930.843,-580.604 928.366,-587.377"/>
<text text-anchor="middle" x="1022.42" y="-652" font-family="Helvetica,sans-Serif" font-size="10.00"> +DormancyLingeringInSeconds</text>
</g>
<!-- Node273&#45;&gt;Node1 -->
<g id="edge5" class="edge"><title>Node273&#45;&gt;Node1</title>
<path fill="none" stroke="#404040" d="M553.833,-57.6822C549.047,-66.7718 546.145,-77.0894 548.924,-87 549.614,-89.4615 550.476,-91.9219 551.466,-94.3535"/>
<polygon fill="none" stroke="#404040" points="551.6,-94.6295 557.825,-98.2705 556.858,-105.417 550.633,-101.776 551.6,-94.6295"/>
<text text-anchor="middle" x="565.924" y="-79" font-family="Helvetica,sans-Serif" font-size="10.00"> +Driver</text>
</g>
<!-- Node340 -->
<g id="node7" class="node"><title>Node340</title>
<g id="a_node7"><a xlink:href="a25611.html" target="_top" xlink:title=" ">
<polygon fill="none" stroke="black" points="84.4239,-370 84.4239,-482 223.424,-482 223.424,-370 84.4239,-370"/>
<text text-anchor="start" x="92.4239" y="-470" font-family="Helvetica,sans-Serif" font-size="10.00">SDK::TArray&lt; class</text>
<text text-anchor="middle" x="153.924" y="-459" font-family="Helvetica,sans-Serif" font-size="10.00"> SDK::UChildConnection * &gt;</text>
<polyline fill="none" stroke="black" points="84.4239,-452 223.424,-452 "/>
<text text-anchor="middle" x="153.924" y="-440" font-family="Helvetica,sans-Serif" font-size="10.00"> </text>
<polyline fill="none" stroke="black" points="84.4239,-433 223.424,-433 "/>
<text text-anchor="start" x="92.4239" y="-421" font-family="Helvetica,sans-Serif" font-size="10.00">+ TArray()</text>
<text text-anchor="start" x="92.4239" y="-410" font-family="Helvetica,sans-Serif" font-size="10.00">+ Num()</text>
<text text-anchor="start" x="92.4239" y="-399" font-family="Helvetica,sans-Serif" font-size="10.00">+ operator[]()</text>
<text text-anchor="start" x="92.4239" y="-388" font-family="Helvetica,sans-Serif" font-size="10.00">+ operator[]()</text>
<text text-anchor="start" x="92.4239" y="-377" font-family="Helvetica,sans-Serif" font-size="10.00">+ IsValidIndex()</text>
</a>
</g>
</g>
<!-- Node340&#45;&gt;Node1 -->
<g id="edge9" class="edge"><title>Node340&#45;&gt;Node1</title>
<path fill="none" stroke="#404040" d="M157.154,-369.928C162.12,-305.998 174.043,-206.099 200.924,-181 244.096,-140.691 411.801,-134.301 508.023,-134.077"/>
<polygon fill="none" stroke="#404040" points="508.248,-134.077 514.249,-130.078 520.248,-134.08 514.247,-138.078 508.248,-134.077"/>
<text text-anchor="middle" x="223.424" y="-217" font-family="Helvetica,sans-Serif" font-size="10.00"> +Children</text>
</g>
<!-- Node16&#45;&gt;Node1 -->
<g id="edge11" class="edge"><title>Node16&#45;&gt;Node1</title>
<path fill="none" stroke="#404040" d="M809.715,-276.411C785.913,-240.848 756.564,-205.988 721.924,-181 699.55,-164.861 671.294,-154.234 645.68,-147.307"/>
<polygon fill="none" stroke="#404040" points="645.377,-147.231 638.579,-149.637 633.743,-144.288 640.541,-141.882 645.377,-147.231"/>
<text text-anchor="middle" x="827.424" y="-222.5" font-family="Helvetica,sans-Serif" font-size="10.00"> +OwningActor</text>
<text text-anchor="middle" x="827.424" y="-211.5" font-family="Helvetica,sans-Serif" font-size="10.00">+ViewTarget</text>
</g>
<!-- Node16&#45;&gt;Node16 -->
<g id="edge14" class="edge"><title>Node16&#45;&gt;Node16</title>
<path fill="none" stroke="#404040" d="M967.544,-459.851C978.311,-453.981 985.424,-442.697 985.424,-426 985.424,-415.042 982.361,-406.416 977.212,-400.122"/>
<polygon fill="none" stroke="#404040" points="976.802,-399.784 969.628,-399.052 967.544,-392.149 974.718,-392.88 976.802,-399.784"/>
<text text-anchor="middle" x="1003.92" y="-423.5" font-family="Helvetica,sans-Serif" font-size="10.00"> +Owner</text>
</g>
<!-- Node46 -->
<g id="node9" class="node"><title>Node46</title>
<g id="a_node9"><a xlink:href="a25611.html" target="_top" xlink:title=" ">
<polygon fill="none" stroke="black" points="1222.92,-733.5 1222.92,-845.5 1326.92,-845.5 1326.92,-733.5 1222.92,-733.5"/>
<text text-anchor="start" x="1230.92" y="-833.5" font-family="Helvetica,sans-Serif" font-size="10.00">SDK::TArray&lt; class</text>
<text text-anchor="middle" x="1274.92" y="-822.5" font-family="Helvetica,sans-Serif" font-size="10.00"> SDK::AActor * &gt;</text>
<polyline fill="none" stroke="black" points="1222.92,-815.5 1326.92,-815.5 "/>
<text text-anchor="middle" x="1274.92" y="-803.5" font-family="Helvetica,sans-Serif" font-size="10.00"> </text>
<polyline fill="none" stroke="black" points="1222.92,-796.5 1326.92,-796.5 "/>
<text text-anchor="start" x="1230.92" y="-784.5" font-family="Helvetica,sans-Serif" font-size="10.00">+ TArray()</text>
<text text-anchor="start" x="1230.92" y="-773.5" font-family="Helvetica,sans-Serif" font-size="10.00">+ Num()</text>
<text text-anchor="start" x="1230.92" y="-762.5" font-family="Helvetica,sans-Serif" font-size="10.00">+ operator[]()</text>
<text text-anchor="start" x="1230.92" y="-751.5" font-family="Helvetica,sans-Serif" font-size="10.00">+ operator[]()</text>
<text text-anchor="start" x="1230.92" y="-740.5" font-family="Helvetica,sans-Serif" font-size="10.00">+ IsValidIndex()</text>
</a>
</g>
</g>
<!-- Node46&#45;&gt;Node1 -->
<g id="edge20" class="edge"><title>Node46&#45;&gt;Node1</title>
<path fill="none" stroke="#404040" d="M1313.12,-733.361C1389.86,-615.245 1543.44,-335.968 1396.92,-181 1371.27,-153.865 838.315,-140.333 645.652,-136.315"/>
<polygon fill="none" stroke="#404040" points="645.46,-136.311 639.379,-140.186 633.463,-136.064 639.544,-132.188 645.46,-136.311"/>
<text text-anchor="middle" x="1499.42" y="-423.5" font-family="Helvetica,sans-Serif" font-size="10.00"> +SentTemporaries</text>
</g>
<!-- Node46&#45;&gt;Node16 -->
<g id="edge16" class="edge"><title>Node46&#45;&gt;Node16</title>
<path fill="none" stroke="#404040" d="M1228.49,-733.483C1193.58,-693.279 1143.74,-638.278 1095.92,-594 1058.85,-559.662 1015.38,-524.613 977.485,-495.548"/>
<polygon fill="none" stroke="#404040" points="977.009,-495.185 969.812,-494.724 967.469,-487.905 974.666,-488.365 977.009,-495.185"/>
<text text-anchor="middle" x="1274.42" y="-657.5" font-family="Helvetica,sans-Serif" font-size="10.00"> +ChildActorInterfaceProviders</text>
<text text-anchor="middle" x="1274.42" y="-646.5" font-family="Helvetica,sans-Serif" font-size="10.00">+Children</text>
</g>
<!-- Node341&#45;&gt;Node1 -->
<g id="edge18" class="edge"><title>Node341&#45;&gt;Node1</title>
<path fill="none" stroke="#404040" d="M717.394,-397.381C704.522,-367.139 682.636,-317.43 660.924,-276 642.242,-240.351 618.603,-201.116 601.165,-173.104"/>
<polygon fill="none" stroke="#404040" points="600.942,-172.749 594.368,-169.786 594.574,-162.578 601.148,-165.541 600.942,-172.749"/>
<text text-anchor="middle" x="684.424" y="-217" font-family="Helvetica,sans-Serif" font-size="10.00"> +PackageMap</text>
</g>
<!-- Node342 -->
<g id="node11" class="node"><title>Node342</title>
<g id="a_node11"><a xlink:href="a25611.html" target="_top" xlink:title=" ">
<polygon fill="none" stroke="black" points="336.924,-370 336.924,-482 440.924,-482 440.924,-370 336.924,-370"/>
<text text-anchor="start" x="344.924" y="-470" font-family="Helvetica,sans-Serif" font-size="10.00">SDK::TArray&lt; class</text>
<text text-anchor="middle" x="388.924" y="-459" font-family="Helvetica,sans-Serif" font-size="10.00"> SDK::UChannel * &gt;</text>
<polyline fill="none" stroke="black" points="336.924,-452 440.924,-452 "/>
<text text-anchor="middle" x="388.924" y="-440" font-family="Helvetica,sans-Serif" font-size="10.00"> </text>
<polyline fill="none" stroke="black" points="336.924,-433 440.924,-433 "/>
<text text-anchor="start" x="344.924" y="-421" font-family="Helvetica,sans-Serif" font-size="10.00">+ TArray()</text>
<text text-anchor="start" x="344.924" y="-410" font-family="Helvetica,sans-Serif" font-size="10.00">+ Num()</text>
<text text-anchor="start" x="344.924" y="-399" font-family="Helvetica,sans-Serif" font-size="10.00">+ operator[]()</text>
<text text-anchor="start" x="344.924" y="-388" font-family="Helvetica,sans-Serif" font-size="10.00">+ operator[]()</text>
<text text-anchor="start" x="344.924" y="-377" font-family="Helvetica,sans-Serif" font-size="10.00">+ IsValidIndex()</text>
</a>
</g>
</g>
<!-- Node342&#45;&gt;Node1 -->
<g id="edge21" class="edge"><title>Node342&#45;&gt;Node1</title>
<path fill="none" stroke="#404040" d="M383.417,-369.899C381.113,-315.409 386.524,-232.866 431.924,-181 451.168,-159.016 480.858,-147.442 508.372,-141.386"/>
<polygon fill="none" stroke="#404040" points="508.624,-141.337 513.749,-136.264 520.403,-139.044 515.278,-144.117 508.624,-141.337"/>
<text text-anchor="middle" x="485.924" y="-222.5" font-family="Helvetica,sans-Serif" font-size="10.00"> +OpenChannels</text>
<text text-anchor="middle" x="485.924" y="-211.5" font-family="Helvetica,sans-Serif" font-size="10.00">+DeferredCloseChannels</text>
</g>
</g>
</svg>
