<?xml version="1.0" encoding="UTF-8" standalone="no"?>
<!DOCTYPE svg PUBLIC "-//W3C//DTD SVG 1.1//EN"
 "http://www.w3.org/Graphics/SVG/1.1/DTD/svg11.dtd">
<!-- Generated by graphviz version 2.38.0 (20140413.2041)
 -->
<!-- Title: SDK::UUserDefinedStruct Pages: 1 -->
<svg width="328pt" height="254pt"
 viewBox="0.00 0.00 327.50 254.00" xmlns="http://www.w3.org/2000/svg" xmlns:xlink="http://www.w3.org/1999/xlink">
<g id="graph0" class="graph" transform="scale(1 1) rotate(0) translate(4 250)">
<title>SDK::UUserDefinedStruct</title>
<!-- Node1 -->
<g id="node1" class="node"><title>Node1</title>
<g id="a_node1"><a xlink:title=" ">
<polygon fill="#bfbfbf" stroke="black" points="99.5,-94.5 99.5,-151.5 227.5,-151.5 227.5,-94.5 99.5,-94.5"/>
<text text-anchor="middle" x="163.5" y="-139.5" font-family="Helvetica,sans-Serif" font-size="10.00">SDK::UUserDefinedStruct</text>
<polyline fill="none" stroke="black" points="99.5,-132.5 227.5,-132.5 "/>
<text text-anchor="start" x="107.5" y="-120.5" font-family="Helvetica,sans-Serif" font-size="10.00">+ Guid</text>
<polyline fill="none" stroke="black" points="99.5,-113.5 227.5,-113.5 "/>
<text text-anchor="start" x="107.5" y="-101.5" font-family="Helvetica,sans-Serif" font-size="10.00">+ StaticClass()</text>
</a>
</g>
</g>
<!-- Node6 -->
<g id="node3" class="node"><title>Node6</title>
<g id="a_node3"><a xlink:href="a00959.html" target="_top" xlink:title=" ">
<polygon fill="none" stroke="black" points="0,-0.5 0,-57.5 159,-57.5 159,-0.5 0,-0.5"/>
<text text-anchor="middle" x="79.5" y="-45.5" font-family="Helvetica,sans-Serif" font-size="10.00">SDK::UAISenseBlueprintListener</text>
<polyline fill="none" stroke="black" points="0,-38.5 159,-38.5 "/>
<text text-anchor="middle" x="79.5" y="-26.5" font-family="Helvetica,sans-Serif" font-size="10.00"> </text>
<polyline fill="none" stroke="black" points="0,-19.5 159,-19.5 "/>
<text text-anchor="start" x="8" y="-7.5" font-family="Helvetica,sans-Serif" font-size="10.00">+ StaticClass()</text>
</a>
</g>
</g>
<!-- Node1&#45;&gt;Node6 -->
<g id="edge2" class="edge"><title>Node1&#45;&gt;Node6</title>
<path fill="none" stroke="midnightblue" d="M131.372,-86.8124C122.532,-77.1299 113.072,-66.7699 104.685,-57.5836"/>
<polygon fill="none" stroke="midnightblue" points="128.97,-89.372 138.297,-94.397 134.139,-84.6521 128.97,-89.372"/>
</g>
<!-- Node7 -->
<g id="node4" class="node"><title>Node7</title>
<g id="a_node4"><a xlink:href="a29847.html" target="_top" xlink:title=" ">
<polygon fill="none" stroke="black" points="177.5,-0.5 177.5,-57.5 319.5,-57.5 319.5,-0.5 177.5,-0.5"/>
<text text-anchor="middle" x="248.5" y="-45.5" font-family="Helvetica,sans-Serif" font-size="10.00">SDK::UAnimDataEntryStruct</text>
<polyline fill="none" stroke="black" points="177.5,-38.5 319.5,-38.5 "/>
<text text-anchor="middle" x="248.5" y="-26.5" font-family="Helvetica,sans-Serif" font-size="10.00"> </text>
<polyline fill="none" stroke="black" points="177.5,-19.5 319.5,-19.5 "/>
<text text-anchor="start" x="185.5" y="-7.5" font-family="Helvetica,sans-Serif" font-size="10.00">+ StaticClass()</text>
</a>
</g>
</g>
<!-- Node1&#45;&gt;Node7 -->
<g id="edge3" class="edge"><title>Node1&#45;&gt;Node7</title>
<path fill="none" stroke="midnightblue" d="M196.01,-86.8124C204.956,-77.1299 214.528,-66.7699 223.015,-57.5836"/>
<polygon fill="none" stroke="midnightblue" points="193.218,-84.6768 189.003,-94.397 198.36,-89.4271 193.218,-84.6768"/>
</g>
<!-- Node2 -->
<g id="node2" class="node"><title>Node2</title>
<g id="a_node2"><a xlink:href="a25907.html" target="_top" xlink:title=" ">
<polygon fill="none" stroke="red" points="113,-188.5 113,-245.5 214,-245.5 214,-188.5 113,-188.5"/>
<text text-anchor="middle" x="163.5" y="-233.5" font-family="Helvetica,sans-Serif" font-size="10.00">SDK::UScriptStruct</text>
<polyline fill="none" stroke="red" points="113,-226.5 214,-226.5 "/>
<text text-anchor="start" x="121" y="-214.5" font-family="Helvetica,sans-Serif" font-size="10.00">+ UnknownData00</text>
<polyline fill="none" stroke="red" points="113,-207.5 214,-207.5 "/>
<text text-anchor="start" x="121" y="-195.5" font-family="Helvetica,sans-Serif" font-size="10.00">+ StaticClass()</text>
</a>
</g>
</g>
<!-- Node2&#45;&gt;Node1 -->
<g id="edge1" class="edge"><title>Node2&#45;&gt;Node1</title>
<path fill="none" stroke="midnightblue" d="M163.5,-178.209C163.5,-169.293 163.5,-159.951 163.5,-151.584"/>
<polygon fill="none" stroke="midnightblue" points="160,-178.397 163.5,-188.397 167,-178.397 160,-178.397"/>
</g>
</g>
</svg>
