<?xml version="1.0" encoding="UTF-8" standalone="no"?>
<!DOCTYPE svg PUBLIC "-//W3C//DTD SVG 1.1//EN"
 "http://www.w3.org/Graphics/SVG/1.1/DTD/svg11.dtd">
<!-- Generated by graphviz version 2.38.0 (20140413.2041)
 -->
<!-- Title: SDK::UFeatureToggledStringAssetReference Pages: 1 -->
<svg width="403pt" height="248pt"
 viewBox="0.00 0.00 402.50 248.00" xmlns="http://www.w3.org/2000/svg" xmlns:xlink="http://www.w3.org/1999/xlink">
<g id="graph0" class="graph" transform="scale(1 1) rotate(0) translate(4 244)">
<title>SDK::UFeatureToggledStringAssetReference</title>
<!-- Node1 -->
<g id="node1" class="node"><title>Node1</title>
<g id="a_node1"><a xlink:title=" ">
<polygon fill="#bfbfbf" stroke="black" points="101.5,-0.5 101.5,-68.5 243.5,-68.5 243.5,-0.5 101.5,-0.5"/>
<text text-anchor="start" x="109.5" y="-56.5" font-family="Helvetica,sans-Serif" font-size="10.00">SDK::UFeatureToggledString</text>
<text text-anchor="middle" x="172.5" y="-45.5" font-family="Helvetica,sans-Serif" font-size="10.00">AssetReference</text>
<polyline fill="none" stroke="black" points="101.5,-38.5 243.5,-38.5 "/>
<text text-anchor="middle" x="172.5" y="-26.5" font-family="Helvetica,sans-Serif" font-size="10.00"> </text>
<polyline fill="none" stroke="black" points="101.5,-19.5 243.5,-19.5 "/>
<text text-anchor="start" x="109.5" y="-7.5" font-family="Helvetica,sans-Serif" font-size="10.00">+ StaticClass()</text>
</a>
</g>
</g>
<!-- Node2 -->
<g id="node2" class="node"><title>Node2</title>
<g id="a_node2"><a xlink:href="a26559.html" target="_top" xlink:title=" ">
<polygon fill="none" stroke="red" points="0,-149.5 0,-206.5 95,-206.5 95,-149.5 0,-149.5"/>
<text text-anchor="middle" x="47.5" y="-194.5" font-family="Helvetica,sans-Serif" font-size="10.00">SDK::UDataAsset</text>
<polyline fill="none" stroke="red" points="0,-187.5 95,-187.5 "/>
<text text-anchor="middle" x="47.5" y="-175.5" font-family="Helvetica,sans-Serif" font-size="10.00"> </text>
<polyline fill="none" stroke="red" points="0,-168.5 95,-168.5 "/>
<text text-anchor="start" x="8" y="-156.5" font-family="Helvetica,sans-Serif" font-size="10.00">+ StaticClass()</text>
</a>
</g>
</g>
<!-- Node2&#45;&gt;Node1 -->
<g id="edge1" class="edge"><title>Node2&#45;&gt;Node1</title>
<path fill="none" stroke="midnightblue" d="M78.6472,-141.741C98.4508,-119.324 123.922,-90.4903 143.331,-68.5192"/>
<polygon fill="none" stroke="midnightblue" points="75.8955,-139.57 71.898,-149.381 81.1417,-144.204 75.8955,-139.57"/>
</g>
<!-- Node9 -->
<g id="node3" class="node"><title>Node9</title>
<g id="a_node3"><a xlink:href="a26127.html" target="_top" xlink:title=" ">
<polygon fill="none" stroke="red" points="113,-138.5 113,-217.5 232,-217.5 232,-138.5 113,-138.5"/>
<text text-anchor="middle" x="172.5" y="-205.5" font-family="Helvetica,sans-Serif" font-size="10.00">SDK::UClass</text>
<polyline fill="none" stroke="red" points="113,-198.5 232,-198.5 "/>
<text text-anchor="middle" x="172.5" y="-186.5" font-family="Helvetica,sans-Serif" font-size="10.00"> </text>
<polyline fill="none" stroke="red" points="113,-179.5 232,-179.5 "/>
<text text-anchor="start" x="121" y="-167.5" font-family="Helvetica,sans-Serif" font-size="10.00">+ CreateDefaultObject()</text>
<text text-anchor="start" x="121" y="-156.5" font-family="Helvetica,sans-Serif" font-size="10.00">+ CreateDefaultObject()</text>
<text text-anchor="start" x="121" y="-145.5" font-family="Helvetica,sans-Serif" font-size="10.00">+ StaticClass()</text>
</a>
</g>
</g>
<!-- Node9&#45;&gt;Node1 -->
<g id="edge2" class="edge"><title>Node9&#45;&gt;Node1</title>
<path fill="none" stroke="#404040" d="M172.5,-138.335C172.5,-120.565 172.5,-99.3687 172.5,-80.8499"/>
<polygon fill="none" stroke="#404040" points="172.5,-80.832 168.5,-74.832 172.5,-68.832 176.5,-74.8319 172.5,-80.832"/>
<text text-anchor="middle" x="200" y="-90" font-family="Helvetica,sans-Serif" font-size="10.00"> +ClassType</text>
</g>
<!-- Node14 -->
<g id="node4" class="node"><title>Node14</title>
<g id="a_node4"><a xlink:href="a25823.html" target="_top" xlink:title=" ">
<polygon fill="none" stroke="black" points="250.5,-116.5 250.5,-239.5 394.5,-239.5 394.5,-116.5 250.5,-116.5"/>
<text text-anchor="start" x="258.5" y="-227.5" font-family="Helvetica,sans-Serif" font-size="10.00">SDK::TArray&lt; struct</text>
<text text-anchor="start" x="258.5" y="-216.5" font-family="Helvetica,sans-Serif" font-size="10.00"> SDK::FFeatureToggledString</text>
<text text-anchor="middle" x="322.5" y="-205.5" font-family="Helvetica,sans-Serif" font-size="10.00">AssetReferenceEntry &gt;</text>
<polyline fill="none" stroke="black" points="250.5,-198.5 394.5,-198.5 "/>
<text text-anchor="middle" x="322.5" y="-186.5" font-family="Helvetica,sans-Serif" font-size="10.00"> </text>
<polyline fill="none" stroke="black" points="250.5,-179.5 394.5,-179.5 "/>
<text text-anchor="start" x="258.5" y="-167.5" font-family="Helvetica,sans-Serif" font-size="10.00">+ TArray()</text>
<text text-anchor="start" x="258.5" y="-156.5" font-family="Helvetica,sans-Serif" font-size="10.00">+ Num()</text>
<text text-anchor="start" x="258.5" y="-145.5" font-family="Helvetica,sans-Serif" font-size="10.00">+ operator[]()</text>
<text text-anchor="start" x="258.5" y="-134.5" font-family="Helvetica,sans-Serif" font-size="10.00">+ operator[]()</text>
<text text-anchor="start" x="258.5" y="-123.5" font-family="Helvetica,sans-Serif" font-size="10.00">+ IsValidIndex()</text>
</a>
</g>
</g>
<!-- Node14&#45;&gt;Node1 -->
<g id="edge3" class="edge"><title>Node14&#45;&gt;Node1</title>
<path fill="none" stroke="#404040" d="M262.314,-116.437C252.133,-106.492 241.592,-96.378 231.5,-87 227.858,-83.616 224.054,-80.1481 220.206,-76.6893"/>
<polygon fill="none" stroke="#404040" points="220.172,-76.6587 213.031,-75.6564 211.209,-68.6791 218.351,-69.6814 220.172,-76.6587"/>
<text text-anchor="middle" x="262.5" y="-90" font-family="Helvetica,sans-Serif" font-size="10.00"> +Entries</text>
</g>
</g>
</svg>
