<?xml version="1.0" encoding="UTF-8" standalone="no"?>
<!DOCTYPE svg PUBLIC "-//W3C//DTD SVG 1.1//EN"
 "http://www.w3.org/Graphics/SVG/1.1/DTD/svg11.dtd">
<!-- Generated by graphviz version 2.38.0 (20140413.2041)
 -->
<!-- Title: SDK::UNavArea Pages: 1 -->
<!--zoomable 529 -->
<svg id="main" version="1.1" xmlns="http://www.w3.org/2000/svg" xmlns:xlink="http://www.w3.org/1999/xlink" xml:space="preserve" onload="init(evt)">
<style type="text/css"><![CDATA[
.edge:hover path { stroke: red; }
.edge:hover polygon { stroke: red; fill: red; }
]]></style>
<script type="text/javascript"><![CDATA[
var edges = document.getElementsByTagName('g');
if (edges && edges.length) {
  for (var i=0;i<edges.length;i++) {
    if (edges[i].id.substr(0,4)=='edge') {
      edges[i].setAttribute('class','edge');
    }
  }
}
]]></script>
        <defs>
                <circle id="rim" cx="0" cy="0" r="7"/>
                <circle id="rim2" cx="0" cy="0" r="3.5"/>
                <g id="zoomPlus">
                        <use xlink:href="#rim" fill="#404040">
                                <set attributeName="fill" to="#808080" begin="zoomplus.mouseover" end="zoomplus.mouseout"/>
                        </use>
                        <path d="M-4,0h8M0,-4v8" fill="none" stroke="white" stroke-width="1.5" pointer-events="none"/>
                </g>
                <g id="zoomMin">
                        <use xlink:href="#rim" fill="#404040">
                                <set attributeName="fill" to="#808080" begin="zoomminus.mouseover" end="zoomminus.mouseout"/>
                        </use>
                        <path d="M-4,0h8" fill="none" stroke="white" stroke-width="1.5" pointer-events="none"/>
                </g>
                <g id="dirArrow">
                        <path fill="none" stroke="white" stroke-width="1.5" d="M0,-3.0v7 M-2.5,-0.5L0,-3.0L2.5,-0.5"/>
                </g>
               <g id="resetDef">
                       <use xlink:href="#rim2" fill="#404040">
                               <set attributeName="fill" to="#808080" begin="reset.mouseover" end="reset.mouseout"/>
                       </use>
               </g>
        </defs>

<script type="text/javascript">
var viewWidth = 683;
var viewHeight = 529;
var sectionId = 'dynsection-0';
</script>
<script xlink:href="svgpan.js"/>
<svg id="graph" class="graph">
<g id="viewport">
<title>SDK::UNavArea</title>
<!-- Node1 -->
<g id="node1" class="node"><title>Node1</title>
<g id="a_node1"><a xlink:title=" ">
<polygon fill="#bfbfbf" stroke="black" points="284.5,-94.5 284.5,-261.5 410.5,-261.5 410.5,-94.5 284.5,-94.5"/>
<text text-anchor="middle" x="347.5" y="-249.5" font-family="Helvetica,sans-Serif" font-size="10.00">SDK::UNavArea</text>
<polyline fill="none" stroke="black" points="284.5,-242.5 410.5,-242.5 "/>
<text text-anchor="start" x="292.5" y="-230.5" font-family="Helvetica,sans-Serif" font-size="10.00">+ DefaultCost</text>
<text text-anchor="start" x="292.5" y="-219.5" font-family="Helvetica,sans-Serif" font-size="10.00">+ FixedAreaEnteringCost</text>
<text text-anchor="start" x="292.5" y="-208.5" font-family="Helvetica,sans-Serif" font-size="10.00">+ DrawColor</text>
<text text-anchor="start" x="292.5" y="-197.5" font-family="Helvetica,sans-Serif" font-size="10.00">+ SupportedAgents</text>
<text text-anchor="start" x="292.5" y="-186.5" font-family="Helvetica,sans-Serif" font-size="10.00">+ bSupportsAgent0</text>
<text text-anchor="start" x="292.5" y="-175.5" font-family="Helvetica,sans-Serif" font-size="10.00">+ bSupportsAgent1</text>
<text text-anchor="start" x="292.5" y="-164.5" font-family="Helvetica,sans-Serif" font-size="10.00">+ bSupportsAgent2</text>
<text text-anchor="start" x="292.5" y="-153.5" font-family="Helvetica,sans-Serif" font-size="10.00">+ bSupportsAgent3</text>
<text text-anchor="start" x="292.5" y="-142.5" font-family="Helvetica,sans-Serif" font-size="10.00">+ bSupportsAgent4</text>
<text text-anchor="start" x="292.5" y="-131.5" font-family="Helvetica,sans-Serif" font-size="10.00">+ bSupportsAgent5</text>
<text text-anchor="start" x="292.5" y="-120.5" font-family="Helvetica,sans-Serif" font-size="10.00">and 11 more...</text>
<polyline fill="none" stroke="black" points="284.5,-113.5 410.5,-113.5 "/>
<text text-anchor="start" x="292.5" y="-101.5" font-family="Helvetica,sans-Serif" font-size="10.00">+ StaticClass()</text>
</a>
</g>
</g>
<!-- Node3 -->
<g id="node3" class="node"><title>Node3</title>
<g id="a_node3"><a xlink:href="a28927.html" target="_top" xlink:title=" ">
<polygon fill="none" stroke="black" points="0,-0.5 0,-57.5 121,-57.5 121,-0.5 0,-0.5"/>
<text text-anchor="middle" x="60.5" y="-45.5" font-family="Helvetica,sans-Serif" font-size="10.00">SDK::UNavArea_Default</text>
<polyline fill="none" stroke="black" points="0,-38.5 121,-38.5 "/>
<text text-anchor="middle" x="60.5" y="-26.5" font-family="Helvetica,sans-Serif" font-size="10.00"> </text>
<polyline fill="none" stroke="black" points="0,-19.5 121,-19.5 "/>
<text text-anchor="start" x="8" y="-7.5" font-family="Helvetica,sans-Serif" font-size="10.00">+ StaticClass()</text>
</a>
</g>
</g>
<!-- Node1&#45;&gt;Node3 -->
<g id="edge2" class="edge"><title>Node1&#45;&gt;Node3</title>
<path fill="none" stroke="midnightblue" d="M275.029,-139.881C225.121,-114.318 159.884,-80.9039 114.511,-57.6644"/>
<polygon fill="none" stroke="midnightblue" points="273.665,-143.115 284.161,-144.558 276.856,-136.884 273.665,-143.115"/>
</g>
<!-- Node4 -->
<g id="node4" class="node"><title>Node4</title>
<g id="a_node4"><a xlink:href="a28931.html" target="_top" xlink:title=" ">
<polygon fill="none" stroke="black" points="139.5,-0.5 139.5,-57.5 275.5,-57.5 275.5,-0.5 139.5,-0.5"/>
<text text-anchor="middle" x="207.5" y="-45.5" font-family="Helvetica,sans-Serif" font-size="10.00">SDK::UNavArea_LowHeight</text>
<polyline fill="none" stroke="black" points="139.5,-38.5 275.5,-38.5 "/>
<text text-anchor="middle" x="207.5" y="-26.5" font-family="Helvetica,sans-Serif" font-size="10.00"> </text>
<polyline fill="none" stroke="black" points="139.5,-19.5 275.5,-19.5 "/>
<text text-anchor="start" x="147.5" y="-7.5" font-family="Helvetica,sans-Serif" font-size="10.00">+ StaticClass()</text>
</a>
</g>
</g>
<!-- Node1&#45;&gt;Node4 -->
<g id="edge3" class="edge"><title>Node1&#45;&gt;Node4</title>
<path fill="none" stroke="midnightblue" d="M277.327,-103.319C261.776,-86.9899 246.236,-70.6729 233.778,-57.5916"/>
<polygon fill="none" stroke="midnightblue" points="275.031,-105.983 284.462,-110.811 280.1,-101.155 275.031,-105.983"/>
</g>
<!-- Node5 -->
<g id="node5" class="node"><title>Node5</title>
<g id="a_node5"><a xlink:href="a28935.html" target="_top" xlink:title=" ">
<polygon fill="none" stroke="black" points="294,-0.5 294,-57.5 401,-57.5 401,-0.5 294,-0.5"/>
<text text-anchor="middle" x="347.5" y="-45.5" font-family="Helvetica,sans-Serif" font-size="10.00">SDK::UNavArea_Null</text>
<polyline fill="none" stroke="black" points="294,-38.5 401,-38.5 "/>
<text text-anchor="middle" x="347.5" y="-26.5" font-family="Helvetica,sans-Serif" font-size="10.00"> </text>
<polyline fill="none" stroke="black" points="294,-19.5 401,-19.5 "/>
<text text-anchor="start" x="302" y="-7.5" font-family="Helvetica,sans-Serif" font-size="10.00">+ StaticClass()</text>
</a>
</g>
</g>
<!-- Node1&#45;&gt;Node5 -->
<g id="edge4" class="edge"><title>Node1&#45;&gt;Node5</title>
<path fill="none" stroke="midnightblue" d="M347.5,-84.3602C347.5,-74.7858 347.5,-65.6772 347.5,-57.7481"/>
<polygon fill="none" stroke="midnightblue" points="344,-84.4763 347.5,-94.4763 351,-84.4764 344,-84.4763"/>
</g>
<!-- Node6 -->
<g id="node6" class="node"><title>Node6</title>
<g id="a_node6"><a xlink:href="a28939.html" target="_top" xlink:title=" ">
<polygon fill="none" stroke="black" points="419.5,-0.5 419.5,-57.5 549.5,-57.5 549.5,-0.5 419.5,-0.5"/>
<text text-anchor="middle" x="484.5" y="-45.5" font-family="Helvetica,sans-Serif" font-size="10.00">SDK::UNavArea_Obstacle</text>
<polyline fill="none" stroke="black" points="419.5,-38.5 549.5,-38.5 "/>
<text text-anchor="middle" x="484.5" y="-26.5" font-family="Helvetica,sans-Serif" font-size="10.00"> </text>
<polyline fill="none" stroke="black" points="419.5,-19.5 549.5,-19.5 "/>
<text text-anchor="start" x="427.5" y="-7.5" font-family="Helvetica,sans-Serif" font-size="10.00">+ StaticClass()</text>
</a>
</g>
</g>
<!-- Node1&#45;&gt;Node6 -->
<g id="edge5" class="edge"><title>Node1&#45;&gt;Node6</title>
<path fill="none" stroke="midnightblue" d="M417.958,-101.399C432.571,-85.719 447.066,-70.1668 458.778,-57.5997"/>
<polygon fill="none" stroke="midnightblue" points="415.044,-99.392 410.787,-109.094 420.165,-104.165 415.044,-99.392"/>
</g>
<!-- Node7 -->
<g id="node7" class="node"><title>Node7</title>
<g id="a_node7"><a xlink:href="a28943.html" target="_top" xlink:title=" ">
<polygon fill="none" stroke="red" points="568,-0.5 568,-57.5 675,-57.5 675,-0.5 568,-0.5"/>
<text text-anchor="middle" x="621.5" y="-45.5" font-family="Helvetica,sans-Serif" font-size="10.00">SDK::UNavAreaMeta</text>
<polyline fill="none" stroke="red" points="568,-38.5 675,-38.5 "/>
<text text-anchor="middle" x="621.5" y="-26.5" font-family="Helvetica,sans-Serif" font-size="10.00"> </text>
<polyline fill="none" stroke="red" points="568,-19.5 675,-19.5 "/>
<text text-anchor="start" x="576" y="-7.5" font-family="Helvetica,sans-Serif" font-size="10.00">+ StaticClass()</text>
</a>
</g>
</g>
<!-- Node1&#45;&gt;Node7 -->
<g id="edge6" class="edge"><title>Node1&#45;&gt;Node7</title>
<path fill="none" stroke="midnightblue" d="M419.673,-138.279C466.965,-112.908 527.65,-80.3503 570.075,-57.5896"/>
<polygon fill="none" stroke="midnightblue" points="417.862,-135.279 410.705,-143.091 421.172,-141.447 417.862,-135.279"/>
</g>
<!-- Node2 -->
<g id="node2" class="node"><title>Node2</title>
<g id="a_node2"><a xlink:href="a25883.html" target="_top" xlink:title=" ">
<polygon fill="none" stroke="black" points="291.5,-298.5 291.5,-520.5 403.5,-520.5 403.5,-298.5 291.5,-298.5"/>
<text text-anchor="middle" x="347.5" y="-508.5" font-family="Helvetica,sans-Serif" font-size="10.00">SDK::UObject</text>
<polyline fill="none" stroke="black" points="291.5,-501.5 403.5,-501.5 "/>
<text text-anchor="start" x="299.5" y="-489.5" font-family="Helvetica,sans-Serif" font-size="10.00">+ Vtable</text>
<text text-anchor="start" x="299.5" y="-478.5" font-family="Helvetica,sans-Serif" font-size="10.00">+ ObjectFlags</text>
<text text-anchor="start" x="299.5" y="-467.5" font-family="Helvetica,sans-Serif" font-size="10.00">+ InternalIndex</text>
<text text-anchor="start" x="299.5" y="-456.5" font-family="Helvetica,sans-Serif" font-size="10.00">+ Class</text>
<text text-anchor="start" x="299.5" y="-445.5" font-family="Helvetica,sans-Serif" font-size="10.00">+ Name</text>
<text text-anchor="start" x="299.5" y="-434.5" font-family="Helvetica,sans-Serif" font-size="10.00">+ Outer</text>
<text text-anchor="start" x="299.5" y="-423.5" font-family="Helvetica,sans-Serif" font-size="10.00">+ GObjects</text>
<polyline fill="none" stroke="black" points="291.5,-416.5 403.5,-416.5 "/>
<text text-anchor="start" x="299.5" y="-404.5" font-family="Helvetica,sans-Serif" font-size="10.00">+ GetName()</text>
<text text-anchor="start" x="299.5" y="-393.5" font-family="Helvetica,sans-Serif" font-size="10.00">+ GetFullName()</text>
<text text-anchor="start" x="299.5" y="-382.5" font-family="Helvetica,sans-Serif" font-size="10.00">+ IsA()</text>
<text text-anchor="start" x="299.5" y="-371.5" font-family="Helvetica,sans-Serif" font-size="10.00">+ ProcessEvent()</text>
<text text-anchor="start" x="299.5" y="-360.5" font-family="Helvetica,sans-Serif" font-size="10.00">+ ExecuteUbergraph()</text>
<text text-anchor="start" x="299.5" y="-349.5" font-family="Helvetica,sans-Serif" font-size="10.00">+ StaticClass()</text>
<text text-anchor="start" x="299.5" y="-338.5" font-family="Helvetica,sans-Serif" font-size="10.00">+ GetGlobalObjects()</text>
<text text-anchor="start" x="299.5" y="-327.5" font-family="Helvetica,sans-Serif" font-size="10.00">+ FindObject()</text>
<text text-anchor="start" x="299.5" y="-316.5" font-family="Helvetica,sans-Serif" font-size="10.00">+ FindClass()</text>
<text text-anchor="start" x="299.5" y="-305.5" font-family="Helvetica,sans-Serif" font-size="10.00">+ GetObjectCasted()</text>
</a>
</g>
</g>
<!-- Node2&#45;&gt;Node1 -->
<g id="edge1" class="edge"><title>Node2&#45;&gt;Node1</title>
<path fill="none" stroke="midnightblue" d="M347.5,-288.259C347.5,-279.235 347.5,-270.255 347.5,-261.546"/>
<polygon fill="none" stroke="midnightblue" points="344,-288.455 347.5,-298.455 351,-288.455 344,-288.455"/>
</g>
</g>
</svg>
        <g id="navigator" transform="translate(0 0)" fill="#404254">
                <rect fill="#f2f5e9" fill-opacity="0.5" stroke="#606060" stroke-width=".5" x="0" y="0" width="60" height="60"/>
                <use id="zoomplus" xlink:href="#zoomPlus" x="17" y="9" onmousedown="handleZoom(evt,'in')"/>
                <use id="zoomminus" xlink:href="#zoomMin" x="42" y="9" onmousedown="handleZoom(evt,'out')"/>
                <use id="reset" xlink:href="#resetDef" x="30" y="36" onmousedown="handleReset()"/>
                <g id="arrowUp" xlink:href="#dirArrow" transform="translate(30 24)" onmousedown="handlePan(0,-1)">
                  <use xlink:href="#rim" fill="#404040">
                        <set attributeName="fill" to="#808080" begin="arrowUp.mouseover" end="arrowUp.mouseout"/>
                  </use>
                  <path fill="none" stroke="white" stroke-width="1.5" d="M0,-3.0v7 M-2.5,-0.5L0,-3.0L2.5,-0.5"/>
                </g>
                <g id="arrowRight" xlink:href="#dirArrow" transform="rotate(90) translate(36 -43)" onmousedown="handlePan(1,0)">
                  <use xlink:href="#rim" fill="#404040">
                        <set attributeName="fill" to="#808080" begin="arrowRight.mouseover" end="arrowRight.mouseout"/>
                  </use>
                  <path fill="none" stroke="white" stroke-width="1.5" d="M0,-3.0v7 M-2.5,-0.5L0,-3.0L2.5,-0.5"/>
                </g>
                <g id="arrowDown" xlink:href="#dirArrow" transform="rotate(180) translate(-30 -48)" onmousedown="handlePan(0,1)">
                  <use xlink:href="#rim" fill="#404040">
                        <set attributeName="fill" to="#808080" begin="arrowDown.mouseover" end="arrowDown.mouseout"/>
                  </use>
                  <path fill="none" stroke="white" stroke-width="1.5" d="M0,-3.0v7 M-2.5,-0.5L0,-3.0L2.5,-0.5"/>
                </g>
                <g id="arrowLeft" xlink:href="#dirArrow" transform="rotate(270) translate(-36 17)" onmousedown="handlePan(-1,0)">
                  <use xlink:href="#rim" fill="#404040">
                        <set attributeName="fill" to="#808080" begin="arrowLeft.mouseover" end="arrowLeft.mouseout"/>
                  </use>
                  <path fill="none" stroke="white" stroke-width="1.5" d="M0,-3.0v7 M-2.5,-0.5L0,-3.0L2.5,-0.5"/>
                </g>
        </g>
        <svg viewBox="0 0 15 15" width="100%" height="30px" preserveAspectRatio="xMaxYMin meet">
         <g id="arrow_out" transform="scale(0.3 0.3)">
          <a xlink:href="a26746_org.svg" target="_base">
           <rect id="button" ry="5" rx="5" y="6" x="6" height="38" width="38"
                fill="#f2f5e9" fill-opacity="0.5" stroke="#606060" stroke-width="1.0"/>
           <path id="arrow"
             d="M 11.500037,31.436501 C 11.940474,20.09759 22.043105,11.32322 32.158766,21.979434 L 37.068811,17.246167 C 37.068811,17.246167 37.088388,32 37.088388,32 L 22.160133,31.978069 C 22.160133,31.978069 26.997745,27.140456 26.997745,27.140456 C 18.528582,18.264221 13.291696,25.230495 11.500037,31.436501 z"
             style="fill:#404040;"/>
          </a>
         </g>
        </svg>
</svg>
