<?xml version="1.0" encoding="UTF-8" standalone="no"?>
<!DOCTYPE svg PUBLIC "-//W3C//DTD SVG 1.1//EN"
 "http://www.w3.org/Graphics/SVG/1.1/DTD/svg11.dtd">
<!-- Generated by graphviz version 2.38.0 (20140413.2041)
 -->
<!-- Title: SDK::UBlueprint Pages: 1 -->
<svg width="274pt" height="496pt"
 viewBox="0.00 0.00 273.50 496.00" xmlns="http://www.w3.org/2000/svg" xmlns:xlink="http://www.w3.org/1999/xlink">
<g id="graph0" class="graph" transform="scale(1 1) rotate(0) translate(4 492)">
<title>SDK::UBlueprint</title>
<!-- Node1 -->
<g id="node1" class="node"><title>Node1</title>
<g id="a_node1"><a xlink:title=" ">
<polygon fill="#bfbfbf" stroke="black" points="40.5,-116.5 40.5,-327.5 213.5,-327.5 213.5,-116.5 40.5,-116.5"/>
<text text-anchor="middle" x="127" y="-315.5" font-family="Helvetica,sans-Serif" font-size="10.00">SDK::UBlueprint</text>
<polyline fill="none" stroke="black" points="40.5,-308.5 213.5,-308.5 "/>
<text text-anchor="start" x="48.5" y="-296.5" font-family="Helvetica,sans-Serif" font-size="10.00">+ bRecompileOnLoad</text>
<text text-anchor="start" x="48.5" y="-285.5" font-family="Helvetica,sans-Serif" font-size="10.00">+ UnknownData00</text>
<text text-anchor="start" x="48.5" y="-274.5" font-family="Helvetica,sans-Serif" font-size="10.00">+ ParentClass</text>
<text text-anchor="start" x="48.5" y="-263.5" font-family="Helvetica,sans-Serif" font-size="10.00">+ PRIVATE_InnermostPreviousCDO</text>
<text text-anchor="start" x="48.5" y="-252.5" font-family="Helvetica,sans-Serif" font-size="10.00">+ bHasBeenRegenerated</text>
<text text-anchor="start" x="48.5" y="-241.5" font-family="Helvetica,sans-Serif" font-size="10.00">+ bIsRegeneratingOnLoad</text>
<text text-anchor="start" x="48.5" y="-230.5" font-family="Helvetica,sans-Serif" font-size="10.00">+ UnknownData01</text>
<text text-anchor="start" x="48.5" y="-219.5" font-family="Helvetica,sans-Serif" font-size="10.00">+ SimpleConstructionScript</text>
<text text-anchor="start" x="48.5" y="-208.5" font-family="Helvetica,sans-Serif" font-size="10.00">+ ComponentTemplates</text>
<text text-anchor="start" x="48.5" y="-197.5" font-family="Helvetica,sans-Serif" font-size="10.00">+ Timelines</text>
<text text-anchor="start" x="48.5" y="-186.5" font-family="Helvetica,sans-Serif" font-size="10.00">+ InheritableComponentHandler</text>
<text text-anchor="start" x="48.5" y="-175.5" font-family="Helvetica,sans-Serif" font-size="10.00">+ BlueprintType</text>
<text text-anchor="start" x="48.5" y="-164.5" font-family="Helvetica,sans-Serif" font-size="10.00">+ UnknownData02</text>
<text text-anchor="start" x="48.5" y="-153.5" font-family="Helvetica,sans-Serif" font-size="10.00">+ BlueprintSystemVersion</text>
<text text-anchor="start" x="48.5" y="-142.5" font-family="Helvetica,sans-Serif" font-size="10.00">+ UnknownData03</text>
<polyline fill="none" stroke="black" points="40.5,-135.5 213.5,-135.5 "/>
<text text-anchor="start" x="48.5" y="-123.5" font-family="Helvetica,sans-Serif" font-size="10.00">+ StaticClass()</text>
</a>
</g>
</g>
<!-- Node4 -->
<g id="node3" class="node"><title>Node4</title>
<g id="a_node3"><a xlink:href="a27827.html" target="_top" xlink:title=" ">
<polygon fill="none" stroke="black" points="0,-0.5 0,-79.5 112,-79.5 112,-0.5 0,-0.5"/>
<text text-anchor="middle" x="56" y="-67.5" font-family="Helvetica,sans-Serif" font-size="10.00">SDK::UAnimBlueprint</text>
<polyline fill="none" stroke="black" points="0,-60.5 112,-60.5 "/>
<text text-anchor="start" x="8" y="-48.5" font-family="Helvetica,sans-Serif" font-size="10.00">+ TargetSkeleton</text>
<text text-anchor="start" x="8" y="-37.5" font-family="Helvetica,sans-Serif" font-size="10.00">+ Groups</text>
<text text-anchor="start" x="8" y="-26.5" font-family="Helvetica,sans-Serif" font-size="10.00">+ SkeletonSlotNames</text>
<polyline fill="none" stroke="black" points="0,-19.5 112,-19.5 "/>
<text text-anchor="start" x="8" y="-7.5" font-family="Helvetica,sans-Serif" font-size="10.00">+ StaticClass()</text>
</a>
</g>
</g>
<!-- Node1&#45;&gt;Node4 -->
<g id="edge2" class="edge"><title>Node1&#45;&gt;Node4</title>
<path fill="none" stroke="midnightblue" d="M82.0107,-106.943C78.2074,-97.3004 74.5609,-88.0557 71.264,-79.6974"/>
<polygon fill="none" stroke="midnightblue" points="78.7738,-108.275 85.699,-116.293 85.2855,-105.706 78.7738,-108.275"/>
</g>
<!-- Node5 -->
<g id="node4" class="node"><title>Node5</title>
<g id="a_node4"><a xlink:href="a27831.html" target="_top" xlink:title=" ">
<polygon fill="none" stroke="black" points="130.5,-11.5 130.5,-68.5 265.5,-68.5 265.5,-11.5 130.5,-11.5"/>
<text text-anchor="middle" x="198" y="-56.5" font-family="Helvetica,sans-Serif" font-size="10.00">SDK::ULevelScriptBlueprint</text>
<polyline fill="none" stroke="black" points="130.5,-49.5 265.5,-49.5 "/>
<text text-anchor="middle" x="198" y="-37.5" font-family="Helvetica,sans-Serif" font-size="10.00"> </text>
<polyline fill="none" stroke="black" points="130.5,-30.5 265.5,-30.5 "/>
<text text-anchor="start" x="138.5" y="-18.5" font-family="Helvetica,sans-Serif" font-size="10.00">+ StaticClass()</text>
</a>
</g>
</g>
<!-- Node1&#45;&gt;Node5 -->
<g id="edge3" class="edge"><title>Node1&#45;&gt;Node5</title>
<path fill="none" stroke="midnightblue" d="M172.014,-106.879C177.601,-92.7162 182.848,-79.414 187.144,-68.5218"/>
<polygon fill="none" stroke="midnightblue" points="168.714,-105.706 168.301,-116.293 175.226,-108.275 168.714,-105.706"/>
</g>
<!-- Node2 -->
<g id="node2" class="node"><title>Node2</title>
<g id="a_node2"><a xlink:href="a26863.html" target="_top" xlink:title=" ">
<polygon fill="none" stroke="red" points="30.5,-364.5 30.5,-487.5 223.5,-487.5 223.5,-364.5 30.5,-364.5"/>
<text text-anchor="middle" x="127" y="-475.5" font-family="Helvetica,sans-Serif" font-size="10.00">SDK::UBlueprintCore</text>
<polyline fill="none" stroke="red" points="30.5,-468.5 223.5,-468.5 "/>
<text text-anchor="start" x="38.5" y="-456.5" font-family="Helvetica,sans-Serif" font-size="10.00">+ SkeletonGeneratedClass</text>
<text text-anchor="start" x="38.5" y="-445.5" font-family="Helvetica,sans-Serif" font-size="10.00">+ GeneratedClass</text>
<text text-anchor="start" x="38.5" y="-434.5" font-family="Helvetica,sans-Serif" font-size="10.00">+ bLegacyNeedToPurgeSkelRefs</text>
<text text-anchor="start" x="38.5" y="-423.5" font-family="Helvetica,sans-Serif" font-size="10.00">+ bLegacyGeneratedClassIsAuthoritative</text>
<text text-anchor="start" x="38.5" y="-412.5" font-family="Helvetica,sans-Serif" font-size="10.00">+ UnknownData00</text>
<text text-anchor="start" x="38.5" y="-401.5" font-family="Helvetica,sans-Serif" font-size="10.00">+ BlueprintGuid</text>
<text text-anchor="start" x="38.5" y="-390.5" font-family="Helvetica,sans-Serif" font-size="10.00">+ UnknownData01</text>
<polyline fill="none" stroke="red" points="30.5,-383.5 223.5,-383.5 "/>
<text text-anchor="start" x="38.5" y="-371.5" font-family="Helvetica,sans-Serif" font-size="10.00">+ StaticClass()</text>
</a>
</g>
</g>
<!-- Node2&#45;&gt;Node1 -->
<g id="edge1" class="edge"><title>Node2&#45;&gt;Node1</title>
<path fill="none" stroke="midnightblue" d="M127,-354.12C127,-345.553 127,-336.668 127,-327.744"/>
<polygon fill="none" stroke="midnightblue" points="123.5,-354.393 127,-364.393 130.5,-354.393 123.5,-354.393"/>
</g>
</g>
</svg>
