<?xml version="1.0" encoding="UTF-8" standalone="no"?>
<!DOCTYPE svg PUBLIC "-//W3C//DTD SVG 1.1//EN"
 "http://www.w3.org/Graphics/SVG/1.1/DTD/svg11.dtd">
<!-- Generated by graphviz version 2.38.0 (20140413.2041)
 -->
<!-- Title: SDK::UNavLinkDefinition Pages: 1 -->
<svg width="131pt" height="441pt"
 viewBox="0.00 0.00 131.00 441.00" xmlns="http://www.w3.org/2000/svg" xmlns:xlink="http://www.w3.org/1999/xlink">
<g id="graph0" class="graph" transform="scale(1 1) rotate(0) translate(4 437)">
<title>SDK::UNavLinkDefinition</title>
<!-- Node1 -->
<g id="node1" class="node"><title>Node1</title>
<g id="a_node1"><a xlink:title=" ">
<polygon fill="#bfbfbf" stroke="black" points="0,-94.5 0,-173.5 123,-173.5 123,-94.5 0,-94.5"/>
<text text-anchor="middle" x="61.5" y="-161.5" font-family="Helvetica,sans-Serif" font-size="10.00">SDK::UNavLinkDefinition</text>
<polyline fill="none" stroke="black" points="0,-154.5 123,-154.5 "/>
<text text-anchor="start" x="8" y="-142.5" font-family="Helvetica,sans-Serif" font-size="10.00">+ Links</text>
<text text-anchor="start" x="8" y="-131.5" font-family="Helvetica,sans-Serif" font-size="10.00">+ SegmentLinks</text>
<text text-anchor="start" x="8" y="-120.5" font-family="Helvetica,sans-Serif" font-size="10.00">+ UnknownData00</text>
<polyline fill="none" stroke="black" points="0,-113.5 123,-113.5 "/>
<text text-anchor="start" x="8" y="-101.5" font-family="Helvetica,sans-Serif" font-size="10.00">+ StaticClass()</text>
</a>
</g>
</g>
<!-- Node3 -->
<g id="node3" class="node"><title>Node3</title>
<g id="a_node3"><a xlink:href="a28975.html" target="_top" xlink:title=" ">
<polygon fill="none" stroke="black" points="8,-0.5 8,-57.5 115,-57.5 115,-0.5 8,-0.5"/>
<text text-anchor="middle" x="61.5" y="-45.5" font-family="Helvetica,sans-Serif" font-size="10.00">SDK::UNavLinkTrivial</text>
<polyline fill="none" stroke="black" points="8,-38.5 115,-38.5 "/>
<text text-anchor="middle" x="61.5" y="-26.5" font-family="Helvetica,sans-Serif" font-size="10.00"> </text>
<polyline fill="none" stroke="black" points="8,-19.5 115,-19.5 "/>
<text text-anchor="start" x="16" y="-7.5" font-family="Helvetica,sans-Serif" font-size="10.00">+ StaticClass()</text>
</a>
</g>
</g>
<!-- Node1&#45;&gt;Node3 -->
<g id="edge2" class="edge"><title>Node1&#45;&gt;Node3</title>
<path fill="none" stroke="midnightblue" d="M61.5,-84.1628C61.5,-75.0404 61.5,-65.8063 61.5,-57.6095"/>
<polygon fill="none" stroke="midnightblue" points="58.0001,-84.3535 61.5,-94.3536 65.0001,-84.3536 58.0001,-84.3535"/>
</g>
<!-- Node2 -->
<g id="node2" class="node"><title>Node2</title>
<g id="a_node2"><a xlink:href="a25883.html" target="_top" xlink:title=" ">
<polygon fill="none" stroke="black" points="5.5,-210.5 5.5,-432.5 117.5,-432.5 117.5,-210.5 5.5,-210.5"/>
<text text-anchor="middle" x="61.5" y="-420.5" font-family="Helvetica,sans-Serif" font-size="10.00">SDK::UObject</text>
<polyline fill="none" stroke="black" points="5.5,-413.5 117.5,-413.5 "/>
<text text-anchor="start" x="13.5" y="-401.5" font-family="Helvetica,sans-Serif" font-size="10.00">+ Vtable</text>
<text text-anchor="start" x="13.5" y="-390.5" font-family="Helvetica,sans-Serif" font-size="10.00">+ ObjectFlags</text>
<text text-anchor="start" x="13.5" y="-379.5" font-family="Helvetica,sans-Serif" font-size="10.00">+ InternalIndex</text>
<text text-anchor="start" x="13.5" y="-368.5" font-family="Helvetica,sans-Serif" font-size="10.00">+ Class</text>
<text text-anchor="start" x="13.5" y="-357.5" font-family="Helvetica,sans-Serif" font-size="10.00">+ Name</text>
<text text-anchor="start" x="13.5" y="-346.5" font-family="Helvetica,sans-Serif" font-size="10.00">+ Outer</text>
<text text-anchor="start" x="13.5" y="-335.5" font-family="Helvetica,sans-Serif" font-size="10.00">+ GObjects</text>
<polyline fill="none" stroke="black" points="5.5,-328.5 117.5,-328.5 "/>
<text text-anchor="start" x="13.5" y="-316.5" font-family="Helvetica,sans-Serif" font-size="10.00">+ GetName()</text>
<text text-anchor="start" x="13.5" y="-305.5" font-family="Helvetica,sans-Serif" font-size="10.00">+ GetFullName()</text>
<text text-anchor="start" x="13.5" y="-294.5" font-family="Helvetica,sans-Serif" font-size="10.00">+ IsA()</text>
<text text-anchor="start" x="13.5" y="-283.5" font-family="Helvetica,sans-Serif" font-size="10.00">+ ProcessEvent()</text>
<text text-anchor="start" x="13.5" y="-272.5" font-family="Helvetica,sans-Serif" font-size="10.00">+ ExecuteUbergraph()</text>
<text text-anchor="start" x="13.5" y="-261.5" font-family="Helvetica,sans-Serif" font-size="10.00">+ StaticClass()</text>
<text text-anchor="start" x="13.5" y="-250.5" font-family="Helvetica,sans-Serif" font-size="10.00">+ GetGlobalObjects()</text>
<text text-anchor="start" x="13.5" y="-239.5" font-family="Helvetica,sans-Serif" font-size="10.00">+ FindObject()</text>
<text text-anchor="start" x="13.5" y="-228.5" font-family="Helvetica,sans-Serif" font-size="10.00">+ FindClass()</text>
<text text-anchor="start" x="13.5" y="-217.5" font-family="Helvetica,sans-Serif" font-size="10.00">+ GetObjectCasted()</text>
</a>
</g>
</g>
<!-- Node2&#45;&gt;Node1 -->
<g id="edge1" class="edge"><title>Node2&#45;&gt;Node1</title>
<path fill="none" stroke="midnightblue" d="M61.5,-200.427C61.5,-190.936 61.5,-181.865 61.5,-173.661"/>
<polygon fill="none" stroke="midnightblue" points="58.0001,-200.45 61.5,-210.45 65.0001,-200.45 58.0001,-200.45"/>
</g>
</g>
</svg>
