<?xml version="1.0" encoding="UTF-8" standalone="no"?>
<!DOCTYPE svg PUBLIC "-//W3C//DTD SVG 1.1//EN"
 "http://www.w3.org/Graphics/SVG/1.1/DTD/svg11.dtd">
<!-- Generated by graphviz version 2.38.0 (20140413.2041)
 -->
<!-- Title: SDK::ADestructibleActor Pages: 1 -->
<!--zoomable 741 -->
<svg id="main" version="1.1" xmlns="http://www.w3.org/2000/svg" xmlns:xlink="http://www.w3.org/1999/xlink" xml:space="preserve" onload="init(evt)">
<style type="text/css"><![CDATA[
.edge:hover path { stroke: red; }
.edge:hover polygon { stroke: red; fill: red; }
]]></style>
<script type="text/javascript"><![CDATA[
var edges = document.getElementsByTagName('g');
if (edges && edges.length) {
  for (var i=0;i<edges.length;i++) {
    if (edges[i].id.substr(0,4)=='edge') {
      edges[i].setAttribute('class','edge');
    }
  }
}
]]></script>
        <defs>
                <circle id="rim" cx="0" cy="0" r="7"/>
                <circle id="rim2" cx="0" cy="0" r="3.5"/>
                <g id="zoomPlus">
                        <use xlink:href="#rim" fill="#404040">
                                <set attributeName="fill" to="#808080" begin="zoomplus.mouseover" end="zoomplus.mouseout"/>
                        </use>
                        <path d="M-4,0h8M0,-4v8" fill="none" stroke="white" stroke-width="1.5" pointer-events="none"/>
                </g>
                <g id="zoomMin">
                        <use xlink:href="#rim" fill="#404040">
                                <set attributeName="fill" to="#808080" begin="zoomminus.mouseover" end="zoomminus.mouseout"/>
                        </use>
                        <path d="M-4,0h8" fill="none" stroke="white" stroke-width="1.5" pointer-events="none"/>
                </g>
                <g id="dirArrow">
                        <path fill="none" stroke="white" stroke-width="1.5" d="M0,-3.0v7 M-2.5,-0.5L0,-3.0L2.5,-0.5"/>
                </g>
               <g id="resetDef">
                       <use xlink:href="#rim2" fill="#404040">
                               <set attributeName="fill" to="#808080" begin="reset.mouseover" end="reset.mouseout"/>
                       </use>
               </g>
        </defs>

<script type="text/javascript">
var viewWidth = 634;
var viewHeight = 741;
var sectionId = 'dynsection-1';
</script>
<script xlink:href="svgpan.js"/>
<svg id="graph" class="graph">
<g id="viewport">
<title>SDK::ADestructibleActor</title>
<!-- Node1 -->
<g id="node1" class="node"><title>Node1</title>
<g id="a_node1"><a xlink:title=" ">
<polygon fill="#bfbfbf" stroke="black" points="220.815,-0.5 220.815,-57.5 345.815,-57.5 345.815,-0.5 220.815,-0.5"/>
<text text-anchor="middle" x="283.315" y="-45.5" font-family="Helvetica,sans-Serif" font-size="10.00">SDK::ADestructibleActor</text>
<polyline fill="none" stroke="black" points="220.815,-38.5 345.815,-38.5 "/>
<text text-anchor="middle" x="283.315" y="-26.5" font-family="Helvetica,sans-Serif" font-size="10.00"> </text>
<polyline fill="none" stroke="black" points="220.815,-19.5 345.815,-19.5 "/>
<text text-anchor="start" x="228.815" y="-7.5" font-family="Helvetica,sans-Serif" font-size="10.00">+ StaticClass()</text>
</a>
</g>
</g>
<!-- Node2 -->
<g id="node2" class="node"><title>Node2</title>
<g id="a_node2"><a xlink:href="a26555.html" target="_top" xlink:title=" ">
<polygon fill="none" stroke="red" points="74.8145,-105.5 74.8145,-404.5 241.815,-404.5 241.815,-105.5 74.8145,-105.5"/>
<text text-anchor="middle" x="158.315" y="-392.5" font-family="Helvetica,sans-Serif" font-size="10.00">SDK::AActor</text>
<polyline fill="none" stroke="red" points="74.8145,-385.5 241.815,-385.5 "/>
<text text-anchor="start" x="82.8145" y="-373.5" font-family="Helvetica,sans-Serif" font-size="10.00">+ bAllowRemovalFromServerWhen</text>
<text text-anchor="start" x="82.8145" y="-362.5" font-family="Helvetica,sans-Serif" font-size="10.00">CollisionMerged</text>
<text text-anchor="start" x="82.8145" y="-351.5" font-family="Helvetica,sans-Serif" font-size="10.00">+ bHidden</text>
<text text-anchor="start" x="82.8145" y="-340.5" font-family="Helvetica,sans-Serif" font-size="10.00">+ bNetStartup</text>
<text text-anchor="start" x="82.8145" y="-329.5" font-family="Helvetica,sans-Serif" font-size="10.00">+ bOnlyRelevantToOwner</text>
<text text-anchor="start" x="82.8145" y="-318.5" font-family="Helvetica,sans-Serif" font-size="10.00">+ bAlwaysRelevant</text>
<text text-anchor="start" x="82.8145" y="-307.5" font-family="Helvetica,sans-Serif" font-size="10.00">+ bReplicateMovement</text>
<text text-anchor="start" x="82.8145" y="-296.5" font-family="Helvetica,sans-Serif" font-size="10.00">+ bExchangedRoles</text>
<text text-anchor="start" x="82.8145" y="-285.5" font-family="Helvetica,sans-Serif" font-size="10.00">+ bNetLoadOnClient</text>
<text text-anchor="start" x="82.8145" y="-274.5" font-family="Helvetica,sans-Serif" font-size="10.00">+ bBlockInput</text>
<text text-anchor="start" x="82.8145" y="-263.5" font-family="Helvetica,sans-Serif" font-size="10.00">+ UnknownData00</text>
<text text-anchor="start" x="82.8145" y="-252.5" font-family="Helvetica,sans-Serif" font-size="10.00">and 26 more...</text>
<polyline fill="none" stroke="red" points="74.8145,-245.5 241.815,-245.5 "/>
<text text-anchor="start" x="82.8145" y="-233.5" font-family="Helvetica,sans-Serif" font-size="10.00">+ UserConstructionScript()</text>
<text text-anchor="start" x="82.8145" y="-222.5" font-family="Helvetica,sans-Serif" font-size="10.00">+ TearOff()</text>
<text text-anchor="start" x="82.8145" y="-211.5" font-family="Helvetica,sans-Serif" font-size="10.00">+ SnapRootComponentTo()</text>
<text text-anchor="start" x="82.8145" y="-200.5" font-family="Helvetica,sans-Serif" font-size="10.00">+ SetTickGroup()</text>
<text text-anchor="start" x="82.8145" y="-189.5" font-family="Helvetica,sans-Serif" font-size="10.00">+ SetTickableWhenPaused()</text>
<text text-anchor="start" x="82.8145" y="-178.5" font-family="Helvetica,sans-Serif" font-size="10.00">+ SetReplicates()</text>
<text text-anchor="start" x="82.8145" y="-167.5" font-family="Helvetica,sans-Serif" font-size="10.00">+ SetReplicateMovement()</text>
<text text-anchor="start" x="82.8145" y="-156.5" font-family="Helvetica,sans-Serif" font-size="10.00">+ SetOwner()</text>
<text text-anchor="start" x="82.8145" y="-145.5" font-family="Helvetica,sans-Serif" font-size="10.00">+ SetLifeSpan()</text>
<text text-anchor="start" x="82.8145" y="-134.5" font-family="Helvetica,sans-Serif" font-size="10.00">+ SetIgnoreNetTransformUpdates()</text>
<text text-anchor="start" x="82.8145" y="-123.5" font-family="Helvetica,sans-Serif" font-size="10.00">and 109 more...</text>
<text text-anchor="start" x="82.8145" y="-112.5" font-family="Helvetica,sans-Serif" font-size="10.00">+ StaticClass()</text>
</a>
</g>
</g>
<!-- Node2&#45;&gt;Node1 -->
<g id="edge1" class="edge"><title>Node2&#45;&gt;Node1</title>
<path fill="none" stroke="midnightblue" d="M246.429,-96.0985C254.465,-81.6983 261.818,-68.5223 267.808,-57.7882"/>
<polygon fill="none" stroke="midnightblue" points="243.16,-94.774 241.344,-105.212 249.273,-98.1851 243.16,-94.774"/>
</g>
<!-- Node2&#45;&gt;Node2 -->
<g id="edge5" class="edge"><title>Node2&#45;&gt;Node2</title>
<path fill="none" stroke="#404040" d="M241.935,-283.264C252.702,-278.363 259.815,-268.941 259.815,-255 259.815,-246.069 256.895,-238.993 251.966,-233.771"/>
<polygon fill="none" stroke="#404040" points="251.76,-233.626 244.55,-233.456 241.935,-226.736 249.144,-226.906 251.76,-233.626"/>
<text text-anchor="middle" x="278.315" y="-252.5" font-family="Helvetica,sans-Serif" font-size="10.00"> +Owner</text>
</g>
<!-- Node15 -->
<g id="node3" class="node"><title>Node15</title>
<g id="a_node3"><a xlink:href="a25867.html" target="_top" xlink:title=" ">
<polygon fill="none" stroke="black" points="299.315,-539 299.315,-596 451.315,-596 451.315,-539 299.315,-539"/>
<text text-anchor="middle" x="375.315" y="-584" font-family="Helvetica,sans-Serif" font-size="10.00">SDK::FScriptMulticastDelegate</text>
<polyline fill="none" stroke="black" points="299.315,-577 451.315,-577 "/>
<text text-anchor="middle" x="375.315" y="-565" font-family="Helvetica,sans-Serif" font-size="10.00"> </text>
<polyline fill="none" stroke="black" points="299.315,-558 451.315,-558 "/>
<text text-anchor="middle" x="375.315" y="-546" font-family="Helvetica,sans-Serif" font-size="10.00"> </text>
</a>
</g>
</g>
<!-- Node15&#45;&gt;Node1 -->
<g id="edge6" class="edge"><title>Node15&#45;&gt;Node1</title>
<path fill="none" stroke="#404040" d="M368.984,-538.903C361.792,-506.846 350.052,-452.306 342.315,-405 320.628,-272.418 332.534,-236.557 305.315,-105 302.892,-93.2899 299.53,-80.7545 296.163,-69.3495"/>
<polygon fill="none" stroke="#404040" points="296.053,-68.988 290.476,-64.4163 292.551,-57.5102 298.128,-62.082 296.053,-68.988"/>
<text text-anchor="middle" x="383.315" y="-252.5" font-family="Helvetica,sans-Serif" font-size="10.00"> +OnActorFracture</text>
</g>
<!-- Node15&#45;&gt;Node2 -->
<g id="edge2" class="edge"><title>Node15&#45;&gt;Node2</title>
<path fill="none" stroke="#404040" d="M340.364,-538.71C324.4,-527.289 304.744,-514.911 285.315,-507 245.918,-490.959 220.654,-519.799 191.315,-489 179.864,-476.98 172.357,-449.11 167.445,-416.664"/>
<polygon fill="none" stroke="#404040" points="167.41,-416.409 162.619,-411.02 165.75,-404.525 170.542,-409.914 167.41,-416.409"/>
<text text-anchor="middle" x="255.315" y="-481" font-family="Helvetica,sans-Serif" font-size="10.00"> +OnActorEndOverlap</text>
<text text-anchor="middle" x="255.315" y="-470" font-family="Helvetica,sans-Serif" font-size="10.00">+OnPreNetOwnershipChange</text>
<text text-anchor="middle" x="255.315" y="-459" font-family="Helvetica,sans-Serif" font-size="10.00">+OnActorBeginOverlap</text>
<text text-anchor="middle" x="255.315" y="-448" font-family="Helvetica,sans-Serif" font-size="10.00">+OnDestroyed</text>
<text text-anchor="middle" x="255.315" y="-437" font-family="Helvetica,sans-Serif" font-size="10.00">+OnEndPlay</text>
<text text-anchor="middle" x="255.315" y="-426" font-family="Helvetica,sans-Serif" font-size="10.00">+OnActorHit</text>
</g>
<!-- Node178 -->
<g id="node5" class="node"><title>Node178</title>
<g id="a_node5"><a xlink:href="a27607.html" target="_top" xlink:title=" ">
<polygon fill="none" stroke="red" points="433.815,-204.5 433.815,-305.5 584.815,-305.5 584.815,-204.5 433.815,-204.5"/>
<text text-anchor="middle" x="509.315" y="-293.5" font-family="Helvetica,sans-Serif" font-size="10.00">SDK::UDestructibleComponent</text>
<polyline fill="none" stroke="red" points="433.815,-286.5 584.815,-286.5 "/>
<text text-anchor="middle" x="509.315" y="-274.5" font-family="Helvetica,sans-Serif" font-size="10.00"> </text>
<polyline fill="none" stroke="red" points="433.815,-267.5 584.815,-267.5 "/>
<text text-anchor="start" x="441.815" y="-255.5" font-family="Helvetica,sans-Serif" font-size="10.00">+ SetDestructibleMesh()</text>
<text text-anchor="start" x="441.815" y="-244.5" font-family="Helvetica,sans-Serif" font-size="10.00">+ GetDestructibleMesh()</text>
<text text-anchor="start" x="441.815" y="-233.5" font-family="Helvetica,sans-Serif" font-size="10.00">+ ApplyRadiusDamage()</text>
<text text-anchor="start" x="441.815" y="-222.5" font-family="Helvetica,sans-Serif" font-size="10.00">+ ApplyDamage()</text>
<text text-anchor="start" x="441.815" y="-211.5" font-family="Helvetica,sans-Serif" font-size="10.00">+ StaticClass()</text>
</a>
</g>
</g>
<!-- Node15&#45;&gt;Node178 -->
<g id="edge9" class="edge"><title>Node15&#45;&gt;Node178</title>
<path fill="none" stroke="#404040" d="M369.813,-538.926C365.231,-508.073 362.641,-457.855 385.315,-423 394.638,-408.668 406.888,-416.744 419.315,-405 445.607,-380.152 466.99,-345.962 482.305,-316.601"/>
<polygon fill="none" stroke="#404040" points="482.449,-316.317 481.594,-309.156 487.875,-305.614 488.73,-312.774 482.449,-316.317"/>
<text text-anchor="middle" x="439.315" y="-453.5" font-family="Helvetica,sans-Serif" font-size="10.00"> +OnComponentFracture</text>
</g>
<!-- Node12 -->
<g id="node4" class="node"><title>Node12</title>
<g id="a_node4"><a xlink:title=" ">
<polygon fill="none" stroke="#bfbfbf" points="195.815,-675.5 195.815,-732.5 230.815,-732.5 230.815,-675.5 195.815,-675.5"/>
<text text-anchor="middle" x="213.315" y="-720.5" font-family="Helvetica,sans-Serif" font-size="10.00">char</text>
<polyline fill="none" stroke="#bfbfbf" points="195.815,-713.5 230.815,-713.5 "/>
<text text-anchor="middle" x="213.315" y="-701.5" font-family="Helvetica,sans-Serif" font-size="10.00"> </text>
<polyline fill="none" stroke="#bfbfbf" points="195.815,-694.5 230.815,-694.5 "/>
<text text-anchor="middle" x="213.315" y="-682.5" font-family="Helvetica,sans-Serif" font-size="10.00"> </text>
</a>
</g>
</g>
<!-- Node12&#45;&gt;Node1 -->
<g id="edge7" class="edge"><title>Node12&#45;&gt;Node1</title>
<path fill="none" stroke="#404040" d="M195.62,-688.792C158.425,-657.532 73.4865,-578.414 48.3145,-489 19.15,-385.404 -51.1735,-259.375 65.3145,-105 98.6516,-60.8203 159.581,-42.4859 208.567,-34.966"/>
<polygon fill="none" stroke="#404040" points="208.853,-34.9263 214.247,-30.1401 220.739,-33.278 215.346,-38.0642 208.853,-34.9263"/>
<text text-anchor="middle" x="90.3145" y="-459" font-family="Helvetica,sans-Serif" font-size="10.00"> +bAffectNavigation</text>
<text text-anchor="middle" x="90.3145" y="-448" font-family="Helvetica,sans-Serif" font-size="10.00">+UnknownData00</text>
</g>
<!-- Node12&#45;&gt;Node2 -->
<g id="edge4" class="edge"><title>Node12&#45;&gt;Node2</title>
<path fill="none" stroke="#404040" d="M195.64,-685.768C182.507,-671.648 165.649,-650.404 158.315,-628 136.419,-561.118 133.164,-483.773 136.647,-416.991"/>
<polygon fill="none" stroke="#404040" points="136.668,-416.628 133.027,-410.404 137.372,-404.649 141.013,-410.873 136.668,-416.628"/>
<text text-anchor="middle" x="224.315" y="-620" font-family="Helvetica,sans-Serif" font-size="10.00"> +bEnableAutoLODGeneration</text>
<text text-anchor="middle" x="224.315" y="-609" font-family="Helvetica,sans-Serif" font-size="10.00">+UnknownData01</text>
<text text-anchor="middle" x="224.315" y="-598" font-family="Helvetica,sans-Serif" font-size="10.00">+bNetUseOwnerRelevancy</text>
<text text-anchor="middle" x="224.315" y="-587" font-family="Helvetica,sans-Serif" font-size="10.00">+bTearOff</text>
<text text-anchor="middle" x="224.315" y="-576" font-family="Helvetica,sans-Serif" font-size="10.00">+bNetTemporary</text>
<text text-anchor="middle" x="224.315" y="-565" font-family="Helvetica,sans-Serif" font-size="10.00">+UnknownData02</text>
<text text-anchor="middle" x="224.315" y="-554" font-family="Helvetica,sans-Serif" font-size="10.00">+bCanBeInCluster</text>
<text text-anchor="middle" x="224.315" y="-543" font-family="Helvetica,sans-Serif" font-size="10.00">+bPendingNetUpdate</text>
<text text-anchor="middle" x="224.315" y="-532" font-family="Helvetica,sans-Serif" font-size="10.00">+UnknownData10</text>
<text text-anchor="middle" x="224.315" y="-521" font-family="Helvetica,sans-Serif" font-size="10.00">+UnknownData03</text>
<text text-anchor="middle" x="224.315" y="-510" font-family="Helvetica,sans-Serif" font-size="10.00">...</text>
</g>
<!-- Node12&#45;&gt;Node15 -->
<g id="edge3" class="edge"><title>Node12&#45;&gt;Node15</title>
<path fill="none" stroke="#404040" d="M230.96,-688.35C255.142,-668.273 299.355,-631.565 332.503,-604.044"/>
<polygon fill="none" stroke="#404040" points="332.733,-603.853 334.794,-596.943 341.966,-596.188 339.905,-603.098 332.733,-603.853"/>
<text text-anchor="middle" x="315.315" y="-649" font-family="Helvetica,sans-Serif" font-size="10.00"> +UnknownData</text>
</g>
<!-- Node12&#45;&gt;Node178 -->
<g id="edge10" class="edge"><title>Node12&#45;&gt;Node178</title>
<path fill="none" stroke="#404040" d="M230.993,-703.229C276.264,-702.801 397.233,-695.099 460.315,-628 538.91,-544.399 532.545,-399.723 520.927,-317.601"/>
<polygon fill="none" stroke="#404040" points="520.924,-317.577 516.079,-312.236 519.146,-305.709 523.991,-311.05 520.924,-317.577"/>
<text text-anchor="middle" x="572.315" y="-587" font-family="Helvetica,sans-Serif" font-size="10.00"> +UnknownData01</text>
<text text-anchor="middle" x="572.315" y="-576" font-family="Helvetica,sans-Serif" font-size="10.00">+UnknownData02</text>
<text text-anchor="middle" x="572.315" y="-565" font-family="Helvetica,sans-Serif" font-size="10.00">+UnknownData03</text>
<text text-anchor="middle" x="572.315" y="-554" font-family="Helvetica,sans-Serif" font-size="10.00">+bFractureEffectOverride</text>
<text text-anchor="middle" x="572.315" y="-543" font-family="Helvetica,sans-Serif" font-size="10.00">+UnknownData00</text>
</g>
<!-- Node178&#45;&gt;Node1 -->
<g id="edge8" class="edge"><title>Node178&#45;&gt;Node1</title>
<path fill="none" stroke="#404040" d="M487.541,-204.206C471.972,-172.869 448.617,-133.17 419.315,-105 401.356,-87.7352 378.646,-73.1635 356.953,-61.5897"/>
<polygon fill="none" stroke="#404040" points="356.739,-61.4797 349.574,-62.2862 346.073,-55.9817 353.239,-55.1752 356.739,-61.4797"/>
<text text-anchor="middle" x="452.815" y="-79" font-family="Helvetica,sans-Serif" font-size="10.00"> +DestructibleComponent</text>
</g>
</g>
</svg>
        <g id="navigator" transform="translate(0 0)" fill="#404254">
                <rect fill="#f2f5e9" fill-opacity="0.5" stroke="#606060" stroke-width=".5" x="0" y="0" width="60" height="60"/>
                <use id="zoomplus" xlink:href="#zoomPlus" x="17" y="9" onmousedown="handleZoom(evt,'in')"/>
                <use id="zoomminus" xlink:href="#zoomMin" x="42" y="9" onmousedown="handleZoom(evt,'out')"/>
                <use id="reset" xlink:href="#resetDef" x="30" y="36" onmousedown="handleReset()"/>
                <g id="arrowUp" xlink:href="#dirArrow" transform="translate(30 24)" onmousedown="handlePan(0,-1)">
                  <use xlink:href="#rim" fill="#404040">
                        <set attributeName="fill" to="#808080" begin="arrowUp.mouseover" end="arrowUp.mouseout"/>
                  </use>
                  <path fill="none" stroke="white" stroke-width="1.5" d="M0,-3.0v7 M-2.5,-0.5L0,-3.0L2.5,-0.5"/>
                </g>
                <g id="arrowRight" xlink:href="#dirArrow" transform="rotate(90) translate(36 -43)" onmousedown="handlePan(1,0)">
                  <use xlink:href="#rim" fill="#404040">
                        <set attributeName="fill" to="#808080" begin="arrowRight.mouseover" end="arrowRight.mouseout"/>
                  </use>
                  <path fill="none" stroke="white" stroke-width="1.5" d="M0,-3.0v7 M-2.5,-0.5L0,-3.0L2.5,-0.5"/>
                </g>
                <g id="arrowDown" xlink:href="#dirArrow" transform="rotate(180) translate(-30 -48)" onmousedown="handlePan(0,1)">
                  <use xlink:href="#rim" fill="#404040">
                        <set attributeName="fill" to="#808080" begin="arrowDown.mouseover" end="arrowDown.mouseout"/>
                  </use>
                  <path fill="none" stroke="white" stroke-width="1.5" d="M0,-3.0v7 M-2.5,-0.5L0,-3.0L2.5,-0.5"/>
                </g>
                <g id="arrowLeft" xlink:href="#dirArrow" transform="rotate(270) translate(-36 17)" onmousedown="handlePan(-1,0)">
                  <use xlink:href="#rim" fill="#404040">
                        <set attributeName="fill" to="#808080" begin="arrowLeft.mouseover" end="arrowLeft.mouseout"/>
                  </use>
                  <path fill="none" stroke="white" stroke-width="1.5" d="M0,-3.0v7 M-2.5,-0.5L0,-3.0L2.5,-0.5"/>
                </g>
        </g>
        <svg viewBox="0 0 15 15" width="100%" height="30px" preserveAspectRatio="xMaxYMin meet">
         <g id="arrow_out" transform="scale(0.3 0.3)">
          <a xlink:href="a27053_org.svg" target="_base">
           <rect id="button" ry="5" rx="5" y="6" x="6" height="38" width="38"
                fill="#f2f5e9" fill-opacity="0.5" stroke="#606060" stroke-width="1.0"/>
           <path id="arrow"
             d="M 11.500037,31.436501 C 11.940474,20.09759 22.043105,11.32322 32.158766,21.979434 L 37.068811,17.246167 C 37.068811,17.246167 37.088388,32 37.088388,32 L 22.160133,31.978069 C 22.160133,31.978069 26.997745,27.140456 26.997745,27.140456 C 18.528582,18.264221 13.291696,25.230495 11.500037,31.436501 z"
             style="fill:#404040;"/>
          </a>
         </g>
        </svg>
</svg>
