<?xml version="1.0" encoding="UTF-8" standalone="no"?>
<!DOCTYPE svg PUBLIC "-//W3C//DTD SVG 1.1//EN"
 "http://www.w3.org/Graphics/SVG/1.1/DTD/svg11.dtd">
<!-- Generated by graphviz version 2.38.0 (20140413.2041)
 -->
<!-- Title: SDK::APhysicsConstraintActor Pages: 1 -->
<svg width="530pt" height="865pt"
 viewBox="0.00 0.00 530.35 865.00" xmlns="http://www.w3.org/2000/svg" xmlns:xlink="http://www.w3.org/1999/xlink">
<g id="graph0" class="graph" transform="scale(1 1) rotate(0) translate(4 861)">
<title>SDK::APhysicsConstraintActor</title>
<!-- Node1 -->
<g id="node1" class="node"><title>Node1</title>
<g id="a_node1"><a xlink:title=" ">
<polygon fill="#bfbfbf" stroke="black" points="43.3451,-0.5 43.3451,-57.5 195.345,-57.5 195.345,-0.5 43.3451,-0.5"/>
<text text-anchor="middle" x="119.345" y="-45.5" font-family="Helvetica,sans-Serif" font-size="10.00">SDK::APhysicsConstraintActor</text>
<polyline fill="none" stroke="black" points="43.3451,-38.5 195.345,-38.5 "/>
<text text-anchor="middle" x="119.345" y="-26.5" font-family="Helvetica,sans-Serif" font-size="10.00"> </text>
<polyline fill="none" stroke="black" points="43.3451,-19.5 195.345,-19.5 "/>
<text text-anchor="start" x="51.3451" y="-7.5" font-family="Helvetica,sans-Serif" font-size="10.00">+ StaticClass()</text>
</a>
</g>
</g>
<!-- Node2 -->
<g id="node2" class="node"><title>Node2</title>
<g id="a_node2"><a xlink:href="a27271.html" target="_top" xlink:title=" ">
<polygon fill="none" stroke="black" points="174.345,-166 174.345,-223 290.345,-223 290.345,-166 174.345,-166"/>
<text text-anchor="middle" x="232.345" y="-211" font-family="Helvetica,sans-Serif" font-size="10.00">SDK::ARigidBodyBase</text>
<polyline fill="none" stroke="black" points="174.345,-204 290.345,-204 "/>
<text text-anchor="middle" x="232.345" y="-192" font-family="Helvetica,sans-Serif" font-size="10.00"> </text>
<polyline fill="none" stroke="black" points="174.345,-185 290.345,-185 "/>
<text text-anchor="start" x="182.345" y="-173" font-family="Helvetica,sans-Serif" font-size="10.00">+ StaticClass()</text>
</a>
</g>
</g>
<!-- Node2&#45;&gt;Node1 -->
<g id="edge1" class="edge"><title>Node2&#45;&gt;Node1</title>
<path fill="none" stroke="midnightblue" d="M207.279,-157.232C186.484,-127.143 157.355,-84.9965 138.419,-57.5983"/>
<polygon fill="none" stroke="midnightblue" points="204.611,-159.528 213.176,-165.764 210.37,-155.548 204.611,-159.528"/>
</g>
<!-- Node3 -->
<g id="node3" class="node"><title>Node3</title>
<g id="a_node3"><a xlink:href="a26555.html" target="_top" xlink:title=" ">
<polygon fill="none" stroke="red" points="139.845,-342.5 139.845,-641.5 306.845,-641.5 306.845,-342.5 139.845,-342.5"/>
<text text-anchor="middle" x="223.345" y="-629.5" font-family="Helvetica,sans-Serif" font-size="10.00">SDK::AActor</text>
<polyline fill="none" stroke="red" points="139.845,-622.5 306.845,-622.5 "/>
<text text-anchor="start" x="147.845" y="-610.5" font-family="Helvetica,sans-Serif" font-size="10.00">+ bAllowRemovalFromServerWhen</text>
<text text-anchor="start" x="147.845" y="-599.5" font-family="Helvetica,sans-Serif" font-size="10.00">CollisionMerged</text>
<text text-anchor="start" x="147.845" y="-588.5" font-family="Helvetica,sans-Serif" font-size="10.00">+ bHidden</text>
<text text-anchor="start" x="147.845" y="-577.5" font-family="Helvetica,sans-Serif" font-size="10.00">+ bNetStartup</text>
<text text-anchor="start" x="147.845" y="-566.5" font-family="Helvetica,sans-Serif" font-size="10.00">+ bOnlyRelevantToOwner</text>
<text text-anchor="start" x="147.845" y="-555.5" font-family="Helvetica,sans-Serif" font-size="10.00">+ bAlwaysRelevant</text>
<text text-anchor="start" x="147.845" y="-544.5" font-family="Helvetica,sans-Serif" font-size="10.00">+ bReplicateMovement</text>
<text text-anchor="start" x="147.845" y="-533.5" font-family="Helvetica,sans-Serif" font-size="10.00">+ bExchangedRoles</text>
<text text-anchor="start" x="147.845" y="-522.5" font-family="Helvetica,sans-Serif" font-size="10.00">+ bNetLoadOnClient</text>
<text text-anchor="start" x="147.845" y="-511.5" font-family="Helvetica,sans-Serif" font-size="10.00">+ bBlockInput</text>
<text text-anchor="start" x="147.845" y="-500.5" font-family="Helvetica,sans-Serif" font-size="10.00">+ UnknownData00</text>
<text text-anchor="start" x="147.845" y="-489.5" font-family="Helvetica,sans-Serif" font-size="10.00">and 26 more...</text>
<polyline fill="none" stroke="red" points="139.845,-482.5 306.845,-482.5 "/>
<text text-anchor="start" x="147.845" y="-470.5" font-family="Helvetica,sans-Serif" font-size="10.00">+ UserConstructionScript()</text>
<text text-anchor="start" x="147.845" y="-459.5" font-family="Helvetica,sans-Serif" font-size="10.00">+ TearOff()</text>
<text text-anchor="start" x="147.845" y="-448.5" font-family="Helvetica,sans-Serif" font-size="10.00">+ SnapRootComponentTo()</text>
<text text-anchor="start" x="147.845" y="-437.5" font-family="Helvetica,sans-Serif" font-size="10.00">+ SetTickGroup()</text>
<text text-anchor="start" x="147.845" y="-426.5" font-family="Helvetica,sans-Serif" font-size="10.00">+ SetTickableWhenPaused()</text>
<text text-anchor="start" x="147.845" y="-415.5" font-family="Helvetica,sans-Serif" font-size="10.00">+ SetReplicates()</text>
<text text-anchor="start" x="147.845" y="-404.5" font-family="Helvetica,sans-Serif" font-size="10.00">+ SetReplicateMovement()</text>
<text text-anchor="start" x="147.845" y="-393.5" font-family="Helvetica,sans-Serif" font-size="10.00">+ SetOwner()</text>
<text text-anchor="start" x="147.845" y="-382.5" font-family="Helvetica,sans-Serif" font-size="10.00">+ SetLifeSpan()</text>
<text text-anchor="start" x="147.845" y="-371.5" font-family="Helvetica,sans-Serif" font-size="10.00">+ SetIgnoreNetTransformUpdates()</text>
<text text-anchor="start" x="147.845" y="-360.5" font-family="Helvetica,sans-Serif" font-size="10.00">and 109 more...</text>
<text text-anchor="start" x="147.845" y="-349.5" font-family="Helvetica,sans-Serif" font-size="10.00">+ StaticClass()</text>
</a>
</g>
</g>
<!-- Node3&#45;&gt;Node1 -->
<g id="edge6" class="edge"><title>Node3&#45;&gt;Node1</title>
<path fill="none" stroke="#404040" d="M139.727,-393.026C116.874,-360.445 95.1659,-322.578 83.3451,-284 60.0378,-207.935 65.692,-182.572 83.3451,-105 86.1574,-92.6421 91.2715,-79.9441 96.779,-68.5911"/>
<polygon fill="none" stroke="#404040" points="96.865,-68.4236 96.0478,-61.2589 102.347,-57.7489 103.164,-64.9136 96.865,-68.4236"/>
<text text-anchor="middle" x="124.345" y="-197.5" font-family="Helvetica,sans-Serif" font-size="10.00"> +ConstraintActor1</text>
<text text-anchor="middle" x="124.345" y="-186.5" font-family="Helvetica,sans-Serif" font-size="10.00">+ConstraintActor2</text>
</g>
<!-- Node3&#45;&gt;Node2 -->
<g id="edge2" class="edge"><title>Node3&#45;&gt;Node2</title>
<path fill="none" stroke="midnightblue" d="M228.181,-332.217C229.467,-290.01 230.715,-249.011 231.505,-223.099"/>
<polygon fill="none" stroke="midnightblue" points="224.678,-332.282 227.872,-342.384 231.674,-332.495 224.678,-332.282"/>
</g>
<!-- Node3&#45;&gt;Node3 -->
<g id="edge4" class="edge"><title>Node3&#45;&gt;Node3</title>
<path fill="none" stroke="#404040" d="M306.965,-521.25C317.732,-516.178 324.845,-506.428 324.845,-492 324.845,-482.757 321.926,-475.434 316.997,-470.031"/>
<polygon fill="none" stroke="#404040" points="316.677,-469.799 309.472,-469.512 306.965,-462.75 314.171,-463.037 316.677,-469.799"/>
<text text-anchor="middle" x="343.345" y="-489.5" font-family="Helvetica,sans-Serif" font-size="10.00"> +Owner</text>
</g>
<!-- Node179 -->
<g id="node5" class="node"><title>Node179</title>
<g id="a_node5"><a xlink:href="a27307.html" target="_top" xlink:title=" ">
<polygon fill="none" stroke="red" points="308.845,-105.5 308.845,-283.5 487.845,-283.5 487.845,-105.5 308.845,-105.5"/>
<text text-anchor="middle" x="398.345" y="-271.5" font-family="Helvetica,sans-Serif" font-size="10.00">SDK::UPhysicsConstraintComponent</text>
<polyline fill="none" stroke="red" points="308.845,-264.5 487.845,-264.5 "/>
<text text-anchor="middle" x="398.345" y="-252.5" font-family="Helvetica,sans-Serif" font-size="10.00"> </text>
<polyline fill="none" stroke="red" points="308.845,-245.5 487.845,-245.5 "/>
<text text-anchor="start" x="316.845" y="-233.5" font-family="Helvetica,sans-Serif" font-size="10.00">+ SetLinearZLimit()</text>
<text text-anchor="start" x="316.845" y="-222.5" font-family="Helvetica,sans-Serif" font-size="10.00">+ SetLinearYLimit()</text>
<text text-anchor="start" x="316.845" y="-211.5" font-family="Helvetica,sans-Serif" font-size="10.00">+ SetLinearXLimit()</text>
<text text-anchor="start" x="316.845" y="-200.5" font-family="Helvetica,sans-Serif" font-size="10.00">+ SetLinearVelocityTarget()</text>
<text text-anchor="start" x="316.845" y="-189.5" font-family="Helvetica,sans-Serif" font-size="10.00">+ SetLinearVelocityDrive()</text>
<text text-anchor="start" x="316.845" y="-178.5" font-family="Helvetica,sans-Serif" font-size="10.00">+ SetLinearPositionTarget()</text>
<text text-anchor="start" x="316.845" y="-167.5" font-family="Helvetica,sans-Serif" font-size="10.00">+ SetLinearPositionDrive()</text>
<text text-anchor="start" x="316.845" y="-156.5" font-family="Helvetica,sans-Serif" font-size="10.00">+ SetLinearDriveParams()</text>
<text text-anchor="start" x="316.845" y="-145.5" font-family="Helvetica,sans-Serif" font-size="10.00">+ SetDisableCollision()</text>
<text text-anchor="start" x="316.845" y="-134.5" font-family="Helvetica,sans-Serif" font-size="10.00">+ SetConstraintReferencePosition()</text>
<text text-anchor="start" x="316.845" y="-123.5" font-family="Helvetica,sans-Serif" font-size="10.00">and 16 more...</text>
<text text-anchor="start" x="316.845" y="-112.5" font-family="Helvetica,sans-Serif" font-size="10.00">+ StaticClass()</text>
</a>
</g>
</g>
<!-- Node3&#45;&gt;Node179 -->
<g id="edge9" class="edge"><title>Node3&#45;&gt;Node179</title>
<path fill="none" stroke="#404040" d="M279.905,-342.043C286.853,-328.182 294.351,-314.617 302.345,-302 304.187,-299.092 306.111,-296.188 308.101,-293.295"/>
<polygon fill="none" stroke="#404040" points="308.118,-293.272 308.36,-286.065 315.106,-283.516 314.864,-290.723 308.118,-293.272"/>
<text text-anchor="middle" x="343.345" y="-310.5" font-family="Helvetica,sans-Serif" font-size="10.00"> +ConstraintActor2</text>
</g>
<!-- Node13 -->
<g id="node4" class="node"><title>Node13</title>
<g id="a_node4"><a xlink:title=" ">
<polygon fill="none" stroke="#bfbfbf" points="205.845,-799.5 205.845,-856.5 240.845,-856.5 240.845,-799.5 205.845,-799.5"/>
<text text-anchor="middle" x="223.345" y="-844.5" font-family="Helvetica,sans-Serif" font-size="10.00">char</text>
<polyline fill="none" stroke="#bfbfbf" points="205.845,-837.5 240.845,-837.5 "/>
<text text-anchor="middle" x="223.345" y="-825.5" font-family="Helvetica,sans-Serif" font-size="10.00"> </text>
<polyline fill="none" stroke="#bfbfbf" points="205.845,-818.5 240.845,-818.5 "/>
<text text-anchor="middle" x="223.345" y="-806.5" font-family="Helvetica,sans-Serif" font-size="10.00"> </text>
</a>
</g>
</g>
<!-- Node13&#45;&gt;Node1 -->
<g id="edge5" class="edge"><title>Node13&#45;&gt;Node1</title>
<path fill="none" stroke="#404040" d="M205.855,-799.266C160.575,-725.527 40.4684,-517.048 3.34514,-324 -15.1991,-227.567 48.8762,-122.28 89.1178,-67.6471"/>
<polygon fill="none" stroke="#404040" points="89.3616,-67.3227 89.7701,-60.1232 96.5729,-57.7312 96.1645,-64.9307 89.3616,-67.3227"/>
<text text-anchor="middle" x="45.3451" y="-316" font-family="Helvetica,sans-Serif" font-size="10.00"> +bDisableCollision</text>
<text text-anchor="middle" x="45.3451" y="-305" font-family="Helvetica,sans-Serif" font-size="10.00">+UnknownData00</text>
</g>
<!-- Node13&#45;&gt;Node3 -->
<g id="edge3" class="edge"><title>Node13&#45;&gt;Node3</title>
<path fill="none" stroke="#404040" d="M223.345,-799.383C223.345,-766.767 223.345,-709.839 223.345,-653.836"/>
<polygon fill="none" stroke="#404040" points="223.345,-653.534 219.345,-647.534 223.345,-641.534 227.345,-647.534 223.345,-653.534"/>
<text text-anchor="middle" x="289.345" y="-773" font-family="Helvetica,sans-Serif" font-size="10.00"> +bEnableAutoLODGeneration</text>
<text text-anchor="middle" x="289.345" y="-762" font-family="Helvetica,sans-Serif" font-size="10.00">+UnknownData01</text>
<text text-anchor="middle" x="289.345" y="-751" font-family="Helvetica,sans-Serif" font-size="10.00">+bNetUseOwnerRelevancy</text>
<text text-anchor="middle" x="289.345" y="-740" font-family="Helvetica,sans-Serif" font-size="10.00">+bTearOff</text>
<text text-anchor="middle" x="289.345" y="-729" font-family="Helvetica,sans-Serif" font-size="10.00">+bNetTemporary</text>
<text text-anchor="middle" x="289.345" y="-718" font-family="Helvetica,sans-Serif" font-size="10.00">+UnknownData02</text>
<text text-anchor="middle" x="289.345" y="-707" font-family="Helvetica,sans-Serif" font-size="10.00">+bCanBeInCluster</text>
<text text-anchor="middle" x="289.345" y="-696" font-family="Helvetica,sans-Serif" font-size="10.00">+bPendingNetUpdate</text>
<text text-anchor="middle" x="289.345" y="-685" font-family="Helvetica,sans-Serif" font-size="10.00">+UnknownData10</text>
<text text-anchor="middle" x="289.345" y="-674" font-family="Helvetica,sans-Serif" font-size="10.00">+UnknownData03</text>
<text text-anchor="middle" x="289.345" y="-663" font-family="Helvetica,sans-Serif" font-size="10.00">...</text>
</g>
<!-- Node13&#45;&gt;Node179 -->
<g id="edge8" class="edge"><title>Node13&#45;&gt;Node179</title>
<path fill="none" stroke="#404040" d="M240.939,-826.812C270.701,-825.447 330.548,-817.966 359.345,-781 467.908,-641.638 447.291,-422.431 422.687,-295.491"/>
<polygon fill="none" stroke="#404040" points="422.643,-295.269 417.548,-290.167 420.298,-283.501 425.394,-288.603 422.643,-295.269"/>
<text text-anchor="middle" x="482.345" y="-489.5" font-family="Helvetica,sans-Serif" font-size="10.00"> +UnknownData00</text>
</g>
<!-- Node179&#45;&gt;Node1 -->
<g id="edge7" class="edge"><title>Node179&#45;&gt;Node1</title>
<path fill="none" stroke="#404040" d="M308.686,-111.178C305.584,-109.032 302.466,-106.966 299.345,-105 270.897,-87.0803 237.432,-71.7768 207.124,-59.7566"/>
<polygon fill="none" stroke="#404040" points="206.865,-59.6563 199.824,-61.2128 195.679,-55.3119 202.72,-53.7554 206.865,-59.6563"/>
<text text-anchor="middle" x="306.845" y="-79" font-family="Helvetica,sans-Serif" font-size="10.00"> +ConstraintComp</text>
</g>
</g>
</svg>
