<?xml version="1.0" encoding="UTF-8" standalone="no"?>
<!DOCTYPE svg PUBLIC "-//W3C//DTD SVG 1.1//EN"
 "http://www.w3.org/Graphics/SVG/1.1/DTD/svg11.dtd">
<!-- Generated by graphviz version 2.38.0 (20140413.2041)
 -->
<!-- Title: SDK::UDirectionalLightComponent Pages: 1 -->
<svg width="1162pt" height="1020pt"
 viewBox="0.00 0.00 1161.84 1020.00" xmlns="http://www.w3.org/2000/svg" xmlns:xlink="http://www.w3.org/1999/xlink">
<g id="graph0" class="graph" transform="scale(1 1) rotate(0) translate(4 1016)">
<title>SDK::UDirectionalLightComponent</title>
<!-- Node1 -->
<g id="node1" class="node"><title>Node1</title>
<g id="a_node1"><a xlink:title=" ">
<polygon fill="#bfbfbf" stroke="black" points="439.344,-0.5 439.344,-310.5 620.344,-310.5 620.344,-0.5 439.344,-0.5"/>
<text text-anchor="middle" x="529.844" y="-298.5" font-family="Helvetica,sans-Serif" font-size="10.00">SDK::UDirectionalLightComponent</text>
<polyline fill="none" stroke="black" points="439.344,-291.5 620.344,-291.5 "/>
<text text-anchor="start" x="447.344" y="-279.5" font-family="Helvetica,sans-Serif" font-size="10.00">+ DynamicShadowDistanceStationary</text>
<text text-anchor="start" x="447.344" y="-268.5" font-family="Helvetica,sans-Serif" font-size="10.00">Light</text>
<text text-anchor="start" x="447.344" y="-257.5" font-family="Helvetica,sans-Serif" font-size="10.00">+ CascadeDistributionExponent</text>
<text text-anchor="start" x="447.344" y="-246.5" font-family="Helvetica,sans-Serif" font-size="10.00">+ FarCascadesUpdateRateInMs</text>
<text text-anchor="start" x="447.344" y="-235.5" font-family="Helvetica,sans-Serif" font-size="10.00">+ FarShadowDistance</text>
<text text-anchor="start" x="447.344" y="-224.5" font-family="Helvetica,sans-Serif" font-size="10.00">+ CloudsShadowsIntensity</text>
<text text-anchor="start" x="447.344" y="-213.5" font-family="Helvetica,sans-Serif" font-size="10.00">+ DistanceFieldShadowDistance</text>
<polyline fill="none" stroke="black" points="439.344,-206.5 620.344,-206.5 "/>
<text text-anchor="start" x="447.344" y="-194.5" font-family="Helvetica,sans-Serif" font-size="10.00">+ SetShadowLastTransitionSize()</text>
<text text-anchor="start" x="447.344" y="-183.5" font-family="Helvetica,sans-Serif" font-size="10.00">+ SetShadowDistanceFadeout</text>
<text text-anchor="start" x="447.344" y="-172.5" font-family="Helvetica,sans-Serif" font-size="10.00">Fraction()</text>
<text text-anchor="start" x="447.344" y="-161.5" font-family="Helvetica,sans-Serif" font-size="10.00">+ SetOcclusionMaskDarkness()</text>
<text text-anchor="start" x="447.344" y="-150.5" font-family="Helvetica,sans-Serif" font-size="10.00">+ SetNormalOffsetBiasScale()</text>
<text text-anchor="start" x="447.344" y="-139.5" font-family="Helvetica,sans-Serif" font-size="10.00">+ SetLightShaftOverrideDirection()</text>
<text text-anchor="start" x="447.344" y="-128.5" font-family="Helvetica,sans-Serif" font-size="10.00">+ SetFarCascadeUpdateRate()</text>
<text text-anchor="start" x="447.344" y="-117.5" font-family="Helvetica,sans-Serif" font-size="10.00">+ SetEnableLightShaftOcclusion()</text>
<text text-anchor="start" x="447.344" y="-106.5" font-family="Helvetica,sans-Serif" font-size="10.00">+ SetDynamicShadowDistance</text>
<text text-anchor="start" x="447.344" y="-95.5" font-family="Helvetica,sans-Serif" font-size="10.00">StationaryLight()</text>
<text text-anchor="start" x="447.344" y="-84.5" font-family="Helvetica,sans-Serif" font-size="10.00">+ SetDynamicShadowDistance</text>
<text text-anchor="start" x="447.344" y="-73.5" font-family="Helvetica,sans-Serif" font-size="10.00">MovableLight()</text>
<text text-anchor="start" x="447.344" y="-62.5" font-family="Helvetica,sans-Serif" font-size="10.00">+ SetDynamicShadowCascades()</text>
<text text-anchor="start" x="447.344" y="-51.5" font-family="Helvetica,sans-Serif" font-size="10.00">+ SetCloudsShadowsIntensity()</text>
<text text-anchor="start" x="447.344" y="-40.5" font-family="Helvetica,sans-Serif" font-size="10.00">+ SetCloseCascadeUpdateRate()</text>
<text text-anchor="start" x="447.344" y="-29.5" font-family="Helvetica,sans-Serif" font-size="10.00">+ SetCascadeTransitionFraction()</text>
<text text-anchor="start" x="447.344" y="-18.5" font-family="Helvetica,sans-Serif" font-size="10.00">+ SetCascadeDistributionExponent()</text>
<text text-anchor="start" x="447.344" y="-7.5" font-family="Helvetica,sans-Serif" font-size="10.00">+ StaticClass()</text>
</a>
</g>
</g>
<!-- Node2 -->
<g id="node2" class="node"><title>Node2</title>
<g id="a_node2"><a xlink:href="a26907.html" target="_top" xlink:title=" ">
<polygon fill="none" stroke="red" points="447.344,-348.5 447.344,-570.5 612.344,-570.5 612.344,-348.5 447.344,-348.5"/>
<text text-anchor="middle" x="529.844" y="-558.5" font-family="Helvetica,sans-Serif" font-size="10.00">SDK::ULightComponent</text>
<polyline fill="none" stroke="red" points="447.344,-551.5 612.344,-551.5 "/>
<text text-anchor="start" x="455.344" y="-539.5" font-family="Helvetica,sans-Serif" font-size="10.00">+ UnknownData00</text>
<text text-anchor="start" x="455.344" y="-528.5" font-family="Helvetica,sans-Serif" font-size="10.00">+ CastTranslucentShadows</text>
<text text-anchor="start" x="455.344" y="-517.5" font-family="Helvetica,sans-Serif" font-size="10.00">+ bUseIESBrightness</text>
<text text-anchor="start" x="455.344" y="-506.5" font-family="Helvetica,sans-Serif" font-size="10.00">+ LightFunctionFadeDistance</text>
<polyline fill="none" stroke="red" points="447.344,-499.5 612.344,-499.5 "/>
<text text-anchor="start" x="455.344" y="-487.5" font-family="Helvetica,sans-Serif" font-size="10.00">+ SetTemperature()</text>
<text text-anchor="start" x="455.344" y="-476.5" font-family="Helvetica,sans-Serif" font-size="10.00">+ SetLightFunctionScale()</text>
<text text-anchor="start" x="455.344" y="-465.5" font-family="Helvetica,sans-Serif" font-size="10.00">+ SetLightFunctionMaterial()</text>
<text text-anchor="start" x="455.344" y="-454.5" font-family="Helvetica,sans-Serif" font-size="10.00">+ SetLightFunctionFadeDistance()</text>
<text text-anchor="start" x="455.344" y="-443.5" font-family="Helvetica,sans-Serif" font-size="10.00">+ SetLightFunctionDisabled</text>
<text text-anchor="start" x="455.344" y="-432.5" font-family="Helvetica,sans-Serif" font-size="10.00">Brightness()</text>
<text text-anchor="start" x="455.344" y="-421.5" font-family="Helvetica,sans-Serif" font-size="10.00">+ SetLightColor()</text>
<text text-anchor="start" x="455.344" y="-410.5" font-family="Helvetica,sans-Serif" font-size="10.00">+ SetIntensity()</text>
<text text-anchor="start" x="455.344" y="-399.5" font-family="Helvetica,sans-Serif" font-size="10.00">+ SetIndirectLightingIntensity()</text>
<text text-anchor="start" x="455.344" y="-388.5" font-family="Helvetica,sans-Serif" font-size="10.00">+ SetIESTexture()</text>
<text text-anchor="start" x="455.344" y="-377.5" font-family="Helvetica,sans-Serif" font-size="10.00">+ SetEnableLightShaftBloom()</text>
<text text-anchor="start" x="455.344" y="-366.5" font-family="Helvetica,sans-Serif" font-size="10.00">and 6 more...</text>
<text text-anchor="start" x="455.344" y="-355.5" font-family="Helvetica,sans-Serif" font-size="10.00">+ StaticClass()</text>
</a>
</g>
</g>
<!-- Node2&#45;&gt;Node1 -->
<g id="edge1" class="edge"><title>Node2&#45;&gt;Node1</title>
<path fill="none" stroke="midnightblue" d="M529.844,-338.089C529.844,-329.08 529.844,-319.92 529.844,-310.743"/>
<polygon fill="none" stroke="midnightblue" points="526.344,-338.189 529.844,-348.189 533.344,-338.189 526.344,-338.189"/>
</g>
<!-- Node33 -->
<g id="node3" class="node"><title>Node33</title>
<g id="a_node3"><a xlink:href="a26115.html" target="_top" xlink:title=" ">
<polygon fill="none" stroke="black" points="156.344,-772.5 156.344,-829.5 227.344,-829.5 227.344,-772.5 156.344,-772.5"/>
<text text-anchor="middle" x="191.844" y="-817.5" font-family="Helvetica,sans-Serif" font-size="10.00">SDK::FColor</text>
<polyline fill="none" stroke="black" points="156.344,-810.5 227.344,-810.5 "/>
<text text-anchor="middle" x="191.844" y="-798.5" font-family="Helvetica,sans-Serif" font-size="10.00"> </text>
<polyline fill="none" stroke="black" points="156.344,-791.5 227.344,-791.5 "/>
<text text-anchor="middle" x="191.844" y="-779.5" font-family="Helvetica,sans-Serif" font-size="10.00"> </text>
</a>
</g>
</g>
<!-- Node33&#45;&gt;Node1 -->
<g id="edge9" class="edge"><title>Node33&#45;&gt;Node1</title>
<path fill="none" stroke="#404040" d="M185.739,-772.39C167.166,-685.572 115.198,-419.646 158.844,-348 216.858,-252.768 339.128,-202.837 427.473,-178.152"/>
<polygon fill="none" stroke="#404040" points="427.578,-178.123 432.32,-172.69 439.159,-174.978 434.417,-180.41 427.578,-178.123"/>
<text text-anchor="middle" x="214.844" y="-457" font-family="Helvetica,sans-Serif" font-size="10.00"> +ModulatedShadowColor</text>
</g>
<!-- Node33&#45;&gt;Node2 -->
<g id="edge2" class="edge"><title>Node33&#45;&gt;Node2</title>
<path fill="none" stroke="#404040" d="M200.657,-772.412C216.951,-726.229 256.42,-633.921 323.844,-589 364.706,-561.776 389.92,-594.842 432.844,-571 434.225,-570.233 435.595,-569.439 436.956,-568.619"/>
<polygon fill="none" stroke="#404040" points="437.168,-568.478 439.964,-561.832 447.175,-561.857 444.379,-568.504 437.168,-568.478"/>
<text text-anchor="middle" x="350.344" y="-647" font-family="Helvetica,sans-Serif" font-size="10.00"> +BloomTint</text>
</g>
<!-- Node15 -->
<g id="node4" class="node"><title>Node15</title>
<g id="a_node4"><a xlink:title=" ">
<polygon fill="none" stroke="#bfbfbf" points="174.344,-954.5 174.344,-1011.5 209.344,-1011.5 209.344,-954.5 174.344,-954.5"/>
<text text-anchor="middle" x="191.844" y="-999.5" font-family="Helvetica,sans-Serif" font-size="10.00">char</text>
<polyline fill="none" stroke="#bfbfbf" points="174.344,-992.5 209.344,-992.5 "/>
<text text-anchor="middle" x="191.844" y="-980.5" font-family="Helvetica,sans-Serif" font-size="10.00"> </text>
<polyline fill="none" stroke="#bfbfbf" points="174.344,-973.5 209.344,-973.5 "/>
<text text-anchor="middle" x="191.844" y="-961.5" font-family="Helvetica,sans-Serif" font-size="10.00"> </text>
</a>
</g>
</g>
<!-- Node15&#45;&gt;Node1 -->
<g id="edge13" class="edge"><title>Node15&#45;&gt;Node1</title>
<path fill="none" stroke="#404040" d="M174.071,-963.93C135.22,-922.999 43.59,-818.319 10.8439,-710 -4.71823,-658.523 -2.06957,-641.204 10.8439,-589 39.9167,-471.469 55.7053,-436.95 137.844,-348 216.158,-263.192 340.162,-211.49 427.697,-183.533"/>
<polygon fill="none" stroke="#404040" points="427.808,-183.499 432.337,-177.888 439.259,-179.911 434.729,-185.522 427.808,-183.499"/>
<text text-anchor="middle" x="80.3439" y="-680" font-family="Helvetica,sans-Serif" font-size="10.00"> +UnknownData01</text>
<text text-anchor="middle" x="80.3439" y="-669" font-family="Helvetica,sans-Serif" font-size="10.00">+UnknownData02</text>
<text text-anchor="middle" x="80.3439" y="-658" font-family="Helvetica,sans-Serif" font-size="10.00">+bCastModulatedShadows</text>
<text text-anchor="start" x="10.8439" y="-647" font-family="Helvetica,sans-Serif" font-size="10.00">+bUseInsetShadowsForMovable</text>
<text text-anchor="middle" x="80.3439" y="-636" font-family="Helvetica,sans-Serif" font-size="10.00">Objects</text>
<text text-anchor="middle" x="80.3439" y="-625" font-family="Helvetica,sans-Serif" font-size="10.00">+bUsedAsAtmosphereSunLight</text>
<text text-anchor="middle" x="80.3439" y="-614" font-family="Helvetica,sans-Serif" font-size="10.00">+UnknownData00</text>
</g>
<!-- Node15&#45;&gt;Node2 -->
<g id="edge7" class="edge"><title>Node15&#45;&gt;Node2</title>
<path fill="none" stroke="#404040" d="M209.599,-971.905C238.01,-954.966 293.932,-918.285 327.844,-874 370.811,-817.889 335.104,-771.447 390.844,-728 430.262,-697.275 467.381,-746.195 501.844,-710 519.658,-691.291 526.978,-636.416 529.703,-582.878"/>
<polygon fill="none" stroke="#404040" points="529.709,-582.758 525.981,-576.585 530.245,-570.77 533.973,-576.943 529.709,-582.758"/>
<text text-anchor="middle" x="459.844" y="-864.5" font-family="Helvetica,sans-Serif" font-size="10.00"> +bEnableLightShaftBloom</text>
<text text-anchor="middle" x="459.844" y="-853.5" font-family="Helvetica,sans-Serif" font-size="10.00">+UnknownData01</text>
<text text-anchor="middle" x="459.844" y="-842.5" font-family="Helvetica,sans-Serif" font-size="10.00">+UnknownData02</text>
<text text-anchor="middle" x="459.844" y="-831.5" font-family="Helvetica,sans-Serif" font-size="10.00">+UnknownData03</text>
<text text-anchor="middle" x="459.844" y="-820.5" font-family="Helvetica,sans-Serif" font-size="10.00">+UnknownData04</text>
<text text-anchor="middle" x="459.844" y="-809.5" font-family="Helvetica,sans-Serif" font-size="10.00">+InverseSquaredFalloff</text>
<text text-anchor="middle" x="459.844" y="-798.5" font-family="Helvetica,sans-Serif" font-size="10.00">+UnknownData05</text>
<text text-anchor="middle" x="459.844" y="-787.5" font-family="Helvetica,sans-Serif" font-size="10.00">+UnknownData06</text>
<text text-anchor="start" x="390.844" y="-776.5" font-family="Helvetica,sans-Serif" font-size="10.00">+bAffectDynamicIndirect</text>
<text text-anchor="middle" x="459.844" y="-765.5" font-family="Helvetica,sans-Serif" font-size="10.00">Lighting</text>
<text text-anchor="start" x="390.844" y="-754.5" font-family="Helvetica,sans-Serif" font-size="10.00">+bCastShadowsFromCinematic</text>
<text text-anchor="middle" x="459.844" y="-743.5" font-family="Helvetica,sans-Serif" font-size="10.00">ObjectsOnly</text>
<text text-anchor="middle" x="459.844" y="-732.5" font-family="Helvetica,sans-Serif" font-size="10.00">...</text>
</g>
<!-- Node15&#45;&gt;Node33 -->
<g id="edge3" class="edge"><title>Node15&#45;&gt;Node33</title>
<path fill="none" stroke="#404040" d="M191.844,-954.269C191.844,-924.276 191.844,-876.185 191.844,-842.081"/>
<polygon fill="none" stroke="#404040" points="191.844,-841.762 187.844,-835.762 191.844,-829.762 195.844,-835.762 191.844,-841.762"/>
<text text-anchor="middle" x="199.844" y="-928" font-family="Helvetica,sans-Serif" font-size="10.00"> +A</text>
<text text-anchor="middle" x="199.844" y="-917" font-family="Helvetica,sans-Serif" font-size="10.00">+R</text>
<text text-anchor="middle" x="199.844" y="-906" font-family="Helvetica,sans-Serif" font-size="10.00">+B</text>
<text text-anchor="middle" x="199.844" y="-895" font-family="Helvetica,sans-Serif" font-size="10.00">+G</text>
</g>
<!-- Node29 -->
<g id="node5" class="node"><title>Node29</title>
<g id="a_node5"><a xlink:href="a26075.html" target="_top" xlink:title=" ">
<polygon fill="none" stroke="black" points="726.344,-728.5 726.344,-873.5 805.344,-873.5 805.344,-728.5 726.344,-728.5"/>
<text text-anchor="middle" x="765.844" y="-861.5" font-family="Helvetica,sans-Serif" font-size="10.00">SDK::FVector</text>
<polyline fill="none" stroke="black" points="726.344,-854.5 805.344,-854.5 "/>
<text text-anchor="middle" x="765.844" y="-842.5" font-family="Helvetica,sans-Serif" font-size="10.00"> </text>
<polyline fill="none" stroke="black" points="726.344,-835.5 805.344,-835.5 "/>
<text text-anchor="start" x="734.344" y="-823.5" font-family="Helvetica,sans-Serif" font-size="10.00">+ FVector()</text>
<text text-anchor="start" x="734.344" y="-812.5" font-family="Helvetica,sans-Serif" font-size="10.00">+ FVector()</text>
<text text-anchor="start" x="734.344" y="-801.5" font-family="Helvetica,sans-Serif" font-size="10.00">+ operator+()</text>
<text text-anchor="start" x="734.344" y="-790.5" font-family="Helvetica,sans-Serif" font-size="10.00">+ operator&#45;()</text>
<text text-anchor="start" x="734.344" y="-779.5" font-family="Helvetica,sans-Serif" font-size="10.00">+ operator*()</text>
<text text-anchor="start" x="734.344" y="-768.5" font-family="Helvetica,sans-Serif" font-size="10.00">+ operator=()</text>
<text text-anchor="start" x="734.344" y="-757.5" font-family="Helvetica,sans-Serif" font-size="10.00">+ operator+=()</text>
<text text-anchor="start" x="734.344" y="-746.5" font-family="Helvetica,sans-Serif" font-size="10.00">+ operator&#45;=()</text>
<text text-anchor="start" x="734.344" y="-735.5" font-family="Helvetica,sans-Serif" font-size="10.00">+ operator*=()</text>
</a>
</g>
</g>
<!-- Node29&#45;&gt;Node1 -->
<g id="edge12" class="edge"><title>Node29&#45;&gt;Node1</title>
<path fill="none" stroke="#404040" d="M732.424,-728.479C712.542,-683.904 687.943,-624.956 670.844,-571 640.158,-474.174 653.958,-444.022 620.844,-348 617.903,-339.471 614.69,-330.82 611.286,-322.148"/>
<polygon fill="none" stroke="#404040" points="611.179,-321.88 605.231,-317.803 606.707,-310.745 612.654,-314.822 611.179,-321.88"/>
<text text-anchor="middle" x="734.344" y="-457" font-family="Helvetica,sans-Serif" font-size="10.00"> +LightShaftOverrideDirection</text>
</g>
<!-- Node29&#45;&gt;Node2 -->
<g id="edge4" class="edge"><title>Node29&#45;&gt;Node2</title>
<path fill="none" stroke="#404040" d="M726.212,-738.807C721.764,-734.69 716.97,-730.996 711.844,-728 658.825,-697.009 619.294,-752.375 574.844,-710 573.558,-708.774 562.112,-645.26 551.087,-582.63"/>
<polygon fill="none" stroke="#404040" points="551.041,-582.367 546.063,-577.15 548.964,-570.548 553.942,-575.765 551.041,-582.367"/>
<text text-anchor="middle" x="621.344" y="-647" font-family="Helvetica,sans-Serif" font-size="10.00"> +LightFunctionScale</text>
</g>
<!-- Node21 -->
<g id="node6" class="node"><title>Node21</title>
<g id="a_node6"><a xlink:title=" ">
<polygon fill="none" stroke="#bfbfbf" points="789.344,-954.5 789.344,-1011.5 824.344,-1011.5 824.344,-954.5 789.344,-954.5"/>
<text text-anchor="middle" x="806.844" y="-999.5" font-family="Helvetica,sans-Serif" font-size="10.00">float</text>
<polyline fill="none" stroke="#bfbfbf" points="789.344,-992.5 824.344,-992.5 "/>
<text text-anchor="middle" x="806.844" y="-980.5" font-family="Helvetica,sans-Serif" font-size="10.00"> </text>
<polyline fill="none" stroke="#bfbfbf" points="789.344,-973.5 824.344,-973.5 "/>
<text text-anchor="middle" x="806.844" y="-961.5" font-family="Helvetica,sans-Serif" font-size="10.00"> </text>
</a>
</g>
</g>
<!-- Node21&#45;&gt;Node1 -->
<g id="edge14" class="edge"><title>Node21&#45;&gt;Node1</title>
<path fill="none" stroke="#404040" d="M824.575,-979.246C847.506,-974.663 886.762,-963.128 905.844,-936 981.138,-828.956 1009.08,-458.432 938.844,-348 871.897,-242.732 730.17,-194.342 632.482,-172.792"/>
<polygon fill="none" stroke="#404040" points="632.233,-172.739 625.53,-175.398 620.497,-170.234 627.2,-167.574 632.233,-172.739"/>
<text text-anchor="middle" x="1066.84" y="-702" font-family="Helvetica,sans-Serif" font-size="10.00"> +LastTransitionSizeOverride</text>
<text text-anchor="middle" x="1066.84" y="-691" font-family="Helvetica,sans-Serif" font-size="10.00">+CloseCascadeUpdateRateInMs</text>
<text text-anchor="middle" x="1066.84" y="-680" font-family="Helvetica,sans-Serif" font-size="10.00">+DynamicShadowDistanceMovableLight</text>
<text text-anchor="middle" x="1066.84" y="-669" font-family="Helvetica,sans-Serif" font-size="10.00">+ShadowDistanceFadeoutFraction</text>
<text text-anchor="middle" x="1066.84" y="-658" font-family="Helvetica,sans-Serif" font-size="10.00">+TraceDistance</text>
<text text-anchor="middle" x="1066.84" y="-647" font-family="Helvetica,sans-Serif" font-size="10.00">+CascadeTransitionFraction</text>
<text text-anchor="middle" x="1066.84" y="-636" font-family="Helvetica,sans-Serif" font-size="10.00">+NormalOffsetScale</text>
<text text-anchor="middle" x="1066.84" y="-625" font-family="Helvetica,sans-Serif" font-size="10.00">+WholeSceneDynamicShadowRadius</text>
<text text-anchor="middle" x="1066.84" y="-614" font-family="Helvetica,sans-Serif" font-size="10.00">+OcclusionDepthRange</text>
<text text-anchor="middle" x="1066.84" y="-603" font-family="Helvetica,sans-Serif" font-size="10.00">+LightSourceAngle</text>
<text text-anchor="middle" x="1066.84" y="-592" font-family="Helvetica,sans-Serif" font-size="10.00">...</text>
</g>
<!-- Node21&#45;&gt;Node2 -->
<g id="edge6" class="edge"><title>Node21&#45;&gt;Node2</title>
<path fill="none" stroke="#404040" d="M789.215,-980.732C741.15,-976.225 607.566,-956.474 549.844,-874 533.429,-850.547 529.7,-696.132 529.223,-582.846"/>
<polygon fill="none" stroke="#404040" points="529.223,-582.635 525.203,-576.648 529.184,-570.635 533.203,-576.622 529.223,-582.635"/>
<text text-anchor="middle" x="633.344" y="-853.5" font-family="Helvetica,sans-Serif" font-size="10.00"> +BloomScale</text>
<text text-anchor="middle" x="633.344" y="-842.5" font-family="Helvetica,sans-Serif" font-size="10.00">+BloomThreshold</text>
<text text-anchor="middle" x="633.344" y="-831.5" font-family="Helvetica,sans-Serif" font-size="10.00">+IESBrightnessScale</text>
<text text-anchor="middle" x="633.344" y="-820.5" font-family="Helvetica,sans-Serif" font-size="10.00">+ShadowResMaxDynamicDegradation</text>
<text text-anchor="middle" x="633.344" y="-809.5" font-family="Helvetica,sans-Serif" font-size="10.00">+MinRoughness</text>
<text text-anchor="middle" x="633.344" y="-798.5" font-family="Helvetica,sans-Serif" font-size="10.00">+RayStartOffsetDepthScale</text>
<text text-anchor="middle" x="633.344" y="-787.5" font-family="Helvetica,sans-Serif" font-size="10.00">+ShadowBias</text>
<text text-anchor="middle" x="633.344" y="-776.5" font-family="Helvetica,sans-Serif" font-size="10.00">+ShadowSharpen</text>
<text text-anchor="middle" x="633.344" y="-765.5" font-family="Helvetica,sans-Serif" font-size="10.00">+SourceRadius</text>
<text text-anchor="middle" x="633.344" y="-754.5" font-family="Helvetica,sans-Serif" font-size="10.00">+DisabledBrightness</text>
<text text-anchor="middle" x="633.344" y="-743.5" font-family="Helvetica,sans-Serif" font-size="10.00">...</text>
</g>
<!-- Node21&#45;&gt;Node29 -->
<g id="edge5" class="edge"><title>Node21&#45;&gt;Node29</title>
<path fill="none" stroke="#404040" d="M800.527,-954.269C796.3,-935.71 790.494,-910.222 784.842,-885.406"/>
<polygon fill="none" stroke="#404040" points="784.84,-885.397 779.607,-880.435 782.175,-873.696 787.407,-878.658 784.84,-885.397"/>
<text text-anchor="middle" x="804.344" y="-922.5" font-family="Helvetica,sans-Serif" font-size="10.00"> +X</text>
<text text-anchor="middle" x="804.344" y="-911.5" font-family="Helvetica,sans-Serif" font-size="10.00">+Y</text>
<text text-anchor="middle" x="804.344" y="-900.5" font-family="Helvetica,sans-Serif" font-size="10.00">+Z</text>
</g>
<!-- Node51 -->
<g id="node8" class="node"><title>Node51</title>
<g id="a_node8"><a xlink:href="a30475.html" target="_top" xlink:title=" ">
<polygon fill="none" stroke="red" points="763.844,-615.5 763.844,-683.5 903.844,-683.5 903.844,-615.5 763.844,-615.5"/>
<text text-anchor="start" x="771.844" y="-671.5" font-family="Helvetica,sans-Serif" font-size="10.00">SDK::FLightmassDirectional</text>
<text text-anchor="middle" x="833.844" y="-660.5" font-family="Helvetica,sans-Serif" font-size="10.00">LightSettings</text>
<polyline fill="none" stroke="red" points="763.844,-653.5 903.844,-653.5 "/>
<text text-anchor="middle" x="833.844" y="-641.5" font-family="Helvetica,sans-Serif" font-size="10.00"> </text>
<polyline fill="none" stroke="red" points="763.844,-634.5 903.844,-634.5 "/>
<text text-anchor="middle" x="833.844" y="-622.5" font-family="Helvetica,sans-Serif" font-size="10.00"> </text>
</a>
</g>
</g>
<!-- Node21&#45;&gt;Node51 -->
<g id="edge11" class="edge"><title>Node21&#45;&gt;Node51</title>
<path fill="none" stroke="#404040" d="M809.999,-954.284C810.645,-948.26 811.294,-941.919 811.844,-936 819.706,-851.324 826.884,-752.333 830.782,-695.967"/>
<polygon fill="none" stroke="#404040" points="830.786,-695.905 827.207,-689.645 831.609,-683.934 835.188,-690.194 830.786,-695.905"/>
<text text-anchor="middle" x="858.844" y="-911.5" font-family="Helvetica,sans-Serif" font-size="10.00"> +LightSourceAngle</text>
</g>
<!-- Node46 -->
<g id="node7" class="node"><title>Node46</title>
<g id="a_node7"><a xlink:title=" ">
<polygon fill="none" stroke="#bfbfbf" points="290.344,-772.5 290.344,-829.5 319.344,-829.5 319.344,-772.5 290.344,-772.5"/>
<text text-anchor="middle" x="304.844" y="-817.5" font-family="Helvetica,sans-Serif" font-size="10.00">int</text>
<polyline fill="none" stroke="#bfbfbf" points="290.344,-810.5 319.344,-810.5 "/>
<text text-anchor="middle" x="304.844" y="-798.5" font-family="Helvetica,sans-Serif" font-size="10.00"> </text>
<polyline fill="none" stroke="#bfbfbf" points="290.344,-791.5 319.344,-791.5 "/>
<text text-anchor="middle" x="304.844" y="-779.5" font-family="Helvetica,sans-Serif" font-size="10.00"> </text>
</a>
</g>
</g>
<!-- Node46&#45;&gt;Node1 -->
<g id="edge15" class="edge"><title>Node46&#45;&gt;Node1</title>
<path fill="none" stroke="#404040" d="M298.142,-772.316C281.861,-698.917 246.379,-494.915 314.844,-348 339.381,-295.347 385.946,-251.036 429.483,-218.342"/>
<polygon fill="none" stroke="#404040" points="429.63,-218.234 432.095,-211.457 439.298,-211.125 436.834,-217.902 429.63,-218.234"/>
<text text-anchor="middle" x="376.344" y="-462.5" font-family="Helvetica,sans-Serif" font-size="10.00"> +FarShadowCascadeCount</text>
<text text-anchor="middle" x="376.344" y="-451.5" font-family="Helvetica,sans-Serif" font-size="10.00">+DynamicShadowCascades</text>
</g>
<!-- Node46&#45;&gt;Node2 -->
<g id="edge8" class="edge"><title>Node46&#45;&gt;Node2</title>
<path fill="none" stroke="#404040" d="M315.405,-772.445C322.094,-757.817 331.933,-740.362 344.844,-728 357.765,-715.629 370.054,-724.268 380.844,-710 413.863,-666.339 372.864,-634.131 403.844,-589 412.429,-576.493 421.27,-580.807 432.844,-571 434.67,-569.453 436.492,-567.871 438.308,-566.259"/>
<polygon fill="none" stroke="#404040" points="438.496,-566.087 440.207,-559.082 447.332,-557.967 445.62,-564.972 438.496,-566.087"/>
<text text-anchor="middle" x="452.844" y="-647" font-family="Helvetica,sans-Serif" font-size="10.00"> +ShadowMapChannel</text>
</g>
<!-- Node51&#45;&gt;Node1 -->
<g id="edge10" class="edge"><title>Node51&#45;&gt;Node1</title>
<path fill="none" stroke="#404040" d="M838.747,-615.087C845.602,-556.528 852.12,-433.469 801.844,-348 762.965,-281.906 691.245,-232.857 631.21,-200.952"/>
<polygon fill="none" stroke="#404040" points="631.175,-200.934 624.006,-201.71 620.532,-195.391 627.701,-194.615 631.175,-200.934"/>
<text text-anchor="middle" x="889.344" y="-457" font-family="Helvetica,sans-Serif" font-size="10.00"> +LightmassSettings</text>
</g>
</g>
</svg>
