<?xml version="1.0" encoding="UTF-8" standalone="no"?>
<!DOCTYPE svg PUBLIC "-//W3C//DTD SVG 1.1//EN"
 "http://www.w3.org/Graphics/SVG/1.1/DTD/svg11.dtd">
<!-- Generated by graphviz version 2.38.0 (20140413.2041)
 -->
<!-- Title: SDK::USphereReflectionCaptureComponent Pages: 1 -->
<svg width="458pt" height="364pt"
 viewBox="0.00 0.00 458.47 364.00" xmlns="http://www.w3.org/2000/svg" xmlns:xlink="http://www.w3.org/1999/xlink">
<g id="graph0" class="graph" transform="scale(1 1) rotate(0) translate(4 360)">
<title>SDK::USphereReflectionCaptureComponent</title>
<!-- Node1 -->
<g id="node1" class="node"><title>Node1</title>
<g id="a_node1"><a xlink:title=" ">
<polygon fill="#bfbfbf" stroke="black" points="113.967,-0.5 113.967,-68.5 270.967,-68.5 270.967,-0.5 113.967,-0.5"/>
<text text-anchor="start" x="121.967" y="-56.5" font-family="Helvetica,sans-Serif" font-size="10.00">SDK::USphereReflectionCapture</text>
<text text-anchor="middle" x="192.467" y="-45.5" font-family="Helvetica,sans-Serif" font-size="10.00">Component</text>
<polyline fill="none" stroke="black" points="113.967,-38.5 270.967,-38.5 "/>
<text text-anchor="middle" x="192.467" y="-26.5" font-family="Helvetica,sans-Serif" font-size="10.00"> </text>
<polyline fill="none" stroke="black" points="113.967,-19.5 270.967,-19.5 "/>
<text text-anchor="start" x="121.967" y="-7.5" font-family="Helvetica,sans-Serif" font-size="10.00">+ StaticClass()</text>
</a>
</g>
</g>
<!-- Node2 -->
<g id="node2" class="node"><title>Node2</title>
<g id="a_node2"><a xlink:href="a27471.html" target="_top" xlink:title=" ">
<polygon fill="none" stroke="red" points="104.467,-116.5 104.467,-239.5 280.467,-239.5 280.467,-116.5 104.467,-116.5"/>
<text text-anchor="middle" x="192.467" y="-227.5" font-family="Helvetica,sans-Serif" font-size="10.00">SDK::UReflectionCaptureComponent</text>
<polyline fill="none" stroke="red" points="104.467,-220.5 280.467,-220.5 "/>
<text text-anchor="middle" x="192.467" y="-208.5" font-family="Helvetica,sans-Serif" font-size="10.00"> </text>
<polyline fill="none" stroke="red" points="104.467,-201.5 280.467,-201.5 "/>
<text text-anchor="start" x="112.467" y="-189.5" font-family="Helvetica,sans-Serif" font-size="10.00">+ UpdateReflectionCapture()</text>
<text text-anchor="start" x="112.467" y="-178.5" font-family="Helvetica,sans-Serif" font-size="10.00">+ UpdateAllReflectionCaptures()</text>
<text text-anchor="start" x="112.467" y="-167.5" font-family="Helvetica,sans-Serif" font-size="10.00">+ SetTint()</text>
<text text-anchor="start" x="112.467" y="-156.5" font-family="Helvetica,sans-Serif" font-size="10.00">+ SetShadowBrightness()</text>
<text text-anchor="start" x="112.467" y="-145.5" font-family="Helvetica,sans-Serif" font-size="10.00">+ SetLPVOcclusionBrightness()</text>
<text text-anchor="start" x="112.467" y="-134.5" font-family="Helvetica,sans-Serif" font-size="10.00">+ SetBrightness()</text>
<text text-anchor="start" x="112.467" y="-123.5" font-family="Helvetica,sans-Serif" font-size="10.00">+ StaticClass()</text>
</a>
</g>
</g>
<!-- Node2&#45;&gt;Node1 -->
<g id="edge1" class="edge"><title>Node2&#45;&gt;Node1</title>
<path fill="none" stroke="midnightblue" d="M192.467,-106.16C192.467,-93.0326 192.467,-79.9089 192.467,-68.5973"/>
<polygon fill="none" stroke="midnightblue" points="188.967,-106.17 192.467,-116.17 195.967,-106.17 188.967,-106.17"/>
</g>
<!-- Node14 -->
<g id="node3" class="node"><title>Node14</title>
<g id="a_node3"><a xlink:title=" ">
<polygon fill="none" stroke="#bfbfbf" points="42.9671,-298.5 42.9671,-355.5 77.9671,-355.5 77.9671,-298.5 42.9671,-298.5"/>
<text text-anchor="middle" x="60.4671" y="-343.5" font-family="Helvetica,sans-Serif" font-size="10.00">char</text>
<polyline fill="none" stroke="#bfbfbf" points="42.9671,-336.5 77.9671,-336.5 "/>
<text text-anchor="middle" x="60.4671" y="-324.5" font-family="Helvetica,sans-Serif" font-size="10.00"> </text>
<polyline fill="none" stroke="#bfbfbf" points="42.9671,-317.5 77.9671,-317.5 "/>
<text text-anchor="middle" x="60.4671" y="-305.5" font-family="Helvetica,sans-Serif" font-size="10.00"> </text>
</a>
</g>
</g>
<!-- Node14&#45;&gt;Node1 -->
<g id="edge4" class="edge"><title>Node14&#45;&gt;Node1</title>
<path fill="none" stroke="#404040" d="M42.7727,-298.854C17.611,-256.483 -21.5683,-173.53 15.4671,-116 35.0004,-85.6577 69.0826,-66.6191 102.158,-54.7347"/>
<polygon fill="none" stroke="#404040" points="102.415,-54.6481 106.827,-48.944 113.789,-50.8226 109.377,-56.5267 102.415,-54.6481"/>
<text text-anchor="middle" x="55.4671" y="-175.5" font-family="Helvetica,sans-Serif" font-size="10.00"> +UnknownData00</text>
</g>
<!-- Node14&#45;&gt;Node2 -->
<g id="edge2" class="edge"><title>Node14&#45;&gt;Node2</title>
<path fill="none" stroke="#404040" d="M77.9957,-306.48C91.4344,-291.514 110.848,-269.894 129.883,-248.696"/>
<polygon fill="none" stroke="#404040" points="129.981,-248.587 131.013,-241.45 137.998,-239.658 136.966,-246.795 129.981,-248.587"/>
<text text-anchor="middle" x="159.467" y="-272" font-family="Helvetica,sans-Serif" font-size="10.00"> +UnknownData01</text>
<text text-anchor="middle" x="159.467" y="-261" font-family="Helvetica,sans-Serif" font-size="10.00">+UnknownData00</text>
</g>
<!-- Node35 -->
<g id="node4" class="node"><title>Node35</title>
<g id="a_node4"><a xlink:href="a27451.html" target="_top" xlink:title=" ">
<polygon fill="none" stroke="red" points="298.467,-149.5 298.467,-206.5 450.467,-206.5 450.467,-149.5 298.467,-149.5"/>
<text text-anchor="middle" x="374.467" y="-194.5" font-family="Helvetica,sans-Serif" font-size="10.00">SDK::UDrawSphereComponent</text>
<polyline fill="none" stroke="red" points="298.467,-187.5 450.467,-187.5 "/>
<text text-anchor="middle" x="374.467" y="-175.5" font-family="Helvetica,sans-Serif" font-size="10.00"> </text>
<polyline fill="none" stroke="red" points="298.467,-168.5 450.467,-168.5 "/>
<text text-anchor="start" x="306.467" y="-156.5" font-family="Helvetica,sans-Serif" font-size="10.00">+ StaticClass()</text>
</a>
</g>
</g>
<!-- Node35&#45;&gt;Node1 -->
<g id="edge3" class="edge"><title>Node35&#45;&gt;Node1</title>
<path fill="none" stroke="#404040" d="M338.944,-149.381C312.06,-128.48 274.731,-99.4579 244.486,-75.9431"/>
<polygon fill="none" stroke="#404040" points="244.411,-75.8847 237.219,-75.3598 234.937,-68.5192 242.129,-69.0441 244.411,-75.8847"/>
<text text-anchor="middle" x="328.967" y="-90" font-family="Helvetica,sans-Serif" font-size="10.00"> +PreviewInfluenceRadius</text>
</g>
</g>
</svg>
