<?xml version="1.0" encoding="UTF-8" standalone="no"?>
<!DOCTYPE svg PUBLIC "-//W3C//DTD SVG 1.1//EN"
 "http://www.w3.org/Graphics/SVG/1.1/DTD/svg11.dtd">
<!-- Generated by graphviz version 2.38.0 (20140413.2041)
 -->
<!-- Title: SDK::USphereComponent Pages: 1 -->
<svg width="304pt" height="364pt"
 viewBox="0.00 0.00 304.05 364.00" xmlns="http://www.w3.org/2000/svg" xmlns:xlink="http://www.w3.org/1999/xlink">
<g id="graph0" class="graph" transform="scale(1 1) rotate(0) translate(4 360)">
<title>SDK::USphereComponent</title>
<!-- Node1 -->
<g id="node1" class="node"><title>Node1</title>
<g id="a_node1"><a xlink:title=" ">
<polygon fill="#bfbfbf" stroke="black" points="89.5495,-0.5 89.5495,-101.5 238.55,-101.5 238.55,-0.5 89.5495,-0.5"/>
<text text-anchor="middle" x="164.05" y="-89.5" font-family="Helvetica,sans-Serif" font-size="10.00">SDK::USphereComponent</text>
<polyline fill="none" stroke="black" points="89.5495,-82.5 238.55,-82.5 "/>
<text text-anchor="middle" x="164.05" y="-70.5" font-family="Helvetica,sans-Serif" font-size="10.00"> </text>
<polyline fill="none" stroke="black" points="89.5495,-63.5 238.55,-63.5 "/>
<text text-anchor="start" x="97.5495" y="-51.5" font-family="Helvetica,sans-Serif" font-size="10.00">+ SetSphereRadius()</text>
<text text-anchor="start" x="97.5495" y="-40.5" font-family="Helvetica,sans-Serif" font-size="10.00">+ GetUnscaledSphereRadius()</text>
<text text-anchor="start" x="97.5495" y="-29.5" font-family="Helvetica,sans-Serif" font-size="10.00">+ GetShapeScale()</text>
<text text-anchor="start" x="97.5495" y="-18.5" font-family="Helvetica,sans-Serif" font-size="10.00">+ GetScaledSphereRadius()</text>
<text text-anchor="start" x="97.5495" y="-7.5" font-family="Helvetica,sans-Serif" font-size="10.00">+ StaticClass()</text>
</a>
</g>
</g>
<!-- Node2 -->
<g id="node2" class="node"><title>Node2</title>
<g id="a_node2"><a xlink:href="a26555.html" target="_top" xlink:title=" ">
<polygon fill="none" stroke="red" points="100.55,-149.5 100.55,-206.5 227.55,-206.5 227.55,-149.5 100.55,-149.5"/>
<text text-anchor="middle" x="164.05" y="-194.5" font-family="Helvetica,sans-Serif" font-size="10.00">SDK::UShapeComponent</text>
<polyline fill="none" stroke="red" points="100.55,-187.5 227.55,-187.5 "/>
<text text-anchor="middle" x="164.05" y="-175.5" font-family="Helvetica,sans-Serif" font-size="10.00"> </text>
<polyline fill="none" stroke="red" points="100.55,-168.5 227.55,-168.5 "/>
<text text-anchor="start" x="108.55" y="-156.5" font-family="Helvetica,sans-Serif" font-size="10.00">+ StaticClass()</text>
</a>
</g>
</g>
<!-- Node2&#45;&gt;Node1 -->
<g id="edge1" class="edge"><title>Node2&#45;&gt;Node1</title>
<path fill="none" stroke="midnightblue" d="M164.05,-138.948C164.05,-127.24 164.05,-114.174 164.05,-101.802"/>
<polygon fill="none" stroke="midnightblue" points="160.55,-139.258 164.05,-149.258 167.55,-139.258 160.55,-139.258"/>
</g>
<!-- Node15 -->
<g id="node3" class="node"><title>Node15</title>
<g id="a_node3"><a xlink:title=" ">
<polygon fill="none" stroke="#bfbfbf" points="32.5495,-298.5 32.5495,-355.5 67.5495,-355.5 67.5495,-298.5 32.5495,-298.5"/>
<text text-anchor="middle" x="50.0495" y="-343.5" font-family="Helvetica,sans-Serif" font-size="10.00">char</text>
<polyline fill="none" stroke="#bfbfbf" points="32.5495,-336.5 67.5495,-336.5 "/>
<text text-anchor="middle" x="50.0495" y="-324.5" font-family="Helvetica,sans-Serif" font-size="10.00"> </text>
<polyline fill="none" stroke="#bfbfbf" points="32.5495,-317.5 67.5495,-317.5 "/>
<text text-anchor="middle" x="50.0495" y="-305.5" font-family="Helvetica,sans-Serif" font-size="10.00"> </text>
</a>
</g>
</g>
<!-- Node15&#45;&gt;Node1 -->
<g id="edge3" class="edge"><title>Node15&#45;&gt;Node1</title>
<path fill="none" stroke="#404040" d="M32.6617,-298.233C12.3206,-261.873 -15.4138,-197.111 11.0495,-149 26.0368,-121.753 52.2706,-101.083 78.8277,-85.9746"/>
<polygon fill="none" stroke="#404040" points="78.844,-85.9658 82.2142,-79.5907 89.3951,-80.2496 86.025,-86.6247 78.844,-85.9658"/>
<text text-anchor="middle" x="51.0495" y="-175.5" font-family="Helvetica,sans-Serif" font-size="10.00"> +UnknownData00</text>
</g>
<!-- Node15&#45;&gt;Node2 -->
<g id="edge2" class="edge"><title>Node15&#45;&gt;Node2</title>
<path fill="none" stroke="#404040" d="M67.6122,-303.353C85.5793,-280.185 113.8,-243.795 135.081,-216.354"/>
<polygon fill="none" stroke="#404040" points="135.221,-216.173 135.737,-208.981 142.575,-206.691 142.059,-213.883 135.221,-216.173"/>
<text text-anchor="middle" x="192.55" y="-272" font-family="Helvetica,sans-Serif" font-size="10.00"> +UnknownData01</text>
<text text-anchor="middle" x="192.55" y="-261" font-family="Helvetica,sans-Serif" font-size="10.00">+bShouldCollideWhenPlacing</text>
<text text-anchor="middle" x="192.55" y="-250" font-family="Helvetica,sans-Serif" font-size="10.00">+bDrawOnlyIfSelected</text>
<text text-anchor="middle" x="192.55" y="-239" font-family="Helvetica,sans-Serif" font-size="10.00">+bDynamicObstacle</text>
<text text-anchor="middle" x="192.55" y="-228" font-family="Helvetica,sans-Serif" font-size="10.00">+UnknownData00</text>
</g>
<!-- Node21 -->
<g id="node4" class="node"><title>Node21</title>
<g id="a_node4"><a xlink:title=" ">
<polygon fill="none" stroke="#bfbfbf" points="245.55,-149.5 245.55,-206.5 280.55,-206.5 280.55,-149.5 245.55,-149.5"/>
<text text-anchor="middle" x="263.05" y="-194.5" font-family="Helvetica,sans-Serif" font-size="10.00">float</text>
<polyline fill="none" stroke="#bfbfbf" points="245.55,-187.5 280.55,-187.5 "/>
<text text-anchor="middle" x="263.05" y="-175.5" font-family="Helvetica,sans-Serif" font-size="10.00"> </text>
<polyline fill="none" stroke="#bfbfbf" points="245.55,-168.5 280.55,-168.5 "/>
<text text-anchor="middle" x="263.05" y="-156.5" font-family="Helvetica,sans-Serif" font-size="10.00"> </text>
</a>
</g>
</g>
<!-- Node21&#45;&gt;Node1 -->
<g id="edge4" class="edge"><title>Node21&#45;&gt;Node1</title>
<path fill="none" stroke="#404040" d="M245.35,-154.653C235.678,-142.44 223.197,-126.681 210.931,-111.193"/>
<polygon fill="none" stroke="#404040" points="210.798,-111.026 203.938,-108.806 203.348,-101.619 210.209,-103.839 210.798,-111.026"/>
<text text-anchor="middle" x="261.05" y="-123" font-family="Helvetica,sans-Serif" font-size="10.00"> +SphereRadius</text>
</g>
</g>
</svg>
