<?xml version="1.0" encoding="UTF-8" standalone="no"?>
<!DOCTYPE svg PUBLIC "-//W3C//DTD SVG 1.1//EN"
 "http://www.w3.org/Graphics/SVG/1.1/DTD/svg11.dtd">
<!-- Generated by graphviz version 2.38.0 (20140413.2041)
 -->
<!-- Title: SDK::UCollisionProfile Pages: 1 -->
<!--zoomable 342 -->
<svg id="main" version="1.1" xmlns="http://www.w3.org/2000/svg" xmlns:xlink="http://www.w3.org/1999/xlink" xml:space="preserve" onload="init(evt)">
<style type="text/css"><![CDATA[
.edge:hover path { stroke: red; }
.edge:hover polygon { stroke: red; fill: red; }
]]></style>
<script type="text/javascript"><![CDATA[
var edges = document.getElementsByTagName('g');
if (edges && edges.length) {
  for (var i=0;i<edges.length;i++) {
    if (edges[i].id.substr(0,4)=='edge') {
      edges[i].setAttribute('class','edge');
    }
  }
}
]]></script>
        <defs>
                <circle id="rim" cx="0" cy="0" r="7"/>
                <circle id="rim2" cx="0" cy="0" r="3.5"/>
                <g id="zoomPlus">
                        <use xlink:href="#rim" fill="#404040">
                                <set attributeName="fill" to="#808080" begin="zoomplus.mouseover" end="zoomplus.mouseout"/>
                        </use>
                        <path d="M-4,0h8M0,-4v8" fill="none" stroke="white" stroke-width="1.5" pointer-events="none"/>
                </g>
                <g id="zoomMin">
                        <use xlink:href="#rim" fill="#404040">
                                <set attributeName="fill" to="#808080" begin="zoomminus.mouseover" end="zoomminus.mouseout"/>
                        </use>
                        <path d="M-4,0h8" fill="none" stroke="white" stroke-width="1.5" pointer-events="none"/>
                </g>
                <g id="dirArrow">
                        <path fill="none" stroke="white" stroke-width="1.5" d="M0,-3.0v7 M-2.5,-0.5L0,-3.0L2.5,-0.5"/>
                </g>
               <g id="resetDef">
                       <use xlink:href="#rim2" fill="#404040">
                               <set attributeName="fill" to="#808080" begin="reset.mouseover" end="reset.mouseout"/>
                       </use>
               </g>
        </defs>

<script type="text/javascript">
var viewWidth = 878;
var viewHeight = 342;
var sectionId = 'dynsection-1';
</script>
<script xlink:href="svgpan.js"/>
<svg id="graph" class="graph">
<g id="viewport">
<title>SDK::UCollisionProfile</title>
<!-- Node1 -->
<g id="node1" class="node"><title>Node1</title>
<g id="a_node1"><a xlink:title=" ">
<polygon fill="#bfbfbf" stroke="black" points="371.467,-0.5 371.467,-57.5 484.467,-57.5 484.467,-0.5 371.467,-0.5"/>
<text text-anchor="middle" x="427.967" y="-45.5" font-family="Helvetica,sans-Serif" font-size="10.00">SDK::UCollisionProfile</text>
<polyline fill="none" stroke="black" points="371.467,-38.5 484.467,-38.5 "/>
<text text-anchor="middle" x="427.967" y="-26.5" font-family="Helvetica,sans-Serif" font-size="10.00"> </text>
<polyline fill="none" stroke="black" points="371.467,-19.5 484.467,-19.5 "/>
<text text-anchor="start" x="379.467" y="-7.5" font-family="Helvetica,sans-Serif" font-size="10.00">+ StaticClass()</text>
</a>
</g>
</g>
<!-- Node2 -->
<g id="node2" class="node"><title>Node2</title>
<g id="a_node2"><a xlink:href="a27591.html" target="_top" xlink:title=" ">
<polygon fill="none" stroke="red" points="105.967,-144 105.967,-201 233.967,-201 233.967,-144 105.967,-144"/>
<text text-anchor="middle" x="169.967" y="-189" font-family="Helvetica,sans-Serif" font-size="10.00">SDK::UDeveloperSettings</text>
<polyline fill="none" stroke="red" points="105.967,-182 233.967,-182 "/>
<text text-anchor="middle" x="169.967" y="-170" font-family="Helvetica,sans-Serif" font-size="10.00"> </text>
<polyline fill="none" stroke="red" points="105.967,-163 233.967,-163 "/>
<text text-anchor="start" x="113.967" y="-151" font-family="Helvetica,sans-Serif" font-size="10.00">+ StaticClass()</text>
</a>
</g>
</g>
<!-- Node2&#45;&gt;Node1 -->
<g id="edge1" class="edge"><title>Node2&#45;&gt;Node1</title>
<path fill="none" stroke="midnightblue" d="M211.293,-137.654C221.366,-130.094 232.315,-122.422 242.967,-116 284.218,-91.1272 333.851,-68.4102 371.319,-52.5783"/>
<polygon fill="none" stroke="midnightblue" points="208.881,-135.092 203.064,-143.948 213.133,-140.653 208.881,-135.092"/>
</g>
<!-- Node12 -->
<g id="node3" class="node"><title>Node12</title>
<g id="a_node3"><a xlink:title=" ">
<polygon fill="none" stroke="#bfbfbf" points="38.4666,-276.5 38.4666,-333.5 73.4666,-333.5 73.4666,-276.5 38.4666,-276.5"/>
<text text-anchor="middle" x="55.9666" y="-321.5" font-family="Helvetica,sans-Serif" font-size="10.00">char</text>
<polyline fill="none" stroke="#bfbfbf" points="38.4666,-314.5 73.4666,-314.5 "/>
<text text-anchor="middle" x="55.9666" y="-302.5" font-family="Helvetica,sans-Serif" font-size="10.00"> </text>
<polyline fill="none" stroke="#bfbfbf" points="38.4666,-295.5 73.4666,-295.5 "/>
<text text-anchor="middle" x="55.9666" y="-283.5" font-family="Helvetica,sans-Serif" font-size="10.00"> </text>
</a>
</g>
</g>
<!-- Node12&#45;&gt;Node1 -->
<g id="edge5" class="edge"><title>Node12&#45;&gt;Node1</title>
<path fill="none" stroke="#404040" d="M38.2877,-277.432C14.3664,-237.831 -21.1823,-162.958 16.9666,-116 59.3036,-63.8873 253.513,-42.2431 359.113,-34.2018"/>
<polygon fill="none" stroke="#404040" points="359.257,-34.1913 364.947,-29.7613 371.224,-33.3096 365.534,-37.7396 359.257,-34.1913"/>
<text text-anchor="middle" x="56.9666" y="-170" font-family="Helvetica,sans-Serif" font-size="10.00"> +UnknownData00</text>
</g>
<!-- Node12&#45;&gt;Node2 -->
<g id="edge2" class="edge"><title>Node12&#45;&gt;Node2</title>
<path fill="none" stroke="#404040" d="M73.5292,-283.895C90.6219,-264.329 116.995,-234.139 137.844,-210.272"/>
<polygon fill="none" stroke="#404040" points="137.925,-210.179 138.86,-203.029 145.819,-201.142 144.885,-208.292 137.925,-210.179"/>
<text text-anchor="middle" x="142.967" y="-250" font-family="Helvetica,sans-Serif" font-size="10.00"> +UnknownData00</text>
</g>
<!-- Node14 -->
<g id="node4" class="node"><title>Node14</title>
<g id="a_node4"><a xlink:href="a25823.html" target="_top" xlink:title=" ">
<polygon fill="none" stroke="black" points="252.467,-116.5 252.467,-228.5 433.467,-228.5 433.467,-116.5 252.467,-116.5"/>
<text text-anchor="start" x="260.467" y="-216.5" font-family="Helvetica,sans-Serif" font-size="10.00">SDK::TArray&lt; struct</text>
<text text-anchor="middle" x="342.967" y="-205.5" font-family="Helvetica,sans-Serif" font-size="10.00"> SDK::FCollisionResponseTemplate &gt;</text>
<polyline fill="none" stroke="black" points="252.467,-198.5 433.467,-198.5 "/>
<text text-anchor="middle" x="342.967" y="-186.5" font-family="Helvetica,sans-Serif" font-size="10.00"> </text>
<polyline fill="none" stroke="black" points="252.467,-179.5 433.467,-179.5 "/>
<text text-anchor="start" x="260.467" y="-167.5" font-family="Helvetica,sans-Serif" font-size="10.00">+ TArray()</text>
<text text-anchor="start" x="260.467" y="-156.5" font-family="Helvetica,sans-Serif" font-size="10.00">+ Num()</text>
<text text-anchor="start" x="260.467" y="-145.5" font-family="Helvetica,sans-Serif" font-size="10.00">+ operator[]()</text>
<text text-anchor="start" x="260.467" y="-134.5" font-family="Helvetica,sans-Serif" font-size="10.00">+ operator[]()</text>
<text text-anchor="start" x="260.467" y="-123.5" font-family="Helvetica,sans-Serif" font-size="10.00">+ IsValidIndex()</text>
</a>
</g>
</g>
<!-- Node14&#45;&gt;Node1 -->
<g id="edge3" class="edge"><title>Node14&#45;&gt;Node1</title>
<path fill="none" stroke="#404040" d="M376.073,-116.387C385.826,-100.152 396.273,-82.7604 405.219,-67.8683"/>
<polygon fill="none" stroke="#404040" points="405.257,-67.8054 404.917,-60.6022 411.436,-57.5187 411.775,-64.7218 405.257,-67.8054"/>
<text text-anchor="middle" x="419.967" y="-84.5" font-family="Helvetica,sans-Serif" font-size="10.00"> +Profiles</text>
</g>
<!-- Node15 -->
<g id="node5" class="node"><title>Node15</title>
<g id="a_node5"><a xlink:href="a25823.html" target="_top" xlink:title=" ">
<polygon fill="none" stroke="black" points="451.967,-116.5 451.967,-228.5 573.967,-228.5 573.967,-116.5 451.967,-116.5"/>
<text text-anchor="start" x="459.967" y="-216.5" font-family="Helvetica,sans-Serif" font-size="10.00">SDK::TArray&lt; struct</text>
<text text-anchor="middle" x="512.967" y="-205.5" font-family="Helvetica,sans-Serif" font-size="10.00"> SDK::FCustomProfile &gt;</text>
<polyline fill="none" stroke="black" points="451.967,-198.5 573.967,-198.5 "/>
<text text-anchor="middle" x="512.967" y="-186.5" font-family="Helvetica,sans-Serif" font-size="10.00"> </text>
<polyline fill="none" stroke="black" points="451.967,-179.5 573.967,-179.5 "/>
<text text-anchor="start" x="459.967" y="-167.5" font-family="Helvetica,sans-Serif" font-size="10.00">+ TArray()</text>
<text text-anchor="start" x="459.967" y="-156.5" font-family="Helvetica,sans-Serif" font-size="10.00">+ Num()</text>
<text text-anchor="start" x="459.967" y="-145.5" font-family="Helvetica,sans-Serif" font-size="10.00">+ operator[]()</text>
<text text-anchor="start" x="459.967" y="-134.5" font-family="Helvetica,sans-Serif" font-size="10.00">+ operator[]()</text>
<text text-anchor="start" x="459.967" y="-123.5" font-family="Helvetica,sans-Serif" font-size="10.00">+ IsValidIndex()</text>
</a>
</g>
</g>
<!-- Node15&#45;&gt;Node1 -->
<g id="edge4" class="edge"><title>Node15&#45;&gt;Node1</title>
<path fill="none" stroke="#404040" d="M479.86,-116.387C470.107,-100.152 459.66,-82.7604 450.714,-67.8683"/>
<polygon fill="none" stroke="#404040" points="450.677,-67.8054 444.158,-64.7218 444.497,-57.5187 451.016,-60.6022 450.677,-67.8054"/>
<text text-anchor="middle" x="497.467" y="-84.5" font-family="Helvetica,sans-Serif" font-size="10.00"> +EditProfiles</text>
</g>
<!-- Node16 -->
<g id="node6" class="node"><title>Node16</title>
<g id="a_node6"><a xlink:href="a25823.html" target="_top" xlink:title=" ">
<polygon fill="none" stroke="black" points="592.467,-116.5 592.467,-228.5 747.467,-228.5 747.467,-116.5 592.467,-116.5"/>
<text text-anchor="start" x="600.467" y="-216.5" font-family="Helvetica,sans-Serif" font-size="10.00">SDK::TArray&lt; struct</text>
<text text-anchor="middle" x="669.967" y="-205.5" font-family="Helvetica,sans-Serif" font-size="10.00"> SDK::FCustomChannelSetup &gt;</text>
<polyline fill="none" stroke="black" points="592.467,-198.5 747.467,-198.5 "/>
<text text-anchor="middle" x="669.967" y="-186.5" font-family="Helvetica,sans-Serif" font-size="10.00"> </text>
<polyline fill="none" stroke="black" points="592.467,-179.5 747.467,-179.5 "/>
<text text-anchor="start" x="600.467" y="-167.5" font-family="Helvetica,sans-Serif" font-size="10.00">+ TArray()</text>
<text text-anchor="start" x="600.467" y="-156.5" font-family="Helvetica,sans-Serif" font-size="10.00">+ Num()</text>
<text text-anchor="start" x="600.467" y="-145.5" font-family="Helvetica,sans-Serif" font-size="10.00">+ operator[]()</text>
<text text-anchor="start" x="600.467" y="-134.5" font-family="Helvetica,sans-Serif" font-size="10.00">+ operator[]()</text>
<text text-anchor="start" x="600.467" y="-123.5" font-family="Helvetica,sans-Serif" font-size="10.00">+ IsValidIndex()</text>
</a>
</g>
</g>
<!-- Node16&#45;&gt;Node1 -->
<g id="edge6" class="edge"><title>Node16&#45;&gt;Node1</title>
<path fill="none" stroke="#404040" d="M595.094,-116.387C574.759,-102.444 552.419,-88.0278 530.967,-76 519.719,-69.6937 507.443,-63.5883 495.413,-57.9977"/>
<polygon fill="none" stroke="#404040" points="495.391,-57.9881 488.273,-59.1434 484.469,-53.0172 491.587,-51.862 495.391,-57.9881"/>
<text text-anchor="middle" x="628.967" y="-84.5" font-family="Helvetica,sans-Serif" font-size="10.00"> +DefaultChannelResponses</text>
</g>
<!-- Node17 -->
<g id="node7" class="node"><title>Node17</title>
<g id="a_node7"><a xlink:href="a25823.html" target="_top" xlink:title=" ">
<polygon fill="none" stroke="black" points="765.467,-116.5 765.467,-228.5 870.467,-228.5 870.467,-116.5 765.467,-116.5"/>
<text text-anchor="start" x="773.467" y="-216.5" font-family="Helvetica,sans-Serif" font-size="10.00">SDK::TArray&lt; struct</text>
<text text-anchor="middle" x="817.967" y="-205.5" font-family="Helvetica,sans-Serif" font-size="10.00"> SDK::FRedirector &gt;</text>
<polyline fill="none" stroke="black" points="765.467,-198.5 870.467,-198.5 "/>
<text text-anchor="middle" x="817.967" y="-186.5" font-family="Helvetica,sans-Serif" font-size="10.00"> </text>
<polyline fill="none" stroke="black" points="765.467,-179.5 870.467,-179.5 "/>
<text text-anchor="start" x="773.467" y="-167.5" font-family="Helvetica,sans-Serif" font-size="10.00">+ TArray()</text>
<text text-anchor="start" x="773.467" y="-156.5" font-family="Helvetica,sans-Serif" font-size="10.00">+ Num()</text>
<text text-anchor="start" x="773.467" y="-145.5" font-family="Helvetica,sans-Serif" font-size="10.00">+ operator[]()</text>
<text text-anchor="start" x="773.467" y="-134.5" font-family="Helvetica,sans-Serif" font-size="10.00">+ operator[]()</text>
<text text-anchor="start" x="773.467" y="-123.5" font-family="Helvetica,sans-Serif" font-size="10.00">+ IsValidIndex()</text>
</a>
</g>
</g>
<!-- Node17&#45;&gt;Node1 -->
<g id="edge7" class="edge"><title>Node17&#45;&gt;Node1</title>
<path fill="none" stroke="#404040" d="M765.234,-119.879C744.873,-102.991 720.369,-86.014 694.967,-76 630.484,-50.5805 551.772,-39.1834 496.575,-34.088"/>
<polygon fill="none" stroke="#404040" points="496.426,-34.0752 490.103,-37.5409 484.471,-33.0367 490.795,-29.571 496.426,-34.0752"/>
<text text-anchor="middle" x="792.967" y="-90" font-family="Helvetica,sans-Serif" font-size="10.00"> +ProfileRedirects</text>
<text text-anchor="middle" x="792.967" y="-79" font-family="Helvetica,sans-Serif" font-size="10.00">+CollisionChannelRedirects</text>
</g>
</g>
</svg>
        <g id="navigator" transform="translate(0 0)" fill="#404254">
                <rect fill="#f2f5e9" fill-opacity="0.5" stroke="#606060" stroke-width=".5" x="0" y="0" width="60" height="60"/>
                <use id="zoomplus" xlink:href="#zoomPlus" x="17" y="9" onmousedown="handleZoom(evt,'in')"/>
                <use id="zoomminus" xlink:href="#zoomMin" x="42" y="9" onmousedown="handleZoom(evt,'out')"/>
                <use id="reset" xlink:href="#resetDef" x="30" y="36" onmousedown="handleReset()"/>
                <g id="arrowUp" xlink:href="#dirArrow" transform="translate(30 24)" onmousedown="handlePan(0,-1)">
                  <use xlink:href="#rim" fill="#404040">
                        <set attributeName="fill" to="#808080" begin="arrowUp.mouseover" end="arrowUp.mouseout"/>
                  </use>
                  <path fill="none" stroke="white" stroke-width="1.5" d="M0,-3.0v7 M-2.5,-0.5L0,-3.0L2.5,-0.5"/>
                </g>
                <g id="arrowRight" xlink:href="#dirArrow" transform="rotate(90) translate(36 -43)" onmousedown="handlePan(1,0)">
                  <use xlink:href="#rim" fill="#404040">
                        <set attributeName="fill" to="#808080" begin="arrowRight.mouseover" end="arrowRight.mouseout"/>
                  </use>
                  <path fill="none" stroke="white" stroke-width="1.5" d="M0,-3.0v7 M-2.5,-0.5L0,-3.0L2.5,-0.5"/>
                </g>
                <g id="arrowDown" xlink:href="#dirArrow" transform="rotate(180) translate(-30 -48)" onmousedown="handlePan(0,1)">
                  <use xlink:href="#rim" fill="#404040">
                        <set attributeName="fill" to="#808080" begin="arrowDown.mouseover" end="arrowDown.mouseout"/>
                  </use>
                  <path fill="none" stroke="white" stroke-width="1.5" d="M0,-3.0v7 M-2.5,-0.5L0,-3.0L2.5,-0.5"/>
                </g>
                <g id="arrowLeft" xlink:href="#dirArrow" transform="rotate(270) translate(-36 17)" onmousedown="handlePan(-1,0)">
                  <use xlink:href="#rim" fill="#404040">
                        <set attributeName="fill" to="#808080" begin="arrowLeft.mouseover" end="arrowLeft.mouseout"/>
                  </use>
                  <path fill="none" stroke="white" stroke-width="1.5" d="M0,-3.0v7 M-2.5,-0.5L0,-3.0L2.5,-0.5"/>
                </g>
        </g>
        <svg viewBox="0 0 15 15" width="100%" height="30px" preserveAspectRatio="xMaxYMin meet">
         <g id="arrow_out" transform="scale(0.3 0.3)">
          <a xlink:href="a27593_org.svg" target="_base">
           <rect id="button" ry="5" rx="5" y="6" x="6" height="38" width="38"
                fill="#f2f5e9" fill-opacity="0.5" stroke="#606060" stroke-width="1.0"/>
           <path id="arrow"
             d="M 11.500037,31.436501 C 11.940474,20.09759 22.043105,11.32322 32.158766,21.979434 L 37.068811,17.246167 C 37.068811,17.246167 37.088388,32 37.088388,32 L 22.160133,31.978069 C 22.160133,31.978069 26.997745,27.140456 26.997745,27.140456 C 18.528582,18.264221 13.291696,25.230495 11.500037,31.436501 z"
             style="fill:#404040;"/>
          </a>
         </g>
        </svg>
</svg>
