<?xml version="1.0" encoding="UTF-8" standalone="no"?>
<!DOCTYPE svg PUBLIC "-//W3C//DTD SVG 1.1//EN"
 "http://www.w3.org/Graphics/SVG/1.1/DTD/svg11.dtd">
<!-- Generated by graphviz version 2.38.0 (20140413.2041)
 -->
<!-- Title: SDK::UModelComponent Pages: 1 -->
<!--zoomable 639 -->
<svg id="main" version="1.1" xmlns="http://www.w3.org/2000/svg" xmlns:xlink="http://www.w3.org/1999/xlink" xml:space="preserve" onload="init(evt)">
<style type="text/css"><![CDATA[
.edge:hover path { stroke: red; }
.edge:hover polygon { stroke: red; fill: red; }
]]></style>
<script type="text/javascript"><![CDATA[
var edges = document.getElementsByTagName('g');
if (edges && edges.length) {
  for (var i=0;i<edges.length;i++) {
    if (edges[i].id.substr(0,4)=='edge') {
      edges[i].setAttribute('class','edge');
    }
  }
}
]]></script>
        <defs>
                <circle id="rim" cx="0" cy="0" r="7"/>
                <circle id="rim2" cx="0" cy="0" r="3.5"/>
                <g id="zoomPlus">
                        <use xlink:href="#rim" fill="#404040">
                                <set attributeName="fill" to="#808080" begin="zoomplus.mouseover" end="zoomplus.mouseout"/>
                        </use>
                        <path d="M-4,0h8M0,-4v8" fill="none" stroke="white" stroke-width="1.5" pointer-events="none"/>
                </g>
                <g id="zoomMin">
                        <use xlink:href="#rim" fill="#404040">
                                <set attributeName="fill" to="#808080" begin="zoomminus.mouseover" end="zoomminus.mouseout"/>
                        </use>
                        <path d="M-4,0h8" fill="none" stroke="white" stroke-width="1.5" pointer-events="none"/>
                </g>
                <g id="dirArrow">
                        <path fill="none" stroke="white" stroke-width="1.5" d="M0,-3.0v7 M-2.5,-0.5L0,-3.0L2.5,-0.5"/>
                </g>
               <g id="resetDef">
                       <use xlink:href="#rim2" fill="#404040">
                               <set attributeName="fill" to="#808080" begin="reset.mouseover" end="reset.mouseout"/>
                       </use>
               </g>
        </defs>

<script type="text/javascript">
var viewWidth = 629;
var viewHeight = 639;
var sectionId = 'dynsection-1';
</script>
<script xlink:href="svgpan.js"/>
<svg id="graph" class="graph">
<g id="viewport">
<title>SDK::UModelComponent</title>
<!-- Node1 -->
<g id="node1" class="node"><title>Node1</title>
<g id="a_node1"><a xlink:title=" ">
<polygon fill="#bfbfbf" stroke="black" points="157.546,-0.5 157.546,-57.5 282.546,-57.5 282.546,-0.5 157.546,-0.5"/>
<text text-anchor="middle" x="220.046" y="-45.5" font-family="Helvetica,sans-Serif" font-size="10.00">SDK::UModelComponent</text>
<polyline fill="none" stroke="black" points="157.546,-38.5 282.546,-38.5 "/>
<text text-anchor="middle" x="220.046" y="-26.5" font-family="Helvetica,sans-Serif" font-size="10.00"> </text>
<polyline fill="none" stroke="black" points="157.546,-19.5 282.546,-19.5 "/>
<text text-anchor="start" x="165.546" y="-7.5" font-family="Helvetica,sans-Serif" font-size="10.00">+ StaticClass()</text>
</a>
</g>
</g>
<!-- Node2 -->
<g id="node2" class="node"><title>Node2</title>
<g id="a_node2"><a xlink:href="a26631.html" target="_top" xlink:title=" ">
<polygon fill="none" stroke="red" points="135.546,-105.5 135.546,-404.5 304.546,-404.5 304.546,-105.5 135.546,-105.5"/>
<text text-anchor="middle" x="220.046" y="-392.5" font-family="Helvetica,sans-Serif" font-size="10.00">SDK::UPrimitiveComponent</text>
<polyline fill="none" stroke="red" points="135.546,-385.5 304.546,-385.5 "/>
<text text-anchor="start" x="143.546" y="-373.5" font-family="Helvetica,sans-Serif" font-size="10.00">+ UnknownData00</text>
<text text-anchor="start" x="143.546" y="-362.5" font-family="Helvetica,sans-Serif" font-size="10.00">+ bAlwaysCreatePhysicsState</text>
<text text-anchor="start" x="143.546" y="-351.5" font-family="Helvetica,sans-Serif" font-size="10.00">+ bGenerateOverlapEvents</text>
<text text-anchor="start" x="143.546" y="-340.5" font-family="Helvetica,sans-Serif" font-size="10.00">+ bMultiBodyOverlap</text>
<text text-anchor="start" x="143.546" y="-329.5" font-family="Helvetica,sans-Serif" font-size="10.00">+ bCheckAsyncSceneOnMove</text>
<text text-anchor="start" x="143.546" y="-318.5" font-family="Helvetica,sans-Serif" font-size="10.00">+ bReturnMaterialOnMove</text>
<text text-anchor="start" x="143.546" y="-307.5" font-family="Helvetica,sans-Serif" font-size="10.00">+ bUseViewOwnerDepthPriority</text>
<text text-anchor="start" x="143.546" y="-296.5" font-family="Helvetica,sans-Serif" font-size="10.00">Group</text>
<text text-anchor="start" x="143.546" y="-285.5" font-family="Helvetica,sans-Serif" font-size="10.00">+ bAllowCullDistanceVolume</text>
<text text-anchor="start" x="143.546" y="-274.5" font-family="Helvetica,sans-Serif" font-size="10.00">+ bHasMotionBlurVelocityMeshes</text>
<text text-anchor="start" x="143.546" y="-263.5" font-family="Helvetica,sans-Serif" font-size="10.00">+ bRenderInMainPass</text>
<text text-anchor="start" x="143.546" y="-252.5" font-family="Helvetica,sans-Serif" font-size="10.00">and 50 more...</text>
<polyline fill="none" stroke="red" points="135.546,-245.5 304.546,-245.5 "/>
<text text-anchor="start" x="143.546" y="-233.5" font-family="Helvetica,sans-Serif" font-size="10.00">+ WakeRigidBody()</text>
<text text-anchor="start" x="143.546" y="-222.5" font-family="Helvetica,sans-Serif" font-size="10.00">+ WakeAllRigidBodies()</text>
<text text-anchor="start" x="143.546" y="-211.5" font-family="Helvetica,sans-Serif" font-size="10.00">+ SetWalkableSlopeOverride()</text>
<text text-anchor="start" x="143.546" y="-200.5" font-family="Helvetica,sans-Serif" font-size="10.00">+ SetTranslucentSortPriority()</text>
<text text-anchor="start" x="143.546" y="-189.5" font-family="Helvetica,sans-Serif" font-size="10.00">+ SetSimulatePhysics()</text>
<text text-anchor="start" x="143.546" y="-178.5" font-family="Helvetica,sans-Serif" font-size="10.00">+ SetRenderInMainPass()</text>
<text text-anchor="start" x="143.546" y="-167.5" font-family="Helvetica,sans-Serif" font-size="10.00">+ SetRenderCustomDepth()</text>
<text text-anchor="start" x="143.546" y="-156.5" font-family="Helvetica,sans-Serif" font-size="10.00">+ SetPhysMaterialOverride()</text>
<text text-anchor="start" x="143.546" y="-145.5" font-family="Helvetica,sans-Serif" font-size="10.00">+ SetPhysicsMaxAngularVelocity()</text>
<text text-anchor="start" x="143.546" y="-134.5" font-family="Helvetica,sans-Serif" font-size="10.00">+ SetPhysicsLinearVelocity()</text>
<text text-anchor="start" x="143.546" y="-123.5" font-family="Helvetica,sans-Serif" font-size="10.00">and 64 more...</text>
<text text-anchor="start" x="143.546" y="-112.5" font-family="Helvetica,sans-Serif" font-size="10.00">+ StaticClass()</text>
</a>
</g>
</g>
<!-- Node2&#45;&gt;Node1 -->
<g id="edge1" class="edge"><title>Node2&#45;&gt;Node1</title>
<path fill="none" stroke="midnightblue" d="M220.046,-94.8788C220.046,-80.9544 220.046,-68.2185 220.046,-57.7882"/>
<polygon fill="none" stroke="midnightblue" points="216.546,-95.2119 220.046,-105.212 223.546,-95.2119 216.546,-95.2119"/>
</g>
<!-- Node2&#45;&gt;Node2 -->
<g id="edge3" class="edge"><title>Node2&#45;&gt;Node2</title>
<path fill="none" stroke="#404040" d="M304.881,-283.085C315.535,-278.135 322.546,-268.773 322.546,-255 322.546,-246.176 319.669,-239.163 314.8,-233.961"/>
<polygon fill="none" stroke="#404040" points="314.664,-233.865 307.456,-233.651 304.881,-226.915 312.089,-227.129 314.664,-233.865"/>
<text text-anchor="start" x="322.546" y="-263.5" font-family="Helvetica,sans-Serif" font-size="10.00"> +MergedCollisionComponent</text>
<text text-anchor="middle" x="386.546" y="-252.5" font-family="Helvetica,sans-Serif" font-size="10.00">Parent</text>
<text text-anchor="middle" x="386.546" y="-241.5" font-family="Helvetica,sans-Serif" font-size="10.00">+LODParentPrimitive</text>
</g>
<!-- Node14 -->
<g id="node3" class="node"><title>Node14</title>
<g id="a_node3"><a xlink:title=" ">
<polygon fill="none" stroke="#bfbfbf" points="202.546,-573.5 202.546,-630.5 237.546,-630.5 237.546,-573.5 202.546,-573.5"/>
<text text-anchor="middle" x="220.046" y="-618.5" font-family="Helvetica,sans-Serif" font-size="10.00">char</text>
<polyline fill="none" stroke="#bfbfbf" points="202.546,-611.5 237.546,-611.5 "/>
<text text-anchor="middle" x="220.046" y="-599.5" font-family="Helvetica,sans-Serif" font-size="10.00"> </text>
<polyline fill="none" stroke="#bfbfbf" points="202.546,-592.5 237.546,-592.5 "/>
<text text-anchor="middle" x="220.046" y="-580.5" font-family="Helvetica,sans-Serif" font-size="10.00"> </text>
</a>
</g>
</g>
<!-- Node14&#45;&gt;Node1 -->
<g id="edge6" class="edge"><title>Node14&#45;&gt;Node1</title>
<path fill="none" stroke="#404040" d="M202.509,-588.557C165.067,-560.771 78.1177,-489.436 46.0459,-405 -1.29864,-280.355 -27.2371,-216.388 46.0459,-105 68.2333,-71.2757 109.133,-52.6496 145.707,-42.3961"/>
<polygon fill="none" stroke="#404040" points="145.787,-42.3753 150.586,-36.993 157.4,-39.3527 152.601,-44.735 145.787,-42.3753"/>
<text text-anchor="middle" x="86.0459" y="-258" font-family="Helvetica,sans-Serif" font-size="10.00"> +UnknownData01</text>
<text text-anchor="middle" x="86.0459" y="-247" font-family="Helvetica,sans-Serif" font-size="10.00">+UnknownData00</text>
</g>
<!-- Node14&#45;&gt;Node2 -->
<g id="edge2" class="edge"><title>Node14&#45;&gt;Node2</title>
<path fill="none" stroke="#404040" d="M220.046,-573.35C220.046,-538.87 220.046,-477.139 220.046,-417.229"/>
<polygon fill="none" stroke="#404040" points="220.046,-416.882 216.046,-410.882 220.046,-404.882 224.046,-410.882 220.046,-416.882"/>
<text text-anchor="middle" x="306.046" y="-541.5" font-family="Helvetica,sans-Serif" font-size="10.00"> +bSkipRenderingInOuterLPVCascades</text>
<text text-anchor="middle" x="306.046" y="-530.5" font-family="Helvetica,sans-Serif" font-size="10.00">+bCastShadowAsTwoSided</text>
<text text-anchor="middle" x="306.046" y="-519.5" font-family="Helvetica,sans-Serif" font-size="10.00">+bCastHiddenShadow</text>
<text text-anchor="middle" x="306.046" y="-508.5" font-family="Helvetica,sans-Serif" font-size="10.00">+CastShadow</text>
<text text-anchor="middle" x="306.046" y="-497.5" font-family="Helvetica,sans-Serif" font-size="10.00">+bReflectedOnLowQuality</text>
<text text-anchor="middle" x="306.046" y="-486.5" font-family="Helvetica,sans-Serif" font-size="10.00">+bTraceComplexOnMove</text>
<text text-anchor="middle" x="306.046" y="-475.5" font-family="Helvetica,sans-Serif" font-size="10.00">+UnknownData01</text>
<text text-anchor="middle" x="306.046" y="-464.5" font-family="Helvetica,sans-Serif" font-size="10.00">+bUseEditorCompositing</text>
<text text-anchor="middle" x="306.046" y="-453.5" font-family="Helvetica,sans-Serif" font-size="10.00">+bCastDynamicShadow</text>
<text text-anchor="middle" x="306.046" y="-442.5" font-family="Helvetica,sans-Serif" font-size="10.00">+bDontCull</text>
<text text-anchor="middle" x="306.046" y="-431.5" font-family="Helvetica,sans-Serif" font-size="10.00">...</text>
</g>
<!-- Node58 -->
<g id="node4" class="node"><title>Node58</title>
<g id="a_node4"><a xlink:href="a27939.html" target="_top" xlink:title=" ">
<polygon fill="none" stroke="red" points="469.046,-226.5 469.046,-283.5 567.046,-283.5 567.046,-226.5 469.046,-226.5"/>
<text text-anchor="middle" x="518.046" y="-271.5" font-family="Helvetica,sans-Serif" font-size="10.00">SDK::UBodySetup</text>
<polyline fill="none" stroke="red" points="469.046,-264.5 567.046,-264.5 "/>
<text text-anchor="start" x="477.046" y="-252.5" font-family="Helvetica,sans-Serif" font-size="10.00">+ UnknownData00</text>
<polyline fill="none" stroke="red" points="469.046,-245.5 567.046,-245.5 "/>
<text text-anchor="start" x="477.046" y="-233.5" font-family="Helvetica,sans-Serif" font-size="10.00">+ StaticClass()</text>
</a>
</g>
</g>
<!-- Node14&#45;&gt;Node58 -->
<g id="edge5" class="edge"><title>Node14&#45;&gt;Node58</title>
<path fill="none" stroke="#404040" d="M237.583,-601.256C272.099,-600.827 349.525,-595.114 396.046,-555 474.861,-487.039 503.523,-360.431 513.324,-295.957"/>
<polygon fill="none" stroke="#404040" points="513.346,-295.805 510.234,-289.3 515.043,-283.926 518.154,-290.431 513.346,-295.805"/>
<text text-anchor="middle" x="550.546" y="-547" font-family="Helvetica,sans-Serif" font-size="10.00"> +UnknownData01</text>
<text text-anchor="middle" x="550.546" y="-536" font-family="Helvetica,sans-Serif" font-size="10.00">+UnknownData02</text>
<text text-anchor="middle" x="550.546" y="-525" font-family="Helvetica,sans-Serif" font-size="10.00">+bConsiderForBounds</text>
<text text-anchor="start" x="480.046" y="-514" font-family="Helvetica,sans-Serif" font-size="10.00">+bCookComplexGeometryOn</text>
<text text-anchor="middle" x="550.546" y="-503" font-family="Helvetica,sans-Serif" font-size="10.00">Server</text>
<text text-anchor="middle" x="550.546" y="-492" font-family="Helvetica,sans-Serif" font-size="10.00">+UnknownData03</text>
<text text-anchor="middle" x="550.546" y="-481" font-family="Helvetica,sans-Serif" font-size="10.00">+bSharedCookedData</text>
<text text-anchor="middle" x="550.546" y="-470" font-family="Helvetica,sans-Serif" font-size="10.00">+bDoubleSidedGeometry</text>
<text text-anchor="middle" x="550.546" y="-459" font-family="Helvetica,sans-Serif" font-size="10.00">+bGenerateNonMirroredCollision</text>
<text text-anchor="middle" x="550.546" y="-448" font-family="Helvetica,sans-Serif" font-size="10.00">+bGenerateMirroredCollision</text>
<text text-anchor="middle" x="550.546" y="-437" font-family="Helvetica,sans-Serif" font-size="10.00">+bMeshCollideAll</text>
<text text-anchor="middle" x="550.546" y="-426" font-family="Helvetica,sans-Serif" font-size="10.00">...</text>
</g>
<!-- Node58&#45;&gt;Node1 -->
<g id="edge4" class="edge"><title>Node58&#45;&gt;Node1</title>
<path fill="none" stroke="#404040" d="M514.583,-226.344C508.962,-192.996 494.737,-137.399 460.046,-105 415.056,-62.9837 346.808,-44.4991 294.577,-36.3705"/>
<polygon fill="none" stroke="#404040" points="294.558,-36.3679 288.048,-39.4696 282.681,-34.6533 289.191,-31.5516 294.558,-36.3679"/>
<text text-anchor="middle" x="476.046" y="-79" font-family="Helvetica,sans-Serif" font-size="10.00"> +ModelBodySetup</text>
</g>
</g>
</svg>
        <g id="navigator" transform="translate(0 0)" fill="#404254">
                <rect fill="#f2f5e9" fill-opacity="0.5" stroke="#606060" stroke-width=".5" x="0" y="0" width="60" height="60"/>
                <use id="zoomplus" xlink:href="#zoomPlus" x="17" y="9" onmousedown="handleZoom(evt,'in')"/>
                <use id="zoomminus" xlink:href="#zoomMin" x="42" y="9" onmousedown="handleZoom(evt,'out')"/>
                <use id="reset" xlink:href="#resetDef" x="30" y="36" onmousedown="handleReset()"/>
                <g id="arrowUp" xlink:href="#dirArrow" transform="translate(30 24)" onmousedown="handlePan(0,-1)">
                  <use xlink:href="#rim" fill="#404040">
                        <set attributeName="fill" to="#808080" begin="arrowUp.mouseover" end="arrowUp.mouseout"/>
                  </use>
                  <path fill="none" stroke="white" stroke-width="1.5" d="M0,-3.0v7 M-2.5,-0.5L0,-3.0L2.5,-0.5"/>
                </g>
                <g id="arrowRight" xlink:href="#dirArrow" transform="rotate(90) translate(36 -43)" onmousedown="handlePan(1,0)">
                  <use xlink:href="#rim" fill="#404040">
                        <set attributeName="fill" to="#808080" begin="arrowRight.mouseover" end="arrowRight.mouseout"/>
                  </use>
                  <path fill="none" stroke="white" stroke-width="1.5" d="M0,-3.0v7 M-2.5,-0.5L0,-3.0L2.5,-0.5"/>
                </g>
                <g id="arrowDown" xlink:href="#dirArrow" transform="rotate(180) translate(-30 -48)" onmousedown="handlePan(0,1)">
                  <use xlink:href="#rim" fill="#404040">
                        <set attributeName="fill" to="#808080" begin="arrowDown.mouseover" end="arrowDown.mouseout"/>
                  </use>
                  <path fill="none" stroke="white" stroke-width="1.5" d="M0,-3.0v7 M-2.5,-0.5L0,-3.0L2.5,-0.5"/>
                </g>
                <g id="arrowLeft" xlink:href="#dirArrow" transform="rotate(270) translate(-36 17)" onmousedown="handlePan(-1,0)">
                  <use xlink:href="#rim" fill="#404040">
                        <set attributeName="fill" to="#808080" begin="arrowLeft.mouseover" end="arrowLeft.mouseout"/>
                  </use>
                  <path fill="none" stroke="white" stroke-width="1.5" d="M0,-3.0v7 M-2.5,-0.5L0,-3.0L2.5,-0.5"/>
                </g>
        </g>
        <svg viewBox="0 0 15 15" width="100%" height="30px" preserveAspectRatio="xMaxYMin meet">
         <g id="arrow_out" transform="scale(0.3 0.3)">
          <a xlink:href="a27637_org.svg" target="_base">
           <rect id="button" ry="5" rx="5" y="6" x="6" height="38" width="38"
                fill="#f2f5e9" fill-opacity="0.5" stroke="#606060" stroke-width="1.0"/>
           <path id="arrow"
             d="M 11.500037,31.436501 C 11.940474,20.09759 22.043105,11.32322 32.158766,21.979434 L 37.068811,17.246167 C 37.068811,17.246167 37.088388,32 37.088388,32 L 22.160133,31.978069 C 22.160133,31.978069 26.997745,27.140456 26.997745,27.140456 C 18.528582,18.264221 13.291696,25.230495 11.500037,31.436501 z"
             style="fill:#404040;"/>
          </a>
         </g>
        </svg>
</svg>
