<?xml version="1.0" encoding="UTF-8" standalone="no"?>
<!DOCTYPE svg PUBLIC "-//W3C//DTD SVG 1.1//EN"
 "http://www.w3.org/Graphics/SVG/1.1/DTD/svg11.dtd">
<!-- Generated by graphviz version 2.38.0 (20140413.2041)
 -->
<!-- Title: SDK::URendererSettings Pages: 1 -->
<svg width="1920pt" height="518pt"
 viewBox="0.00 0.00 1920.26 518.00" xmlns="http://www.w3.org/2000/svg" xmlns:xlink="http://www.w3.org/1999/xlink">
<g id="graph0" class="graph" transform="scale(1 1) rotate(0) translate(4 514)">
<title>SDK::URendererSettings</title>
<!-- Node1 -->
<g id="node1" class="node"><title>Node1</title>
<g id="a_node1"><a xlink:title=" ">
<polygon fill="#bfbfbf" stroke="black" points="898.762,-0.5 898.762,-178.5 1074.76,-178.5 1074.76,-0.5 898.762,-0.5"/>
<text text-anchor="middle" x="986.762" y="-166.5" font-family="Helvetica,sans-Serif" font-size="10.00">SDK::URendererSettings</text>
<polyline fill="none" stroke="black" points="898.762,-159.5 1074.76,-159.5 "/>
<text text-anchor="start" x="906.762" y="-147.5" font-family="Helvetica,sans-Serif" font-size="10.00">+ bMobileHDR</text>
<text text-anchor="start" x="906.762" y="-136.5" font-family="Helvetica,sans-Serif" font-size="10.00">+ UnknownData00</text>
<text text-anchor="start" x="906.762" y="-125.5" font-family="Helvetica,sans-Serif" font-size="10.00">+ bMobileDynamicPointLights</text>
<text text-anchor="start" x="906.762" y="-114.5" font-family="Helvetica,sans-Serif" font-size="10.00">UseStaticBranch</text>
<text text-anchor="start" x="906.762" y="-103.5" font-family="Helvetica,sans-Serif" font-size="10.00">+ bOcclusionCulling</text>
<text text-anchor="start" x="906.762" y="-92.5" font-family="Helvetica,sans-Serif" font-size="10.00">+ bPrecomputedVisibilityWarning</text>
<text text-anchor="start" x="906.762" y="-81.5" font-family="Helvetica,sans-Serif" font-size="10.00">+ bUseDXT5NormalMaps</text>
<text text-anchor="start" x="906.762" y="-70.5" font-family="Helvetica,sans-Serif" font-size="10.00">+ bAllowStaticLighting</text>
<text text-anchor="start" x="906.762" y="-59.5" font-family="Helvetica,sans-Serif" font-size="10.00">+ bUseNormalMapsForStaticLighting</text>
<text text-anchor="start" x="906.762" y="-48.5" font-family="Helvetica,sans-Serif" font-size="10.00">+ bGenerateMeshDistanceFields</text>
<text text-anchor="start" x="906.762" y="-37.5" font-family="Helvetica,sans-Serif" font-size="10.00">+ bGenerateLandscapeGIData</text>
<text text-anchor="start" x="906.762" y="-26.5" font-family="Helvetica,sans-Serif" font-size="10.00">and 12 more...</text>
<polyline fill="none" stroke="black" points="898.762,-19.5 1074.76,-19.5 "/>
<text text-anchor="start" x="906.762" y="-7.5" font-family="Helvetica,sans-Serif" font-size="10.00">+ StaticClass()</text>
</a>
</g>
</g>
<!-- Node2 -->
<g id="node2" class="node"><title>Node2</title>
<g id="a_node2"><a xlink:href="a27379.html" target="_top" xlink:title=" ">
<polygon fill="none" stroke="red" points="161.762,-281.5 161.762,-338.5 289.762,-338.5 289.762,-281.5 161.762,-281.5"/>
<text text-anchor="middle" x="225.762" y="-326.5" font-family="Helvetica,sans-Serif" font-size="10.00">SDK::UDeveloperSettings</text>
<polyline fill="none" stroke="red" points="161.762,-319.5 289.762,-319.5 "/>
<text text-anchor="middle" x="225.762" y="-307.5" font-family="Helvetica,sans-Serif" font-size="10.00"> </text>
<polyline fill="none" stroke="red" points="161.762,-300.5 289.762,-300.5 "/>
<text text-anchor="start" x="169.762" y="-288.5" font-family="Helvetica,sans-Serif" font-size="10.00">+ StaticClass()</text>
</a>
</g>
</g>
<!-- Node2&#45;&gt;Node1 -->
<g id="edge1" class="edge"><title>Node2&#45;&gt;Node1</title>
<path fill="none" stroke="midnightblue" d="M254.33,-273.776C266.727,-260.524 282.198,-246.403 298.762,-237 493.246,-126.596 761.538,-99.1788 898.526,-92.5161"/>
<polygon fill="none" stroke="midnightblue" points="251.513,-271.672 247.4,-281.436 256.705,-276.368 251.513,-271.672"/>
</g>
<!-- Node12 -->
<g id="node3" class="node"><title>Node12</title>
<g id="a_node3"><a xlink:title=" ">
<polygon fill="none" stroke="#bfbfbf" points="58.2617,-452.5 58.2617,-509.5 93.2617,-509.5 93.2617,-452.5 58.2617,-452.5"/>
<text text-anchor="middle" x="75.7617" y="-497.5" font-family="Helvetica,sans-Serif" font-size="10.00">char</text>
<polyline fill="none" stroke="#bfbfbf" points="58.2617,-490.5 93.2617,-490.5 "/>
<text text-anchor="middle" x="75.7617" y="-478.5" font-family="Helvetica,sans-Serif" font-size="10.00"> </text>
<polyline fill="none" stroke="#bfbfbf" points="58.2617,-471.5 93.2617,-471.5 "/>
<text text-anchor="middle" x="75.7617" y="-459.5" font-family="Helvetica,sans-Serif" font-size="10.00"> </text>
</a>
</g>
</g>
<!-- Node12&#45;&gt;Node1 -->
<g id="edge9" class="edge"><title>Node12&#45;&gt;Node1</title>
<path fill="none" stroke="#404040" d="M58.0886,-454.951C26.4494,-406.771 -31.6996,-300.363 22.7617,-237 133.481,-108.183 663.013,-91.3017 886.69,-90.0208"/>
<polygon fill="none" stroke="#404040" points="886.721,-90.0208 892.702,-85.9931 898.721,-89.9653 892.739,-93.993 886.721,-90.0208"/>
<text text-anchor="middle" x="87.7617" y="-362.5" font-family="Helvetica,sans-Serif" font-size="10.00"> +bBasePassOutputsVelocity</text>
<text text-anchor="middle" x="87.7617" y="-351.5" font-family="Helvetica,sans-Serif" font-size="10.00">+bDBuffer</text>
<text text-anchor="middle" x="87.7617" y="-340.5" font-family="Helvetica,sans-Serif" font-size="10.00">+bDefaultFeatureBloom</text>
<text text-anchor="middle" x="87.7617" y="-329.5" font-family="Helvetica,sans-Serif" font-size="10.00">+bTextureStreaming</text>
<text text-anchor="middle" x="87.7617" y="-318.5" font-family="Helvetica,sans-Serif" font-size="10.00">+UnknownData01</text>
<text text-anchor="middle" x="87.7617" y="-307.5" font-family="Helvetica,sans-Serif" font-size="10.00">+UnknownData02</text>
<text text-anchor="middle" x="87.7617" y="-296.5" font-family="Helvetica,sans-Serif" font-size="10.00">+UnknownData10</text>
<text text-anchor="middle" x="87.7617" y="-285.5" font-family="Helvetica,sans-Serif" font-size="10.00">+bDefaultFeatureLensFlare</text>
<text text-anchor="middle" x="87.7617" y="-274.5" font-family="Helvetica,sans-Serif" font-size="10.00">+UnknownData03</text>
<text text-anchor="middle" x="87.7617" y="-263.5" font-family="Helvetica,sans-Serif" font-size="10.00">+UnknownData11</text>
<text text-anchor="middle" x="87.7617" y="-252.5" font-family="Helvetica,sans-Serif" font-size="10.00">...</text>
</g>
<!-- Node12&#45;&gt;Node2 -->
<g id="edge2" class="edge"><title>Node12&#45;&gt;Node2</title>
<path fill="none" stroke="#404040" d="M93.2622,-460.283C117.633,-432.825 162.248,-382.559 192.924,-347.997"/>
<polygon fill="none" stroke="#404040" points="193.212,-347.673 194.203,-340.53 201.178,-338.698 200.187,-345.84 193.212,-347.673"/>
<text text-anchor="middle" x="182.762" y="-415" font-family="Helvetica,sans-Serif" font-size="10.00"> +UnknownData00</text>
</g>
<!-- Node14 -->
<g id="node4" class="node"><title>Node14</title>
<g id="a_node4"><a xlink:href="a25635.html" target="_top" xlink:title=" ">
<polygon fill="none" stroke="black" points="307.762,-248.5 307.762,-371.5 451.762,-371.5 451.762,-248.5 307.762,-248.5"/>
<text text-anchor="start" x="315.762" y="-359.5" font-family="Helvetica,sans-Serif" font-size="10.00">SDK::TEnumAsByte&lt; EEarly</text>
<text text-anchor="middle" x="379.762" y="-348.5" font-family="Helvetica,sans-Serif" font-size="10.00">ZPass &gt;</text>
<polyline fill="none" stroke="black" points="307.762,-341.5 451.762,-341.5 "/>
<text text-anchor="middle" x="379.762" y="-329.5" font-family="Helvetica,sans-Serif" font-size="10.00"> </text>
<polyline fill="none" stroke="black" points="307.762,-322.5 451.762,-322.5 "/>
<text text-anchor="start" x="315.762" y="-310.5" font-family="Helvetica,sans-Serif" font-size="10.00">+ TEnumAsByte()</text>
<text text-anchor="start" x="315.762" y="-299.5" font-family="Helvetica,sans-Serif" font-size="10.00">+ TEnumAsByte()</text>
<text text-anchor="start" x="315.762" y="-288.5" font-family="Helvetica,sans-Serif" font-size="10.00">+ TEnumAsByte()</text>
<text text-anchor="start" x="315.762" y="-277.5" font-family="Helvetica,sans-Serif" font-size="10.00">+ TEnumAsByte()</text>
<text text-anchor="start" x="315.762" y="-266.5" font-family="Helvetica,sans-Serif" font-size="10.00">+ operator EEarlyZPass()</text>
<text text-anchor="start" x="315.762" y="-255.5" font-family="Helvetica,sans-Serif" font-size="10.00">+ GetValue()</text>
</a>
</g>
</g>
<!-- Node14&#45;&gt;Node1 -->
<g id="edge3" class="edge"><title>Node14&#45;&gt;Node1</title>
<path fill="none" stroke="#404040" d="M425.428,-248.35C442.675,-229.267 463.749,-209.843 486.762,-197 612.935,-126.582 780.846,-102.657 886.379,-94.5693"/>
<polygon fill="none" stroke="#404040" points="886.646,-94.55 892.34,-90.1261 898.614,-93.6812 892.92,-98.1051 886.646,-94.55"/>
<text text-anchor="middle" x="515.762" y="-211" font-family="Helvetica,sans-Serif" font-size="10.00"> +bDepthSort</text>
<text text-anchor="middle" x="515.762" y="-200" font-family="Helvetica,sans-Serif" font-size="10.00">+EarlyZPass</text>
</g>
<!-- Node15 -->
<g id="node5" class="node"><title>Node15</title>
<g id="a_node5"><a xlink:href="a25635.html" target="_top" xlink:title=" ">
<polygon fill="none" stroke="black" points="469.762,-243 469.762,-377 641.762,-377 641.762,-243 469.762,-243"/>
<text text-anchor="start" x="477.762" y="-365" font-family="Helvetica,sans-Serif" font-size="10.00">SDK::TEnumAsByte&lt; ETranslucent</text>
<text text-anchor="middle" x="555.762" y="-354" font-family="Helvetica,sans-Serif" font-size="10.00">SortPolicy &gt;</text>
<polyline fill="none" stroke="black" points="469.762,-347 641.762,-347 "/>
<text text-anchor="middle" x="555.762" y="-335" font-family="Helvetica,sans-Serif" font-size="10.00"> </text>
<polyline fill="none" stroke="black" points="469.762,-328 641.762,-328 "/>
<text text-anchor="start" x="477.762" y="-316" font-family="Helvetica,sans-Serif" font-size="10.00">+ TEnumAsByte()</text>
<text text-anchor="start" x="477.762" y="-305" font-family="Helvetica,sans-Serif" font-size="10.00">+ TEnumAsByte()</text>
<text text-anchor="start" x="477.762" y="-294" font-family="Helvetica,sans-Serif" font-size="10.00">+ TEnumAsByte()</text>
<text text-anchor="start" x="477.762" y="-283" font-family="Helvetica,sans-Serif" font-size="10.00">+ TEnumAsByte()</text>
<text text-anchor="start" x="477.762" y="-272" font-family="Helvetica,sans-Serif" font-size="10.00">+ operator ETranslucentSort</text>
<text text-anchor="start" x="477.762" y="-261" font-family="Helvetica,sans-Serif" font-size="10.00">Policy()</text>
<text text-anchor="start" x="477.762" y="-250" font-family="Helvetica,sans-Serif" font-size="10.00">+ GetValue()</text>
</a>
</g>
</g>
<!-- Node15&#45;&gt;Node1 -->
<g id="edge4" class="edge"><title>Node15&#45;&gt;Node1</title>
<path fill="none" stroke="#404040" d="M544.136,-242.803C544.641,-226.37 548.467,-209.813 558.762,-197 599.309,-146.534 773.014,-116.272 886.286,-101.541"/>
<polygon fill="none" stroke="#404040" points="886.514,-101.512 891.959,-96.7839 898.417,-99.9919 892.972,-104.72 886.514,-101.512"/>
<text text-anchor="middle" x="611.262" y="-205.5" font-family="Helvetica,sans-Serif" font-size="10.00"> +TranslucentSortPolicy</text>
</g>
<!-- Node16 -->
<g id="node6" class="node"><title>Node16</title>
<g id="a_node6"><a xlink:href="a26075.html" target="_top" xlink:title=" ">
<polygon fill="none" stroke="black" points="867.262,-237.5 867.262,-382.5 946.262,-382.5 946.262,-237.5 867.262,-237.5"/>
<text text-anchor="middle" x="906.762" y="-370.5" font-family="Helvetica,sans-Serif" font-size="10.00">SDK::FVector</text>
<polyline fill="none" stroke="black" points="867.262,-363.5 946.262,-363.5 "/>
<text text-anchor="middle" x="906.762" y="-351.5" font-family="Helvetica,sans-Serif" font-size="10.00"> </text>
<polyline fill="none" stroke="black" points="867.262,-344.5 946.262,-344.5 "/>
<text text-anchor="start" x="875.262" y="-332.5" font-family="Helvetica,sans-Serif" font-size="10.00">+ FVector()</text>
<text text-anchor="start" x="875.262" y="-321.5" font-family="Helvetica,sans-Serif" font-size="10.00">+ FVector()</text>
<text text-anchor="start" x="875.262" y="-310.5" font-family="Helvetica,sans-Serif" font-size="10.00">+ operator+()</text>
<text text-anchor="start" x="875.262" y="-299.5" font-family="Helvetica,sans-Serif" font-size="10.00">+ operator&#45;()</text>
<text text-anchor="start" x="875.262" y="-288.5" font-family="Helvetica,sans-Serif" font-size="10.00">+ operator*()</text>
<text text-anchor="start" x="875.262" y="-277.5" font-family="Helvetica,sans-Serif" font-size="10.00">+ operator=()</text>
<text text-anchor="start" x="875.262" y="-266.5" font-family="Helvetica,sans-Serif" font-size="10.00">+ operator+=()</text>
<text text-anchor="start" x="875.262" y="-255.5" font-family="Helvetica,sans-Serif" font-size="10.00">+ operator&#45;=()</text>
<text text-anchor="start" x="875.262" y="-244.5" font-family="Helvetica,sans-Serif" font-size="10.00">+ operator*=()</text>
</a>
</g>
</g>
<!-- Node16&#45;&gt;Node1 -->
<g id="edge5" class="edge"><title>Node16&#45;&gt;Node1</title>
<path fill="none" stroke="#404040" d="M907.88,-237.385C909.561,-223.72 912.33,-209.72 916.762,-197 917.601,-194.592 918.506,-192.186 919.47,-189.785"/>
<polygon fill="none" stroke="#404040" points="919.553,-189.595 918.304,-182.493 924.379,-178.608 925.628,-185.71 919.553,-189.595"/>
<text text-anchor="middle" x="965.262" y="-205.5" font-family="Helvetica,sans-Serif" font-size="10.00"> +TranslucentSortAxis</text>
</g>
<!-- Node17 -->
<g id="node7" class="node"><title>Node17</title>
<g id="a_node7"><a xlink:title=" ">
<polygon fill="none" stroke="#bfbfbf" points="725.262,-452.5 725.262,-509.5 760.262,-509.5 760.262,-452.5 725.262,-452.5"/>
<text text-anchor="middle" x="742.762" y="-497.5" font-family="Helvetica,sans-Serif" font-size="10.00">float</text>
<polyline fill="none" stroke="#bfbfbf" points="725.262,-490.5 760.262,-490.5 "/>
<text text-anchor="middle" x="742.762" y="-478.5" font-family="Helvetica,sans-Serif" font-size="10.00"> </text>
<polyline fill="none" stroke="#bfbfbf" points="725.262,-471.5 760.262,-471.5 "/>
<text text-anchor="middle" x="742.762" y="-459.5" font-family="Helvetica,sans-Serif" font-size="10.00"> </text>
</a>
</g>
</g>
<!-- Node17&#45;&gt;Node1 -->
<g id="edge8" class="edge"><title>Node17&#45;&gt;Node1</title>
<path fill="none" stroke="#404040" d="M725.248,-457.617C711.763,-438.875 694.21,-410.798 686.762,-383 669.968,-320.322 652.389,-292.037 686.762,-237 730.298,-167.29 817.645,-129.858 886.912,-110.334"/>
<polygon fill="none" stroke="#404040" points="887.16,-110.267 891.902,-104.834 898.741,-107.122 893.998,-112.555 887.16,-110.267"/>
<text text-anchor="middle" x="772.262" y="-329.5" font-family="Helvetica,sans-Serif" font-size="10.00"> +WireframeCullThreshold</text>
<text text-anchor="middle" x="772.262" y="-318.5" font-family="Helvetica,sans-Serif" font-size="10.00">+MinScreenRadiusForCSMdepth</text>
<text text-anchor="middle" x="772.262" y="-307.5" font-family="Helvetica,sans-Serif" font-size="10.00">+MinScreenRadiusForEarlyZPass</text>
<text text-anchor="middle" x="772.262" y="-296.5" font-family="Helvetica,sans-Serif" font-size="10.00">+TessellationAdaptivePixelsPerTriangle</text>
<text text-anchor="middle" x="772.262" y="-285.5" font-family="Helvetica,sans-Serif" font-size="10.00">+MinScreenRadiusForLights</text>
</g>
<!-- Node17&#45;&gt;Node16 -->
<g id="edge6" class="edge"><title>Node17&#45;&gt;Node16</title>
<path fill="none" stroke="#404040" d="M760.527,-466.226C783.145,-448.279 822.872,-415.356 852.762,-383 854.972,-380.608 857.18,-378.128 859.372,-375.59"/>
<polygon fill="none" stroke="#404040" points="859.519,-375.414 860.295,-368.244 867.211,-366.203 866.435,-373.373 859.519,-375.414"/>
<text text-anchor="middle" x="841.262" y="-426" font-family="Helvetica,sans-Serif" font-size="10.00"> +X</text>
<text text-anchor="middle" x="841.262" y="-415" font-family="Helvetica,sans-Serif" font-size="10.00">+Y</text>
<text text-anchor="middle" x="841.262" y="-404" font-family="Helvetica,sans-Serif" font-size="10.00">+Z</text>
</g>
<!-- Node18 -->
<g id="node8" class="node"><title>Node18</title>
<g id="a_node8"><a xlink:href="a25635.html" target="_top" xlink:title=" ">
<polygon fill="none" stroke="black" points="964.762,-248.5 964.762,-371.5 1130.76,-371.5 1130.76,-248.5 964.762,-248.5"/>
<text text-anchor="start" x="972.762" y="-359.5" font-family="Helvetica,sans-Serif" font-size="10.00">SDK::TEnumAsByte&lt; ECustom</text>
<text text-anchor="middle" x="1047.76" y="-348.5" font-family="Helvetica,sans-Serif" font-size="10.00">DepthStencil &gt;</text>
<polyline fill="none" stroke="black" points="964.762,-341.5 1130.76,-341.5 "/>
<text text-anchor="middle" x="1047.76" y="-329.5" font-family="Helvetica,sans-Serif" font-size="10.00"> </text>
<polyline fill="none" stroke="black" points="964.762,-322.5 1130.76,-322.5 "/>
<text text-anchor="start" x="972.762" y="-310.5" font-family="Helvetica,sans-Serif" font-size="10.00">+ TEnumAsByte()</text>
<text text-anchor="start" x="972.762" y="-299.5" font-family="Helvetica,sans-Serif" font-size="10.00">+ TEnumAsByte()</text>
<text text-anchor="start" x="972.762" y="-288.5" font-family="Helvetica,sans-Serif" font-size="10.00">+ TEnumAsByte()</text>
<text text-anchor="start" x="972.762" y="-277.5" font-family="Helvetica,sans-Serif" font-size="10.00">+ TEnumAsByte()</text>
<text text-anchor="start" x="972.762" y="-266.5" font-family="Helvetica,sans-Serif" font-size="10.00">+ operator ECustomDepthStencil()</text>
<text text-anchor="start" x="972.762" y="-255.5" font-family="Helvetica,sans-Serif" font-size="10.00">+ GetValue()</text>
</a>
</g>
</g>
<!-- Node18&#45;&gt;Node1 -->
<g id="edge7" class="edge"><title>Node18&#45;&gt;Node1</title>
<path fill="none" stroke="#404040" d="M1031.81,-248.484C1027.34,-231.783 1022.42,-213.673 1017.76,-197 1017.13,-194.74 1016.49,-192.453 1015.84,-190.148"/>
<polygon fill="none" stroke="#404040" points="1015.81,-190.049 1010.33,-185.367 1012.54,-178.503 1018.02,-183.185 1015.81,-190.049"/>
<text text-anchor="middle" x="1073.26" y="-205.5" font-family="Helvetica,sans-Serif" font-size="10.00"> +CustomDepthStencil</text>
</g>
<!-- Node19 -->
<g id="node9" class="node"><title>Node19</title>
<g id="a_node9"><a xlink:href="a25635.html" target="_top" xlink:title=" ">
<polygon fill="none" stroke="black" points="1149.26,-248.5 1149.26,-371.5 1312.26,-371.5 1312.26,-248.5 1149.26,-248.5"/>
<text text-anchor="start" x="1157.26" y="-359.5" font-family="Helvetica,sans-Serif" font-size="10.00">SDK::TEnumAsByte&lt; EUIScaling</text>
<text text-anchor="middle" x="1230.76" y="-348.5" font-family="Helvetica,sans-Serif" font-size="10.00">Rule &gt;</text>
<polyline fill="none" stroke="black" points="1149.26,-341.5 1312.26,-341.5 "/>
<text text-anchor="middle" x="1230.76" y="-329.5" font-family="Helvetica,sans-Serif" font-size="10.00"> </text>
<polyline fill="none" stroke="black" points="1149.26,-322.5 1312.26,-322.5 "/>
<text text-anchor="start" x="1157.26" y="-310.5" font-family="Helvetica,sans-Serif" font-size="10.00">+ TEnumAsByte()</text>
<text text-anchor="start" x="1157.26" y="-299.5" font-family="Helvetica,sans-Serif" font-size="10.00">+ TEnumAsByte()</text>
<text text-anchor="start" x="1157.26" y="-288.5" font-family="Helvetica,sans-Serif" font-size="10.00">+ TEnumAsByte()</text>
<text text-anchor="start" x="1157.26" y="-277.5" font-family="Helvetica,sans-Serif" font-size="10.00">+ TEnumAsByte()</text>
<text text-anchor="start" x="1157.26" y="-266.5" font-family="Helvetica,sans-Serif" font-size="10.00">+ operator EUIScalingRule()</text>
<text text-anchor="start" x="1157.26" y="-255.5" font-family="Helvetica,sans-Serif" font-size="10.00">+ GetValue()</text>
</a>
</g>
</g>
<!-- Node19&#45;&gt;Node1 -->
<g id="edge10" class="edge"><title>Node19&#45;&gt;Node1</title>
<path fill="none" stroke="#404040" d="M1178.07,-248.447C1162.16,-231.23 1144.26,-212.86 1126.76,-197 1113.49,-184.97 1098.95,-172.863 1084.42,-161.344"/>
<polygon fill="none" stroke="#404040" points="1084.33,-161.273 1077.14,-160.717 1074.89,-153.866 1082.08,-154.422 1084.33,-161.273"/>
<text text-anchor="middle" x="1180.26" y="-205.5" font-family="Helvetica,sans-Serif" font-size="10.00"> +UIScaleRule</text>
</g>
<!-- Node20 -->
<g id="node10" class="node"><title>Node20</title>
<g id="a_node10"><a xlink:href="a30283.html" target="_top" xlink:title=" ">
<polygon fill="none" stroke="red" points="1330.26,-281.5 1330.26,-338.5 1461.26,-338.5 1461.26,-281.5 1330.26,-281.5"/>
<text text-anchor="middle" x="1395.76" y="-326.5" font-family="Helvetica,sans-Serif" font-size="10.00">SDK::FRuntimeFloatCurve</text>
<polyline fill="none" stroke="red" points="1330.26,-319.5 1461.26,-319.5 "/>
<text text-anchor="middle" x="1395.76" y="-307.5" font-family="Helvetica,sans-Serif" font-size="10.00"> </text>
<polyline fill="none" stroke="red" points="1330.26,-300.5 1461.26,-300.5 "/>
<text text-anchor="middle" x="1395.76" y="-288.5" font-family="Helvetica,sans-Serif" font-size="10.00"> </text>
</a>
</g>
</g>
<!-- Node20&#45;&gt;Node1 -->
<g id="edge11" class="edge"><title>Node20&#45;&gt;Node1</title>
<path fill="none" stroke="#404040" d="M1371.35,-281.233C1357.55,-266.718 1339.37,-249.437 1320.76,-237 1247.46,-188.006 1155.08,-148.967 1086.06,-123.548"/>
<polygon fill="none" stroke="#404040" points="1086.04,-123.539 1079.03,-125.243 1074.76,-119.431 1081.77,-117.726 1086.04,-123.539"/>
<text text-anchor="middle" x="1321.26" y="-205.5" font-family="Helvetica,sans-Serif" font-size="10.00"> +UIScaleCurve</text>
</g>
<!-- Node29 -->
<g id="node11" class="node"><title>Node29</title>
<g id="a_node11"><a xlink:title=" ">
<polygon fill="none" stroke="#bfbfbf" points="1479.26,-281.5 1479.26,-338.5 1530.26,-338.5 1530.26,-281.5 1479.26,-281.5"/>
<text text-anchor="middle" x="1504.76" y="-326.5" font-family="Helvetica,sans-Serif" font-size="10.00">uint32_t</text>
<polyline fill="none" stroke="#bfbfbf" points="1479.26,-319.5 1530.26,-319.5 "/>
<text text-anchor="middle" x="1504.76" y="-307.5" font-family="Helvetica,sans-Serif" font-size="10.00"> </text>
<polyline fill="none" stroke="#bfbfbf" points="1479.26,-300.5 1530.26,-300.5 "/>
<text text-anchor="middle" x="1504.76" y="-288.5" font-family="Helvetica,sans-Serif" font-size="10.00"> </text>
</a>
</g>
</g>
<!-- Node29&#45;&gt;Node1 -->
<g id="edge12" class="edge"><title>Node29&#45;&gt;Node1</title>
<path fill="none" stroke="#404040" d="M1496.93,-281.212C1491.47,-266.331 1482.79,-248.706 1469.76,-237 1362.76,-140.84 1194.36,-107.764 1087.31,-96.4085"/>
<polygon fill="none" stroke="#404040" points="1087.16,-96.3928 1080.79,-99.7712 1075.22,-95.1899 1081.59,-91.8115 1087.16,-96.3928"/>
<text text-anchor="middle" x="1511.26" y="-205.5" font-family="Helvetica,sans-Serif" font-size="10.00"> +MobileNumDynamicPointLights</text>
</g>
<!-- Node30 -->
<g id="node12" class="node"><title>Node30</title>
<g id="a_node12"><a xlink:href="a25635.html" target="_top" xlink:title=" ">
<polygon fill="none" stroke="black" points="1560.26,-248.5 1560.26,-371.5 1721.26,-371.5 1721.26,-248.5 1560.26,-248.5"/>
<text text-anchor="start" x="1568.26" y="-359.5" font-family="Helvetica,sans-Serif" font-size="10.00">SDK::TEnumAsByte&lt; EClear</text>
<text text-anchor="middle" x="1640.76" y="-348.5" font-family="Helvetica,sans-Serif" font-size="10.00">SceneOptions &gt;</text>
<polyline fill="none" stroke="black" points="1560.26,-341.5 1721.26,-341.5 "/>
<text text-anchor="middle" x="1640.76" y="-329.5" font-family="Helvetica,sans-Serif" font-size="10.00"> </text>
<polyline fill="none" stroke="black" points="1560.26,-322.5 1721.26,-322.5 "/>
<text text-anchor="start" x="1568.26" y="-310.5" font-family="Helvetica,sans-Serif" font-size="10.00">+ TEnumAsByte()</text>
<text text-anchor="start" x="1568.26" y="-299.5" font-family="Helvetica,sans-Serif" font-size="10.00">+ TEnumAsByte()</text>
<text text-anchor="start" x="1568.26" y="-288.5" font-family="Helvetica,sans-Serif" font-size="10.00">+ TEnumAsByte()</text>
<text text-anchor="start" x="1568.26" y="-277.5" font-family="Helvetica,sans-Serif" font-size="10.00">+ TEnumAsByte()</text>
<text text-anchor="start" x="1568.26" y="-266.5" font-family="Helvetica,sans-Serif" font-size="10.00">+ operator EClearSceneOptions()</text>
<text text-anchor="start" x="1568.26" y="-255.5" font-family="Helvetica,sans-Serif" font-size="10.00">+ GetValue()</text>
</a>
</g>
</g>
<!-- Node30&#45;&gt;Node1 -->
<g id="edge13" class="edge"><title>Node30&#45;&gt;Node1</title>
<path fill="none" stroke="#404040" d="M1624.26,-248.293C1616.21,-229.205 1604.52,-209.793 1587.76,-197 1510.81,-138.245 1237.48,-109.105 1087.35,-97.2385"/>
<polygon fill="none" stroke="#404040" points="1086.95,-97.2076 1080.66,-100.731 1074.98,-96.2784 1081.27,-92.755 1086.95,-97.2076"/>
<text text-anchor="middle" x="1654.76" y="-205.5" font-family="Helvetica,sans-Serif" font-size="10.00"> +ClearSceneMethod</text>
</g>
<!-- Node31 -->
<g id="node13" class="node"><title>Node31</title>
<g id="a_node13"><a xlink:href="a25635.html" target="_top" xlink:title=" ">
<polygon fill="none" stroke="black" points="1739.26,-248.5 1739.26,-371.5 1912.26,-371.5 1912.26,-248.5 1739.26,-248.5"/>
<text text-anchor="start" x="1747.26" y="-359.5" font-family="Helvetica,sans-Serif" font-size="10.00">SDK::TEnumAsByte&lt; EAntiAliasing</text>
<text text-anchor="middle" x="1825.76" y="-348.5" font-family="Helvetica,sans-Serif" font-size="10.00">MethodUI &gt;</text>
<polyline fill="none" stroke="black" points="1739.26,-341.5 1912.26,-341.5 "/>
<text text-anchor="middle" x="1825.76" y="-329.5" font-family="Helvetica,sans-Serif" font-size="10.00"> </text>
<polyline fill="none" stroke="black" points="1739.26,-322.5 1912.26,-322.5 "/>
<text text-anchor="start" x="1747.26" y="-310.5" font-family="Helvetica,sans-Serif" font-size="10.00">+ TEnumAsByte()</text>
<text text-anchor="start" x="1747.26" y="-299.5" font-family="Helvetica,sans-Serif" font-size="10.00">+ TEnumAsByte()</text>
<text text-anchor="start" x="1747.26" y="-288.5" font-family="Helvetica,sans-Serif" font-size="10.00">+ TEnumAsByte()</text>
<text text-anchor="start" x="1747.26" y="-277.5" font-family="Helvetica,sans-Serif" font-size="10.00">+ TEnumAsByte()</text>
<text text-anchor="start" x="1747.26" y="-266.5" font-family="Helvetica,sans-Serif" font-size="10.00">+ operator EAntiAliasingMethodUI()</text>
<text text-anchor="start" x="1747.26" y="-255.5" font-family="Helvetica,sans-Serif" font-size="10.00">+ GetValue()</text>
</a>
</g>
</g>
<!-- Node31&#45;&gt;Node1 -->
<g id="edge14" class="edge"><title>Node31&#45;&gt;Node1</title>
<path fill="none" stroke="#404040" d="M1774.18,-248.41C1754.44,-228.973 1730.44,-209.312 1704.76,-197 1597.47,-145.564 1257.77,-112.061 1086.92,-98.0229"/>
<polygon fill="none" stroke="#404040" points="1086.88,-98.0195 1080.57,-101.519 1074.92,-97.0458 1081.22,-93.5459 1086.88,-98.0195"/>
<text text-anchor="middle" x="1801.76" y="-205.5" font-family="Helvetica,sans-Serif" font-size="10.00"> +DefaultFeatureAntiAliasing</text>
</g>
</g>
</svg>
