<?xml version="1.0" encoding="UTF-8" standalone="no"?>
<!DOCTYPE svg PUBLIC "-//W3C//DTD SVG 1.1//EN"
 "http://www.w3.org/Graphics/SVG/1.1/DTD/svg11.dtd">
<!-- Generated by graphviz version 2.38.0 (20140413.2041)
 -->
<!-- Title: SDK::UGarbageCollectionSettings Pages: 1 -->
<svg width="583pt" height="328pt"
 viewBox="0.00 0.00 582.63 328.00" xmlns="http://www.w3.org/2000/svg" xmlns:xlink="http://www.w3.org/1999/xlink">
<g id="graph0" class="graph" transform="scale(1 1) rotate(0) translate(4 324)">
<title>SDK::UGarbageCollectionSettings</title>
<!-- Node1 -->
<g id="node1" class="node"><title>Node1</title>
<g id="a_node1"><a xlink:title=" ">
<polygon fill="#bfbfbf" stroke="black" points="151.133,-0.5 151.133,-57.5 316.133,-57.5 316.133,-0.5 151.133,-0.5"/>
<text text-anchor="middle" x="233.633" y="-45.5" font-family="Helvetica,sans-Serif" font-size="10.00">SDK::UGarbageCollectionSettings</text>
<polyline fill="none" stroke="black" points="151.133,-38.5 316.133,-38.5 "/>
<text text-anchor="middle" x="233.633" y="-26.5" font-family="Helvetica,sans-Serif" font-size="10.00"> </text>
<polyline fill="none" stroke="black" points="151.133,-19.5 316.133,-19.5 "/>
<text text-anchor="start" x="159.133" y="-7.5" font-family="Helvetica,sans-Serif" font-size="10.00">+ StaticClass()</text>
</a>
</g>
</g>
<!-- Node2 -->
<g id="node2" class="node"><title>Node2</title>
<g id="a_node2"><a xlink:href="a27379.html" target="_top" xlink:title=" ">
<polygon fill="none" stroke="red" points="119.633,-153.5 119.633,-210.5 247.633,-210.5 247.633,-153.5 119.633,-153.5"/>
<text text-anchor="middle" x="183.633" y="-198.5" font-family="Helvetica,sans-Serif" font-size="10.00">SDK::UDeveloperSettings</text>
<polyline fill="none" stroke="red" points="119.633,-191.5 247.633,-191.5 "/>
<text text-anchor="middle" x="183.633" y="-179.5" font-family="Helvetica,sans-Serif" font-size="10.00"> </text>
<polyline fill="none" stroke="red" points="119.633,-172.5 247.633,-172.5 "/>
<text text-anchor="start" x="127.633" y="-160.5" font-family="Helvetica,sans-Serif" font-size="10.00">+ StaticClass()</text>
</a>
</g>
</g>
<!-- Node2&#45;&gt;Node1 -->
<g id="edge1" class="edge"><title>Node2&#45;&gt;Node1</title>
<path fill="none" stroke="midnightblue" d="M196.036,-143.543C204.867,-116.871 216.538,-81.6251 224.52,-57.5201"/>
<polygon fill="none" stroke="midnightblue" points="192.624,-142.711 192.803,-153.304 199.27,-144.911 192.624,-142.711"/>
</g>
<!-- Node12 -->
<g id="node3" class="node"><title>Node12</title>
<g id="a_node3"><a xlink:title=" ">
<polygon fill="none" stroke="#bfbfbf" points="36.1327,-262.5 36.1327,-319.5 71.1327,-319.5 71.1327,-262.5 36.1327,-262.5"/>
<text text-anchor="middle" x="53.6327" y="-307.5" font-family="Helvetica,sans-Serif" font-size="10.00">char</text>
<polyline fill="none" stroke="#bfbfbf" points="36.1327,-300.5 71.1327,-300.5 "/>
<text text-anchor="middle" x="53.6327" y="-288.5" font-family="Helvetica,sans-Serif" font-size="10.00"> </text>
<polyline fill="none" stroke="#bfbfbf" points="36.1327,-281.5 71.1327,-281.5 "/>
<text text-anchor="middle" x="53.6327" y="-269.5" font-family="Helvetica,sans-Serif" font-size="10.00"> </text>
</a>
</g>
</g>
<!-- Node12&#45;&gt;Node1 -->
<g id="edge3" class="edge"><title>Node12&#45;&gt;Node1</title>
<path fill="none" stroke="#404040" d="M35.9998,-268.154C14.9785,-239.265 -14.5696,-187.519 8.63271,-149 37.1294,-101.692 91.429,-72.2126 139.545,-54.43"/>
<polygon fill="none" stroke="#404040" points="139.672,-54.3853 143.99,-48.6103 150.982,-50.3755 146.663,-56.1505 139.672,-54.3853"/>
<text text-anchor="middle" x="59.6327" y="-207" font-family="Helvetica,sans-Serif" font-size="10.00"> +UnknownData01</text>
<text text-anchor="middle" x="59.6327" y="-196" font-family="Helvetica,sans-Serif" font-size="10.00">+CreateGCClusters</text>
<text text-anchor="middle" x="59.6327" y="-185" font-family="Helvetica,sans-Serif" font-size="10.00">+MergeGCClusters</text>
<text text-anchor="middle" x="59.6327" y="-174" font-family="Helvetica,sans-Serif" font-size="10.00">+AllowParallelGC</text>
<text text-anchor="middle" x="59.6327" y="-163" font-family="Helvetica,sans-Serif" font-size="10.00">+UnknownData00</text>
<text text-anchor="middle" x="59.6327" y="-152" font-family="Helvetica,sans-Serif" font-size="10.00">+FlushStreamingOnGC</text>
</g>
<!-- Node12&#45;&gt;Node2 -->
<g id="edge2" class="edge"><title>Node12&#45;&gt;Node2</title>
<path fill="none" stroke="#404040" d="M71.1651,-275.57C88.8908,-260.98 116.972,-237.867 140.639,-218.387"/>
<polygon fill="none" stroke="#404040" points="140.867,-218.2 142.957,-211.298 150.132,-210.574 148.041,-217.475 140.867,-218.2"/>
<text text-anchor="middle" x="162.633" y="-236" font-family="Helvetica,sans-Serif" font-size="10.00"> +UnknownData00</text>
</g>
<!-- Node14 -->
<g id="node4" class="node"><title>Node14</title>
<g id="a_node4"><a xlink:title=" ">
<polygon fill="none" stroke="#bfbfbf" points="266.133,-153.5 266.133,-210.5 301.133,-210.5 301.133,-153.5 266.133,-153.5"/>
<text text-anchor="middle" x="283.633" y="-198.5" font-family="Helvetica,sans-Serif" font-size="10.00">float</text>
<polyline fill="none" stroke="#bfbfbf" points="266.133,-191.5 301.133,-191.5 "/>
<text text-anchor="middle" x="283.633" y="-179.5" font-family="Helvetica,sans-Serif" font-size="10.00"> </text>
<polyline fill="none" stroke="#bfbfbf" points="266.133,-172.5 301.133,-172.5 "/>
<text text-anchor="middle" x="283.633" y="-160.5" font-family="Helvetica,sans-Serif" font-size="10.00"> </text>
</a>
</g>
</g>
<!-- Node14&#45;&gt;Node1 -->
<g id="edge4" class="edge"><title>Node14&#45;&gt;Node1</title>
<path fill="none" stroke="#404040" d="M274.462,-153.304C266.639,-129.678 255.302,-95.4405 246.558,-69.035"/>
<polygon fill="none" stroke="#404040" points="246.518,-68.9119 240.834,-64.4734 242.745,-57.5201 248.429,-61.9586 246.518,-68.9119"/>
<text text-anchor="start" x="266.633" y="-106.5" font-family="Helvetica,sans-Serif" font-size="10.00"> +TimeBetweenPurgingPending</text>
<text text-anchor="middle" x="334.633" y="-95.5" font-family="Helvetica,sans-Serif" font-size="10.00">KillObjects</text>
</g>
<!-- Node15 -->
<g id="node5" class="node"><title>Node15</title>
<g id="a_node5"><a xlink:title=" ">
<polygon fill="none" stroke="#bfbfbf" points="411.133,-153.5 411.133,-210.5 440.133,-210.5 440.133,-153.5 411.133,-153.5"/>
<text text-anchor="middle" x="425.633" y="-198.5" font-family="Helvetica,sans-Serif" font-size="10.00">int</text>
<polyline fill="none" stroke="#bfbfbf" points="411.133,-191.5 440.133,-191.5 "/>
<text text-anchor="middle" x="425.633" y="-179.5" font-family="Helvetica,sans-Serif" font-size="10.00"> </text>
<polyline fill="none" stroke="#bfbfbf" points="411.133,-172.5 440.133,-172.5 "/>
<text text-anchor="middle" x="425.633" y="-160.5" font-family="Helvetica,sans-Serif" font-size="10.00"> </text>
</a>
</g>
</g>
<!-- Node15&#45;&gt;Node1 -->
<g id="edge5" class="edge"><title>Node15&#45;&gt;Node1</title>
<path fill="none" stroke="#404040" d="M427.311,-153.286C427.177,-129.744 423.065,-96.5875 403.633,-76 383.984,-55.1826 355.969,-43.4393 328.335,-36.9174"/>
<polygon fill="none" stroke="#404040" points="328.283,-36.9064 321.587,-39.5825 316.541,-34.4307 323.237,-31.7546 328.283,-36.9064"/>
<text text-anchor="middle" x="500.133" y="-123" font-family="Helvetica,sans-Serif" font-size="10.00"> +MaxObjectsInGame</text>
<text text-anchor="middle" x="500.133" y="-112" font-family="Helvetica,sans-Serif" font-size="10.00">+SizeOfPermanentObjectPool</text>
<text text-anchor="middle" x="500.133" y="-101" font-family="Helvetica,sans-Serif" font-size="10.00">+NumRetriesBeforeForcingGC</text>
<text text-anchor="middle" x="500.133" y="-90" font-family="Helvetica,sans-Serif" font-size="10.00">+MaxObjectsNotConsideredByGC</text>
<text text-anchor="middle" x="500.133" y="-79" font-family="Helvetica,sans-Serif" font-size="10.00">+MaxObjectsInEditor</text>
</g>
</g>
</svg>
