<?xml version="1.0" encoding="UTF-8" standalone="no"?>
<!DOCTYPE svg PUBLIC "-//W3C//DTD SVG 1.1//EN"
 "http://www.w3.org/Graphics/SVG/1.1/DTD/svg11.dtd">
<!-- Generated by graphviz version 2.38.0 (20140413.2041)
 -->
<!-- Title: SDK::UDistributionVectorConstant Pages: 1 -->
<svg width="532pt" height="397pt"
 viewBox="0.00 0.00 532.43 397.00" xmlns="http://www.w3.org/2000/svg" xmlns:xlink="http://www.w3.org/1999/xlink">
<g id="graph0" class="graph" transform="scale(1 1) rotate(0) translate(4 393)">
<title>SDK::UDistributionVectorConstant</title>
<!-- Node1 -->
<g id="node1" class="node"><title>Node1</title>
<g id="a_node1"><a xlink:title=" ">
<polygon fill="#bfbfbf" stroke="black" points="236.425,-0.5 236.425,-68.5 363.425,-68.5 363.425,-0.5 236.425,-0.5"/>
<text text-anchor="start" x="244.425" y="-56.5" font-family="Helvetica,sans-Serif" font-size="10.00">SDK::UDistributionVector</text>
<text text-anchor="middle" x="299.925" y="-45.5" font-family="Helvetica,sans-Serif" font-size="10.00">Constant</text>
<polyline fill="none" stroke="black" points="236.425,-38.5 363.425,-38.5 "/>
<text text-anchor="middle" x="299.925" y="-26.5" font-family="Helvetica,sans-Serif" font-size="10.00"> </text>
<polyline fill="none" stroke="black" points="236.425,-19.5 363.425,-19.5 "/>
<text text-anchor="start" x="244.425" y="-7.5" font-family="Helvetica,sans-Serif" font-size="10.00">+ StaticClass()</text>
</a>
</g>
</g>
<!-- Node2 -->
<g id="node2" class="node"><title>Node2</title>
<g id="a_node2"><a xlink:href="a27935.html" target="_top" xlink:title=" ">
<polygon fill="none" stroke="red" points="111.425,-160.5 111.425,-217.5 238.425,-217.5 238.425,-160.5 111.425,-160.5"/>
<text text-anchor="middle" x="174.925" y="-205.5" font-family="Helvetica,sans-Serif" font-size="10.00">SDK::UDistributionVector</text>
<polyline fill="none" stroke="red" points="111.425,-198.5 238.425,-198.5 "/>
<text text-anchor="middle" x="174.925" y="-186.5" font-family="Helvetica,sans-Serif" font-size="10.00"> </text>
<polyline fill="none" stroke="red" points="111.425,-179.5 238.425,-179.5 "/>
<text text-anchor="start" x="119.425" y="-167.5" font-family="Helvetica,sans-Serif" font-size="10.00">+ StaticClass()</text>
</a>
</g>
</g>
<!-- Node2&#45;&gt;Node1 -->
<g id="edge1" class="edge"><title>Node2&#45;&gt;Node1</title>
<path fill="none" stroke="midnightblue" d="M204.025,-152.498C224.737,-127.229 252.379,-93.5057 272.665,-68.7577"/>
<polygon fill="none" stroke="midnightblue" points="201.194,-150.431 197.562,-160.383 206.608,-154.868 201.194,-150.431"/>
</g>
<!-- Node13 -->
<g id="node3" class="node"><title>Node13</title>
<g id="a_node3"><a xlink:title=" ">
<polygon fill="none" stroke="#bfbfbf" points="43.425,-331.5 43.425,-388.5 78.425,-388.5 78.425,-331.5 43.425,-331.5"/>
<text text-anchor="middle" x="60.925" y="-376.5" font-family="Helvetica,sans-Serif" font-size="10.00">char</text>
<polyline fill="none" stroke="#bfbfbf" points="43.425,-369.5 78.425,-369.5 "/>
<text text-anchor="middle" x="60.925" y="-357.5" font-family="Helvetica,sans-Serif" font-size="10.00"> </text>
<polyline fill="none" stroke="#bfbfbf" points="43.425,-350.5 78.425,-350.5 "/>
<text text-anchor="middle" x="60.925" y="-338.5" font-family="Helvetica,sans-Serif" font-size="10.00"> </text>
</a>
</g>
</g>
<!-- Node13&#45;&gt;Node1 -->
<g id="edge5" class="edge"><title>Node13&#45;&gt;Node1</title>
<path fill="none" stroke="#404040" d="M44.5502,-331.43C18.0231,-282.779 -26.7186,-180.728 21.925,-116 46.3022,-83.5625 150.572,-60.0131 224.224,-47.0478"/>
<polygon fill="none" stroke="#404040" points="224.395,-47.0184 229.629,-42.0579 236.221,-44.9812 230.987,-49.9418 224.395,-47.0184"/>
<text text-anchor="middle" x="61.925" y="-197.5" font-family="Helvetica,sans-Serif" font-size="10.00"> +UnknownData01</text>
<text text-anchor="middle" x="61.925" y="-186.5" font-family="Helvetica,sans-Serif" font-size="10.00">+bLockAxes</text>
<text text-anchor="middle" x="61.925" y="-175.5" font-family="Helvetica,sans-Serif" font-size="10.00">+UnknownData00</text>
</g>
<!-- Node13&#45;&gt;Node2 -->
<g id="edge2" class="edge"><title>Node13&#45;&gt;Node2</title>
<path fill="none" stroke="#404040" d="M78.4877,-332.964C97.398,-304.93 127.667,-260.058 149.248,-228.065"/>
<polygon fill="none" stroke="#404040" points="149.494,-227.701 149.533,-220.49 156.204,-217.752 156.165,-224.963 149.494,-227.701"/>
<text text-anchor="middle" x="150.425" y="-305" font-family="Helvetica,sans-Serif" font-size="10.00"> +bIsDirty</text>
<text text-anchor="middle" x="150.425" y="-294" font-family="Helvetica,sans-Serif" font-size="10.00">+bCanBeBaked</text>
<text text-anchor="middle" x="150.425" y="-283" font-family="Helvetica,sans-Serif" font-size="10.00">+UnknownData00</text>
</g>
<!-- Node15 -->
<g id="node4" class="node"><title>Node15</title>
<g id="a_node4"><a xlink:href="a25635.html" target="_top" xlink:title=" ">
<polygon fill="none" stroke="black" points="256.925,-122 256.925,-256 426.925,-256 426.925,-122 256.925,-122"/>
<text text-anchor="start" x="264.925" y="-244" font-family="Helvetica,sans-Serif" font-size="10.00">SDK::TEnumAsByte&lt; EDistribution</text>
<text text-anchor="middle" x="341.925" y="-233" font-family="Helvetica,sans-Serif" font-size="10.00">VectorLockFlags &gt;</text>
<polyline fill="none" stroke="black" points="256.925,-226 426.925,-226 "/>
<text text-anchor="middle" x="341.925" y="-214" font-family="Helvetica,sans-Serif" font-size="10.00"> </text>
<polyline fill="none" stroke="black" points="256.925,-207 426.925,-207 "/>
<text text-anchor="start" x="264.925" y="-195" font-family="Helvetica,sans-Serif" font-size="10.00">+ TEnumAsByte()</text>
<text text-anchor="start" x="264.925" y="-184" font-family="Helvetica,sans-Serif" font-size="10.00">+ TEnumAsByte()</text>
<text text-anchor="start" x="264.925" y="-173" font-family="Helvetica,sans-Serif" font-size="10.00">+ TEnumAsByte()</text>
<text text-anchor="start" x="264.925" y="-162" font-family="Helvetica,sans-Serif" font-size="10.00">+ TEnumAsByte()</text>
<text text-anchor="start" x="264.925" y="-151" font-family="Helvetica,sans-Serif" font-size="10.00">+ operator EDistributionVector</text>
<text text-anchor="start" x="264.925" y="-140" font-family="Helvetica,sans-Serif" font-size="10.00">LockFlags()</text>
<text text-anchor="start" x="264.925" y="-129" font-family="Helvetica,sans-Serif" font-size="10.00">+ GetValue()</text>
</a>
</g>
</g>
<!-- Node15&#45;&gt;Node1 -->
<g id="edge3" class="edge"><title>Node15&#45;&gt;Node1</title>
<path fill="none" stroke="#404040" d="M323.748,-121.998C319.917,-108.09 315.959,-93.7179 312.395,-80.7793"/>
<polygon fill="none" stroke="#404040" points="312.303,-80.4447 306.854,-75.7222 309.117,-68.8755 314.567,-73.598 312.303,-80.4447"/>
<text text-anchor="middle" x="348.925" y="-90" font-family="Helvetica,sans-Serif" font-size="10.00"> +LockedAxes</text>
</g>
<!-- Node16 -->
<g id="node5" class="node"><title>Node16</title>
<g id="a_node5"><a xlink:href="a26075.html" target="_top" xlink:title=" ">
<polygon fill="none" stroke="red" points="445.425,-116.5 445.425,-261.5 524.425,-261.5 524.425,-116.5 445.425,-116.5"/>
<text text-anchor="middle" x="484.925" y="-249.5" font-family="Helvetica,sans-Serif" font-size="10.00">SDK::FVector</text>
<polyline fill="none" stroke="red" points="445.425,-242.5 524.425,-242.5 "/>
<text text-anchor="middle" x="484.925" y="-230.5" font-family="Helvetica,sans-Serif" font-size="10.00"> </text>
<polyline fill="none" stroke="red" points="445.425,-223.5 524.425,-223.5 "/>
<text text-anchor="start" x="453.425" y="-211.5" font-family="Helvetica,sans-Serif" font-size="10.00">+ FVector()</text>
<text text-anchor="start" x="453.425" y="-200.5" font-family="Helvetica,sans-Serif" font-size="10.00">+ FVector()</text>
<text text-anchor="start" x="453.425" y="-189.5" font-family="Helvetica,sans-Serif" font-size="10.00">+ operator+()</text>
<text text-anchor="start" x="453.425" y="-178.5" font-family="Helvetica,sans-Serif" font-size="10.00">+ operator&#45;()</text>
<text text-anchor="start" x="453.425" y="-167.5" font-family="Helvetica,sans-Serif" font-size="10.00">+ operator*()</text>
<text text-anchor="start" x="453.425" y="-156.5" font-family="Helvetica,sans-Serif" font-size="10.00">+ operator=()</text>
<text text-anchor="start" x="453.425" y="-145.5" font-family="Helvetica,sans-Serif" font-size="10.00">+ operator+=()</text>
<text text-anchor="start" x="453.425" y="-134.5" font-family="Helvetica,sans-Serif" font-size="10.00">+ operator&#45;=()</text>
<text text-anchor="start" x="453.425" y="-123.5" font-family="Helvetica,sans-Serif" font-size="10.00">+ operator*=()</text>
</a>
</g>
</g>
<!-- Node16&#45;&gt;Node1 -->
<g id="edge4" class="edge"><title>Node16&#45;&gt;Node1</title>
<path fill="none" stroke="#404040" d="M445.21,-125.642C442.223,-122.246 439.122,-119.001 435.925,-116 417.786,-98.9709 395.433,-83.9055 374.128,-71.5492"/>
<polygon fill="none" stroke="#404040" points="373.896,-71.4184 366.705,-71.9541 363.445,-65.5221 370.636,-64.9864 373.896,-71.4184"/>
<text text-anchor="middle" x="437.425" y="-90" font-family="Helvetica,sans-Serif" font-size="10.00"> +Constant</text>
</g>
</g>
</svg>
