<?xml version="1.0" encoding="UTF-8" standalone="no"?>
<!DOCTYPE svg PUBLIC "-//W3C//DTD SVG 1.1//EN"
 "http://www.w3.org/Graphics/SVG/1.1/DTD/svg11.dtd">
<!-- Generated by graphviz version 2.38.0 (20140413.2041)
 -->
<!-- Title: SDK::UActorChannel Pages: 1 -->
<svg width="589pt" height="639pt"
 viewBox="0.00 0.00 589.07 639.00" xmlns="http://www.w3.org/2000/svg" xmlns:xlink="http://www.w3.org/1999/xlink">
<g id="graph0" class="graph" transform="scale(1 1) rotate(0) translate(4 635)">
<title>SDK::UActorChannel</title>
<!-- Node1 -->
<g id="node1" class="node"><title>Node1</title>
<g id="a_node1"><a xlink:title=" ">
<polygon fill="#bfbfbf" stroke="black" points="194.068,-0.5 194.068,-57.5 302.068,-57.5 302.068,-0.5 194.068,-0.5"/>
<text text-anchor="middle" x="248.068" y="-45.5" font-family="Helvetica,sans-Serif" font-size="10.00">SDK::UActorChannel</text>
<polyline fill="none" stroke="black" points="194.068,-38.5 302.068,-38.5 "/>
<text text-anchor="middle" x="248.068" y="-26.5" font-family="Helvetica,sans-Serif" font-size="10.00"> </text>
<polyline fill="none" stroke="black" points="194.068,-19.5 302.068,-19.5 "/>
<text text-anchor="start" x="202.068" y="-7.5" font-family="Helvetica,sans-Serif" font-size="10.00">+ StaticClass()</text>
</a>
</g>
</g>
<!-- Node2 -->
<g id="node2" class="node"><title>Node2</title>
<g id="a_node2"><a xlink:href="a27987.html" target="_top" xlink:title=" ">
<polygon fill="none" stroke="red" points="133.568,-237.5 133.568,-294.5 218.568,-294.5 218.568,-237.5 133.568,-237.5"/>
<text text-anchor="middle" x="176.068" y="-282.5" font-family="Helvetica,sans-Serif" font-size="10.00">SDK::UChannel</text>
<polyline fill="none" stroke="red" points="133.568,-275.5 218.568,-275.5 "/>
<text text-anchor="middle" x="176.068" y="-263.5" font-family="Helvetica,sans-Serif" font-size="10.00"> </text>
<polyline fill="none" stroke="red" points="133.568,-256.5 218.568,-256.5 "/>
<text text-anchor="start" x="141.568" y="-244.5" font-family="Helvetica,sans-Serif" font-size="10.00">+ StaticClass()</text>
</a>
</g>
</g>
<!-- Node2&#45;&gt;Node1 -->
<g id="edge1" class="edge"><title>Node2&#45;&gt;Node1</title>
<path fill="none" stroke="midnightblue" d="M187.54,-227.558C202.024,-180.285 226.607,-100.047 239.537,-57.8441"/>
<polygon fill="none" stroke="midnightblue" points="184.193,-226.533 184.61,-237.12 190.886,-228.584 184.193,-226.533"/>
</g>
<!-- Node12 -->
<g id="node3" class="node"><title>Node12</title>
<g id="a_node3"><a xlink:title=" ">
<polygon fill="none" stroke="#bfbfbf" points="158.568,-573.5 158.568,-630.5 193.568,-630.5 193.568,-573.5 158.568,-573.5"/>
<text text-anchor="middle" x="176.068" y="-618.5" font-family="Helvetica,sans-Serif" font-size="10.00">char</text>
<polyline fill="none" stroke="#bfbfbf" points="158.568,-611.5 193.568,-611.5 "/>
<text text-anchor="middle" x="176.068" y="-599.5" font-family="Helvetica,sans-Serif" font-size="10.00"> </text>
<polyline fill="none" stroke="#bfbfbf" points="158.568,-592.5 193.568,-592.5 "/>
<text text-anchor="middle" x="176.068" y="-580.5" font-family="Helvetica,sans-Serif" font-size="10.00"> </text>
</a>
</g>
</g>
<!-- Node12&#45;&gt;Node1 -->
<g id="edge3" class="edge"><title>Node12&#45;&gt;Node1</title>
<path fill="none" stroke="#404040" d="M158.349,-584.211C127.919,-554.01 66.8074,-487.019 44.0682,-416 3.41034,-289.017 -29.6604,-227.094 44.0682,-116 74.4705,-70.1898 134.593,-48.7231 181.728,-38.698"/>
<polygon fill="none" stroke="#404040" points="181.941,-38.656 187.053,-33.5696 193.714,-36.3316 188.602,-41.4181 181.941,-38.656"/>
<text text-anchor="middle" x="84.0682" y="-269" font-family="Helvetica,sans-Serif" font-size="10.00"> +UnknownData01</text>
<text text-anchor="middle" x="84.0682" y="-258" font-family="Helvetica,sans-Serif" font-size="10.00">+UnknownData00</text>
</g>
<!-- Node12&#45;&gt;Node2 -->
<g id="edge2" class="edge"><title>Node12&#45;&gt;Node2</title>
<path fill="none" stroke="#404040" d="M176.068,-573.383C176.068,-514.357 176.068,-375.712 176.068,-307.019"/>
<polygon fill="none" stroke="#404040" points="176.068,-306.649 172.068,-300.649 176.068,-294.649 180.068,-300.649 176.068,-306.649"/>
<text text-anchor="middle" x="216.068" y="-492" font-family="Helvetica,sans-Serif" font-size="10.00"> +UnknownData00</text>
</g>
<!-- Node18 -->
<g id="node4" class="node"><title>Node18</title>
<g id="a_node4"><a xlink:href="a26555.html" target="_top" xlink:title=" ">
<polygon fill="none" stroke="red" points="236.568,-116.5 236.568,-415.5 403.568,-415.5 403.568,-116.5 236.568,-116.5"/>
<text text-anchor="middle" x="320.068" y="-403.5" font-family="Helvetica,sans-Serif" font-size="10.00">SDK::AActor</text>
<polyline fill="none" stroke="red" points="236.568,-396.5 403.568,-396.5 "/>
<text text-anchor="start" x="244.568" y="-384.5" font-family="Helvetica,sans-Serif" font-size="10.00">+ bAllowRemovalFromServerWhen</text>
<text text-anchor="start" x="244.568" y="-373.5" font-family="Helvetica,sans-Serif" font-size="10.00">CollisionMerged</text>
<text text-anchor="start" x="244.568" y="-362.5" font-family="Helvetica,sans-Serif" font-size="10.00">+ bHidden</text>
<text text-anchor="start" x="244.568" y="-351.5" font-family="Helvetica,sans-Serif" font-size="10.00">+ bNetStartup</text>
<text text-anchor="start" x="244.568" y="-340.5" font-family="Helvetica,sans-Serif" font-size="10.00">+ bOnlyRelevantToOwner</text>
<text text-anchor="start" x="244.568" y="-329.5" font-family="Helvetica,sans-Serif" font-size="10.00">+ bAlwaysRelevant</text>
<text text-anchor="start" x="244.568" y="-318.5" font-family="Helvetica,sans-Serif" font-size="10.00">+ bReplicateMovement</text>
<text text-anchor="start" x="244.568" y="-307.5" font-family="Helvetica,sans-Serif" font-size="10.00">+ bExchangedRoles</text>
<text text-anchor="start" x="244.568" y="-296.5" font-family="Helvetica,sans-Serif" font-size="10.00">+ bNetLoadOnClient</text>
<text text-anchor="start" x="244.568" y="-285.5" font-family="Helvetica,sans-Serif" font-size="10.00">+ bBlockInput</text>
<text text-anchor="start" x="244.568" y="-274.5" font-family="Helvetica,sans-Serif" font-size="10.00">+ UnknownData00</text>
<text text-anchor="start" x="244.568" y="-263.5" font-family="Helvetica,sans-Serif" font-size="10.00">and 26 more...</text>
<polyline fill="none" stroke="red" points="236.568,-256.5 403.568,-256.5 "/>
<text text-anchor="start" x="244.568" y="-244.5" font-family="Helvetica,sans-Serif" font-size="10.00">+ UserConstructionScript()</text>
<text text-anchor="start" x="244.568" y="-233.5" font-family="Helvetica,sans-Serif" font-size="10.00">+ TearOff()</text>
<text text-anchor="start" x="244.568" y="-222.5" font-family="Helvetica,sans-Serif" font-size="10.00">+ SnapRootComponentTo()</text>
<text text-anchor="start" x="244.568" y="-211.5" font-family="Helvetica,sans-Serif" font-size="10.00">+ SetTickGroup()</text>
<text text-anchor="start" x="244.568" y="-200.5" font-family="Helvetica,sans-Serif" font-size="10.00">+ SetTickableWhenPaused()</text>
<text text-anchor="start" x="244.568" y="-189.5" font-family="Helvetica,sans-Serif" font-size="10.00">+ SetReplicates()</text>
<text text-anchor="start" x="244.568" y="-178.5" font-family="Helvetica,sans-Serif" font-size="10.00">+ SetReplicateMovement()</text>
<text text-anchor="start" x="244.568" y="-167.5" font-family="Helvetica,sans-Serif" font-size="10.00">+ SetOwner()</text>
<text text-anchor="start" x="244.568" y="-156.5" font-family="Helvetica,sans-Serif" font-size="10.00">+ SetLifeSpan()</text>
<text text-anchor="start" x="244.568" y="-145.5" font-family="Helvetica,sans-Serif" font-size="10.00">+ SetIgnoreNetTransformUpdates()</text>
<text text-anchor="start" x="244.568" y="-134.5" font-family="Helvetica,sans-Serif" font-size="10.00">and 109 more...</text>
<text text-anchor="start" x="244.568" y="-123.5" font-family="Helvetica,sans-Serif" font-size="10.00">+ StaticClass()</text>
</a>
</g>
</g>
<!-- Node12&#45;&gt;Node18 -->
<g id="edge5" class="edge"><title>Node12&#45;&gt;Node18</title>
<path fill="none" stroke="#404040" d="M193.823,-596.165C213.197,-589.936 243.639,-577.178 260.068,-555 287.209,-518.363 302.717,-472.256 311.405,-427.738"/>
<polygon fill="none" stroke="#404040" points="311.42,-427.655 308.562,-421.034 313.574,-415.85 316.432,-422.471 311.42,-427.655"/>
<text text-anchor="middle" x="376.068" y="-547" font-family="Helvetica,sans-Serif" font-size="10.00"> +bEnableAutoLODGeneration</text>
<text text-anchor="middle" x="376.068" y="-536" font-family="Helvetica,sans-Serif" font-size="10.00">+UnknownData01</text>
<text text-anchor="middle" x="376.068" y="-525" font-family="Helvetica,sans-Serif" font-size="10.00">+bNetUseOwnerRelevancy</text>
<text text-anchor="middle" x="376.068" y="-514" font-family="Helvetica,sans-Serif" font-size="10.00">+bTearOff</text>
<text text-anchor="middle" x="376.068" y="-503" font-family="Helvetica,sans-Serif" font-size="10.00">+bNetTemporary</text>
<text text-anchor="middle" x="376.068" y="-492" font-family="Helvetica,sans-Serif" font-size="10.00">+UnknownData02</text>
<text text-anchor="middle" x="376.068" y="-481" font-family="Helvetica,sans-Serif" font-size="10.00">+bCanBeInCluster</text>
<text text-anchor="middle" x="376.068" y="-470" font-family="Helvetica,sans-Serif" font-size="10.00">+bPendingNetUpdate</text>
<text text-anchor="middle" x="376.068" y="-459" font-family="Helvetica,sans-Serif" font-size="10.00">+UnknownData10</text>
<text text-anchor="middle" x="376.068" y="-448" font-family="Helvetica,sans-Serif" font-size="10.00">+UnknownData03</text>
<text text-anchor="middle" x="376.068" y="-437" font-family="Helvetica,sans-Serif" font-size="10.00">...</text>
</g>
<!-- Node18&#45;&gt;Node1 -->
<g id="edge4" class="edge"><title>Node18&#45;&gt;Node1</title>
<path fill="none" stroke="#404040" d="M274.469,-116.171C269.256,-99.1545 264.332,-83.0837 260.181,-69.5339"/>
<polygon fill="none" stroke="#404040" points="260.115,-69.3177 254.532,-64.7527 256.599,-57.8441 262.181,-62.4091 260.115,-69.3177"/>
<text text-anchor="middle" x="284.568" y="-84.5" font-family="Helvetica,sans-Serif" font-size="10.00"> +Actor</text>
</g>
<!-- Node18&#45;&gt;Node18 -->
<g id="edge6" class="edge"><title>Node18&#45;&gt;Node18</title>
<path fill="none" stroke="#404040" d="M403.689,-295.25C414.455,-290.178 421.568,-280.428 421.568,-266 421.568,-256.757 418.649,-249.434 413.72,-244.031"/>
<polygon fill="none" stroke="#404040" points="413.4,-243.799 406.195,-243.512 403.689,-236.75 410.894,-237.037 413.4,-243.799"/>
<text text-anchor="middle" x="440.068" y="-263.5" font-family="Helvetica,sans-Serif" font-size="10.00"> +Owner</text>
</g>
<!-- Node207 -->
<g id="node5" class="node"><title>Node207</title>
<g id="a_node5"><a xlink:href="a25823.html" target="_top" xlink:title=" ">
<polygon fill="none" stroke="black" points="477.068,-210 477.068,-322 581.068,-322 581.068,-210 477.068,-210"/>
<text text-anchor="start" x="485.068" y="-310" font-family="Helvetica,sans-Serif" font-size="10.00">SDK::TArray&lt; class</text>
<text text-anchor="middle" x="529.068" y="-299" font-family="Helvetica,sans-Serif" font-size="10.00"> SDK::UObject * &gt;</text>
<polyline fill="none" stroke="black" points="477.068,-292 581.068,-292 "/>
<text text-anchor="middle" x="529.068" y="-280" font-family="Helvetica,sans-Serif" font-size="10.00"> </text>
<polyline fill="none" stroke="black" points="477.068,-273 581.068,-273 "/>
<text text-anchor="start" x="485.068" y="-261" font-family="Helvetica,sans-Serif" font-size="10.00">+ TArray()</text>
<text text-anchor="start" x="485.068" y="-250" font-family="Helvetica,sans-Serif" font-size="10.00">+ Num()</text>
<text text-anchor="start" x="485.068" y="-239" font-family="Helvetica,sans-Serif" font-size="10.00">+ operator[]()</text>
<text text-anchor="start" x="485.068" y="-228" font-family="Helvetica,sans-Serif" font-size="10.00">+ operator[]()</text>
<text text-anchor="start" x="485.068" y="-217" font-family="Helvetica,sans-Serif" font-size="10.00">+ IsValidIndex()</text>
</a>
</g>
</g>
<!-- Node207&#45;&gt;Node1 -->
<g id="edge7" class="edge"><title>Node207&#45;&gt;Node1</title>
<path fill="none" stroke="#404040" d="M517.384,-209.69C508.302,-178.644 492.781,-141.201 467.068,-116 425.383,-75.1456 362.003,-53.105 314.134,-41.604"/>
<polygon fill="none" stroke="#404040" points="314.019,-41.5777 307.278,-44.1391 302.321,-38.902 309.061,-36.3405 314.019,-41.5777"/>
<text text-anchor="start" x="443.068" y="-90" font-family="Helvetica,sans-Serif" font-size="10.00"> +ObjectsRequiredForQueued</text>
<text text-anchor="middle" x="508.068" y="-79" font-family="Helvetica,sans-Serif" font-size="10.00">Bunches</text>
</g>
</g>
</svg>
