<?xml version="1.0" encoding="UTF-8" standalone="no"?>
<!DOCTYPE svg PUBLIC "-//W3C//DTD SVG 1.1//EN"
 "http://www.w3.org/Graphics/SVG/1.1/DTD/svg11.dtd">
<!-- Generated by graphviz version 2.38.0 (20140413.2041)
 -->
<!-- Title: SDK::UDistributionFloatParameterBase Pages: 1 -->
<svg width="196pt" height="342pt"
 viewBox="0.00 0.00 196.00 342.00" xmlns="http://www.w3.org/2000/svg" xmlns:xlink="http://www.w3.org/1999/xlink">
<g id="graph0" class="graph" transform="scale(1 1) rotate(0) translate(4 338)">
<title>SDK::UDistributionFloatParameterBase</title>
<!-- Node1 -->
<g id="node1" class="node"><title>Node1</title>
<g id="a_node1"><a xlink:title=" ">
<polygon fill="#bfbfbf" stroke="black" points="0,-105.5 0,-228.5 188,-228.5 188,-105.5 0,-105.5"/>
<text text-anchor="middle" x="94" y="-216.5" font-family="Helvetica,sans-Serif" font-size="10.00">SDK::UDistributionFloatParameterBase</text>
<polyline fill="none" stroke="black" points="0,-209.5 188,-209.5 "/>
<text text-anchor="start" x="8" y="-197.5" font-family="Helvetica,sans-Serif" font-size="10.00">+ ParameterName</text>
<text text-anchor="start" x="8" y="-186.5" font-family="Helvetica,sans-Serif" font-size="10.00">+ MinInput</text>
<text text-anchor="start" x="8" y="-175.5" font-family="Helvetica,sans-Serif" font-size="10.00">+ MaxInput</text>
<text text-anchor="start" x="8" y="-164.5" font-family="Helvetica,sans-Serif" font-size="10.00">+ MinOutput</text>
<text text-anchor="start" x="8" y="-153.5" font-family="Helvetica,sans-Serif" font-size="10.00">+ MaxOutput</text>
<text text-anchor="start" x="8" y="-142.5" font-family="Helvetica,sans-Serif" font-size="10.00">+ ParamMode</text>
<text text-anchor="start" x="8" y="-131.5" font-family="Helvetica,sans-Serif" font-size="10.00">+ UnknownData00</text>
<polyline fill="none" stroke="black" points="0,-124.5 188,-124.5 "/>
<text text-anchor="start" x="8" y="-112.5" font-family="Helvetica,sans-Serif" font-size="10.00">+ StaticClass()</text>
</a>
</g>
</g>
<!-- Node6 -->
<g id="node3" class="node"><title>Node6</title>
<g id="a_node3"><a xlink:href="a27919.html" target="_top" xlink:title=" ">
<polygon fill="none" stroke="black" points="17.5,-0.5 17.5,-68.5 170.5,-68.5 170.5,-0.5 17.5,-0.5"/>
<text text-anchor="start" x="25.5" y="-56.5" font-family="Helvetica,sans-Serif" font-size="10.00">SDK::UDistributionFloatParticle</text>
<text text-anchor="middle" x="94" y="-45.5" font-family="Helvetica,sans-Serif" font-size="10.00">Parameter</text>
<polyline fill="none" stroke="black" points="17.5,-38.5 170.5,-38.5 "/>
<text text-anchor="middle" x="94" y="-26.5" font-family="Helvetica,sans-Serif" font-size="10.00"> </text>
<polyline fill="none" stroke="black" points="17.5,-19.5 170.5,-19.5 "/>
<text text-anchor="start" x="25.5" y="-7.5" font-family="Helvetica,sans-Serif" font-size="10.00">+ StaticClass()</text>
</a>
</g>
</g>
<!-- Node1&#45;&gt;Node6 -->
<g id="edge2" class="edge"><title>Node1&#45;&gt;Node6</title>
<path fill="none" stroke="midnightblue" d="M94,-95.2438C94,-85.9655 94,-76.8368 94,-68.6152"/>
<polygon fill="none" stroke="midnightblue" points="90.5001,-95.3345 94,-105.335 97.5001,-95.3346 90.5001,-95.3345"/>
</g>
<!-- Node2 -->
<g id="node2" class="node"><title>Node2</title>
<g id="a_node2"><a xlink:href="a27911.html" target="_top" xlink:title=" ">
<polygon fill="none" stroke="red" points="14.5,-265.5 14.5,-333.5 173.5,-333.5 173.5,-265.5 14.5,-265.5"/>
<text text-anchor="middle" x="94" y="-321.5" font-family="Helvetica,sans-Serif" font-size="10.00">SDK::UDistributionFloatConstant</text>
<polyline fill="none" stroke="red" points="14.5,-314.5 173.5,-314.5 "/>
<text text-anchor="start" x="22.5" y="-302.5" font-family="Helvetica,sans-Serif" font-size="10.00">+ Constant</text>
<text text-anchor="start" x="22.5" y="-291.5" font-family="Helvetica,sans-Serif" font-size="10.00">+ UnknownData00</text>
<polyline fill="none" stroke="red" points="14.5,-284.5 173.5,-284.5 "/>
<text text-anchor="start" x="22.5" y="-272.5" font-family="Helvetica,sans-Serif" font-size="10.00">+ StaticClass()</text>
</a>
</g>
</g>
<!-- Node2&#45;&gt;Node1 -->
<g id="edge1" class="edge"><title>Node2&#45;&gt;Node1</title>
<path fill="none" stroke="midnightblue" d="M94,-255.169C94,-246.652 94,-237.572 94,-228.609"/>
<polygon fill="none" stroke="midnightblue" points="90.5001,-255.232 94,-265.232 97.5001,-255.232 90.5001,-255.232"/>
</g>
</g>
</svg>
