<?xml version="1.0" encoding="UTF-8" standalone="no"?>
<!DOCTYPE svg PUBLIC "-//W3C//DTD SVG 1.1//EN"
 "http://www.w3.org/Graphics/SVG/1.1/DTD/svg11.dtd">
<!-- Generated by graphviz version 2.38.0 (20140413.2041)
 -->
<!-- Title: SDK::UInputSettings Pages: 1 -->
<!--zoomable 386 -->
<svg id="main" version="1.1" xmlns="http://www.w3.org/2000/svg" xmlns:xlink="http://www.w3.org/1999/xlink" xml:space="preserve" onload="init(evt)">
<style type="text/css"><![CDATA[
.edge:hover path { stroke: red; }
.edge:hover polygon { stroke: red; fill: red; }
]]></style>
<script type="text/javascript"><![CDATA[
var edges = document.getElementsByTagName('g');
if (edges && edges.length) {
  for (var i=0;i<edges.length;i++) {
    if (edges[i].id.substr(0,4)=='edge') {
      edges[i].setAttribute('class','edge');
    }
  }
}
]]></script>
        <defs>
                <circle id="rim" cx="0" cy="0" r="7"/>
                <circle id="rim2" cx="0" cy="0" r="3.5"/>
                <g id="zoomPlus">
                        <use xlink:href="#rim" fill="#404040">
                                <set attributeName="fill" to="#808080" begin="zoomplus.mouseover" end="zoomplus.mouseout"/>
                        </use>
                        <path d="M-4,0h8M0,-4v8" fill="none" stroke="white" stroke-width="1.5" pointer-events="none"/>
                </g>
                <g id="zoomMin">
                        <use xlink:href="#rim" fill="#404040">
                                <set attributeName="fill" to="#808080" begin="zoomminus.mouseover" end="zoomminus.mouseout"/>
                        </use>
                        <path d="M-4,0h8" fill="none" stroke="white" stroke-width="1.5" pointer-events="none"/>
                </g>
                <g id="dirArrow">
                        <path fill="none" stroke="white" stroke-width="1.5" d="M0,-3.0v7 M-2.5,-0.5L0,-3.0L2.5,-0.5"/>
                </g>
               <g id="resetDef">
                       <use xlink:href="#rim2" fill="#404040">
                               <set attributeName="fill" to="#808080" begin="reset.mouseover" end="reset.mouseout"/>
                       </use>
               </g>
        </defs>

<script type="text/javascript">
var viewWidth = 1532;
var viewHeight = 386;
var sectionId = 'dynsection-1';
</script>
<script xlink:href="svgpan.js"/>
<svg id="graph" class="graph">
<g id="viewport">
<title>SDK::UInputSettings</title>
<!-- Node1 -->
<g id="node1" class="node"><title>Node1</title>
<g id="a_node1"><a xlink:title=" ">
<polygon fill="#bfbfbf" stroke="black" points="703.5,-0.5 703.5,-57.5 810.5,-57.5 810.5,-0.5 703.5,-0.5"/>
<text text-anchor="middle" x="757" y="-45.5" font-family="Helvetica,sans-Serif" font-size="10.00">SDK::UInputSettings</text>
<polyline fill="none" stroke="black" points="703.5,-38.5 810.5,-38.5 "/>
<text text-anchor="middle" x="757" y="-26.5" font-family="Helvetica,sans-Serif" font-size="10.00"> </text>
<polyline fill="none" stroke="black" points="703.5,-19.5 810.5,-19.5 "/>
<text text-anchor="start" x="711.5" y="-7.5" font-family="Helvetica,sans-Serif" font-size="10.00">+ StaticClass()</text>
</a>
</g>
</g>
<!-- Node2 -->
<g id="node2" class="node"><title>Node2</title>
<g id="a_node2"><a xlink:href="a25883.html" target="_top" xlink:title=" ">
<polygon fill="none" stroke="red" points="0,-116.5 0,-272.5 112,-272.5 112,-116.5 0,-116.5"/>
<text text-anchor="middle" x="56" y="-260.5" font-family="Helvetica,sans-Serif" font-size="10.00">SDK::UObject</text>
<polyline fill="none" stroke="red" points="0,-253.5 112,-253.5 "/>
<text text-anchor="middle" x="56" y="-241.5" font-family="Helvetica,sans-Serif" font-size="10.00"> </text>
<polyline fill="none" stroke="red" points="0,-234.5 112,-234.5 "/>
<text text-anchor="start" x="8" y="-222.5" font-family="Helvetica,sans-Serif" font-size="10.00">+ GetName()</text>
<text text-anchor="start" x="8" y="-211.5" font-family="Helvetica,sans-Serif" font-size="10.00">+ GetFullName()</text>
<text text-anchor="start" x="8" y="-200.5" font-family="Helvetica,sans-Serif" font-size="10.00">+ IsA()</text>
<text text-anchor="start" x="8" y="-189.5" font-family="Helvetica,sans-Serif" font-size="10.00">+ ProcessEvent()</text>
<text text-anchor="start" x="8" y="-178.5" font-family="Helvetica,sans-Serif" font-size="10.00">+ ExecuteUbergraph()</text>
<text text-anchor="start" x="8" y="-167.5" font-family="Helvetica,sans-Serif" font-size="10.00">+ StaticClass()</text>
<text text-anchor="start" x="8" y="-156.5" font-family="Helvetica,sans-Serif" font-size="10.00">+ GetGlobalObjects()</text>
<text text-anchor="start" x="8" y="-145.5" font-family="Helvetica,sans-Serif" font-size="10.00">+ FindObject()</text>
<text text-anchor="start" x="8" y="-134.5" font-family="Helvetica,sans-Serif" font-size="10.00">+ FindClass()</text>
<text text-anchor="start" x="8" y="-123.5" font-family="Helvetica,sans-Serif" font-size="10.00">+ GetObjectCasted()</text>
</a>
</g>
</g>
<!-- Node2&#45;&gt;Node1 -->
<g id="edge1" class="edge"><title>Node2&#45;&gt;Node1</title>
<path fill="none" stroke="midnightblue" d="M120.847,-144.958C159.833,-118.881 211.705,-89.4008 263,-76 419.259,-35.1777 611.625,-29.4774 703.383,-29.3496"/>
<polygon fill="none" stroke="midnightblue" points="118.537,-142.296 112.228,-150.808 122.468,-148.088 118.537,-142.296"/>
</g>
<!-- Node2&#45;&gt;Node2 -->
<g id="edge2" class="edge"><title>Node2&#45;&gt;Node2</title>
<path fill="none" stroke="#404040" d="M112.146,-212.643C122.622,-210.409 130,-204.361 130,-194.5 130,-188.799 127.534,-184.372 123.429,-181.221"/>
<polygon fill="none" stroke="#404040" points="123.166,-181.107 116.073,-182.405 112.146,-176.357 119.239,-175.059 123.166,-181.107"/>
<text text-anchor="middle" x="147" y="-192" font-family="Helvetica,sans-Serif" font-size="10.00"> +Outer</text>
</g>
<!-- Node13 -->
<g id="node3" class="node"><title>Node13</title>
<g id="a_node3"><a xlink:href="a25611.html" target="_top" xlink:title=" ">
<polygon fill="none" stroke="black" points="182,-138.5 182,-250.5 346,-250.5 346,-138.5 182,-138.5"/>
<text text-anchor="start" x="190" y="-238.5" font-family="Helvetica,sans-Serif" font-size="10.00">SDK::TArray&lt; struct</text>
<text text-anchor="middle" x="264" y="-227.5" font-family="Helvetica,sans-Serif" font-size="10.00"> SDK::FInputActionKeyMapping &gt;</text>
<polyline fill="none" stroke="black" points="182,-220.5 346,-220.5 "/>
<text text-anchor="middle" x="264" y="-208.5" font-family="Helvetica,sans-Serif" font-size="10.00"> </text>
<polyline fill="none" stroke="black" points="182,-201.5 346,-201.5 "/>
<text text-anchor="start" x="190" y="-189.5" font-family="Helvetica,sans-Serif" font-size="10.00">+ TArray()</text>
<text text-anchor="start" x="190" y="-178.5" font-family="Helvetica,sans-Serif" font-size="10.00">+ Num()</text>
<text text-anchor="start" x="190" y="-167.5" font-family="Helvetica,sans-Serif" font-size="10.00">+ operator[]()</text>
<text text-anchor="start" x="190" y="-156.5" font-family="Helvetica,sans-Serif" font-size="10.00">+ operator[]()</text>
<text text-anchor="start" x="190" y="-145.5" font-family="Helvetica,sans-Serif" font-size="10.00">+ IsValidIndex()</text>
</a>
</g>
</g>
<!-- Node13&#45;&gt;Node1 -->
<g id="edge3" class="edge"><title>Node13&#45;&gt;Node1</title>
<path fill="none" stroke="#404040" d="M258.249,-138.312C259.049,-115.978 264.444,-91.7904 281,-76 310.079,-48.2663 567.41,-36.1717 691.129,-31.9234"/>
<polygon fill="none" stroke="#404040" points="691.395,-31.9146 697.258,-27.7161 703.388,-31.5132 697.525,-35.7117 691.395,-31.9146"/>
<text text-anchor="middle" x="320.5" y="-84.5" font-family="Helvetica,sans-Serif" font-size="10.00"> +ActionMappings</text>
</g>
<!-- Node14 -->
<g id="node4" class="node"><title>Node14</title>
<g id="a_node4"><a xlink:title=" ">
<polygon fill="none" stroke="#bfbfbf" points="364.5,-166 364.5,-223 399.5,-223 399.5,-166 364.5,-166"/>
<text text-anchor="middle" x="382" y="-211" font-family="Helvetica,sans-Serif" font-size="10.00">float</text>
<polyline fill="none" stroke="#bfbfbf" points="364.5,-204 399.5,-204 "/>
<text text-anchor="middle" x="382" y="-192" font-family="Helvetica,sans-Serif" font-size="10.00"> </text>
<polyline fill="none" stroke="#bfbfbf" points="364.5,-185 399.5,-185 "/>
<text text-anchor="middle" x="382" y="-173" font-family="Helvetica,sans-Serif" font-size="10.00"> </text>
</a>
</g>
</g>
<!-- Node14&#45;&gt;Node1 -->
<g id="edge4" class="edge"><title>Node14&#45;&gt;Node1</title>
<path fill="none" stroke="#404040" d="M370.29,-165.647C361.265,-139.254 353.577,-100.157 375,-76 395.576,-52.7978 587.308,-39.052 691.058,-33.2523"/>
<polygon fill="none" stroke="#404040" points="691.275,-33.2405 697.047,-28.9184 703.257,-32.5843 697.484,-36.9064 691.275,-33.2405"/>
<text text-anchor="middle" x="416" y="-90" font-family="Helvetica,sans-Serif" font-size="10.00"> +DoubleClickTime</text>
<text text-anchor="middle" x="416" y="-79" font-family="Helvetica,sans-Serif" font-size="10.00">+FOVScale</text>
</g>
<!-- Node11 -->
<g id="node5" class="node"><title>Node11</title>
<g id="a_node5"><a xlink:title=" ">
<polygon fill="none" stroke="#bfbfbf" points="491.5,-320.5 491.5,-377.5 526.5,-377.5 526.5,-320.5 491.5,-320.5"/>
<text text-anchor="middle" x="509" y="-365.5" font-family="Helvetica,sans-Serif" font-size="10.00">char</text>
<polyline fill="none" stroke="#bfbfbf" points="491.5,-358.5 526.5,-358.5 "/>
<text text-anchor="middle" x="509" y="-346.5" font-family="Helvetica,sans-Serif" font-size="10.00"> </text>
<polyline fill="none" stroke="#bfbfbf" points="491.5,-339.5 526.5,-339.5 "/>
<text text-anchor="middle" x="509" y="-327.5" font-family="Helvetica,sans-Serif" font-size="10.00"> </text>
</a>
</g>
</g>
<!-- Node11&#45;&gt;Node1 -->
<g id="edge5" class="edge"><title>Node11&#45;&gt;Node1</title>
<path fill="none" stroke="#404040" d="M491.431,-324.753C481.863,-310.607 470.983,-291.71 466,-273 448.042,-205.573 424.233,-171.897 466,-116 493.014,-79.8478 614.215,-53.5653 691.429,-40.135"/>
<polygon fill="none" stroke="#404040" points="691.594,-40.1071 696.836,-35.1556 703.423,-38.0903 698.18,-43.0418 691.594,-40.1071"/>
<text text-anchor="middle" x="529" y="-225" font-family="Helvetica,sans-Serif" font-size="10.00"> +UnknownData01</text>
<text text-anchor="middle" x="529" y="-214" font-family="Helvetica,sans-Serif" font-size="10.00">+UnknownData02</text>
<text text-anchor="middle" x="529" y="-203" font-family="Helvetica,sans-Serif" font-size="10.00">+bAltEnterTogglesFullscreen</text>
<text text-anchor="middle" x="529" y="-192" font-family="Helvetica,sans-Serif" font-size="10.00">+bEnableMouseSmoothing</text>
<text text-anchor="middle" x="529" y="-181" font-family="Helvetica,sans-Serif" font-size="10.00">+bUseMouseForTouch</text>
<text text-anchor="middle" x="529" y="-170" font-family="Helvetica,sans-Serif" font-size="10.00">+bEnableFOVScaling</text>
<text text-anchor="middle" x="529" y="-159" font-family="Helvetica,sans-Serif" font-size="10.00">+UnknownData00</text>
</g>
<!-- Node19 -->
<g id="node8" class="node"><title>Node19</title>
<g id="a_node8"><a xlink:href="a32427.html" target="_top" xlink:title=" ">
<polygon fill="none" stroke="red" points="601,-155 601,-234 667,-234 667,-155 601,-155"/>
<text text-anchor="middle" x="634" y="-222" font-family="Helvetica,sans-Serif" font-size="10.00">SDK::FKey</text>
<polyline fill="none" stroke="red" points="601,-215 667,-215 "/>
<text text-anchor="middle" x="634" y="-203" font-family="Helvetica,sans-Serif" font-size="10.00"> </text>
<polyline fill="none" stroke="red" points="601,-196 667,-196 "/>
<text text-anchor="start" x="609" y="-184" font-family="Helvetica,sans-Serif" font-size="10.00">+ FKey()</text>
<text text-anchor="start" x="609" y="-173" font-family="Helvetica,sans-Serif" font-size="10.00">+ FKey()</text>
<text text-anchor="start" x="609" y="-162" font-family="Helvetica,sans-Serif" font-size="10.00">+ FKey()</text>
</a>
</g>
</g>
<!-- Node11&#45;&gt;Node19 -->
<g id="edge9" class="edge"><title>Node11&#45;&gt;Node19</title>
<path fill="none" stroke="#404040" d="M526.703,-333.356C543.407,-319.017 568.567,-296.025 587,-273 594.005,-264.249 600.751,-254.368 606.84,-244.663"/>
<polygon fill="none" stroke="#404040" points="606.931,-244.513 606.633,-237.308 613.169,-234.262 613.467,-241.467 606.931,-244.513"/>
<text text-anchor="middle" x="610" y="-294" font-family="Helvetica,sans-Serif" font-size="10.00"> +UnknownData00</text>
</g>
<!-- Node15 -->
<g id="node6" class="node"><title>Node15</title>
<g id="a_node6"><a xlink:href="a26207.html" target="_top" xlink:title=" ">
<polygon fill="none" stroke="red" points="685.5,-166 685.5,-223 828.5,-223 828.5,-166 685.5,-166"/>
<text text-anchor="middle" x="757" y="-211" font-family="Helvetica,sans-Serif" font-size="10.00">SDK::FStringAssetReference</text>
<polyline fill="none" stroke="red" points="685.5,-204 828.5,-204 "/>
<text text-anchor="middle" x="757" y="-192" font-family="Helvetica,sans-Serif" font-size="10.00"> </text>
<polyline fill="none" stroke="red" points="685.5,-185 828.5,-185 "/>
<text text-anchor="middle" x="757" y="-173" font-family="Helvetica,sans-Serif" font-size="10.00"> </text>
</a>
</g>
</g>
<!-- Node15&#45;&gt;Node1 -->
<g id="edge6" class="edge"><title>Node15&#45;&gt;Node1</title>
<path fill="none" stroke="#404040" d="M757,-165.764C757,-139.377 757,-99.4004 757,-69.6519"/>
<polygon fill="none" stroke="#404040" points="757,-69.5983 753,-63.5983 757,-57.5983 761,-63.5983 757,-69.5983"/>
<text text-anchor="middle" x="808.5" y="-84.5" font-family="Helvetica,sans-Serif" font-size="10.00"> +DefaultTouchInterface</text>
</g>
<!-- Node18 -->
<g id="node7" class="node"><title>Node18</title>
<g id="a_node7"><a xlink:href="a25611.html" target="_top" xlink:title=" ">
<polygon fill="none" stroke="black" points="847,-138.5 847,-250.5 999,-250.5 999,-138.5 847,-138.5"/>
<text text-anchor="start" x="855" y="-238.5" font-family="Helvetica,sans-Serif" font-size="10.00">SDK::TArray&lt; struct</text>
<text text-anchor="middle" x="923" y="-227.5" font-family="Helvetica,sans-Serif" font-size="10.00"> SDK::FInputAxisConfigEntry &gt;</text>
<polyline fill="none" stroke="black" points="847,-220.5 999,-220.5 "/>
<text text-anchor="middle" x="923" y="-208.5" font-family="Helvetica,sans-Serif" font-size="10.00"> </text>
<polyline fill="none" stroke="black" points="847,-201.5 999,-201.5 "/>
<text text-anchor="start" x="855" y="-189.5" font-family="Helvetica,sans-Serif" font-size="10.00">+ TArray()</text>
<text text-anchor="start" x="855" y="-178.5" font-family="Helvetica,sans-Serif" font-size="10.00">+ Num()</text>
<text text-anchor="start" x="855" y="-167.5" font-family="Helvetica,sans-Serif" font-size="10.00">+ operator[]()</text>
<text text-anchor="start" x="855" y="-156.5" font-family="Helvetica,sans-Serif" font-size="10.00">+ operator[]()</text>
<text text-anchor="start" x="855" y="-145.5" font-family="Helvetica,sans-Serif" font-size="10.00">+ IsValidIndex()</text>
</a>
</g>
</g>
<!-- Node18&#45;&gt;Node1 -->
<g id="edge7" class="edge"><title>Node18&#45;&gt;Node1</title>
<path fill="none" stroke="#404040" d="M903.193,-138.433C893.221,-116.782 879.296,-93.074 861,-76 849.781,-65.5309 835.789,-57.1786 821.74,-50.6229"/>
<polygon fill="none" stroke="#404040" points="821.519,-50.527 814.422,-51.8042 810.514,-45.7443 817.611,-44.4671 821.519,-50.527"/>
<text text-anchor="middle" x="908" y="-84.5" font-family="Helvetica,sans-Serif" font-size="10.00"> +AxisConfig</text>
</g>
<!-- Node19&#45;&gt;Node1 -->
<g id="edge8" class="edge"><title>Node19&#45;&gt;Node1</title>
<path fill="none" stroke="#404040" d="M646.947,-154.891C656.466,-130.445 671.194,-99.1881 691,-76 694.125,-72.341 697.605,-68.8337 701.286,-65.5036"/>
<polygon fill="none" stroke="#404040" points="701.548,-65.2856 703.598,-58.3719 710.768,-57.6051 708.718,-64.5187 701.548,-65.2856"/>
<text text-anchor="middle" x="722" y="-84.5" font-family="Helvetica,sans-Serif" font-size="10.00"> +ConsoleKey</text>
</g>
<!-- Node20 -->
<g id="node9" class="node"><title>Node20</title>
<g id="a_node9"><a xlink:title=" ">
<polygon fill="none" stroke="#bfbfbf" points="1017.5,-166 1017.5,-223 1052.5,-223 1052.5,-166 1017.5,-166"/>
<text text-anchor="middle" x="1035" y="-211" font-family="Helvetica,sans-Serif" font-size="10.00">bool</text>
<polyline fill="none" stroke="#bfbfbf" points="1017.5,-204 1052.5,-204 "/>
<text text-anchor="middle" x="1035" y="-192" font-family="Helvetica,sans-Serif" font-size="10.00"> </text>
<polyline fill="none" stroke="#bfbfbf" points="1017.5,-185 1052.5,-185 "/>
<text text-anchor="middle" x="1035" y="-173" font-family="Helvetica,sans-Serif" font-size="10.00"> </text>
</a>
</g>
</g>
<!-- Node20&#45;&gt;Node1 -->
<g id="edge10" class="edge"><title>Node20&#45;&gt;Node1</title>
<path fill="none" stroke="#404040" d="M1031.2,-165.763C1027.66,-149.471 1020.9,-129.493 1008,-116 993.117,-100.428 981.114,-109.657 963,-98 951.105,-90.3446 952.382,-82.8403 940,-76 903.804,-56.0036 858.81,-44.543 822.495,-38.0621"/>
<polygon fill="none" stroke="#404040" points="822.371,-38.0413 815.79,-40.9902 810.537,-36.05 817.118,-33.1011 822.371,-38.0413"/>
<text text-anchor="middle" x="1036" y="-90" font-family="Helvetica,sans-Serif" font-size="10.00"> +bAlwaysShowTouchInterface</text>
<text text-anchor="middle" x="1036" y="-79" font-family="Helvetica,sans-Serif" font-size="10.00">+bShowConsoleOnFourFingerTap</text>
</g>
<!-- Node21 -->
<g id="node10" class="node"><title>Node21</title>
<g id="a_node10"><a xlink:href="a25611.html" target="_top" xlink:title=" ">
<polygon fill="none" stroke="black" points="1074.5,-138.5 1074.5,-250.5 1179.5,-250.5 1179.5,-138.5 1074.5,-138.5"/>
<text text-anchor="start" x="1082.5" y="-238.5" font-family="Helvetica,sans-Serif" font-size="10.00">SDK::TArray&lt; struct</text>
<text text-anchor="middle" x="1127" y="-227.5" font-family="Helvetica,sans-Serif" font-size="10.00"> SDK::FKey &gt;</text>
<polyline fill="none" stroke="black" points="1074.5,-220.5 1179.5,-220.5 "/>
<text text-anchor="middle" x="1127" y="-208.5" font-family="Helvetica,sans-Serif" font-size="10.00"> </text>
<polyline fill="none" stroke="black" points="1074.5,-201.5 1179.5,-201.5 "/>
<text text-anchor="start" x="1082.5" y="-189.5" font-family="Helvetica,sans-Serif" font-size="10.00">+ TArray()</text>
<text text-anchor="start" x="1082.5" y="-178.5" font-family="Helvetica,sans-Serif" font-size="10.00">+ Num()</text>
<text text-anchor="start" x="1082.5" y="-167.5" font-family="Helvetica,sans-Serif" font-size="10.00">+ operator[]()</text>
<text text-anchor="start" x="1082.5" y="-156.5" font-family="Helvetica,sans-Serif" font-size="10.00">+ operator[]()</text>
<text text-anchor="start" x="1082.5" y="-145.5" font-family="Helvetica,sans-Serif" font-size="10.00">+ IsValidIndex()</text>
</a>
</g>
</g>
<!-- Node21&#45;&gt;Node1 -->
<g id="edge11" class="edge"><title>Node21&#45;&gt;Node1</title>
<path fill="none" stroke="#404040" d="M1131.96,-138.23C1130.88,-116.018 1125.3,-91.9461 1109,-76 1069.56,-37.4244 913.147,-30.3057 822.644,-29.5126"/>
<polygon fill="none" stroke="#404040" points="822.6,-29.5124 816.576,-33.4765 810.6,-29.4408 816.624,-25.4767 822.6,-29.5124"/>
<text text-anchor="middle" x="1157.5" y="-84.5" font-family="Helvetica,sans-Serif" font-size="10.00"> +ConsoleKeys</text>
</g>
<!-- Node22 -->
<g id="node11" class="node"><title>Node22</title>
<g id="a_node11"><a xlink:href="a25611.html" target="_top" xlink:title=" ">
<polygon fill="none" stroke="black" points="1197.5,-133 1197.5,-256 1350.5,-256 1350.5,-133 1197.5,-133"/>
<text text-anchor="start" x="1205.5" y="-244" font-family="Helvetica,sans-Serif" font-size="10.00">SDK::TArray&lt; struct</text>
<text text-anchor="start" x="1205.5" y="-233" font-family="Helvetica,sans-Serif" font-size="10.00"> SDK::FInputCombinedAxisKey</text>
<text text-anchor="middle" x="1274" y="-222" font-family="Helvetica,sans-Serif" font-size="10.00">Mapping &gt;</text>
<polyline fill="none" stroke="black" points="1197.5,-215 1350.5,-215 "/>
<text text-anchor="middle" x="1274" y="-203" font-family="Helvetica,sans-Serif" font-size="10.00"> </text>
<polyline fill="none" stroke="black" points="1197.5,-196 1350.5,-196 "/>
<text text-anchor="start" x="1205.5" y="-184" font-family="Helvetica,sans-Serif" font-size="10.00">+ TArray()</text>
<text text-anchor="start" x="1205.5" y="-173" font-family="Helvetica,sans-Serif" font-size="10.00">+ Num()</text>
<text text-anchor="start" x="1205.5" y="-162" font-family="Helvetica,sans-Serif" font-size="10.00">+ operator[]()</text>
<text text-anchor="start" x="1205.5" y="-151" font-family="Helvetica,sans-Serif" font-size="10.00">+ operator[]()</text>
<text text-anchor="start" x="1205.5" y="-140" font-family="Helvetica,sans-Serif" font-size="10.00">+ IsValidIndex()</text>
</a>
</g>
</g>
<!-- Node22&#45;&gt;Node1 -->
<g id="edge12" class="edge"><title>Node22&#45;&gt;Node1</title>
<path fill="none" stroke="#404040" d="M1247.05,-132.977C1234.38,-111.467 1217.11,-89.3089 1195,-76 1133.95,-39.2607 929.652,-31.6346 823.033,-30.2041"/>
<polygon fill="none" stroke="#404040" points="822.842,-30.202 816.795,-34.1317 810.842,-30.0619 816.889,-26.1322 822.842,-30.202"/>
<text text-anchor="middle" x="1279.5" y="-84.5" font-family="Helvetica,sans-Serif" font-size="10.00"> +CombinedAxisMappings</text>
</g>
<!-- Node23 -->
<g id="node12" class="node"><title>Node23</title>
<g id="a_node12"><a xlink:href="a25611.html" target="_top" xlink:title=" ">
<polygon fill="none" stroke="black" points="1368.5,-138.5 1368.5,-250.5 1523.5,-250.5 1523.5,-138.5 1368.5,-138.5"/>
<text text-anchor="start" x="1376.5" y="-238.5" font-family="Helvetica,sans-Serif" font-size="10.00">SDK::TArray&lt; struct</text>
<text text-anchor="middle" x="1446" y="-227.5" font-family="Helvetica,sans-Serif" font-size="10.00"> SDK::FInputAxisKeyMapping &gt;</text>
<polyline fill="none" stroke="black" points="1368.5,-220.5 1523.5,-220.5 "/>
<text text-anchor="middle" x="1446" y="-208.5" font-family="Helvetica,sans-Serif" font-size="10.00"> </text>
<polyline fill="none" stroke="black" points="1368.5,-201.5 1523.5,-201.5 "/>
<text text-anchor="start" x="1376.5" y="-189.5" font-family="Helvetica,sans-Serif" font-size="10.00">+ TArray()</text>
<text text-anchor="start" x="1376.5" y="-178.5" font-family="Helvetica,sans-Serif" font-size="10.00">+ Num()</text>
<text text-anchor="start" x="1376.5" y="-167.5" font-family="Helvetica,sans-Serif" font-size="10.00">+ operator[]()</text>
<text text-anchor="start" x="1376.5" y="-156.5" font-family="Helvetica,sans-Serif" font-size="10.00">+ operator[]()</text>
<text text-anchor="start" x="1376.5" y="-145.5" font-family="Helvetica,sans-Serif" font-size="10.00">+ IsValidIndex()</text>
</a>
</g>
</g>
<!-- Node23&#45;&gt;Node1 -->
<g id="edge13" class="edge"><title>Node23&#45;&gt;Node1</title>
<path fill="none" stroke="#404040" d="M1410.95,-138.237C1393.03,-114.88 1369.07,-89.9081 1341,-76 1251.62,-31.7079 956.29,-28.2859 823.135,-29.1055"/>
<polygon fill="none" stroke="#404040" points="822.767,-29.1081 816.797,-33.1524 810.768,-29.1969 816.738,-25.1526 822.767,-29.1081"/>
<text text-anchor="middle" x="1408.5" y="-84.5" font-family="Helvetica,sans-Serif" font-size="10.00"> +AxisMappings</text>
</g>
</g>
</svg>
        <g id="navigator" transform="translate(0 0)" fill="#404254">
                <rect fill="#f2f5e9" fill-opacity="0.5" stroke="#606060" stroke-width=".5" x="0" y="0" width="60" height="60"/>
                <use id="zoomplus" xlink:href="#zoomPlus" x="17" y="9" onmousedown="handleZoom(evt,'in')"/>
                <use id="zoomminus" xlink:href="#zoomMin" x="42" y="9" onmousedown="handleZoom(evt,'out')"/>
                <use id="reset" xlink:href="#resetDef" x="30" y="36" onmousedown="handleReset()"/>
                <g id="arrowUp" xlink:href="#dirArrow" transform="translate(30 24)" onmousedown="handlePan(0,-1)">
                  <use xlink:href="#rim" fill="#404040">
                        <set attributeName="fill" to="#808080" begin="arrowUp.mouseover" end="arrowUp.mouseout"/>
                  </use>
                  <path fill="none" stroke="white" stroke-width="1.5" d="M0,-3.0v7 M-2.5,-0.5L0,-3.0L2.5,-0.5"/>
                </g>
                <g id="arrowRight" xlink:href="#dirArrow" transform="rotate(90) translate(36 -43)" onmousedown="handlePan(1,0)">
                  <use xlink:href="#rim" fill="#404040">
                        <set attributeName="fill" to="#808080" begin="arrowRight.mouseover" end="arrowRight.mouseout"/>
                  </use>
                  <path fill="none" stroke="white" stroke-width="1.5" d="M0,-3.0v7 M-2.5,-0.5L0,-3.0L2.5,-0.5"/>
                </g>
                <g id="arrowDown" xlink:href="#dirArrow" transform="rotate(180) translate(-30 -48)" onmousedown="handlePan(0,1)">
                  <use xlink:href="#rim" fill="#404040">
                        <set attributeName="fill" to="#808080" begin="arrowDown.mouseover" end="arrowDown.mouseout"/>
                  </use>
                  <path fill="none" stroke="white" stroke-width="1.5" d="M0,-3.0v7 M-2.5,-0.5L0,-3.0L2.5,-0.5"/>
                </g>
                <g id="arrowLeft" xlink:href="#dirArrow" transform="rotate(270) translate(-36 17)" onmousedown="handlePan(-1,0)">
                  <use xlink:href="#rim" fill="#404040">
                        <set attributeName="fill" to="#808080" begin="arrowLeft.mouseover" end="arrowLeft.mouseout"/>
                  </use>
                  <path fill="none" stroke="white" stroke-width="1.5" d="M0,-3.0v7 M-2.5,-0.5L0,-3.0L2.5,-0.5"/>
                </g>
        </g>
        <svg viewBox="0 0 15 15" width="100%" height="30px" preserveAspectRatio="xMaxYMin meet">
         <g id="arrow_out" transform="scale(0.3 0.3)">
          <a xlink:href="a28057_org.svg" target="_base">
           <rect id="button" ry="5" rx="5" y="6" x="6" height="38" width="38"
                fill="#f2f5e9" fill-opacity="0.5" stroke="#606060" stroke-width="1.0"/>
           <path id="arrow"
             d="M 11.500037,31.436501 C 11.940474,20.09759 22.043105,11.32322 32.158766,21.979434 L 37.068811,17.246167 C 37.068811,17.246167 37.088388,32 37.088388,32 L 22.160133,31.978069 C 22.160133,31.978069 26.997745,27.140456 26.997745,27.140456 C 18.528582,18.264221 13.291696,25.230495 11.500037,31.436501 z"
             style="fill:#404040;"/>
          </a>
         </g>
        </svg>
</svg>
