<?xml version="1.0" encoding="UTF-8" standalone="no"?>
<!DOCTYPE svg PUBLIC "-//W3C//DTD SVG 1.1//EN"
 "http://www.w3.org/Graphics/SVG/1.1/DTD/svg11.dtd">
<!-- Generated by graphviz version 2.38.0 (20140413.2041)
 -->
<!-- Title: SDK::UInterpTrackVectorMaterialParam Pages: 1 -->
<svg width="440pt" height="237pt"
 viewBox="0.00 0.00 439.50 237.00" xmlns="http://www.w3.org/2000/svg" xmlns:xlink="http://www.w3.org/1999/xlink">
<g id="graph0" class="graph" transform="scale(1 1) rotate(0) translate(4 233)">
<title>SDK::UInterpTrackVectorMaterialParam</title>
<!-- Node1 -->
<g id="node1" class="node"><title>Node1</title>
<g id="a_node1"><a xlink:title=" ">
<polygon fill="#bfbfbf" stroke="black" points="140,-0.5 140,-68.5 301,-68.5 301,-0.5 140,-0.5"/>
<text text-anchor="start" x="148" y="-56.5" font-family="Helvetica,sans-Serif" font-size="10.00">SDK::UInterpTrackVectorMaterial</text>
<text text-anchor="middle" x="220.5" y="-45.5" font-family="Helvetica,sans-Serif" font-size="10.00">Param</text>
<polyline fill="none" stroke="black" points="140,-38.5 301,-38.5 "/>
<text text-anchor="middle" x="220.5" y="-26.5" font-family="Helvetica,sans-Serif" font-size="10.00"> </text>
<polyline fill="none" stroke="black" points="140,-19.5 301,-19.5 "/>
<text text-anchor="start" x="148" y="-7.5" font-family="Helvetica,sans-Serif" font-size="10.00">+ StaticClass()</text>
</a>
</g>
</g>
<!-- Node2 -->
<g id="node2" class="node"><title>Node2</title>
<g id="a_node2"><a xlink:href="a28175.html" target="_top" xlink:title=" ">
<polygon fill="none" stroke="red" points="0,-144 0,-201 149,-201 149,-144 0,-144"/>
<text text-anchor="middle" x="74.5" y="-189" font-family="Helvetica,sans-Serif" font-size="10.00">SDK::UInterpTrackVectorBase</text>
<polyline fill="none" stroke="red" points="0,-182 149,-182 "/>
<text text-anchor="middle" x="74.5" y="-170" font-family="Helvetica,sans-Serif" font-size="10.00"> </text>
<polyline fill="none" stroke="red" points="0,-163 149,-163 "/>
<text text-anchor="start" x="8" y="-151" font-family="Helvetica,sans-Serif" font-size="10.00">+ StaticClass()</text>
</a>
</g>
</g>
<!-- Node2&#45;&gt;Node1 -->
<g id="edge1" class="edge"><title>Node2&#45;&gt;Node1</title>
<path fill="none" stroke="midnightblue" d="M111.451,-137.08C134.038,-116.04 162.771,-89.2747 185.073,-68.5004"/>
<polygon fill="none" stroke="midnightblue" points="108.977,-134.601 104.045,-143.978 113.748,-139.723 108.977,-134.601"/>
</g>
<!-- Node5 -->
<g id="node3" class="node"><title>Node5</title>
<g id="a_node3"><a xlink:href="a25627.html" target="_top" xlink:title=" ">
<polygon fill="none" stroke="red" points="167.5,-116.5 167.5,-228.5 273.5,-228.5 273.5,-116.5 167.5,-116.5"/>
<text text-anchor="middle" x="220.5" y="-216.5" font-family="Helvetica,sans-Serif" font-size="10.00">SDK::FName</text>
<polyline fill="none" stroke="red" points="167.5,-209.5 273.5,-209.5 "/>
<text text-anchor="middle" x="220.5" y="-197.5" font-family="Helvetica,sans-Serif" font-size="10.00"> </text>
<polyline fill="none" stroke="red" points="167.5,-190.5 273.5,-190.5 "/>
<text text-anchor="start" x="175.5" y="-178.5" font-family="Helvetica,sans-Serif" font-size="10.00">+ FName()</text>
<text text-anchor="start" x="175.5" y="-167.5" font-family="Helvetica,sans-Serif" font-size="10.00">+ FName()</text>
<text text-anchor="start" x="175.5" y="-156.5" font-family="Helvetica,sans-Serif" font-size="10.00">+ FName()</text>
<text text-anchor="start" x="175.5" y="-145.5" font-family="Helvetica,sans-Serif" font-size="10.00">+ GetName()</text>
<text text-anchor="start" x="175.5" y="-134.5" font-family="Helvetica,sans-Serif" font-size="10.00">+ operator==()</text>
<text text-anchor="start" x="175.5" y="-123.5" font-family="Helvetica,sans-Serif" font-size="10.00">+ GetGlobalNames()</text>
</a>
</g>
</g>
<!-- Node5&#45;&gt;Node1 -->
<g id="edge2" class="edge"><title>Node5&#45;&gt;Node1</title>
<path fill="none" stroke="#404040" d="M220.5,-116.184C220.5,-104.429 220.5,-92.1496 220.5,-80.8193"/>
<polygon fill="none" stroke="#404040" points="220.5,-80.5086 216.5,-74.5086 220.5,-68.5086 224.5,-74.5086 220.5,-80.5086"/>
<text text-anchor="middle" x="252.5" y="-90" font-family="Helvetica,sans-Serif" font-size="10.00"> +ParamName</text>
</g>
<!-- Node23 -->
<g id="node4" class="node"><title>Node23</title>
<g id="a_node4"><a xlink:href="a25611.html" target="_top" xlink:title=" ">
<polygon fill="none" stroke="black" points="291.5,-116.5 291.5,-228.5 431.5,-228.5 431.5,-116.5 291.5,-116.5"/>
<text text-anchor="start" x="299.5" y="-216.5" font-family="Helvetica,sans-Serif" font-size="10.00">SDK::TArray&lt; class</text>
<text text-anchor="middle" x="361.5" y="-205.5" font-family="Helvetica,sans-Serif" font-size="10.00"> SDK::UMaterialInterface * &gt;</text>
<polyline fill="none" stroke="black" points="291.5,-198.5 431.5,-198.5 "/>
<text text-anchor="middle" x="361.5" y="-186.5" font-family="Helvetica,sans-Serif" font-size="10.00"> </text>
<polyline fill="none" stroke="black" points="291.5,-179.5 431.5,-179.5 "/>
<text text-anchor="start" x="299.5" y="-167.5" font-family="Helvetica,sans-Serif" font-size="10.00">+ TArray()</text>
<text text-anchor="start" x="299.5" y="-156.5" font-family="Helvetica,sans-Serif" font-size="10.00">+ Num()</text>
<text text-anchor="start" x="299.5" y="-145.5" font-family="Helvetica,sans-Serif" font-size="10.00">+ operator[]()</text>
<text text-anchor="start" x="299.5" y="-134.5" font-family="Helvetica,sans-Serif" font-size="10.00">+ operator[]()</text>
<text text-anchor="start" x="299.5" y="-123.5" font-family="Helvetica,sans-Serif" font-size="10.00">+ IsValidIndex()</text>
</a>
</g>
</g>
<!-- Node23&#45;&gt;Node1 -->
<g id="edge3" class="edge"><title>Node23&#45;&gt;Node1</title>
<path fill="none" stroke="#404040" d="M316.774,-116.308C307.775,-106.206 298.117,-96.0171 288.5,-87 284.628,-83.3692 280.507,-79.7455 276.283,-76.1981"/>
<polygon fill="none" stroke="#404040" points="276.233,-76.1575 269.054,-75.4712 266.927,-68.581 274.105,-69.2673 276.233,-76.1575"/>
<text text-anchor="middle" x="337.5" y="-90" font-family="Helvetica,sans-Serif" font-size="10.00"> +TargetMaterials</text>
</g>
</g>
</svg>
