<?xml version="1.0" encoding="UTF-8" standalone="no"?>
<!DOCTYPE svg PUBLIC "-//W3C//DTD SVG 1.1//EN"
 "http://www.w3.org/Graphics/SVG/1.1/DTD/svg11.dtd">
<!-- Generated by graphviz version 2.38.0 (20140413.2041)
 -->
<!-- Title: SDK::UDistributionFloat Pages: 1 -->
<svg width="219pt" height="266pt"
 viewBox="0.00 0.00 219.00 266.00" xmlns="http://www.w3.org/2000/svg" xmlns:xlink="http://www.w3.org/1999/xlink">
<g id="graph0" class="graph" transform="scale(1 1) rotate(0) translate(4 262)">
<title>SDK::UDistributionFloat</title>
<!-- Node1 -->
<g id="node1" class="node"><title>Node1</title>
<g id="a_node1"><a xlink:title=" ">
<polygon fill="#bfbfbf" stroke="black" points="0,-0.5 0,-57.5 120,-57.5 120,-0.5 0,-0.5"/>
<text text-anchor="middle" x="60" y="-45.5" font-family="Helvetica,sans-Serif" font-size="10.00">SDK::UDistributionFloat</text>
<polyline fill="none" stroke="black" points="0,-38.5 120,-38.5 "/>
<text text-anchor="middle" x="60" y="-26.5" font-family="Helvetica,sans-Serif" font-size="10.00"> </text>
<polyline fill="none" stroke="black" points="0,-19.5 120,-19.5 "/>
<text text-anchor="start" x="8" y="-7.5" font-family="Helvetica,sans-Serif" font-size="10.00">+ StaticClass()</text>
</a>
</g>
</g>
<!-- Node2 -->
<g id="node2" class="node"><title>Node2</title>
<g id="a_node2"><a xlink:href="a28111.html" target="_top" xlink:title=" ">
<polygon fill="none" stroke="red" points="113,-95.5 113,-152.5 211,-152.5 211,-95.5 113,-95.5"/>
<text text-anchor="middle" x="162" y="-140.5" font-family="Helvetica,sans-Serif" font-size="10.00">SDK::UDistribution</text>
<polyline fill="none" stroke="red" points="113,-133.5 211,-133.5 "/>
<text text-anchor="middle" x="162" y="-121.5" font-family="Helvetica,sans-Serif" font-size="10.00"> </text>
<polyline fill="none" stroke="red" points="113,-114.5 211,-114.5 "/>
<text text-anchor="start" x="121" y="-102.5" font-family="Helvetica,sans-Serif" font-size="10.00">+ StaticClass()</text>
</a>
</g>
</g>
<!-- Node2&#45;&gt;Node1 -->
<g id="edge1" class="edge"><title>Node2&#45;&gt;Node1</title>
<path fill="none" stroke="midnightblue" d="M124.139,-88.48C113.01,-78.3324 100.984,-67.3679 90.3865,-57.7053"/>
<polygon fill="none" stroke="midnightblue" points="121.925,-91.1975 131.673,-95.3487 126.641,-86.0248 121.925,-91.1975"/>
</g>
<!-- Node12 -->
<g id="node3" class="node"><title>Node12</title>
<g id="a_node3"><a xlink:title=" ">
<polygon fill="none" stroke="#bfbfbf" points="44.5,-200.5 44.5,-257.5 79.5,-257.5 79.5,-200.5 44.5,-200.5"/>
<text text-anchor="middle" x="62" y="-245.5" font-family="Helvetica,sans-Serif" font-size="10.00">char</text>
<polyline fill="none" stroke="#bfbfbf" points="44.5,-238.5 79.5,-238.5 "/>
<text text-anchor="middle" x="62" y="-226.5" font-family="Helvetica,sans-Serif" font-size="10.00"> </text>
<polyline fill="none" stroke="#bfbfbf" points="44.5,-219.5 79.5,-219.5 "/>
<text text-anchor="middle" x="62" y="-207.5" font-family="Helvetica,sans-Serif" font-size="10.00"> </text>
</a>
</g>
</g>
<!-- Node12&#45;&gt;Node1 -->
<g id="edge3" class="edge"><title>Node12&#45;&gt;Node1</title>
<path fill="none" stroke="#404040" d="M45.4701,-200.194C38.2647,-186.489 30.6411,-169.413 27,-153 21.417,-127.834 21.0006,-120.07 27,-95 29.1504,-86.014 32.7582,-76.8669 36.8173,-68.3813"/>
<polygon fill="none" stroke="#404040" points="36.8357,-68.3455 36.0258,-61.18 42.3286,-57.6765 43.1385,-64.842 36.8357,-68.3455"/>
<text text-anchor="middle" x="65.5" y="-127" font-family="Helvetica,sans-Serif" font-size="10.00"> +bCanBeBaked</text>
<text text-anchor="middle" x="65.5" y="-116" font-family="Helvetica,sans-Serif" font-size="10.00">+UnknownData00</text>
</g>
<!-- Node12&#45;&gt;Node2 -->
<g id="edge2" class="edge"><title>Node12&#45;&gt;Node2</title>
<path fill="none" stroke="#404040" d="M79.878,-209.586C92.8658,-196.208 110.868,-177.666 126.709,-161.35"/>
<polygon fill="none" stroke="#404040" points="126.882,-161.172 128.191,-154.08 135.241,-152.562 133.931,-159.653 126.882,-161.172"/>
<text text-anchor="middle" x="154" y="-174" font-family="Helvetica,sans-Serif" font-size="10.00"> +UnknownData00</text>
</g>
</g>
</svg>
