<?xml version="1.0" encoding="UTF-8" standalone="no"?>
<!DOCTYPE svg PUBLIC "-//W3C//DTD SVG 1.1//EN"
 "http://www.w3.org/Graphics/SVG/1.1/DTD/svg11.dtd">
<!-- Generated by graphviz version 2.38.0 (20140413.2041)
 -->
<!-- Title: SDK::UInterpTrackVectorBase Pages: 1 -->
<!--zoomable 496 -->
<svg id="main" version="1.1" xmlns="http://www.w3.org/2000/svg" xmlns:xlink="http://www.w3.org/1999/xlink" xml:space="preserve" onload="init(evt)">
<style type="text/css"><![CDATA[
.edge:hover path { stroke: red; }
.edge:hover polygon { stroke: red; fill: red; }
]]></style>
<script type="text/javascript"><![CDATA[
var edges = document.getElementsByTagName('g');
if (edges && edges.length) {
  for (var i=0;i<edges.length;i++) {
    if (edges[i].id.substr(0,4)=='edge') {
      edges[i].setAttribute('class','edge');
    }
  }
}
]]></script>
        <defs>
                <circle id="rim" cx="0" cy="0" r="7"/>
                <circle id="rim2" cx="0" cy="0" r="3.5"/>
                <g id="zoomPlus">
                        <use xlink:href="#rim" fill="#404040">
                                <set attributeName="fill" to="#808080" begin="zoomplus.mouseover" end="zoomplus.mouseout"/>
                        </use>
                        <path d="M-4,0h8M0,-4v8" fill="none" stroke="white" stroke-width="1.5" pointer-events="none"/>
                </g>
                <g id="zoomMin">
                        <use xlink:href="#rim" fill="#404040">
                                <set attributeName="fill" to="#808080" begin="zoomminus.mouseover" end="zoomminus.mouseout"/>
                        </use>
                        <path d="M-4,0h8" fill="none" stroke="white" stroke-width="1.5" pointer-events="none"/>
                </g>
                <g id="dirArrow">
                        <path fill="none" stroke="white" stroke-width="1.5" d="M0,-3.0v7 M-2.5,-0.5L0,-3.0L2.5,-0.5"/>
                </g>
               <g id="resetDef">
                       <use xlink:href="#rim2" fill="#404040">
                               <set attributeName="fill" to="#808080" begin="reset.mouseover" end="reset.mouseout"/>
                       </use>
               </g>
        </defs>

<script type="text/javascript">
var viewWidth = 1004;
var viewHeight = 496;
var sectionId = 'dynsection-0';
</script>
<script xlink:href="svgpan.js"/>
<svg id="graph" class="graph">
<g id="viewport">
<title>SDK::UInterpTrackVectorBase</title>
<!-- Node1 -->
<g id="node1" class="node"><title>Node1</title>
<g id="a_node1"><a xlink:title=" ">
<polygon fill="#bfbfbf" stroke="black" points="411.5,-160.5 411.5,-239.5 560.5,-239.5 560.5,-160.5 411.5,-160.5"/>
<text text-anchor="middle" x="486" y="-227.5" font-family="Helvetica,sans-Serif" font-size="10.00">SDK::UInterpTrackVectorBase</text>
<polyline fill="none" stroke="black" points="411.5,-220.5 560.5,-220.5 "/>
<text text-anchor="start" x="419.5" y="-208.5" font-family="Helvetica,sans-Serif" font-size="10.00">+ VectorTrack</text>
<text text-anchor="start" x="419.5" y="-197.5" font-family="Helvetica,sans-Serif" font-size="10.00">+ CurveTension</text>
<text text-anchor="start" x="419.5" y="-186.5" font-family="Helvetica,sans-Serif" font-size="10.00">+ UnknownData00</text>
<polyline fill="none" stroke="black" points="411.5,-179.5 560.5,-179.5 "/>
<text text-anchor="start" x="419.5" y="-167.5" font-family="Helvetica,sans-Serif" font-size="10.00">+ StaticClass()</text>
</a>
</g>
</g>
<!-- Node4 -->
<g id="node3" class="node"><title>Node4</title>
<g id="a_node3"><a xlink:href="a28179.html" target="_top" xlink:title=" ">
<polygon fill="none" stroke="black" points="0,-33.5 0,-90.5 152,-90.5 152,-33.5 0,-33.5"/>
<text text-anchor="middle" x="76" y="-78.5" font-family="Helvetica,sans-Serif" font-size="10.00">SDK::UInterpTrackAudioMaster</text>
<polyline fill="none" stroke="black" points="0,-71.5 152,-71.5 "/>
<text text-anchor="middle" x="76" y="-59.5" font-family="Helvetica,sans-Serif" font-size="10.00"> </text>
<polyline fill="none" stroke="black" points="0,-52.5 152,-52.5 "/>
<text text-anchor="start" x="8" y="-40.5" font-family="Helvetica,sans-Serif" font-size="10.00">+ StaticClass()</text>
</a>
</g>
</g>
<!-- Node1&#45;&gt;Node4 -->
<g id="edge2" class="edge"><title>Node1&#45;&gt;Node4</title>
<path fill="none" stroke="midnightblue" d="M401.212,-188.802C333.844,-178.519 238.414,-159.002 161,-124 142.132,-115.469 123.213,-102.44 108.029,-90.6096"/>
<polygon fill="none" stroke="midnightblue" points="400.952,-192.302 411.359,-190.314 401.984,-185.379 400.952,-192.302"/>
</g>
<!-- Node5 -->
<g id="node4" class="node"><title>Node5</title>
<g id="a_node4"><a xlink:href="a28183.html" target="_top" xlink:title=" ">
<polygon fill="none" stroke="black" points="170,-33.5 170,-90.5 310,-90.5 310,-33.5 170,-33.5"/>
<text text-anchor="middle" x="240" y="-78.5" font-family="Helvetica,sans-Serif" font-size="10.00">SDK::UInterpTrackColorProp</text>
<polyline fill="none" stroke="black" points="170,-71.5 310,-71.5 "/>
<text text-anchor="start" x="178" y="-59.5" font-family="Helvetica,sans-Serif" font-size="10.00">+ PropertyName</text>
<polyline fill="none" stroke="black" points="170,-52.5 310,-52.5 "/>
<text text-anchor="start" x="178" y="-40.5" font-family="Helvetica,sans-Serif" font-size="10.00">+ StaticClass()</text>
</a>
</g>
</g>
<!-- Node1&#45;&gt;Node5 -->
<g id="edge3" class="edge"><title>Node1&#45;&gt;Node5</title>
<path fill="none" stroke="midnightblue" d="M401.885,-165.834C374.742,-153.929 344.973,-139.563 319,-124 302.798,-114.292 286.071,-101.792 272.204,-90.6383"/>
<polygon fill="none" stroke="midnightblue" points="400.799,-169.177 411.366,-169.94 403.581,-162.754 400.799,-169.177"/>
</g>
<!-- Node6 -->
<g id="node5" class="node"><title>Node6</title>
<g id="a_node5"><a xlink:href="a28187.html" target="_top" xlink:title=" ">
<polygon fill="none" stroke="black" points="328.5,-33.5 328.5,-90.5 473.5,-90.5 473.5,-33.5 328.5,-33.5"/>
<text text-anchor="middle" x="401" y="-78.5" font-family="Helvetica,sans-Serif" font-size="10.00">SDK::UInterpTrackColorScale</text>
<polyline fill="none" stroke="black" points="328.5,-71.5 473.5,-71.5 "/>
<text text-anchor="middle" x="401" y="-59.5" font-family="Helvetica,sans-Serif" font-size="10.00"> </text>
<polyline fill="none" stroke="black" points="328.5,-52.5 473.5,-52.5 "/>
<text text-anchor="start" x="336.5" y="-40.5" font-family="Helvetica,sans-Serif" font-size="10.00">+ StaticClass()</text>
</a>
</g>
</g>
<!-- Node1&#45;&gt;Node6 -->
<g id="edge4" class="edge"><title>Node1&#45;&gt;Node6</title>
<path fill="none" stroke="midnightblue" d="M456.544,-151.87C443.835,-131.535 429.402,-108.444 418.435,-90.8961"/>
<polygon fill="none" stroke="midnightblue" points="453.602,-153.767 461.87,-160.392 459.538,-150.057 453.602,-153.767"/>
</g>
<!-- Node7 -->
<g id="node6" class="node"><title>Node7</title>
<g id="a_node6"><a xlink:href="a28191.html" target="_top" xlink:title=" ">
<polygon fill="none" stroke="black" points="491.5,-0.5 491.5,-123.5 652.5,-123.5 652.5,-0.5 491.5,-0.5"/>
<text text-anchor="middle" x="572" y="-111.5" font-family="Helvetica,sans-Serif" font-size="10.00">SDK::UInterpTrackSound</text>
<polyline fill="none" stroke="black" points="491.5,-104.5 652.5,-104.5 "/>
<text text-anchor="start" x="499.5" y="-92.5" font-family="Helvetica,sans-Serif" font-size="10.00">+ Sounds</text>
<text text-anchor="start" x="499.5" y="-81.5" font-family="Helvetica,sans-Serif" font-size="10.00">+ bPlayOnReverse</text>
<text text-anchor="start" x="499.5" y="-70.5" font-family="Helvetica,sans-Serif" font-size="10.00">+ bContinueSoundOnMatineeEnd</text>
<text text-anchor="start" x="499.5" y="-59.5" font-family="Helvetica,sans-Serif" font-size="10.00">+ bSuppressSubtitles</text>
<text text-anchor="start" x="499.5" y="-48.5" font-family="Helvetica,sans-Serif" font-size="10.00">+ bTreatAsDialogue</text>
<text text-anchor="start" x="499.5" y="-37.5" font-family="Helvetica,sans-Serif" font-size="10.00">+ bAttach</text>
<text text-anchor="start" x="499.5" y="-26.5" font-family="Helvetica,sans-Serif" font-size="10.00">+ UnknownData00</text>
<polyline fill="none" stroke="black" points="491.5,-19.5 652.5,-19.5 "/>
<text text-anchor="start" x="499.5" y="-7.5" font-family="Helvetica,sans-Serif" font-size="10.00">+ StaticClass()</text>
</a>
</g>
</g>
<!-- Node1&#45;&gt;Node7 -->
<g id="edge5" class="edge"><title>Node1&#45;&gt;Node7</title>
<path fill="none" stroke="midnightblue" d="M515.82,-151.843C521.586,-142.724 527.703,-133.051 533.696,-123.574"/>
<polygon fill="none" stroke="midnightblue" points="512.801,-150.069 510.414,-160.392 518.717,-153.81 512.801,-150.069"/>
</g>
<!-- Node8 -->
<g id="node7" class="node"><title>Node8</title>
<g id="a_node7"><a xlink:href="a28195.html" target="_top" xlink:title=" ">
<polygon fill="none" stroke="black" points="670.5,-22.5 670.5,-101.5 831.5,-101.5 831.5,-22.5 670.5,-22.5"/>
<text text-anchor="start" x="678.5" y="-89.5" font-family="Helvetica,sans-Serif" font-size="10.00">SDK::UInterpTrackVectorMaterial</text>
<text text-anchor="middle" x="751" y="-78.5" font-family="Helvetica,sans-Serif" font-size="10.00">Param</text>
<polyline fill="none" stroke="black" points="670.5,-71.5 831.5,-71.5 "/>
<text text-anchor="start" x="678.5" y="-59.5" font-family="Helvetica,sans-Serif" font-size="10.00">+ TargetMaterials</text>
<text text-anchor="start" x="678.5" y="-48.5" font-family="Helvetica,sans-Serif" font-size="10.00">+ ParamName</text>
<polyline fill="none" stroke="black" points="670.5,-41.5 831.5,-41.5 "/>
<text text-anchor="start" x="678.5" y="-29.5" font-family="Helvetica,sans-Serif" font-size="10.00">+ StaticClass()</text>
</a>
</g>
</g>
<!-- Node1&#45;&gt;Node8 -->
<g id="edge6" class="edge"><title>Node1&#45;&gt;Node8</title>
<path fill="none" stroke="midnightblue" d="M570.235,-167.083C599.849,-154.83 632.966,-139.931 662,-124 674.153,-117.332 686.716,-109.422 698.438,-101.545"/>
<polygon fill="none" stroke="midnightblue" points="568.68,-163.938 560.752,-170.967 571.333,-170.416 568.68,-163.938"/>
</g>
<!-- Node9 -->
<g id="node8" class="node"><title>Node9</title>
<g id="a_node8"><a xlink:href="a28199.html" target="_top" xlink:title=" ">
<polygon fill="none" stroke="black" points="850,-33.5 850,-90.5 996,-90.5 996,-33.5 850,-33.5"/>
<text text-anchor="middle" x="923" y="-78.5" font-family="Helvetica,sans-Serif" font-size="10.00">SDK::UInterpTrackVectorProp</text>
<polyline fill="none" stroke="black" points="850,-71.5 996,-71.5 "/>
<text text-anchor="start" x="858" y="-59.5" font-family="Helvetica,sans-Serif" font-size="10.00">+ PropertyName</text>
<polyline fill="none" stroke="black" points="850,-52.5 996,-52.5 "/>
<text text-anchor="start" x="858" y="-40.5" font-family="Helvetica,sans-Serif" font-size="10.00">+ StaticClass()</text>
</a>
</g>
</g>
<!-- Node1&#45;&gt;Node9 -->
<g id="edge7" class="edge"><title>Node1&#45;&gt;Node9</title>
<path fill="none" stroke="midnightblue" d="M570.812,-191.439C644.801,-182.463 753.671,-163.408 841,-124 859.437,-115.68 877.714,-102.674 892.318,-90.8045"/>
<polygon fill="none" stroke="midnightblue" points="570.131,-187.995 560.609,-192.64 570.95,-194.947 570.131,-187.995"/>
</g>
<!-- Node2 -->
<g id="node2" class="node"><title>Node2</title>
<g id="a_node2"><a xlink:href="a28107.html" target="_top" xlink:title=" ">
<polygon fill="none" stroke="red" points="428,-276.5 428,-487.5 544,-487.5 544,-276.5 428,-276.5"/>
<text text-anchor="middle" x="486" y="-475.5" font-family="Helvetica,sans-Serif" font-size="10.00">SDK::UInterpTrack</text>
<polyline fill="none" stroke="red" points="428,-468.5 544,-468.5 "/>
<text text-anchor="start" x="436" y="-456.5" font-family="Helvetica,sans-Serif" font-size="10.00">+ UnknownData00</text>
<text text-anchor="start" x="436" y="-445.5" font-family="Helvetica,sans-Serif" font-size="10.00">+ SubTracks</text>
<text text-anchor="start" x="436" y="-434.5" font-family="Helvetica,sans-Serif" font-size="10.00">+ TrackInstClass</text>
<text text-anchor="start" x="436" y="-423.5" font-family="Helvetica,sans-Serif" font-size="10.00">+ ActiveCondition</text>
<text text-anchor="start" x="436" y="-412.5" font-family="Helvetica,sans-Serif" font-size="10.00">+ UnknownData01</text>
<text text-anchor="start" x="436" y="-401.5" font-family="Helvetica,sans-Serif" font-size="10.00">+ TrackTitle</text>
<text text-anchor="start" x="436" y="-390.5" font-family="Helvetica,sans-Serif" font-size="10.00">+ bOnePerGroup</text>
<text text-anchor="start" x="436" y="-379.5" font-family="Helvetica,sans-Serif" font-size="10.00">+ bDirGroupOnly</text>
<text text-anchor="start" x="436" y="-368.5" font-family="Helvetica,sans-Serif" font-size="10.00">+ bDisableTrack</text>
<text text-anchor="start" x="436" y="-357.5" font-family="Helvetica,sans-Serif" font-size="10.00">+ bIsSelected</text>
<text text-anchor="start" x="436" y="-346.5" font-family="Helvetica,sans-Serif" font-size="10.00">+ bIsAnimControlTrack</text>
<text text-anchor="start" x="436" y="-335.5" font-family="Helvetica,sans-Serif" font-size="10.00">+ bSubTrackOnly</text>
<text text-anchor="start" x="436" y="-324.5" font-family="Helvetica,sans-Serif" font-size="10.00">+ bVisible</text>
<text text-anchor="start" x="436" y="-313.5" font-family="Helvetica,sans-Serif" font-size="10.00">+ bIsRecording</text>
<text text-anchor="start" x="436" y="-302.5" font-family="Helvetica,sans-Serif" font-size="10.00">+ UnknownData02</text>
<polyline fill="none" stroke="red" points="428,-295.5 544,-295.5 "/>
<text text-anchor="start" x="436" y="-283.5" font-family="Helvetica,sans-Serif" font-size="10.00">+ StaticClass()</text>
</a>
</g>
</g>
<!-- Node2&#45;&gt;Node1 -->
<g id="edge1" class="edge"><title>Node2&#45;&gt;Node1</title>
<path fill="none" stroke="midnightblue" d="M486,-266.049C486,-256.729 486,-247.797 486,-239.697"/>
<polygon fill="none" stroke="midnightblue" points="482.5,-266.293 486,-276.293 489.5,-266.293 482.5,-266.293"/>
</g>
</g>
</svg>
        <g id="navigator" transform="translate(0 0)" fill="#404254">
                <rect fill="#f2f5e9" fill-opacity="0.5" stroke="#606060" stroke-width=".5" x="0" y="0" width="60" height="60"/>
                <use id="zoomplus" xlink:href="#zoomPlus" x="17" y="9" onmousedown="handleZoom(evt,'in')"/>
                <use id="zoomminus" xlink:href="#zoomMin" x="42" y="9" onmousedown="handleZoom(evt,'out')"/>
                <use id="reset" xlink:href="#resetDef" x="30" y="36" onmousedown="handleReset()"/>
                <g id="arrowUp" xlink:href="#dirArrow" transform="translate(30 24)" onmousedown="handlePan(0,-1)">
                  <use xlink:href="#rim" fill="#404040">
                        <set attributeName="fill" to="#808080" begin="arrowUp.mouseover" end="arrowUp.mouseout"/>
                  </use>
                  <path fill="none" stroke="white" stroke-width="1.5" d="M0,-3.0v7 M-2.5,-0.5L0,-3.0L2.5,-0.5"/>
                </g>
                <g id="arrowRight" xlink:href="#dirArrow" transform="rotate(90) translate(36 -43)" onmousedown="handlePan(1,0)">
                  <use xlink:href="#rim" fill="#404040">
                        <set attributeName="fill" to="#808080" begin="arrowRight.mouseover" end="arrowRight.mouseout"/>
                  </use>
                  <path fill="none" stroke="white" stroke-width="1.5" d="M0,-3.0v7 M-2.5,-0.5L0,-3.0L2.5,-0.5"/>
                </g>
                <g id="arrowDown" xlink:href="#dirArrow" transform="rotate(180) translate(-30 -48)" onmousedown="handlePan(0,1)">
                  <use xlink:href="#rim" fill="#404040">
                        <set attributeName="fill" to="#808080" begin="arrowDown.mouseover" end="arrowDown.mouseout"/>
                  </use>
                  <path fill="none" stroke="white" stroke-width="1.5" d="M0,-3.0v7 M-2.5,-0.5L0,-3.0L2.5,-0.5"/>
                </g>
                <g id="arrowLeft" xlink:href="#dirArrow" transform="rotate(270) translate(-36 17)" onmousedown="handlePan(-1,0)">
                  <use xlink:href="#rim" fill="#404040">
                        <set attributeName="fill" to="#808080" begin="arrowLeft.mouseover" end="arrowLeft.mouseout"/>
                  </use>
                  <path fill="none" stroke="white" stroke-width="1.5" d="M0,-3.0v7 M-2.5,-0.5L0,-3.0L2.5,-0.5"/>
                </g>
        </g>
        <svg viewBox="0 0 15 15" width="100%" height="30px" preserveAspectRatio="xMaxYMin meet">
         <g id="arrow_out" transform="scale(0.3 0.3)">
          <a xlink:href="a28174_org.svg" target="_base">
           <rect id="button" ry="5" rx="5" y="6" x="6" height="38" width="38"
                fill="#f2f5e9" fill-opacity="0.5" stroke="#606060" stroke-width="1.0"/>
           <path id="arrow"
             d="M 11.500037,31.436501 C 11.940474,20.09759 22.043105,11.32322 32.158766,21.979434 L 37.068811,17.246167 C 37.068811,17.246167 37.088388,32 37.088388,32 L 22.160133,31.978069 C 22.160133,31.978069 26.997745,27.140456 26.997745,27.140456 C 18.528582,18.264221 13.291696,25.230495 11.500037,31.436501 z"
             style="fill:#404040;"/>
          </a>
         </g>
        </svg>
</svg>
