<?xml version="1.0" encoding="UTF-8" standalone="no"?>
<!DOCTYPE svg PUBLIC "-//W3C//DTD SVG 1.1//EN"
 "http://www.w3.org/Graphics/SVG/1.1/DTD/svg11.dtd">
<!-- Generated by graphviz version 2.38.0 (20140413.2041)
 -->
<!-- Title: SDK::UInterpTrackEvent Pages: 1 -->
<svg width="443pt" height="441pt"
 viewBox="0.00 0.00 443.01 441.00" xmlns="http://www.w3.org/2000/svg" xmlns:xlink="http://www.w3.org/1999/xlink">
<g id="graph0" class="graph" transform="scale(1 1) rotate(0) translate(4 437)">
<title>SDK::UInterpTrackEvent</title>
<!-- Node1 -->
<g id="node1" class="node"><title>Node1</title>
<g id="a_node1"><a xlink:title=" ">
<polygon fill="#bfbfbf" stroke="black" points="181.011,-0.5 181.011,-57.5 303.011,-57.5 303.011,-0.5 181.011,-0.5"/>
<text text-anchor="middle" x="242.011" y="-45.5" font-family="Helvetica,sans-Serif" font-size="10.00">SDK::UInterpTrackEvent</text>
<polyline fill="none" stroke="black" points="181.011,-38.5 303.011,-38.5 "/>
<text text-anchor="middle" x="242.011" y="-26.5" font-family="Helvetica,sans-Serif" font-size="10.00"> </text>
<polyline fill="none" stroke="black" points="181.011,-19.5 303.011,-19.5 "/>
<text text-anchor="start" x="189.011" y="-7.5" font-family="Helvetica,sans-Serif" font-size="10.00">+ StaticClass()</text>
</a>
</g>
</g>
<!-- Node2 -->
<g id="node2" class="node"><title>Node2</title>
<g id="a_node2"><a xlink:href="a28315.html" target="_top" xlink:title=" ">
<polygon fill="none" stroke="red" points="193.011,-133 193.011,-190 291.011,-190 291.011,-133 193.011,-133"/>
<text text-anchor="middle" x="242.011" y="-178" font-family="Helvetica,sans-Serif" font-size="10.00">SDK::UInterpTrack</text>
<polyline fill="none" stroke="red" points="193.011,-171 291.011,-171 "/>
<text text-anchor="start" x="201.011" y="-159" font-family="Helvetica,sans-Serif" font-size="10.00">+ UnknownData00</text>
<polyline fill="none" stroke="red" points="193.011,-152 291.011,-152 "/>
<text text-anchor="start" x="201.011" y="-140" font-family="Helvetica,sans-Serif" font-size="10.00">+ StaticClass()</text>
</a>
</g>
</g>
<!-- Node2&#45;&gt;Node1 -->
<g id="edge1" class="edge"><title>Node2&#45;&gt;Node1</title>
<path fill="none" stroke="midnightblue" d="M242.011,-122.726C242.011,-101.927 242.011,-76.5723 242.011,-57.6358"/>
<polygon fill="none" stroke="midnightblue" points="238.511,-122.824 242.011,-132.824 245.511,-122.824 238.511,-122.824"/>
</g>
<!-- Node12 -->
<g id="node3" class="node"><title>Node12</title>
<g id="a_node3"><a xlink:title=" ">
<polygon fill="none" stroke="#bfbfbf" points="62.511,-375.5 62.511,-432.5 97.511,-432.5 97.511,-375.5 62.511,-375.5"/>
<text text-anchor="middle" x="80.011" y="-420.5" font-family="Helvetica,sans-Serif" font-size="10.00">char</text>
<polyline fill="none" stroke="#bfbfbf" points="62.511,-413.5 97.511,-413.5 "/>
<text text-anchor="middle" x="80.011" y="-401.5" font-family="Helvetica,sans-Serif" font-size="10.00"> </text>
<polyline fill="none" stroke="#bfbfbf" points="62.511,-394.5 97.511,-394.5 "/>
<text text-anchor="middle" x="80.011" y="-382.5" font-family="Helvetica,sans-Serif" font-size="10.00"> </text>
</a>
</g>
</g>
<!-- Node12&#45;&gt;Node1 -->
<g id="edge4" class="edge"><title>Node12&#45;&gt;Node1</title>
<path fill="none" stroke="#404040" d="M62.5037,-375.404C29.2053,-319.049 -34.8198,-188.982 25.011,-105 57.4347,-59.488 119.422,-41.331 168.871,-34.2172"/>
<polygon fill="none" stroke="#404040" points="168.922,-34.2107 174.36,-29.4751 180.823,-32.6736 175.385,-37.4092 168.922,-34.2107"/>
<text text-anchor="middle" x="104.511" y="-181" font-family="Helvetica,sans-Serif" font-size="10.00"> +bUseCustomEventName</text>
<text text-anchor="middle" x="104.511" y="-170" font-family="Helvetica,sans-Serif" font-size="10.00">+bFireEventsWhenForwards</text>
<text text-anchor="middle" x="104.511" y="-159" font-family="Helvetica,sans-Serif" font-size="10.00">+bFireEventsWhenJumpingForwards</text>
<text text-anchor="middle" x="104.511" y="-148" font-family="Helvetica,sans-Serif" font-size="10.00">+bFireEventsWhenBackwards</text>
<text text-anchor="middle" x="104.511" y="-137" font-family="Helvetica,sans-Serif" font-size="10.00">+UnknownData00</text>
</g>
<!-- Node12&#45;&gt;Node2 -->
<g id="edge2" class="edge"><title>Node12&#45;&gt;Node2</title>
<path fill="none" stroke="#404040" d="M97.6563,-376.804C126.383,-334.158 183.373,-249.552 216.506,-200.365"/>
<polygon fill="none" stroke="#404040" points="216.689,-200.092 216.723,-192.881 223.393,-190.14 223.358,-197.351 216.689,-200.092"/>
<text text-anchor="middle" x="238.511" y="-349" font-family="Helvetica,sans-Serif" font-size="10.00"> +bIsRecording</text>
<text text-anchor="middle" x="238.511" y="-338" font-family="Helvetica,sans-Serif" font-size="10.00">+bIsAnimControlTrack</text>
<text text-anchor="middle" x="238.511" y="-327" font-family="Helvetica,sans-Serif" font-size="10.00">+UnknownData01</text>
<text text-anchor="middle" x="238.511" y="-316" font-family="Helvetica,sans-Serif" font-size="10.00">+UnknownData02</text>
<text text-anchor="middle" x="238.511" y="-305" font-family="Helvetica,sans-Serif" font-size="10.00">+bVisible</text>
<text text-anchor="middle" x="238.511" y="-294" font-family="Helvetica,sans-Serif" font-size="10.00">+bDirGroupOnly</text>
<text text-anchor="middle" x="238.511" y="-283" font-family="Helvetica,sans-Serif" font-size="10.00">+bDisableTrack</text>
<text text-anchor="middle" x="238.511" y="-272" font-family="Helvetica,sans-Serif" font-size="10.00">+bOnePerGroup</text>
<text text-anchor="middle" x="238.511" y="-261" font-family="Helvetica,sans-Serif" font-size="10.00">+bSubTrackOnly</text>
<text text-anchor="middle" x="238.511" y="-250" font-family="Helvetica,sans-Serif" font-size="10.00">+bIsSelected</text>
<text text-anchor="middle" x="238.511" y="-239" font-family="Helvetica,sans-Serif" font-size="10.00">...</text>
</g>
<!-- Node18 -->
<g id="node4" class="node"><title>Node18</title>
<g id="a_node4"><a xlink:href="a25823.html" target="_top" xlink:title=" ">
<polygon fill="none" stroke="black" points="309.011,-105.5 309.011,-217.5 435.011,-217.5 435.011,-105.5 309.011,-105.5"/>
<text text-anchor="start" x="317.011" y="-205.5" font-family="Helvetica,sans-Serif" font-size="10.00">SDK::TArray&lt; struct</text>
<text text-anchor="middle" x="372.011" y="-194.5" font-family="Helvetica,sans-Serif" font-size="10.00"> SDK::FEventTrackKey &gt;</text>
<polyline fill="none" stroke="black" points="309.011,-187.5 435.011,-187.5 "/>
<text text-anchor="middle" x="372.011" y="-175.5" font-family="Helvetica,sans-Serif" font-size="10.00"> </text>
<polyline fill="none" stroke="black" points="309.011,-168.5 435.011,-168.5 "/>
<text text-anchor="start" x="317.011" y="-156.5" font-family="Helvetica,sans-Serif" font-size="10.00">+ TArray()</text>
<text text-anchor="start" x="317.011" y="-145.5" font-family="Helvetica,sans-Serif" font-size="10.00">+ Num()</text>
<text text-anchor="start" x="317.011" y="-134.5" font-family="Helvetica,sans-Serif" font-size="10.00">+ operator[]()</text>
<text text-anchor="start" x="317.011" y="-123.5" font-family="Helvetica,sans-Serif" font-size="10.00">+ operator[]()</text>
<text text-anchor="start" x="317.011" y="-112.5" font-family="Helvetica,sans-Serif" font-size="10.00">+ IsValidIndex()</text>
</a>
</g>
</g>
<!-- Node18&#45;&gt;Node1 -->
<g id="edge3" class="edge"><title>Node18&#45;&gt;Node1</title>
<path fill="none" stroke="#404040" d="M316.879,-105.156C303.865,-92.0919 290.31,-78.485 278.368,-66.4968"/>
<polygon fill="none" stroke="#404040" points="278.055,-66.1823 270.986,-64.7545 269.586,-57.6807 276.654,-59.1085 278.055,-66.1823"/>
<text text-anchor="middle" x="325.011" y="-79" font-family="Helvetica,sans-Serif" font-size="10.00"> +EventTrack</text>
</g>
</g>
</svg>
