<?xml version="1.0" encoding="UTF-8" standalone="no"?>
<!DOCTYPE svg PUBLIC "-//W3C//DTD SVG 1.1//EN"
 "http://www.w3.org/Graphics/SVG/1.1/DTD/svg11.dtd">
<!-- Generated by graphviz version 2.38.0 (20140413.2041)
 -->
<!-- Title: SDK::UInterpTrackFloatMaterialParam Pages: 1 -->
<svg width="162pt" height="204pt"
 viewBox="0.00 0.00 162.00 204.00" xmlns="http://www.w3.org/2000/svg" xmlns:xlink="http://www.w3.org/1999/xlink">
<g id="graph0" class="graph" transform="scale(1 1) rotate(0) translate(4 200)">
<title>SDK::UInterpTrackFloatMaterialParam</title>
<!-- Node1 -->
<g id="node1" class="node"><title>Node1</title>
<g id="a_node1"><a xlink:title=" ">
<polygon fill="#bfbfbf" stroke="black" points="0,-0.5 0,-79.5 154,-79.5 154,-0.5 0,-0.5"/>
<text text-anchor="start" x="8" y="-67.5" font-family="Helvetica,sans-Serif" font-size="10.00">SDK::UInterpTrackFloatMaterial</text>
<text text-anchor="middle" x="77" y="-56.5" font-family="Helvetica,sans-Serif" font-size="10.00">Param</text>
<polyline fill="none" stroke="black" points="0,-49.5 154,-49.5 "/>
<text text-anchor="start" x="8" y="-37.5" font-family="Helvetica,sans-Serif" font-size="10.00">+ TargetMaterials</text>
<text text-anchor="start" x="8" y="-26.5" font-family="Helvetica,sans-Serif" font-size="10.00">+ ParamName</text>
<polyline fill="none" stroke="black" points="0,-19.5 154,-19.5 "/>
<text text-anchor="start" x="8" y="-7.5" font-family="Helvetica,sans-Serif" font-size="10.00">+ StaticClass()</text>
</a>
</g>
</g>
<!-- Node2 -->
<g id="node2" class="node"><title>Node2</title>
<g id="a_node2"><a xlink:href="a28331.html" target="_top" xlink:title=" ">
<polygon fill="none" stroke="red" points="6,-116.5 6,-195.5 148,-195.5 148,-116.5 6,-116.5"/>
<text text-anchor="middle" x="77" y="-183.5" font-family="Helvetica,sans-Serif" font-size="10.00">SDK::UInterpTrackFloatBase</text>
<polyline fill="none" stroke="red" points="6,-176.5 148,-176.5 "/>
<text text-anchor="start" x="14" y="-164.5" font-family="Helvetica,sans-Serif" font-size="10.00">+ FloatTrack</text>
<text text-anchor="start" x="14" y="-153.5" font-family="Helvetica,sans-Serif" font-size="10.00">+ CurveTension</text>
<text text-anchor="start" x="14" y="-142.5" font-family="Helvetica,sans-Serif" font-size="10.00">+ UnknownData00</text>
<polyline fill="none" stroke="red" points="6,-135.5 148,-135.5 "/>
<text text-anchor="start" x="14" y="-123.5" font-family="Helvetica,sans-Serif" font-size="10.00">+ StaticClass()</text>
</a>
</g>
</g>
<!-- Node2&#45;&gt;Node1 -->
<g id="edge1" class="edge"><title>Node2&#45;&gt;Node1</title>
<path fill="none" stroke="midnightblue" d="M77,-106.146C77,-97.256 77,-88.0961 77,-79.5555"/>
<polygon fill="none" stroke="midnightblue" points="73.5001,-106.405 77,-116.405 80.5001,-106.405 73.5001,-106.405"/>
</g>
</g>
</svg>
