<?xml version="1.0" encoding="UTF-8" standalone="no"?>
<!DOCTYPE svg PUBLIC "-//W3C//DTD SVG 1.1//EN"
 "http://www.w3.org/Graphics/SVG/1.1/DTD/svg11.dtd">
<!-- Generated by graphviz version 2.38.0 (20140413.2041)
 -->
<!-- Title: SDK::UInterpTrackInstBoolProp Pages: 1 -->
<svg width="452pt" height="276pt"
 viewBox="0.00 0.00 451.50 276.00" xmlns="http://www.w3.org/2000/svg" xmlns:xlink="http://www.w3.org/1999/xlink">
<g id="graph0" class="graph" transform="scale(1 1) rotate(0) translate(4 272)">
<title>SDK::UInterpTrackInstBoolProp</title>
<!-- Node1 -->
<g id="node1" class="node"><title>Node1</title>
<g id="a_node1"><a xlink:title=" ">
<polygon fill="#bfbfbf" stroke="black" points="155.5,-0.5 155.5,-57.5 308.5,-57.5 308.5,-0.5 155.5,-0.5"/>
<text text-anchor="middle" x="232" y="-45.5" font-family="Helvetica,sans-Serif" font-size="10.00">SDK::UInterpTrackInstBoolProp</text>
<polyline fill="none" stroke="black" points="155.5,-38.5 308.5,-38.5 "/>
<text text-anchor="middle" x="232" y="-26.5" font-family="Helvetica,sans-Serif" font-size="10.00"> </text>
<polyline fill="none" stroke="black" points="155.5,-19.5 308.5,-19.5 "/>
<text text-anchor="start" x="163.5" y="-7.5" font-family="Helvetica,sans-Serif" font-size="10.00">+ StaticClass()</text>
</a>
</g>
</g>
<!-- Node2 -->
<g id="node2" class="node"><title>Node2</title>
<g id="a_node2"><a xlink:href="a28463.html" target="_top" xlink:title=" ">
<polygon fill="none" stroke="red" points="0,-105.5 0,-162.5 150,-162.5 150,-105.5 0,-105.5"/>
<text text-anchor="middle" x="75" y="-150.5" font-family="Helvetica,sans-Serif" font-size="10.00">SDK::UInterpTrackInstProperty</text>
<polyline fill="none" stroke="red" points="0,-143.5 150,-143.5 "/>
<text text-anchor="middle" x="75" y="-131.5" font-family="Helvetica,sans-Serif" font-size="10.00"> </text>
<polyline fill="none" stroke="red" points="0,-124.5 150,-124.5 "/>
<text text-anchor="start" x="8" y="-112.5" font-family="Helvetica,sans-Serif" font-size="10.00">+ StaticClass()</text>
</a>
</g>
</g>
<!-- Node2&#45;&gt;Node1 -->
<g id="edge1" class="edge"><title>Node2&#45;&gt;Node1</title>
<path fill="none" stroke="midnightblue" d="M125.464,-99.8928C146.225,-86.2729 169.997,-70.6771 189.811,-57.6783"/>
<polygon fill="none" stroke="midnightblue" points="123.514,-96.986 117.073,-105.398 127.354,-102.839 123.514,-96.986"/>
</g>
<!-- Node16 -->
<g id="node3" class="node"><title>Node16</title>
<g id="a_node3"><a xlink:href="a26191.html" target="_top" xlink:title=" ">
<polygon fill="none" stroke="red" points="284,-105.5 284,-162.5 390,-162.5 390,-105.5 284,-105.5"/>
<text text-anchor="middle" x="337" y="-150.5" font-family="Helvetica,sans-Serif" font-size="10.00">SDK::UBoolProperty</text>
<polyline fill="none" stroke="red" points="284,-143.5 390,-143.5 "/>
<text text-anchor="middle" x="337" y="-131.5" font-family="Helvetica,sans-Serif" font-size="10.00"> </text>
<polyline fill="none" stroke="red" points="284,-124.5 390,-124.5 "/>
<text text-anchor="start" x="292" y="-112.5" font-family="Helvetica,sans-Serif" font-size="10.00">+ StaticClass()</text>
</a>
</g>
</g>
<!-- Node16&#45;&gt;Node1 -->
<g id="edge2" class="edge"><title>Node16&#45;&gt;Node1</title>
<path fill="none" stroke="#404040" d="M308.862,-105.398C296.621,-93.3906 282.111,-79.1563 269.013,-66.3077"/>
<polygon fill="none" stroke="#404040" points="268.782,-66.0816 261.698,-64.7355 260.216,-57.6783 267.3,-59.0245 268.782,-66.0816"/>
<text text-anchor="middle" x="321" y="-79" font-family="Helvetica,sans-Serif" font-size="10.00"> +BoolProperty</text>
</g>
<!-- Node13 -->
<g id="node4" class="node"><title>Node13</title>
<g id="a_node4"><a xlink:title=" ">
<polygon fill="none" stroke="#bfbfbf" points="214.5,-210.5 214.5,-267.5 249.5,-267.5 249.5,-210.5 214.5,-210.5"/>
<text text-anchor="middle" x="232" y="-255.5" font-family="Helvetica,sans-Serif" font-size="10.00">char</text>
<polyline fill="none" stroke="#bfbfbf" points="214.5,-248.5 249.5,-248.5 "/>
<text text-anchor="middle" x="232" y="-236.5" font-family="Helvetica,sans-Serif" font-size="10.00"> </text>
<polyline fill="none" stroke="#bfbfbf" points="214.5,-229.5 249.5,-229.5 "/>
<text text-anchor="middle" x="232" y="-217.5" font-family="Helvetica,sans-Serif" font-size="10.00"> </text>
</a>
</g>
</g>
<!-- Node13&#45;&gt;Node1 -->
<g id="edge4" class="edge"><title>Node13&#45;&gt;Node1</title>
<path fill="none" stroke="#404040" d="M214.534,-210.31C206.919,-196.631 198.859,-179.543 195,-163 189.145,-137.896 189.145,-130.104 195,-105 197.894,-92.5925 203.151,-79.8789 208.812,-68.5269"/>
<polygon fill="none" stroke="#404040" points="208.93,-68.3019 208.195,-61.1283 214.534,-57.6904 215.269,-64.8639 208.93,-68.3019"/>
<text text-anchor="middle" x="235" y="-137" font-family="Helvetica,sans-Serif" font-size="10.00"> +UnknownData01</text>
<text text-anchor="middle" x="235" y="-126" font-family="Helvetica,sans-Serif" font-size="10.00">+UnknownData00</text>
</g>
<!-- Node13&#45;&gt;Node16 -->
<g id="edge3" class="edge"><title>Node13&#45;&gt;Node16</title>
<path fill="none" stroke="#404040" d="M249.812,-220.527C263.563,-207.038 283.062,-187.91 300.134,-171.164"/>
<polygon fill="none" stroke="#404040" points="300.231,-171.069 301.713,-164.012 308.797,-162.666 307.315,-169.723 300.231,-171.069"/>
<text text-anchor="middle" x="328" y="-184" font-family="Helvetica,sans-Serif" font-size="10.00"> +UnknownData00</text>
</g>
<!-- Node17 -->
<g id="node5" class="node"><title>Node17</title>
<g id="a_node5"><a xlink:title=" ">
<polygon fill="none" stroke="#bfbfbf" points="408.5,-105.5 408.5,-162.5 443.5,-162.5 443.5,-105.5 408.5,-105.5"/>
<text text-anchor="middle" x="426" y="-150.5" font-family="Helvetica,sans-Serif" font-size="10.00">bool</text>
<polyline fill="none" stroke="#bfbfbf" points="408.5,-143.5 443.5,-143.5 "/>
<text text-anchor="middle" x="426" y="-131.5" font-family="Helvetica,sans-Serif" font-size="10.00"> </text>
<polyline fill="none" stroke="#bfbfbf" points="408.5,-124.5 443.5,-124.5 "/>
<text text-anchor="middle" x="426" y="-112.5" font-family="Helvetica,sans-Serif" font-size="10.00"> </text>
</a>
</g>
</g>
<!-- Node17&#45;&gt;Node1 -->
<g id="edge5" class="edge"><title>Node17&#45;&gt;Node1</title>
<path fill="none" stroke="#404040" d="M408.456,-113.831C405.398,-110.777 402.176,-107.728 399,-105 382.068,-90.458 377.768,-86.3628 358,-76 346.036,-69.7282 333.024,-63.9368 320.054,-58.7302"/>
<polygon fill="none" stroke="#404040" points="319.877,-58.6613 312.835,-60.2121 308.694,-54.3079 315.737,-52.7571 319.877,-58.6613"/>
<text text-anchor="middle" x="404.5" y="-79" font-family="Helvetica,sans-Serif" font-size="10.00"> +ResetBool</text>
</g>
</g>
</svg>
