<?xml version="1.0" encoding="UTF-8" standalone="no"?>
<!DOCTYPE svg PUBLIC "-//W3C//DTD SVG 1.1//EN"
 "http://www.w3.org/Graphics/SVG/1.1/DTD/svg11.dtd">
<!-- Generated by graphviz version 2.38.0 (20140413.2041)
 -->
<!-- Title: SDK::UMaterialExpressionConstant4Vector Pages: 1 -->
<svg width="258pt" height="226pt"
 viewBox="0.00 0.00 257.50 226.00" xmlns="http://www.w3.org/2000/svg" xmlns:xlink="http://www.w3.org/1999/xlink">
<g id="graph0" class="graph" transform="scale(1 1) rotate(0) translate(4 222)">
<title>SDK::UMaterialExpressionConstant4Vector</title>
<!-- Node1 -->
<g id="node1" class="node"><title>Node1</title>
<g id="a_node1"><a xlink:title=" ">
<polygon fill="#bfbfbf" stroke="black" points="67,-0.5 67,-68.5 200,-68.5 200,-0.5 67,-0.5"/>
<text text-anchor="start" x="75" y="-56.5" font-family="Helvetica,sans-Serif" font-size="10.00">SDK::UMaterialExpression</text>
<text text-anchor="middle" x="133.5" y="-45.5" font-family="Helvetica,sans-Serif" font-size="10.00">Constant4Vector</text>
<polyline fill="none" stroke="black" points="67,-38.5 200,-38.5 "/>
<text text-anchor="middle" x="133.5" y="-26.5" font-family="Helvetica,sans-Serif" font-size="10.00"> </text>
<polyline fill="none" stroke="black" points="67,-19.5 200,-19.5 "/>
<text text-anchor="start" x="75" y="-7.5" font-family="Helvetica,sans-Serif" font-size="10.00">+ StaticClass()</text>
</a>
</g>
</g>
<!-- Node2 -->
<g id="node2" class="node"><title>Node2</title>
<g id="a_node2"><a xlink:href="a26587.html" target="_top" xlink:title=" ">
<polygon fill="none" stroke="red" points="0,-138.5 0,-195.5 133,-195.5 133,-138.5 0,-138.5"/>
<text text-anchor="middle" x="66.5" y="-183.5" font-family="Helvetica,sans-Serif" font-size="10.00">SDK::UMaterialExpression</text>
<polyline fill="none" stroke="red" points="0,-176.5 133,-176.5 "/>
<text text-anchor="start" x="8" y="-164.5" font-family="Helvetica,sans-Serif" font-size="10.00">+ UnknownData00</text>
<polyline fill="none" stroke="red" points="0,-157.5 133,-157.5 "/>
<text text-anchor="start" x="8" y="-145.5" font-family="Helvetica,sans-Serif" font-size="10.00">+ StaticClass()</text>
</a>
</g>
</g>
<!-- Node2&#45;&gt;Node1 -->
<g id="edge1" class="edge"><title>Node2&#45;&gt;Node1</title>
<path fill="none" stroke="midnightblue" d="M85.3227,-129.338C95.1009,-110.292 106.959,-87.1965 116.463,-68.6838"/>
<polygon fill="none" stroke="midnightblue" points="82.1627,-127.83 80.709,-138.324 88.39,-131.027 82.1627,-127.83"/>
</g>
<!-- Node21 -->
<g id="node3" class="node"><title>Node21</title>
<g id="a_node3"><a xlink:href="a26119.html" target="_top" xlink:title=" ">
<polygon fill="none" stroke="red" points="151.5,-116.5 151.5,-217.5 249.5,-217.5 249.5,-116.5 151.5,-116.5"/>
<text text-anchor="middle" x="200.5" y="-205.5" font-family="Helvetica,sans-Serif" font-size="10.00">SDK::FLinearColor</text>
<polyline fill="none" stroke="red" points="151.5,-198.5 249.5,-198.5 "/>
<text text-anchor="middle" x="200.5" y="-186.5" font-family="Helvetica,sans-Serif" font-size="10.00"> </text>
<polyline fill="none" stroke="red" points="151.5,-179.5 249.5,-179.5 "/>
<text text-anchor="start" x="159.5" y="-167.5" font-family="Helvetica,sans-Serif" font-size="10.00">+ FLinearColor()</text>
<text text-anchor="start" x="159.5" y="-156.5" font-family="Helvetica,sans-Serif" font-size="10.00">+ FLinearColor()</text>
<text text-anchor="start" x="159.5" y="-145.5" font-family="Helvetica,sans-Serif" font-size="10.00">+ FLinearColor()</text>
<text text-anchor="start" x="159.5" y="-134.5" font-family="Helvetica,sans-Serif" font-size="10.00">+ operator!=()</text>
<text text-anchor="start" x="159.5" y="-123.5" font-family="Helvetica,sans-Serif" font-size="10.00">+ operator==()</text>
</a>
</g>
</g>
<!-- Node21&#45;&gt;Node1 -->
<g id="edge2" class="edge"><title>Node21&#45;&gt;Node1</title>
<path fill="none" stroke="#404040" d="M174.979,-116.291C168.758,-104.173 162.146,-91.2962 156.073,-79.467"/>
<polygon fill="none" stroke="#404040" points="155.926,-79.181 149.627,-75.6703 150.445,-68.5058 156.744,-72.0164 155.926,-79.181"/>
<text text-anchor="middle" x="190" y="-90" font-family="Helvetica,sans-Serif" font-size="10.00"> +Constant</text>
</g>
</g>
</svg>
