<?xml version="1.0" encoding="UTF-8" standalone="no"?>
<!DOCTYPE svg PUBLIC "-//W3C//DTD SVG 1.1//EN"
 "http://www.w3.org/Graphics/SVG/1.1/DTD/svg11.dtd">
<!-- Generated by graphviz version 2.38.0 (20140413.2041)
 -->
<!-- Title: SDK::UMaterialExpressionBumpOffset Pages: 1 -->
<!--zoomable 524 -->
<svg id="main" version="1.1" xmlns="http://www.w3.org/2000/svg" xmlns:xlink="http://www.w3.org/1999/xlink" xml:space="preserve" onload="init(evt)">
<style type="text/css"><![CDATA[
.edge:hover path { stroke: red; }
.edge:hover polygon { stroke: red; fill: red; }
]]></style>
<script type="text/javascript"><![CDATA[
var edges = document.getElementsByTagName('g');
if (edges && edges.length) {
  for (var i=0;i<edges.length;i++) {
    if (edges[i].id.substr(0,4)=='edge') {
      edges[i].setAttribute('class','edge');
    }
  }
}
]]></script>
        <defs>
                <circle id="rim" cx="0" cy="0" r="7"/>
                <circle id="rim2" cx="0" cy="0" r="3.5"/>
                <g id="zoomPlus">
                        <use xlink:href="#rim" fill="#404040">
                                <set attributeName="fill" to="#808080" begin="zoomplus.mouseover" end="zoomplus.mouseout"/>
                        </use>
                        <path d="M-4,0h8M0,-4v8" fill="none" stroke="white" stroke-width="1.5" pointer-events="none"/>
                </g>
                <g id="zoomMin">
                        <use xlink:href="#rim" fill="#404040">
                                <set attributeName="fill" to="#808080" begin="zoomminus.mouseover" end="zoomminus.mouseout"/>
                        </use>
                        <path d="M-4,0h8" fill="none" stroke="white" stroke-width="1.5" pointer-events="none"/>
                </g>
                <g id="dirArrow">
                        <path fill="none" stroke="white" stroke-width="1.5" d="M0,-3.0v7 M-2.5,-0.5L0,-3.0L2.5,-0.5"/>
                </g>
               <g id="resetDef">
                       <use xlink:href="#rim2" fill="#404040">
                               <set attributeName="fill" to="#808080" begin="reset.mouseover" end="reset.mouseout"/>
                       </use>
               </g>
        </defs>

<script type="text/javascript">
var viewWidth = 459;
var viewHeight = 524;
var sectionId = 'dynsection-1';
</script>
<script xlink:href="svgpan.js"/>
<svg id="graph" class="graph">
<g id="viewport">
<title>SDK::UMaterialExpressionBumpOffset</title>
<!-- Node1 -->
<g id="node1" class="node"><title>Node1</title>
<g id="a_node1"><a xlink:title=" ">
<polygon fill="#bfbfbf" stroke="black" points="107.046,-0.5 107.046,-68.5 240.046,-68.5 240.046,-0.5 107.046,-0.5"/>
<text text-anchor="start" x="115.046" y="-56.5" font-family="Helvetica,sans-Serif" font-size="10.00">SDK::UMaterialExpression</text>
<text text-anchor="middle" x="173.546" y="-45.5" font-family="Helvetica,sans-Serif" font-size="10.00">BumpOffset</text>
<polyline fill="none" stroke="black" points="107.046,-38.5 240.046,-38.5 "/>
<text text-anchor="middle" x="173.546" y="-26.5" font-family="Helvetica,sans-Serif" font-size="10.00"> </text>
<polyline fill="none" stroke="black" points="107.046,-19.5 240.046,-19.5 "/>
<text text-anchor="start" x="115.046" y="-7.5" font-family="Helvetica,sans-Serif" font-size="10.00">+ StaticClass()</text>
</a>
</g>
</g>
<!-- Node2 -->
<g id="node2" class="node"><title>Node2</title>
<g id="a_node2"><a xlink:href="a26799.html" target="_top" xlink:title=" ">
<polygon fill="none" stroke="red" points="25.0462,-243.5 25.0462,-300.5 158.046,-300.5 158.046,-243.5 25.0462,-243.5"/>
<text text-anchor="middle" x="91.5462" y="-288.5" font-family="Helvetica,sans-Serif" font-size="10.00">SDK::UMaterialExpression</text>
<polyline fill="none" stroke="red" points="25.0462,-281.5 158.046,-281.5 "/>
<text text-anchor="start" x="33.0462" y="-269.5" font-family="Helvetica,sans-Serif" font-size="10.00">+ UnknownData00</text>
<polyline fill="none" stroke="red" points="25.0462,-262.5 158.046,-262.5 "/>
<text text-anchor="start" x="33.0462" y="-250.5" font-family="Helvetica,sans-Serif" font-size="10.00">+ StaticClass()</text>
</a>
</g>
</g>
<!-- Node2&#45;&gt;Node1 -->
<g id="edge1" class="edge"><title>Node2&#45;&gt;Node1</title>
<path fill="none" stroke="midnightblue" d="M92.85,-233.212C94.7603,-206.037 99.3923,-168.891 110.546,-138 119.484,-113.246 134.886,-88.0285 148.223,-68.8007"/>
<polygon fill="none" stroke="midnightblue" points="89.3398,-233.274 92.2243,-243.469 96.3268,-233.7 89.3398,-233.274"/>
</g>
<!-- Node45 -->
<g id="node5" class="node"><title>Node45</title>
<g id="a_node5"><a xlink:href="a30387.html" target="_top" xlink:title=" ">
<polygon fill="none" stroke="red" points="120.046,-138.5 120.046,-195.5 239.046,-195.5 239.046,-138.5 120.046,-138.5"/>
<text text-anchor="middle" x="179.546" y="-183.5" font-family="Helvetica,sans-Serif" font-size="10.00">SDK::FExpressionInput</text>
<polyline fill="none" stroke="red" points="120.046,-176.5 239.046,-176.5 "/>
<text text-anchor="middle" x="179.546" y="-164.5" font-family="Helvetica,sans-Serif" font-size="10.00"> </text>
<polyline fill="none" stroke="red" points="120.046,-157.5 239.046,-157.5 "/>
<text text-anchor="middle" x="179.546" y="-145.5" font-family="Helvetica,sans-Serif" font-size="10.00"> </text>
</a>
</g>
</g>
<!-- Node2&#45;&gt;Node45 -->
<g id="edge7" class="edge"><title>Node2&#45;&gt;Node45</title>
<path fill="none" stroke="#404040" d="M105.585,-243.393C111.159,-233.637 118.035,-222.89 125.546,-214 128.418,-210.602 131.554,-207.246 134.823,-203.99"/>
<polygon fill="none" stroke="#404040" points="134.958,-203.862 136.586,-196.837 143.697,-195.638 142.069,-202.663 134.958,-203.862"/>
<text text-anchor="middle" x="154.546" y="-217" font-family="Helvetica,sans-Serif" font-size="10.00"> +Expression</text>
</g>
<!-- Node12 -->
<g id="node3" class="node"><title>Node12</title>
<g id="a_node3"><a xlink:title=" ">
<polygon fill="none" stroke="#bfbfbf" points="47.0462,-458.5 47.0462,-515.5 82.0462,-515.5 82.0462,-458.5 47.0462,-458.5"/>
<text text-anchor="middle" x="64.5462" y="-503.5" font-family="Helvetica,sans-Serif" font-size="10.00">char</text>
<polyline fill="none" stroke="#bfbfbf" points="47.0462,-496.5 82.0462,-496.5 "/>
<text text-anchor="middle" x="64.5462" y="-484.5" font-family="Helvetica,sans-Serif" font-size="10.00"> </text>
<polyline fill="none" stroke="#bfbfbf" points="47.0462,-477.5 82.0462,-477.5 "/>
<text text-anchor="middle" x="64.5462" y="-465.5" font-family="Helvetica,sans-Serif" font-size="10.00"> </text>
</a>
</g>
</g>
<!-- Node12&#45;&gt;Node1 -->
<g id="edge3" class="edge"><title>Node12&#45;&gt;Node1</title>
<path fill="none" stroke="#404040" d="M49.4935,-458.262C24.4257,-408.246 -20.2243,-300.143 10.5462,-214 30.653,-157.711 78.8418,-108.803 117.641,-76.487"/>
<polygon fill="none" stroke="#404040" points="117.977,-76.2135 120.102,-69.3227 127.28,-68.6341 125.155,-75.525 117.977,-76.2135"/>
<text text-anchor="middle" x="50.5462" y="-217" font-family="Helvetica,sans-Serif" font-size="10.00"> +UnknownData00</text>
</g>
<!-- Node12&#45;&gt;Node2 -->
<g id="edge2" class="edge"><title>Node12&#45;&gt;Node2</title>
<path fill="none" stroke="#404040" d="M60.5154,-458.248C56.5847,-424.645 52.8645,-366.63 65.5462,-319 66.1916,-316.576 66.9958,-314.145 67.9174,-311.736"/>
<polygon fill="none" stroke="#404040" points="67.9545,-311.655 66.8033,-304.536 72.9316,-300.736 74.0828,-307.854 67.9545,-311.655"/>
<text text-anchor="middle" x="124.546" y="-432" font-family="Helvetica,sans-Serif" font-size="10.00"> +bHidePreviewWindow</text>
<text text-anchor="middle" x="124.546" y="-421" font-family="Helvetica,sans-Serif" font-size="10.00">+bShowOutputs</text>
<text text-anchor="middle" x="124.546" y="-410" font-family="Helvetica,sans-Serif" font-size="10.00">+bCommentBubbleVisible</text>
<text text-anchor="middle" x="124.546" y="-399" font-family="Helvetica,sans-Serif" font-size="10.00">+bNeedToUpdatePreview</text>
<text text-anchor="middle" x="124.546" y="-388" font-family="Helvetica,sans-Serif" font-size="10.00">+bShaderInputData</text>
<text text-anchor="middle" x="124.546" y="-377" font-family="Helvetica,sans-Serif" font-size="10.00">+bCollapsed</text>
<text text-anchor="middle" x="124.546" y="-366" font-family="Helvetica,sans-Serif" font-size="10.00">+bIsParameterExpression</text>
<text text-anchor="middle" x="124.546" y="-355" font-family="Helvetica,sans-Serif" font-size="10.00">+bRealtimePreview</text>
<text text-anchor="middle" x="124.546" y="-344" font-family="Helvetica,sans-Serif" font-size="10.00">+bShowInputs</text>
<text text-anchor="middle" x="124.546" y="-333" font-family="Helvetica,sans-Serif" font-size="10.00">+bShowOutputNameOnPin</text>
<text text-anchor="middle" x="124.546" y="-322" font-family="Helvetica,sans-Serif" font-size="10.00">...</text>
</g>
<!-- Node12&#45;&gt;Node45 -->
<g id="edge6" class="edge"><title>Node12&#45;&gt;Node45</title>
<path fill="none" stroke="#404040" d="M82.4658,-485.067C109.666,-482.573 160.627,-473.432 183.546,-440 231.562,-369.961 210.155,-264.124 193.159,-207.329"/>
<polygon fill="none" stroke="#404040" points="193.09,-207.108 187.485,-202.571 189.518,-195.652 195.122,-200.189 193.09,-207.108"/>
<text text-anchor="middle" x="251.546" y="-269.5" font-family="Helvetica,sans-Serif" font-size="10.00"> +UnknownData00</text>
</g>
<!-- Node18 -->
<g id="node4" class="node"><title>Node18</title>
<g id="a_node4"><a xlink:title=" ">
<polygon fill="none" stroke="#bfbfbf" points="257.046,-138.5 257.046,-195.5 292.046,-195.5 292.046,-138.5 257.046,-138.5"/>
<text text-anchor="middle" x="274.546" y="-183.5" font-family="Helvetica,sans-Serif" font-size="10.00">float</text>
<polyline fill="none" stroke="#bfbfbf" points="257.046,-176.5 292.046,-176.5 "/>
<text text-anchor="middle" x="274.546" y="-164.5" font-family="Helvetica,sans-Serif" font-size="10.00"> </text>
<polyline fill="none" stroke="#bfbfbf" points="257.046,-157.5 292.046,-157.5 "/>
<text text-anchor="middle" x="274.546" y="-145.5" font-family="Helvetica,sans-Serif" font-size="10.00"> </text>
</a>
</g>
</g>
<!-- Node18&#45;&gt;Node1 -->
<g id="edge4" class="edge"><title>Node18&#45;&gt;Node1</title>
<path fill="none" stroke="#404040" d="M271.754,-138.276C268.988,-122.068 263.485,-101.93 252.546,-87 249.924,-83.4218 246.973,-80.0242 243.79,-76.809"/>
<polygon fill="none" stroke="#404040" points="243.776,-76.7961 236.646,-75.721 234.896,-68.7254 242.026,-69.8006 243.776,-76.7961"/>
<text text-anchor="middle" x="306.546" y="-106.5" font-family="Helvetica,sans-Serif" font-size="10.00"> +ReferencePlane</text>
<text text-anchor="middle" x="306.546" y="-95.5" font-family="Helvetica,sans-Serif" font-size="10.00">+HeightRatio</text>
</g>
<!-- Node45&#45;&gt;Node1 -->
<g id="edge5" class="edge"><title>Node45&#45;&gt;Node1</title>
<path fill="none" stroke="#404040" d="M176.099,-138.306C175.471,-132.281 174.903,-125.934 174.546,-120 173.787,-107.369 173.426,-93.6573 173.28,-81.0271"/>
<polygon fill="none" stroke="#404040" points="173.279,-80.8371 169.24,-74.8634 173.201,-68.8373 177.24,-74.811 173.279,-80.8371"/>
<text text-anchor="middle" x="213.546" y="-112" font-family="Helvetica,sans-Serif" font-size="10.00"> +Height</text>
<text text-anchor="middle" x="213.546" y="-101" font-family="Helvetica,sans-Serif" font-size="10.00">+Coordinate</text>
<text text-anchor="middle" x="213.546" y="-90" font-family="Helvetica,sans-Serif" font-size="10.00">+HeightRatioInput</text>
</g>
<!-- Node42 -->
<g id="node6" class="node"><title>Node42</title>
<g id="a_node6"><a xlink:title=" ">
<polygon fill="none" stroke="#bfbfbf" points="350.046,-138.5 350.046,-195.5 401.046,-195.5 401.046,-138.5 350.046,-138.5"/>
<text text-anchor="middle" x="375.546" y="-183.5" font-family="Helvetica,sans-Serif" font-size="10.00">uint32_t</text>
<polyline fill="none" stroke="#bfbfbf" points="350.046,-176.5 401.046,-176.5 "/>
<text text-anchor="middle" x="375.546" y="-164.5" font-family="Helvetica,sans-Serif" font-size="10.00"> </text>
<polyline fill="none" stroke="#bfbfbf" points="350.046,-157.5 401.046,-157.5 "/>
<text text-anchor="middle" x="375.546" y="-145.5" font-family="Helvetica,sans-Serif" font-size="10.00"> </text>
</a>
</g>
</g>
<!-- Node42&#45;&gt;Node1 -->
<g id="edge8" class="edge"><title>Node42&#45;&gt;Node1</title>
<path fill="none" stroke="#404040" d="M372.935,-138.44C369.925,-121.466 363.453,-100.452 349.546,-87 323.663,-61.964 286.294,-48.9978 252.641,-42.3232"/>
<polygon fill="none" stroke="#404040" points="252.251,-42.2535 245.64,-45.1332 240.439,-40.1381 247.05,-37.2584 252.251,-42.2535"/>
<text text-anchor="middle" x="409.546" y="-101" font-family="Helvetica,sans-Serif" font-size="10.00"> +ConstCoordinate</text>
</g>
</g>
</svg>
        <g id="navigator" transform="translate(0 0)" fill="#404254">
                <rect fill="#f2f5e9" fill-opacity="0.5" stroke="#606060" stroke-width=".5" x="0" y="0" width="60" height="60"/>
                <use id="zoomplus" xlink:href="#zoomPlus" x="17" y="9" onmousedown="handleZoom(evt,'in')"/>
                <use id="zoomminus" xlink:href="#zoomMin" x="42" y="9" onmousedown="handleZoom(evt,'out')"/>
                <use id="reset" xlink:href="#resetDef" x="30" y="36" onmousedown="handleReset()"/>
                <g id="arrowUp" xlink:href="#dirArrow" transform="translate(30 24)" onmousedown="handlePan(0,-1)">
                  <use xlink:href="#rim" fill="#404040">
                        <set attributeName="fill" to="#808080" begin="arrowUp.mouseover" end="arrowUp.mouseout"/>
                  </use>
                  <path fill="none" stroke="white" stroke-width="1.5" d="M0,-3.0v7 M-2.5,-0.5L0,-3.0L2.5,-0.5"/>
                </g>
                <g id="arrowRight" xlink:href="#dirArrow" transform="rotate(90) translate(36 -43)" onmousedown="handlePan(1,0)">
                  <use xlink:href="#rim" fill="#404040">
                        <set attributeName="fill" to="#808080" begin="arrowRight.mouseover" end="arrowRight.mouseout"/>
                  </use>
                  <path fill="none" stroke="white" stroke-width="1.5" d="M0,-3.0v7 M-2.5,-0.5L0,-3.0L2.5,-0.5"/>
                </g>
                <g id="arrowDown" xlink:href="#dirArrow" transform="rotate(180) translate(-30 -48)" onmousedown="handlePan(0,1)">
                  <use xlink:href="#rim" fill="#404040">
                        <set attributeName="fill" to="#808080" begin="arrowDown.mouseover" end="arrowDown.mouseout"/>
                  </use>
                  <path fill="none" stroke="white" stroke-width="1.5" d="M0,-3.0v7 M-2.5,-0.5L0,-3.0L2.5,-0.5"/>
                </g>
                <g id="arrowLeft" xlink:href="#dirArrow" transform="rotate(270) translate(-36 17)" onmousedown="handlePan(-1,0)">
                  <use xlink:href="#rim" fill="#404040">
                        <set attributeName="fill" to="#808080" begin="arrowLeft.mouseover" end="arrowLeft.mouseout"/>
                  </use>
                  <path fill="none" stroke="white" stroke-width="1.5" d="M0,-3.0v7 M-2.5,-0.5L0,-3.0L2.5,-0.5"/>
                </g>
        </g>
        <svg viewBox="0 0 15 15" width="100%" height="30px" preserveAspectRatio="xMaxYMin meet">
         <g id="arrow_out" transform="scale(0.3 0.3)">
          <a xlink:href="a28577_org.svg" target="_base">
           <rect id="button" ry="5" rx="5" y="6" x="6" height="38" width="38"
                fill="#f2f5e9" fill-opacity="0.5" stroke="#606060" stroke-width="1.0"/>
           <path id="arrow"
             d="M 11.500037,31.436501 C 11.940474,20.09759 22.043105,11.32322 32.158766,21.979434 L 37.068811,17.246167 C 37.068811,17.246167 37.088388,32 37.088388,32 L 22.160133,31.978069 C 22.160133,31.978069 26.997745,27.140456 26.997745,27.140456 C 18.528582,18.264221 13.291696,25.230495 11.500037,31.436501 z"
             style="fill:#404040;"/>
          </a>
         </g>
        </svg>
</svg>
