<?xml version="1.0" encoding="UTF-8" standalone="no"?>
<!DOCTYPE svg PUBLIC "-//W3C//DTD SVG 1.1//EN"
 "http://www.w3.org/Graphics/SVG/1.1/DTD/svg11.dtd">
<!-- Generated by graphviz version 2.38.0 (20140413.2041)
 -->
<!-- Title: SDK::UMaterialExpressionFrac Pages: 1 -->
<svg width="216pt" height="276pt"
 viewBox="0.00 0.00 215.50 276.00" xmlns="http://www.w3.org/2000/svg" xmlns:xlink="http://www.w3.org/1999/xlink">
<g id="graph0" class="graph" transform="scale(1 1) rotate(0) translate(4 272)">
<title>SDK::UMaterialExpressionFrac</title>
<!-- Node1 -->
<g id="node1" class="node"><title>Node1</title>
<g id="a_node1"><a xlink:title=" ">
<polygon fill="#bfbfbf" stroke="black" points="0,-0.5 0,-57.5 152,-57.5 152,-0.5 0,-0.5"/>
<text text-anchor="middle" x="76" y="-45.5" font-family="Helvetica,sans-Serif" font-size="10.00">SDK::UMaterialExpressionFrac</text>
<polyline fill="none" stroke="black" points="0,-38.5 152,-38.5 "/>
<text text-anchor="middle" x="76" y="-26.5" font-family="Helvetica,sans-Serif" font-size="10.00"> </text>
<polyline fill="none" stroke="black" points="0,-19.5 152,-19.5 "/>
<text text-anchor="start" x="8" y="-7.5" font-family="Helvetica,sans-Serif" font-size="10.00">+ StaticClass()</text>
</a>
</g>
</g>
<!-- Node2 -->
<g id="node2" class="node"><title>Node2</title>
<g id="a_node2"><a xlink:href="a26587.html" target="_top" xlink:title=" ">
<polygon fill="none" stroke="red" points="23.5,-210.5 23.5,-267.5 156.5,-267.5 156.5,-210.5 23.5,-210.5"/>
<text text-anchor="middle" x="90" y="-255.5" font-family="Helvetica,sans-Serif" font-size="10.00">SDK::UMaterialExpression</text>
<polyline fill="none" stroke="red" points="23.5,-248.5 156.5,-248.5 "/>
<text text-anchor="start" x="31.5" y="-236.5" font-family="Helvetica,sans-Serif" font-size="10.00">+ UnknownData00</text>
<polyline fill="none" stroke="red" points="23.5,-229.5 156.5,-229.5 "/>
<text text-anchor="start" x="31.5" y="-217.5" font-family="Helvetica,sans-Serif" font-size="10.00">+ StaticClass()</text>
</a>
</g>
</g>
<!-- Node2&#45;&gt;Node1 -->
<g id="edge1" class="edge"><title>Node2&#45;&gt;Node1</title>
<path fill="none" stroke="midnightblue" d="M83.5398,-200.263C81.7538,-188.375 80.0259,-175.171 79,-163 75.935,-126.637 75.5106,-84.4972 75.6348,-57.5627"/>
<polygon fill="none" stroke="midnightblue" points="80.1079,-200.972 85.1081,-210.313 87.0242,-199.892 80.1079,-200.972"/>
</g>
<!-- Node45 -->
<g id="node3" class="node"><title>Node45</title>
<g id="a_node3"><a xlink:href="a30179.html" target="_top" xlink:title=" ">
<polygon fill="none" stroke="red" points="88.5,-105.5 88.5,-162.5 207.5,-162.5 207.5,-105.5 88.5,-105.5"/>
<text text-anchor="middle" x="148" y="-150.5" font-family="Helvetica,sans-Serif" font-size="10.00">SDK::FExpressionInput</text>
<polyline fill="none" stroke="red" points="88.5,-143.5 207.5,-143.5 "/>
<text text-anchor="middle" x="148" y="-131.5" font-family="Helvetica,sans-Serif" font-size="10.00"> </text>
<polyline fill="none" stroke="red" points="88.5,-124.5 207.5,-124.5 "/>
<text text-anchor="middle" x="148" y="-112.5" font-family="Helvetica,sans-Serif" font-size="10.00"> </text>
</a>
</g>
</g>
<!-- Node2&#45;&gt;Node45 -->
<g id="edge3" class="edge"><title>Node2&#45;&gt;Node45</title>
<path fill="none" stroke="#404040" d="M105.543,-210.398C111.979,-198.968 119.552,-185.52 126.506,-173.17"/>
<polygon fill="none" stroke="#404040" points="126.526,-173.135 125.985,-165.944 132.414,-162.678 132.956,-169.869 126.526,-173.135"/>
<text text-anchor="middle" x="149" y="-184" font-family="Helvetica,sans-Serif" font-size="10.00"> +Expression</text>
</g>
<!-- Node45&#45;&gt;Node1 -->
<g id="edge2" class="edge"><title>Node45&#45;&gt;Node1</title>
<path fill="none" stroke="#404040" d="M128.705,-105.398C120.635,-93.8524 111.125,-80.248 102.421,-67.7962"/>
<polygon fill="none" stroke="#404040" points="102.223,-67.5136 95.5071,-64.8877 95.3479,-57.6783 102.064,-60.3042 102.223,-67.5136"/>
<text text-anchor="middle" x="129.5" y="-79" font-family="Helvetica,sans-Serif" font-size="10.00"> +Input</text>
</g>
</g>
</svg>
