<?xml version="1.0" encoding="UTF-8" standalone="no"?>
<!DOCTYPE svg PUBLIC "-//W3C//DTD SVG 1.1//EN"
 "http://www.w3.org/Graphics/SVG/1.1/DTD/svg11.dtd">
<!-- Generated by graphviz version 2.38.0 (20140413.2041)
 -->
<!-- Title: SDK::UMaterialExpressionFunctionOutput Pages: 1 -->
<svg width="664pt" height="656pt"
 viewBox="0.00 0.00 664.33 656.00" xmlns="http://www.w3.org/2000/svg" xmlns:xlink="http://www.w3.org/1999/xlink">
<g id="graph0" class="graph" transform="scale(1 1) rotate(0) translate(4 652)">
<title>SDK::UMaterialExpressionFunctionOutput</title>
<!-- Node1 -->
<g id="node1" class="node"><title>Node1</title>
<g id="a_node1"><a xlink:title=" ">
<polygon fill="#bfbfbf" stroke="black" points="236.333,-0.5 236.333,-68.5 369.333,-68.5 369.333,-0.5 236.333,-0.5"/>
<text text-anchor="start" x="244.333" y="-56.5" font-family="Helvetica,sans-Serif" font-size="10.00">SDK::UMaterialExpression</text>
<text text-anchor="middle" x="302.833" y="-45.5" font-family="Helvetica,sans-Serif" font-size="10.00">FunctionOutput</text>
<polyline fill="none" stroke="black" points="236.333,-38.5 369.333,-38.5 "/>
<text text-anchor="middle" x="302.833" y="-26.5" font-family="Helvetica,sans-Serif" font-size="10.00"> </text>
<polyline fill="none" stroke="black" points="236.333,-19.5 369.333,-19.5 "/>
<text text-anchor="start" x="244.333" y="-7.5" font-family="Helvetica,sans-Serif" font-size="10.00">+ StaticClass()</text>
</a>
</g>
</g>
<!-- Node2 -->
<g id="node2" class="node"><title>Node2</title>
<g id="a_node2"><a xlink:href="a26587.html" target="_top" xlink:title=" ">
<polygon fill="none" stroke="red" points="53.3326,-331.5 53.3326,-388.5 186.333,-388.5 186.333,-331.5 53.3326,-331.5"/>
<text text-anchor="middle" x="119.833" y="-376.5" font-family="Helvetica,sans-Serif" font-size="10.00">SDK::UMaterialExpression</text>
<polyline fill="none" stroke="red" points="53.3326,-369.5 186.333,-369.5 "/>
<text text-anchor="start" x="61.3326" y="-357.5" font-family="Helvetica,sans-Serif" font-size="10.00">+ UnknownData00</text>
<polyline fill="none" stroke="red" points="53.3326,-350.5 186.333,-350.5 "/>
<text text-anchor="start" x="61.3326" y="-338.5" font-family="Helvetica,sans-Serif" font-size="10.00">+ StaticClass()</text>
</a>
</g>
</g>
<!-- Node2&#45;&gt;Node1 -->
<g id="edge1" class="edge"><title>Node2&#45;&gt;Node1</title>
<path fill="none" stroke="midnightblue" d="M122.691,-320.82C125.654,-295.804 131.666,-262.883 143.833,-236 173.966,-169.421 231.025,-105.619 267.964,-68.5154"/>
<polygon fill="none" stroke="midnightblue" points="119.184,-320.701 121.599,-331.017 126.144,-321.447 119.184,-320.701"/>
</g>
<!-- Node45 -->
<g id="node5" class="node"><title>Node45</title>
<g id="a_node5"><a xlink:href="a30179.html" target="_top" xlink:title=" ">
<polygon fill="none" stroke="black" points="301.333,-138.5 301.333,-195.5 420.333,-195.5 420.333,-138.5 301.333,-138.5"/>
<text text-anchor="middle" x="360.833" y="-183.5" font-family="Helvetica,sans-Serif" font-size="10.00">SDK::FExpressionInput</text>
<polyline fill="none" stroke="black" points="301.333,-176.5 420.333,-176.5 "/>
<text text-anchor="middle" x="360.833" y="-164.5" font-family="Helvetica,sans-Serif" font-size="10.00"> </text>
<polyline fill="none" stroke="black" points="301.333,-157.5 420.333,-157.5 "/>
<text text-anchor="middle" x="360.833" y="-145.5" font-family="Helvetica,sans-Serif" font-size="10.00"> </text>
</a>
</g>
</g>
<!-- Node2&#45;&gt;Node45 -->
<g id="edge7" class="edge"><title>Node2&#45;&gt;Node45</title>
<path fill="none" stroke="#404040" d="M134.982,-331.392C153.86,-297.333 184.64,-243.04 192.833,-236 220.357,-212.347 257.18,-196.205 289.337,-185.606"/>
<polygon fill="none" stroke="#404040" points="289.502,-185.554 294.023,-179.936 300.947,-181.949 296.426,-187.567 289.502,-185.554"/>
<text text-anchor="middle" x="221.833" y="-272" font-family="Helvetica,sans-Serif" font-size="10.00"> +Expression</text>
</g>
<!-- Node12 -->
<g id="node3" class="node"><title>Node12</title>
<g id="a_node3"><a xlink:title=" ">
<polygon fill="none" stroke="#bfbfbf" points="17.3326,-568.5 17.3326,-625.5 52.3326,-625.5 52.3326,-568.5 17.3326,-568.5"/>
<text text-anchor="middle" x="34.8326" y="-613.5" font-family="Helvetica,sans-Serif" font-size="10.00">char</text>
<polyline fill="none" stroke="#bfbfbf" points="17.3326,-606.5 52.3326,-606.5 "/>
<text text-anchor="middle" x="34.8326" y="-594.5" font-family="Helvetica,sans-Serif" font-size="10.00"> </text>
<polyline fill="none" stroke="#bfbfbf" points="17.3326,-587.5 52.3326,-587.5 "/>
<text text-anchor="middle" x="34.8326" y="-575.5" font-family="Helvetica,sans-Serif" font-size="10.00"> </text>
</a>
</g>
</g>
<!-- Node12&#45;&gt;Node1 -->
<g id="edge4" class="edge"><title>Node12&#45;&gt;Node1</title>
<path fill="none" stroke="#404040" d="M25.2296,-568.24C21.4979,-556.055 17.6804,-541.48 15.8326,-528 -1.85708,-398.954 -15.0662,-353.648 40.8326,-236 77.953,-157.874 162.449,-102.151 225.511,-69.5861"/>
<polygon fill="none" stroke="#404040" points="225.518,-69.5824 229.067,-63.3052 236.227,-64.167 232.678,-70.4443 225.518,-69.5824"/>
<text text-anchor="middle" x="80.8326" y="-288.5" font-family="Helvetica,sans-Serif" font-size="10.00"> +UnknownData01</text>
<text text-anchor="middle" x="80.8326" y="-277.5" font-family="Helvetica,sans-Serif" font-size="10.00">+UnknownData02</text>
<text text-anchor="middle" x="80.8326" y="-266.5" font-family="Helvetica,sans-Serif" font-size="10.00">+bLastPreviewed</text>
<text text-anchor="middle" x="80.8326" y="-255.5" font-family="Helvetica,sans-Serif" font-size="10.00">+UnknownData00</text>
</g>
<!-- Node12&#45;&gt;Node2 -->
<g id="edge2" class="edge"><title>Node12&#45;&gt;Node2</title>
<path fill="none" stroke="#404040" d="M26.8065,-568.356C17.1886,-529.35 5.84289,-457.311 35.8326,-407 38.1844,-403.055 41.0068,-399.425 44.1708,-396.089"/>
<polygon fill="none" stroke="#404040" points="44.3279,-395.948 46.1188,-388.963 53.2555,-387.929 51.4646,-394.914 44.3279,-395.948"/>
<text text-anchor="middle" x="94.8326" y="-520" font-family="Helvetica,sans-Serif" font-size="10.00"> +bHidePreviewWindow</text>
<text text-anchor="middle" x="94.8326" y="-509" font-family="Helvetica,sans-Serif" font-size="10.00">+bShowOutputs</text>
<text text-anchor="middle" x="94.8326" y="-498" font-family="Helvetica,sans-Serif" font-size="10.00">+bCommentBubbleVisible</text>
<text text-anchor="middle" x="94.8326" y="-487" font-family="Helvetica,sans-Serif" font-size="10.00">+bNeedToUpdatePreview</text>
<text text-anchor="middle" x="94.8326" y="-476" font-family="Helvetica,sans-Serif" font-size="10.00">+bShaderInputData</text>
<text text-anchor="middle" x="94.8326" y="-465" font-family="Helvetica,sans-Serif" font-size="10.00">+bCollapsed</text>
<text text-anchor="middle" x="94.8326" y="-454" font-family="Helvetica,sans-Serif" font-size="10.00">+bIsParameterExpression</text>
<text text-anchor="middle" x="94.8326" y="-443" font-family="Helvetica,sans-Serif" font-size="10.00">+bRealtimePreview</text>
<text text-anchor="middle" x="94.8326" y="-432" font-family="Helvetica,sans-Serif" font-size="10.00">+bShowInputs</text>
<text text-anchor="middle" x="94.8326" y="-421" font-family="Helvetica,sans-Serif" font-size="10.00">+bShowOutputNameOnPin</text>
<text text-anchor="middle" x="94.8326" y="-410" font-family="Helvetica,sans-Serif" font-size="10.00">...</text>
</g>
<!-- Node12&#45;&gt;Node45 -->
<g id="edge6" class="edge"><title>Node12&#45;&gt;Node45</title>
<path fill="none" stroke="#404040" d="M52.5496,-593.972C87.3457,-589.063 165.029,-573.394 208.833,-528 273.252,-461.242 210.76,-395.092 277.833,-331 297.961,-311.766 319.51,-333.962 337.833,-313 362.859,-284.369 366.527,-239.861 365.231,-207.706"/>
<polygon fill="none" stroke="#404040" points="365.225,-207.598 360.866,-201.854 364.491,-195.62 368.851,-201.365 365.225,-207.598"/>
<text text-anchor="middle" x="317.833" y="-357.5" font-family="Helvetica,sans-Serif" font-size="10.00"> +UnknownData00</text>
</g>
<!-- Node32 -->
<g id="node4" class="node"><title>Node32</title>
<g id="a_node4"><a xlink:href="a25631.html" target="_top" xlink:title=" ">
<polygon fill="none" stroke="red" points="293.833,-546.5 293.833,-647.5 367.833,-647.5 367.833,-546.5 293.833,-546.5"/>
<text text-anchor="middle" x="330.833" y="-635.5" font-family="Helvetica,sans-Serif" font-size="10.00">SDK::FString</text>
<polyline fill="none" stroke="red" points="293.833,-628.5 367.833,-628.5 "/>
<text text-anchor="middle" x="330.833" y="-616.5" font-family="Helvetica,sans-Serif" font-size="10.00"> </text>
<polyline fill="none" stroke="red" points="293.833,-609.5 367.833,-609.5 "/>
<text text-anchor="start" x="301.833" y="-597.5" font-family="Helvetica,sans-Serif" font-size="10.00">+ FString()</text>
<text text-anchor="start" x="301.833" y="-586.5" font-family="Helvetica,sans-Serif" font-size="10.00">+ FString()</text>
<text text-anchor="start" x="301.833" y="-575.5" font-family="Helvetica,sans-Serif" font-size="10.00">+ IsValid()</text>
<text text-anchor="start" x="301.833" y="-564.5" font-family="Helvetica,sans-Serif" font-size="10.00">+ c_str()</text>
<text text-anchor="start" x="301.833" y="-553.5" font-family="Helvetica,sans-Serif" font-size="10.00">+ ToString()</text>
</a>
</g>
</g>
<!-- Node32&#45;&gt;Node1 -->
<g id="edge13" class="edge"><title>Node32&#45;&gt;Node1</title>
<path fill="none" stroke="#404040" d="M339.64,-546.318C347.008,-490.669 351.447,-399.325 316.833,-331 311.123,-319.73 300.422,-324.33 294.833,-313 276.142,-275.116 292.499,-260.238 291.833,-218 291.117,-172.672 288.757,-161.229 291.833,-116 292.613,-104.528 294.011,-92.2002 295.556,-80.7242"/>
<polygon fill="none" stroke="#404040" points="295.578,-80.5676 292.462,-74.0646 297.266,-68.6869 300.382,-75.19 295.578,-80.5676"/>
<text text-anchor="middle" x="326.833" y="-277.5" font-family="Helvetica,sans-Serif" font-size="10.00"> +OutputName</text>
<text text-anchor="middle" x="326.833" y="-266.5" font-family="Helvetica,sans-Serif" font-size="10.00">+Description</text>
</g>
<!-- Node32&#45;&gt;Node2 -->
<g id="edge3" class="edge"><title>Node32&#45;&gt;Node2</title>
<path fill="none" stroke="#404040" d="M293.596,-554.528C253.779,-510.182 191.23,-440.518 153.036,-397.98"/>
<polygon fill="none" stroke="#404040" points="152.826,-397.746 145.841,-395.954 144.809,-388.817 151.794,-390.609 152.826,-397.746"/>
<text text-anchor="middle" x="284.833" y="-465" font-family="Helvetica,sans-Serif" font-size="10.00"> +Desc</text>
</g>
<!-- Node32&#45;&gt;Node45 -->
<g id="edge9" class="edge"><title>Node32&#45;&gt;Node45</title>
<path fill="none" stroke="#404040" d="M341.767,-546.356C342.914,-540.194 343.972,-533.965 344.833,-528 363.4,-399.308 364.744,-366.01 362.833,-236 362.699,-226.907 362.465,-217.132 362.203,-207.908"/>
<polygon fill="none" stroke="#404040" points="362.199,-207.781 358.018,-201.906 361.835,-195.787 366.015,-201.663 362.199,-207.781"/>
<text text-anchor="middle" x="391.833" y="-357.5" font-family="Helvetica,sans-Serif" font-size="10.00"> +InputName</text>
</g>
<!-- Node45&#45;&gt;Node1 -->
<g id="edge5" class="edge"><title>Node45&#45;&gt;Node1</title>
<path fill="none" stroke="#404040" d="M348.532,-138.324C340.971,-121.312 331.113,-99.1315 322.489,-79.7276"/>
<polygon fill="none" stroke="#404040" points="322.455,-79.6496 316.363,-75.7913 317.581,-68.6838 323.673,-72.5421 322.455,-79.6496"/>
<text text-anchor="middle" x="338.833" y="-90" font-family="Helvetica,sans-Serif" font-size="10.00"> +A</text>
</g>
<!-- Node31 -->
<g id="node6" class="node"><title>Node31</title>
<g id="a_node6"><a xlink:title=" ">
<polygon fill="none" stroke="#bfbfbf" points="492.333,-331.5 492.333,-388.5 521.333,-388.5 521.333,-331.5 492.333,-331.5"/>
<text text-anchor="middle" x="506.833" y="-376.5" font-family="Helvetica,sans-Serif" font-size="10.00">int</text>
<polyline fill="none" stroke="#bfbfbf" points="492.333,-369.5 521.333,-369.5 "/>
<text text-anchor="middle" x="506.833" y="-357.5" font-family="Helvetica,sans-Serif" font-size="10.00"> </text>
<polyline fill="none" stroke="#bfbfbf" points="492.333,-350.5 521.333,-350.5 "/>
<text text-anchor="middle" x="506.833" y="-338.5" font-family="Helvetica,sans-Serif" font-size="10.00"> </text>
</a>
</g>
</g>
<!-- Node31&#45;&gt;Node1 -->
<g id="edge10" class="edge"><title>Node31&#45;&gt;Node1</title>
<path fill="none" stroke="#404040" d="M506.619,-331.032C505.735,-305.695 502.666,-267.603 492.833,-236 474.875,-178.285 469.862,-160.386 428.833,-116 414.545,-100.543 396.667,-86.8021 378.907,-75.2401"/>
<polygon fill="none" stroke="#404040" points="378.649,-75.0779 371.441,-75.2687 368.492,-68.688 375.701,-68.4972 378.649,-75.0779"/>
<text text-anchor="middle" x="515.833" y="-164.5" font-family="Helvetica,sans-Serif" font-size="10.00"> +SortPriority</text>
</g>
<!-- Node31&#45;&gt;Node45 -->
<g id="edge8" class="edge"><title>Node31&#45;&gt;Node45</title>
<path fill="none" stroke="#404040" d="M492.116,-353.639C468.108,-344.627 422.058,-326.137 410.833,-313 387.63,-285.847 399.545,-269.741 387.833,-236 384.516,-226.445 380.65,-216.256 376.898,-206.751"/>
<polygon fill="none" stroke="#404040" points="376.887,-206.723 370.942,-202.642 372.422,-195.585 378.368,-199.666 376.887,-206.723"/>
<text text-anchor="middle" x="451.833" y="-305" font-family="Helvetica,sans-Serif" font-size="10.00"> +GCC64_Padding</text>
<text text-anchor="middle" x="451.833" y="-294" font-family="Helvetica,sans-Serif" font-size="10.00">+Mask</text>
<text text-anchor="middle" x="451.833" y="-283" font-family="Helvetica,sans-Serif" font-size="10.00">+OutputIndex</text>
<text text-anchor="middle" x="451.833" y="-272" font-family="Helvetica,sans-Serif" font-size="10.00">+MaskA</text>
<text text-anchor="middle" x="451.833" y="-261" font-family="Helvetica,sans-Serif" font-size="10.00">+MaskR</text>
<text text-anchor="middle" x="451.833" y="-250" font-family="Helvetica,sans-Serif" font-size="10.00">+MaskB</text>
<text text-anchor="middle" x="451.833" y="-239" font-family="Helvetica,sans-Serif" font-size="10.00">+MaskG</text>
</g>
<!-- Node49 -->
<g id="node7" class="node"><title>Node49</title>
<g id="a_node7"><a xlink:href="a26071.html" target="_top" xlink:title=" ">
<polygon fill="none" stroke="black" points="583.333,-116.5 583.333,-217.5 656.333,-217.5 656.333,-116.5 583.333,-116.5"/>
<text text-anchor="middle" x="619.833" y="-205.5" font-family="Helvetica,sans-Serif" font-size="10.00">SDK::FGuid</text>
<polyline fill="none" stroke="black" points="583.333,-198.5 656.333,-198.5 "/>
<text text-anchor="middle" x="619.833" y="-186.5" font-family="Helvetica,sans-Serif" font-size="10.00"> </text>
<polyline fill="none" stroke="black" points="583.333,-179.5 656.333,-179.5 "/>
<text text-anchor="start" x="591.333" y="-167.5" font-family="Helvetica,sans-Serif" font-size="10.00">+ FGuid()</text>
<text text-anchor="start" x="591.333" y="-156.5" font-family="Helvetica,sans-Serif" font-size="10.00">+ FGuid()</text>
<text text-anchor="start" x="591.333" y="-145.5" font-family="Helvetica,sans-Serif" font-size="10.00">+ operator()()</text>
<text text-anchor="start" x="591.333" y="-134.5" font-family="Helvetica,sans-Serif" font-size="10.00">+ operator[]()</text>
<text text-anchor="start" x="591.333" y="-123.5" font-family="Helvetica,sans-Serif" font-size="10.00">+ operator[]()</text>
</a>
</g>
</g>
<!-- Node31&#45;&gt;Node49 -->
<g id="edge12" class="edge"><title>Node31&#45;&gt;Node49</title>
<path fill="none" stroke="#404040" d="M521.374,-334.421C537.162,-307.736 562.963,-264.125 584.192,-228.241"/>
<polygon fill="none" stroke="#404040" points="584.221,-228.192 583.834,-220.992 590.332,-217.864 590.719,-225.065 584.221,-228.192"/>
<text text-anchor="middle" x="584.833" y="-288.5" font-family="Helvetica,sans-Serif" font-size="10.00"> +A</text>
<text text-anchor="middle" x="584.833" y="-277.5" font-family="Helvetica,sans-Serif" font-size="10.00">+B</text>
<text text-anchor="middle" x="584.833" y="-266.5" font-family="Helvetica,sans-Serif" font-size="10.00">+C</text>
<text text-anchor="middle" x="584.833" y="-255.5" font-family="Helvetica,sans-Serif" font-size="10.00">+D</text>
</g>
<!-- Node49&#45;&gt;Node1 -->
<g id="edge11" class="edge"><title>Node49&#45;&gt;Node1</title>
<path fill="none" stroke="#404040" d="M583.141,-128.096C578.466,-123.852 573.634,-119.723 568.833,-116 549.135,-100.728 543.907,-96.4237 520.833,-87 476.173,-68.7608 423.608,-56.1054 381.285,-47.9051"/>
<polygon fill="none" stroke="#404040" points="381.144,-47.8787 374.508,-50.699 369.352,-45.6576 375.988,-42.8373 381.144,-47.8787"/>
<text text-anchor="middle" x="552.333" y="-90" font-family="Helvetica,sans-Serif" font-size="10.00"> +Id</text>
</g>
</g>
</svg>
