<?xml version="1.0" encoding="UTF-8" standalone="no"?>
<!DOCTYPE svg PUBLIC "-//W3C//DTD SVG 1.1//EN"
 "http://www.w3.org/Graphics/SVG/1.1/DTD/svg11.dtd">
<!-- Generated by graphviz version 2.38.0 (20140413.2041)
 -->
<!-- Title: SDK::UCanvasRenderTarget2D Pages: 1 -->
<svg width="479pt" height="270pt"
 viewBox="0.00 0.00 478.50 270.00" xmlns="http://www.w3.org/2000/svg" xmlns:xlink="http://www.w3.org/1999/xlink">
<g id="graph0" class="graph" transform="scale(1 1) rotate(0) translate(4 266)">
<title>SDK::UCanvasRenderTarget2D</title>
<!-- Node1 -->
<g id="node1" class="node"><title>Node1</title>
<g id="a_node1"><a xlink:title=" ">
<polygon fill="#bfbfbf" stroke="black" points="165.5,-0.5 165.5,-112.5 326.5,-112.5 326.5,-0.5 165.5,-0.5"/>
<text text-anchor="middle" x="246" y="-100.5" font-family="Helvetica,sans-Serif" font-size="10.00">SDK::UCanvasRenderTarget2D</text>
<polyline fill="none" stroke="black" points="165.5,-93.5 326.5,-93.5 "/>
<text text-anchor="middle" x="246" y="-81.5" font-family="Helvetica,sans-Serif" font-size="10.00"> </text>
<polyline fill="none" stroke="black" points="165.5,-74.5 326.5,-74.5 "/>
<text text-anchor="start" x="173.5" y="-62.5" font-family="Helvetica,sans-Serif" font-size="10.00">+ UpdateResource()</text>
<text text-anchor="start" x="173.5" y="-51.5" font-family="Helvetica,sans-Serif" font-size="10.00">+ Render()</text>
<text text-anchor="start" x="173.5" y="-40.5" font-family="Helvetica,sans-Serif" font-size="10.00">+ ReceiveUpdate()</text>
<text text-anchor="start" x="173.5" y="-29.5" font-family="Helvetica,sans-Serif" font-size="10.00">+ GetSize()</text>
<text text-anchor="start" x="173.5" y="-18.5" font-family="Helvetica,sans-Serif" font-size="10.00">+ StaticClass()</text>
<text text-anchor="start" x="173.5" y="-7.5" font-family="Helvetica,sans-Serif" font-size="10.00">+ CreateCanvasRenderTarget2D()</text>
</a>
</g>
</g>
<!-- Node2 -->
<g id="node2" class="node"><title>Node2</title>
<g id="a_node2"><a xlink:href="a26491.html" target="_top" xlink:title=" ">
<polygon fill="none" stroke="red" points="0,-182.5 0,-239.5 152,-239.5 152,-182.5 0,-182.5"/>
<text text-anchor="middle" x="76" y="-227.5" font-family="Helvetica,sans-Serif" font-size="10.00">SDK::UTextureRenderTarget2D</text>
<polyline fill="none" stroke="red" points="0,-220.5 152,-220.5 "/>
<text text-anchor="middle" x="76" y="-208.5" font-family="Helvetica,sans-Serif" font-size="10.00"> </text>
<polyline fill="none" stroke="red" points="0,-201.5 152,-201.5 "/>
<text text-anchor="start" x="8" y="-189.5" font-family="Helvetica,sans-Serif" font-size="10.00">+ StaticClass()</text>
</a>
</g>
</g>
<!-- Node2&#45;&gt;Node1 -->
<g id="edge1" class="edge"><title>Node2&#45;&gt;Node1</title>
<path fill="none" stroke="midnightblue" d="M114.427,-175.528C135.087,-156.995 161.058,-133.698 184.455,-112.709"/>
<polygon fill="none" stroke="midnightblue" points="111.892,-173.1 106.786,-182.383 116.567,-178.311 111.892,-173.1"/>
</g>
<!-- Node27 -->
<g id="node3" class="node"><title>Node27</title>
<g id="a_node3"><a xlink:href="a25655.html" target="_top" xlink:title=" ">
<polygon fill="none" stroke="red" points="170,-182.5 170,-239.5 322,-239.5 322,-182.5 170,-182.5"/>
<text text-anchor="middle" x="246" y="-227.5" font-family="Helvetica,sans-Serif" font-size="10.00">SDK::FScriptMulticastDelegate</text>
<polyline fill="none" stroke="red" points="170,-220.5 322,-220.5 "/>
<text text-anchor="middle" x="246" y="-208.5" font-family="Helvetica,sans-Serif" font-size="10.00"> </text>
<polyline fill="none" stroke="red" points="170,-201.5 322,-201.5 "/>
<text text-anchor="middle" x="246" y="-189.5" font-family="Helvetica,sans-Serif" font-size="10.00"> </text>
</a>
</g>
</g>
<!-- Node27&#45;&gt;Node1 -->
<g id="edge2" class="edge"><title>Node27&#45;&gt;Node1</title>
<path fill="none" stroke="#404040" d="M246,-182.383C246,-166.244 246,-145.114 246,-124.837"/>
<polygon fill="none" stroke="#404040" points="246,-124.709 242,-118.709 246,-112.709 250,-118.709 246,-124.709"/>
<text text-anchor="middle" x="317" y="-134" font-family="Helvetica,sans-Serif" font-size="10.00"> +OnCanvasRenderTargetUpdate</text>
</g>
<!-- Node28 -->
<g id="node4" class="node"><title>Node28</title>
<g id="a_node4"><a xlink:href="a25667.html" target="_top" xlink:title=" ">
<polygon fill="none" stroke="red" points="351.5,-160.5 351.5,-261.5 470.5,-261.5 470.5,-160.5 351.5,-160.5"/>
<text text-anchor="start" x="359.5" y="-249.5" font-family="Helvetica,sans-Serif" font-size="10.00">SDK::TWeakObjectPtr</text>
<text text-anchor="middle" x="411" y="-238.5" font-family="Helvetica,sans-Serif" font-size="10.00">&lt; class SDK::UWorld &gt;</text>
<polyline fill="none" stroke="red" points="351.5,-231.5 470.5,-231.5 "/>
<text text-anchor="middle" x="411" y="-219.5" font-family="Helvetica,sans-Serif" font-size="10.00"> </text>
<polyline fill="none" stroke="red" points="351.5,-212.5 470.5,-212.5 "/>
<text text-anchor="start" x="359.5" y="-200.5" font-family="Helvetica,sans-Serif" font-size="10.00">+ Get()</text>
<text text-anchor="start" x="359.5" y="-189.5" font-family="Helvetica,sans-Serif" font-size="10.00">+ operator*()</text>
<text text-anchor="start" x="359.5" y="-178.5" font-family="Helvetica,sans-Serif" font-size="10.00">+ operator&#45;&gt;()</text>
<text text-anchor="start" x="359.5" y="-167.5" font-family="Helvetica,sans-Serif" font-size="10.00">+ IsValid()</text>
</a>
</g>
</g>
<!-- Node28&#45;&gt;Node1 -->
<g id="edge3" class="edge"><title>Node28&#45;&gt;Node1</title>
<path fill="none" stroke="#404040" d="M403.804,-160.194C400.552,-149.758 395.836,-139.388 389,-131 375.237,-114.112 356.574,-100.69 337.279,-90.1902"/>
<polygon fill="none" stroke="#404040" points="337.191,-90.1451 330.026,-90.9562 326.521,-84.654 333.687,-83.8429 337.191,-90.1451"/>
<text text-anchor="middle" x="413.5" y="-134" font-family="Helvetica,sans-Serif" font-size="10.00"> +World</text>
</g>
</g>
</svg>
