<?xml version="1.0" encoding="UTF-8" standalone="no"?>
<!DOCTYPE svg PUBLIC "-//W3C//DTD SVG 1.1//EN"
 "http://www.w3.org/Graphics/SVG/1.1/DTD/svg11.dtd">
<!-- Generated by graphviz version 2.38.0 (20140413.2041)
 -->
<!-- Title: SDK::UTexture2D Pages: 1 -->
<svg width="642pt" height="551pt"
 viewBox="0.00 0.00 641.50 551.00" xmlns="http://www.w3.org/2000/svg" xmlns:xlink="http://www.w3.org/1999/xlink">
<g id="graph0" class="graph" transform="scale(1 1) rotate(0) translate(4 547)">
<title>SDK::UTexture2D</title>
<!-- Node1 -->
<g id="node1" class="node"><title>Node1</title>
<g id="a_node1"><a xlink:title=" ">
<polygon fill="#bfbfbf" stroke="black" points="252.5,-138.5 252.5,-338.5 410.5,-338.5 410.5,-138.5 252.5,-138.5"/>
<text text-anchor="middle" x="331.5" y="-326.5" font-family="Helvetica,sans-Serif" font-size="10.00">SDK::UTexture2D</text>
<polyline fill="none" stroke="black" points="252.5,-319.5 410.5,-319.5 "/>
<text text-anchor="start" x="260.5" y="-307.5" font-family="Helvetica,sans-Serif" font-size="10.00">+ RequestedMips</text>
<text text-anchor="start" x="260.5" y="-296.5" font-family="Helvetica,sans-Serif" font-size="10.00">+ ResidentMips</text>
<text text-anchor="start" x="260.5" y="-285.5" font-family="Helvetica,sans-Serif" font-size="10.00">+ StreamingIndex</text>
<text text-anchor="start" x="260.5" y="-274.5" font-family="Helvetica,sans-Serif" font-size="10.00">+ FirstResourceMemMip</text>
<text text-anchor="start" x="260.5" y="-263.5" font-family="Helvetica,sans-Serif" font-size="10.00">+ UnknownData00</text>
<text text-anchor="start" x="260.5" y="-252.5" font-family="Helvetica,sans-Serif" font-size="10.00">+ ImportedSize</text>
<text text-anchor="start" x="260.5" y="-241.5" font-family="Helvetica,sans-Serif" font-size="10.00">+ ForceMipLevelsToBeResident</text>
<text text-anchor="start" x="260.5" y="-230.5" font-family="Helvetica,sans-Serif" font-size="10.00">Timestamp</text>
<text text-anchor="start" x="260.5" y="-219.5" font-family="Helvetica,sans-Serif" font-size="10.00">+ bTemporarilyDisableStreaming</text>
<text text-anchor="start" x="260.5" y="-208.5" font-family="Helvetica,sans-Serif" font-size="10.00">+ bIsStreamable</text>
<text text-anchor="start" x="260.5" y="-197.5" font-family="Helvetica,sans-Serif" font-size="10.00">+ bHasCancelationPending</text>
<text text-anchor="start" x="260.5" y="-186.5" font-family="Helvetica,sans-Serif" font-size="10.00">and 8 more...</text>
<polyline fill="none" stroke="black" points="252.5,-179.5 410.5,-179.5 "/>
<text text-anchor="start" x="260.5" y="-167.5" font-family="Helvetica,sans-Serif" font-size="10.00">+ Blueprint_GetSizeY()</text>
<text text-anchor="start" x="260.5" y="-156.5" font-family="Helvetica,sans-Serif" font-size="10.00">+ Blueprint_GetSizeX()</text>
<text text-anchor="start" x="260.5" y="-145.5" font-family="Helvetica,sans-Serif" font-size="10.00">+ StaticClass()</text>
</a>
</g>
</g>
<!-- Node4 -->
<g id="node3" class="node"><title>Node4</title>
<g id="a_node3"><a xlink:href="a29127.html" target="_top" xlink:title=" ">
<polygon fill="none" stroke="black" points="0,-0.5 0,-101.5 167,-101.5 167,-0.5 0,-0.5"/>
<text text-anchor="start" x="8" y="-89.5" font-family="Helvetica,sans-Serif" font-size="10.00">SDK::UCompressedCanvasRender</text>
<text text-anchor="middle" x="83.5" y="-78.5" font-family="Helvetica,sans-Serif" font-size="10.00">Target2D</text>
<polyline fill="none" stroke="black" points="0,-71.5 167,-71.5 "/>
<text text-anchor="start" x="8" y="-59.5" font-family="Helvetica,sans-Serif" font-size="10.00">+ World</text>
<text text-anchor="start" x="8" y="-48.5" font-family="Helvetica,sans-Serif" font-size="10.00">+ RenderTarget</text>
<text text-anchor="start" x="8" y="-37.5" font-family="Helvetica,sans-Serif" font-size="10.00">+ UnknownData00</text>
<polyline fill="none" stroke="black" points="0,-30.5 167,-30.5 "/>
<text text-anchor="start" x="8" y="-18.5" font-family="Helvetica,sans-Serif" font-size="10.00">+ UpdateResource()</text>
<text text-anchor="start" x="8" y="-7.5" font-family="Helvetica,sans-Serif" font-size="10.00">+ StaticClass()</text>
</a>
</g>
</g>
<!-- Node1&#45;&gt;Node4 -->
<g id="edge2" class="edge"><title>Node1&#45;&gt;Node4</title>
<path fill="none" stroke="midnightblue" d="M244.128,-172.147C213.14,-148.968 178.798,-123.281 149.849,-101.628"/>
<polygon fill="none" stroke="midnightblue" points="242.245,-175.11 252.349,-178.297 246.438,-169.504 242.245,-175.11"/>
</g>
<!-- Node5 -->
<g id="node4" class="node"><title>Node5</title>
<g id="a_node4"><a xlink:href="a30015.html" target="_top" xlink:title=" ">
<polygon fill="none" stroke="black" points="185.5,-22.5 185.5,-79.5 319.5,-79.5 319.5,-22.5 185.5,-22.5"/>
<text text-anchor="middle" x="252.5" y="-67.5" font-family="Helvetica,sans-Serif" font-size="10.00">SDK::ULightMapTexture2D</text>
<polyline fill="none" stroke="black" points="185.5,-60.5 319.5,-60.5 "/>
<text text-anchor="start" x="193.5" y="-48.5" font-family="Helvetica,sans-Serif" font-size="10.00">+ UnknownData00</text>
<polyline fill="none" stroke="black" points="185.5,-41.5 319.5,-41.5 "/>
<text text-anchor="start" x="193.5" y="-29.5" font-family="Helvetica,sans-Serif" font-size="10.00">+ StaticClass()</text>
</a>
</g>
</g>
<!-- Node1&#45;&gt;Node5 -->
<g id="edge3" class="edge"><title>Node1&#45;&gt;Node5</title>
<path fill="none" stroke="midnightblue" d="M285.16,-128.69C277.438,-110.558 270.076,-93.2708 264.303,-79.7148"/>
<polygon fill="none" stroke="midnightblue" points="282.086,-130.404 289.225,-138.233 288.527,-127.661 282.086,-130.404"/>
</g>
<!-- Node6 -->
<g id="node5" class="node"><title>Node6</title>
<g id="a_node5"><a xlink:href="a30019.html" target="_top" xlink:title=" ">
<polygon fill="none" stroke="black" points="338,-17 338,-85 485,-85 485,-17 338,-17"/>
<text text-anchor="middle" x="411.5" y="-73" font-family="Helvetica,sans-Serif" font-size="10.00">SDK::UShadowMapTexture2D</text>
<polyline fill="none" stroke="black" points="338,-66 485,-66 "/>
<text text-anchor="start" x="346" y="-54" font-family="Helvetica,sans-Serif" font-size="10.00">+ ShadowmapFlags</text>
<text text-anchor="start" x="346" y="-43" font-family="Helvetica,sans-Serif" font-size="10.00">+ UnknownData00</text>
<polyline fill="none" stroke="black" points="338,-36 485,-36 "/>
<text text-anchor="start" x="346" y="-24" font-family="Helvetica,sans-Serif" font-size="10.00">+ StaticClass()</text>
</a>
</g>
</g>
<!-- Node1&#45;&gt;Node6 -->
<g id="edge4" class="edge"><title>Node1&#45;&gt;Node6</title>
<path fill="none" stroke="midnightblue" d="M378.35,-128.866C385.169,-113.055 391.714,-97.8795 397.16,-85.2507"/>
<polygon fill="none" stroke="midnightblue" points="375.057,-127.665 374.31,-138.233 381.484,-130.437 375.057,-127.665"/>
</g>
<!-- Node7 -->
<g id="node6" class="node"><title>Node7</title>
<g id="a_node6"><a xlink:href="a30023.html" target="_top" xlink:title=" ">
<polygon fill="none" stroke="black" points="503.5,-17 503.5,-85 633.5,-85 633.5,-17 503.5,-17"/>
<text text-anchor="middle" x="568.5" y="-73" font-family="Helvetica,sans-Serif" font-size="10.00">SDK::UTextureLightProfile</text>
<polyline fill="none" stroke="black" points="503.5,-66 633.5,-66 "/>
<text text-anchor="start" x="511.5" y="-54" font-family="Helvetica,sans-Serif" font-size="10.00">+ Brightness</text>
<text text-anchor="start" x="511.5" y="-43" font-family="Helvetica,sans-Serif" font-size="10.00">+ TextureMultiplier</text>
<polyline fill="none" stroke="black" points="503.5,-36 633.5,-36 "/>
<text text-anchor="start" x="511.5" y="-24" font-family="Helvetica,sans-Serif" font-size="10.00">+ StaticClass()</text>
</a>
</g>
</g>
<!-- Node1&#45;&gt;Node7 -->
<g id="edge5" class="edge"><title>Node1&#45;&gt;Node7</title>
<path fill="none" stroke="midnightblue" d="M418.98,-169.029C455.616,-140.354 496.508,-108.348 526.256,-85.0647"/>
<polygon fill="none" stroke="midnightblue" points="416.465,-166.554 410.747,-175.473 420.779,-172.066 416.465,-166.554"/>
</g>
<!-- Node2 -->
<g id="node2" class="node"><title>Node2</title>
<g id="a_node2"><a xlink:href="a26695.html" target="_top" xlink:title=" ">
<polygon fill="none" stroke="red" points="264.5,-375.5 264.5,-542.5 398.5,-542.5 398.5,-375.5 264.5,-375.5"/>
<text text-anchor="middle" x="331.5" y="-530.5" font-family="Helvetica,sans-Serif" font-size="10.00">SDK::UTexture</text>
<polyline fill="none" stroke="red" points="264.5,-523.5 398.5,-523.5 "/>
<text text-anchor="start" x="272.5" y="-511.5" font-family="Helvetica,sans-Serif" font-size="10.00">+ LODBias</text>
<text text-anchor="start" x="272.5" y="-500.5" font-family="Helvetica,sans-Serif" font-size="10.00">+ NumCinematicMipLevels</text>
<text text-anchor="start" x="272.5" y="-489.5" font-family="Helvetica,sans-Serif" font-size="10.00">+ SRGB</text>
<text text-anchor="start" x="272.5" y="-478.5" font-family="Helvetica,sans-Serif" font-size="10.00">+ NeverStream</text>
<text text-anchor="start" x="272.5" y="-467.5" font-family="Helvetica,sans-Serif" font-size="10.00">+ bNoTiling</text>
<text text-anchor="start" x="272.5" y="-456.5" font-family="Helvetica,sans-Serif" font-size="10.00">+ bUseCinematicMipLevels</text>
<text text-anchor="start" x="272.5" y="-445.5" font-family="Helvetica,sans-Serif" font-size="10.00">+ CompressionNone</text>
<text text-anchor="start" x="272.5" y="-434.5" font-family="Helvetica,sans-Serif" font-size="10.00">+ bUAV</text>
<text text-anchor="start" x="272.5" y="-423.5" font-family="Helvetica,sans-Serif" font-size="10.00">+ UnknownData00</text>
<text text-anchor="start" x="272.5" y="-412.5" font-family="Helvetica,sans-Serif" font-size="10.00">+ MaxQualityReduction</text>
<text text-anchor="start" x="272.5" y="-401.5" font-family="Helvetica,sans-Serif" font-size="10.00">and 11 more...</text>
<polyline fill="none" stroke="red" points="264.5,-394.5 398.5,-394.5 "/>
<text text-anchor="start" x="272.5" y="-382.5" font-family="Helvetica,sans-Serif" font-size="10.00">+ StaticClass()</text>
</a>
</g>
</g>
<!-- Node2&#45;&gt;Node1 -->
<g id="edge1" class="edge"><title>Node2&#45;&gt;Node1</title>
<path fill="none" stroke="midnightblue" d="M331.5,-365.206C331.5,-356.458 331.5,-347.567 331.5,-338.763"/>
<polygon fill="none" stroke="midnightblue" points="328,-365.394 331.5,-375.395 335,-365.395 328,-365.394"/>
</g>
</g>
</svg>
