<?xml version="1.0" encoding="UTF-8" standalone="no"?>
<!DOCTYPE svg PUBLIC "-//W3C//DTD SVG 1.1//EN"
 "http://www.w3.org/Graphics/SVG/1.1/DTD/svg11.dtd">
<!-- Generated by graphviz version 2.38.0 (20140413.2041)
 -->
<!-- Title: SDK::UParticleModuleLocation_Seeded Pages: 1 -->
<svg width="332pt" height="182pt"
 viewBox="0.00 0.00 332.00 182.00" xmlns="http://www.w3.org/2000/svg" xmlns:xlink="http://www.w3.org/1999/xlink">
<g id="graph0" class="graph" transform="scale(1 1) rotate(0) translate(4 178)">
<title>SDK::UParticleModuleLocation_Seeded</title>
<!-- Node1 -->
<g id="node1" class="node"><title>Node1</title>
<g id="a_node1"><a xlink:title=" ">
<polygon fill="#bfbfbf" stroke="black" points="85,-0.5 85,-68.5 236,-68.5 236,-0.5 85,-0.5"/>
<text text-anchor="start" x="93" y="-56.5" font-family="Helvetica,sans-Serif" font-size="10.00">SDK::UParticleModuleLocation</text>
<text text-anchor="middle" x="160.5" y="-45.5" font-family="Helvetica,sans-Serif" font-size="10.00">_Seeded</text>
<polyline fill="none" stroke="black" points="85,-38.5 236,-38.5 "/>
<text text-anchor="middle" x="160.5" y="-26.5" font-family="Helvetica,sans-Serif" font-size="10.00"> </text>
<polyline fill="none" stroke="black" points="85,-19.5 236,-19.5 "/>
<text text-anchor="start" x="93" y="-7.5" font-family="Helvetica,sans-Serif" font-size="10.00">+ StaticClass()</text>
</a>
</g>
</g>
<!-- Node2 -->
<g id="node2" class="node"><title>Node2</title>
<g id="a_node2"><a xlink:href="a29187.html" target="_top" xlink:title=" ">
<polygon fill="none" stroke="red" points="0,-116.5 0,-173.5 151,-173.5 151,-116.5 0,-116.5"/>
<text text-anchor="middle" x="75.5" y="-161.5" font-family="Helvetica,sans-Serif" font-size="10.00">SDK::UParticleModuleLocation</text>
<polyline fill="none" stroke="red" points="0,-154.5 151,-154.5 "/>
<text text-anchor="middle" x="75.5" y="-142.5" font-family="Helvetica,sans-Serif" font-size="10.00"> </text>
<polyline fill="none" stroke="red" points="0,-135.5 151,-135.5 "/>
<text text-anchor="start" x="8" y="-123.5" font-family="Helvetica,sans-Serif" font-size="10.00">+ StaticClass()</text>
</a>
</g>
</g>
<!-- Node2&#45;&gt;Node1 -->
<g id="edge1" class="edge"><title>Node2&#45;&gt;Node1</title>
<path fill="none" stroke="midnightblue" d="M103.551,-108.194C113.57,-95.4046 124.806,-81.0625 134.633,-68.5186"/>
<polygon fill="none" stroke="midnightblue" points="100.581,-106.31 97.169,-116.34 106.091,-110.627 100.581,-106.31"/>
</g>
<!-- Node24 -->
<g id="node3" class="node"><title>Node24</title>
<g id="a_node3"><a xlink:href="a31031.html" target="_top" xlink:title=" ">
<polygon fill="none" stroke="red" points="169,-116.5 169,-173.5 324,-173.5 324,-116.5 169,-116.5"/>
<text text-anchor="middle" x="246.5" y="-161.5" font-family="Helvetica,sans-Serif" font-size="10.00">SDK::FParticleRandomSeedInfo</text>
<polyline fill="none" stroke="red" points="169,-154.5 324,-154.5 "/>
<text text-anchor="middle" x="246.5" y="-142.5" font-family="Helvetica,sans-Serif" font-size="10.00"> </text>
<polyline fill="none" stroke="red" points="169,-135.5 324,-135.5 "/>
<text text-anchor="middle" x="246.5" y="-123.5" font-family="Helvetica,sans-Serif" font-size="10.00"> </text>
</a>
</g>
</g>
<!-- Node24&#45;&gt;Node1 -->
<g id="edge2" class="edge"><title>Node24&#45;&gt;Node1</title>
<path fill="none" stroke="#404040" d="M224.576,-116.34C215.376,-104.733 204.465,-90.9678 194.279,-78.1168"/>
<polygon fill="none" stroke="#404040" points="194.125,-77.9227 187.264,-75.7053 186.671,-68.5186 193.533,-70.736 194.125,-77.9227"/>
<text text-anchor="middle" x="251" y="-90" font-family="Helvetica,sans-Serif" font-size="10.00"> +RandomSeedInfo</text>
</g>
</g>
</svg>
