<?xml version="1.0" encoding="UTF-8" standalone="no"?>
<!DOCTYPE svg PUBLIC "-//W3C//DTD SVG 1.1//EN"
 "http://www.w3.org/Graphics/SVG/1.1/DTD/svg11.dtd">
<!-- Generated by graphviz version 2.38.0 (20140413.2041)
 -->
<!-- Title: SDK::UParticleModuleMeshRotation Pages: 1 -->
<svg width="434pt" height="193pt"
 viewBox="0.00 0.00 433.50 193.00" xmlns="http://www.w3.org/2000/svg" xmlns:xlink="http://www.w3.org/1999/xlink">
<g id="graph0" class="graph" transform="scale(1 1) rotate(0) translate(4 189)">
<title>SDK::UParticleModuleMeshRotation</title>
<!-- Node1 -->
<g id="node1" class="node"><title>Node1</title>
<g id="a_node1"><a xlink:title=" ">
<polygon fill="#bfbfbf" stroke="black" points="194.5,-0.5 194.5,-68.5 332.5,-68.5 332.5,-0.5 194.5,-0.5"/>
<text text-anchor="start" x="202.5" y="-56.5" font-family="Helvetica,sans-Serif" font-size="10.00">SDK::UParticleModuleMesh</text>
<text text-anchor="middle" x="263.5" y="-45.5" font-family="Helvetica,sans-Serif" font-size="10.00">Rotation</text>
<polyline fill="none" stroke="black" points="194.5,-38.5 332.5,-38.5 "/>
<text text-anchor="middle" x="263.5" y="-26.5" font-family="Helvetica,sans-Serif" font-size="10.00"> </text>
<polyline fill="none" stroke="black" points="194.5,-19.5 332.5,-19.5 "/>
<text text-anchor="start" x="202.5" y="-7.5" font-family="Helvetica,sans-Serif" font-size="10.00">+ StaticClass()</text>
</a>
</g>
</g>
<!-- Node2 -->
<g id="node2" class="node"><title>Node2</title>
<g id="a_node2"><a xlink:href="a29323.html" target="_top" xlink:title=" ">
<polygon fill="none" stroke="red" points="0,-127.5 0,-184.5 173,-184.5 173,-127.5 0,-127.5"/>
<text text-anchor="middle" x="86.5" y="-172.5" font-family="Helvetica,sans-Serif" font-size="10.00">SDK::UParticleModuleRotationBase</text>
<polyline fill="none" stroke="red" points="0,-165.5 173,-165.5 "/>
<text text-anchor="middle" x="86.5" y="-153.5" font-family="Helvetica,sans-Serif" font-size="10.00"> </text>
<polyline fill="none" stroke="red" points="0,-146.5 173,-146.5 "/>
<text text-anchor="start" x="8" y="-134.5" font-family="Helvetica,sans-Serif" font-size="10.00">+ StaticClass()</text>
</a>
</g>
</g>
<!-- Node2&#45;&gt;Node1 -->
<g id="edge1" class="edge"><title>Node2&#45;&gt;Node1</title>
<path fill="none" stroke="midnightblue" d="M136.001,-121.58C160.522,-105.025 190.036,-85.0988 214.489,-68.5891"/>
<polygon fill="none" stroke="midnightblue" points="133.882,-118.788 127.552,-127.284 137.799,-124.589 133.882,-118.788"/>
</g>
<!-- Node16 -->
<g id="node3" class="node"><title>Node16</title>
<g id="a_node3"><a xlink:href="a31019.html" target="_top" xlink:title=" ">
<polygon fill="none" stroke="red" points="191,-127.5 191,-184.5 336,-184.5 336,-127.5 191,-127.5"/>
<text text-anchor="middle" x="263.5" y="-172.5" font-family="Helvetica,sans-Serif" font-size="10.00">SDK::FRawDistributionVector</text>
<polyline fill="none" stroke="red" points="191,-165.5 336,-165.5 "/>
<text text-anchor="middle" x="263.5" y="-153.5" font-family="Helvetica,sans-Serif" font-size="10.00"> </text>
<polyline fill="none" stroke="red" points="191,-146.5 336,-146.5 "/>
<text text-anchor="middle" x="263.5" y="-134.5" font-family="Helvetica,sans-Serif" font-size="10.00"> </text>
</a>
</g>
</g>
<!-- Node16&#45;&gt;Node1 -->
<g id="edge2" class="edge"><title>Node16&#45;&gt;Node1</title>
<path fill="none" stroke="#404040" d="M263.5,-127.284C263.5,-113.465 263.5,-96.4009 263.5,-80.7494"/>
<polygon fill="none" stroke="#404040" points="263.5,-80.5891 259.5,-74.5891 263.5,-68.5891 267.5,-74.589 263.5,-80.5891"/>
<text text-anchor="middle" x="297" y="-95.5" font-family="Helvetica,sans-Serif" font-size="10.00"> +StartRotation</text>
</g>
<!-- Node13 -->
<g id="node4" class="node"><title>Node13</title>
<g id="a_node4"><a xlink:title=" ">
<polygon fill="none" stroke="#bfbfbf" points="354,-127.5 354,-184.5 389,-184.5 389,-127.5 354,-127.5"/>
<text text-anchor="middle" x="371.5" y="-172.5" font-family="Helvetica,sans-Serif" font-size="10.00">char</text>
<polyline fill="none" stroke="#bfbfbf" points="354,-165.5 389,-165.5 "/>
<text text-anchor="middle" x="371.5" y="-153.5" font-family="Helvetica,sans-Serif" font-size="10.00"> </text>
<polyline fill="none" stroke="#bfbfbf" points="354,-146.5 389,-146.5 "/>
<text text-anchor="middle" x="371.5" y="-134.5" font-family="Helvetica,sans-Serif" font-size="10.00"> </text>
</a>
</g>
</g>
<!-- Node13&#45;&gt;Node1 -->
<g id="edge3" class="edge"><title>Node13&#45;&gt;Node1</title>
<path fill="none" stroke="#404040" d="M359.961,-127.411C353.646,-114.293 344.967,-98.9148 334.5,-87 331.367,-83.4338 327.945,-79.9726 324.349,-76.6435"/>
<polygon fill="none" stroke="#404040" points="324.196,-76.5106 317.042,-75.6076 315.123,-68.6563 322.278,-69.5593 324.196,-76.5106"/>
<text text-anchor="middle" x="387" y="-101" font-family="Helvetica,sans-Serif" font-size="10.00"> +bInheritParent</text>
<text text-anchor="middle" x="387" y="-90" font-family="Helvetica,sans-Serif" font-size="10.00">+UnknownData00</text>
</g>
</g>
</svg>
