<?xml version="1.0" encoding="UTF-8" standalone="no"?>
<!DOCTYPE svg PUBLIC "-//W3C//DTD SVG 1.1//EN"
 "http://www.w3.org/Graphics/SVG/1.1/DTD/svg11.dtd">
<!-- Generated by graphviz version 2.38.0 (20140413.2041)
 -->
<!-- Title: SDK::UParticleModuleVectorFieldBase Pages: 1 -->
<!--zoomable 496 -->
<svg id="main" version="1.1" xmlns="http://www.w3.org/2000/svg" xmlns:xlink="http://www.w3.org/1999/xlink" xml:space="preserve" onload="init(evt)">
<style type="text/css"><![CDATA[
.edge:hover path { stroke: red; }
.edge:hover polygon { stroke: red; fill: red; }
]]></style>
<script type="text/javascript"><![CDATA[
var edges = document.getElementsByTagName('g');
if (edges && edges.length) {
  for (var i=0;i<edges.length;i++) {
    if (edges[i].id.substr(0,4)=='edge') {
      edges[i].setAttribute('class','edge');
    }
  }
}
]]></script>
        <defs>
                <circle id="rim" cx="0" cy="0" r="7"/>
                <circle id="rim2" cx="0" cy="0" r="3.5"/>
                <g id="zoomPlus">
                        <use xlink:href="#rim" fill="#404040">
                                <set attributeName="fill" to="#808080" begin="zoomplus.mouseover" end="zoomplus.mouseout"/>
                        </use>
                        <path d="M-4,0h8M0,-4v8" fill="none" stroke="white" stroke-width="1.5" pointer-events="none"/>
                </g>
                <g id="zoomMin">
                        <use xlink:href="#rim" fill="#404040">
                                <set attributeName="fill" to="#808080" begin="zoomminus.mouseover" end="zoomminus.mouseout"/>
                        </use>
                        <path d="M-4,0h8" fill="none" stroke="white" stroke-width="1.5" pointer-events="none"/>
                </g>
                <g id="dirArrow">
                        <path fill="none" stroke="white" stroke-width="1.5" d="M0,-3.0v7 M-2.5,-0.5L0,-3.0L2.5,-0.5"/>
                </g>
               <g id="resetDef">
                       <use xlink:href="#rim2" fill="#404040">
                               <set attributeName="fill" to="#808080" begin="reset.mouseover" end="reset.mouseout"/>
                       </use>
               </g>
        </defs>

<script type="text/javascript">
var viewWidth = 964;
var viewHeight = 496;
var sectionId = 'dynsection-0';
</script>
<script xlink:href="svgpan.js"/>
<svg id="graph" class="graph">
<g id="viewport">
<title>SDK::UParticleModuleVectorFieldBase</title>
<!-- Node1 -->
<g id="node1" class="node"><title>Node1</title>
<g id="a_node1"><a xlink:title=" ">
<polygon fill="#bfbfbf" stroke="black" points="410,-215.5 410,-283.5 553,-283.5 553,-215.5 410,-215.5"/>
<text text-anchor="start" x="418" y="-271.5" font-family="Helvetica,sans-Serif" font-size="10.00">SDK::UParticleModuleVector</text>
<text text-anchor="middle" x="481.5" y="-260.5" font-family="Helvetica,sans-Serif" font-size="10.00">FieldBase</text>
<polyline fill="none" stroke="black" points="410,-253.5 553,-253.5 "/>
<text text-anchor="middle" x="481.5" y="-241.5" font-family="Helvetica,sans-Serif" font-size="10.00"> </text>
<polyline fill="none" stroke="black" points="410,-234.5 553,-234.5 "/>
<text text-anchor="start" x="418" y="-222.5" font-family="Helvetica,sans-Serif" font-size="10.00">+ StaticClass()</text>
</a>
</g>
</g>
<!-- Node4 -->
<g id="node3" class="node"><title>Node4</title>
<g id="a_node3"><a xlink:href="a29475.html" target="_top" xlink:title=" ">
<polygon fill="none" stroke="black" points="0,-28 0,-151 145,-151 145,-28 0,-28"/>
<text text-anchor="start" x="8" y="-139" font-family="Helvetica,sans-Serif" font-size="10.00">SDK::UParticleModuleVector</text>
<text text-anchor="middle" x="72.5" y="-128" font-family="Helvetica,sans-Serif" font-size="10.00">FieldGlobal</text>
<polyline fill="none" stroke="black" points="0,-121 145,-121 "/>
<text text-anchor="start" x="8" y="-109" font-family="Helvetica,sans-Serif" font-size="10.00">+ bOverrideGlobalVectorField</text>
<text text-anchor="start" x="8" y="-98" font-family="Helvetica,sans-Serif" font-size="10.00">Tightness</text>
<text text-anchor="start" x="8" y="-87" font-family="Helvetica,sans-Serif" font-size="10.00">+ UnknownData00</text>
<text text-anchor="start" x="8" y="-76" font-family="Helvetica,sans-Serif" font-size="10.00">+ GlobalVectorFieldScale</text>
<text text-anchor="start" x="8" y="-65" font-family="Helvetica,sans-Serif" font-size="10.00">+ GlobalVectorFieldTightness</text>
<text text-anchor="start" x="8" y="-54" font-family="Helvetica,sans-Serif" font-size="10.00">+ UnknownData01</text>
<polyline fill="none" stroke="black" points="0,-47 145,-47 "/>
<text text-anchor="start" x="8" y="-35" font-family="Helvetica,sans-Serif" font-size="10.00">+ StaticClass()</text>
</a>
</g>
</g>
<!-- Node1&#45;&gt;Node4 -->
<g id="edge2" class="edge"><title>Node1&#45;&gt;Node4</title>
<path fill="none" stroke="midnightblue" d="M399.838,-245.035C330.309,-238.972 229.847,-222.633 153.5,-179 140.842,-171.766 129.049,-161.87 118.596,-151.311"/>
<polygon fill="none" stroke="midnightblue" points="399.613,-248.528 409.865,-245.857 400.185,-241.551 399.613,-248.528"/>
</g>
<!-- Node5 -->
<g id="node4" class="node"><title>Node5</title>
<g id="a_node4"><a xlink:href="a29479.html" target="_top" xlink:title=" ">
<polygon fill="none" stroke="black" points="163,-0.5 163,-178.5 312,-178.5 312,-0.5 163,-0.5"/>
<text text-anchor="start" x="171" y="-166.5" font-family="Helvetica,sans-Serif" font-size="10.00">SDK::UParticleModuleVector</text>
<text text-anchor="middle" x="237.5" y="-155.5" font-family="Helvetica,sans-Serif" font-size="10.00">FieldLocal</text>
<polyline fill="none" stroke="black" points="163,-148.5 312,-148.5 "/>
<text text-anchor="start" x="171" y="-136.5" font-family="Helvetica,sans-Serif" font-size="10.00">+ VectorField</text>
<text text-anchor="start" x="171" y="-125.5" font-family="Helvetica,sans-Serif" font-size="10.00">+ RelativeTranslation</text>
<text text-anchor="start" x="171" y="-114.5" font-family="Helvetica,sans-Serif" font-size="10.00">+ RelativeRotation</text>
<text text-anchor="start" x="171" y="-103.5" font-family="Helvetica,sans-Serif" font-size="10.00">+ RelativeScale3D</text>
<text text-anchor="start" x="171" y="-92.5" font-family="Helvetica,sans-Serif" font-size="10.00">+ Intensity</text>
<text text-anchor="start" x="171" y="-81.5" font-family="Helvetica,sans-Serif" font-size="10.00">+ Tightness</text>
<text text-anchor="start" x="171" y="-70.5" font-family="Helvetica,sans-Serif" font-size="10.00">+ bIgnoreComponentTransform</text>
<text text-anchor="start" x="171" y="-59.5" font-family="Helvetica,sans-Serif" font-size="10.00">+ bTileX</text>
<text text-anchor="start" x="171" y="-48.5" font-family="Helvetica,sans-Serif" font-size="10.00">+ bTileY</text>
<text text-anchor="start" x="171" y="-37.5" font-family="Helvetica,sans-Serif" font-size="10.00">+ bTileZ</text>
<text text-anchor="start" x="171" y="-26.5" font-family="Helvetica,sans-Serif" font-size="10.00">+ UnknownData00</text>
<polyline fill="none" stroke="black" points="163,-19.5 312,-19.5 "/>
<text text-anchor="start" x="171" y="-7.5" font-family="Helvetica,sans-Serif" font-size="10.00">+ StaticClass()</text>
</a>
</g>
</g>
<!-- Node1&#45;&gt;Node5 -->
<g id="edge3" class="edge"><title>Node1&#45;&gt;Node5</title>
<path fill="none" stroke="midnightblue" d="M400.338,-221.04C373.664,-210.084 344.677,-195.987 320.5,-179 317.656,-177.002 314.834,-174.894 312.043,-172.698"/>
<polygon fill="none" stroke="midnightblue" points="399.08,-224.306 409.664,-224.783 401.688,-217.81 399.08,-224.306"/>
</g>
<!-- Node6 -->
<g id="node5" class="node"><title>Node6</title>
<g id="a_node5"><a xlink:href="a29483.html" target="_top" xlink:title=" ">
<polygon fill="none" stroke="black" points="330,-50 330,-129 473,-129 473,-50 330,-50"/>
<text text-anchor="start" x="338" y="-117" font-family="Helvetica,sans-Serif" font-size="10.00">SDK::UParticleModuleVector</text>
<text text-anchor="middle" x="401.5" y="-106" font-family="Helvetica,sans-Serif" font-size="10.00">FieldRotation</text>
<polyline fill="none" stroke="black" points="330,-99 473,-99 "/>
<text text-anchor="start" x="338" y="-87" font-family="Helvetica,sans-Serif" font-size="10.00">+ MinInitialRotation</text>
<text text-anchor="start" x="338" y="-76" font-family="Helvetica,sans-Serif" font-size="10.00">+ MaxInitialRotation</text>
<polyline fill="none" stroke="black" points="330,-69 473,-69 "/>
<text text-anchor="start" x="338" y="-57" font-family="Helvetica,sans-Serif" font-size="10.00">+ StaticClass()</text>
</a>
</g>
</g>
<!-- Node1&#45;&gt;Node6 -->
<g id="edge4" class="edge"><title>Node1&#45;&gt;Node6</title>
<path fill="none" stroke="midnightblue" d="M460.068,-206.171C447.937,-182.213 432.878,-152.472 421.068,-129.146"/>
<polygon fill="none" stroke="midnightblue" points="457.09,-208.037 464.729,-215.378 463.335,-204.875 457.09,-208.037"/>
</g>
<!-- Node7 -->
<g id="node6" class="node"><title>Node7</title>
<g id="a_node6"><a xlink:href="a29487.html" target="_top" xlink:title=" ">
<polygon fill="none" stroke="black" points="491,-50 491,-129 634,-129 634,-50 491,-50"/>
<text text-anchor="start" x="499" y="-117" font-family="Helvetica,sans-Serif" font-size="10.00">SDK::UParticleModuleVector</text>
<text text-anchor="middle" x="562.5" y="-106" font-family="Helvetica,sans-Serif" font-size="10.00">FieldRotationRate</text>
<polyline fill="none" stroke="black" points="491,-99 634,-99 "/>
<text text-anchor="start" x="499" y="-87" font-family="Helvetica,sans-Serif" font-size="10.00">+ RotationRate</text>
<text text-anchor="start" x="499" y="-76" font-family="Helvetica,sans-Serif" font-size="10.00">+ UnknownData00</text>
<polyline fill="none" stroke="black" points="491,-69 634,-69 "/>
<text text-anchor="start" x="499" y="-57" font-family="Helvetica,sans-Serif" font-size="10.00">+ StaticClass()</text>
</a>
</g>
</g>
<!-- Node1&#45;&gt;Node7 -->
<g id="edge5" class="edge"><title>Node1&#45;&gt;Node7</title>
<path fill="none" stroke="midnightblue" d="M503.2,-206.171C515.483,-182.213 530.73,-152.472 542.688,-129.146"/>
<polygon fill="none" stroke="midnightblue" points="499.928,-204.883 498.48,-215.378 506.157,-208.076 499.928,-204.883"/>
</g>
<!-- Node8 -->
<g id="node7" class="node"><title>Node8</title>
<g id="a_node7"><a xlink:href="a29491.html" target="_top" xlink:title=" ">
<polygon fill="none" stroke="black" points="652,-55.5 652,-123.5 795,-123.5 795,-55.5 652,-55.5"/>
<text text-anchor="start" x="660" y="-111.5" font-family="Helvetica,sans-Serif" font-size="10.00">SDK::UParticleModuleVector</text>
<text text-anchor="middle" x="723.5" y="-100.5" font-family="Helvetica,sans-Serif" font-size="10.00">FieldScale</text>
<polyline fill="none" stroke="black" points="652,-93.5 795,-93.5 "/>
<text text-anchor="start" x="660" y="-81.5" font-family="Helvetica,sans-Serif" font-size="10.00">+ VectorFieldScale</text>
<polyline fill="none" stroke="black" points="652,-74.5 795,-74.5 "/>
<text text-anchor="start" x="660" y="-62.5" font-family="Helvetica,sans-Serif" font-size="10.00">+ StaticClass()</text>
</a>
</g>
</g>
<!-- Node1&#45;&gt;Node8 -->
<g id="edge6" class="edge"><title>Node1&#45;&gt;Node8</title>
<path fill="none" stroke="midnightblue" d="M562.612,-221.669C589.67,-210.697 619.112,-196.431 643.5,-179 664.9,-163.705 684.756,-141.805 699.333,-123.617"/>
<polygon fill="none" stroke="midnightblue" points="561.163,-218.479 553.153,-225.413 563.739,-224.987 561.163,-218.479"/>
</g>
<!-- Node9 -->
<g id="node8" class="node"><title>Node9</title>
<g id="a_node8"><a xlink:href="a29495.html" target="_top" xlink:title=" ">
<polygon fill="none" stroke="black" points="813,-55.5 813,-123.5 956,-123.5 956,-55.5 813,-55.5"/>
<text text-anchor="start" x="821" y="-111.5" font-family="Helvetica,sans-Serif" font-size="10.00">SDK::UParticleModuleVector</text>
<text text-anchor="middle" x="884.5" y="-100.5" font-family="Helvetica,sans-Serif" font-size="10.00">FieldScaleOverLife</text>
<polyline fill="none" stroke="black" points="813,-93.5 956,-93.5 "/>
<text text-anchor="start" x="821" y="-81.5" font-family="Helvetica,sans-Serif" font-size="10.00">+ VectorFieldScaleOverLife</text>
<polyline fill="none" stroke="black" points="813,-74.5 956,-74.5 "/>
<text text-anchor="start" x="821" y="-62.5" font-family="Helvetica,sans-Serif" font-size="10.00">+ StaticClass()</text>
</a>
</g>
</g>
<!-- Node1&#45;&gt;Node9 -->
<g id="edge7" class="edge"><title>Node1&#45;&gt;Node9</title>
<path fill="none" stroke="midnightblue" d="M563.389,-244.764C631.849,-238.514 729.976,-222.054 804.5,-179 827.814,-165.531 848.08,-142.92 862.381,-123.925"/>
<polygon fill="none" stroke="midnightblue" points="562.752,-241.306 553.088,-245.648 563.351,-248.28 562.752,-241.306"/>
</g>
<!-- Node2 -->
<g id="node2" class="node"><title>Node2</title>
<g id="a_node2"><a xlink:href="a29011.html" target="_top" xlink:title=" ">
<polygon fill="none" stroke="red" points="415,-320.5 415,-487.5 548,-487.5 548,-320.5 415,-320.5"/>
<text text-anchor="middle" x="481.5" y="-475.5" font-family="Helvetica,sans-Serif" font-size="10.00">SDK::UParticleModule</text>
<polyline fill="none" stroke="red" points="415,-468.5 548,-468.5 "/>
<text text-anchor="start" x="423" y="-456.5" font-family="Helvetica,sans-Serif" font-size="10.00">+ bSpawnModule</text>
<text text-anchor="start" x="423" y="-445.5" font-family="Helvetica,sans-Serif" font-size="10.00">+ bUpdateModule</text>
<text text-anchor="start" x="423" y="-434.5" font-family="Helvetica,sans-Serif" font-size="10.00">+ bFinalUpdateModule</text>
<text text-anchor="start" x="423" y="-423.5" font-family="Helvetica,sans-Serif" font-size="10.00">+ bUpdateForGPUEmitter</text>
<text text-anchor="start" x="423" y="-412.5" font-family="Helvetica,sans-Serif" font-size="10.00">+ bCurvesAsColor</text>
<text text-anchor="start" x="423" y="-401.5" font-family="Helvetica,sans-Serif" font-size="10.00">+ b3DDrawMode</text>
<text text-anchor="start" x="423" y="-390.5" font-family="Helvetica,sans-Serif" font-size="10.00">+ bSupported3DDrawMode</text>
<text text-anchor="start" x="423" y="-379.5" font-family="Helvetica,sans-Serif" font-size="10.00">+ bEnabled</text>
<text text-anchor="start" x="423" y="-368.5" font-family="Helvetica,sans-Serif" font-size="10.00">+ bEditable</text>
<text text-anchor="start" x="423" y="-357.5" font-family="Helvetica,sans-Serif" font-size="10.00">+ LODDuplicate</text>
<text text-anchor="start" x="423" y="-346.5" font-family="Helvetica,sans-Serif" font-size="10.00">and 7 more...</text>
<polyline fill="none" stroke="red" points="415,-339.5 548,-339.5 "/>
<text text-anchor="start" x="423" y="-327.5" font-family="Helvetica,sans-Serif" font-size="10.00">+ StaticClass()</text>
</a>
</g>
</g>
<!-- Node2&#45;&gt;Node1 -->
<g id="edge1" class="edge"><title>Node2&#45;&gt;Node1</title>
<path fill="none" stroke="midnightblue" d="M481.5,-309.895C481.5,-300.631 481.5,-291.717 481.5,-283.737"/>
<polygon fill="none" stroke="midnightblue" points="478,-310.056 481.5,-320.056 485,-310.056 478,-310.056"/>
</g>
</g>
</svg>
        <g id="navigator" transform="translate(0 0)" fill="#404254">
                <rect fill="#f2f5e9" fill-opacity="0.5" stroke="#606060" stroke-width=".5" x="0" y="0" width="60" height="60"/>
                <use id="zoomplus" xlink:href="#zoomPlus" x="17" y="9" onmousedown="handleZoom(evt,'in')"/>
                <use id="zoomminus" xlink:href="#zoomMin" x="42" y="9" onmousedown="handleZoom(evt,'out')"/>
                <use id="reset" xlink:href="#resetDef" x="30" y="36" onmousedown="handleReset()"/>
                <g id="arrowUp" xlink:href="#dirArrow" transform="translate(30 24)" onmousedown="handlePan(0,-1)">
                  <use xlink:href="#rim" fill="#404040">
                        <set attributeName="fill" to="#808080" begin="arrowUp.mouseover" end="arrowUp.mouseout"/>
                  </use>
                  <path fill="none" stroke="white" stroke-width="1.5" d="M0,-3.0v7 M-2.5,-0.5L0,-3.0L2.5,-0.5"/>
                </g>
                <g id="arrowRight" xlink:href="#dirArrow" transform="rotate(90) translate(36 -43)" onmousedown="handlePan(1,0)">
                  <use xlink:href="#rim" fill="#404040">
                        <set attributeName="fill" to="#808080" begin="arrowRight.mouseover" end="arrowRight.mouseout"/>
                  </use>
                  <path fill="none" stroke="white" stroke-width="1.5" d="M0,-3.0v7 M-2.5,-0.5L0,-3.0L2.5,-0.5"/>
                </g>
                <g id="arrowDown" xlink:href="#dirArrow" transform="rotate(180) translate(-30 -48)" onmousedown="handlePan(0,1)">
                  <use xlink:href="#rim" fill="#404040">
                        <set attributeName="fill" to="#808080" begin="arrowDown.mouseover" end="arrowDown.mouseout"/>
                  </use>
                  <path fill="none" stroke="white" stroke-width="1.5" d="M0,-3.0v7 M-2.5,-0.5L0,-3.0L2.5,-0.5"/>
                </g>
                <g id="arrowLeft" xlink:href="#dirArrow" transform="rotate(270) translate(-36 17)" onmousedown="handlePan(-1,0)">
                  <use xlink:href="#rim" fill="#404040">
                        <set attributeName="fill" to="#808080" begin="arrowLeft.mouseover" end="arrowLeft.mouseout"/>
                  </use>
                  <path fill="none" stroke="white" stroke-width="1.5" d="M0,-3.0v7 M-2.5,-0.5L0,-3.0L2.5,-0.5"/>
                </g>
        </g>
        <svg viewBox="0 0 15 15" width="100%" height="30px" preserveAspectRatio="xMaxYMin meet">
         <g id="arrow_out" transform="scale(0.3 0.3)">
          <a xlink:href="a29470_org.svg" target="_base">
           <rect id="button" ry="5" rx="5" y="6" x="6" height="38" width="38"
                fill="#f2f5e9" fill-opacity="0.5" stroke="#606060" stroke-width="1.0"/>
           <path id="arrow"
             d="M 11.500037,31.436501 C 11.940474,20.09759 22.043105,11.32322 32.158766,21.979434 L 37.068811,17.246167 C 37.068811,17.246167 37.088388,32 37.088388,32 L 22.160133,31.978069 C 22.160133,31.978069 26.997745,27.140456 26.997745,27.140456 C 18.528582,18.264221 13.291696,25.230495 11.500037,31.436501 z"
             style="fill:#404040;"/>
          </a>
         </g>
        </svg>
</svg>
