<?xml version="1.0" encoding="UTF-8" standalone="no"?>
<!DOCTYPE svg PUBLIC "-//W3C//DTD SVG 1.1//EN"
 "http://www.w3.org/Graphics/SVG/1.1/DTD/svg11.dtd">
<!-- Generated by graphviz version 2.38.0 (20140413.2041)
 -->
<!-- Title: SDK::UParticleModuleEmitterPointVelocity Pages: 1 -->
<svg width="336pt" height="182pt"
 viewBox="0.00 0.00 336.00 182.00" xmlns="http://www.w3.org/2000/svg" xmlns:xlink="http://www.w3.org/1999/xlink">
<g id="graph0" class="graph" transform="scale(1 1) rotate(0) translate(4 178)">
<title>SDK::UParticleModuleEmitterPointVelocity</title>
<!-- Node1 -->
<g id="node1" class="node"><title>Node1</title>
<g id="a_node1"><a xlink:title=" ">
<polygon fill="#bfbfbf" stroke="black" points="99,-0.5 99,-68.5 245,-68.5 245,-0.5 99,-0.5"/>
<text text-anchor="start" x="107" y="-56.5" font-family="Helvetica,sans-Serif" font-size="10.00">SDK::UParticleModuleEmitter</text>
<text text-anchor="middle" x="172" y="-45.5" font-family="Helvetica,sans-Serif" font-size="10.00">PointVelocity</text>
<polyline fill="none" stroke="black" points="99,-38.5 245,-38.5 "/>
<text text-anchor="middle" x="172" y="-26.5" font-family="Helvetica,sans-Serif" font-size="10.00"> </text>
<polyline fill="none" stroke="black" points="99,-19.5 245,-19.5 "/>
<text text-anchor="start" x="107" y="-7.5" font-family="Helvetica,sans-Serif" font-size="10.00">+ StaticClass()</text>
</a>
</g>
</g>
<!-- Node2 -->
<g id="node2" class="node"><title>Node2</title>
<g id="a_node2"><a xlink:href="a29499.html" target="_top" xlink:title=" ">
<polygon fill="none" stroke="red" points="0,-116.5 0,-173.5 172,-173.5 172,-116.5 0,-116.5"/>
<text text-anchor="middle" x="86" y="-161.5" font-family="Helvetica,sans-Serif" font-size="10.00">SDK::UParticleModuleVelocityBase</text>
<polyline fill="none" stroke="red" points="0,-154.5 172,-154.5 "/>
<text text-anchor="middle" x="86" y="-142.5" font-family="Helvetica,sans-Serif" font-size="10.00"> </text>
<polyline fill="none" stroke="red" points="0,-135.5 172,-135.5 "/>
<text text-anchor="start" x="8" y="-123.5" font-family="Helvetica,sans-Serif" font-size="10.00">+ StaticClass()</text>
</a>
</g>
</g>
<!-- Node2&#45;&gt;Node1 -->
<g id="edge1" class="edge"><title>Node2&#45;&gt;Node1</title>
<path fill="none" stroke="midnightblue" d="M114.381,-108.194C124.518,-95.4046 135.886,-81.0625 145.829,-68.5186"/>
<polygon fill="none" stroke="midnightblue" points="111.393,-106.329 107.924,-116.34 116.879,-110.677 111.393,-106.329"/>
</g>
<!-- Node16 -->
<g id="node3" class="node"><title>Node16</title>
<g id="a_node3"><a xlink:href="a31023.html" target="_top" xlink:title=" ">
<polygon fill="none" stroke="red" points="190,-116.5 190,-173.5 328,-173.5 328,-116.5 190,-116.5"/>
<text text-anchor="middle" x="259" y="-161.5" font-family="Helvetica,sans-Serif" font-size="10.00">SDK::FRawDistributionFloat</text>
<polyline fill="none" stroke="red" points="190,-154.5 328,-154.5 "/>
<text text-anchor="middle" x="259" y="-142.5" font-family="Helvetica,sans-Serif" font-size="10.00"> </text>
<polyline fill="none" stroke="red" points="190,-135.5 328,-135.5 "/>
<text text-anchor="middle" x="259" y="-123.5" font-family="Helvetica,sans-Serif" font-size="10.00"> </text>
</a>
</g>
</g>
<!-- Node16&#45;&gt;Node1 -->
<g id="edge2" class="edge"><title>Node16&#45;&gt;Node1</title>
<path fill="none" stroke="#404040" d="M236.821,-116.34C227.514,-104.733 216.477,-90.9678 206.172,-78.1168"/>
<polygon fill="none" stroke="#404040" points="205.983,-77.8806 199.108,-75.7019 198.476,-68.5186 205.35,-70.6973 205.983,-77.8806"/>
<text text-anchor="middle" x="256" y="-90" font-family="Helvetica,sans-Serif" font-size="10.00"> +VelocityScale</text>
</g>
</g>
</svg>
