<?xml version="1.0" encoding="UTF-8" standalone="no"?>
<!DOCTYPE svg PUBLIC "-//W3C//DTD SVG 1.1//EN"
 "http://www.w3.org/Graphics/SVG/1.1/DTD/svg11.dtd">
<!-- Generated by graphviz version 2.38.0 (20140413.2041)
 -->
<!-- Title: SDK::UParticleModuleSizeScaleBySpeed Pages: 1 -->
<svg width="272pt" height="281pt"
 viewBox="0.00 0.00 271.50 281.00" xmlns="http://www.w3.org/2000/svg" xmlns:xlink="http://www.w3.org/1999/xlink">
<g id="graph0" class="graph" transform="scale(1 1) rotate(0) translate(4 277)">
<title>SDK::UParticleModuleSizeScaleBySpeed</title>
<!-- Node1 -->
<g id="node1" class="node"><title>Node1</title>
<g id="a_node1"><a xlink:title=" ">
<polygon fill="#bfbfbf" stroke="black" points="81,-0.5 81,-68.5 215,-68.5 215,-0.5 81,-0.5"/>
<text text-anchor="start" x="89" y="-56.5" font-family="Helvetica,sans-Serif" font-size="10.00">SDK::UParticleModuleSize</text>
<text text-anchor="middle" x="148" y="-45.5" font-family="Helvetica,sans-Serif" font-size="10.00">ScaleBySpeed</text>
<polyline fill="none" stroke="black" points="81,-38.5 215,-38.5 "/>
<text text-anchor="middle" x="148" y="-26.5" font-family="Helvetica,sans-Serif" font-size="10.00"> </text>
<polyline fill="none" stroke="black" points="81,-19.5 215,-19.5 "/>
<text text-anchor="start" x="89" y="-7.5" font-family="Helvetica,sans-Serif" font-size="10.00">+ StaticClass()</text>
</a>
</g>
</g>
<!-- Node2 -->
<g id="node2" class="node"><title>Node2</title>
<g id="a_node2"><a xlink:href="a29591.html" target="_top" xlink:title=" ">
<polygon fill="none" stroke="red" points="0,-171.5 0,-228.5 156,-228.5 156,-171.5 0,-171.5"/>
<text text-anchor="middle" x="78" y="-216.5" font-family="Helvetica,sans-Serif" font-size="10.00">SDK::UParticleModuleSizeBase</text>
<polyline fill="none" stroke="red" points="0,-209.5 156,-209.5 "/>
<text text-anchor="middle" x="78" y="-197.5" font-family="Helvetica,sans-Serif" font-size="10.00"> </text>
<polyline fill="none" stroke="red" points="0,-190.5 156,-190.5 "/>
<text text-anchor="start" x="8" y="-178.5" font-family="Helvetica,sans-Serif" font-size="10.00">+ StaticClass()</text>
</a>
</g>
</g>
<!-- Node2&#45;&gt;Node1 -->
<g id="edge1" class="edge"><title>Node2&#45;&gt;Node1</title>
<path fill="none" stroke="midnightblue" d="M93.9219,-161.811C105.914,-133.801 122.208,-95.7421 133.768,-68.7421"/>
<polygon fill="none" stroke="midnightblue" points="90.5929,-160.694 89.8745,-171.264 97.0279,-163.449 90.5929,-160.694"/>
</g>
<!-- Node16 -->
<g id="node3" class="node"><title>Node16</title>
<g id="a_node3"><a xlink:href="a26295.html" target="_top" xlink:title=" ">
<polygon fill="none" stroke="red" points="174.5,-127.5 174.5,-272.5 263.5,-272.5 263.5,-127.5 174.5,-127.5"/>
<text text-anchor="middle" x="219" y="-260.5" font-family="Helvetica,sans-Serif" font-size="10.00">SDK::FVector2D</text>
<polyline fill="none" stroke="red" points="174.5,-253.5 263.5,-253.5 "/>
<text text-anchor="middle" x="219" y="-241.5" font-family="Helvetica,sans-Serif" font-size="10.00"> </text>
<polyline fill="none" stroke="red" points="174.5,-234.5 263.5,-234.5 "/>
<text text-anchor="start" x="182.5" y="-222.5" font-family="Helvetica,sans-Serif" font-size="10.00">+ FVector2D()</text>
<text text-anchor="start" x="182.5" y="-211.5" font-family="Helvetica,sans-Serif" font-size="10.00">+ FVector2D()</text>
<text text-anchor="start" x="182.5" y="-200.5" font-family="Helvetica,sans-Serif" font-size="10.00">+ operator+()</text>
<text text-anchor="start" x="182.5" y="-189.5" font-family="Helvetica,sans-Serif" font-size="10.00">+ operator&#45;()</text>
<text text-anchor="start" x="182.5" y="-178.5" font-family="Helvetica,sans-Serif" font-size="10.00">+ operator*()</text>
<text text-anchor="start" x="182.5" y="-167.5" font-family="Helvetica,sans-Serif" font-size="10.00">+ operator=()</text>
<text text-anchor="start" x="182.5" y="-156.5" font-family="Helvetica,sans-Serif" font-size="10.00">+ operator+=()</text>
<text text-anchor="start" x="182.5" y="-145.5" font-family="Helvetica,sans-Serif" font-size="10.00">+ operator&#45;=()</text>
<text text-anchor="start" x="182.5" y="-134.5" font-family="Helvetica,sans-Serif" font-size="10.00">+ operator*=()</text>
</a>
</g>
</g>
<!-- Node16&#45;&gt;Node1 -->
<g id="edge2" class="edge"><title>Node16&#45;&gt;Node1</title>
<path fill="none" stroke="#404040" d="M187.858,-127.287C180.861,-111.173 173.635,-94.5318 167.288,-79.9175"/>
<polygon fill="none" stroke="#404040" points="167.189,-79.6875 161.13,-75.7773 162.409,-68.6805 168.468,-72.5907 167.189,-79.6875"/>
<text text-anchor="middle" x="211" y="-101" font-family="Helvetica,sans-Serif" font-size="10.00"> +SpeedScale</text>
<text text-anchor="middle" x="211" y="-90" font-family="Helvetica,sans-Serif" font-size="10.00">+MaxScale</text>
</g>
</g>
</svg>
