<?xml version="1.0" encoding="UTF-8" standalone="no"?>
<!DOCTYPE svg PUBLIC "-//W3C//DTD SVG 1.1//EN"
 "http://www.w3.org/Graphics/SVG/1.1/DTD/svg11.dtd">
<!-- Generated by graphviz version 2.38.0 (20140413.2041)
 -->
<!-- Title: SDK::UParticleModuleVectorFieldRotationRate Pages: 1 -->
<svg width="361pt" height="270pt"
 viewBox="0.00 0.00 360.50 270.00" xmlns="http://www.w3.org/2000/svg" xmlns:xlink="http://www.w3.org/1999/xlink">
<g id="graph0" class="graph" transform="scale(1 1) rotate(0) translate(4 266)">
<title>SDK::UParticleModuleVectorFieldRotationRate</title>
<!-- Node1 -->
<g id="node1" class="node"><title>Node1</title>
<g id="a_node1"><a xlink:title=" ">
<polygon fill="#bfbfbf" stroke="black" points="129,-0.5 129,-68.5 272,-68.5 272,-0.5 129,-0.5"/>
<text text-anchor="start" x="137" y="-56.5" font-family="Helvetica,sans-Serif" font-size="10.00">SDK::UParticleModuleVector</text>
<text text-anchor="middle" x="200.5" y="-45.5" font-family="Helvetica,sans-Serif" font-size="10.00">FieldRotationRate</text>
<polyline fill="none" stroke="black" points="129,-38.5 272,-38.5 "/>
<text text-anchor="middle" x="200.5" y="-26.5" font-family="Helvetica,sans-Serif" font-size="10.00"> </text>
<polyline fill="none" stroke="black" points="129,-19.5 272,-19.5 "/>
<text text-anchor="start" x="137" y="-7.5" font-family="Helvetica,sans-Serif" font-size="10.00">+ StaticClass()</text>
</a>
</g>
</g>
<!-- Node2 -->
<g id="node2" class="node"><title>Node2</title>
<g id="a_node2"><a xlink:href="a29679.html" target="_top" xlink:title=" ">
<polygon fill="none" stroke="red" points="0,-155 0,-223 143,-223 143,-155 0,-155"/>
<text text-anchor="start" x="8" y="-211" font-family="Helvetica,sans-Serif" font-size="10.00">SDK::UParticleModuleVector</text>
<text text-anchor="middle" x="71.5" y="-200" font-family="Helvetica,sans-Serif" font-size="10.00">FieldBase</text>
<polyline fill="none" stroke="red" points="0,-193 143,-193 "/>
<text text-anchor="middle" x="71.5" y="-181" font-family="Helvetica,sans-Serif" font-size="10.00"> </text>
<polyline fill="none" stroke="red" points="0,-174 143,-174 "/>
<text text-anchor="start" x="8" y="-162" font-family="Helvetica,sans-Serif" font-size="10.00">+ StaticClass()</text>
</a>
</g>
</g>
<!-- Node2&#45;&gt;Node1 -->
<g id="edge1" class="edge"><title>Node2&#45;&gt;Node1</title>
<path fill="none" stroke="midnightblue" d="M106.049,-147.157C126.873,-122.54 153.051,-91.5923 172.564,-68.5257"/>
<polygon fill="none" stroke="midnightblue" points="103.277,-145.015 99.4911,-154.91 108.622,-149.535 103.277,-145.015"/>
</g>
<!-- Node16 -->
<g id="node3" class="node"><title>Node16</title>
<g id="a_node3"><a xlink:href="a26287.html" target="_top" xlink:title=" ">
<polygon fill="none" stroke="red" points="161,-116.5 161,-261.5 240,-261.5 240,-116.5 161,-116.5"/>
<text text-anchor="middle" x="200.5" y="-249.5" font-family="Helvetica,sans-Serif" font-size="10.00">SDK::FVector</text>
<polyline fill="none" stroke="red" points="161,-242.5 240,-242.5 "/>
<text text-anchor="middle" x="200.5" y="-230.5" font-family="Helvetica,sans-Serif" font-size="10.00"> </text>
<polyline fill="none" stroke="red" points="161,-223.5 240,-223.5 "/>
<text text-anchor="start" x="169" y="-211.5" font-family="Helvetica,sans-Serif" font-size="10.00">+ FVector()</text>
<text text-anchor="start" x="169" y="-200.5" font-family="Helvetica,sans-Serif" font-size="10.00">+ FVector()</text>
<text text-anchor="start" x="169" y="-189.5" font-family="Helvetica,sans-Serif" font-size="10.00">+ operator+()</text>
<text text-anchor="start" x="169" y="-178.5" font-family="Helvetica,sans-Serif" font-size="10.00">+ operator&#45;()</text>
<text text-anchor="start" x="169" y="-167.5" font-family="Helvetica,sans-Serif" font-size="10.00">+ operator*()</text>
<text text-anchor="start" x="169" y="-156.5" font-family="Helvetica,sans-Serif" font-size="10.00">+ operator=()</text>
<text text-anchor="start" x="169" y="-145.5" font-family="Helvetica,sans-Serif" font-size="10.00">+ operator+=()</text>
<text text-anchor="start" x="169" y="-134.5" font-family="Helvetica,sans-Serif" font-size="10.00">+ operator&#45;=()</text>
<text text-anchor="start" x="169" y="-123.5" font-family="Helvetica,sans-Serif" font-size="10.00">+ operator*=()</text>
</a>
</g>
</g>
<!-- Node16&#45;&gt;Node1 -->
<g id="edge2" class="edge"><title>Node16&#45;&gt;Node1</title>
<path fill="none" stroke="#404040" d="M200.5,-116.216C200.5,-104.092 200.5,-91.8165 200.5,-80.6221"/>
<polygon fill="none" stroke="#404040" points="200.5,-80.508 196.5,-74.5081 200.5,-68.508 204.5,-74.508 200.5,-80.508"/>
<text text-anchor="middle" x="233.5" y="-90" font-family="Helvetica,sans-Serif" font-size="10.00"> +RotationRate</text>
</g>
<!-- Node13 -->
<g id="node4" class="node"><title>Node13</title>
<g id="a_node4"><a xlink:title=" ">
<polygon fill="none" stroke="#bfbfbf" points="272,-160.5 272,-217.5 307,-217.5 307,-160.5 272,-160.5"/>
<text text-anchor="middle" x="289.5" y="-205.5" font-family="Helvetica,sans-Serif" font-size="10.00">char</text>
<polyline fill="none" stroke="#bfbfbf" points="272,-198.5 307,-198.5 "/>
<text text-anchor="middle" x="289.5" y="-186.5" font-family="Helvetica,sans-Serif" font-size="10.00"> </text>
<polyline fill="none" stroke="#bfbfbf" points="272,-179.5 307,-179.5 "/>
<text text-anchor="middle" x="289.5" y="-167.5" font-family="Helvetica,sans-Serif" font-size="10.00"> </text>
</a>
</g>
</g>
<!-- Node13&#45;&gt;Node1 -->
<g id="edge3" class="edge"><title>Node13&#45;&gt;Node1</title>
<path fill="none" stroke="#404040" d="M288.575,-160.34C286.711,-138.868 281.528,-109.13 267.5,-87 265.379,-83.6543 262.96,-80.4415 260.33,-77.3708"/>
<polygon fill="none" stroke="#404040" points="260.209,-77.2442 253.167,-75.6913 251.892,-68.5938 258.934,-70.1467 260.209,-77.2442"/>
<text text-anchor="middle" x="312.5" y="-90" font-family="Helvetica,sans-Serif" font-size="10.00"> +UnknownData00</text>
</g>
</g>
</svg>
