<?xml version="1.0" encoding="UTF-8" standalone="no"?>
<!DOCTYPE svg PUBLIC "-//W3C//DTD SVG 1.1//EN"
 "http://www.w3.org/Graphics/SVG/1.1/DTD/svg11.dtd">
<!-- Generated by graphviz version 2.38.0 (20140413.2041)
 -->
<!-- Title: SDK::USoundWaveProcedural Pages: 1 -->
<svg width="156pt" height="270pt"
 viewBox="0.00 0.00 156.00 270.00" xmlns="http://www.w3.org/2000/svg" xmlns:xlink="http://www.w3.org/1999/xlink">
<g id="graph0" class="graph" transform="scale(1 1) rotate(0) translate(4 266)">
<title>SDK::USoundWaveProcedural</title>
<!-- Node1 -->
<g id="node1" class="node"><title>Node1</title>
<g id="a_node1"><a xlink:title=" ">
<polygon fill="#bfbfbf" stroke="black" points="0,-0.5 0,-57.5 148,-57.5 148,-0.5 0,-0.5"/>
<text text-anchor="middle" x="74" y="-45.5" font-family="Helvetica,sans-Serif" font-size="10.00">SDK::USoundWaveProcedural</text>
<polyline fill="none" stroke="black" points="0,-38.5 148,-38.5 "/>
<text text-anchor="start" x="8" y="-26.5" font-family="Helvetica,sans-Serif" font-size="10.00">+ UnknownData00</text>
<polyline fill="none" stroke="black" points="0,-19.5 148,-19.5 "/>
<text text-anchor="start" x="8" y="-7.5" font-family="Helvetica,sans-Serif" font-size="10.00">+ StaticClass()</text>
</a>
</g>
</g>
<!-- Node2 -->
<g id="node2" class="node"><title>Node2</title>
<g id="a_node2"><a xlink:href="a29679.html" target="_top" xlink:title=" ">
<polygon fill="none" stroke="red" points="17.5,-94.5 17.5,-261.5 130.5,-261.5 130.5,-94.5 17.5,-94.5"/>
<text text-anchor="middle" x="74" y="-249.5" font-family="Helvetica,sans-Serif" font-size="10.00">SDK::USoundWave</text>
<polyline fill="none" stroke="red" points="17.5,-242.5 130.5,-242.5 "/>
<text text-anchor="start" x="25.5" y="-230.5" font-family="Helvetica,sans-Serif" font-size="10.00">+ CompressionQuality</text>
<text text-anchor="start" x="25.5" y="-219.5" font-family="Helvetica,sans-Serif" font-size="10.00">+ bLooping</text>
<text text-anchor="start" x="25.5" y="-208.5" font-family="Helvetica,sans-Serif" font-size="10.00">+ bStreaming</text>
<text text-anchor="start" x="25.5" y="-197.5" font-family="Helvetica,sans-Serif" font-size="10.00">+ UnknownData00</text>
<text text-anchor="start" x="25.5" y="-186.5" font-family="Helvetica,sans-Serif" font-size="10.00">+ StreamingPriority</text>
<text text-anchor="start" x="25.5" y="-175.5" font-family="Helvetica,sans-Serif" font-size="10.00">+ UnknownData01</text>
<text text-anchor="start" x="25.5" y="-164.5" font-family="Helvetica,sans-Serif" font-size="10.00">+ bMature</text>
<text text-anchor="start" x="25.5" y="-153.5" font-family="Helvetica,sans-Serif" font-size="10.00">+ bManualWordWrap</text>
<text text-anchor="start" x="25.5" y="-142.5" font-family="Helvetica,sans-Serif" font-size="10.00">+ bSingleLine</text>
<text text-anchor="start" x="25.5" y="-131.5" font-family="Helvetica,sans-Serif" font-size="10.00">+ UnknownData02</text>
<text text-anchor="start" x="25.5" y="-120.5" font-family="Helvetica,sans-Serif" font-size="10.00">and 12 more...</text>
<polyline fill="none" stroke="red" points="17.5,-113.5 130.5,-113.5 "/>
<text text-anchor="start" x="25.5" y="-101.5" font-family="Helvetica,sans-Serif" font-size="10.00">+ StaticClass()</text>
</a>
</g>
</g>
<!-- Node2&#45;&gt;Node1 -->
<g id="edge1" class="edge"><title>Node2&#45;&gt;Node1</title>
<path fill="none" stroke="midnightblue" d="M74,-84.3602C74,-74.7858 74,-65.6772 74,-57.7481"/>
<polygon fill="none" stroke="midnightblue" points="70.5001,-84.4763 74,-94.4763 77.5001,-84.4764 70.5001,-84.4763"/>
</g>
</g>
</svg>
