<?xml version="1.0" encoding="UTF-8" standalone="no"?>
<!DOCTYPE svg PUBLIC "-//W3C//DTD SVG 1.1//EN"
 "http://www.w3.org/Graphics/SVG/1.1/DTD/svg11.dtd">
<!-- Generated by graphviz version 2.38.0 (20140413.2041)
 -->
<!-- Title: SDK::UParticleModuleVelocity Pages: 1 -->
<!--zoomable 309 -->
<svg id="main" version="1.1" xmlns="http://www.w3.org/2000/svg" xmlns:xlink="http://www.w3.org/1999/xlink" xml:space="preserve" onload="init(evt)">
<style type="text/css"><![CDATA[
.edge:hover path { stroke: red; }
.edge:hover polygon { stroke: red; fill: red; }
]]></style>
<script type="text/javascript"><![CDATA[
var edges = document.getElementsByTagName('g');
if (edges && edges.length) {
  for (var i=0;i<edges.length;i++) {
    if (edges[i].id.substr(0,4)=='edge') {
      edges[i].setAttribute('class','edge');
    }
  }
}
]]></script>
        <defs>
                <circle id="rim" cx="0" cy="0" r="7"/>
                <circle id="rim2" cx="0" cy="0" r="3.5"/>
                <g id="zoomPlus">
                        <use xlink:href="#rim" fill="#404040">
                                <set attributeName="fill" to="#808080" begin="zoomplus.mouseover" end="zoomplus.mouseout"/>
                        </use>
                        <path d="M-4,0h8M0,-4v8" fill="none" stroke="white" stroke-width="1.5" pointer-events="none"/>
                </g>
                <g id="zoomMin">
                        <use xlink:href="#rim" fill="#404040">
                                <set attributeName="fill" to="#808080" begin="zoomminus.mouseover" end="zoomminus.mouseout"/>
                        </use>
                        <path d="M-4,0h8" fill="none" stroke="white" stroke-width="1.5" pointer-events="none"/>
                </g>
                <g id="dirArrow">
                        <path fill="none" stroke="white" stroke-width="1.5" d="M0,-3.0v7 M-2.5,-0.5L0,-3.0L2.5,-0.5"/>
                </g>
               <g id="resetDef">
                       <use xlink:href="#rim2" fill="#404040">
                               <set attributeName="fill" to="#808080" begin="reset.mouseover" end="reset.mouseout"/>
                       </use>
               </g>
        </defs>

<script type="text/javascript">
var viewWidth = 612;
var viewHeight = 309;
var sectionId = 'dynsection-1';
</script>
<script xlink:href="svgpan.js"/>
<svg id="graph" class="graph">
<g id="viewport">
<title>SDK::UParticleModuleVelocity</title>
<!-- Node1 -->
<g id="node1" class="node"><title>Node1</title>
<g id="a_node1"><a xlink:title=" ">
<polygon fill="#bfbfbf" stroke="black" points="255.542,-0.5 255.542,-57.5 404.542,-57.5 404.542,-0.5 255.542,-0.5"/>
<text text-anchor="middle" x="330.042" y="-45.5" font-family="Helvetica,sans-Serif" font-size="10.00">SDK::UParticleModuleVelocity</text>
<polyline fill="none" stroke="black" points="255.542,-38.5 404.542,-38.5 "/>
<text text-anchor="middle" x="330.042" y="-26.5" font-family="Helvetica,sans-Serif" font-size="10.00"> </text>
<polyline fill="none" stroke="black" points="255.542,-19.5 404.542,-19.5 "/>
<text text-anchor="start" x="263.542" y="-7.5" font-family="Helvetica,sans-Serif" font-size="10.00">+ StaticClass()</text>
</a>
</g>
</g>
<!-- Node2 -->
<g id="node2" class="node"><title>Node2</title>
<g id="a_node2"><a xlink:href="a29707.html" target="_top" xlink:title=" ">
<polygon fill="none" stroke="red" points="112.042,-116.5 112.042,-173.5 284.042,-173.5 284.042,-116.5 112.042,-116.5"/>
<text text-anchor="middle" x="198.042" y="-161.5" font-family="Helvetica,sans-Serif" font-size="10.00">SDK::UParticleModuleVelocityBase</text>
<polyline fill="none" stroke="red" points="112.042,-154.5 284.042,-154.5 "/>
<text text-anchor="middle" x="198.042" y="-142.5" font-family="Helvetica,sans-Serif" font-size="10.00"> </text>
<polyline fill="none" stroke="red" points="112.042,-135.5 284.042,-135.5 "/>
<text text-anchor="start" x="120.042" y="-123.5" font-family="Helvetica,sans-Serif" font-size="10.00">+ StaticClass()</text>
</a>
</g>
</g>
<!-- Node2&#45;&gt;Node1 -->
<g id="edge1" class="edge"><title>Node2&#45;&gt;Node1</title>
<path fill="none" stroke="midnightblue" d="M237.726,-109.727C256.973,-93.105 279.79,-73.3989 297.925,-57.7372"/>
<polygon fill="none" stroke="midnightblue" points="235.276,-107.219 229.995,-116.404 239.851,-112.516 235.276,-107.219"/>
</g>
<!-- Node13 -->
<g id="node3" class="node"><title>Node13</title>
<g id="a_node3"><a xlink:title=" ">
<polygon fill="none" stroke="#bfbfbf" points="42.5416,-243.5 42.5416,-300.5 77.5416,-300.5 77.5416,-243.5 42.5416,-243.5"/>
<text text-anchor="middle" x="60.0416" y="-288.5" font-family="Helvetica,sans-Serif" font-size="10.00">char</text>
<polyline fill="none" stroke="#bfbfbf" points="42.5416,-281.5 77.5416,-281.5 "/>
<text text-anchor="middle" x="60.0416" y="-269.5" font-family="Helvetica,sans-Serif" font-size="10.00"> </text>
<polyline fill="none" stroke="#bfbfbf" points="42.5416,-262.5 77.5416,-262.5 "/>
<text text-anchor="middle" x="60.0416" y="-250.5" font-family="Helvetica,sans-Serif" font-size="10.00"> </text>
</a>
</g>
</g>
<!-- Node13&#45;&gt;Node1 -->
<g id="edge4" class="edge"><title>Node13&#45;&gt;Node1</title>
<path fill="none" stroke="#404040" d="M42.5161,-249.839C18.2855,-217.878 -19.1226,-156.712 12.0416,-116 40.1098,-79.3327 159.298,-54.7052 243.483,-41.518"/>
<polygon fill="none" stroke="#404040" points="243.514,-41.5133 248.839,-36.6499 255.376,-39.6942 250.051,-44.5575 243.514,-41.5133"/>
<text text-anchor="middle" x="57.5416" y="-148" font-family="Helvetica,sans-Serif" font-size="10.00"> +bUseGroupAForAll</text>
<text text-anchor="middle" x="57.5416" y="-137" font-family="Helvetica,sans-Serif" font-size="10.00">+UnknownData00</text>
</g>
<!-- Node13&#45;&gt;Node2 -->
<g id="edge2" class="edge"><title>Node13&#45;&gt;Node2</title>
<path fill="none" stroke="#404040" d="M77.8001,-254.914C98.052,-236.57 131.796,-206.005 158.39,-181.916"/>
<polygon fill="none" stroke="#404040" points="158.571,-181.752 160.333,-174.76 167.465,-173.696 165.703,-180.689 158.571,-181.752"/>
<text text-anchor="middle" x="190.542" y="-217" font-family="Helvetica,sans-Serif" font-size="10.00"> +bInWorldSpace</text>
<text text-anchor="middle" x="190.542" y="-206" font-family="Helvetica,sans-Serif" font-size="10.00">+bApplyOwnerScale</text>
<text text-anchor="middle" x="190.542" y="-195" font-family="Helvetica,sans-Serif" font-size="10.00">+UnknownData00</text>
</g>
<!-- Node16 -->
<g id="node4" class="node"><title>Node16</title>
<g id="a_node4"><a xlink:href="a31227.html" target="_top" xlink:title=" ">
<polygon fill="none" stroke="red" points="302.542,-116.5 302.542,-173.5 447.542,-173.5 447.542,-116.5 302.542,-116.5"/>
<text text-anchor="middle" x="375.042" y="-161.5" font-family="Helvetica,sans-Serif" font-size="10.00">SDK::FRawDistributionVector</text>
<polyline fill="none" stroke="red" points="302.542,-154.5 447.542,-154.5 "/>
<text text-anchor="middle" x="375.042" y="-142.5" font-family="Helvetica,sans-Serif" font-size="10.00"> </text>
<polyline fill="none" stroke="red" points="302.542,-135.5 447.542,-135.5 "/>
<text text-anchor="middle" x="375.042" y="-123.5" font-family="Helvetica,sans-Serif" font-size="10.00"> </text>
</a>
</g>
</g>
<!-- Node16&#45;&gt;Node1 -->
<g id="edge3" class="edge"><title>Node16&#45;&gt;Node1</title>
<path fill="none" stroke="#404040" d="M364.148,-116.404C358.552,-102.226 351.636,-84.7058 345.498,-69.1561"/>
<polygon fill="none" stroke="#404040" points="345.397,-68.8991 339.473,-64.7868 340.99,-57.7372 346.914,-61.8495 345.397,-68.8991"/>
<text text-anchor="middle" x="413.542" y="-90" font-family="Helvetica,sans-Serif" font-size="10.00"> +StartVelocity</text>
<text text-anchor="middle" x="413.542" y="-79" font-family="Helvetica,sans-Serif" font-size="10.00">+AdditionalStartVelocities</text>
</g>
<!-- Node23 -->
<g id="node5" class="node"><title>Node23</title>
<g id="a_node5"><a xlink:href="a31231.html" target="_top" xlink:title=" ">
<polygon fill="none" stroke="red" points="466.042,-116.5 466.042,-173.5 604.042,-173.5 604.042,-116.5 466.042,-116.5"/>
<text text-anchor="middle" x="535.042" y="-161.5" font-family="Helvetica,sans-Serif" font-size="10.00">SDK::FRawDistributionFloat</text>
<polyline fill="none" stroke="red" points="466.042,-154.5 604.042,-154.5 "/>
<text text-anchor="middle" x="535.042" y="-142.5" font-family="Helvetica,sans-Serif" font-size="10.00"> </text>
<polyline fill="none" stroke="red" points="466.042,-135.5 604.042,-135.5 "/>
<text text-anchor="middle" x="535.042" y="-123.5" font-family="Helvetica,sans-Serif" font-size="10.00"> </text>
</a>
</g>
</g>
<!-- Node23&#45;&gt;Node1 -->
<g id="edge5" class="edge"><title>Node23&#45;&gt;Node1</title>
<path fill="none" stroke="#404040" d="M515.75,-116.252C504.9,-102.449 490.285,-86.5128 474.042,-76 456.637,-64.7355 436.261,-56.0428 416.406,-49.4073"/>
<polygon fill="none" stroke="#404040" points="416.243,-49.3557 409.316,-51.3585 404.803,-45.7343 411.73,-43.7315 416.243,-49.3557"/>
<text text-anchor="middle" x="545.542" y="-84.5" font-family="Helvetica,sans-Serif" font-size="10.00"> +StartVelocityRadial</text>
</g>
</g>
</svg>
        <g id="navigator" transform="translate(0 0)" fill="#404254">
                <rect fill="#f2f5e9" fill-opacity="0.5" stroke="#606060" stroke-width=".5" x="0" y="0" width="60" height="60"/>
                <use id="zoomplus" xlink:href="#zoomPlus" x="17" y="9" onmousedown="handleZoom(evt,'in')"/>
                <use id="zoomminus" xlink:href="#zoomMin" x="42" y="9" onmousedown="handleZoom(evt,'out')"/>
                <use id="reset" xlink:href="#resetDef" x="30" y="36" onmousedown="handleReset()"/>
                <g id="arrowUp" xlink:href="#dirArrow" transform="translate(30 24)" onmousedown="handlePan(0,-1)">
                  <use xlink:href="#rim" fill="#404040">
                        <set attributeName="fill" to="#808080" begin="arrowUp.mouseover" end="arrowUp.mouseout"/>
                  </use>
                  <path fill="none" stroke="white" stroke-width="1.5" d="M0,-3.0v7 M-2.5,-0.5L0,-3.0L2.5,-0.5"/>
                </g>
                <g id="arrowRight" xlink:href="#dirArrow" transform="rotate(90) translate(36 -43)" onmousedown="handlePan(1,0)">
                  <use xlink:href="#rim" fill="#404040">
                        <set attributeName="fill" to="#808080" begin="arrowRight.mouseover" end="arrowRight.mouseout"/>
                  </use>
                  <path fill="none" stroke="white" stroke-width="1.5" d="M0,-3.0v7 M-2.5,-0.5L0,-3.0L2.5,-0.5"/>
                </g>
                <g id="arrowDown" xlink:href="#dirArrow" transform="rotate(180) translate(-30 -48)" onmousedown="handlePan(0,1)">
                  <use xlink:href="#rim" fill="#404040">
                        <set attributeName="fill" to="#808080" begin="arrowDown.mouseover" end="arrowDown.mouseout"/>
                  </use>
                  <path fill="none" stroke="white" stroke-width="1.5" d="M0,-3.0v7 M-2.5,-0.5L0,-3.0L2.5,-0.5"/>
                </g>
                <g id="arrowLeft" xlink:href="#dirArrow" transform="rotate(270) translate(-36 17)" onmousedown="handlePan(-1,0)">
                  <use xlink:href="#rim" fill="#404040">
                        <set attributeName="fill" to="#808080" begin="arrowLeft.mouseover" end="arrowLeft.mouseout"/>
                  </use>
                  <path fill="none" stroke="white" stroke-width="1.5" d="M0,-3.0v7 M-2.5,-0.5L0,-3.0L2.5,-0.5"/>
                </g>
        </g>
        <svg viewBox="0 0 15 15" width="100%" height="30px" preserveAspectRatio="xMaxYMin meet">
         <g id="arrow_out" transform="scale(0.3 0.3)">
          <a xlink:href="a29713_org.svg" target="_base">
           <rect id="button" ry="5" rx="5" y="6" x="6" height="38" width="38"
                fill="#f2f5e9" fill-opacity="0.5" stroke="#606060" stroke-width="1.0"/>
           <path id="arrow"
             d="M 11.500037,31.436501 C 11.940474,20.09759 22.043105,11.32322 32.158766,21.979434 L 37.068811,17.246167 C 37.068811,17.246167 37.088388,32 37.088388,32 L 22.160133,31.978069 C 22.160133,31.978069 26.997745,27.140456 26.997745,27.140456 C 18.528582,18.264221 13.291696,25.230495 11.500037,31.436501 z"
             style="fill:#404040;"/>
          </a>
         </g>
        </svg>
</svg>
