<?xml version="1.0" encoding="UTF-8" standalone="no"?>
<!DOCTYPE svg PUBLIC "-//W3C//DTD SVG 1.1//EN"
 "http://www.w3.org/Graphics/SVG/1.1/DTD/svg11.dtd">
<!-- Generated by graphviz version 2.38.0 (20140413.2041)
 -->
<!-- Title: SDK::UDialogueSoundWaveProxy Pages: 1 -->
<svg width="245pt" height="299pt"
 viewBox="0.00 0.00 245.00 299.00" xmlns="http://www.w3.org/2000/svg" xmlns:xlink="http://www.w3.org/1999/xlink">
<g id="graph0" class="graph" transform="scale(1 1) rotate(0) translate(4 295)">
<title>SDK::UDialogueSoundWaveProxy</title>
<!-- Node1 -->
<g id="node1" class="node"><title>Node1</title>
<g id="a_node1"><a xlink:title=" ">
<polygon fill="#bfbfbf" stroke="black" points="0,-0.5 0,-57.5 164,-57.5 164,-0.5 0,-0.5"/>
<text text-anchor="middle" x="82" y="-45.5" font-family="Helvetica,sans-Serif" font-size="10.00">SDK::UDialogueSoundWaveProxy</text>
<polyline fill="none" stroke="black" points="0,-38.5 164,-38.5 "/>
<text text-anchor="middle" x="82" y="-26.5" font-family="Helvetica,sans-Serif" font-size="10.00"> </text>
<polyline fill="none" stroke="black" points="0,-19.5 164,-19.5 "/>
<text text-anchor="start" x="8" y="-7.5" font-family="Helvetica,sans-Serif" font-size="10.00">+ StaticClass()</text>
</a>
</g>
</g>
<!-- Node2 -->
<g id="node2" class="node"><title>Node2</title>
<g id="a_node2"><a xlink:href="a29871.html" target="_top" xlink:title=" ">
<polygon fill="none" stroke="red" points="137,-95.5 137,-152.5 237,-152.5 237,-95.5 137,-95.5"/>
<text text-anchor="middle" x="187" y="-140.5" font-family="Helvetica,sans-Serif" font-size="10.00">SDK::USoundBase</text>
<polyline fill="none" stroke="red" points="137,-133.5 237,-133.5 "/>
<text text-anchor="middle" x="187" y="-121.5" font-family="Helvetica,sans-Serif" font-size="10.00"> </text>
<polyline fill="none" stroke="red" points="137,-114.5 237,-114.5 "/>
<text text-anchor="start" x="145" y="-102.5" font-family="Helvetica,sans-Serif" font-size="10.00">+ StaticClass()</text>
</a>
</g>
</g>
<!-- Node2&#45;&gt;Node1 -->
<g id="edge1" class="edge"><title>Node2&#45;&gt;Node1</title>
<path fill="none" stroke="midnightblue" d="M148.026,-88.48C136.569,-78.3324 124.19,-67.3679 113.28,-57.7053"/>
<polygon fill="none" stroke="midnightblue" points="145.974,-91.3384 155.781,-95.3487 150.616,-86.0983 145.974,-91.3384"/>
</g>
<!-- Node12 -->
<g id="node3" class="node"><title>Node12</title>
<g id="a_node3"><a xlink:title=" ">
<polygon fill="none" stroke="#bfbfbf" points="66.5,-233.5 66.5,-290.5 101.5,-290.5 101.5,-233.5 66.5,-233.5"/>
<text text-anchor="middle" x="84" y="-278.5" font-family="Helvetica,sans-Serif" font-size="10.00">char</text>
<polyline fill="none" stroke="#bfbfbf" points="66.5,-271.5 101.5,-271.5 "/>
<text text-anchor="middle" x="84" y="-259.5" font-family="Helvetica,sans-Serif" font-size="10.00"> </text>
<polyline fill="none" stroke="#bfbfbf" points="66.5,-252.5 101.5,-252.5 "/>
<text text-anchor="middle" x="84" y="-240.5" font-family="Helvetica,sans-Serif" font-size="10.00"> </text>
</a>
</g>
</g>
<!-- Node12&#45;&gt;Node1 -->
<g id="edge3" class="edge"><title>Node12&#45;&gt;Node1</title>
<path fill="none" stroke="#404040" d="M70.2319,-233.284C55.6053,-200.239 36.1067,-143.397 48,-95 50.2189,-85.9709 53.9374,-76.8052 58.1198,-68.3152"/>
<polygon fill="none" stroke="#404040" points="58.1743,-68.2124 57.4526,-61.0374 63.798,-57.6117 64.5197,-64.7866 58.1743,-68.2124"/>
<text text-anchor="middle" x="88" y="-121.5" font-family="Helvetica,sans-Serif" font-size="10.00"> +UnknownData00</text>
</g>
<!-- Node12&#45;&gt;Node2 -->
<g id="edge2" class="edge"><title>Node12&#45;&gt;Node2</title>
<path fill="none" stroke="#404040" d="M101.706,-237.621C117.308,-217.02 140.318,-186.638 158.508,-162.62"/>
<polygon fill="none" stroke="#404040" points="158.728,-162.33 159.162,-155.132 165.973,-152.764 165.539,-159.962 158.728,-162.33"/>
<text text-anchor="middle" x="190" y="-207" font-family="Helvetica,sans-Serif" font-size="10.00"> +UnknownData01</text>
<text text-anchor="middle" x="190" y="-196" font-family="Helvetica,sans-Serif" font-size="10.00">+UnknownData02</text>
<text text-anchor="middle" x="190" y="-185" font-family="Helvetica,sans-Serif" font-size="10.00">+bDebug</text>
<text text-anchor="middle" x="190" y="-174" font-family="Helvetica,sans-Serif" font-size="10.00">+UnknownData00</text>
</g>
</g>
</svg>
