<?xml version="1.0" encoding="UTF-8" standalone="no"?>
<!DOCTYPE svg PUBLIC "-//W3C//DTD SVG 1.1//EN"
 "http://www.w3.org/Graphics/SVG/1.1/DTD/svg11.dtd">
<!-- Generated by graphviz version 2.38.0 (20140413.2041)
 -->
<!-- Title: SDK::FPostProcessSettings Pages: 1 -->
<svg width="2150pt" height="997pt"
 viewBox="0.00 0.00 2149.50 997.00" xmlns="http://www.w3.org/2000/svg" xmlns:xlink="http://www.w3.org/1999/xlink">
<g id="graph0" class="graph" transform="scale(1 1) rotate(0) translate(4 993)">
<title>SDK::FPostProcessSettings</title>
<!-- Node1 -->
<g id="node1" class="node"><title>Node1</title>
<g id="a_node1"><a xlink:title=" ">
<polygon fill="#bfbfbf" stroke="black" points="1001.5,-0.5 1001.5,-178.5 1168.5,-178.5 1168.5,-0.5 1001.5,-0.5"/>
<text text-anchor="middle" x="1085" y="-166.5" font-family="Helvetica,sans-Serif" font-size="10.00">SDK::FPostProcessSettings</text>
<polyline fill="none" stroke="black" points="1001.5,-159.5 1168.5,-159.5 "/>
<text text-anchor="start" x="1009.5" y="-147.5" font-family="Helvetica,sans-Serif" font-size="10.00">+ bOverride_WhiteTemp</text>
<text text-anchor="start" x="1009.5" y="-136.5" font-family="Helvetica,sans-Serif" font-size="10.00">+ bOverride_WhiteTint</text>
<text text-anchor="start" x="1009.5" y="-125.5" font-family="Helvetica,sans-Serif" font-size="10.00">+ bOverride_ColorSaturation</text>
<text text-anchor="start" x="1009.5" y="-114.5" font-family="Helvetica,sans-Serif" font-size="10.00">+ bOverride_ColorContrast</text>
<text text-anchor="start" x="1009.5" y="-103.5" font-family="Helvetica,sans-Serif" font-size="10.00">+ bOverride_ColorGamma</text>
<text text-anchor="start" x="1009.5" y="-92.5" font-family="Helvetica,sans-Serif" font-size="10.00">+ bOverride_ColorGain</text>
<text text-anchor="start" x="1009.5" y="-81.5" font-family="Helvetica,sans-Serif" font-size="10.00">+ bOverride_FilmWhitePoint</text>
<text text-anchor="start" x="1009.5" y="-70.5" font-family="Helvetica,sans-Serif" font-size="10.00">+ bOverride_FilmSaturation</text>
<text text-anchor="start" x="1009.5" y="-59.5" font-family="Helvetica,sans-Serif" font-size="10.00">+ bOverride_FilmChannelMixerRed</text>
<text text-anchor="start" x="1009.5" y="-48.5" font-family="Helvetica,sans-Serif" font-size="10.00">+ bOverride_FilmChannelMixer</text>
<text text-anchor="start" x="1009.5" y="-37.5" font-family="Helvetica,sans-Serif" font-size="10.00">Green</text>
<text text-anchor="start" x="1009.5" y="-26.5" font-family="Helvetica,sans-Serif" font-size="10.00">and 252 more...</text>
<polyline fill="none" stroke="black" points="1001.5,-19.5 1168.5,-19.5 "/>
<text text-anchor="middle" x="1085" y="-7.5" font-family="Helvetica,sans-Serif" font-size="10.00"> </text>
</a>
</g>
</g>
<!-- Node2 -->
<g id="node2" class="node"><title>Node2</title>
<g id="a_node2"><a xlink:href="a25611.html" target="_top" xlink:title=" ">
<polygon fill="none" stroke="black" points="0,-270.5 0,-382.5 154,-382.5 154,-270.5 0,-270.5"/>
<text text-anchor="start" x="8" y="-370.5" font-family="Helvetica,sans-Serif" font-size="10.00">SDK::TArray&lt; struct</text>
<text text-anchor="middle" x="77" y="-359.5" font-family="Helvetica,sans-Serif" font-size="10.00"> SDK::FLPVCascadeSettings &gt;</text>
<polyline fill="none" stroke="black" points="0,-352.5 154,-352.5 "/>
<text text-anchor="middle" x="77" y="-340.5" font-family="Helvetica,sans-Serif" font-size="10.00"> </text>
<polyline fill="none" stroke="black" points="0,-333.5 154,-333.5 "/>
<text text-anchor="start" x="8" y="-321.5" font-family="Helvetica,sans-Serif" font-size="10.00">+ TArray()</text>
<text text-anchor="start" x="8" y="-310.5" font-family="Helvetica,sans-Serif" font-size="10.00">+ Num()</text>
<text text-anchor="start" x="8" y="-299.5" font-family="Helvetica,sans-Serif" font-size="10.00">+ operator[]()</text>
<text text-anchor="start" x="8" y="-288.5" font-family="Helvetica,sans-Serif" font-size="10.00">+ operator[]()</text>
<text text-anchor="start" x="8" y="-277.5" font-family="Helvetica,sans-Serif" font-size="10.00">+ IsValidIndex()</text>
</a>
</g>
</g>
<!-- Node2&#45;&gt;Node1 -->
<g id="edge1" class="edge"><title>Node2&#45;&gt;Node1</title>
<path fill="none" stroke="#404040" d="M74.6208,-270.456C76.5841,-244.501 83.8082,-215.286 104,-197 168.869,-138.253 755.225,-105.435 989.216,-94.583"/>
<polygon fill="none" stroke="#404040" points="989.445,-94.5725 995.255,-90.3012 1001.43,-94.0215 995.622,-98.2928 989.445,-94.5725"/>
<text text-anchor="middle" x="136" y="-200" font-family="Helvetica,sans-Serif" font-size="10.00"> +LPVSettings</text>
</g>
<!-- Node3 -->
<g id="node3" class="node"><title>Node3</title>
<g id="a_node3"><a xlink:href="a29963.html" target="_top" xlink:title=" ">
<polygon fill="none" stroke="red" points="560.5,-226.5 560.5,-426.5 721.5,-426.5 721.5,-226.5 560.5,-226.5"/>
<text text-anchor="middle" x="641" y="-414.5" font-family="Helvetica,sans-Serif" font-size="10.00">SDK::FRainPostProcessSettings</text>
<polyline fill="none" stroke="red" points="560.5,-407.5 721.5,-407.5 "/>
<text text-anchor="start" x="568.5" y="-395.5" font-family="Helvetica,sans-Serif" font-size="10.00">+ bOverride_RainParticleTexture</text>
<text text-anchor="start" x="568.5" y="-384.5" font-family="Helvetica,sans-Serif" font-size="10.00">+ bOverride_RainMeshTexture</text>
<text text-anchor="start" x="568.5" y="-373.5" font-family="Helvetica,sans-Serif" font-size="10.00">+ bOverride_RainParticleAlpha</text>
<text text-anchor="start" x="568.5" y="-362.5" font-family="Helvetica,sans-Serif" font-size="10.00">+ bOverride_RainCloseParticle</text>
<text text-anchor="start" x="568.5" y="-351.5" font-family="Helvetica,sans-Serif" font-size="10.00">AlphaReductionMultiplier</text>
<text text-anchor="start" x="568.5" y="-340.5" font-family="Helvetica,sans-Serif" font-size="10.00">+ bOverride_RainParticleDensity</text>
<text text-anchor="start" x="568.5" y="-329.5" font-family="Helvetica,sans-Serif" font-size="10.00">+ bOverride_RainParticleSpeed</text>
<text text-anchor="start" x="568.5" y="-318.5" font-family="Helvetica,sans-Serif" font-size="10.00">+ bOverride_RainParticleWind</text>
<text text-anchor="start" x="568.5" y="-307.5" font-family="Helvetica,sans-Serif" font-size="10.00">Velocity</text>
<text text-anchor="start" x="568.5" y="-296.5" font-family="Helvetica,sans-Serif" font-size="10.00">+ bOverride_RainParticleWidth</text>
<text text-anchor="start" x="568.5" y="-285.5" font-family="Helvetica,sans-Serif" font-size="10.00">+ bOverride_RainMeshScale</text>
<text text-anchor="start" x="568.5" y="-274.5" font-family="Helvetica,sans-Serif" font-size="10.00">+ bOverride_RainMeshTexture</text>
<text text-anchor="start" x="568.5" y="-263.5" font-family="Helvetica,sans-Serif" font-size="10.00">Scroll</text>
<text text-anchor="start" x="568.5" y="-252.5" font-family="Helvetica,sans-Serif" font-size="10.00">and 23 more...</text>
<polyline fill="none" stroke="red" points="560.5,-245.5 721.5,-245.5 "/>
<text text-anchor="middle" x="641" y="-233.5" font-family="Helvetica,sans-Serif" font-size="10.00"> </text>
</a>
</g>
</g>
<!-- Node3&#45;&gt;Node1 -->
<g id="edge2" class="edge"><title>Node3&#45;&gt;Node1</title>
<path fill="none" stroke="#404040" d="M658.538,-226.474C663.719,-215.524 670.398,-205.34 679,-197 722.892,-154.448 883.65,-121.926 989.23,-104.565"/>
<polygon fill="none" stroke="#404040" points="989.336,-104.548 994.618,-99.6381 1001.18,-102.625 995.9,-107.535 989.336,-104.548"/>
<text text-anchor="middle" x="711.5" y="-200" font-family="Helvetica,sans-Serif" font-size="10.00"> +RainSettings</text>
</g>
<!-- Node19 -->
<g id="node4" class="node"><title>Node19</title>
<g id="a_node4"><a xlink:href="a26075.html" target="_top" xlink:title=" ">
<polygon fill="none" stroke="black" points="677.5,-606.5 677.5,-751.5 756.5,-751.5 756.5,-606.5 677.5,-606.5"/>
<text text-anchor="middle" x="717" y="-739.5" font-family="Helvetica,sans-Serif" font-size="10.00">SDK::FVector</text>
<polyline fill="none" stroke="black" points="677.5,-732.5 756.5,-732.5 "/>
<text text-anchor="middle" x="717" y="-720.5" font-family="Helvetica,sans-Serif" font-size="10.00"> </text>
<polyline fill="none" stroke="black" points="677.5,-713.5 756.5,-713.5 "/>
<text text-anchor="start" x="685.5" y="-701.5" font-family="Helvetica,sans-Serif" font-size="10.00">+ FVector()</text>
<text text-anchor="start" x="685.5" y="-690.5" font-family="Helvetica,sans-Serif" font-size="10.00">+ FVector()</text>
<text text-anchor="start" x="685.5" y="-679.5" font-family="Helvetica,sans-Serif" font-size="10.00">+ operator+()</text>
<text text-anchor="start" x="685.5" y="-668.5" font-family="Helvetica,sans-Serif" font-size="10.00">+ operator&#45;()</text>
<text text-anchor="start" x="685.5" y="-657.5" font-family="Helvetica,sans-Serif" font-size="10.00">+ operator*()</text>
<text text-anchor="start" x="685.5" y="-646.5" font-family="Helvetica,sans-Serif" font-size="10.00">+ operator=()</text>
<text text-anchor="start" x="685.5" y="-635.5" font-family="Helvetica,sans-Serif" font-size="10.00">+ operator+=()</text>
<text text-anchor="start" x="685.5" y="-624.5" font-family="Helvetica,sans-Serif" font-size="10.00">+ operator&#45;=()</text>
<text text-anchor="start" x="685.5" y="-613.5" font-family="Helvetica,sans-Serif" font-size="10.00">+ operator*=()</text>
</a>
</g>
</g>
<!-- Node19&#45;&gt;Node1 -->
<g id="edge19" class="edge"><title>Node19&#45;&gt;Node1</title>
<path fill="none" stroke="#404040" d="M677.454,-609.79C675.701,-608.427 673.884,-607.158 672,-606 633.98,-582.638 502.107,-620.938 472,-588 444.399,-557.804 445.455,-265.49 478,-226 542.018,-148.32 834.77,-111.916 989.113,-97.8686"/>
<polygon fill="none" stroke="#404040" points="989.389,-97.8441 995.009,-93.326 1001.34,-96.7762 995.721,-101.294 989.389,-97.8441"/>
<text text-anchor="middle" x="514.5" y="-346" font-family="Helvetica,sans-Serif" font-size="10.00"> +ColorGain</text>
<text text-anchor="middle" x="514.5" y="-335" font-family="Helvetica,sans-Serif" font-size="10.00">+ColorContrast</text>
<text text-anchor="middle" x="514.5" y="-324" font-family="Helvetica,sans-Serif" font-size="10.00">+ColorSaturation</text>
<text text-anchor="middle" x="514.5" y="-313" font-family="Helvetica,sans-Serif" font-size="10.00">+ColorOffset</text>
<text text-anchor="middle" x="514.5" y="-302" font-family="Helvetica,sans-Serif" font-size="10.00">+ColorGamma</text>
</g>
<!-- Node19&#45;&gt;Node3 -->
<g id="edge3" class="edge"><title>Node19&#45;&gt;Node3</title>
<path fill="none" stroke="#404040" d="M677.386,-617.67C672.911,-613.307 668.107,-609.324 663,-606 633.183,-586.59 607.149,-615.842 585,-588 551.533,-545.93 559.99,-488.374 579.206,-438.061"/>
<polygon fill="none" stroke="#404040" points="579.264,-437.916 577.789,-430.857 583.737,-426.78 585.212,-433.839 579.264,-437.916"/>
<text text-anchor="middle" x="643.5" y="-519.5" font-family="Helvetica,sans-Serif" font-size="10.00"> +RainMeshScale</text>
<text text-anchor="middle" x="643.5" y="-508.5" font-family="Helvetica,sans-Serif" font-size="10.00">+RainParticleWindVelocity</text>
</g>
<!-- Node30 -->
<g id="node11" class="node"><title>Node30</title>
<g id="a_node11"><a xlink:href="a26191.html" target="_top" xlink:title=" ">
<polygon fill="none" stroke="red" points="897,-298 897,-355 989,-355 989,-298 897,-298"/>
<text text-anchor="middle" x="943" y="-343" font-family="Helvetica,sans-Serif" font-size="10.00">SDK::FTransform</text>
<polyline fill="none" stroke="red" points="897,-336 989,-336 "/>
<text text-anchor="middle" x="943" y="-324" font-family="Helvetica,sans-Serif" font-size="10.00"> </text>
<polyline fill="none" stroke="red" points="897,-317 989,-317 "/>
<text text-anchor="middle" x="943" y="-305" font-family="Helvetica,sans-Serif" font-size="10.00"> </text>
</a>
</g>
</g>
<!-- Node19&#45;&gt;Node30 -->
<g id="edge17" class="edge"><title>Node19&#45;&gt;Node30</title>
<path fill="none" stroke="#404040" d="M706.409,-606.229C703.102,-554.297 708.489,-486.255 750,-445 792.309,-402.951 833.149,-459.757 883,-427 904.721,-412.728 919.776,-387.618 929.373,-366.194"/>
<polygon fill="none" stroke="#404040" points="929.39,-366.154 928.018,-359.074 934.026,-355.085 935.397,-362.165 929.39,-366.154"/>
<text text-anchor="middle" x="777" y="-519.5" font-family="Helvetica,sans-Serif" font-size="10.00"> +Scale3D</text>
<text text-anchor="middle" x="777" y="-508.5" font-family="Helvetica,sans-Serif" font-size="10.00">+Translation</text>
</g>
<!-- Node18 -->
<g id="node5" class="node"><title>Node18</title>
<g id="a_node5"><a xlink:title=" ">
<polygon fill="none" stroke="#bfbfbf" points="517.5,-931.5 517.5,-988.5 552.5,-988.5 552.5,-931.5 517.5,-931.5"/>
<text text-anchor="middle" x="535" y="-976.5" font-family="Helvetica,sans-Serif" font-size="10.00">float</text>
<polyline fill="none" stroke="#bfbfbf" points="517.5,-969.5 552.5,-969.5 "/>
<text text-anchor="middle" x="535" y="-957.5" font-family="Helvetica,sans-Serif" font-size="10.00"> </text>
<polyline fill="none" stroke="#bfbfbf" points="517.5,-950.5 552.5,-950.5 "/>
<text text-anchor="middle" x="535" y="-938.5" font-family="Helvetica,sans-Serif" font-size="10.00"> </text>
</a>
</g>
</g>
<!-- Node18&#45;&gt;Node1 -->
<g id="edge21" class="edge"><title>Node18&#45;&gt;Node1</title>
<path fill="none" stroke="#404040" d="M517.304,-954.61C494.441,-948.291 454.231,-934.916 426,-913 282.69,-801.745 236.92,-759.932 179,-588 158.71,-527.77 163.237,-506.57 179,-445 206.527,-337.48 219.058,-302.99 299,-226 396.29,-132.302 801.773,-102.721 989.213,-93.9491"/>
<polygon fill="none" stroke="#404040" points="989.251,-93.9474 995.063,-89.6783 1001.24,-93.4009 995.427,-97.67 989.251,-93.9474"/>
<text text-anchor="start" x="179" y="-574.5" font-family="Helvetica,sans-Serif" font-size="10.00"> +AmbientOcclusionHemiUpsample</text>
<text text-anchor="middle" x="266.5" y="-563.5" font-family="Helvetica,sans-Serif" font-size="10.00">Tolerance</text>
<text text-anchor="middle" x="266.5" y="-552.5" font-family="Helvetica,sans-Serif" font-size="10.00">+SkyLightIntensityScale</text>
<text text-anchor="middle" x="266.5" y="-541.5" font-family="Helvetica,sans-Serif" font-size="10.00">+ScreenSpaceReflectionMaxRoughness</text>
<text text-anchor="middle" x="266.5" y="-530.5" font-family="Helvetica,sans-Serif" font-size="10.00">+MotionBlurPerObjectSize</text>
<text text-anchor="middle" x="266.5" y="-519.5" font-family="Helvetica,sans-Serif" font-size="10.00">+DepthOfFieldFarBlurSize</text>
<text text-anchor="middle" x="266.5" y="-508.5" font-family="Helvetica,sans-Serif" font-size="10.00">+AmbientOcclusionHemiPower</text>
<text text-anchor="middle" x="266.5" y="-497.5" font-family="Helvetica,sans-Serif" font-size="10.00">+AmbientOcclusionPower</text>
<text text-anchor="middle" x="266.5" y="-486.5" font-family="Helvetica,sans-Serif" font-size="10.00">+AutoExposureSpeedDown</text>
<text text-anchor="middle" x="266.5" y="-475.5" font-family="Helvetica,sans-Serif" font-size="10.00">+AutoExposureMaxBrightness</text>
<text text-anchor="middle" x="266.5" y="-464.5" font-family="Helvetica,sans-Serif" font-size="10.00">+LPVSpecularOcclusionExponent</text>
<text text-anchor="middle" x="266.5" y="-453.5" font-family="Helvetica,sans-Serif" font-size="10.00">...</text>
</g>
<!-- Node18&#45;&gt;Node3 -->
<g id="edge5" class="edge"><title>Node18&#45;&gt;Node3</title>
<path fill="none" stroke="#404040" d="M531.641,-931.266C527.022,-891.601 518.947,-816.351 516,-752 513.031,-687.179 488.886,-664.952 516,-606 521.137,-594.832 530.809,-598.62 537,-588 569.615,-532.049 540.753,-505.052 565,-445 565.959,-442.624 566.969,-440.244 568.022,-437.865"/>
<polygon fill="none" stroke="#404040" points="568.142,-437.61 567.079,-430.478 573.253,-426.753 574.317,-433.886 568.142,-437.61"/>
<text text-anchor="middle" x="592" y="-742.5" font-family="Helvetica,sans-Serif" font-size="10.00"> +RainParticleAlpha</text>
<text text-anchor="start" x="516" y="-731.5" font-family="Helvetica,sans-Serif" font-size="10.00">+RainSplashesMaxPlacement</text>
<text text-anchor="middle" x="592" y="-720.5" font-family="Helvetica,sans-Serif" font-size="10.00">Angle</text>
<text text-anchor="middle" x="592" y="-709.5" font-family="Helvetica,sans-Serif" font-size="10.00">+RainParticleSpeed</text>
<text text-anchor="middle" x="592" y="-698.5" font-family="Helvetica,sans-Serif" font-size="10.00">+RainMeshEndAlphaFade</text>
<text text-anchor="middle" x="592" y="-687.5" font-family="Helvetica,sans-Serif" font-size="10.00">+RainSplashesPerSquareMetre</text>
<text text-anchor="middle" x="592" y="-676.5" font-family="Helvetica,sans-Serif" font-size="10.00">+RainMeshEndRadiusScale</text>
<text text-anchor="start" x="516" y="-665.5" font-family="Helvetica,sans-Serif" font-size="10.00">+RainCloseParticleAlphaReduction</text>
<text text-anchor="middle" x="592" y="-654.5" font-family="Helvetica,sans-Serif" font-size="10.00">Multiplier</text>
<text text-anchor="middle" x="592" y="-643.5" font-family="Helvetica,sans-Serif" font-size="10.00">+RainMeshAlpha</text>
<text text-anchor="middle" x="592" y="-632.5" font-family="Helvetica,sans-Serif" font-size="10.00">+RainCloseParticleAlphaDistance</text>
<text text-anchor="middle" x="592" y="-621.5" font-family="Helvetica,sans-Serif" font-size="10.00">+RainMeshBrightness</text>
<text text-anchor="middle" x="592" y="-610.5" font-family="Helvetica,sans-Serif" font-size="10.00">...</text>
</g>
<!-- Node18&#45;&gt;Node19 -->
<g id="edge4" class="edge"><title>Node18&#45;&gt;Node19</title>
<path fill="none" stroke="#404040" d="M538.372,-931.488C544.813,-890.639 562.628,-814.046 609,-770 627.343,-752.577 642.477,-766.792 663,-752 664.743,-750.744 666.454,-749.415 668.133,-748.025"/>
<polygon fill="none" stroke="#404040" points="668.566,-747.623 670.252,-740.612 677.372,-739.471 675.686,-746.482 668.566,-747.623"/>
<text text-anchor="middle" x="616.5" y="-850" font-family="Helvetica,sans-Serif" font-size="10.00"> +X</text>
<text text-anchor="middle" x="616.5" y="-839" font-family="Helvetica,sans-Serif" font-size="10.00">+Y</text>
<text text-anchor="middle" x="616.5" y="-828" font-family="Helvetica,sans-Serif" font-size="10.00">+Z</text>
</g>
<!-- Node20 -->
<g id="node6" class="node"><title>Node20</title>
<g id="a_node6"><a xlink:href="a26483.html" target="_top" xlink:title=" ">
<polygon fill="none" stroke="red" points="971,-645 971,-713 1067,-713 1067,-645 971,-645"/>
<text text-anchor="middle" x="1019" y="-701" font-family="Helvetica,sans-Serif" font-size="10.00">SDK::UTexture</text>
<polyline fill="none" stroke="red" points="971,-694 1067,-694 "/>
<text text-anchor="start" x="979" y="-682" font-family="Helvetica,sans-Serif" font-size="10.00">+ NeverStream</text>
<text text-anchor="start" x="979" y="-671" font-family="Helvetica,sans-Serif" font-size="10.00">+ UnknownData00</text>
<polyline fill="none" stroke="red" points="971,-664 1067,-664 "/>
<text text-anchor="start" x="979" y="-652" font-family="Helvetica,sans-Serif" font-size="10.00">+ StaticClass()</text>
</a>
</g>
</g>
<!-- Node18&#45;&gt;Node20 -->
<g id="edge7" class="edge"><title>Node18&#45;&gt;Node20</title>
<path fill="none" stroke="#404040" d="M552.779,-953.593C572.38,-946.852 603.808,-933.638 624,-913 673.487,-862.421 635.278,-809.484 694,-770 742.614,-737.313 904.616,-778.223 957,-752 970.368,-745.308 982.041,-734.331 991.544,-722.942"/>
<polygon fill="none" stroke="#404040" points="991.632,-722.83 992.163,-715.638 999.006,-713.363 998.474,-720.554 991.632,-722.83"/>
<text text-anchor="middle" x="749" y="-839" font-family="Helvetica,sans-Serif" font-size="10.00"> +StreamingPriorityBoost</text>
</g>
<!-- Node27 -->
<g id="node8" class="node"><title>Node27</title>
<g id="a_node8"><a xlink:href="a26119.html" target="_top" xlink:title=" ">
<polygon fill="none" stroke="black" points="373,-628.5 373,-729.5 471,-729.5 471,-628.5 373,-628.5"/>
<text text-anchor="middle" x="422" y="-717.5" font-family="Helvetica,sans-Serif" font-size="10.00">SDK::FLinearColor</text>
<polyline fill="none" stroke="black" points="373,-710.5 471,-710.5 "/>
<text text-anchor="middle" x="422" y="-698.5" font-family="Helvetica,sans-Serif" font-size="10.00"> </text>
<polyline fill="none" stroke="black" points="373,-691.5 471,-691.5 "/>
<text text-anchor="start" x="381" y="-679.5" font-family="Helvetica,sans-Serif" font-size="10.00">+ FLinearColor()</text>
<text text-anchor="start" x="381" y="-668.5" font-family="Helvetica,sans-Serif" font-size="10.00">+ FLinearColor()</text>
<text text-anchor="start" x="381" y="-657.5" font-family="Helvetica,sans-Serif" font-size="10.00">+ FLinearColor()</text>
<text text-anchor="start" x="381" y="-646.5" font-family="Helvetica,sans-Serif" font-size="10.00">+ operator!=()</text>
<text text-anchor="start" x="381" y="-635.5" font-family="Helvetica,sans-Serif" font-size="10.00">+ operator==()</text>
</a>
</g>
</g>
<!-- Node18&#45;&gt;Node27 -->
<g id="edge11" class="edge"><title>Node18&#45;&gt;Node27</title>
<path fill="none" stroke="#404040" d="M517.38,-949.426C504.274,-941.397 486.994,-928.729 477,-913 444.019,-861.095 430.79,-791.355 425.497,-741.735"/>
<polygon fill="none" stroke="#404040" points="425.476,-741.521 420.915,-735.936 424.315,-729.577 428.877,-735.162 425.476,-741.521"/>
<text text-anchor="middle" x="485" y="-855.5" font-family="Helvetica,sans-Serif" font-size="10.00"> +A</text>
<text text-anchor="middle" x="485" y="-844.5" font-family="Helvetica,sans-Serif" font-size="10.00">+R</text>
<text text-anchor="middle" x="485" y="-833.5" font-family="Helvetica,sans-Serif" font-size="10.00">+B</text>
<text text-anchor="middle" x="485" y="-822.5" font-family="Helvetica,sans-Serif" font-size="10.00">+G</text>
</g>
<!-- Node32 -->
<g id="node12" class="node"><title>Node32</title>
<g id="a_node12"><a xlink:href="a29971.html" target="_top" xlink:title=" ">
<polygon fill="none" stroke="black" points="1317,-645 1317,-713 1451,-713 1451,-645 1317,-645"/>
<text text-anchor="start" x="1325" y="-701" font-family="Helvetica,sans-Serif" font-size="10.00">SDK::FPlayerAmbientLight</text>
<text text-anchor="middle" x="1384" y="-690" font-family="Helvetica,sans-Serif" font-size="10.00">OverrideSettings</text>
<polyline fill="none" stroke="black" points="1317,-683 1451,-683 "/>
<text text-anchor="middle" x="1384" y="-671" font-family="Helvetica,sans-Serif" font-size="10.00"> </text>
<polyline fill="none" stroke="black" points="1317,-664 1451,-664 "/>
<text text-anchor="middle" x="1384" y="-652" font-family="Helvetica,sans-Serif" font-size="10.00"> </text>
</a>
</g>
</g>
<!-- Node18&#45;&gt;Node32 -->
<g id="edge24" class="edge"><title>Node18&#45;&gt;Node32</title>
<path fill="none" stroke="#404040" d="M552.511,-958.481C606.29,-956.523 767.627,-947.802 804,-913 850.987,-868.041 785.172,-811.789 835,-770 874.872,-736.56 1254.72,-771.425 1303,-752 1319.43,-745.388 1334.74,-733.901 1347.51,-722.019"/>
<polygon fill="none" stroke="#404040" points="1347.78,-721.758 1349.27,-714.702 1356.35,-713.362 1354.87,-720.417 1347.78,-721.758"/>
<text text-anchor="middle" x="913.5" y="-861" font-family="Helvetica,sans-Serif" font-size="10.00"> +LanternAmbienceLightFactor</text>
<text text-anchor="start" x="835" y="-850" font-family="Helvetica,sans-Serif" font-size="10.00">+BodyLightAmbienceBlendWith</text>
<text text-anchor="middle" x="913.5" y="-839" font-family="Helvetica,sans-Serif" font-size="10.00">Default</text>
<text text-anchor="middle" x="913.5" y="-828" font-family="Helvetica,sans-Serif" font-size="10.00">+LanternAmbienceBlendWithDefault</text>
<text text-anchor="middle" x="913.5" y="-817" font-family="Helvetica,sans-Serif" font-size="10.00">+BodyLightAmbienceLightFactor</text>
</g>
<!-- Node20&#45;&gt;Node1 -->
<g id="edge20" class="edge"><title>Node20&#45;&gt;Node1</title>
<path fill="none" stroke="#404040" d="M1015.42,-644.588C1007.94,-592.657 985.548,-493.513 921,-445 893.457,-424.299 789.906,-452.739 767,-427 737.306,-393.633 742.372,-263.264 767,-226 815.974,-151.898 914.617,-118.188 989.125,-102.934"/>
<polygon fill="none" stroke="#404040" points="989.553,-102.851 994.677,-97.7766 1001.33,-100.555 996.208,-105.629 989.553,-102.851"/>
<text text-anchor="middle" x="827.5" y="-340.5" font-family="Helvetica,sans-Serif" font-size="10.00"> +DepthOfFieldBokehShape</text>
<text text-anchor="middle" x="827.5" y="-329.5" font-family="Helvetica,sans-Serif" font-size="10.00">+ColorGradingLUT</text>
<text text-anchor="middle" x="827.5" y="-318.5" font-family="Helvetica,sans-Serif" font-size="10.00">+LensFlareBokehShape</text>
<text text-anchor="middle" x="827.5" y="-307.5" font-family="Helvetica,sans-Serif" font-size="10.00">+BloomDirtMask</text>
</g>
<!-- Node20&#45;&gt;Node3 -->
<g id="edge6" class="edge"><title>Node20&#45;&gt;Node3</title>
<path fill="none" stroke="#404040" d="M998.455,-644.792C987.863,-630.525 973.659,-615.074 957,-606 905.776,-578.1 868.694,-628.791 827,-588 780.986,-542.983 847.203,-492.721 804,-445 783.018,-421.824 762.916,-442.903 736,-427 734.641,-426.197 733.289,-425.369 731.944,-424.518"/>
<polygon fill="none" stroke="#404040" points="731.694,-424.347 724.483,-424.262 721.788,-417.574 728.999,-417.659 731.694,-424.347"/>
<text text-anchor="middle" x="874" y="-519.5" font-family="Helvetica,sans-Serif" font-size="10.00"> +RainParticleTexture</text>
<text text-anchor="middle" x="874" y="-508.5" font-family="Helvetica,sans-Serif" font-size="10.00">+RainMeshTexture</text>
</g>
<!-- Node29 -->
<g id="node10" class="node"><title>Node29</title>
<g id="a_node10"><a xlink:href="a29823.html" target="_top" xlink:title=" ">
<polygon fill="none" stroke="black" points="1181,-298 1181,-355 1285,-355 1285,-298 1181,-298"/>
<text text-anchor="middle" x="1233" y="-343" font-family="Helvetica,sans-Serif" font-size="10.00">SDK::UTextureCube</text>
<polyline fill="none" stroke="black" points="1181,-336 1285,-336 "/>
<text text-anchor="middle" x="1233" y="-324" font-family="Helvetica,sans-Serif" font-size="10.00"> </text>
<polyline fill="none" stroke="black" points="1181,-317 1285,-317 "/>
<text text-anchor="start" x="1189" y="-305" font-family="Helvetica,sans-Serif" font-size="10.00">+ StaticClass()</text>
</a>
</g>
</g>
<!-- Node20&#45;&gt;Node29 -->
<g id="edge14" class="edge"><title>Node20&#45;&gt;Node29</title>
<path fill="none" stroke="midnightblue" d="M1044.76,-635.804C1089.14,-563.125 1178.81,-416.251 1216.12,-355.145"/>
<polygon fill="none" stroke="midnightblue" points="1041.55,-634.351 1039.33,-644.71 1047.52,-637.999 1041.55,-634.351"/>
</g>
<!-- Node15 -->
<g id="node7" class="node"><title>Node15</title>
<g id="a_node7"><a xlink:title=" ">
<polygon fill="none" stroke="#bfbfbf" points="1160.5,-931.5 1160.5,-988.5 1195.5,-988.5 1195.5,-931.5 1160.5,-931.5"/>
<text text-anchor="middle" x="1178" y="-976.5" font-family="Helvetica,sans-Serif" font-size="10.00">char</text>
<polyline fill="none" stroke="#bfbfbf" points="1160.5,-969.5 1195.5,-969.5 "/>
<text text-anchor="middle" x="1178" y="-957.5" font-family="Helvetica,sans-Serif" font-size="10.00"> </text>
<polyline fill="none" stroke="#bfbfbf" points="1160.5,-950.5 1195.5,-950.5 "/>
<text text-anchor="middle" x="1178" y="-938.5" font-family="Helvetica,sans-Serif" font-size="10.00"> </text>
</a>
</g>
</g>
<!-- Node15&#45;&gt;Node1 -->
<g id="edge22" class="edge"><title>Node15&#45;&gt;Node1</title>
<path fill="none" stroke="#404040" d="M1195.81,-959.01C1252.95,-958.627 1429.97,-954.09 1465,-913 1514.52,-854.91 1508.99,-288.385 1465,-226 1401.14,-135.427 1271.05,-105.053 1181,-95.0626"/>
<polygon fill="none" stroke="#404040" points="1180.79,-95.0404 1174.41,-98.4043 1168.85,-93.8104 1175.23,-90.4464 1180.79,-95.0404"/>
<text text-anchor="middle" x="1576.5" y="-580" font-family="Helvetica,sans-Serif" font-size="10.00"> +UnknownData01</text>
<text text-anchor="start" x="1501" y="-569" font-family="Helvetica,sans-Serif" font-size="10.00">+bOverride_DepthOfField</text>
<text text-anchor="middle" x="1576.5" y="-558" font-family="Helvetica,sans-Serif" font-size="10.00">Method</text>
<text text-anchor="middle" x="1576.5" y="-547" font-family="Helvetica,sans-Serif" font-size="10.00">+bOverride_LPVWorldRef</text>
<text text-anchor="start" x="1501" y="-536" font-family="Helvetica,sans-Serif" font-size="10.00">+bOverride_AmbientOcclusion</text>
<text text-anchor="middle" x="1576.5" y="-525" font-family="Helvetica,sans-Serif" font-size="10.00">HemiRejectionFalloff</text>
<text text-anchor="middle" x="1576.5" y="-514" font-family="Helvetica,sans-Serif" font-size="10.00">+bOverride_GrainJitter</text>
<text text-anchor="middle" x="1576.5" y="-503" font-family="Helvetica,sans-Serif" font-size="10.00">+bOverride_LensFlareBokehShape</text>
<text text-anchor="middle" x="1576.5" y="-492" font-family="Helvetica,sans-Serif" font-size="10.00">+bOverride_Bloom6Size</text>
<text text-anchor="middle" x="1576.5" y="-481" font-family="Helvetica,sans-Serif" font-size="10.00">+bOverride_Bloom1Tint</text>
<text text-anchor="middle" x="1576.5" y="-470" font-family="Helvetica,sans-Serif" font-size="10.00">+bOverride_SceneFringeSaturation</text>
<text text-anchor="middle" x="1576.5" y="-459" font-family="Helvetica,sans-Serif" font-size="10.00">+bOverride_ColorOffset</text>
<text text-anchor="middle" x="1576.5" y="-448" font-family="Helvetica,sans-Serif" font-size="10.00">...</text>
</g>
<!-- Node15&#45;&gt;Node3 -->
<g id="edge9" class="edge"><title>Node15&#45;&gt;Node3</title>
<path fill="none" stroke="#404040" d="M1160.47,-958.122C1090.2,-954.432 831.537,-939.149 807,-913 735.709,-837.024 836.397,-531.95 779,-445 769.145,-430.071 757.577,-437.369 743,-427 739.086,-424.216 735.18,-421.282 731.302,-418.237"/>
<polygon fill="none" stroke="#404040" points="731.045,-418.028 723.866,-417.349 721.733,-410.46 728.912,-411.14 731.045,-418.028"/>
<text text-anchor="middle" x="875" y="-742.5" font-family="Helvetica,sans-Serif" font-size="10.00"> +UnknownData01</text>
<text text-anchor="start" x="795" y="-731.5" font-family="Helvetica,sans-Serif" font-size="10.00">+bOverride_RainMeshFade</text>
<text text-anchor="middle" x="875" y="-720.5" font-family="Helvetica,sans-Serif" font-size="10.00">Distance</text>
<text text-anchor="middle" x="875" y="-709.5" font-family="Helvetica,sans-Serif" font-size="10.00">+UnknownData02</text>
<text text-anchor="middle" x="875" y="-698.5" font-family="Helvetica,sans-Serif" font-size="10.00">+bOverride_RainMeshRowDivision</text>
<text text-anchor="start" x="795" y="-687.5" font-family="Helvetica,sans-Serif" font-size="10.00">+bOverride_RainCloseParticleAlpha</text>
<text text-anchor="middle" x="875" y="-676.5" font-family="Helvetica,sans-Serif" font-size="10.00">Distance</text>
<text text-anchor="middle" x="875" y="-665.5" font-family="Helvetica,sans-Serif" font-size="10.00">+bOverride_RainIntensity</text>
<text text-anchor="middle" x="875" y="-654.5" font-family="Helvetica,sans-Serif" font-size="10.00">+bOverride_RainSplashesPerSecond</text>
<text text-anchor="middle" x="875" y="-643.5" font-family="Helvetica,sans-Serif" font-size="10.00">+bOverride_RainMeshBrightness</text>
<text text-anchor="middle" x="875" y="-632.5" font-family="Helvetica,sans-Serif" font-size="10.00">+bOverride_RainParticleLength</text>
<text text-anchor="middle" x="875" y="-621.5" font-family="Helvetica,sans-Serif" font-size="10.00">+bOverride_RainMeshAlpha</text>
<text text-anchor="middle" x="875" y="-610.5" font-family="Helvetica,sans-Serif" font-size="10.00">...</text>
</g>
<!-- Node15&#45;&gt;Node20 -->
<g id="edge8" class="edge"><title>Node15&#45;&gt;Node20</title>
<path fill="none" stroke="#404040" d="M1160.32,-956.938C1120.49,-951.894 1025.8,-937.521 1007,-913 985.26,-884.639 999.189,-784.682 1009.95,-725.298"/>
<polygon fill="none" stroke="#404040" points="1009.99,-725.081 1007.15,-718.451 1012.18,-713.283 1015.02,-719.913 1009.99,-725.081"/>
<text text-anchor="middle" x="1065" y="-905" font-family="Helvetica,sans-Serif" font-size="10.00"> +UnknownData01</text>
<text text-anchor="middle" x="1065" y="-894" font-family="Helvetica,sans-Serif" font-size="10.00">+bUAV</text>
<text text-anchor="middle" x="1065" y="-883" font-family="Helvetica,sans-Serif" font-size="10.00">+UnknownData02</text>
<text text-anchor="middle" x="1065" y="-872" font-family="Helvetica,sans-Serif" font-size="10.00">+UnknownData03</text>
<text text-anchor="middle" x="1065" y="-861" font-family="Helvetica,sans-Serif" font-size="10.00">+bNoTiling</text>
<text text-anchor="middle" x="1065" y="-850" font-family="Helvetica,sans-Serif" font-size="10.00">+UnknownData04</text>
<text text-anchor="middle" x="1065" y="-839" font-family="Helvetica,sans-Serif" font-size="10.00">+SRGB</text>
<text text-anchor="start" x="1007" y="-828" font-family="Helvetica,sans-Serif" font-size="10.00">+bUseCinematicMip</text>
<text text-anchor="middle" x="1065" y="-817" font-family="Helvetica,sans-Serif" font-size="10.00">Levels</text>
<text text-anchor="start" x="1007" y="-806" font-family="Helvetica,sans-Serif" font-size="10.00">+bAsyncResourceRelease</text>
<text text-anchor="middle" x="1065" y="-795" font-family="Helvetica,sans-Serif" font-size="10.00">HasBeenStarted</text>
<text text-anchor="middle" x="1065" y="-784" font-family="Helvetica,sans-Serif" font-size="10.00">+CompressionNone</text>
<text text-anchor="middle" x="1065" y="-773" font-family="Helvetica,sans-Serif" font-size="10.00">...</text>
</g>
<!-- Node15&#45;&gt;Node29 -->
<g id="edge15" class="edge"><title>Node15&#45;&gt;Node29</title>
<path fill="none" stroke="#404040" d="M1180.4,-931.459C1189.13,-831.238 1219.22,-485.664 1229.52,-367.492"/>
<polygon fill="none" stroke="#404040" points="1229.55,-367.141 1226.08,-360.816 1230.59,-355.186 1234.05,-361.51 1229.55,-367.141"/>
<text text-anchor="middle" x="1249" y="-676.5" font-family="Helvetica,sans-Serif" font-size="10.00"> +UnknownData00</text>
</g>
<!-- Node15&#45;&gt;Node30 -->
<g id="edge18" class="edge"><title>Node15&#45;&gt;Node30</title>
<path fill="none" stroke="#404040" d="M1172.03,-931.428C1163.47,-894.026 1146.15,-825.511 1123,-770 1119.48,-761.554 1116.37,-760.507 1113,-752 1088.32,-689.777 1098.76,-668.953 1076,-606 1043.86,-517.087 992.84,-418.434 964.236,-365.708"/>
<polygon fill="none" stroke="#404040" points="964.236,-365.707 957.85,-362.356 958.487,-355.173 964.873,-358.524 964.236,-365.707"/>
<text text-anchor="middle" x="1153" y="-682" font-family="Helvetica,sans-Serif" font-size="10.00"> +UnknownData01</text>
<text text-anchor="middle" x="1153" y="-671" font-family="Helvetica,sans-Serif" font-size="10.00">+UnknownData00</text>
</g>
<!-- Node15&#45;&gt;Node32 -->
<g id="edge25" class="edge"><title>Node15&#45;&gt;Node32</title>
<path fill="none" stroke="#404040" d="M1195.53,-946.509C1206.96,-937.866 1221.78,-925.676 1233,-913 1286.17,-852.939 1334.02,-772.505 1361,-723.565"/>
<polygon fill="none" stroke="#404040" points="1361.01,-723.556 1360.37,-716.372 1366.76,-713.024 1367.39,-720.207 1361.01,-723.556"/>
<text text-anchor="middle" x="1397.5" y="-855.5" font-family="Helvetica,sans-Serif" font-size="10.00"> +UnknownData01</text>
<text text-anchor="middle" x="1397.5" y="-844.5" font-family="Helvetica,sans-Serif" font-size="10.00">+OverrideLanternAmbience</text>
<text text-anchor="middle" x="1397.5" y="-833.5" font-family="Helvetica,sans-Serif" font-size="10.00">+OverrideBodyLightAmbience</text>
<text text-anchor="middle" x="1397.5" y="-822.5" font-family="Helvetica,sans-Serif" font-size="10.00">+UnknownData00</text>
</g>
<!-- Node27&#45;&gt;Node1 -->
<g id="edge29" class="edge"><title>Node27&#45;&gt;Node1</title>
<path fill="none" stroke="#404040" d="M416.623,-628.373C409.442,-578.852 393.255,-502.115 358,-445 351.718,-434.824 342.865,-437.924 338,-427 301.656,-345.394 280.746,-294.574 338,-226 419.906,-127.901 806.355,-100.671 988.968,-93.2336"/>
<polygon fill="none" stroke="#404040" points="989.236,-93.2232 995.074,-88.9905 1001.23,-92.7517 995.389,-96.9844 989.236,-93.2232"/>
<text text-anchor="middle" x="393.5" y="-384.5" font-family="Helvetica,sans-Serif" font-size="10.00"> +GlobalReflectionTint</text>
<text text-anchor="middle" x="393.5" y="-373.5" font-family="Helvetica,sans-Serif" font-size="10.00">+LensFlareTints</text>
<text text-anchor="middle" x="393.5" y="-362.5" font-family="Helvetica,sans-Serif" font-size="10.00">+Bloom6Tint</text>
<text text-anchor="middle" x="393.5" y="-351.5" font-family="Helvetica,sans-Serif" font-size="10.00">+Bloom5Tint</text>
<text text-anchor="middle" x="393.5" y="-340.5" font-family="Helvetica,sans-Serif" font-size="10.00">+FilmChannelMixerGreen</text>
<text text-anchor="middle" x="393.5" y="-329.5" font-family="Helvetica,sans-Serif" font-size="10.00">+Bloom4Tint</text>
<text text-anchor="start" x="338" y="-318.5" font-family="Helvetica,sans-Serif" font-size="10.00">+InsideAmbientColourFor</text>
<text text-anchor="middle" x="393.5" y="-307.5" font-family="Helvetica,sans-Serif" font-size="10.00">Particles</text>
<text text-anchor="middle" x="393.5" y="-296.5" font-family="Helvetica,sans-Serif" font-size="10.00">+Bloom3Tint</text>
<text text-anchor="middle" x="393.5" y="-285.5" font-family="Helvetica,sans-Serif" font-size="10.00">+IndirectLightingColor</text>
<text text-anchor="middle" x="393.5" y="-274.5" font-family="Helvetica,sans-Serif" font-size="10.00">+Bloom2Tint</text>
<text text-anchor="middle" x="393.5" y="-263.5" font-family="Helvetica,sans-Serif" font-size="10.00">...</text>
</g>
<!-- Node27&#45;&gt;Node3 -->
<g id="edge10" class="edge"><title>Node27&#45;&gt;Node3</title>
<path fill="none" stroke="#404040" d="M423.975,-628.133C428.69,-575.853 443.904,-494.556 492,-445 509.619,-426.846 524.635,-440.548 546,-427 547.513,-426.041 549.018,-425.052 550.516,-424.037"/>
<polygon fill="none" stroke="#404040" points="550.553,-424.011 553.07,-417.253 560.275,-416.977 557.759,-423.735 550.553,-424.011"/>
<text text-anchor="middle" x="514.5" y="-514" font-family="Helvetica,sans-Serif" font-size="10.00"> +RainTint</text>
</g>
<!-- Node28 -->
<g id="node9" class="node"><title>Node28</title>
<g id="a_node9"><a xlink:href="a25635.html" target="_top" xlink:title=" ">
<polygon fill="none" stroke="black" points="1007,-259.5 1007,-393.5 1163,-393.5 1163,-259.5 1007,-259.5"/>
<text text-anchor="start" x="1015" y="-381.5" font-family="Helvetica,sans-Serif" font-size="10.00">SDK::TEnumAsByte&lt; EDisable</text>
<text text-anchor="middle" x="1085" y="-370.5" font-family="Helvetica,sans-Serif" font-size="10.00">ShadowMapMethod &gt;</text>
<polyline fill="none" stroke="black" points="1007,-363.5 1163,-363.5 "/>
<text text-anchor="middle" x="1085" y="-351.5" font-family="Helvetica,sans-Serif" font-size="10.00"> </text>
<polyline fill="none" stroke="black" points="1007,-344.5 1163,-344.5 "/>
<text text-anchor="start" x="1015" y="-332.5" font-family="Helvetica,sans-Serif" font-size="10.00">+ TEnumAsByte()</text>
<text text-anchor="start" x="1015" y="-321.5" font-family="Helvetica,sans-Serif" font-size="10.00">+ TEnumAsByte()</text>
<text text-anchor="start" x="1015" y="-310.5" font-family="Helvetica,sans-Serif" font-size="10.00">+ TEnumAsByte()</text>
<text text-anchor="start" x="1015" y="-299.5" font-family="Helvetica,sans-Serif" font-size="10.00">+ TEnumAsByte()</text>
<text text-anchor="start" x="1015" y="-288.5" font-family="Helvetica,sans-Serif" font-size="10.00">+ operator EDisableShadowMap</text>
<text text-anchor="start" x="1015" y="-277.5" font-family="Helvetica,sans-Serif" font-size="10.00">Method()</text>
<text text-anchor="start" x="1015" y="-266.5" font-family="Helvetica,sans-Serif" font-size="10.00">+ GetValue()</text>
</a>
</g>
</g>
<!-- Node28&#45;&gt;Node1 -->
<g id="edge12" class="edge"><title>Node28&#45;&gt;Node1</title>
<path fill="none" stroke="#404040" d="M1085,-259.414C1085,-238.143 1085,-214.071 1085,-190.905"/>
<polygon fill="none" stroke="#404040" points="1085,-190.894 1081,-184.894 1085,-178.894 1089,-184.893 1085,-190.894"/>
<text text-anchor="middle" x="1139.5" y="-200" font-family="Helvetica,sans-Serif" font-size="10.00"> +DisableShadowMethod</text>
</g>
<!-- Node29&#45;&gt;Node1 -->
<g id="edge13" class="edge"><title>Node29&#45;&gt;Node1</title>
<path fill="none" stroke="#404040" d="M1229.31,-297.744C1224.73,-270.516 1215.08,-228.599 1196,-197 1190.37,-187.682 1183.73,-178.631 1176.52,-169.999"/>
<polygon fill="none" stroke="#404040" points="1176.39,-169.852 1169.44,-167.956 1168.51,-160.804 1175.47,-162.701 1176.39,-169.852"/>
<text text-anchor="middle" x="1245.5" y="-200" font-family="Helvetica,sans-Serif" font-size="10.00"> +AmbientCubemap</text>
</g>
<!-- Node30&#45;&gt;Node1 -->
<g id="edge16" class="edge"><title>Node30&#45;&gt;Node1</title>
<path fill="none" stroke="#404040" d="M957.007,-297.998C970.636,-271.684 992.267,-231.073 1013,-197 1014.6,-194.372 1016.23,-191.719 1017.9,-189.051"/>
<polygon fill="none" stroke="#404040" points="1018.02,-188.849 1017.85,-181.64 1024.43,-178.703 1024.61,-185.912 1018.02,-188.849"/>
<text text-anchor="middle" x="1047" y="-200" font-family="Helvetica,sans-Serif" font-size="10.00"> +LPVWorldRef</text>
</g>
<!-- Node32&#45;&gt;Node1 -->
<g id="edge23" class="edge"><title>Node32&#45;&gt;Node1</title>
<path fill="none" stroke="#404040" d="M1377.37,-644.732C1367.83,-596.693 1349.75,-505.093 1335,-427 1315.71,-324.893 1354.98,-280.404 1293,-197 1265.3,-159.721 1220.77,-134.485 1180.01,-117.977"/>
<polygon fill="none" stroke="#404040" points="1179.82,-117.9 1172.77,-119.452 1168.63,-113.549 1175.67,-111.997 1179.82,-117.9"/>
<text text-anchor="start" x="1335" y="-329.5" font-family="Helvetica,sans-Serif" font-size="10.00"> +PlayerAmbientLightOverride</text>
<text text-anchor="middle" x="1400" y="-318.5" font-family="Helvetica,sans-Serif" font-size="10.00">Settings</text>
</g>
<!-- Node33 -->
<g id="node13" class="node"><title>Node33</title>
<g id="a_node13"><a xlink:href="a25611.html" target="_top" xlink:title=" ">
<polygon fill="none" stroke="black" points="1507,-270.5 1507,-382.5 1611,-382.5 1611,-270.5 1507,-270.5"/>
<text text-anchor="start" x="1515" y="-370.5" font-family="Helvetica,sans-Serif" font-size="10.00">SDK::TArray&lt; class</text>
<text text-anchor="middle" x="1559" y="-359.5" font-family="Helvetica,sans-Serif" font-size="10.00"> SDK::UObject * &gt;</text>
<polyline fill="none" stroke="black" points="1507,-352.5 1611,-352.5 "/>
<text text-anchor="middle" x="1559" y="-340.5" font-family="Helvetica,sans-Serif" font-size="10.00"> </text>
<polyline fill="none" stroke="black" points="1507,-333.5 1611,-333.5 "/>
<text text-anchor="start" x="1515" y="-321.5" font-family="Helvetica,sans-Serif" font-size="10.00">+ TArray()</text>
<text text-anchor="start" x="1515" y="-310.5" font-family="Helvetica,sans-Serif" font-size="10.00">+ Num()</text>
<text text-anchor="start" x="1515" y="-299.5" font-family="Helvetica,sans-Serif" font-size="10.00">+ operator[]()</text>
<text text-anchor="start" x="1515" y="-288.5" font-family="Helvetica,sans-Serif" font-size="10.00">+ operator[]()</text>
<text text-anchor="start" x="1515" y="-277.5" font-family="Helvetica,sans-Serif" font-size="10.00">+ IsValidIndex()</text>
</a>
</g>
</g>
<!-- Node33&#45;&gt;Node1 -->
<g id="edge26" class="edge"><title>Node33&#45;&gt;Node1</title>
<path fill="none" stroke="#404040" d="M1542.4,-270.2C1532.05,-244.504 1516.19,-215.591 1493,-197 1403.31,-125.089 1270.14,-101.327 1180.57,-93.7018"/>
<polygon fill="none" stroke="#404040" points="1180.47,-93.6938 1174.17,-97.2092 1168.51,-92.7495 1174.8,-89.234 1180.47,-93.6938"/>
<text text-anchor="middle" x="1534" y="-200" font-family="Helvetica,sans-Serif" font-size="10.00"> +Blendables</text>
</g>
<!-- Node34 -->
<g id="node14" class="node"><title>Node34</title>
<g id="a_node14"><a xlink:href="a29979.html" target="_top" xlink:title=" ">
<polygon fill="none" stroke="red" points="1629,-298 1629,-355 1767,-355 1767,-298 1629,-298"/>
<text text-anchor="middle" x="1698" y="-343" font-family="Helvetica,sans-Serif" font-size="10.00">SDK::FWeightedBlendables</text>
<polyline fill="none" stroke="red" points="1629,-336 1767,-336 "/>
<text text-anchor="middle" x="1698" y="-324" font-family="Helvetica,sans-Serif" font-size="10.00"> </text>
<polyline fill="none" stroke="red" points="1629,-317 1767,-317 "/>
<text text-anchor="middle" x="1698" y="-305" font-family="Helvetica,sans-Serif" font-size="10.00"> </text>
</a>
</g>
</g>
<!-- Node34&#45;&gt;Node1 -->
<g id="edge27" class="edge"><title>Node34&#45;&gt;Node1</title>
<path fill="none" stroke="#404040" d="M1680.71,-297.655C1666.37,-276.174 1644.44,-246.726 1620,-226 1599.52,-208.634 1592.14,-206.435 1567,-197 1437.6,-148.433 1279.95,-118.792 1181,-103.505"/>
<polygon fill="none" stroke="#404040" points="1180.79,-103.474 1174.26,-106.525 1168.93,-101.667 1175.46,-98.6161 1180.79,-103.474"/>
<text text-anchor="middle" x="1643.5" y="-200" font-family="Helvetica,sans-Serif" font-size="10.00"> +WeightedBlendables</text>
</g>
<!-- Node36 -->
<g id="node15" class="node"><title>Node36</title>
<g id="a_node15"><a xlink:href="a25635.html" target="_top" xlink:title=" ">
<polygon fill="none" stroke="black" points="1785.5,-265 1785.5,-388 1958.5,-388 1958.5,-265 1785.5,-265"/>
<text text-anchor="start" x="1793.5" y="-376" font-family="Helvetica,sans-Serif" font-size="10.00">SDK::TEnumAsByte&lt; EAntiAliasing</text>
<text text-anchor="middle" x="1872" y="-365" font-family="Helvetica,sans-Serif" font-size="10.00">Method &gt;</text>
<polyline fill="none" stroke="black" points="1785.5,-358 1958.5,-358 "/>
<text text-anchor="middle" x="1872" y="-346" font-family="Helvetica,sans-Serif" font-size="10.00"> </text>
<polyline fill="none" stroke="black" points="1785.5,-339 1958.5,-339 "/>
<text text-anchor="start" x="1793.5" y="-327" font-family="Helvetica,sans-Serif" font-size="10.00">+ TEnumAsByte()</text>
<text text-anchor="start" x="1793.5" y="-316" font-family="Helvetica,sans-Serif" font-size="10.00">+ TEnumAsByte()</text>
<text text-anchor="start" x="1793.5" y="-305" font-family="Helvetica,sans-Serif" font-size="10.00">+ TEnumAsByte()</text>
<text text-anchor="start" x="1793.5" y="-294" font-family="Helvetica,sans-Serif" font-size="10.00">+ TEnumAsByte()</text>
<text text-anchor="start" x="1793.5" y="-283" font-family="Helvetica,sans-Serif" font-size="10.00">+ operator EAntiAliasingMethod()</text>
<text text-anchor="start" x="1793.5" y="-272" font-family="Helvetica,sans-Serif" font-size="10.00">+ GetValue()</text>
</a>
</g>
</g>
<!-- Node36&#45;&gt;Node1 -->
<g id="edge28" class="edge"><title>Node36&#45;&gt;Node1</title>
<path fill="none" stroke="#404040" d="M1822.09,-264.98C1808.27,-250.817 1792.49,-236.747 1776,-226 1744.66,-205.579 1733.13,-206.69 1697,-197 1517.49,-148.851 1302.33,-117.266 1180.86,-101.763"/>
<polygon fill="none" stroke="#404040" points="1180.59,-101.728 1174.13,-104.944 1168.68,-100.222 1175.14,-97.007 1180.59,-101.728"/>
<text text-anchor="middle" x="1787" y="-200" font-family="Helvetica,sans-Serif" font-size="10.00"> +AntiAliasingMethod</text>
</g>
<!-- Node37 -->
<g id="node16" class="node"><title>Node37</title>
<g id="a_node16"><a xlink:href="a25635.html" target="_top" xlink:title=" ">
<polygon fill="none" stroke="black" points="1976.5,-265 1976.5,-388 2141.5,-388 2141.5,-265 1976.5,-265"/>
<text text-anchor="start" x="1984.5" y="-376" font-family="Helvetica,sans-Serif" font-size="10.00">SDK::TEnumAsByte&lt; EDepth</text>
<text text-anchor="middle" x="2059" y="-365" font-family="Helvetica,sans-Serif" font-size="10.00">OfFieldMethod &gt;</text>
<polyline fill="none" stroke="black" points="1976.5,-358 2141.5,-358 "/>
<text text-anchor="middle" x="2059" y="-346" font-family="Helvetica,sans-Serif" font-size="10.00"> </text>
<polyline fill="none" stroke="black" points="1976.5,-339 2141.5,-339 "/>
<text text-anchor="start" x="1984.5" y="-327" font-family="Helvetica,sans-Serif" font-size="10.00">+ TEnumAsByte()</text>
<text text-anchor="start" x="1984.5" y="-316" font-family="Helvetica,sans-Serif" font-size="10.00">+ TEnumAsByte()</text>
<text text-anchor="start" x="1984.5" y="-305" font-family="Helvetica,sans-Serif" font-size="10.00">+ TEnumAsByte()</text>
<text text-anchor="start" x="1984.5" y="-294" font-family="Helvetica,sans-Serif" font-size="10.00">+ TEnumAsByte()</text>
<text text-anchor="start" x="1984.5" y="-283" font-family="Helvetica,sans-Serif" font-size="10.00">+ operator EDepthOfFieldMethod()</text>
<text text-anchor="start" x="1984.5" y="-272" font-family="Helvetica,sans-Serif" font-size="10.00">+ GetValue()</text>
</a>
</g>
</g>
<!-- Node37&#45;&gt;Node1 -->
<g id="edge30" class="edge"><title>Node37&#45;&gt;Node1</title>
<path fill="none" stroke="#404040" d="M2013.88,-264.99C2000.29,-250.31 1984.33,-235.986 1967,-226 1916.09,-196.657 1895.81,-207.568 1838,-197 1603.11,-154.059 1324.29,-118.638 1180.84,-101.542"/>
<polygon fill="none" stroke="#404040" points="1180.56,-101.51 1174.13,-104.774 1168.65,-100.095 1175.07,-96.83 1180.56,-101.51"/>
<text text-anchor="middle" x="1973" y="-200" font-family="Helvetica,sans-Serif" font-size="10.00"> +DepthOfFieldMethod</text>
</g>
</g>
</svg>
