<?xml version="1.0" encoding="UTF-8" standalone="no"?>
<!DOCTYPE svg PUBLIC "-//W3C//DTD SVG 1.1//EN"
 "http://www.w3.org/Graphics/SVG/1.1/DTD/svg11.dtd">
<!-- Generated by graphviz version 2.38.0 (20140413.2041)
 -->
<!-- Title: SDK::USoundNodeDistanceCrossFade Pages: 1 -->
<svg width="193pt" height="254pt"
 viewBox="0.00 0.00 193.00 254.00" xmlns="http://www.w3.org/2000/svg" xmlns:xlink="http://www.w3.org/1999/xlink">
<g id="graph0" class="graph" transform="scale(1 1) rotate(0) translate(4 250)">
<title>SDK::USoundNodeDistanceCrossFade</title>
<!-- Node1 -->
<g id="node1" class="node"><title>Node1</title>
<g id="a_node1"><a xlink:title=" ">
<polygon fill="#bfbfbf" stroke="black" points="0,-94.5 0,-151.5 185,-151.5 185,-94.5 0,-94.5"/>
<text text-anchor="middle" x="92.5" y="-139.5" font-family="Helvetica,sans-Serif" font-size="10.00">SDK::USoundNodeDistanceCrossFade</text>
<polyline fill="none" stroke="black" points="0,-132.5 185,-132.5 "/>
<text text-anchor="start" x="8" y="-120.5" font-family="Helvetica,sans-Serif" font-size="10.00">+ CrossFadeInput</text>
<polyline fill="none" stroke="black" points="0,-113.5 185,-113.5 "/>
<text text-anchor="start" x="8" y="-101.5" font-family="Helvetica,sans-Serif" font-size="10.00">+ StaticClass()</text>
</a>
</g>
</g>
<!-- Node4 -->
<g id="node3" class="node"><title>Node4</title>
<g id="a_node3"><a xlink:href="a29939.html" target="_top" xlink:title=" ">
<polygon fill="none" stroke="black" points="4.5,-0.5 4.5,-57.5 180.5,-57.5 180.5,-0.5 4.5,-0.5"/>
<text text-anchor="middle" x="92.5" y="-45.5" font-family="Helvetica,sans-Serif" font-size="10.00">SDK::USoundNodeParamCrossFade</text>
<polyline fill="none" stroke="black" points="4.5,-38.5 180.5,-38.5 "/>
<text text-anchor="start" x="12.5" y="-26.5" font-family="Helvetica,sans-Serif" font-size="10.00">+ ParamName</text>
<polyline fill="none" stroke="black" points="4.5,-19.5 180.5,-19.5 "/>
<text text-anchor="start" x="12.5" y="-7.5" font-family="Helvetica,sans-Serif" font-size="10.00">+ StaticClass()</text>
</a>
</g>
</g>
<!-- Node1&#45;&gt;Node4 -->
<g id="edge2" class="edge"><title>Node1&#45;&gt;Node4</title>
<path fill="none" stroke="midnightblue" d="M92.5,-84.2092C92.5,-75.2929 92.5,-65.9513 92.5,-57.5836"/>
<polygon fill="none" stroke="midnightblue" points="89.0001,-84.3969 92.5,-94.397 96.0001,-84.397 89.0001,-84.3969"/>
</g>
<!-- Node2 -->
<g id="node2" class="node"><title>Node2</title>
<g id="a_node2"><a xlink:href="a29903.html" target="_top" xlink:title=" ">
<polygon fill="none" stroke="red" points="42.5,-188.5 42.5,-245.5 142.5,-245.5 142.5,-188.5 42.5,-188.5"/>
<text text-anchor="middle" x="92.5" y="-233.5" font-family="Helvetica,sans-Serif" font-size="10.00">SDK::USoundNode</text>
<polyline fill="none" stroke="red" points="42.5,-226.5 142.5,-226.5 "/>
<text text-anchor="start" x="50.5" y="-214.5" font-family="Helvetica,sans-Serif" font-size="10.00">+ ChildNodes</text>
<polyline fill="none" stroke="red" points="42.5,-207.5 142.5,-207.5 "/>
<text text-anchor="start" x="50.5" y="-195.5" font-family="Helvetica,sans-Serif" font-size="10.00">+ StaticClass()</text>
</a>
</g>
</g>
<!-- Node2&#45;&gt;Node1 -->
<g id="edge1" class="edge"><title>Node2&#45;&gt;Node1</title>
<path fill="none" stroke="midnightblue" d="M92.5,-178.209C92.5,-169.293 92.5,-159.951 92.5,-151.584"/>
<polygon fill="none" stroke="midnightblue" points="89.0001,-178.397 92.5,-188.397 96.0001,-178.397 89.0001,-178.397"/>
</g>
</g>
</svg>
