<?xml version="1.0" encoding="UTF-8" standalone="no"?>
<!DOCTYPE svg PUBLIC "-//W3C//DTD SVG 1.1//EN"
 "http://www.w3.org/Graphics/SVG/1.1/DTD/svg11.dtd">
<!-- Generated by graphviz version 2.38.0 (20140413.2041)
 -->
<!-- Title: SDK::FWalkableSlopeOverride Pages: 1 -->
<svg width="363pt" height="237pt"
 viewBox="0.00 0.00 363.00 237.00" xmlns="http://www.w3.org/2000/svg" xmlns:xlink="http://www.w3.org/1999/xlink">
<g id="graph0" class="graph" transform="scale(1 1) rotate(0) translate(4 233)">
<title>SDK::FWalkableSlopeOverride</title>
<!-- Node1 -->
<g id="node1" class="node"><title>Node1</title>
<g id="a_node1"><a xlink:title=" ">
<polygon fill="#bfbfbf" stroke="black" points="66,-0.5 66,-57.5 215,-57.5 215,-0.5 66,-0.5"/>
<text text-anchor="middle" x="140.5" y="-45.5" font-family="Helvetica,sans-Serif" font-size="10.00">SDK::FWalkableSlopeOverride</text>
<polyline fill="none" stroke="black" points="66,-38.5 215,-38.5 "/>
<text text-anchor="middle" x="140.5" y="-26.5" font-family="Helvetica,sans-Serif" font-size="10.00"> </text>
<polyline fill="none" stroke="black" points="66,-19.5 215,-19.5 "/>
<text text-anchor="middle" x="140.5" y="-7.5" font-family="Helvetica,sans-Serif" font-size="10.00"> </text>
</a>
</g>
</g>
<!-- Node2 -->
<g id="node2" class="node"><title>Node2</title>
<g id="a_node2"><a xlink:title=" ">
<polygon fill="none" stroke="#bfbfbf" points="0,-138.5 0,-195.5 35,-195.5 35,-138.5 0,-138.5"/>
<text text-anchor="middle" x="17.5" y="-183.5" font-family="Helvetica,sans-Serif" font-size="10.00">float</text>
<polyline fill="none" stroke="#bfbfbf" points="0,-176.5 35,-176.5 "/>
<text text-anchor="middle" x="17.5" y="-164.5" font-family="Helvetica,sans-Serif" font-size="10.00"> </text>
<polyline fill="none" stroke="#bfbfbf" points="0,-157.5 35,-157.5 "/>
<text text-anchor="middle" x="17.5" y="-145.5" font-family="Helvetica,sans-Serif" font-size="10.00"> </text>
</a>
</g>
</g>
<!-- Node2&#45;&gt;Node1 -->
<g id="edge1" class="edge"><title>Node2&#45;&gt;Node1</title>
<path fill="none" stroke="#404040" d="M16.9735,-138.421C17.9967,-119.017 22.3204,-93.4914 36.5,-76 41.8043,-69.4568 48.2291,-63.8169 55.2537,-58.961"/>
<polygon fill="none" stroke="#404040" points="55.6972,-58.6878 58.7075,-52.1351 65.914,-52.3936 62.9037,-58.9463 55.6972,-58.6878"/>
<text text-anchor="middle" x="86.5" y="-79" font-family="Helvetica,sans-Serif" font-size="10.00"> +WalkableSlopeAngle</text>
</g>
<!-- Node3 -->
<g id="node3" class="node"><title>Node3</title>
<g id="a_node3"><a xlink:title=" ">
<polygon fill="none" stroke="#bfbfbf" points="123,-138.5 123,-195.5 158,-195.5 158,-138.5 123,-138.5"/>
<text text-anchor="middle" x="140.5" y="-183.5" font-family="Helvetica,sans-Serif" font-size="10.00">char</text>
<polyline fill="none" stroke="#bfbfbf" points="123,-176.5 158,-176.5 "/>
<text text-anchor="middle" x="140.5" y="-164.5" font-family="Helvetica,sans-Serif" font-size="10.00"> </text>
<polyline fill="none" stroke="#bfbfbf" points="123,-157.5 158,-157.5 "/>
<text text-anchor="middle" x="140.5" y="-145.5" font-family="Helvetica,sans-Serif" font-size="10.00"> </text>
</a>
</g>
</g>
<!-- Node3&#45;&gt;Node1 -->
<g id="edge2" class="edge"><title>Node3&#45;&gt;Node1</title>
<path fill="none" stroke="#404040" d="M140.5,-138.478C140.5,-118.792 140.5,-91.9899 140.5,-69.9526"/>
<polygon fill="none" stroke="#404040" points="140.5,-69.9475 136.5,-63.9475 140.5,-57.9475 144.5,-63.9475 140.5,-69.9475"/>
<text text-anchor="middle" x="180.5" y="-79" font-family="Helvetica,sans-Serif" font-size="10.00"> +UnknownData00</text>
</g>
<!-- Node4 -->
<g id="node4" class="node"><title>Node4</title>
<g id="a_node4"><a xlink:href="a25635.html" target="_top" xlink:title=" ">
<polygon fill="none" stroke="black" points="176,-105.5 176,-228.5 355,-228.5 355,-105.5 176,-105.5"/>
<text text-anchor="start" x="184" y="-216.5" font-family="Helvetica,sans-Serif" font-size="10.00">SDK::TEnumAsByte&lt; EWalkable</text>
<text text-anchor="middle" x="265.5" y="-205.5" font-family="Helvetica,sans-Serif" font-size="10.00">SlopeBehavior &gt;</text>
<polyline fill="none" stroke="black" points="176,-198.5 355,-198.5 "/>
<text text-anchor="middle" x="265.5" y="-186.5" font-family="Helvetica,sans-Serif" font-size="10.00"> </text>
<polyline fill="none" stroke="black" points="176,-179.5 355,-179.5 "/>
<text text-anchor="start" x="184" y="-167.5" font-family="Helvetica,sans-Serif" font-size="10.00">+ TEnumAsByte()</text>
<text text-anchor="start" x="184" y="-156.5" font-family="Helvetica,sans-Serif" font-size="10.00">+ TEnumAsByte()</text>
<text text-anchor="start" x="184" y="-145.5" font-family="Helvetica,sans-Serif" font-size="10.00">+ TEnumAsByte()</text>
<text text-anchor="start" x="184" y="-134.5" font-family="Helvetica,sans-Serif" font-size="10.00">+ TEnumAsByte()</text>
<text text-anchor="start" x="184" y="-123.5" font-family="Helvetica,sans-Serif" font-size="10.00">+ operator EWalkableSlopeBehavior()</text>
<text text-anchor="start" x="184" y="-112.5" font-family="Helvetica,sans-Serif" font-size="10.00">+ GetValue()</text>
</a>
</g>
</g>
<!-- Node4&#45;&gt;Node1 -->
<g id="edge3" class="edge"><title>Node4&#45;&gt;Node1</title>
<path fill="none" stroke="#404040" d="M244.258,-105.049C238.87,-94.6092 232.33,-84.428 224.5,-76 220.771,-71.9859 216.61,-68.243 212.19,-64.768"/>
<polygon fill="none" stroke="#404040" points="211.923,-64.5764 204.715,-64.3334 202.168,-57.5873 209.375,-57.8303 211.923,-64.5764"/>
<text text-anchor="middle" x="288.5" y="-79" font-family="Helvetica,sans-Serif" font-size="10.00"> +WalkableSlopeBehavior</text>
</g>
</g>
</svg>
