<?xml version="1.0" encoding="UTF-8" standalone="no"?>
<!DOCTYPE svg PUBLIC "-//W3C//DTD SVG 1.1//EN"
 "http://www.w3.org/Graphics/SVG/1.1/DTD/svg11.dtd">
<!-- Generated by graphviz version 2.38.0 (20140413.2041)
 -->
<!-- Title: SDK::FReverbSettings Pages: 1 -->
<svg width="449pt" height="485pt"
 viewBox="0.00 0.00 449.43 485.00" xmlns="http://www.w3.org/2000/svg" xmlns:xlink="http://www.w3.org/1999/xlink">
<g id="graph0" class="graph" transform="scale(1 1) rotate(0) translate(4 481)">
<title>SDK::FReverbSettings</title>
<!-- Node1 -->
<g id="node1" class="node"><title>Node1</title>
<g id="a_node1"><a xlink:title=" ">
<polygon fill="#bfbfbf" stroke="black" points="187.432,-0.5 187.432,-57.5 301.432,-57.5 301.432,-0.5 187.432,-0.5"/>
<text text-anchor="middle" x="244.432" y="-45.5" font-family="Helvetica,sans-Serif" font-size="10.00">SDK::FReverbSettings</text>
<polyline fill="none" stroke="black" points="187.432,-38.5 301.432,-38.5 "/>
<text text-anchor="middle" x="244.432" y="-26.5" font-family="Helvetica,sans-Serif" font-size="10.00"> </text>
<polyline fill="none" stroke="black" points="187.432,-19.5 301.432,-19.5 "/>
<text text-anchor="middle" x="244.432" y="-7.5" font-family="Helvetica,sans-Serif" font-size="10.00"> </text>
</a>
</g>
</g>
<!-- Node2 -->
<g id="node2" class="node"><title>Node2</title>
<g id="a_node2"><a xlink:href="a29627.html" target="_top" xlink:title=" ">
<polygon fill="none" stroke="red" points="89.9324,-155 89.9324,-223 194.932,-223 194.932,-155 89.9324,-155"/>
<text text-anchor="middle" x="142.432" y="-211" font-family="Helvetica,sans-Serif" font-size="10.00">SDK::UReverbEffect</text>
<polyline fill="none" stroke="red" points="89.9324,-204 194.932,-204 "/>
<text text-anchor="start" x="97.9324" y="-192" font-family="Helvetica,sans-Serif" font-size="10.00">+ ReflectionsDelay</text>
<text text-anchor="start" x="97.9324" y="-181" font-family="Helvetica,sans-Serif" font-size="10.00">+ RoomRolloffFactor</text>
<polyline fill="none" stroke="red" points="89.9324,-174 194.932,-174 "/>
<text text-anchor="start" x="97.9324" y="-162" font-family="Helvetica,sans-Serif" font-size="10.00">+ StaticClass()</text>
</a>
</g>
</g>
<!-- Node2&#45;&gt;Node1 -->
<g id="edge1" class="edge"><title>Node2&#45;&gt;Node1</title>
<path fill="none" stroke="#404040" d="M152.245,-154.538C160.155,-131.104 172.863,-99.8427 190.432,-76 192.919,-72.626 195.698,-69.3362 198.649,-66.1678"/>
<polygon fill="none" stroke="#404040" points="198.787,-66.0309 200.239,-58.9674 207.318,-57.5908 205.866,-64.6543 198.787,-66.0309"/>
<text text-anchor="middle" x="222.432" y="-90" font-family="Helvetica,sans-Serif" font-size="10.00"> +ReverbEffect</text>
</g>
<!-- Node14 -->
<g id="node3" class="node"><title>Node14</title>
<g id="a_node3"><a xlink:title=" ">
<polygon fill="none" stroke="#bfbfbf" points="40.9324,-419.5 40.9324,-476.5 75.9324,-476.5 75.9324,-419.5 40.9324,-419.5"/>
<text text-anchor="middle" x="58.4324" y="-464.5" font-family="Helvetica,sans-Serif" font-size="10.00">float</text>
<polyline fill="none" stroke="#bfbfbf" points="40.9324,-457.5 75.9324,-457.5 "/>
<text text-anchor="middle" x="58.4324" y="-445.5" font-family="Helvetica,sans-Serif" font-size="10.00"> </text>
<polyline fill="none" stroke="#bfbfbf" points="40.9324,-438.5 75.9324,-438.5 "/>
<text text-anchor="middle" x="58.4324" y="-426.5" font-family="Helvetica,sans-Serif" font-size="10.00"> </text>
</a>
</g>
</g>
<!-- Node14&#45;&gt;Node1 -->
<g id="edge4" class="edge"><title>Node14&#45;&gt;Node1</title>
<path fill="none" stroke="#404040" d="M45.2671,-419.449C19.18,-360.455 -31.5921,-219.755 28.4324,-127 60.687,-77.1576 125.294,-52.6807 175.484,-40.8124"/>
<polygon fill="none" stroke="#404040" points="175.54,-40.8002 180.528,-35.5928 187.253,-38.1946 182.265,-43.402 175.54,-40.8002"/>
<text text-anchor="middle" x="54.4324" y="-192" font-family="Helvetica,sans-Serif" font-size="10.00"> +FadeTime</text>
<text text-anchor="middle" x="54.4324" y="-181" font-family="Helvetica,sans-Serif" font-size="10.00">+Volume</text>
</g>
<!-- Node14&#45;&gt;Node2 -->
<g id="edge2" class="edge"><title>Node14&#45;&gt;Node2</title>
<path fill="none" stroke="#404040" d="M67.4218,-419.496C81.8625,-375.315 110.368,-288.102 127.78,-234.831"/>
<polygon fill="none" stroke="#404040" points="127.801,-234.766 125.863,-227.82 131.529,-223.359 133.467,-230.305 127.801,-234.766"/>
<text text-anchor="middle" x="157.932" y="-393" font-family="Helvetica,sans-Serif" font-size="10.00"> +Diffusion</text>
<text text-anchor="middle" x="157.932" y="-382" font-family="Helvetica,sans-Serif" font-size="10.00">+Density</text>
<text text-anchor="middle" x="157.932" y="-371" font-family="Helvetica,sans-Serif" font-size="10.00">+LateGain</text>
<text text-anchor="middle" x="157.932" y="-360" font-family="Helvetica,sans-Serif" font-size="10.00">+ReflectionsGain</text>
<text text-anchor="middle" x="157.932" y="-349" font-family="Helvetica,sans-Serif" font-size="10.00">+DecayHFRatio</text>
<text text-anchor="middle" x="157.932" y="-338" font-family="Helvetica,sans-Serif" font-size="10.00">+GainHF</text>
<text text-anchor="middle" x="157.932" y="-327" font-family="Helvetica,sans-Serif" font-size="10.00">+Gain</text>
<text text-anchor="middle" x="157.932" y="-316" font-family="Helvetica,sans-Serif" font-size="10.00">+LateDelay</text>
<text text-anchor="start" x="115.432" y="-305" font-family="Helvetica,sans-Serif" font-size="10.00">+AirAbsorptionGain</text>
<text text-anchor="middle" x="157.932" y="-294" font-family="Helvetica,sans-Serif" font-size="10.00">HF</text>
<text text-anchor="middle" x="157.932" y="-283" font-family="Helvetica,sans-Serif" font-size="10.00">+DecayTime</text>
<text text-anchor="middle" x="157.932" y="-272" font-family="Helvetica,sans-Serif" font-size="10.00">...</text>
</g>
<!-- Node15 -->
<g id="node4" class="node"><title>Node15</title>
<g id="a_node4"><a xlink:href="a25635.html" target="_top" xlink:title=" ">
<polygon fill="none" stroke="black" points="212.932,-127.5 212.932,-250.5 363.932,-250.5 363.932,-127.5 212.932,-127.5"/>
<text text-anchor="start" x="220.932" y="-238.5" font-family="Helvetica,sans-Serif" font-size="10.00">SDK::TEnumAsByte&lt; EReverb</text>
<text text-anchor="middle" x="288.432" y="-227.5" font-family="Helvetica,sans-Serif" font-size="10.00">Preset &gt;</text>
<polyline fill="none" stroke="black" points="212.932,-220.5 363.932,-220.5 "/>
<text text-anchor="middle" x="288.432" y="-208.5" font-family="Helvetica,sans-Serif" font-size="10.00"> </text>
<polyline fill="none" stroke="black" points="212.932,-201.5 363.932,-201.5 "/>
<text text-anchor="start" x="220.932" y="-189.5" font-family="Helvetica,sans-Serif" font-size="10.00">+ TEnumAsByte()</text>
<text text-anchor="start" x="220.932" y="-178.5" font-family="Helvetica,sans-Serif" font-size="10.00">+ TEnumAsByte()</text>
<text text-anchor="start" x="220.932" y="-167.5" font-family="Helvetica,sans-Serif" font-size="10.00">+ TEnumAsByte()</text>
<text text-anchor="start" x="220.932" y="-156.5" font-family="Helvetica,sans-Serif" font-size="10.00">+ TEnumAsByte()</text>
<text text-anchor="start" x="220.932" y="-145.5" font-family="Helvetica,sans-Serif" font-size="10.00">+ operator EReverbPreset()</text>
<text text-anchor="start" x="220.932" y="-134.5" font-family="Helvetica,sans-Serif" font-size="10.00">+ GetValue()</text>
</a>
</g>
</g>
<!-- Node15&#45;&gt;Node1 -->
<g id="edge3" class="edge"><title>Node15&#45;&gt;Node1</title>
<path fill="none" stroke="#404040" d="M271.547,-127.365C266.138,-107.943 260.293,-86.9542 255.42,-69.4539"/>
<polygon fill="none" stroke="#404040" points="255.36,-69.2398 249.897,-64.5329 252.141,-57.6797 257.604,-62.3866 255.36,-69.2398"/>
<text text-anchor="middle" x="296.432" y="-90" font-family="Helvetica,sans-Serif" font-size="10.00"> +ReverbType</text>
</g>
<!-- Node12 -->
<g id="node5" class="node"><title>Node12</title>
<g id="a_node5"><a xlink:title=" ">
<polygon fill="none" stroke="#bfbfbf" points="381.932,-160.5 381.932,-217.5 416.932,-217.5 416.932,-160.5 381.932,-160.5"/>
<text text-anchor="middle" x="399.432" y="-205.5" font-family="Helvetica,sans-Serif" font-size="10.00">char</text>
<polyline fill="none" stroke="#bfbfbf" points="381.932,-198.5 416.932,-198.5 "/>
<text text-anchor="middle" x="399.432" y="-186.5" font-family="Helvetica,sans-Serif" font-size="10.00"> </text>
<polyline fill="none" stroke="#bfbfbf" points="381.932,-179.5 416.932,-179.5 "/>
<text text-anchor="middle" x="399.432" y="-167.5" font-family="Helvetica,sans-Serif" font-size="10.00"> </text>
</a>
</g>
</g>
<!-- Node12&#45;&gt;Node1 -->
<g id="edge5" class="edge"><title>Node12&#45;&gt;Node1</title>
<path fill="none" stroke="#404040" d="M389.125,-160.475C384.615,-149.702 378.878,-137.448 372.432,-127 357.014,-102.01 353.144,-94.6121 330.432,-76 324.674,-71.2811 318.357,-66.8262 311.843,-62.6838"/>
<polygon fill="none" stroke="#404040" points="311.769,-62.6396 304.566,-62.9637 301.496,-56.4386 308.7,-56.1146 311.769,-62.6396"/>
<text text-anchor="middle" x="401.432" y="-101" font-family="Helvetica,sans-Serif" font-size="10.00"> +UnknownData01</text>
<text text-anchor="middle" x="401.432" y="-90" font-family="Helvetica,sans-Serif" font-size="10.00">+UnknownData00</text>
<text text-anchor="middle" x="401.432" y="-79" font-family="Helvetica,sans-Serif" font-size="10.00">+bApplyReverb</text>
</g>
</g>
</svg>
