<?xml version="1.0" encoding="UTF-8" standalone="no"?>
<!DOCTYPE svg PUBLIC "-//W3C//DTD SVG 1.1//EN"
 "http://www.w3.org/Graphics/SVG/1.1/DTD/svg11.dtd">
<!-- Generated by graphviz version 2.38.0 (20140413.2041)
 -->
<!-- Title: SDK::FRepRootMotionMontage Pages: 1 -->
<!--zoomable 628 -->
<svg id="main" version="1.1" xmlns="http://www.w3.org/2000/svg" xmlns:xlink="http://www.w3.org/1999/xlink" xml:space="preserve" onload="init(evt)">
<style type="text/css"><![CDATA[
.edge:hover path { stroke: red; }
.edge:hover polygon { stroke: red; fill: red; }
]]></style>
<script type="text/javascript"><![CDATA[
var edges = document.getElementsByTagName('g');
if (edges && edges.length) {
  for (var i=0;i<edges.length;i++) {
    if (edges[i].id.substr(0,4)=='edge') {
      edges[i].setAttribute('class','edge');
    }
  }
}
]]></script>
        <defs>
                <circle id="rim" cx="0" cy="0" r="7"/>
                <circle id="rim2" cx="0" cy="0" r="3.5"/>
                <g id="zoomPlus">
                        <use xlink:href="#rim" fill="#404040">
                                <set attributeName="fill" to="#808080" begin="zoomplus.mouseover" end="zoomplus.mouseout"/>
                        </use>
                        <path d="M-4,0h8M0,-4v8" fill="none" stroke="white" stroke-width="1.5" pointer-events="none"/>
                </g>
                <g id="zoomMin">
                        <use xlink:href="#rim" fill="#404040">
                                <set attributeName="fill" to="#808080" begin="zoomminus.mouseover" end="zoomminus.mouseout"/>
                        </use>
                        <path d="M-4,0h8" fill="none" stroke="white" stroke-width="1.5" pointer-events="none"/>
                </g>
                <g id="dirArrow">
                        <path fill="none" stroke="white" stroke-width="1.5" d="M0,-3.0v7 M-2.5,-0.5L0,-3.0L2.5,-0.5"/>
                </g>
               <g id="resetDef">
                       <use xlink:href="#rim2" fill="#404040">
                               <set attributeName="fill" to="#808080" begin="reset.mouseover" end="reset.mouseout"/>
                       </use>
               </g>
        </defs>

<script type="text/javascript">
var viewWidth = 1285;
var viewHeight = 628;
var sectionId = 'dynsection-0';
</script>
<script xlink:href="svgpan.js"/>
<svg id="graph" class="graph">
<g id="viewport">
<title>SDK::FRepRootMotionMontage</title>
<!-- Node1 -->
<g id="node1" class="node"><title>Node1</title>
<g id="a_node1"><a xlink:title=" ">
<polygon fill="#bfbfbf" stroke="black" points="363.418,-0.5 363.418,-57.5 516.418,-57.5 516.418,-0.5 363.418,-0.5"/>
<text text-anchor="middle" x="439.918" y="-45.5" font-family="Helvetica,sans-Serif" font-size="10.00">SDK::FRepRootMotionMontage</text>
<polyline fill="none" stroke="black" points="363.418,-38.5 516.418,-38.5 "/>
<text text-anchor="middle" x="439.918" y="-26.5" font-family="Helvetica,sans-Serif" font-size="10.00"> </text>
<polyline fill="none" stroke="black" points="363.418,-19.5 516.418,-19.5 "/>
<text text-anchor="middle" x="439.918" y="-7.5" font-family="Helvetica,sans-Serif" font-size="10.00"> </text>
</a>
</g>
</g>
<!-- Node2 -->
<g id="node2" class="node"><title>Node2</title>
<g id="a_node2"><a xlink:href="a26307.html" target="_top" xlink:title=" ">
<polygon fill="none" stroke="black" points="73.9184,-182.5 73.9184,-327.5 153.918,-327.5 153.918,-182.5 73.9184,-182.5"/>
<text text-anchor="middle" x="113.918" y="-315.5" font-family="Helvetica,sans-Serif" font-size="10.00">SDK::FRotator</text>
<polyline fill="none" stroke="black" points="73.9184,-308.5 153.918,-308.5 "/>
<text text-anchor="middle" x="113.918" y="-296.5" font-family="Helvetica,sans-Serif" font-size="10.00"> </text>
<polyline fill="none" stroke="black" points="73.9184,-289.5 153.918,-289.5 "/>
<text text-anchor="start" x="81.9184" y="-277.5" font-family="Helvetica,sans-Serif" font-size="10.00">+ FRotator()</text>
<text text-anchor="start" x="81.9184" y="-266.5" font-family="Helvetica,sans-Serif" font-size="10.00">+ FRotator()</text>
<text text-anchor="start" x="81.9184" y="-255.5" font-family="Helvetica,sans-Serif" font-size="10.00">+ operator+()</text>
<text text-anchor="start" x="81.9184" y="-244.5" font-family="Helvetica,sans-Serif" font-size="10.00">+ operator&#45;()</text>
<text text-anchor="start" x="81.9184" y="-233.5" font-family="Helvetica,sans-Serif" font-size="10.00">+ operator*()</text>
<text text-anchor="start" x="81.9184" y="-222.5" font-family="Helvetica,sans-Serif" font-size="10.00">+ operator=()</text>
<text text-anchor="start" x="81.9184" y="-211.5" font-family="Helvetica,sans-Serif" font-size="10.00">+ operator+=()</text>
<text text-anchor="start" x="81.9184" y="-200.5" font-family="Helvetica,sans-Serif" font-size="10.00">+ operator&#45;=()</text>
<text text-anchor="start" x="81.9184" y="-189.5" font-family="Helvetica,sans-Serif" font-size="10.00">+ operator*=()</text>
</a>
</g>
</g>
<!-- Node2&#45;&gt;Node1 -->
<g id="edge1" class="edge"><title>Node2&#45;&gt;Node1</title>
<path fill="none" stroke="#404040" d="M124.502,-182.278C134.806,-141.929 155.083,-95.7824 194.918,-76 243.426,-51.9109 303.056,-40.3808 351.342,-34.8876"/>
<polygon fill="none" stroke="#404040" points="351.427,-34.8787 356.973,-30.2701 363.36,-33.6171 357.814,-38.2257 351.427,-34.8787"/>
<text text-anchor="middle" x="217.918" y="-79" font-family="Helvetica,sans-Serif" font-size="10.00"> +Rotation</text>
</g>
<!-- Node3 -->
<g id="node3" class="node"><title>Node3</title>
<g id="a_node3"><a xlink:title=" ">
<polygon fill="none" stroke="#bfbfbf" points="52.4184,-562.5 52.4184,-619.5 87.4184,-619.5 87.4184,-562.5 52.4184,-562.5"/>
<text text-anchor="middle" x="69.9184" y="-607.5" font-family="Helvetica,sans-Serif" font-size="10.00">float</text>
<polyline fill="none" stroke="#bfbfbf" points="52.4184,-600.5 87.4184,-600.5 "/>
<text text-anchor="middle" x="69.9184" y="-588.5" font-family="Helvetica,sans-Serif" font-size="10.00"> </text>
<polyline fill="none" stroke="#bfbfbf" points="52.4184,-581.5 87.4184,-581.5 "/>
<text text-anchor="middle" x="69.9184" y="-569.5" font-family="Helvetica,sans-Serif" font-size="10.00"> </text>
</a>
</g>
</g>
<!-- Node3&#45;&gt;Node1 -->
<g id="edge5" class="edge"><title>Node3&#45;&gt;Node1</title>
<path fill="none" stroke="#404040" d="M52.1715,-574.776C43.8847,-566.568 34.7911,-555.728 29.9184,-544 -6.46144,-456.439 -9.09782,-139.827 19.9184,-105 61.1623,-55.4971 240.328,-38.6393 350.903,-32.9186"/>
<polygon fill="none" stroke="#404040" points="351.053,-32.9114 356.849,-28.6211 363.038,-32.3211 357.242,-36.6114 351.053,-32.9114"/>
<text text-anchor="middle" x="42.4184" y="-252.5" font-family="Helvetica,sans-Serif" font-size="10.00"> +Position</text>
</g>
<!-- Node3&#45;&gt;Node2 -->
<g id="edge2" class="edge"><title>Node3&#45;&gt;Node2</title>
<path fill="none" stroke="#404040" d="M52.2373,-562.699C49.2135,-556.756 46.5306,-550.343 44.9184,-544 31.6703,-491.88 26.6111,-473.566 44.9184,-423 48.4635,-413.208 54.7331,-414.031 59.9184,-405 71.6435,-384.579 81.5641,-361.16 89.5764,-339.029"/>
<polygon fill="none" stroke="#404040" points="89.6152,-338.918 87.8295,-331.932 93.5917,-327.596 95.3775,-334.583 89.6152,-338.918"/>
<text text-anchor="middle" x="59.4184" y="-492" font-family="Helvetica,sans-Serif" font-size="10.00"> +Yaw</text>
<text text-anchor="middle" x="59.4184" y="-481" font-family="Helvetica,sans-Serif" font-size="10.00">+Pitch</text>
<text text-anchor="middle" x="59.4184" y="-470" font-family="Helvetica,sans-Serif" font-size="10.00">+Roll</text>
</g>
<!-- Node9 -->
<g id="node7" class="node"><title>Node9</title>
<g id="a_node7"><a xlink:href="a26631.html" target="_top" xlink:title=" ">
<polygon fill="none" stroke="red" points="424.418,-105.5 424.418,-404.5 593.418,-404.5 593.418,-105.5 424.418,-105.5"/>
<text text-anchor="middle" x="508.918" y="-392.5" font-family="Helvetica,sans-Serif" font-size="10.00">SDK::UPrimitiveComponent</text>
<polyline fill="none" stroke="red" points="424.418,-385.5 593.418,-385.5 "/>
<text text-anchor="start" x="432.418" y="-373.5" font-family="Helvetica,sans-Serif" font-size="10.00">+ UnknownData00</text>
<text text-anchor="start" x="432.418" y="-362.5" font-family="Helvetica,sans-Serif" font-size="10.00">+ bAlwaysCreatePhysicsState</text>
<text text-anchor="start" x="432.418" y="-351.5" font-family="Helvetica,sans-Serif" font-size="10.00">+ bGenerateOverlapEvents</text>
<text text-anchor="start" x="432.418" y="-340.5" font-family="Helvetica,sans-Serif" font-size="10.00">+ bMultiBodyOverlap</text>
<text text-anchor="start" x="432.418" y="-329.5" font-family="Helvetica,sans-Serif" font-size="10.00">+ bCheckAsyncSceneOnMove</text>
<text text-anchor="start" x="432.418" y="-318.5" font-family="Helvetica,sans-Serif" font-size="10.00">+ bReturnMaterialOnMove</text>
<text text-anchor="start" x="432.418" y="-307.5" font-family="Helvetica,sans-Serif" font-size="10.00">+ bUseViewOwnerDepthPriority</text>
<text text-anchor="start" x="432.418" y="-296.5" font-family="Helvetica,sans-Serif" font-size="10.00">Group</text>
<text text-anchor="start" x="432.418" y="-285.5" font-family="Helvetica,sans-Serif" font-size="10.00">+ bAllowCullDistanceVolume</text>
<text text-anchor="start" x="432.418" y="-274.5" font-family="Helvetica,sans-Serif" font-size="10.00">+ bHasMotionBlurVelocityMeshes</text>
<text text-anchor="start" x="432.418" y="-263.5" font-family="Helvetica,sans-Serif" font-size="10.00">+ bRenderInMainPass</text>
<text text-anchor="start" x="432.418" y="-252.5" font-family="Helvetica,sans-Serif" font-size="10.00">and 50 more...</text>
<polyline fill="none" stroke="red" points="424.418,-245.5 593.418,-245.5 "/>
<text text-anchor="start" x="432.418" y="-233.5" font-family="Helvetica,sans-Serif" font-size="10.00">+ WakeRigidBody()</text>
<text text-anchor="start" x="432.418" y="-222.5" font-family="Helvetica,sans-Serif" font-size="10.00">+ WakeAllRigidBodies()</text>
<text text-anchor="start" x="432.418" y="-211.5" font-family="Helvetica,sans-Serif" font-size="10.00">+ SetWalkableSlopeOverride()</text>
<text text-anchor="start" x="432.418" y="-200.5" font-family="Helvetica,sans-Serif" font-size="10.00">+ SetTranslucentSortPriority()</text>
<text text-anchor="start" x="432.418" y="-189.5" font-family="Helvetica,sans-Serif" font-size="10.00">+ SetSimulatePhysics()</text>
<text text-anchor="start" x="432.418" y="-178.5" font-family="Helvetica,sans-Serif" font-size="10.00">+ SetRenderInMainPass()</text>
<text text-anchor="start" x="432.418" y="-167.5" font-family="Helvetica,sans-Serif" font-size="10.00">+ SetRenderCustomDepth()</text>
<text text-anchor="start" x="432.418" y="-156.5" font-family="Helvetica,sans-Serif" font-size="10.00">+ SetPhysMaterialOverride()</text>
<text text-anchor="start" x="432.418" y="-145.5" font-family="Helvetica,sans-Serif" font-size="10.00">+ SetPhysicsMaxAngularVelocity()</text>
<text text-anchor="start" x="432.418" y="-134.5" font-family="Helvetica,sans-Serif" font-size="10.00">+ SetPhysicsLinearVelocity()</text>
<text text-anchor="start" x="432.418" y="-123.5" font-family="Helvetica,sans-Serif" font-size="10.00">and 64 more...</text>
<text text-anchor="start" x="432.418" y="-112.5" font-family="Helvetica,sans-Serif" font-size="10.00">+ StaticClass()</text>
</a>
</g>
</g>
<!-- Node3&#45;&gt;Node9 -->
<g id="edge9" class="edge"><title>Node3&#45;&gt;Node9</title>
<path fill="none" stroke="#404040" d="M87.568,-588.682C135.332,-584.775 265.637,-571.755 296.918,-544 339.286,-506.409 295.06,-461.157 336.918,-423 360.747,-401.279 381.621,-421.06 413.963,-404.17"/>
<polygon fill="none" stroke="#404040" points="414.205,-404.019 417.177,-397.449 424.385,-397.664 421.413,-404.235 414.205,-404.019"/>
<text text-anchor="middle" x="409.418" y="-536" font-family="Helvetica,sans-Serif" font-size="10.00"> +MinDrawDistance</text>
<text text-anchor="middle" x="409.418" y="-525" font-family="Helvetica,sans-Serif" font-size="10.00">+CachedMaxDrawDistance</text>
<text text-anchor="middle" x="409.418" y="-514" font-family="Helvetica,sans-Serif" font-size="10.00">+OverriddenShadowMinTexelSize</text>
<text text-anchor="middle" x="409.418" y="-503" font-family="Helvetica,sans-Serif" font-size="10.00">+OcclusionBoundsScale</text>
<text text-anchor="middle" x="409.418" y="-492" font-family="Helvetica,sans-Serif" font-size="10.00">+LpvIntensityMultiplier</text>
<text text-anchor="middle" x="409.418" y="-481" font-family="Helvetica,sans-Serif" font-size="10.00">+LpvBiasMultiplier</text>
<text text-anchor="middle" x="409.418" y="-470" font-family="Helvetica,sans-Serif" font-size="10.00">+FarCascadeLPVBiasMultiplier</text>
<text text-anchor="middle" x="409.418" y="-459" font-family="Helvetica,sans-Serif" font-size="10.00">+LastRenderTime</text>
<text text-anchor="middle" x="409.418" y="-448" font-family="Helvetica,sans-Serif" font-size="10.00">+BoundsScale</text>
<text text-anchor="middle" x="409.418" y="-437" font-family="Helvetica,sans-Serif" font-size="10.00">+LDMaxDrawDistance</text>
<text text-anchor="middle" x="409.418" y="-426" font-family="Helvetica,sans-Serif" font-size="10.00">...</text>
</g>
<!-- Node58 -->
<g id="node8" class="node"><title>Node58</title>
<g id="a_node8"><a xlink:href="a27415.html" target="_top" xlink:title=" ">
<polygon fill="none" stroke="red" points="295.918,-226.5 295.918,-283.5 405.918,-283.5 405.918,-226.5 295.918,-226.5"/>
<text text-anchor="middle" x="350.918" y="-271.5" font-family="Helvetica,sans-Serif" font-size="10.00">SDK::UAnimMontage</text>
<polyline fill="none" stroke="red" points="295.918,-264.5 405.918,-264.5 "/>
<text text-anchor="middle" x="350.918" y="-252.5" font-family="Helvetica,sans-Serif" font-size="10.00"> </text>
<polyline fill="none" stroke="red" points="295.918,-245.5 405.918,-245.5 "/>
<text text-anchor="start" x="303.918" y="-233.5" font-family="Helvetica,sans-Serif" font-size="10.00">+ StaticClass()</text>
</a>
</g>
</g>
<!-- Node3&#45;&gt;Node58 -->
<g id="edge14" class="edge"><title>Node3&#45;&gt;Node58</title>
<path fill="none" stroke="#404040" d="M73.7586,-562.163C80.2401,-517.103 93.6479,-432.265 103.918,-423 134.259,-395.628 253.938,-429.126 286.918,-405 321.929,-379.389 337.98,-330.632 345.211,-295.869"/>
<polygon fill="none" stroke="#404040" points="345.27,-295.555 342.452,-288.918 347.495,-283.763 350.313,-290.401 345.27,-295.555"/>
<text text-anchor="middle" x="152.418" y="-492" font-family="Helvetica,sans-Serif" font-size="10.00"> +BlendOutTime</text>
<text text-anchor="middle" x="152.418" y="-481" font-family="Helvetica,sans-Serif" font-size="10.00">+BlendOutTriggerTime</text>
<text text-anchor="middle" x="152.418" y="-470" font-family="Helvetica,sans-Serif" font-size="10.00">+BlendInTime</text>
</g>
<!-- Node4 -->
<g id="node4" class="node"><title>Node4</title>
<g id="a_node4"><a xlink:href="a25839.html" target="_top" xlink:title=" ">
<polygon fill="none" stroke="red" points="171.918,-199 171.918,-311 277.918,-311 277.918,-199 171.918,-199"/>
<text text-anchor="middle" x="224.918" y="-299" font-family="Helvetica,sans-Serif" font-size="10.00">SDK::FName</text>
<polyline fill="none" stroke="red" points="171.918,-292 277.918,-292 "/>
<text text-anchor="middle" x="224.918" y="-280" font-family="Helvetica,sans-Serif" font-size="10.00"> </text>
<polyline fill="none" stroke="red" points="171.918,-273 277.918,-273 "/>
<text text-anchor="start" x="179.918" y="-261" font-family="Helvetica,sans-Serif" font-size="10.00">+ FName()</text>
<text text-anchor="start" x="179.918" y="-250" font-family="Helvetica,sans-Serif" font-size="10.00">+ FName()</text>
<text text-anchor="start" x="179.918" y="-239" font-family="Helvetica,sans-Serif" font-size="10.00">+ FName()</text>
<text text-anchor="start" x="179.918" y="-228" font-family="Helvetica,sans-Serif" font-size="10.00">+ GetName()</text>
<text text-anchor="start" x="179.918" y="-217" font-family="Helvetica,sans-Serif" font-size="10.00">+ operator==()</text>
<text text-anchor="start" x="179.918" y="-206" font-family="Helvetica,sans-Serif" font-size="10.00">+ GetGlobalNames()</text>
</a>
</g>
</g>
<!-- Node4&#45;&gt;Node1 -->
<g id="edge3" class="edge"><title>Node4&#45;&gt;Node1</title>
<path fill="none" stroke="#404040" d="M218.015,-198.639C216.362,-159.613 221.168,-108.677 250.918,-76 264.89,-60.6542 309.01,-49.4406 351.11,-41.9286"/>
<polygon fill="none" stroke="#404040" points="351.367,-41.8846 356.606,-36.9295 363.195,-39.8597 357.956,-44.8148 351.367,-41.8846"/>
<text text-anchor="middle" x="312.918" y="-79" font-family="Helvetica,sans-Serif" font-size="10.00"> +MovementBaseBoneName</text>
</g>
<!-- Node7 -->
<g id="node5" class="node"><title>Node7</title>
<g id="a_node5"><a xlink:title=" ">
<polygon fill="none" stroke="#bfbfbf" points="469.418,-562.5 469.418,-619.5 504.418,-619.5 504.418,-562.5 469.418,-562.5"/>
<text text-anchor="middle" x="486.918" y="-607.5" font-family="Helvetica,sans-Serif" font-size="10.00">char</text>
<polyline fill="none" stroke="#bfbfbf" points="469.418,-600.5 504.418,-600.5 "/>
<text text-anchor="middle" x="486.918" y="-588.5" font-family="Helvetica,sans-Serif" font-size="10.00"> </text>
<polyline fill="none" stroke="#bfbfbf" points="469.418,-581.5 504.418,-581.5 "/>
<text text-anchor="middle" x="486.918" y="-569.5" font-family="Helvetica,sans-Serif" font-size="10.00"> </text>
</a>
</g>
</g>
<!-- Node7&#45;&gt;Node1 -->
<g id="edge4" class="edge"><title>Node7&#45;&gt;Node1</title>
<path fill="none" stroke="#404040" d="M504.446,-590.51C568.152,-591.951 785.931,-593.157 828.918,-544 864.32,-503.518 835.608,-476.36 828.918,-423 810.778,-278.286 851.59,-207.583 747.918,-105 717.22,-74.624 608.402,-53.3044 528.786,-41.3536"/>
<polygon fill="none" stroke="#404040" points="528.643,-41.3326 522.125,-44.4174 516.77,-39.5872 523.288,-36.5025 528.643,-41.3326"/>
<text text-anchor="middle" x="866.918" y="-258" font-family="Helvetica,sans-Serif" font-size="10.00"> +UnknownData01</text>
<text text-anchor="middle" x="866.918" y="-247" font-family="Helvetica,sans-Serif" font-size="10.00">+UnknownData00</text>
</g>
<!-- Node7&#45;&gt;Node9 -->
<g id="edge8" class="edge"><title>Node7&#45;&gt;Node9</title>
<path fill="none" stroke="#404040" d="M486.081,-562.482C485.305,-529.35 484.7,-472.039 487.918,-423 488.053,-420.945 488.197,-418.877 488.348,-416.798"/>
<polygon fill="none" stroke="#404040" points="488.352,-416.746 484.837,-410.45 489.297,-404.783 492.812,-411.08 488.352,-416.746"/>
<text text-anchor="middle" x="573.918" y="-536" font-family="Helvetica,sans-Serif" font-size="10.00"> +bSkipRenderingInOuterLPVCascades</text>
<text text-anchor="middle" x="573.918" y="-525" font-family="Helvetica,sans-Serif" font-size="10.00">+bCastShadowAsTwoSided</text>
<text text-anchor="middle" x="573.918" y="-514" font-family="Helvetica,sans-Serif" font-size="10.00">+bCastHiddenShadow</text>
<text text-anchor="middle" x="573.918" y="-503" font-family="Helvetica,sans-Serif" font-size="10.00">+CastShadow</text>
<text text-anchor="middle" x="573.918" y="-492" font-family="Helvetica,sans-Serif" font-size="10.00">+bReflectedOnLowQuality</text>
<text text-anchor="middle" x="573.918" y="-481" font-family="Helvetica,sans-Serif" font-size="10.00">+bTraceComplexOnMove</text>
<text text-anchor="middle" x="573.918" y="-470" font-family="Helvetica,sans-Serif" font-size="10.00">+UnknownData01</text>
<text text-anchor="middle" x="573.918" y="-459" font-family="Helvetica,sans-Serif" font-size="10.00">+bUseEditorCompositing</text>
<text text-anchor="middle" x="573.918" y="-448" font-family="Helvetica,sans-Serif" font-size="10.00">+bCastDynamicShadow</text>
<text text-anchor="middle" x="573.918" y="-437" font-family="Helvetica,sans-Serif" font-size="10.00">+bDontCull</text>
<text text-anchor="middle" x="573.918" y="-426" font-family="Helvetica,sans-Serif" font-size="10.00">...</text>
</g>
<!-- Node7&#45;&gt;Node58 -->
<g id="edge13" class="edge"><title>Node7&#45;&gt;Node58</title>
<path fill="none" stroke="#404040" d="M469.389,-589.818C414.806,-588.845 249.582,-582.699 216.918,-544 199.575,-523.452 200.442,-444.249 216.918,-423 236.602,-397.614 262.524,-425.9 286.918,-405 319.575,-377.022 336.046,-329.388 344.02,-295.513"/>
<polygon fill="none" stroke="#404040" points="344.035,-295.442 341.403,-288.729 346.588,-283.717 349.22,-290.43 344.035,-295.442"/>
<text text-anchor="middle" x="256.918" y="-492" font-family="Helvetica,sans-Serif" font-size="10.00"> +UnknownData01</text>
<text text-anchor="middle" x="256.918" y="-481" font-family="Helvetica,sans-Serif" font-size="10.00">+UnknownData02</text>
<text text-anchor="middle" x="256.918" y="-470" font-family="Helvetica,sans-Serif" font-size="10.00">+UnknownData00</text>
</g>
<!-- Node8 -->
<g id="node6" class="node"><title>Node8</title>
<g id="a_node6"><a xlink:title=" ">
<polygon fill="none" stroke="#bfbfbf" points="858.418,-562.5 858.418,-619.5 893.418,-619.5 893.418,-562.5 858.418,-562.5"/>
<text text-anchor="middle" x="875.918" y="-607.5" font-family="Helvetica,sans-Serif" font-size="10.00">bool</text>
<polyline fill="none" stroke="#bfbfbf" points="858.418,-600.5 893.418,-600.5 "/>
<text text-anchor="middle" x="875.918" y="-588.5" font-family="Helvetica,sans-Serif" font-size="10.00"> </text>
<polyline fill="none" stroke="#bfbfbf" points="858.418,-581.5 893.418,-581.5 "/>
<text text-anchor="middle" x="875.918" y="-569.5" font-family="Helvetica,sans-Serif" font-size="10.00"> </text>
</a>
</g>
</g>
<!-- Node8&#45;&gt;Node1 -->
<g id="edge6" class="edge"><title>Node8&#45;&gt;Node1</title>
<path fill="none" stroke="#404040" d="M893.47,-590.108C923.754,-589.225 985.234,-582.499 1012.92,-544 1054.05,-486.806 948.219,-137.006 910.918,-105 854.951,-56.9758 648.823,-39.4715 528.605,-33.2661"/>
<polygon fill="none" stroke="#404040" points="528.518,-33.2619 522.326,-36.959 516.532,-32.666 522.724,-28.9688 528.518,-33.2619"/>
<text text-anchor="middle" x="1053.42" y="-258" font-family="Helvetica,sans-Serif" font-size="10.00"> +bRelativeRotation</text>
<text text-anchor="middle" x="1053.42" y="-247" font-family="Helvetica,sans-Serif" font-size="10.00">+bRelativePosition</text>
</g>
<!-- Node8&#45;&gt;Node9 -->
<g id="edge11" class="edge"><title>Node8&#45;&gt;Node9</title>
<path fill="none" stroke="#404040" d="M875.328,-562.413C873.195,-526.588 864.638,-463.826 831.918,-423 774.395,-351.225 677.718,-307.055 605.091,-282.317"/>
<polygon fill="none" stroke="#404040" points="605.038,-282.299 598.082,-284.201 593.651,-278.512 600.607,-276.61 605.038,-282.299"/>
<text text-anchor="start" x="873.918" y="-514" font-family="Helvetica,sans-Serif" font-size="10.00"> +bOverrideShadowCascades</text>
<text text-anchor="middle" x="941.918" y="-503" font-family="Helvetica,sans-Serif" font-size="10.00">Exclusion</text>
<text text-anchor="middle" x="941.918" y="-492" font-family="Helvetica,sans-Serif" font-size="10.00">+bGPUVisibility</text>
<text text-anchor="start" x="873.918" y="-481" font-family="Helvetica,sans-Serif" font-size="10.00">+bOverrideShadowMinSize</text>
<text text-anchor="middle" x="941.918" y="-470" font-family="Helvetica,sans-Serif" font-size="10.00">Culling</text>
<text text-anchor="middle" x="941.918" y="-459" font-family="Helvetica,sans-Serif" font-size="10.00">+bStaticLightingBuildEnqueued</text>
<text text-anchor="middle" x="941.918" y="-448" font-family="Helvetica,sans-Serif" font-size="10.00">+bHasCachedStaticLighting</text>
</g>
<!-- Node8&#45;&gt;Node58 -->
<g id="edge15" class="edge"><title>Node8&#45;&gt;Node58</title>
<path fill="none" stroke="#404040" d="M858.164,-588.248C814.981,-583.618 706.214,-569.618 681.918,-544 644.305,-504.34 700.571,-459.538 659.918,-423 619.316,-386.508 459.374,-436.685 414.918,-405 379.492,-379.751 363.515,-330.696 356.415,-295.773"/>
<polygon fill="none" stroke="#404040" points="356.35,-295.419 351.332,-290.241 354.181,-283.617 359.2,-288.795 356.35,-295.419"/>
<text text-anchor="middle" x="754.918" y="-492" font-family="Helvetica,sans-Serif" font-size="10.00"> +bEnableRootMotionRotation</text>
<text text-anchor="middle" x="754.918" y="-481" font-family="Helvetica,sans-Serif" font-size="10.00">+bAnimBranchingPointNeedsSort</text>
<text text-anchor="middle" x="754.918" y="-470" font-family="Helvetica,sans-Serif" font-size="10.00">+bEnableRootMotionTranslation</text>
</g>
<!-- Node9&#45;&gt;Node1 -->
<g id="edge7" class="edge"><title>Node9&#45;&gt;Node1</title>
<path fill="none" stroke="#404040" d="M466.277,-105.159C463.185,-95.2679 460.049,-85.4764 456.918,-76 456.177,-73.7566 455.397,-71.4591 454.595,-69.1455"/>
<polygon fill="none" stroke="#404040" points="454.515,-68.922 448.731,-64.6157 450.481,-57.6203 456.265,-61.9265 454.515,-68.922"/>
<text text-anchor="middle" x="498.918" y="-79" font-family="Helvetica,sans-Serif" font-size="10.00"> +MovementBase</text>
</g>
<!-- Node9&#45;&gt;Node9 -->
<g id="edge10" class="edge"><title>Node9&#45;&gt;Node9</title>
<path fill="none" stroke="#404040" d="M593.754,-283.085C604.407,-278.135 611.418,-268.773 611.418,-255 611.418,-246.176 608.541,-239.163 603.672,-233.961"/>
<polygon fill="none" stroke="#404040" points="603.537,-233.865 596.329,-233.651 593.754,-226.915 600.962,-227.129 603.537,-233.865"/>
<text text-anchor="start" x="611.418" y="-263.5" font-family="Helvetica,sans-Serif" font-size="10.00"> +MergedCollisionComponent</text>
<text text-anchor="middle" x="675.418" y="-252.5" font-family="Helvetica,sans-Serif" font-size="10.00">Parent</text>
<text text-anchor="middle" x="675.418" y="-241.5" font-family="Helvetica,sans-Serif" font-size="10.00">+LODParentPrimitive</text>
</g>
<!-- Node58&#45;&gt;Node1 -->
<g id="edge12" class="edge"><title>Node58&#45;&gt;Node1</title>
<path fill="none" stroke="#404040" d="M350.089,-226.33C350.216,-189.471 354.832,-123.409 382.918,-76 384.928,-72.6084 387.286,-69.3637 389.88,-66.28"/>
<polygon fill="none" stroke="#404040" points="389.958,-66.1984 391.214,-59.0975 398.252,-57.5263 396.996,-64.6271 389.958,-66.1984"/>
<text text-anchor="middle" x="417.918" y="-79" font-family="Helvetica,sans-Serif" font-size="10.00"> +AnimMontage</text>
</g>
<!-- Node79 -->
<g id="node9" class="node"><title>Node79</title>
<g id="a_node9"><a xlink:href="a30139.html" target="_top" xlink:title=" ">
<polygon fill="none" stroke="red" points="1130.42,-226.5 1130.42,-283.5 1277.42,-283.5 1277.42,-226.5 1130.42,-226.5"/>
<text text-anchor="middle" x="1203.92" y="-271.5" font-family="Helvetica,sans-Serif" font-size="10.00">SDK::FVector_NetQuantize10</text>
<polyline fill="none" stroke="red" points="1130.42,-264.5 1277.42,-264.5 "/>
<text text-anchor="middle" x="1203.92" y="-252.5" font-family="Helvetica,sans-Serif" font-size="10.00"> </text>
<polyline fill="none" stroke="red" points="1130.42,-245.5 1277.42,-245.5 "/>
<text text-anchor="middle" x="1203.92" y="-233.5" font-family="Helvetica,sans-Serif" font-size="10.00"> </text>
</a>
</g>
</g>
<!-- Node79&#45;&gt;Node1 -->
<g id="edge16" class="edge"><title>Node79&#45;&gt;Node1</title>
<path fill="none" stroke="#404040" d="M1194.1,-226.325C1181.05,-193.217 1154.99,-138.121 1115.92,-105 1088.66,-81.891 1075.77,-83.8924 1040.92,-76 945.962,-54.499 671.521,-39.9514 528.684,-33.6085"/>
<polygon fill="none" stroke="#404040" points="528.526,-33.6017 522.357,-37.3344 516.538,-33.0748 522.708,-29.3421 528.526,-33.6017"/>
<text text-anchor="middle" x="1109.92" y="-79" font-family="Helvetica,sans-Serif" font-size="10.00"> +Location</text>
</g>
</g>
</svg>
        <g id="navigator" transform="translate(0 0)" fill="#404254">
                <rect fill="#f2f5e9" fill-opacity="0.5" stroke="#606060" stroke-width=".5" x="0" y="0" width="60" height="60"/>
                <use id="zoomplus" xlink:href="#zoomPlus" x="17" y="9" onmousedown="handleZoom(evt,'in')"/>
                <use id="zoomminus" xlink:href="#zoomMin" x="42" y="9" onmousedown="handleZoom(evt,'out')"/>
                <use id="reset" xlink:href="#resetDef" x="30" y="36" onmousedown="handleReset()"/>
                <g id="arrowUp" xlink:href="#dirArrow" transform="translate(30 24)" onmousedown="handlePan(0,-1)">
                  <use xlink:href="#rim" fill="#404040">
                        <set attributeName="fill" to="#808080" begin="arrowUp.mouseover" end="arrowUp.mouseout"/>
                  </use>
                  <path fill="none" stroke="white" stroke-width="1.5" d="M0,-3.0v7 M-2.5,-0.5L0,-3.0L2.5,-0.5"/>
                </g>
                <g id="arrowRight" xlink:href="#dirArrow" transform="rotate(90) translate(36 -43)" onmousedown="handlePan(1,0)">
                  <use xlink:href="#rim" fill="#404040">
                        <set attributeName="fill" to="#808080" begin="arrowRight.mouseover" end="arrowRight.mouseout"/>
                  </use>
                  <path fill="none" stroke="white" stroke-width="1.5" d="M0,-3.0v7 M-2.5,-0.5L0,-3.0L2.5,-0.5"/>
                </g>
                <g id="arrowDown" xlink:href="#dirArrow" transform="rotate(180) translate(-30 -48)" onmousedown="handlePan(0,1)">
                  <use xlink:href="#rim" fill="#404040">
                        <set attributeName="fill" to="#808080" begin="arrowDown.mouseover" end="arrowDown.mouseout"/>
                  </use>
                  <path fill="none" stroke="white" stroke-width="1.5" d="M0,-3.0v7 M-2.5,-0.5L0,-3.0L2.5,-0.5"/>
                </g>
                <g id="arrowLeft" xlink:href="#dirArrow" transform="rotate(270) translate(-36 17)" onmousedown="handlePan(-1,0)">
                  <use xlink:href="#rim" fill="#404040">
                        <set attributeName="fill" to="#808080" begin="arrowLeft.mouseover" end="arrowLeft.mouseout"/>
                  </use>
                  <path fill="none" stroke="white" stroke-width="1.5" d="M0,-3.0v7 M-2.5,-0.5L0,-3.0L2.5,-0.5"/>
                </g>
        </g>
        <svg viewBox="0 0 15 15" width="100%" height="30px" preserveAspectRatio="xMaxYMin meet">
         <g id="arrow_out" transform="scale(0.3 0.3)">
          <a xlink:href="a30141_org.svg" target="_base">
           <rect id="button" ry="5" rx="5" y="6" x="6" height="38" width="38"
                fill="#f2f5e9" fill-opacity="0.5" stroke="#606060" stroke-width="1.0"/>
           <path id="arrow"
             d="M 11.500037,31.436501 C 11.940474,20.09759 22.043105,11.32322 32.158766,21.979434 L 37.068811,17.246167 C 37.068811,17.246167 37.088388,32 37.088388,32 L 22.160133,31.978069 C 22.160133,31.978069 26.997745,27.140456 26.997745,27.140456 C 18.528582,18.264221 13.291696,25.230495 11.500037,31.436501 z"
             style="fill:#404040;"/>
          </a>
         </g>
        </svg>
</svg>
