<?xml version="1.0" encoding="UTF-8" standalone="no"?>
<!DOCTYPE svg PUBLIC "-//W3C//DTD SVG 1.1//EN"
 "http://www.w3.org/Graphics/SVG/1.1/DTD/svg11.dtd">
<!-- Generated by graphviz version 2.38.0 (20140413.2041)
 -->
<!-- Title: SDK::FFlatWaterMeshTextureOverride Pages: 1 -->
<svg width="406pt" height="430pt"
 viewBox="0.00 0.00 405.75 430.00" xmlns="http://www.w3.org/2000/svg" xmlns:xlink="http://www.w3.org/1999/xlink">
<g id="graph0" class="graph" transform="scale(1 1) rotate(0) translate(4 426)">
<title>SDK::FFlatWaterMeshTextureOverride</title>
<!-- Node1 -->
<g id="node1" class="node"><title>Node1</title>
<g id="a_node1"><a xlink:title=" ">
<polygon fill="#bfbfbf" stroke="black" points="82.7512,-0.5 82.7512,-68.5 230.751,-68.5 230.751,-0.5 82.7512,-0.5"/>
<text text-anchor="start" x="90.7512" y="-56.5" font-family="Helvetica,sans-Serif" font-size="10.00">SDK::FFlatWaterMeshTexture</text>
<text text-anchor="middle" x="156.751" y="-45.5" font-family="Helvetica,sans-Serif" font-size="10.00">Override</text>
<polyline fill="none" stroke="black" points="82.7512,-38.5 230.751,-38.5 "/>
<text text-anchor="middle" x="156.751" y="-26.5" font-family="Helvetica,sans-Serif" font-size="10.00"> </text>
<polyline fill="none" stroke="black" points="82.7512,-19.5 230.751,-19.5 "/>
<text text-anchor="middle" x="156.751" y="-7.5" font-family="Helvetica,sans-Serif" font-size="10.00"> </text>
</a>
</g>
</g>
<!-- Node2 -->
<g id="node2" class="node"><title>Node2</title>
<g id="a_node2"><a xlink:href="a30535.html" target="_top" xlink:title=" ">
<polygon fill="none" stroke="black" points="99.2512,-122 99.2512,-179 214.251,-179 214.251,-122 99.2512,-122"/>
<text text-anchor="middle" x="156.751" y="-167" font-family="Helvetica,sans-Serif" font-size="10.00">SDK::FNameIndexPair</text>
<polyline fill="none" stroke="black" points="99.2512,-160 214.251,-160 "/>
<text text-anchor="middle" x="156.751" y="-148" font-family="Helvetica,sans-Serif" font-size="10.00"> </text>
<polyline fill="none" stroke="black" points="99.2512,-141 214.251,-141 "/>
<text text-anchor="middle" x="156.751" y="-129" font-family="Helvetica,sans-Serif" font-size="10.00"> </text>
</a>
</g>
</g>
<!-- Node2&#45;&gt;Node1 -->
<g id="edge1" class="edge"><title>Node2&#45;&gt;Node1</title>
<path fill="none" stroke="midnightblue" d="M156.751,-111.639C156.751,-97.6894 156.751,-82.0099 156.751,-68.5214"/>
<polygon fill="none" stroke="midnightblue" points="153.251,-111.904 156.751,-121.904 160.251,-111.904 153.251,-111.904"/>
</g>
<!-- Node3 -->
<g id="node3" class="node"><title>Node3</title>
<g id="a_node3"><a xlink:title=" ">
<polygon fill="none" stroke="#bfbfbf" points="139.251,-364.5 139.251,-421.5 174.251,-421.5 174.251,-364.5 139.251,-364.5"/>
<text text-anchor="middle" x="156.751" y="-409.5" font-family="Helvetica,sans-Serif" font-size="10.00">char</text>
<polyline fill="none" stroke="#bfbfbf" points="139.251,-402.5 174.251,-402.5 "/>
<text text-anchor="middle" x="156.751" y="-390.5" font-family="Helvetica,sans-Serif" font-size="10.00"> </text>
<polyline fill="none" stroke="#bfbfbf" points="139.251,-383.5 174.251,-383.5 "/>
<text text-anchor="middle" x="156.751" y="-371.5" font-family="Helvetica,sans-Serif" font-size="10.00"> </text>
</a>
</g>
</g>
<!-- Node3&#45;&gt;Node1 -->
<g id="edge5" class="edge"><title>Node3&#45;&gt;Node1</title>
<path fill="none" stroke="#404040" d="M139.122,-375.286C106.025,-342.544 35.6011,-266.047 9.75119,-185 0.432542,-155.783 -5.88107,-142.383 9.75119,-116 23.7067,-92.4467 47.2613,-75.3325 71.4737,-63.106"/>
<polygon fill="none" stroke="#404040" points="71.7687,-62.9662 75.4774,-56.7819 82.6124,-57.8268 78.9037,-64.0111 71.7687,-62.9662"/>
<text text-anchor="middle" x="49.7512" y="-148" font-family="Helvetica,sans-Serif" font-size="10.00"> +UnknownData00</text>
</g>
<!-- Node3&#45;&gt;Node2 -->
<g id="edge2" class="edge"><title>Node3&#45;&gt;Node2</title>
<path fill="none" stroke="#404040" d="M156.751,-364.412C156.751,-321.939 156.751,-240.333 156.751,-191.416"/>
<polygon fill="none" stroke="#404040" points="156.751,-191.136 152.751,-185.136 156.751,-179.136 160.751,-185.136 156.751,-191.136"/>
<text text-anchor="middle" x="196.751" y="-272" font-family="Helvetica,sans-Serif" font-size="10.00"> +UnknownData00</text>
</g>
<!-- Node4 -->
<g id="node4" class="node"><title>Node4</title>
<g id="a_node4"><a xlink:href="a26483.html" target="_top" xlink:title=" ">
<polygon fill="none" stroke="red" points="232.751,-116.5 232.751,-184.5 328.751,-184.5 328.751,-116.5 232.751,-116.5"/>
<text text-anchor="middle" x="280.751" y="-172.5" font-family="Helvetica,sans-Serif" font-size="10.00">SDK::UTexture</text>
<polyline fill="none" stroke="red" points="232.751,-165.5 328.751,-165.5 "/>
<text text-anchor="start" x="240.751" y="-153.5" font-family="Helvetica,sans-Serif" font-size="10.00">+ NeverStream</text>
<text text-anchor="start" x="240.751" y="-142.5" font-family="Helvetica,sans-Serif" font-size="10.00">+ UnknownData00</text>
<polyline fill="none" stroke="red" points="232.751,-135.5 328.751,-135.5 "/>
<text text-anchor="start" x="240.751" y="-123.5" font-family="Helvetica,sans-Serif" font-size="10.00">+ StaticClass()</text>
</a>
</g>
</g>
<!-- Node3&#45;&gt;Node4 -->
<g id="edge4" class="edge"><title>Node3&#45;&gt;Node4</title>
<path fill="none" stroke="#404040" d="M174.516,-387.172C193.9,-380.95 224.35,-368.199 240.751,-346 272.845,-302.561 280.638,-239.447 281.854,-197.007"/>
<polygon fill="none" stroke="#404040" points="281.857,-196.812 277.948,-190.752 282.039,-184.813 285.947,-190.873 281.857,-196.812"/>
<text text-anchor="middle" x="339.751" y="-338" font-family="Helvetica,sans-Serif" font-size="10.00"> +UnknownData01</text>
<text text-anchor="middle" x="339.751" y="-327" font-family="Helvetica,sans-Serif" font-size="10.00">+bUAV</text>
<text text-anchor="middle" x="339.751" y="-316" font-family="Helvetica,sans-Serif" font-size="10.00">+UnknownData02</text>
<text text-anchor="middle" x="339.751" y="-305" font-family="Helvetica,sans-Serif" font-size="10.00">+UnknownData03</text>
<text text-anchor="middle" x="339.751" y="-294" font-family="Helvetica,sans-Serif" font-size="10.00">+bNoTiling</text>
<text text-anchor="middle" x="339.751" y="-283" font-family="Helvetica,sans-Serif" font-size="10.00">+UnknownData04</text>
<text text-anchor="middle" x="339.751" y="-272" font-family="Helvetica,sans-Serif" font-size="10.00">+SRGB</text>
<text text-anchor="start" x="281.751" y="-261" font-family="Helvetica,sans-Serif" font-size="10.00">+bUseCinematicMip</text>
<text text-anchor="middle" x="339.751" y="-250" font-family="Helvetica,sans-Serif" font-size="10.00">Levels</text>
<text text-anchor="start" x="281.751" y="-239" font-family="Helvetica,sans-Serif" font-size="10.00">+bAsyncResourceRelease</text>
<text text-anchor="middle" x="339.751" y="-228" font-family="Helvetica,sans-Serif" font-size="10.00">HasBeenStarted</text>
<text text-anchor="middle" x="339.751" y="-217" font-family="Helvetica,sans-Serif" font-size="10.00">+CompressionNone</text>
<text text-anchor="middle" x="339.751" y="-206" font-family="Helvetica,sans-Serif" font-size="10.00">...</text>
</g>
<!-- Node4&#45;&gt;Node1 -->
<g id="edge3" class="edge"><title>Node4&#45;&gt;Node1</title>
<path fill="none" stroke="#404040" d="M244.552,-116.22C231.182,-103.928 215.864,-89.8455 201.805,-76.9203"/>
<polygon fill="none" stroke="#404040" points="201.615,-76.7459 194.491,-75.6298 192.781,-68.6243 199.905,-69.7404 201.615,-76.7459"/>
<text text-anchor="middle" x="243.751" y="-90" font-family="Helvetica,sans-Serif" font-size="10.00"> +Texture</text>
</g>
</g>
</svg>
