<?xml version="1.0" encoding="UTF-8" standalone="no"?>
<!DOCTYPE svg PUBLIC "-//W3C//DTD SVG 1.1//EN"
 "http://www.w3.org/Graphics/SVG/1.1/DTD/svg11.dtd">
<!-- Generated by graphviz version 2.38.0 (20140413.2041)
 -->
<!-- Title: SDK::FTimelineLinearColorTrack Pages: 1 -->
<svg width="645pt" height="342pt"
 viewBox="0.00 0.00 644.50 342.00" xmlns="http://www.w3.org/2000/svg" xmlns:xlink="http://www.w3.org/1999/xlink">
<g id="graph0" class="graph" transform="scale(1 1) rotate(0) translate(4 338)">
<title>SDK::FTimelineLinearColorTrack</title>
<!-- Node1 -->
<g id="node1" class="node"><title>Node1</title>
<g id="a_node1"><a xlink:title=" ">
<polygon fill="#bfbfbf" stroke="black" points="227,-0.5 227,-68.5 361,-68.5 361,-0.5 227,-0.5"/>
<text text-anchor="start" x="235" y="-56.5" font-family="Helvetica,sans-Serif" font-size="10.00">SDK::FTimelineLinearColor</text>
<text text-anchor="middle" x="294" y="-45.5" font-family="Helvetica,sans-Serif" font-size="10.00">Track</text>
<polyline fill="none" stroke="black" points="227,-38.5 361,-38.5 "/>
<text text-anchor="middle" x="294" y="-26.5" font-family="Helvetica,sans-Serif" font-size="10.00"> </text>
<polyline fill="none" stroke="black" points="227,-19.5 361,-19.5 "/>
<text text-anchor="middle" x="294" y="-7.5" font-family="Helvetica,sans-Serif" font-size="10.00"> </text>
</a>
</g>
</g>
<!-- Node2 -->
<g id="node2" class="node"><title>Node2</title>
<g id="a_node2"><a xlink:href="a25627.html" target="_top" xlink:title=" ">
<polygon fill="none" stroke="red" points="0,-116.5 0,-228.5 106,-228.5 106,-116.5 0,-116.5"/>
<text text-anchor="middle" x="53" y="-216.5" font-family="Helvetica,sans-Serif" font-size="10.00">SDK::FName</text>
<polyline fill="none" stroke="red" points="0,-209.5 106,-209.5 "/>
<text text-anchor="middle" x="53" y="-197.5" font-family="Helvetica,sans-Serif" font-size="10.00"> </text>
<polyline fill="none" stroke="red" points="0,-190.5 106,-190.5 "/>
<text text-anchor="start" x="8" y="-178.5" font-family="Helvetica,sans-Serif" font-size="10.00">+ FName()</text>
<text text-anchor="start" x="8" y="-167.5" font-family="Helvetica,sans-Serif" font-size="10.00">+ FName()</text>
<text text-anchor="start" x="8" y="-156.5" font-family="Helvetica,sans-Serif" font-size="10.00">+ FName()</text>
<text text-anchor="start" x="8" y="-145.5" font-family="Helvetica,sans-Serif" font-size="10.00">+ GetName()</text>
<text text-anchor="start" x="8" y="-134.5" font-family="Helvetica,sans-Serif" font-size="10.00">+ operator==()</text>
<text text-anchor="start" x="8" y="-123.5" font-family="Helvetica,sans-Serif" font-size="10.00">+ GetGlobalNames()</text>
</a>
</g>
</g>
<!-- Node2&#45;&gt;Node1 -->
<g id="edge1" class="edge"><title>Node2&#45;&gt;Node1</title>
<path fill="none" stroke="#404040" d="M54.1423,-116.168C56.7668,-105.378 61.3367,-94.9592 69,-87 89.1002,-66.1236 158.31,-52.3977 214.721,-44.4063"/>
<polygon fill="none" stroke="#404040" points="215.018,-44.3657 220.421,-39.5894 226.908,-42.7392 221.505,-47.5156 215.018,-44.3657"/>
<text text-anchor="middle" x="129.5" y="-90" font-family="Helvetica,sans-Serif" font-size="10.00"> +LinearColorPropertyName</text>
</g>
<!-- Node5 -->
<g id="node3" class="node"><title>Node5</title>
<g id="a_node3"><a xlink:href="a27815.html" target="_top" xlink:title=" ">
<polygon fill="none" stroke="red" points="136,-138.5 136,-206.5 258,-206.5 258,-138.5 136,-138.5"/>
<text text-anchor="middle" x="197" y="-194.5" font-family="Helvetica,sans-Serif" font-size="10.00">SDK::UCurveLinearColor</text>
<polyline fill="none" stroke="red" points="136,-187.5 258,-187.5 "/>
<text text-anchor="middle" x="197" y="-175.5" font-family="Helvetica,sans-Serif" font-size="10.00"> </text>
<polyline fill="none" stroke="red" points="136,-168.5 258,-168.5 "/>
<text text-anchor="start" x="144" y="-156.5" font-family="Helvetica,sans-Serif" font-size="10.00">+ GetLinearColorValue()</text>
<text text-anchor="start" x="144" y="-145.5" font-family="Helvetica,sans-Serif" font-size="10.00">+ StaticClass()</text>
</a>
</g>
</g>
<!-- Node5&#45;&gt;Node1 -->
<g id="edge2" class="edge"><title>Node5&#45;&gt;Node1</title>
<path fill="none" stroke="#404040" d="M189.862,-138.451C188.068,-121.887 188.795,-102.179 198,-87 202.896,-78.9265 209.533,-72.0434 217.046,-66.1934"/>
<polygon fill="none" stroke="#404040" points="217.1,-66.1558 219.756,-59.4514 226.966,-59.324 224.31,-66.0284 217.1,-66.1558"/>
<text text-anchor="middle" x="239" y="-90" font-family="Helvetica,sans-Serif" font-size="10.00"> +LinearColorCurve</text>
</g>
<!-- Node13 -->
<g id="node4" class="node"><title>Node13</title>
<g id="a_node4"><a xlink:title=" ">
<polygon fill="none" stroke="#bfbfbf" points="431.5,-276.5 431.5,-333.5 466.5,-333.5 466.5,-276.5 431.5,-276.5"/>
<text text-anchor="middle" x="449" y="-321.5" font-family="Helvetica,sans-Serif" font-size="10.00">char</text>
<polyline fill="none" stroke="#bfbfbf" points="431.5,-314.5 466.5,-314.5 "/>
<text text-anchor="middle" x="449" y="-302.5" font-family="Helvetica,sans-Serif" font-size="10.00"> </text>
<polyline fill="none" stroke="#bfbfbf" points="431.5,-295.5 466.5,-295.5 "/>
<text text-anchor="middle" x="449" y="-283.5" font-family="Helvetica,sans-Serif" font-size="10.00"> </text>
</a>
</g>
</g>
<!-- Node13&#45;&gt;Node1 -->
<g id="edge3" class="edge"><title>Node13&#45;&gt;Node1</title>
<path fill="none" stroke="#404040" d="M431.486,-300.858C399.568,-294.098 332.51,-274.902 303,-229 274.591,-184.81 277.501,-122.501 284.086,-80.6395"/>
<polygon fill="none" stroke="#404040" points="284.121,-80.4367 281.203,-73.8426 286.167,-68.6124 289.086,-75.2066 284.121,-80.4367"/>
<text text-anchor="middle" x="343" y="-170" font-family="Helvetica,sans-Serif" font-size="10.00"> +UnknownData00</text>
</g>
<!-- Node21 -->
<g id="node5" class="node"><title>Node21</title>
<g id="a_node5"><a xlink:href="a26047.html" target="_top" xlink:title=" ">
<polygon fill="none" stroke="red" points="392.5,-144 392.5,-201 505.5,-201 505.5,-144 392.5,-144"/>
<text text-anchor="middle" x="449" y="-189" font-family="Helvetica,sans-Serif" font-size="10.00">SDK::UStructProperty</text>
<polyline fill="none" stroke="red" points="392.5,-182 505.5,-182 "/>
<text text-anchor="middle" x="449" y="-170" font-family="Helvetica,sans-Serif" font-size="10.00"> </text>
<polyline fill="none" stroke="red" points="392.5,-163 505.5,-163 "/>
<text text-anchor="start" x="400.5" y="-151" font-family="Helvetica,sans-Serif" font-size="10.00">+ StaticClass()</text>
</a>
</g>
</g>
<!-- Node13&#45;&gt;Node21 -->
<g id="edge5" class="edge"><title>Node13&#45;&gt;Node21</title>
<path fill="none" stroke="#404040" d="M449,-276.324C449,-257.984 449,-233.637 449,-213.238"/>
<polygon fill="none" stroke="#404040" points="449,-213.136 445,-207.136 449,-201.136 453,-207.136 449,-213.136"/>
<text text-anchor="middle" x="489" y="-250" font-family="Helvetica,sans-Serif" font-size="10.00"> +UnknownData00</text>
</g>
<!-- Node23 -->
<g id="node6" class="node"><title>Node23</title>
<g id="a_node6"><a xlink:href="a25651.html" target="_top" xlink:title=" ">
<polygon fill="none" stroke="black" points="523.5,-144 523.5,-201 636.5,-201 636.5,-144 523.5,-144"/>
<text text-anchor="middle" x="580" y="-189" font-family="Helvetica,sans-Serif" font-size="10.00">SDK::FScriptDelegate</text>
<polyline fill="none" stroke="black" points="523.5,-182 636.5,-182 "/>
<text text-anchor="middle" x="580" y="-170" font-family="Helvetica,sans-Serif" font-size="10.00"> </text>
<polyline fill="none" stroke="black" points="523.5,-163 636.5,-163 "/>
<text text-anchor="middle" x="580" y="-151" font-family="Helvetica,sans-Serif" font-size="10.00"> </text>
</a>
</g>
</g>
<!-- Node13&#45;&gt;Node23 -->
<g id="edge7" class="edge"><title>Node13&#45;&gt;Node23</title>
<path fill="none" stroke="#404040" d="M466.59,-297.761C484.976,-290.527 513.773,-277.101 533,-258 546.033,-245.053 556.512,-227.733 564.239,-212.145"/>
<polygon fill="none" stroke="#404040" points="564.282,-212.053 563.208,-204.922 569.377,-201.188 570.451,-208.319 564.282,-212.053"/>
<text text-anchor="middle" x="577" y="-250" font-family="Helvetica,sans-Serif" font-size="10.00"> +UnknownData</text>
</g>
<!-- Node21&#45;&gt;Node1 -->
<g id="edge4" class="edge"><title>Node21&#45;&gt;Node1</title>
<path fill="none" stroke="#404040" d="M417.633,-143.978C395.592,-124.639 365.723,-98.4313 340.866,-76.6208"/>
<polygon fill="none" stroke="#404040" points="340.631,-76.4149 333.483,-75.4644 331.611,-68.5004 338.759,-69.451 340.631,-76.4149"/>
<text text-anchor="middle" x="410.5" y="-90" font-family="Helvetica,sans-Serif" font-size="10.00"> +LinearColorProperty</text>
</g>
<!-- Node23&#45;&gt;Node1 -->
<g id="edge6" class="edge"><title>Node23&#45;&gt;Node1</title>
<path fill="none" stroke="#404040" d="M549.742,-143.978C538.834,-134.624 526.199,-124.417 514,-116 471.439,-86.6343 416.89,-66.5816 372.758,-53.8346"/>
<polygon fill="none" stroke="#404040" points="372.747,-53.8315 365.89,-56.0625 361.193,-50.5909 368.05,-48.3598 372.747,-53.8315"/>
<text text-anchor="middle" x="509.5" y="-90" font-family="Helvetica,sans-Serif" font-size="10.00"> +InterpFunc</text>
</g>
</g>
</svg>
