<?xml version="1.0" encoding="UTF-8" standalone="no"?>
<!DOCTYPE svg PUBLIC "-//W3C//DTD SVG 1.1//EN"
 "http://www.w3.org/Graphics/SVG/1.1/DTD/svg11.dtd">
<!-- Generated by graphviz version 2.38.0 (20140413.2041)
 -->
<!-- Title: SDK::FTranslationTrack Pages: 1 -->
<svg width="238pt" height="226pt"
 viewBox="0.00 0.00 238.00 226.00" xmlns="http://www.w3.org/2000/svg" xmlns:xlink="http://www.w3.org/1999/xlink">
<g id="graph0" class="graph" transform="scale(1 1) rotate(0) translate(4 222)">
<title>SDK::FTranslationTrack</title>
<!-- Node1 -->
<g id="node1" class="node"><title>Node1</title>
<g id="a_node1"><a xlink:title=" ">
<polygon fill="#bfbfbf" stroke="black" points="54.5,-0.5 54.5,-57.5 174.5,-57.5 174.5,-0.5 54.5,-0.5"/>
<text text-anchor="middle" x="114.5" y="-45.5" font-family="Helvetica,sans-Serif" font-size="10.00">SDK::FTranslationTrack</text>
<polyline fill="none" stroke="black" points="54.5,-38.5 174.5,-38.5 "/>
<text text-anchor="middle" x="114.5" y="-26.5" font-family="Helvetica,sans-Serif" font-size="10.00"> </text>
<polyline fill="none" stroke="black" points="54.5,-19.5 174.5,-19.5 "/>
<text text-anchor="middle" x="114.5" y="-7.5" font-family="Helvetica,sans-Serif" font-size="10.00"> </text>
</a>
</g>
</g>
<!-- Node2 -->
<g id="node2" class="node"><title>Node2</title>
<g id="a_node2"><a xlink:href="a25611.html" target="_top" xlink:title=" ">
<polygon fill="none" stroke="black" points="0,-105.5 0,-217.5 105,-217.5 105,-105.5 0,-105.5"/>
<text text-anchor="start" x="8" y="-205.5" font-family="Helvetica,sans-Serif" font-size="10.00">SDK::TArray&lt; struct</text>
<text text-anchor="middle" x="52.5" y="-194.5" font-family="Helvetica,sans-Serif" font-size="10.00"> SDK::FVector &gt;</text>
<polyline fill="none" stroke="black" points="0,-187.5 105,-187.5 "/>
<text text-anchor="middle" x="52.5" y="-175.5" font-family="Helvetica,sans-Serif" font-size="10.00"> </text>
<polyline fill="none" stroke="black" points="0,-168.5 105,-168.5 "/>
<text text-anchor="start" x="8" y="-156.5" font-family="Helvetica,sans-Serif" font-size="10.00">+ TArray()</text>
<text text-anchor="start" x="8" y="-145.5" font-family="Helvetica,sans-Serif" font-size="10.00">+ Num()</text>
<text text-anchor="start" x="8" y="-134.5" font-family="Helvetica,sans-Serif" font-size="10.00">+ operator[]()</text>
<text text-anchor="start" x="8" y="-123.5" font-family="Helvetica,sans-Serif" font-size="10.00">+ operator[]()</text>
<text text-anchor="start" x="8" y="-112.5" font-family="Helvetica,sans-Serif" font-size="10.00">+ IsValidIndex()</text>
</a>
</g>
</g>
<!-- Node2&#45;&gt;Node1 -->
<g id="edge1" class="edge"><title>Node2&#45;&gt;Node1</title>
<path fill="none" stroke="#404040" d="M78.7936,-105.156C84.6353,-92.8604 90.7053,-80.084 96.1476,-68.6288"/>
<polygon fill="none" stroke="#404040" points="96.1994,-68.5196 95.1613,-61.3836 101.349,-57.6807 102.387,-64.8167 96.1994,-68.5196"/>
<text text-anchor="middle" x="116" y="-79" font-family="Helvetica,sans-Serif" font-size="10.00"> +PosKeys</text>
</g>
<!-- Node3 -->
<g id="node3" class="node"><title>Node3</title>
<g id="a_node3"><a xlink:href="a25611.html" target="_top" xlink:title=" ">
<polygon fill="none" stroke="black" points="123,-111 123,-212 230,-212 230,-111 123,-111"/>
<text text-anchor="middle" x="176.5" y="-200" font-family="Helvetica,sans-Serif" font-size="10.00">SDK::TArray&lt; float &gt;</text>
<polyline fill="none" stroke="black" points="123,-193 230,-193 "/>
<text text-anchor="middle" x="176.5" y="-181" font-family="Helvetica,sans-Serif" font-size="10.00"> </text>
<polyline fill="none" stroke="black" points="123,-174 230,-174 "/>
<text text-anchor="start" x="131" y="-162" font-family="Helvetica,sans-Serif" font-size="10.00">+ TArray()</text>
<text text-anchor="start" x="131" y="-151" font-family="Helvetica,sans-Serif" font-size="10.00">+ Num()</text>
<text text-anchor="start" x="131" y="-140" font-family="Helvetica,sans-Serif" font-size="10.00">+ operator[]()</text>
<text text-anchor="start" x="131" y="-129" font-family="Helvetica,sans-Serif" font-size="10.00">+ operator[]()</text>
<text text-anchor="start" x="131" y="-118" font-family="Helvetica,sans-Serif" font-size="10.00">+ IsValidIndex()</text>
</a>
</g>
</g>
<!-- Node3&#45;&gt;Node1 -->
<g id="edge2" class="edge"><title>Node3&#45;&gt;Node1</title>
<path fill="none" stroke="#404040" d="M159.638,-110.576C155.176,-99.0152 150.041,-86.9092 144.5,-76 143.189,-73.4179 141.766,-70.8009 140.277,-68.1937"/>
<polygon fill="none" stroke="#404040" points="140.108,-67.9135 133.58,-64.8492 133.898,-57.6451 140.426,-60.7094 140.108,-67.9135"/>
<text text-anchor="middle" x="166.5" y="-79" font-family="Helvetica,sans-Serif" font-size="10.00"> +Times</text>
</g>
</g>
</svg>
