<?xml version="1.0" encoding="UTF-8" standalone="no"?>
<!DOCTYPE svg PUBLIC "-//W3C//DTD SVG 1.1//EN"
 "http://www.w3.org/Graphics/SVG/1.1/DTD/svg11.dtd">
<!-- Generated by graphviz version 2.38.0 (20140413.2041)
 -->
<!-- Title: SDK::FBranchingPoint Pages: 1 -->
<svg width="386pt" height="353pt"
 viewBox="0.00 0.00 385.69 353.00" xmlns="http://www.w3.org/2000/svg" xmlns:xlink="http://www.w3.org/1999/xlink">
<g id="graph0" class="graph" transform="scale(1 1) rotate(0) translate(4 349)">
<title>SDK::FBranchingPoint</title>
<!-- Node1 -->
<g id="node1" class="node"><title>Node1</title>
<g id="a_node1"><a xlink:title=" ">
<polygon fill="#bfbfbf" stroke="black" points="124.187,-0.5 124.187,-57.5 239.187,-57.5 239.187,-0.5 124.187,-0.5"/>
<text text-anchor="middle" x="181.687" y="-45.5" font-family="Helvetica,sans-Serif" font-size="10.00">SDK::FBranchingPoint</text>
<polyline fill="none" stroke="black" points="124.187,-38.5 239.187,-38.5 "/>
<text text-anchor="middle" x="181.687" y="-26.5" font-family="Helvetica,sans-Serif" font-size="10.00"> </text>
<polyline fill="none" stroke="black" points="124.187,-19.5 239.187,-19.5 "/>
<text text-anchor="middle" x="181.687" y="-7.5" font-family="Helvetica,sans-Serif" font-size="10.00"> </text>
</a>
</g>
</g>
<!-- Node2 -->
<g id="node2" class="node"><title>Node2</title>
<g id="a_node2"><a xlink:href="a30163.html" target="_top" xlink:title=" ">
<polygon fill="none" stroke="red" points="110.187,-133 110.187,-190 253.187,-190 253.187,-133 110.187,-133"/>
<text text-anchor="middle" x="181.687" y="-178" font-family="Helvetica,sans-Serif" font-size="10.00">SDK::FAnimLinkableElement</text>
<polyline fill="none" stroke="red" points="110.187,-171 253.187,-171 "/>
<text text-anchor="middle" x="181.687" y="-159" font-family="Helvetica,sans-Serif" font-size="10.00"> </text>
<polyline fill="none" stroke="red" points="110.187,-152 253.187,-152 "/>
<text text-anchor="middle" x="181.687" y="-140" font-family="Helvetica,sans-Serif" font-size="10.00"> </text>
</a>
</g>
</g>
<!-- Node2&#45;&gt;Node1 -->
<g id="edge1" class="edge"><title>Node2&#45;&gt;Node1</title>
<path fill="none" stroke="midnightblue" d="M181.687,-122.726C181.687,-101.927 181.687,-76.5723 181.687,-57.6358"/>
<polygon fill="none" stroke="midnightblue" points="178.187,-122.824 181.687,-132.824 185.187,-122.824 178.187,-122.824"/>
</g>
<!-- Node24 -->
<g id="node3" class="node"><title>Node24</title>
<g id="a_node3"><a xlink:title=" ">
<polygon fill="none" stroke="#bfbfbf" points="41.1869,-287.5 41.1869,-344.5 76.1869,-344.5 76.1869,-287.5 41.1869,-287.5"/>
<text text-anchor="middle" x="58.6869" y="-332.5" font-family="Helvetica,sans-Serif" font-size="10.00">float</text>
<polyline fill="none" stroke="#bfbfbf" points="41.1869,-325.5 76.1869,-325.5 "/>
<text text-anchor="middle" x="58.6869" y="-313.5" font-family="Helvetica,sans-Serif" font-size="10.00"> </text>
<polyline fill="none" stroke="#bfbfbf" points="41.1869,-306.5 76.1869,-306.5 "/>
<text text-anchor="middle" x="58.6869" y="-294.5" font-family="Helvetica,sans-Serif" font-size="10.00"> </text>
</a>
</g>
</g>
<!-- Node24&#45;&gt;Node1 -->
<g id="edge4" class="edge"><title>Node24&#45;&gt;Node1</title>
<path fill="none" stroke="#404040" d="M41.1814,-287.468C16.5954,-244.942 -21.2482,-162.217 15.6869,-105 37.0287,-71.9386 76.843,-53.2977 112.13,-42.8698"/>
<polygon fill="none" stroke="#404040" points="112.318,-42.818 117.044,-37.3715 123.89,-39.6393 119.164,-45.0858 112.318,-42.818"/>
<text text-anchor="middle" x="58.1869" y="-164.5" font-family="Helvetica,sans-Serif" font-size="10.00"> +TriggerTimeOffset</text>
<text text-anchor="middle" x="58.1869" y="-153.5" font-family="Helvetica,sans-Serif" font-size="10.00">+DisplayTime</text>
</g>
<!-- Node24&#45;&gt;Node2 -->
<g id="edge2" class="edge"><title>Node24&#45;&gt;Node2</title>
<path fill="none" stroke="#404040" d="M76.3098,-293.15C95.9446,-268.806 128.03,-229.026 151.646,-199.746"/>
<polygon fill="none" stroke="#404040" points="151.766,-199.597 152.42,-192.415 159.3,-190.256 158.647,-197.438 151.766,-199.597"/>
<text text-anchor="middle" x="166.187" y="-261" font-family="Helvetica,sans-Serif" font-size="10.00"> +LinkValue</text>
<text text-anchor="middle" x="166.187" y="-250" font-family="Helvetica,sans-Serif" font-size="10.00">+SegmentLength</text>
<text text-anchor="middle" x="166.187" y="-239" font-family="Helvetica,sans-Serif" font-size="10.00">+SegmentBeginTime</text>
</g>
<!-- Node6 -->
<g id="node4" class="node"><title>Node6</title>
<g id="a_node4"><a xlink:href="a25839.html" target="_top" xlink:title=" ">
<polygon fill="none" stroke="red" points="271.687,-105.5 271.687,-217.5 377.687,-217.5 377.687,-105.5 271.687,-105.5"/>
<text text-anchor="middle" x="324.687" y="-205.5" font-family="Helvetica,sans-Serif" font-size="10.00">SDK::FName</text>
<polyline fill="none" stroke="red" points="271.687,-198.5 377.687,-198.5 "/>
<text text-anchor="middle" x="324.687" y="-186.5" font-family="Helvetica,sans-Serif" font-size="10.00"> </text>
<polyline fill="none" stroke="red" points="271.687,-179.5 377.687,-179.5 "/>
<text text-anchor="start" x="279.687" y="-167.5" font-family="Helvetica,sans-Serif" font-size="10.00">+ FName()</text>
<text text-anchor="start" x="279.687" y="-156.5" font-family="Helvetica,sans-Serif" font-size="10.00">+ FName()</text>
<text text-anchor="start" x="279.687" y="-145.5" font-family="Helvetica,sans-Serif" font-size="10.00">+ FName()</text>
<text text-anchor="start" x="279.687" y="-134.5" font-family="Helvetica,sans-Serif" font-size="10.00">+ GetName()</text>
<text text-anchor="start" x="279.687" y="-123.5" font-family="Helvetica,sans-Serif" font-size="10.00">+ operator==()</text>
<text text-anchor="start" x="279.687" y="-112.5" font-family="Helvetica,sans-Serif" font-size="10.00">+ GetGlobalNames()</text>
</a>
</g>
</g>
<!-- Node6&#45;&gt;Node1 -->
<g id="edge3" class="edge"><title>Node6&#45;&gt;Node1</title>
<path fill="none" stroke="#404040" d="M271.439,-111.907C254.867,-96.7837 236.894,-80.3815 221.415,-66.2552"/>
<polygon fill="none" stroke="#404040" points="220.998,-65.8746 213.869,-64.7846 212.134,-57.7855 219.262,-58.8754 220.998,-65.8746"/>
<text text-anchor="middle" x="270.187" y="-79" font-family="Helvetica,sans-Serif" font-size="10.00"> +EventName</text>
</g>
</g>
</svg>
