<?xml version="1.0" encoding="UTF-8" standalone="no"?>
<!DOCTYPE svg PUBLIC "-//W3C//DTD SVG 1.1//EN"
 "http://www.w3.org/Graphics/SVG/1.1/DTD/svg11.dtd">
<!-- Generated by graphviz version 2.38.0 (20140413.2041)
 -->
<!-- Title: SDK::FAnimCurveBase Pages: 1 -->
<svg width="350pt" height="237pt"
 viewBox="0.00 0.00 350.00 237.00" xmlns="http://www.w3.org/2000/svg" xmlns:xlink="http://www.w3.org/1999/xlink">
<g id="graph0" class="graph" transform="scale(1 1) rotate(0) translate(4 233)">
<title>SDK::FAnimCurveBase</title>
<!-- Node1 -->
<g id="node1" class="node"><title>Node1</title>
<g id="a_node1"><a xlink:title=" ">
<polygon fill="#bfbfbf" stroke="black" points="111,-0.5 111,-57.5 229,-57.5 229,-0.5 111,-0.5"/>
<text text-anchor="middle" x="170" y="-45.5" font-family="Helvetica,sans-Serif" font-size="10.00">SDK::FAnimCurveBase</text>
<polyline fill="none" stroke="black" points="111,-38.5 229,-38.5 "/>
<text text-anchor="middle" x="170" y="-26.5" font-family="Helvetica,sans-Serif" font-size="10.00"> </text>
<polyline fill="none" stroke="black" points="111,-19.5 229,-19.5 "/>
<text text-anchor="middle" x="170" y="-7.5" font-family="Helvetica,sans-Serif" font-size="10.00"> </text>
</a>
</g>
</g>
<!-- Node2 -->
<g id="node2" class="node"><title>Node2</title>
<g id="a_node2"><a xlink:href="a25839.html" target="_top" xlink:title=" ">
<polygon fill="none" stroke="red" points="0,-116.5 0,-228.5 106,-228.5 106,-116.5 0,-116.5"/>
<text text-anchor="middle" x="53" y="-216.5" font-family="Helvetica,sans-Serif" font-size="10.00">SDK::FName</text>
<polyline fill="none" stroke="red" points="0,-209.5 106,-209.5 "/>
<text text-anchor="middle" x="53" y="-197.5" font-family="Helvetica,sans-Serif" font-size="10.00"> </text>
<polyline fill="none" stroke="red" points="0,-190.5 106,-190.5 "/>
<text text-anchor="start" x="8" y="-178.5" font-family="Helvetica,sans-Serif" font-size="10.00">+ FName()</text>
<text text-anchor="start" x="8" y="-167.5" font-family="Helvetica,sans-Serif" font-size="10.00">+ FName()</text>
<text text-anchor="start" x="8" y="-156.5" font-family="Helvetica,sans-Serif" font-size="10.00">+ FName()</text>
<text text-anchor="start" x="8" y="-145.5" font-family="Helvetica,sans-Serif" font-size="10.00">+ GetName()</text>
<text text-anchor="start" x="8" y="-134.5" font-family="Helvetica,sans-Serif" font-size="10.00">+ operator==()</text>
<text text-anchor="start" x="8" y="-123.5" font-family="Helvetica,sans-Serif" font-size="10.00">+ GetGlobalNames()</text>
</a>
</g>
</g>
<!-- Node2&#45;&gt;Node1 -->
<g id="edge1" class="edge"><title>Node2&#45;&gt;Node1</title>
<path fill="none" stroke="#404040" d="M55.1527,-116.236C57.954,-101.982 63.0387,-87.4478 72,-76 79.4725,-66.4541 89.4006,-58.7984 100.073,-52.6863"/>
<polygon fill="none" stroke="#404040" points="100.268,-52.5851 103.762,-46.277 110.929,-47.076 107.435,-53.3841 100.268,-52.5851"/>
<text text-anchor="middle" x="119" y="-84.5" font-family="Helvetica,sans-Serif" font-size="10.00"> +LastObservedName</text>
</g>
<!-- Node5 -->
<g id="node3" class="node"><title>Node5</title>
<g id="a_node3"><a xlink:title=" ">
<polygon fill="none" stroke="#bfbfbf" points="152.5,-144 152.5,-201 187.5,-201 187.5,-144 152.5,-144"/>
<text text-anchor="middle" x="170" y="-189" font-family="Helvetica,sans-Serif" font-size="10.00">char</text>
<polyline fill="none" stroke="#bfbfbf" points="152.5,-182 187.5,-182 "/>
<text text-anchor="middle" x="170" y="-170" font-family="Helvetica,sans-Serif" font-size="10.00"> </text>
<polyline fill="none" stroke="#bfbfbf" points="152.5,-163 187.5,-163 "/>
<text text-anchor="middle" x="170" y="-151" font-family="Helvetica,sans-Serif" font-size="10.00"> </text>
</a>
</g>
</g>
<!-- Node5&#45;&gt;Node1 -->
<g id="edge2" class="edge"><title>Node5&#45;&gt;Node1</title>
<path fill="none" stroke="#404040" d="M170,-143.881C170,-122.747 170,-93.3095 170,-69.6583"/>
<polygon fill="none" stroke="#404040" points="170,-69.5489 166,-63.5489 170,-57.5489 174,-63.5488 170,-69.5489"/>
<text text-anchor="middle" x="210" y="-90" font-family="Helvetica,sans-Serif" font-size="10.00"> +UnknownData01</text>
<text text-anchor="middle" x="210" y="-79" font-family="Helvetica,sans-Serif" font-size="10.00">+UnknownData00</text>
</g>
<!-- Node6 -->
<g id="node4" class="node"><title>Node6</title>
<g id="a_node4"><a xlink:title=" ">
<polygon fill="none" stroke="#bfbfbf" points="258.5,-144 258.5,-201 287.5,-201 287.5,-144 258.5,-144"/>
<text text-anchor="middle" x="273" y="-189" font-family="Helvetica,sans-Serif" font-size="10.00">int</text>
<polyline fill="none" stroke="#bfbfbf" points="258.5,-182 287.5,-182 "/>
<text text-anchor="middle" x="273" y="-170" font-family="Helvetica,sans-Serif" font-size="10.00"> </text>
<polyline fill="none" stroke="#bfbfbf" points="258.5,-163 287.5,-163 "/>
<text text-anchor="middle" x="273" y="-151" font-family="Helvetica,sans-Serif" font-size="10.00"> </text>
</a>
</g>
</g>
<!-- Node6&#45;&gt;Node1 -->
<g id="edge3" class="edge"><title>Node6&#45;&gt;Node1</title>
<path fill="none" stroke="#404040" d="M272.458,-143.938C270.77,-123.407 265.639,-95.6463 251,-76 247.5,-71.3032 243.37,-67.0146 238.856,-63.1128"/>
<polygon fill="none" stroke="#404040" points="238.649,-62.9534 231.454,-62.4681 229.135,-55.6401 236.33,-56.1254 238.649,-62.9534"/>
<text text-anchor="middle" x="302.5" y="-84.5" font-family="Helvetica,sans-Serif" font-size="10.00"> +CurveTypeFlags</text>
</g>
</g>
</svg>
