<?xml version="1.0" encoding="UTF-8" standalone="no"?>
<!DOCTYPE svg PUBLIC "-//W3C//DTD SVG 1.1//EN"
 "http://www.w3.org/Graphics/SVG/1.1/DTD/svg11.dtd">
<!-- Generated by graphviz version 2.38.0 (20140413.2041)
 -->
<!-- Title: SDK::FTimeline Pages: 1 -->
<!--zoomable 364 -->
<svg id="main" version="1.1" xmlns="http://www.w3.org/2000/svg" xmlns:xlink="http://www.w3.org/1999/xlink" xml:space="preserve" onload="init(evt)">
<style type="text/css"><![CDATA[
.edge:hover path { stroke: red; }
.edge:hover polygon { stroke: red; fill: red; }
]]></style>
<script type="text/javascript"><![CDATA[
var edges = document.getElementsByTagName('g');
if (edges && edges.length) {
  for (var i=0;i<edges.length;i++) {
    if (edges[i].id.substr(0,4)=='edge') {
      edges[i].setAttribute('class','edge');
    }
  }
}
]]></script>
        <defs>
                <circle id="rim" cx="0" cy="0" r="7"/>
                <circle id="rim2" cx="0" cy="0" r="3.5"/>
                <g id="zoomPlus">
                        <use xlink:href="#rim" fill="#404040">
                                <set attributeName="fill" to="#808080" begin="zoomplus.mouseover" end="zoomplus.mouseout"/>
                        </use>
                        <path d="M-4,0h8M0,-4v8" fill="none" stroke="white" stroke-width="1.5" pointer-events="none"/>
                </g>
                <g id="zoomMin">
                        <use xlink:href="#rim" fill="#404040">
                                <set attributeName="fill" to="#808080" begin="zoomminus.mouseover" end="zoomminus.mouseout"/>
                        </use>
                        <path d="M-4,0h8" fill="none" stroke="white" stroke-width="1.5" pointer-events="none"/>
                </g>
                <g id="dirArrow">
                        <path fill="none" stroke="white" stroke-width="1.5" d="M0,-3.0v7 M-2.5,-0.5L0,-3.0L2.5,-0.5"/>
                </g>
               <g id="resetDef">
                       <use xlink:href="#rim2" fill="#404040">
                               <set attributeName="fill" to="#808080" begin="reset.mouseover" end="reset.mouseout"/>
                       </use>
               </g>
        </defs>

<script type="text/javascript">
var viewWidth = 1518;
var viewHeight = 364;
var sectionId = 'dynsection-0';
</script>
<script xlink:href="svgpan.js"/>
<svg id="graph" class="graph">
<g id="viewport">
<title>SDK::FTimeline</title>
<!-- Node1 -->
<g id="node1" class="node"><title>Node1</title>
<g id="a_node1"><a xlink:title=" ">
<polygon fill="#bfbfbf" stroke="black" points="699,-0.5 699,-57.5 784,-57.5 784,-0.5 699,-0.5"/>
<text text-anchor="middle" x="741.5" y="-45.5" font-family="Helvetica,sans-Serif" font-size="10.00">SDK::FTimeline</text>
<polyline fill="none" stroke="black" points="699,-38.5 784,-38.5 "/>
<text text-anchor="middle" x="741.5" y="-26.5" font-family="Helvetica,sans-Serif" font-size="10.00"> </text>
<polyline fill="none" stroke="black" points="699,-19.5 784,-19.5 "/>
<text text-anchor="middle" x="741.5" y="-7.5" font-family="Helvetica,sans-Serif" font-size="10.00"> </text>
</a>
</g>
</g>
<!-- Node2 -->
<g id="node2" class="node"><title>Node2</title>
<g id="a_node2"><a xlink:href="a25823.html" target="_top" xlink:title=" ">
<polygon fill="none" stroke="black" points="0,-133 0,-245 143,-245 143,-133 0,-133"/>
<text text-anchor="start" x="8" y="-233" font-family="Helvetica,sans-Serif" font-size="10.00">SDK::TArray&lt; struct</text>
<text text-anchor="middle" x="71.5" y="-222" font-family="Helvetica,sans-Serif" font-size="10.00"> SDK::FTimelineFloatTrack &gt;</text>
<polyline fill="none" stroke="black" points="0,-215 143,-215 "/>
<text text-anchor="middle" x="71.5" y="-203" font-family="Helvetica,sans-Serif" font-size="10.00"> </text>
<polyline fill="none" stroke="black" points="0,-196 143,-196 "/>
<text text-anchor="start" x="8" y="-184" font-family="Helvetica,sans-Serif" font-size="10.00">+ TArray()</text>
<text text-anchor="start" x="8" y="-173" font-family="Helvetica,sans-Serif" font-size="10.00">+ Num()</text>
<text text-anchor="start" x="8" y="-162" font-family="Helvetica,sans-Serif" font-size="10.00">+ operator[]()</text>
<text text-anchor="start" x="8" y="-151" font-family="Helvetica,sans-Serif" font-size="10.00">+ operator[]()</text>
<text text-anchor="start" x="8" y="-140" font-family="Helvetica,sans-Serif" font-size="10.00">+ IsValidIndex()</text>
</a>
</g>
</g>
<!-- Node2&#45;&gt;Node1 -->
<g id="edge1" class="edge"><title>Node2&#45;&gt;Node1</title>
<path fill="none" stroke="#404040" d="M109.909,-132.98C128.074,-111.403 151.677,-88.7879 178.5,-76 267.4,-33.6168 563.364,-29.4236 686.753,-29.5838"/>
<polygon fill="none" stroke="#404040" points="686.839,-29.5839 692.85,-25.5992 698.839,-29.6144 692.829,-33.5991 686.839,-29.5839"/>
<text text-anchor="middle" x="209" y="-90" font-family="Helvetica,sans-Serif" font-size="10.00"> +InterpFloats</text>
</g>
<!-- Node3 -->
<g id="node3" class="node"><title>Node3</title>
<g id="a_node3"><a xlink:href="a25839.html" target="_top" xlink:title=" ">
<polygon fill="none" stroke="red" points="161.5,-133 161.5,-245 267.5,-245 267.5,-133 161.5,-133"/>
<text text-anchor="middle" x="214.5" y="-233" font-family="Helvetica,sans-Serif" font-size="10.00">SDK::FName</text>
<polyline fill="none" stroke="red" points="161.5,-226 267.5,-226 "/>
<text text-anchor="middle" x="214.5" y="-214" font-family="Helvetica,sans-Serif" font-size="10.00"> </text>
<polyline fill="none" stroke="red" points="161.5,-207 267.5,-207 "/>
<text text-anchor="start" x="169.5" y="-195" font-family="Helvetica,sans-Serif" font-size="10.00">+ FName()</text>
<text text-anchor="start" x="169.5" y="-184" font-family="Helvetica,sans-Serif" font-size="10.00">+ FName()</text>
<text text-anchor="start" x="169.5" y="-173" font-family="Helvetica,sans-Serif" font-size="10.00">+ FName()</text>
<text text-anchor="start" x="169.5" y="-162" font-family="Helvetica,sans-Serif" font-size="10.00">+ GetName()</text>
<text text-anchor="start" x="169.5" y="-151" font-family="Helvetica,sans-Serif" font-size="10.00">+ operator==()</text>
<text text-anchor="start" x="169.5" y="-140" font-family="Helvetica,sans-Serif" font-size="10.00">+ GetGlobalNames()</text>
</a>
</g>
</g>
<!-- Node3&#45;&gt;Node1 -->
<g id="edge2" class="edge"><title>Node3&#45;&gt;Node1</title>
<path fill="none" stroke="#404040" d="M230.362,-132.863C239.291,-111.677 252.739,-89.3853 272.5,-76 306.158,-53.2012 570.262,-38.0758 686.688,-32.4515"/>
<polygon fill="none" stroke="#404040" points="686.822,-32.4452 692.625,-28.1645 698.808,-31.8746 693.005,-36.1554 686.822,-32.4452"/>
<text text-anchor="middle" x="327.5" y="-90" font-family="Helvetica,sans-Serif" font-size="10.00"> +DirectionPropertyName</text>
</g>
<!-- Node6 -->
<g id="node4" class="node"><title>Node6</title>
<g id="a_node4"><a xlink:href="a25847.html" target="_top" xlink:title=" ">
<polygon fill="none" stroke="black" points="285.5,-127.5 285.5,-250.5 451.5,-250.5 451.5,-127.5 285.5,-127.5"/>
<text text-anchor="start" x="293.5" y="-238.5" font-family="Helvetica,sans-Serif" font-size="10.00">SDK::TEnumAsByte&lt; ETimeline</text>
<text text-anchor="middle" x="368.5" y="-227.5" font-family="Helvetica,sans-Serif" font-size="10.00">LengthMode &gt;</text>
<polyline fill="none" stroke="black" points="285.5,-220.5 451.5,-220.5 "/>
<text text-anchor="middle" x="368.5" y="-208.5" font-family="Helvetica,sans-Serif" font-size="10.00"> </text>
<polyline fill="none" stroke="black" points="285.5,-201.5 451.5,-201.5 "/>
<text text-anchor="start" x="293.5" y="-189.5" font-family="Helvetica,sans-Serif" font-size="10.00">+ TEnumAsByte()</text>
<text text-anchor="start" x="293.5" y="-178.5" font-family="Helvetica,sans-Serif" font-size="10.00">+ TEnumAsByte()</text>
<text text-anchor="start" x="293.5" y="-167.5" font-family="Helvetica,sans-Serif" font-size="10.00">+ TEnumAsByte()</text>
<text text-anchor="start" x="293.5" y="-156.5" font-family="Helvetica,sans-Serif" font-size="10.00">+ TEnumAsByte()</text>
<text text-anchor="start" x="293.5" y="-145.5" font-family="Helvetica,sans-Serif" font-size="10.00">+ operator ETimelineLengthMode()</text>
<text text-anchor="start" x="293.5" y="-134.5" font-family="Helvetica,sans-Serif" font-size="10.00">+ GetValue()</text>
</a>
</g>
</g>
<!-- Node6&#45;&gt;Node1 -->
<g id="edge3" class="edge"><title>Node6&#45;&gt;Node1</title>
<path fill="none" stroke="#404040" d="M378.498,-127.499C384.633,-108.31 394.531,-88.7833 410.5,-76 452.019,-42.763 603.837,-33.5393 686.674,-30.9809"/>
<polygon fill="none" stroke="#404040" points="686.867,-30.9756 692.751,-26.808 698.862,-30.6373 692.977,-34.8049 686.867,-30.9756"/>
<text text-anchor="middle" x="442" y="-90" font-family="Helvetica,sans-Serif" font-size="10.00"> +LengthMode</text>
</g>
<!-- Node7 -->
<g id="node5" class="node"><title>Node7</title>
<g id="a_node5"><a xlink:href="a26195.html" target="_top" xlink:title=" ">
<polygon fill="none" stroke="red" points="593,-160.5 593,-217.5 700,-217.5 700,-160.5 593,-160.5"/>
<text text-anchor="middle" x="646.5" y="-205.5" font-family="Helvetica,sans-Serif" font-size="10.00">SDK::UByteProperty</text>
<polyline fill="none" stroke="red" points="593,-198.5 700,-198.5 "/>
<text text-anchor="middle" x="646.5" y="-186.5" font-family="Helvetica,sans-Serif" font-size="10.00"> </text>
<polyline fill="none" stroke="red" points="593,-179.5 700,-179.5 "/>
<text text-anchor="start" x="601" y="-167.5" font-family="Helvetica,sans-Serif" font-size="10.00">+ StaticClass()</text>
</a>
</g>
</g>
<!-- Node7&#45;&gt;Node1 -->
<g id="edge4" class="edge"><title>Node7&#45;&gt;Node1</title>
<path fill="none" stroke="#404040" d="M640.129,-160.375C636.16,-136.183 634.455,-101.075 650.5,-76 659.168,-62.4543 673.143,-52.7297 687.567,-45.82"/>
<polygon fill="none" stroke="#404040" points="687.583,-45.8134 691.512,-39.7668 698.605,-41.0682 694.676,-47.1147 687.583,-45.8134"/>
<text text-anchor="middle" x="693" y="-90" font-family="Helvetica,sans-Serif" font-size="10.00"> +DirectionProperty</text>
</g>
<!-- Node16 -->
<g id="node6" class="node"><title>Node16</title>
<g id="a_node6"><a xlink:title=" ">
<polygon fill="none" stroke="#bfbfbf" points="629,-298.5 629,-355.5 664,-355.5 664,-298.5 629,-298.5"/>
<text text-anchor="middle" x="646.5" y="-343.5" font-family="Helvetica,sans-Serif" font-size="10.00">char</text>
<polyline fill="none" stroke="#bfbfbf" points="629,-336.5 664,-336.5 "/>
<text text-anchor="middle" x="646.5" y="-324.5" font-family="Helvetica,sans-Serif" font-size="10.00"> </text>
<polyline fill="none" stroke="#bfbfbf" points="629,-317.5 664,-317.5 "/>
<text text-anchor="middle" x="646.5" y="-305.5" font-family="Helvetica,sans-Serif" font-size="10.00"> </text>
</a>
</g>
</g>
<!-- Node16&#45;&gt;Node1 -->
<g id="edge7" class="edge"><title>Node16&#45;&gt;Node1</title>
<path fill="none" stroke="#404040" d="M628.83,-323.246C595.933,-317.06 525.966,-298.677 496.5,-251 467.526,-204.12 465.523,-172.581 496.5,-127 538.991,-64.4768 628.709,-42.254 686.98,-34.3554"/>
<polygon fill="none" stroke="#404040" points="686.999,-34.353 692.462,-29.6458 698.908,-32.878 693.446,-37.5852 686.999,-34.353"/>
<text text-anchor="middle" x="540" y="-219.5" font-family="Helvetica,sans-Serif" font-size="10.00"> +UnknownData01</text>
<text text-anchor="middle" x="540" y="-208.5" font-family="Helvetica,sans-Serif" font-size="10.00">+bLooping</text>
<text text-anchor="middle" x="540" y="-197.5" font-family="Helvetica,sans-Serif" font-size="10.00">+UnknownData02</text>
<text text-anchor="middle" x="540" y="-186.5" font-family="Helvetica,sans-Serif" font-size="10.00">+UnknownData03</text>
<text text-anchor="middle" x="540" y="-175.5" font-family="Helvetica,sans-Serif" font-size="10.00">+bPlaying</text>
<text text-anchor="middle" x="540" y="-164.5" font-family="Helvetica,sans-Serif" font-size="10.00">+bReversePlayback</text>
<text text-anchor="middle" x="540" y="-153.5" font-family="Helvetica,sans-Serif" font-size="10.00">+UnknownData00</text>
</g>
<!-- Node16&#45;&gt;Node7 -->
<g id="edge5" class="edge"><title>Node16&#45;&gt;Node7</title>
<path fill="none" stroke="#404040" d="M646.5,-298.478C646.5,-278.792 646.5,-251.99 646.5,-229.953"/>
<polygon fill="none" stroke="#404040" points="646.5,-229.947 642.5,-223.948 646.5,-217.947 650.5,-223.947 646.5,-229.947"/>
<text text-anchor="middle" x="686.5" y="-272" font-family="Helvetica,sans-Serif" font-size="10.00"> +UnknownData00</text>
</g>
<!-- Node23 -->
<g id="node11" class="node"><title>Node23</title>
<g id="a_node11"><a xlink:href="a25863.html" target="_top" xlink:title=" ">
<polygon fill="none" stroke="black" points="718,-160.5 718,-217.5 831,-217.5 831,-160.5 718,-160.5"/>
<text text-anchor="middle" x="774.5" y="-205.5" font-family="Helvetica,sans-Serif" font-size="10.00">SDK::FScriptDelegate</text>
<polyline fill="none" stroke="black" points="718,-198.5 831,-198.5 "/>
<text text-anchor="middle" x="774.5" y="-186.5" font-family="Helvetica,sans-Serif" font-size="10.00"> </text>
<polyline fill="none" stroke="black" points="718,-179.5 831,-179.5 "/>
<text text-anchor="middle" x="774.5" y="-167.5" font-family="Helvetica,sans-Serif" font-size="10.00"> </text>
</a>
</g>
</g>
<!-- Node16&#45;&gt;Node23 -->
<g id="edge12" class="edge"><title>Node16&#45;&gt;Node23</title>
<path fill="none" stroke="#404040" d="M664.293,-319.959C682.848,-312.891 711.785,-299.602 730.5,-280 744.162,-265.691 754.37,-246.329 761.496,-229.229"/>
<polygon fill="none" stroke="#404040" points="761.577,-229.021 760.034,-221.977 765.942,-217.842 767.486,-224.886 761.577,-229.021"/>
<text text-anchor="middle" x="774.5" y="-272" font-family="Helvetica,sans-Serif" font-size="10.00"> +UnknownData</text>
</g>
<!-- Node18 -->
<g id="node7" class="node"><title>Node18</title>
<g id="a_node7"><a xlink:title=" ">
<polygon fill="none" stroke="#bfbfbf" points="849,-160.5 849,-217.5 884,-217.5 884,-160.5 849,-160.5"/>
<text text-anchor="middle" x="866.5" y="-205.5" font-family="Helvetica,sans-Serif" font-size="10.00">float</text>
<polyline fill="none" stroke="#bfbfbf" points="849,-198.5 884,-198.5 "/>
<text text-anchor="middle" x="866.5" y="-186.5" font-family="Helvetica,sans-Serif" font-size="10.00"> </text>
<polyline fill="none" stroke="#bfbfbf" points="849,-179.5 884,-179.5 "/>
<text text-anchor="middle" x="866.5" y="-167.5" font-family="Helvetica,sans-Serif" font-size="10.00"> </text>
</a>
</g>
</g>
<!-- Node18&#45;&gt;Node1 -->
<g id="edge6" class="edge"><title>Node18&#45;&gt;Node1</title>
<path fill="none" stroke="#404040" d="M871.859,-160.332C874.99,-135.778 875.361,-100.154 857.5,-76 842.978,-56.3618 818.75,-45.0991 796.181,-38.6437"/>
<polygon fill="none" stroke="#404040" points="795.869,-38.5645 789.068,-40.9631 784.239,-35.6082 791.039,-33.2096 795.869,-38.5645"/>
<text text-anchor="middle" x="894.5" y="-101" font-family="Helvetica,sans-Serif" font-size="10.00"> +Length</text>
<text text-anchor="middle" x="894.5" y="-90" font-family="Helvetica,sans-Serif" font-size="10.00">+PlayRate</text>
<text text-anchor="middle" x="894.5" y="-79" font-family="Helvetica,sans-Serif" font-size="10.00">+Position</text>
</g>
<!-- Node19 -->
<g id="node8" class="node"><title>Node19</title>
<g id="a_node8"><a xlink:href="a25879.html" target="_top" xlink:title=" ">
<polygon fill="none" stroke="red" points="902.5,-138.5 902.5,-239.5 1024.5,-239.5 1024.5,-138.5 902.5,-138.5"/>
<text text-anchor="start" x="910.5" y="-227.5" font-family="Helvetica,sans-Serif" font-size="10.00">SDK::TWeakObjectPtr</text>
<text text-anchor="middle" x="963.5" y="-216.5" font-family="Helvetica,sans-Serif" font-size="10.00">&lt; class SDK::UObject &gt;</text>
<polyline fill="none" stroke="red" points="902.5,-209.5 1024.5,-209.5 "/>
<text text-anchor="middle" x="963.5" y="-197.5" font-family="Helvetica,sans-Serif" font-size="10.00"> </text>
<polyline fill="none" stroke="red" points="902.5,-190.5 1024.5,-190.5 "/>
<text text-anchor="start" x="910.5" y="-178.5" font-family="Helvetica,sans-Serif" font-size="10.00">+ Get()</text>
<text text-anchor="start" x="910.5" y="-167.5" font-family="Helvetica,sans-Serif" font-size="10.00">+ operator*()</text>
<text text-anchor="start" x="910.5" y="-156.5" font-family="Helvetica,sans-Serif" font-size="10.00">+ operator&#45;&gt;()</text>
<text text-anchor="start" x="910.5" y="-145.5" font-family="Helvetica,sans-Serif" font-size="10.00">+ IsValid()</text>
</a>
</g>
</g>
<!-- Node19&#45;&gt;Node1 -->
<g id="edge8" class="edge"><title>Node19&#45;&gt;Node1</title>
<path fill="none" stroke="#404040" d="M955.569,-138.295C949.649,-116.377 939.356,-92.0151 921.5,-76 887.302,-45.3267 835.441,-34.5455 796.156,-31.0166"/>
<polygon fill="none" stroke="#404040" points="796.109,-31.0131 789.829,-34.558 784.142,-30.1248 790.421,-26.58 796.109,-31.0131"/>
<text text-anchor="middle" x="989.5" y="-90" font-family="Helvetica,sans-Serif" font-size="10.00"> +PropertySetObject</text>
</g>
<!-- Node21 -->
<g id="node9" class="node"><title>Node21</title>
<g id="a_node9"><a xlink:href="a25823.html" target="_top" xlink:title=" ">
<polygon fill="none" stroke="black" points="1043,-127.5 1043,-250.5 1180,-250.5 1180,-127.5 1043,-127.5"/>
<text text-anchor="start" x="1051" y="-238.5" font-family="Helvetica,sans-Serif" font-size="10.00">SDK::TArray&lt; struct</text>
<text text-anchor="start" x="1051" y="-227.5" font-family="Helvetica,sans-Serif" font-size="10.00"> SDK::FTimelineLinearColor</text>
<text text-anchor="middle" x="1111.5" y="-216.5" font-family="Helvetica,sans-Serif" font-size="10.00">Track &gt;</text>
<polyline fill="none" stroke="black" points="1043,-209.5 1180,-209.5 "/>
<text text-anchor="middle" x="1111.5" y="-197.5" font-family="Helvetica,sans-Serif" font-size="10.00"> </text>
<polyline fill="none" stroke="black" points="1043,-190.5 1180,-190.5 "/>
<text text-anchor="start" x="1051" y="-178.5" font-family="Helvetica,sans-Serif" font-size="10.00">+ TArray()</text>
<text text-anchor="start" x="1051" y="-167.5" font-family="Helvetica,sans-Serif" font-size="10.00">+ Num()</text>
<text text-anchor="start" x="1051" y="-156.5" font-family="Helvetica,sans-Serif" font-size="10.00">+ operator[]()</text>
<text text-anchor="start" x="1051" y="-145.5" font-family="Helvetica,sans-Serif" font-size="10.00">+ operator[]()</text>
<text text-anchor="start" x="1051" y="-134.5" font-family="Helvetica,sans-Serif" font-size="10.00">+ IsValidIndex()</text>
</a>
</g>
</g>
<!-- Node21&#45;&gt;Node1 -->
<g id="edge9" class="edge"><title>Node21&#45;&gt;Node1</title>
<path fill="none" stroke="#404040" d="M1084.59,-127.36C1073.09,-108.04 1057.8,-88.4656 1038.5,-76 999.5,-50.8137 871.205,-38.4154 796.606,-33.1966"/>
<polygon fill="none" stroke="#404040" points="796.199,-33.1692 789.943,-36.7565 784.226,-32.3619 790.481,-28.7746 796.199,-33.1692"/>
<text text-anchor="middle" x="1116.5" y="-90" font-family="Helvetica,sans-Serif" font-size="10.00"> +InterpLinearColors</text>
</g>
<!-- Node22 -->
<g id="node10" class="node"><title>Node22</title>
<g id="a_node10"><a xlink:href="a25823.html" target="_top" xlink:title=" ">
<polygon fill="none" stroke="black" points="1198,-133 1198,-245 1347,-245 1347,-133 1198,-133"/>
<text text-anchor="start" x="1206" y="-233" font-family="Helvetica,sans-Serif" font-size="10.00">SDK::TArray&lt; struct</text>
<text text-anchor="middle" x="1272.5" y="-222" font-family="Helvetica,sans-Serif" font-size="10.00"> SDK::FTimelineVectorTrack &gt;</text>
<polyline fill="none" stroke="black" points="1198,-215 1347,-215 "/>
<text text-anchor="middle" x="1272.5" y="-203" font-family="Helvetica,sans-Serif" font-size="10.00"> </text>
<polyline fill="none" stroke="black" points="1198,-196 1347,-196 "/>
<text text-anchor="start" x="1206" y="-184" font-family="Helvetica,sans-Serif" font-size="10.00">+ TArray()</text>
<text text-anchor="start" x="1206" y="-173" font-family="Helvetica,sans-Serif" font-size="10.00">+ Num()</text>
<text text-anchor="start" x="1206" y="-162" font-family="Helvetica,sans-Serif" font-size="10.00">+ operator[]()</text>
<text text-anchor="start" x="1206" y="-151" font-family="Helvetica,sans-Serif" font-size="10.00">+ operator[]()</text>
<text text-anchor="start" x="1206" y="-140" font-family="Helvetica,sans-Serif" font-size="10.00">+ IsValidIndex()</text>
</a>
</g>
</g>
<!-- Node22&#45;&gt;Node1 -->
<g id="edge10" class="edge"><title>Node22&#45;&gt;Node1</title>
<path fill="none" stroke="#404040" d="M1232.97,-132.739C1214.65,-111.397 1191.06,-89.0237 1164.5,-76 1100.98,-44.8468 895.677,-34.5598 796.343,-31.3549"/>
<polygon fill="none" stroke="#404040" points="796.192,-31.3504 790.072,-35.164 784.198,-30.9814 790.318,-27.1678 796.192,-31.3504"/>
<text text-anchor="middle" x="1243" y="-90" font-family="Helvetica,sans-Serif" font-size="10.00"> +InterpVectors</text>
</g>
<!-- Node23&#45;&gt;Node1 -->
<g id="edge11" class="edge"><title>Node23&#45;&gt;Node1</title>
<path fill="none" stroke="#404040" d="M760.306,-160.272C753.499,-145.469 746.065,-126.698 742.5,-109 739.961,-96.3941 739.147,-82.4263 739.136,-69.7847"/>
<polygon fill="none" stroke="#404040" points="739.138,-69.6826 735.249,-63.6103 739.358,-57.6847 743.247,-63.757 739.138,-69.6826"/>
<text text-anchor="middle" x="800" y="-95.5" font-family="Helvetica,sans-Serif" font-size="10.00"> +TimelineFinishedFunc</text>
<text text-anchor="middle" x="800" y="-84.5" font-family="Helvetica,sans-Serif" font-size="10.00">+TimelinePostUpdateFunc</text>
</g>
<!-- Node24 -->
<g id="node12" class="node"><title>Node24</title>
<g id="a_node12"><a xlink:href="a25823.html" target="_top" xlink:title=" ">
<polygon fill="none" stroke="black" points="1365.5,-133 1365.5,-245 1509.5,-245 1509.5,-133 1365.5,-133"/>
<text text-anchor="start" x="1373.5" y="-233" font-family="Helvetica,sans-Serif" font-size="10.00">SDK::TArray&lt; struct</text>
<text text-anchor="middle" x="1437.5" y="-222" font-family="Helvetica,sans-Serif" font-size="10.00"> SDK::FTimelineEventEntry &gt;</text>
<polyline fill="none" stroke="black" points="1365.5,-215 1509.5,-215 "/>
<text text-anchor="middle" x="1437.5" y="-203" font-family="Helvetica,sans-Serif" font-size="10.00"> </text>
<polyline fill="none" stroke="black" points="1365.5,-196 1509.5,-196 "/>
<text text-anchor="start" x="1373.5" y="-184" font-family="Helvetica,sans-Serif" font-size="10.00">+ TArray()</text>
<text text-anchor="start" x="1373.5" y="-173" font-family="Helvetica,sans-Serif" font-size="10.00">+ Num()</text>
<text text-anchor="start" x="1373.5" y="-162" font-family="Helvetica,sans-Serif" font-size="10.00">+ operator[]()</text>
<text text-anchor="start" x="1373.5" y="-151" font-family="Helvetica,sans-Serif" font-size="10.00">+ operator[]()</text>
<text text-anchor="start" x="1373.5" y="-140" font-family="Helvetica,sans-Serif" font-size="10.00">+ IsValidIndex()</text>
</a>
</g>
</g>
<!-- Node24&#45;&gt;Node1 -->
<g id="edge13" class="edge"><title>Node24&#45;&gt;Node1</title>
<path fill="none" stroke="#404040" d="M1377.16,-132.877C1349.69,-111.142 1315.52,-88.4345 1280.5,-76 1192.44,-44.7349 915.59,-34.2812 796.669,-31.176"/>
<polygon fill="none" stroke="#404040" points="796.312,-31.1671 790.213,-35.0149 784.316,-30.8652 790.414,-27.0174 796.312,-31.1671"/>
<text text-anchor="middle" x="1361" y="-90" font-family="Helvetica,sans-Serif" font-size="10.00"> +Events</text>
</g>
</g>
</svg>
        <g id="navigator" transform="translate(0 0)" fill="#404254">
                <rect fill="#f2f5e9" fill-opacity="0.5" stroke="#606060" stroke-width=".5" x="0" y="0" width="60" height="60"/>
                <use id="zoomplus" xlink:href="#zoomPlus" x="17" y="9" onmousedown="handleZoom(evt,'in')"/>
                <use id="zoomminus" xlink:href="#zoomMin" x="42" y="9" onmousedown="handleZoom(evt,'out')"/>
                <use id="reset" xlink:href="#resetDef" x="30" y="36" onmousedown="handleReset()"/>
                <g id="arrowUp" xlink:href="#dirArrow" transform="translate(30 24)" onmousedown="handlePan(0,-1)">
                  <use xlink:href="#rim" fill="#404040">
                        <set attributeName="fill" to="#808080" begin="arrowUp.mouseover" end="arrowUp.mouseout"/>
                  </use>
                  <path fill="none" stroke="white" stroke-width="1.5" d="M0,-3.0v7 M-2.5,-0.5L0,-3.0L2.5,-0.5"/>
                </g>
                <g id="arrowRight" xlink:href="#dirArrow" transform="rotate(90) translate(36 -43)" onmousedown="handlePan(1,0)">
                  <use xlink:href="#rim" fill="#404040">
                        <set attributeName="fill" to="#808080" begin="arrowRight.mouseover" end="arrowRight.mouseout"/>
                  </use>
                  <path fill="none" stroke="white" stroke-width="1.5" d="M0,-3.0v7 M-2.5,-0.5L0,-3.0L2.5,-0.5"/>
                </g>
                <g id="arrowDown" xlink:href="#dirArrow" transform="rotate(180) translate(-30 -48)" onmousedown="handlePan(0,1)">
                  <use xlink:href="#rim" fill="#404040">
                        <set attributeName="fill" to="#808080" begin="arrowDown.mouseover" end="arrowDown.mouseout"/>
                  </use>
                  <path fill="none" stroke="white" stroke-width="1.5" d="M0,-3.0v7 M-2.5,-0.5L0,-3.0L2.5,-0.5"/>
                </g>
                <g id="arrowLeft" xlink:href="#dirArrow" transform="rotate(270) translate(-36 17)" onmousedown="handlePan(-1,0)">
                  <use xlink:href="#rim" fill="#404040">
                        <set attributeName="fill" to="#808080" begin="arrowLeft.mouseover" end="arrowLeft.mouseout"/>
                  </use>
                  <path fill="none" stroke="white" stroke-width="1.5" d="M0,-3.0v7 M-2.5,-0.5L0,-3.0L2.5,-0.5"/>
                </g>
        </g>
        <svg viewBox="0 0 15 15" width="100%" height="30px" preserveAspectRatio="xMaxYMin meet">
         <g id="arrow_out" transform="scale(0.3 0.3)">
          <a xlink:href="a30777_org.svg" target="_base">
           <rect id="button" ry="5" rx="5" y="6" x="6" height="38" width="38"
                fill="#f2f5e9" fill-opacity="0.5" stroke="#606060" stroke-width="1.0"/>
           <path id="arrow"
             d="M 11.500037,31.436501 C 11.940474,20.09759 22.043105,11.32322 32.158766,21.979434 L 37.068811,17.246167 C 37.068811,17.246167 37.088388,32 37.088388,32 L 22.160133,31.978069 C 22.160133,31.978069 26.997745,27.140456 26.997745,27.140456 C 18.528582,18.264221 13.291696,25.230495 11.500037,31.436501 z"
             style="fill:#404040;"/>
          </a>
         </g>
        </svg>
</svg>
