<?xml version="1.0" encoding="UTF-8" standalone="no"?>
<!DOCTYPE svg PUBLIC "-//W3C//DTD SVG 1.1//EN"
 "http://www.w3.org/Graphics/SVG/1.1/DTD/svg11.dtd">
<!-- Generated by graphviz version 2.38.0 (20140413.2041)
 -->
<!-- Title: SDK::FScaleTrack Pages: 1 -->
<svg width="238pt" height="226pt"
 viewBox="0.00 0.00 238.00 226.00" xmlns="http://www.w3.org/2000/svg" xmlns:xlink="http://www.w3.org/1999/xlink">
<g id="graph0" class="graph" transform="scale(1 1) rotate(0) translate(4 222)">
<title>SDK::FScaleTrack</title>
<!-- Node1 -->
<g id="node1" class="node"><title>Node1</title>
<g id="a_node1"><a xlink:title=" ">
<polygon fill="#bfbfbf" stroke="black" points="65.5,-0.5 65.5,-57.5 163.5,-57.5 163.5,-0.5 65.5,-0.5"/>
<text text-anchor="middle" x="114.5" y="-45.5" font-family="Helvetica,sans-Serif" font-size="10.00">SDK::FScaleTrack</text>
<polyline fill="none" stroke="black" points="65.5,-38.5 163.5,-38.5 "/>
<text text-anchor="middle" x="114.5" y="-26.5" font-family="Helvetica,sans-Serif" font-size="10.00"> </text>
<polyline fill="none" stroke="black" points="65.5,-19.5 163.5,-19.5 "/>
<text text-anchor="middle" x="114.5" y="-7.5" font-family="Helvetica,sans-Serif" font-size="10.00"> </text>
</a>
</g>
</g>
<!-- Node2 -->
<g id="node2" class="node"><title>Node2</title>
<g id="a_node2"><a xlink:href="a25823.html" target="_top" xlink:title=" ">
<polygon fill="none" stroke="black" points="0,-105.5 0,-217.5 105,-217.5 105,-105.5 0,-105.5"/>
<text text-anchor="start" x="8" y="-205.5" font-family="Helvetica,sans-Serif" font-size="10.00">SDK::TArray&lt; struct</text>
<text text-anchor="middle" x="52.5" y="-194.5" font-family="Helvetica,sans-Serif" font-size="10.00"> SDK::FVector &gt;</text>
<polyline fill="none" stroke="black" points="0,-187.5 105,-187.5 "/>
<text text-anchor="middle" x="52.5" y="-175.5" font-family="Helvetica,sans-Serif" font-size="10.00"> </text>
<polyline fill="none" stroke="black" points="0,-168.5 105,-168.5 "/>
<text text-anchor="start" x="8" y="-156.5" font-family="Helvetica,sans-Serif" font-size="10.00">+ TArray()</text>
<text text-anchor="start" x="8" y="-145.5" font-family="Helvetica,sans-Serif" font-size="10.00">+ Num()</text>
<text text-anchor="start" x="8" y="-134.5" font-family="Helvetica,sans-Serif" font-size="10.00">+ operator[]()</text>
<text text-anchor="start" x="8" y="-123.5" font-family="Helvetica,sans-Serif" font-size="10.00">+ operator[]()</text>
<text text-anchor="start" x="8" y="-112.5" font-family="Helvetica,sans-Serif" font-size="10.00">+ IsValidIndex()</text>
</a>
</g>
</g>
<!-- Node2&#45;&gt;Node1 -->
<g id="edge1" class="edge"><title>Node2&#45;&gt;Node1</title>
<path fill="none" stroke="#404040" d="M78.7936,-105.156C84.6353,-92.8604 90.7053,-80.084 96.1476,-68.6288"/>
<polygon fill="none" stroke="#404040" points="96.1994,-68.5196 95.1613,-61.3836 101.349,-57.6807 102.387,-64.8167 96.1994,-68.5196"/>
<text text-anchor="middle" x="120" y="-79" font-family="Helvetica,sans-Serif" font-size="10.00"> +ScaleKeys</text>
</g>
<!-- Node3 -->
<g id="node3" class="node"><title>Node3</title>
<g id="a_node3"><a xlink:href="a25823.html" target="_top" xlink:title=" ">
<polygon fill="none" stroke="black" points="123,-111 123,-212 230,-212 230,-111 123,-111"/>
<text text-anchor="middle" x="176.5" y="-200" font-family="Helvetica,sans-Serif" font-size="10.00">SDK::TArray&lt; float &gt;</text>
<polyline fill="none" stroke="black" points="123,-193 230,-193 "/>
<text text-anchor="middle" x="176.5" y="-181" font-family="Helvetica,sans-Serif" font-size="10.00"> </text>
<polyline fill="none" stroke="black" points="123,-174 230,-174 "/>
<text text-anchor="start" x="131" y="-162" font-family="Helvetica,sans-Serif" font-size="10.00">+ TArray()</text>
<text text-anchor="start" x="131" y="-151" font-family="Helvetica,sans-Serif" font-size="10.00">+ Num()</text>
<text text-anchor="start" x="131" y="-140" font-family="Helvetica,sans-Serif" font-size="10.00">+ operator[]()</text>
<text text-anchor="start" x="131" y="-129" font-family="Helvetica,sans-Serif" font-size="10.00">+ operator[]()</text>
<text text-anchor="start" x="131" y="-118" font-family="Helvetica,sans-Serif" font-size="10.00">+ IsValidIndex()</text>
</a>
</g>
</g>
<!-- Node3&#45;&gt;Node1 -->
<g id="edge2" class="edge"><title>Node3&#45;&gt;Node1</title>
<path fill="none" stroke="#404040" d="M166.11,-110.914C162.644,-99.1037 158.173,-86.8013 152.5,-76 150.994,-73.1327 149.289,-70.2796 147.457,-67.4801"/>
<polygon fill="none" stroke="#404040" points="147.392,-67.3899 140.641,-64.8534 140.387,-57.6468 147.137,-60.1833 147.392,-67.3899"/>
<text text-anchor="middle" x="175.5" y="-79" font-family="Helvetica,sans-Serif" font-size="10.00"> +Times</text>
</g>
</g>
</svg>
