<?xml version="1.0" encoding="UTF-8" standalone="no"?>
<!DOCTYPE svg PUBLIC "-//W3C//DTD SVG 1.1//EN"
 "http://www.w3.org/Graphics/SVG/1.1/DTD/svg11.dtd">
<!-- Generated by graphviz version 2.38.0 (20140413.2041)
 -->
<!-- Title: SDK::FDominanceGroupPair Pages: 1 -->
<svg width="419pt" height="248pt"
 viewBox="0.00 0.00 419.00 248.00" xmlns="http://www.w3.org/2000/svg" xmlns:xlink="http://www.w3.org/1999/xlink">
<g id="graph0" class="graph" transform="scale(1 1) rotate(0) translate(4 244)">
<title>SDK::FDominanceGroupPair</title>
<!-- Node1 -->
<g id="node1" class="node"><title>Node1</title>
<g id="a_node1"><a xlink:title=" ">
<polygon fill="#bfbfbf" stroke="black" points="135.5,-0.5 135.5,-57.5 276.5,-57.5 276.5,-0.5 135.5,-0.5"/>
<text text-anchor="middle" x="206" y="-45.5" font-family="Helvetica,sans-Serif" font-size="10.00">SDK::FDominanceGroupPair</text>
<polyline fill="none" stroke="black" points="135.5,-38.5 276.5,-38.5 "/>
<text text-anchor="middle" x="206" y="-26.5" font-family="Helvetica,sans-Serif" font-size="10.00"> </text>
<polyline fill="none" stroke="black" points="135.5,-19.5 276.5,-19.5 "/>
<text text-anchor="middle" x="206" y="-7.5" font-family="Helvetica,sans-Serif" font-size="10.00"> </text>
</a>
</g>
</g>
<!-- Node2 -->
<g id="node2" class="node"><title>Node2</title>
<g id="a_node2"><a xlink:href="a25635.html" target="_top" xlink:title=" ">
<polygon fill="none" stroke="black" points="0,-116.5 0,-239.5 170,-239.5 170,-116.5 0,-116.5"/>
<text text-anchor="start" x="8" y="-227.5" font-family="Helvetica,sans-Serif" font-size="10.00">SDK::TEnumAsByte&lt; EDominance</text>
<text text-anchor="middle" x="85" y="-216.5" font-family="Helvetica,sans-Serif" font-size="10.00">Group &gt;</text>
<polyline fill="none" stroke="black" points="0,-209.5 170,-209.5 "/>
<text text-anchor="middle" x="85" y="-197.5" font-family="Helvetica,sans-Serif" font-size="10.00"> </text>
<polyline fill="none" stroke="black" points="0,-190.5 170,-190.5 "/>
<text text-anchor="start" x="8" y="-178.5" font-family="Helvetica,sans-Serif" font-size="10.00">+ TEnumAsByte()</text>
<text text-anchor="start" x="8" y="-167.5" font-family="Helvetica,sans-Serif" font-size="10.00">+ TEnumAsByte()</text>
<text text-anchor="start" x="8" y="-156.5" font-family="Helvetica,sans-Serif" font-size="10.00">+ TEnumAsByte()</text>
<text text-anchor="start" x="8" y="-145.5" font-family="Helvetica,sans-Serif" font-size="10.00">+ TEnumAsByte()</text>
<text text-anchor="start" x="8" y="-134.5" font-family="Helvetica,sans-Serif" font-size="10.00">+ operator EDominanceGroup()</text>
<text text-anchor="start" x="8" y="-123.5" font-family="Helvetica,sans-Serif" font-size="10.00">+ GetValue()</text>
</a>
</g>
</g>
<!-- Node2&#45;&gt;Node1 -->
<g id="edge1" class="edge"><title>Node2&#45;&gt;Node1</title>
<path fill="none" stroke="#404040" d="M102.047,-116.393C108.023,-102.082 115.862,-87.6229 126,-76 129.377,-72.129 133.162,-68.506 137.202,-65.1297"/>
<polygon fill="none" stroke="#404040" points="137.448,-64.9434 139.816,-58.1323 147.014,-57.6987 144.646,-64.5099 137.448,-64.9434"/>
<text text-anchor="middle" x="164" y="-90" font-family="Helvetica,sans-Serif" font-size="10.00"> +SecondGroupId</text>
<text text-anchor="middle" x="164" y="-79" font-family="Helvetica,sans-Serif" font-size="10.00">+FirstGroupId</text>
</g>
<!-- Node3 -->
<g id="node3" class="node"><title>Node3</title>
<g id="a_node3"><a xlink:title=" ">
<polygon fill="none" stroke="#bfbfbf" points="188.5,-149.5 188.5,-206.5 223.5,-206.5 223.5,-149.5 188.5,-149.5"/>
<text text-anchor="middle" x="206" y="-194.5" font-family="Helvetica,sans-Serif" font-size="10.00">char</text>
<polyline fill="none" stroke="#bfbfbf" points="188.5,-187.5 223.5,-187.5 "/>
<text text-anchor="middle" x="206" y="-175.5" font-family="Helvetica,sans-Serif" font-size="10.00"> </text>
<polyline fill="none" stroke="#bfbfbf" points="188.5,-168.5 223.5,-168.5 "/>
<text text-anchor="middle" x="206" y="-156.5" font-family="Helvetica,sans-Serif" font-size="10.00"> </text>
</a>
</g>
</g>
<!-- Node3&#45;&gt;Node1 -->
<g id="edge2" class="edge"><title>Node3&#45;&gt;Node1</title>
<path fill="none" stroke="#404040" d="M206,-149.35C206,-126.868 206,-94.8549 206,-69.6431"/>
<polygon fill="none" stroke="#404040" points="206,-69.5256 202,-63.5256 206,-57.5256 210,-63.5256 206,-69.5256"/>
<text text-anchor="middle" x="246" y="-84.5" font-family="Helvetica,sans-Serif" font-size="10.00"> +UnknownData00</text>
</g>
<!-- Node4 -->
<g id="node4" class="node"><title>Node4</title>
<g id="a_node4"><a xlink:title=" ">
<polygon fill="none" stroke="#bfbfbf" points="294.5,-149.5 294.5,-206.5 323.5,-206.5 323.5,-149.5 294.5,-149.5"/>
<text text-anchor="middle" x="309" y="-194.5" font-family="Helvetica,sans-Serif" font-size="10.00">int</text>
<polyline fill="none" stroke="#bfbfbf" points="294.5,-187.5 323.5,-187.5 "/>
<text text-anchor="middle" x="309" y="-175.5" font-family="Helvetica,sans-Serif" font-size="10.00"> </text>
<polyline fill="none" stroke="#bfbfbf" points="294.5,-168.5 323.5,-168.5 "/>
<text text-anchor="middle" x="309" y="-156.5" font-family="Helvetica,sans-Serif" font-size="10.00"> </text>
</a>
</g>
</g>
<!-- Node4&#45;&gt;Node1 -->
<g id="edge3" class="edge"><title>Node4&#45;&gt;Node1</title>
<path fill="none" stroke="#404040" d="M308.935,-149.217C307.569,-127.396 302.635,-97.2477 287,-76 284.169,-72.1534 280.914,-68.5822 277.37,-65.2739"/>
<polygon fill="none" stroke="#404040" points="277.301,-65.2173 270.127,-64.488 268.04,-57.5852 275.215,-58.3145 277.301,-65.2173"/>
<text text-anchor="middle" x="354.5" y="-90" font-family="Helvetica,sans-Serif" font-size="10.00"> +FirstDominanceValue</text>
<text text-anchor="middle" x="354.5" y="-79" font-family="Helvetica,sans-Serif" font-size="10.00">+SecondDominanceValue</text>
</g>
</g>
</svg>
