<?xml version="1.0" encoding="UTF-8" standalone="no"?>
<!DOCTYPE svg PUBLIC "-//W3C//DTD SVG 1.1//EN"
 "http://www.w3.org/Graphics/SVG/1.1/DTD/svg11.dtd">
<!-- Generated by graphviz version 2.38.0 (20140413.2041)
 -->
<!-- Title: SDK::FCollectionVectorParameter Pages: 1 -->
<svg width="284pt" height="215pt"
 viewBox="0.00 0.00 283.50 215.00" xmlns="http://www.w3.org/2000/svg" xmlns:xlink="http://www.w3.org/1999/xlink">
<g id="graph0" class="graph" transform="scale(1 1) rotate(0) translate(4 211)">
<title>SDK::FCollectionVectorParameter</title>
<!-- Node1 -->
<g id="node1" class="node"><title>Node1</title>
<g id="a_node1"><a xlink:title=" ">
<polygon fill="#bfbfbf" stroke="black" points="70,-0.5 70,-57.5 235,-57.5 235,-0.5 70,-0.5"/>
<text text-anchor="middle" x="152.5" y="-45.5" font-family="Helvetica,sans-Serif" font-size="10.00">SDK::FCollectionVectorParameter</text>
<polyline fill="none" stroke="black" points="70,-38.5 235,-38.5 "/>
<text text-anchor="middle" x="152.5" y="-26.5" font-family="Helvetica,sans-Serif" font-size="10.00"> </text>
<polyline fill="none" stroke="black" points="70,-19.5 235,-19.5 "/>
<text text-anchor="middle" x="152.5" y="-7.5" font-family="Helvetica,sans-Serif" font-size="10.00"> </text>
</a>
</g>
</g>
<!-- Node2 -->
<g id="node2" class="node"><title>Node2</title>
<g id="a_node2"><a xlink:href="a30991.html" target="_top" xlink:title=" ">
<polygon fill="none" stroke="red" points="0,-127.5 0,-184.5 159,-184.5 159,-127.5 0,-127.5"/>
<text text-anchor="middle" x="79.5" y="-172.5" font-family="Helvetica,sans-Serif" font-size="10.00">SDK::FCollectionParameterBase</text>
<polyline fill="none" stroke="red" points="0,-165.5 159,-165.5 "/>
<text text-anchor="middle" x="79.5" y="-153.5" font-family="Helvetica,sans-Serif" font-size="10.00"> </text>
<polyline fill="none" stroke="red" points="0,-146.5 159,-146.5 "/>
<text text-anchor="middle" x="79.5" y="-134.5" font-family="Helvetica,sans-Serif" font-size="10.00"> </text>
</a>
</g>
</g>
<!-- Node2&#45;&gt;Node1 -->
<g id="edge1" class="edge"><title>Node2&#45;&gt;Node1</title>
<path fill="none" stroke="midnightblue" d="M100.885,-118.382C112.217,-98.9773 125.91,-75.5304 136.344,-57.664"/>
<polygon fill="none" stroke="midnightblue" points="97.7218,-116.858 95.7011,-127.258 103.766,-120.388 97.7218,-116.858"/>
</g>
<!-- Node8 -->
<g id="node3" class="node"><title>Node8</title>
<g id="a_node3"><a xlink:href="a26119.html" target="_top" xlink:title=" ">
<polygon fill="none" stroke="red" points="177.5,-105.5 177.5,-206.5 275.5,-206.5 275.5,-105.5 177.5,-105.5"/>
<text text-anchor="middle" x="226.5" y="-194.5" font-family="Helvetica,sans-Serif" font-size="10.00">SDK::FLinearColor</text>
<polyline fill="none" stroke="red" points="177.5,-187.5 275.5,-187.5 "/>
<text text-anchor="middle" x="226.5" y="-175.5" font-family="Helvetica,sans-Serif" font-size="10.00"> </text>
<polyline fill="none" stroke="red" points="177.5,-168.5 275.5,-168.5 "/>
<text text-anchor="start" x="185.5" y="-156.5" font-family="Helvetica,sans-Serif" font-size="10.00">+ FLinearColor()</text>
<text text-anchor="start" x="185.5" y="-145.5" font-family="Helvetica,sans-Serif" font-size="10.00">+ FLinearColor()</text>
<text text-anchor="start" x="185.5" y="-134.5" font-family="Helvetica,sans-Serif" font-size="10.00">+ FLinearColor()</text>
<text text-anchor="start" x="185.5" y="-123.5" font-family="Helvetica,sans-Serif" font-size="10.00">+ operator!=()</text>
<text text-anchor="start" x="185.5" y="-112.5" font-family="Helvetica,sans-Serif" font-size="10.00">+ operator==()</text>
</a>
</g>
</g>
<!-- Node8&#45;&gt;Node1 -->
<g id="edge2" class="edge"><title>Node8&#45;&gt;Node1</title>
<path fill="none" stroke="#404040" d="M197.041,-105.238C189.696,-92.8315 181.938,-79.7263 174.991,-67.9909"/>
<polygon fill="none" stroke="#404040" points="174.987,-67.9841 168.488,-64.8588 168.874,-57.6579 175.372,-60.7833 174.987,-67.9841"/>
<text text-anchor="middle" x="217.5" y="-79" font-family="Helvetica,sans-Serif" font-size="10.00"> +DefaultValue</text>
</g>
</g>
</svg>
