<?xml version="1.0" encoding="UTF-8" standalone="no"?>
<!DOCTYPE svg PUBLIC "-//W3C//DTD SVG 1.1//EN"
 "http://www.w3.org/Graphics/SVG/1.1/DTD/svg11.dtd">
<!-- Generated by graphviz version 2.38.0 (20140413.2041)
 -->
<!-- Title: SDK::FRawDistributionFloat Pages: 1 -->
<svg width="331pt" height="182pt"
 viewBox="0.00 0.00 331.00 182.00" xmlns="http://www.w3.org/2000/svg" xmlns:xlink="http://www.w3.org/1999/xlink">
<g id="graph0" class="graph" transform="scale(1 1) rotate(0) translate(4 178)">
<title>SDK::FRawDistributionFloat</title>
<!-- Node1 -->
<g id="node1" class="node"><title>Node1</title>
<g id="a_node1"><a xlink:title=" ">
<polygon fill="#bfbfbf" stroke="black" points="125,-0.5 125,-57.5 263,-57.5 263,-0.5 125,-0.5"/>
<text text-anchor="middle" x="194" y="-45.5" font-family="Helvetica,sans-Serif" font-size="10.00">SDK::FRawDistributionFloat</text>
<polyline fill="none" stroke="black" points="125,-38.5 263,-38.5 "/>
<text text-anchor="middle" x="194" y="-26.5" font-family="Helvetica,sans-Serif" font-size="10.00"> </text>
<polyline fill="none" stroke="black" points="125,-19.5 263,-19.5 "/>
<text text-anchor="middle" x="194" y="-7.5" font-family="Helvetica,sans-Serif" font-size="10.00"> </text>
</a>
</g>
</g>
<!-- Node2 -->
<g id="node2" class="node"><title>Node2</title>
<g id="a_node2"><a xlink:href="a31015.html" target="_top" xlink:title=" ">
<polygon fill="none" stroke="red" points="0,-116.5 0,-173.5 116,-173.5 116,-116.5 0,-116.5"/>
<text text-anchor="middle" x="58" y="-161.5" font-family="Helvetica,sans-Serif" font-size="10.00">SDK::FRawDistribution</text>
<polyline fill="none" stroke="red" points="0,-154.5 116,-154.5 "/>
<text text-anchor="middle" x="58" y="-142.5" font-family="Helvetica,sans-Serif" font-size="10.00"> </text>
<polyline fill="none" stroke="red" points="0,-135.5 116,-135.5 "/>
<text text-anchor="middle" x="58" y="-123.5" font-family="Helvetica,sans-Serif" font-size="10.00"> </text>
</a>
</g>
</g>
<!-- Node2&#45;&gt;Node1 -->
<g id="edge1" class="edge"><title>Node2&#45;&gt;Node1</title>
<path fill="none" stroke="midnightblue" d="M98.6224,-109.949C118.508,-93.2803 142.143,-73.4685 160.91,-57.7372"/>
<polygon fill="none" stroke="midnightblue" points="96.3371,-107.297 90.9218,-116.404 100.834,-112.662 96.3371,-107.297"/>
</g>
<!-- Node7 -->
<g id="node3" class="node"><title>Node7</title>
<g id="a_node3"><a xlink:href="a27907.html" target="_top" xlink:title=" ">
<polygon fill="none" stroke="red" points="134,-116.5 134,-173.5 254,-173.5 254,-116.5 134,-116.5"/>
<text text-anchor="middle" x="194" y="-161.5" font-family="Helvetica,sans-Serif" font-size="10.00">SDK::UDistributionFloat</text>
<polyline fill="none" stroke="red" points="134,-154.5 254,-154.5 "/>
<text text-anchor="middle" x="194" y="-142.5" font-family="Helvetica,sans-Serif" font-size="10.00"> </text>
<polyline fill="none" stroke="red" points="134,-135.5 254,-135.5 "/>
<text text-anchor="start" x="142" y="-123.5" font-family="Helvetica,sans-Serif" font-size="10.00">+ StaticClass()</text>
</a>
</g>
</g>
<!-- Node7&#45;&gt;Node1 -->
<g id="edge2" class="edge"><title>Node7&#45;&gt;Node1</title>
<path fill="none" stroke="#404040" d="M194,-116.404C194,-102.504 194,-85.3915 194,-70.073"/>
<polygon fill="none" stroke="#404040" points="194,-69.7372 190,-63.7372 194,-57.7372 198,-63.7372 194,-69.7372"/>
<text text-anchor="middle" x="223" y="-84.5" font-family="Helvetica,sans-Serif" font-size="10.00"> +Distribution</text>
</g>
<!-- Node4 -->
<g id="node4" class="node"><title>Node4</title>
<g id="a_node4"><a xlink:title=" ">
<polygon fill="none" stroke="#bfbfbf" points="272.5,-116.5 272.5,-173.5 307.5,-173.5 307.5,-116.5 272.5,-116.5"/>
<text text-anchor="middle" x="290" y="-161.5" font-family="Helvetica,sans-Serif" font-size="10.00">float</text>
<polyline fill="none" stroke="#bfbfbf" points="272.5,-154.5 307.5,-154.5 "/>
<text text-anchor="middle" x="290" y="-142.5" font-family="Helvetica,sans-Serif" font-size="10.00"> </text>
<polyline fill="none" stroke="#bfbfbf" points="272.5,-135.5 307.5,-135.5 "/>
<text text-anchor="middle" x="290" y="-123.5" font-family="Helvetica,sans-Serif" font-size="10.00"> </text>
</a>
</g>
</g>
<!-- Node4&#45;&gt;Node1 -->
<g id="edge3" class="edge"><title>Node4&#45;&gt;Node1</title>
<path fill="none" stroke="#404040" d="M279.739,-116.425C274.016,-103.311 266.01,-87.9317 256,-76 252.985,-72.4062 249.635,-68.9353 246.099,-65.6208"/>
<polygon fill="none" stroke="#404040" points="246.068,-65.5934 238.915,-64.6779 237.009,-57.7232 244.162,-58.6387 246.068,-65.5934"/>
<text text-anchor="middle" x="296.5" y="-90" font-family="Helvetica,sans-Serif" font-size="10.00"> +MaxValue</text>
<text text-anchor="middle" x="296.5" y="-79" font-family="Helvetica,sans-Serif" font-size="10.00">+MinValue</text>
</g>
</g>
</svg>
