<?xml version="1.0" encoding="UTF-8" standalone="no"?>
<!DOCTYPE svg PUBLIC "-//W3C//DTD SVG 1.1//EN"
 "http://www.w3.org/Graphics/SVG/1.1/DTD/svg11.dtd">
<!-- Generated by graphviz version 2.38.0 (20140413.2041)
 -->
<!-- Title: SDK::FNetActorPtr Pages: 1 -->
<svg width="113pt" height="171pt"
 viewBox="0.00 0.00 113.00 171.00" xmlns="http://www.w3.org/2000/svg" xmlns:xlink="http://www.w3.org/1999/xlink">
<g id="graph0" class="graph" transform="scale(1 1) rotate(0) translate(4 167)">
<title>SDK::FNetActorPtr</title>
<!-- Node1 -->
<g id="node1" class="node"><title>Node1</title>
<g id="a_node1"><a xlink:title=" ">
<polygon fill="#bfbfbf" stroke="black" points="2.5,-0.5 2.5,-57.5 102.5,-57.5 102.5,-0.5 2.5,-0.5"/>
<text text-anchor="middle" x="52.5" y="-45.5" font-family="Helvetica,sans-Serif" font-size="10.00">SDK::FNetActorPtr</text>
<polyline fill="none" stroke="black" points="2.5,-38.5 102.5,-38.5 "/>
<text text-anchor="middle" x="52.5" y="-26.5" font-family="Helvetica,sans-Serif" font-size="10.00"> </text>
<polyline fill="none" stroke="black" points="2.5,-19.5 102.5,-19.5 "/>
<text text-anchor="middle" x="52.5" y="-7.5" font-family="Helvetica,sans-Serif" font-size="10.00"> </text>
</a>
</g>
</g>
<!-- Node2 -->
<g id="node2" class="node"><title>Node2</title>
<g id="a_node2"><a xlink:href="a31227.html" target="_top" xlink:title=" ">
<polygon fill="none" stroke="red" points="0,-105.5 0,-162.5 105,-162.5 105,-105.5 0,-105.5"/>
<text text-anchor="middle" x="52.5" y="-150.5" font-family="Helvetica,sans-Serif" font-size="10.00">SDK::FNetObjectPtr</text>
<polyline fill="none" stroke="red" points="0,-143.5 105,-143.5 "/>
<text text-anchor="middle" x="52.5" y="-131.5" font-family="Helvetica,sans-Serif" font-size="10.00"> </text>
<polyline fill="none" stroke="red" points="0,-124.5 105,-124.5 "/>
<text text-anchor="middle" x="52.5" y="-112.5" font-family="Helvetica,sans-Serif" font-size="10.00"> </text>
</a>
</g>
</g>
<!-- Node2&#45;&gt;Node1 -->
<g id="edge1" class="edge"><title>Node2&#45;&gt;Node1</title>
<path fill="none" stroke="#404040" d="M52.5,-105.398C52.5,-94.5451 52.5,-81.8731 52.5,-70.0493"/>
<polygon fill="none" stroke="#404040" points="52.5001,-69.6783 48.5,-63.6783 52.5,-57.6783 56.5,-63.6783 52.5001,-69.6783"/>
<text text-anchor="middle" x="78" y="-79" font-family="Helvetica,sans-Serif" font-size="10.00"> +ObjectPtr</text>
</g>
</g>
</svg>
