<?xml version="1.0" encoding="UTF-8" standalone="no"?>
<!DOCTYPE svg PUBLIC "-//W3C//DTD SVG 1.1//EN"
 "http://www.w3.org/Graphics/SVG/1.1/DTD/svg11.dtd">
<!-- Generated by graphviz version 2.38.0 (20140413.2041)
 -->
<!-- Title: SDK::FComponentReference Pages: 1 -->
<svg width="518pt" height="683pt"
 viewBox="0.00 0.00 517.89 683.00" xmlns="http://www.w3.org/2000/svg" xmlns:xlink="http://www.w3.org/1999/xlink">
<g id="graph0" class="graph" transform="scale(1 1) rotate(0) translate(4 679)">
<title>SDK::FComponentReference</title>
<!-- Node1 -->
<g id="node1" class="node"><title>Node1</title>
<g id="a_node1"><a xlink:title=" ">
<polygon fill="#bfbfbf" stroke="black" points="167.886,-0.5 167.886,-57.5 309.886,-57.5 309.886,-0.5 167.886,-0.5"/>
<text text-anchor="middle" x="238.886" y="-45.5" font-family="Helvetica,sans-Serif" font-size="10.00">SDK::FComponentReference</text>
<polyline fill="none" stroke="black" points="167.886,-38.5 309.886,-38.5 "/>
<text text-anchor="middle" x="238.886" y="-26.5" font-family="Helvetica,sans-Serif" font-size="10.00"> </text>
<polyline fill="none" stroke="black" points="167.886,-19.5 309.886,-19.5 "/>
<text text-anchor="middle" x="238.886" y="-7.5" font-family="Helvetica,sans-Serif" font-size="10.00"> </text>
</a>
</g>
</g>
<!-- Node2 -->
<g id="node2" class="node"><title>Node2</title>
<g id="a_node2"><a xlink:href="a25627.html" target="_top" xlink:title=" ">
<polygon fill="none" stroke="red" points="28.8861,-562.5 28.8861,-674.5 134.886,-674.5 134.886,-562.5 28.8861,-562.5"/>
<text text-anchor="middle" x="81.8861" y="-662.5" font-family="Helvetica,sans-Serif" font-size="10.00">SDK::FName</text>
<polyline fill="none" stroke="red" points="28.8861,-655.5 134.886,-655.5 "/>
<text text-anchor="middle" x="81.8861" y="-643.5" font-family="Helvetica,sans-Serif" font-size="10.00"> </text>
<polyline fill="none" stroke="red" points="28.8861,-636.5 134.886,-636.5 "/>
<text text-anchor="start" x="36.8861" y="-624.5" font-family="Helvetica,sans-Serif" font-size="10.00">+ FName()</text>
<text text-anchor="start" x="36.8861" y="-613.5" font-family="Helvetica,sans-Serif" font-size="10.00">+ FName()</text>
<text text-anchor="start" x="36.8861" y="-602.5" font-family="Helvetica,sans-Serif" font-size="10.00">+ FName()</text>
<text text-anchor="start" x="36.8861" y="-591.5" font-family="Helvetica,sans-Serif" font-size="10.00">+ GetName()</text>
<text text-anchor="start" x="36.8861" y="-580.5" font-family="Helvetica,sans-Serif" font-size="10.00">+ operator==()</text>
<text text-anchor="start" x="36.8861" y="-569.5" font-family="Helvetica,sans-Serif" font-size="10.00">+ GetGlobalNames()</text>
</a>
</g>
</g>
<!-- Node2&#45;&gt;Node1 -->
<g id="edge1" class="edge"><title>Node2&#45;&gt;Node1</title>
<path fill="none" stroke="#404040" d="M58.2448,-562.403C19.1249,-461.821 -45.7678,-245.868 49.8861,-105 73.7503,-69.8557 116.941,-51.1795 156.015,-41.2548"/>
<polygon fill="none" stroke="#404040" points="156.032,-41.251 160.957,-35.9844 167.713,-38.5056 162.788,-43.7722 156.032,-41.251"/>
<text text-anchor="middle" x="97.8861" y="-252.5" font-family="Helvetica,sans-Serif" font-size="10.00"> +ComponentProperty</text>
</g>
<!-- Node6 -->
<g id="node4" class="node"><title>Node6</title>
<g id="a_node4"><a xlink:href="a26343.html" target="_top" xlink:title=" ">
<polygon fill="none" stroke="red" points="155.386,-105.5 155.386,-404.5 322.386,-404.5 322.386,-105.5 155.386,-105.5"/>
<text text-anchor="middle" x="238.886" y="-392.5" font-family="Helvetica,sans-Serif" font-size="10.00">SDK::AActor</text>
<polyline fill="none" stroke="red" points="155.386,-385.5 322.386,-385.5 "/>
<text text-anchor="start" x="163.386" y="-373.5" font-family="Helvetica,sans-Serif" font-size="10.00">+ bAllowRemovalFromServerWhen</text>
<text text-anchor="start" x="163.386" y="-362.5" font-family="Helvetica,sans-Serif" font-size="10.00">CollisionMerged</text>
<text text-anchor="start" x="163.386" y="-351.5" font-family="Helvetica,sans-Serif" font-size="10.00">+ bHidden</text>
<text text-anchor="start" x="163.386" y="-340.5" font-family="Helvetica,sans-Serif" font-size="10.00">+ bNetStartup</text>
<text text-anchor="start" x="163.386" y="-329.5" font-family="Helvetica,sans-Serif" font-size="10.00">+ bOnlyRelevantToOwner</text>
<text text-anchor="start" x="163.386" y="-318.5" font-family="Helvetica,sans-Serif" font-size="10.00">+ bAlwaysRelevant</text>
<text text-anchor="start" x="163.386" y="-307.5" font-family="Helvetica,sans-Serif" font-size="10.00">+ bReplicateMovement</text>
<text text-anchor="start" x="163.386" y="-296.5" font-family="Helvetica,sans-Serif" font-size="10.00">+ bExchangedRoles</text>
<text text-anchor="start" x="163.386" y="-285.5" font-family="Helvetica,sans-Serif" font-size="10.00">+ bNetLoadOnClient</text>
<text text-anchor="start" x="163.386" y="-274.5" font-family="Helvetica,sans-Serif" font-size="10.00">+ bBlockInput</text>
<text text-anchor="start" x="163.386" y="-263.5" font-family="Helvetica,sans-Serif" font-size="10.00">+ UnknownData00</text>
<text text-anchor="start" x="163.386" y="-252.5" font-family="Helvetica,sans-Serif" font-size="10.00">and 26 more...</text>
<polyline fill="none" stroke="red" points="155.386,-245.5 322.386,-245.5 "/>
<text text-anchor="start" x="163.386" y="-233.5" font-family="Helvetica,sans-Serif" font-size="10.00">+ UserConstructionScript()</text>
<text text-anchor="start" x="163.386" y="-222.5" font-family="Helvetica,sans-Serif" font-size="10.00">+ TearOff()</text>
<text text-anchor="start" x="163.386" y="-211.5" font-family="Helvetica,sans-Serif" font-size="10.00">+ SnapRootComponentTo()</text>
<text text-anchor="start" x="163.386" y="-200.5" font-family="Helvetica,sans-Serif" font-size="10.00">+ SetTickGroup()</text>
<text text-anchor="start" x="163.386" y="-189.5" font-family="Helvetica,sans-Serif" font-size="10.00">+ SetTickableWhenPaused()</text>
<text text-anchor="start" x="163.386" y="-178.5" font-family="Helvetica,sans-Serif" font-size="10.00">+ SetReplicates()</text>
<text text-anchor="start" x="163.386" y="-167.5" font-family="Helvetica,sans-Serif" font-size="10.00">+ SetReplicateMovement()</text>
<text text-anchor="start" x="163.386" y="-156.5" font-family="Helvetica,sans-Serif" font-size="10.00">+ SetOwner()</text>
<text text-anchor="start" x="163.386" y="-145.5" font-family="Helvetica,sans-Serif" font-size="10.00">+ SetLifeSpan()</text>
<text text-anchor="start" x="163.386" y="-134.5" font-family="Helvetica,sans-Serif" font-size="10.00">+ SetIgnoreNetTransformUpdates()</text>
<text text-anchor="start" x="163.386" y="-123.5" font-family="Helvetica,sans-Serif" font-size="10.00">and 109 more...</text>
<text text-anchor="start" x="163.386" y="-112.5" font-family="Helvetica,sans-Serif" font-size="10.00">+ StaticClass()</text>
</a>
</g>
</g>
<!-- Node2&#45;&gt;Node6 -->
<g id="edge4" class="edge"><title>Node2&#45;&gt;Node6</title>
<path fill="none" stroke="#404040" d="M103.863,-562.329C119.604,-523.25 141.531,-469.69 161.886,-423 162.908,-420.656 163.941,-418.296 164.984,-415.922"/>
<polygon fill="none" stroke="#404040" points="165.08,-415.704 163.845,-408.6 169.929,-404.727 171.163,-411.832 165.08,-415.704"/>
<text text-anchor="middle" x="198.886" y="-486.5" font-family="Helvetica,sans-Serif" font-size="10.00"> +NetDriverName</text>
<text text-anchor="middle" x="198.886" y="-475.5" font-family="Helvetica,sans-Serif" font-size="10.00">+Feature</text>
</g>
<!-- Node5 -->
<g id="node3" class="node"><title>Node5</title>
<g id="a_node3"><a xlink:title=" ">
<polygon fill="none" stroke="#bfbfbf" points="315.386,-590 315.386,-647 350.386,-647 350.386,-590 315.386,-590"/>
<text text-anchor="middle" x="332.886" y="-635" font-family="Helvetica,sans-Serif" font-size="10.00">char</text>
<polyline fill="none" stroke="#bfbfbf" points="315.386,-628 350.386,-628 "/>
<text text-anchor="middle" x="332.886" y="-616" font-family="Helvetica,sans-Serif" font-size="10.00"> </text>
<polyline fill="none" stroke="#bfbfbf" points="315.386,-609 350.386,-609 "/>
<text text-anchor="middle" x="332.886" y="-597" font-family="Helvetica,sans-Serif" font-size="10.00"> </text>
</a>
</g>
</g>
<!-- Node5&#45;&gt;Node1 -->
<g id="edge2" class="edge"><title>Node5&#45;&gt;Node1</title>
<path fill="none" stroke="#404040" d="M350.492,-604.617C366.819,-591.474 390.031,-569.439 399.886,-544 432.193,-460.602 449.843,-204.451 385.886,-105 370.834,-81.5947 346.044,-65.1535 321.071,-53.7611"/>
<polygon fill="none" stroke="#404040" points="321.037,-53.7467 313.948,-55.0658 310.003,-49.029 317.093,-47.7099 321.037,-53.7467"/>
<text text-anchor="middle" x="469.886" y="-252.5" font-family="Helvetica,sans-Serif" font-size="10.00"> +UnknownData00</text>
</g>
<!-- Node5&#45;&gt;Node6 -->
<g id="edge5" class="edge"><title>Node5&#45;&gt;Node6</title>
<path fill="none" stroke="#404040" d="M315.158,-603.24C299.784,-589.751 278.396,-568.036 267.886,-544 250.679,-504.649 241.728,-459.474 237.44,-416.749"/>
<polygon fill="none" stroke="#404040" points="237.437,-416.721 232.911,-411.108 236.351,-404.77 240.878,-410.384 237.437,-416.721"/>
<text text-anchor="middle" x="333.886" y="-536" font-family="Helvetica,sans-Serif" font-size="10.00"> +bEnableAutoLODGeneration</text>
<text text-anchor="middle" x="333.886" y="-525" font-family="Helvetica,sans-Serif" font-size="10.00">+UnknownData01</text>
<text text-anchor="middle" x="333.886" y="-514" font-family="Helvetica,sans-Serif" font-size="10.00">+bNetUseOwnerRelevancy</text>
<text text-anchor="middle" x="333.886" y="-503" font-family="Helvetica,sans-Serif" font-size="10.00">+bTearOff</text>
<text text-anchor="middle" x="333.886" y="-492" font-family="Helvetica,sans-Serif" font-size="10.00">+bNetTemporary</text>
<text text-anchor="middle" x="333.886" y="-481" font-family="Helvetica,sans-Serif" font-size="10.00">+UnknownData02</text>
<text text-anchor="middle" x="333.886" y="-470" font-family="Helvetica,sans-Serif" font-size="10.00">+bCanBeInCluster</text>
<text text-anchor="middle" x="333.886" y="-459" font-family="Helvetica,sans-Serif" font-size="10.00">+bPendingNetUpdate</text>
<text text-anchor="middle" x="333.886" y="-448" font-family="Helvetica,sans-Serif" font-size="10.00">+UnknownData10</text>
<text text-anchor="middle" x="333.886" y="-437" font-family="Helvetica,sans-Serif" font-size="10.00">+UnknownData03</text>
<text text-anchor="middle" x="333.886" y="-426" font-family="Helvetica,sans-Serif" font-size="10.00">...</text>
</g>
<!-- Node6&#45;&gt;Node1 -->
<g id="edge3" class="edge"><title>Node6&#45;&gt;Node1</title>
<path fill="none" stroke="#404040" d="M238.886,-105.212C238.886,-92.4583 238.886,-80.4206 238.886,-69.8694"/>
<polygon fill="none" stroke="#404040" points="238.886,-69.7882 234.886,-63.7883 238.886,-57.7882 242.886,-63.7882 238.886,-69.7882"/>
<text text-anchor="middle" x="267.386" y="-79" font-family="Helvetica,sans-Serif" font-size="10.00"> +OtherActor</text>
</g>
<!-- Node6&#45;&gt;Node6 -->
<g id="edge6" class="edge"><title>Node6&#45;&gt;Node6</title>
<path fill="none" stroke="#404040" d="M322.506,-283.264C333.273,-278.363 340.386,-268.941 340.386,-255 340.386,-246.069 337.467,-238.993 332.538,-233.771"/>
<polygon fill="none" stroke="#404040" points="332.331,-233.626 325.122,-233.456 322.506,-226.736 329.716,-226.906 332.331,-233.626"/>
<text text-anchor="middle" x="358.886" y="-252.5" font-family="Helvetica,sans-Serif" font-size="10.00"> +Owner</text>
</g>
</g>
</svg>
