<?xml version="1.0" encoding="UTF-8" standalone="no"?>
<!DOCTYPE svg PUBLIC "-//W3C//DTD SVG 1.1//EN"
 "http://www.w3.org/Graphics/SVG/1.1/DTD/svg11.dtd">
<!-- Generated by graphviz version 2.38.0 (20140413.2041)
 -->
<!-- Title: SDK::FPlatformInterfaceDelegateResult Pages: 1 -->
<svg width="302pt" height="298pt"
 viewBox="0.00 0.00 302.08 298.00" xmlns="http://www.w3.org/2000/svg" xmlns:xlink="http://www.w3.org/1999/xlink">
<g id="graph0" class="graph" transform="scale(1 1) rotate(0) translate(4 294)">
<title>SDK::FPlatformInterfaceDelegateResult</title>
<!-- Node1 -->
<g id="node1" class="node"><title>Node1</title>
<g id="a_node1"><a xlink:title=" ">
<polygon fill="#bfbfbf" stroke="black" points="89.5784,-0.5 89.5784,-68.5 249.578,-68.5 249.578,-0.5 89.5784,-0.5"/>
<text text-anchor="start" x="97.5784" y="-56.5" font-family="Helvetica,sans-Serif" font-size="10.00">SDK::FPlatformInterfaceDelegate</text>
<text text-anchor="middle" x="169.578" y="-45.5" font-family="Helvetica,sans-Serif" font-size="10.00">Result</text>
<polyline fill="none" stroke="black" points="89.5784,-38.5 249.578,-38.5 "/>
<text text-anchor="middle" x="169.578" y="-26.5" font-family="Helvetica,sans-Serif" font-size="10.00"> </text>
<polyline fill="none" stroke="black" points="89.5784,-19.5 249.578,-19.5 "/>
<text text-anchor="middle" x="169.578" y="-7.5" font-family="Helvetica,sans-Serif" font-size="10.00"> </text>
</a>
</g>
</g>
<!-- Node2 -->
<g id="node2" class="node"><title>Node2</title>
<g id="a_node2"><a xlink:href="a31211.html" target="_top" xlink:title=" ">
<polygon fill="none" stroke="red" points="98.5784,-116.5 98.5784,-173.5 240.578,-173.5 240.578,-116.5 98.5784,-116.5"/>
<text text-anchor="middle" x="169.578" y="-161.5" font-family="Helvetica,sans-Serif" font-size="10.00">SDK::FPlatformInterfaceData</text>
<polyline fill="none" stroke="red" points="98.5784,-154.5 240.578,-154.5 "/>
<text text-anchor="middle" x="169.578" y="-142.5" font-family="Helvetica,sans-Serif" font-size="10.00"> </text>
<polyline fill="none" stroke="red" points="98.5784,-135.5 240.578,-135.5 "/>
<text text-anchor="middle" x="169.578" y="-123.5" font-family="Helvetica,sans-Serif" font-size="10.00"> </text>
</a>
</g>
</g>
<!-- Node2&#45;&gt;Node1 -->
<g id="edge1" class="edge"><title>Node2&#45;&gt;Node1</title>
<path fill="none" stroke="#404040" d="M169.578,-116.34C169.578,-105.529 169.578,-92.847 169.578,-80.7745"/>
<polygon fill="none" stroke="#404040" points="169.578,-80.5186 165.578,-74.5186 169.578,-68.5186 173.578,-74.5185 169.578,-80.5186"/>
<text text-anchor="middle" x="184.578" y="-90" font-family="Helvetica,sans-Serif" font-size="10.00"> +Data</text>
</g>
<!-- Node12 -->
<g id="node3" class="node"><title>Node12</title>
<g id="a_node3"><a xlink:title=" ">
<polygon fill="none" stroke="#bfbfbf" points="33.0784,-232.5 33.0784,-289.5 68.0784,-289.5 68.0784,-232.5 33.0784,-232.5"/>
<text text-anchor="middle" x="50.5784" y="-277.5" font-family="Helvetica,sans-Serif" font-size="10.00">char</text>
<polyline fill="none" stroke="#bfbfbf" points="33.0784,-270.5 68.0784,-270.5 "/>
<text text-anchor="middle" x="50.5784" y="-258.5" font-family="Helvetica,sans-Serif" font-size="10.00"> </text>
<polyline fill="none" stroke="#bfbfbf" points="33.0784,-251.5 68.0784,-251.5 "/>
<text text-anchor="middle" x="50.5784" y="-239.5" font-family="Helvetica,sans-Serif" font-size="10.00"> </text>
</a>
</g>
</g>
<!-- Node12&#45;&gt;Node1 -->
<g id="edge3" class="edge"><title>Node12&#45;&gt;Node1</title>
<path fill="none" stroke="#404040" d="M33.0032,-236.477C13.0032,-206.586 -14.0154,-154.282 9.57839,-116 25.2081,-90.6399 51.5465,-72.987 78.3901,-60.8244"/>
<polygon fill="none" stroke="#404040" points="78.4449,-60.8011 82.4005,-54.7717 89.4874,-56.1041 85.5319,-62.1335 78.4449,-60.8011"/>
<text text-anchor="middle" x="49.5784" y="-142.5" font-family="Helvetica,sans-Serif" font-size="10.00"> +UnknownData00</text>
</g>
<!-- Node12&#45;&gt;Node2 -->
<g id="edge2" class="edge"><title>Node12&#45;&gt;Node2</title>
<path fill="none" stroke="#404040" d="M68.1372,-243.179C84.8821,-227.138 110.644,-202.458 132.015,-181.985"/>
<polygon fill="none" stroke="#404040" points="132.201,-181.807 133.767,-174.768 140.867,-173.505 139.301,-180.544 132.201,-181.807"/>
<text text-anchor="middle" x="161.578" y="-206" font-family="Helvetica,sans-Serif" font-size="10.00"> +UnknownData01</text>
<text text-anchor="middle" x="161.578" y="-195" font-family="Helvetica,sans-Serif" font-size="10.00">+UnknownData00</text>
</g>
<!-- Node19 -->
<g id="node4" class="node"><title>Node19</title>
<g id="a_node4"><a xlink:title=" ">
<polygon fill="none" stroke="#bfbfbf" points="259.078,-116.5 259.078,-173.5 294.078,-173.5 294.078,-116.5 259.078,-116.5"/>
<text text-anchor="middle" x="276.578" y="-161.5" font-family="Helvetica,sans-Serif" font-size="10.00">bool</text>
<polyline fill="none" stroke="#bfbfbf" points="259.078,-154.5 294.078,-154.5 "/>
<text text-anchor="middle" x="276.578" y="-142.5" font-family="Helvetica,sans-Serif" font-size="10.00"> </text>
<polyline fill="none" stroke="#bfbfbf" points="259.078,-135.5 294.078,-135.5 "/>
<text text-anchor="middle" x="276.578" y="-123.5" font-family="Helvetica,sans-Serif" font-size="10.00"> </text>
</a>
</g>
</g>
<!-- Node19&#45;&gt;Node1 -->
<g id="edge4" class="edge"><title>Node19&#45;&gt;Node1</title>
<path fill="none" stroke="#404040" d="M258.899,-125.587C255.801,-122.383 252.602,-119.088 249.578,-116 237.267,-103.424 223.808,-89.8237 211.501,-77.4451"/>
<polygon fill="none" stroke="#404040" points="211.241,-77.1844 204.173,-75.7539 202.775,-68.6796 209.843,-70.1101 211.241,-77.1844"/>
<text text-anchor="middle" x="262.078" y="-90" font-family="Helvetica,sans-Serif" font-size="10.00"> +bSuccessful</text>
</g>
</g>
</svg>
