<?xml version="1.0" encoding="UTF-8" standalone="no"?>
<!DOCTYPE svg PUBLIC "-//W3C//DTD SVG 1.1//EN"
 "http://www.w3.org/Graphics/SVG/1.1/DTD/svg11.dtd">
<!-- Generated by graphviz version 2.38.0 (20140413.2041)
 -->
<!-- Title: SDK::FSoundClassProperties Pages: 1 -->
<svg width="357pt" height="325pt"
 viewBox="0.00 0.00 356.50 325.00" xmlns="http://www.w3.org/2000/svg" xmlns:xlink="http://www.w3.org/1999/xlink">
<g id="graph0" class="graph" transform="scale(1 1) rotate(0) translate(4 321)">
<title>SDK::FSoundClassProperties</title>
<!-- Node1 -->
<g id="node1" class="node"><title>Node1</title>
<g id="a_node1"><a xlink:title=" ">
<polygon fill="#bfbfbf" stroke="black" points="78.5,-0.5 78.5,-57.5 224.5,-57.5 224.5,-0.5 78.5,-0.5"/>
<text text-anchor="middle" x="151.5" y="-45.5" font-family="Helvetica,sans-Serif" font-size="10.00">SDK::FSoundClassProperties</text>
<polyline fill="none" stroke="black" points="78.5,-38.5 224.5,-38.5 "/>
<text text-anchor="middle" x="151.5" y="-26.5" font-family="Helvetica,sans-Serif" font-size="10.00"> </text>
<polyline fill="none" stroke="black" points="78.5,-19.5 224.5,-19.5 "/>
<text text-anchor="middle" x="151.5" y="-7.5" font-family="Helvetica,sans-Serif" font-size="10.00"> </text>
</a>
</g>
</g>
<!-- Node2 -->
<g id="node2" class="node"><title>Node2</title>
<g id="a_node2"><a xlink:title=" ">
<polygon fill="none" stroke="#bfbfbf" points="0,-226.5 0,-283.5 35,-283.5 35,-226.5 0,-226.5"/>
<text text-anchor="middle" x="17.5" y="-271.5" font-family="Helvetica,sans-Serif" font-size="10.00">char</text>
<polyline fill="none" stroke="#bfbfbf" points="0,-264.5 35,-264.5 "/>
<text text-anchor="middle" x="17.5" y="-252.5" font-family="Helvetica,sans-Serif" font-size="10.00"> </text>
<polyline fill="none" stroke="#bfbfbf" points="0,-245.5 35,-245.5 "/>
<text text-anchor="middle" x="17.5" y="-233.5" font-family="Helvetica,sans-Serif" font-size="10.00"> </text>
</a>
</g>
</g>
<!-- Node2&#45;&gt;Node1 -->
<g id="edge1" class="edge"><title>Node2&#45;&gt;Node1</title>
<path fill="none" stroke="#404040" d="M12.3676,-226.457C6.93713,-188.54 3.18955,-119.971 36.5,-76 44.5525,-65.3703 55.4523,-57.1912 67.3473,-50.8992"/>
<polygon fill="none" stroke="#404040" points="67.6464,-50.758 71.3645,-44.5794 78.4979,-45.6351 74.7798,-51.8138 67.6464,-50.758"/>
<text text-anchor="middle" x="92" y="-167" font-family="Helvetica,sans-Serif" font-size="10.00"> +UnknownData01</text>
<text text-anchor="middle" x="92" y="-156" font-family="Helvetica,sans-Serif" font-size="10.00">+bIsMusic</text>
<text text-anchor="middle" x="92" y="-145" font-family="Helvetica,sans-Serif" font-size="10.00">+bApplyAmbientVolumes</text>
<text text-anchor="middle" x="92" y="-134" font-family="Helvetica,sans-Serif" font-size="10.00">+bReverb</text>
<text text-anchor="middle" x="92" y="-123" font-family="Helvetica,sans-Serif" font-size="10.00">+bIsUISound</text>
<text text-anchor="middle" x="92" y="-112" font-family="Helvetica,sans-Serif" font-size="10.00">+bCenterChannelOnly</text>
<text text-anchor="middle" x="92" y="-101" font-family="Helvetica,sans-Serif" font-size="10.00">+bApplyEffects</text>
<text text-anchor="middle" x="92" y="-90" font-family="Helvetica,sans-Serif" font-size="10.00">+bAlwaysPlay</text>
<text text-anchor="middle" x="92" y="-79" font-family="Helvetica,sans-Serif" font-size="10.00">+UnknownData00</text>
</g>
<!-- Node3 -->
<g id="node3" class="node"><title>Node3</title>
<g id="a_node3"><a xlink:title=" ">
<polygon fill="none" stroke="#bfbfbf" points="134,-226.5 134,-283.5 169,-283.5 169,-226.5 134,-226.5"/>
<text text-anchor="middle" x="151.5" y="-271.5" font-family="Helvetica,sans-Serif" font-size="10.00">float</text>
<polyline fill="none" stroke="#bfbfbf" points="134,-264.5 169,-264.5 "/>
<text text-anchor="middle" x="151.5" y="-252.5" font-family="Helvetica,sans-Serif" font-size="10.00"> </text>
<polyline fill="none" stroke="#bfbfbf" points="134,-245.5 169,-245.5 "/>
<text text-anchor="middle" x="151.5" y="-233.5" font-family="Helvetica,sans-Serif" font-size="10.00"> </text>
</a>
</g>
</g>
<!-- Node3&#45;&gt;Node1 -->
<g id="edge2" class="edge"><title>Node3&#45;&gt;Node1</title>
<path fill="none" stroke="#404040" d="M151.5,-226.083C151.5,-186.718 151.5,-114.693 151.5,-69.7495"/>
<polygon fill="none" stroke="#404040" points="151.5,-69.565 147.5,-63.565 151.5,-57.565 155.5,-63.565 151.5,-69.565"/>
<text text-anchor="middle" x="199" y="-167" font-family="Helvetica,sans-Serif" font-size="10.00"> +Pitch</text>
<text text-anchor="middle" x="199" y="-156" font-family="Helvetica,sans-Serif" font-size="10.00">+Volume</text>
<text text-anchor="start" x="151.5" y="-145" font-family="Helvetica,sans-Serif" font-size="10.00">+RadioFilterVolume</text>
<text text-anchor="middle" x="199" y="-134" font-family="Helvetica,sans-Serif" font-size="10.00">Threshold</text>
<text text-anchor="middle" x="199" y="-123" font-family="Helvetica,sans-Serif" font-size="10.00">+StereoBleed</text>
<text text-anchor="start" x="151.5" y="-112" font-family="Helvetica,sans-Serif" font-size="10.00">+VoiceCenterChannel</text>
<text text-anchor="middle" x="199" y="-101" font-family="Helvetica,sans-Serif" font-size="10.00">Volume</text>
<text text-anchor="middle" x="199" y="-90" font-family="Helvetica,sans-Serif" font-size="10.00">+LFEBleed</text>
<text text-anchor="middle" x="199" y="-79" font-family="Helvetica,sans-Serif" font-size="10.00">+RadioFilterVolume</text>
</g>
<!-- Node4 -->
<g id="node4" class="node"><title>Node4</title>
<g id="a_node4"><a xlink:href="a25847.html" target="_top" xlink:title=" ">
<polygon fill="none" stroke="black" points="190.5,-193.5 190.5,-316.5 348.5,-316.5 348.5,-193.5 190.5,-193.5"/>
<text text-anchor="start" x="198.5" y="-304.5" font-family="Helvetica,sans-Serif" font-size="10.00">SDK::TEnumAsByte&lt; EAudio</text>
<text text-anchor="middle" x="269.5" y="-293.5" font-family="Helvetica,sans-Serif" font-size="10.00">OutputTarget &gt;</text>
<polyline fill="none" stroke="black" points="190.5,-286.5 348.5,-286.5 "/>
<text text-anchor="middle" x="269.5" y="-274.5" font-family="Helvetica,sans-Serif" font-size="10.00"> </text>
<polyline fill="none" stroke="black" points="190.5,-267.5 348.5,-267.5 "/>
<text text-anchor="start" x="198.5" y="-255.5" font-family="Helvetica,sans-Serif" font-size="10.00">+ TEnumAsByte()</text>
<text text-anchor="start" x="198.5" y="-244.5" font-family="Helvetica,sans-Serif" font-size="10.00">+ TEnumAsByte()</text>
<text text-anchor="start" x="198.5" y="-233.5" font-family="Helvetica,sans-Serif" font-size="10.00">+ TEnumAsByte()</text>
<text text-anchor="start" x="198.5" y="-222.5" font-family="Helvetica,sans-Serif" font-size="10.00">+ TEnumAsByte()</text>
<text text-anchor="start" x="198.5" y="-211.5" font-family="Helvetica,sans-Serif" font-size="10.00">+ operator EAudioOutputTarget()</text>
<text text-anchor="start" x="198.5" y="-200.5" font-family="Helvetica,sans-Serif" font-size="10.00">+ GetValue()</text>
</a>
</g>
</g>
<!-- Node4&#45;&gt;Node1 -->
<g id="edge3" class="edge"><title>Node4&#45;&gt;Node1</title>
<path fill="none" stroke="#404040" d="M275.89,-193.497C276.673,-156.353 271.679,-109.622 247.5,-76 243.818,-70.8798 239.411,-66.3073 234.539,-62.2274"/>
<polygon fill="none" stroke="#404040" points="234.336,-62.0779 227.132,-61.75 224.664,-54.9743 231.868,-55.3023 234.336,-62.0779"/>
<text text-anchor="middle" x="308.5" y="-123" font-family="Helvetica,sans-Serif" font-size="10.00"> +OutputTarget</text>
</g>
</g>
</svg>
