<?xml version="1.0" encoding="UTF-8" standalone="no"?>
<!DOCTYPE svg PUBLIC "-//W3C//DTD SVG 1.1//EN"
 "http://www.w3.org/Graphics/SVG/1.1/DTD/svg11.dtd">
<!-- Generated by graphviz version 2.38.0 (20140413.2041)
 -->
<!-- Title: SDK::FPoseLinkBase Pages: 1 -->
<svg width="149pt" height="171pt"
 viewBox="0.00 0.00 148.50 171.00" xmlns="http://www.w3.org/2000/svg" xmlns:xlink="http://www.w3.org/1999/xlink">
<g id="graph0" class="graph" transform="scale(1 1) rotate(0) translate(4 167)">
<title>SDK::FPoseLinkBase</title>
<!-- Node1 -->
<g id="node1" class="node"><title>Node1</title>
<g id="a_node1"><a xlink:title=" ">
<polygon fill="#bfbfbf" stroke="black" points="12.5,-0.5 12.5,-57.5 124.5,-57.5 124.5,-0.5 12.5,-0.5"/>
<text text-anchor="middle" x="68.5" y="-45.5" font-family="Helvetica,sans-Serif" font-size="10.00">SDK::FPoseLinkBase</text>
<polyline fill="none" stroke="black" points="12.5,-38.5 124.5,-38.5 "/>
<text text-anchor="middle" x="68.5" y="-26.5" font-family="Helvetica,sans-Serif" font-size="10.00"> </text>
<polyline fill="none" stroke="black" points="12.5,-19.5 124.5,-19.5 "/>
<text text-anchor="middle" x="68.5" y="-7.5" font-family="Helvetica,sans-Serif" font-size="10.00"> </text>
</a>
</g>
</g>
<!-- Node2 -->
<g id="node2" class="node"><title>Node2</title>
<g id="a_node2"><a xlink:title=" ">
<polygon fill="none" stroke="#bfbfbf" points="0,-105.5 0,-162.5 35,-162.5 35,-105.5 0,-105.5"/>
<text text-anchor="middle" x="17.5" y="-150.5" font-family="Helvetica,sans-Serif" font-size="10.00">char</text>
<polyline fill="none" stroke="#bfbfbf" points="0,-143.5 35,-143.5 "/>
<text text-anchor="middle" x="17.5" y="-131.5" font-family="Helvetica,sans-Serif" font-size="10.00"> </text>
<polyline fill="none" stroke="#bfbfbf" points="0,-124.5 35,-124.5 "/>
<text text-anchor="middle" x="17.5" y="-112.5" font-family="Helvetica,sans-Serif" font-size="10.00"> </text>
</a>
</g>
</g>
<!-- Node2&#45;&gt;Node1 -->
<g id="edge1" class="edge"><title>Node2&#45;&gt;Node1</title>
<path fill="none" stroke="#404040" d="M13.6425,-105.355C13.4036,-95.7003 14.4436,-85.0279 18.5,-76 19.8581,-72.9774 21.5204,-70.0641 23.4035,-67.2727"/>
<polygon fill="none" stroke="#404040" points="23.5476,-67.0925 24.1704,-59.9083 31.0415,-57.72 30.4187,-64.9042 23.5476,-67.0925"/>
<text text-anchor="middle" x="58.5" y="-79" font-family="Helvetica,sans-Serif" font-size="10.00"> +UnknownData00</text>
</g>
<!-- Node3 -->
<g id="node3" class="node"><title>Node3</title>
<g id="a_node3"><a xlink:title=" ">
<polygon fill="none" stroke="#bfbfbf" points="106,-105.5 106,-162.5 135,-162.5 135,-105.5 106,-105.5"/>
<text text-anchor="middle" x="120.5" y="-150.5" font-family="Helvetica,sans-Serif" font-size="10.00">int</text>
<polyline fill="none" stroke="#bfbfbf" points="106,-143.5 135,-143.5 "/>
<text text-anchor="middle" x="120.5" y="-131.5" font-family="Helvetica,sans-Serif" font-size="10.00"> </text>
<polyline fill="none" stroke="#bfbfbf" points="106,-124.5 135,-124.5 "/>
<text text-anchor="middle" x="120.5" y="-112.5" font-family="Helvetica,sans-Serif" font-size="10.00"> </text>
</a>
</g>
</g>
<!-- Node3&#45;&gt;Node1 -->
<g id="edge2" class="edge"><title>Node3&#45;&gt;Node1</title>
<path fill="none" stroke="#404040" d="M111.117,-105.238C107.571,-95.7751 103.237,-85.2533 98.5,-76 97.1803,-73.4221 95.7515,-70.8083 94.258,-68.2034"/>
<polygon fill="none" stroke="#404040" points="94.0878,-67.9226 87.5571,-64.8648 87.8678,-57.6604 94.3985,-60.7182 94.0878,-67.9226"/>
<text text-anchor="middle" x="122" y="-79" font-family="Helvetica,sans-Serif" font-size="10.00"> +LinkID</text>
</g>
</g>
</svg>
