<?xml version="1.0" encoding="UTF-8" standalone="no"?>
<!DOCTYPE svg PUBLIC "-//W3C//DTD SVG 1.1//EN"
 "http://www.w3.org/Graphics/SVG/1.1/DTD/svg11.dtd">
<!-- Generated by graphviz version 2.38.0 (20140413.2041)
 -->
<!-- Title: SDK::FMeshMergingSettings Pages: 1 -->
<!--zoomable 347 -->
<svg id="main" version="1.1" xmlns="http://www.w3.org/2000/svg" xmlns:xlink="http://www.w3.org/1999/xlink" xml:space="preserve" onload="init(evt)">
<style type="text/css"><![CDATA[
.edge:hover path { stroke: red; }
.edge:hover polygon { stroke: red; fill: red; }
]]></style>
<script type="text/javascript"><![CDATA[
var edges = document.getElementsByTagName('g');
if (edges && edges.length) {
  for (var i=0;i<edges.length;i++) {
    if (edges[i].id.substr(0,4)=='edge') {
      edges[i].setAttribute('class','edge');
    }
  }
}
]]></script>
        <defs>
                <circle id="rim" cx="0" cy="0" r="7"/>
                <circle id="rim2" cx="0" cy="0" r="3.5"/>
                <g id="zoomPlus">
                        <use xlink:href="#rim" fill="#404040">
                                <set attributeName="fill" to="#808080" begin="zoomplus.mouseover" end="zoomplus.mouseout"/>
                        </use>
                        <path d="M-4,0h8M0,-4v8" fill="none" stroke="white" stroke-width="1.5" pointer-events="none"/>
                </g>
                <g id="zoomMin">
                        <use xlink:href="#rim" fill="#404040">
                                <set attributeName="fill" to="#808080" begin="zoomminus.mouseover" end="zoomminus.mouseout"/>
                        </use>
                        <path d="M-4,0h8" fill="none" stroke="white" stroke-width="1.5" pointer-events="none"/>
                </g>
                <g id="dirArrow">
                        <path fill="none" stroke="white" stroke-width="1.5" d="M0,-3.0v7 M-2.5,-0.5L0,-3.0L2.5,-0.5"/>
                </g>
               <g id="resetDef">
                       <use xlink:href="#rim2" fill="#404040">
                               <set attributeName="fill" to="#808080" begin="reset.mouseover" end="reset.mouseout"/>
                       </use>
               </g>
        </defs>

<script type="text/javascript">
var viewWidth = 563;
var viewHeight = 347;
var sectionId = 'dynsection-0';
</script>
<script xlink:href="svgpan.js"/>
<svg id="graph" class="graph">
<g id="viewport">
<title>SDK::FMeshMergingSettings</title>
<!-- Node1 -->
<g id="node1" class="node"><title>Node1</title>
<g id="a_node1"><a xlink:title=" ">
<polygon fill="#bfbfbf" stroke="black" points="103.07,-0.5 103.07,-79.5 246.07,-79.5 246.07,-0.5 103.07,-0.5"/>
<text text-anchor="middle" x="174.57" y="-67.5" font-family="Helvetica,sans-Serif" font-size="10.00">SDK::FMeshMergingSettings</text>
<polyline fill="none" stroke="black" points="103.07,-60.5 246.07,-60.5 "/>
<text text-anchor="start" x="111.07" y="-48.5" font-family="Helvetica,sans-Serif" font-size="10.00">+ bImportVertexColors</text>
<text text-anchor="start" x="111.07" y="-37.5" font-family="Helvetica,sans-Serif" font-size="10.00">+ bPivotPointAtZero</text>
<text text-anchor="start" x="111.07" y="-26.5" font-family="Helvetica,sans-Serif" font-size="10.00">+ bExportSpecularMap</text>
<polyline fill="none" stroke="black" points="103.07,-19.5 246.07,-19.5 "/>
<text text-anchor="middle" x="174.57" y="-7.5" font-family="Helvetica,sans-Serif" font-size="10.00"> </text>
</a>
</g>
</g>
<!-- Node2 -->
<g id="node2" class="node"><title>Node2</title>
<g id="a_node2"><a xlink:title=" ">
<polygon fill="none" stroke="#bfbfbf" points="0.0702861,-259.5 0.0702861,-316.5 35.0703,-316.5 35.0703,-259.5 0.0702861,-259.5"/>
<text text-anchor="middle" x="17.5703" y="-304.5" font-family="Helvetica,sans-Serif" font-size="10.00">char</text>
<polyline fill="none" stroke="#bfbfbf" points="0.0702861,-297.5 35.0703,-297.5 "/>
<text text-anchor="middle" x="17.5703" y="-285.5" font-family="Helvetica,sans-Serif" font-size="10.00"> </text>
<polyline fill="none" stroke="#bfbfbf" points="0.0702861,-278.5 35.0703,-278.5 "/>
<text text-anchor="middle" x="17.5703" y="-266.5" font-family="Helvetica,sans-Serif" font-size="10.00"> </text>
</a>
</g>
</g>
<!-- Node2&#45;&gt;Node1 -->
<g id="edge1" class="edge"><title>Node2&#45;&gt;Node1</title>
<path fill="none" stroke="#404040" d="M9.67472,-259.296C0.134383,-219.568 -10.707,-145.933 23.5703,-98 39.4715,-75.7638 65.1827,-62.1975 90.9176,-53.9224"/>
<polygon fill="none" stroke="#404040" points="91.189,-53.8433 95.8277,-48.3222 102.708,-50.4806 98.0695,-56.0017 91.189,-53.8433"/>
<text text-anchor="middle" x="63.5703" y="-167" font-family="Helvetica,sans-Serif" font-size="10.00"> +UnknownData01</text>
<text text-anchor="middle" x="63.5703" y="-156" font-family="Helvetica,sans-Serif" font-size="10.00">+UnknownData02</text>
<text text-anchor="middle" x="63.5703" y="-145" font-family="Helvetica,sans-Serif" font-size="10.00">+UnknownData00</text>
</g>
<!-- Node3 -->
<g id="node3" class="node"><title>Node3</title>
<g id="a_node3"><a xlink:href="a25823.html" target="_top" xlink:title=" ">
<polygon fill="none" stroke="black" points="67.0703,-237.5 67.0703,-338.5 174.07,-338.5 174.07,-237.5 67.0703,-237.5"/>
<text text-anchor="middle" x="120.57" y="-326.5" font-family="Helvetica,sans-Serif" font-size="10.00">SDK::TArray&lt; float &gt;</text>
<polyline fill="none" stroke="black" points="67.0703,-319.5 174.07,-319.5 "/>
<text text-anchor="middle" x="120.57" y="-307.5" font-family="Helvetica,sans-Serif" font-size="10.00"> </text>
<polyline fill="none" stroke="black" points="67.0703,-300.5 174.07,-300.5 "/>
<text text-anchor="start" x="75.0703" y="-288.5" font-family="Helvetica,sans-Serif" font-size="10.00">+ TArray()</text>
<text text-anchor="start" x="75.0703" y="-277.5" font-family="Helvetica,sans-Serif" font-size="10.00">+ Num()</text>
<text text-anchor="start" x="75.0703" y="-266.5" font-family="Helvetica,sans-Serif" font-size="10.00">+ operator[]()</text>
<text text-anchor="start" x="75.0703" y="-255.5" font-family="Helvetica,sans-Serif" font-size="10.00">+ operator[]()</text>
<text text-anchor="start" x="75.0703" y="-244.5" font-family="Helvetica,sans-Serif" font-size="10.00">+ IsValidIndex()</text>
</a>
</g>
</g>
<!-- Node3&#45;&gt;Node1 -->
<g id="edge2" class="edge"><title>Node3&#45;&gt;Node1</title>
<path fill="none" stroke="#404040" d="M111.245,-237.375C106.097,-198.128 103.866,-142.692 121.57,-98 122.641,-95.297 123.906,-92.6457 125.325,-90.0566"/>
<polygon fill="none" stroke="#404040" points="125.437,-89.8836 125.316,-82.6735 131.925,-79.7891 132.046,-86.9992 125.437,-89.8836"/>
<text text-anchor="middle" x="164.07" y="-156" font-family="Helvetica,sans-Serif" font-size="10.00"> +LODScreenSizes</text>
</g>
<!-- Node4 -->
<g id="node4" class="node"><title>Node4</title>
<g id="a_node4"><a xlink:title=" ">
<polygon fill="none" stroke="#bfbfbf" points="214.07,-259.5 214.07,-316.5 243.07,-316.5 243.07,-259.5 214.07,-259.5"/>
<text text-anchor="middle" x="228.57" y="-304.5" font-family="Helvetica,sans-Serif" font-size="10.00">int</text>
<polyline fill="none" stroke="#bfbfbf" points="214.07,-297.5 243.07,-297.5 "/>
<text text-anchor="middle" x="228.57" y="-285.5" font-family="Helvetica,sans-Serif" font-size="10.00"> </text>
<polyline fill="none" stroke="#bfbfbf" points="214.07,-278.5 243.07,-278.5 "/>
<text text-anchor="middle" x="228.57" y="-266.5" font-family="Helvetica,sans-Serif" font-size="10.00"> </text>
</a>
</g>
</g>
<!-- Node4&#45;&gt;Node1 -->
<g id="edge3" class="edge"><title>Node4&#45;&gt;Node1</title>
<path fill="none" stroke="#404040" d="M228.724,-259.366C228.182,-221.896 224.512,-153.302 206.57,-98 205.791,-95.5965 204.904,-93.1799 203.936,-90.7706"/>
<polygon fill="none" stroke="#404040" points="203.842,-90.5615 197.725,-86.7418 198.899,-79.6268 205.015,-83.4465 203.842,-90.5615"/>
<text text-anchor="middle" x="297.57" y="-172.5" font-family="Helvetica,sans-Serif" font-size="10.00"> +TargetLightMapUVChannel</text>
<text text-anchor="middle" x="297.57" y="-161.5" font-family="Helvetica,sans-Serif" font-size="10.00">+LODForCollision</text>
<text text-anchor="middle" x="297.57" y="-150.5" font-family="Helvetica,sans-Serif" font-size="10.00">+MergedMaterialAtlasResolution</text>
<text text-anchor="middle" x="297.57" y="-139.5" font-family="Helvetica,sans-Serif" font-size="10.00">+TargetLightMapResolution</text>
</g>
<!-- Node5 -->
<g id="node5" class="node"><title>Node5</title>
<g id="a_node5"><a xlink:title=" ">
<polygon fill="none" stroke="#bfbfbf" points="376.07,-259.5 376.07,-316.5 411.07,-316.5 411.07,-259.5 376.07,-259.5"/>
<text text-anchor="middle" x="393.57" y="-304.5" font-family="Helvetica,sans-Serif" font-size="10.00">bool</text>
<polyline fill="none" stroke="#bfbfbf" points="376.07,-297.5 411.07,-297.5 "/>
<text text-anchor="middle" x="393.57" y="-285.5" font-family="Helvetica,sans-Serif" font-size="10.00"> </text>
<polyline fill="none" stroke="#bfbfbf" points="376.07,-278.5 411.07,-278.5 "/>
<text text-anchor="middle" x="393.57" y="-266.5" font-family="Helvetica,sans-Serif" font-size="10.00"> </text>
</a>
</g>
</g>
<!-- Node5&#45;&gt;Node1 -->
<g id="edge4" class="edge"><title>Node5&#45;&gt;Node1</title>
<path fill="none" stroke="#404040" d="M399.011,-259.254C405.232,-218.801 410.097,-143.508 371.57,-98 343.782,-65.1764 298.358,-50.6377 258.128,-44.4364"/>
<polygon fill="none" stroke="#404040" points="258.002,-44.4194 251.518,-47.5738 246.112,-42.8013 252.596,-39.6469 258.002,-44.4194"/>
<text text-anchor="middle" x="478.57" y="-211" font-family="Helvetica,sans-Serif" font-size="10.00"> +bEnableCollisionMerging</text>
<text text-anchor="middle" x="478.57" y="-200" font-family="Helvetica,sans-Serif" font-size="10.00">+bMergeMaterials</text>
<text text-anchor="middle" x="478.57" y="-189" font-family="Helvetica,sans-Serif" font-size="10.00">+bExportNormalMap</text>
<text text-anchor="middle" x="478.57" y="-178" font-family="Helvetica,sans-Serif" font-size="10.00">+bDuplicateLODs</text>
<text text-anchor="middle" x="478.57" y="-167" font-family="Helvetica,sans-Serif" font-size="10.00">+bUseRelativeTransform</text>
<text text-anchor="middle" x="478.57" y="-156" font-family="Helvetica,sans-Serif" font-size="10.00">+bExportRoughnessMap</text>
<text text-anchor="middle" x="478.57" y="-145" font-family="Helvetica,sans-Serif" font-size="10.00">+bGenerateLightMapUV</text>
<text text-anchor="middle" x="478.57" y="-134" font-family="Helvetica,sans-Serif" font-size="10.00">+bMergePhysicsData</text>
<text text-anchor="middle" x="478.57" y="-123" font-family="Helvetica,sans-Serif" font-size="10.00">+bMergeRelativeToFirstComponent</text>
<text text-anchor="middle" x="478.57" y="-112" font-family="Helvetica,sans-Serif" font-size="10.00">+bExportMetallicMap</text>
<text text-anchor="middle" x="478.57" y="-101" font-family="Helvetica,sans-Serif" font-size="10.00">...</text>
</g>
</g>
</svg>
        <g id="navigator" transform="translate(0 0)" fill="#404254">
                <rect fill="#f2f5e9" fill-opacity="0.5" stroke="#606060" stroke-width=".5" x="0" y="0" width="60" height="60"/>
                <use id="zoomplus" xlink:href="#zoomPlus" x="17" y="9" onmousedown="handleZoom(evt,'in')"/>
                <use id="zoomminus" xlink:href="#zoomMin" x="42" y="9" onmousedown="handleZoom(evt,'out')"/>
                <use id="reset" xlink:href="#resetDef" x="30" y="36" onmousedown="handleReset()"/>
                <g id="arrowUp" xlink:href="#dirArrow" transform="translate(30 24)" onmousedown="handlePan(0,-1)">
                  <use xlink:href="#rim" fill="#404040">
                        <set attributeName="fill" to="#808080" begin="arrowUp.mouseover" end="arrowUp.mouseout"/>
                  </use>
                  <path fill="none" stroke="white" stroke-width="1.5" d="M0,-3.0v7 M-2.5,-0.5L0,-3.0L2.5,-0.5"/>
                </g>
                <g id="arrowRight" xlink:href="#dirArrow" transform="rotate(90) translate(36 -43)" onmousedown="handlePan(1,0)">
                  <use xlink:href="#rim" fill="#404040">
                        <set attributeName="fill" to="#808080" begin="arrowRight.mouseover" end="arrowRight.mouseout"/>
                  </use>
                  <path fill="none" stroke="white" stroke-width="1.5" d="M0,-3.0v7 M-2.5,-0.5L0,-3.0L2.5,-0.5"/>
                </g>
                <g id="arrowDown" xlink:href="#dirArrow" transform="rotate(180) translate(-30 -48)" onmousedown="handlePan(0,1)">
                  <use xlink:href="#rim" fill="#404040">
                        <set attributeName="fill" to="#808080" begin="arrowDown.mouseover" end="arrowDown.mouseout"/>
                  </use>
                  <path fill="none" stroke="white" stroke-width="1.5" d="M0,-3.0v7 M-2.5,-0.5L0,-3.0L2.5,-0.5"/>
                </g>
                <g id="arrowLeft" xlink:href="#dirArrow" transform="rotate(270) translate(-36 17)" onmousedown="handlePan(-1,0)">
                  <use xlink:href="#rim" fill="#404040">
                        <set attributeName="fill" to="#808080" begin="arrowLeft.mouseover" end="arrowLeft.mouseout"/>
                  </use>
                  <path fill="none" stroke="white" stroke-width="1.5" d="M0,-3.0v7 M-2.5,-0.5L0,-3.0L2.5,-0.5"/>
                </g>
        </g>
        <svg viewBox="0 0 15 15" width="100%" height="30px" preserveAspectRatio="xMaxYMin meet">
         <g id="arrow_out" transform="scale(0.3 0.3)">
          <a xlink:href="a31521_org.svg" target="_base">
           <rect id="button" ry="5" rx="5" y="6" x="6" height="38" width="38"
                fill="#f2f5e9" fill-opacity="0.5" stroke="#606060" stroke-width="1.0"/>
           <path id="arrow"
             d="M 11.500037,31.436501 C 11.940474,20.09759 22.043105,11.32322 32.158766,21.979434 L 37.068811,17.246167 C 37.068811,17.246167 37.088388,32 37.088388,32 L 22.160133,31.978069 C 22.160133,31.978069 26.997745,27.140456 26.997745,27.140456 C 18.528582,18.264221 13.291696,25.230495 11.500037,31.436501 z"
             style="fill:#404040;"/>
          </a>
         </g>
        </svg>
</svg>
