<?xml version="1.0" encoding="UTF-8" standalone="no"?>
<!DOCTYPE svg PUBLIC "-//W3C//DTD SVG 1.1//EN"
 "http://www.w3.org/Graphics/SVG/1.1/DTD/svg11.dtd">
<!-- Generated by graphviz version 2.38.0 (20140413.2041)
 -->
<!-- Title: SDK::FPointDamageEvent Pages: 1 -->
<svg width="425pt" height="309pt"
 viewBox="0.00 0.00 424.50 309.00" xmlns="http://www.w3.org/2000/svg" xmlns:xlink="http://www.w3.org/1999/xlink">
<g id="graph0" class="graph" transform="scale(1 1) rotate(0) translate(4 305)">
<title>SDK::FPointDamageEvent</title>
<!-- Node1 -->
<g id="node1" class="node"><title>Node1</title>
<g id="a_node1"><a xlink:title=" ">
<polygon fill="#bfbfbf" stroke="black" points="115,-0.5 115,-57.5 246,-57.5 246,-0.5 115,-0.5"/>
<text text-anchor="middle" x="180.5" y="-45.5" font-family="Helvetica,sans-Serif" font-size="10.00">SDK::FPointDamageEvent</text>
<polyline fill="none" stroke="black" points="115,-38.5 246,-38.5 "/>
<text text-anchor="middle" x="180.5" y="-26.5" font-family="Helvetica,sans-Serif" font-size="10.00"> </text>
<polyline fill="none" stroke="black" points="115,-19.5 246,-19.5 "/>
<text text-anchor="middle" x="180.5" y="-7.5" font-family="Helvetica,sans-Serif" font-size="10.00"> </text>
</a>
</g>
</g>
<!-- Node2 -->
<g id="node2" class="node"><title>Node2</title>
<g id="a_node2"><a xlink:href="a31503.html" target="_top" xlink:title=" ">
<polygon fill="none" stroke="red" points="0,-105.5 0,-162.5 109,-162.5 109,-105.5 0,-105.5"/>
<text text-anchor="middle" x="54.5" y="-150.5" font-family="Helvetica,sans-Serif" font-size="10.00">SDK::FDamageEvent</text>
<polyline fill="none" stroke="red" points="0,-143.5 109,-143.5 "/>
<text text-anchor="middle" x="54.5" y="-131.5" font-family="Helvetica,sans-Serif" font-size="10.00"> </text>
<polyline fill="none" stroke="red" points="0,-124.5 109,-124.5 "/>
<text text-anchor="middle" x="54.5" y="-112.5" font-family="Helvetica,sans-Serif" font-size="10.00"> </text>
</a>
</g>
</g>
<!-- Node2&#45;&gt;Node1 -->
<g id="edge1" class="edge"><title>Node2&#45;&gt;Node1</title>
<path fill="none" stroke="midnightblue" d="M96.1143,-98.9819C112.508,-85.581 131.093,-70.3883 146.641,-57.6783"/>
<polygon fill="none" stroke="midnightblue" points="93.7928,-96.359 88.2657,-105.398 98.2232,-101.779 93.7928,-96.359"/>
</g>
<!-- Node14 -->
<g id="node3" class="node"><title>Node14</title>
<g id="a_node3"><a xlink:title=" ">
<polygon fill="none" stroke="#bfbfbf" points="145,-238 145,-295 180,-295 180,-238 145,-238"/>
<text text-anchor="middle" x="162.5" y="-283" font-family="Helvetica,sans-Serif" font-size="10.00">float</text>
<polyline fill="none" stroke="#bfbfbf" points="145,-276 180,-276 "/>
<text text-anchor="middle" x="162.5" y="-264" font-family="Helvetica,sans-Serif" font-size="10.00"> </text>
<polyline fill="none" stroke="#bfbfbf" points="145,-257 180,-257 "/>
<text text-anchor="middle" x="162.5" y="-245" font-family="Helvetica,sans-Serif" font-size="10.00"> </text>
</a>
</g>
</g>
<!-- Node14&#45;&gt;Node1 -->
<g id="edge2" class="edge"><title>Node14&#45;&gt;Node1</title>
<path fill="none" stroke="#404040" d="M157.51,-237.74C152.559,-205.572 146.739,-151.082 154.5,-105 156.521,-92.9976 160.243,-80.3499 164.25,-68.9308"/>
<polygon fill="none" stroke="#404040" points="164.297,-68.8049 162.634,-61.7882 168.471,-57.5542 170.134,-64.5709 164.297,-68.8049"/>
<text text-anchor="middle" x="177.5" y="-131.5" font-family="Helvetica,sans-Serif" font-size="10.00"> +Damage</text>
</g>
<!-- Node15 -->
<g id="node4" class="node"><title>Node15</title>
<g id="a_node4"><a xlink:href="a30127.html" target="_top" xlink:title=" ">
<polygon fill="none" stroke="red" points="210,-105.5 210,-162.5 299,-162.5 299,-105.5 210,-105.5"/>
<text text-anchor="middle" x="254.5" y="-150.5" font-family="Helvetica,sans-Serif" font-size="10.00">SDK::FHitResult</text>
<polyline fill="none" stroke="red" points="210,-143.5 299,-143.5 "/>
<text text-anchor="middle" x="254.5" y="-131.5" font-family="Helvetica,sans-Serif" font-size="10.00"> </text>
<polyline fill="none" stroke="red" points="210,-124.5 299,-124.5 "/>
<text text-anchor="middle" x="254.5" y="-112.5" font-family="Helvetica,sans-Serif" font-size="10.00"> </text>
</a>
</g>
</g>
<!-- Node14&#45;&gt;Node15 -->
<g id="edge4" class="edge"><title>Node14&#45;&gt;Node15</title>
<path fill="none" stroke="#404040" d="M164.195,-237.846C166.455,-220.202 171.647,-197.612 183.5,-181 187.979,-174.723 193.606,-169.086 199.724,-164.091"/>
<polygon fill="none" stroke="#404040" points="199.989,-163.895 202.442,-157.113 209.644,-156.769 207.192,-163.55 199.989,-163.895"/>
<text text-anchor="middle" x="226" y="-206" font-family="Helvetica,sans-Serif" font-size="10.00"> +PenetrationDepth</text>
<text text-anchor="middle" x="226" y="-195" font-family="Helvetica,sans-Serif" font-size="10.00">+Time</text>
<text text-anchor="middle" x="226" y="-184" font-family="Helvetica,sans-Serif" font-size="10.00">+Distance</text>
</g>
<!-- Node15&#45;&gt;Node1 -->
<g id="edge3" class="edge"><title>Node15&#45;&gt;Node1</title>
<path fill="none" stroke="#404040" d="M234.669,-105.398C226.375,-93.8524 216.6,-80.248 207.655,-67.7962"/>
<polygon fill="none" stroke="#404040" points="207.387,-67.4239 200.638,-64.885 200.385,-57.6783 207.135,-60.2172 207.387,-67.4239"/>
<text text-anchor="middle" x="239" y="-79" font-family="Helvetica,sans-Serif" font-size="10.00"> +HitInfo</text>
</g>
<!-- Node22 -->
<g id="node5" class="node"><title>Node22</title>
<g id="a_node5"><a xlink:href="a30123.html" target="_top" xlink:title=" ">
<polygon fill="none" stroke="red" points="259,-232.5 259,-300.5 396,-300.5 396,-232.5 259,-232.5"/>
<text text-anchor="start" x="267" y="-288.5" font-family="Helvetica,sans-Serif" font-size="10.00">SDK::FVector_NetQuantize</text>
<text text-anchor="middle" x="327.5" y="-277.5" font-family="Helvetica,sans-Serif" font-size="10.00">Normal</text>
<polyline fill="none" stroke="red" points="259,-270.5 396,-270.5 "/>
<text text-anchor="middle" x="327.5" y="-258.5" font-family="Helvetica,sans-Serif" font-size="10.00"> </text>
<polyline fill="none" stroke="red" points="259,-251.5 396,-251.5 "/>
<text text-anchor="middle" x="327.5" y="-239.5" font-family="Helvetica,sans-Serif" font-size="10.00"> </text>
</a>
</g>
</g>
<!-- Node22&#45;&gt;Node1 -->
<g id="edge6" class="edge"><title>Node22&#45;&gt;Node1</title>
<path fill="none" stroke="#404040" d="M347.806,-232.352C350.572,-226.43 352.979,-220.176 354.5,-214 358.007,-199.759 358.51,-195.108 354.5,-181 343.642,-142.798 335.461,-133.204 307.5,-105 291.454,-88.8151 271.215,-74.8186 251.637,-63.4452"/>
<polygon fill="none" stroke="#404040" points="251.637,-63.4451 244.447,-63.9951 241.174,-57.5696 248.364,-57.0196 251.637,-63.4451"/>
<text text-anchor="middle" x="382.5" y="-131.5" font-family="Helvetica,sans-Serif" font-size="10.00"> +ShotDirection</text>
</g>
<!-- Node22&#45;&gt;Node15 -->
<g id="edge5" class="edge"><title>Node22&#45;&gt;Node15</title>
<path fill="none" stroke="#404040" d="M299.702,-232.327C295.341,-226.408 291.093,-220.161 287.5,-214 280.218,-201.516 273.707,-187.118 268.432,-174.062"/>
<polygon fill="none" stroke="#404040" points="268.301,-173.724 262.397,-169.584 263.948,-162.542 269.852,-166.682 268.301,-173.724"/>
<text text-anchor="middle" x="321" y="-200.5" font-family="Helvetica,sans-Serif" font-size="10.00"> +Normal</text>
<text text-anchor="middle" x="321" y="-189.5" font-family="Helvetica,sans-Serif" font-size="10.00">+ImpactNormal</text>
</g>
</g>
</svg>
