<?xml version="1.0" encoding="UTF-8" standalone="no"?>
<!DOCTYPE svg PUBLIC "-//W3C//DTD SVG 1.1//EN"
 "http://www.w3.org/Graphics/SVG/1.1/DTD/svg11.dtd">
<!-- Generated by graphviz version 2.38.0 (20140413.2041)
 -->
<!-- Title: SDK::FGridBlendSample Pages: 1 -->
<svg width="248pt" height="276pt"
 viewBox="0.00 0.00 247.50 276.00" xmlns="http://www.w3.org/2000/svg" xmlns:xlink="http://www.w3.org/1999/xlink">
<g id="graph0" class="graph" transform="scale(1 1) rotate(0) translate(4 272)">
<title>SDK::FGridBlendSample</title>
<!-- Node1 -->
<g id="node1" class="node"><title>Node1</title>
<g id="a_node1"><a xlink:title=" ">
<polygon fill="#bfbfbf" stroke="black" points="0,-0.5 0,-57.5 125,-57.5 125,-0.5 0,-0.5"/>
<text text-anchor="middle" x="62.5" y="-45.5" font-family="Helvetica,sans-Serif" font-size="10.00">SDK::FGridBlendSample</text>
<polyline fill="none" stroke="black" points="0,-38.5 125,-38.5 "/>
<text text-anchor="middle" x="62.5" y="-26.5" font-family="Helvetica,sans-Serif" font-size="10.00"> </text>
<polyline fill="none" stroke="black" points="0,-19.5 125,-19.5 "/>
<text text-anchor="middle" x="62.5" y="-7.5" font-family="Helvetica,sans-Serif" font-size="10.00"> </text>
</a>
</g>
</g>
<!-- Node2 -->
<g id="node2" class="node"><title>Node2</title>
<g id="a_node2"><a xlink:title=" ">
<polygon fill="none" stroke="#bfbfbf" points="71,-210.5 71,-267.5 106,-267.5 106,-210.5 71,-210.5"/>
<text text-anchor="middle" x="88.5" y="-255.5" font-family="Helvetica,sans-Serif" font-size="10.00">float</text>
<polyline fill="none" stroke="#bfbfbf" points="71,-248.5 106,-248.5 "/>
<text text-anchor="middle" x="88.5" y="-236.5" font-family="Helvetica,sans-Serif" font-size="10.00"> </text>
<polyline fill="none" stroke="#bfbfbf" points="71,-229.5 106,-229.5 "/>
<text text-anchor="middle" x="88.5" y="-217.5" font-family="Helvetica,sans-Serif" font-size="10.00"> </text>
</a>
</g>
</g>
<!-- Node2&#45;&gt;Node1 -->
<g id="edge1" class="edge"><title>Node2&#45;&gt;Node1</title>
<path fill="none" stroke="#404040" d="M73.0815,-210.435C66.2353,-196.645 58.9541,-179.427 55.5,-163 48.9897,-132.039 51.4386,-96.179 55.1293,-69.5021"/>
<polygon fill="none" stroke="#404040" points="55.139,-69.4377 52.0879,-62.9039 56.9456,-57.5745 59.9967,-64.1083 55.139,-69.4377"/>
<text text-anchor="middle" x="88" y="-131.5" font-family="Helvetica,sans-Serif" font-size="10.00"> +BlendWeight</text>
</g>
<!-- Node3 -->
<g id="node3" class="node"><title>Node3</title>
<g id="a_node3"><a xlink:href="a30611.html" target="_top" xlink:title=" ">
<polygon fill="none" stroke="red" points="129.5,-105.5 129.5,-162.5 239.5,-162.5 239.5,-105.5 129.5,-105.5"/>
<text text-anchor="middle" x="184.5" y="-150.5" font-family="Helvetica,sans-Serif" font-size="10.00">SDK::FEditorElement</text>
<polyline fill="none" stroke="red" points="129.5,-143.5 239.5,-143.5 "/>
<text text-anchor="middle" x="184.5" y="-131.5" font-family="Helvetica,sans-Serif" font-size="10.00"> </text>
<polyline fill="none" stroke="red" points="129.5,-124.5 239.5,-124.5 "/>
<text text-anchor="middle" x="184.5" y="-112.5" font-family="Helvetica,sans-Serif" font-size="10.00"> </text>
</a>
</g>
</g>
<!-- Node2&#45;&gt;Node3 -->
<g id="edge3" class="edge"><title>Node2&#45;&gt;Node3</title>
<path fill="none" stroke="#404040" d="M106.108,-219.108C118.416,-205.903 135.252,-187.839 150.168,-171.836"/>
<polygon fill="none" stroke="#404040" points="150.497,-171.482 151.662,-164.366 158.679,-162.704 157.514,-169.82 150.497,-171.482"/>
<text text-anchor="middle" x="161.5" y="-184" font-family="Helvetica,sans-Serif" font-size="10.00"> +Weights</text>
</g>
<!-- Node3&#45;&gt;Node1 -->
<g id="edge2" class="edge"><title>Node3&#45;&gt;Node1</title>
<path fill="none" stroke="#404040" d="M151.806,-105.398C137.311,-93.1597 120.075,-78.608 104.629,-65.568"/>
<polygon fill="none" stroke="#404040" points="104.453,-65.4195 97.2882,-64.6053 95.284,-57.6783 102.449,-58.4925 104.453,-65.4195"/>
<text text-anchor="middle" x="158.5" y="-79" font-family="Helvetica,sans-Serif" font-size="10.00"> +GridElement</text>
</g>
</g>
</svg>
