<?xml version="1.0" encoding="UTF-8" standalone="no"?>
<!DOCTYPE svg PUBLIC "-//W3C//DTD SVG 1.1//EN"
 "http://www.w3.org/Graphics/SVG/1.1/DTD/svg11.dtd">
<!-- Generated by graphviz version 2.38.0 (20140413.2041)
 -->
<!-- Title: SDK::FRawAnimSequenceTrack Pages: 1 -->
<svg width="236pt" height="237pt"
 viewBox="0.00 0.00 236.00 237.00" xmlns="http://www.w3.org/2000/svg" xmlns:xlink="http://www.w3.org/1999/xlink">
<g id="graph0" class="graph" transform="scale(1 1) rotate(0) translate(4 233)">
<title>SDK::FRawAnimSequenceTrack</title>
<!-- Node1 -->
<g id="node1" class="node"><title>Node1</title>
<g id="a_node1"><a xlink:title=" ">
<polygon fill="#bfbfbf" stroke="black" points="34.5,-0.5 34.5,-57.5 192.5,-57.5 192.5,-0.5 34.5,-0.5"/>
<text text-anchor="middle" x="113.5" y="-45.5" font-family="Helvetica,sans-Serif" font-size="10.00">SDK::FRawAnimSequenceTrack</text>
<polyline fill="none" stroke="black" points="34.5,-38.5 192.5,-38.5 "/>
<text text-anchor="middle" x="113.5" y="-26.5" font-family="Helvetica,sans-Serif" font-size="10.00"> </text>
<polyline fill="none" stroke="black" points="34.5,-19.5 192.5,-19.5 "/>
<text text-anchor="middle" x="113.5" y="-7.5" font-family="Helvetica,sans-Serif" font-size="10.00"> </text>
</a>
</g>
</g>
<!-- Node2 -->
<g id="node2" class="node"><title>Node2</title>
<g id="a_node2"><a xlink:href="a25611.html" target="_top" xlink:title=" ">
<polygon fill="none" stroke="black" points="0,-116.5 0,-228.5 105,-228.5 105,-116.5 0,-116.5"/>
<text text-anchor="start" x="8" y="-216.5" font-family="Helvetica,sans-Serif" font-size="10.00">SDK::TArray&lt; struct</text>
<text text-anchor="middle" x="52.5" y="-205.5" font-family="Helvetica,sans-Serif" font-size="10.00"> SDK::FVector &gt;</text>
<polyline fill="none" stroke="black" points="0,-198.5 105,-198.5 "/>
<text text-anchor="middle" x="52.5" y="-186.5" font-family="Helvetica,sans-Serif" font-size="10.00"> </text>
<polyline fill="none" stroke="black" points="0,-179.5 105,-179.5 "/>
<text text-anchor="start" x="8" y="-167.5" font-family="Helvetica,sans-Serif" font-size="10.00">+ TArray()</text>
<text text-anchor="start" x="8" y="-156.5" font-family="Helvetica,sans-Serif" font-size="10.00">+ Num()</text>
<text text-anchor="start" x="8" y="-145.5" font-family="Helvetica,sans-Serif" font-size="10.00">+ operator[]()</text>
<text text-anchor="start" x="8" y="-134.5" font-family="Helvetica,sans-Serif" font-size="10.00">+ operator[]()</text>
<text text-anchor="start" x="8" y="-123.5" font-family="Helvetica,sans-Serif" font-size="10.00">+ IsValidIndex()</text>
</a>
</g>
</g>
<!-- Node2&#45;&gt;Node1 -->
<g id="edge1" class="edge"><title>Node2&#45;&gt;Node1</title>
<path fill="none" stroke="#404040" d="M76.2589,-116.387C83.1219,-100.467 90.4643,-83.4353 96.8,-68.7386"/>
<polygon fill="none" stroke="#404040" points="96.8863,-68.5383 95.5883,-61.445 101.637,-57.5187 102.935,-64.612 96.8863,-68.5383"/>
<text text-anchor="middle" x="119.5" y="-90" font-family="Helvetica,sans-Serif" font-size="10.00"> +PosKeys</text>
<text text-anchor="middle" x="119.5" y="-79" font-family="Helvetica,sans-Serif" font-size="10.00">+ScaleKeys</text>
</g>
<!-- Node3 -->
<g id="node3" class="node"><title>Node3</title>
<g id="a_node3"><a xlink:href="a25611.html" target="_top" xlink:title=" ">
<polygon fill="none" stroke="black" points="123,-116.5 123,-228.5 228,-228.5 228,-116.5 123,-116.5"/>
<text text-anchor="start" x="131" y="-216.5" font-family="Helvetica,sans-Serif" font-size="10.00">SDK::TArray&lt; struct</text>
<text text-anchor="middle" x="175.5" y="-205.5" font-family="Helvetica,sans-Serif" font-size="10.00"> SDK::FQuat &gt;</text>
<polyline fill="none" stroke="black" points="123,-198.5 228,-198.5 "/>
<text text-anchor="middle" x="175.5" y="-186.5" font-family="Helvetica,sans-Serif" font-size="10.00"> </text>
<polyline fill="none" stroke="black" points="123,-179.5 228,-179.5 "/>
<text text-anchor="start" x="131" y="-167.5" font-family="Helvetica,sans-Serif" font-size="10.00">+ TArray()</text>
<text text-anchor="start" x="131" y="-156.5" font-family="Helvetica,sans-Serif" font-size="10.00">+ Num()</text>
<text text-anchor="start" x="131" y="-145.5" font-family="Helvetica,sans-Serif" font-size="10.00">+ operator[]()</text>
<text text-anchor="start" x="131" y="-134.5" font-family="Helvetica,sans-Serif" font-size="10.00">+ operator[]()</text>
<text text-anchor="start" x="131" y="-123.5" font-family="Helvetica,sans-Serif" font-size="10.00">+ IsValidIndex()</text>
</a>
</g>
</g>
<!-- Node3&#45;&gt;Node1 -->
<g id="edge2" class="edge"><title>Node3&#45;&gt;Node1</title>
<path fill="none" stroke="#404040" d="M165.181,-116.012C161.543,-102.511 156.746,-88.3976 150.5,-76 149.108,-73.237 147.53,-70.486 145.828,-67.7825"/>
<polygon fill="none" stroke="#404040" points="145.644,-67.5177 138.934,-64.8763 138.792,-57.6666 145.502,-60.3079 145.644,-67.5177"/>
<text text-anchor="middle" x="182" y="-84.5" font-family="Helvetica,sans-Serif" font-size="10.00"> +RotKeys</text>
</g>
</g>
</svg>
