<?xml version="1.0" encoding="UTF-8" standalone="no"?>
<!DOCTYPE svg PUBLIC "-//W3C//DTD SVG 1.1//EN"
 "http://www.w3.org/Graphics/SVG/1.1/DTD/svg11.dtd">
<!-- Generated by graphviz version 2.38.0 (20140413.2041)
 -->
<!-- Title: SDK::FAnimNode_BlendListByInt Pages: 1 -->
<svg width="378pt" height="288pt"
 viewBox="0.00 0.00 377.58 288.00" xmlns="http://www.w3.org/2000/svg" xmlns:xlink="http://www.w3.org/1999/xlink">
<g id="graph0" class="graph" transform="scale(1 1) rotate(0) translate(4 284)">
<title>SDK::FAnimNode_BlendListByInt</title>
<!-- Node1 -->
<g id="node1" class="node"><title>Node1</title>
<g id="a_node1"><a xlink:title=" ">
<polygon fill="#bfbfbf" stroke="black" points="112.58,-0.5 112.58,-68.5 252.58,-68.5 252.58,-0.5 112.58,-0.5"/>
<text text-anchor="start" x="120.58" y="-56.5" font-family="Helvetica,sans-Serif" font-size="10.00">SDK::FAnimNode_BlendList</text>
<text text-anchor="middle" x="182.58" y="-45.5" font-family="Helvetica,sans-Serif" font-size="10.00">ByInt</text>
<polyline fill="none" stroke="black" points="112.58,-38.5 252.58,-38.5 "/>
<text text-anchor="middle" x="182.58" y="-26.5" font-family="Helvetica,sans-Serif" font-size="10.00"> </text>
<polyline fill="none" stroke="black" points="112.58,-19.5 252.58,-19.5 "/>
<text text-anchor="middle" x="182.58" y="-7.5" font-family="Helvetica,sans-Serif" font-size="10.00"> </text>
</a>
</g>
</g>
<!-- Node2 -->
<g id="node2" class="node"><title>Node2</title>
<g id="a_node2"><a xlink:href="a31843.html" target="_top" xlink:title=" ">
<polygon fill="none" stroke="red" points="101.58,-106.5 101.58,-163.5 263.58,-163.5 263.58,-106.5 101.58,-106.5"/>
<text text-anchor="middle" x="182.58" y="-151.5" font-family="Helvetica,sans-Serif" font-size="10.00">SDK::FAnimNode_BlendListBase</text>
<polyline fill="none" stroke="red" points="101.58,-144.5 263.58,-144.5 "/>
<text text-anchor="middle" x="182.58" y="-132.5" font-family="Helvetica,sans-Serif" font-size="10.00"> </text>
<polyline fill="none" stroke="red" points="101.58,-125.5 263.58,-125.5 "/>
<text text-anchor="middle" x="182.58" y="-113.5" font-family="Helvetica,sans-Serif" font-size="10.00"> </text>
</a>
</g>
</g>
<!-- Node2&#45;&gt;Node1 -->
<g id="edge1" class="edge"><title>Node2&#45;&gt;Node1</title>
<path fill="none" stroke="midnightblue" d="M182.58,-96.0069C182.58,-86.9624 182.58,-77.3826 182.58,-68.5784"/>
<polygon fill="none" stroke="midnightblue" points="179.08,-96.3001 182.58,-106.3 186.08,-96.3002 179.08,-96.3001"/>
</g>
<!-- Node8 -->
<g id="node3" class="node"><title>Node8</title>
<g id="a_node3"><a xlink:title=" ">
<polygon fill="none" stroke="#bfbfbf" points="14.0796,-222.5 14.0796,-279.5 49.0796,-279.5 49.0796,-222.5 14.0796,-222.5"/>
<text text-anchor="middle" x="31.5796" y="-267.5" font-family="Helvetica,sans-Serif" font-size="10.00">char</text>
<polyline fill="none" stroke="#bfbfbf" points="14.0796,-260.5 49.0796,-260.5 "/>
<text text-anchor="middle" x="31.5796" y="-248.5" font-family="Helvetica,sans-Serif" font-size="10.00"> </text>
<polyline fill="none" stroke="#bfbfbf" points="14.0796,-241.5 49.0796,-241.5 "/>
<text text-anchor="middle" x="31.5796" y="-229.5" font-family="Helvetica,sans-Serif" font-size="10.00"> </text>
</a>
</g>
</g>
<!-- Node8&#45;&gt;Node1 -->
<g id="edge4" class="edge"><title>Node8&#45;&gt;Node1</title>
<path fill="none" stroke="#404040" d="M17.686,-222.307C4.31191,-191.326 -10.7391,-140.915 12.5796,-106 32.5014,-76.1714 67.6431,-58.9465 100.825,-49.0074"/>
<polygon fill="none" stroke="#404040" points="100.887,-48.9902 105.601,-43.5337 112.452,-45.787 107.737,-51.2435 100.887,-48.9902"/>
<text text-anchor="middle" x="52.5796" y="-132.5" font-family="Helvetica,sans-Serif" font-size="10.00"> +UnknownData00</text>
</g>
<!-- Node8&#45;&gt;Node2 -->
<g id="edge2" class="edge"><title>Node8&#45;&gt;Node2</title>
<path fill="none" stroke="#404040" d="M49.2892,-227.675C61.3243,-213.448 78.1701,-195.263 95.5796,-182 101.152,-177.755 107.171,-173.69 113.35,-169.856"/>
<polygon fill="none" stroke="#404040" points="113.529,-169.75 116.65,-163.249 123.851,-163.63 120.73,-170.131 113.529,-169.75"/>
<text text-anchor="middle" x="135.58" y="-196" font-family="Helvetica,sans-Serif" font-size="10.00"> +UnknownData01</text>
<text text-anchor="middle" x="135.58" y="-185" font-family="Helvetica,sans-Serif" font-size="10.00">+UnknownData00</text>
</g>
<!-- Node27 -->
<g id="node4" class="node"><title>Node27</title>
<g id="a_node4"><a xlink:title=" ">
<polygon fill="none" stroke="#bfbfbf" points="227.08,-222.5 227.08,-279.5 256.08,-279.5 256.08,-222.5 227.08,-222.5"/>
<text text-anchor="middle" x="241.58" y="-267.5" font-family="Helvetica,sans-Serif" font-size="10.00">int</text>
<polyline fill="none" stroke="#bfbfbf" points="227.08,-260.5 256.08,-260.5 "/>
<text text-anchor="middle" x="241.58" y="-248.5" font-family="Helvetica,sans-Serif" font-size="10.00"> </text>
<polyline fill="none" stroke="#bfbfbf" points="227.08,-241.5 256.08,-241.5 "/>
<text text-anchor="middle" x="241.58" y="-229.5" font-family="Helvetica,sans-Serif" font-size="10.00"> </text>
</a>
</g>
</g>
<!-- Node27&#45;&gt;Node1 -->
<g id="edge5" class="edge"><title>Node27&#45;&gt;Node1</title>
<path fill="none" stroke="#404040" d="M256.508,-239.423C266.837,-231.124 279.736,-218.564 285.58,-204 295.419,-179.478 288.084,-131.991 272.58,-106 266.107,-95.1493 257.289,-85.3358 247.691,-76.7145"/>
<polygon fill="none" stroke="#404040" points="247.486,-76.5423 240.32,-75.7422 238.302,-68.8192 245.468,-69.6193 247.486,-76.5423"/>
<text text-anchor="middle" x="329.08" y="-132.5" font-family="Helvetica,sans-Serif" font-size="10.00"> +ActiveChildIndex</text>
</g>
<!-- Node27&#45;&gt;Node2 -->
<g id="edge3" class="edge"><title>Node27&#45;&gt;Node2</title>
<path fill="none" stroke="#404040" d="M226.896,-242.61C213.474,-234.967 194.413,-221.668 185.58,-204 181.318,-195.475 179.443,-185.572 178.875,-176.005"/>
<polygon fill="none" stroke="#404040" points="178.874,-175.766 174.832,-169.794 178.79,-163.767 182.832,-169.739 178.874,-175.766"/>
<text text-anchor="middle" x="235.58" y="-190.5" font-family="Helvetica,sans-Serif" font-size="10.00"> +LastActiveChildIndex</text>
</g>
</g>
</svg>
