<?xml version="1.0" encoding="UTF-8" standalone="no"?>
<!DOCTYPE svg PUBLIC "-//W3C//DTD SVG 1.1//EN"
 "http://www.w3.org/Graphics/SVG/1.1/DTD/svg11.dtd">
<!-- Generated by graphviz version 2.38.0 (20140413.2041)
 -->
<!-- Title: SDK::FAnimNode_TransitionResult Pages: 1 -->
<svg width="161pt" height="193pt"
 viewBox="0.00 0.00 161.00 193.00" xmlns="http://www.w3.org/2000/svg" xmlns:xlink="http://www.w3.org/1999/xlink">
<g id="graph0" class="graph" transform="scale(1 1) rotate(0) translate(4 189)">
<title>SDK::FAnimNode_TransitionResult</title>
<!-- Node1 -->
<g id="node1" class="node"><title>Node1</title>
<g id="a_node1"><a xlink:title=" ">
<polygon fill="#bfbfbf" stroke="black" points="6,-0.5 6,-79.5 147,-79.5 147,-0.5 6,-0.5"/>
<text text-anchor="start" x="14" y="-67.5" font-family="Helvetica,sans-Serif" font-size="10.00">SDK::FAnimNode_Transition</text>
<text text-anchor="middle" x="76.5" y="-56.5" font-family="Helvetica,sans-Serif" font-size="10.00">Result</text>
<polyline fill="none" stroke="black" points="6,-49.5 147,-49.5 "/>
<text text-anchor="start" x="14" y="-37.5" font-family="Helvetica,sans-Serif" font-size="10.00">+ bCanEnterTransition</text>
<text text-anchor="start" x="14" y="-26.5" font-family="Helvetica,sans-Serif" font-size="10.00">+ UnknownData00</text>
<polyline fill="none" stroke="black" points="6,-19.5 147,-19.5 "/>
<text text-anchor="middle" x="76.5" y="-7.5" font-family="Helvetica,sans-Serif" font-size="10.00"> </text>
</a>
</g>
</g>
<!-- Node2 -->
<g id="node2" class="node"><title>Node2</title>
<g id="a_node2"><a xlink:href="a31255.html" target="_top" xlink:title=" ">
<polygon fill="none" stroke="black" points="0,-116.5 0,-184.5 153,-184.5 153,-116.5 0,-116.5"/>
<text text-anchor="middle" x="76.5" y="-172.5" font-family="Helvetica,sans-Serif" font-size="10.00">SDK::FAnimNode_Base</text>
<polyline fill="none" stroke="black" points="0,-165.5 153,-165.5 "/>
<text text-anchor="start" x="8" y="-153.5" font-family="Helvetica,sans-Serif" font-size="10.00">+ UnknownData00</text>
<text text-anchor="start" x="8" y="-142.5" font-family="Helvetica,sans-Serif" font-size="10.00">+ EvaluateGraphExposedInputs</text>
<polyline fill="none" stroke="black" points="0,-135.5 153,-135.5 "/>
<text text-anchor="middle" x="76.5" y="-123.5" font-family="Helvetica,sans-Serif" font-size="10.00"> </text>
</a>
</g>
</g>
<!-- Node2&#45;&gt;Node1 -->
<g id="edge1" class="edge"><title>Node2&#45;&gt;Node1</title>
<path fill="none" stroke="midnightblue" d="M76.5,-106.274C76.5,-97.4764 76.5,-88.2753 76.5,-79.6493"/>
<polygon fill="none" stroke="midnightblue" points="73.0001,-106.357 76.5,-116.357 80.0001,-106.357 73.0001,-106.357"/>
</g>
</g>
</svg>
