<?xml version="1.0" encoding="UTF-8" standalone="no"?>
<!DOCTYPE svg PUBLIC "-//W3C//DTD SVG 1.1//EN"
 "http://www.w3.org/Graphics/SVG/1.1/DTD/svg11.dtd">
<!-- Generated by graphviz version 2.38.0 (20140413.2041)
 -->
<!-- Title: SDK::FServerMigrationTelemetrySucceededData Pages: 1 -->
<svg width="316pt" height="270pt"
 viewBox="0.00 0.00 316.00 270.00" xmlns="http://www.w3.org/2000/svg" xmlns:xlink="http://www.w3.org/1999/xlink">
<g id="graph0" class="graph" transform="scale(1 1) rotate(0) translate(4 266)">
<title>SDK::FServerMigrationTelemetrySucceededData</title>
<!-- Node1 -->
<g id="node1" class="node"><title>Node1</title>
<g id="a_node1"><a xlink:title=" ">
<polygon fill="#bfbfbf" stroke="black" points="13.5,-0.5 13.5,-68.5 171.5,-68.5 171.5,-0.5 13.5,-0.5"/>
<text text-anchor="start" x="21.5" y="-56.5" font-family="Helvetica,sans-Serif" font-size="10.00">SDK::FServerMigrationTelemetry</text>
<text text-anchor="middle" x="92.5" y="-45.5" font-family="Helvetica,sans-Serif" font-size="10.00">SucceededData</text>
<polyline fill="none" stroke="black" points="13.5,-38.5 171.5,-38.5 "/>
<text text-anchor="middle" x="92.5" y="-26.5" font-family="Helvetica,sans-Serif" font-size="10.00"> </text>
<polyline fill="none" stroke="black" points="13.5,-19.5 171.5,-19.5 "/>
<text text-anchor="middle" x="92.5" y="-7.5" font-family="Helvetica,sans-Serif" font-size="10.00"> </text>
</a>
</g>
</g>
<!-- Node2 -->
<g id="node2" class="node"><title>Node2</title>
<g id="a_node2"><a xlink:title=" ">
<polygon fill="none" stroke="#bfbfbf" points="0,-171.5 0,-228.5 35,-228.5 35,-171.5 0,-171.5"/>
<text text-anchor="middle" x="17.5" y="-216.5" font-family="Helvetica,sans-Serif" font-size="10.00">float</text>
<polyline fill="none" stroke="#bfbfbf" points="0,-209.5 35,-209.5 "/>
<text text-anchor="middle" x="17.5" y="-197.5" font-family="Helvetica,sans-Serif" font-size="10.00"> </text>
<polyline fill="none" stroke="#bfbfbf" points="0,-190.5 35,-190.5 "/>
<text text-anchor="middle" x="17.5" y="-178.5" font-family="Helvetica,sans-Serif" font-size="10.00"> </text>
</a>
</g>
</g>
<!-- Node2&#45;&gt;Node1 -->
<g id="edge1" class="edge"><title>Node2&#45;&gt;Node1</title>
<path fill="none" stroke="#404040" d="M17.2925,-171.138C18.2282,-147.433 22.2842,-113.169 36.5,-87 38.1551,-83.9533 40.0595,-80.99 42.1448,-78.1249"/>
<polygon fill="none" stroke="#404040" points="42.2066,-78.0498 42.9306,-70.8751 49.8319,-68.784 49.1078,-75.9587 42.2066,-78.0498"/>
<text text-anchor="middle" x="62.5" y="-101" font-family="Helvetica,sans-Serif" font-size="10.00"> +TotalTime</text>
</g>
<!-- Node3 -->
<g id="node3" class="node"><title>Node3</title>
<g id="a_node3"><a xlink:title=" ">
<polygon fill="none" stroke="#bfbfbf" points="78,-171.5 78,-228.5 107,-228.5 107,-171.5 78,-171.5"/>
<text text-anchor="middle" x="92.5" y="-216.5" font-family="Helvetica,sans-Serif" font-size="10.00">int</text>
<polyline fill="none" stroke="#bfbfbf" points="78,-209.5 107,-209.5 "/>
<text text-anchor="middle" x="92.5" y="-197.5" font-family="Helvetica,sans-Serif" font-size="10.00"> </text>
<polyline fill="none" stroke="#bfbfbf" points="78,-190.5 107,-190.5 "/>
<text text-anchor="middle" x="92.5" y="-178.5" font-family="Helvetica,sans-Serif" font-size="10.00"> </text>
</a>
</g>
</g>
<!-- Node3&#45;&gt;Node1 -->
<g id="edge2" class="edge"><title>Node3&#45;&gt;Node1</title>
<path fill="none" stroke="#404040" d="M92.5,-171.264C92.5,-146.582 92.5,-110.01 92.5,-81.0404"/>
<polygon fill="none" stroke="#404040" points="92.5001,-80.7421 88.5,-74.7422 92.5,-68.7421 96.5,-74.7421 92.5001,-80.7421"/>
<text text-anchor="middle" x="148.5" y="-112" font-family="Helvetica,sans-Serif" font-size="10.00"> +ActorSerialisationBytes</text>
<text text-anchor="middle" x="148.5" y="-101" font-family="Helvetica,sans-Serif" font-size="10.00">+NumActorsMigrated</text>
<text text-anchor="middle" x="148.5" y="-90" font-family="Helvetica,sans-Serif" font-size="10.00">+NumClients</text>
</g>
<!-- Node4 -->
<g id="node4" class="node"><title>Node4</title>
<g id="a_node4"><a xlink:href="a25611.html" target="_top" xlink:title=" ">
<polygon fill="none" stroke="black" points="147,-138.5 147,-261.5 308,-261.5 308,-138.5 147,-138.5"/>
<text text-anchor="start" x="155" y="-249.5" font-family="Helvetica,sans-Serif" font-size="10.00">SDK::TArray&lt; struct</text>
<text text-anchor="start" x="155" y="-238.5" font-family="Helvetica,sans-Serif" font-size="10.00"> SDK::FServerMigrationTelemetry</text>
<text text-anchor="middle" x="227.5" y="-227.5" font-family="Helvetica,sans-Serif" font-size="10.00">ActorData &gt;</text>
<polyline fill="none" stroke="black" points="147,-220.5 308,-220.5 "/>
<text text-anchor="middle" x="227.5" y="-208.5" font-family="Helvetica,sans-Serif" font-size="10.00"> </text>
<polyline fill="none" stroke="black" points="147,-201.5 308,-201.5 "/>
<text text-anchor="start" x="155" y="-189.5" font-family="Helvetica,sans-Serif" font-size="10.00">+ TArray()</text>
<text text-anchor="start" x="155" y="-178.5" font-family="Helvetica,sans-Serif" font-size="10.00">+ Num()</text>
<text text-anchor="start" x="155" y="-167.5" font-family="Helvetica,sans-Serif" font-size="10.00">+ operator[]()</text>
<text text-anchor="start" x="155" y="-156.5" font-family="Helvetica,sans-Serif" font-size="10.00">+ operator[]()</text>
<text text-anchor="start" x="155" y="-145.5" font-family="Helvetica,sans-Serif" font-size="10.00">+ IsValidIndex()</text>
</a>
</g>
</g>
<!-- Node4&#45;&gt;Node1 -->
<g id="edge3" class="edge"><title>Node4&#45;&gt;Node1</title>
<path fill="none" stroke="#404040" d="M226.043,-138.482C223.015,-120.398 216.985,-101.539 205.5,-87 198.995,-78.7644 190.877,-71.7987 181.996,-65.9177"/>
<polygon fill="none" stroke="#404040" points="181.978,-65.9067 174.775,-66.247 171.69,-59.7289 178.893,-59.3886 181.978,-65.9067"/>
<text text-anchor="middle" x="253" y="-101" font-family="Helvetica,sans-Serif" font-size="10.00"> +ActorDetails</text>
</g>
</g>
</svg>
