<?xml version="1.0" encoding="UTF-8" standalone="no"?>
<!DOCTYPE svg PUBLIC "-//W3C//DTD SVG 1.1//EN"
 "http://www.w3.org/Graphics/SVG/1.1/DTD/svg11.dtd">
<!-- Generated by graphviz version 2.38.0 (20140413.2041)
 -->
<!-- Title: SDK::FShipFireVFXParams Pages: 1 -->
<svg width="790pt" height="606pt"
 viewBox="0.00 0.00 789.60 606.00" xmlns="http://www.w3.org/2000/svg" xmlns:xlink="http://www.w3.org/1999/xlink">
<g id="graph0" class="graph" transform="scale(1 1) rotate(0) translate(4 602)">
<title>SDK::FShipFireVFXParams</title>
<!-- Node1 -->
<g id="node1" class="node"><title>Node1</title>
<g id="a_node1"><a xlink:title=" ">
<polygon fill="#bfbfbf" stroke="black" points="273.096,-0.5 273.096,-57.5 410.096,-57.5 410.096,-0.5 273.096,-0.5"/>
<text text-anchor="middle" x="341.596" y="-45.5" font-family="Helvetica,sans-Serif" font-size="10.00">SDK::FShipFireVFXParams</text>
<polyline fill="none" stroke="black" points="273.096,-38.5 410.096,-38.5 "/>
<text text-anchor="middle" x="341.596" y="-26.5" font-family="Helvetica,sans-Serif" font-size="10.00"> </text>
<polyline fill="none" stroke="black" points="273.096,-19.5 410.096,-19.5 "/>
<text text-anchor="middle" x="341.596" y="-7.5" font-family="Helvetica,sans-Serif" font-size="10.00"> </text>
</a>
</g>
</g>
<!-- Node2 -->
<g id="node2" class="node"><title>Node2</title>
<g id="a_node2"><a xlink:title=" ">
<polygon fill="none" stroke="#bfbfbf" points="30.0957,-540.5 30.0957,-597.5 65.0957,-597.5 65.0957,-540.5 30.0957,-540.5"/>
<text text-anchor="middle" x="47.5957" y="-585.5" font-family="Helvetica,sans-Serif" font-size="10.00">char</text>
<polyline fill="none" stroke="#bfbfbf" points="30.0957,-578.5 65.0957,-578.5 "/>
<text text-anchor="middle" x="47.5957" y="-566.5" font-family="Helvetica,sans-Serif" font-size="10.00"> </text>
<polyline fill="none" stroke="#bfbfbf" points="30.0957,-559.5 65.0957,-559.5 "/>
<text text-anchor="middle" x="47.5957" y="-547.5" font-family="Helvetica,sans-Serif" font-size="10.00"> </text>
</a>
</g>
</g>
<!-- Node2&#45;&gt;Node1 -->
<g id="edge1" class="edge"><title>Node2&#45;&gt;Node1</title>
<path fill="none" stroke="#404040" d="M37.9855,-540.383C15.1729,-469.638 -34.9728,-278.382 39.5957,-149 83.7784,-72.3397 187.365,-44.9507 260.869,-35.2316"/>
<polygon fill="none" stroke="#404040" points="260.938,-35.2232 266.408,-30.5248 272.849,-33.7672 267.379,-38.4657 260.938,-35.2232"/>
<text text-anchor="middle" x="79.5957" y="-252.5" font-family="Helvetica,sans-Serif" font-size="10.00"> +UnknownData00</text>
</g>
<!-- Node6 -->
<g id="node6" class="node"><title>Node6</title>
<g id="a_node6"><a xlink:href="a27007.html" target="_top" xlink:title=" ">
<polygon fill="none" stroke="red" points="128.596,-149.5 128.596,-360.5 292.596,-360.5 292.596,-149.5 128.596,-149.5"/>
<text text-anchor="middle" x="210.596" y="-348.5" font-family="Helvetica,sans-Serif" font-size="10.00">SDK::UParticleSystem</text>
<polyline fill="none" stroke="red" points="128.596,-341.5 292.596,-341.5 "/>
<text text-anchor="start" x="136.596" y="-329.5" font-family="Helvetica,sans-Serif" font-size="10.00">+ UnknownData00</text>
<text text-anchor="start" x="136.596" y="-318.5" font-family="Helvetica,sans-Serif" font-size="10.00">+ bRegenerateLODDuplicate</text>
<text text-anchor="start" x="136.596" y="-307.5" font-family="Helvetica,sans-Serif" font-size="10.00">+ bIgnoreBoundsRotation</text>
<text text-anchor="start" x="136.596" y="-296.5" font-family="Helvetica,sans-Serif" font-size="10.00">+ bUseFixedRelativeBoundingBox</text>
<text text-anchor="start" x="136.596" y="-285.5" font-family="Helvetica,sans-Serif" font-size="10.00">+ UnknownData06</text>
<text text-anchor="start" x="136.596" y="-274.5" font-family="Helvetica,sans-Serif" font-size="10.00">+ bShouldResetPeakCounts</text>
<text text-anchor="start" x="136.596" y="-263.5" font-family="Helvetica,sans-Serif" font-size="10.00">+ bHasPhysics</text>
<text text-anchor="start" x="136.596" y="-252.5" font-family="Helvetica,sans-Serif" font-size="10.00">+ bPostPhysicsTick</text>
<text text-anchor="start" x="136.596" y="-241.5" font-family="Helvetica,sans-Serif" font-size="10.00">+ bUseRealtimeThumbnail</text>
<text text-anchor="start" x="136.596" y="-230.5" font-family="Helvetica,sans-Serif" font-size="10.00">+ UnknownData07</text>
<text text-anchor="start" x="136.596" y="-219.5" font-family="Helvetica,sans-Serif" font-size="10.00">+ bUseDelayRange</text>
<text text-anchor="start" x="136.596" y="-208.5" font-family="Helvetica,sans-Serif" font-size="10.00">+ UnknownData08</text>
<text text-anchor="start" x="136.596" y="-197.5" font-family="Helvetica,sans-Serif" font-size="10.00">+ UnknownData09</text>
<polyline fill="none" stroke="red" points="128.596,-190.5 292.596,-190.5 "/>
<text text-anchor="start" x="136.596" y="-178.5" font-family="Helvetica,sans-Serif" font-size="10.00">+ GetNumLODs()</text>
<text text-anchor="start" x="136.596" y="-167.5" font-family="Helvetica,sans-Serif" font-size="10.00">+ ContainsEmitterType()</text>
<text text-anchor="start" x="136.596" y="-156.5" font-family="Helvetica,sans-Serif" font-size="10.00">+ StaticClass()</text>
</a>
</g>
</g>
<!-- Node2&#45;&gt;Node6 -->
<g id="edge7" class="edge"><title>Node2&#45;&gt;Node6</title>
<path fill="none" stroke="#404040" d="M47.6124,-540.307C48.1786,-494.052 51.7476,-403.702 70.5957,-379 83.4125,-362.203 97.2683,-373.091 114.596,-361 115.906,-360.086 117.211,-359.151 118.511,-358.196"/>
<polygon fill="none" stroke="#404040" points="118.89,-357.902 121.167,-351.06 128.359,-350.531 126.081,-357.373 118.89,-357.902"/>
<text text-anchor="middle" x="134.096" y="-514" font-family="Helvetica,sans-Serif" font-size="10.00"> +UnknownData01</text>
<text text-anchor="middle" x="134.096" y="-503" font-family="Helvetica,sans-Serif" font-size="10.00">+UnknownData02</text>
<text text-anchor="middle" x="134.096" y="-492" font-family="Helvetica,sans-Serif" font-size="10.00">+UnknownData10</text>
<text text-anchor="start" x="70.5957" y="-481" font-family="Helvetica,sans-Serif" font-size="10.00">+bBoostParticleAggregation</text>
<text text-anchor="middle" x="134.096" y="-470" font-family="Helvetica,sans-Serif" font-size="10.00">Priority</text>
<text text-anchor="middle" x="134.096" y="-459" font-family="Helvetica,sans-Serif" font-size="10.00">+UnknownData03</text>
<text text-anchor="start" x="70.5957" y="-448" font-family="Helvetica,sans-Serif" font-size="10.00">+bUseLowResTranslucency</text>
<text text-anchor="middle" x="134.096" y="-437" font-family="Helvetica,sans-Serif" font-size="10.00">BoundingBox</text>
<text text-anchor="middle" x="134.096" y="-426" font-family="Helvetica,sans-Serif" font-size="10.00">+UnknownData04</text>
<text text-anchor="middle" x="134.096" y="-415" font-family="Helvetica,sans-Serif" font-size="10.00">+bOrientZAxisTowardCamera</text>
<text text-anchor="middle" x="134.096" y="-404" font-family="Helvetica,sans-Serif" font-size="10.00">+UnknownData05</text>
<text text-anchor="middle" x="134.096" y="-393" font-family="Helvetica,sans-Serif" font-size="10.00">+ThumbnailImageOutOfDate</text>
<text text-anchor="middle" x="134.096" y="-382" font-family="Helvetica,sans-Serif" font-size="10.00">...</text>
</g>
<!-- Node3 -->
<g id="node3" class="node"><title>Node3</title>
<g id="a_node3"><a xlink:title=" ">
<polygon fill="none" stroke="#bfbfbf" points="260.096,-540.5 260.096,-597.5 295.096,-597.5 295.096,-540.5 260.096,-540.5"/>
<text text-anchor="middle" x="277.596" y="-585.5" font-family="Helvetica,sans-Serif" font-size="10.00">float</text>
<polyline fill="none" stroke="#bfbfbf" points="260.096,-578.5 295.096,-578.5 "/>
<text text-anchor="middle" x="277.596" y="-566.5" font-family="Helvetica,sans-Serif" font-size="10.00"> </text>
<polyline fill="none" stroke="#bfbfbf" points="260.096,-559.5 295.096,-559.5 "/>
<text text-anchor="middle" x="277.596" y="-547.5" font-family="Helvetica,sans-Serif" font-size="10.00"> </text>
</a>
</g>
</g>
<!-- Node3&#45;&gt;Node1 -->
<g id="edge2" class="edge"><title>Node3&#45;&gt;Node1</title>
<path fill="none" stroke="#404040" d="M295.368,-557.13C306.842,-549.021 320.843,-536.811 327.596,-522 346.114,-481.379 343.728,-179.225 342.227,-69.5917"/>
<polygon fill="none" stroke="#404040" points="342.225,-69.5016 338.14,-63.5594 342.054,-57.5028 346.139,-63.445 342.225,-69.5016"/>
<text text-anchor="start" x="343.596" y="-274.5" font-family="Helvetica,sans-Serif" font-size="10.00"> +TopDeckLowDetailTransition</text>
<text text-anchor="middle" x="409.596" y="-263.5" font-family="Helvetica,sans-Serif" font-size="10.00">WarmupTime</text>
<text text-anchor="start" x="343.596" y="-252.5" font-family="Helvetica,sans-Serif" font-size="10.00">+KillSphereRadiusForDousing</text>
<text text-anchor="middle" x="409.596" y="-241.5" font-family="Helvetica,sans-Serif" font-size="10.00">Fire</text>
<text text-anchor="middle" x="409.596" y="-230.5" font-family="Helvetica,sans-Serif" font-size="10.00">+TickIntervalForAllCells</text>
</g>
<!-- Node3&#45;&gt;Node6 -->
<g id="edge6" class="edge"><title>Node3&#45;&gt;Node6</title>
<path fill="none" stroke="#404040" d="M259.832,-560.589C244.762,-553.239 224.119,-540.402 214.596,-522 201.265,-496.241 200.052,-431.731 202.275,-372.693"/>
<polygon fill="none" stroke="#404040" points="202.28,-372.573 198.534,-366.412 202.78,-360.584 206.527,-366.746 202.28,-372.573"/>
<text text-anchor="middle" x="271.096" y="-492" font-family="Helvetica,sans-Serif" font-size="10.00"> +UpdateTime_Delta</text>
<text text-anchor="middle" x="271.096" y="-481" font-family="Helvetica,sans-Serif" font-size="10.00">+Delay</text>
<text text-anchor="middle" x="271.096" y="-470" font-family="Helvetica,sans-Serif" font-size="10.00">+SecondsBeforeInactive</text>
<text text-anchor="middle" x="271.096" y="-459" font-family="Helvetica,sans-Serif" font-size="10.00">+LODDistanceCheckTime</text>
<text text-anchor="middle" x="271.096" y="-448" font-family="Helvetica,sans-Serif" font-size="10.00">+MacroUVRadius</text>
<text text-anchor="middle" x="271.096" y="-437" font-family="Helvetica,sans-Serif" font-size="10.00">+WarmupTime</text>
<text text-anchor="middle" x="271.096" y="-426" font-family="Helvetica,sans-Serif" font-size="10.00">+WarmupTickRate</text>
<text text-anchor="middle" x="271.096" y="-415" font-family="Helvetica,sans-Serif" font-size="10.00">+DelayLow</text>
<text text-anchor="middle" x="271.096" y="-404" font-family="Helvetica,sans-Serif" font-size="10.00">+UpdateTime_FPS</text>
</g>
<!-- Node4 -->
<g id="node4" class="node"><title>Node4</title>
<g id="a_node4"><a xlink:href="a25611.html" target="_top" xlink:title=" ">
<polygon fill="none" stroke="black" points="492.096,-193.5 492.096,-316.5 633.096,-316.5 633.096,-193.5 492.096,-193.5"/>
<text text-anchor="start" x="500.096" y="-304.5" font-family="Helvetica,sans-Serif" font-size="10.00">SDK::TArray&lt; struct</text>
<text text-anchor="start" x="500.096" y="-293.5" font-family="Helvetica,sans-Serif" font-size="10.00"> SDK::FFireCellStateParticle</text>
<text text-anchor="middle" x="562.596" y="-282.5" font-family="Helvetica,sans-Serif" font-size="10.00">Template &gt;</text>
<polyline fill="none" stroke="black" points="492.096,-275.5 633.096,-275.5 "/>
<text text-anchor="middle" x="562.596" y="-263.5" font-family="Helvetica,sans-Serif" font-size="10.00"> </text>
<polyline fill="none" stroke="black" points="492.096,-256.5 633.096,-256.5 "/>
<text text-anchor="start" x="500.096" y="-244.5" font-family="Helvetica,sans-Serif" font-size="10.00">+ TArray()</text>
<text text-anchor="start" x="500.096" y="-233.5" font-family="Helvetica,sans-Serif" font-size="10.00">+ Num()</text>
<text text-anchor="start" x="500.096" y="-222.5" font-family="Helvetica,sans-Serif" font-size="10.00">+ operator[]()</text>
<text text-anchor="start" x="500.096" y="-211.5" font-family="Helvetica,sans-Serif" font-size="10.00">+ operator[]()</text>
<text text-anchor="start" x="500.096" y="-200.5" font-family="Helvetica,sans-Serif" font-size="10.00">+ IsValidIndex()</text>
</a>
</g>
</g>
<!-- Node4&#45;&gt;Node1 -->
<g id="edge3" class="edge"><title>Node4&#45;&gt;Node1</title>
<path fill="none" stroke="#404040" d="M516.431,-193.348C504.281,-178.418 490.85,-162.773 477.596,-149 448.696,-118.971 413.17,-88.0651 385.675,-65.2772"/>
<polygon fill="none" stroke="#404040" points="385.575,-65.195 378.4,-64.4713 376.309,-57.5702 383.484,-58.2938 385.575,-65.195"/>
<text text-anchor="middle" x="516.596" y="-101" font-family="Helvetica,sans-Serif" font-size="10.00"> +DefaultParticleTemplates</text>
</g>
<!-- Node5 -->
<g id="node5" class="node"><title>Node5</title>
<g id="a_node5"><a xlink:title=" ">
<polygon fill="none" stroke="#bfbfbf" points="670.096,-226.5 670.096,-283.5 699.096,-283.5 699.096,-226.5 670.096,-226.5"/>
<text text-anchor="middle" x="684.596" y="-271.5" font-family="Helvetica,sans-Serif" font-size="10.00">int</text>
<polyline fill="none" stroke="#bfbfbf" points="670.096,-264.5 699.096,-264.5 "/>
<text text-anchor="middle" x="684.596" y="-252.5" font-family="Helvetica,sans-Serif" font-size="10.00"> </text>
<polyline fill="none" stroke="#bfbfbf" points="670.096,-245.5 699.096,-245.5 "/>
<text text-anchor="middle" x="684.596" y="-233.5" font-family="Helvetica,sans-Serif" font-size="10.00"> </text>
</a>
</g>
</g>
<!-- Node5&#45;&gt;Node1 -->
<g id="edge4" class="edge"><title>Node5&#45;&gt;Node1</title>
<path fill="none" stroke="#404040" d="M677.48,-226.237C665.261,-185.013 635.976,-108.944 579.596,-76 531.946,-48.1574 470.662,-36.7691 422.215,-32.2837"/>
<polygon fill="none" stroke="#404040" points="422.15,-32.2783 415.84,-35.7686 410.191,-31.2862 416.501,-27.796 422.15,-32.2783"/>
<text text-anchor="start" x="634.596" y="-112" font-family="Helvetica,sans-Serif" font-size="10.00"> +BelowDeckSmokeTranslucency</text>
<text text-anchor="middle" x="708.096" y="-101" font-family="Helvetica,sans-Serif" font-size="10.00">SortPriority</text>
<text text-anchor="middle" x="708.096" y="-90" font-family="Helvetica,sans-Serif" font-size="10.00">+NumInterleaveSpawnSteps</text>
</g>
<!-- Node6&#45;&gt;Node1 -->
<g id="edge5" class="edge"><title>Node6&#45;&gt;Node1</title>
<path fill="none" stroke="#404040" d="M170.647,-149.348C167.195,-123.375 169.899,-96.9937 185.596,-76 195.346,-62.959 227.976,-52.3317 260.889,-44.5903"/>
<polygon fill="none" stroke="#404040" points="261.279,-44.5028 266.255,-39.2837 272.987,-41.8697 268.01,-47.0888 261.279,-44.5028"/>
<text text-anchor="start" x="185.596" y="-123" font-family="Helvetica,sans-Serif" font-size="10.00"> +TopDeckLowDetailParticle</text>
<text text-anchor="middle" x="256.596" y="-112" font-family="Helvetica,sans-Serif" font-size="10.00">System</text>
<text text-anchor="start" x="185.596" y="-101" font-family="Helvetica,sans-Serif" font-size="10.00">+BelowDeckSmokeParticle</text>
<text text-anchor="middle" x="256.596" y="-90" font-family="Helvetica,sans-Serif" font-size="10.00">System</text>
<text text-anchor="middle" x="256.596" y="-79" font-family="Helvetica,sans-Serif" font-size="10.00">+TopDeckSmokeParticleSystem</text>
</g>
</g>
</svg>
