<?xml version="1.0" encoding="UTF-8" standalone="no"?>
<!DOCTYPE svg PUBLIC "-//W3C//DTD SVG 1.1//EN"
 "http://www.w3.org/Graphics/SVG/1.1/DTD/svg11.dtd">
<!-- Generated by graphviz version 2.38.0 (20140413.2041)
 -->
<!-- Title: SDK::FShipFireLowDetailRelativeSpawnDesc Pages: 1 -->
<svg width="302pt" height="237pt"
 viewBox="0.00 0.00 302.00 237.00" xmlns="http://www.w3.org/2000/svg" xmlns:xlink="http://www.w3.org/1999/xlink">
<g id="graph0" class="graph" transform="scale(1 1) rotate(0) translate(4 233)">
<title>SDK::FShipFireLowDetailRelativeSpawnDesc</title>
<!-- Node1 -->
<g id="node1" class="node"><title>Node1</title>
<g id="a_node1"><a xlink:title=" ">
<polygon fill="#bfbfbf" stroke="black" points="82.5,-0.5 82.5,-68.5 243.5,-68.5 243.5,-0.5 82.5,-0.5"/>
<text text-anchor="start" x="90.5" y="-56.5" font-family="Helvetica,sans-Serif" font-size="10.00">SDK::FShipFireLowDetailRelative</text>
<text text-anchor="middle" x="163" y="-45.5" font-family="Helvetica,sans-Serif" font-size="10.00">SpawnDesc</text>
<polyline fill="none" stroke="black" points="82.5,-38.5 243.5,-38.5 "/>
<text text-anchor="middle" x="163" y="-26.5" font-family="Helvetica,sans-Serif" font-size="10.00"> </text>
<polyline fill="none" stroke="black" points="82.5,-19.5 243.5,-19.5 "/>
<text text-anchor="middle" x="163" y="-7.5" font-family="Helvetica,sans-Serif" font-size="10.00"> </text>
</a>
</g>
</g>
<!-- Node2 -->
<g id="node2" class="node"><title>Node2</title>
<g id="a_node2"><a xlink:href="a32191.html" target="_top" xlink:title=" ">
<polygon fill="none" stroke="red" points="0,-144 0,-201 170,-201 170,-144 0,-144"/>
<text text-anchor="middle" x="85" y="-189" font-family="Helvetica,sans-Serif" font-size="10.00">SDK::FShipFireRelativeSpawnDesc</text>
<polyline fill="none" stroke="red" points="0,-182 170,-182 "/>
<text text-anchor="middle" x="85" y="-170" font-family="Helvetica,sans-Serif" font-size="10.00"> </text>
<polyline fill="none" stroke="red" points="0,-163 170,-163 "/>
<text text-anchor="middle" x="85" y="-151" font-family="Helvetica,sans-Serif" font-size="10.00"> </text>
</a>
</g>
</g>
<!-- Node2&#45;&gt;Node1 -->
<g id="edge1" class="edge"><title>Node2&#45;&gt;Node1</title>
<path fill="none" stroke="midnightblue" d="M105.833,-135.176C117.675,-114.528 132.394,-88.8635 143.932,-68.7476"/>
<polygon fill="none" stroke="midnightblue" points="102.724,-133.562 100.784,-143.978 108.796,-137.045 102.724,-133.562"/>
</g>
<!-- Node10 -->
<g id="node3" class="node"><title>Node10</title>
<g id="a_node3"><a xlink:href="a25627.html" target="_top" xlink:title=" ">
<polygon fill="none" stroke="red" points="188,-116.5 188,-228.5 294,-228.5 294,-116.5 188,-116.5"/>
<text text-anchor="middle" x="241" y="-216.5" font-family="Helvetica,sans-Serif" font-size="10.00">SDK::FName</text>
<polyline fill="none" stroke="red" points="188,-209.5 294,-209.5 "/>
<text text-anchor="middle" x="241" y="-197.5" font-family="Helvetica,sans-Serif" font-size="10.00"> </text>
<polyline fill="none" stroke="red" points="188,-190.5 294,-190.5 "/>
<text text-anchor="start" x="196" y="-178.5" font-family="Helvetica,sans-Serif" font-size="10.00">+ FName()</text>
<text text-anchor="start" x="196" y="-167.5" font-family="Helvetica,sans-Serif" font-size="10.00">+ FName()</text>
<text text-anchor="start" x="196" y="-156.5" font-family="Helvetica,sans-Serif" font-size="10.00">+ FName()</text>
<text text-anchor="start" x="196" y="-145.5" font-family="Helvetica,sans-Serif" font-size="10.00">+ GetName()</text>
<text text-anchor="start" x="196" y="-134.5" font-family="Helvetica,sans-Serif" font-size="10.00">+ operator==()</text>
<text text-anchor="start" x="196" y="-123.5" font-family="Helvetica,sans-Serif" font-size="10.00">+ GetGlobalNames()</text>
</a>
</g>
</g>
<!-- Node10&#45;&gt;Node1 -->
<g id="edge2" class="edge"><title>Node10&#45;&gt;Node1</title>
<path fill="none" stroke="#404040" d="M209.274,-116.184C202.17,-103.797 194.732,-90.8278 187.949,-79.0002"/>
<polygon fill="none" stroke="#404040" points="187.902,-78.9181 181.447,-75.7034 181.931,-68.5086 188.386,-71.7233 187.902,-78.9181"/>
<text text-anchor="middle" x="231.5" y="-90" font-family="Helvetica,sans-Serif" font-size="10.00"> +EmitterName</text>
</g>
</g>
</svg>
