<?xml version="1.0" encoding="UTF-8" standalone="no"?>
<!DOCTYPE svg PUBLIC "-//W3C//DTD SVG 1.1//EN"
 "http://www.w3.org/Graphics/SVG/1.1/DTD/svg11.dtd">
<!-- Generated by graphviz version 2.38.0 (20140413.2041)
 -->
<!-- Title: SDK::FAnimNode_LayeredBoneBlend Pages: 1 -->
<svg width="1028pt" height="353pt"
 viewBox="0.00 0.00 1027.51 353.00" xmlns="http://www.w3.org/2000/svg" xmlns:xlink="http://www.w3.org/1999/xlink">
<g id="graph0" class="graph" transform="scale(1 1) rotate(0) translate(4 349)">
<title>SDK::FAnimNode_LayeredBoneBlend</title>
<!-- Node1 -->
<g id="node1" class="node"><title>Node1</title>
<g id="a_node1"><a xlink:title=" ">
<polygon fill="#bfbfbf" stroke="black" points="470.013,-0.5 470.013,-68.5 626.013,-68.5 626.013,-0.5 470.013,-0.5"/>
<text text-anchor="start" x="478.013" y="-56.5" font-family="Helvetica,sans-Serif" font-size="10.00">SDK::FAnimNode_LayeredBone</text>
<text text-anchor="middle" x="548.013" y="-45.5" font-family="Helvetica,sans-Serif" font-size="10.00">Blend</text>
<polyline fill="none" stroke="black" points="470.013,-38.5 626.013,-38.5 "/>
<text text-anchor="middle" x="548.013" y="-26.5" font-family="Helvetica,sans-Serif" font-size="10.00"> </text>
<polyline fill="none" stroke="black" points="470.013,-19.5 626.013,-19.5 "/>
<text text-anchor="middle" x="548.013" y="-7.5" font-family="Helvetica,sans-Serif" font-size="10.00"> </text>
</a>
</g>
</g>
<!-- Node2 -->
<g id="node2" class="node"><title>Node2</title>
<g id="a_node2"><a xlink:href="a31463.html" target="_top" xlink:title=" ">
<polygon fill="none" stroke="red" points="108.013,-149.5 108.013,-206.5 230.013,-206.5 230.013,-149.5 108.013,-149.5"/>
<text text-anchor="middle" x="169.013" y="-194.5" font-family="Helvetica,sans-Serif" font-size="10.00">SDK::FAnimNode_Base</text>
<polyline fill="none" stroke="red" points="108.013,-187.5 230.013,-187.5 "/>
<text text-anchor="middle" x="169.013" y="-175.5" font-family="Helvetica,sans-Serif" font-size="10.00"> </text>
<polyline fill="none" stroke="red" points="108.013,-168.5 230.013,-168.5 "/>
<text text-anchor="middle" x="169.013" y="-156.5" font-family="Helvetica,sans-Serif" font-size="10.00"> </text>
</a>
</g>
</g>
<!-- Node2&#45;&gt;Node1 -->
<g id="edge1" class="edge"><title>Node2&#45;&gt;Node1</title>
<path fill="none" stroke="midnightblue" d="M202.338,-142.413C213.244,-132.694 225.937,-122.905 239.013,-116 312.178,-77.3658 405.06,-56.4179 469.8,-45.6655"/>
<polygon fill="none" stroke="midnightblue" points="199.705,-140.081 194.733,-149.436 204.454,-145.223 199.705,-140.081"/>
</g>
<!-- Node7 -->
<g id="node3" class="node"><title>Node7</title>
<g id="a_node3"><a xlink:title=" ">
<polygon fill="none" stroke="#bfbfbf" points="40.5131,-287.5 40.5131,-344.5 75.5131,-344.5 75.5131,-287.5 40.5131,-287.5"/>
<text text-anchor="middle" x="58.0131" y="-332.5" font-family="Helvetica,sans-Serif" font-size="10.00">char</text>
<polyline fill="none" stroke="#bfbfbf" points="40.5131,-325.5 75.5131,-325.5 "/>
<text text-anchor="middle" x="58.0131" y="-313.5" font-family="Helvetica,sans-Serif" font-size="10.00"> </text>
<polyline fill="none" stroke="#bfbfbf" points="40.5131,-306.5 75.5131,-306.5 "/>
<text text-anchor="middle" x="58.0131" y="-294.5" font-family="Helvetica,sans-Serif" font-size="10.00"> </text>
</a>
</g>
</g>
<!-- Node7&#45;&gt;Node1 -->
<g id="edge4" class="edge"><title>Node7&#45;&gt;Node1</title>
<path fill="none" stroke="#404040" d="M40.4746,-288.29C15.4121,-246.44 -23.2065,-165.13 19.0131,-116 74.4603,-51.4769 321.351,-38.0746 457.364,-35.6716"/>
<polygon fill="none" stroke="#404040" points="457.771,-35.6653 463.707,-31.5719 469.769,-35.4775 463.833,-39.5709 457.771,-35.6653"/>
<text text-anchor="middle" x="59.0131" y="-175.5" font-family="Helvetica,sans-Serif" font-size="10.00"> +UnknownData00</text>
</g>
<!-- Node7&#45;&gt;Node2 -->
<g id="edge2" class="edge"><title>Node7&#45;&gt;Node2</title>
<path fill="none" stroke="#404040" d="M75.6014,-293.45C92.5471,-272.688 118.525,-240.859 138.788,-216.033"/>
<polygon fill="none" stroke="#404040" points="138.933,-215.855 139.628,-208.678 146.52,-206.559 145.825,-213.736 138.933,-215.855"/>
<text text-anchor="middle" x="144.013" y="-261" font-family="Helvetica,sans-Serif" font-size="10.00"> +UnknownData00</text>
</g>
<!-- Node9 -->
<g id="node4" class="node"><title>Node9</title>
<g id="a_node4"><a xlink:href="a25847.html" target="_top" xlink:title=" ">
<polygon fill="none" stroke="black" points="248.013,-116.5 248.013,-239.5 402.013,-239.5 402.013,-116.5 248.013,-116.5"/>
<text text-anchor="start" x="256.013" y="-227.5" font-family="Helvetica,sans-Serif" font-size="10.00">SDK::TEnumAsByte&lt; ECurve</text>
<text text-anchor="middle" x="325.013" y="-216.5" font-family="Helvetica,sans-Serif" font-size="10.00">BlendOption &gt;</text>
<polyline fill="none" stroke="black" points="248.013,-209.5 402.013,-209.5 "/>
<text text-anchor="middle" x="325.013" y="-197.5" font-family="Helvetica,sans-Serif" font-size="10.00"> </text>
<polyline fill="none" stroke="black" points="248.013,-190.5 402.013,-190.5 "/>
<text text-anchor="start" x="256.013" y="-178.5" font-family="Helvetica,sans-Serif" font-size="10.00">+ TEnumAsByte()</text>
<text text-anchor="start" x="256.013" y="-167.5" font-family="Helvetica,sans-Serif" font-size="10.00">+ TEnumAsByte()</text>
<text text-anchor="start" x="256.013" y="-156.5" font-family="Helvetica,sans-Serif" font-size="10.00">+ TEnumAsByte()</text>
<text text-anchor="start" x="256.013" y="-145.5" font-family="Helvetica,sans-Serif" font-size="10.00">+ TEnumAsByte()</text>
<text text-anchor="start" x="256.013" y="-134.5" font-family="Helvetica,sans-Serif" font-size="10.00">+ operator ECurveBlendOption()</text>
<text text-anchor="start" x="256.013" y="-123.5" font-family="Helvetica,sans-Serif" font-size="10.00">+ GetValue()</text>
</a>
</g>
</g>
<!-- Node9&#45;&gt;Node1 -->
<g id="edge3" class="edge"><title>Node9&#45;&gt;Node1</title>
<path fill="none" stroke="#404040" d="M389.63,-116.475C402.493,-105.936 416.283,-95.6095 430.013,-87 439.122,-81.2881 448.974,-75.9045 458.968,-70.9275"/>
<polygon fill="none" stroke="#404040" points="459.029,-70.8982 462.699,-64.6905 469.84,-65.6902 466.171,-71.8978 459.029,-70.8982"/>
<text text-anchor="middle" x="473.513" y="-90" font-family="Helvetica,sans-Serif" font-size="10.00"> +CurveBlendOption</text>
</g>
<!-- Node10 -->
<g id="node5" class="node"><title>Node10</title>
<g id="a_node5"><a xlink:href="a25823.html" target="_top" xlink:title=" ">
<polygon fill="none" stroke="black" points="420.513,-122 420.513,-234 549.513,-234 549.513,-122 420.513,-122"/>
<text text-anchor="start" x="428.513" y="-222" font-family="Helvetica,sans-Serif" font-size="10.00">SDK::TArray&lt; struct</text>
<text text-anchor="middle" x="485.013" y="-211" font-family="Helvetica,sans-Serif" font-size="10.00"> SDK::FInputBlendPose &gt;</text>
<polyline fill="none" stroke="black" points="420.513,-204 549.513,-204 "/>
<text text-anchor="middle" x="485.013" y="-192" font-family="Helvetica,sans-Serif" font-size="10.00"> </text>
<polyline fill="none" stroke="black" points="420.513,-185 549.513,-185 "/>
<text text-anchor="start" x="428.513" y="-173" font-family="Helvetica,sans-Serif" font-size="10.00">+ TArray()</text>
<text text-anchor="start" x="428.513" y="-162" font-family="Helvetica,sans-Serif" font-size="10.00">+ Num()</text>
<text text-anchor="start" x="428.513" y="-151" font-family="Helvetica,sans-Serif" font-size="10.00">+ operator[]()</text>
<text text-anchor="start" x="428.513" y="-140" font-family="Helvetica,sans-Serif" font-size="10.00">+ operator[]()</text>
<text text-anchor="start" x="428.513" y="-129" font-family="Helvetica,sans-Serif" font-size="10.00">+ IsValidIndex()</text>
</a>
</g>
</g>
<!-- Node10&#45;&gt;Node1 -->
<g id="edge5" class="edge"><title>Node10&#45;&gt;Node1</title>
<path fill="none" stroke="#404040" d="M509.551,-121.887C515.75,-107.963 522.329,-93.1882 528.259,-79.8691"/>
<polygon fill="none" stroke="#404040" points="528.396,-79.5598 527.183,-72.4516 533.277,-68.5973 534.491,-75.7055 528.396,-79.5598"/>
<text text-anchor="middle" x="553.513" y="-90" font-family="Helvetica,sans-Serif" font-size="10.00"> +LayerSetup</text>
</g>
<!-- Node11 -->
<g id="node6" class="node"><title>Node11</title>
<g id="a_node6"><a xlink:href="a31983.html" target="_top" xlink:title=" ">
<polygon fill="none" stroke="red" points="567.513,-149.5 567.513,-206.5 656.513,-206.5 656.513,-149.5 567.513,-149.5"/>
<text text-anchor="middle" x="612.013" y="-194.5" font-family="Helvetica,sans-Serif" font-size="10.00">SDK::FPoseLink</text>
<polyline fill="none" stroke="red" points="567.513,-187.5 656.513,-187.5 "/>
<text text-anchor="middle" x="612.013" y="-175.5" font-family="Helvetica,sans-Serif" font-size="10.00"> </text>
<polyline fill="none" stroke="red" points="567.513,-168.5 656.513,-168.5 "/>
<text text-anchor="middle" x="612.013" y="-156.5" font-family="Helvetica,sans-Serif" font-size="10.00"> </text>
</a>
</g>
</g>
<!-- Node11&#45;&gt;Node1 -->
<g id="edge6" class="edge"><title>Node11&#45;&gt;Node1</title>
<path fill="none" stroke="#404040" d="M607.132,-149.243C603.24,-130.932 596.795,-106.767 587.013,-87 585.664,-84.2734 584.163,-81.5465 582.557,-78.8498"/>
<polygon fill="none" stroke="#404040" points="582.479,-78.7294 575.857,-75.8746 575.945,-68.664 582.567,-71.5188 582.479,-78.7294"/>
<text text-anchor="middle" x="619.513" y="-90" font-family="Helvetica,sans-Serif" font-size="10.00"> +BasePose</text>
</g>
<!-- Node14 -->
<g id="node7" class="node"><title>Node14</title>
<g id="a_node7"><a xlink:href="a25823.html" target="_top" xlink:title=" ">
<polygon fill="none" stroke="black" points="674.513,-127.5 674.513,-228.5 781.513,-228.5 781.513,-127.5 674.513,-127.5"/>
<text text-anchor="middle" x="728.013" y="-216.5" font-family="Helvetica,sans-Serif" font-size="10.00">SDK::TArray&lt; float &gt;</text>
<polyline fill="none" stroke="black" points="674.513,-209.5 781.513,-209.5 "/>
<text text-anchor="middle" x="728.013" y="-197.5" font-family="Helvetica,sans-Serif" font-size="10.00"> </text>
<polyline fill="none" stroke="black" points="674.513,-190.5 781.513,-190.5 "/>
<text text-anchor="start" x="682.513" y="-178.5" font-family="Helvetica,sans-Serif" font-size="10.00">+ TArray()</text>
<text text-anchor="start" x="682.513" y="-167.5" font-family="Helvetica,sans-Serif" font-size="10.00">+ Num()</text>
<text text-anchor="start" x="682.513" y="-156.5" font-family="Helvetica,sans-Serif" font-size="10.00">+ operator[]()</text>
<text text-anchor="start" x="682.513" y="-145.5" font-family="Helvetica,sans-Serif" font-size="10.00">+ operator[]()</text>
<text text-anchor="start" x="682.513" y="-134.5" font-family="Helvetica,sans-Serif" font-size="10.00">+ IsValidIndex()</text>
</a>
</g>
</g>
<!-- Node14&#45;&gt;Node1 -->
<g id="edge7" class="edge"><title>Node14&#45;&gt;Node1</title>
<path fill="none" stroke="#404040" d="M691.66,-127.392C679.749,-113.226 665.757,-98.5227 651.013,-87 645.513,-82.7018 639.598,-78.618 633.482,-74.7702"/>
<polygon fill="none" stroke="#404040" points="633.337,-74.6831 626.134,-75.0345 623.039,-68.5212 630.242,-68.1698 633.337,-74.6831"/>
<text text-anchor="middle" x="699.013" y="-90" font-family="Helvetica,sans-Serif" font-size="10.00"> +BlendWeights</text>
</g>
<!-- Node15 -->
<g id="node8" class="node"><title>Node15</title>
<g id="a_node8"><a xlink:title=" ">
<polygon fill="none" stroke="#bfbfbf" points="799.513,-149.5 799.513,-206.5 834.513,-206.5 834.513,-149.5 799.513,-149.5"/>
<text text-anchor="middle" x="817.013" y="-194.5" font-family="Helvetica,sans-Serif" font-size="10.00">bool</text>
<polyline fill="none" stroke="#bfbfbf" points="799.513,-187.5 834.513,-187.5 "/>
<text text-anchor="middle" x="817.013" y="-175.5" font-family="Helvetica,sans-Serif" font-size="10.00"> </text>
<polyline fill="none" stroke="#bfbfbf" points="799.513,-168.5 834.513,-168.5 "/>
<text text-anchor="middle" x="817.013" y="-156.5" font-family="Helvetica,sans-Serif" font-size="10.00"> </text>
</a>
</g>
</g>
<!-- Node15&#45;&gt;Node1 -->
<g id="edge8" class="edge"><title>Node15&#45;&gt;Node1</title>
<path fill="none" stroke="#404040" d="M809.06,-149.294C804.79,-137.999 798.597,-125.413 790.013,-116 751.274,-73.5215 689.579,-53.4244 638.179,-43.9327"/>
<polygon fill="none" stroke="#404040" points="637.859,-43.878 631.269,-46.8055 626.032,-41.8483 632.622,-38.9207 637.859,-43.878"/>
<text text-anchor="middle" x="834.513" y="-90" font-family="Helvetica,sans-Serif" font-size="10.00"> +bMeshSpaceRotationBlend</text>
</g>
<!-- Node16 -->
<g id="node9" class="node"><title>Node16</title>
<g id="a_node9"><a xlink:href="a25823.html" target="_top" xlink:title=" ">
<polygon fill="none" stroke="black" points="914.513,-122 914.513,-234 1019.51,-234 1019.51,-122 914.513,-122"/>
<text text-anchor="start" x="922.513" y="-222" font-family="Helvetica,sans-Serif" font-size="10.00">SDK::TArray&lt; struct</text>
<text text-anchor="middle" x="967.013" y="-211" font-family="Helvetica,sans-Serif" font-size="10.00"> SDK::FPoseLink &gt;</text>
<polyline fill="none" stroke="black" points="914.513,-204 1019.51,-204 "/>
<text text-anchor="middle" x="967.013" y="-192" font-family="Helvetica,sans-Serif" font-size="10.00"> </text>
<polyline fill="none" stroke="black" points="914.513,-185 1019.51,-185 "/>
<text text-anchor="start" x="922.513" y="-173" font-family="Helvetica,sans-Serif" font-size="10.00">+ TArray()</text>
<text text-anchor="start" x="922.513" y="-162" font-family="Helvetica,sans-Serif" font-size="10.00">+ Num()</text>
<text text-anchor="start" x="922.513" y="-151" font-family="Helvetica,sans-Serif" font-size="10.00">+ operator[]()</text>
<text text-anchor="start" x="922.513" y="-140" font-family="Helvetica,sans-Serif" font-size="10.00">+ operator[]()</text>
<text text-anchor="start" x="922.513" y="-129" font-family="Helvetica,sans-Serif" font-size="10.00">+ IsValidIndex()</text>
</a>
</g>
</g>
<!-- Node16&#45;&gt;Node1 -->
<g id="edge9" class="edge"><title>Node16&#45;&gt;Node1</title>
<path fill="none" stroke="#404040" d="M937.506,-121.544C927.896,-108.266 916.024,-95.4916 902.013,-87 858.916,-60.8789 728.193,-47.1793 638.265,-40.6499"/>
<polygon fill="none" stroke="#404040" points="638.105,-40.6387 631.839,-44.2066 626.135,-39.7944 632.401,-36.2265 638.105,-40.6387"/>
<text text-anchor="middle" x="948.013" y="-90" font-family="Helvetica,sans-Serif" font-size="10.00"> +BlendPoses</text>
</g>
</g>
</svg>
