<?xml version="1.0" encoding="UTF-8" standalone="no"?>
<!DOCTYPE svg PUBLIC "-//W3C//DTD SVG 1.1//EN"
 "http://www.w3.org/Graphics/SVG/1.1/DTD/svg11.dtd">
<!-- Generated by graphviz version 2.38.0 (20140413.2041)
 -->
<!-- Title: SDK::UFlammableWieldableComponent Pages: 1 -->
<svg width="286pt" height="204pt"
 viewBox="0.00 0.00 286.00 204.00" xmlns="http://www.w3.org/2000/svg" xmlns:xlink="http://www.w3.org/1999/xlink">
<g id="graph0" class="graph" transform="scale(1 1) rotate(0) translate(4 200)">
<title>SDK::UFlammableWieldableComponent</title>
<!-- Node1 -->
<g id="node1" class="node"><title>Node1</title>
<g id="a_node1"><a xlink:title=" ">
<polygon fill="#bfbfbf" stroke="black" points="95.5,-0.5 95.5,-68.5 235.5,-68.5 235.5,-0.5 95.5,-0.5"/>
<text text-anchor="start" x="103.5" y="-56.5" font-family="Helvetica,sans-Serif" font-size="10.00">SDK::UFlammableWieldable</text>
<text text-anchor="middle" x="165.5" y="-45.5" font-family="Helvetica,sans-Serif" font-size="10.00">Component</text>
<polyline fill="none" stroke="black" points="95.5,-38.5 235.5,-38.5 "/>
<text text-anchor="middle" x="165.5" y="-26.5" font-family="Helvetica,sans-Serif" font-size="10.00"> </text>
<polyline fill="none" stroke="black" points="95.5,-19.5 235.5,-19.5 "/>
<text text-anchor="start" x="103.5" y="-7.5" font-family="Helvetica,sans-Serif" font-size="10.00">+ StaticClass()</text>
</a>
</g>
</g>
<!-- Node2 -->
<g id="node2" class="node"><title>Node2</title>
<g id="a_node2"><a xlink:href="a32247.html" target="_top" xlink:title=" ">
<polygon fill="none" stroke="red" points="0,-116.5 0,-195.5 183,-195.5 183,-116.5 0,-116.5"/>
<text text-anchor="middle" x="91.5" y="-183.5" font-family="Helvetica,sans-Serif" font-size="10.00">SDK::UFlammableComponent</text>
<polyline fill="none" stroke="red" points="0,-176.5 183,-176.5 "/>
<text text-anchor="middle" x="91.5" y="-164.5" font-family="Helvetica,sans-Serif" font-size="10.00"> </text>
<polyline fill="none" stroke="red" points="0,-157.5 183,-157.5 "/>
<text text-anchor="start" x="8" y="-145.5" font-family="Helvetica,sans-Serif" font-size="10.00">+ OnRep_OnFire()</text>
<text text-anchor="start" x="8" y="-134.5" font-family="Helvetica,sans-Serif" font-size="10.00">+ Multicast_NotifyExtinguished_RPC()</text>
<text text-anchor="start" x="8" y="-123.5" font-family="Helvetica,sans-Serif" font-size="10.00">+ StaticClass()</text>
</a>
</g>
</g>
<!-- Node2&#45;&gt;Node1 -->
<g id="edge1" class="edge"><title>Node2&#45;&gt;Node1</title>
<path fill="none" stroke="midnightblue" d="M120.96,-107.426C128.951,-94.5214 137.432,-80.8258 144.825,-68.8867"/>
<polygon fill="none" stroke="midnightblue" points="117.815,-105.857 115.526,-116.202 123.766,-109.543 117.815,-105.857"/>
</g>
<!-- Node24 -->
<g id="node3" class="node"><title>Node24</title>
<g id="a_node3"><a xlink:href="a34971.html" target="_top" xlink:title=" ">
<polygon fill="none" stroke="red" points="201,-127.5 201,-184.5 278,-184.5 278,-127.5 201,-127.5"/>
<text text-anchor="middle" x="239.5" y="-172.5" font-family="Helvetica,sans-Serif" font-size="10.00">SDK::FStatus</text>
<polyline fill="none" stroke="red" points="201,-165.5 278,-165.5 "/>
<text text-anchor="middle" x="239.5" y="-153.5" font-family="Helvetica,sans-Serif" font-size="10.00"> </text>
<polyline fill="none" stroke="red" points="201,-146.5 278,-146.5 "/>
<text text-anchor="middle" x="239.5" y="-134.5" font-family="Helvetica,sans-Serif" font-size="10.00"> </text>
</a>
</g>
</g>
<!-- Node24&#45;&gt;Node1 -->
<g id="edge2" class="edge"><title>Node24&#45;&gt;Node1</title>
<path fill="none" stroke="#404040" d="M222.337,-127.284C213.441,-112.918 202.373,-95.0441 192.373,-78.8967"/>
<polygon fill="none" stroke="#404040" points="192.308,-78.7914 185.748,-75.7961 185.99,-68.5891 192.55,-71.5843 192.308,-78.7914"/>
<text text-anchor="middle" x="236" y="-90" font-family="Helvetica,sans-Serif" font-size="10.00"> +IgnitedStatus</text>
</g>
</g>
</svg>
