<?xml version="1.0" encoding="UTF-8" standalone="no"?>
<!DOCTYPE svg PUBLIC "-//W3C//DTD SVG 1.1//EN"
 "http://www.w3.org/Graphics/SVG/1.1/DTD/svg11.dtd">
<!-- Generated by graphviz version 2.38.0 (20140413.2041)
 -->
<!-- Title: SDK::FReplicatedPhysicsState Pages: 1 -->
<svg width="764pt" height="1052pt"
 viewBox="0.00 0.00 764.44 1052.00" xmlns="http://www.w3.org/2000/svg" xmlns:xlink="http://www.w3.org/1999/xlink">
<g id="graph0" class="graph" transform="scale(1 1) rotate(0) translate(4 1048)">
<title>SDK::FReplicatedPhysicsState</title>
<!-- Node1 -->
<g id="node1" class="node"><title>Node1</title>
<g id="a_node1"><a xlink:title=" ">
<polygon fill="#bfbfbf" stroke="black" points="209.944,-0.5 209.944,-57.5 362.944,-57.5 362.944,-0.5 209.944,-0.5"/>
<text text-anchor="middle" x="286.444" y="-45.5" font-family="Helvetica,sans-Serif" font-size="10.00">SDK::FReplicatedPhysicsState</text>
<polyline fill="none" stroke="black" points="209.944,-38.5 362.944,-38.5 "/>
<text text-anchor="middle" x="286.444" y="-26.5" font-family="Helvetica,sans-Serif" font-size="10.00"> </text>
<polyline fill="none" stroke="black" points="209.944,-19.5 362.944,-19.5 "/>
<text text-anchor="middle" x="286.444" y="-7.5" font-family="Helvetica,sans-Serif" font-size="10.00"> </text>
</a>
</g>
</g>
<!-- Node2 -->
<g id="node2" class="node"><title>Node2</title>
<g id="a_node2"><a xlink:title=" ">
<polygon fill="none" stroke="#bfbfbf" points="236.944,-986.5 236.944,-1043.5 271.944,-1043.5 271.944,-986.5 236.944,-986.5"/>
<text text-anchor="middle" x="254.444" y="-1031.5" font-family="Helvetica,sans-Serif" font-size="10.00">char</text>
<polyline fill="none" stroke="#bfbfbf" points="236.944,-1024.5 271.944,-1024.5 "/>
<text text-anchor="middle" x="254.444" y="-1012.5" font-family="Helvetica,sans-Serif" font-size="10.00"> </text>
<polyline fill="none" stroke="#bfbfbf" points="236.944,-1005.5 271.944,-1005.5 "/>
<text text-anchor="middle" x="254.444" y="-993.5" font-family="Helvetica,sans-Serif" font-size="10.00"> </text>
</a>
</g>
</g>
<!-- Node2&#45;&gt;Node1 -->
<g id="edge1" class="edge"><title>Node2&#45;&gt;Node1</title>
<path fill="none" stroke="#404040" d="M236.574,-1009.66C213.49,-1003.4 172.898,-990.082 144.444,-968 83.279,-920.533 65.9401,-901.748 39.444,-829 -22.363,-659.303 2.3789,-602.484 22.444,-423 38.5436,-278.986 13.2711,-225.042 94.444,-105 117.697,-70.612 159.299,-51.989 197.847,-41.9045"/>
<polygon fill="none" stroke="#404040" points="198.024,-41.8617 202.916,-36.5634 209.688,-39.041 204.796,-44.3393 198.024,-41.8617"/>
<text text-anchor="middle" x="62.444" y="-459" font-family="Helvetica,sans-Serif" font-size="10.00"> +UnknownData00</text>
</g>
<!-- Node3 -->
<g id="node3" class="node"><title>Node3</title>
<g id="a_node3"><a xlink:href="a26575.html" target="_top" xlink:title=" ">
<polygon fill="none" stroke="red" points="48.444,-518.5 48.444,-828.5 224.444,-828.5 224.444,-518.5 48.444,-518.5"/>
<text text-anchor="middle" x="136.444" y="-816.5" font-family="Helvetica,sans-Serif" font-size="10.00">SDK::USceneComponent</text>
<polyline fill="none" stroke="red" points="48.444,-809.5 224.444,-809.5 "/>
<text text-anchor="start" x="56.444" y="-797.5" font-family="Helvetica,sans-Serif" font-size="10.00">+ bAbsoluteLocation</text>
<text text-anchor="start" x="56.444" y="-786.5" font-family="Helvetica,sans-Serif" font-size="10.00">+ bAbsoluteTranslation</text>
<text text-anchor="start" x="56.444" y="-775.5" font-family="Helvetica,sans-Serif" font-size="10.00">+ bAbsoluteRotation</text>
<text text-anchor="start" x="56.444" y="-764.5" font-family="Helvetica,sans-Serif" font-size="10.00">+ bShouldUpdatePhysicsVolume</text>
<text text-anchor="start" x="56.444" y="-753.5" font-family="Helvetica,sans-Serif" font-size="10.00">+ bBoundsChangeTriggersStreaming</text>
<text text-anchor="start" x="56.444" y="-742.5" font-family="Helvetica,sans-Serif" font-size="10.00">DataRebuild</text>
<text text-anchor="start" x="56.444" y="-731.5" font-family="Helvetica,sans-Serif" font-size="10.00">+ bUseAttachParentBound</text>
<text text-anchor="start" x="56.444" y="-720.5" font-family="Helvetica,sans-Serif" font-size="10.00">+ UnknownData00</text>
<text text-anchor="start" x="56.444" y="-709.5" font-family="Helvetica,sans-Serif" font-size="10.00">+ CacheRootVelocity</text>
<text text-anchor="start" x="56.444" y="-698.5" font-family="Helvetica,sans-Serif" font-size="10.00">+ bWorldToComponentUpdated</text>
<text text-anchor="start" x="56.444" y="-687.5" font-family="Helvetica,sans-Serif" font-size="10.00">+ UnknownData05</text>
<text text-anchor="start" x="56.444" y="-676.5" font-family="Helvetica,sans-Serif" font-size="10.00">+ UnknownData06</text>
<text text-anchor="start" x="56.444" y="-665.5" font-family="Helvetica,sans-Serif" font-size="10.00">+ UnknownData07</text>
<polyline fill="none" stroke="red" points="48.444,-658.5 224.444,-658.5 "/>
<text text-anchor="start" x="56.444" y="-646.5" font-family="Helvetica,sans-Serif" font-size="10.00">+ ToggleVisibility()</text>
<text text-anchor="start" x="56.444" y="-635.5" font-family="Helvetica,sans-Serif" font-size="10.00">+ SnapTo()</text>
<text text-anchor="start" x="56.444" y="-624.5" font-family="Helvetica,sans-Serif" font-size="10.00">+ SharesBasis()</text>
<text text-anchor="start" x="56.444" y="-613.5" font-family="Helvetica,sans-Serif" font-size="10.00">+ SetWorldScale3D()</text>
<text text-anchor="start" x="56.444" y="-602.5" font-family="Helvetica,sans-Serif" font-size="10.00">+ SetVisibility()</text>
<text text-anchor="start" x="56.444" y="-591.5" font-family="Helvetica,sans-Serif" font-size="10.00">+ SetRelativeScale3D()</text>
<text text-anchor="start" x="56.444" y="-580.5" font-family="Helvetica,sans-Serif" font-size="10.00">+ SetHiddenInGame()</text>
<text text-anchor="start" x="56.444" y="-569.5" font-family="Helvetica,sans-Serif" font-size="10.00">+ SetAbsolute()</text>
<text text-anchor="start" x="56.444" y="-558.5" font-family="Helvetica,sans-Serif" font-size="10.00">+ ResetRelativeTransform()</text>
<text text-anchor="start" x="56.444" y="-547.5" font-family="Helvetica,sans-Serif" font-size="10.00">+ OnRep_Visibility()</text>
<text text-anchor="start" x="56.444" y="-536.5" font-family="Helvetica,sans-Serif" font-size="10.00">and 45 more...</text>
<text text-anchor="start" x="56.444" y="-525.5" font-family="Helvetica,sans-Serif" font-size="10.00">+ StaticClass()</text>
</a>
</g>
</g>
<!-- Node2&#45;&gt;Node3 -->
<g id="edge3" class="edge"><title>Node2&#45;&gt;Node3</title>
<path fill="none" stroke="#404040" d="M236.855,-1005.63C222.581,-997.894 203.132,-985.028 192.444,-968 168.699,-930.168 154.591,-884.582 146.325,-840.737"/>
<polygon fill="none" stroke="#404040" points="146.291,-840.545 141.305,-835.335 144.196,-828.729 149.182,-833.938 146.291,-840.545"/>
<text text-anchor="middle" x="261.944" y="-960" font-family="Helvetica,sans-Serif" font-size="10.00"> +UnknownData01</text>
<text text-anchor="middle" x="261.944" y="-949" font-family="Helvetica,sans-Serif" font-size="10.00">+UnknownData02</text>
<text text-anchor="middle" x="261.944" y="-938" font-family="Helvetica,sans-Serif" font-size="10.00">+bComponentIsUnionOfChildren</text>
<text text-anchor="middle" x="261.944" y="-927" font-family="Helvetica,sans-Serif" font-size="10.00">+UnknownData03</text>
<text text-anchor="middle" x="261.944" y="-916" font-family="Helvetica,sans-Serif" font-size="10.00">+bJitterReduction</text>
<text text-anchor="middle" x="261.944" y="-905" font-family="Helvetica,sans-Serif" font-size="10.00">+bAbsoluteScale</text>
<text text-anchor="middle" x="261.944" y="-894" font-family="Helvetica,sans-Serif" font-size="10.00">+bRequiresCustomLocation</text>
<text text-anchor="middle" x="261.944" y="-883" font-family="Helvetica,sans-Serif" font-size="10.00">+UnknownData04</text>
<text text-anchor="middle" x="261.944" y="-872" font-family="Helvetica,sans-Serif" font-size="10.00">+bHiddenInGame</text>
<text text-anchor="middle" x="261.944" y="-861" font-family="Helvetica,sans-Serif" font-size="10.00">+bVisible</text>
<text text-anchor="middle" x="261.944" y="-850" font-family="Helvetica,sans-Serif" font-size="10.00">...</text>
</g>
<!-- Node32 -->
<g id="node5" class="node"><title>Node32</title>
<g id="a_node5"><a xlink:href="a26631.html" target="_top" xlink:title=" ">
<polygon fill="none" stroke="red" points="201.944,-105.5 201.944,-404.5 370.944,-404.5 370.944,-105.5 201.944,-105.5"/>
<text text-anchor="middle" x="286.444" y="-392.5" font-family="Helvetica,sans-Serif" font-size="10.00">SDK::UPrimitiveComponent</text>
<polyline fill="none" stroke="red" points="201.944,-385.5 370.944,-385.5 "/>
<text text-anchor="start" x="209.944" y="-373.5" font-family="Helvetica,sans-Serif" font-size="10.00">+ UnknownData00</text>
<text text-anchor="start" x="209.944" y="-362.5" font-family="Helvetica,sans-Serif" font-size="10.00">+ bAlwaysCreatePhysicsState</text>
<text text-anchor="start" x="209.944" y="-351.5" font-family="Helvetica,sans-Serif" font-size="10.00">+ bGenerateOverlapEvents</text>
<text text-anchor="start" x="209.944" y="-340.5" font-family="Helvetica,sans-Serif" font-size="10.00">+ bMultiBodyOverlap</text>
<text text-anchor="start" x="209.944" y="-329.5" font-family="Helvetica,sans-Serif" font-size="10.00">+ bCheckAsyncSceneOnMove</text>
<text text-anchor="start" x="209.944" y="-318.5" font-family="Helvetica,sans-Serif" font-size="10.00">+ bReturnMaterialOnMove</text>
<text text-anchor="start" x="209.944" y="-307.5" font-family="Helvetica,sans-Serif" font-size="10.00">+ bUseViewOwnerDepthPriority</text>
<text text-anchor="start" x="209.944" y="-296.5" font-family="Helvetica,sans-Serif" font-size="10.00">Group</text>
<text text-anchor="start" x="209.944" y="-285.5" font-family="Helvetica,sans-Serif" font-size="10.00">+ bAllowCullDistanceVolume</text>
<text text-anchor="start" x="209.944" y="-274.5" font-family="Helvetica,sans-Serif" font-size="10.00">+ bHasMotionBlurVelocityMeshes</text>
<text text-anchor="start" x="209.944" y="-263.5" font-family="Helvetica,sans-Serif" font-size="10.00">+ bRenderInMainPass</text>
<text text-anchor="start" x="209.944" y="-252.5" font-family="Helvetica,sans-Serif" font-size="10.00">and 50 more...</text>
<polyline fill="none" stroke="red" points="201.944,-245.5 370.944,-245.5 "/>
<text text-anchor="start" x="209.944" y="-233.5" font-family="Helvetica,sans-Serif" font-size="10.00">+ WakeRigidBody()</text>
<text text-anchor="start" x="209.944" y="-222.5" font-family="Helvetica,sans-Serif" font-size="10.00">+ WakeAllRigidBodies()</text>
<text text-anchor="start" x="209.944" y="-211.5" font-family="Helvetica,sans-Serif" font-size="10.00">+ SetWalkableSlopeOverride()</text>
<text text-anchor="start" x="209.944" y="-200.5" font-family="Helvetica,sans-Serif" font-size="10.00">+ SetTranslucentSortPriority()</text>
<text text-anchor="start" x="209.944" y="-189.5" font-family="Helvetica,sans-Serif" font-size="10.00">+ SetSimulatePhysics()</text>
<text text-anchor="start" x="209.944" y="-178.5" font-family="Helvetica,sans-Serif" font-size="10.00">+ SetRenderInMainPass()</text>
<text text-anchor="start" x="209.944" y="-167.5" font-family="Helvetica,sans-Serif" font-size="10.00">+ SetRenderCustomDepth()</text>
<text text-anchor="start" x="209.944" y="-156.5" font-family="Helvetica,sans-Serif" font-size="10.00">+ SetPhysMaterialOverride()</text>
<text text-anchor="start" x="209.944" y="-145.5" font-family="Helvetica,sans-Serif" font-size="10.00">+ SetPhysicsMaxAngularVelocity()</text>
<text text-anchor="start" x="209.944" y="-134.5" font-family="Helvetica,sans-Serif" font-size="10.00">+ SetPhysicsLinearVelocity()</text>
<text text-anchor="start" x="209.944" y="-123.5" font-family="Helvetica,sans-Serif" font-size="10.00">and 64 more...</text>
<text text-anchor="start" x="209.944" y="-112.5" font-family="Helvetica,sans-Serif" font-size="10.00">+ StaticClass()</text>
</a>
</g>
</g>
<!-- Node2&#45;&gt;Node32 -->
<g id="edge8" class="edge"><title>Node2&#45;&gt;Node32</title>
<path fill="none" stroke="#404040" d="M272.247,-1009.05C290.784,-1002.84 318.84,-990.211 331.444,-968 346.656,-941.193 340.38,-789.862 318.444,-518 315.802,-485.253 312.129,-450.298 308.211,-416.941"/>
<polygon fill="none" stroke="#404040" points="308.177,-416.647 303.495,-411.162 306.758,-404.731 311.439,-410.216 308.177,-416.647"/>
<text text-anchor="middle" x="425.444" y="-726" font-family="Helvetica,sans-Serif" font-size="10.00"> +bSkipRenderingInOuterLPVCascades</text>
<text text-anchor="middle" x="425.444" y="-715" font-family="Helvetica,sans-Serif" font-size="10.00">+bCastShadowAsTwoSided</text>
<text text-anchor="middle" x="425.444" y="-704" font-family="Helvetica,sans-Serif" font-size="10.00">+bCastHiddenShadow</text>
<text text-anchor="middle" x="425.444" y="-693" font-family="Helvetica,sans-Serif" font-size="10.00">+CastShadow</text>
<text text-anchor="middle" x="425.444" y="-682" font-family="Helvetica,sans-Serif" font-size="10.00">+bReflectedOnLowQuality</text>
<text text-anchor="middle" x="425.444" y="-671" font-family="Helvetica,sans-Serif" font-size="10.00">+bTraceComplexOnMove</text>
<text text-anchor="middle" x="425.444" y="-660" font-family="Helvetica,sans-Serif" font-size="10.00">+UnknownData01</text>
<text text-anchor="middle" x="425.444" y="-649" font-family="Helvetica,sans-Serif" font-size="10.00">+bUseEditorCompositing</text>
<text text-anchor="middle" x="425.444" y="-638" font-family="Helvetica,sans-Serif" font-size="10.00">+bCastDynamicShadow</text>
<text text-anchor="middle" x="425.444" y="-627" font-family="Helvetica,sans-Serif" font-size="10.00">+bDontCull</text>
<text text-anchor="middle" x="425.444" y="-616" font-family="Helvetica,sans-Serif" font-size="10.00">...</text>
</g>
<!-- Node58 -->
<g id="node6" class="node"><title>Node58</title>
<g id="a_node6"><a xlink:href="a30103.html" target="_top" xlink:title=" ">
<polygon fill="none" stroke="red" points="579.444,-433 579.444,-490 689.444,-490 689.444,-433 579.444,-433"/>
<text text-anchor="middle" x="634.444" y="-478" font-family="Helvetica,sans-Serif" font-size="10.00">SDK::FRepMovement</text>
<polyline fill="none" stroke="red" points="579.444,-471 689.444,-471 "/>
<text text-anchor="middle" x="634.444" y="-459" font-family="Helvetica,sans-Serif" font-size="10.00"> </text>
<polyline fill="none" stroke="red" points="579.444,-452 689.444,-452 "/>
<text text-anchor="middle" x="634.444" y="-440" font-family="Helvetica,sans-Serif" font-size="10.00"> </text>
</a>
</g>
</g>
<!-- Node2&#45;&gt;Node58 -->
<g id="edge12" class="edge"><title>Node2&#45;&gt;Node58</title>
<path fill="none" stroke="#404040" d="M272.079,-1009.99C328.246,-996.218 503.697,-945.087 579.444,-829 646.444,-726.318 644.173,-573.43 638.634,-501.975"/>
<polygon fill="none" stroke="#404040" points="638.634,-501.97 634.139,-496.331 637.615,-490.013 642.11,-495.652 638.634,-501.97"/>
<text text-anchor="middle" x="618.444" y="-910.5" font-family="Helvetica,sans-Serif" font-size="10.00"> +bRepPhysics</text>
<text text-anchor="middle" x="618.444" y="-899.5" font-family="Helvetica,sans-Serif" font-size="10.00">+bSimulatedPhysicSleep</text>
</g>
<!-- Node3&#45;&gt;Node1 -->
<g id="edge2" class="edge"><title>Node3&#45;&gt;Node1</title>
<path fill="none" stroke="#404040" d="M114.768,-518.27C97.7791,-373.982 83.3384,-171.064 125.444,-105 141.976,-79.0604 170.071,-61.9483 198.207,-50.7229"/>
<polygon fill="none" stroke="#404040" points="198.561,-50.5915 202.791,-44.7517 209.809,-46.4106 205.578,-52.2505 198.561,-50.5915"/>
<text text-anchor="middle" x="158.944" y="-252.5" font-family="Helvetica,sans-Serif" font-size="10.00"> +AttachParent</text>
</g>
<!-- Node3&#45;&gt;Node3 -->
<g id="edge4" class="edge"><title>Node3&#45;&gt;Node3</title>
<path fill="none" stroke="#404040" d="M224.578,-707.891C235.369,-701.733 242.444,-690.27 242.444,-673.5 242.444,-662.233 239.25,-653.361 233.882,-646.885"/>
<polygon fill="none" stroke="#404040" points="233.786,-646.804 226.617,-646.026 224.578,-639.109 231.747,-639.888 233.786,-646.804"/>
<text text-anchor="middle" x="275.944" y="-671" font-family="Helvetica,sans-Serif" font-size="10.00"> +AttachParent</text>
</g>
<!-- Node3&#45;&gt;Node32 -->
<g id="edge7" class="edge"><title>Node3&#45;&gt;Node32</title>
<path fill="none" stroke="midnightblue" d="M195.449,-508.663C207.814,-474.33 220.787,-438.308 232.938,-404.569"/>
<polygon fill="none" stroke="midnightblue" points="192.074,-507.704 191.979,-518.298 198.66,-510.076 192.074,-507.704"/>
</g>
<!-- Node31 -->
<g id="node4" class="node"><title>Node31</title>
<g id="a_node4"><a xlink:title=" ">
<polygon fill="none" stroke="#bfbfbf" points="535.944,-645 535.944,-702 570.944,-702 570.944,-645 535.944,-645"/>
<text text-anchor="middle" x="553.444" y="-690" font-family="Helvetica,sans-Serif" font-size="10.00">bool</text>
<polyline fill="none" stroke="#bfbfbf" points="535.944,-683 570.944,-683 "/>
<text text-anchor="middle" x="553.444" y="-671" font-family="Helvetica,sans-Serif" font-size="10.00"> </text>
<polyline fill="none" stroke="#bfbfbf" points="535.944,-664 570.944,-664 "/>
<text text-anchor="middle" x="553.444" y="-652" font-family="Helvetica,sans-Serif" font-size="10.00"> </text>
</a>
</g>
</g>
<!-- Node31&#45;&gt;Node1 -->
<g id="edge5" class="edge"><title>Node31&#45;&gt;Node1</title>
<path fill="none" stroke="#404040" d="M552.951,-644.786C550.868,-533.827 542.109,-126.561 525.444,-105 490.223,-59.4317 427.482,-40.9387 375.12,-33.7028"/>
<polygon fill="none" stroke="#404040" points="374.999,-33.6879 368.552,-36.9181 363.091,-32.2093 369.538,-28.9791 374.999,-33.6879"/>
<text text-anchor="middle" x="575.444" y="-252.5" font-family="Helvetica,sans-Serif" font-size="10.00"> +IsAttached</text>
</g>
<!-- Node31&#45;&gt;Node32 -->
<g id="edge10" class="edge"><title>Node31&#45;&gt;Node32</title>
<path fill="none" stroke="#404040" d="M556.359,-644.895C558.367,-610.045 555.926,-550.706 521.444,-518 482.953,-481.492 446.074,-531.576 403.444,-500 394.436,-493.328 375.883,-457.716 356.153,-415.671"/>
<polygon fill="none" stroke="#404040" points="356.045,-415.438 349.886,-411.687 350.98,-404.559 357.138,-408.31 356.045,-415.438"/>
<text text-anchor="start" x="403.444" y="-492" font-family="Helvetica,sans-Serif" font-size="10.00"> +bOverrideShadowCascades</text>
<text text-anchor="middle" x="471.444" y="-481" font-family="Helvetica,sans-Serif" font-size="10.00">Exclusion</text>
<text text-anchor="middle" x="471.444" y="-470" font-family="Helvetica,sans-Serif" font-size="10.00">+bGPUVisibility</text>
<text text-anchor="start" x="403.444" y="-459" font-family="Helvetica,sans-Serif" font-size="10.00">+bOverrideShadowMinSize</text>
<text text-anchor="middle" x="471.444" y="-448" font-family="Helvetica,sans-Serif" font-size="10.00">Culling</text>
<text text-anchor="middle" x="471.444" y="-437" font-family="Helvetica,sans-Serif" font-size="10.00">+bStaticLightingBuildEnqueued</text>
<text text-anchor="middle" x="471.444" y="-426" font-family="Helvetica,sans-Serif" font-size="10.00">+bHasCachedStaticLighting</text>
</g>
<!-- Node32&#45;&gt;Node1 -->
<g id="edge6" class="edge"><title>Node32&#45;&gt;Node1</title>
<path fill="none" stroke="#404040" d="M286.444,-105.212C286.444,-92.4583 286.444,-80.4206 286.444,-69.8694"/>
<polygon fill="none" stroke="#404040" points="286.444,-69.7882 282.444,-63.7883 286.444,-57.7882 290.444,-63.7882 286.444,-69.7882"/>
<text text-anchor="middle" x="324.444" y="-79" font-family="Helvetica,sans-Serif" font-size="10.00"> +MovementBase</text>
</g>
<!-- Node32&#45;&gt;Node32 -->
<g id="edge9" class="edge"><title>Node32&#45;&gt;Node32</title>
<path fill="none" stroke="#404040" d="M371.28,-283.085C381.933,-278.135 388.944,-268.773 388.944,-255 388.944,-246.176 386.067,-239.163 381.198,-233.961"/>
<polygon fill="none" stroke="#404040" points="381.062,-233.865 373.854,-233.651 371.28,-226.915 378.487,-227.129 381.062,-233.865"/>
<text text-anchor="start" x="388.944" y="-263.5" font-family="Helvetica,sans-Serif" font-size="10.00"> +MergedCollisionComponent</text>
<text text-anchor="middle" x="452.944" y="-252.5" font-family="Helvetica,sans-Serif" font-size="10.00">Parent</text>
<text text-anchor="middle" x="452.944" y="-241.5" font-family="Helvetica,sans-Serif" font-size="10.00">+LODParentPrimitive</text>
</g>
<!-- Node58&#45;&gt;Node1 -->
<g id="edge11" class="edge"><title>Node58&#45;&gt;Node1</title>
<path fill="none" stroke="#404040" d="M640.802,-432.667C653.667,-369.342 676.501,-211.726 613.444,-105 589.321,-64.1707 463.576,-44.9377 375.253,-36.3467"/>
<polygon fill="none" stroke="#404040" points="375.001,-36.3232 368.654,-39.7461 363.054,-35.204 369.4,-31.781 375.001,-36.3232"/>
<text text-anchor="middle" x="706.444" y="-252.5" font-family="Helvetica,sans-Serif" font-size="10.00"> +ReplicatedMovement</text>
</g>
</g>
</svg>
