<?xml version="1.0" encoding="UTF-8" standalone="no"?>
<!DOCTYPE svg PUBLIC "-//W3C//DTD SVG 1.1//EN"
 "http://www.w3.org/Graphics/SVG/1.1/DTD/svg11.dtd">
<!-- Generated by graphviz version 2.38.0 (20140413.2041)
 -->
<!-- Title: SDK::FShipFireLight Pages: 1 -->
<svg width="818pt" height="474pt"
 viewBox="0.00 0.00 817.50 474.00" xmlns="http://www.w3.org/2000/svg" xmlns:xlink="http://www.w3.org/1999/xlink">
<g id="graph0" class="graph" transform="scale(1 1) rotate(0) translate(4 470)">
<title>SDK::FShipFireLight</title>
<!-- Node1 -->
<g id="node1" class="node"><title>Node1</title>
<g id="a_node1"><a xlink:title=" ">
<polygon fill="#bfbfbf" stroke="black" points="346.5,-0.5 346.5,-57.5 452.5,-57.5 452.5,-0.5 346.5,-0.5"/>
<text text-anchor="middle" x="399.5" y="-45.5" font-family="Helvetica,sans-Serif" font-size="10.00">SDK::FShipFireLight</text>
<polyline fill="none" stroke="black" points="346.5,-38.5 452.5,-38.5 "/>
<text text-anchor="middle" x="399.5" y="-26.5" font-family="Helvetica,sans-Serif" font-size="10.00"> </text>
<polyline fill="none" stroke="black" points="346.5,-19.5 452.5,-19.5 "/>
<text text-anchor="middle" x="399.5" y="-7.5" font-family="Helvetica,sans-Serif" font-size="10.00"> </text>
</a>
</g>
</g>
<!-- Node2 -->
<g id="node2" class="node"><title>Node2</title>
<g id="a_node2"><a xlink:href="a28895.html" target="_top" xlink:title=" ">
<polygon fill="none" stroke="red" points="0,-105.5 0,-283.5 193,-283.5 193,-105.5 0,-105.5"/>
<text text-anchor="middle" x="96.5" y="-271.5" font-family="Helvetica,sans-Serif" font-size="10.00">SDK::UMaterialInstanceDynamic</text>
<polyline fill="none" stroke="red" points="0,-264.5 193,-264.5 "/>
<text text-anchor="middle" x="96.5" y="-252.5" font-family="Helvetica,sans-Serif" font-size="10.00"> </text>
<polyline fill="none" stroke="red" points="0,-245.5 193,-245.5 "/>
<text text-anchor="start" x="8" y="-233.5" font-family="Helvetica,sans-Serif" font-size="10.00">+ SetVectorParameterValue()</text>
<text text-anchor="start" x="8" y="-222.5" font-family="Helvetica,sans-Serif" font-size="10.00">+ SetTextureParameterValue()</text>
<text text-anchor="start" x="8" y="-211.5" font-family="Helvetica,sans-Serif" font-size="10.00">+ SetScalarParameterValue()</text>
<text text-anchor="start" x="8" y="-200.5" font-family="Helvetica,sans-Serif" font-size="10.00">+ MergeParameters()</text>
<text text-anchor="start" x="8" y="-189.5" font-family="Helvetica,sans-Serif" font-size="10.00">+ K2_InterpolateMaterialInstance</text>
<text text-anchor="start" x="8" y="-178.5" font-family="Helvetica,sans-Serif" font-size="10.00">Params()</text>
<text text-anchor="start" x="8" y="-167.5" font-family="Helvetica,sans-Serif" font-size="10.00">+ K2_GetVectorParameterValue()</text>
<text text-anchor="start" x="8" y="-156.5" font-family="Helvetica,sans-Serif" font-size="10.00">+ K2_GetTextureParameterValue()</text>
<text text-anchor="start" x="8" y="-145.5" font-family="Helvetica,sans-Serif" font-size="10.00">+ K2_GetScalarParameterValue()</text>
<text text-anchor="start" x="8" y="-134.5" font-family="Helvetica,sans-Serif" font-size="10.00">+ K2_CopyMaterialInstanceParameters()</text>
<text text-anchor="start" x="8" y="-123.5" font-family="Helvetica,sans-Serif" font-size="10.00">+ CopyParameterOverrides()</text>
<text text-anchor="start" x="8" y="-112.5" font-family="Helvetica,sans-Serif" font-size="10.00">+ StaticClass()</text>
</a>
</g>
</g>
<!-- Node2&#45;&gt;Node1 -->
<g id="edge1" class="edge"><title>Node2&#45;&gt;Node1</title>
<path fill="none" stroke="#404040" d="M109.962,-105.209C114.899,-94.1838 121.553,-83.9947 130.5,-76 159.829,-49.7926 264.264,-38.2304 334.047,-33.3404"/>
<polygon fill="none" stroke="#404040" points="334.245,-33.3273 339.966,-28.9375 346.218,-32.53 340.497,-36.9198 334.245,-33.3273"/>
<text text-anchor="middle" x="173" y="-79" font-family="Helvetica,sans-Serif" font-size="10.00"> +AreaLightMaterial</text>
</g>
<!-- Node14 -->
<g id="node3" class="node"><title>Node14</title>
<g id="a_node3"><a xlink:title=" ">
<polygon fill="none" stroke="#bfbfbf" points="464,-408.5 464,-465.5 499,-465.5 499,-408.5 464,-408.5"/>
<text text-anchor="middle" x="481.5" y="-453.5" font-family="Helvetica,sans-Serif" font-size="10.00">char</text>
<polyline fill="none" stroke="#bfbfbf" points="464,-446.5 499,-446.5 "/>
<text text-anchor="middle" x="481.5" y="-434.5" font-family="Helvetica,sans-Serif" font-size="10.00"> </text>
<polyline fill="none" stroke="#bfbfbf" points="464,-427.5 499,-427.5 "/>
<text text-anchor="middle" x="481.5" y="-415.5" font-family="Helvetica,sans-Serif" font-size="10.00"> </text>
</a>
</g>
</g>
<!-- Node14&#45;&gt;Node1 -->
<g id="edge2" class="edge"><title>Node14&#45;&gt;Node1</title>
<path fill="none" stroke="#404040" d="M463.752,-431.573C416.138,-418.604 285.979,-375.69 238.5,-284 201.918,-213.354 195.742,-172.088 238.5,-105 259.643,-71.8257 299.698,-53.0898 334.564,-42.6404"/>
<polygon fill="none" stroke="#404040" points="334.596,-42.6315 339.3,-37.1657 346.155,-39.4055 341.451,-44.8712 334.596,-42.6315"/>
<text text-anchor="middle" x="278.5" y="-192" font-family="Helvetica,sans-Serif" font-size="10.00"> +UnknownData00</text>
</g>
<!-- Node37 -->
<g id="node4" class="node"><title>Node37</title>
<g id="a_node4"><a xlink:href="a27315.html" target="_top" xlink:title=" ">
<polygon fill="none" stroke="red" points="328,-144 328,-245 471,-245 471,-144 328,-144"/>
<text text-anchor="middle" x="399.5" y="-233" font-family="Helvetica,sans-Serif" font-size="10.00">SDK::UPointLightComponent</text>
<polyline fill="none" stroke="red" points="328,-226 471,-226 "/>
<text text-anchor="middle" x="399.5" y="-214" font-family="Helvetica,sans-Serif" font-size="10.00"> </text>
<polyline fill="none" stroke="red" points="328,-207 471,-207 "/>
<text text-anchor="start" x="336" y="-195" font-family="Helvetica,sans-Serif" font-size="10.00">+ SetSourceRadius()</text>
<text text-anchor="start" x="336" y="-184" font-family="Helvetica,sans-Serif" font-size="10.00">+ SetSourceLength()</text>
<text text-anchor="start" x="336" y="-173" font-family="Helvetica,sans-Serif" font-size="10.00">+ SetLightFalloffExponent()</text>
<text text-anchor="start" x="336" y="-162" font-family="Helvetica,sans-Serif" font-size="10.00">+ SetAttenuationRadius()</text>
<text text-anchor="start" x="336" y="-151" font-family="Helvetica,sans-Serif" font-size="10.00">+ StaticClass()</text>
</a>
</g>
</g>
<!-- Node14&#45;&gt;Node37 -->
<g id="edge4" class="edge"><title>Node14&#45;&gt;Node37</title>
<path fill="none" stroke="#404040" d="M463.828,-428.932C448.214,-421.67 426.296,-408.764 415.5,-390 392.531,-350.078 389.444,-297.711 391.601,-257.373"/>
<polygon fill="none" stroke="#404040" points="391.61,-257.24 388.025,-250.982 392.422,-245.267 396.007,-251.524 391.61,-257.24"/>
<text text-anchor="middle" x="476" y="-360" font-family="Helvetica,sans-Serif" font-size="10.00"> +UnknownData01</text>
<text text-anchor="middle" x="476" y="-349" font-family="Helvetica,sans-Serif" font-size="10.00">+UnknownData02</text>
<text text-anchor="middle" x="476" y="-338" font-family="Helvetica,sans-Serif" font-size="10.00">+bUseInverseSquaredFalloff</text>
<text text-anchor="middle" x="476" y="-327" font-family="Helvetica,sans-Serif" font-size="10.00">+UnknownData00</text>
</g>
<!-- Node71 -->
<g id="node5" class="node"><title>Node71</title>
<g id="a_node5"><a xlink:href="a26515.html" target="_top" xlink:title=" ">
<polygon fill="none" stroke="red" points="489.5,-138.5 489.5,-250.5 639.5,-250.5 639.5,-138.5 489.5,-138.5"/>
<text text-anchor="middle" x="564.5" y="-238.5" font-family="Helvetica,sans-Serif" font-size="10.00">SDK::UStaticMeshComponent</text>
<polyline fill="none" stroke="red" points="489.5,-231.5 639.5,-231.5 "/>
<text text-anchor="middle" x="564.5" y="-219.5" font-family="Helvetica,sans-Serif" font-size="10.00"> </text>
<polyline fill="none" stroke="red" points="489.5,-212.5 639.5,-212.5 "/>
<text text-anchor="start" x="497.5" y="-200.5" font-family="Helvetica,sans-Serif" font-size="10.00">+ SetStaticMesh()</text>
<text text-anchor="start" x="497.5" y="-189.5" font-family="Helvetica,sans-Serif" font-size="10.00">+ SetForcedLodModel()</text>
<text text-anchor="start" x="497.5" y="-178.5" font-family="Helvetica,sans-Serif" font-size="10.00">+ OnRep_StaticMesh()</text>
<text text-anchor="start" x="497.5" y="-167.5" font-family="Helvetica,sans-Serif" font-size="10.00">+ GetLocalBounds()</text>
<text text-anchor="start" x="497.5" y="-156.5" font-family="Helvetica,sans-Serif" font-size="10.00">+ EnableAutomaticInstancing()</text>
<text text-anchor="start" x="497.5" y="-145.5" font-family="Helvetica,sans-Serif" font-size="10.00">+ StaticClass()</text>
</a>
</g>
</g>
<!-- Node14&#45;&gt;Node71 -->
<g id="edge6" class="edge"><title>Node14&#45;&gt;Node71</title>
<path fill="none" stroke="#404040" d="M499.121,-426.112C511.686,-418.079 527.831,-405.547 536.5,-390 557.984,-351.468 564.907,-302.235 566.499,-262.944"/>
<polygon fill="none" stroke="#404040" points="566.502,-262.823 562.671,-256.714 566.836,-250.827 570.668,-256.936 566.502,-262.823"/>
<text text-anchor="start" x="563.5" y="-382" font-family="Helvetica,sans-Serif" font-size="10.00"> +bIgnoreInstanceForTexture</text>
<text text-anchor="middle" x="625.5" y="-371" font-family="Helvetica,sans-Serif" font-size="10.00">Streaming</text>
<text text-anchor="middle" x="625.5" y="-360" font-family="Helvetica,sans-Serif" font-size="10.00">+UnknownData01</text>
<text text-anchor="middle" x="625.5" y="-349" font-family="Helvetica,sans-Serif" font-size="10.00">+UnknownData02</text>
<text text-anchor="middle" x="625.5" y="-338" font-family="Helvetica,sans-Serif" font-size="10.00">+UnknownData03</text>
<text text-anchor="middle" x="625.5" y="-327" font-family="Helvetica,sans-Serif" font-size="10.00">+UnknownData04</text>
<text text-anchor="middle" x="625.5" y="-316" font-family="Helvetica,sans-Serif" font-size="10.00">+bOverrideLightMapRes</text>
<text text-anchor="middle" x="625.5" y="-305" font-family="Helvetica,sans-Serif" font-size="10.00">+UnknownData00</text>
</g>
<!-- Node113 -->
<g id="node6" class="node"><title>Node113</title>
<g id="a_node6"><a xlink:href="a32215.html" target="_top" xlink:title=" ">
<polygon fill="none" stroke="red" points="657.5,-160.5 657.5,-228.5 797.5,-228.5 797.5,-160.5 657.5,-160.5"/>
<text text-anchor="start" x="665.5" y="-216.5" font-family="Helvetica,sans-Serif" font-size="10.00">SDK::FShipFireLightRelative</text>
<text text-anchor="middle" x="727.5" y="-205.5" font-family="Helvetica,sans-Serif" font-size="10.00">SpawnDesc</text>
<polyline fill="none" stroke="red" points="657.5,-198.5 797.5,-198.5 "/>
<text text-anchor="middle" x="727.5" y="-186.5" font-family="Helvetica,sans-Serif" font-size="10.00"> </text>
<polyline fill="none" stroke="red" points="657.5,-179.5 797.5,-179.5 "/>
<text text-anchor="middle" x="727.5" y="-167.5" font-family="Helvetica,sans-Serif" font-size="10.00"> </text>
</a>
</g>
</g>
<!-- Node14&#45;&gt;Node113 -->
<g id="edge8" class="edge"><title>Node14&#45;&gt;Node113</title>
<path fill="none" stroke="#404040" d="M499.012,-434.611C544.495,-430.639 664.699,-417.69 691.5,-390 729.622,-350.613 734.201,-284.727 732.245,-240.7"/>
<polygon fill="none" stroke="#404040" points="732.239,-240.603 727.887,-234.853 731.521,-228.625 735.873,-234.375 732.239,-240.603"/>
<text text-anchor="middle" x="769.5" y="-343.5" font-family="Helvetica,sans-Serif" font-size="10.00"> +UnknownData00</text>
</g>
<!-- Node37&#45;&gt;Node1 -->
<g id="edge3" class="edge"><title>Node37&#45;&gt;Node1</title>
<path fill="none" stroke="#404040" d="M399.5,-143.556C399.5,-119.895 399.5,-92.0224 399.5,-69.813"/>
<polygon fill="none" stroke="#404040" points="399.5,-69.7934 395.5,-63.7934 399.5,-57.7934 403.5,-63.7934 399.5,-69.7934"/>
<text text-anchor="middle" x="426" y="-79" font-family="Helvetica,sans-Serif" font-size="10.00"> +PointLight</text>
</g>
<!-- Node71&#45;&gt;Node1 -->
<g id="edge5" class="edge"><title>Node71&#45;&gt;Node1</title>
<path fill="none" stroke="#404040" d="M516.922,-138.379C498.658,-118.133 477.217,-95.426 456.5,-76 452.795,-72.5262 448.859,-69.0167 444.854,-65.5672"/>
<polygon fill="none" stroke="#404040" points="444.647,-65.3929 437.48,-64.5948 435.46,-57.6723 442.627,-58.4704 444.647,-65.3929"/>
<text text-anchor="middle" x="492" y="-79" font-family="Helvetica,sans-Serif" font-size="10.00"> +AreaLight</text>
</g>
<!-- Node113&#45;&gt;Node1 -->
<g id="edge7" class="edge"><title>Node113&#45;&gt;Node1</title>
<path fill="none" stroke="#404040" d="M705.006,-160.31C690.791,-141.637 670.906,-119.277 648.5,-105 591.982,-68.9881 517.291,-49.5225 464.502,-39.5224"/>
<polygon fill="none" stroke="#404040" points="464.391,-39.5022 457.772,-42.3638 452.584,-37.3545 459.203,-34.4929 464.391,-39.5022"/>
<text text-anchor="middle" x="627.5" y="-79" font-family="Helvetica,sans-Serif" font-size="10.00"> +Desc</text>
</g>
</g>
</svg>
