<?xml version="1.0" encoding="UTF-8" standalone="no"?>
<!DOCTYPE svg PUBLIC "-//W3C//DTD SVG 1.1//EN"
 "http://www.w3.org/Graphics/SVG/1.1/DTD/svg11.dtd">
<!-- Generated by graphviz version 2.38.0 (20140413.2041)
 -->
<!-- Title: SDK::AGameplayDebuggingHUDComponent Pages: 1 -->
<!--zoomable 661 -->
<svg id="main" version="1.1" xmlns="http://www.w3.org/2000/svg" xmlns:xlink="http://www.w3.org/1999/xlink" xml:space="preserve" onload="init(evt)">
<style type="text/css"><![CDATA[
.edge:hover path { stroke: red; }
.edge:hover polygon { stroke: red; fill: red; }
]]></style>
<script type="text/javascript"><![CDATA[
var edges = document.getElementsByTagName('g');
if (edges && edges.length) {
  for (var i=0;i<edges.length;i++) {
    if (edges[i].id.substr(0,4)=='edge') {
      edges[i].setAttribute('class','edge');
    }
  }
}
]]></script>
        <defs>
                <circle id="rim" cx="0" cy="0" r="7"/>
                <circle id="rim2" cx="0" cy="0" r="3.5"/>
                <g id="zoomPlus">
                        <use xlink:href="#rim" fill="#404040">
                                <set attributeName="fill" to="#808080" begin="zoomplus.mouseover" end="zoomplus.mouseout"/>
                        </use>
                        <path d="M-4,0h8M0,-4v8" fill="none" stroke="white" stroke-width="1.5" pointer-events="none"/>
                </g>
                <g id="zoomMin">
                        <use xlink:href="#rim" fill="#404040">
                                <set attributeName="fill" to="#808080" begin="zoomminus.mouseover" end="zoomminus.mouseout"/>
                        </use>
                        <path d="M-4,0h8" fill="none" stroke="white" stroke-width="1.5" pointer-events="none"/>
                </g>
                <g id="dirArrow">
                        <path fill="none" stroke="white" stroke-width="1.5" d="M0,-3.0v7 M-2.5,-0.5L0,-3.0L2.5,-0.5"/>
                </g>
               <g id="resetDef">
                       <use xlink:href="#rim2" fill="#404040">
                               <set attributeName="fill" to="#808080" begin="reset.mouseover" end="reset.mouseout"/>
                       </use>
               </g>
        </defs>

<script type="text/javascript">
var viewWidth = 930;
var viewHeight = 661;
var sectionId = 'dynsection-1';
</script>
<script xlink:href="svgpan.js"/>
<svg id="graph" class="graph">
<g id="viewport">
<title>SDK::AGameplayDebuggingHUDComponent</title>
<!-- Node1 -->
<g id="node1" class="node"><title>Node1</title>
<g id="a_node1"><a xlink:title=" ">
<polygon fill="#bfbfbf" stroke="black" points="298.273,-0.5 298.273,-57.5 507.273,-57.5 507.273,-0.5 298.273,-0.5"/>
<text text-anchor="middle" x="402.773" y="-45.5" font-family="Helvetica,sans-Serif" font-size="10.00">SDK::AGameplayDebuggingHUDComponent</text>
<polyline fill="none" stroke="black" points="298.273,-38.5 507.273,-38.5 "/>
<text text-anchor="middle" x="402.773" y="-26.5" font-family="Helvetica,sans-Serif" font-size="10.00"> </text>
<polyline fill="none" stroke="black" points="298.273,-19.5 507.273,-19.5 "/>
<text text-anchor="start" x="306.273" y="-7.5" font-family="Helvetica,sans-Serif" font-size="10.00">+ StaticClass()</text>
</a>
</g>
</g>
<!-- Node2 -->
<g id="node2" class="node"><title>Node2</title>
<g id="a_node2"><a xlink:href="a26343.html" target="_top" xlink:title=" ">
<polygon fill="none" stroke="red" points="319.273,-122 319.273,-421 486.273,-421 486.273,-122 319.273,-122"/>
<text text-anchor="middle" x="402.773" y="-409" font-family="Helvetica,sans-Serif" font-size="10.00">SDK::AActor</text>
<polyline fill="none" stroke="red" points="319.273,-402 486.273,-402 "/>
<text text-anchor="start" x="327.273" y="-390" font-family="Helvetica,sans-Serif" font-size="10.00">+ bAllowRemovalFromServerWhen</text>
<text text-anchor="start" x="327.273" y="-379" font-family="Helvetica,sans-Serif" font-size="10.00">CollisionMerged</text>
<text text-anchor="start" x="327.273" y="-368" font-family="Helvetica,sans-Serif" font-size="10.00">+ bHidden</text>
<text text-anchor="start" x="327.273" y="-357" font-family="Helvetica,sans-Serif" font-size="10.00">+ bNetStartup</text>
<text text-anchor="start" x="327.273" y="-346" font-family="Helvetica,sans-Serif" font-size="10.00">+ bOnlyRelevantToOwner</text>
<text text-anchor="start" x="327.273" y="-335" font-family="Helvetica,sans-Serif" font-size="10.00">+ bAlwaysRelevant</text>
<text text-anchor="start" x="327.273" y="-324" font-family="Helvetica,sans-Serif" font-size="10.00">+ bReplicateMovement</text>
<text text-anchor="start" x="327.273" y="-313" font-family="Helvetica,sans-Serif" font-size="10.00">+ bExchangedRoles</text>
<text text-anchor="start" x="327.273" y="-302" font-family="Helvetica,sans-Serif" font-size="10.00">+ bNetLoadOnClient</text>
<text text-anchor="start" x="327.273" y="-291" font-family="Helvetica,sans-Serif" font-size="10.00">+ bBlockInput</text>
<text text-anchor="start" x="327.273" y="-280" font-family="Helvetica,sans-Serif" font-size="10.00">+ UnknownData00</text>
<text text-anchor="start" x="327.273" y="-269" font-family="Helvetica,sans-Serif" font-size="10.00">and 26 more...</text>
<polyline fill="none" stroke="red" points="319.273,-262 486.273,-262 "/>
<text text-anchor="start" x="327.273" y="-250" font-family="Helvetica,sans-Serif" font-size="10.00">+ UserConstructionScript()</text>
<text text-anchor="start" x="327.273" y="-239" font-family="Helvetica,sans-Serif" font-size="10.00">+ TearOff()</text>
<text text-anchor="start" x="327.273" y="-228" font-family="Helvetica,sans-Serif" font-size="10.00">+ SnapRootComponentTo()</text>
<text text-anchor="start" x="327.273" y="-217" font-family="Helvetica,sans-Serif" font-size="10.00">+ SetTickGroup()</text>
<text text-anchor="start" x="327.273" y="-206" font-family="Helvetica,sans-Serif" font-size="10.00">+ SetTickableWhenPaused()</text>
<text text-anchor="start" x="327.273" y="-195" font-family="Helvetica,sans-Serif" font-size="10.00">+ SetReplicates()</text>
<text text-anchor="start" x="327.273" y="-184" font-family="Helvetica,sans-Serif" font-size="10.00">+ SetReplicateMovement()</text>
<text text-anchor="start" x="327.273" y="-173" font-family="Helvetica,sans-Serif" font-size="10.00">+ SetOwner()</text>
<text text-anchor="start" x="327.273" y="-162" font-family="Helvetica,sans-Serif" font-size="10.00">+ SetLifeSpan()</text>
<text text-anchor="start" x="327.273" y="-151" font-family="Helvetica,sans-Serif" font-size="10.00">+ SetIgnoreNetTransformUpdates()</text>
<text text-anchor="start" x="327.273" y="-140" font-family="Helvetica,sans-Serif" font-size="10.00">and 109 more...</text>
<text text-anchor="start" x="327.273" y="-129" font-family="Helvetica,sans-Serif" font-size="10.00">+ StaticClass()</text>
</a>
</g>
</g>
<!-- Node2&#45;&gt;Node1 -->
<g id="edge1" class="edge"><title>Node2&#45;&gt;Node1</title>
<path fill="none" stroke="midnightblue" d="M402.773,-111.735C402.773,-91.1726 402.773,-72.2901 402.773,-57.8666"/>
<polygon fill="none" stroke="midnightblue" points="399.273,-111.952 402.773,-121.952 406.273,-111.952 399.273,-111.952"/>
</g>
<!-- Node2&#45;&gt;Node2 -->
<g id="edge4" class="edge"><title>Node2&#45;&gt;Node2</title>
<path fill="none" stroke="#404040" d="M486.393,-302.722C497.16,-297.308 504.273,-286.9 504.273,-271.5 504.273,-261.393 501.21,-253.437 496.061,-247.632"/>
<polygon fill="none" stroke="#404040" points="495.944,-247.543 488.747,-247.094 486.393,-240.278 493.59,-240.727 495.944,-247.543"/>
<text text-anchor="middle" x="522.773" y="-269" font-family="Helvetica,sans-Serif" font-size="10.00"> +Owner</text>
</g>
<!-- Node12 -->
<g id="node3" class="node"><title>Node12</title>
<g id="a_node3"><a xlink:title=" ">
<polygon fill="none" stroke="#bfbfbf" points="102.273,-595.5 102.273,-652.5 137.273,-652.5 137.273,-595.5 102.273,-595.5"/>
<text text-anchor="middle" x="119.773" y="-640.5" font-family="Helvetica,sans-Serif" font-size="10.00">char</text>
<polyline fill="none" stroke="#bfbfbf" points="102.273,-633.5 137.273,-633.5 "/>
<text text-anchor="middle" x="119.773" y="-621.5" font-family="Helvetica,sans-Serif" font-size="10.00"> </text>
<polyline fill="none" stroke="#bfbfbf" points="102.273,-614.5 137.273,-614.5 "/>
<text text-anchor="middle" x="119.773" y="-602.5" font-family="Helvetica,sans-Serif" font-size="10.00"> </text>
</a>
</g>
</g>
<!-- Node12&#45;&gt;Node1 -->
<g id="edge8" class="edge"><title>Node12&#45;&gt;Node1</title>
<path fill="none" stroke="#404040" d="M101.967,-616.957C85.0948,-610.166 60.7504,-597.35 49.7728,-577 -0.463465,-483.875 -39.0834,-236.095 72.7728,-105 100.397,-72.6246 202.442,-52.8731 285.829,-41.826"/>
<polygon fill="none" stroke="#404040" points="286.084,-41.7932 291.523,-37.0588 297.985,-40.2588 292.546,-44.9931 286.084,-41.7932"/>
<text text-anchor="middle" x="112.773" y="-269" font-family="Helvetica,sans-Serif" font-size="10.00"> +UnknownData00</text>
</g>
<!-- Node12&#45;&gt;Node2 -->
<g id="edge2" class="edge"><title>Node12&#45;&gt;Node2</title>
<path fill="none" stroke="#404040" d="M137.525,-599.625C142.114,-592.65 146.638,-584.783 149.773,-577 170.223,-526.223 132.974,-493.585 172.773,-456 217.422,-413.835 258.905,-472.409 309.773,-438 313.616,-435.4 317.318,-432.586 320.882,-429.589"/>
<polygon fill="none" stroke="#404040" points="321.145,-429.348 322.871,-422.347 329.998,-421.248 328.272,-428.25 321.145,-429.348"/>
<text text-anchor="middle" x="238.773" y="-569" font-family="Helvetica,sans-Serif" font-size="10.00"> +bEnableAutoLODGeneration</text>
<text text-anchor="middle" x="238.773" y="-558" font-family="Helvetica,sans-Serif" font-size="10.00">+UnknownData01</text>
<text text-anchor="middle" x="238.773" y="-547" font-family="Helvetica,sans-Serif" font-size="10.00">+bNetUseOwnerRelevancy</text>
<text text-anchor="middle" x="238.773" y="-536" font-family="Helvetica,sans-Serif" font-size="10.00">+bTearOff</text>
<text text-anchor="middle" x="238.773" y="-525" font-family="Helvetica,sans-Serif" font-size="10.00">+bNetTemporary</text>
<text text-anchor="middle" x="238.773" y="-514" font-family="Helvetica,sans-Serif" font-size="10.00">+UnknownData02</text>
<text text-anchor="middle" x="238.773" y="-503" font-family="Helvetica,sans-Serif" font-size="10.00">+bCanBeInCluster</text>
<text text-anchor="middle" x="238.773" y="-492" font-family="Helvetica,sans-Serif" font-size="10.00">+bPendingNetUpdate</text>
<text text-anchor="middle" x="238.773" y="-481" font-family="Helvetica,sans-Serif" font-size="10.00">+UnknownData10</text>
<text text-anchor="middle" x="238.773" y="-470" font-family="Helvetica,sans-Serif" font-size="10.00">+UnknownData03</text>
<text text-anchor="middle" x="238.773" y="-459" font-family="Helvetica,sans-Serif" font-size="10.00">...</text>
</g>
<!-- Node177 -->
<g id="node5" class="node"><title>Node177</title>
<g id="a_node5"><a xlink:href="a27775.html" target="_top" xlink:title=" ">
<polygon fill="none" stroke="red" points="162.273,-171.5 162.273,-371.5 301.273,-371.5 301.273,-171.5 162.273,-171.5"/>
<text text-anchor="middle" x="231.773" y="-359.5" font-family="Helvetica,sans-Serif" font-size="10.00">SDK::UCanvas</text>
<polyline fill="none" stroke="red" points="162.273,-352.5 301.273,-352.5 "/>
<text text-anchor="middle" x="231.773" y="-340.5" font-family="Helvetica,sans-Serif" font-size="10.00"> </text>
<polyline fill="none" stroke="red" points="162.273,-333.5 301.273,-333.5 "/>
<text text-anchor="start" x="170.273" y="-321.5" font-family="Helvetica,sans-Serif" font-size="10.00">+ K2_TextSize()</text>
<text text-anchor="start" x="170.273" y="-310.5" font-family="Helvetica,sans-Serif" font-size="10.00">+ K2_StrLen()</text>
<text text-anchor="start" x="170.273" y="-299.5" font-family="Helvetica,sans-Serif" font-size="10.00">+ K2_Project()</text>
<text text-anchor="start" x="170.273" y="-288.5" font-family="Helvetica,sans-Serif" font-size="10.00">+ K2_DrawTriangle()</text>
<text text-anchor="start" x="170.273" y="-277.5" font-family="Helvetica,sans-Serif" font-size="10.00">+ K2_DrawTexture()</text>
<text text-anchor="start" x="170.273" y="-266.5" font-family="Helvetica,sans-Serif" font-size="10.00">+ K2_DrawText()</text>
<text text-anchor="start" x="170.273" y="-255.5" font-family="Helvetica,sans-Serif" font-size="10.00">+ K2_DrawPolygon()</text>
<text text-anchor="start" x="170.273" y="-244.5" font-family="Helvetica,sans-Serif" font-size="10.00">+ K2_DrawMaterialTriangle()</text>
<text text-anchor="start" x="170.273" y="-233.5" font-family="Helvetica,sans-Serif" font-size="10.00">+ K2_DrawMaterial()</text>
<text text-anchor="start" x="170.273" y="-222.5" font-family="Helvetica,sans-Serif" font-size="10.00">+ K2_DrawLine()</text>
<text text-anchor="start" x="170.273" y="-211.5" font-family="Helvetica,sans-Serif" font-size="10.00">+ K2_DrawBox()</text>
<text text-anchor="start" x="170.273" y="-200.5" font-family="Helvetica,sans-Serif" font-size="10.00">+ K2_DrawBorder()</text>
<text text-anchor="start" x="170.273" y="-189.5" font-family="Helvetica,sans-Serif" font-size="10.00">+ K2_Deproject()</text>
<text text-anchor="start" x="170.273" y="-178.5" font-family="Helvetica,sans-Serif" font-size="10.00">+ StaticClass()</text>
</a>
</g>
</g>
<!-- Node12&#45;&gt;Node177 -->
<g id="edge6" class="edge"><title>Node12&#45;&gt;Node177</title>
<path fill="none" stroke="#404040" d="M101.866,-612.19C90.3321,-604.108 76.3137,-591.906 69.7728,-577 48.163,-527.755 38.8499,-499.998 69.7728,-456 83.3537,-436.677 101.125,-452.494 119.773,-438 139.755,-422.469 157.443,-402.351 172.523,-381.522"/>
<polygon fill="none" stroke="#404040" points="172.6,-381.412 172.77,-374.203 179.49,-371.587 179.32,-378.796 172.6,-381.412"/>
<text text-anchor="middle" x="109.773" y="-541.5" font-family="Helvetica,sans-Serif" font-size="10.00"> +UnknownData01</text>
<text text-anchor="middle" x="109.773" y="-530.5" font-family="Helvetica,sans-Serif" font-size="10.00">+UnknownData02</text>
<text text-anchor="middle" x="109.773" y="-519.5" font-family="Helvetica,sans-Serif" font-size="10.00">+bNoSmooth</text>
<text text-anchor="middle" x="109.773" y="-508.5" font-family="Helvetica,sans-Serif" font-size="10.00">+bCenterX</text>
<text text-anchor="middle" x="109.773" y="-497.5" font-family="Helvetica,sans-Serif" font-size="10.00">+bCenterY</text>
<text text-anchor="middle" x="109.773" y="-486.5" font-family="Helvetica,sans-Serif" font-size="10.00">+UnknownData00</text>
</g>
<!-- Node190 -->
<g id="node6" class="node"><title>Node190</title>
<g id="a_node6"><a xlink:href="a26451.html" target="_top" xlink:title=" ">
<polygon fill="none" stroke="red" points="559.273,-105.5 559.273,-437.5 708.273,-437.5 708.273,-105.5 559.273,-105.5"/>
<text text-anchor="middle" x="633.773" y="-425.5" font-family="Helvetica,sans-Serif" font-size="10.00">SDK::APlayerController</text>
<polyline fill="none" stroke="red" points="559.273,-418.5 708.273,-418.5 "/>
<text text-anchor="start" x="567.273" y="-406.5" font-family="Helvetica,sans-Serif" font-size="10.00">+ UnknownData00</text>
<text text-anchor="start" x="567.273" y="-395.5" font-family="Helvetica,sans-Serif" font-size="10.00">+ UnknownData05</text>
<text text-anchor="start" x="567.273" y="-384.5" font-family="Helvetica,sans-Serif" font-size="10.00">+ UnknownData06</text>
<text text-anchor="start" x="567.273" y="-373.5" font-family="Helvetica,sans-Serif" font-size="10.00">+ NetPlayerIndex</text>
<text text-anchor="start" x="567.273" y="-362.5" font-family="Helvetica,sans-Serif" font-size="10.00">+ UnknownData07</text>
<text text-anchor="start" x="567.273" y="-351.5" font-family="Helvetica,sans-Serif" font-size="10.00">+ UnknownData08</text>
<text text-anchor="start" x="567.273" y="-340.5" font-family="Helvetica,sans-Serif" font-size="10.00">+ bEnableClickEvents</text>
<text text-anchor="start" x="567.273" y="-329.5" font-family="Helvetica,sans-Serif" font-size="10.00">+ bEnableTouchEvents</text>
<text text-anchor="start" x="567.273" y="-318.5" font-family="Helvetica,sans-Serif" font-size="10.00">+ bEnableTouchOverEvents</text>
<text text-anchor="start" x="567.273" y="-307.5" font-family="Helvetica,sans-Serif" font-size="10.00">+ UnknownData09</text>
<text text-anchor="start" x="567.273" y="-296.5" font-family="Helvetica,sans-Serif" font-size="10.00">+ UnknownData12</text>
<text text-anchor="start" x="567.273" y="-285.5" font-family="Helvetica,sans-Serif" font-size="10.00">+ UnknownData13</text>
<text text-anchor="start" x="567.273" y="-274.5" font-family="Helvetica,sans-Serif" font-size="10.00">+ UnknownData14</text>
<text text-anchor="start" x="567.273" y="-263.5" font-family="Helvetica,sans-Serif" font-size="10.00">+ UnknownData15</text>
<text text-anchor="start" x="567.273" y="-252.5" font-family="Helvetica,sans-Serif" font-size="10.00">+ UnknownData16</text>
<polyline fill="none" stroke="red" points="559.273,-245.5 708.273,-245.5 "/>
<text text-anchor="start" x="567.273" y="-233.5" font-family="Helvetica,sans-Serif" font-size="10.00">+ WasInputKeyJustReleased()</text>
<text text-anchor="start" x="567.273" y="-222.5" font-family="Helvetica,sans-Serif" font-size="10.00">+ WasInputKeyJustPressed()</text>
<text text-anchor="start" x="567.273" y="-211.5" font-family="Helvetica,sans-Serif" font-size="10.00">+ ToggleSpeaking()</text>
<text text-anchor="start" x="567.273" y="-200.5" font-family="Helvetica,sans-Serif" font-size="10.00">+ SwitchLevel()</text>
<text text-anchor="start" x="567.273" y="-189.5" font-family="Helvetica,sans-Serif" font-size="10.00">+ StopHapticEffect()</text>
<text text-anchor="start" x="567.273" y="-178.5" font-family="Helvetica,sans-Serif" font-size="10.00">+ StartFire()</text>
<text text-anchor="start" x="567.273" y="-167.5" font-family="Helvetica,sans-Serif" font-size="10.00">+ SetVirtualJoystickVisibility()</text>
<text text-anchor="start" x="567.273" y="-156.5" font-family="Helvetica,sans-Serif" font-size="10.00">+ SetViewTargetWithBlend()</text>
<text text-anchor="start" x="567.273" y="-145.5" font-family="Helvetica,sans-Serif" font-size="10.00">+ SetName()</text>
<text text-anchor="start" x="567.273" y="-134.5" font-family="Helvetica,sans-Serif" font-size="10.00">+ SetIgnoreMoveInput()</text>
<text text-anchor="start" x="567.273" y="-123.5" font-family="Helvetica,sans-Serif" font-size="10.00">and 117 more...</text>
<text text-anchor="start" x="567.273" y="-112.5" font-family="Helvetica,sans-Serif" font-size="10.00">+ StaticClass()</text>
</a>
</g>
</g>
<!-- Node12&#45;&gt;Node190 -->
<g id="edge12" class="edge"><title>Node12&#45;&gt;Node190</title>
<path fill="none" stroke="#404040" d="M137.52,-622.149C187.539,-619.37 328.018,-608.831 358.773,-577 396.598,-537.851 338.302,-493.489 377.773,-456 403.461,-431.601 501.055,-455.405 548.173,-436.697"/>
<polygon fill="none" stroke="#404040" points="548.385,-436.585 551.816,-430.242 558.99,-430.97 555.559,-437.312 548.385,-436.585"/>
<text text-anchor="middle" x="439.273" y="-569" font-family="Helvetica,sans-Serif" font-size="10.00"> +bEnableMouseOverEvents</text>
<text text-anchor="middle" x="439.273" y="-558" font-family="Helvetica,sans-Serif" font-size="10.00">+bShowMouseCursor</text>
<text text-anchor="middle" x="439.273" y="-547" font-family="Helvetica,sans-Serif" font-size="10.00">+bPlayerIsWaiting</text>
<text text-anchor="middle" x="439.273" y="-536" font-family="Helvetica,sans-Serif" font-size="10.00">+UnknownData01</text>
<text text-anchor="middle" x="439.273" y="-525" font-family="Helvetica,sans-Serif" font-size="10.00">+bForceFeedbackEnabled</text>
<text text-anchor="middle" x="439.273" y="-514" font-family="Helvetica,sans-Serif" font-size="10.00">+UnknownData02</text>
<text text-anchor="middle" x="439.273" y="-503" font-family="Helvetica,sans-Serif" font-size="10.00">+UnknownData10</text>
<text text-anchor="middle" x="439.273" y="-492" font-family="Helvetica,sans-Serif" font-size="10.00">+UnknownData03</text>
<text text-anchor="middle" x="439.273" y="-481" font-family="Helvetica,sans-Serif" font-size="10.00">+UnknownData11</text>
<text text-anchor="middle" x="439.273" y="-470" font-family="Helvetica,sans-Serif" font-size="10.00">+UnknownData04</text>
<text text-anchor="middle" x="439.273" y="-459" font-family="Helvetica,sans-Serif" font-size="10.00">...</text>
</g>
<!-- Node25 -->
<g id="node4" class="node"><title>Node25</title>
<g id="a_node4"><a xlink:title=" ">
<polygon fill="none" stroke="#bfbfbf" points="576.273,-595.5 576.273,-652.5 611.273,-652.5 611.273,-595.5 576.273,-595.5"/>
<text text-anchor="middle" x="593.773" y="-640.5" font-family="Helvetica,sans-Serif" font-size="10.00">float</text>
<polyline fill="none" stroke="#bfbfbf" points="576.273,-633.5 611.273,-633.5 "/>
<text text-anchor="middle" x="593.773" y="-621.5" font-family="Helvetica,sans-Serif" font-size="10.00"> </text>
<polyline fill="none" stroke="#bfbfbf" points="576.273,-614.5 611.273,-614.5 "/>
<text text-anchor="middle" x="593.773" y="-602.5" font-family="Helvetica,sans-Serif" font-size="10.00"> </text>
</a>
</g>
</g>
<!-- Node25&#45;&gt;Node1 -->
<g id="edge9" class="edge"><title>Node25&#45;&gt;Node1</title>
<path fill="none" stroke="#404040" d="M611.414,-621.845C657.188,-618.445 777.864,-606.774 801.773,-577 885.991,-472.122 844.456,-231.537 717.773,-105 689.788,-77.0471 597.387,-57.163 519.846,-44.9233"/>
<polygon fill="none" stroke="#404040" points="519.4,-44.8547 512.86,-47.8928 507.54,-43.0245 514.08,-39.9864 519.4,-44.8547"/>
<text text-anchor="middle" x="883.273" y="-285.5" font-family="Helvetica,sans-Serif" font-size="10.00"> +MenuStartX</text>
<text text-anchor="middle" x="883.273" y="-274.5" font-family="Helvetica,sans-Serif" font-size="10.00">+MenuStartY</text>
<text text-anchor="middle" x="883.273" y="-263.5" font-family="Helvetica,sans-Serif" font-size="10.00">+DebugInfoStartX</text>
<text text-anchor="middle" x="883.273" y="-252.5" font-family="Helvetica,sans-Serif" font-size="10.00">+DebugInfoStartY</text>
</g>
<!-- Node25&#45;&gt;Node2 -->
<g id="edge3" class="edge"><title>Node25&#45;&gt;Node2</title>
<path fill="none" stroke="#404040" d="M576.014,-616.292C559.668,-609.143 536.143,-596.189 523.773,-577 494.279,-531.246 522.492,-507.472 504.773,-456 500.924,-444.821 496.414,-433.529 491.47,-422.331"/>
<polygon fill="none" stroke="#404040" points="491.363,-422.095 485.236,-418.292 486.391,-411.174 492.517,-414.977 491.363,-422.095"/>
<text text-anchor="middle" x="579.773" y="-547" font-family="Helvetica,sans-Serif" font-size="10.00"> +InitialLifeSpan</text>
<text text-anchor="middle" x="579.773" y="-536" font-family="Helvetica,sans-Serif" font-size="10.00">+LastNetUpdateTime</text>
<text text-anchor="middle" x="579.773" y="-525" font-family="Helvetica,sans-Serif" font-size="10.00">+NetCullDistanceSquared</text>
<text text-anchor="middle" x="579.773" y="-514" font-family="Helvetica,sans-Serif" font-size="10.00">+NetUpdateFrequency</text>
<text text-anchor="middle" x="579.773" y="-503" font-family="Helvetica,sans-Serif" font-size="10.00">+NetUpdateTime</text>
<text text-anchor="middle" x="579.773" y="-492" font-family="Helvetica,sans-Serif" font-size="10.00">+CustomTimeDilation</text>
<text text-anchor="middle" x="579.773" y="-481" font-family="Helvetica,sans-Serif" font-size="10.00">+NetPriority</text>
</g>
<!-- Node25&#45;&gt;Node177 -->
<g id="edge7" class="edge"><title>Node25&#45;&gt;Node177</title>
<path fill="none" stroke="#404040" d="M576.039,-622.478C522.368,-620.521 363.191,-611.835 327.773,-577 288.745,-538.615 320.071,-508.56 304.773,-456 297.783,-431.986 288.85,-406.758 279.648,-382.957"/>
<polygon fill="none" stroke="#404040" points="279.641,-382.94 273.727,-378.813 275.262,-371.768 281.176,-375.894 279.641,-382.94"/>
<text text-anchor="middle" x="343.273" y="-530.5" font-family="Helvetica,sans-Serif" font-size="10.00"> +OrgX</text>
<text text-anchor="middle" x="343.273" y="-519.5" font-family="Helvetica,sans-Serif" font-size="10.00">+OrgY</text>
<text text-anchor="middle" x="343.273" y="-508.5" font-family="Helvetica,sans-Serif" font-size="10.00">+ClipX</text>
<text text-anchor="middle" x="343.273" y="-497.5" font-family="Helvetica,sans-Serif" font-size="10.00">+ClipY</text>
</g>
<!-- Node25&#45;&gt;Node190 -->
<g id="edge11" class="edge"><title>Node25&#45;&gt;Node190</title>
<path fill="none" stroke="#404040" d="M611.679,-610.772C622.016,-602.573 634.068,-590.773 639.773,-577 656.095,-537.595 661.535,-492.789 661.331,-449.899"/>
<polygon fill="none" stroke="#404040" points="661.33,-449.857 657.229,-443.926 661.128,-437.859 665.228,-443.791 661.33,-449.857"/>
<text text-anchor="middle" x="731.273" y="-541.5" font-family="Helvetica,sans-Serif" font-size="10.00"> +ForceFeedbackIntensity</text>
<text text-anchor="middle" x="731.273" y="-530.5" font-family="Helvetica,sans-Serif" font-size="10.00">+InputPitchScale</text>
<text text-anchor="middle" x="731.273" y="-519.5" font-family="Helvetica,sans-Serif" font-size="10.00">+InputRollScale</text>
<text text-anchor="middle" x="731.273" y="-508.5" font-family="Helvetica,sans-Serif" font-size="10.00">+HitResultTraceDistance</text>
<text text-anchor="middle" x="731.273" y="-497.5" font-family="Helvetica,sans-Serif" font-size="10.00">+LastSpectatorStateSynchTime</text>
<text text-anchor="middle" x="731.273" y="-486.5" font-family="Helvetica,sans-Serif" font-size="10.00">+InputYawScale</text>
</g>
<!-- Node177&#45;&gt;Node1 -->
<g id="edge5" class="edge"><title>Node177&#45;&gt;Node1</title>
<path fill="none" stroke="#404040" d="M269.621,-171.278C280.729,-148.334 294.165,-124.851 309.773,-105 321.335,-90.2942 336.293,-76.6415 350.819,-65.1252"/>
<polygon fill="none" stroke="#404040" points="351.235,-64.8065 353.564,-57.9819 360.759,-57.507 358.43,-64.3316 351.235,-64.8065"/>
<text text-anchor="middle" x="358.273" y="-79" font-family="Helvetica,sans-Serif" font-size="10.00"> +Canvas</text>
</g>
<!-- Node190&#45;&gt;Node1 -->
<g id="edge10" class="edge"><title>Node190&#45;&gt;Node1</title>
<path fill="none" stroke="#404040" d="M559.041,-114.991C556.048,-111.532 552.959,-108.193 549.773,-105 532.72,-87.911 510.967,-73.9462 489.455,-62.9003"/>
<polygon fill="none" stroke="#404040" points="489.361,-62.854 482.211,-63.7905 478.596,-57.5506 485.746,-56.6141 489.361,-62.854"/>
<text text-anchor="middle" x="559.273" y="-79" font-family="Helvetica,sans-Serif" font-size="10.00"> +PlayerOwner</text>
</g>
</g>
</svg>
        <g id="navigator" transform="translate(0 0)" fill="#404254">
                <rect fill="#f2f5e9" fill-opacity="0.5" stroke="#606060" stroke-width=".5" x="0" y="0" width="60" height="60"/>
                <use id="zoomplus" xlink:href="#zoomPlus" x="17" y="9" onmousedown="handleZoom(evt,'in')"/>
                <use id="zoomminus" xlink:href="#zoomMin" x="42" y="9" onmousedown="handleZoom(evt,'out')"/>
                <use id="reset" xlink:href="#resetDef" x="30" y="36" onmousedown="handleReset()"/>
                <g id="arrowUp" xlink:href="#dirArrow" transform="translate(30 24)" onmousedown="handlePan(0,-1)">
                  <use xlink:href="#rim" fill="#404040">
                        <set attributeName="fill" to="#808080" begin="arrowUp.mouseover" end="arrowUp.mouseout"/>
                  </use>
                  <path fill="none" stroke="white" stroke-width="1.5" d="M0,-3.0v7 M-2.5,-0.5L0,-3.0L2.5,-0.5"/>
                </g>
                <g id="arrowRight" xlink:href="#dirArrow" transform="rotate(90) translate(36 -43)" onmousedown="handlePan(1,0)">
                  <use xlink:href="#rim" fill="#404040">
                        <set attributeName="fill" to="#808080" begin="arrowRight.mouseover" end="arrowRight.mouseout"/>
                  </use>
                  <path fill="none" stroke="white" stroke-width="1.5" d="M0,-3.0v7 M-2.5,-0.5L0,-3.0L2.5,-0.5"/>
                </g>
                <g id="arrowDown" xlink:href="#dirArrow" transform="rotate(180) translate(-30 -48)" onmousedown="handlePan(0,1)">
                  <use xlink:href="#rim" fill="#404040">
                        <set attributeName="fill" to="#808080" begin="arrowDown.mouseover" end="arrowDown.mouseout"/>
                  </use>
                  <path fill="none" stroke="white" stroke-width="1.5" d="M0,-3.0v7 M-2.5,-0.5L0,-3.0L2.5,-0.5"/>
                </g>
                <g id="arrowLeft" xlink:href="#dirArrow" transform="rotate(270) translate(-36 17)" onmousedown="handlePan(-1,0)">
                  <use xlink:href="#rim" fill="#404040">
                        <set attributeName="fill" to="#808080" begin="arrowLeft.mouseover" end="arrowLeft.mouseout"/>
                  </use>
                  <path fill="none" stroke="white" stroke-width="1.5" d="M0,-3.0v7 M-2.5,-0.5L0,-3.0L2.5,-0.5"/>
                </g>
        </g>
        <svg viewBox="0 0 15 15" width="100%" height="30px" preserveAspectRatio="xMaxYMin meet">
         <g id="arrow_out" transform="scale(0.3 0.3)">
          <a xlink:href="a32269_org.svg" target="_base">
           <rect id="button" ry="5" rx="5" y="6" x="6" height="38" width="38"
                fill="#f2f5e9" fill-opacity="0.5" stroke="#606060" stroke-width="1.0"/>
           <path id="arrow"
             d="M 11.500037,31.436501 C 11.940474,20.09759 22.043105,11.32322 32.158766,21.979434 L 37.068811,17.246167 C 37.068811,17.246167 37.088388,32 37.088388,32 L 22.160133,31.978069 C 22.160133,31.978069 26.997745,27.140456 26.997745,27.140456 C 18.528582,18.264221 13.291696,25.230495 11.500037,31.436501 z"
             style="fill:#404040;"/>
          </a>
         </g>
        </svg>
</svg>
