<?xml version="1.0" encoding="UTF-8" standalone="no"?>
<!DOCTYPE svg PUBLIC "-//W3C//DTD SVG 1.1//EN"
 "http://www.w3.org/Graphics/SVG/1.1/DTD/svg11.dtd">
<!-- Generated by graphviz version 2.38.0 (20140413.2041)
 -->
<!-- Title: SDK::UShipFireVFXManager Pages: 1 -->
<svg width="2405pt" height="738pt"
 viewBox="0.00 0.00 2405.42 738.00" xmlns="http://www.w3.org/2000/svg" xmlns:xlink="http://www.w3.org/1999/xlink">
<g id="graph0" class="graph" transform="scale(1 1) rotate(0) translate(4 734)">
<title>SDK::UShipFireVFXManager</title>
<!-- Node1 -->
<g id="node1" class="node"><title>Node1</title>
<g id="a_node1"><a xlink:title=" ">
<polygon fill="#bfbfbf" stroke="black" points="1094.42,-0.5 1094.42,-57.5 1235.42,-57.5 1235.42,-0.5 1094.42,-0.5"/>
<text text-anchor="middle" x="1164.92" y="-45.5" font-family="Helvetica,sans-Serif" font-size="10.00">SDK::UShipFireVFXManager</text>
<polyline fill="none" stroke="black" points="1094.42,-38.5 1235.42,-38.5 "/>
<text text-anchor="middle" x="1164.92" y="-26.5" font-family="Helvetica,sans-Serif" font-size="10.00"> </text>
<polyline fill="none" stroke="black" points="1094.42,-19.5 1235.42,-19.5 "/>
<text text-anchor="start" x="1102.42" y="-7.5" font-family="Helvetica,sans-Serif" font-size="10.00">+ StaticClass()</text>
</a>
</g>
</g>
<!-- Node2 -->
<g id="node2" class="node"><title>Node2</title>
<g id="a_node2"><a xlink:href="a26095.html" target="_top" xlink:title=" ">
<polygon fill="none" stroke="red" points="5.91603,-573.5 5.91603,-729.5 117.916,-729.5 117.916,-573.5 5.91603,-573.5"/>
<text text-anchor="middle" x="61.916" y="-717.5" font-family="Helvetica,sans-Serif" font-size="10.00">SDK::UObject</text>
<polyline fill="none" stroke="red" points="5.91603,-710.5 117.916,-710.5 "/>
<text text-anchor="middle" x="61.916" y="-698.5" font-family="Helvetica,sans-Serif" font-size="10.00"> </text>
<polyline fill="none" stroke="red" points="5.91603,-691.5 117.916,-691.5 "/>
<text text-anchor="start" x="13.916" y="-679.5" font-family="Helvetica,sans-Serif" font-size="10.00">+ GetName()</text>
<text text-anchor="start" x="13.916" y="-668.5" font-family="Helvetica,sans-Serif" font-size="10.00">+ GetFullName()</text>
<text text-anchor="start" x="13.916" y="-657.5" font-family="Helvetica,sans-Serif" font-size="10.00">+ IsA()</text>
<text text-anchor="start" x="13.916" y="-646.5" font-family="Helvetica,sans-Serif" font-size="10.00">+ ProcessEvent()</text>
<text text-anchor="start" x="13.916" y="-635.5" font-family="Helvetica,sans-Serif" font-size="10.00">+ ExecuteUbergraph()</text>
<text text-anchor="start" x="13.916" y="-624.5" font-family="Helvetica,sans-Serif" font-size="10.00">+ StaticClass()</text>
<text text-anchor="start" x="13.916" y="-613.5" font-family="Helvetica,sans-Serif" font-size="10.00">+ GetGlobalObjects()</text>
<text text-anchor="start" x="13.916" y="-602.5" font-family="Helvetica,sans-Serif" font-size="10.00">+ FindObject()</text>
<text text-anchor="start" x="13.916" y="-591.5" font-family="Helvetica,sans-Serif" font-size="10.00">+ FindClass()</text>
<text text-anchor="start" x="13.916" y="-580.5" font-family="Helvetica,sans-Serif" font-size="10.00">+ GetObjectCasted()</text>
</a>
</g>
</g>
<!-- Node2&#45;&gt;Node1 -->
<g id="edge1" class="edge"><title>Node2&#45;&gt;Node1</title>
<path fill="none" stroke="midnightblue" d="M35.2589,-563.374C-1.94859,-422.7 -47.2464,-153.454 122.916,-76 210.728,-36.0298 874.528,-30.7295 1094.41,-30.0752"/>
<polygon fill="none" stroke="midnightblue" points="31.9446,-564.528 37.9207,-573.276 38.7046,-562.71 31.9446,-564.528"/>
</g>
<!-- Node2&#45;&gt;Node2 -->
<g id="edge2" class="edge"><title>Node2&#45;&gt;Node2</title>
<path fill="none" stroke="#404040" d="M118.062,-679.249C128.538,-675.832 135.916,-666.582 135.916,-651.5 135.916,-642.074 133.034,-634.926 128.315,-630.056"/>
<polygon fill="none" stroke="#404040" points="128.284,-630.037 121.078,-630.302 118.062,-623.751 125.268,-623.487 128.284,-630.037"/>
<text text-anchor="middle" x="152.916" y="-649" font-family="Helvetica,sans-Serif" font-size="10.00"> +Outer</text>
</g>
<!-- Node216 -->
<g id="node15" class="node"><title>Node216</title>
<g id="a_node15"><a xlink:href="a32319.html" target="_top" xlink:title=" ">
<polygon fill="none" stroke="red" points="73.416,-248.5 73.416,-305.5 186.416,-305.5 186.416,-248.5 73.416,-248.5"/>
<text text-anchor="middle" x="129.916" y="-293.5" font-family="Helvetica,sans-Serif" font-size="10.00">SDK::UFirePropagator</text>
<polyline fill="none" stroke="red" points="73.416,-286.5 186.416,-286.5 "/>
<text text-anchor="middle" x="129.916" y="-274.5" font-family="Helvetica,sans-Serif" font-size="10.00"> </text>
<polyline fill="none" stroke="red" points="73.416,-267.5 186.416,-267.5 "/>
<text text-anchor="start" x="81.416" y="-255.5" font-family="Helvetica,sans-Serif" font-size="10.00">+ StaticClass()</text>
</a>
</g>
</g>
<!-- Node2&#45;&gt;Node216 -->
<g id="edge17" class="edge"><title>Node2&#45;&gt;Node216</title>
<path fill="none" stroke="midnightblue" d="M77.8245,-563.355C93.0257,-480.083 115.034,-359.52 124.855,-305.725"/>
<polygon fill="none" stroke="midnightblue" points="74.3585,-562.852 76.0057,-573.318 81.2447,-564.109 74.3585,-562.852"/>
</g>
<!-- Node13 -->
<g id="node3" class="node"><title>Node13</title>
<g id="a_node3"><a xlink:href="a25823.html" target="_top" xlink:title=" ">
<polygon fill="none" stroke="black" points="524.916,-215.5 524.916,-338.5 686.916,-338.5 686.916,-215.5 524.916,-215.5"/>
<text text-anchor="start" x="532.916" y="-326.5" font-family="Helvetica,sans-Serif" font-size="10.00">SDK::TArray&lt; struct</text>
<text text-anchor="start" x="532.916" y="-315.5" font-family="Helvetica,sans-Serif" font-size="10.00"> SDK::FFireGridLowDetailRelative</text>
<text text-anchor="middle" x="605.916" y="-304.5" font-family="Helvetica,sans-Serif" font-size="10.00">SpawnDesc &gt;</text>
<polyline fill="none" stroke="black" points="524.916,-297.5 686.916,-297.5 "/>
<text text-anchor="middle" x="605.916" y="-285.5" font-family="Helvetica,sans-Serif" font-size="10.00"> </text>
<polyline fill="none" stroke="black" points="524.916,-278.5 686.916,-278.5 "/>
<text text-anchor="start" x="532.916" y="-266.5" font-family="Helvetica,sans-Serif" font-size="10.00">+ TArray()</text>
<text text-anchor="start" x="532.916" y="-255.5" font-family="Helvetica,sans-Serif" font-size="10.00">+ Num()</text>
<text text-anchor="start" x="532.916" y="-244.5" font-family="Helvetica,sans-Serif" font-size="10.00">+ operator[]()</text>
<text text-anchor="start" x="532.916" y="-233.5" font-family="Helvetica,sans-Serif" font-size="10.00">+ operator[]()</text>
<text text-anchor="start" x="532.916" y="-222.5" font-family="Helvetica,sans-Serif" font-size="10.00">+ IsValidIndex()</text>
</a>
</g>
</g>
<!-- Node13&#45;&gt;Node1 -->
<g id="edge3" class="edge"><title>Node13&#45;&gt;Node1</title>
<path fill="none" stroke="#404040" d="M612.698,-215.126C621.239,-169.244 640.505,-108.806 683.916,-76 714.915,-52.5737 952.981,-38.962 1082.16,-33.229"/>
<polygon fill="none" stroke="#404040" points="1082.32,-33.222 1088.14,-28.9641 1094.31,-32.6987 1088.49,-36.9565 1082.32,-33.222"/>
<text text-anchor="middle" x="756.916" y="-101" font-family="Helvetica,sans-Serif" font-size="10.00"> +LowDetailVFXSpawnDescs</text>
<text text-anchor="middle" x="756.916" y="-90" font-family="Helvetica,sans-Serif" font-size="10.00">+ExteriorSmokeVFXSpawnDescs</text>
</g>
<!-- Node14 -->
<g id="node4" class="node"><title>Node14</title>
<g id="a_node4"><a xlink:href="a25871.html" target="_top" xlink:title=" ">
<polygon fill="none" stroke="black" points="705.416,-243 705.416,-311 890.416,-311 890.416,-243 705.416,-243"/>
<text text-anchor="start" x="713.416" y="-299" font-family="Helvetica,sans-Serif" font-size="10.00">SDK::TMap&lt; int, class</text>
<text text-anchor="middle" x="797.916" y="-288" font-family="Helvetica,sans-Serif" font-size="10.00"> SDK::UParticleSystemComponent * &gt;</text>
<polyline fill="none" stroke="black" points="705.416,-281 890.416,-281 "/>
<text text-anchor="middle" x="797.916" y="-269" font-family="Helvetica,sans-Serif" font-size="10.00"> </text>
<polyline fill="none" stroke="black" points="705.416,-262 890.416,-262 "/>
<text text-anchor="middle" x="797.916" y="-250" font-family="Helvetica,sans-Serif" font-size="10.00"> </text>
</a>
</g>
</g>
<!-- Node14&#45;&gt;Node1 -->
<g id="edge4" class="edge"><title>Node14&#45;&gt;Node1</title>
<path fill="none" stroke="#404040" d="M799.644,-242.887C803.898,-197.74 818.556,-117.727 868.916,-76 900.543,-49.7945 1005.83,-38.4148 1081.84,-33.5421"/>
<polygon fill="none" stroke="#404040" points="1082.27,-33.5162 1088.01,-29.1592 1094.24,-32.7873 1088.5,-37.1444 1082.27,-33.5162"/>
<text text-anchor="start" x="868.916" y="-101" font-family="Helvetica,sans-Serif" font-size="10.00"> +SpawnedParticleSystemsFor</text>
<text text-anchor="middle" x="936.916" y="-90" font-family="Helvetica,sans-Serif" font-size="10.00">SmokeDescs</text>
</g>
<!-- Node15 -->
<g id="node5" class="node"><title>Node15</title>
<g id="a_node5"><a xlink:href="a26755.html" target="_top" xlink:title=" ">
<polygon fill="none" stroke="red" points="321.416,-138.5 321.416,-415.5 506.416,-415.5 506.416,-138.5 321.416,-138.5"/>
<text text-anchor="middle" x="413.916" y="-403.5" font-family="Helvetica,sans-Serif" font-size="10.00">SDK::UParticleSystemComponent</text>
<polyline fill="none" stroke="red" points="321.416,-396.5 506.416,-396.5 "/>
<text text-anchor="start" x="329.416" y="-384.5" font-family="Helvetica,sans-Serif" font-size="10.00">+ UnknownData00</text>
<text text-anchor="start" x="329.416" y="-373.5" font-family="Helvetica,sans-Serif" font-size="10.00">+ bResetOnDetach</text>
<text text-anchor="start" x="329.416" y="-362.5" font-family="Helvetica,sans-Serif" font-size="10.00">+ bUpdateOnDedicatedServer</text>
<text text-anchor="start" x="329.416" y="-351.5" font-family="Helvetica,sans-Serif" font-size="10.00">+ bOverrideLODMethod</text>
<text text-anchor="start" x="329.416" y="-340.5" font-family="Helvetica,sans-Serif" font-size="10.00">+ UnknownData07</text>
<text text-anchor="start" x="329.416" y="-329.5" font-family="Helvetica,sans-Serif" font-size="10.00">+ bSkipUpdateDynamicDataDuringTick</text>
<text text-anchor="start" x="329.416" y="-318.5" font-family="Helvetica,sans-Serif" font-size="10.00">+ UnknownData08</text>
<text text-anchor="start" x="329.416" y="-307.5" font-family="Helvetica,sans-Serif" font-size="10.00">+ UnknownData09</text>
<text text-anchor="start" x="329.416" y="-296.5" font-family="Helvetica,sans-Serif" font-size="10.00">+ bUnbound</text>
<polyline fill="none" stroke="red" points="321.416,-289.5 506.416,-289.5 "/>
<text text-anchor="start" x="329.416" y="-277.5" font-family="Helvetica,sans-Serif" font-size="10.00">+ SetVectorParameter()</text>
<text text-anchor="start" x="329.416" y="-266.5" font-family="Helvetica,sans-Serif" font-size="10.00">+ SetTrailSourceData()</text>
<text text-anchor="start" x="329.416" y="-255.5" font-family="Helvetica,sans-Serif" font-size="10.00">+ SetTemplate()</text>
<text text-anchor="start" x="329.416" y="-244.5" font-family="Helvetica,sans-Serif" font-size="10.00">+ SetMaterialParameter()</text>
<text text-anchor="start" x="329.416" y="-233.5" font-family="Helvetica,sans-Serif" font-size="10.00">+ SetFloatParameter()</text>
<text text-anchor="start" x="329.416" y="-222.5" font-family="Helvetica,sans-Serif" font-size="10.00">+ SetEnableDistanceFading()</text>
<text text-anchor="start" x="329.416" y="-211.5" font-family="Helvetica,sans-Serif" font-size="10.00">+ SetEmitterEnable()</text>
<text text-anchor="start" x="329.416" y="-200.5" font-family="Helvetica,sans-Serif" font-size="10.00">+ SetCustomLocalSpaceWorld</text>
<text text-anchor="start" x="329.416" y="-189.5" font-family="Helvetica,sans-Serif" font-size="10.00">Space()</text>
<text text-anchor="start" x="329.416" y="-178.5" font-family="Helvetica,sans-Serif" font-size="10.00">+ SetCustomLocalSpaceComponent()</text>
<text text-anchor="start" x="329.416" y="-167.5" font-family="Helvetica,sans-Serif" font-size="10.00">+ SetColorParameter()</text>
<text text-anchor="start" x="329.416" y="-156.5" font-family="Helvetica,sans-Serif" font-size="10.00">and 16 more...</text>
<text text-anchor="start" x="329.416" y="-145.5" font-family="Helvetica,sans-Serif" font-size="10.00">+ StaticClass()</text>
</a>
</g>
</g>
<!-- Node15&#45;&gt;Node1 -->
<g id="edge5" class="edge"><title>Node15&#45;&gt;Node1</title>
<path fill="none" stroke="#404040" d="M448.492,-138.476C460.616,-114.16 476.945,-91.6505 498.916,-76 545.367,-42.9126 914.079,-33.5117 1082.06,-30.9335"/>
<polygon fill="none" stroke="#404040" points="1082.28,-30.9303 1088.22,-26.8419 1094.28,-30.7525 1088.34,-34.841 1082.28,-30.9303"/>
<text text-anchor="start" x="498.916" y="-112" font-family="Helvetica,sans-Serif" font-size="10.00"> +SpawnedLowDetailParticle</text>
<text text-anchor="middle" x="570.916" y="-101" font-family="Helvetica,sans-Serif" font-size="10.00">System</text>
<text text-anchor="start" x="498.916" y="-90" font-family="Helvetica,sans-Serif" font-size="10.00">+SpawnedExteriorSmokeParticle</text>
<text text-anchor="middle" x="570.916" y="-79" font-family="Helvetica,sans-Serif" font-size="10.00">System</text>
</g>
<!-- Node11 -->
<g id="node6" class="node"><title>Node11</title>
<g id="a_node6"><a xlink:title=" ">
<polygon fill="none" stroke="#bfbfbf" points="205.416,-623 205.416,-680 240.416,-680 240.416,-623 205.416,-623"/>
<text text-anchor="middle" x="222.916" y="-668" font-family="Helvetica,sans-Serif" font-size="10.00">char</text>
<polyline fill="none" stroke="#bfbfbf" points="205.416,-661 240.416,-661 "/>
<text text-anchor="middle" x="222.916" y="-649" font-family="Helvetica,sans-Serif" font-size="10.00"> </text>
<polyline fill="none" stroke="#bfbfbf" points="205.416,-642 240.416,-642 "/>
<text text-anchor="middle" x="222.916" y="-630" font-family="Helvetica,sans-Serif" font-size="10.00"> </text>
</a>
</g>
</g>
<!-- Node11&#45;&gt;Node1 -->
<g id="edge9" class="edge"><title>Node11&#45;&gt;Node1</title>
<path fill="none" stroke="#404040" d="M221.506,-622.858C216.604,-521.817 202.178,-176.383 231.916,-138 295.182,-56.342 354.061,-93.2123 455.916,-76 680.155,-38.1061 949.145,-30.9349 1082.12,-29.8885"/>
<polygon fill="none" stroke="#404040" points="1082.17,-29.8883 1088.14,-25.8481 1094.17,-29.8077 1088.2,-33.8479 1082.17,-29.8883"/>
<text text-anchor="middle" x="271.916" y="-280" font-family="Helvetica,sans-Serif" font-size="10.00"> +UnknownData01</text>
<text text-anchor="middle" x="271.916" y="-269" font-family="Helvetica,sans-Serif" font-size="10.00">+UnknownData00</text>
</g>
<!-- Node11&#45;&gt;Node15 -->
<g id="edge6" class="edge"><title>Node11&#45;&gt;Node15</title>
<path fill="none" stroke="#404040" d="M237.116,-622.806C258.417,-581.264 300.159,-499.857 337.736,-426.572"/>
<polygon fill="none" stroke="#404040" points="337.771,-426.502 336.949,-419.338 343.247,-415.824 344.068,-422.988 337.771,-426.502"/>
<text text-anchor="middle" x="369.916" y="-547" font-family="Helvetica,sans-Serif" font-size="10.00"> +UnknownData01</text>
<text text-anchor="middle" x="369.916" y="-536" font-family="Helvetica,sans-Serif" font-size="10.00">+bWarmingUp</text>
<text text-anchor="middle" x="369.916" y="-525" font-family="Helvetica,sans-Serif" font-size="10.00">+UnknownData02</text>
<text text-anchor="middle" x="369.916" y="-514" font-family="Helvetica,sans-Serif" font-size="10.00">+UnknownData10</text>
<text text-anchor="middle" x="369.916" y="-503" font-family="Helvetica,sans-Serif" font-size="10.00">+UnknownData03</text>
<text text-anchor="middle" x="369.916" y="-492" font-family="Helvetica,sans-Serif" font-size="10.00">+UnknownData11</text>
<text text-anchor="middle" x="369.916" y="-481" font-family="Helvetica,sans-Serif" font-size="10.00">+UnknownData04</text>
<text text-anchor="middle" x="369.916" y="-470" font-family="Helvetica,sans-Serif" font-size="10.00">+UnknownData12</text>
<text text-anchor="middle" x="369.916" y="-459" font-family="Helvetica,sans-Serif" font-size="10.00">+UnknownData05</text>
<text text-anchor="middle" x="369.916" y="-448" font-family="Helvetica,sans-Serif" font-size="10.00">+UnknownData06</text>
<text text-anchor="middle" x="369.916" y="-437" font-family="Helvetica,sans-Serif" font-size="10.00">...</text>
</g>
<!-- Node11&#45;&gt;Node216 -->
<g id="edge18" class="edge"><title>Node11&#45;&gt;Node216</title>
<path fill="none" stroke="#404040" d="M212.942,-622.826C205.747,-606.351 194.537,-586.157 178.916,-573 160.852,-557.785 142.497,-574.323 128.916,-555 102.873,-517.945 115.695,-385.458 124.289,-318.034"/>
<polygon fill="none" stroke="#404040" points="124.326,-317.749 121.14,-311.28 125.887,-305.851 129.073,-312.32 124.326,-317.749"/>
<text text-anchor="middle" x="168.916" y="-503" font-family="Helvetica,sans-Serif" font-size="10.00"> +UnknownData01</text>
<text text-anchor="middle" x="168.916" y="-492" font-family="Helvetica,sans-Serif" font-size="10.00">+UnknownData02</text>
<text text-anchor="middle" x="168.916" y="-481" font-family="Helvetica,sans-Serif" font-size="10.00">+UnknownData00</text>
</g>
<!-- Node205 -->
<g id="node7" class="node"><title>Node205</title>
<g id="a_node7"><a xlink:href="a25823.html" target="_top" xlink:title=" ">
<polygon fill="none" stroke="black" points="908.916,-221 908.916,-333 1068.92,-333 1068.92,-221 908.916,-221"/>
<text text-anchor="start" x="916.916" y="-321" font-family="Helvetica,sans-Serif" font-size="10.00">SDK::TArray&lt; struct</text>
<text text-anchor="middle" x="988.916" y="-310" font-family="Helvetica,sans-Serif" font-size="10.00"> SDK::FFireParticleSpawnData &gt;</text>
<polyline fill="none" stroke="black" points="908.916,-303 1068.92,-303 "/>
<text text-anchor="middle" x="988.916" y="-291" font-family="Helvetica,sans-Serif" font-size="10.00"> </text>
<polyline fill="none" stroke="black" points="908.916,-284 1068.92,-284 "/>
<text text-anchor="start" x="916.916" y="-272" font-family="Helvetica,sans-Serif" font-size="10.00">+ TArray()</text>
<text text-anchor="start" x="916.916" y="-261" font-family="Helvetica,sans-Serif" font-size="10.00">+ Num()</text>
<text text-anchor="start" x="916.916" y="-250" font-family="Helvetica,sans-Serif" font-size="10.00">+ operator[]()</text>
<text text-anchor="start" x="916.916" y="-239" font-family="Helvetica,sans-Serif" font-size="10.00">+ operator[]()</text>
<text text-anchor="start" x="916.916" y="-228" font-family="Helvetica,sans-Serif" font-size="10.00">+ IsValidIndex()</text>
</a>
</g>
</g>
<!-- Node205&#45;&gt;Node1 -->
<g id="edge7" class="edge"><title>Node205&#45;&gt;Node1</title>
<path fill="none" stroke="#404040" d="M987.47,-220.704C989.266,-176.457 998.781,-115.482 1033.92,-76 1046.85,-61.4609 1064.66,-51.5171 1082.98,-44.7162"/>
<polygon fill="none" stroke="#404040" points="1083.04,-44.6967 1087.45,-38.9941 1094.42,-40.8749 1090,-46.5775 1083.04,-44.6967"/>
<text text-anchor="middle" x="1097.42" y="-95.5" font-family="Helvetica,sans-Serif" font-size="10.00"> +ParticleSpawnLODSettings</text>
</g>
<!-- Node206 -->
<g id="node8" class="node"><title>Node206</title>
<g id="a_node8"><a xlink:href="a32315.html" target="_top" xlink:title=" ">
<polygon fill="none" stroke="red" points="1086.92,-243 1086.92,-311 1242.92,-311 1242.92,-243 1086.92,-243"/>
<text text-anchor="start" x="1094.92" y="-299" font-family="Helvetica,sans-Serif" font-size="10.00">SDK::UFireGridVFXParamsData</text>
<text text-anchor="middle" x="1164.92" y="-288" font-family="Helvetica,sans-Serif" font-size="10.00">Asset</text>
<polyline fill="none" stroke="red" points="1086.92,-281 1242.92,-281 "/>
<text text-anchor="middle" x="1164.92" y="-269" font-family="Helvetica,sans-Serif" font-size="10.00"> </text>
<polyline fill="none" stroke="red" points="1086.92,-262 1242.92,-262 "/>
<text text-anchor="start" x="1094.92" y="-250" font-family="Helvetica,sans-Serif" font-size="10.00">+ StaticClass()</text>
</a>
</g>
</g>
<!-- Node206&#45;&gt;Node1 -->
<g id="edge8" class="edge"><title>Node206&#45;&gt;Node1</title>
<path fill="none" stroke="#404040" d="M1164.92,-242.823C1164.92,-197.918 1164.92,-117.893 1164.92,-69.8034"/>
<polygon fill="none" stroke="#404040" points="1164.92,-69.7244 1160.92,-63.7244 1164.92,-57.7244 1168.92,-63.7244 1164.92,-69.7244"/>
<text text-anchor="middle" x="1195.42" y="-95.5" font-family="Helvetica,sans-Serif" font-size="10.00"> +VFXParams</text>
</g>
<!-- Node210 -->
<g id="node9" class="node"><title>Node210</title>
<g id="a_node9"><a xlink:href="a25823.html" target="_top" xlink:title=" ">
<polygon fill="none" stroke="black" points="1261.42,-221 1261.42,-333 1382.42,-333 1382.42,-221 1261.42,-221"/>
<text text-anchor="start" x="1269.42" y="-321" font-family="Helvetica,sans-Serif" font-size="10.00">SDK::TArray&lt; struct</text>
<text text-anchor="middle" x="1321.92" y="-310" font-family="Helvetica,sans-Serif" font-size="10.00"> SDK::FShipFireMesh &gt;</text>
<polyline fill="none" stroke="black" points="1261.42,-303 1382.42,-303 "/>
<text text-anchor="middle" x="1321.92" y="-291" font-family="Helvetica,sans-Serif" font-size="10.00"> </text>
<polyline fill="none" stroke="black" points="1261.42,-284 1382.42,-284 "/>
<text text-anchor="start" x="1269.42" y="-272" font-family="Helvetica,sans-Serif" font-size="10.00">+ TArray()</text>
<text text-anchor="start" x="1269.42" y="-261" font-family="Helvetica,sans-Serif" font-size="10.00">+ Num()</text>
<text text-anchor="start" x="1269.42" y="-250" font-family="Helvetica,sans-Serif" font-size="10.00">+ operator[]()</text>
<text text-anchor="start" x="1269.42" y="-239" font-family="Helvetica,sans-Serif" font-size="10.00">+ operator[]()</text>
<text text-anchor="start" x="1269.42" y="-228" font-family="Helvetica,sans-Serif" font-size="10.00">+ IsValidIndex()</text>
</a>
</g>
</g>
<!-- Node210&#45;&gt;Node1 -->
<g id="edge10" class="edge"><title>Node210&#45;&gt;Node1</title>
<path fill="none" stroke="#404040" d="M1305.3,-220.732C1290.48,-177.943 1265.57,-118.928 1229.92,-76 1226.87,-72.3357 1223.47,-68.8246 1219.86,-65.4917"/>
<polygon fill="none" stroke="#404040" points="1219.7,-65.3556 1212.54,-64.5212 1210.56,-57.5886 1217.72,-58.4229 1219.7,-65.3556"/>
<text text-anchor="middle" x="1306.42" y="-95.5" font-family="Helvetica,sans-Serif" font-size="10.00"> +DespawningMeshes</text>
</g>
<!-- Node211 -->
<g id="node10" class="node"><title>Node211</title>
<g id="a_node10"><a xlink:href="a25823.html" target="_top" xlink:title=" ">
<polygon fill="none" stroke="black" points="1400.42,-221 1400.42,-333 1555.42,-333 1555.42,-221 1400.42,-221"/>
<text text-anchor="start" x="1408.42" y="-321" font-family="Helvetica,sans-Serif" font-size="10.00">SDK::TArray&lt; struct</text>
<text text-anchor="middle" x="1477.92" y="-310" font-family="Helvetica,sans-Serif" font-size="10.00"> SDK::FFireParticleSpawnList &gt;</text>
<polyline fill="none" stroke="black" points="1400.42,-303 1555.42,-303 "/>
<text text-anchor="middle" x="1477.92" y="-291" font-family="Helvetica,sans-Serif" font-size="10.00"> </text>
<polyline fill="none" stroke="black" points="1400.42,-284 1555.42,-284 "/>
<text text-anchor="start" x="1408.42" y="-272" font-family="Helvetica,sans-Serif" font-size="10.00">+ TArray()</text>
<text text-anchor="start" x="1408.42" y="-261" font-family="Helvetica,sans-Serif" font-size="10.00">+ Num()</text>
<text text-anchor="start" x="1408.42" y="-250" font-family="Helvetica,sans-Serif" font-size="10.00">+ operator[]()</text>
<text text-anchor="start" x="1408.42" y="-239" font-family="Helvetica,sans-Serif" font-size="10.00">+ operator[]()</text>
<text text-anchor="start" x="1408.42" y="-228" font-family="Helvetica,sans-Serif" font-size="10.00">+ IsValidIndex()</text>
</a>
</g>
</g>
<!-- Node211&#45;&gt;Node1 -->
<g id="edge11" class="edge"><title>Node211&#45;&gt;Node1</title>
<path fill="none" stroke="#404040" d="M1459.1,-220.889C1440.66,-175.207 1408.09,-112.113 1358.92,-76 1326.96,-52.5298 1284.76,-40.8534 1247.88,-35.1155"/>
<polygon fill="none" stroke="#404040" points="1247.48,-35.0598 1240.98,-38.1854 1235.6,-33.3889 1242.1,-30.2633 1247.48,-35.0598"/>
<text text-anchor="middle" x="1452.92" y="-95.5" font-family="Helvetica,sans-Serif" font-size="10.00"> +InterleavedSpawnLists</text>
</g>
<!-- Node212 -->
<g id="node11" class="node"><title>Node212</title>
<g id="a_node11"><a xlink:href="a25823.html" target="_top" xlink:title=" ">
<polygon fill="none" stroke="black" points="1573.42,-215.5 1573.42,-338.5 1722.42,-338.5 1722.42,-215.5 1573.42,-215.5"/>
<text text-anchor="start" x="1581.42" y="-326.5" font-family="Helvetica,sans-Serif" font-size="10.00">SDK::TArray&lt; struct</text>
<text text-anchor="start" x="1581.42" y="-315.5" font-family="Helvetica,sans-Serif" font-size="10.00"> SDK::FFireGridRelativeSpawn</text>
<text text-anchor="middle" x="1647.92" y="-304.5" font-family="Helvetica,sans-Serif" font-size="10.00">Desc &gt;</text>
<polyline fill="none" stroke="black" points="1573.42,-297.5 1722.42,-297.5 "/>
<text text-anchor="middle" x="1647.92" y="-285.5" font-family="Helvetica,sans-Serif" font-size="10.00"> </text>
<polyline fill="none" stroke="black" points="1573.42,-278.5 1722.42,-278.5 "/>
<text text-anchor="start" x="1581.42" y="-266.5" font-family="Helvetica,sans-Serif" font-size="10.00">+ TArray()</text>
<text text-anchor="start" x="1581.42" y="-255.5" font-family="Helvetica,sans-Serif" font-size="10.00">+ Num()</text>
<text text-anchor="start" x="1581.42" y="-244.5" font-family="Helvetica,sans-Serif" font-size="10.00">+ operator[]()</text>
<text text-anchor="start" x="1581.42" y="-233.5" font-family="Helvetica,sans-Serif" font-size="10.00">+ operator[]()</text>
<text text-anchor="start" x="1581.42" y="-222.5" font-family="Helvetica,sans-Serif" font-size="10.00">+ IsValidIndex()</text>
</a>
</g>
</g>
<!-- Node212&#45;&gt;Node1 -->
<g id="edge12" class="edge"><title>Node212&#45;&gt;Node1</title>
<path fill="none" stroke="#404040" d="M1624.32,-215.036C1602.44,-167.796 1564.9,-105.571 1509.92,-76 1465.95,-52.3564 1335.02,-40.0708 1247.7,-34.331"/>
<polygon fill="none" stroke="#404040" points="1247.66,-34.3283 1241.41,-37.9381 1235.68,-33.564 1241.92,-29.9543 1247.66,-34.3283"/>
<text text-anchor="middle" x="1624.42" y="-95.5" font-family="Helvetica,sans-Serif" font-size="10.00"> +InteriorSmokeSpawnDescs</text>
</g>
<!-- Node213 -->
<g id="node12" class="node"><title>Node213</title>
<g id="a_node12"><a xlink:href="a25871.html" target="_top" xlink:title=" ">
<polygon fill="none" stroke="black" points="1740.42,-243 1740.42,-311 1861.42,-311 1861.42,-243 1740.42,-243"/>
<text text-anchor="start" x="1748.42" y="-299" font-family="Helvetica,sans-Serif" font-size="10.00">SDK::TMap&lt; int, struct</text>
<text text-anchor="middle" x="1800.92" y="-288" font-family="Helvetica,sans-Serif" font-size="10.00"> SDK::FShipFireMesh &gt;</text>
<polyline fill="none" stroke="black" points="1740.42,-281 1861.42,-281 "/>
<text text-anchor="middle" x="1800.92" y="-269" font-family="Helvetica,sans-Serif" font-size="10.00"> </text>
<polyline fill="none" stroke="black" points="1740.42,-262 1861.42,-262 "/>
<text text-anchor="middle" x="1800.92" y="-250" font-family="Helvetica,sans-Serif" font-size="10.00"> </text>
</a>
</g>
</g>
<!-- Node213&#45;&gt;Node1 -->
<g id="edge13" class="edge"><title>Node213&#45;&gt;Node1</title>
<path fill="none" stroke="#404040" d="M1793.66,-242.615C1781.55,-195.972 1752.33,-112.888 1691.92,-76 1654.97,-53.438 1386.54,-39.1566 1247.68,-33.1978"/>
<polygon fill="none" stroke="#404040" points="1247.46,-33.1886 1241.29,-36.9313 1235.47,-32.6811 1241.63,-28.9384 1247.46,-33.1886"/>
<text text-anchor="middle" x="1796.92" y="-95.5" font-family="Helvetica,sans-Serif" font-size="10.00"> +SpawnedMeshesForCells</text>
</g>
<!-- Node214 -->
<g id="node13" class="node"><title>Node214</title>
<g id="a_node13"><a xlink:href="a25823.html" target="_top" xlink:title=" ">
<polygon fill="none" stroke="black" points="1879.92,-221 1879.92,-333 2043.92,-333 2043.92,-221 1879.92,-221"/>
<text text-anchor="start" x="1887.92" y="-321" font-family="Helvetica,sans-Serif" font-size="10.00">SDK::TArray&lt; struct</text>
<text text-anchor="middle" x="1961.92" y="-310" font-family="Helvetica,sans-Serif" font-size="10.00"> SDK::FShipFireParticleSystem &gt;</text>
<polyline fill="none" stroke="black" points="1879.92,-303 2043.92,-303 "/>
<text text-anchor="middle" x="1961.92" y="-291" font-family="Helvetica,sans-Serif" font-size="10.00"> </text>
<polyline fill="none" stroke="black" points="1879.92,-284 2043.92,-284 "/>
<text text-anchor="start" x="1887.92" y="-272" font-family="Helvetica,sans-Serif" font-size="10.00">+ TArray()</text>
<text text-anchor="start" x="1887.92" y="-261" font-family="Helvetica,sans-Serif" font-size="10.00">+ Num()</text>
<text text-anchor="start" x="1887.92" y="-250" font-family="Helvetica,sans-Serif" font-size="10.00">+ operator[]()</text>
<text text-anchor="start" x="1887.92" y="-239" font-family="Helvetica,sans-Serif" font-size="10.00">+ operator[]()</text>
<text text-anchor="start" x="1887.92" y="-228" font-family="Helvetica,sans-Serif" font-size="10.00">+ IsValidIndex()</text>
</a>
</g>
</g>
<!-- Node214&#45;&gt;Node1 -->
<g id="edge14" class="edge"><title>Node214&#45;&gt;Node1</title>
<path fill="none" stroke="#404040" d="M1950.13,-220.874C1936.93,-173.867 1910.55,-108.843 1860.92,-76 1810.87,-42.8802 1420.96,-33.4705 1247.57,-30.9103"/>
<polygon fill="none" stroke="#404040" points="1247.47,-30.909 1241.41,-34.8229 1235.47,-30.7376 1241.53,-26.8237 1247.47,-30.909"/>
<text text-anchor="start" x="1903.92" y="-101" font-family="Helvetica,sans-Serif" font-size="10.00"> +SpawnedCustomParticleSystems</text>
<text text-anchor="middle" x="1981.42" y="-90" font-family="Helvetica,sans-Serif" font-size="10.00">ForCells</text>
</g>
<!-- Node215 -->
<g id="node14" class="node"><title>Node215</title>
<g id="a_node14"><a xlink:href="a25871.html" target="_top" xlink:title=" ">
<polygon fill="none" stroke="black" points="2061.92,-237.5 2061.92,-316.5 2213.92,-316.5 2213.92,-237.5 2061.92,-237.5"/>
<text text-anchor="start" x="2069.92" y="-304.5" font-family="Helvetica,sans-Serif" font-size="10.00">SDK::TMap&lt; struct SDK</text>
<text text-anchor="start" x="2069.92" y="-293.5" font-family="Helvetica,sans-Serif" font-size="10.00">::FName, class SDK::UParticle</text>
<text text-anchor="middle" x="2137.92" y="-282.5" font-family="Helvetica,sans-Serif" font-size="10.00">SystemComponent * &gt;</text>
<polyline fill="none" stroke="black" points="2061.92,-275.5 2213.92,-275.5 "/>
<text text-anchor="middle" x="2137.92" y="-263.5" font-family="Helvetica,sans-Serif" font-size="10.00"> </text>
<polyline fill="none" stroke="black" points="2061.92,-256.5 2213.92,-256.5 "/>
<text text-anchor="middle" x="2137.92" y="-244.5" font-family="Helvetica,sans-Serif" font-size="10.00"> </text>
</a>
</g>
</g>
<!-- Node215&#45;&gt;Node1 -->
<g id="edge15" class="edge"><title>Node215&#45;&gt;Node1</title>
<path fill="none" stroke="#404040" d="M2135.57,-237.288C2130.46,-190.548 2114.24,-113.551 2062.92,-76 2030.34,-52.1668 1464.07,-36.8151 1247.88,-31.7996"/>
<polygon fill="none" stroke="#404040" points="1247.69,-31.7953 1241.6,-35.6562 1235.69,-31.5192 1241.78,-27.6583 1247.69,-31.7953"/>
<text text-anchor="start" x="2100.92" y="-101" font-family="Helvetica,sans-Serif" font-size="10.00"> +SpawnedParticleSystemsFor</text>
<text text-anchor="middle" x="2168.92" y="-90" font-family="Helvetica,sans-Serif" font-size="10.00">Templates</text>
</g>
<!-- Node216&#45;&gt;Node1 -->
<g id="edge16" class="edge"><title>Node216&#45;&gt;Node1</title>
<path fill="none" stroke="#404040" d="M123.104,-248.228C114.229,-204.509 104.905,-120.087 151.916,-76 185.624,-44.3889 845.645,-33.6861 1081.79,-30.8602"/>
<polygon fill="none" stroke="#404040" points="1082.05,-30.8572 1088,-26.7869 1094.05,-30.716 1088.1,-34.7863 1082.05,-30.8572"/>
<text text-anchor="middle" x="180.416" y="-95.5" font-family="Helvetica,sans-Serif" font-size="10.00"> +Propagator</text>
</g>
<!-- Node222 -->
<g id="node16" class="node"><title>Node222</title>
<g id="a_node16"><a xlink:href="a25823.html" target="_top" xlink:title=" ">
<polygon fill="none" stroke="black" points="2232.42,-215.5 2232.42,-338.5 2397.42,-338.5 2397.42,-215.5 2232.42,-215.5"/>
<text text-anchor="start" x="2240.42" y="-326.5" font-family="Helvetica,sans-Serif" font-size="10.00">SDK::TArray&lt; struct</text>
<text text-anchor="start" x="2240.42" y="-315.5" font-family="Helvetica,sans-Serif" font-size="10.00"> SDK::FShipFireDefaultVFXSpawn</text>
<text text-anchor="middle" x="2314.92" y="-304.5" font-family="Helvetica,sans-Serif" font-size="10.00">Data &gt;</text>
<polyline fill="none" stroke="black" points="2232.42,-297.5 2397.42,-297.5 "/>
<text text-anchor="middle" x="2314.92" y="-285.5" font-family="Helvetica,sans-Serif" font-size="10.00"> </text>
<polyline fill="none" stroke="black" points="2232.42,-278.5 2397.42,-278.5 "/>
<text text-anchor="start" x="2240.42" y="-266.5" font-family="Helvetica,sans-Serif" font-size="10.00">+ TArray()</text>
<text text-anchor="start" x="2240.42" y="-255.5" font-family="Helvetica,sans-Serif" font-size="10.00">+ Num()</text>
<text text-anchor="start" x="2240.42" y="-244.5" font-family="Helvetica,sans-Serif" font-size="10.00">+ operator[]()</text>
<text text-anchor="start" x="2240.42" y="-233.5" font-family="Helvetica,sans-Serif" font-size="10.00">+ operator[]()</text>
<text text-anchor="start" x="2240.42" y="-222.5" font-family="Helvetica,sans-Serif" font-size="10.00">+ IsValidIndex()</text>
</a>
</g>
</g>
<!-- Node222&#45;&gt;Node1 -->
<g id="edge19" class="edge"><title>Node222&#45;&gt;Node1</title>
<path fill="none" stroke="#404040" d="M2309.94,-215.057C2302.65,-168.817 2284.76,-107.935 2240.92,-76 2200.97,-46.9042 1493.06,-34.4917 1247.77,-31.0516"/>
<polygon fill="none" stroke="#404040" points="1247.75,-31.0514 1241.69,-34.9678 1235.75,-30.885 1241.8,-26.9686 1247.75,-31.0514"/>
<text text-anchor="middle" x="2312.42" y="-95.5" font-family="Helvetica,sans-Serif" font-size="10.00"> +VFXToSpawn</text>
</g>
</g>
</svg>
