<?xml version="1.0" encoding="UTF-8" standalone="no"?>
<!DOCTYPE svg PUBLIC "-//W3C//DTD SVG 1.1//EN"
 "http://www.w3.org/Graphics/SVG/1.1/DTD/svg11.dtd">
<!-- Generated by graphviz version 2.38.0 (20140413.2041)
 -->
<!-- Title: SDK::FFireGridCellSelection Pages: 1 -->
<svg width="726pt" height="204pt"
 viewBox="0.00 0.00 725.50 204.00" xmlns="http://www.w3.org/2000/svg" xmlns:xlink="http://www.w3.org/1999/xlink">
<g id="graph0" class="graph" transform="scale(1 1) rotate(0) translate(4 200)">
<title>SDK::FFireGridCellSelection</title>
<!-- Node1 -->
<g id="node1" class="node"><title>Node1</title>
<g id="a_node1"><a xlink:title=" ">
<polygon fill="#bfbfbf" stroke="black" points="199.5,-0.5 199.5,-57.5 339.5,-57.5 339.5,-0.5 199.5,-0.5"/>
<text text-anchor="middle" x="269.5" y="-45.5" font-family="Helvetica,sans-Serif" font-size="10.00">SDK::FFireGridCellSelection</text>
<polyline fill="none" stroke="black" points="199.5,-38.5 339.5,-38.5 "/>
<text text-anchor="middle" x="269.5" y="-26.5" font-family="Helvetica,sans-Serif" font-size="10.00"> </text>
<polyline fill="none" stroke="black" points="199.5,-19.5 339.5,-19.5 "/>
<text text-anchor="middle" x="269.5" y="-7.5" font-family="Helvetica,sans-Serif" font-size="10.00"> </text>
</a>
</g>
</g>
<!-- Node2 -->
<g id="node2" class="node"><title>Node2</title>
<g id="a_node2"><a xlink:title=" ">
<polygon fill="none" stroke="#bfbfbf" points="0,-138.5 0,-195.5 35,-195.5 35,-138.5 0,-138.5"/>
<text text-anchor="middle" x="17.5" y="-183.5" font-family="Helvetica,sans-Serif" font-size="10.00">char</text>
<polyline fill="none" stroke="#bfbfbf" points="0,-176.5 35,-176.5 "/>
<text text-anchor="middle" x="17.5" y="-164.5" font-family="Helvetica,sans-Serif" font-size="10.00"> </text>
<polyline fill="none" stroke="#bfbfbf" points="0,-157.5 35,-157.5 "/>
<text text-anchor="middle" x="17.5" y="-145.5" font-family="Helvetica,sans-Serif" font-size="10.00"> </text>
</a>
</g>
</g>
<!-- Node2&#45;&gt;Node1 -->
<g id="edge1" class="edge"><title>Node2&#45;&gt;Node1</title>
<path fill="none" stroke="#404040" d="M16.526,-138.201C17.3928,-118.169 22.0134,-91.9567 38.5,-76 59.6226,-55.5564 129.88,-43.5668 187.42,-36.9835"/>
<polygon fill="none" stroke="#404040" points="187.554,-36.9688 193.082,-32.3381 199.483,-35.6596 193.955,-40.2903 187.554,-36.9688"/>
<text text-anchor="middle" x="78.5" y="-95.5" font-family="Helvetica,sans-Serif" font-size="10.00"> +UnknownData00</text>
</g>
<!-- Node3 -->
<g id="node3" class="node"><title>Node3</title>
<g id="a_node3"><a xlink:title=" ">
<polygon fill="none" stroke="#bfbfbf" points="103,-138.5 103,-195.5 138,-195.5 138,-138.5 103,-138.5"/>
<text text-anchor="middle" x="120.5" y="-183.5" font-family="Helvetica,sans-Serif" font-size="10.00">float</text>
<polyline fill="none" stroke="#bfbfbf" points="103,-176.5 138,-176.5 "/>
<text text-anchor="middle" x="120.5" y="-164.5" font-family="Helvetica,sans-Serif" font-size="10.00"> </text>
<polyline fill="none" stroke="#bfbfbf" points="103,-157.5 138,-157.5 "/>
<text text-anchor="middle" x="120.5" y="-145.5" font-family="Helvetica,sans-Serif" font-size="10.00"> </text>
</a>
</g>
</g>
<!-- Node3&#45;&gt;Node1 -->
<g id="edge2" class="edge"><title>Node3&#45;&gt;Node1</title>
<path fill="none" stroke="#404040" d="M119.576,-138.086C120.406,-118.52 124.663,-92.9375 139.5,-76 152.177,-61.5281 169.705,-51.6091 187.79,-44.8107"/>
<polygon fill="none" stroke="#404040" points="188.031,-44.7288 192.428,-39.013 199.395,-40.8729 194.998,-46.5887 188.031,-44.7288"/>
<text text-anchor="middle" x="202.5" y="-101" font-family="Helvetica,sans-Serif" font-size="10.00"> +ChanceToAffectCellsBelow</text>
<text text-anchor="middle" x="202.5" y="-90" font-family="Helvetica,sans-Serif" font-size="10.00">+ChanceToAffectCellsAbove</text>
</g>
<!-- Node4 -->
<g id="node4" class="node"><title>Node4</title>
<g id="a_node4"><a xlink:href="a26435.html" target="_top" xlink:title=" ">
<polygon fill="none" stroke="red" points="220.5,-138.5 220.5,-195.5 318.5,-195.5 318.5,-138.5 220.5,-138.5"/>
<text text-anchor="middle" x="269.5" y="-183.5" font-family="Helvetica,sans-Serif" font-size="10.00">SDK::FFloatRange</text>
<polyline fill="none" stroke="red" points="220.5,-176.5 318.5,-176.5 "/>
<text text-anchor="middle" x="269.5" y="-164.5" font-family="Helvetica,sans-Serif" font-size="10.00"> </text>
<polyline fill="none" stroke="red" points="220.5,-157.5 318.5,-157.5 "/>
<text text-anchor="middle" x="269.5" y="-145.5" font-family="Helvetica,sans-Serif" font-size="10.00"> </text>
</a>
</g>
</g>
<!-- Node4&#45;&gt;Node1 -->
<g id="edge3" class="edge"><title>Node4&#45;&gt;Node1</title>
<path fill="none" stroke="#404040" d="M269.5,-138.478C269.5,-118.792 269.5,-91.9899 269.5,-69.9526"/>
<polygon fill="none" stroke="#404040" points="269.5,-69.9475 265.5,-63.9475 269.5,-57.9475 273.5,-63.9475 269.5,-69.9475"/>
<text text-anchor="start" x="269.5" y="-112" font-family="Helvetica,sans-Serif" font-size="10.00"> +DownwardPropagationTime</text>
<text text-anchor="middle" x="348" y="-101" font-family="Helvetica,sans-Serif" font-size="10.00">Override</text>
<text text-anchor="middle" x="348" y="-90" font-family="Helvetica,sans-Serif" font-size="10.00">+UpwardPropagationTimeOverride</text>
<text text-anchor="middle" x="348" y="-79" font-family="Helvetica,sans-Serif" font-size="10.00">+SidewaysPropagationTimeOverride</text>
</g>
<!-- Node7 -->
<g id="node5" class="node"><title>Node7</title>
<g id="a_node5"><a xlink:title=" ">
<polygon fill="none" stroke="#bfbfbf" points="435,-138.5 435,-195.5 464,-195.5 464,-138.5 435,-138.5"/>
<text text-anchor="middle" x="449.5" y="-183.5" font-family="Helvetica,sans-Serif" font-size="10.00">int</text>
<polyline fill="none" stroke="#bfbfbf" points="435,-176.5 464,-176.5 "/>
<text text-anchor="middle" x="449.5" y="-164.5" font-family="Helvetica,sans-Serif" font-size="10.00"> </text>
<polyline fill="none" stroke="#bfbfbf" points="435,-157.5 464,-157.5 "/>
<text text-anchor="middle" x="449.5" y="-145.5" font-family="Helvetica,sans-Serif" font-size="10.00"> </text>
</a>
</g>
</g>
<!-- Node7&#45;&gt;Node1 -->
<g id="edge4" class="edge"><title>Node7&#45;&gt;Node1</title>
<path fill="none" stroke="#404040" d="M449.694,-138.169C448.337,-118.385 443.295,-92.4988 427.5,-76 407.708,-55.3269 379.212,-43.7893 351.855,-37.4031"/>
<polygon fill="none" stroke="#404040" points="351.564,-37.3425 344.874,-40.0338 339.816,-34.8935 346.506,-32.2022 351.564,-37.3425"/>
<text text-anchor="middle" x="502.5" y="-101" font-family="Helvetica,sans-Serif" font-size="10.00"> +NumberOfAffectedCells</text>
<text text-anchor="middle" x="502.5" y="-90" font-family="Helvetica,sans-Serif" font-size="10.00">+AdjacencyRadius</text>
</g>
<!-- Node8 -->
<g id="node6" class="node"><title>Node8</title>
<g id="a_node6"><a xlink:title=" ">
<polygon fill="none" stroke="#bfbfbf" points="565,-138.5 565,-195.5 600,-195.5 600,-138.5 565,-138.5"/>
<text text-anchor="middle" x="582.5" y="-183.5" font-family="Helvetica,sans-Serif" font-size="10.00">bool</text>
<polyline fill="none" stroke="#bfbfbf" points="565,-176.5 600,-176.5 "/>
<text text-anchor="middle" x="582.5" y="-164.5" font-family="Helvetica,sans-Serif" font-size="10.00"> </text>
<polyline fill="none" stroke="#bfbfbf" points="565,-157.5 600,-157.5 "/>
<text text-anchor="middle" x="582.5" y="-145.5" font-family="Helvetica,sans-Serif" font-size="10.00"> </text>
</a>
</g>
</g>
<!-- Node8&#45;&gt;Node1 -->
<g id="edge5" class="edge"><title>Node8&#45;&gt;Node1</title>
<path fill="none" stroke="#404040" d="M583.338,-138.4C582.374,-118.201 577.543,-91.685 560.5,-76 530.776,-48.6449 426.945,-37.5343 351.775,-33.0362"/>
<polygon fill="none" stroke="#404040" points="351.486,-33.02 345.27,-36.6761 339.505,-32.3448 345.72,-28.6888 351.486,-33.02"/>
<text text-anchor="middle" x="649.5" y="-106.5" font-family="Helvetica,sans-Serif" font-size="10.00"> +TreatDiagonalsAsAdjacent</text>
<text text-anchor="start" x="581.5" y="-95.5" font-family="Helvetica,sans-Serif" font-size="10.00">+OverrideFirePropagationTimes</text>
<text text-anchor="middle" x="649.5" y="-84.5" font-family="Helvetica,sans-Serif" font-size="10.00">ForAffectedCells</text>
</g>
</g>
</svg>
