<?xml version="1.0" encoding="UTF-8" standalone="no"?>
<!DOCTYPE svg PUBLIC "-//W3C//DTD SVG 1.1//EN"
 "http://www.w3.org/Graphics/SVG/1.1/DTD/svg11.dtd">
<!-- Generated by graphviz version 2.38.0 (20140413.2041)
 -->
<!-- Title: SDK::UEditableGameplayTagQueryExpression_NoTagsMatch Pages: 1 -->
<svg width="165pt" height="182pt"
 viewBox="0.00 0.00 165.00 182.00" xmlns="http://www.w3.org/2000/svg" xmlns:xlink="http://www.w3.org/1999/xlink">
<g id="graph0" class="graph" transform="scale(1 1) rotate(0) translate(4 178)">
<title>SDK::UEditableGameplayTagQueryExpression_NoTagsMatch</title>
<!-- Node1 -->
<g id="node1" class="node"><title>Node1</title>
<g id="a_node1"><a xlink:title=" ">
<polygon fill="#bfbfbf" stroke="black" points="0,-0.5 0,-68.5 157,-68.5 157,-0.5 0,-0.5"/>
<text text-anchor="start" x="8" y="-56.5" font-family="Helvetica,sans-Serif" font-size="10.00">SDK::UEditableGameplayTag</text>
<text text-anchor="middle" x="78.5" y="-45.5" font-family="Helvetica,sans-Serif" font-size="10.00">QueryExpression_NoTagsMatch</text>
<polyline fill="none" stroke="black" points="0,-38.5 157,-38.5 "/>
<text text-anchor="start" x="8" y="-26.5" font-family="Helvetica,sans-Serif" font-size="10.00">+ Tags</text>
<polyline fill="none" stroke="black" points="0,-19.5 157,-19.5 "/>
<text text-anchor="start" x="8" y="-7.5" font-family="Helvetica,sans-Serif" font-size="10.00">+ StaticClass()</text>
</a>
</g>
</g>
<!-- Node2 -->
<g id="node2" class="node"><title>Node2</title>
<g id="a_node2"><a xlink:href="a32299.html" target="_top" xlink:title=" ">
<polygon fill="none" stroke="red" points="6,-105.5 6,-173.5 151,-173.5 151,-105.5 6,-105.5"/>
<text text-anchor="start" x="14" y="-161.5" font-family="Helvetica,sans-Serif" font-size="10.00">SDK::UEditableGameplayTag</text>
<text text-anchor="middle" x="78.5" y="-150.5" font-family="Helvetica,sans-Serif" font-size="10.00">QueryExpression</text>
<polyline fill="none" stroke="red" points="6,-143.5 151,-143.5 "/>
<text text-anchor="middle" x="78.5" y="-131.5" font-family="Helvetica,sans-Serif" font-size="10.00"> </text>
<polyline fill="none" stroke="red" points="6,-124.5 151,-124.5 "/>
<text text-anchor="start" x="14" y="-112.5" font-family="Helvetica,sans-Serif" font-size="10.00">+ StaticClass()</text>
</a>
</g>
</g>
<!-- Node2&#45;&gt;Node1 -->
<g id="edge1" class="edge"><title>Node2&#45;&gt;Node1</title>
<path fill="none" stroke="midnightblue" d="M78.5,-95.1362C78.5,-86.256 78.5,-77.0447 78.5,-68.5947"/>
<polygon fill="none" stroke="midnightblue" points="75.0001,-95.3432 78.5,-105.343 82.0001,-95.3432 75.0001,-95.3432"/>
</g>
</g>
</svg>
