<?xml version="1.0" encoding="UTF-8" standalone="no"?>
<!DOCTYPE svg PUBLIC "-//W3C//DTD SVG 1.1//EN"
 "http://www.w3.org/Graphics/SVG/1.1/DTD/svg11.dtd">
<!-- Generated by graphviz version 2.38.0 (20140413.2041)
 -->
<!-- Title: SDK::FKey Pages: 1 -->
<svg width="211pt" height="248pt"
 viewBox="0.00 0.00 211.00 248.00" xmlns="http://www.w3.org/2000/svg" xmlns:xlink="http://www.w3.org/1999/xlink">
<g id="graph0" class="graph" transform="scale(1 1) rotate(0) translate(4 244)">
<title>SDK::FKey</title>
<!-- Node1 -->
<g id="node1" class="node"><title>Node1</title>
<g id="a_node1"><a xlink:title=" ">
<polygon fill="#bfbfbf" stroke="black" points="64,-0.5 64,-79.5 130,-79.5 130,-0.5 64,-0.5"/>
<text text-anchor="middle" x="97" y="-67.5" font-family="Helvetica,sans-Serif" font-size="10.00">SDK::FKey</text>
<polyline fill="none" stroke="black" points="64,-60.5 130,-60.5 "/>
<text text-anchor="middle" x="97" y="-48.5" font-family="Helvetica,sans-Serif" font-size="10.00"> </text>
<polyline fill="none" stroke="black" points="64,-41.5 130,-41.5 "/>
<text text-anchor="start" x="72" y="-29.5" font-family="Helvetica,sans-Serif" font-size="10.00">+ FKey()</text>
<text text-anchor="start" x="72" y="-18.5" font-family="Helvetica,sans-Serif" font-size="10.00">+ FKey()</text>
<text text-anchor="start" x="72" y="-7.5" font-family="Helvetica,sans-Serif" font-size="10.00">+ FKey()</text>
</a>
</g>
</g>
<!-- Node2 -->
<g id="node2" class="node"><title>Node2</title>
<g id="a_node2"><a xlink:href="a25627.html" target="_top" xlink:title=" ">
<polygon fill="none" stroke="red" points="0,-127.5 0,-239.5 106,-239.5 106,-127.5 0,-127.5"/>
<text text-anchor="middle" x="53" y="-227.5" font-family="Helvetica,sans-Serif" font-size="10.00">SDK::FName</text>
<polyline fill="none" stroke="red" points="0,-220.5 106,-220.5 "/>
<text text-anchor="middle" x="53" y="-208.5" font-family="Helvetica,sans-Serif" font-size="10.00"> </text>
<polyline fill="none" stroke="red" points="0,-201.5 106,-201.5 "/>
<text text-anchor="start" x="8" y="-189.5" font-family="Helvetica,sans-Serif" font-size="10.00">+ FName()</text>
<text text-anchor="start" x="8" y="-178.5" font-family="Helvetica,sans-Serif" font-size="10.00">+ FName()</text>
<text text-anchor="start" x="8" y="-167.5" font-family="Helvetica,sans-Serif" font-size="10.00">+ FName()</text>
<text text-anchor="start" x="8" y="-156.5" font-family="Helvetica,sans-Serif" font-size="10.00">+ GetName()</text>
<text text-anchor="start" x="8" y="-145.5" font-family="Helvetica,sans-Serif" font-size="10.00">+ operator==()</text>
<text text-anchor="start" x="8" y="-134.5" font-family="Helvetica,sans-Serif" font-size="10.00">+ GetGlobalNames()</text>
</a>
</g>
</g>
<!-- Node2&#45;&gt;Node1 -->
<g id="edge1" class="edge"><title>Node2&#45;&gt;Node1</title>
<path fill="none" stroke="#404040" d="M60.3625,-127.363C62.3675,-117.458 64.8772,-107.325 68,-98 68.7988,-95.6147 69.6834,-93.2051 70.6323,-90.7943"/>
<polygon fill="none" stroke="#404040" points="70.7118,-90.6098 69.4132,-83.5165 75.4613,-79.5896 76.7599,-86.6829 70.7118,-90.6098"/>
<text text-anchor="middle" x="94" y="-101" font-family="Helvetica,sans-Serif" font-size="10.00"> +KeyName</text>
</g>
<!-- Node5 -->
<g id="node3" class="node"><title>Node5</title>
<g id="a_node3"><a xlink:title=" ">
<polygon fill="none" stroke="#bfbfbf" points="124.5,-155 124.5,-212 159.5,-212 159.5,-155 124.5,-155"/>
<text text-anchor="middle" x="142" y="-200" font-family="Helvetica,sans-Serif" font-size="10.00">char</text>
<polyline fill="none" stroke="#bfbfbf" points="124.5,-193 159.5,-193 "/>
<text text-anchor="middle" x="142" y="-181" font-family="Helvetica,sans-Serif" font-size="10.00"> </text>
<polyline fill="none" stroke="#bfbfbf" points="124.5,-174 159.5,-174 "/>
<text text-anchor="middle" x="142" y="-162" font-family="Helvetica,sans-Serif" font-size="10.00"> </text>
</a>
</g>
</g>
<!-- Node5&#45;&gt;Node1 -->
<g id="edge2" class="edge"><title>Node5&#45;&gt;Node1</title>
<path fill="none" stroke="#404040" d="M135.751,-154.839C131.759,-138.21 126.183,-116.712 120,-98 119.259,-95.7582 118.475,-93.4782 117.66,-91.1832"/>
<polygon fill="none" stroke="#404040" points="117.57,-90.9407 111.73,-86.7101 113.389,-79.6925 119.229,-83.9231 117.57,-90.9407"/>
<text text-anchor="middle" x="163" y="-101" font-family="Helvetica,sans-Serif" font-size="10.00"> +UnknownData00</text>
</g>
</g>
</svg>
