<?xml version="1.0" encoding="UTF-8" standalone="no"?>
<!DOCTYPE svg PUBLIC "-//W3C//DTD SVG 1.1//EN"
 "http://www.w3.org/Graphics/SVG/1.1/DTD/svg11.dtd">
<!-- Generated by graphviz version 2.38.0 (20140413.2041)
 -->
<!-- Title: SDK::AKraken Pages: 1 -->
<!--zoomable 890 -->
<svg id="main" version="1.1" xmlns="http://www.w3.org/2000/svg" xmlns:xlink="http://www.w3.org/1999/xlink" xml:space="preserve" onload="init(evt)">
<style type="text/css"><![CDATA[
.edge:hover path { stroke: red; }
.edge:hover polygon { stroke: red; fill: red; }
]]></style>
<script type="text/javascript"><![CDATA[
var edges = document.getElementsByTagName('g');
if (edges && edges.length) {
  for (var i=0;i<edges.length;i++) {
    if (edges[i].id.substr(0,4)=='edge') {
      edges[i].setAttribute('class','edge');
    }
  }
}
]]></script>
        <defs>
                <circle id="rim" cx="0" cy="0" r="7"/>
                <circle id="rim2" cx="0" cy="0" r="3.5"/>
                <g id="zoomPlus">
                        <use xlink:href="#rim" fill="#404040">
                                <set attributeName="fill" to="#808080" begin="zoomplus.mouseover" end="zoomplus.mouseout"/>
                        </use>
                        <path d="M-4,0h8M0,-4v8" fill="none" stroke="white" stroke-width="1.5" pointer-events="none"/>
                </g>
                <g id="zoomMin">
                        <use xlink:href="#rim" fill="#404040">
                                <set attributeName="fill" to="#808080" begin="zoomminus.mouseover" end="zoomminus.mouseout"/>
                        </use>
                        <path d="M-4,0h8" fill="none" stroke="white" stroke-width="1.5" pointer-events="none"/>
                </g>
                <g id="dirArrow">
                        <path fill="none" stroke="white" stroke-width="1.5" d="M0,-3.0v7 M-2.5,-0.5L0,-3.0L2.5,-0.5"/>
                </g>
               <g id="resetDef">
                       <use xlink:href="#rim2" fill="#404040">
                               <set attributeName="fill" to="#808080" begin="reset.mouseover" end="reset.mouseout"/>
                       </use>
               </g>
        </defs>

<script type="text/javascript">
var viewWidth = 1499;
var viewHeight = 890;
var sectionId = 'dynsection-1';
</script>
<script xlink:href="svgpan.js"/>
<svg id="graph" class="graph">
<g id="viewport">
<title>SDK::AKraken</title>
<!-- Node1 -->
<g id="node1" class="node"><title>Node1</title>
<g id="a_node1"><a xlink:title=" ">
<polygon fill="#bfbfbf" stroke="black" points="670.045,-0.5 670.045,-90.5 816.045,-90.5 816.045,-0.5 670.045,-0.5"/>
<text text-anchor="middle" x="743.045" y="-78.5" font-family="Helvetica,sans-Serif" font-size="10.00">SDK::AKraken</text>
<polyline fill="none" stroke="black" points="670.045,-71.5 816.045,-71.5 "/>
<text text-anchor="middle" x="743.045" y="-59.5" font-family="Helvetica,sans-Serif" font-size="10.00"> </text>
<polyline fill="none" stroke="black" points="670.045,-52.5 816.045,-52.5 "/>
<text text-anchor="start" x="678.045" y="-40.5" font-family="Helvetica,sans-Serif" font-size="10.00">+ Multicast_OnTentacleTaken</text>
<text text-anchor="start" x="678.045" y="-29.5" font-family="Helvetica,sans-Serif" font-size="10.00">Damage()</text>
<text text-anchor="start" x="678.045" y="-18.5" font-family="Helvetica,sans-Serif" font-size="10.00">+ AddActorToKnownTargets()</text>
<text text-anchor="start" x="678.045" y="-7.5" font-family="Helvetica,sans-Serif" font-size="10.00">+ StaticClass()</text>
</a>
</g>
</g>
<!-- Node2 -->
<g id="node2" class="node"><title>Node2</title>
<g id="a_node2"><a xlink:href="a26343.html" target="_top" xlink:title=" ">
<polygon fill="none" stroke="red" points="180.545,-367.5 180.545,-666.5 347.545,-666.5 347.545,-367.5 180.545,-367.5"/>
<text text-anchor="middle" x="264.045" y="-654.5" font-family="Helvetica,sans-Serif" font-size="10.00">SDK::AActor</text>
<polyline fill="none" stroke="red" points="180.545,-647.5 347.545,-647.5 "/>
<text text-anchor="start" x="188.545" y="-635.5" font-family="Helvetica,sans-Serif" font-size="10.00">+ bAllowRemovalFromServerWhen</text>
<text text-anchor="start" x="188.545" y="-624.5" font-family="Helvetica,sans-Serif" font-size="10.00">CollisionMerged</text>
<text text-anchor="start" x="188.545" y="-613.5" font-family="Helvetica,sans-Serif" font-size="10.00">+ bHidden</text>
<text text-anchor="start" x="188.545" y="-602.5" font-family="Helvetica,sans-Serif" font-size="10.00">+ bNetStartup</text>
<text text-anchor="start" x="188.545" y="-591.5" font-family="Helvetica,sans-Serif" font-size="10.00">+ bOnlyRelevantToOwner</text>
<text text-anchor="start" x="188.545" y="-580.5" font-family="Helvetica,sans-Serif" font-size="10.00">+ bAlwaysRelevant</text>
<text text-anchor="start" x="188.545" y="-569.5" font-family="Helvetica,sans-Serif" font-size="10.00">+ bReplicateMovement</text>
<text text-anchor="start" x="188.545" y="-558.5" font-family="Helvetica,sans-Serif" font-size="10.00">+ bExchangedRoles</text>
<text text-anchor="start" x="188.545" y="-547.5" font-family="Helvetica,sans-Serif" font-size="10.00">+ bNetLoadOnClient</text>
<text text-anchor="start" x="188.545" y="-536.5" font-family="Helvetica,sans-Serif" font-size="10.00">+ bBlockInput</text>
<text text-anchor="start" x="188.545" y="-525.5" font-family="Helvetica,sans-Serif" font-size="10.00">+ UnknownData00</text>
<text text-anchor="start" x="188.545" y="-514.5" font-family="Helvetica,sans-Serif" font-size="10.00">and 26 more...</text>
<polyline fill="none" stroke="red" points="180.545,-507.5 347.545,-507.5 "/>
<text text-anchor="start" x="188.545" y="-495.5" font-family="Helvetica,sans-Serif" font-size="10.00">+ UserConstructionScript()</text>
<text text-anchor="start" x="188.545" y="-484.5" font-family="Helvetica,sans-Serif" font-size="10.00">+ TearOff()</text>
<text text-anchor="start" x="188.545" y="-473.5" font-family="Helvetica,sans-Serif" font-size="10.00">+ SnapRootComponentTo()</text>
<text text-anchor="start" x="188.545" y="-462.5" font-family="Helvetica,sans-Serif" font-size="10.00">+ SetTickGroup()</text>
<text text-anchor="start" x="188.545" y="-451.5" font-family="Helvetica,sans-Serif" font-size="10.00">+ SetTickableWhenPaused()</text>
<text text-anchor="start" x="188.545" y="-440.5" font-family="Helvetica,sans-Serif" font-size="10.00">+ SetReplicates()</text>
<text text-anchor="start" x="188.545" y="-429.5" font-family="Helvetica,sans-Serif" font-size="10.00">+ SetReplicateMovement()</text>
<text text-anchor="start" x="188.545" y="-418.5" font-family="Helvetica,sans-Serif" font-size="10.00">+ SetOwner()</text>
<text text-anchor="start" x="188.545" y="-407.5" font-family="Helvetica,sans-Serif" font-size="10.00">+ SetLifeSpan()</text>
<text text-anchor="start" x="188.545" y="-396.5" font-family="Helvetica,sans-Serif" font-size="10.00">+ SetIgnoreNetTransformUpdates()</text>
<text text-anchor="start" x="188.545" y="-385.5" font-family="Helvetica,sans-Serif" font-size="10.00">and 109 more...</text>
<text text-anchor="start" x="188.545" y="-374.5" font-family="Helvetica,sans-Serif" font-size="10.00">+ StaticClass()</text>
</a>
</g>
</g>
<!-- Node2&#45;&gt;Node1 -->
<g id="edge1" class="edge"><title>Node2&#45;&gt;Node1</title>
<path fill="none" stroke="midnightblue" d="M305.023,-357.337C332.48,-280.771 376.341,-193.671 444.045,-138 508.828,-84.7307 604.321,-62.4319 669.86,-53.1237"/>
<polygon fill="none" stroke="midnightblue" points="301.606,-356.505 301.59,-367.1 308.209,-358.828 301.606,-356.505"/>
</g>
<!-- Node2&#45;&gt;Node2 -->
<g id="edge4" class="edge"><title>Node2&#45;&gt;Node2</title>
<path fill="none" stroke="#404040" d="M347.665,-550.194C358.432,-544.438 365.545,-533.373 365.545,-517 365.545,-506.255 362.481,-497.797 357.332,-491.624"/>
<polygon fill="none" stroke="#404040" points="356.996,-491.352 349.815,-490.689 347.665,-483.806 354.845,-484.469 356.996,-491.352"/>
<text text-anchor="middle" x="384.045" y="-514.5" font-family="Helvetica,sans-Serif" font-size="10.00"> +Owner</text>
</g>
<!-- Node203 -->
<g id="node9" class="node"><title>Node203</title>
<g id="a_node9"><a xlink:href="a32575.html" target="_top" xlink:title=" ">
<polygon fill="none" stroke="red" points="453.045,-160.5 453.045,-239.5 565.045,-239.5 565.045,-160.5 453.045,-160.5"/>
<text text-anchor="middle" x="509.045" y="-227.5" font-family="Helvetica,sans-Serif" font-size="10.00">SDK::AMurk</text>
<polyline fill="none" stroke="red" points="453.045,-220.5 565.045,-220.5 "/>
<text text-anchor="middle" x="509.045" y="-208.5" font-family="Helvetica,sans-Serif" font-size="10.00"> </text>
<polyline fill="none" stroke="red" points="453.045,-201.5 565.045,-201.5 "/>
<text text-anchor="start" x="461.045" y="-189.5" font-family="Helvetica,sans-Serif" font-size="10.00">+ DeactivateMurkBP()</text>
<text text-anchor="start" x="461.045" y="-178.5" font-family="Helvetica,sans-Serif" font-size="10.00">+ ActivateMurkBP()</text>
<text text-anchor="start" x="461.045" y="-167.5" font-family="Helvetica,sans-Serif" font-size="10.00">+ StaticClass()</text>
</a>
</g>
</g>
<!-- Node2&#45;&gt;Node203 -->
<g id="edge15" class="edge"><title>Node2&#45;&gt;Node203</title>
<path fill="none" stroke="midnightblue" d="M353.615,-373.92C375.703,-342.038 400.191,-309.069 425.045,-280 436.883,-266.153 450.919,-252.168 464.095,-239.893"/>
<polygon fill="none" stroke="midnightblue" points="350.539,-372.215 347.752,-382.437 356.305,-376.184 350.539,-372.215"/>
</g>
<!-- Node12 -->
<g id="node3" class="node"><title>Node12</title>
<g id="a_node3"><a xlink:title=" ">
<polygon fill="none" stroke="#bfbfbf" points="978.545,-824.5 978.545,-881.5 1013.54,-881.5 1013.54,-824.5 978.545,-824.5"/>
<text text-anchor="middle" x="996.045" y="-869.5" font-family="Helvetica,sans-Serif" font-size="10.00">char</text>
<polyline fill="none" stroke="#bfbfbf" points="978.545,-862.5 1013.54,-862.5 "/>
<text text-anchor="middle" x="996.045" y="-850.5" font-family="Helvetica,sans-Serif" font-size="10.00"> </text>
<polyline fill="none" stroke="#bfbfbf" points="978.545,-843.5 1013.54,-843.5 "/>
<text text-anchor="middle" x="996.045" y="-831.5" font-family="Helvetica,sans-Serif" font-size="10.00"> </text>
</a>
</g>
</g>
<!-- Node12&#45;&gt;Node1 -->
<g id="edge11" class="edge"><title>Node12&#45;&gt;Node1</title>
<path fill="none" stroke="#404040" d="M1013.82,-847.477C1033.04,-841.528 1062.73,-829.02 1076.04,-806 1102.97,-759.451 1079.78,-738.648 1076.04,-685 1065.57,-534.577 1046.26,-498.802 1029.04,-349 1023.67,-302.229 1038.85,-175.238 1010.04,-138 967.181,-82.588 888.919,-60.53 828.165,-51.8541"/>
<polygon fill="none" stroke="#404040" points="828.161,-51.8537 821.692,-55.0385 816.263,-50.2914 822.733,-47.1066 828.161,-51.8537"/>
<text text-anchor="middle" x="1069.04" y="-339.5" font-family="Helvetica,sans-Serif" font-size="10.00"> +UnknownData01</text>
<text text-anchor="middle" x="1069.04" y="-328.5" font-family="Helvetica,sans-Serif" font-size="10.00">+UnknownData02</text>
<text text-anchor="middle" x="1069.04" y="-317.5" font-family="Helvetica,sans-Serif" font-size="10.00">+UnknownData03</text>
<text text-anchor="middle" x="1069.04" y="-306.5" font-family="Helvetica,sans-Serif" font-size="10.00">+UnknownData04</text>
<text text-anchor="middle" x="1069.04" y="-295.5" font-family="Helvetica,sans-Serif" font-size="10.00">+UnknownData05</text>
<text text-anchor="middle" x="1069.04" y="-284.5" font-family="Helvetica,sans-Serif" font-size="10.00">+UnknownData00</text>
</g>
<!-- Node12&#45;&gt;Node2 -->
<g id="edge2" class="edge"><title>Node12&#45;&gt;Node2</title>
<path fill="none" stroke="#404040" d="M978.447,-851.903C880.416,-851.209 404.309,-845.799 354.045,-806 351.042,-803.623 331.992,-743.285 312.187,-678.453"/>
<polygon fill="none" stroke="#404040" points="312.115,-678.216 306.538,-673.644 308.615,-666.738 314.191,-671.31 312.115,-678.216"/>
<text text-anchor="middle" x="420.045" y="-798" font-family="Helvetica,sans-Serif" font-size="10.00"> +bEnableAutoLODGeneration</text>
<text text-anchor="middle" x="420.045" y="-787" font-family="Helvetica,sans-Serif" font-size="10.00">+UnknownData01</text>
<text text-anchor="middle" x="420.045" y="-776" font-family="Helvetica,sans-Serif" font-size="10.00">+bNetUseOwnerRelevancy</text>
<text text-anchor="middle" x="420.045" y="-765" font-family="Helvetica,sans-Serif" font-size="10.00">+bTearOff</text>
<text text-anchor="middle" x="420.045" y="-754" font-family="Helvetica,sans-Serif" font-size="10.00">+bNetTemporary</text>
<text text-anchor="middle" x="420.045" y="-743" font-family="Helvetica,sans-Serif" font-size="10.00">+UnknownData02</text>
<text text-anchor="middle" x="420.045" y="-732" font-family="Helvetica,sans-Serif" font-size="10.00">+bCanBeInCluster</text>
<text text-anchor="middle" x="420.045" y="-721" font-family="Helvetica,sans-Serif" font-size="10.00">+bPendingNetUpdate</text>
<text text-anchor="middle" x="420.045" y="-710" font-family="Helvetica,sans-Serif" font-size="10.00">+UnknownData10</text>
<text text-anchor="middle" x="420.045" y="-699" font-family="Helvetica,sans-Serif" font-size="10.00">+UnknownData03</text>
<text text-anchor="middle" x="420.045" y="-688" font-family="Helvetica,sans-Serif" font-size="10.00">...</text>
</g>
<!-- Node177 -->
<g id="node6" class="node"><title>Node177</title>
<g id="a_node6"><a xlink:href="a32687.html" target="_top" xlink:title=" ">
<polygon fill="none" stroke="red" points="905.545,-488.5 905.545,-545.5 1018.54,-545.5 1018.54,-488.5 905.545,-488.5"/>
<text text-anchor="middle" x="962.045" y="-533.5" font-family="Helvetica,sans-Serif" font-size="10.00">SDK::FKrakenParams</text>
<polyline fill="none" stroke="red" points="905.545,-526.5 1018.54,-526.5 "/>
<text text-anchor="middle" x="962.045" y="-514.5" font-family="Helvetica,sans-Serif" font-size="10.00"> </text>
<polyline fill="none" stroke="red" points="905.545,-507.5 1018.54,-507.5 "/>
<text text-anchor="middle" x="962.045" y="-495.5" font-family="Helvetica,sans-Serif" font-size="10.00"> </text>
</a>
</g>
</g>
<!-- Node12&#45;&gt;Node177 -->
<g id="edge7" class="edge"><title>Node12&#45;&gt;Node177</title>
<path fill="none" stroke="#404040" d="M993.233,-824.383C987.212,-765.235 973.052,-626.135 966.075,-557.591"/>
<polygon fill="none" stroke="#404040" points="966.074,-557.587 961.487,-552.023 964.859,-545.649 969.446,-551.213 966.074,-557.587"/>
<text text-anchor="middle" x="1032.04" y="-748.5" font-family="Helvetica,sans-Serif" font-size="10.00"> +UnknownData01</text>
<text text-anchor="middle" x="1032.04" y="-737.5" font-family="Helvetica,sans-Serif" font-size="10.00">+UnknownData00</text>
</g>
<!-- Node194 -->
<g id="node8" class="node"><title>Node194</title>
<g id="a_node8"><a xlink:href="a05963.html" target="_top" xlink:title=" ">
<polygon fill="none" stroke="red" points="1118.04,-280.5 1118.04,-348.5 1274.04,-348.5 1274.04,-280.5 1118.04,-280.5"/>
<text text-anchor="start" x="1126.04" y="-336.5" font-family="Helvetica,sans-Serif" font-size="10.00">SDK::UKrakenAICharacterAudio</text>
<text text-anchor="middle" x="1196.04" y="-325.5" font-family="Helvetica,sans-Serif" font-size="10.00">Component</text>
<polyline fill="none" stroke="red" points="1118.04,-318.5 1274.04,-318.5 "/>
<text text-anchor="middle" x="1196.04" y="-306.5" font-family="Helvetica,sans-Serif" font-size="10.00"> </text>
<polyline fill="none" stroke="red" points="1118.04,-299.5 1274.04,-299.5 "/>
<text text-anchor="start" x="1126.04" y="-287.5" font-family="Helvetica,sans-Serif" font-size="10.00">+ StaticClass()</text>
</a>
</g>
</g>
<!-- Node12&#45;&gt;Node194 -->
<g id="edge13" class="edge"><title>Node12&#45;&gt;Node194</title>
<path fill="none" stroke="#404040" d="M1013.85,-849.725C1038.38,-845.599 1082.13,-834.487 1105.04,-806 1211.83,-673.254 1208.24,-454.906 1200.85,-360.884"/>
<polygon fill="none" stroke="#404040" points="1200.83,-360.684 1196.34,-355.045 1199.81,-348.728 1204.31,-354.367 1200.83,-360.684"/>
<text text-anchor="middle" x="1208.04" y="-743" font-family="Helvetica,sans-Serif" font-size="10.00"> +UnknownData00</text>
</g>
<!-- Node12&#45;&gt;Node203 -->
<g id="edge16" class="edge"><title>Node12&#45;&gt;Node203</title>
<path fill="none" stroke="#404040" d="M978.529,-851.107C908.322,-847.357 649.868,-831.877 625.045,-806 591.164,-770.682 601.884,-414.227 589.045,-367 577.858,-325.853 556.634,-282.555 538.857,-250.498"/>
<polygon fill="none" stroke="#404040" points="538.633,-250.101 532.2,-246.842 532.735,-239.65 539.168,-242.91 538.633,-250.101"/>
<text text-anchor="middle" x="643.045" y="-520" font-family="Helvetica,sans-Serif" font-size="10.00"> +UnknownData01</text>
<text text-anchor="middle" x="643.045" y="-509" font-family="Helvetica,sans-Serif" font-size="10.00">+UnknownData00</text>
</g>
<!-- Node242 -->
<g id="node10" class="node"><title>Node242</title>
<g id="a_node10"><a xlink:href="a00555.html" target="_top" xlink:title=" ">
<polygon fill="none" stroke="red" points="709.545,-488.5 709.545,-545.5 836.545,-545.5 836.545,-488.5 709.545,-488.5"/>
<text text-anchor="middle" x="773.045" y="-533.5" font-family="Helvetica,sans-Serif" font-size="10.00">SDK::FEncounterParams</text>
<polyline fill="none" stroke="red" points="709.545,-526.5 836.545,-526.5 "/>
<text text-anchor="middle" x="773.045" y="-514.5" font-family="Helvetica,sans-Serif" font-size="10.00"> </text>
<polyline fill="none" stroke="red" points="709.545,-507.5 836.545,-507.5 "/>
<text text-anchor="middle" x="773.045" y="-495.5" font-family="Helvetica,sans-Serif" font-size="10.00"> </text>
</a>
</g>
</g>
<!-- Node12&#45;&gt;Node242 -->
<g id="edge21" class="edge"><title>Node12&#45;&gt;Node242</title>
<path fill="none" stroke="#404040" d="M978.395,-849.039C955.486,-844.226 915.973,-832.437 895.045,-806 861.015,-763.014 890.524,-736.248 871.045,-685 853.1,-637.79 822.464,-588.474 800.214,-555.784"/>
<polygon fill="none" stroke="#404040" points="800.126,-555.656 793.426,-552.989 793.312,-545.779 800.011,-548.446 800.126,-555.656"/>
<text text-anchor="middle" x="935.045" y="-748.5" font-family="Helvetica,sans-Serif" font-size="10.00"> +UnknownData01</text>
<text text-anchor="middle" x="935.045" y="-737.5" font-family="Helvetica,sans-Serif" font-size="10.00">+UnknownData00</text>
</g>
<!-- Node246 -->
<g id="node11" class="node"><title>Node246</title>
<g id="a_node11"><a xlink:href="a32583.html" target="_top" xlink:title=" ">
<polygon fill="none" stroke="red" points="1279.54,-286 1279.54,-343 1452.54,-343 1452.54,-286 1279.54,-286"/>
<text text-anchor="middle" x="1366.04" y="-331" font-family="Helvetica,sans-Serif" font-size="10.00">SDK::UKrakenTelemetryComponent</text>
<polyline fill="none" stroke="red" points="1279.54,-324 1452.54,-324 "/>
<text text-anchor="middle" x="1366.04" y="-312" font-family="Helvetica,sans-Serif" font-size="10.00"> </text>
<polyline fill="none" stroke="red" points="1279.54,-305 1452.54,-305 "/>
<text text-anchor="start" x="1287.54" y="-293" font-family="Helvetica,sans-Serif" font-size="10.00">+ StaticClass()</text>
</a>
</g>
</g>
<!-- Node12&#45;&gt;Node246 -->
<g id="edge23" class="edge"><title>Node12&#45;&gt;Node246</title>
<path fill="none" stroke="#404040" d="M1013.79,-851.278C1066,-848.789 1217.52,-838.824 1252.04,-806 1380.17,-684.198 1377.01,-448.794 1370.03,-355.239"/>
<polygon fill="none" stroke="#404040" points="1370.03,-355.222 1365.56,-349.567 1369.06,-343.262 1373.53,-348.918 1370.03,-355.222"/>
<text text-anchor="middle" x="1370.04" y="-743" font-family="Helvetica,sans-Serif" font-size="10.00"> +UnknownData00</text>
</g>
<!-- Node25 -->
<g id="node4" class="node"><title>Node25</title>
<g id="a_node4"><a xlink:title=" ">
<polygon fill="none" stroke="#bfbfbf" points="306.545,-824.5 306.545,-881.5 341.545,-881.5 341.545,-824.5 306.545,-824.5"/>
<text text-anchor="middle" x="324.045" y="-869.5" font-family="Helvetica,sans-Serif" font-size="10.00">float</text>
<polyline fill="none" stroke="#bfbfbf" points="306.545,-862.5 341.545,-862.5 "/>
<text text-anchor="middle" x="324.045" y="-850.5" font-family="Helvetica,sans-Serif" font-size="10.00"> </text>
<polyline fill="none" stroke="#bfbfbf" points="306.545,-843.5 341.545,-843.5 "/>
<text text-anchor="middle" x="324.045" y="-831.5" font-family="Helvetica,sans-Serif" font-size="10.00"> </text>
</a>
</g>
</g>
<!-- Node25&#45;&gt;Node1 -->
<g id="edge10" class="edge"><title>Node25&#45;&gt;Node1</title>
<path fill="none" stroke="#404040" d="M306.494,-852.759C273.758,-853.096 203.828,-848.505 172.045,-806 135.048,-756.523 171.267,-728.779 171.045,-667 170.422,-493.943 116.303,-422.814 214.045,-280 262.37,-209.389 270.241,-181.294 344.045,-138 441.909,-80.5915 572.887,-59.2007 657.617,-51.2311"/>
<polygon fill="none" stroke="#404040" points="657.82,-51.2131 663.442,-46.6972 669.773,-50.1499 664.151,-54.6658 657.82,-51.2131"/>
<text text-anchor="middle" x="260.045" y="-323" font-family="Helvetica,sans-Serif" font-size="10.00"> +RelevancyDistance</text>
<text text-anchor="middle" x="260.045" y="-312" font-family="Helvetica,sans-Serif" font-size="10.00">+OuterRadius</text>
<text text-anchor="middle" x="260.045" y="-301" font-family="Helvetica,sans-Serif" font-size="10.00">+InnerRadius</text>
</g>
<!-- Node25&#45;&gt;Node2 -->
<g id="edge3" class="edge"><title>Node25&#45;&gt;Node2</title>
<path fill="none" stroke="#404040" d="M306.503,-851.524C278.136,-849.693 222.871,-841.493 198.045,-806 171.999,-768.765 171.882,-722.814 182.867,-678.638"/>
<polygon fill="none" stroke="#404040" points="182.924,-678.427 180.635,-671.588 186.067,-666.846 188.356,-673.684 182.924,-678.427"/>
<text text-anchor="middle" x="254.045" y="-776" font-family="Helvetica,sans-Serif" font-size="10.00"> +InitialLifeSpan</text>
<text text-anchor="middle" x="254.045" y="-765" font-family="Helvetica,sans-Serif" font-size="10.00">+LastNetUpdateTime</text>
<text text-anchor="middle" x="254.045" y="-754" font-family="Helvetica,sans-Serif" font-size="10.00">+NetCullDistanceSquared</text>
<text text-anchor="middle" x="254.045" y="-743" font-family="Helvetica,sans-Serif" font-size="10.00">+NetUpdateFrequency</text>
<text text-anchor="middle" x="254.045" y="-732" font-family="Helvetica,sans-Serif" font-size="10.00">+NetUpdateTime</text>
<text text-anchor="middle" x="254.045" y="-721" font-family="Helvetica,sans-Serif" font-size="10.00">+CustomTimeDilation</text>
<text text-anchor="middle" x="254.045" y="-710" font-family="Helvetica,sans-Serif" font-size="10.00">+NetPriority</text>
</g>
<!-- Node25&#45;&gt;Node177 -->
<g id="edge8" class="edge"><title>Node25&#45;&gt;Node177</title>
<path fill="none" stroke="#404040" d="M341.865,-851.891C399.942,-851.15 582.293,-845.648 622.045,-806 660.587,-767.557 601.27,-722.167 641.045,-685 674.296,-653.928 805.031,-688.681 845.045,-667 890.448,-642.398 924.168,-591.927 943.457,-556.572"/>
<polygon fill="none" stroke="#404040" points="943.607,-556.289 942.871,-549.115 949.21,-545.677 949.946,-552.85 943.607,-556.289"/>
<text text-anchor="middle" x="754.045" y="-787" font-family="Helvetica,sans-Serif" font-size="10.00"> +OperatingAreaRadius</text>
<text text-anchor="start" x="641.045" y="-776" font-family="Helvetica,sans-Serif" font-size="10.00">+RadiusToleranceBeforeOperating</text>
<text text-anchor="middle" x="754.045" y="-765" font-family="Helvetica,sans-Serif" font-size="10.00">AreaDespawn</text>
<text text-anchor="start" x="641.045" y="-754" font-family="Helvetica,sans-Serif" font-size="10.00">+DamageAmountToTriggerAudioComponent</text>
<text text-anchor="middle" x="754.045" y="-743" font-family="Helvetica,sans-Serif" font-size="10.00">Notification</text>
<text text-anchor="middle" x="754.045" y="-732" font-family="Helvetica,sans-Serif" font-size="10.00">+GlobalPlayRateScale</text>
<text text-anchor="middle" x="754.045" y="-721" font-family="Helvetica,sans-Serif" font-size="10.00">+TickFrequencyToLookForNewBehaviours</text>
<text text-anchor="start" x="641.045" y="-710" font-family="Helvetica,sans-Serif" font-size="10.00">+MinimumOperatingAreaMovementDeltaToInvalidate</text>
<text text-anchor="middle" x="754.045" y="-699" font-family="Helvetica,sans-Serif" font-size="10.00">Locations</text>
</g>
<!-- Node25&#45;&gt;Node203 -->
<g id="edge17" class="edge"><title>Node25&#45;&gt;Node203</title>
<path fill="none" stroke="#404040" d="M317.496,-824.369C310.622,-787.915 304.903,-723.844 338.045,-685 359.733,-659.579 388.659,-691.81 411.045,-667 456.14,-617.02 437.552,-432.51 453.045,-367 462.427,-327.326 477.337,-283.69 489.413,-251.117"/>
<polygon fill="none" stroke="#404040" points="489.502,-250.879 487.866,-243.856 493.719,-239.644 495.356,-246.667 489.502,-250.879"/>
<text text-anchor="middle" x="521.045" y="-514.5" font-family="Helvetica,sans-Serif" font-size="10.00"> +UnderwaterSheetHeightScale</text>
</g>
<!-- Node25&#45;&gt;Node242 -->
<g id="edge20" class="edge"><title>Node25&#45;&gt;Node242</title>
<path fill="none" stroke="#404040" d="M341.712,-852.013C374.934,-851.092 447.213,-844.465 490.045,-806 533.089,-767.344 492.115,-720.181 538.045,-685 593.802,-642.291 637.13,-706.735 695.045,-667 732.411,-641.363 753.139,-592.047 763.669,-557.185"/>
<polygon fill="none" stroke="#404040" points="763.703,-557.064 761.492,-550.2 766.978,-545.52 769.189,-552.384 763.703,-557.064"/>
<text text-anchor="middle" x="580.045" y="-743" font-family="Helvetica,sans-Serif" font-size="10.00"> +EncounterRadius</text>
</g>
<!-- Node40 -->
<g id="node5" class="node"><title>Node40</title>
<g id="a_node5"><a xlink:title=" ">
<polygon fill="none" stroke="#bfbfbf" points="21.5445,-824.5 21.5445,-881.5 50.5445,-881.5 50.5445,-824.5 21.5445,-824.5"/>
<text text-anchor="middle" x="36.0445" y="-869.5" font-family="Helvetica,sans-Serif" font-size="10.00">int</text>
<polyline fill="none" stroke="#bfbfbf" points="21.5445,-862.5 50.5445,-862.5 "/>
<text text-anchor="middle" x="36.0445" y="-850.5" font-family="Helvetica,sans-Serif" font-size="10.00"> </text>
<polyline fill="none" stroke="#bfbfbf" points="21.5445,-843.5 50.5445,-843.5 "/>
<text text-anchor="middle" x="36.0445" y="-831.5" font-family="Helvetica,sans-Serif" font-size="10.00"> </text>
</a>
</g>
</g>
<!-- Node40&#45;&gt;Node1 -->
<g id="edge18" class="edge"><title>Node40&#45;&gt;Node1</title>
<path fill="none" stroke="#404040" d="M29.4633,-824.222C10.5565,-738.069 -36.9026,-469.793 55.0445,-280 97.6694,-192.016 134.73,-179.938 223.045,-138 365.418,-70.3915 551.12,-52.3246 657.721,-47.7492"/>
<polygon fill="none" stroke="#404040" points="658.013,-47.7378 663.851,-43.5054 670.003,-47.2669 664.165,-51.4993 658.013,-47.7378"/>
<text text-anchor="middle" x="114.045" y="-312" font-family="Helvetica,sans-Serif" font-size="10.00"> +NumTentaclesRemaining</text>
</g>
<!-- Node40&#45;&gt;Node2 -->
<g id="edge5" class="edge"><title>Node40&#45;&gt;Node2</title>
<path fill="none" stroke="#404040" d="M45.3725,-824.311C57.6082,-790.01 81.087,-730.537 111.045,-685 128.579,-658.347 150.367,-631.814 171.951,-608.002"/>
<polygon fill="none" stroke="#404040" points="172.088,-607.853 173.2,-600.729 180.204,-599.015 179.092,-606.14 172.088,-607.853"/>
<text text-anchor="middle" x="141.545" y="-748.5" font-family="Helvetica,sans-Serif" font-size="10.00"> +InputPriority</text>
<text text-anchor="middle" x="141.545" y="-737.5" font-family="Helvetica,sans-Serif" font-size="10.00">+NetTag</text>
</g>
<!-- Node177&#45;&gt;Node1 -->
<g id="edge6" class="edge"><title>Node177&#45;&gt;Node1</title>
<path fill="none" stroke="#404040" d="M963.553,-488.475C967.252,-411.316 973.837,-194.863 935.045,-138 910.233,-101.631 866.885,-79.2917 827.649,-65.8022"/>
<polygon fill="none" stroke="#404040" points="827.581,-65.7801 820.637,-67.7237 816.172,-62.0612 823.116,-60.1176 827.581,-65.7801"/>
<text text-anchor="middle" x="984.545" y="-197.5" font-family="Helvetica,sans-Serif" font-size="10.00"> +Params</text>
</g>
<!-- Node193 -->
<g id="node7" class="node"><title>Node193</title>
<g id="a_node7"><a xlink:href="a25635.html" target="_top" xlink:title=" ">
<polygon fill="none" stroke="black" points="774.045,-138.5 774.045,-261.5 926.045,-261.5 926.045,-138.5 774.045,-138.5"/>
<text text-anchor="start" x="782.045" y="-249.5" font-family="Helvetica,sans-Serif" font-size="10.00">SDK::TEnumAsByte&lt; EKraken</text>
<text text-anchor="middle" x="850.045" y="-238.5" font-family="Helvetica,sans-Serif" font-size="10.00">State &gt;</text>
<polyline fill="none" stroke="black" points="774.045,-231.5 926.045,-231.5 "/>
<text text-anchor="middle" x="850.045" y="-219.5" font-family="Helvetica,sans-Serif" font-size="10.00"> </text>
<polyline fill="none" stroke="black" points="774.045,-212.5 926.045,-212.5 "/>
<text text-anchor="start" x="782.045" y="-200.5" font-family="Helvetica,sans-Serif" font-size="10.00">+ TEnumAsByte()</text>
<text text-anchor="start" x="782.045" y="-189.5" font-family="Helvetica,sans-Serif" font-size="10.00">+ TEnumAsByte()</text>
<text text-anchor="start" x="782.045" y="-178.5" font-family="Helvetica,sans-Serif" font-size="10.00">+ TEnumAsByte()</text>
<text text-anchor="start" x="782.045" y="-167.5" font-family="Helvetica,sans-Serif" font-size="10.00">+ TEnumAsByte()</text>
<text text-anchor="start" x="782.045" y="-156.5" font-family="Helvetica,sans-Serif" font-size="10.00">+ operator EKrakenState()</text>
<text text-anchor="start" x="782.045" y="-145.5" font-family="Helvetica,sans-Serif" font-size="10.00">+ GetValue()</text>
</a>
</g>
</g>
<!-- Node193&#45;&gt;Node1 -->
<g id="edge9" class="edge"><title>Node193&#45;&gt;Node1</title>
<path fill="none" stroke="#404040" d="M807.448,-138.29C798.706,-125.831 789.559,-112.793 780.993,-100.586"/>
<polygon fill="none" stroke="#404040" points="780.85,-100.381 774.129,-97.7672 773.957,-90.5581 780.678,-93.1723 780.85,-100.381"/>
<text text-anchor="middle" x="826.045" y="-112" font-family="Helvetica,sans-Serif" font-size="10.00"> +CurrentState</text>
</g>
<!-- Node194&#45;&gt;Node1 -->
<g id="edge12" class="edge"><title>Node194&#45;&gt;Node1</title>
<path fill="none" stroke="#404040" d="M1181.47,-280.291C1159.4,-234.121 1112.98,-151.442 1047.04,-109 981.497,-66.806 892.944,-52.3415 828.323,-47.7406"/>
<polygon fill="none" stroke="#404040" points="828.116,-47.7275 821.875,-51.3403 816.14,-46.9691 822.38,-43.3563 828.116,-47.7275"/>
<text text-anchor="middle" x="1228.54" y="-197.5" font-family="Helvetica,sans-Serif" font-size="10.00"> +KrakenAudioComponent</text>
</g>
<!-- Node203&#45;&gt;Node1 -->
<g id="edge14" class="edge"><title>Node203&#45;&gt;Node1</title>
<path fill="none" stroke="#404040" d="M526.694,-160.155C536.414,-142.461 549.994,-122.502 567.045,-109 593.417,-88.1161 627.319,-73.8942 658.317,-64.3647"/>
<polygon fill="none" stroke="#404040" points="658.516,-64.3066 663.152,-58.7831 670.033,-60.938 665.397,-66.4615 658.516,-64.3066"/>
<text text-anchor="middle" x="594.545" y="-112" font-family="Helvetica,sans-Serif" font-size="10.00"> +MurkActor</text>
</g>
<!-- Node242&#45;&gt;Node1 -->
<g id="edge19" class="edge"><title>Node242&#45;&gt;Node1</title>
<path fill="none" stroke="#404040" d="M758.746,-488.482C725.956,-425.263 647.928,-274.13 645.045,-262 632.298,-208.383 623.085,-188.547 645.045,-138 651.253,-123.709 660.915,-110.636 671.8,-99.1209"/>
<polygon fill="none" stroke="#404040" points="671.825,-99.0954 673.252,-92.0267 680.325,-90.6244 678.899,-97.6931 671.825,-99.0954"/>
<text text-anchor="middle" x="705.045" y="-203" font-family="Helvetica,sans-Serif" font-size="10.00"> +CloseEncounterParams</text>
<text text-anchor="middle" x="705.045" y="-192" font-family="Helvetica,sans-Serif" font-size="10.00">+SightingEncounterParams</text>
</g>
<!-- Node246&#45;&gt;Node1 -->
<g id="edge22" class="edge"><title>Node246&#45;&gt;Node1</title>
<path fill="none" stroke="#404040" d="M1362.32,-285.69C1355.46,-246.233 1336.98,-174.726 1290.04,-138 1219.68,-82.9448 963.875,-59.6266 828.468,-50.9639"/>
<polygon fill="none" stroke="#404040" points="828.125,-50.9426 821.887,-54.561 816.148,-50.195 822.386,-46.5765 828.125,-50.9426"/>
<text text-anchor="middle" x="1424.54" y="-197.5" font-family="Helvetica,sans-Serif" font-size="10.00"> +KrakenTelemetryComponent</text>
</g>
</g>
</svg>
        <g id="navigator" transform="translate(0 0)" fill="#404254">
                <rect fill="#f2f5e9" fill-opacity="0.5" stroke="#606060" stroke-width=".5" x="0" y="0" width="60" height="60"/>
                <use id="zoomplus" xlink:href="#zoomPlus" x="17" y="9" onmousedown="handleZoom(evt,'in')"/>
                <use id="zoomminus" xlink:href="#zoomMin" x="42" y="9" onmousedown="handleZoom(evt,'out')"/>
                <use id="reset" xlink:href="#resetDef" x="30" y="36" onmousedown="handleReset()"/>
                <g id="arrowUp" xlink:href="#dirArrow" transform="translate(30 24)" onmousedown="handlePan(0,-1)">
                  <use xlink:href="#rim" fill="#404040">
                        <set attributeName="fill" to="#808080" begin="arrowUp.mouseover" end="arrowUp.mouseout"/>
                  </use>
                  <path fill="none" stroke="white" stroke-width="1.5" d="M0,-3.0v7 M-2.5,-0.5L0,-3.0L2.5,-0.5"/>
                </g>
                <g id="arrowRight" xlink:href="#dirArrow" transform="rotate(90) translate(36 -43)" onmousedown="handlePan(1,0)">
                  <use xlink:href="#rim" fill="#404040">
                        <set attributeName="fill" to="#808080" begin="arrowRight.mouseover" end="arrowRight.mouseout"/>
                  </use>
                  <path fill="none" stroke="white" stroke-width="1.5" d="M0,-3.0v7 M-2.5,-0.5L0,-3.0L2.5,-0.5"/>
                </g>
                <g id="arrowDown" xlink:href="#dirArrow" transform="rotate(180) translate(-30 -48)" onmousedown="handlePan(0,1)">
                  <use xlink:href="#rim" fill="#404040">
                        <set attributeName="fill" to="#808080" begin="arrowDown.mouseover" end="arrowDown.mouseout"/>
                  </use>
                  <path fill="none" stroke="white" stroke-width="1.5" d="M0,-3.0v7 M-2.5,-0.5L0,-3.0L2.5,-0.5"/>
                </g>
                <g id="arrowLeft" xlink:href="#dirArrow" transform="rotate(270) translate(-36 17)" onmousedown="handlePan(-1,0)">
                  <use xlink:href="#rim" fill="#404040">
                        <set attributeName="fill" to="#808080" begin="arrowLeft.mouseover" end="arrowLeft.mouseout"/>
                  </use>
                  <path fill="none" stroke="white" stroke-width="1.5" d="M0,-3.0v7 M-2.5,-0.5L0,-3.0L2.5,-0.5"/>
                </g>
        </g>
        <svg viewBox="0 0 15 15" width="100%" height="30px" preserveAspectRatio="xMaxYMin meet">
         <g id="arrow_out" transform="scale(0.3 0.3)">
          <a xlink:href="a32585_org.svg" target="_base">
           <rect id="button" ry="5" rx="5" y="6" x="6" height="38" width="38"
                fill="#f2f5e9" fill-opacity="0.5" stroke="#606060" stroke-width="1.0"/>
           <path id="arrow"
             d="M 11.500037,31.436501 C 11.940474,20.09759 22.043105,11.32322 32.158766,21.979434 L 37.068811,17.246167 C 37.068811,17.246167 37.088388,32 37.088388,32 L 22.160133,31.978069 C 22.160133,31.978069 26.997745,27.140456 26.997745,27.140456 C 18.528582,18.264221 13.291696,25.230495 11.500037,31.436501 z"
             style="fill:#404040;"/>
          </a>
         </g>
        </svg>
</svg>
