<?xml version="1.0" encoding="UTF-8" standalone="no"?>
<!DOCTYPE svg PUBLIC "-//W3C//DTD SVG 1.1//EN"
 "http://www.w3.org/Graphics/SVG/1.1/DTD/svg11.dtd">
<!-- Generated by graphviz version 2.38.0 (20140413.2041)
 -->
<!-- Title: SDK::UKrakenAnimatedTentacleAnimationMappingDataAsset Pages: 1 -->
<svg width="282pt" height="248pt"
 viewBox="0.00 0.00 282.00 248.00" xmlns="http://www.w3.org/2000/svg" xmlns:xlink="http://www.w3.org/1999/xlink">
<g id="graph0" class="graph" transform="scale(1 1) rotate(0) translate(4 244)">
<title>SDK::UKrakenAnimatedTentacleAnimationMappingDataAsset</title>
<!-- Node1 -->
<g id="node1" class="node"><title>Node1</title>
<g id="a_node1"><a xlink:title=" ">
<polygon fill="#bfbfbf" stroke="black" points="41.5,-0.5 41.5,-68.5 199.5,-68.5 199.5,-0.5 41.5,-0.5"/>
<text text-anchor="start" x="49.5" y="-56.5" font-family="Helvetica,sans-Serif" font-size="10.00">SDK::UKrakenAnimatedTentacle</text>
<text text-anchor="middle" x="120.5" y="-45.5" font-family="Helvetica,sans-Serif" font-size="10.00">AnimationMappingDataAsset</text>
<polyline fill="none" stroke="black" points="41.5,-38.5 199.5,-38.5 "/>
<text text-anchor="middle" x="120.5" y="-26.5" font-family="Helvetica,sans-Serif" font-size="10.00"> </text>
<polyline fill="none" stroke="black" points="41.5,-19.5 199.5,-19.5 "/>
<text text-anchor="start" x="49.5" y="-7.5" font-family="Helvetica,sans-Serif" font-size="10.00">+ StaticClass()</text>
</a>
</g>
</g>
<!-- Node2 -->
<g id="node2" class="node"><title>Node2</title>
<g id="a_node2"><a xlink:href="a26559.html" target="_top" xlink:title=" ">
<polygon fill="none" stroke="red" points="0,-149.5 0,-206.5 95,-206.5 95,-149.5 0,-149.5"/>
<text text-anchor="middle" x="47.5" y="-194.5" font-family="Helvetica,sans-Serif" font-size="10.00">SDK::UDataAsset</text>
<polyline fill="none" stroke="red" points="0,-187.5 95,-187.5 "/>
<text text-anchor="middle" x="47.5" y="-175.5" font-family="Helvetica,sans-Serif" font-size="10.00"> </text>
<polyline fill="none" stroke="red" points="0,-168.5 95,-168.5 "/>
<text text-anchor="start" x="8" y="-156.5" font-family="Helvetica,sans-Serif" font-size="10.00">+ StaticClass()</text>
</a>
</g>
</g>
<!-- Node2&#45;&gt;Node1 -->
<g id="edge1" class="edge"><title>Node2&#45;&gt;Node1</title>
<path fill="none" stroke="midnightblue" d="M66.4522,-140.264C77.9031,-118.068 92.3779,-90.0106 103.465,-68.5192"/>
<polygon fill="none" stroke="midnightblue" points="63.2228,-138.89 61.7484,-149.381 69.4438,-142.099 63.2228,-138.89"/>
</g>
<!-- Node14 -->
<g id="node3" class="node"><title>Node14</title>
<g id="a_node3"><a xlink:href="a25823.html" target="_top" xlink:title=" ">
<polygon fill="none" stroke="black" points="113,-116.5 113,-239.5 274,-239.5 274,-116.5 113,-116.5"/>
<text text-anchor="start" x="121" y="-227.5" font-family="Helvetica,sans-Serif" font-size="10.00">SDK::TArray&lt; struct</text>
<text text-anchor="start" x="121" y="-216.5" font-family="Helvetica,sans-Serif" font-size="10.00"> SDK::FKrakenAnimatedTentacle</text>
<text text-anchor="middle" x="193.5" y="-205.5" font-family="Helvetica,sans-Serif" font-size="10.00">MappedAnimation &gt;</text>
<polyline fill="none" stroke="black" points="113,-198.5 274,-198.5 "/>
<text text-anchor="middle" x="193.5" y="-186.5" font-family="Helvetica,sans-Serif" font-size="10.00"> </text>
<polyline fill="none" stroke="black" points="113,-179.5 274,-179.5 "/>
<text text-anchor="start" x="121" y="-167.5" font-family="Helvetica,sans-Serif" font-size="10.00">+ TArray()</text>
<text text-anchor="start" x="121" y="-156.5" font-family="Helvetica,sans-Serif" font-size="10.00">+ Num()</text>
<text text-anchor="start" x="121" y="-145.5" font-family="Helvetica,sans-Serif" font-size="10.00">+ operator[]()</text>
<text text-anchor="start" x="121" y="-134.5" font-family="Helvetica,sans-Serif" font-size="10.00">+ operator[]()</text>
<text text-anchor="start" x="121" y="-123.5" font-family="Helvetica,sans-Serif" font-size="10.00">+ IsValidIndex()</text>
</a>
</g>
</g>
<!-- Node14&#45;&gt;Node1 -->
<g id="edge2" class="edge"><title>Node14&#45;&gt;Node1</title>
<path fill="none" stroke="#404040" d="M162.118,-116.17C155.734,-103.796 149.137,-91.008 143.129,-79.3622"/>
<polygon fill="none" stroke="#404040" points="143.077,-79.2617 136.771,-75.7635 137.575,-68.5973 143.881,-72.0956 143.077,-79.2617"/>
<text text-anchor="middle" x="182.5" y="-90" font-family="Helvetica,sans-Serif" font-size="10.00"> +Animations</text>
</g>
</g>
</svg>
