<?xml version="1.0" encoding="UTF-8" standalone="no"?>
<!DOCTYPE svg PUBLIC "-//W3C//DTD SVG 1.1//EN"
 "http://www.w3.org/Graphics/SVG/1.1/DTD/svg11.dtd">
<!-- Generated by graphviz version 2.38.0 (20140413.2041)
 -->
<!-- Title: SDK::FKrakenShipWrappingBehaviourWrapLocationParams Pages: 1 -->
<!--zoomable 419 -->
<svg id="main" version="1.1" xmlns="http://www.w3.org/2000/svg" xmlns:xlink="http://www.w3.org/1999/xlink" xml:space="preserve" onload="init(evt)">
<style type="text/css"><![CDATA[
.edge:hover path { stroke: red; }
.edge:hover polygon { stroke: red; fill: red; }
]]></style>
<script type="text/javascript"><![CDATA[
var edges = document.getElementsByTagName('g');
if (edges && edges.length) {
  for (var i=0;i<edges.length;i++) {
    if (edges[i].id.substr(0,4)=='edge') {
      edges[i].setAttribute('class','edge');
    }
  }
}
]]></script>
        <defs>
                <circle id="rim" cx="0" cy="0" r="7"/>
                <circle id="rim2" cx="0" cy="0" r="3.5"/>
                <g id="zoomPlus">
                        <use xlink:href="#rim" fill="#404040">
                                <set attributeName="fill" to="#808080" begin="zoomplus.mouseover" end="zoomplus.mouseout"/>
                        </use>
                        <path d="M-4,0h8M0,-4v8" fill="none" stroke="white" stroke-width="1.5" pointer-events="none"/>
                </g>
                <g id="zoomMin">
                        <use xlink:href="#rim" fill="#404040">
                                <set attributeName="fill" to="#808080" begin="zoomminus.mouseover" end="zoomminus.mouseout"/>
                        </use>
                        <path d="M-4,0h8" fill="none" stroke="white" stroke-width="1.5" pointer-events="none"/>
                </g>
                <g id="dirArrow">
                        <path fill="none" stroke="white" stroke-width="1.5" d="M0,-3.0v7 M-2.5,-0.5L0,-3.0L2.5,-0.5"/>
                </g>
               <g id="resetDef">
                       <use xlink:href="#rim2" fill="#404040">
                               <set attributeName="fill" to="#808080" begin="reset.mouseover" end="reset.mouseout"/>
                       </use>
               </g>
        </defs>

<script type="text/javascript">
var viewWidth = 873;
var viewHeight = 419;
var sectionId = 'dynsection-0';
</script>
<script xlink:href="svgpan.js"/>
<svg id="graph" class="graph">
<g id="viewport">
<title>SDK::FKrakenShipWrappingBehaviourWrapLocationParams</title>
<!-- Node1 -->
<g id="node1" class="node"><title>Node1</title>
<g id="a_node1"><a xlink:title=" ">
<polygon fill="#bfbfbf" stroke="black" points="312.5,-0.5 312.5,-68.5 464.5,-68.5 464.5,-0.5 312.5,-0.5"/>
<text text-anchor="start" x="320.5" y="-56.5" font-family="Helvetica,sans-Serif" font-size="10.00">SDK::FKrakenShipWrapping</text>
<text text-anchor="middle" x="388.5" y="-45.5" font-family="Helvetica,sans-Serif" font-size="10.00">BehaviourWrapLocationParams</text>
<polyline fill="none" stroke="black" points="312.5,-38.5 464.5,-38.5 "/>
<text text-anchor="middle" x="388.5" y="-26.5" font-family="Helvetica,sans-Serif" font-size="10.00"> </text>
<polyline fill="none" stroke="black" points="312.5,-19.5 464.5,-19.5 "/>
<text text-anchor="middle" x="388.5" y="-7.5" font-family="Helvetica,sans-Serif" font-size="10.00"> </text>
</a>
</g>
</g>
<!-- Node2 -->
<g id="node2" class="node"><title>Node2</title>
<g id="a_node2"><a xlink:href="a32991.html" target="_top" xlink:title=" ">
<polygon fill="none" stroke="red" points="0,-138.5 0,-195.5 157,-195.5 157,-138.5 0,-138.5"/>
<text text-anchor="middle" x="78.5" y="-183.5" font-family="Helvetica,sans-Serif" font-size="10.00">SDK::FKrakenDynamicsParams</text>
<polyline fill="none" stroke="red" points="0,-176.5 157,-176.5 "/>
<text text-anchor="middle" x="78.5" y="-164.5" font-family="Helvetica,sans-Serif" font-size="10.00"> </text>
<polyline fill="none" stroke="red" points="0,-157.5 157,-157.5 "/>
<text text-anchor="middle" x="78.5" y="-145.5" font-family="Helvetica,sans-Serif" font-size="10.00"> </text>
</a>
</g>
</g>
<!-- Node2&#45;&gt;Node1 -->
<g id="edge1" class="edge"><title>Node2&#45;&gt;Node1</title>
<path fill="none" stroke="#404040" d="M76.0018,-138.254C76.0651,-121.205 79.2813,-100.177 92.5,-87 121.166,-58.4239 223.863,-45.5681 300.294,-39.8746"/>
<polygon fill="none" stroke="#404040" points="300.35,-39.8707 306.052,-35.4559 312.32,-39.021 306.618,-43.4358 300.35,-39.8707"/>
<text text-anchor="middle" x="136" y="-95.5" font-family="Helvetica,sans-Serif" font-size="10.00"> +DynamicsParams</text>
</g>
<!-- Node5 -->
<g id="node3" class="node"><title>Node5</title>
<g id="a_node3"><a xlink:href="a26403.html" target="_top" xlink:title=" ">
<polygon fill="none" stroke="red" points="334.5,-138.5 334.5,-195.5 426.5,-195.5 426.5,-138.5 334.5,-138.5"/>
<text text-anchor="middle" x="380.5" y="-183.5" font-family="Helvetica,sans-Serif" font-size="10.00">SDK::FTransform</text>
<polyline fill="none" stroke="red" points="334.5,-176.5 426.5,-176.5 "/>
<text text-anchor="middle" x="380.5" y="-164.5" font-family="Helvetica,sans-Serif" font-size="10.00"> </text>
<polyline fill="none" stroke="red" points="334.5,-157.5 426.5,-157.5 "/>
<text text-anchor="middle" x="380.5" y="-145.5" font-family="Helvetica,sans-Serif" font-size="10.00"> </text>
</a>
</g>
</g>
<!-- Node5&#45;&gt;Node1 -->
<g id="edge2" class="edge"><title>Node5&#45;&gt;Node1</title>
<path fill="none" stroke="#404040" d="M334.455,-138.996C324.404,-130.736 315.105,-120.687 309.5,-109 305.272,-100.184 304.842,-95.597 309.5,-87 311.313,-83.6532 313.449,-80.4894 315.833,-77.5032"/>
<polygon fill="none" stroke="#404040" points="316.003,-77.3223 317.184,-70.2086 324.205,-68.563 323.024,-75.6767 316.003,-77.3223"/>
<text text-anchor="middle" x="382" y="-95.5" font-family="Helvetica,sans-Serif" font-size="10.00"> +TentacleHeadHoldShipLocation</text>
</g>
<!-- Node6 -->
<g id="node4" class="node"><title>Node6</title>
<g id="a_node4"><a xlink:href="a26287.html" target="_top" xlink:title=" ">
<polygon fill="none" stroke="red" points="188,-265.5 188,-410.5 267,-410.5 267,-265.5 188,-265.5"/>
<text text-anchor="middle" x="227.5" y="-398.5" font-family="Helvetica,sans-Serif" font-size="10.00">SDK::FVector</text>
<polyline fill="none" stroke="red" points="188,-391.5 267,-391.5 "/>
<text text-anchor="middle" x="227.5" y="-379.5" font-family="Helvetica,sans-Serif" font-size="10.00"> </text>
<polyline fill="none" stroke="red" points="188,-372.5 267,-372.5 "/>
<text text-anchor="start" x="196" y="-360.5" font-family="Helvetica,sans-Serif" font-size="10.00">+ FVector()</text>
<text text-anchor="start" x="196" y="-349.5" font-family="Helvetica,sans-Serif" font-size="10.00">+ FVector()</text>
<text text-anchor="start" x="196" y="-338.5" font-family="Helvetica,sans-Serif" font-size="10.00">+ operator+()</text>
<text text-anchor="start" x="196" y="-327.5" font-family="Helvetica,sans-Serif" font-size="10.00">+ operator&#45;()</text>
<text text-anchor="start" x="196" y="-316.5" font-family="Helvetica,sans-Serif" font-size="10.00">+ operator*()</text>
<text text-anchor="start" x="196" y="-305.5" font-family="Helvetica,sans-Serif" font-size="10.00">+ operator=()</text>
<text text-anchor="start" x="196" y="-294.5" font-family="Helvetica,sans-Serif" font-size="10.00">+ operator+=()</text>
<text text-anchor="start" x="196" y="-283.5" font-family="Helvetica,sans-Serif" font-size="10.00">+ operator&#45;=()</text>
<text text-anchor="start" x="196" y="-272.5" font-family="Helvetica,sans-Serif" font-size="10.00">+ operator*=()</text>
</a>
</g>
</g>
<!-- Node6&#45;&gt;Node1 -->
<g id="edge5" class="edge"><title>Node6&#45;&gt;Node1</title>
<path fill="none" stroke="#404040" d="M197.408,-265.388C184.278,-222.278 176.984,-167.988 202.5,-127 224.303,-91.9757 263.879,-69.971 300.937,-56.3488"/>
<polygon fill="none" stroke="#404040" points="301,-56.3268 305.354,-50.5779 312.335,-52.3852 307.981,-58.1341 301,-56.3268"/>
<text text-anchor="middle" x="264" y="-164.5" font-family="Helvetica,sans-Serif" font-size="10.00"> +WrapLocationAnchorPoint</text>
</g>
<!-- Node6&#45;&gt;Node5 -->
<g id="edge3" class="edge"><title>Node6&#45;&gt;Node5</title>
<path fill="none" stroke="#404040" d="M267.091,-279.746C280.675,-261.542 296.504,-241.79 312.5,-225 319.526,-217.625 327.46,-210.257 335.363,-203.384"/>
<polygon fill="none" stroke="#404040" points="335.419,-203.336 337.407,-196.404 344.57,-195.573 342.582,-202.505 335.419,-203.336"/>
<text text-anchor="middle" x="339.5" y="-239" font-family="Helvetica,sans-Serif" font-size="10.00"> +Scale3D</text>
<text text-anchor="middle" x="339.5" y="-228" font-family="Helvetica,sans-Serif" font-size="10.00">+Translation</text>
</g>
<!-- Node8 -->
<g id="node5" class="node"><title>Node8</title>
<g id="a_node5"><a xlink:title=" ">
<polygon fill="none" stroke="#bfbfbf" points="451,-309.5 451,-366.5 486,-366.5 486,-309.5 451,-309.5"/>
<text text-anchor="middle" x="468.5" y="-354.5" font-family="Helvetica,sans-Serif" font-size="10.00">char</text>
<polyline fill="none" stroke="#bfbfbf" points="451,-347.5 486,-347.5 "/>
<text text-anchor="middle" x="468.5" y="-335.5" font-family="Helvetica,sans-Serif" font-size="10.00"> </text>
<polyline fill="none" stroke="#bfbfbf" points="451,-328.5 486,-328.5 "/>
<text text-anchor="middle" x="468.5" y="-316.5" font-family="Helvetica,sans-Serif" font-size="10.00"> </text>
</a>
</g>
</g>
<!-- Node8&#45;&gt;Node1 -->
<g id="edge6" class="edge"><title>Node8&#45;&gt;Node1</title>
<path fill="none" stroke="#404040" d="M469.775,-309.329C471.941,-252.532 474.351,-124.939 454.5,-87 452.858,-83.8611 450.93,-80.853 448.785,-77.9793"/>
<polygon fill="none" stroke="#404040" points="448.626,-77.7959 441.673,-75.8852 440.762,-68.7318 447.715,-70.6425 448.626,-77.7959"/>
<text text-anchor="middle" x="511.5" y="-164.5" font-family="Helvetica,sans-Serif" font-size="10.00"> +UnknownData00</text>
</g>
<!-- Node8&#45;&gt;Node5 -->
<g id="edge4" class="edge"><title>Node8&#45;&gt;Node5</title>
<path fill="none" stroke="#404040" d="M450.887,-326.592C428.252,-312.068 390.027,-283.362 374.5,-247 369.301,-234.826 368.86,-220.639 370.333,-207.675"/>
<polygon fill="none" stroke="#404040" points="370.349,-207.575 367.344,-201.02 372.239,-195.725 375.244,-202.28 370.349,-207.575"/>
<text text-anchor="middle" x="414.5" y="-239" font-family="Helvetica,sans-Serif" font-size="10.00"> +UnknownData01</text>
<text text-anchor="middle" x="414.5" y="-228" font-family="Helvetica,sans-Serif" font-size="10.00">+UnknownData00</text>
</g>
<!-- Node12 -->
<g id="node7" class="node"><title>Node12</title>
<g id="a_node7"><a xlink:href="a26127.html" target="_top" xlink:title=" ">
<polygon fill="none" stroke="red" points="567,-127.5 567,-206.5 686,-206.5 686,-127.5 567,-127.5"/>
<text text-anchor="middle" x="626.5" y="-194.5" font-family="Helvetica,sans-Serif" font-size="10.00">SDK::UClass</text>
<polyline fill="none" stroke="red" points="567,-187.5 686,-187.5 "/>
<text text-anchor="middle" x="626.5" y="-175.5" font-family="Helvetica,sans-Serif" font-size="10.00"> </text>
<polyline fill="none" stroke="red" points="567,-168.5 686,-168.5 "/>
<text text-anchor="start" x="575" y="-156.5" font-family="Helvetica,sans-Serif" font-size="10.00">+ CreateDefaultObject()</text>
<text text-anchor="start" x="575" y="-145.5" font-family="Helvetica,sans-Serif" font-size="10.00">+ CreateDefaultObject()</text>
<text text-anchor="start" x="575" y="-134.5" font-family="Helvetica,sans-Serif" font-size="10.00">+ StaticClass()</text>
</a>
</g>
</g>
<!-- Node8&#45;&gt;Node12 -->
<g id="edge9" class="edge"><title>Node8&#45;&gt;Node12</title>
<path fill="none" stroke="#404040" d="M486.012,-318.268C509.024,-293.655 550.251,-249.557 582.115,-215.476"/>
<polygon fill="none" stroke="#404040" points="582.217,-215.366 583.393,-208.251 590.413,-206.6 589.237,-213.715 582.217,-215.366"/>
<text text-anchor="middle" x="611.5" y="-233.5" font-family="Helvetica,sans-Serif" font-size="10.00"> +UnknownData00</text>
</g>
<!-- Node10 -->
<g id="node6" class="node"><title>Node10</title>
<g id="a_node6"><a xlink:href="a32975.html" target="_top" xlink:title=" ">
<polygon fill="none" stroke="red" points="704.5,-133 704.5,-201 864.5,-201 864.5,-133 704.5,-133"/>
<text text-anchor="start" x="712.5" y="-189" font-family="Helvetica,sans-Serif" font-size="10.00">SDK::FKrakenShipWrapping</text>
<text text-anchor="middle" x="784.5" y="-178" font-family="Helvetica,sans-Serif" font-size="10.00">BehaviourTentacleHeadLocations</text>
<polyline fill="none" stroke="red" points="704.5,-171 864.5,-171 "/>
<text text-anchor="middle" x="784.5" y="-159" font-family="Helvetica,sans-Serif" font-size="10.00"> </text>
<polyline fill="none" stroke="red" points="704.5,-152 864.5,-152 "/>
<text text-anchor="middle" x="784.5" y="-140" font-family="Helvetica,sans-Serif" font-size="10.00"> </text>
</a>
</g>
</g>
<!-- Node10&#45;&gt;Node1 -->
<g id="edge7" class="edge"><title>Node10&#45;&gt;Node1</title>
<path fill="none" stroke="#404040" d="M708.464,-132.849C703.745,-130.854 699.062,-128.891 694.5,-127 649.9,-108.51 639.456,-101.802 593.5,-87 555.685,-74.8199 513.191,-63.7313 476.739,-54.9893"/>
<polygon fill="none" stroke="#404040" points="476.3,-54.8853 469.539,-57.3929 464.624,-52.1164 471.385,-49.6088 476.3,-54.8853"/>
<text text-anchor="middle" x="726.5" y="-101" font-family="Helvetica,sans-Serif" font-size="10.00"> +PortTentacleHeadLocations</text>
<text text-anchor="middle" x="726.5" y="-90" font-family="Helvetica,sans-Serif" font-size="10.00">+StarboardTentacleHeadLocations</text>
</g>
<!-- Node12&#45;&gt;Node1 -->
<g id="edge8" class="edge"><title>Node12&#45;&gt;Node1</title>
<path fill="none" stroke="#404040" d="M566.953,-133.322C541.013,-119.089 510.254,-102.216 482.5,-87 475.04,-82.9102 467.247,-78.6386 459.477,-74.3807"/>
<polygon fill="none" stroke="#404040" points="459.453,-74.3678 452.269,-74.9923 448.93,-68.6011 456.114,-67.9766 459.453,-74.3678"/>
<text text-anchor="middle" x="556" y="-95.5" font-family="Helvetica,sans-Serif" font-size="10.00"> +TentacleType</text>
</g>
</g>
</svg>
        <g id="navigator" transform="translate(0 0)" fill="#404254">
                <rect fill="#f2f5e9" fill-opacity="0.5" stroke="#606060" stroke-width=".5" x="0" y="0" width="60" height="60"/>
                <use id="zoomplus" xlink:href="#zoomPlus" x="17" y="9" onmousedown="handleZoom(evt,'in')"/>
                <use id="zoomminus" xlink:href="#zoomMin" x="42" y="9" onmousedown="handleZoom(evt,'out')"/>
                <use id="reset" xlink:href="#resetDef" x="30" y="36" onmousedown="handleReset()"/>
                <g id="arrowUp" xlink:href="#dirArrow" transform="translate(30 24)" onmousedown="handlePan(0,-1)">
                  <use xlink:href="#rim" fill="#404040">
                        <set attributeName="fill" to="#808080" begin="arrowUp.mouseover" end="arrowUp.mouseout"/>
                  </use>
                  <path fill="none" stroke="white" stroke-width="1.5" d="M0,-3.0v7 M-2.5,-0.5L0,-3.0L2.5,-0.5"/>
                </g>
                <g id="arrowRight" xlink:href="#dirArrow" transform="rotate(90) translate(36 -43)" onmousedown="handlePan(1,0)">
                  <use xlink:href="#rim" fill="#404040">
                        <set attributeName="fill" to="#808080" begin="arrowRight.mouseover" end="arrowRight.mouseout"/>
                  </use>
                  <path fill="none" stroke="white" stroke-width="1.5" d="M0,-3.0v7 M-2.5,-0.5L0,-3.0L2.5,-0.5"/>
                </g>
                <g id="arrowDown" xlink:href="#dirArrow" transform="rotate(180) translate(-30 -48)" onmousedown="handlePan(0,1)">
                  <use xlink:href="#rim" fill="#404040">
                        <set attributeName="fill" to="#808080" begin="arrowDown.mouseover" end="arrowDown.mouseout"/>
                  </use>
                  <path fill="none" stroke="white" stroke-width="1.5" d="M0,-3.0v7 M-2.5,-0.5L0,-3.0L2.5,-0.5"/>
                </g>
                <g id="arrowLeft" xlink:href="#dirArrow" transform="rotate(270) translate(-36 17)" onmousedown="handlePan(-1,0)">
                  <use xlink:href="#rim" fill="#404040">
                        <set attributeName="fill" to="#808080" begin="arrowLeft.mouseover" end="arrowLeft.mouseout"/>
                  </use>
                  <path fill="none" stroke="white" stroke-width="1.5" d="M0,-3.0v7 M-2.5,-0.5L0,-3.0L2.5,-0.5"/>
                </g>
        </g>
        <svg viewBox="0 0 15 15" width="100%" height="30px" preserveAspectRatio="xMaxYMin meet">
         <g id="arrow_out" transform="scale(0.3 0.3)">
          <a xlink:href="a32993_org.svg" target="_base">
           <rect id="button" ry="5" rx="5" y="6" x="6" height="38" width="38"
                fill="#f2f5e9" fill-opacity="0.5" stroke="#606060" stroke-width="1.0"/>
           <path id="arrow"
             d="M 11.500037,31.436501 C 11.940474,20.09759 22.043105,11.32322 32.158766,21.979434 L 37.068811,17.246167 C 37.068811,17.246167 37.088388,32 37.088388,32 L 22.160133,31.978069 C 22.160133,31.978069 26.997745,27.140456 26.997745,27.140456 C 18.528582,18.264221 13.291696,25.230495 11.500037,31.436501 z"
             style="fill:#404040;"/>
          </a>
         </g>
        </svg>
</svg>
