<?xml version="1.0" encoding="UTF-8" standalone="no"?>
<!DOCTYPE svg PUBLIC "-//W3C//DTD SVG 1.1//EN"
 "http://www.w3.org/Graphics/SVG/1.1/DTD/svg11.dtd">
<!-- Generated by graphviz version 2.38.0 (20140413.2041)
 -->
<!-- Title: SDK::FKrakenDynamicsParams Pages: 1 -->
<svg width="186pt" height="226pt"
 viewBox="0.00 0.00 185.50 226.00" xmlns="http://www.w3.org/2000/svg" xmlns:xlink="http://www.w3.org/1999/xlink">
<g id="graph0" class="graph" transform="scale(1 1) rotate(0) translate(4 222)">
<title>SDK::FKrakenDynamicsParams</title>
<!-- Node1 -->
<g id="node1" class="node"><title>Node1</title>
<g id="a_node1"><a xlink:title=" ">
<polygon fill="#bfbfbf" stroke="black" points="0,-0.5 0,-57.5 157,-57.5 157,-0.5 0,-0.5"/>
<text text-anchor="middle" x="78.5" y="-45.5" font-family="Helvetica,sans-Serif" font-size="10.00">SDK::FKrakenDynamicsParams</text>
<polyline fill="none" stroke="black" points="0,-38.5 157,-38.5 "/>
<text text-anchor="middle" x="78.5" y="-26.5" font-family="Helvetica,sans-Serif" font-size="10.00"> </text>
<polyline fill="none" stroke="black" points="0,-19.5 157,-19.5 "/>
<text text-anchor="middle" x="78.5" y="-7.5" font-family="Helvetica,sans-Serif" font-size="10.00"> </text>
</a>
</g>
</g>
<!-- Node2 -->
<g id="node2" class="node"><title>Node2</title>
<g id="a_node2"><a xlink:href="a32987.html" target="_top" xlink:title=" ">
<polygon fill="none" stroke="red" points="5.5,-149.5 5.5,-217.5 151.5,-217.5 151.5,-149.5 5.5,-149.5"/>
<text text-anchor="start" x="13.5" y="-205.5" font-family="Helvetica,sans-Serif" font-size="10.00">SDK::FKrakenDynamicsState</text>
<text text-anchor="middle" x="78.5" y="-194.5" font-family="Helvetica,sans-Serif" font-size="10.00">Params</text>
<polyline fill="none" stroke="red" points="5.5,-187.5 151.5,-187.5 "/>
<text text-anchor="middle" x="78.5" y="-175.5" font-family="Helvetica,sans-Serif" font-size="10.00"> </text>
<polyline fill="none" stroke="red" points="5.5,-168.5 151.5,-168.5 "/>
<text text-anchor="middle" x="78.5" y="-156.5" font-family="Helvetica,sans-Serif" font-size="10.00"> </text>
</a>
</g>
</g>
<!-- Node2&#45;&gt;Node1 -->
<g id="edge1" class="edge"><title>Node2&#45;&gt;Node1</title>
<path fill="none" stroke="#404040" d="M78.5,-149.41C78.5,-126.135 78.5,-94.8616 78.5,-70.1578"/>
<polygon fill="none" stroke="#404040" points="78.5001,-69.9154 74.5,-63.9154 78.5,-57.9154 82.5,-63.9154 78.5001,-69.9154"/>
<text text-anchor="middle" x="128" y="-123" font-family="Helvetica,sans-Serif" font-size="10.00"> +HeavyAttack</text>
<text text-anchor="middle" x="128" y="-112" font-family="Helvetica,sans-Serif" font-size="10.00">+ExitingShakeAttack</text>
<text text-anchor="middle" x="128" y="-101" font-family="Helvetica,sans-Serif" font-size="10.00">+ShakeAttack</text>
<text text-anchor="middle" x="128" y="-90" font-family="Helvetica,sans-Serif" font-size="10.00">+AmbientWobble</text>
<text text-anchor="middle" x="128" y="-79" font-family="Helvetica,sans-Serif" font-size="10.00">+EnteringShakeAttack</text>
</g>
</g>
</svg>
