<?xml version="1.0" encoding="UTF-8" standalone="no"?>
<!DOCTYPE svg PUBLIC "-//W3C//DTD SVG 1.1//EN"
 "http://www.w3.org/Graphics/SVG/1.1/DTD/svg11.dtd">
<!-- Generated by graphviz version 2.38.0 (20140413.2041)
 -->
<!-- Title: SDK::FWeightedProbabilityRange Pages: 1 -->
<svg width="144pt" height="215pt"
 viewBox="0.00 0.00 144.00 215.00" xmlns="http://www.w3.org/2000/svg" xmlns:xlink="http://www.w3.org/1999/xlink">
<g id="graph0" class="graph" transform="scale(1 1) rotate(0) translate(4 211)">
<title>SDK::FWeightedProbabilityRange</title>
<!-- Node1 -->
<g id="node1" class="node"><title>Node1</title>
<g id="a_node1"><a xlink:title=" ">
<polygon fill="#bfbfbf" stroke="black" points="0,-105.5 0,-206.5 136,-206.5 136,-105.5 0,-105.5"/>
<text text-anchor="start" x="8" y="-194.5" font-family="Helvetica,sans-Serif" font-size="10.00">SDK::FWeightedProbability</text>
<text text-anchor="middle" x="68" y="-183.5" font-family="Helvetica,sans-Serif" font-size="10.00">Range</text>
<polyline fill="none" stroke="black" points="0,-176.5 136,-176.5 "/>
<text text-anchor="start" x="8" y="-164.5" font-family="Helvetica,sans-Serif" font-size="10.00">+ UnknownData00</text>
<text text-anchor="start" x="8" y="-153.5" font-family="Helvetica,sans-Serif" font-size="10.00">+ Min</text>
<text text-anchor="start" x="8" y="-142.5" font-family="Helvetica,sans-Serif" font-size="10.00">+ Max</text>
<text text-anchor="start" x="8" y="-131.5" font-family="Helvetica,sans-Serif" font-size="10.00">+ Weights</text>
<polyline fill="none" stroke="black" points="0,-124.5 136,-124.5 "/>
<text text-anchor="middle" x="68" y="-112.5" font-family="Helvetica,sans-Serif" font-size="10.00"> </text>
</a>
</g>
</g>
<!-- Node2 -->
<g id="node2" class="node"><title>Node2</title>
<g id="a_node2"><a xlink:href="a32947.html" target="_top" xlink:title=" ">
<polygon fill="none" stroke="black" points="0,-0.5 0,-68.5 136,-68.5 136,-0.5 0,-0.5"/>
<text text-anchor="start" x="8" y="-56.5" font-family="Helvetica,sans-Serif" font-size="10.00">SDK::FWeightedProbability</text>
<text text-anchor="middle" x="68" y="-45.5" font-family="Helvetica,sans-Serif" font-size="10.00">RangeOfRanges</text>
<polyline fill="none" stroke="black" points="0,-38.5 136,-38.5 "/>
<text text-anchor="start" x="8" y="-26.5" font-family="Helvetica,sans-Serif" font-size="10.00">+ SubRanges</text>
<polyline fill="none" stroke="black" points="0,-19.5 136,-19.5 "/>
<text text-anchor="middle" x="68" y="-7.5" font-family="Helvetica,sans-Serif" font-size="10.00"> </text>
</a>
</g>
</g>
<!-- Node1&#45;&gt;Node2 -->
<g id="edge1" class="edge"><title>Node1&#45;&gt;Node2</title>
<path fill="none" stroke="midnightblue" d="M68,-95.1717C68,-86.1099 68,-77.0504 68,-68.8271"/>
<polygon fill="none" stroke="midnightblue" points="64.5001,-95.3594 68,-105.359 71.5001,-95.3594 64.5001,-95.3594"/>
</g>
</g>
</svg>
