<?xml version="1.0" encoding="UTF-8" standalone="no"?>
<!DOCTYPE svg PUBLIC "-//W3C//DTD SVG 1.1//EN"
 "http://www.w3.org/Graphics/SVG/1.1/DTD/svg11.dtd">
<!-- Generated by graphviz version 2.38.0 (20140413.2041)
 -->
<!-- Title: SDK::FKrakenShipWrappingBehaviourParams Pages: 1 -->
<svg width="1108pt" height="494pt"
 viewBox="0.00 0.00 1108.46 494.00" xmlns="http://www.w3.org/2000/svg" xmlns:xlink="http://www.w3.org/1999/xlink">
<g id="graph0" class="graph" transform="scale(1 1) rotate(0) translate(4 490)">
<title>SDK::FKrakenShipWrappingBehaviourParams</title>
<!-- Node1 -->
<g id="node1" class="node"><title>Node1</title>
<g id="a_node1"><a xlink:title=" ">
<polygon fill="#bfbfbf" stroke="black" points="436.962,-0.5 436.962,-68.5 576.962,-68.5 576.962,-0.5 436.962,-0.5"/>
<text text-anchor="start" x="444.962" y="-56.5" font-family="Helvetica,sans-Serif" font-size="10.00">SDK::FKrakenShipWrapping</text>
<text text-anchor="middle" x="506.962" y="-45.5" font-family="Helvetica,sans-Serif" font-size="10.00">BehaviourParams</text>
<polyline fill="none" stroke="black" points="436.962,-38.5 576.962,-38.5 "/>
<text text-anchor="middle" x="506.962" y="-26.5" font-family="Helvetica,sans-Serif" font-size="10.00"> </text>
<polyline fill="none" stroke="black" points="436.962,-19.5 576.962,-19.5 "/>
<text text-anchor="middle" x="506.962" y="-7.5" font-family="Helvetica,sans-Serif" font-size="10.00"> </text>
</a>
</g>
</g>
<!-- Node2 -->
<g id="node2" class="node"><title>Node2</title>
<g id="a_node2"><a xlink:href="a33019.html" target="_top" xlink:title=" ">
<polygon fill="none" stroke="red" points="99.962,-203.5 99.962,-271.5 239.962,-271.5 239.962,-203.5 99.962,-203.5"/>
<text text-anchor="start" x="107.962" y="-259.5" font-family="Helvetica,sans-Serif" font-size="10.00">SDK::FKrakenShipWrapping</text>
<text text-anchor="middle" x="169.962" y="-248.5" font-family="Helvetica,sans-Serif" font-size="10.00">BehaviourDamageParams</text>
<polyline fill="none" stroke="red" points="99.962,-241.5 239.962,-241.5 "/>
<text text-anchor="middle" x="169.962" y="-229.5" font-family="Helvetica,sans-Serif" font-size="10.00"> </text>
<polyline fill="none" stroke="red" points="99.962,-222.5 239.962,-222.5 "/>
<text text-anchor="middle" x="169.962" y="-210.5" font-family="Helvetica,sans-Serif" font-size="10.00"> </text>
</a>
</g>
</g>
<!-- Node2&#45;&gt;Node1 -->
<g id="edge1" class="edge"><title>Node2&#45;&gt;Node1</title>
<path fill="none" stroke="#404040" d="M118.913,-203.254C113.707,-197.785 109.165,-191.689 105.962,-185 92.717,-157.341 86.5282,-139.723 105.962,-116 145.459,-67.7864 319.352,-47.8425 424.747,-40.0689"/>
<polygon fill="none" stroke="#404040" points="424.962,-40.0538 430.663,-35.6379 436.932,-39.2018 431.231,-43.6177 424.962,-40.0538"/>
<text text-anchor="middle" x="145.462" y="-148" font-family="Helvetica,sans-Serif" font-size="10.00"> +DamageParams</text>
</g>
<!-- Node5 -->
<g id="node3" class="node"><title>Node5</title>
<g id="a_node3"><a xlink:title=" ">
<polygon fill="none" stroke="#bfbfbf" points="400.462,-428.5 400.462,-485.5 435.462,-485.5 435.462,-428.5 400.462,-428.5"/>
<text text-anchor="middle" x="417.962" y="-473.5" font-family="Helvetica,sans-Serif" font-size="10.00">char</text>
<polyline fill="none" stroke="#bfbfbf" points="400.462,-466.5 435.462,-466.5 "/>
<text text-anchor="middle" x="417.962" y="-454.5" font-family="Helvetica,sans-Serif" font-size="10.00"> </text>
<polyline fill="none" stroke="#bfbfbf" points="400.462,-447.5 435.462,-447.5 "/>
<text text-anchor="middle" x="417.962" y="-435.5" font-family="Helvetica,sans-Serif" font-size="10.00"> </text>
</a>
</g>
</g>
<!-- Node5&#45;&gt;Node1 -->
<g id="edge9" class="edge"><title>Node5&#45;&gt;Node1</title>
<path fill="none" stroke="#404040" d="M400.207,-456.534C355.507,-457.149 235.776,-454.228 149.962,-410 51.4579,-359.232 -28.9688,-306.373 10.962,-203 37.3473,-134.693 60.3319,-115.074 127.962,-87 180.033,-65.385 329.777,-49.786 424.71,-41.7321"/>
<polygon fill="none" stroke="#404040" points="424.906,-41.7158 430.552,-37.2301 436.864,-40.7167 431.218,-45.2024 424.906,-41.7158"/>
<text text-anchor="middle" x="50.962" y="-240.5" font-family="Helvetica,sans-Serif" font-size="10.00"> +UnknownData01</text>
<text text-anchor="middle" x="50.962" y="-229.5" font-family="Helvetica,sans-Serif" font-size="10.00">+UnknownData00</text>
</g>
<!-- Node5&#45;&gt;Node2 -->
<g id="edge2" class="edge"><title>Node5&#45;&gt;Node2</title>
<path fill="none" stroke="#404040" d="M400.125,-455.576C347.719,-453.917 196.013,-446.033 165.962,-410 137.045,-375.327 143.778,-321.581 154.08,-283.508"/>
<polygon fill="none" stroke="#404040" points="154.151,-283.262 151.99,-276.383 157.509,-271.742 159.67,-278.621 154.151,-283.262"/>
<text text-anchor="middle" x="205.962" y="-396.5" font-family="Helvetica,sans-Serif" font-size="10.00"> +UnknownData00</text>
</g>
<!-- Node11 -->
<g id="node4" class="node"><title>Node11</title>
<g id="a_node4"><a xlink:href="a32967.html" target="_top" xlink:title=" ">
<polygon fill="none" stroke="red" points="193.962,-116.5 193.962,-184.5 333.962,-184.5 333.962,-116.5 193.962,-116.5"/>
<text text-anchor="start" x="201.962" y="-172.5" font-family="Helvetica,sans-Serif" font-size="10.00">SDK::FKrakenShipWrapping</text>
<text text-anchor="middle" x="263.962" y="-161.5" font-family="Helvetica,sans-Serif" font-size="10.00">BehaviourWarningParams</text>
<polyline fill="none" stroke="red" points="193.962,-154.5 333.962,-154.5 "/>
<text text-anchor="middle" x="263.962" y="-142.5" font-family="Helvetica,sans-Serif" font-size="10.00"> </text>
<polyline fill="none" stroke="red" points="193.962,-135.5 333.962,-135.5 "/>
<text text-anchor="middle" x="263.962" y="-123.5" font-family="Helvetica,sans-Serif" font-size="10.00"> </text>
</a>
</g>
</g>
<!-- Node5&#45;&gt;Node11 -->
<g id="edge4" class="edge"><title>Node5&#45;&gt;Node11</title>
<path fill="none" stroke="#404040" d="M400.419,-451.88C367.756,-443.163 298.28,-419.458 268.962,-370 252.268,-341.838 255.808,-252.366 259.889,-197.032"/>
<polygon fill="none" stroke="#404040" points="259.912,-196.731 256.389,-190.439 260.843,-184.767 264.365,-191.06 259.912,-196.731"/>
<text text-anchor="middle" x="308.962" y="-333" font-family="Helvetica,sans-Serif" font-size="10.00"> +UnknownData01</text>
<text text-anchor="middle" x="308.962" y="-322" font-family="Helvetica,sans-Serif" font-size="10.00">+UnknownData00</text>
</g>
<!-- Node19 -->
<g id="node5" class="node"><title>Node19</title>
<g id="a_node5"><a xlink:href="a26127.html" target="_top" xlink:title=" ">
<polygon fill="none" stroke="red" points="358.462,-290.5 358.462,-369.5 477.462,-369.5 477.462,-290.5 358.462,-290.5"/>
<text text-anchor="middle" x="417.962" y="-357.5" font-family="Helvetica,sans-Serif" font-size="10.00">SDK::UClass</text>
<polyline fill="none" stroke="red" points="358.462,-350.5 477.462,-350.5 "/>
<text text-anchor="middle" x="417.962" y="-338.5" font-family="Helvetica,sans-Serif" font-size="10.00"> </text>
<polyline fill="none" stroke="red" points="358.462,-331.5 477.462,-331.5 "/>
<text text-anchor="start" x="366.462" y="-319.5" font-family="Helvetica,sans-Serif" font-size="10.00">+ CreateDefaultObject()</text>
<text text-anchor="start" x="366.462" y="-308.5" font-family="Helvetica,sans-Serif" font-size="10.00">+ CreateDefaultObject()</text>
<text text-anchor="start" x="366.462" y="-297.5" font-family="Helvetica,sans-Serif" font-size="10.00">+ StaticClass()</text>
</a>
</g>
</g>
<!-- Node5&#45;&gt;Node19 -->
<g id="edge6" class="edge"><title>Node5&#45;&gt;Node19</title>
<path fill="none" stroke="#404040" d="M417.962,-428.258C417.962,-414.637 417.962,-397.787 417.962,-381.96"/>
<polygon fill="none" stroke="#404040" points="417.962,-381.567 413.962,-375.567 417.962,-369.567 421.962,-375.567 417.962,-381.567"/>
<text text-anchor="middle" x="457.962" y="-396.5" font-family="Helvetica,sans-Serif" font-size="10.00"> +UnknownData00</text>
</g>
<!-- Node30 -->
<g id="node7" class="node"><title>Node30</title>
<g id="a_node7"><a xlink:href="a33023.html" target="_top" xlink:title=" ">
<polygon fill="none" stroke="red" points="505.962,-203.5 505.962,-271.5 645.962,-271.5 645.962,-203.5 505.962,-203.5"/>
<text text-anchor="start" x="513.962" y="-259.5" font-family="Helvetica,sans-Serif" font-size="10.00">SDK::FKrakenShipWrapping</text>
<text text-anchor="middle" x="575.962" y="-248.5" font-family="Helvetica,sans-Serif" font-size="10.00">BehaviourHealthParams</text>
<polyline fill="none" stroke="red" points="505.962,-241.5 645.962,-241.5 "/>
<text text-anchor="middle" x="575.962" y="-229.5" font-family="Helvetica,sans-Serif" font-size="10.00"> </text>
<polyline fill="none" stroke="red" points="505.962,-222.5 645.962,-222.5 "/>
<text text-anchor="middle" x="575.962" y="-210.5" font-family="Helvetica,sans-Serif" font-size="10.00"> </text>
</a>
</g>
</g>
<!-- Node5&#45;&gt;Node30 -->
<g id="edge11" class="edge"><title>Node5&#45;&gt;Node30</title>
<path fill="none" stroke="#404040" d="M435.598,-450.259C454.294,-443.37 483.604,-430.163 501.962,-410 534.86,-373.867 554.669,-320.849 565.399,-283.344"/>
<polygon fill="none" stroke="#404040" points="565.403,-283.328 563.127,-276.485 568.568,-271.753 570.844,-278.595 565.403,-283.328"/>
<text text-anchor="middle" x="557.962" y="-396.5" font-family="Helvetica,sans-Serif" font-size="10.00"> +UnknownData00</text>
</g>
<!-- Node31 -->
<g id="node8" class="node"><title>Node31</title>
<g id="a_node8"><a xlink:href="a33003.html" target="_top" xlink:title=" ">
<polygon fill="none" stroke="red" points="657.962,-203.5 657.962,-271.5 797.962,-271.5 797.962,-203.5 657.962,-203.5"/>
<text text-anchor="start" x="665.962" y="-259.5" font-family="Helvetica,sans-Serif" font-size="10.00">SDK::FKrakenShipWrapping</text>
<text text-anchor="middle" x="727.962" y="-248.5" font-family="Helvetica,sans-Serif" font-size="10.00">BehaviourWrapParams</text>
<polyline fill="none" stroke="red" points="657.962,-241.5 797.962,-241.5 "/>
<text text-anchor="middle" x="727.962" y="-229.5" font-family="Helvetica,sans-Serif" font-size="10.00"> </text>
<polyline fill="none" stroke="red" points="657.962,-222.5 797.962,-222.5 "/>
<text text-anchor="middle" x="727.962" y="-210.5" font-family="Helvetica,sans-Serif" font-size="10.00"> </text>
</a>
</g>
</g>
<!-- Node5&#45;&gt;Node31 -->
<g id="edge14" class="edge"><title>Node5&#45;&gt;Node31</title>
<path fill="none" stroke="#404040" d="M435.51,-455.49C470.198,-453.7 548.783,-445.689 601.962,-410 649.531,-378.076 685.701,-321.906 706.829,-282.574"/>
<polygon fill="none" stroke="#404040" points="706.95,-282.342 706.188,-275.171 712.514,-271.71 713.276,-278.881 706.95,-282.342"/>
<text text-anchor="middle" x="667.962" y="-402" font-family="Helvetica,sans-Serif" font-size="10.00"> +UnknownData01</text>
<text text-anchor="middle" x="667.962" y="-391" font-family="Helvetica,sans-Serif" font-size="10.00">+UnknownData00</text>
</g>
<!-- Node49 -->
<g id="node10" class="node"><title>Node49</title>
<g id="a_node10"><a xlink:href="a33015.html" target="_top" xlink:title=" ">
<polygon fill="none" stroke="red" points="754.462,-296 754.462,-364 901.462,-364 901.462,-296 754.462,-296"/>
<text text-anchor="start" x="762.462" y="-352" font-family="Helvetica,sans-Serif" font-size="10.00">SDK::FKrakenShipWrapping</text>
<text text-anchor="middle" x="827.962" y="-341" font-family="Helvetica,sans-Serif" font-size="10.00">BehaviourHeavyAttackParams</text>
<polyline fill="none" stroke="red" points="754.462,-334 901.462,-334 "/>
<text text-anchor="middle" x="827.962" y="-322" font-family="Helvetica,sans-Serif" font-size="10.00"> </text>
<polyline fill="none" stroke="red" points="754.462,-315 901.462,-315 "/>
<text text-anchor="middle" x="827.962" y="-303" font-family="Helvetica,sans-Serif" font-size="10.00"> </text>
</a>
</g>
</g>
<!-- Node5&#45;&gt;Node49 -->
<g id="edge17" class="edge"><title>Node5&#45;&gt;Node49</title>
<path fill="none" stroke="#404040" d="M435.614,-456.49C484.358,-457.204 624.08,-454.899 727.962,-410 748.844,-400.975 769.083,-386.455 785.828,-372.311"/>
<polygon fill="none" stroke="#404040" points="786.224,-371.965 788.111,-365.005 795.261,-364.071 793.374,-371.03 786.224,-371.965"/>
<text text-anchor="middle" x="804.962" y="-396.5" font-family="Helvetica,sans-Serif" font-size="10.00"> +UnknownData00</text>
</g>
<!-- Node11&#45;&gt;Node1 -->
<g id="edge3" class="edge"><title>Node11&#45;&gt;Node1</title>
<path fill="none" stroke="#404040" d="M263.996,-116.308C265.649,-105.711 269.341,-94.7382 276.962,-87 297.57,-66.0766 367.377,-52.4258 424.732,-44.4702"/>
<polygon fill="none" stroke="#404040" points="424.867,-44.4523 430.282,-39.6908 436.76,-42.8584 431.345,-47.6199 424.867,-44.4523"/>
<text text-anchor="middle" x="316.462" y="-90" font-family="Helvetica,sans-Serif" font-size="10.00"> +WarningParams</text>
</g>
<!-- Node19&#45;&gt;Node1 -->
<g id="edge12" class="edge"><title>Node19&#45;&gt;Node1</title>
<path fill="none" stroke="#404040" d="M396.479,-290.394C374.762,-245.739 348.423,-171.283 378.962,-116 389.726,-96.5149 407.403,-81.1058 426.232,-69.2104"/>
<polygon fill="none" stroke="#404040" points="426.453,-69.0797 429.574,-62.579 436.775,-62.9598 433.654,-69.4605 426.453,-69.0797"/>
<text text-anchor="middle" x="403.462" y="-148" font-family="Helvetica,sans-Serif" font-size="10.00"> +ShipSize</text>
</g>
<!-- Node19&#45;&gt;Node11 -->
<g id="edge5" class="edge"><title>Node19&#45;&gt;Node11</title>
<path fill="none" stroke="#404040" d="M358.131,-296.573C353.375,-294.27 348.613,-292.051 343.962,-290 322.351,-280.471 309.794,-289.527 293.962,-272 283.878,-260.836 275.873,-226.031 270.677,-196.68"/>
<polygon fill="none" stroke="#404040" points="270.621,-196.352 265.678,-191.102 268.624,-184.519 273.567,-189.77 270.621,-196.352"/>
<text text-anchor="middle" x="327.462" y="-235" font-family="Helvetica,sans-Serif" font-size="10.00"> +TentacleType</text>
</g>
<!-- Node29 -->
<g id="node6" class="node"><title>Node29</title>
<g id="a_node6"><a xlink:href="a33007.html" target="_top" xlink:title=" ">
<polygon fill="none" stroke="red" points="436.962,-116.5 436.962,-184.5 588.962,-184.5 588.962,-116.5 436.962,-116.5"/>
<text text-anchor="start" x="444.962" y="-172.5" font-family="Helvetica,sans-Serif" font-size="10.00">SDK::FKrakenShipWrapping</text>
<text text-anchor="middle" x="512.962" y="-161.5" font-family="Helvetica,sans-Serif" font-size="10.00">BehaviourTentacleHeadParams</text>
<polyline fill="none" stroke="red" points="436.962,-154.5 588.962,-154.5 "/>
<text text-anchor="middle" x="512.962" y="-142.5" font-family="Helvetica,sans-Serif" font-size="10.00"> </text>
<polyline fill="none" stroke="red" points="436.962,-135.5 588.962,-135.5 "/>
<text text-anchor="middle" x="512.962" y="-123.5" font-family="Helvetica,sans-Serif" font-size="10.00"> </text>
</a>
</g>
</g>
<!-- Node19&#45;&gt;Node29 -->
<g id="edge8" class="edge"><title>Node19&#45;&gt;Node29</title>
<path fill="none" stroke="#404040" d="M413.102,-290.366C411.708,-263.872 413.862,-228.956 429.962,-203 432.107,-199.541 434.58,-196.279 437.3,-193.205"/>
<polygon fill="none" stroke="#404040" points="437.556,-192.954 439.035,-185.896 446.119,-184.548 444.639,-191.606 437.556,-192.954"/>
<text text-anchor="middle" x="463.462" y="-235" font-family="Helvetica,sans-Serif" font-size="10.00"> +TentacleType</text>
</g>
<!-- Node29&#45;&gt;Node1 -->
<g id="edge7" class="edge"><title>Node29&#45;&gt;Node1</title>
<path fill="none" stroke="#404040" d="M509.34,-116.286C508.79,-110.21 508.296,-103.919 507.962,-98 507.651,-92.4878 507.424,-86.6981 507.26,-80.9589"/>
<polygon fill="none" stroke="#404040" points="507.252,-80.6001 503.124,-74.6878 506.993,-68.6029 511.122,-74.5152 507.252,-80.6001"/>
<text text-anchor="middle" x="559.462" y="-90" font-family="Helvetica,sans-Serif" font-size="10.00"> +TentacleHeadParams</text>
</g>
<!-- Node30&#45;&gt;Node1 -->
<g id="edge10" class="edge"><title>Node30&#45;&gt;Node1</title>
<path fill="none" stroke="#404040" d="M597.187,-203.28C614.635,-171.345 633.173,-122.785 610.962,-87 605.071,-77.5086 596.853,-69.7128 587.593,-63.3233"/>
<polygon fill="none" stroke="#404040" points="587.417,-63.2153 580.211,-63.4789 577.196,-56.9283 584.402,-56.6647 587.417,-63.2153"/>
<text text-anchor="middle" x="657.462" y="-148" font-family="Helvetica,sans-Serif" font-size="10.00"> +HealthParams</text>
</g>
<!-- Node31&#45;&gt;Node1 -->
<g id="edge13" class="edge"><title>Node31&#45;&gt;Node1</title>
<path fill="none" stroke="#404040" d="M727.227,-203.459C724.973,-176.962 717.894,-140.307 696.962,-116 669.315,-83.895 626.663,-64.273 588.77,-52.4523"/>
<polygon fill="none" stroke="#404040" points="588.692,-52.4295 581.805,-54.5653 577.184,-49.029 584.072,-46.8932 588.692,-52.4295"/>
<text text-anchor="middle" x="758.462" y="-148" font-family="Helvetica,sans-Serif" font-size="10.00"> +WrapParams</text>
</g>
<!-- Node48 -->
<g id="node9" class="node"><title>Node48</title>
<g id="a_node9"><a xlink:href="a33011.html" target="_top" xlink:title=" ">
<polygon fill="none" stroke="red" points="951.462,-116.5 951.462,-184.5 1100.46,-184.5 1100.46,-116.5 951.462,-116.5"/>
<text text-anchor="start" x="959.462" y="-172.5" font-family="Helvetica,sans-Serif" font-size="10.00">SDK::FKrakenShipWrapping</text>
<text text-anchor="middle" x="1025.96" y="-161.5" font-family="Helvetica,sans-Serif" font-size="10.00">BehaviourShakeAttackParams</text>
<polyline fill="none" stroke="red" points="951.462,-154.5 1100.46,-154.5 "/>
<text text-anchor="middle" x="1025.96" y="-142.5" font-family="Helvetica,sans-Serif" font-size="10.00"> </text>
<polyline fill="none" stroke="red" points="951.462,-135.5 1100.46,-135.5 "/>
<text text-anchor="middle" x="1025.96" y="-123.5" font-family="Helvetica,sans-Serif" font-size="10.00"> </text>
</a>
</g>
</g>
<!-- Node48&#45;&gt;Node1 -->
<g id="edge15" class="edge"><title>Node48&#45;&gt;Node1</title>
<path fill="none" stroke="#404040" d="M951.263,-121.125C946.431,-119.37 941.633,-117.648 936.962,-116 898.128,-102.299 889.021,-96.5444 848.962,-87 761.351,-66.1258 658.998,-52.0329 589.255,-43.9407"/>
<polygon fill="none" stroke="#404040" points="588.978,-43.9092 582.563,-47.2027 577.055,-42.5479 583.47,-39.2544 588.978,-43.9092"/>
<text text-anchor="middle" x="937.962" y="-90" font-family="Helvetica,sans-Serif" font-size="10.00"> +ShakeAttackParams</text>
</g>
<!-- Node49&#45;&gt;Node1 -->
<g id="edge16" class="edge"><title>Node49&#45;&gt;Node1</title>
<path fill="none" stroke="#404040" d="M833.141,-295.615C838.304,-249.36 840.058,-165.86 795.962,-116 768.614,-85.077 664.323,-61.584 588.865,-48.1762"/>
<polygon fill="none" stroke="#404040" points="588.84,-48.172 582.242,-51.0823 577.018,-46.1114 583.616,-43.2011 588.84,-48.172"/>
<text text-anchor="middle" x="877.962" y="-148" font-family="Helvetica,sans-Serif" font-size="10.00"> +HeavyAttackParams</text>
</g>
</g>
</svg>
