<?xml version="1.0" encoding="UTF-8" standalone="no"?>
<!DOCTYPE svg PUBLIC "-//W3C//DTD SVG 1.1//EN"
 "http://www.w3.org/Graphics/SVG/1.1/DTD/svg11.dtd">
<!-- Generated by graphviz version 2.38.0 (20140413.2041)
 -->
<!-- Title: SDK::UMovieSceneComponentMaterialTrack Pages: 1 -->
<svg width="443pt" height="237pt"
 viewBox="0.00 0.00 442.50 237.00" xmlns="http://www.w3.org/2000/svg" xmlns:xlink="http://www.w3.org/1999/xlink">
<g id="graph0" class="graph" transform="scale(1 1) rotate(0) translate(4 233)">
<title>SDK::UMovieSceneComponentMaterialTrack</title>
<!-- Node1 -->
<g id="node1" class="node"><title>Node1</title>
<g id="a_node1"><a xlink:title=" ">
<polygon fill="#bfbfbf" stroke="black" points="174.5,-0.5 174.5,-68.5 326.5,-68.5 326.5,-0.5 174.5,-0.5"/>
<text text-anchor="start" x="182.5" y="-56.5" font-family="Helvetica,sans-Serif" font-size="10.00">SDK::UMovieSceneComponent</text>
<text text-anchor="middle" x="250.5" y="-45.5" font-family="Helvetica,sans-Serif" font-size="10.00">MaterialTrack</text>
<polyline fill="none" stroke="black" points="174.5,-38.5 326.5,-38.5 "/>
<text text-anchor="middle" x="250.5" y="-26.5" font-family="Helvetica,sans-Serif" font-size="10.00"> </text>
<polyline fill="none" stroke="black" points="174.5,-19.5 326.5,-19.5 "/>
<text text-anchor="start" x="182.5" y="-7.5" font-family="Helvetica,sans-Serif" font-size="10.00">+ StaticClass()</text>
</a>
</g>
</g>
<!-- Node2 -->
<g id="node2" class="node"><title>Node2</title>
<g id="a_node2"><a xlink:href="a33115.html" target="_top" xlink:title=" ">
<polygon fill="none" stroke="red" points="0,-138.5 0,-206.5 137,-206.5 137,-138.5 0,-138.5"/>
<text text-anchor="start" x="8" y="-194.5" font-family="Helvetica,sans-Serif" font-size="10.00">SDK::UMovieSceneMaterial</text>
<text text-anchor="middle" x="68.5" y="-183.5" font-family="Helvetica,sans-Serif" font-size="10.00">Track</text>
<polyline fill="none" stroke="red" points="0,-176.5 137,-176.5 "/>
<text text-anchor="middle" x="68.5" y="-164.5" font-family="Helvetica,sans-Serif" font-size="10.00"> </text>
<polyline fill="none" stroke="red" points="0,-157.5 137,-157.5 "/>
<text text-anchor="start" x="8" y="-145.5" font-family="Helvetica,sans-Serif" font-size="10.00">+ StaticClass()</text>
</a>
</g>
</g>
<!-- Node2&#45;&gt;Node1 -->
<g id="edge1" class="edge"><title>Node2&#45;&gt;Node1</title>
<path fill="none" stroke="midnightblue" d="M121.187,-132.13C148.104,-112.016 180.493,-87.8128 206.122,-68.6613"/>
<polygon fill="none" stroke="midnightblue" points="118.938,-129.441 113.022,-138.231 123.128,-135.048 118.938,-129.441"/>
</g>
<!-- Node5 -->
<g id="node3" class="node"><title>Node5</title>
<g id="a_node3"><a xlink:href="a25627.html" target="_top" xlink:title=" ">
<polygon fill="none" stroke="red" points="155.5,-116.5 155.5,-228.5 261.5,-228.5 261.5,-116.5 155.5,-116.5"/>
<text text-anchor="middle" x="208.5" y="-216.5" font-family="Helvetica,sans-Serif" font-size="10.00">SDK::FName</text>
<polyline fill="none" stroke="red" points="155.5,-209.5 261.5,-209.5 "/>
<text text-anchor="middle" x="208.5" y="-197.5" font-family="Helvetica,sans-Serif" font-size="10.00"> </text>
<polyline fill="none" stroke="red" points="155.5,-190.5 261.5,-190.5 "/>
<text text-anchor="start" x="163.5" y="-178.5" font-family="Helvetica,sans-Serif" font-size="10.00">+ FName()</text>
<text text-anchor="start" x="163.5" y="-167.5" font-family="Helvetica,sans-Serif" font-size="10.00">+ FName()</text>
<text text-anchor="start" x="163.5" y="-156.5" font-family="Helvetica,sans-Serif" font-size="10.00">+ FName()</text>
<text text-anchor="start" x="163.5" y="-145.5" font-family="Helvetica,sans-Serif" font-size="10.00">+ GetName()</text>
<text text-anchor="start" x="163.5" y="-134.5" font-family="Helvetica,sans-Serif" font-size="10.00">+ operator==()</text>
<text text-anchor="start" x="163.5" y="-123.5" font-family="Helvetica,sans-Serif" font-size="10.00">+ GetGlobalNames()</text>
</a>
</g>
</g>
<!-- Node5&#45;&gt;Node1 -->
<g id="edge2" class="edge"><title>Node5&#45;&gt;Node1</title>
<path fill="none" stroke="#404040" d="M206.433,-116.495C207.36,-106.478 209.205,-96.2718 212.5,-87 213.458,-84.3057 214.607,-81.6326 215.899,-79.0038"/>
<polygon fill="none" stroke="#404040" points="215.944,-78.9248 215.446,-71.7308 221.896,-68.5045 222.393,-75.6984 215.944,-78.9248"/>
<text text-anchor="middle" x="242" y="-90" font-family="Helvetica,sans-Serif" font-size="10.00"> +TrackName</text>
</g>
<!-- Node13 -->
<g id="node4" class="node"><title>Node13</title>
<g id="a_node4"><a xlink:title=" ">
<polygon fill="none" stroke="#bfbfbf" points="280,-144 280,-201 315,-201 315,-144 280,-144"/>
<text text-anchor="middle" x="297.5" y="-189" font-family="Helvetica,sans-Serif" font-size="10.00">char</text>
<polyline fill="none" stroke="#bfbfbf" points="280,-182 315,-182 "/>
<text text-anchor="middle" x="297.5" y="-170" font-family="Helvetica,sans-Serif" font-size="10.00"> </text>
<polyline fill="none" stroke="#bfbfbf" points="280,-163 315,-163 "/>
<text text-anchor="middle" x="297.5" y="-151" font-family="Helvetica,sans-Serif" font-size="10.00"> </text>
</a>
</g>
</g>
<!-- Node13&#45;&gt;Node1 -->
<g id="edge3" class="edge"><title>Node13&#45;&gt;Node1</title>
<path fill="none" stroke="#404040" d="M289.679,-143.897C284.808,-127.289 278.208,-105.792 271.5,-87 270.663,-84.6555 269.782,-82.2609 268.874,-79.8501"/>
<polygon fill="none" stroke="#404040" points="268.84,-79.7623 262.938,-75.6191 264.492,-68.5775 270.394,-72.7207 268.84,-79.7623"/>
<text text-anchor="middle" x="315.5" y="-90" font-family="Helvetica,sans-Serif" font-size="10.00"> +UnknownData00</text>
</g>
<!-- Node16 -->
<g id="node5" class="node"><title>Node16</title>
<g id="a_node5"><a xlink:title=" ">
<polygon fill="none" stroke="#bfbfbf" points="382,-144 382,-201 411,-201 411,-144 382,-144"/>
<text text-anchor="middle" x="396.5" y="-189" font-family="Helvetica,sans-Serif" font-size="10.00">int</text>
<polyline fill="none" stroke="#bfbfbf" points="382,-182 411,-182 "/>
<text text-anchor="middle" x="396.5" y="-170" font-family="Helvetica,sans-Serif" font-size="10.00"> </text>
<polyline fill="none" stroke="#bfbfbf" points="382,-163 411,-163 "/>
<text text-anchor="middle" x="396.5" y="-151" font-family="Helvetica,sans-Serif" font-size="10.00"> </text>
</a>
</g>
</g>
<!-- Node16&#45;&gt;Node1 -->
<g id="edge4" class="edge"><title>Node16&#45;&gt;Node1</title>
<path fill="none" stroke="#404040" d="M389.86,-143.899C384.312,-125.829 374.79,-102.735 359.5,-87 352.936,-80.2455 345.312,-74.2743 337.203,-69.0198"/>
<polygon fill="none" stroke="#404040" points="337.013,-68.9056 329.81,-69.2561 326.716,-62.7423 333.919,-62.3918 337.013,-68.9056"/>
<text text-anchor="middle" x="401" y="-90" font-family="Helvetica,sans-Serif" font-size="10.00"> +MaterialIndex</text>
</g>
</g>
</svg>
