<?xml version="1.0" encoding="UTF-8" standalone="no"?>
<!DOCTYPE svg PUBLIC "-//W3C//DTD SVG 1.1//EN"
 "http://www.w3.org/Graphics/SVG/1.1/DTD/svg11.dtd">
<!-- Generated by graphviz version 2.38.0 (20140413.2041)
 -->
<!-- Title: SDK::UGeyserManagerSetupDataAsset Pages: 1 -->
<!--zoomable 615 -->
<svg id="main" version="1.1" xmlns="http://www.w3.org/2000/svg" xmlns:xlink="http://www.w3.org/1999/xlink" xml:space="preserve" onload="init(evt)">
<style type="text/css"><![CDATA[
.edge:hover path { stroke: red; }
.edge:hover polygon { stroke: red; fill: red; }
]]></style>
<script type="text/javascript"><![CDATA[
var edges = document.getElementsByTagName('g');
if (edges && edges.length) {
  for (var i=0;i<edges.length;i++) {
    if (edges[i].id.substr(0,4)=='edge') {
      edges[i].setAttribute('class','edge');
    }
  }
}
]]></script>
        <defs>
                <circle id="rim" cx="0" cy="0" r="7"/>
                <circle id="rim2" cx="0" cy="0" r="3.5"/>
                <g id="zoomPlus">
                        <use xlink:href="#rim" fill="#404040">
                                <set attributeName="fill" to="#808080" begin="zoomplus.mouseover" end="zoomplus.mouseout"/>
                        </use>
                        <path d="M-4,0h8M0,-4v8" fill="none" stroke="white" stroke-width="1.5" pointer-events="none"/>
                </g>
                <g id="zoomMin">
                        <use xlink:href="#rim" fill="#404040">
                                <set attributeName="fill" to="#808080" begin="zoomminus.mouseover" end="zoomminus.mouseout"/>
                        </use>
                        <path d="M-4,0h8" fill="none" stroke="white" stroke-width="1.5" pointer-events="none"/>
                </g>
                <g id="dirArrow">
                        <path fill="none" stroke="white" stroke-width="1.5" d="M0,-3.0v7 M-2.5,-0.5L0,-3.0L2.5,-0.5"/>
                </g>
               <g id="resetDef">
                       <use xlink:href="#rim2" fill="#404040">
                               <set attributeName="fill" to="#808080" begin="reset.mouseover" end="reset.mouseout"/>
                       </use>
               </g>
        </defs>

<script type="text/javascript">
var viewWidth = 1206;
var viewHeight = 615;
var sectionId = 'dynsection-1';
</script>
<script xlink:href="svgpan.js"/>
<svg id="graph" class="graph">
<g id="viewport">
<title>SDK::UGeyserManagerSetupDataAsset</title>
<!-- Node1 -->
<g id="node1" class="node"><title>Node1</title>
<g id="a_node1"><a xlink:title=" ">
<polygon fill="#bfbfbf" stroke="black" points="459.5,-0.5 459.5,-68.5 603.5,-68.5 603.5,-0.5 459.5,-0.5"/>
<text text-anchor="start" x="467.5" y="-56.5" font-family="Helvetica,sans-Serif" font-size="10.00">SDK::UGeyserManagerSetup</text>
<text text-anchor="middle" x="531.5" y="-45.5" font-family="Helvetica,sans-Serif" font-size="10.00">DataAsset</text>
<polyline fill="none" stroke="black" points="459.5,-38.5 603.5,-38.5 "/>
<text text-anchor="middle" x="531.5" y="-26.5" font-family="Helvetica,sans-Serif" font-size="10.00"> </text>
<polyline fill="none" stroke="black" points="459.5,-19.5 603.5,-19.5 "/>
<text text-anchor="start" x="467.5" y="-7.5" font-family="Helvetica,sans-Serif" font-size="10.00">+ StaticClass()</text>
</a>
</g>
</g>
<!-- Node2 -->
<g id="node2" class="node"><title>Node2</title>
<g id="a_node2"><a xlink:href="a26347.html" target="_top" xlink:title=" ">
<polygon fill="none" stroke="red" points="0,-232 0,-289 95,-289 95,-232 0,-232"/>
<text text-anchor="middle" x="47.5" y="-277" font-family="Helvetica,sans-Serif" font-size="10.00">SDK::UDataAsset</text>
<polyline fill="none" stroke="red" points="0,-270 95,-270 "/>
<text text-anchor="middle" x="47.5" y="-258" font-family="Helvetica,sans-Serif" font-size="10.00"> </text>
<polyline fill="none" stroke="red" points="0,-251 95,-251 "/>
<text text-anchor="start" x="8" y="-239" font-family="Helvetica,sans-Serif" font-size="10.00">+ StaticClass()</text>
</a>
</g>
</g>
<!-- Node2&#45;&gt;Node1 -->
<g id="edge1" class="edge"><title>Node2&#45;&gt;Node1</title>
<path fill="none" stroke="midnightblue" d="M49.9345,-221.523C54.6826,-181.432 68.6299,-119.619 109.5,-87 161.995,-45.1026 353.141,-36.7483 459.261,-35.4193"/>
<polygon fill="none" stroke="midnightblue" points="46.4279,-221.405 48.8694,-231.714 53.39,-222.132 46.4279,-221.405"/>
</g>
<!-- Node14 -->
<g id="node3" class="node"><title>Node14</title>
<g id="a_node3"><a xlink:href="a32947.html" target="_top" xlink:title=" ">
<polygon fill="none" stroke="red" points="359.5,-226.5 359.5,-294.5 495.5,-294.5 495.5,-226.5 359.5,-226.5"/>
<text text-anchor="start" x="367.5" y="-282.5" font-family="Helvetica,sans-Serif" font-size="10.00">SDK::FWeightedProbability</text>
<text text-anchor="middle" x="427.5" y="-271.5" font-family="Helvetica,sans-Serif" font-size="10.00">RangeOfRanges</text>
<polyline fill="none" stroke="red" points="359.5,-264.5 495.5,-264.5 "/>
<text text-anchor="middle" x="427.5" y="-252.5" font-family="Helvetica,sans-Serif" font-size="10.00"> </text>
<polyline fill="none" stroke="red" points="359.5,-245.5 495.5,-245.5 "/>
<text text-anchor="middle" x="427.5" y="-233.5" font-family="Helvetica,sans-Serif" font-size="10.00"> </text>
</a>
</g>
</g>
<!-- Node14&#45;&gt;Node1 -->
<g id="edge2" class="edge"><title>Node14&#45;&gt;Node1</title>
<path fill="none" stroke="#404040" d="M382.202,-226.321C370.261,-215.004 358.926,-201.295 352.5,-186 335.457,-145.435 326.036,-122.152 352.5,-87 364.537,-71.0111 406.783,-58.4438 447.21,-49.7274"/>
<polygon fill="none" stroke="#404040" points="447.348,-49.6987 452.41,-44.5624 459.098,-47.2591 454.036,-52.3954 447.348,-49.6987"/>
<text text-anchor="middle" x="435" y="-178" font-family="Helvetica,sans-Serif" font-size="10.00"> +ActiveDuration</text>
<text text-anchor="start" x="352.5" y="-167" font-family="Helvetica,sans-Serif" font-size="10.00">+SpawnDistanceFromPlayer</text>
<text text-anchor="middle" x="435" y="-156" font-family="Helvetica,sans-Serif" font-size="10.00">InMetres</text>
<text text-anchor="middle" x="435" y="-145" font-family="Helvetica,sans-Serif" font-size="10.00">+DormantDuration</text>
<text text-anchor="middle" x="435" y="-134" font-family="Helvetica,sans-Serif" font-size="10.00">+SpawnRadiusInMetres</text>
<text text-anchor="start" x="352.5" y="-123" font-family="Helvetica,sans-Serif" font-size="10.00">+DelayBetweenGeyserGroupsDuring</text>
<text text-anchor="middle" x="435" y="-112" font-family="Helvetica,sans-Serif" font-size="10.00">GeyserEvent</text>
<text text-anchor="start" x="352.5" y="-101" font-family="Helvetica,sans-Serif" font-size="10.00">+DelayBetweenEachGeyserSpawning</text>
<text text-anchor="middle" x="435" y="-90" font-family="Helvetica,sans-Serif" font-size="10.00">InAGroup</text>
</g>
<!-- Node15 -->
<g id="node4" class="node"><title>Node15</title>
<g id="a_node4"><a xlink:href="a32939.html" target="_top" xlink:title=" ">
<polygon fill="none" stroke="red" points="242.5,-433.5 242.5,-501.5 378.5,-501.5 378.5,-433.5 242.5,-433.5"/>
<text text-anchor="start" x="250.5" y="-489.5" font-family="Helvetica,sans-Serif" font-size="10.00">SDK::FWeightedProbability</text>
<text text-anchor="middle" x="310.5" y="-478.5" font-family="Helvetica,sans-Serif" font-size="10.00">Range</text>
<polyline fill="none" stroke="red" points="242.5,-471.5 378.5,-471.5 "/>
<text text-anchor="middle" x="310.5" y="-459.5" font-family="Helvetica,sans-Serif" font-size="10.00"> </text>
<polyline fill="none" stroke="red" points="242.5,-452.5 378.5,-452.5 "/>
<text text-anchor="middle" x="310.5" y="-440.5" font-family="Helvetica,sans-Serif" font-size="10.00"> </text>
</a>
</g>
</g>
<!-- Node15&#45;&gt;Node1 -->
<g id="edge12" class="edge"><title>Node15&#45;&gt;Node1</title>
<path fill="none" stroke="#404040" d="M277.102,-433.487C251.129,-405.301 217.132,-362.241 202.5,-317 187.045,-269.215 182.068,-249.878 202.5,-204 244.679,-109.293 364.647,-67.0141 447.425,-48.7091"/>
<polygon fill="none" stroke="#404040" points="447.616,-48.6687 452.656,-43.5109 459.355,-46.179 454.316,-51.3368 447.616,-48.6687"/>
<text text-anchor="middle" x="276.5" y="-263.5" font-family="Helvetica,sans-Serif" font-size="10.00"> +NumGeysersToSpawnPerGroup</text>
<text text-anchor="middle" x="276.5" y="-252.5" font-family="Helvetica,sans-Serif" font-size="10.00">+NumGeyserGroupsToSpawn</text>
</g>
<!-- Node15&#45;&gt;Node14 -->
<g id="edge3" class="edge"><title>Node15&#45;&gt;Node14</title>
<path fill="none" stroke="midnightblue" d="M334.632,-424.217C356.578,-385.766 388.52,-329.798 408.644,-294.539"/>
<polygon fill="none" stroke="midnightblue" points="331.476,-422.687 329.558,-433.107 337.555,-426.157 331.476,-422.687"/>
</g>
<!-- Node12 -->
<g id="node5" class="node"><title>Node12</title>
<g id="a_node5"><a xlink:title=" ">
<polygon fill="none" stroke="#bfbfbf" points="293,-549.5 293,-606.5 328,-606.5 328,-549.5 293,-549.5"/>
<text text-anchor="middle" x="310.5" y="-594.5" font-family="Helvetica,sans-Serif" font-size="10.00">char</text>
<polyline fill="none" stroke="#bfbfbf" points="293,-587.5 328,-587.5 "/>
<text text-anchor="middle" x="310.5" y="-575.5" font-family="Helvetica,sans-Serif" font-size="10.00"> </text>
<polyline fill="none" stroke="#bfbfbf" points="293,-568.5 328,-568.5 "/>
<text text-anchor="middle" x="310.5" y="-556.5" font-family="Helvetica,sans-Serif" font-size="10.00"> </text>
</a>
</g>
</g>
<!-- Node12&#45;&gt;Node1 -->
<g id="edge6" class="edge"><title>Node12&#45;&gt;Node1</title>
<path fill="none" stroke="#404040" d="M292.878,-568.298C253.844,-547.897 160.767,-492.76 125.5,-415 78.4212,-311.196 178.818,-112.917 209.5,-87 244.538,-57.4033 364.218,-44.641 447.357,-39.2595"/>
<polygon fill="none" stroke="#404040" points="447.367,-39.259 453.109,-34.8961 459.344,-38.5179 453.603,-42.8808 447.367,-39.259"/>
<text text-anchor="middle" x="165.5" y="-378" font-family="Helvetica,sans-Serif" font-size="10.00"> +UnknownData01</text>
<text text-anchor="middle" x="165.5" y="-367" font-family="Helvetica,sans-Serif" font-size="10.00">+UnknownData00</text>
</g>
<!-- Node12&#45;&gt;Node15 -->
<g id="edge4" class="edge"><title>Node12&#45;&gt;Node15</title>
<path fill="none" stroke="#404040" d="M310.5,-549.34C310.5,-538.529 310.5,-525.847 310.5,-513.775"/>
<polygon fill="none" stroke="#404040" points="310.5,-513.519 306.5,-507.519 310.5,-501.519 314.5,-507.519 310.5,-513.519"/>
<text text-anchor="middle" x="350.5" y="-523" font-family="Helvetica,sans-Serif" font-size="10.00"> +UnknownData00</text>
</g>
<!-- Node9 -->
<g id="node8" class="node"><title>Node9</title>
<g id="a_node8"><a xlink:href="a25915.html" target="_top" xlink:title=" ">
<polygon fill="none" stroke="red" points="422,-335.5 422,-414.5 541,-414.5 541,-335.5 422,-335.5"/>
<text text-anchor="middle" x="481.5" y="-402.5" font-family="Helvetica,sans-Serif" font-size="10.00">SDK::UClass</text>
<polyline fill="none" stroke="red" points="422,-395.5 541,-395.5 "/>
<text text-anchor="middle" x="481.5" y="-383.5" font-family="Helvetica,sans-Serif" font-size="10.00"> </text>
<polyline fill="none" stroke="red" points="422,-376.5 541,-376.5 "/>
<text text-anchor="start" x="430" y="-364.5" font-family="Helvetica,sans-Serif" font-size="10.00">+ CreateDefaultObject()</text>
<text text-anchor="start" x="430" y="-353.5" font-family="Helvetica,sans-Serif" font-size="10.00">+ CreateDefaultObject()</text>
<text text-anchor="start" x="430" y="-342.5" font-family="Helvetica,sans-Serif" font-size="10.00">+ StaticClass()</text>
</a>
</g>
</g>
<!-- Node12&#45;&gt;Node9 -->
<g id="edge9" class="edge"><title>Node12&#45;&gt;Node9</title>
<path fill="none" stroke="#404040" d="M328.076,-570.746C346.449,-563.5 375.236,-550.063 394.5,-531 424.618,-501.195 447.457,-458.771 462.16,-425.839"/>
<polygon fill="none" stroke="#404040" points="462.249,-425.634 460.964,-418.538 467.02,-414.623 468.305,-421.719 462.249,-425.634"/>
<text text-anchor="middle" x="444.5" y="-523" font-family="Helvetica,sans-Serif" font-size="10.00"> +UnknownData00</text>
</g>
<!-- Node19 -->
<g id="node6" class="node"><title>Node19</title>
<g id="a_node6"><a xlink:title=" ">
<polygon fill="none" stroke="#bfbfbf" points="631,-232 631,-289 666,-289 666,-232 631,-232"/>
<text text-anchor="middle" x="648.5" y="-277" font-family="Helvetica,sans-Serif" font-size="10.00">float</text>
<polyline fill="none" stroke="#bfbfbf" points="631,-270 666,-270 "/>
<text text-anchor="middle" x="648.5" y="-258" font-family="Helvetica,sans-Serif" font-size="10.00"> </text>
<polyline fill="none" stroke="#bfbfbf" points="631,-251 666,-251 "/>
<text text-anchor="middle" x="648.5" y="-239" font-family="Helvetica,sans-Serif" font-size="10.00"> </text>
</a>
</g>
</g>
<!-- Node19&#45;&gt;Node1 -->
<g id="edge5" class="edge"><title>Node19&#45;&gt;Node1</title>
<path fill="none" stroke="#404040" d="M637.46,-231.857C632.344,-221.941 625.395,-211.394 616.5,-204 598.016,-188.634 581.473,-203.962 565.5,-186 563.695,-183.97 550.521,-124.062 541.114,-80.4544"/>
<polygon fill="none" stroke="#404040" points="541.098,-80.3801 535.925,-75.356 538.573,-68.6487 543.746,-73.6728 541.098,-80.3801"/>
<text text-anchor="start" x="565.5" y="-156" font-family="Helvetica,sans-Serif" font-size="10.00"> +MinDistanceFromPlayerIn</text>
<text text-anchor="middle" x="632" y="-145" font-family="Helvetica,sans-Serif" font-size="10.00">Metres</text>
<text text-anchor="start" x="565.5" y="-134" font-family="Helvetica,sans-Serif" font-size="10.00">+MaximumDensityRadiusIn</text>
<text text-anchor="middle" x="632" y="-123" font-family="Helvetica,sans-Serif" font-size="10.00">Metres</text>
<text text-anchor="middle" x="632" y="-112" font-family="Helvetica,sans-Serif" font-size="10.00">+MinGeyserSequenceSpacing</text>
</g>
<!-- Node20 -->
<g id="node7" class="node"><title>Node20</title>
<g id="a_node7"><a xlink:title=" ">
<polygon fill="none" stroke="#bfbfbf" points="706,-232 706,-289 735,-289 735,-232 706,-232"/>
<text text-anchor="middle" x="720.5" y="-277" font-family="Helvetica,sans-Serif" font-size="10.00">int</text>
<polyline fill="none" stroke="#bfbfbf" points="706,-270 735,-270 "/>
<text text-anchor="middle" x="720.5" y="-258" font-family="Helvetica,sans-Serif" font-size="10.00"> </text>
<polyline fill="none" stroke="#bfbfbf" points="706,-251 735,-251 "/>
<text text-anchor="middle" x="720.5" y="-239" font-family="Helvetica,sans-Serif" font-size="10.00"> </text>
</a>
</g>
</g>
<!-- Node20&#45;&gt;Node1 -->
<g id="edge7" class="edge"><title>Node20&#45;&gt;Node1</title>
<path fill="none" stroke="#404040" d="M720.51,-231.986C719.959,-188.94 716.475,-108.372 698.5,-87 677.984,-62.6062 646.183,-49.5606 615.814,-42.6573"/>
<polygon fill="none" stroke="#404040" points="615.585,-42.6108 608.909,-45.3356 603.826,-40.2207 610.502,-37.4959 615.585,-42.6108"/>
<text text-anchor="start" x="719.5" y="-139.5" font-family="Helvetica,sans-Serif" font-size="10.00"> +MaximumDensityMaxNumGeysers</text>
<text text-anchor="middle" x="800" y="-128.5" font-family="Helvetica,sans-Serif" font-size="10.00">WithinRadius</text>
</g>
<!-- Node9&#45;&gt;Node1 -->
<g id="edge8" class="edge"><title>Node9&#45;&gt;Node1</title>
<path fill="none" stroke="#404040" d="M498.84,-335.237C501.032,-329.223 503.021,-323.01 504.5,-317 524.575,-235.397 529.875,-137.071 531.184,-80.8661"/>
<polygon fill="none" stroke="#404040" points="531.19,-80.5241 527.307,-74.448 531.422,-68.5264 535.305,-74.6025 531.19,-80.5241"/>
<text text-anchor="middle" x="564" y="-258" font-family="Helvetica,sans-Serif" font-size="10.00"> +GeyserToSpawn</text>
</g>
<!-- Node21 -->
<g id="node9" class="node"><title>Node21</title>
<g id="a_node9"><a xlink:title=" ">
<polygon fill="none" stroke="#bfbfbf" points="887,-232 887,-289 922,-289 922,-232 887,-232"/>
<text text-anchor="middle" x="904.5" y="-277" font-family="Helvetica,sans-Serif" font-size="10.00">bool</text>
<polyline fill="none" stroke="#bfbfbf" points="887,-270 922,-270 "/>
<text text-anchor="middle" x="904.5" y="-258" font-family="Helvetica,sans-Serif" font-size="10.00"> </text>
<polyline fill="none" stroke="#bfbfbf" points="887,-251 922,-251 "/>
<text text-anchor="middle" x="904.5" y="-239" font-family="Helvetica,sans-Serif" font-size="10.00"> </text>
</a>
</g>
</g>
<!-- Node21&#45;&gt;Node1 -->
<g id="edge10" class="edge"><title>Node21&#45;&gt;Node1</title>
<path fill="none" stroke="#404040" d="M904.876,-231.654C904.839,-188.141 902.06,-106.932 882.5,-87 846.427,-50.2414 707.685,-39.5312 615.814,-36.5233"/>
<polygon fill="none" stroke="#404040" points="615.731,-36.5209 609.615,-40.3402 603.737,-36.1631 609.853,-32.3438 615.731,-36.5209"/>
<text text-anchor="middle" x="967" y="-145" font-family="Helvetica,sans-Serif" font-size="10.00"> +StartInactive</text>
<text text-anchor="start" x="904.5" y="-134" font-family="Helvetica,sans-Serif" font-size="10.00">+NoRestartAfterGeyserSpurt</text>
<text text-anchor="middle" x="967" y="-123" font-family="Helvetica,sans-Serif" font-size="10.00">Complete</text>
</g>
<!-- Node22 -->
<g id="node10" class="node"><title>Node22</title>
<g id="a_node10"><a xlink:href="a25611.html" target="_top" xlink:title=" ">
<polygon fill="none" stroke="black" points="965,-204.5 965,-316.5 1140,-316.5 1140,-204.5 965,-204.5"/>
<text text-anchor="start" x="973" y="-304.5" font-family="Helvetica,sans-Serif" font-size="10.00">SDK::TArray&lt; struct</text>
<text text-anchor="middle" x="1052.5" y="-293.5" font-family="Helvetica,sans-Serif" font-size="10.00"> SDK::FGeyserSpawnAngleOption &gt;</text>
<polyline fill="none" stroke="black" points="965,-286.5 1140,-286.5 "/>
<text text-anchor="middle" x="1052.5" y="-274.5" font-family="Helvetica,sans-Serif" font-size="10.00"> </text>
<polyline fill="none" stroke="black" points="965,-267.5 1140,-267.5 "/>
<text text-anchor="start" x="973" y="-255.5" font-family="Helvetica,sans-Serif" font-size="10.00">+ TArray()</text>
<text text-anchor="start" x="973" y="-244.5" font-family="Helvetica,sans-Serif" font-size="10.00">+ Num()</text>
<text text-anchor="start" x="973" y="-233.5" font-family="Helvetica,sans-Serif" font-size="10.00">+ operator[]()</text>
<text text-anchor="start" x="973" y="-222.5" font-family="Helvetica,sans-Serif" font-size="10.00">+ operator[]()</text>
<text text-anchor="start" x="973" y="-211.5" font-family="Helvetica,sans-Serif" font-size="10.00">+ IsValidIndex()</text>
</a>
</g>
</g>
<!-- Node22&#45;&gt;Node1 -->
<g id="edge11" class="edge"><title>Node22&#45;&gt;Node1</title>
<path fill="none" stroke="#404040" d="M1061.61,-204.347C1064.54,-166.046 1060.96,-116.737 1030.5,-87 1001.47,-58.6626 750.403,-44.2945 615.855,-38.5717"/>
<polygon fill="none" stroke="#404040" points="615.594,-38.5609 609.433,-42.3074 603.604,-38.0608 609.766,-34.3144 615.594,-38.5609"/>
<text text-anchor="start" x="1061.5" y="-139.5" font-family="Helvetica,sans-Serif" font-size="10.00"> +SpawnAngleRelativeToPlayer</text>
<text text-anchor="middle" x="1129.5" y="-128.5" font-family="Helvetica,sans-Serif" font-size="10.00">Direction</text>
</g>
</g>
</svg>
        <g id="navigator" transform="translate(0 0)" fill="#404254">
                <rect fill="#f2f5e9" fill-opacity="0.5" stroke="#606060" stroke-width=".5" x="0" y="0" width="60" height="60"/>
                <use id="zoomplus" xlink:href="#zoomPlus" x="17" y="9" onmousedown="handleZoom(evt,'in')"/>
                <use id="zoomminus" xlink:href="#zoomMin" x="42" y="9" onmousedown="handleZoom(evt,'out')"/>
                <use id="reset" xlink:href="#resetDef" x="30" y="36" onmousedown="handleReset()"/>
                <g id="arrowUp" xlink:href="#dirArrow" transform="translate(30 24)" onmousedown="handlePan(0,-1)">
                  <use xlink:href="#rim" fill="#404040">
                        <set attributeName="fill" to="#808080" begin="arrowUp.mouseover" end="arrowUp.mouseout"/>
                  </use>
                  <path fill="none" stroke="white" stroke-width="1.5" d="M0,-3.0v7 M-2.5,-0.5L0,-3.0L2.5,-0.5"/>
                </g>
                <g id="arrowRight" xlink:href="#dirArrow" transform="rotate(90) translate(36 -43)" onmousedown="handlePan(1,0)">
                  <use xlink:href="#rim" fill="#404040">
                        <set attributeName="fill" to="#808080" begin="arrowRight.mouseover" end="arrowRight.mouseout"/>
                  </use>
                  <path fill="none" stroke="white" stroke-width="1.5" d="M0,-3.0v7 M-2.5,-0.5L0,-3.0L2.5,-0.5"/>
                </g>
                <g id="arrowDown" xlink:href="#dirArrow" transform="rotate(180) translate(-30 -48)" onmousedown="handlePan(0,1)">
                  <use xlink:href="#rim" fill="#404040">
                        <set attributeName="fill" to="#808080" begin="arrowDown.mouseover" end="arrowDown.mouseout"/>
                  </use>
                  <path fill="none" stroke="white" stroke-width="1.5" d="M0,-3.0v7 M-2.5,-0.5L0,-3.0L2.5,-0.5"/>
                </g>
                <g id="arrowLeft" xlink:href="#dirArrow" transform="rotate(270) translate(-36 17)" onmousedown="handlePan(-1,0)">
                  <use xlink:href="#rim" fill="#404040">
                        <set attributeName="fill" to="#808080" begin="arrowLeft.mouseover" end="arrowLeft.mouseout"/>
                  </use>
                  <path fill="none" stroke="white" stroke-width="1.5" d="M0,-3.0v7 M-2.5,-0.5L0,-3.0L2.5,-0.5"/>
                </g>
        </g>
        <svg viewBox="0 0 15 15" width="100%" height="30px" preserveAspectRatio="xMaxYMin meet">
         <g id="arrow_out" transform="scale(0.3 0.3)">
          <a xlink:href="a33241_org.svg" target="_base">
           <rect id="button" ry="5" rx="5" y="6" x="6" height="38" width="38"
                fill="#f2f5e9" fill-opacity="0.5" stroke="#606060" stroke-width="1.0"/>
           <path id="arrow"
             d="M 11.500037,31.436501 C 11.940474,20.09759 22.043105,11.32322 32.158766,21.979434 L 37.068811,17.246167 C 37.068811,17.246167 37.088388,32 37.088388,32 L 22.160133,31.978069 C 22.160133,31.978069 26.997745,27.140456 26.997745,27.140456 C 18.528582,18.264221 13.291696,25.230495 11.500037,31.436501 z"
             style="fill:#404040;"/>
          </a>
         </g>
        </svg>
</svg>
