<?xml version="1.0" encoding="UTF-8" standalone="no"?>
<!DOCTYPE svg PUBLIC "-//W3C//DTD SVG 1.1//EN"
 "http://www.w3.org/Graphics/SVG/1.1/DTD/svg11.dtd">
<!-- Generated by graphviz version 2.38.0 (20140413.2041)
 -->
<!-- Title: SDK::UMovieScenePropertyTrack Pages: 1 -->
<!--zoomable 320 -->
<svg id="main" version="1.1" xmlns="http://www.w3.org/2000/svg" xmlns:xlink="http://www.w3.org/1999/xlink" xml:space="preserve" onload="init(evt)">
<style type="text/css"><![CDATA[
.edge:hover path { stroke: red; }
.edge:hover polygon { stroke: red; fill: red; }
]]></style>
<script type="text/javascript"><![CDATA[
var edges = document.getElementsByTagName('g');
if (edges && edges.length) {
  for (var i=0;i<edges.length;i++) {
    if (edges[i].id.substr(0,4)=='edge') {
      edges[i].setAttribute('class','edge');
    }
  }
}
]]></script>
        <defs>
                <circle id="rim" cx="0" cy="0" r="7"/>
                <circle id="rim2" cx="0" cy="0" r="3.5"/>
                <g id="zoomPlus">
                        <use xlink:href="#rim" fill="#404040">
                                <set attributeName="fill" to="#808080" begin="zoomplus.mouseover" end="zoomplus.mouseout"/>
                        </use>
                        <path d="M-4,0h8M0,-4v8" fill="none" stroke="white" stroke-width="1.5" pointer-events="none"/>
                </g>
                <g id="zoomMin">
                        <use xlink:href="#rim" fill="#404040">
                                <set attributeName="fill" to="#808080" begin="zoomminus.mouseover" end="zoomminus.mouseout"/>
                        </use>
                        <path d="M-4,0h8" fill="none" stroke="white" stroke-width="1.5" pointer-events="none"/>
                </g>
                <g id="dirArrow">
                        <path fill="none" stroke="white" stroke-width="1.5" d="M0,-3.0v7 M-2.5,-0.5L0,-3.0L2.5,-0.5"/>
                </g>
               <g id="resetDef">
                       <use xlink:href="#rim2" fill="#404040">
                               <set attributeName="fill" to="#808080" begin="reset.mouseover" end="reset.mouseout"/>
                       </use>
               </g>
        </defs>

<script type="text/javascript">
var viewWidth = 1349;
var viewHeight = 320;
var sectionId = 'dynsection-0';
</script>
<script xlink:href="svgpan.js"/>
<svg id="graph" class="graph">
<g id="viewport">
<title>SDK::UMovieScenePropertyTrack</title>
<!-- Node1 -->
<g id="node1" class="node"><title>Node1</title>
<g id="a_node1"><a xlink:title=" ">
<polygon fill="#bfbfbf" stroke="black" points="601,-105.5 601,-217.5 740,-217.5 740,-105.5 601,-105.5"/>
<text text-anchor="start" x="609" y="-205.5" font-family="Helvetica,sans-Serif" font-size="10.00">SDK::UMovieSceneProperty</text>
<text text-anchor="middle" x="670.5" y="-194.5" font-family="Helvetica,sans-Serif" font-size="10.00">Track</text>
<polyline fill="none" stroke="black" points="601,-187.5 740,-187.5 "/>
<text text-anchor="start" x="609" y="-175.5" font-family="Helvetica,sans-Serif" font-size="10.00">+ PropertyName</text>
<text text-anchor="start" x="609" y="-164.5" font-family="Helvetica,sans-Serif" font-size="10.00">+ PropertyPath</text>
<text text-anchor="start" x="609" y="-153.5" font-family="Helvetica,sans-Serif" font-size="10.00">+ Sections</text>
<text text-anchor="start" x="609" y="-142.5" font-family="Helvetica,sans-Serif" font-size="10.00">+ bSectionsAreShowable</text>
<text text-anchor="start" x="609" y="-131.5" font-family="Helvetica,sans-Serif" font-size="10.00">+ UnknownData00</text>
<polyline fill="none" stroke="black" points="601,-124.5 740,-124.5 "/>
<text text-anchor="start" x="609" y="-112.5" font-family="Helvetica,sans-Serif" font-size="10.00">+ StaticClass()</text>
</a>
</g>
</g>
<!-- Node4 -->
<g id="node3" class="node"><title>Node4</title>
<g id="a_node3"><a xlink:href="a35451.html" target="_top" xlink:title=" ">
<polygon fill="none" stroke="black" points="0,-0.5 0,-68.5 157,-68.5 157,-0.5 0,-0.5"/>
<text text-anchor="start" x="8" y="-56.5" font-family="Helvetica,sans-Serif" font-size="10.00">SDK::UMovieScene2DTransform</text>
<text text-anchor="middle" x="78.5" y="-45.5" font-family="Helvetica,sans-Serif" font-size="10.00">Track</text>
<polyline fill="none" stroke="black" points="0,-38.5 157,-38.5 "/>
<text text-anchor="middle" x="78.5" y="-26.5" font-family="Helvetica,sans-Serif" font-size="10.00"> </text>
<polyline fill="none" stroke="black" points="0,-19.5 157,-19.5 "/>
<text text-anchor="start" x="8" y="-7.5" font-family="Helvetica,sans-Serif" font-size="10.00">+ StaticClass()</text>
</a>
</g>
</g>
<!-- Node1&#45;&gt;Node4 -->
<g id="edge2" class="edge"><title>Node1&#45;&gt;Node4</title>
<path fill="none" stroke="midnightblue" d="M590.887,-150.797C490.488,-137.488 313.139,-110.401 165.5,-69 162.851,-68.2571 160.17,-67.4651 157.473,-66.6338"/>
<polygon fill="none" stroke="midnightblue" points="590.583,-154.287 600.954,-152.12 591.495,-147.347 590.583,-154.287"/>
</g>
<!-- Node5 -->
<g id="node4" class="node"><title>Node5</title>
<g id="a_node4"><a xlink:href="a33343.html" target="_top" xlink:title=" ">
<polygon fill="none" stroke="black" points="175,-0.5 175,-68.5 332,-68.5 332,-0.5 175,-0.5"/>
<text text-anchor="start" x="183" y="-56.5" font-family="Helvetica,sans-Serif" font-size="10.00">SDK::UMovieScene3DTransform</text>
<text text-anchor="middle" x="253.5" y="-45.5" font-family="Helvetica,sans-Serif" font-size="10.00">Track</text>
<polyline fill="none" stroke="black" points="175,-38.5 332,-38.5 "/>
<text text-anchor="middle" x="253.5" y="-26.5" font-family="Helvetica,sans-Serif" font-size="10.00"> </text>
<polyline fill="none" stroke="black" points="175,-19.5 332,-19.5 "/>
<text text-anchor="start" x="183" y="-7.5" font-family="Helvetica,sans-Serif" font-size="10.00">+ StaticClass()</text>
</a>
</g>
</g>
<!-- Node1&#45;&gt;Node5 -->
<g id="edge3" class="edge"><title>Node1&#45;&gt;Node5</title>
<path fill="none" stroke="midnightblue" d="M590.872,-140.56C523.855,-123.253 425.743,-96.6838 341.5,-69 338.394,-67.9793 335.236,-66.9136 332.054,-65.8162"/>
<polygon fill="none" stroke="midnightblue" points="590.384,-144.049 600.94,-143.151 592.128,-137.269 590.384,-144.049"/>
</g>
<!-- Node6 -->
<g id="node5" class="node"><title>Node6</title>
<g id="a_node5"><a xlink:href="a33347.html" target="_top" xlink:title=" ">
<polygon fill="none" stroke="red" points="350.5,-6 350.5,-63 496.5,-63 496.5,-6 350.5,-6"/>
<text text-anchor="middle" x="423.5" y="-51" font-family="Helvetica,sans-Serif" font-size="10.00">SDK::UMovieSceneBoolTrack</text>
<polyline fill="none" stroke="red" points="350.5,-44 496.5,-44 "/>
<text text-anchor="middle" x="423.5" y="-32" font-family="Helvetica,sans-Serif" font-size="10.00"> </text>
<polyline fill="none" stroke="red" points="350.5,-25 496.5,-25 "/>
<text text-anchor="start" x="358.5" y="-13" font-family="Helvetica,sans-Serif" font-size="10.00">+ StaticClass()</text>
</a>
</g>
</g>
<!-- Node1&#45;&gt;Node6 -->
<g id="edge4" class="edge"><title>Node1&#45;&gt;Node6</title>
<path fill="none" stroke="midnightblue" d="M591.465,-120.502C554.542,-101.817 511.5,-80.0342 478.231,-63.1979"/>
<polygon fill="none" stroke="midnightblue" points="590.207,-123.789 600.71,-125.181 593.368,-117.543 590.207,-123.789"/>
</g>
<!-- Node8 -->
<g id="node6" class="node"><title>Node8</title>
<g id="a_node6"><a xlink:href="a33355.html" target="_top" xlink:title=" ">
<polygon fill="none" stroke="black" points="514.5,-6 514.5,-63 660.5,-63 660.5,-6 514.5,-6"/>
<text text-anchor="middle" x="587.5" y="-51" font-family="Helvetica,sans-Serif" font-size="10.00">SDK::UMovieSceneByteTrack</text>
<polyline fill="none" stroke="black" points="514.5,-44 660.5,-44 "/>
<text text-anchor="start" x="522.5" y="-32" font-family="Helvetica,sans-Serif" font-size="10.00">+ Enum</text>
<polyline fill="none" stroke="black" points="514.5,-25 660.5,-25 "/>
<text text-anchor="start" x="522.5" y="-13" font-family="Helvetica,sans-Serif" font-size="10.00">+ StaticClass()</text>
</a>
</g>
</g>
<!-- Node1&#45;&gt;Node8 -->
<g id="edge5" class="edge"><title>Node1&#45;&gt;Node8</title>
<path fill="none" stroke="midnightblue" d="M628.129,-96.6876C620.254,-84.8288 612.422,-73.0331 605.766,-63.0091"/>
<polygon fill="none" stroke="midnightblue" points="625.406,-98.9146 633.853,-105.309 631.237,-95.0425 625.406,-98.9146"/>
</g>
<!-- Node9 -->
<g id="node7" class="node"><title>Node9</title>
<g id="a_node7"><a xlink:href="a33359.html" target="_top" xlink:title=" ">
<polygon fill="none" stroke="black" points="679,-0.5 679,-68.5 828,-68.5 828,-0.5 679,-0.5"/>
<text text-anchor="middle" x="753.5" y="-56.5" font-family="Helvetica,sans-Serif" font-size="10.00">SDK::UMovieSceneColorTrack</text>
<polyline fill="none" stroke="black" points="679,-49.5 828,-49.5 "/>
<text text-anchor="start" x="687" y="-37.5" font-family="Helvetica,sans-Serif" font-size="10.00">+ bIsSlateColor</text>
<text text-anchor="start" x="687" y="-26.5" font-family="Helvetica,sans-Serif" font-size="10.00">+ UnknownData00</text>
<polyline fill="none" stroke="black" points="679,-19.5 828,-19.5 "/>
<text text-anchor="start" x="687" y="-7.5" font-family="Helvetica,sans-Serif" font-size="10.00">+ StaticClass()</text>
</a>
</g>
</g>
<!-- Node1&#45;&gt;Node9 -->
<g id="edge6" class="edge"><title>Node1&#45;&gt;Node9</title>
<path fill="none" stroke="midnightblue" d="M712.839,-96.7369C719.326,-86.9669 725.786,-77.238 731.584,-68.5058"/>
<polygon fill="none" stroke="midnightblue" points="709.763,-95.0425 707.147,-105.309 715.594,-98.9146 709.763,-95.0425"/>
</g>
<!-- Node10 -->
<g id="node8" class="node"><title>Node10</title>
<g id="a_node8"><a xlink:href="a33363.html" target="_top" xlink:title=" ">
<polygon fill="none" stroke="red" points="846.5,-6 846.5,-63 994.5,-63 994.5,-6 846.5,-6"/>
<text text-anchor="middle" x="920.5" y="-51" font-family="Helvetica,sans-Serif" font-size="10.00">SDK::UMovieSceneFloatTrack</text>
<polyline fill="none" stroke="red" points="846.5,-44 994.5,-44 "/>
<text text-anchor="middle" x="920.5" y="-32" font-family="Helvetica,sans-Serif" font-size="10.00"> </text>
<polyline fill="none" stroke="red" points="846.5,-25 994.5,-25 "/>
<text text-anchor="start" x="854.5" y="-13" font-family="Helvetica,sans-Serif" font-size="10.00">+ StaticClass()</text>
</a>
</g>
</g>
<!-- Node1&#45;&gt;Node10 -->
<g id="edge7" class="edge"><title>Node1&#45;&gt;Node10</title>
<path fill="none" stroke="midnightblue" d="M749.098,-121.201C786.914,-102.293 831.334,-80.0831 865.477,-63.0115"/>
<polygon fill="none" stroke="midnightblue" points="747.518,-118.078 740.139,-125.681 750.648,-124.339 747.518,-118.078"/>
</g>
<!-- Node12 -->
<g id="node9" class="node"><title>Node12</title>
<g id="a_node9"><a xlink:href="a35459.html" target="_top" xlink:title=" ">
<polygon fill="none" stroke="black" points="1013,-6 1013,-63 1168,-63 1168,-6 1013,-6"/>
<text text-anchor="middle" x="1090.5" y="-51" font-family="Helvetica,sans-Serif" font-size="10.00">SDK::UMovieSceneMarginTrack</text>
<polyline fill="none" stroke="black" points="1013,-44 1168,-44 "/>
<text text-anchor="middle" x="1090.5" y="-32" font-family="Helvetica,sans-Serif" font-size="10.00"> </text>
<polyline fill="none" stroke="black" points="1013,-25 1168,-25 "/>
<text text-anchor="start" x="1021" y="-13" font-family="Helvetica,sans-Serif" font-size="10.00">+ StaticClass()</text>
</a>
</g>
</g>
<!-- Node1&#45;&gt;Node12 -->
<g id="edge8" class="edge"><title>Node1&#45;&gt;Node12</title>
<path fill="none" stroke="midnightblue" d="M750.076,-141.007C817.956,-123.816 917.87,-97.1735 1003.5,-69 1009.03,-67.179 1014.73,-65.2076 1020.44,-63.1643"/>
<polygon fill="none" stroke="midnightblue" points="749.138,-137.634 740.298,-143.474 750.851,-144.422 749.138,-137.634"/>
</g>
<!-- Node13 -->
<g id="node10" class="node"><title>Node13</title>
<g id="a_node10"><a xlink:href="a33371.html" target="_top" xlink:title=" ">
<polygon fill="none" stroke="black" points="1186,-0.5 1186,-68.5 1341,-68.5 1341,-0.5 1186,-0.5"/>
<text text-anchor="middle" x="1263.5" y="-56.5" font-family="Helvetica,sans-Serif" font-size="10.00">SDK::UMovieSceneVectorTrack</text>
<polyline fill="none" stroke="black" points="1186,-49.5 1341,-49.5 "/>
<text text-anchor="start" x="1194" y="-37.5" font-family="Helvetica,sans-Serif" font-size="10.00">+ NumChannelsUsed</text>
<text text-anchor="start" x="1194" y="-26.5" font-family="Helvetica,sans-Serif" font-size="10.00">+ UnknownData00</text>
<polyline fill="none" stroke="black" points="1186,-19.5 1341,-19.5 "/>
<text text-anchor="start" x="1194" y="-7.5" font-family="Helvetica,sans-Serif" font-size="10.00">+ StaticClass()</text>
</a>
</g>
</g>
<!-- Node1&#45;&gt;Node13 -->
<g id="edge9" class="edge"><title>Node1&#45;&gt;Node13</title>
<path fill="none" stroke="midnightblue" d="M750.456,-150.925C851.281,-137.748 1029.36,-110.797 1177.5,-69 1180.28,-68.2168 1183.09,-67.3781 1185.91,-66.4956"/>
<polygon fill="none" stroke="midnightblue" points="749.814,-147.479 740.346,-152.234 750.712,-154.421 749.814,-147.479"/>
</g>
<!-- Node2 -->
<g id="node2" class="node"><title>Node2</title>
<g id="a_node2"><a xlink:href="a33223.html" target="_top" xlink:title=" ">
<polygon fill="none" stroke="red" points="607.5,-254.5 607.5,-311.5 733.5,-311.5 733.5,-254.5 607.5,-254.5"/>
<text text-anchor="middle" x="670.5" y="-299.5" font-family="Helvetica,sans-Serif" font-size="10.00">SDK::UMovieSceneTrack</text>
<polyline fill="none" stroke="red" points="607.5,-292.5 733.5,-292.5 "/>
<text text-anchor="middle" x="670.5" y="-280.5" font-family="Helvetica,sans-Serif" font-size="10.00"> </text>
<polyline fill="none" stroke="red" points="607.5,-273.5 733.5,-273.5 "/>
<text text-anchor="start" x="615.5" y="-261.5" font-family="Helvetica,sans-Serif" font-size="10.00">+ StaticClass()</text>
</a>
</g>
</g>
<!-- Node2&#45;&gt;Node1 -->
<g id="edge1" class="edge"><title>Node2&#45;&gt;Node1</title>
<path fill="none" stroke="midnightblue" d="M670.5,-244.108C670.5,-235.748 670.5,-226.725 670.5,-217.834"/>
<polygon fill="none" stroke="midnightblue" points="667,-244.284 670.5,-254.284 674,-244.284 667,-244.284"/>
</g>
</g>
</svg>
        <g id="navigator" transform="translate(0 0)" fill="#404254">
                <rect fill="#f2f5e9" fill-opacity="0.5" stroke="#606060" stroke-width=".5" x="0" y="0" width="60" height="60"/>
                <use id="zoomplus" xlink:href="#zoomPlus" x="17" y="9" onmousedown="handleZoom(evt,'in')"/>
                <use id="zoomminus" xlink:href="#zoomMin" x="42" y="9" onmousedown="handleZoom(evt,'out')"/>
                <use id="reset" xlink:href="#resetDef" x="30" y="36" onmousedown="handleReset()"/>
                <g id="arrowUp" xlink:href="#dirArrow" transform="translate(30 24)" onmousedown="handlePan(0,-1)">
                  <use xlink:href="#rim" fill="#404040">
                        <set attributeName="fill" to="#808080" begin="arrowUp.mouseover" end="arrowUp.mouseout"/>
                  </use>
                  <path fill="none" stroke="white" stroke-width="1.5" d="M0,-3.0v7 M-2.5,-0.5L0,-3.0L2.5,-0.5"/>
                </g>
                <g id="arrowRight" xlink:href="#dirArrow" transform="rotate(90) translate(36 -43)" onmousedown="handlePan(1,0)">
                  <use xlink:href="#rim" fill="#404040">
                        <set attributeName="fill" to="#808080" begin="arrowRight.mouseover" end="arrowRight.mouseout"/>
                  </use>
                  <path fill="none" stroke="white" stroke-width="1.5" d="M0,-3.0v7 M-2.5,-0.5L0,-3.0L2.5,-0.5"/>
                </g>
                <g id="arrowDown" xlink:href="#dirArrow" transform="rotate(180) translate(-30 -48)" onmousedown="handlePan(0,1)">
                  <use xlink:href="#rim" fill="#404040">
                        <set attributeName="fill" to="#808080" begin="arrowDown.mouseover" end="arrowDown.mouseout"/>
                  </use>
                  <path fill="none" stroke="white" stroke-width="1.5" d="M0,-3.0v7 M-2.5,-0.5L0,-3.0L2.5,-0.5"/>
                </g>
                <g id="arrowLeft" xlink:href="#dirArrow" transform="rotate(270) translate(-36 17)" onmousedown="handlePan(-1,0)">
                  <use xlink:href="#rim" fill="#404040">
                        <set attributeName="fill" to="#808080" begin="arrowLeft.mouseover" end="arrowLeft.mouseout"/>
                  </use>
                  <path fill="none" stroke="white" stroke-width="1.5" d="M0,-3.0v7 M-2.5,-0.5L0,-3.0L2.5,-0.5"/>
                </g>
        </g>
        <svg viewBox="0 0 15 15" width="100%" height="30px" preserveAspectRatio="xMaxYMin meet">
         <g id="arrow_out" transform="scale(0.3 0.3)">
          <a xlink:href="a33338_org.svg" target="_base">
           <rect id="button" ry="5" rx="5" y="6" x="6" height="38" width="38"
                fill="#f2f5e9" fill-opacity="0.5" stroke="#606060" stroke-width="1.0"/>
           <path id="arrow"
             d="M 11.500037,31.436501 C 11.940474,20.09759 22.043105,11.32322 32.158766,21.979434 L 37.068811,17.246167 C 37.068811,17.246167 37.088388,32 37.088388,32 L 22.160133,31.978069 C 22.160133,31.978069 26.997745,27.140456 26.997745,27.140456 C 18.528582,18.264221 13.291696,25.230495 11.500037,31.436501 z"
             style="fill:#404040;"/>
          </a>
         </g>
        </svg>
</svg>
