<?xml version="1.0" encoding="UTF-8" standalone="no"?>
<!DOCTYPE svg PUBLIC "-//W3C//DTD SVG 1.1//EN"
 "http://www.w3.org/Graphics/SVG/1.1/DTD/svg11.dtd">
<!-- Generated by graphviz version 2.38.0 (20140413.2041)
 -->
<!-- Title: SDK::UMovieSceneMaterialTrack Pages: 1 -->
<svg width="160pt" height="298pt"
 viewBox="0.00 0.00 160.00 298.00" xmlns="http://www.w3.org/2000/svg" xmlns:xlink="http://www.w3.org/1999/xlink">
<g id="graph0" class="graph" transform="scale(1 1) rotate(0) translate(4 294)">
<title>SDK::UMovieSceneMaterialTrack</title>
<!-- Node1 -->
<g id="node1" class="node"><title>Node1</title>
<g id="a_node1"><a xlink:title=" ">
<polygon fill="#bfbfbf" stroke="black" points="7.5,-127.5 7.5,-195.5 144.5,-195.5 144.5,-127.5 7.5,-127.5"/>
<text text-anchor="start" x="15.5" y="-183.5" font-family="Helvetica,sans-Serif" font-size="10.00">SDK::UMovieSceneMaterial</text>
<text text-anchor="middle" x="76" y="-172.5" font-family="Helvetica,sans-Serif" font-size="10.00">Track</text>
<polyline fill="none" stroke="black" points="7.5,-165.5 144.5,-165.5 "/>
<text text-anchor="start" x="15.5" y="-153.5" font-family="Helvetica,sans-Serif" font-size="10.00">+ Sections</text>
<polyline fill="none" stroke="black" points="7.5,-146.5 144.5,-146.5 "/>
<text text-anchor="start" x="15.5" y="-134.5" font-family="Helvetica,sans-Serif" font-size="10.00">+ StaticClass()</text>
</a>
</g>
</g>
<!-- Node4 -->
<g id="node3" class="node"><title>Node4</title>
<g id="a_node3"><a xlink:href="a33327.html" target="_top" xlink:title=" ">
<polygon fill="none" stroke="black" points="0,-0.5 0,-90.5 152,-90.5 152,-0.5 0,-0.5"/>
<text text-anchor="start" x="8" y="-78.5" font-family="Helvetica,sans-Serif" font-size="10.00">SDK::UMovieSceneComponent</text>
<text text-anchor="middle" x="76" y="-67.5" font-family="Helvetica,sans-Serif" font-size="10.00">MaterialTrack</text>
<polyline fill="none" stroke="black" points="0,-60.5 152,-60.5 "/>
<text text-anchor="start" x="8" y="-48.5" font-family="Helvetica,sans-Serif" font-size="10.00">+ TrackName</text>
<text text-anchor="start" x="8" y="-37.5" font-family="Helvetica,sans-Serif" font-size="10.00">+ MaterialIndex</text>
<text text-anchor="start" x="8" y="-26.5" font-family="Helvetica,sans-Serif" font-size="10.00">+ UnknownData00</text>
<polyline fill="none" stroke="black" points="0,-19.5 152,-19.5 "/>
<text text-anchor="start" x="8" y="-7.5" font-family="Helvetica,sans-Serif" font-size="10.00">+ StaticClass()</text>
</a>
</g>
</g>
<!-- Node1&#45;&gt;Node4 -->
<g id="edge2" class="edge"><title>Node1&#45;&gt;Node4</title>
<path fill="none" stroke="midnightblue" d="M76,-116.972C76,-108.346 76,-99.2838 76,-90.6378"/>
<polygon fill="none" stroke="midnightblue" points="72.5001,-117.22 76,-127.22 79.5001,-117.22 72.5001,-117.22"/>
</g>
<!-- Node2 -->
<g id="node2" class="node"><title>Node2</title>
<g id="a_node2"><a xlink:href="a33223.html" target="_top" xlink:title=" ">
<polygon fill="none" stroke="red" points="13,-232.5 13,-289.5 139,-289.5 139,-232.5 13,-232.5"/>
<text text-anchor="middle" x="76" y="-277.5" font-family="Helvetica,sans-Serif" font-size="10.00">SDK::UMovieSceneTrack</text>
<polyline fill="none" stroke="red" points="13,-270.5 139,-270.5 "/>
<text text-anchor="middle" x="76" y="-258.5" font-family="Helvetica,sans-Serif" font-size="10.00"> </text>
<polyline fill="none" stroke="red" points="13,-251.5 139,-251.5 "/>
<text text-anchor="start" x="21" y="-239.5" font-family="Helvetica,sans-Serif" font-size="10.00">+ StaticClass()</text>
</a>
</g>
</g>
<!-- Node2&#45;&gt;Node1 -->
<g id="edge1" class="edge"><title>Node2&#45;&gt;Node1</title>
<path fill="none" stroke="midnightblue" d="M76,-222.063C76,-213.393 76,-204.243 76,-195.786"/>
<polygon fill="none" stroke="midnightblue" points="72.5001,-222.321 76,-232.321 79.5001,-222.321 72.5001,-222.321"/>
</g>
</g>
</svg>
