<?xml version="1.0" encoding="UTF-8" standalone="no"?>
<!DOCTYPE svg PUBLIC "-//W3C//DTD SVG 1.1//EN"
 "http://www.w3.org/Graphics/SVG/1.1/DTD/svg11.dtd">
<!-- Generated by graphviz version 2.38.0 (20140413.2041)
 -->
<!-- Title: SDK::UMovieSceneSkeletalAnimationSection Pages: 1 -->
<svg width="145pt" height="248pt"
 viewBox="0.00 0.00 145.00 248.00" xmlns="http://www.w3.org/2000/svg" xmlns:xlink="http://www.w3.org/1999/xlink">
<g id="graph0" class="graph" transform="scale(1 1) rotate(0) translate(4 244)">
<title>SDK::UMovieSceneSkeletalAnimationSection</title>
<!-- Node1 -->
<g id="node1" class="node"><title>Node1</title>
<g id="a_node1"><a xlink:title=" ">
<polygon fill="#bfbfbf" stroke="black" points="0,-0.5 0,-90.5 137,-90.5 137,-0.5 0,-0.5"/>
<text text-anchor="start" x="8" y="-78.5" font-family="Helvetica,sans-Serif" font-size="10.00">SDK::UMovieSceneSkeletal</text>
<text text-anchor="middle" x="68.5" y="-67.5" font-family="Helvetica,sans-Serif" font-size="10.00">AnimationSection</text>
<polyline fill="none" stroke="black" points="0,-60.5 137,-60.5 "/>
<text text-anchor="start" x="8" y="-48.5" font-family="Helvetica,sans-Serif" font-size="10.00">+ AnimSequence</text>
<text text-anchor="start" x="8" y="-37.5" font-family="Helvetica,sans-Serif" font-size="10.00">+ AnimationStartTime</text>
<text text-anchor="start" x="8" y="-26.5" font-family="Helvetica,sans-Serif" font-size="10.00">+ AnimationDilationFactor</text>
<polyline fill="none" stroke="black" points="0,-19.5 137,-19.5 "/>
<text text-anchor="start" x="8" y="-7.5" font-family="Helvetica,sans-Serif" font-size="10.00">+ StaticClass()</text>
</a>
</g>
</g>
<!-- Node2 -->
<g id="node2" class="node"><title>Node2</title>
<g id="a_node2"><a xlink:href="a33215.html" target="_top" xlink:title=" ">
<polygon fill="none" stroke="red" points="1,-127.5 1,-239.5 136,-239.5 136,-127.5 1,-127.5"/>
<text text-anchor="middle" x="68.5" y="-227.5" font-family="Helvetica,sans-Serif" font-size="10.00">SDK::UMovieSceneSection</text>
<polyline fill="none" stroke="red" points="1,-220.5 136,-220.5 "/>
<text text-anchor="start" x="9" y="-208.5" font-family="Helvetica,sans-Serif" font-size="10.00">+ StartTime</text>
<text text-anchor="start" x="9" y="-197.5" font-family="Helvetica,sans-Serif" font-size="10.00">+ EndTime</text>
<text text-anchor="start" x="9" y="-186.5" font-family="Helvetica,sans-Serif" font-size="10.00">+ RowIndex</text>
<text text-anchor="start" x="9" y="-175.5" font-family="Helvetica,sans-Serif" font-size="10.00">+ bIsActive</text>
<text text-anchor="start" x="9" y="-164.5" font-family="Helvetica,sans-Serif" font-size="10.00">+ bIsInfinite</text>
<text text-anchor="start" x="9" y="-153.5" font-family="Helvetica,sans-Serif" font-size="10.00">+ UnknownData00</text>
<polyline fill="none" stroke="red" points="1,-146.5 136,-146.5 "/>
<text text-anchor="start" x="9" y="-134.5" font-family="Helvetica,sans-Serif" font-size="10.00">+ StaticClass()</text>
</a>
</g>
</g>
<!-- Node2&#45;&gt;Node1 -->
<g id="edge1" class="edge"><title>Node2&#45;&gt;Node1</title>
<path fill="none" stroke="midnightblue" d="M68.5,-117.076C68.5,-108.072 68.5,-99.0069 68.5,-90.5144"/>
<polygon fill="none" stroke="midnightblue" points="65.0001,-117.184 68.5,-127.184 72.0001,-117.184 65.0001,-117.184"/>
</g>
</g>
</svg>
