<?xml version="1.0" encoding="UTF-8" standalone="no"?>
<!DOCTYPE svg PUBLIC "-//W3C//DTD SVG 1.1//EN"
 "http://www.w3.org/Graphics/SVG/1.1/DTD/svg11.dtd">
<!-- Generated by graphviz version 2.38.0 (20140413.2041)
 -->
<!-- Title: SDK::FHangoutSpotParams Pages: 1 -->
<svg width="480pt" height="226pt"
 viewBox="0.00 0.00 479.50 226.00" xmlns="http://www.w3.org/2000/svg" xmlns:xlink="http://www.w3.org/1999/xlink">
<g id="graph0" class="graph" transform="scale(1 1) rotate(0) translate(4 222)">
<title>SDK::FHangoutSpotParams</title>
<!-- Node1 -->
<g id="node1" class="node"><title>Node1</title>
<g id="a_node1"><a xlink:title=" ">
<polygon fill="#bfbfbf" stroke="black" points="224.5,-0.5 224.5,-57.5 363.5,-57.5 363.5,-0.5 224.5,-0.5"/>
<text text-anchor="middle" x="294" y="-45.5" font-family="Helvetica,sans-Serif" font-size="10.00">SDK::FHangoutSpotParams</text>
<polyline fill="none" stroke="black" points="224.5,-38.5 363.5,-38.5 "/>
<text text-anchor="middle" x="294" y="-26.5" font-family="Helvetica,sans-Serif" font-size="10.00"> </text>
<polyline fill="none" stroke="black" points="224.5,-19.5 363.5,-19.5 "/>
<text text-anchor="middle" x="294" y="-7.5" font-family="Helvetica,sans-Serif" font-size="10.00"> </text>
</a>
</g>
</g>
<!-- Node2 -->
<g id="node2" class="node"><title>Node2</title>
<g id="a_node2"><a xlink:href="a25611.html" target="_top" xlink:title=" ">
<polygon fill="none" stroke="black" points="0,-105.5 0,-217.5 166,-217.5 166,-105.5 0,-105.5"/>
<text text-anchor="start" x="8" y="-205.5" font-family="Helvetica,sans-Serif" font-size="10.00">SDK::TArray&lt; struct</text>
<text text-anchor="middle" x="83" y="-194.5" font-family="Helvetica,sans-Serif" font-size="10.00"> SDK::FPetHangoutSpotParams &gt;</text>
<polyline fill="none" stroke="black" points="0,-187.5 166,-187.5 "/>
<text text-anchor="middle" x="83" y="-175.5" font-family="Helvetica,sans-Serif" font-size="10.00"> </text>
<polyline fill="none" stroke="black" points="0,-168.5 166,-168.5 "/>
<text text-anchor="start" x="8" y="-156.5" font-family="Helvetica,sans-Serif" font-size="10.00">+ TArray()</text>
<text text-anchor="start" x="8" y="-145.5" font-family="Helvetica,sans-Serif" font-size="10.00">+ Num()</text>
<text text-anchor="start" x="8" y="-134.5" font-family="Helvetica,sans-Serif" font-size="10.00">+ operator[]()</text>
<text text-anchor="start" x="8" y="-123.5" font-family="Helvetica,sans-Serif" font-size="10.00">+ operator[]()</text>
<text text-anchor="start" x="8" y="-112.5" font-family="Helvetica,sans-Serif" font-size="10.00">+ IsValidIndex()</text>
</a>
</g>
</g>
<!-- Node2&#45;&gt;Node1 -->
<g id="edge1" class="edge"><title>Node2&#45;&gt;Node1</title>
<path fill="none" stroke="#404040" d="M134.88,-105.406C146.713,-94.7262 159.732,-84.2921 173,-76 185.283,-68.3231 199.052,-61.5959 212.778,-55.8269"/>
<polygon fill="none" stroke="#404040" points="213.132,-55.6846 217.206,-49.7345 224.265,-51.2065 220.191,-57.1566 213.132,-55.6846"/>
<text text-anchor="middle" x="202" y="-79" font-family="Helvetica,sans-Serif" font-size="10.00"> +PetParams</text>
</g>
<!-- Node3 -->
<g id="node3" class="node"><title>Node3</title>
<g id="a_node3"><a xlink:href="a25627.html" target="_top" xlink:title=" ">
<polygon fill="none" stroke="red" points="184,-105.5 184,-217.5 290,-217.5 290,-105.5 184,-105.5"/>
<text text-anchor="middle" x="237" y="-205.5" font-family="Helvetica,sans-Serif" font-size="10.00">SDK::FName</text>
<polyline fill="none" stroke="red" points="184,-198.5 290,-198.5 "/>
<text text-anchor="middle" x="237" y="-186.5" font-family="Helvetica,sans-Serif" font-size="10.00"> </text>
<polyline fill="none" stroke="red" points="184,-179.5 290,-179.5 "/>
<text text-anchor="start" x="192" y="-167.5" font-family="Helvetica,sans-Serif" font-size="10.00">+ FName()</text>
<text text-anchor="start" x="192" y="-156.5" font-family="Helvetica,sans-Serif" font-size="10.00">+ FName()</text>
<text text-anchor="start" x="192" y="-145.5" font-family="Helvetica,sans-Serif" font-size="10.00">+ FName()</text>
<text text-anchor="start" x="192" y="-134.5" font-family="Helvetica,sans-Serif" font-size="10.00">+ GetName()</text>
<text text-anchor="start" x="192" y="-123.5" font-family="Helvetica,sans-Serif" font-size="10.00">+ operator==()</text>
<text text-anchor="start" x="192" y="-112.5" font-family="Helvetica,sans-Serif" font-size="10.00">+ GetGlobalNames()</text>
</a>
</g>
</g>
<!-- Node3&#45;&gt;Node1 -->
<g id="edge2" class="edge"><title>Node3&#45;&gt;Node1</title>
<path fill="none" stroke="#404040" d="M230.842,-105.271C231.589,-95.1722 233.683,-84.9941 238,-76 239.531,-72.8098 241.402,-69.7654 243.519,-66.8731"/>
<polygon fill="none" stroke="#404040" points="243.668,-66.701 244.578,-59.5475 251.531,-57.6357 250.621,-64.7892 243.668,-66.701"/>
<text text-anchor="middle" x="283.5" y="-79" font-family="Helvetica,sans-Serif" font-size="10.00"> +HangoutSpotName</text>
</g>
<!-- Node6 -->
<g id="node4" class="node"><title>Node6</title>
<g id="a_node4"><a xlink:title=" ">
<polygon fill="none" stroke="#bfbfbf" points="333.5,-133 333.5,-190 368.5,-190 368.5,-133 333.5,-133"/>
<text text-anchor="middle" x="351" y="-178" font-family="Helvetica,sans-Serif" font-size="10.00">char</text>
<polyline fill="none" stroke="#bfbfbf" points="333.5,-171 368.5,-171 "/>
<text text-anchor="middle" x="351" y="-159" font-family="Helvetica,sans-Serif" font-size="10.00"> </text>
<polyline fill="none" stroke="#bfbfbf" points="333.5,-152 368.5,-152 "/>
<text text-anchor="middle" x="351" y="-140" font-family="Helvetica,sans-Serif" font-size="10.00"> </text>
</a>
</g>
</g>
<!-- Node6&#45;&gt;Node1 -->
<g id="edge3" class="edge"><title>Node6&#45;&gt;Node1</title>
<path fill="none" stroke="#404040" d="M346.674,-132.896C343.326,-115.899 337.75,-93.9957 329,-76 327.656,-73.2362 326.133,-70.4753 324.493,-67.7562"/>
<polygon fill="none" stroke="#404040" points="324.357,-67.5529 317.705,-64.7694 317.716,-57.5583 324.368,-60.3418 324.357,-67.5529"/>
<text text-anchor="middle" x="374" y="-79" font-family="Helvetica,sans-Serif" font-size="10.00"> +UnknownData00</text>
</g>
<!-- Node7 -->
<g id="node5" class="node"><title>Node7</title>
<g id="a_node5"><a xlink:title=" ">
<polygon fill="none" stroke="#bfbfbf" points="436.5,-133 436.5,-190 471.5,-190 471.5,-133 436.5,-133"/>
<text text-anchor="middle" x="454" y="-178" font-family="Helvetica,sans-Serif" font-size="10.00">float</text>
<polyline fill="none" stroke="#bfbfbf" points="436.5,-171 471.5,-171 "/>
<text text-anchor="middle" x="454" y="-159" font-family="Helvetica,sans-Serif" font-size="10.00"> </text>
<polyline fill="none" stroke="#bfbfbf" points="436.5,-152 471.5,-152 "/>
<text text-anchor="middle" x="454" y="-140" font-family="Helvetica,sans-Serif" font-size="10.00"> </text>
</a>
</g>
</g>
<!-- Node7&#45;&gt;Node1 -->
<g id="edge4" class="edge"><title>Node7&#45;&gt;Node1</title>
<path fill="none" stroke="#404040" d="M448.256,-132.871C443.143,-114.554 433.925,-91.1862 418,-76 405.899,-64.4604 390.648,-55.7637 375.019,-49.2262"/>
<polygon fill="none" stroke="#404040" points="374.811,-49.1463 367.775,-50.7253 363.611,-44.8378 370.647,-43.2588 374.811,-49.1463"/>
<text text-anchor="middle" x="447" y="-79" font-family="Helvetica,sans-Serif" font-size="10.00"> +Weight</text>
</g>
</g>
</svg>
