<?xml version="1.0" encoding="UTF-8" standalone="no"?>
<!DOCTYPE svg PUBLIC "-//W3C//DTD SVG 1.1//EN"
 "http://www.w3.org/Graphics/SVG/1.1/DTD/svg11.dtd">
<!-- Generated by graphviz version 2.38.0 (20140413.2041)
 -->
<!-- Title: SDK::UBTTask_SelectWanderFlyStrategy Pages: 1 -->
<svg width="167pt" height="215pt"
 viewBox="0.00 0.00 167.00 215.00" xmlns="http://www.w3.org/2000/svg" xmlns:xlink="http://www.w3.org/1999/xlink">
<g id="graph0" class="graph" transform="scale(1 1) rotate(0) translate(4 211)">
<title>SDK::UBTTask_SelectWanderFlyStrategy</title>
<!-- Node1 -->
<g id="node1" class="node"><title>Node1</title>
<g id="a_node1"><a xlink:title=" ">
<polygon fill="#bfbfbf" stroke="black" points="5,-0.5 5,-112.5 154,-112.5 154,-0.5 5,-0.5"/>
<text text-anchor="start" x="13" y="-100.5" font-family="Helvetica,sans-Serif" font-size="10.00">SDK::UBTTask_SelectWander</text>
<text text-anchor="middle" x="79.5" y="-89.5" font-family="Helvetica,sans-Serif" font-size="10.00">FlyStrategy</text>
<polyline fill="none" stroke="black" points="5,-82.5 154,-82.5 "/>
<text text-anchor="start" x="13" y="-70.5" font-family="Helvetica,sans-Serif" font-size="10.00">+ WanderRange</text>
<text text-anchor="start" x="13" y="-59.5" font-family="Helvetica,sans-Serif" font-size="10.00">+ LowFlyRange</text>
<text text-anchor="start" x="13" y="-48.5" font-family="Helvetica,sans-Serif" font-size="10.00">+ WanderStrategy</text>
<text text-anchor="start" x="13" y="-37.5" font-family="Helvetica,sans-Serif" font-size="10.00">+ LowFlyStrategy</text>
<text text-anchor="start" x="13" y="-26.5" font-family="Helvetica,sans-Serif" font-size="10.00">+ HighFlyStrategy</text>
<polyline fill="none" stroke="black" points="5,-19.5 154,-19.5 "/>
<text text-anchor="start" x="13" y="-7.5" font-family="Helvetica,sans-Serif" font-size="10.00">+ StaticClass()</text>
</a>
</g>
</g>
<!-- Node2 -->
<g id="node2" class="node"><title>Node2</title>
<g id="a_node2"><a xlink:href="a00839.html" target="_top" xlink:title=" ">
<polygon fill="none" stroke="red" points="0,-149.5 0,-206.5 159,-206.5 159,-149.5 0,-149.5"/>
<text text-anchor="middle" x="79.5" y="-194.5" font-family="Helvetica,sans-Serif" font-size="10.00">SDK::UBTTask_BlackboardBase</text>
<polyline fill="none" stroke="red" points="0,-187.5 159,-187.5 "/>
<text text-anchor="start" x="8" y="-175.5" font-family="Helvetica,sans-Serif" font-size="10.00">+ BlackboardKey</text>
<polyline fill="none" stroke="red" points="0,-168.5 159,-168.5 "/>
<text text-anchor="start" x="8" y="-156.5" font-family="Helvetica,sans-Serif" font-size="10.00">+ StaticClass()</text>
</a>
</g>
</g>
<!-- Node2&#45;&gt;Node1 -->
<g id="edge1" class="edge"><title>Node2&#45;&gt;Node1</title>
<path fill="none" stroke="midnightblue" d="M79.5,-139.108C79.5,-130.748 79.5,-121.725 79.5,-112.834"/>
<polygon fill="none" stroke="midnightblue" points="76.0001,-139.284 79.5,-149.284 83.0001,-139.284 76.0001,-139.284"/>
</g>
</g>
</svg>
