<?xml version="1.0" encoding="UTF-8" standalone="no"?>
<!DOCTYPE svg PUBLIC "-//W3C//DTD SVG 1.1//EN"
 "http://www.w3.org/Graphics/SVG/1.1/DTD/svg11.dtd">
<!-- Generated by graphviz version 2.38.0 (20140413.2041)
 -->
<!-- Title: SDK::FWieldablePetHungerAnimationData Pages: 1 -->
<svg width="362pt" height="259pt"
 viewBox="0.00 0.00 361.50 259.00" xmlns="http://www.w3.org/2000/svg" xmlns:xlink="http://www.w3.org/1999/xlink">
<g id="graph0" class="graph" transform="scale(1 1) rotate(0) translate(4 255)">
<title>SDK::FWieldablePetHungerAnimationData</title>
<!-- Node1 -->
<g id="node1" class="node"><title>Node1</title>
<g id="a_node1"><a xlink:title=" ">
<polygon fill="#bfbfbf" stroke="black" points="132,-0.5 132,-68.5 269,-68.5 269,-0.5 132,-0.5"/>
<text text-anchor="start" x="140" y="-56.5" font-family="Helvetica,sans-Serif" font-size="10.00">SDK::FWieldablePetHunger</text>
<text text-anchor="middle" x="200.5" y="-45.5" font-family="Helvetica,sans-Serif" font-size="10.00">AnimationData</text>
<polyline fill="none" stroke="black" points="132,-38.5 269,-38.5 "/>
<text text-anchor="middle" x="200.5" y="-26.5" font-family="Helvetica,sans-Serif" font-size="10.00"> </text>
<polyline fill="none" stroke="black" points="132,-19.5 269,-19.5 "/>
<text text-anchor="middle" x="200.5" y="-7.5" font-family="Helvetica,sans-Serif" font-size="10.00"> </text>
</a>
</g>
</g>
<!-- Node2 -->
<g id="node2" class="node"><title>Node2</title>
<g id="a_node2"><a xlink:href="a25635.html" target="_top" xlink:title=" ">
<polygon fill="none" stroke="black" points="0,-116.5 0,-250.5 165,-250.5 165,-116.5 0,-116.5"/>
<text text-anchor="start" x="8" y="-238.5" font-family="Helvetica,sans-Serif" font-size="10.00">SDK::TEnumAsByte&lt; EAthena</text>
<text text-anchor="middle" x="82.5" y="-227.5" font-family="Helvetica,sans-Serif" font-size="10.00">AnimationPetHeldReactionState &gt;</text>
<polyline fill="none" stroke="black" points="0,-220.5 165,-220.5 "/>
<text text-anchor="middle" x="82.5" y="-208.5" font-family="Helvetica,sans-Serif" font-size="10.00"> </text>
<polyline fill="none" stroke="black" points="0,-201.5 165,-201.5 "/>
<text text-anchor="start" x="8" y="-189.5" font-family="Helvetica,sans-Serif" font-size="10.00">+ TEnumAsByte()</text>
<text text-anchor="start" x="8" y="-178.5" font-family="Helvetica,sans-Serif" font-size="10.00">+ TEnumAsByte()</text>
<text text-anchor="start" x="8" y="-167.5" font-family="Helvetica,sans-Serif" font-size="10.00">+ TEnumAsByte()</text>
<text text-anchor="start" x="8" y="-156.5" font-family="Helvetica,sans-Serif" font-size="10.00">+ TEnumAsByte()</text>
<text text-anchor="start" x="8" y="-145.5" font-family="Helvetica,sans-Serif" font-size="10.00">+ operator EAthenaAnimation</text>
<text text-anchor="start" x="8" y="-134.5" font-family="Helvetica,sans-Serif" font-size="10.00">PetHeldReactionState()</text>
<text text-anchor="start" x="8" y="-123.5" font-family="Helvetica,sans-Serif" font-size="10.00">+ GetValue()</text>
</a>
</g>
</g>
<!-- Node2&#45;&gt;Node1 -->
<g id="edge1" class="edge"><title>Node2&#45;&gt;Node1</title>
<path fill="none" stroke="#404040" d="M119.664,-116.466C126.437,-106.236 133.812,-96.0673 141.5,-87 144.35,-83.6394 147.423,-80.3044 150.618,-77.0423"/>
<polygon fill="none" stroke="#404040" points="150.686,-76.9759 152.2,-69.9253 159.29,-68.6103 157.777,-75.6608 150.686,-76.9759"/>
<text text-anchor="middle" x="169" y="-90" font-family="Helvetica,sans-Serif" font-size="10.00"> +AnimState</text>
</g>
<!-- Node3 -->
<g id="node3" class="node"><title>Node3</title>
<g id="a_node3"><a xlink:title=" ">
<polygon fill="none" stroke="#bfbfbf" points="183,-155 183,-212 218,-212 218,-155 183,-155"/>
<text text-anchor="middle" x="200.5" y="-200" font-family="Helvetica,sans-Serif" font-size="10.00">float</text>
<polyline fill="none" stroke="#bfbfbf" points="183,-193 218,-193 "/>
<text text-anchor="middle" x="200.5" y="-181" font-family="Helvetica,sans-Serif" font-size="10.00"> </text>
<polyline fill="none" stroke="#bfbfbf" points="183,-174 218,-174 "/>
<text text-anchor="middle" x="200.5" y="-162" font-family="Helvetica,sans-Serif" font-size="10.00"> </text>
</a>
</g>
</g>
<!-- Node3&#45;&gt;Node1 -->
<g id="edge2" class="edge"><title>Node3&#45;&gt;Node1</title>
<path fill="none" stroke="#404040" d="M200.5,-154.85C200.5,-134.028 200.5,-105.032 200.5,-80.8349"/>
<polygon fill="none" stroke="#404040" points="200.5,-80.6873 196.5,-74.6873 200.5,-68.6873 204.5,-74.6873 200.5,-80.6873"/>
<text text-anchor="middle" x="234" y="-90" font-family="Helvetica,sans-Serif" font-size="10.00"> +AnimTimeout</text>
</g>
<!-- Node4 -->
<g id="node4" class="node"><title>Node4</title>
<g id="a_node4"><a xlink:title=" ">
<polygon fill="none" stroke="#bfbfbf" points="273,-155 273,-212 308,-212 308,-155 273,-155"/>
<text text-anchor="middle" x="290.5" y="-200" font-family="Helvetica,sans-Serif" font-size="10.00">char</text>
<polyline fill="none" stroke="#bfbfbf" points="273,-193 308,-193 "/>
<text text-anchor="middle" x="290.5" y="-181" font-family="Helvetica,sans-Serif" font-size="10.00"> </text>
<polyline fill="none" stroke="#bfbfbf" points="273,-174 308,-174 "/>
<text text-anchor="middle" x="290.5" y="-162" font-family="Helvetica,sans-Serif" font-size="10.00"> </text>
</a>
</g>
</g>
<!-- Node4&#45;&gt;Node1 -->
<g id="edge3" class="edge"><title>Node4&#45;&gt;Node1</title>
<path fill="none" stroke="#404040" d="M289.108,-154.618C286.962,-134.446 281.629,-107.281 268.5,-87 266.327,-83.6434 263.856,-80.422 261.174,-77.3446"/>
<polygon fill="none" stroke="#404040" points="260.97,-77.1353 253.915,-75.64 252.582,-68.5531 259.637,-70.0484 260.97,-77.1353"/>
<text text-anchor="middle" x="313.5" y="-90" font-family="Helvetica,sans-Serif" font-size="10.00"> +UnknownData00</text>
</g>
</g>
</svg>
