<?xml version="1.0" encoding="UTF-8" standalone="no"?>
<!DOCTYPE svg PUBLIC "-//W3C//DTD SVG 1.1//EN"
 "http://www.w3.org/Graphics/SVG/1.1/DTD/svg11.dtd">
<!-- Generated by graphviz version 2.38.0 (20140413.2041)
 -->
<!-- Title: SDK::FPetRefusedFoodTelemetryEvent Pages: 1 -->
<svg width="251pt" height="226pt"
 viewBox="0.00 0.00 250.50 226.00" xmlns="http://www.w3.org/2000/svg" xmlns:xlink="http://www.w3.org/1999/xlink">
<g id="graph0" class="graph" transform="scale(1 1) rotate(0) translate(4 222)">
<title>SDK::FPetRefusedFoodTelemetryEvent</title>
<!-- Node1 -->
<g id="node1" class="node"><title>Node1</title>
<g id="a_node1"><a xlink:title=" ">
<polygon fill="#bfbfbf" stroke="black" points="14.5,-0.5 14.5,-68.5 178.5,-68.5 178.5,-0.5 14.5,-0.5"/>
<text text-anchor="start" x="22.5" y="-56.5" font-family="Helvetica,sans-Serif" font-size="10.00">SDK::FPetRefusedFoodTelemetry</text>
<text text-anchor="middle" x="96.5" y="-45.5" font-family="Helvetica,sans-Serif" font-size="10.00">Event</text>
<polyline fill="none" stroke="black" points="14.5,-38.5 178.5,-38.5 "/>
<text text-anchor="middle" x="96.5" y="-26.5" font-family="Helvetica,sans-Serif" font-size="10.00"> </text>
<polyline fill="none" stroke="black" points="14.5,-19.5 178.5,-19.5 "/>
<text text-anchor="middle" x="96.5" y="-7.5" font-family="Helvetica,sans-Serif" font-size="10.00"> </text>
</a>
</g>
</g>
<!-- Node2 -->
<g id="node2" class="node"><title>Node2</title>
<g id="a_node2"><a xlink:href="a26071.html" target="_top" xlink:title=" ">
<polygon fill="none" stroke="red" points="0,-116.5 0,-217.5 73,-217.5 73,-116.5 0,-116.5"/>
<text text-anchor="middle" x="36.5" y="-205.5" font-family="Helvetica,sans-Serif" font-size="10.00">SDK::FGuid</text>
<polyline fill="none" stroke="red" points="0,-198.5 73,-198.5 "/>
<text text-anchor="middle" x="36.5" y="-186.5" font-family="Helvetica,sans-Serif" font-size="10.00"> </text>
<polyline fill="none" stroke="red" points="0,-179.5 73,-179.5 "/>
<text text-anchor="start" x="8" y="-167.5" font-family="Helvetica,sans-Serif" font-size="10.00">+ FGuid()</text>
<text text-anchor="start" x="8" y="-156.5" font-family="Helvetica,sans-Serif" font-size="10.00">+ FGuid()</text>
<text text-anchor="start" x="8" y="-145.5" font-family="Helvetica,sans-Serif" font-size="10.00">+ operator()()</text>
<text text-anchor="start" x="8" y="-134.5" font-family="Helvetica,sans-Serif" font-size="10.00">+ operator[]()</text>
<text text-anchor="start" x="8" y="-123.5" font-family="Helvetica,sans-Serif" font-size="10.00">+ operator[]()</text>
</a>
</g>
</g>
<!-- Node2&#45;&gt;Node1 -->
<g id="edge1" class="edge"><title>Node2&#45;&gt;Node1</title>
<path fill="none" stroke="#404040" d="M30.8863,-116.126C31.4653,-106.136 33.3569,-95.9647 37.5,-87 38.8957,-83.98 40.5636,-81.0669 42.4389,-78.2677"/>
<polygon fill="none" stroke="#404040" points="42.5949,-78.0696 43.1661,-70.8811 50.0213,-68.6435 49.4501,-75.832 42.5949,-78.0696"/>
<text text-anchor="middle" x="86" y="-90" font-family="Helvetica,sans-Serif" font-size="10.00"> +FeedingInteractionId</text>
</g>
<!-- Node4 -->
<g id="node3" class="node"><title>Node4</title>
<g id="a_node3"><a xlink:href="a25631.html" target="_top" xlink:title=" ">
<polygon fill="none" stroke="red" points="119.5,-116.5 119.5,-217.5 193.5,-217.5 193.5,-116.5 119.5,-116.5"/>
<text text-anchor="middle" x="156.5" y="-205.5" font-family="Helvetica,sans-Serif" font-size="10.00">SDK::FString</text>
<polyline fill="none" stroke="red" points="119.5,-198.5 193.5,-198.5 "/>
<text text-anchor="middle" x="156.5" y="-186.5" font-family="Helvetica,sans-Serif" font-size="10.00"> </text>
<polyline fill="none" stroke="red" points="119.5,-179.5 193.5,-179.5 "/>
<text text-anchor="start" x="127.5" y="-167.5" font-family="Helvetica,sans-Serif" font-size="10.00">+ FString()</text>
<text text-anchor="start" x="127.5" y="-156.5" font-family="Helvetica,sans-Serif" font-size="10.00">+ FString()</text>
<text text-anchor="start" x="127.5" y="-145.5" font-family="Helvetica,sans-Serif" font-size="10.00">+ IsValid()</text>
<text text-anchor="start" x="127.5" y="-134.5" font-family="Helvetica,sans-Serif" font-size="10.00">+ c_str()</text>
<text text-anchor="start" x="127.5" y="-123.5" font-family="Helvetica,sans-Serif" font-size="10.00">+ ToString()</text>
</a>
</g>
</g>
<!-- Node4&#45;&gt;Node1 -->
<g id="edge2" class="edge"><title>Node4&#45;&gt;Node1</title>
<path fill="none" stroke="#404040" d="M145.578,-116.094C142.595,-106.209 138.93,-96.086 134.5,-87 133.179,-84.2909 131.712,-81.5776 130.143,-78.8916"/>
<polygon fill="none" stroke="#404040" points="130.125,-78.8625 123.532,-75.942 123.692,-68.7326 130.285,-71.6532 130.125,-78.8625"/>
<text text-anchor="middle" x="191" y="-90" font-family="Helvetica,sans-Serif" font-size="10.00"> +TryingToFeedPlayerId</text>
</g>
</g>
</svg>
