<?xml version="1.0" encoding="UTF-8" standalone="no"?>
<!DOCTYPE svg PUBLIC "-//W3C//DTD SVG 1.1//EN"
 "http://www.w3.org/Graphics/SVG/1.1/DTD/svg11.dtd">
<!-- Generated by graphviz version 2.38.0 (20140413.2041)
 -->
<!-- Title: SDK::FEventPetFed Pages: 1 -->
<svg width="381pt" height="424pt"
 viewBox="0.00 0.00 380.50 424.00" xmlns="http://www.w3.org/2000/svg" xmlns:xlink="http://www.w3.org/1999/xlink">
<g id="graph0" class="graph" transform="scale(1 1) rotate(0) translate(4 420)">
<title>SDK::FEventPetFed</title>
<!-- Node1 -->
<g id="node1" class="node"><title>Node1</title>
<g id="a_node1"><a xlink:title=" ">
<polygon fill="#bfbfbf" stroke="black" points="64,-0.5 64,-57.5 168,-57.5 168,-0.5 64,-0.5"/>
<text text-anchor="middle" x="116" y="-45.5" font-family="Helvetica,sans-Serif" font-size="10.00">SDK::FEventPetFed</text>
<polyline fill="none" stroke="black" points="64,-38.5 168,-38.5 "/>
<text text-anchor="middle" x="116" y="-26.5" font-family="Helvetica,sans-Serif" font-size="10.00"> </text>
<polyline fill="none" stroke="black" points="64,-19.5 168,-19.5 "/>
<text text-anchor="middle" x="116" y="-7.5" font-family="Helvetica,sans-Serif" font-size="10.00"> </text>
</a>
</g>
</g>
<!-- Node2 -->
<g id="node2" class="node"><title>Node2</title>
<g id="a_node2"><a xlink:href="a33879.html" target="_top" xlink:title=" ">
<polygon fill="none" stroke="red" points="0,-237.5 0,-294.5 132,-294.5 132,-237.5 0,-237.5"/>
<text text-anchor="middle" x="66" y="-282.5" font-family="Helvetica,sans-Serif" font-size="10.00">SDK::FEventPetFoodBase</text>
<polyline fill="none" stroke="red" points="0,-275.5 132,-275.5 "/>
<text text-anchor="middle" x="66" y="-263.5" font-family="Helvetica,sans-Serif" font-size="10.00"> </text>
<polyline fill="none" stroke="red" points="0,-256.5 132,-256.5 "/>
<text text-anchor="middle" x="66" y="-244.5" font-family="Helvetica,sans-Serif" font-size="10.00"> </text>
</a>
</g>
</g>
<!-- Node2&#45;&gt;Node1 -->
<g id="edge1" class="edge"><title>Node2&#45;&gt;Node1</title>
<path fill="none" stroke="midnightblue" d="M74.0296,-227.261C84.0959,-179.949 101.115,-99.9585 110.076,-57.8441"/>
<polygon fill="none" stroke="midnightblue" points="70.5898,-226.61 71.932,-237.12 77.4365,-228.067 70.5898,-226.61"/>
</g>
<!-- Node5 -->
<g id="node3" class="node"><title>Node5</title>
<g id="a_node3"><a xlink:href="a26555.html" target="_top" xlink:title=" ">
<polygon fill="none" stroke="red" points="150.5,-116.5 150.5,-415.5 317.5,-415.5 317.5,-116.5 150.5,-116.5"/>
<text text-anchor="middle" x="234" y="-403.5" font-family="Helvetica,sans-Serif" font-size="10.00">SDK::AActor</text>
<polyline fill="none" stroke="red" points="150.5,-396.5 317.5,-396.5 "/>
<text text-anchor="start" x="158.5" y="-384.5" font-family="Helvetica,sans-Serif" font-size="10.00">+ bAllowRemovalFromServerWhen</text>
<text text-anchor="start" x="158.5" y="-373.5" font-family="Helvetica,sans-Serif" font-size="10.00">CollisionMerged</text>
<text text-anchor="start" x="158.5" y="-362.5" font-family="Helvetica,sans-Serif" font-size="10.00">+ bHidden</text>
<text text-anchor="start" x="158.5" y="-351.5" font-family="Helvetica,sans-Serif" font-size="10.00">+ bNetStartup</text>
<text text-anchor="start" x="158.5" y="-340.5" font-family="Helvetica,sans-Serif" font-size="10.00">+ bOnlyRelevantToOwner</text>
<text text-anchor="start" x="158.5" y="-329.5" font-family="Helvetica,sans-Serif" font-size="10.00">+ bAlwaysRelevant</text>
<text text-anchor="start" x="158.5" y="-318.5" font-family="Helvetica,sans-Serif" font-size="10.00">+ bReplicateMovement</text>
<text text-anchor="start" x="158.5" y="-307.5" font-family="Helvetica,sans-Serif" font-size="10.00">+ bExchangedRoles</text>
<text text-anchor="start" x="158.5" y="-296.5" font-family="Helvetica,sans-Serif" font-size="10.00">+ bNetLoadOnClient</text>
<text text-anchor="start" x="158.5" y="-285.5" font-family="Helvetica,sans-Serif" font-size="10.00">+ bBlockInput</text>
<text text-anchor="start" x="158.5" y="-274.5" font-family="Helvetica,sans-Serif" font-size="10.00">+ UnknownData00</text>
<text text-anchor="start" x="158.5" y="-263.5" font-family="Helvetica,sans-Serif" font-size="10.00">and 26 more...</text>
<polyline fill="none" stroke="red" points="150.5,-256.5 317.5,-256.5 "/>
<text text-anchor="start" x="158.5" y="-244.5" font-family="Helvetica,sans-Serif" font-size="10.00">+ UserConstructionScript()</text>
<text text-anchor="start" x="158.5" y="-233.5" font-family="Helvetica,sans-Serif" font-size="10.00">+ TearOff()</text>
<text text-anchor="start" x="158.5" y="-222.5" font-family="Helvetica,sans-Serif" font-size="10.00">+ SnapRootComponentTo()</text>
<text text-anchor="start" x="158.5" y="-211.5" font-family="Helvetica,sans-Serif" font-size="10.00">+ SetTickGroup()</text>
<text text-anchor="start" x="158.5" y="-200.5" font-family="Helvetica,sans-Serif" font-size="10.00">+ SetTickableWhenPaused()</text>
<text text-anchor="start" x="158.5" y="-189.5" font-family="Helvetica,sans-Serif" font-size="10.00">+ SetReplicates()</text>
<text text-anchor="start" x="158.5" y="-178.5" font-family="Helvetica,sans-Serif" font-size="10.00">+ SetReplicateMovement()</text>
<text text-anchor="start" x="158.5" y="-167.5" font-family="Helvetica,sans-Serif" font-size="10.00">+ SetOwner()</text>
<text text-anchor="start" x="158.5" y="-156.5" font-family="Helvetica,sans-Serif" font-size="10.00">+ SetLifeSpan()</text>
<text text-anchor="start" x="158.5" y="-145.5" font-family="Helvetica,sans-Serif" font-size="10.00">+ SetIgnoreNetTransformUpdates()</text>
<text text-anchor="start" x="158.5" y="-134.5" font-family="Helvetica,sans-Serif" font-size="10.00">and 109 more...</text>
<text text-anchor="start" x="158.5" y="-123.5" font-family="Helvetica,sans-Serif" font-size="10.00">+ StaticClass()</text>
</a>
</g>
</g>
<!-- Node5&#45;&gt;Node1 -->
<g id="edge2" class="edge"><title>Node5&#45;&gt;Node1</title>
<path fill="none" stroke="#404040" d="M159.269,-116.171C150.55,-98.8072 142.326,-82.4281 135.436,-68.7075"/>
<polygon fill="none" stroke="#404040" points="135.366,-68.5681 129.099,-65.0011 129.981,-57.8441 136.248,-61.4112 135.366,-68.5681"/>
<text text-anchor="middle" x="183" y="-90" font-family="Helvetica,sans-Serif" font-size="10.00"> +FedWithActor</text>
<text text-anchor="middle" x="183" y="-79" font-family="Helvetica,sans-Serif" font-size="10.00">+FeedingActor</text>
</g>
<!-- Node5&#45;&gt;Node5 -->
<g id="edge3" class="edge"><title>Node5&#45;&gt;Node5</title>
<path fill="none" stroke="#404040" d="M317.62,-295.25C328.387,-290.178 335.5,-280.428 335.5,-266 335.5,-256.757 332.581,-249.434 327.652,-244.031"/>
<polygon fill="none" stroke="#404040" points="327.332,-243.799 320.127,-243.512 317.62,-236.75 324.826,-237.037 327.332,-243.799"/>
<text text-anchor="middle" x="354" y="-263.5" font-family="Helvetica,sans-Serif" font-size="10.00"> +Owner</text>
</g>
</g>
</svg>
