<?xml version="1.0" encoding="UTF-8" standalone="no"?>
<!DOCTYPE svg PUBLIC "-//W3C//DTD SVG 1.1//EN"
 "http://www.w3.org/Graphics/SVG/1.1/DTD/svg11.dtd">
<!-- Generated by graphviz version 2.38.0 (20140413.2041)
 -->
<!-- Title: SDK::UPirateBodyShapeFunctionLibrary Pages: 1 -->
<svg width="178pt" height="226pt"
 viewBox="0.00 0.00 178.00 226.00" xmlns="http://www.w3.org/2000/svg" xmlns:xlink="http://www.w3.org/1999/xlink">
<g id="graph0" class="graph" transform="scale(1 1) rotate(0) translate(4 222)">
<title>SDK::UPirateBodyShapeFunctionLibrary</title>
<!-- Node1 -->
<g id="node1" class="node"><title>Node1</title>
<g id="a_node1"><a xlink:title=" ">
<polygon fill="#bfbfbf" stroke="black" points="0,-0.5 0,-123.5 170,-123.5 170,-0.5 0,-0.5"/>
<text text-anchor="start" x="8" y="-111.5" font-family="Helvetica,sans-Serif" font-size="10.00">SDK::UPirateBodyShapeFunction</text>
<text text-anchor="middle" x="85" y="-100.5" font-family="Helvetica,sans-Serif" font-size="10.00">Library</text>
<polyline fill="none" stroke="black" points="0,-93.5 170,-93.5 "/>
<text text-anchor="middle" x="85" y="-81.5" font-family="Helvetica,sans-Serif" font-size="10.00"> </text>
<polyline fill="none" stroke="black" points="0,-74.5 170,-74.5 "/>
<text text-anchor="start" x="8" y="-62.5" font-family="Helvetica,sans-Serif" font-size="10.00">+ StaticClass()</text>
<text text-anchor="start" x="8" y="-51.5" font-family="Helvetica,sans-Serif" font-size="10.00">+ GetHighestWeighted()</text>
<text text-anchor="start" x="8" y="-40.5" font-family="Helvetica,sans-Serif" font-size="10.00">+ FindBodyBlendsFromBodyShape</text>
<text text-anchor="start" x="8" y="-29.5" font-family="Helvetica,sans-Serif" font-size="10.00">WheelRadialCoordinate()</text>
<text text-anchor="start" x="8" y="-18.5" font-family="Helvetica,sans-Serif" font-size="10.00">+ ConvertToRadialCoordinate()</text>
<text text-anchor="start" x="8" y="-7.5" font-family="Helvetica,sans-Serif" font-size="10.00">+ ConvertFromRadialCoordinate()</text>
</a>
</g>
</g>
<!-- Node2 -->
<g id="node2" class="node"><title>Node2</title>
<g id="a_node2"><a xlink:href="a26351.html" target="_top" xlink:title=" ">
<polygon fill="none" stroke="red" points="7.5,-160.5 7.5,-217.5 162.5,-217.5 162.5,-160.5 7.5,-160.5"/>
<text text-anchor="middle" x="85" y="-205.5" font-family="Helvetica,sans-Serif" font-size="10.00">SDK::UBlueprintFunctionLibrary</text>
<polyline fill="none" stroke="red" points="7.5,-198.5 162.5,-198.5 "/>
<text text-anchor="middle" x="85" y="-186.5" font-family="Helvetica,sans-Serif" font-size="10.00"> </text>
<polyline fill="none" stroke="red" points="7.5,-179.5 162.5,-179.5 "/>
<text text-anchor="start" x="15.5" y="-167.5" font-family="Helvetica,sans-Serif" font-size="10.00">+ StaticClass()</text>
</a>
</g>
</g>
<!-- Node2&#45;&gt;Node1 -->
<g id="edge1" class="edge"><title>Node2&#45;&gt;Node1</title>
<path fill="none" stroke="midnightblue" d="M85,-150.099C85,-141.739 85,-132.68 85,-123.672"/>
<polygon fill="none" stroke="midnightblue" points="81.5001,-150.258 85,-160.258 88.5001,-150.258 81.5001,-150.258"/>
</g>
</g>
</svg>
