<?xml version="1.0" encoding="UTF-8" standalone="no"?>
<!DOCTYPE svg PUBLIC "-//W3C//DTD SVG 1.1//EN"
 "http://www.w3.org/Graphics/SVG/1.1/DTD/svg11.dtd">
<!-- Generated by graphviz version 2.38.0 (20140413.2041)
 -->
<!-- Title: SDK::UAnimNotifyState_WwiseSound Pages: 1 -->
<svg width="133pt" height="237pt"
 viewBox="0.00 0.00 133.00 237.00" xmlns="http://www.w3.org/2000/svg" xmlns:xlink="http://www.w3.org/1999/xlink">
<g id="graph0" class="graph" transform="scale(1 1) rotate(0) translate(4 233)">
<title>SDK::UAnimNotifyState_WwiseSound</title>
<!-- Node1 -->
<g id="node1" class="node"><title>Node1</title>
<g id="a_node1"><a xlink:title=" ">
<polygon fill="#bfbfbf" stroke="black" points="2.5,-0.5 2.5,-90.5 122.5,-90.5 122.5,-0.5 2.5,-0.5"/>
<text text-anchor="start" x="10.5" y="-78.5" font-family="Helvetica,sans-Serif" font-size="10.00">SDK::UAnimNotifyState</text>
<text text-anchor="middle" x="62.5" y="-67.5" font-family="Helvetica,sans-Serif" font-size="10.00">_WwiseSound</text>
<polyline fill="none" stroke="black" points="2.5,-60.5 122.5,-60.5 "/>
<text text-anchor="start" x="10.5" y="-48.5" font-family="Helvetica,sans-Serif" font-size="10.00">+ WwiseEvent</text>
<text text-anchor="start" x="10.5" y="-37.5" font-family="Helvetica,sans-Serif" font-size="10.00">+ WwiseEventEnd</text>
<text text-anchor="start" x="10.5" y="-26.5" font-family="Helvetica,sans-Serif" font-size="10.00">+ UnknownData00</text>
<polyline fill="none" stroke="black" points="2.5,-19.5 122.5,-19.5 "/>
<text text-anchor="start" x="10.5" y="-7.5" font-family="Helvetica,sans-Serif" font-size="10.00">+ StaticClass()</text>
</a>
</g>
</g>
<!-- Node2 -->
<g id="node2" class="node"><title>Node2</title>
<g id="a_node2"><a xlink:href="a26587.html" target="_top" xlink:title=" ">
<polygon fill="none" stroke="red" points="0,-127.5 0,-228.5 125,-228.5 125,-127.5 0,-127.5"/>
<text text-anchor="middle" x="62.5" y="-216.5" font-family="Helvetica,sans-Serif" font-size="10.00">SDK::UAnimNotifyState</text>
<polyline fill="none" stroke="red" points="0,-209.5 125,-209.5 "/>
<text text-anchor="middle" x="62.5" y="-197.5" font-family="Helvetica,sans-Serif" font-size="10.00"> </text>
<polyline fill="none" stroke="red" points="0,-190.5 125,-190.5 "/>
<text text-anchor="start" x="8" y="-178.5" font-family="Helvetica,sans-Serif" font-size="10.00">+ Received_NotifyTick()</text>
<text text-anchor="start" x="8" y="-167.5" font-family="Helvetica,sans-Serif" font-size="10.00">+ Received_NotifyEnd()</text>
<text text-anchor="start" x="8" y="-156.5" font-family="Helvetica,sans-Serif" font-size="10.00">+ Received_NotifyBegin()</text>
<text text-anchor="start" x="8" y="-145.5" font-family="Helvetica,sans-Serif" font-size="10.00">+ GetNotifyName()</text>
<text text-anchor="start" x="8" y="-134.5" font-family="Helvetica,sans-Serif" font-size="10.00">+ StaticClass()</text>
</a>
</g>
</g>
<!-- Node2&#45;&gt;Node1 -->
<g id="edge1" class="edge"><title>Node2&#45;&gt;Node1</title>
<path fill="none" stroke="midnightblue" d="M62.5,-117.232C62.5,-108.236 62.5,-99.1012 62.5,-90.5165"/>
<polygon fill="none" stroke="midnightblue" points="59.0001,-117.291 62.5,-127.291 66.0001,-117.291 59.0001,-117.291"/>
</g>
</g>
</svg>
