<?xml version="1.0" encoding="UTF-8" standalone="no"?>
<!DOCTYPE svg PUBLIC "-//W3C//DTD SVG 1.1//EN"
 "http://www.w3.org/Graphics/SVG/1.1/DTD/svg11.dtd">
<!-- Generated by graphviz version 2.38.0 (20140413.2041)
 -->
<!-- Title: SDK::UStaticMeshAudioDataAsset Pages: 1 -->
<svg width="308pt" height="237pt"
 viewBox="0.00 0.00 307.50 237.00" xmlns="http://www.w3.org/2000/svg" xmlns:xlink="http://www.w3.org/1999/xlink">
<g id="graph0" class="graph" transform="scale(1 1) rotate(0) translate(4 233)">
<title>SDK::UStaticMeshAudioDataAsset</title>
<!-- Node1 -->
<g id="node1" class="node"><title>Node1</title>
<g id="a_node1"><a xlink:title=" ">
<polygon fill="#bfbfbf" stroke="black" points="54.5,-0.5 54.5,-68.5 198.5,-68.5 198.5,-0.5 54.5,-0.5"/>
<text text-anchor="start" x="62.5" y="-56.5" font-family="Helvetica,sans-Serif" font-size="10.00">SDK::UStaticMeshAudioData</text>
<text text-anchor="middle" x="126.5" y="-45.5" font-family="Helvetica,sans-Serif" font-size="10.00">Asset</text>
<polyline fill="none" stroke="black" points="54.5,-38.5 198.5,-38.5 "/>
<text text-anchor="middle" x="126.5" y="-26.5" font-family="Helvetica,sans-Serif" font-size="10.00"> </text>
<polyline fill="none" stroke="black" points="54.5,-19.5 198.5,-19.5 "/>
<text text-anchor="start" x="62.5" y="-7.5" font-family="Helvetica,sans-Serif" font-size="10.00">+ StaticClass()</text>
</a>
</g>
</g>
<!-- Node2 -->
<g id="node2" class="node"><title>Node2</title>
<g id="a_node2"><a xlink:href="a26559.html" target="_top" xlink:title=" ">
<polygon fill="none" stroke="red" points="0,-144 0,-201 95,-201 95,-144 0,-144"/>
<text text-anchor="middle" x="47.5" y="-189" font-family="Helvetica,sans-Serif" font-size="10.00">SDK::UDataAsset</text>
<polyline fill="none" stroke="red" points="0,-182 95,-182 "/>
<text text-anchor="middle" x="47.5" y="-170" font-family="Helvetica,sans-Serif" font-size="10.00"> </text>
<polyline fill="none" stroke="red" points="0,-163 95,-163 "/>
<text text-anchor="start" x="8" y="-151" font-family="Helvetica,sans-Serif" font-size="10.00">+ StaticClass()</text>
</a>
</g>
</g>
<!-- Node2&#45;&gt;Node1 -->
<g id="edge1" class="edge"><title>Node2&#45;&gt;Node1</title>
<path fill="none" stroke="midnightblue" d="M68.6,-135.176C80.5938,-114.528 95.5021,-88.8635 107.187,-68.7476"/>
<polygon fill="none" stroke="midnightblue" points="65.4833,-133.573 63.4868,-143.978 71.5362,-137.089 65.4833,-133.573"/>
</g>
<!-- Node14 -->
<g id="node3" class="node"><title>Node14</title>
<g id="a_node3"><a xlink:href="a25823.html" target="_top" xlink:title=" ">
<polygon fill="none" stroke="black" points="113.5,-116.5 113.5,-228.5 299.5,-228.5 299.5,-116.5 113.5,-116.5"/>
<text text-anchor="start" x="121.5" y="-216.5" font-family="Helvetica,sans-Serif" font-size="10.00">SDK::TArray&lt; struct</text>
<text text-anchor="middle" x="206.5" y="-205.5" font-family="Helvetica,sans-Serif" font-size="10.00"> SDK::FStaticMeshAudioAssociation &gt;</text>
<polyline fill="none" stroke="black" points="113.5,-198.5 299.5,-198.5 "/>
<text text-anchor="middle" x="206.5" y="-186.5" font-family="Helvetica,sans-Serif" font-size="10.00"> </text>
<polyline fill="none" stroke="black" points="113.5,-179.5 299.5,-179.5 "/>
<text text-anchor="start" x="121.5" y="-167.5" font-family="Helvetica,sans-Serif" font-size="10.00">+ TArray()</text>
<text text-anchor="start" x="121.5" y="-156.5" font-family="Helvetica,sans-Serif" font-size="10.00">+ Num()</text>
<text text-anchor="start" x="121.5" y="-145.5" font-family="Helvetica,sans-Serif" font-size="10.00">+ operator[]()</text>
<text text-anchor="start" x="121.5" y="-134.5" font-family="Helvetica,sans-Serif" font-size="10.00">+ operator[]()</text>
<text text-anchor="start" x="121.5" y="-123.5" font-family="Helvetica,sans-Serif" font-size="10.00">+ IsValidIndex()</text>
</a>
</g>
</g>
<!-- Node14&#45;&gt;Node1 -->
<g id="edge2" class="edge"><title>Node14&#45;&gt;Node1</title>
<path fill="none" stroke="#404040" d="M173.961,-116.184C166.675,-103.797 159.046,-90.8278 152.088,-79.0002"/>
<polygon fill="none" stroke="#404040" points="152.001,-78.8518 145.511,-75.7083 145.917,-68.5086 152.407,-71.6521 152.001,-78.8518"/>
<text text-anchor="middle" x="225" y="-90" font-family="Helvetica,sans-Serif" font-size="10.00"> +MeshToAudioAssociations</text>
</g>
</g>
</svg>
