<?xml version="1.0" encoding="UTF-8" standalone="no"?>
<!DOCTYPE svg PUBLIC "-//W3C//DTD SVG 1.1//EN"
 "http://www.w3.org/Graphics/SVG/1.1/DTD/svg11.dtd">
<!-- Generated by graphviz version 2.38.0 (20140413.2041)
 -->
<!-- Title: SDK::URetractorComponent Pages: 1 -->
<!--zoomable 975 -->
<svg id="main" version="1.1" xmlns="http://www.w3.org/2000/svg" xmlns:xlink="http://www.w3.org/1999/xlink" xml:space="preserve" onload="init(evt)">
<style type="text/css"><![CDATA[
.edge:hover path { stroke: red; }
.edge:hover polygon { stroke: red; fill: red; }
]]></style>
<script type="text/javascript"><![CDATA[
var edges = document.getElementsByTagName('g');
if (edges && edges.length) {
  for (var i=0;i<edges.length;i++) {
    if (edges[i].id.substr(0,4)=='edge') {
      edges[i].setAttribute('class','edge');
    }
  }
}
]]></script>
        <defs>
                <circle id="rim" cx="0" cy="0" r="7"/>
                <circle id="rim2" cx="0" cy="0" r="3.5"/>
                <g id="zoomPlus">
                        <use xlink:href="#rim" fill="#404040">
                                <set attributeName="fill" to="#808080" begin="zoomplus.mouseover" end="zoomplus.mouseout"/>
                        </use>
                        <path d="M-4,0h8M0,-4v8" fill="none" stroke="white" stroke-width="1.5" pointer-events="none"/>
                </g>
                <g id="zoomMin">
                        <use xlink:href="#rim" fill="#404040">
                                <set attributeName="fill" to="#808080" begin="zoomminus.mouseover" end="zoomminus.mouseout"/>
                        </use>
                        <path d="M-4,0h8" fill="none" stroke="white" stroke-width="1.5" pointer-events="none"/>
                </g>
                <g id="dirArrow">
                        <path fill="none" stroke="white" stroke-width="1.5" d="M0,-3.0v7 M-2.5,-0.5L0,-3.0L2.5,-0.5"/>
                </g>
               <g id="resetDef">
                       <use xlink:href="#rim2" fill="#404040">
                               <set attributeName="fill" to="#808080" begin="reset.mouseover" end="reset.mouseout"/>
                       </use>
               </g>
        </defs>

<script type="text/javascript">
var viewWidth = 589;
var viewHeight = 975;
var sectionId = 'dynsection-1';
</script>
<script xlink:href="svgpan.js"/>
<svg id="graph" class="graph">
<g id="viewport">
<title>SDK::URetractorComponent</title>
<!-- Node1 -->
<g id="node1" class="node"><title>Node1</title>
<g id="a_node1"><a xlink:title=" ">
<polygon fill="#bfbfbf" stroke="black" points="61.6942,-0.5 61.6942,-57.5 200.694,-57.5 200.694,-0.5 61.6942,-0.5"/>
<text text-anchor="middle" x="131.194" y="-45.5" font-family="Helvetica,sans-Serif" font-size="10.00">SDK::URetractorComponent</text>
<polyline fill="none" stroke="black" points="61.6942,-38.5 200.694,-38.5 "/>
<text text-anchor="middle" x="131.194" y="-26.5" font-family="Helvetica,sans-Serif" font-size="10.00"> </text>
<polyline fill="none" stroke="black" points="61.6942,-19.5 200.694,-19.5 "/>
<text text-anchor="start" x="69.6942" y="-7.5" font-family="Helvetica,sans-Serif" font-size="10.00">+ StaticClass()</text>
</a>
</g>
</g>
<!-- Node2 -->
<g id="node2" class="node"><title>Node2</title>
<g id="a_node2"><a xlink:href="a26551.html" target="_top" xlink:title=" ">
<polygon fill="none" stroke="red" points="27.6942,-496.5 27.6942,-740.5 212.694,-740.5 212.694,-496.5 27.6942,-496.5"/>
<text text-anchor="middle" x="120.194" y="-728.5" font-family="Helvetica,sans-Serif" font-size="10.00">SDK::UActorComponent</text>
<polyline fill="none" stroke="red" points="27.6942,-721.5 212.694,-721.5 "/>
<text text-anchor="start" x="35.6942" y="-709.5" font-family="Helvetica,sans-Serif" font-size="10.00">+ UnknownData00</text>
<text text-anchor="start" x="35.6942" y="-698.5" font-family="Helvetica,sans-Serif" font-size="10.00">+ bReplicates</text>
<text text-anchor="start" x="35.6942" y="-687.5" font-family="Helvetica,sans-Serif" font-size="10.00">+ bNetAddressable</text>
<text text-anchor="start" x="35.6942" y="-676.5" font-family="Helvetica,sans-Serif" font-size="10.00">+ bInstanceComponent</text>
<text text-anchor="start" x="35.6942" y="-665.5" font-family="Helvetica,sans-Serif" font-size="10.00">+ bAutoActivate</text>
<text text-anchor="start" x="35.6942" y="-654.5" font-family="Helvetica,sans-Serif" font-size="10.00">+ bIsActive</text>
<text text-anchor="start" x="35.6942" y="-643.5" font-family="Helvetica,sans-Serif" font-size="10.00">+ bNeedsLoadForServer</text>
<polyline fill="none" stroke="red" points="27.6942,-636.5 212.694,-636.5 "/>
<text text-anchor="start" x="35.6942" y="-624.5" font-family="Helvetica,sans-Serif" font-size="10.00">+ ToggleActive()</text>
<text text-anchor="start" x="35.6942" y="-613.5" font-family="Helvetica,sans-Serif" font-size="10.00">+ SetTickGroup()</text>
<text text-anchor="start" x="35.6942" y="-602.5" font-family="Helvetica,sans-Serif" font-size="10.00">+ SetTickableWhenPaused()</text>
<text text-anchor="start" x="35.6942" y="-591.5" font-family="Helvetica,sans-Serif" font-size="10.00">+ SetIsReplicated()</text>
<text text-anchor="start" x="35.6942" y="-580.5" font-family="Helvetica,sans-Serif" font-size="10.00">+ SetComponentTickEnabled()</text>
<text text-anchor="start" x="35.6942" y="-569.5" font-family="Helvetica,sans-Serif" font-size="10.00">+ SetActive()</text>
<text text-anchor="start" x="35.6942" y="-558.5" font-family="Helvetica,sans-Serif" font-size="10.00">+ RemoveTickPrerequisiteComponent()</text>
<text text-anchor="start" x="35.6942" y="-547.5" font-family="Helvetica,sans-Serif" font-size="10.00">+ RemoveTickPrerequisiteActor()</text>
<text text-anchor="start" x="35.6942" y="-536.5" font-family="Helvetica,sans-Serif" font-size="10.00">+ ReceiveTick()</text>
<text text-anchor="start" x="35.6942" y="-525.5" font-family="Helvetica,sans-Serif" font-size="10.00">+ ReceiveEndPlay()</text>
<text text-anchor="start" x="35.6942" y="-514.5" font-family="Helvetica,sans-Serif" font-size="10.00">and 12 more...</text>
<text text-anchor="start" x="35.6942" y="-503.5" font-family="Helvetica,sans-Serif" font-size="10.00">+ StaticClass()</text>
</a>
</g>
</g>
<!-- Node2&#45;&gt;Node1 -->
<g id="edge1" class="edge"><title>Node2&#45;&gt;Node1</title>
<path fill="none" stroke="midnightblue" d="M110.001,-486.32C104.141,-384.924 100.232,-241.207 113.194,-116 115.236,-96.2751 119.846,-74.4062 123.889,-57.6573"/>
<polygon fill="none" stroke="midnightblue" points="106.507,-486.531 110.592,-496.307 113.495,-486.117 106.507,-486.531"/>
</g>
<!-- Node22 -->
<g id="node4" class="node"><title>Node22</title>
<g id="a_node4"><a xlink:href="a26575.html" target="_top" xlink:title=" ">
<polygon fill="none" stroke="red" points="122.194,-116.5 122.194,-426.5 298.194,-426.5 298.194,-116.5 122.194,-116.5"/>
<text text-anchor="middle" x="210.194" y="-414.5" font-family="Helvetica,sans-Serif" font-size="10.00">SDK::USceneComponent</text>
<polyline fill="none" stroke="red" points="122.194,-407.5 298.194,-407.5 "/>
<text text-anchor="start" x="130.194" y="-395.5" font-family="Helvetica,sans-Serif" font-size="10.00">+ bAbsoluteLocation</text>
<text text-anchor="start" x="130.194" y="-384.5" font-family="Helvetica,sans-Serif" font-size="10.00">+ bAbsoluteTranslation</text>
<text text-anchor="start" x="130.194" y="-373.5" font-family="Helvetica,sans-Serif" font-size="10.00">+ bAbsoluteRotation</text>
<text text-anchor="start" x="130.194" y="-362.5" font-family="Helvetica,sans-Serif" font-size="10.00">+ bShouldUpdatePhysicsVolume</text>
<text text-anchor="start" x="130.194" y="-351.5" font-family="Helvetica,sans-Serif" font-size="10.00">+ bBoundsChangeTriggersStreaming</text>
<text text-anchor="start" x="130.194" y="-340.5" font-family="Helvetica,sans-Serif" font-size="10.00">DataRebuild</text>
<text text-anchor="start" x="130.194" y="-329.5" font-family="Helvetica,sans-Serif" font-size="10.00">+ bUseAttachParentBound</text>
<text text-anchor="start" x="130.194" y="-318.5" font-family="Helvetica,sans-Serif" font-size="10.00">+ UnknownData00</text>
<text text-anchor="start" x="130.194" y="-307.5" font-family="Helvetica,sans-Serif" font-size="10.00">+ CacheRootVelocity</text>
<text text-anchor="start" x="130.194" y="-296.5" font-family="Helvetica,sans-Serif" font-size="10.00">+ bWorldToComponentUpdated</text>
<text text-anchor="start" x="130.194" y="-285.5" font-family="Helvetica,sans-Serif" font-size="10.00">+ UnknownData05</text>
<text text-anchor="start" x="130.194" y="-274.5" font-family="Helvetica,sans-Serif" font-size="10.00">+ UnknownData06</text>
<text text-anchor="start" x="130.194" y="-263.5" font-family="Helvetica,sans-Serif" font-size="10.00">+ UnknownData07</text>
<polyline fill="none" stroke="red" points="122.194,-256.5 298.194,-256.5 "/>
<text text-anchor="start" x="130.194" y="-244.5" font-family="Helvetica,sans-Serif" font-size="10.00">+ ToggleVisibility()</text>
<text text-anchor="start" x="130.194" y="-233.5" font-family="Helvetica,sans-Serif" font-size="10.00">+ SnapTo()</text>
<text text-anchor="start" x="130.194" y="-222.5" font-family="Helvetica,sans-Serif" font-size="10.00">+ SharesBasis()</text>
<text text-anchor="start" x="130.194" y="-211.5" font-family="Helvetica,sans-Serif" font-size="10.00">+ SetWorldScale3D()</text>
<text text-anchor="start" x="130.194" y="-200.5" font-family="Helvetica,sans-Serif" font-size="10.00">+ SetVisibility()</text>
<text text-anchor="start" x="130.194" y="-189.5" font-family="Helvetica,sans-Serif" font-size="10.00">+ SetRelativeScale3D()</text>
<text text-anchor="start" x="130.194" y="-178.5" font-family="Helvetica,sans-Serif" font-size="10.00">+ SetHiddenInGame()</text>
<text text-anchor="start" x="130.194" y="-167.5" font-family="Helvetica,sans-Serif" font-size="10.00">+ SetAbsolute()</text>
<text text-anchor="start" x="130.194" y="-156.5" font-family="Helvetica,sans-Serif" font-size="10.00">+ ResetRelativeTransform()</text>
<text text-anchor="start" x="130.194" y="-145.5" font-family="Helvetica,sans-Serif" font-size="10.00">+ OnRep_Visibility()</text>
<text text-anchor="start" x="130.194" y="-134.5" font-family="Helvetica,sans-Serif" font-size="10.00">and 45 more...</text>
<text text-anchor="start" x="130.194" y="-123.5" font-family="Helvetica,sans-Serif" font-size="10.00">+ StaticClass()</text>
</a>
</g>
</g>
<!-- Node2&#45;&gt;Node22 -->
<g id="edge5" class="edge"><title>Node2&#45;&gt;Node22</title>
<path fill="none" stroke="midnightblue" d="M154.365,-486.51C159.466,-466.957 164.765,-446.646 169.977,-426.668"/>
<polygon fill="none" stroke="midnightblue" points="150.936,-485.791 151.798,-496.351 157.709,-487.558 150.936,-485.791"/>
</g>
<!-- Node12 -->
<g id="node3" class="node"><title>Node12</title>
<g id="a_node3"><a xlink:title=" ">
<polygon fill="none" stroke="#bfbfbf" points="102.694,-909.5 102.694,-966.5 137.694,-966.5 137.694,-909.5 102.694,-909.5"/>
<text text-anchor="middle" x="120.194" y="-954.5" font-family="Helvetica,sans-Serif" font-size="10.00">char</text>
<polyline fill="none" stroke="#bfbfbf" points="102.694,-947.5 137.694,-947.5 "/>
<text text-anchor="middle" x="120.194" y="-935.5" font-family="Helvetica,sans-Serif" font-size="10.00"> </text>
<polyline fill="none" stroke="#bfbfbf" points="102.694,-928.5 137.694,-928.5 "/>
<text text-anchor="middle" x="120.194" y="-916.5" font-family="Helvetica,sans-Serif" font-size="10.00"> </text>
</a>
</g>
</g>
<!-- Node12&#45;&gt;Node1 -->
<g id="edge3" class="edge"><title>Node12&#45;&gt;Node1</title>
<path fill="none" stroke="#404040" d="M102.49,-912.573C77.878,-876.948 34.5106,-807.697 18.1942,-741 -43.5682,-488.529 69.5762,-177.068 114.221,-69.0523"/>
<polygon fill="none" stroke="#404040" points="114.308,-68.8457 112.934,-61.7666 118.94,-57.7761 120.314,-64.8552 114.308,-68.8457"/>
<text text-anchor="middle" x="49.1942" y="-470" font-family="Helvetica,sans-Serif" font-size="10.00"> +UnknownData01</text>
<text text-anchor="middle" x="49.1942" y="-459" font-family="Helvetica,sans-Serif" font-size="10.00">+UnknownData02</text>
<text text-anchor="middle" x="49.1942" y="-448" font-family="Helvetica,sans-Serif" font-size="10.00">+UnknownData00</text>
</g>
<!-- Node12&#45;&gt;Node2 -->
<g id="edge2" class="edge"><title>Node12&#45;&gt;Node2</title>
<path fill="none" stroke="#404040" d="M120.194,-909.379C120.194,-874.307 120.194,-811.325 120.194,-753.008"/>
<polygon fill="none" stroke="#404040" points="120.194,-752.646 116.194,-746.646 120.194,-740.646 124.194,-746.646 120.194,-752.646"/>
<text text-anchor="middle" x="176.194" y="-883" font-family="Helvetica,sans-Serif" font-size="10.00"> +UnknownData01</text>
<text text-anchor="middle" x="176.194" y="-872" font-family="Helvetica,sans-Serif" font-size="10.00">+UnknownData02</text>
<text text-anchor="middle" x="176.194" y="-861" font-family="Helvetica,sans-Serif" font-size="10.00">+UnknownData03</text>
<text text-anchor="middle" x="176.194" y="-850" font-family="Helvetica,sans-Serif" font-size="10.00">+UnknownData04</text>
<text text-anchor="middle" x="176.194" y="-839" font-family="Helvetica,sans-Serif" font-size="10.00">+UnknownData05</text>
<text text-anchor="start" x="120.194" y="-828" font-family="Helvetica,sans-Serif" font-size="10.00">+bCreatedByConstruction</text>
<text text-anchor="middle" x="176.194" y="-817" font-family="Helvetica,sans-Serif" font-size="10.00">Script</text>
<text text-anchor="middle" x="176.194" y="-806" font-family="Helvetica,sans-Serif" font-size="10.00">+UnknownData06</text>
<text text-anchor="middle" x="176.194" y="-795" font-family="Helvetica,sans-Serif" font-size="10.00">+UnknownData07</text>
<text text-anchor="middle" x="176.194" y="-784" font-family="Helvetica,sans-Serif" font-size="10.00">+bEditableWhenInherited</text>
<text text-anchor="middle" x="176.194" y="-773" font-family="Helvetica,sans-Serif" font-size="10.00">+bNeedsLoadForClient</text>
<text text-anchor="middle" x="176.194" y="-762" font-family="Helvetica,sans-Serif" font-size="10.00">...</text>
</g>
<!-- Node12&#45;&gt;Node22 -->
<g id="edge6" class="edge"><title>Node12&#45;&gt;Node22</title>
<path fill="none" stroke="#404040" d="M137.966,-935.815C164.385,-932.985 213.254,-923.407 235.194,-891 324.601,-758.943 301.954,-572.157 267.12,-438.466"/>
<polygon fill="none" stroke="#404040" points="267.023,-438.105 261.614,-433.336 263.935,-426.509 269.344,-431.277 267.023,-438.105"/>
<text text-anchor="middle" x="367.694" y="-671" font-family="Helvetica,sans-Serif" font-size="10.00"> +UnknownData01</text>
<text text-anchor="middle" x="367.694" y="-660" font-family="Helvetica,sans-Serif" font-size="10.00">+UnknownData02</text>
<text text-anchor="middle" x="367.694" y="-649" font-family="Helvetica,sans-Serif" font-size="10.00">+bComponentIsUnionOfChildren</text>
<text text-anchor="middle" x="367.694" y="-638" font-family="Helvetica,sans-Serif" font-size="10.00">+UnknownData03</text>
<text text-anchor="middle" x="367.694" y="-627" font-family="Helvetica,sans-Serif" font-size="10.00">+bJitterReduction</text>
<text text-anchor="middle" x="367.694" y="-616" font-family="Helvetica,sans-Serif" font-size="10.00">+bAbsoluteScale</text>
<text text-anchor="middle" x="367.694" y="-605" font-family="Helvetica,sans-Serif" font-size="10.00">+bRequiresCustomLocation</text>
<text text-anchor="middle" x="367.694" y="-594" font-family="Helvetica,sans-Serif" font-size="10.00">+UnknownData04</text>
<text text-anchor="middle" x="367.694" y="-583" font-family="Helvetica,sans-Serif" font-size="10.00">+bHiddenInGame</text>
<text text-anchor="middle" x="367.694" y="-572" font-family="Helvetica,sans-Serif" font-size="10.00">+bVisible</text>
<text text-anchor="middle" x="367.694" y="-561" font-family="Helvetica,sans-Serif" font-size="10.00">...</text>
</g>
<!-- Node22&#45;&gt;Node1 -->
<g id="edge4" class="edge"><title>Node22&#45;&gt;Node1</title>
<path fill="none" stroke="#404040" d="M159.603,-116.486C153.972,-99.3429 148.668,-83.1959 144.202,-69.6004"/>
<polygon fill="none" stroke="#404040" points="144.096,-69.2774 138.424,-64.8254 140.351,-57.8767 146.024,-62.3287 144.096,-69.2774"/>
<text text-anchor="middle" x="221.194" y="-90" font-family="Helvetica,sans-Serif" font-size="10.00"> +RetractingComponent</text>
<text text-anchor="middle" x="221.194" y="-79" font-family="Helvetica,sans-Serif" font-size="10.00">+RetractDestinationComponent</text>
</g>
<!-- Node22&#45;&gt;Node22 -->
<g id="edge7" class="edge"><title>Node22&#45;&gt;Node22</title>
<path fill="none" stroke="#404040" d="M298.328,-301.348C309.12,-296.004 316.194,-286.055 316.194,-271.5 316.194,-261.948 313.147,-254.38 308.003,-248.795"/>
<polygon fill="none" stroke="#404040" points="307.982,-248.78 300.779,-248.433 298.328,-241.652 305.531,-241.998 307.982,-248.78"/>
<text text-anchor="middle" x="349.694" y="-269" font-family="Helvetica,sans-Serif" font-size="10.00"> +AttachParent</text>
</g>
<!-- Node31 -->
<g id="node5" class="node"><title>Node31</title>
<g id="a_node5"><a xlink:href="a25855.html" target="_top" xlink:title=" ">
<polygon fill="none" stroke="red" points="401.194,-226.5 401.194,-316.5 581.194,-316.5 581.194,-226.5 401.194,-226.5"/>
<text text-anchor="start" x="409.194" y="-304.5" font-family="Helvetica,sans-Serif" font-size="10.00">SDK::TScriptInterface</text>
<text text-anchor="middle" x="491.194" y="-293.5" font-family="Helvetica,sans-Serif" font-size="10.00">&lt; class SDK::URetractableInterface &gt;</text>
<polyline fill="none" stroke="red" points="401.194,-286.5 581.194,-286.5 "/>
<text text-anchor="middle" x="491.194" y="-274.5" font-family="Helvetica,sans-Serif" font-size="10.00"> </text>
<polyline fill="none" stroke="red" points="401.194,-267.5 581.194,-267.5 "/>
<text text-anchor="start" x="409.194" y="-255.5" font-family="Helvetica,sans-Serif" font-size="10.00">+ operator&#45;&gt;()</text>
<text text-anchor="start" x="409.194" y="-244.5" font-family="Helvetica,sans-Serif" font-size="10.00">+ operator*()</text>
<text text-anchor="start" x="409.194" y="-233.5" font-family="Helvetica,sans-Serif" font-size="10.00">+ operator bool()</text>
</a>
</g>
</g>
<!-- Node31&#45;&gt;Node1 -->
<g id="edge8" class="edge"><title>Node31&#45;&gt;Node1</title>
<path fill="none" stroke="#404040" d="M472.067,-226.235C455.345,-192.086 428.116,-145.796 392.194,-116 341.135,-73.6477 268.543,-51.9317 212.872,-40.9291"/>
<polygon fill="none" stroke="#404040" points="212.699,-40.8966 206.062,-43.7174 200.906,-38.6763 207.543,-35.8555 212.699,-40.8966"/>
<text text-anchor="middle" x="411.194" y="-84.5" font-family="Helvetica,sans-Serif" font-size="10.00"> +AttachedRetractable</text>
</g>
</g>
</svg>
        <g id="navigator" transform="translate(0 0)" fill="#404254">
                <rect fill="#f2f5e9" fill-opacity="0.5" stroke="#606060" stroke-width=".5" x="0" y="0" width="60" height="60"/>
                <use id="zoomplus" xlink:href="#zoomPlus" x="17" y="9" onmousedown="handleZoom(evt,'in')"/>
                <use id="zoomminus" xlink:href="#zoomMin" x="42" y="9" onmousedown="handleZoom(evt,'out')"/>
                <use id="reset" xlink:href="#resetDef" x="30" y="36" onmousedown="handleReset()"/>
                <g id="arrowUp" xlink:href="#dirArrow" transform="translate(30 24)" onmousedown="handlePan(0,-1)">
                  <use xlink:href="#rim" fill="#404040">
                        <set attributeName="fill" to="#808080" begin="arrowUp.mouseover" end="arrowUp.mouseout"/>
                  </use>
                  <path fill="none" stroke="white" stroke-width="1.5" d="M0,-3.0v7 M-2.5,-0.5L0,-3.0L2.5,-0.5"/>
                </g>
                <g id="arrowRight" xlink:href="#dirArrow" transform="rotate(90) translate(36 -43)" onmousedown="handlePan(1,0)">
                  <use xlink:href="#rim" fill="#404040">
                        <set attributeName="fill" to="#808080" begin="arrowRight.mouseover" end="arrowRight.mouseout"/>
                  </use>
                  <path fill="none" stroke="white" stroke-width="1.5" d="M0,-3.0v7 M-2.5,-0.5L0,-3.0L2.5,-0.5"/>
                </g>
                <g id="arrowDown" xlink:href="#dirArrow" transform="rotate(180) translate(-30 -48)" onmousedown="handlePan(0,1)">
                  <use xlink:href="#rim" fill="#404040">
                        <set attributeName="fill" to="#808080" begin="arrowDown.mouseover" end="arrowDown.mouseout"/>
                  </use>
                  <path fill="none" stroke="white" stroke-width="1.5" d="M0,-3.0v7 M-2.5,-0.5L0,-3.0L2.5,-0.5"/>
                </g>
                <g id="arrowLeft" xlink:href="#dirArrow" transform="rotate(270) translate(-36 17)" onmousedown="handlePan(-1,0)">
                  <use xlink:href="#rim" fill="#404040">
                        <set attributeName="fill" to="#808080" begin="arrowLeft.mouseover" end="arrowLeft.mouseout"/>
                  </use>
                  <path fill="none" stroke="white" stroke-width="1.5" d="M0,-3.0v7 M-2.5,-0.5L0,-3.0L2.5,-0.5"/>
                </g>
        </g>
        <svg viewBox="0 0 15 15" width="100%" height="30px" preserveAspectRatio="xMaxYMin meet">
         <g id="arrow_out" transform="scale(0.3 0.3)">
          <a xlink:href="a34561_org.svg" target="_base">
           <rect id="button" ry="5" rx="5" y="6" x="6" height="38" width="38"
                fill="#f2f5e9" fill-opacity="0.5" stroke="#606060" stroke-width="1.0"/>
           <path id="arrow"
             d="M 11.500037,31.436501 C 11.940474,20.09759 22.043105,11.32322 32.158766,21.979434 L 37.068811,17.246167 C 37.068811,17.246167 37.088388,32 37.088388,32 L 22.160133,31.978069 C 22.160133,31.978069 26.997745,27.140456 26.997745,27.140456 C 18.528582,18.264221 13.291696,25.230495 11.500037,31.436501 z"
             style="fill:#404040;"/>
          </a>
         </g>
        </svg>
</svg>
