<?xml version="1.0" encoding="UTF-8" standalone="no"?>
<!DOCTYPE svg PUBLIC "-//W3C//DTD SVG 1.1//EN"
 "http://www.w3.org/Graphics/SVG/1.1/DTD/svg11.dtd">
<!-- Generated by graphviz version 2.38.0 (20140413.2041)
 -->
<!-- Title: SDK::FNavigationEvent Pages: 1 -->
<svg width="217pt" height="266pt"
 viewBox="0.00 0.00 216.50 266.00" xmlns="http://www.w3.org/2000/svg" xmlns:xlink="http://www.w3.org/1999/xlink">
<g id="graph0" class="graph" transform="scale(1 1) rotate(0) translate(4 262)">
<title>SDK::FNavigationEvent</title>
<!-- Node1 -->
<g id="node1" class="node"><title>Node1</title>
<g id="a_node1"><a xlink:title=" ">
<polygon fill="#bfbfbf" stroke="black" points="0,-0.5 0,-57.5 117,-57.5 117,-0.5 0,-0.5"/>
<text text-anchor="middle" x="58.5" y="-45.5" font-family="Helvetica,sans-Serif" font-size="10.00">SDK::FNavigationEvent</text>
<polyline fill="none" stroke="black" points="0,-38.5 117,-38.5 "/>
<text text-anchor="middle" x="58.5" y="-26.5" font-family="Helvetica,sans-Serif" font-size="10.00"> </text>
<polyline fill="none" stroke="black" points="0,-19.5 117,-19.5 "/>
<text text-anchor="middle" x="58.5" y="-7.5" font-family="Helvetica,sans-Serif" font-size="10.00"> </text>
</a>
</g>
</g>
<!-- Node2 -->
<g id="node2" class="node"><title>Node2</title>
<g id="a_node2"><a xlink:href="a34483.html" target="_top" xlink:title=" ">
<polygon fill="none" stroke="black" points="114.5,-95.5 114.5,-152.5 208.5,-152.5 208.5,-95.5 114.5,-95.5"/>
<text text-anchor="middle" x="161.5" y="-140.5" font-family="Helvetica,sans-Serif" font-size="10.00">SDK::FInputEvent</text>
<polyline fill="none" stroke="black" points="114.5,-133.5 208.5,-133.5 "/>
<text text-anchor="middle" x="161.5" y="-121.5" font-family="Helvetica,sans-Serif" font-size="10.00"> </text>
<polyline fill="none" stroke="black" points="114.5,-114.5 208.5,-114.5 "/>
<text text-anchor="middle" x="161.5" y="-102.5" font-family="Helvetica,sans-Serif" font-size="10.00"> </text>
</a>
</g>
</g>
<!-- Node2&#45;&gt;Node1 -->
<g id="edge1" class="edge"><title>Node2&#45;&gt;Node1</title>
<path fill="none" stroke="midnightblue" d="M123.268,-88.48C112.029,-78.3324 99.886,-67.3679 89.1844,-57.7053"/>
<polygon fill="none" stroke="midnightblue" points="121.108,-91.2449 130.875,-95.3487 125.799,-86.0493 121.108,-91.2449"/>
</g>
<!-- Node3 -->
<g id="node3" class="node"><title>Node3</title>
<g id="a_node3"><a xlink:title=" ">
<polygon fill="none" stroke="#bfbfbf" points="43,-200.5 43,-257.5 78,-257.5 78,-200.5 43,-200.5"/>
<text text-anchor="middle" x="60.5" y="-245.5" font-family="Helvetica,sans-Serif" font-size="10.00">char</text>
<polyline fill="none" stroke="#bfbfbf" points="43,-238.5 78,-238.5 "/>
<text text-anchor="middle" x="60.5" y="-226.5" font-family="Helvetica,sans-Serif" font-size="10.00"> </text>
<polyline fill="none" stroke="#bfbfbf" points="43,-219.5 78,-219.5 "/>
<text text-anchor="middle" x="60.5" y="-207.5" font-family="Helvetica,sans-Serif" font-size="10.00"> </text>
</a>
</g>
</g>
<!-- Node3&#45;&gt;Node1 -->
<g id="edge3" class="edge"><title>Node3&#45;&gt;Node1</title>
<path fill="none" stroke="#404040" d="M43.9701,-200.194C36.7647,-186.489 29.1411,-169.413 25.5,-153 19.917,-127.834 19.5006,-120.07 25.5,-95 27.6504,-86.014 31.2582,-76.8669 35.3173,-68.3813"/>
<polygon fill="none" stroke="#404040" points="35.3357,-68.3455 34.5258,-61.18 40.8286,-57.6765 41.6385,-64.842 35.3357,-68.3455"/>
<text text-anchor="middle" x="65.5" y="-121.5" font-family="Helvetica,sans-Serif" font-size="10.00"> +UnknownData00</text>
</g>
<!-- Node3&#45;&gt;Node2 -->
<g id="edge2" class="edge"><title>Node3&#45;&gt;Node2</title>
<path fill="none" stroke="#404040" d="M78.0929,-210.059C91.1591,-196.734 109.431,-178.1 125.544,-161.668"/>
<polygon fill="none" stroke="#404040" points="125.824,-161.382 127.169,-154.297 134.226,-152.814 132.881,-159.899 125.824,-161.382"/>
<text text-anchor="middle" x="153.5" y="-174" font-family="Helvetica,sans-Serif" font-size="10.00"> +UnknownData00</text>
</g>
</g>
</svg>
