<?xml version="1.0" encoding="UTF-8" standalone="no"?>
<!DOCTYPE svg PUBLIC "-//W3C//DTD SVG 1.1//EN"
 "http://www.w3.org/Graphics/SVG/1.1/DTD/svg11.dtd">
<!-- Generated by graphviz version 2.38.0 (20140413.2041)
 -->
<!-- Title: SDK::FTypefaceEntry Pages: 1 -->
<svg width="222pt" height="226pt"
 viewBox="0.00 0.00 221.50 226.00" xmlns="http://www.w3.org/2000/svg" xmlns:xlink="http://www.w3.org/1999/xlink">
<g id="graph0" class="graph" transform="scale(1 1) rotate(0) translate(4 222)">
<title>SDK::FTypefaceEntry</title>
<!-- Node1 -->
<g id="node1" class="node"><title>Node1</title>
<g id="a_node1"><a xlink:title=" ">
<polygon fill="#bfbfbf" stroke="black" points="55.5,-0.5 55.5,-57.5 166.5,-57.5 166.5,-0.5 55.5,-0.5"/>
<text text-anchor="middle" x="111" y="-45.5" font-family="Helvetica,sans-Serif" font-size="10.00">SDK::FTypefaceEntry</text>
<polyline fill="none" stroke="black" points="55.5,-38.5 166.5,-38.5 "/>
<text text-anchor="middle" x="111" y="-26.5" font-family="Helvetica,sans-Serif" font-size="10.00"> </text>
<polyline fill="none" stroke="black" points="55.5,-19.5 166.5,-19.5 "/>
<text text-anchor="middle" x="111" y="-7.5" font-family="Helvetica,sans-Serif" font-size="10.00"> </text>
</a>
</g>
</g>
<!-- Node2 -->
<g id="node2" class="node"><title>Node2</title>
<g id="a_node2"><a xlink:href="a25839.html" target="_top" xlink:title=" ">
<polygon fill="none" stroke="red" points="0,-105.5 0,-217.5 106,-217.5 106,-105.5 0,-105.5"/>
<text text-anchor="middle" x="53" y="-205.5" font-family="Helvetica,sans-Serif" font-size="10.00">SDK::FName</text>
<polyline fill="none" stroke="red" points="0,-198.5 106,-198.5 "/>
<text text-anchor="middle" x="53" y="-186.5" font-family="Helvetica,sans-Serif" font-size="10.00"> </text>
<polyline fill="none" stroke="red" points="0,-179.5 106,-179.5 "/>
<text text-anchor="start" x="8" y="-167.5" font-family="Helvetica,sans-Serif" font-size="10.00">+ FName()</text>
<text text-anchor="start" x="8" y="-156.5" font-family="Helvetica,sans-Serif" font-size="10.00">+ FName()</text>
<text text-anchor="start" x="8" y="-145.5" font-family="Helvetica,sans-Serif" font-size="10.00">+ FName()</text>
<text text-anchor="start" x="8" y="-134.5" font-family="Helvetica,sans-Serif" font-size="10.00">+ GetName()</text>
<text text-anchor="start" x="8" y="-123.5" font-family="Helvetica,sans-Serif" font-size="10.00">+ operator==()</text>
<text text-anchor="start" x="8" y="-112.5" font-family="Helvetica,sans-Serif" font-size="10.00">+ GetGlobalNames()</text>
</a>
</g>
</g>
<!-- Node2&#45;&gt;Node1 -->
<g id="edge1" class="edge"><title>Node2&#45;&gt;Node1</title>
<path fill="none" stroke="#404040" d="M77.5972,-105.156C83.0051,-92.9884 88.6222,-80.3501 93.6724,-68.9872"/>
<polygon fill="none" stroke="#404040" points="93.8238,-68.6464 92.6054,-61.539 98.6975,-57.6807 99.9159,-64.7881 93.8238,-68.6464"/>
<text text-anchor="middle" x="106.5" y="-79" font-family="Helvetica,sans-Serif" font-size="10.00"> +Name</text>
</g>
<!-- Node5 -->
<g id="node3" class="node"><title>Node5</title>
<g id="a_node3"><a xlink:href="a34763.html" target="_top" xlink:title=" ">
<polygon fill="none" stroke="red" points="124.5,-133 124.5,-190 213.5,-190 213.5,-133 124.5,-133"/>
<text text-anchor="middle" x="169" y="-178" font-family="Helvetica,sans-Serif" font-size="10.00">SDK::FFontData</text>
<polyline fill="none" stroke="red" points="124.5,-171 213.5,-171 "/>
<text text-anchor="middle" x="169" y="-159" font-family="Helvetica,sans-Serif" font-size="10.00"> </text>
<polyline fill="none" stroke="red" points="124.5,-152 213.5,-152 "/>
<text text-anchor="middle" x="169" y="-140" font-family="Helvetica,sans-Serif" font-size="10.00"> </text>
</a>
</g>
</g>
<!-- Node5&#45;&gt;Node1 -->
<g id="edge2" class="edge"><title>Node5&#45;&gt;Node1</title>
<path fill="none" stroke="#404040" d="M156.7,-132.824C148.433,-114.225 137.421,-89.4466 128.277,-68.8742"/>
<polygon fill="none" stroke="#404040" points="128.156,-68.6015 122.064,-64.7432 123.283,-57.6358 129.375,-61.4941 128.156,-68.6015"/>
<text text-anchor="middle" x="149.5" y="-79" font-family="Helvetica,sans-Serif" font-size="10.00"> +Font</text>
</g>
</g>
</svg>
