<?xml version="1.0" encoding="UTF-8" standalone="no"?>
<!DOCTYPE svg PUBLIC "-//W3C//DTD SVG 1.1//EN"
 "http://www.w3.org/Graphics/SVG/1.1/DTD/svg11.dtd">
<!-- Generated by graphviz version 2.38.0 (20140413.2041)
 -->
<!-- Title: SDK::FEventEnteredSurfaceMaterialStatusZone Pages: 1 -->
<svg width="160pt" height="226pt"
 viewBox="0.00 0.00 160.00 226.00" xmlns="http://www.w3.org/2000/svg" xmlns:xlink="http://www.w3.org/1999/xlink">
<g id="graph0" class="graph" transform="scale(1 1) rotate(0) translate(4 222)">
<title>SDK::FEventEnteredSurfaceMaterialStatusZone</title>
<!-- Node1 -->
<g id="node1" class="node"><title>Node1</title>
<g id="a_node1"><a xlink:title=" ">
<polygon fill="#bfbfbf" stroke="black" points="6,-0.5 6,-68.5 146,-68.5 146,-0.5 6,-0.5"/>
<text text-anchor="start" x="14" y="-56.5" font-family="Helvetica,sans-Serif" font-size="10.00">SDK::FEventEnteredSurface</text>
<text text-anchor="middle" x="76" y="-45.5" font-family="Helvetica,sans-Serif" font-size="10.00">MaterialStatusZone</text>
<polyline fill="none" stroke="black" points="6,-38.5 146,-38.5 "/>
<text text-anchor="middle" x="76" y="-26.5" font-family="Helvetica,sans-Serif" font-size="10.00"> </text>
<polyline fill="none" stroke="black" points="6,-19.5 146,-19.5 "/>
<text text-anchor="middle" x="76" y="-7.5" font-family="Helvetica,sans-Serif" font-size="10.00"> </text>
</a>
</g>
</g>
<!-- Node2 -->
<g id="node2" class="node"><title>Node2</title>
<g id="a_node2"><a xlink:href="a25643.html" target="_top" xlink:title=" ">
<polygon fill="none" stroke="red" points="0,-116.5 0,-217.5 152,-217.5 152,-116.5 0,-116.5"/>
<text text-anchor="start" x="8" y="-205.5" font-family="Helvetica,sans-Serif" font-size="10.00">SDK::TScriptInterface</text>
<text text-anchor="start" x="8" y="-194.5" font-family="Helvetica,sans-Serif" font-size="10.00">&lt; class SDK::USurfaceMaterial</text>
<text text-anchor="middle" x="76" y="-183.5" font-family="Helvetica,sans-Serif" font-size="10.00">StatusZoneInterface &gt;</text>
<polyline fill="none" stroke="red" points="0,-176.5 152,-176.5 "/>
<text text-anchor="middle" x="76" y="-164.5" font-family="Helvetica,sans-Serif" font-size="10.00"> </text>
<polyline fill="none" stroke="red" points="0,-157.5 152,-157.5 "/>
<text text-anchor="start" x="8" y="-145.5" font-family="Helvetica,sans-Serif" font-size="10.00">+ operator&#45;&gt;()</text>
<text text-anchor="start" x="8" y="-134.5" font-family="Helvetica,sans-Serif" font-size="10.00">+ operator*()</text>
<text text-anchor="start" x="8" y="-123.5" font-family="Helvetica,sans-Serif" font-size="10.00">+ operator bool()</text>
</a>
</g>
</g>
<!-- Node2&#45;&gt;Node1 -->
<g id="edge1" class="edge"><title>Node2&#45;&gt;Node1</title>
<path fill="none" stroke="#404040" d="M76,-116.291C76,-104.548 76,-92.092 76,-80.5675"/>
<polygon fill="none" stroke="#404040" points="76.0001,-80.5058 72,-74.5058 76,-68.5058 80,-74.5057 76.0001,-80.5058"/>
<text text-anchor="middle" x="108" y="-90" font-family="Helvetica,sans-Serif" font-size="10.00"> +EnteredZone</text>
</g>
</g>
</svg>
