<?xml version="1.0" encoding="UTF-8" standalone="no"?>
<!DOCTYPE svg PUBLIC "-//W3C//DTD SVG 1.1//EN"
 "http://www.w3.org/Graphics/SVG/1.1/DTD/svg11.dtd">
<!-- Generated by graphviz version 2.38.0 (20140413.2041)
 -->
<!-- Title: SDK::UTaleQuestUpdateMerchantMapStep Pages: 1 -->
<svg width="306pt" height="193pt"
 viewBox="0.00 0.00 305.50 193.00" xmlns="http://www.w3.org/2000/svg" xmlns:xlink="http://www.w3.org/1999/xlink">
<g id="graph0" class="graph" transform="scale(1 1) rotate(0) translate(4 189)">
<title>SDK::UTaleQuestUpdateMerchantMapStep</title>
<!-- Node1 -->
<g id="node1" class="node"><title>Node1</title>
<g id="a_node1"><a xlink:title=" ">
<polygon fill="#bfbfbf" stroke="black" points="53.5,-0.5 53.5,-68.5 218.5,-68.5 218.5,-0.5 53.5,-0.5"/>
<text text-anchor="start" x="61.5" y="-56.5" font-family="Helvetica,sans-Serif" font-size="10.00">SDK::UTaleQuestUpdateMerchant</text>
<text text-anchor="middle" x="136" y="-45.5" font-family="Helvetica,sans-Serif" font-size="10.00">MapStep</text>
<polyline fill="none" stroke="black" points="53.5,-38.5 218.5,-38.5 "/>
<text text-anchor="middle" x="136" y="-26.5" font-family="Helvetica,sans-Serif" font-size="10.00"> </text>
<polyline fill="none" stroke="black" points="53.5,-19.5 218.5,-19.5 "/>
<text text-anchor="start" x="61.5" y="-7.5" font-family="Helvetica,sans-Serif" font-size="10.00">+ StaticClass()</text>
</a>
</g>
</g>
<!-- Node2 -->
<g id="node2" class="node"><title>Node2</title>
<g id="a_node2"><a xlink:href="a34911.html" target="_top" xlink:title=" ">
<polygon fill="none" stroke="red" points="0,-122 0,-179 114,-179 114,-122 0,-122"/>
<text text-anchor="middle" x="57" y="-167" font-family="Helvetica,sans-Serif" font-size="10.00">SDK::UTaleQuestStep</text>
<polyline fill="none" stroke="red" points="0,-160 114,-160 "/>
<text text-anchor="middle" x="57" y="-148" font-family="Helvetica,sans-Serif" font-size="10.00"> </text>
<polyline fill="none" stroke="red" points="0,-141 114,-141 "/>
<text text-anchor="start" x="8" y="-129" font-family="Helvetica,sans-Serif" font-size="10.00">+ StaticClass()</text>
</a>
</g>
</g>
<!-- Node2&#45;&gt;Node1 -->
<g id="edge1" class="edge"><title>Node2&#45;&gt;Node1</title>
<path fill="none" stroke="midnightblue" d="M81.8245,-113.677C91.8349,-99.2319 103.311,-82.6712 113.117,-68.5214"/>
<polygon fill="none" stroke="midnightblue" points="78.9428,-111.691 76.1237,-121.904 84.6964,-115.678 78.9428,-111.691"/>
</g>
<!-- Node14 -->
<g id="node3" class="node"><title>Node14</title>
<g id="a_node3"><a xlink:href="a35075.html" target="_top" xlink:title=" ">
<polygon fill="none" stroke="red" points="132.5,-116.5 132.5,-184.5 297.5,-184.5 297.5,-116.5 132.5,-116.5"/>
<text text-anchor="start" x="140.5" y="-172.5" font-family="Helvetica,sans-Serif" font-size="10.00">SDK::UTaleQuestUpdateMerchant</text>
<text text-anchor="middle" x="215" y="-161.5" font-family="Helvetica,sans-Serif" font-size="10.00">MapStepDesc</text>
<polyline fill="none" stroke="red" points="132.5,-154.5 297.5,-154.5 "/>
<text text-anchor="middle" x="215" y="-142.5" font-family="Helvetica,sans-Serif" font-size="10.00"> </text>
<polyline fill="none" stroke="red" points="132.5,-135.5 297.5,-135.5 "/>
<text text-anchor="start" x="140.5" y="-123.5" font-family="Helvetica,sans-Serif" font-size="10.00">+ StaticClass()</text>
</a>
</g>
</g>
<!-- Node14&#45;&gt;Node1 -->
<g id="edge2" class="edge"><title>Node14&#45;&gt;Node1</title>
<path fill="none" stroke="#404040" d="M191.938,-116.22C183.825,-104.514 174.587,-91.1826 165.988,-78.7743"/>
<polygon fill="none" stroke="#404040" points="165.79,-78.4875 159.084,-75.8342 158.955,-68.6243 165.66,-71.2775 165.79,-78.4875"/>
<text text-anchor="middle" x="194" y="-90" font-family="Helvetica,sans-Serif" font-size="10.00"> +Desc</text>
</g>
</g>
</svg>
