<?xml version="1.0" encoding="UTF-8" standalone="no"?>
<!DOCTYPE svg PUBLIC "-//W3C//DTD SVG 1.1//EN"
 "http://www.w3.org/Graphics/SVG/1.1/DTD/svg11.dtd">
<!-- Generated by graphviz version 2.38.0 (20140413.2041)
 -->
<!-- Title: SDK::UTaleQuestAddRiddleMapBaseStepDesc Pages: 1 -->
<svg width="302pt" height="298pt"
 viewBox="0.00 0.00 302.00 298.00" xmlns="http://www.w3.org/2000/svg" xmlns:xlink="http://www.w3.org/1999/xlink">
<g id="graph0" class="graph" transform="scale(1 1) rotate(0) translate(4 294)">
<title>SDK::UTaleQuestAddRiddleMapBaseStepDesc</title>
<!-- Node1 -->
<g id="node1" class="node"><title>Node1</title>
<g id="a_node1"><a xlink:title=" ">
<polygon fill="#bfbfbf" stroke="black" points="78,-105.5 78,-184.5 216,-184.5 216,-105.5 78,-105.5"/>
<text text-anchor="start" x="86" y="-172.5" font-family="Helvetica,sans-Serif" font-size="10.00">SDK::UTaleQuestAddRiddle</text>
<text text-anchor="middle" x="147" y="-161.5" font-family="Helvetica,sans-Serif" font-size="10.00">MapBaseStepDesc</text>
<polyline fill="none" stroke="black" points="78,-154.5 216,-154.5 "/>
<text text-anchor="start" x="86" y="-142.5" font-family="Helvetica,sans-Serif" font-size="10.00">+ MapId</text>
<text text-anchor="start" x="86" y="-131.5" font-family="Helvetica,sans-Serif" font-size="10.00">+ IslandName</text>
<polyline fill="none" stroke="black" points="78,-124.5 216,-124.5 "/>
<text text-anchor="start" x="86" y="-112.5" font-family="Helvetica,sans-Serif" font-size="10.00">+ StaticClass()</text>
</a>
</g>
</g>
<!-- Node4 -->
<g id="node3" class="node"><title>Node4</title>
<g id="a_node3"><a xlink:href="a35043.html" target="_top" xlink:title=" ">
<polygon fill="none" stroke="black" points="0,-0.5 0,-68.5 138,-68.5 138,-0.5 0,-0.5"/>
<text text-anchor="start" x="8" y="-56.5" font-family="Helvetica,sans-Serif" font-size="10.00">SDK::UTaleQuestAddRiddle</text>
<text text-anchor="middle" x="69" y="-45.5" font-family="Helvetica,sans-Serif" font-size="10.00">MapStepDesc</text>
<polyline fill="none" stroke="black" points="0,-38.5 138,-38.5 "/>
<text text-anchor="start" x="8" y="-26.5" font-family="Helvetica,sans-Serif" font-size="10.00">+ Text</text>
<polyline fill="none" stroke="black" points="0,-19.5 138,-19.5 "/>
<text text-anchor="start" x="8" y="-7.5" font-family="Helvetica,sans-Serif" font-size="10.00">+ StaticClass()</text>
</a>
</g>
</g>
<!-- Node1&#45;&gt;Node4 -->
<g id="edge2" class="edge"><title>Node1&#45;&gt;Node4</title>
<path fill="none" stroke="midnightblue" d="M113.285,-97.1011C106.37,-87.4829 99.23,-77.5507 92.7551,-68.5439"/>
<polygon fill="none" stroke="midnightblue" points="110.601,-99.3649 119.28,-105.441 116.285,-95.2788 110.601,-99.3649"/>
</g>
<!-- Node5 -->
<g id="node4" class="node"><title>Node5</title>
<g id="a_node4"><a xlink:href="a35047.html" target="_top" xlink:title=" ">
<polygon fill="none" stroke="black" points="156,-0.5 156,-68.5 294,-68.5 294,-0.5 156,-0.5"/>
<text text-anchor="start" x="164" y="-56.5" font-family="Helvetica,sans-Serif" font-size="10.00">SDK::UTaleQuestAddRiddle</text>
<text text-anchor="middle" x="225" y="-45.5" font-family="Helvetica,sans-Serif" font-size="10.00">MapUsingVariableStepDesc</text>
<polyline fill="none" stroke="black" points="156,-38.5 294,-38.5 "/>
<text text-anchor="start" x="164" y="-26.5" font-family="Helvetica,sans-Serif" font-size="10.00">+ TextVariable</text>
<polyline fill="none" stroke="black" points="156,-19.5 294,-19.5 "/>
<text text-anchor="start" x="164" y="-7.5" font-family="Helvetica,sans-Serif" font-size="10.00">+ StaticClass()</text>
</a>
</g>
</g>
<!-- Node1&#45;&gt;Node5 -->
<g id="edge3" class="edge"><title>Node1&#45;&gt;Node5</title>
<path fill="none" stroke="midnightblue" d="M180.715,-97.1011C187.63,-87.4829 194.77,-77.5507 201.245,-68.5439"/>
<polygon fill="none" stroke="midnightblue" points="177.715,-95.2788 174.72,-105.441 183.399,-99.3649 177.715,-95.2788"/>
</g>
<!-- Node2 -->
<g id="node2" class="node"><title>Node2</title>
<g id="a_node2"><a xlink:href="a34915.html" target="_top" xlink:title=" ">
<polygon fill="none" stroke="red" points="78.5,-221.5 78.5,-289.5 215.5,-289.5 215.5,-221.5 78.5,-221.5"/>
<text text-anchor="middle" x="147" y="-277.5" font-family="Helvetica,sans-Serif" font-size="10.00">SDK::UTaleQuestStepDesc</text>
<polyline fill="none" stroke="red" points="78.5,-270.5 215.5,-270.5 "/>
<text text-anchor="start" x="86.5" y="-258.5" font-family="Helvetica,sans-Serif" font-size="10.00">+ Fork</text>
<text text-anchor="start" x="86.5" y="-247.5" font-family="Helvetica,sans-Serif" font-size="10.00">+ UnknownData00</text>
<polyline fill="none" stroke="red" points="78.5,-240.5 215.5,-240.5 "/>
<text text-anchor="start" x="86.5" y="-228.5" font-family="Helvetica,sans-Serif" font-size="10.00">+ StaticClass()</text>
</a>
</g>
</g>
<!-- Node2&#45;&gt;Node1 -->
<g id="edge1" class="edge"><title>Node2&#45;&gt;Node1</title>
<path fill="none" stroke="midnightblue" d="M147,-211.274C147,-202.476 147,-193.275 147,-184.649"/>
<polygon fill="none" stroke="midnightblue" points="143.5,-211.357 147,-221.357 150.5,-211.357 143.5,-211.357"/>
</g>
</g>
</svg>
