<?xml version="1.0" encoding="UTF-8" standalone="no"?>
<!DOCTYPE svg PUBLIC "-//W3C//DTD SVG 1.1//EN"
 "http://www.w3.org/Graphics/SVG/1.1/DTD/svg11.dtd">
<!-- Generated by graphviz version 2.38.0 (20140413.2041)
 -->
<!-- Title: SDK::UTetherCustomisationComponent Pages: 1 -->
<svg width="633pt" height="986pt"
 viewBox="0.00 0.00 632.81 986.00" xmlns="http://www.w3.org/2000/svg" xmlns:xlink="http://www.w3.org/1999/xlink">
<g id="graph0" class="graph" transform="scale(1 1) rotate(0) translate(4 982)">
<title>SDK::UTetherCustomisationComponent</title>
<!-- Node1 -->
<g id="node1" class="node"><title>Node1</title>
<g id="a_node1"><a xlink:title=" ">
<polygon fill="#bfbfbf" stroke="black" points="150.311,-0.5 150.311,-68.5 289.311,-68.5 289.311,-0.5 150.311,-0.5"/>
<text text-anchor="start" x="158.311" y="-56.5" font-family="Helvetica,sans-Serif" font-size="10.00">SDK::UTetherCustomisation</text>
<text text-anchor="middle" x="219.811" y="-45.5" font-family="Helvetica,sans-Serif" font-size="10.00">Component</text>
<polyline fill="none" stroke="black" points="150.311,-38.5 289.311,-38.5 "/>
<text text-anchor="middle" x="219.811" y="-26.5" font-family="Helvetica,sans-Serif" font-size="10.00"> </text>
<polyline fill="none" stroke="black" points="150.311,-19.5 289.311,-19.5 "/>
<text text-anchor="start" x="158.311" y="-7.5" font-family="Helvetica,sans-Serif" font-size="10.00">+ StaticClass()</text>
</a>
</g>
</g>
<!-- Node2 -->
<g id="node2" class="node"><title>Node2</title>
<g id="a_node2"><a xlink:href="a26339.html" target="_top" xlink:title=" ">
<polygon fill="none" stroke="red" points="37.3109,-507.5 37.3109,-751.5 222.311,-751.5 222.311,-507.5 37.3109,-507.5"/>
<text text-anchor="middle" x="129.811" y="-739.5" font-family="Helvetica,sans-Serif" font-size="10.00">SDK::UActorComponent</text>
<polyline fill="none" stroke="red" points="37.3109,-732.5 222.311,-732.5 "/>
<text text-anchor="start" x="45.3109" y="-720.5" font-family="Helvetica,sans-Serif" font-size="10.00">+ UnknownData00</text>
<text text-anchor="start" x="45.3109" y="-709.5" font-family="Helvetica,sans-Serif" font-size="10.00">+ bReplicates</text>
<text text-anchor="start" x="45.3109" y="-698.5" font-family="Helvetica,sans-Serif" font-size="10.00">+ bNetAddressable</text>
<text text-anchor="start" x="45.3109" y="-687.5" font-family="Helvetica,sans-Serif" font-size="10.00">+ bInstanceComponent</text>
<text text-anchor="start" x="45.3109" y="-676.5" font-family="Helvetica,sans-Serif" font-size="10.00">+ bAutoActivate</text>
<text text-anchor="start" x="45.3109" y="-665.5" font-family="Helvetica,sans-Serif" font-size="10.00">+ bIsActive</text>
<text text-anchor="start" x="45.3109" y="-654.5" font-family="Helvetica,sans-Serif" font-size="10.00">+ bNeedsLoadForServer</text>
<polyline fill="none" stroke="red" points="37.3109,-647.5 222.311,-647.5 "/>
<text text-anchor="start" x="45.3109" y="-635.5" font-family="Helvetica,sans-Serif" font-size="10.00">+ ToggleActive()</text>
<text text-anchor="start" x="45.3109" y="-624.5" font-family="Helvetica,sans-Serif" font-size="10.00">+ SetTickGroup()</text>
<text text-anchor="start" x="45.3109" y="-613.5" font-family="Helvetica,sans-Serif" font-size="10.00">+ SetTickableWhenPaused()</text>
<text text-anchor="start" x="45.3109" y="-602.5" font-family="Helvetica,sans-Serif" font-size="10.00">+ SetIsReplicated()</text>
<text text-anchor="start" x="45.3109" y="-591.5" font-family="Helvetica,sans-Serif" font-size="10.00">+ SetComponentTickEnabled()</text>
<text text-anchor="start" x="45.3109" y="-580.5" font-family="Helvetica,sans-Serif" font-size="10.00">+ SetActive()</text>
<text text-anchor="start" x="45.3109" y="-569.5" font-family="Helvetica,sans-Serif" font-size="10.00">+ RemoveTickPrerequisiteComponent()</text>
<text text-anchor="start" x="45.3109" y="-558.5" font-family="Helvetica,sans-Serif" font-size="10.00">+ RemoveTickPrerequisiteActor()</text>
<text text-anchor="start" x="45.3109" y="-547.5" font-family="Helvetica,sans-Serif" font-size="10.00">+ ReceiveTick()</text>
<text text-anchor="start" x="45.3109" y="-536.5" font-family="Helvetica,sans-Serif" font-size="10.00">+ ReceiveEndPlay()</text>
<text text-anchor="start" x="45.3109" y="-525.5" font-family="Helvetica,sans-Serif" font-size="10.00">and 12 more...</text>
<text text-anchor="start" x="45.3109" y="-514.5" font-family="Helvetica,sans-Serif" font-size="10.00">+ StaticClass()</text>
</a>
</g>
</g>
<!-- Node2&#45;&gt;Node1 -->
<g id="edge1" class="edge"><title>Node2&#45;&gt;Node1</title>
<path fill="none" stroke="midnightblue" d="M99.5551,-497.367C81.9598,-392.701 72.0637,-244.632 122.811,-127 132.761,-103.936 151.701,-83.9867 170.223,-68.6542"/>
<polygon fill="none" stroke="midnightblue" points="96.1296,-498.099 101.28,-507.358 103.028,-496.908 96.1296,-498.099"/>
</g>
<!-- Node22 -->
<g id="node5" class="node"><title>Node22</title>
<g id="a_node5"><a xlink:href="a26363.html" target="_top" xlink:title=" ">
<polygon fill="none" stroke="red" points="131.811,-127.5 131.811,-437.5 307.811,-437.5 307.811,-127.5 131.811,-127.5"/>
<text text-anchor="middle" x="219.811" y="-425.5" font-family="Helvetica,sans-Serif" font-size="10.00">SDK::USceneComponent</text>
<polyline fill="none" stroke="red" points="131.811,-418.5 307.811,-418.5 "/>
<text text-anchor="start" x="139.811" y="-406.5" font-family="Helvetica,sans-Serif" font-size="10.00">+ bAbsoluteLocation</text>
<text text-anchor="start" x="139.811" y="-395.5" font-family="Helvetica,sans-Serif" font-size="10.00">+ bAbsoluteTranslation</text>
<text text-anchor="start" x="139.811" y="-384.5" font-family="Helvetica,sans-Serif" font-size="10.00">+ bAbsoluteRotation</text>
<text text-anchor="start" x="139.811" y="-373.5" font-family="Helvetica,sans-Serif" font-size="10.00">+ bShouldUpdatePhysicsVolume</text>
<text text-anchor="start" x="139.811" y="-362.5" font-family="Helvetica,sans-Serif" font-size="10.00">+ bBoundsChangeTriggersStreaming</text>
<text text-anchor="start" x="139.811" y="-351.5" font-family="Helvetica,sans-Serif" font-size="10.00">DataRebuild</text>
<text text-anchor="start" x="139.811" y="-340.5" font-family="Helvetica,sans-Serif" font-size="10.00">+ bUseAttachParentBound</text>
<text text-anchor="start" x="139.811" y="-329.5" font-family="Helvetica,sans-Serif" font-size="10.00">+ UnknownData00</text>
<text text-anchor="start" x="139.811" y="-318.5" font-family="Helvetica,sans-Serif" font-size="10.00">+ CacheRootVelocity</text>
<text text-anchor="start" x="139.811" y="-307.5" font-family="Helvetica,sans-Serif" font-size="10.00">+ bWorldToComponentUpdated</text>
<text text-anchor="start" x="139.811" y="-296.5" font-family="Helvetica,sans-Serif" font-size="10.00">+ UnknownData05</text>
<text text-anchor="start" x="139.811" y="-285.5" font-family="Helvetica,sans-Serif" font-size="10.00">+ UnknownData06</text>
<text text-anchor="start" x="139.811" y="-274.5" font-family="Helvetica,sans-Serif" font-size="10.00">+ UnknownData07</text>
<polyline fill="none" stroke="red" points="131.811,-267.5 307.811,-267.5 "/>
<text text-anchor="start" x="139.811" y="-255.5" font-family="Helvetica,sans-Serif" font-size="10.00">+ ToggleVisibility()</text>
<text text-anchor="start" x="139.811" y="-244.5" font-family="Helvetica,sans-Serif" font-size="10.00">+ SnapTo()</text>
<text text-anchor="start" x="139.811" y="-233.5" font-family="Helvetica,sans-Serif" font-size="10.00">+ SharesBasis()</text>
<text text-anchor="start" x="139.811" y="-222.5" font-family="Helvetica,sans-Serif" font-size="10.00">+ SetWorldScale3D()</text>
<text text-anchor="start" x="139.811" y="-211.5" font-family="Helvetica,sans-Serif" font-size="10.00">+ SetVisibility()</text>
<text text-anchor="start" x="139.811" y="-200.5" font-family="Helvetica,sans-Serif" font-size="10.00">+ SetRelativeScale3D()</text>
<text text-anchor="start" x="139.811" y="-189.5" font-family="Helvetica,sans-Serif" font-size="10.00">+ SetHiddenInGame()</text>
<text text-anchor="start" x="139.811" y="-178.5" font-family="Helvetica,sans-Serif" font-size="10.00">+ SetAbsolute()</text>
<text text-anchor="start" x="139.811" y="-167.5" font-family="Helvetica,sans-Serif" font-size="10.00">+ ResetRelativeTransform()</text>
<text text-anchor="start" x="139.811" y="-156.5" font-family="Helvetica,sans-Serif" font-size="10.00">+ OnRep_Visibility()</text>
<text text-anchor="start" x="139.811" y="-145.5" font-family="Helvetica,sans-Serif" font-size="10.00">and 45 more...</text>
<text text-anchor="start" x="139.811" y="-134.5" font-family="Helvetica,sans-Serif" font-size="10.00">+ StaticClass()</text>
</a>
</g>
</g>
<!-- Node2&#45;&gt;Node22 -->
<g id="edge6" class="edge"><title>Node2&#45;&gt;Node22</title>
<path fill="none" stroke="midnightblue" d="M163.982,-497.51C169.083,-477.957 174.381,-457.646 179.593,-437.668"/>
<polygon fill="none" stroke="midnightblue" points="160.553,-496.791 161.415,-507.351 167.326,-498.558 160.553,-496.791"/>
</g>
<!-- Node12 -->
<g id="node3" class="node"><title>Node12</title>
<g id="a_node3"><a xlink:title=" ">
<polygon fill="none" stroke="#bfbfbf" points="112.311,-920.5 112.311,-977.5 147.311,-977.5 147.311,-920.5 112.311,-920.5"/>
<text text-anchor="middle" x="129.811" y="-965.5" font-family="Helvetica,sans-Serif" font-size="10.00">char</text>
<polyline fill="none" stroke="#bfbfbf" points="112.311,-958.5 147.311,-958.5 "/>
<text text-anchor="middle" x="129.811" y="-946.5" font-family="Helvetica,sans-Serif" font-size="10.00"> </text>
<polyline fill="none" stroke="#bfbfbf" points="112.311,-939.5 147.311,-939.5 "/>
<text text-anchor="middle" x="129.811" y="-927.5" font-family="Helvetica,sans-Serif" font-size="10.00"> </text>
</a>
</g>
</g>
<!-- Node12&#45;&gt;Node1 -->
<g id="edge4" class="edge"><title>Node12&#45;&gt;Node1</title>
<path fill="none" stroke="#404040" d="M112.286,-922.817C88.31,-886.835 46.1679,-817.767 27.8109,-752 -7.61555,-625.079 -3.16657,-587.029 10.8109,-456 26.6782,-307.256 4.3509,-254.971 81.8109,-127 95.5608,-104.284 117.355,-86.0482 139.598,-72.0169"/>
<polygon fill="none" stroke="#404040" points="139.883,-71.8457 142.966,-65.3269 150.17,-65.6658 147.086,-72.1845 139.883,-71.8457"/>
<text text-anchor="middle" x="50.8109" y="-481" font-family="Helvetica,sans-Serif" font-size="10.00"> +UnknownData01</text>
<text text-anchor="middle" x="50.8109" y="-470" font-family="Helvetica,sans-Serif" font-size="10.00">+UnknownData02</text>
<text text-anchor="middle" x="50.8109" y="-459" font-family="Helvetica,sans-Serif" font-size="10.00">+UnknownData00</text>
</g>
<!-- Node12&#45;&gt;Node2 -->
<g id="edge2" class="edge"><title>Node12&#45;&gt;Node2</title>
<path fill="none" stroke="#404040" d="M129.811,-920.379C129.811,-885.307 129.811,-822.325 129.811,-764.008"/>
<polygon fill="none" stroke="#404040" points="129.811,-763.646 125.811,-757.646 129.811,-751.646 133.811,-757.646 129.811,-763.646"/>
<text text-anchor="middle" x="185.811" y="-894" font-family="Helvetica,sans-Serif" font-size="10.00"> +UnknownData01</text>
<text text-anchor="middle" x="185.811" y="-883" font-family="Helvetica,sans-Serif" font-size="10.00">+UnknownData02</text>
<text text-anchor="middle" x="185.811" y="-872" font-family="Helvetica,sans-Serif" font-size="10.00">+UnknownData03</text>
<text text-anchor="middle" x="185.811" y="-861" font-family="Helvetica,sans-Serif" font-size="10.00">+UnknownData04</text>
<text text-anchor="middle" x="185.811" y="-850" font-family="Helvetica,sans-Serif" font-size="10.00">+UnknownData05</text>
<text text-anchor="start" x="129.811" y="-839" font-family="Helvetica,sans-Serif" font-size="10.00">+bCreatedByConstruction</text>
<text text-anchor="middle" x="185.811" y="-828" font-family="Helvetica,sans-Serif" font-size="10.00">Script</text>
<text text-anchor="middle" x="185.811" y="-817" font-family="Helvetica,sans-Serif" font-size="10.00">+UnknownData06</text>
<text text-anchor="middle" x="185.811" y="-806" font-family="Helvetica,sans-Serif" font-size="10.00">+UnknownData07</text>
<text text-anchor="middle" x="185.811" y="-795" font-family="Helvetica,sans-Serif" font-size="10.00">+bEditableWhenInherited</text>
<text text-anchor="middle" x="185.811" y="-784" font-family="Helvetica,sans-Serif" font-size="10.00">+bNeedsLoadForClient</text>
<text text-anchor="middle" x="185.811" y="-773" font-family="Helvetica,sans-Serif" font-size="10.00">...</text>
</g>
<!-- Node12&#45;&gt;Node22 -->
<g id="edge7" class="edge"><title>Node12&#45;&gt;Node22</title>
<path fill="none" stroke="#404040" d="M147.583,-946.815C174.002,-943.985 222.87,-934.407 244.811,-902 334.218,-769.943 311.571,-583.157 276.736,-449.466"/>
<polygon fill="none" stroke="#404040" points="276.64,-449.105 271.231,-444.336 273.552,-437.509 278.961,-442.277 276.64,-449.105"/>
<text text-anchor="middle" x="377.311" y="-682" font-family="Helvetica,sans-Serif" font-size="10.00"> +UnknownData01</text>
<text text-anchor="middle" x="377.311" y="-671" font-family="Helvetica,sans-Serif" font-size="10.00">+UnknownData02</text>
<text text-anchor="middle" x="377.311" y="-660" font-family="Helvetica,sans-Serif" font-size="10.00">+bComponentIsUnionOfChildren</text>
<text text-anchor="middle" x="377.311" y="-649" font-family="Helvetica,sans-Serif" font-size="10.00">+UnknownData03</text>
<text text-anchor="middle" x="377.311" y="-638" font-family="Helvetica,sans-Serif" font-size="10.00">+bJitterReduction</text>
<text text-anchor="middle" x="377.311" y="-627" font-family="Helvetica,sans-Serif" font-size="10.00">+bAbsoluteScale</text>
<text text-anchor="middle" x="377.311" y="-616" font-family="Helvetica,sans-Serif" font-size="10.00">+bRequiresCustomLocation</text>
<text text-anchor="middle" x="377.311" y="-605" font-family="Helvetica,sans-Serif" font-size="10.00">+UnknownData04</text>
<text text-anchor="middle" x="377.311" y="-594" font-family="Helvetica,sans-Serif" font-size="10.00">+bHiddenInGame</text>
<text text-anchor="middle" x="377.311" y="-583" font-family="Helvetica,sans-Serif" font-size="10.00">+bVisible</text>
<text text-anchor="middle" x="377.311" y="-572" font-family="Helvetica,sans-Serif" font-size="10.00">...</text>
</g>
<!-- Node18 -->
<g id="node4" class="node"><title>Node18</title>
<g id="a_node4"><a xlink:title=" ">
<polygon fill="none" stroke="#bfbfbf" points="411.311,-254 411.311,-311 446.311,-311 446.311,-254 411.311,-254"/>
<text text-anchor="middle" x="428.811" y="-299" font-family="Helvetica,sans-Serif" font-size="10.00">float</text>
<polyline fill="none" stroke="#bfbfbf" points="411.311,-292 446.311,-292 "/>
<text text-anchor="middle" x="428.811" y="-280" font-family="Helvetica,sans-Serif" font-size="10.00"> </text>
<polyline fill="none" stroke="#bfbfbf" points="411.311,-273 446.311,-273 "/>
<text text-anchor="middle" x="428.811" y="-261" font-family="Helvetica,sans-Serif" font-size="10.00"> </text>
</a>
</g>
</g>
<!-- Node18&#45;&gt;Node1 -->
<g id="edge3" class="edge"><title>Node18&#45;&gt;Node1</title>
<path fill="none" stroke="#404040" d="M430.756,-253.996C431.689,-220.855 428.611,-164.91 401.811,-127 377.863,-93.1246 337.648,-71.0821 301.102,-57.1411"/>
<polygon fill="none" stroke="#404040" points="300.672,-56.9852 293.668,-58.7004 289.391,-52.8947 296.395,-51.1795 300.672,-56.9852"/>
<text text-anchor="middle" x="428.811" y="-95.5" font-family="Helvetica,sans-Serif" font-size="10.00"> +MassIntertiaScale</text>
</g>
<!-- Node22&#45;&gt;Node1 -->
<g id="edge5" class="edge"><title>Node22&#45;&gt;Node1</title>
<path fill="none" stroke="#404040" d="M219.811,-127.451C219.811,-110.549 219.811,-94.4831 219.811,-80.6487"/>
<polygon fill="none" stroke="#404040" points="219.811,-80.6108 215.811,-74.6108 219.811,-68.6108 223.811,-74.6107 219.811,-80.6108"/>
<text text-anchor="middle" x="273.311" y="-95.5" font-family="Helvetica,sans-Serif" font-size="10.00"> +ComponentToTetherTo</text>
</g>
<!-- Node22&#45;&gt;Node22 -->
<g id="edge8" class="edge"><title>Node22&#45;&gt;Node22</title>
<path fill="none" stroke="#404040" d="M307.945,-312.348C318.736,-307.004 325.811,-297.055 325.811,-282.5 325.811,-272.948 322.764,-265.38 317.62,-259.795"/>
<polygon fill="none" stroke="#404040" points="317.598,-259.78 310.395,-259.433 307.945,-252.652 315.147,-252.998 317.598,-259.78"/>
<text text-anchor="middle" x="359.311" y="-280" font-family="Helvetica,sans-Serif" font-size="10.00"> +AttachParent</text>
</g>
<!-- Node31 -->
<g id="node6" class="node"><title>Node31</title>
<g id="a_node6"><a xlink:title=" ">
<polygon fill="none" stroke="#bfbfbf" points="493.311,-254 493.311,-311 528.311,-311 528.311,-254 493.311,-254"/>
<text text-anchor="middle" x="510.811" y="-299" font-family="Helvetica,sans-Serif" font-size="10.00">bool</text>
<polyline fill="none" stroke="#bfbfbf" points="493.311,-292 528.311,-292 "/>
<text text-anchor="middle" x="510.811" y="-280" font-family="Helvetica,sans-Serif" font-size="10.00"> </text>
<polyline fill="none" stroke="#bfbfbf" points="493.311,-273 528.311,-273 "/>
<text text-anchor="middle" x="510.811" y="-261" font-family="Helvetica,sans-Serif" font-size="10.00"> </text>
</a>
</g>
</g>
<!-- Node31&#45;&gt;Node1 -->
<g id="edge9" class="edge"><title>Node31&#45;&gt;Node1</title>
<path fill="none" stroke="#404040" d="M514.816,-253.681C519.176,-211.561 520.498,-131.78 476.811,-87 452.767,-62.3542 367.343,-48.8502 301.508,-41.9276"/>
<polygon fill="none" stroke="#404040" points="301.402,-41.9169 295.03,-45.2934 289.463,-40.7104 295.835,-37.3339 301.402,-41.9169"/>
<text text-anchor="middle" x="558.811" y="-101" font-family="Helvetica,sans-Serif" font-size="10.00"> +CanBeTethered</text>
<text text-anchor="middle" x="558.811" y="-90" font-family="Helvetica,sans-Serif" font-size="10.00">+IsMassInertiaScalingEnabled</text>
</g>
</g>
</svg>
