<?xml version="1.0" encoding="UTF-8" standalone="no"?>
<!DOCTYPE svg PUBLIC "-//W3C//DTD SVG 1.1//EN"
 "http://www.w3.org/Graphics/SVG/1.1/DTD/svg11.dtd">
<!-- Generated by graphviz version 2.38.0 (20140413.2041)
 -->
<!-- Title: SDK::UTaleQuestCargoRunContractsService Pages: 1 -->
<svg width="187pt" height="204pt"
 viewBox="0.00 0.00 187.00 204.00" xmlns="http://www.w3.org/2000/svg" xmlns:xlink="http://www.w3.org/1999/xlink">
<g id="graph0" class="graph" transform="scale(1 1) rotate(0) translate(4 200)">
<title>SDK::UTaleQuestCargoRunContractsService</title>
<!-- Node1 -->
<g id="node1" class="node"><title>Node1</title>
<g id="a_node1"><a xlink:title=" ">
<polygon fill="#bfbfbf" stroke="black" points="0,-0.5 0,-101.5 179,-101.5 179,-0.5 0,-0.5"/>
<text text-anchor="start" x="8" y="-89.5" font-family="Helvetica,sans-Serif" font-size="10.00">SDK::UTaleQuestCargoRunContracts</text>
<text text-anchor="middle" x="89.5" y="-78.5" font-family="Helvetica,sans-Serif" font-size="10.00">Service</text>
<polyline fill="none" stroke="black" points="0,-71.5 179,-71.5 "/>
<text text-anchor="start" x="8" y="-59.5" font-family="Helvetica,sans-Serif" font-size="10.00">+ Contracts</text>
<text text-anchor="start" x="8" y="-48.5" font-family="Helvetica,sans-Serif" font-size="10.00">+ UnknownData00</text>
<polyline fill="none" stroke="black" points="0,-41.5 179,-41.5 "/>
<text text-anchor="start" x="8" y="-29.5" font-family="Helvetica,sans-Serif" font-size="10.00">+ GetContract()</text>
<text text-anchor="start" x="8" y="-18.5" font-family="Helvetica,sans-Serif" font-size="10.00">+ AddContract()</text>
<text text-anchor="start" x="8" y="-7.5" font-family="Helvetica,sans-Serif" font-size="10.00">+ StaticClass()</text>
</a>
</g>
</g>
<!-- Node2 -->
<g id="node2" class="node"><title>Node2</title>
<g id="a_node2"><a xlink:href="a35143.html" target="_top" xlink:title=" ">
<polygon fill="none" stroke="red" points="27,-138.5 27,-195.5 152,-195.5 152,-138.5 27,-138.5"/>
<text text-anchor="middle" x="89.5" y="-183.5" font-family="Helvetica,sans-Serif" font-size="10.00">SDK::UTaleQuestService</text>
<polyline fill="none" stroke="red" points="27,-176.5 152,-176.5 "/>
<text text-anchor="start" x="35" y="-164.5" font-family="Helvetica,sans-Serif" font-size="10.00">+ UnknownData00</text>
<polyline fill="none" stroke="red" points="27,-157.5 152,-157.5 "/>
<text text-anchor="start" x="35" y="-145.5" font-family="Helvetica,sans-Serif" font-size="10.00">+ StaticClass()</text>
</a>
</g>
</g>
<!-- Node2&#45;&gt;Node1 -->
<g id="edge1" class="edge"><title>Node2&#45;&gt;Node1</title>
<path fill="none" stroke="midnightblue" d="M89.5,-128.354C89.5,-119.796 89.5,-110.578 89.5,-101.608"/>
<polygon fill="none" stroke="midnightblue" points="86.0001,-128.404 89.5,-138.404 93.0001,-128.404 86.0001,-128.404"/>
</g>
</g>
</svg>
