<?xml version="1.0" encoding="UTF-8" standalone="no"?>
<!DOCTYPE svg PUBLIC "-//W3C//DTD SVG 1.1//EN"
 "http://www.w3.org/Graphics/SVG/1.1/DTD/svg11.dtd">
<!-- Generated by graphviz version 2.38.0 (20140413.2041)
 -->
<!-- Title: SDK::UPropertyBinding Pages: 1 -->
<!--zoomable 430 -->
<svg id="main" version="1.1" xmlns="http://www.w3.org/2000/svg" xmlns:xlink="http://www.w3.org/1999/xlink" xml:space="preserve" onload="init(evt)">
<style type="text/css"><![CDATA[
.edge:hover path { stroke: red; }
.edge:hover polygon { stroke: red; fill: red; }
]]></style>
<script type="text/javascript"><![CDATA[
var edges = document.getElementsByTagName('g');
if (edges && edges.length) {
  for (var i=0;i<edges.length;i++) {
    if (edges[i].id.substr(0,4)=='edge') {
      edges[i].setAttribute('class','edge');
    }
  }
}
]]></script>
        <defs>
                <circle id="rim" cx="0" cy="0" r="7"/>
                <circle id="rim2" cx="0" cy="0" r="3.5"/>
                <g id="zoomPlus">
                        <use xlink:href="#rim" fill="#404040">
                                <set attributeName="fill" to="#808080" begin="zoomplus.mouseover" end="zoomplus.mouseout"/>
                        </use>
                        <path d="M-4,0h8M0,-4v8" fill="none" stroke="white" stroke-width="1.5" pointer-events="none"/>
                </g>
                <g id="zoomMin">
                        <use xlink:href="#rim" fill="#404040">
                                <set attributeName="fill" to="#808080" begin="zoomminus.mouseover" end="zoomminus.mouseout"/>
                        </use>
                        <path d="M-4,0h8" fill="none" stroke="white" stroke-width="1.5" pointer-events="none"/>
                </g>
                <g id="dirArrow">
                        <path fill="none" stroke="white" stroke-width="1.5" d="M0,-3.0v7 M-2.5,-0.5L0,-3.0L2.5,-0.5"/>
                </g>
               <g id="resetDef">
                       <use xlink:href="#rim2" fill="#404040">
                               <set attributeName="fill" to="#808080" begin="reset.mouseover" end="reset.mouseout"/>
                       </use>
               </g>
        </defs>

<script type="text/javascript">
var viewWidth = 602;
var viewHeight = 430;
var sectionId = 'dynsection-1';
</script>
<script xlink:href="svgpan.js"/>
<svg id="graph" class="graph">
<g id="viewport">
<title>SDK::UPropertyBinding</title>
<!-- Node1 -->
<g id="node1" class="node"><title>Node1</title>
<g id="a_node1"><a xlink:title=" ">
<polygon fill="#bfbfbf" stroke="black" points="264.491,-0.5 264.491,-57.5 383.491,-57.5 383.491,-0.5 264.491,-0.5"/>
<text text-anchor="middle" x="323.991" y="-45.5" font-family="Helvetica,sans-Serif" font-size="10.00">SDK::UPropertyBinding</text>
<polyline fill="none" stroke="black" points="264.491,-38.5 383.491,-38.5 "/>
<text text-anchor="middle" x="323.991" y="-26.5" font-family="Helvetica,sans-Serif" font-size="10.00"> </text>
<polyline fill="none" stroke="black" points="264.491,-19.5 383.491,-19.5 "/>
<text text-anchor="start" x="272.491" y="-7.5" font-family="Helvetica,sans-Serif" font-size="10.00">+ StaticClass()</text>
</a>
</g>
</g>
<!-- Node2 -->
<g id="node2" class="node"><title>Node2</title>
<g id="a_node2"><a xlink:href="a25883.html" target="_top" xlink:title=" ">
<polygon fill="none" stroke="red" points="127.991,-105.5 127.991,-261.5 239.991,-261.5 239.991,-105.5 127.991,-105.5"/>
<text text-anchor="middle" x="183.991" y="-249.5" font-family="Helvetica,sans-Serif" font-size="10.00">SDK::UObject</text>
<polyline fill="none" stroke="red" points="127.991,-242.5 239.991,-242.5 "/>
<text text-anchor="middle" x="183.991" y="-230.5" font-family="Helvetica,sans-Serif" font-size="10.00"> </text>
<polyline fill="none" stroke="red" points="127.991,-223.5 239.991,-223.5 "/>
<text text-anchor="start" x="135.991" y="-211.5" font-family="Helvetica,sans-Serif" font-size="10.00">+ GetName()</text>
<text text-anchor="start" x="135.991" y="-200.5" font-family="Helvetica,sans-Serif" font-size="10.00">+ GetFullName()</text>
<text text-anchor="start" x="135.991" y="-189.5" font-family="Helvetica,sans-Serif" font-size="10.00">+ IsA()</text>
<text text-anchor="start" x="135.991" y="-178.5" font-family="Helvetica,sans-Serif" font-size="10.00">+ ProcessEvent()</text>
<text text-anchor="start" x="135.991" y="-167.5" font-family="Helvetica,sans-Serif" font-size="10.00">+ ExecuteUbergraph()</text>
<text text-anchor="start" x="135.991" y="-156.5" font-family="Helvetica,sans-Serif" font-size="10.00">+ StaticClass()</text>
<text text-anchor="start" x="135.991" y="-145.5" font-family="Helvetica,sans-Serif" font-size="10.00">+ GetGlobalObjects()</text>
<text text-anchor="start" x="135.991" y="-134.5" font-family="Helvetica,sans-Serif" font-size="10.00">+ FindObject()</text>
<text text-anchor="start" x="135.991" y="-123.5" font-family="Helvetica,sans-Serif" font-size="10.00">+ FindClass()</text>
<text text-anchor="start" x="135.991" y="-112.5" font-family="Helvetica,sans-Serif" font-size="10.00">+ GetObjectCasted()</text>
</a>
</g>
</g>
<!-- Node2&#45;&gt;Node1 -->
<g id="edge1" class="edge"><title>Node2&#45;&gt;Node1</title>
<path fill="none" stroke="midnightblue" d="M247.056,-113.804C265.242,-93.9951 284.057,-73.4994 298.529,-57.7354"/>
<polygon fill="none" stroke="midnightblue" points="244.312,-111.618 240.128,-121.351 249.469,-116.352 244.312,-111.618"/>
</g>
<!-- Node2&#45;&gt;Node2 -->
<g id="edge2" class="edge"><title>Node2&#45;&gt;Node2</title>
<path fill="none" stroke="#404040" d="M240.137,-201.643C250.613,-199.409 257.991,-193.361 257.991,-183.5 257.991,-177.799 255.525,-173.372 251.42,-170.221"/>
<polygon fill="none" stroke="#404040" points="251.157,-170.107 244.064,-171.405 240.137,-165.357 247.231,-164.059 251.157,-170.107"/>
<text text-anchor="middle" x="274.991" y="-181" font-family="Helvetica,sans-Serif" font-size="10.00"> +Outer</text>
</g>
<!-- Node3 -->
<g id="node3" class="node"><title>Node3</title>
<g id="a_node3"><a xlink:href="a25627.html" target="_top" xlink:title=" ">
<polygon fill="none" stroke="red" points="11.9911,-309.5 11.9911,-421.5 117.991,-421.5 117.991,-309.5 11.9911,-309.5"/>
<text text-anchor="middle" x="64.9911" y="-409.5" font-family="Helvetica,sans-Serif" font-size="10.00">SDK::FName</text>
<polyline fill="none" stroke="red" points="11.9911,-402.5 117.991,-402.5 "/>
<text text-anchor="middle" x="64.9911" y="-390.5" font-family="Helvetica,sans-Serif" font-size="10.00"> </text>
<polyline fill="none" stroke="red" points="11.9911,-383.5 117.991,-383.5 "/>
<text text-anchor="start" x="19.9911" y="-371.5" font-family="Helvetica,sans-Serif" font-size="10.00">+ FName()</text>
<text text-anchor="start" x="19.9911" y="-360.5" font-family="Helvetica,sans-Serif" font-size="10.00">+ FName()</text>
<text text-anchor="start" x="19.9911" y="-349.5" font-family="Helvetica,sans-Serif" font-size="10.00">+ FName()</text>
<text text-anchor="start" x="19.9911" y="-338.5" font-family="Helvetica,sans-Serif" font-size="10.00">+ GetName()</text>
<text text-anchor="start" x="19.9911" y="-327.5" font-family="Helvetica,sans-Serif" font-size="10.00">+ operator==()</text>
<text text-anchor="start" x="19.9911" y="-316.5" font-family="Helvetica,sans-Serif" font-size="10.00">+ GetGlobalNames()</text>
</a>
</g>
</g>
<!-- Node3&#45;&gt;Node1 -->
<g id="edge4" class="edge"><title>Node3&#45;&gt;Node1</title>
<path fill="none" stroke="#404040" d="M34.3247,-309.316C7.19231,-252.234 -21.6218,-163.42 23.9911,-105 51.8031,-69.3791 172.784,-48.1727 252.36,-37.8275"/>
<polygon fill="none" stroke="#404040" points="252.365,-37.827 257.815,-33.105 264.27,-36.3197 258.82,-41.0417 252.365,-37.827"/>
<text text-anchor="middle" x="71.4911" y="-181" font-family="Helvetica,sans-Serif" font-size="10.00"> +DestinationProperty</text>
</g>
<!-- Node3&#45;&gt;Node2 -->
<g id="edge3" class="edge"><title>Node3&#45;&gt;Node2</title>
<path fill="none" stroke="#404040" d="M101.666,-309.025C109.48,-297.207 117.912,-284.452 126.297,-271.769"/>
<polygon fill="none" stroke="#404040" points="126.38,-271.643 126.352,-264.432 132.998,-261.633 133.026,-268.844 126.38,-271.643"/>
<text text-anchor="middle" x="135.491" y="-283" font-family="Helvetica,sans-Serif" font-size="10.00"> +Name</text>
</g>
<!-- Node13 -->
<g id="node4" class="node"><title>Node13</title>
<g id="a_node4"><a xlink:href="a25667.html" target="_top" xlink:title=" ">
<polygon fill="none" stroke="red" points="309.991,-133 309.991,-234 431.991,-234 431.991,-133 309.991,-133"/>
<text text-anchor="start" x="317.991" y="-222" font-family="Helvetica,sans-Serif" font-size="10.00">SDK::TWeakObjectPtr</text>
<text text-anchor="middle" x="370.991" y="-211" font-family="Helvetica,sans-Serif" font-size="10.00">&lt; class SDK::UObject &gt;</text>
<polyline fill="none" stroke="red" points="309.991,-204 431.991,-204 "/>
<text text-anchor="middle" x="370.991" y="-192" font-family="Helvetica,sans-Serif" font-size="10.00"> </text>
<polyline fill="none" stroke="red" points="309.991,-185 431.991,-185 "/>
<text text-anchor="start" x="317.991" y="-173" font-family="Helvetica,sans-Serif" font-size="10.00">+ Get()</text>
<text text-anchor="start" x="317.991" y="-162" font-family="Helvetica,sans-Serif" font-size="10.00">+ operator*()</text>
<text text-anchor="start" x="317.991" y="-151" font-family="Helvetica,sans-Serif" font-size="10.00">+ operator&#45;&gt;()</text>
<text text-anchor="start" x="317.991" y="-140" font-family="Helvetica,sans-Serif" font-size="10.00">+ IsValid()</text>
</a>
</g>
</g>
<!-- Node13&#45;&gt;Node1 -->
<g id="edge5" class="edge"><title>Node13&#45;&gt;Node1</title>
<path fill="none" stroke="#404040" d="M355.732,-132.988C349.339,-112.245 342.014,-88.48 336.014,-69.0092"/>
<polygon fill="none" stroke="#404040" points="336.003,-68.9739 330.413,-64.4182 332.468,-57.5062 338.058,-62.062 336.003,-68.9739"/>
<text text-anchor="middle" x="375.491" y="-79" font-family="Helvetica,sans-Serif" font-size="10.00"> +SourceObject</text>
</g>
<!-- Node15 -->
<g id="node5" class="node"><title>Node15</title>
<g id="a_node5"><a xlink:href="a35571.html" target="_top" xlink:title=" ">
<polygon fill="none" stroke="red" points="449.991,-155 449.991,-212 593.991,-212 593.991,-155 449.991,-155"/>
<text text-anchor="middle" x="521.991" y="-200" font-family="Helvetica,sans-Serif" font-size="10.00">SDK::FDynamicPropertyPath</text>
<polyline fill="none" stroke="red" points="449.991,-193 593.991,-193 "/>
<text text-anchor="middle" x="521.991" y="-181" font-family="Helvetica,sans-Serif" font-size="10.00"> </text>
<polyline fill="none" stroke="red" points="449.991,-174 593.991,-174 "/>
<text text-anchor="middle" x="521.991" y="-162" font-family="Helvetica,sans-Serif" font-size="10.00"> </text>
</a>
</g>
</g>
<!-- Node15&#45;&gt;Node1 -->
<g id="edge6" class="edge"><title>Node15&#45;&gt;Node1</title>
<path fill="none" stroke="#404040" d="M498.246,-154.738C477.588,-131.715 446.013,-99.1255 413.991,-76 407.83,-71.5503 401.177,-67.2895 394.375,-63.2811"/>
<polygon fill="none" stroke="#404040" points="394.061,-63.1035 386.869,-63.6336 383.614,-57.1991 390.805,-56.669 394.061,-63.1035"/>
<text text-anchor="middle" x="457.491" y="-79" font-family="Helvetica,sans-Serif" font-size="10.00"> +SourcePath</text>
</g>
</g>
</svg>
        <g id="navigator" transform="translate(0 0)" fill="#404254">
                <rect fill="#f2f5e9" fill-opacity="0.5" stroke="#606060" stroke-width=".5" x="0" y="0" width="60" height="60"/>
                <use id="zoomplus" xlink:href="#zoomPlus" x="17" y="9" onmousedown="handleZoom(evt,'in')"/>
                <use id="zoomminus" xlink:href="#zoomMin" x="42" y="9" onmousedown="handleZoom(evt,'out')"/>
                <use id="reset" xlink:href="#resetDef" x="30" y="36" onmousedown="handleReset()"/>
                <g id="arrowUp" xlink:href="#dirArrow" transform="translate(30 24)" onmousedown="handlePan(0,-1)">
                  <use xlink:href="#rim" fill="#404040">
                        <set attributeName="fill" to="#808080" begin="arrowUp.mouseover" end="arrowUp.mouseout"/>
                  </use>
                  <path fill="none" stroke="white" stroke-width="1.5" d="M0,-3.0v7 M-2.5,-0.5L0,-3.0L2.5,-0.5"/>
                </g>
                <g id="arrowRight" xlink:href="#dirArrow" transform="rotate(90) translate(36 -43)" onmousedown="handlePan(1,0)">
                  <use xlink:href="#rim" fill="#404040">
                        <set attributeName="fill" to="#808080" begin="arrowRight.mouseover" end="arrowRight.mouseout"/>
                  </use>
                  <path fill="none" stroke="white" stroke-width="1.5" d="M0,-3.0v7 M-2.5,-0.5L0,-3.0L2.5,-0.5"/>
                </g>
                <g id="arrowDown" xlink:href="#dirArrow" transform="rotate(180) translate(-30 -48)" onmousedown="handlePan(0,1)">
                  <use xlink:href="#rim" fill="#404040">
                        <set attributeName="fill" to="#808080" begin="arrowDown.mouseover" end="arrowDown.mouseout"/>
                  </use>
                  <path fill="none" stroke="white" stroke-width="1.5" d="M0,-3.0v7 M-2.5,-0.5L0,-3.0L2.5,-0.5"/>
                </g>
                <g id="arrowLeft" xlink:href="#dirArrow" transform="rotate(270) translate(-36 17)" onmousedown="handlePan(-1,0)">
                  <use xlink:href="#rim" fill="#404040">
                        <set attributeName="fill" to="#808080" begin="arrowLeft.mouseover" end="arrowLeft.mouseout"/>
                  </use>
                  <path fill="none" stroke="white" stroke-width="1.5" d="M0,-3.0v7 M-2.5,-0.5L0,-3.0L2.5,-0.5"/>
                </g>
        </g>
        <svg viewBox="0 0 15 15" width="100%" height="30px" preserveAspectRatio="xMaxYMin meet">
         <g id="arrow_out" transform="scale(0.3 0.3)">
          <a xlink:href="a35241_org.svg" target="_base">
           <rect id="button" ry="5" rx="5" y="6" x="6" height="38" width="38"
                fill="#f2f5e9" fill-opacity="0.5" stroke="#606060" stroke-width="1.0"/>
           <path id="arrow"
             d="M 11.500037,31.436501 C 11.940474,20.09759 22.043105,11.32322 32.158766,21.979434 L 37.068811,17.246167 C 37.068811,17.246167 37.088388,32 37.088388,32 L 22.160133,31.978069 C 22.160133,31.978069 26.997745,27.140456 26.997745,27.140456 C 18.528582,18.264221 13.291696,25.230495 11.500037,31.436501 z"
             style="fill:#404040;"/>
          </a>
         </g>
        </svg>
</svg>
