<?xml version="1.0" encoding="UTF-8" standalone="no"?>
<!DOCTYPE svg PUBLIC "-//W3C//DTD SVG 1.1//EN"
 "http://www.w3.org/Graphics/SVG/1.1/DTD/svg11.dtd">
<!-- Generated by graphviz version 2.38.0 (20140413.2041)
 -->
<!-- Title: SDK::UTaleQuestPermanentPromptStepDesc Pages: 1 -->
<!--zoomable 353 -->
<svg id="main" version="1.1" xmlns="http://www.w3.org/2000/svg" xmlns:xlink="http://www.w3.org/1999/xlink" xml:space="preserve" onload="init(evt)">
<style type="text/css"><![CDATA[
.edge:hover path { stroke: red; }
.edge:hover polygon { stroke: red; fill: red; }
]]></style>
<script type="text/javascript"><![CDATA[
var edges = document.getElementsByTagName('g');
if (edges && edges.length) {
  for (var i=0;i<edges.length;i++) {
    if (edges[i].id.substr(0,4)=='edge') {
      edges[i].setAttribute('class','edge');
    }
  }
}
]]></script>
        <defs>
                <circle id="rim" cx="0" cy="0" r="7"/>
                <circle id="rim2" cx="0" cy="0" r="3.5"/>
                <g id="zoomPlus">
                        <use xlink:href="#rim" fill="#404040">
                                <set attributeName="fill" to="#808080" begin="zoomplus.mouseover" end="zoomplus.mouseout"/>
                        </use>
                        <path d="M-4,0h8M0,-4v8" fill="none" stroke="white" stroke-width="1.5" pointer-events="none"/>
                </g>
                <g id="zoomMin">
                        <use xlink:href="#rim" fill="#404040">
                                <set attributeName="fill" to="#808080" begin="zoomminus.mouseover" end="zoomminus.mouseout"/>
                        </use>
                        <path d="M-4,0h8" fill="none" stroke="white" stroke-width="1.5" pointer-events="none"/>
                </g>
                <g id="dirArrow">
                        <path fill="none" stroke="white" stroke-width="1.5" d="M0,-3.0v7 M-2.5,-0.5L0,-3.0L2.5,-0.5"/>
                </g>
               <g id="resetDef">
                       <use xlink:href="#rim2" fill="#404040">
                               <set attributeName="fill" to="#808080" begin="reset.mouseover" end="reset.mouseout"/>
                       </use>
               </g>
        </defs>

<script type="text/javascript">
var viewWidth = 595;
var viewHeight = 353;
var sectionId = 'dynsection-1';
</script>
<script xlink:href="svgpan.js"/>
<svg id="graph" class="graph">
<g id="viewport">
<title>SDK::UTaleQuestPermanentPromptStepDesc</title>
<!-- Node1 -->
<g id="node1" class="node"><title>Node1</title>
<g id="a_node1"><a xlink:title=" ">
<polygon fill="#bfbfbf" stroke="black" points="227.471,-0.5 227.471,-68.5 368.471,-68.5 368.471,-0.5 227.471,-0.5"/>
<text text-anchor="start" x="235.471" y="-56.5" font-family="Helvetica,sans-Serif" font-size="10.00">SDK::UTaleQuestPermanent</text>
<text text-anchor="middle" x="297.971" y="-45.5" font-family="Helvetica,sans-Serif" font-size="10.00">PromptStepDesc</text>
<polyline fill="none" stroke="black" points="227.471,-38.5 368.471,-38.5 "/>
<text text-anchor="middle" x="297.971" y="-26.5" font-family="Helvetica,sans-Serif" font-size="10.00"> </text>
<polyline fill="none" stroke="black" points="227.471,-19.5 368.471,-19.5 "/>
<text text-anchor="start" x="235.471" y="-7.5" font-family="Helvetica,sans-Serif" font-size="10.00">+ StaticClass()</text>
</a>
</g>
</g>
<!-- Node2 -->
<g id="node2" class="node"><title>Node2</title>
<g id="a_node2"><a xlink:href="a35139.html" target="_top" xlink:title=" ">
<polygon fill="none" stroke="red" points="106.471,-149.5 106.471,-206.5 243.471,-206.5 243.471,-149.5 106.471,-149.5"/>
<text text-anchor="middle" x="174.971" y="-194.5" font-family="Helvetica,sans-Serif" font-size="10.00">SDK::UTaleQuestStepDesc</text>
<polyline fill="none" stroke="red" points="106.471,-187.5 243.471,-187.5 "/>
<text text-anchor="middle" x="174.971" y="-175.5" font-family="Helvetica,sans-Serif" font-size="10.00"> </text>
<polyline fill="none" stroke="red" points="106.471,-168.5 243.471,-168.5 "/>
<text text-anchor="start" x="114.471" y="-156.5" font-family="Helvetica,sans-Serif" font-size="10.00">+ StaticClass()</text>
</a>
</g>
</g>
<!-- Node2&#45;&gt;Node1 -->
<g id="edge1" class="edge"><title>Node2&#45;&gt;Node1</title>
<path fill="none" stroke="midnightblue" d="M205.619,-141.741C225.106,-119.324 250.17,-90.4903 269.268,-68.5192"/>
<polygon fill="none" stroke="midnightblue" points="202.897,-139.538 198.978,-149.381 208.18,-144.13 202.897,-139.538"/>
</g>
<!-- Node12 -->
<g id="node3" class="node"><title>Node12</title>
<g id="a_node3"><a xlink:title=" ">
<polygon fill="none" stroke="#bfbfbf" points="40.4706,-287.5 40.4706,-344.5 75.4706,-344.5 75.4706,-287.5 40.4706,-287.5"/>
<text text-anchor="middle" x="57.9706" y="-332.5" font-family="Helvetica,sans-Serif" font-size="10.00">char</text>
<polyline fill="none" stroke="#bfbfbf" points="40.4706,-325.5 75.4706,-325.5 "/>
<text text-anchor="middle" x="57.9706" y="-313.5" font-family="Helvetica,sans-Serif" font-size="10.00"> </text>
<polyline fill="none" stroke="#bfbfbf" points="40.4706,-306.5 75.4706,-306.5 "/>
<text text-anchor="middle" x="57.9706" y="-294.5" font-family="Helvetica,sans-Serif" font-size="10.00"> </text>
</a>
</g>
</g>
<!-- Node12&#45;&gt;Node1 -->
<g id="edge4" class="edge"><title>Node12&#45;&gt;Node1</title>
<path fill="none" stroke="#404040" d="M40.3921,-288.259C15.7624,-247.088 -21.884,-167.549 16.9706,-116 40.9502,-84.1863 141.216,-61.1156 215.173,-48.0305"/>
<polygon fill="none" stroke="#404040" points="215.438,-47.9847 220.668,-43.02 227.262,-45.9382 222.032,-50.9029 215.438,-47.9847"/>
<text text-anchor="middle" x="56.9706" y="-175.5" font-family="Helvetica,sans-Serif" font-size="10.00"> +UnknownData00</text>
</g>
<!-- Node12&#45;&gt;Node2 -->
<g id="edge2" class="edge"><title>Node12&#45;&gt;Node2</title>
<path fill="none" stroke="#404040" d="M75.4867,-294.639C93.3492,-273.876 121.456,-241.205 143.245,-215.877"/>
<polygon fill="none" stroke="#404040" points="143.426,-215.667 144.307,-208.51 151.252,-206.57 150.371,-213.727 143.426,-215.667"/>
<text text-anchor="middle" x="146.971" y="-261" font-family="Helvetica,sans-Serif" font-size="10.00"> +UnknownData00</text>
</g>
<!-- Node15 -->
<g id="node4" class="node"><title>Node15</title>
<g id="a_node4"><a xlink:href="a35331.html" target="_top" xlink:title=" ">
<polygon fill="none" stroke="red" points="261.971,-144 261.971,-212 415.971,-212 415.971,-144 261.971,-144"/>
<text text-anchor="start" x="269.971" y="-200" font-family="Helvetica,sans-Serif" font-size="10.00">SDK::FQuestVariablePrioritised</text>
<text text-anchor="middle" x="338.971" y="-189" font-family="Helvetica,sans-Serif" font-size="10.00">Prompt</text>
<polyline fill="none" stroke="red" points="261.971,-182 415.971,-182 "/>
<text text-anchor="middle" x="338.971" y="-170" font-family="Helvetica,sans-Serif" font-size="10.00"> </text>
<polyline fill="none" stroke="red" points="261.971,-163 415.971,-163 "/>
<text text-anchor="middle" x="338.971" y="-151" font-family="Helvetica,sans-Serif" font-size="10.00"> </text>
</a>
</g>
</g>
<!-- Node15&#45;&gt;Node1 -->
<g id="edge3" class="edge"><title>Node15&#45;&gt;Node1</title>
<path fill="none" stroke="#404040" d="M329.358,-143.825C323.897,-124.978 316.984,-101.12 311.037,-80.5949"/>
<polygon fill="none" stroke="#404040" points="311.005,-80.4838 305.493,-75.8341 307.665,-68.9579 313.177,-73.6076 311.005,-80.4838"/>
<text text-anchor="middle" x="337.471" y="-90" font-family="Helvetica,sans-Serif" font-size="10.00"> +Prompt</text>
</g>
<!-- Node17 -->
<g id="node5" class="node"><title>Node17</title>
<g id="a_node5"><a xlink:href="a25847.html" target="_top" xlink:title=" ">
<polygon fill="none" stroke="black" points="434.471,-116.5 434.471,-239.5 587.471,-239.5 587.471,-116.5 434.471,-116.5"/>
<text text-anchor="start" x="442.471" y="-227.5" font-family="Helvetica,sans-Serif" font-size="10.00">SDK::TEnumAsByte&lt; EPrompt</text>
<text text-anchor="middle" x="510.971" y="-216.5" font-family="Helvetica,sans-Serif" font-size="10.00">StartStop &gt;</text>
<polyline fill="none" stroke="black" points="434.471,-209.5 587.471,-209.5 "/>
<text text-anchor="middle" x="510.971" y="-197.5" font-family="Helvetica,sans-Serif" font-size="10.00"> </text>
<polyline fill="none" stroke="black" points="434.471,-190.5 587.471,-190.5 "/>
<text text-anchor="start" x="442.471" y="-178.5" font-family="Helvetica,sans-Serif" font-size="10.00">+ TEnumAsByte()</text>
<text text-anchor="start" x="442.471" y="-167.5" font-family="Helvetica,sans-Serif" font-size="10.00">+ TEnumAsByte()</text>
<text text-anchor="start" x="442.471" y="-156.5" font-family="Helvetica,sans-Serif" font-size="10.00">+ TEnumAsByte()</text>
<text text-anchor="start" x="442.471" y="-145.5" font-family="Helvetica,sans-Serif" font-size="10.00">+ TEnumAsByte()</text>
<text text-anchor="start" x="442.471" y="-134.5" font-family="Helvetica,sans-Serif" font-size="10.00">+ operator EPromptStartStop()</text>
<text text-anchor="start" x="442.471" y="-123.5" font-family="Helvetica,sans-Serif" font-size="10.00">+ GetValue()</text>
</a>
</g>
</g>
<!-- Node17&#45;&gt;Node1 -->
<g id="edge5" class="edge"><title>Node17&#45;&gt;Node1</title>
<path fill="none" stroke="#404040" d="M434.214,-122.259C431.101,-120.133 428.011,-118.04 424.971,-116 404.665,-102.376 382.215,-87.9446 361.909,-75.1203"/>
<polygon fill="none" stroke="#404040" points="361.665,-74.9662 354.456,-75.1549 351.509,-68.5734 358.718,-68.3846 361.665,-74.9662"/>
<text text-anchor="middle" x="428.471" y="-90" font-family="Helvetica,sans-Serif" font-size="10.00"> +StartOrStop</text>
</g>
</g>
</svg>
        <g id="navigator" transform="translate(0 0)" fill="#404254">
                <rect fill="#f2f5e9" fill-opacity="0.5" stroke="#606060" stroke-width=".5" x="0" y="0" width="60" height="60"/>
                <use id="zoomplus" xlink:href="#zoomPlus" x="17" y="9" onmousedown="handleZoom(evt,'in')"/>
                <use id="zoomminus" xlink:href="#zoomMin" x="42" y="9" onmousedown="handleZoom(evt,'out')"/>
                <use id="reset" xlink:href="#resetDef" x="30" y="36" onmousedown="handleReset()"/>
                <g id="arrowUp" xlink:href="#dirArrow" transform="translate(30 24)" onmousedown="handlePan(0,-1)">
                  <use xlink:href="#rim" fill="#404040">
                        <set attributeName="fill" to="#808080" begin="arrowUp.mouseover" end="arrowUp.mouseout"/>
                  </use>
                  <path fill="none" stroke="white" stroke-width="1.5" d="M0,-3.0v7 M-2.5,-0.5L0,-3.0L2.5,-0.5"/>
                </g>
                <g id="arrowRight" xlink:href="#dirArrow" transform="rotate(90) translate(36 -43)" onmousedown="handlePan(1,0)">
                  <use xlink:href="#rim" fill="#404040">
                        <set attributeName="fill" to="#808080" begin="arrowRight.mouseover" end="arrowRight.mouseout"/>
                  </use>
                  <path fill="none" stroke="white" stroke-width="1.5" d="M0,-3.0v7 M-2.5,-0.5L0,-3.0L2.5,-0.5"/>
                </g>
                <g id="arrowDown" xlink:href="#dirArrow" transform="rotate(180) translate(-30 -48)" onmousedown="handlePan(0,1)">
                  <use xlink:href="#rim" fill="#404040">
                        <set attributeName="fill" to="#808080" begin="arrowDown.mouseover" end="arrowDown.mouseout"/>
                  </use>
                  <path fill="none" stroke="white" stroke-width="1.5" d="M0,-3.0v7 M-2.5,-0.5L0,-3.0L2.5,-0.5"/>
                </g>
                <g id="arrowLeft" xlink:href="#dirArrow" transform="rotate(270) translate(-36 17)" onmousedown="handlePan(-1,0)">
                  <use xlink:href="#rim" fill="#404040">
                        <set attributeName="fill" to="#808080" begin="arrowLeft.mouseover" end="arrowLeft.mouseout"/>
                  </use>
                  <path fill="none" stroke="white" stroke-width="1.5" d="M0,-3.0v7 M-2.5,-0.5L0,-3.0L2.5,-0.5"/>
                </g>
        </g>
        <svg viewBox="0 0 15 15" width="100%" height="30px" preserveAspectRatio="xMaxYMin meet">
         <g id="arrow_out" transform="scale(0.3 0.3)">
          <a xlink:href="a35289_org.svg" target="_base">
           <rect id="button" ry="5" rx="5" y="6" x="6" height="38" width="38"
                fill="#f2f5e9" fill-opacity="0.5" stroke="#606060" stroke-width="1.0"/>
           <path id="arrow"
             d="M 11.500037,31.436501 C 11.940474,20.09759 22.043105,11.32322 32.158766,21.979434 L 37.068811,17.246167 C 37.068811,17.246167 37.088388,32 37.088388,32 L 22.160133,31.978069 C 22.160133,31.978069 26.997745,27.140456 26.997745,27.140456 C 18.528582,18.264221 13.291696,25.230495 11.500037,31.436501 z"
             style="fill:#404040;"/>
          </a>
         </g>
        </svg>
</svg>
