<?xml version="1.0" encoding="UTF-8" standalone="no"?>
<!DOCTYPE svg PUBLIC "-//W3C//DTD SVG 1.1//EN"
 "http://www.w3.org/Graphics/SVG/1.1/DTD/svg11.dtd">
<!-- Generated by graphviz version 2.38.0 (20140413.2041)
 -->
<!-- Title: SDK::URichTextBlock Pages: 1 -->
<svg width="1392pt" height="590pt"
 viewBox="0.00 0.00 1392.00 590.00" xmlns="http://www.w3.org/2000/svg" xmlns:xlink="http://www.w3.org/1999/xlink">
<g id="graph0" class="graph" transform="scale(1 1) rotate(0) translate(4 586)">
<title>SDK::URichTextBlock</title>
<!-- Node1 -->
<g id="node1" class="node"><title>Node1</title>
<g id="a_node1"><a xlink:title=" ">
<polygon fill="#bfbfbf" stroke="black" points="618.5,-0.5 618.5,-57.5 731.5,-57.5 731.5,-0.5 618.5,-0.5"/>
<text text-anchor="middle" x="675" y="-45.5" font-family="Helvetica,sans-Serif" font-size="10.00">SDK::URichTextBlock</text>
<polyline fill="none" stroke="black" points="618.5,-38.5 731.5,-38.5 "/>
<text text-anchor="middle" x="675" y="-26.5" font-family="Helvetica,sans-Serif" font-size="10.00"> </text>
<polyline fill="none" stroke="black" points="618.5,-19.5 731.5,-19.5 "/>
<text text-anchor="start" x="626.5" y="-7.5" font-family="Helvetica,sans-Serif" font-size="10.00">+ StaticClass()</text>
</a>
</g>
</g>
<!-- Node2 -->
<g id="node2" class="node"><title>Node2</title>
<g id="a_node2"><a xlink:href="a35363.html" target="_top" xlink:title=" ">
<polygon fill="none" stroke="red" points="193.5,-105.5 193.5,-283.5 334.5,-283.5 334.5,-105.5 193.5,-105.5"/>
<text text-anchor="middle" x="264" y="-271.5" font-family="Helvetica,sans-Serif" font-size="10.00">SDK::UWidget</text>
<polyline fill="none" stroke="red" points="193.5,-264.5 334.5,-264.5 "/>
<text text-anchor="middle" x="264" y="-252.5" font-family="Helvetica,sans-Serif" font-size="10.00"> </text>
<polyline fill="none" stroke="red" points="193.5,-245.5 334.5,-245.5 "/>
<text text-anchor="start" x="201.5" y="-233.5" font-family="Helvetica,sans-Serif" font-size="10.00">+ SetVisibility()</text>
<text text-anchor="start" x="201.5" y="-222.5" font-family="Helvetica,sans-Serif" font-size="10.00">+ SetUserFocus()</text>
<text text-anchor="start" x="201.5" y="-211.5" font-family="Helvetica,sans-Serif" font-size="10.00">+ SetToolTipText()</text>
<text text-anchor="start" x="201.5" y="-200.5" font-family="Helvetica,sans-Serif" font-size="10.00">+ SetToolTip()</text>
<text text-anchor="start" x="201.5" y="-189.5" font-family="Helvetica,sans-Serif" font-size="10.00">+ SetRenderTranslation()</text>
<text text-anchor="start" x="201.5" y="-178.5" font-family="Helvetica,sans-Serif" font-size="10.00">+ SetRenderTransformPivot()</text>
<text text-anchor="start" x="201.5" y="-167.5" font-family="Helvetica,sans-Serif" font-size="10.00">+ SetRenderTransform()</text>
<text text-anchor="start" x="201.5" y="-156.5" font-family="Helvetica,sans-Serif" font-size="10.00">+ SetRenderShear()</text>
<text text-anchor="start" x="201.5" y="-145.5" font-family="Helvetica,sans-Serif" font-size="10.00">+ SetRenderScale()</text>
<text text-anchor="start" x="201.5" y="-134.5" font-family="Helvetica,sans-Serif" font-size="10.00">+ SetRenderAngle()</text>
<text text-anchor="start" x="201.5" y="-123.5" font-family="Helvetica,sans-Serif" font-size="10.00">and 35 more...</text>
<text text-anchor="start" x="201.5" y="-112.5" font-family="Helvetica,sans-Serif" font-size="10.00">+ StaticClass()</text>
</a>
</g>
</g>
<!-- Node2&#45;&gt;Node1 -->
<g id="edge1" class="edge"><title>Node2&#45;&gt;Node1</title>
<path fill="none" stroke="midnightblue" d="M343.421,-132.995C374.079,-112.178 410.326,-90.4873 446,-76 502.169,-53.1896 570.832,-41.3333 618.241,-35.4163"/>
<polygon fill="none" stroke="midnightblue" points="341.184,-130.286 334.928,-138.836 345.151,-136.053 341.184,-130.286"/>
</g>
<!-- Node2&#45;&gt;Node2 -->
<g id="edge5" class="edge"><title>Node2&#45;&gt;Node2</title>
<path fill="none" stroke="#404040" d="M334.826,-213.55C345.369,-210.585 352.5,-204.234 352.5,-194.5 352.5,-188.72 349.986,-184.133 345.737,-180.74"/>
<polygon fill="none" stroke="#404040" points="345.623,-180.685 338.479,-181.667 334.826,-175.45 341.97,-174.468 345.623,-180.685"/>
<text text-anchor="middle" x="388" y="-192" font-family="Helvetica,sans-Serif" font-size="10.00"> +ToolTipWidget</text>
</g>
<!-- Node13 -->
<g id="node3" class="node"><title>Node13</title>
<g id="a_node3"><a xlink:title=" ">
<polygon fill="none" stroke="#bfbfbf" points="433.5,-524.5 433.5,-581.5 468.5,-581.5 468.5,-524.5 433.5,-524.5"/>
<text text-anchor="middle" x="451" y="-569.5" font-family="Helvetica,sans-Serif" font-size="10.00">char</text>
<polyline fill="none" stroke="#bfbfbf" points="433.5,-562.5 468.5,-562.5 "/>
<text text-anchor="middle" x="451" y="-550.5" font-family="Helvetica,sans-Serif" font-size="10.00"> </text>
<polyline fill="none" stroke="#bfbfbf" points="433.5,-543.5 468.5,-543.5 "/>
<text text-anchor="middle" x="451" y="-531.5" font-family="Helvetica,sans-Serif" font-size="10.00"> </text>
</a>
</g>
</g>
<!-- Node13&#45;&gt;Node1 -->
<g id="edge15" class="edge"><title>Node13&#45;&gt;Node1</title>
<path fill="none" stroke="#404040" d="M468.789,-540.824C490.026,-526.4 524.71,-499.172 541,-466 612.116,-321.189 500.773,-246.096 579,-105 587.666,-89.3698 601.07,-75.8867 615.141,-64.836"/>
<polygon fill="none" stroke="#404040" points="615.296,-64.7211 617.736,-57.9353 624.938,-57.5778 622.498,-64.3635 615.296,-64.7211"/>
<text text-anchor="middle" x="607" y="-339.5" font-family="Helvetica,sans-Serif" font-size="10.00"> +UnknownData01</text>
<text text-anchor="middle" x="607" y="-328.5" font-family="Helvetica,sans-Serif" font-size="10.00">+UnknownData02</text>
<text text-anchor="middle" x="607" y="-317.5" font-family="Helvetica,sans-Serif" font-size="10.00">+UnknownData00</text>
</g>
<!-- Node13&#45;&gt;Node2 -->
<g id="edge2" class="edge"><title>Node13&#45;&gt;Node2</title>
<path fill="none" stroke="#404040" d="M454.077,-524.49C458.131,-475.775 460.311,-372.81 417,-302 399.855,-273.969 372.244,-251.42 345.165,-234.415"/>
<polygon fill="none" stroke="#404040" points="345.104,-234.378 337.9,-234.696 334.836,-228.169 342.04,-227.851 345.104,-234.378"/>
<text text-anchor="middle" x="496.5" y="-458" font-family="Helvetica,sans-Serif" font-size="10.00"> +UnknownData01</text>
<text text-anchor="middle" x="496.5" y="-447" font-family="Helvetica,sans-Serif" font-size="10.00">+UnknownData02</text>
<text text-anchor="middle" x="496.5" y="-436" font-family="Helvetica,sans-Serif" font-size="10.00">+UnknownData03</text>
<text text-anchor="middle" x="496.5" y="-425" font-family="Helvetica,sans-Serif" font-size="10.00">+UnknownData04</text>
<text text-anchor="middle" x="496.5" y="-414" font-family="Helvetica,sans-Serif" font-size="10.00">+UnknownData05</text>
<text text-anchor="middle" x="496.5" y="-403" font-family="Helvetica,sans-Serif" font-size="10.00">+UnknownData06</text>
<text text-anchor="middle" x="496.5" y="-392" font-family="Helvetica,sans-Serif" font-size="10.00">+bOverride_Cursor</text>
<text text-anchor="middle" x="496.5" y="-381" font-family="Helvetica,sans-Serif" font-size="10.00">+UnknownData00</text>
</g>
<!-- Node19 -->
<g id="node4" class="node"><title>Node19</title>
<g id="a_node4"><a xlink:href="a25647.html" target="_top" xlink:title=" ">
<polygon fill="none" stroke="black" points="0,-393.5 0,-450.5 68,-450.5 68,-393.5 0,-393.5"/>
<text text-anchor="middle" x="34" y="-438.5" font-family="Helvetica,sans-Serif" font-size="10.00">SDK::FText</text>
<polyline fill="none" stroke="black" points="0,-431.5 68,-431.5 "/>
<text text-anchor="middle" x="34" y="-419.5" font-family="Helvetica,sans-Serif" font-size="10.00"> </text>
<polyline fill="none" stroke="black" points="0,-412.5 68,-412.5 "/>
<text text-anchor="middle" x="34" y="-400.5" font-family="Helvetica,sans-Serif" font-size="10.00"> </text>
</a>
</g>
</g>
<!-- Node13&#45;&gt;Node19 -->
<g id="edge4" class="edge"><title>Node13&#45;&gt;Node19</title>
<path fill="none" stroke="#404040" d="M433.275,-551.571C377.131,-549.488 199.699,-537.3 77,-466 73.5313,-463.984 70.1449,-461.62 66.8928,-459.054"/>
<polygon fill="none" stroke="#404040" points="66.6159,-458.811 59.4672,-457.865 57.5915,-450.902 64.7402,-451.848 66.6159,-458.811"/>
<text text-anchor="middle" x="198" y="-492.5" font-family="Helvetica,sans-Serif" font-size="10.00"> +UnknownData</text>
</g>
<!-- Node26 -->
<g id="node6" class="node"><title>Node26</title>
<g id="a_node6"><a xlink:href="a25651.html" target="_top" xlink:title=" ">
<polygon fill="none" stroke="black" points="86.5,-393.5 86.5,-450.5 199.5,-450.5 199.5,-393.5 86.5,-393.5"/>
<text text-anchor="middle" x="143" y="-438.5" font-family="Helvetica,sans-Serif" font-size="10.00">SDK::FScriptDelegate</text>
<polyline fill="none" stroke="black" points="86.5,-431.5 199.5,-431.5 "/>
<text text-anchor="middle" x="143" y="-419.5" font-family="Helvetica,sans-Serif" font-size="10.00"> </text>
<polyline fill="none" stroke="black" points="86.5,-412.5 199.5,-412.5 "/>
<text text-anchor="middle" x="143" y="-400.5" font-family="Helvetica,sans-Serif" font-size="10.00"> </text>
</a>
</g>
</g>
<!-- Node13&#45;&gt;Node26 -->
<g id="edge8" class="edge"><title>Node13&#45;&gt;Node26</title>
<path fill="none" stroke="#404040" d="M433.109,-544.507C390.76,-526.77 282.567,-481.455 210.946,-451.458"/>
<polygon fill="none" stroke="#404040" points="210.85,-451.418 203.77,-452.789 199.781,-446.782 206.861,-445.41 210.85,-451.418"/>
<text text-anchor="middle" x="369" y="-492.5" font-family="Helvetica,sans-Serif" font-size="10.00"> +UnknownData</text>
</g>
<!-- Node32 -->
<g id="node10" class="node"><title>Node32</title>
<g id="a_node10"><a xlink:href="a34515.html" target="_top" xlink:title=" ">
<polygon fill="none" stroke="red" points="1175,-302.5 1175,-359.5 1281,-359.5 1281,-302.5 1175,-302.5"/>
<text text-anchor="middle" x="1228" y="-347.5" font-family="Helvetica,sans-Serif" font-size="10.00">SDK::FSlateFontInfo</text>
<polyline fill="none" stroke="red" points="1175,-340.5 1281,-340.5 "/>
<text text-anchor="middle" x="1228" y="-328.5" font-family="Helvetica,sans-Serif" font-size="10.00"> </text>
<polyline fill="none" stroke="red" points="1175,-321.5 1281,-321.5 "/>
<text text-anchor="middle" x="1228" y="-309.5" font-family="Helvetica,sans-Serif" font-size="10.00"> </text>
</a>
</g>
</g>
<!-- Node13&#45;&gt;Node32 -->
<g id="edge13" class="edge"><title>Node13&#45;&gt;Node32</title>
<path fill="none" stroke="#404040" d="M468.718,-550.567C533.23,-545 761.159,-522.262 940,-466 1022.28,-440.114 1111.54,-395.834 1168.52,-365.303"/>
<polygon fill="none" stroke="#404040" points="1168.57,-365.279 1171.95,-358.909 1179.13,-359.579 1175.75,-365.949 1168.57,-365.279"/>
<text text-anchor="middle" x="916" y="-498" font-family="Helvetica,sans-Serif" font-size="10.00"> +UnknownData01</text>
<text text-anchor="middle" x="916" y="-487" font-family="Helvetica,sans-Serif" font-size="10.00">+UnknownData00</text>
</g>
<!-- Node19&#45;&gt;Node1 -->
<g id="edge16" class="edge"><title>Node19&#45;&gt;Node1</title>
<path fill="none" stroke="#404040" d="M25.5902,-393.093C9.30792,-332.854 -19.1698,-189.291 50,-105 84.8882,-62.4849 451.349,-40.4582 606.365,-32.9862"/>
<polygon fill="none" stroke="#404040" points="606.497,-32.98 612.3,-28.7 618.483,-32.411 612.68,-36.691 606.497,-32.98"/>
<text text-anchor="middle" x="64" y="-192" font-family="Helvetica,sans-Serif" font-size="10.00"> +Text</text>
</g>
<!-- Node19&#45;&gt;Node2 -->
<g id="edge3" class="edge"><title>Node19&#45;&gt;Node2</title>
<path fill="none" stroke="#404040" d="M34.915,-393.449C37.3881,-366.041 45.6158,-324.871 72,-302 108.439,-270.413 136.363,-306.53 179,-284 180.377,-283.272 181.745,-282.514 183.103,-281.727"/>
<polygon fill="none" stroke="#404040" points="183.21,-281.659 186.101,-275.052 193.311,-275.18 190.42,-281.787 183.21,-281.659"/>
<text text-anchor="middle" x="101.5" y="-328.5" font-family="Helvetica,sans-Serif" font-size="10.00"> +ToolTipText</text>
</g>
<!-- Node24 -->
<g id="node5" class="node"><title>Node24</title>
<g id="a_node5"><a xlink:title=" ">
<polygon fill="none" stroke="#bfbfbf" points="316.5,-393.5 316.5,-450.5 351.5,-450.5 351.5,-393.5 316.5,-393.5"/>
<text text-anchor="middle" x="334" y="-438.5" font-family="Helvetica,sans-Serif" font-size="10.00">bool</text>
<polyline fill="none" stroke="#bfbfbf" points="316.5,-431.5 351.5,-431.5 "/>
<text text-anchor="middle" x="334" y="-419.5" font-family="Helvetica,sans-Serif" font-size="10.00"> </text>
<polyline fill="none" stroke="#bfbfbf" points="316.5,-412.5 351.5,-412.5 "/>
<text text-anchor="middle" x="334" y="-400.5" font-family="Helvetica,sans-Serif" font-size="10.00"> </text>
</a>
</g>
</g>
<!-- Node24&#45;&gt;Node1 -->
<g id="edge18" class="edge"><title>Node24&#45;&gt;Node1</title>
<path fill="none" stroke="#404040" d="M351.582,-412.057C369.741,-401.905 397.542,-383.639 413,-360 476.776,-262.47 398.113,-193.435 474,-105 507.216,-66.2917 562.413,-47.5345 606.569,-38.46"/>
<polygon fill="none" stroke="#404040" points="606.623,-38.4498 611.767,-33.396 618.41,-36.2003 613.266,-41.2542 606.623,-38.4498"/>
<text text-anchor="middle" x="510" y="-192" font-family="Helvetica,sans-Serif" font-size="10.00"> +AutoWrapText</text>
</g>
<!-- Node24&#45;&gt;Node2 -->
<g id="edge6" class="edge"><title>Node24&#45;&gt;Node2</title>
<path fill="none" stroke="#404040" d="M316.261,-409.349C301.48,-398.525 281.381,-380.948 272,-360 263.125,-340.184 258.812,-317.65 257.134,-295.753"/>
<polygon fill="none" stroke="#404040" points="257.129,-295.657 252.801,-289.889 256.461,-283.676 260.789,-289.444 257.129,-295.657"/>
<text text-anchor="middle" x="342.5" y="-345" font-family="Helvetica,sans-Serif" font-size="10.00"> +bCreatedByConstructionScript</text>
<text text-anchor="middle" x="342.5" y="-334" font-family="Helvetica,sans-Serif" font-size="10.00">+bIsEnabled</text>
<text text-anchor="middle" x="342.5" y="-323" font-family="Helvetica,sans-Serif" font-size="10.00">+bIsVolatile</text>
<text text-anchor="middle" x="342.5" y="-312" font-family="Helvetica,sans-Serif" font-size="10.00">+bIsVariable</text>
</g>
<!-- Node26&#45;&gt;Node1 -->
<g id="edge21" class="edge"><title>Node26&#45;&gt;Node1</title>
<path fill="none" stroke="#404040" d="M128.982,-393.242C100.597,-332.666 44.8852,-187.456 117,-105 148.778,-68.6645 463.757,-43.748 605.962,-34.2628"/>
<polygon fill="none" stroke="#404040" points="606.378,-34.2354 612.102,-29.8495 618.353,-33.4462 612.629,-37.8322 606.378,-34.2354"/>
<text text-anchor="middle" x="150.5" y="-192" font-family="Helvetica,sans-Serif" font-size="10.00"> +TextDelegate</text>
</g>
<!-- Node26&#45;&gt;Node2 -->
<g id="edge7" class="edge"><title>Node26&#45;&gt;Node2</title>
<path fill="none" stroke="#404040" d="M137.058,-393.352C133.114,-367.761 131.322,-329.612 148,-302 156.237,-288.363 166.471,-293.841 179,-284 180.67,-282.688 182.339,-281.344 184.004,-279.973"/>
<polygon fill="none" stroke="#404040" points="184.373,-279.657 186.327,-272.715 193.485,-271.849 191.532,-278.79 184.373,-279.657"/>
<text text-anchor="middle" x="201" y="-345" font-family="Helvetica,sans-Serif" font-size="10.00"> +ToolTipTextDelegate</text>
<text text-anchor="middle" x="201" y="-334" font-family="Helvetica,sans-Serif" font-size="10.00">+VisibilityDelegate</text>
<text text-anchor="middle" x="201" y="-323" font-family="Helvetica,sans-Serif" font-size="10.00">+bIsEnabledDelegate</text>
<text text-anchor="middle" x="201" y="-312" font-family="Helvetica,sans-Serif" font-size="10.00">+ToolTipWidgetDelegate</text>
</g>
<!-- Node30 -->
<g id="node7" class="node"><title>Node30</title>
<g id="a_node7"><a xlink:href="a25611.html" target="_top" xlink:title=" ">
<polygon fill="none" stroke="black" points="588.5,-138.5 588.5,-250.5 761.5,-250.5 761.5,-138.5 588.5,-138.5"/>
<text text-anchor="start" x="596.5" y="-238.5" font-family="Helvetica,sans-Serif" font-size="10.00">SDK::TArray&lt; class</text>
<text text-anchor="middle" x="675" y="-227.5" font-family="Helvetica,sans-Serif" font-size="10.00"> SDK::URichTextBlockDecorator * &gt;</text>
<polyline fill="none" stroke="black" points="588.5,-220.5 761.5,-220.5 "/>
<text text-anchor="middle" x="675" y="-208.5" font-family="Helvetica,sans-Serif" font-size="10.00"> </text>
<polyline fill="none" stroke="black" points="588.5,-201.5 761.5,-201.5 "/>
<text text-anchor="start" x="596.5" y="-189.5" font-family="Helvetica,sans-Serif" font-size="10.00">+ TArray()</text>
<text text-anchor="start" x="596.5" y="-178.5" font-family="Helvetica,sans-Serif" font-size="10.00">+ Num()</text>
<text text-anchor="start" x="596.5" y="-167.5" font-family="Helvetica,sans-Serif" font-size="10.00">+ operator[]()</text>
<text text-anchor="start" x="596.5" y="-156.5" font-family="Helvetica,sans-Serif" font-size="10.00">+ operator[]()</text>
<text text-anchor="start" x="596.5" y="-145.5" font-family="Helvetica,sans-Serif" font-size="10.00">+ IsValidIndex()</text>
</a>
</g>
</g>
<!-- Node30&#45;&gt;Node1 -->
<g id="edge9" class="edge"><title>Node30&#45;&gt;Node1</title>
<path fill="none" stroke="#404040" d="M675,-138.146C675,-115.744 675,-90.38 675,-69.8483"/>
<polygon fill="none" stroke="#404040" points="675,-69.7587 671,-63.7587 675,-57.7587 679,-63.7587 675,-69.7587"/>
<text text-anchor="middle" x="703.5" y="-79" font-family="Helvetica,sans-Serif" font-size="10.00"> +Decorators</text>
</g>
<!-- Node31 -->
<g id="node8" class="node"><title>Node31</title>
<g id="a_node8"><a xlink:href="a34471.html" target="_top" xlink:title=" ">
<polygon fill="none" stroke="black" points="1037,-166 1037,-223 1115,-223 1115,-166 1037,-166"/>
<text text-anchor="middle" x="1076" y="-211" font-family="Helvetica,sans-Serif" font-size="10.00">SDK::FMargin</text>
<polyline fill="none" stroke="black" points="1037,-204 1115,-204 "/>
<text text-anchor="middle" x="1076" y="-192" font-family="Helvetica,sans-Serif" font-size="10.00"> </text>
<polyline fill="none" stroke="black" points="1037,-185 1115,-185 "/>
<text text-anchor="middle" x="1076" y="-173" font-family="Helvetica,sans-Serif" font-size="10.00"> </text>
</a>
</g>
</g>
<!-- Node31&#45;&gt;Node1 -->
<g id="edge10" class="edge"><title>Node31&#45;&gt;Node1</title>
<path fill="none" stroke="#404040" d="M1065.75,-165.801C1057.15,-146.183 1043.03,-120.667 1023,-105 980.282,-71.5896 832.59,-48.7405 743.925,-37.6738"/>
<polygon fill="none" stroke="#404040" points="743.734,-37.6505 737.292,-40.8908 731.823,-36.1906 738.265,-32.9502 743.734,-37.6505"/>
<text text-anchor="middle" x="1005.5" y="-79" font-family="Helvetica,sans-Serif" font-size="10.00"> +Margin</text>
</g>
<!-- Node16 -->
<g id="node9" class="node"><title>Node16</title>
<g id="a_node9"><a xlink:title=" ">
<polygon fill="none" stroke="#bfbfbf" points="896.5,-393.5 896.5,-450.5 931.5,-450.5 931.5,-393.5 896.5,-393.5"/>
<text text-anchor="middle" x="914" y="-438.5" font-family="Helvetica,sans-Serif" font-size="10.00">float</text>
<polyline fill="none" stroke="#bfbfbf" points="896.5,-431.5 931.5,-431.5 "/>
<text text-anchor="middle" x="914" y="-419.5" font-family="Helvetica,sans-Serif" font-size="10.00"> </text>
<polyline fill="none" stroke="#bfbfbf" points="896.5,-412.5 931.5,-412.5 "/>
<text text-anchor="middle" x="914" y="-400.5" font-family="Helvetica,sans-Serif" font-size="10.00"> </text>
</a>
</g>
</g>
<!-- Node16&#45;&gt;Node1 -->
<g id="edge14" class="edge"><title>Node16&#45;&gt;Node1</title>
<path fill="none" stroke="#404040" d="M915.332,-393.439C918.074,-324.999 921.471,-149.6 887,-105 853.105,-61.1461 791.605,-42.8662 743.542,-35.2824"/>
<polygon fill="none" stroke="#404040" points="743.515,-35.2786 737.008,-38.3867 731.637,-33.5757 738.144,-30.4676 743.515,-35.2786"/>
<text text-anchor="middle" x="969.5" y="-197.5" font-family="Helvetica,sans-Serif" font-size="10.00"> +LineHeightPercentage</text>
<text text-anchor="middle" x="969.5" y="-186.5" font-family="Helvetica,sans-Serif" font-size="10.00">+WrapTextAt</text>
</g>
<!-- Node16&#45;&gt;Node31 -->
<g id="edge11" class="edge"><title>Node16&#45;&gt;Node31</title>
<path fill="none" stroke="#404040" d="M931.501,-400.766C953.806,-374.593 993.057,-327.224 1023,-284 1034.1,-267.972 1045.35,-249.569 1054.61,-233.712"/>
<polygon fill="none" stroke="#404040" points="1054.67,-233.594 1054.21,-226.398 1060.67,-223.2 1061.14,-230.396 1054.67,-233.594"/>
<text text-anchor="middle" x="1030.5" y="-345" font-family="Helvetica,sans-Serif" font-size="10.00"> +Bottom</text>
<text text-anchor="middle" x="1030.5" y="-334" font-family="Helvetica,sans-Serif" font-size="10.00">+Top</text>
<text text-anchor="middle" x="1030.5" y="-323" font-family="Helvetica,sans-Serif" font-size="10.00">+Left</text>
<text text-anchor="middle" x="1030.5" y="-312" font-family="Helvetica,sans-Serif" font-size="10.00">+Right</text>
</g>
<!-- Node36 -->
<g id="node12" class="node"><title>Node36</title>
<g id="a_node12"><a xlink:href="a26119.html" target="_top" xlink:title=" ">
<polygon fill="none" stroke="black" points="780,-144 780,-245 878,-245 878,-144 780,-144"/>
<text text-anchor="middle" x="829" y="-233" font-family="Helvetica,sans-Serif" font-size="10.00">SDK::FLinearColor</text>
<polyline fill="none" stroke="black" points="780,-226 878,-226 "/>
<text text-anchor="middle" x="829" y="-214" font-family="Helvetica,sans-Serif" font-size="10.00"> </text>
<polyline fill="none" stroke="black" points="780,-207 878,-207 "/>
<text text-anchor="start" x="788" y="-195" font-family="Helvetica,sans-Serif" font-size="10.00">+ FLinearColor()</text>
<text text-anchor="start" x="788" y="-184" font-family="Helvetica,sans-Serif" font-size="10.00">+ FLinearColor()</text>
<text text-anchor="start" x="788" y="-173" font-family="Helvetica,sans-Serif" font-size="10.00">+ FLinearColor()</text>
<text text-anchor="start" x="788" y="-162" font-family="Helvetica,sans-Serif" font-size="10.00">+ operator!=()</text>
<text text-anchor="start" x="788" y="-151" font-family="Helvetica,sans-Serif" font-size="10.00">+ operator==()</text>
</a>
</g>
</g>
<!-- Node16&#45;&gt;Node36 -->
<g id="edge20" class="edge"><title>Node16&#45;&gt;Node36</title>
<path fill="none" stroke="#404040" d="M899.459,-393.423C894.267,-383.08 888.575,-371.134 884,-360 870.198,-326.411 857.195,-287.963 847.3,-256.689"/>
<polygon fill="none" stroke="#404040" points="847.251,-256.531 841.641,-252 843.665,-245.079 849.275,-249.61 847.251,-256.531"/>
<text text-anchor="middle" x="892" y="-345" font-family="Helvetica,sans-Serif" font-size="10.00"> +A</text>
<text text-anchor="middle" x="892" y="-334" font-family="Helvetica,sans-Serif" font-size="10.00">+R</text>
<text text-anchor="middle" x="892" y="-323" font-family="Helvetica,sans-Serif" font-size="10.00">+B</text>
<text text-anchor="middle" x="892" y="-312" font-family="Helvetica,sans-Serif" font-size="10.00">+G</text>
</g>
<!-- Node32&#45;&gt;Node1 -->
<g id="edge12" class="edge"><title>Node32&#45;&gt;Node1</title>
<path fill="none" stroke="#404040" d="M1281.21,-314.857C1296.01,-307.929 1310.38,-298.023 1319,-284 1360.68,-216.234 1370.61,-165.541 1319,-105 1282.12,-61.7367 902.367,-40.0482 743.885,-32.8262"/>
<polygon fill="none" stroke="#404040" points="743.495,-32.8089 737.322,-36.536 731.507,-32.2712 737.68,-28.544 743.495,-32.8089"/>
<text text-anchor="middle" x="1369.5" y="-192" font-family="Helvetica,sans-Serif" font-size="10.00"> +Font</text>
</g>
<!-- Node35 -->
<g id="node11" class="node"><title>Node35</title>
<g id="a_node11"><a xlink:href="a25635.html" target="_top" xlink:title=" ">
<polygon fill="none" stroke="black" points="1133.5,-138.5 1133.5,-250.5 1310.5,-250.5 1310.5,-138.5 1133.5,-138.5"/>
<text text-anchor="middle" x="1222" y="-238.5" font-family="Helvetica,sans-Serif" font-size="10.00">SDK::TEnumAsByte&lt; ETextJustify &gt;</text>
<polyline fill="none" stroke="black" points="1133.5,-231.5 1310.5,-231.5 "/>
<text text-anchor="middle" x="1222" y="-219.5" font-family="Helvetica,sans-Serif" font-size="10.00"> </text>
<polyline fill="none" stroke="black" points="1133.5,-212.5 1310.5,-212.5 "/>
<text text-anchor="start" x="1141.5" y="-200.5" font-family="Helvetica,sans-Serif" font-size="10.00">+ TEnumAsByte()</text>
<text text-anchor="start" x="1141.5" y="-189.5" font-family="Helvetica,sans-Serif" font-size="10.00">+ TEnumAsByte()</text>
<text text-anchor="start" x="1141.5" y="-178.5" font-family="Helvetica,sans-Serif" font-size="10.00">+ TEnumAsByte()</text>
<text text-anchor="start" x="1141.5" y="-167.5" font-family="Helvetica,sans-Serif" font-size="10.00">+ TEnumAsByte()</text>
<text text-anchor="start" x="1141.5" y="-156.5" font-family="Helvetica,sans-Serif" font-size="10.00">+ operator ETextJustify()</text>
<text text-anchor="start" x="1141.5" y="-145.5" font-family="Helvetica,sans-Serif" font-size="10.00">+ GetValue()</text>
</a>
</g>
</g>
<!-- Node35&#45;&gt;Node1 -->
<g id="edge17" class="edge"><title>Node35&#45;&gt;Node1</title>
<path fill="none" stroke="#404040" d="M1169.36,-138.343C1155.51,-126.072 1139.96,-114.039 1124,-105 1060.19,-68.8525 852.903,-45.6974 743.718,-35.6955"/>
<polygon fill="none" stroke="#404040" points="743.497,-35.6756 737.162,-39.1205 731.546,-34.5977 737.881,-31.1528 743.497,-35.6756"/>
<text text-anchor="middle" x="1103.5" y="-79" font-family="Helvetica,sans-Serif" font-size="10.00"> +Justification</text>
</g>
<!-- Node36&#45;&gt;Node1 -->
<g id="edge19" class="edge"><title>Node36&#45;&gt;Node1</title>
<path fill="none" stroke="#404040" d="M799.454,-143.96C790.665,-130.756 780.546,-116.873 770,-105 756.81,-90.151 751.491,-88.4292 736,-76 731.516,-72.4022 726.801,-68.7041 722.063,-65.0427"/>
<polygon fill="none" stroke="#404040" points="721.899,-64.9171 714.703,-64.4461 712.371,-57.6227 719.566,-58.0937 721.899,-64.9171"/>
<text text-anchor="middle" x="767" y="-79" font-family="Helvetica,sans-Serif" font-size="10.00"> +Color</text>
</g>
</g>
</svg>
