<?xml version="1.0" encoding="UTF-8" standalone="no"?>
<!DOCTYPE svg PUBLIC "-//W3C//DTD SVG 1.1//EN"
 "http://www.w3.org/Graphics/SVG/1.1/DTD/svg11.dtd">
<!-- Generated by graphviz version 2.38.0 (20140413.2041)
 -->
<!-- Title: SDK::USafeZoneSlot Pages: 1 -->
<svg width="115pt" height="226pt"
 viewBox="0.00 0.00 115.00 226.00" xmlns="http://www.w3.org/2000/svg" xmlns:xlink="http://www.w3.org/1999/xlink">
<g id="graph0" class="graph" transform="scale(1 1) rotate(0) translate(4 222)">
<title>SDK::USafeZoneSlot</title>
<!-- Node1 -->
<g id="node1" class="node"><title>Node1</title>
<g id="a_node1"><a xlink:title=" ">
<polygon fill="#bfbfbf" stroke="black" points="0,-0.5 0,-112.5 107,-112.5 107,-0.5 0,-0.5"/>
<text text-anchor="middle" x="53.5" y="-100.5" font-family="Helvetica,sans-Serif" font-size="10.00">SDK::USafeZoneSlot</text>
<polyline fill="none" stroke="black" points="0,-93.5 107,-93.5 "/>
<text text-anchor="start" x="8" y="-81.5" font-family="Helvetica,sans-Serif" font-size="10.00">+ bIsTitleSafe</text>
<text text-anchor="start" x="8" y="-70.5" font-family="Helvetica,sans-Serif" font-size="10.00">+ HAlign</text>
<text text-anchor="start" x="8" y="-59.5" font-family="Helvetica,sans-Serif" font-size="10.00">+ VAlign</text>
<text text-anchor="start" x="8" y="-48.5" font-family="Helvetica,sans-Serif" font-size="10.00">+ UnknownData00</text>
<text text-anchor="start" x="8" y="-37.5" font-family="Helvetica,sans-Serif" font-size="10.00">+ Padding</text>
<text text-anchor="start" x="8" y="-26.5" font-family="Helvetica,sans-Serif" font-size="10.00">+ UnknownData01</text>
<polyline fill="none" stroke="black" points="0,-19.5 107,-19.5 "/>
<text text-anchor="start" x="8" y="-7.5" font-family="Helvetica,sans-Serif" font-size="10.00">+ StaticClass()</text>
</a>
</g>
</g>
<!-- Node2 -->
<g id="node2" class="node"><title>Node2</title>
<g id="a_node2"><a xlink:href="a35535.html" target="_top" xlink:title=" ">
<polygon fill="none" stroke="red" points="7.5,-149.5 7.5,-217.5 99.5,-217.5 99.5,-149.5 7.5,-149.5"/>
<text text-anchor="middle" x="53.5" y="-205.5" font-family="Helvetica,sans-Serif" font-size="10.00">SDK::UPanelSlot</text>
<polyline fill="none" stroke="red" points="7.5,-198.5 99.5,-198.5 "/>
<text text-anchor="start" x="15.5" y="-186.5" font-family="Helvetica,sans-Serif" font-size="10.00">+ Parent</text>
<text text-anchor="start" x="15.5" y="-175.5" font-family="Helvetica,sans-Serif" font-size="10.00">+ Content</text>
<polyline fill="none" stroke="red" points="7.5,-168.5 99.5,-168.5 "/>
<text text-anchor="start" x="15.5" y="-156.5" font-family="Helvetica,sans-Serif" font-size="10.00">+ StaticClass()</text>
</a>
</g>
</g>
<!-- Node2&#45;&gt;Node1 -->
<g id="edge1" class="edge"><title>Node2&#45;&gt;Node1</title>
<path fill="none" stroke="midnightblue" d="M53.5,-139.182C53.5,-130.604 53.5,-121.493 53.5,-112.585"/>
<polygon fill="none" stroke="midnightblue" points="50.0001,-139.33 53.5,-149.33 57.0001,-139.331 50.0001,-139.33"/>
</g>
</g>
</svg>
