<?xml version="1.0" encoding="UTF-8" standalone="no"?>
<!DOCTYPE svg PUBLIC "-//W3C//DTD SVG 1.1//EN"
 "http://www.w3.org/Graphics/SVG/1.1/DTD/svg11.dtd">
<!-- Generated by graphviz version 2.38.0 (20140413.2041)
 -->
<!-- Title: SDK::UPanelWidget Pages: 1 -->
<!--zoomable 573 -->
<svg id="main" version="1.1" xmlns="http://www.w3.org/2000/svg" xmlns:xlink="http://www.w3.org/1999/xlink" xml:space="preserve" onload="init(evt)">
<style type="text/css"><![CDATA[
.edge:hover path { stroke: red; }
.edge:hover polygon { stroke: red; fill: red; }
]]></style>
<script type="text/javascript"><![CDATA[
var edges = document.getElementsByTagName('g');
if (edges && edges.length) {
  for (var i=0;i<edges.length;i++) {
    if (edges[i].id.substr(0,4)=='edge') {
      edges[i].setAttribute('class','edge');
    }
  }
}
]]></script>
        <defs>
                <circle id="rim" cx="0" cy="0" r="7"/>
                <circle id="rim2" cx="0" cy="0" r="3.5"/>
                <g id="zoomPlus">
                        <use xlink:href="#rim" fill="#404040">
                                <set attributeName="fill" to="#808080" begin="zoomplus.mouseover" end="zoomplus.mouseout"/>
                        </use>
                        <path d="M-4,0h8M0,-4v8" fill="none" stroke="white" stroke-width="1.5" pointer-events="none"/>
                </g>
                <g id="zoomMin">
                        <use xlink:href="#rim" fill="#404040">
                                <set attributeName="fill" to="#808080" begin="zoomminus.mouseover" end="zoomminus.mouseout"/>
                        </use>
                        <path d="M-4,0h8" fill="none" stroke="white" stroke-width="1.5" pointer-events="none"/>
                </g>
                <g id="dirArrow">
                        <path fill="none" stroke="white" stroke-width="1.5" d="M0,-3.0v7 M-2.5,-0.5L0,-3.0L2.5,-0.5"/>
                </g>
               <g id="resetDef">
                       <use xlink:href="#rim2" fill="#404040">
                               <set attributeName="fill" to="#808080" begin="reset.mouseover" end="reset.mouseout"/>
                       </use>
               </g>
        </defs>

<script type="text/javascript">
var viewWidth = 477;
var viewHeight = 573;
var sectionId = 'dynsection-1';
</script>
<script xlink:href="svgpan.js"/>
<svg id="graph" class="graph">
<g id="viewport">
<title>SDK::UPanelWidget</title>
<!-- Node1 -->
<g id="node1" class="node"><title>Node1</title>
<g id="a_node1"><a xlink:title=" ">
<polygon fill="#bfbfbf" stroke="black" points="127.461,-0.5 127.461,-156.5 235.461,-156.5 235.461,-0.5 127.461,-0.5"/>
<text text-anchor="middle" x="181.461" y="-144.5" font-family="Helvetica,sans-Serif" font-size="10.00">SDK::UPanelWidget</text>
<polyline fill="none" stroke="black" points="127.461,-137.5 235.461,-137.5 "/>
<text text-anchor="middle" x="181.461" y="-125.5" font-family="Helvetica,sans-Serif" font-size="10.00"> </text>
<polyline fill="none" stroke="black" points="127.461,-118.5 235.461,-118.5 "/>
<text text-anchor="start" x="135.461" y="-106.5" font-family="Helvetica,sans-Serif" font-size="10.00">+ RemoveChildAt()</text>
<text text-anchor="start" x="135.461" y="-95.5" font-family="Helvetica,sans-Serif" font-size="10.00">+ RemoveChild()</text>
<text text-anchor="start" x="135.461" y="-84.5" font-family="Helvetica,sans-Serif" font-size="10.00">+ HasChild()</text>
<text text-anchor="start" x="135.461" y="-73.5" font-family="Helvetica,sans-Serif" font-size="10.00">+ HasAnyChildren()</text>
<text text-anchor="start" x="135.461" y="-62.5" font-family="Helvetica,sans-Serif" font-size="10.00">+ GetChildrenCount()</text>
<text text-anchor="start" x="135.461" y="-51.5" font-family="Helvetica,sans-Serif" font-size="10.00">+ GetChildIndex()</text>
<text text-anchor="start" x="135.461" y="-40.5" font-family="Helvetica,sans-Serif" font-size="10.00">+ GetChildAt()</text>
<text text-anchor="start" x="135.461" y="-29.5" font-family="Helvetica,sans-Serif" font-size="10.00">+ ClearChildren()</text>
<text text-anchor="start" x="135.461" y="-18.5" font-family="Helvetica,sans-Serif" font-size="10.00">+ AddChild()</text>
<text text-anchor="start" x="135.461" y="-7.5" font-family="Helvetica,sans-Serif" font-size="10.00">+ StaticClass()</text>
</a>
</g>
</g>
<!-- Node2 -->
<g id="node2" class="node"><title>Node2</title>
<g id="a_node2"><a xlink:href="a35523.html" target="_top" xlink:title=" ">
<polygon fill="none" stroke="red" points="110.961,-204.5 110.961,-382.5 251.961,-382.5 251.961,-204.5 110.961,-204.5"/>
<text text-anchor="middle" x="181.461" y="-370.5" font-family="Helvetica,sans-Serif" font-size="10.00">SDK::UWidget</text>
<polyline fill="none" stroke="red" points="110.961,-363.5 251.961,-363.5 "/>
<text text-anchor="middle" x="181.461" y="-351.5" font-family="Helvetica,sans-Serif" font-size="10.00"> </text>
<polyline fill="none" stroke="red" points="110.961,-344.5 251.961,-344.5 "/>
<text text-anchor="start" x="118.961" y="-332.5" font-family="Helvetica,sans-Serif" font-size="10.00">+ SetVisibility()</text>
<text text-anchor="start" x="118.961" y="-321.5" font-family="Helvetica,sans-Serif" font-size="10.00">+ SetUserFocus()</text>
<text text-anchor="start" x="118.961" y="-310.5" font-family="Helvetica,sans-Serif" font-size="10.00">+ SetToolTipText()</text>
<text text-anchor="start" x="118.961" y="-299.5" font-family="Helvetica,sans-Serif" font-size="10.00">+ SetToolTip()</text>
<text text-anchor="start" x="118.961" y="-288.5" font-family="Helvetica,sans-Serif" font-size="10.00">+ SetRenderTranslation()</text>
<text text-anchor="start" x="118.961" y="-277.5" font-family="Helvetica,sans-Serif" font-size="10.00">+ SetRenderTransformPivot()</text>
<text text-anchor="start" x="118.961" y="-266.5" font-family="Helvetica,sans-Serif" font-size="10.00">+ SetRenderTransform()</text>
<text text-anchor="start" x="118.961" y="-255.5" font-family="Helvetica,sans-Serif" font-size="10.00">+ SetRenderShear()</text>
<text text-anchor="start" x="118.961" y="-244.5" font-family="Helvetica,sans-Serif" font-size="10.00">+ SetRenderScale()</text>
<text text-anchor="start" x="118.961" y="-233.5" font-family="Helvetica,sans-Serif" font-size="10.00">+ SetRenderAngle()</text>
<text text-anchor="start" x="118.961" y="-222.5" font-family="Helvetica,sans-Serif" font-size="10.00">and 35 more...</text>
<text text-anchor="start" x="118.961" y="-211.5" font-family="Helvetica,sans-Serif" font-size="10.00">+ StaticClass()</text>
</a>
</g>
</g>
<!-- Node2&#45;&gt;Node1 -->
<g id="edge1" class="edge"><title>Node2&#45;&gt;Node1</title>
<path fill="none" stroke="midnightblue" d="M181.461,-194.272C181.461,-181.676 181.461,-168.925 181.461,-156.728"/>
<polygon fill="none" stroke="midnightblue" points="177.961,-194.327 181.461,-204.327 184.961,-194.327 177.961,-194.327"/>
</g>
<!-- Node2&#45;&gt;Node2 -->
<g id="edge3" class="edge"><title>Node2&#45;&gt;Node2</title>
<path fill="none" stroke="#404040" d="M252.287,-312.55C262.83,-309.585 269.961,-303.234 269.961,-293.5 269.961,-287.72 267.447,-283.133 263.198,-279.74"/>
<polygon fill="none" stroke="#404040" points="263.085,-279.685 255.941,-280.667 252.287,-274.45 259.431,-273.468 263.085,-279.685"/>
<text text-anchor="middle" x="305.461" y="-291" font-family="Helvetica,sans-Serif" font-size="10.00"> +ToolTipWidget</text>
</g>
<!-- Node13 -->
<g id="node3" class="node"><title>Node13</title>
<g id="a_node3"><a xlink:title=" ">
<polygon fill="none" stroke="#bfbfbf" points="44.9613,-507.5 44.9613,-564.5 79.9613,-564.5 79.9613,-507.5 44.9613,-507.5"/>
<text text-anchor="middle" x="62.4613" y="-552.5" font-family="Helvetica,sans-Serif" font-size="10.00">char</text>
<polyline fill="none" stroke="#bfbfbf" points="44.9613,-545.5 79.9613,-545.5 "/>
<text text-anchor="middle" x="62.4613" y="-533.5" font-family="Helvetica,sans-Serif" font-size="10.00"> </text>
<polyline fill="none" stroke="#bfbfbf" points="44.9613,-526.5 79.9613,-526.5 "/>
<text text-anchor="middle" x="62.4613" y="-514.5" font-family="Helvetica,sans-Serif" font-size="10.00"> </text>
</a>
</g>
</g>
<!-- Node13&#45;&gt;Node1 -->
<g id="edge4" class="edge"><title>Node13&#45;&gt;Node1</title>
<path fill="none" stroke="#404040" d="M49.1473,-507.14C22.9056,-447.962 -28.7724,-306.738 21.4613,-204 41.2866,-163.453 81.3969,-132.288 116.496,-111.28"/>
<polygon fill="none" stroke="#404040" points="116.813,-111.097 120.003,-104.63 127.199,-105.087 124.009,-111.554 116.813,-111.097"/>
<text text-anchor="middle" x="61.4613" y="-291" font-family="Helvetica,sans-Serif" font-size="10.00"> +UnknownData00</text>
</g>
<!-- Node13&#45;&gt;Node2 -->
<g id="edge2" class="edge"><title>Node13&#45;&gt;Node2</title>
<path fill="none" stroke="#404040" d="M76.1121,-507.412C89.8983,-479.549 112.017,-434.847 132.436,-393.58"/>
<polygon fill="none" stroke="#404040" points="132.541,-393.369 131.617,-386.217 137.863,-382.613 138.787,-389.765 132.541,-393.369"/>
<text text-anchor="middle" x="166.961" y="-481" font-family="Helvetica,sans-Serif" font-size="10.00"> +UnknownData01</text>
<text text-anchor="middle" x="166.961" y="-470" font-family="Helvetica,sans-Serif" font-size="10.00">+UnknownData02</text>
<text text-anchor="middle" x="166.961" y="-459" font-family="Helvetica,sans-Serif" font-size="10.00">+UnknownData03</text>
<text text-anchor="middle" x="166.961" y="-448" font-family="Helvetica,sans-Serif" font-size="10.00">+UnknownData04</text>
<text text-anchor="middle" x="166.961" y="-437" font-family="Helvetica,sans-Serif" font-size="10.00">+UnknownData05</text>
<text text-anchor="middle" x="166.961" y="-426" font-family="Helvetica,sans-Serif" font-size="10.00">+UnknownData06</text>
<text text-anchor="middle" x="166.961" y="-415" font-family="Helvetica,sans-Serif" font-size="10.00">+bOverride_Cursor</text>
<text text-anchor="middle" x="166.961" y="-404" font-family="Helvetica,sans-Serif" font-size="10.00">+UnknownData00</text>
</g>
<!-- Node28 -->
<g id="node4" class="node"><title>Node28</title>
<g id="a_node4"><a xlink:href="a25823.html" target="_top" xlink:title=" ">
<polygon fill="none" stroke="black" points="359.461,-237.5 359.461,-349.5 469.461,-349.5 469.461,-237.5 359.461,-237.5"/>
<text text-anchor="start" x="367.461" y="-337.5" font-family="Helvetica,sans-Serif" font-size="10.00">SDK::TArray&lt; class</text>
<text text-anchor="middle" x="414.461" y="-326.5" font-family="Helvetica,sans-Serif" font-size="10.00"> SDK::UPanelSlot * &gt;</text>
<polyline fill="none" stroke="black" points="359.461,-319.5 469.461,-319.5 "/>
<text text-anchor="middle" x="414.461" y="-307.5" font-family="Helvetica,sans-Serif" font-size="10.00"> </text>
<polyline fill="none" stroke="black" points="359.461,-300.5 469.461,-300.5 "/>
<text text-anchor="start" x="367.461" y="-288.5" font-family="Helvetica,sans-Serif" font-size="10.00">+ TArray()</text>
<text text-anchor="start" x="367.461" y="-277.5" font-family="Helvetica,sans-Serif" font-size="10.00">+ Num()</text>
<text text-anchor="start" x="367.461" y="-266.5" font-family="Helvetica,sans-Serif" font-size="10.00">+ operator[]()</text>
<text text-anchor="start" x="367.461" y="-255.5" font-family="Helvetica,sans-Serif" font-size="10.00">+ operator[]()</text>
<text text-anchor="start" x="367.461" y="-244.5" font-family="Helvetica,sans-Serif" font-size="10.00">+ IsValidIndex()</text>
</a>
</g>
</g>
<!-- Node28&#45;&gt;Node1 -->
<g id="edge5" class="edge"><title>Node28&#45;&gt;Node1</title>
<path fill="none" stroke="#404040" d="M377.708,-237.067C369.045,-225.609 359.415,-213.996 349.461,-204 318.239,-172.644 278.662,-142.923 245.765,-120.388"/>
<polygon fill="none" stroke="#404040" points="245.723,-120.359 238.512,-120.307 235.787,-113.631 242.998,-113.683 245.723,-120.359"/>
<text text-anchor="middle" x="345.461" y="-178" font-family="Helvetica,sans-Serif" font-size="10.00"> +Slots</text>
</g>
</g>
</svg>
        <g id="navigator" transform="translate(0 0)" fill="#404254">
                <rect fill="#f2f5e9" fill-opacity="0.5" stroke="#606060" stroke-width=".5" x="0" y="0" width="60" height="60"/>
                <use id="zoomplus" xlink:href="#zoomPlus" x="17" y="9" onmousedown="handleZoom(evt,'in')"/>
                <use id="zoomminus" xlink:href="#zoomMin" x="42" y="9" onmousedown="handleZoom(evt,'out')"/>
                <use id="reset" xlink:href="#resetDef" x="30" y="36" onmousedown="handleReset()"/>
                <g id="arrowUp" xlink:href="#dirArrow" transform="translate(30 24)" onmousedown="handlePan(0,-1)">
                  <use xlink:href="#rim" fill="#404040">
                        <set attributeName="fill" to="#808080" begin="arrowUp.mouseover" end="arrowUp.mouseout"/>
                  </use>
                  <path fill="none" stroke="white" stroke-width="1.5" d="M0,-3.0v7 M-2.5,-0.5L0,-3.0L2.5,-0.5"/>
                </g>
                <g id="arrowRight" xlink:href="#dirArrow" transform="rotate(90) translate(36 -43)" onmousedown="handlePan(1,0)">
                  <use xlink:href="#rim" fill="#404040">
                        <set attributeName="fill" to="#808080" begin="arrowRight.mouseover" end="arrowRight.mouseout"/>
                  </use>
                  <path fill="none" stroke="white" stroke-width="1.5" d="M0,-3.0v7 M-2.5,-0.5L0,-3.0L2.5,-0.5"/>
                </g>
                <g id="arrowDown" xlink:href="#dirArrow" transform="rotate(180) translate(-30 -48)" onmousedown="handlePan(0,1)">
                  <use xlink:href="#rim" fill="#404040">
                        <set attributeName="fill" to="#808080" begin="arrowDown.mouseover" end="arrowDown.mouseout"/>
                  </use>
                  <path fill="none" stroke="white" stroke-width="1.5" d="M0,-3.0v7 M-2.5,-0.5L0,-3.0L2.5,-0.5"/>
                </g>
                <g id="arrowLeft" xlink:href="#dirArrow" transform="rotate(270) translate(-36 17)" onmousedown="handlePan(-1,0)">
                  <use xlink:href="#rim" fill="#404040">
                        <set attributeName="fill" to="#808080" begin="arrowLeft.mouseover" end="arrowLeft.mouseout"/>
                  </use>
                  <path fill="none" stroke="white" stroke-width="1.5" d="M0,-3.0v7 M-2.5,-0.5L0,-3.0L2.5,-0.5"/>
                </g>
        </g>
        <svg viewBox="0 0 15 15" width="100%" height="30px" preserveAspectRatio="xMaxYMin meet">
         <g id="arrow_out" transform="scale(0.3 0.3)">
          <a xlink:href="a35633_org.svg" target="_base">
           <rect id="button" ry="5" rx="5" y="6" x="6" height="38" width="38"
                fill="#f2f5e9" fill-opacity="0.5" stroke="#606060" stroke-width="1.0"/>
           <path id="arrow"
             d="M 11.500037,31.436501 C 11.940474,20.09759 22.043105,11.32322 32.158766,21.979434 L 37.068811,17.246167 C 37.068811,17.246167 37.088388,32 37.088388,32 L 22.160133,31.978069 C 22.160133,31.978069 26.997745,27.140456 26.997745,27.140456 C 18.528582,18.264221 13.291696,25.230495 11.500037,31.436501 z"
             style="fill:#404040;"/>
          </a>
         </g>
        </svg>
</svg>
