<?xml version="1.0" encoding="UTF-8" standalone="no"?>
<!DOCTYPE svg PUBLIC "-//W3C//DTD SVG 1.1//EN"
 "http://www.w3.org/Graphics/SVG/1.1/DTD/svg11.dtd">
<!-- Generated by graphviz version 2.38.0 (20140413.2041)
 -->
<!-- Title: SDK::UScaleBox Pages: 1 -->
<svg width="687pt" height="248pt"
 viewBox="0.00 0.00 687.00 248.00" xmlns="http://www.w3.org/2000/svg" xmlns:xlink="http://www.w3.org/1999/xlink">
<g id="graph0" class="graph" transform="scale(1 1) rotate(0) translate(4 244)">
<title>SDK::UScaleBox</title>
<!-- Node1 -->
<g id="node1" class="node"><title>Node1</title>
<g id="a_node1"><a xlink:title=" ">
<polygon fill="#bfbfbf" stroke="black" points="343,-0.5 343,-57.5 435,-57.5 435,-0.5 343,-0.5"/>
<text text-anchor="middle" x="389" y="-45.5" font-family="Helvetica,sans-Serif" font-size="10.00">SDK::UScaleBox</text>
<polyline fill="none" stroke="black" points="343,-38.5 435,-38.5 "/>
<text text-anchor="middle" x="389" y="-26.5" font-family="Helvetica,sans-Serif" font-size="10.00"> </text>
<polyline fill="none" stroke="black" points="343,-19.5 435,-19.5 "/>
<text text-anchor="start" x="351" y="-7.5" font-family="Helvetica,sans-Serif" font-size="10.00">+ StaticClass()</text>
</a>
</g>
</g>
<!-- Node2 -->
<g id="node2" class="node"><title>Node2</title>
<g id="a_node2"><a xlink:href="a35643.html" target="_top" xlink:title=" ">
<polygon fill="none" stroke="red" points="0,-144 0,-212 114,-212 114,-144 0,-144"/>
<text text-anchor="middle" x="57" y="-200" font-family="Helvetica,sans-Serif" font-size="10.00">SDK::UContentWidget</text>
<polyline fill="none" stroke="red" points="0,-193 114,-193 "/>
<text text-anchor="middle" x="57" y="-181" font-family="Helvetica,sans-Serif" font-size="10.00"> </text>
<polyline fill="none" stroke="red" points="0,-174 114,-174 "/>
<text text-anchor="start" x="8" y="-162" font-family="Helvetica,sans-Serif" font-size="10.00">+ GetContentSlot()</text>
<text text-anchor="start" x="8" y="-151" font-family="Helvetica,sans-Serif" font-size="10.00">+ StaticClass()</text>
</a>
</g>
</g>
<!-- Node2&#45;&gt;Node1 -->
<g id="edge1" class="edge"><title>Node2&#45;&gt;Node1</title>
<path fill="none" stroke="midnightblue" d="M94.7195,-137.02C103.453,-129.281 113.105,-121.789 123,-116 194.005,-74.4565 287.595,-50.2242 342.735,-38.5916"/>
<polygon fill="none" stroke="midnightblue" points="92.2873,-134.502 87.2983,-143.848 97.027,-139.653 92.2873,-134.502"/>
</g>
<!-- Node31 -->
<g id="node3" class="node"><title>Node31</title>
<g id="a_node3"><a xlink:href="a25847.html" target="_top" xlink:title=" ">
<polygon fill="none" stroke="black" points="132,-122 132,-234 294,-234 294,-122 132,-122"/>
<text text-anchor="middle" x="213" y="-222" font-family="Helvetica,sans-Serif" font-size="10.00">SDK::TEnumAsByte&lt; EStretch &gt;</text>
<polyline fill="none" stroke="black" points="132,-215 294,-215 "/>
<text text-anchor="middle" x="213" y="-203" font-family="Helvetica,sans-Serif" font-size="10.00"> </text>
<polyline fill="none" stroke="black" points="132,-196 294,-196 "/>
<text text-anchor="start" x="140" y="-184" font-family="Helvetica,sans-Serif" font-size="10.00">+ TEnumAsByte()</text>
<text text-anchor="start" x="140" y="-173" font-family="Helvetica,sans-Serif" font-size="10.00">+ TEnumAsByte()</text>
<text text-anchor="start" x="140" y="-162" font-family="Helvetica,sans-Serif" font-size="10.00">+ TEnumAsByte()</text>
<text text-anchor="start" x="140" y="-151" font-family="Helvetica,sans-Serif" font-size="10.00">+ TEnumAsByte()</text>
<text text-anchor="start" x="140" y="-140" font-family="Helvetica,sans-Serif" font-size="10.00">+ operator EStretch()</text>
<text text-anchor="start" x="140" y="-129" font-family="Helvetica,sans-Serif" font-size="10.00">+ GetValue()</text>
</a>
</g>
</g>
<!-- Node31&#45;&gt;Node1 -->
<g id="edge2" class="edge"><title>Node31&#45;&gt;Node1</title>
<path fill="none" stroke="#404040" d="M279.037,-121.844C301.604,-102.996 326.229,-82.428 346.445,-65.5433"/>
<polygon fill="none" stroke="#404040" points="346.482,-65.5122 348.523,-58.5959 355.692,-57.8197 353.651,-64.736 346.482,-65.5122"/>
<text text-anchor="middle" x="353.5" y="-84.5" font-family="Helvetica,sans-Serif" font-size="10.00"> +Stretch</text>
</g>
<!-- Node32 -->
<g id="node4" class="node"><title>Node32</title>
<g id="a_node4"><a xlink:href="a25847.html" target="_top" xlink:title=" ">
<polygon fill="none" stroke="black" points="312.5,-116.5 312.5,-239.5 465.5,-239.5 465.5,-116.5 312.5,-116.5"/>
<text text-anchor="start" x="320.5" y="-227.5" font-family="Helvetica,sans-Serif" font-size="10.00">SDK::TEnumAsByte&lt; EStretch</text>
<text text-anchor="middle" x="389" y="-216.5" font-family="Helvetica,sans-Serif" font-size="10.00">Direction &gt;</text>
<polyline fill="none" stroke="black" points="312.5,-209.5 465.5,-209.5 "/>
<text text-anchor="middle" x="389" y="-197.5" font-family="Helvetica,sans-Serif" font-size="10.00"> </text>
<polyline fill="none" stroke="black" points="312.5,-190.5 465.5,-190.5 "/>
<text text-anchor="start" x="320.5" y="-178.5" font-family="Helvetica,sans-Serif" font-size="10.00">+ TEnumAsByte()</text>
<text text-anchor="start" x="320.5" y="-167.5" font-family="Helvetica,sans-Serif" font-size="10.00">+ TEnumAsByte()</text>
<text text-anchor="start" x="320.5" y="-156.5" font-family="Helvetica,sans-Serif" font-size="10.00">+ TEnumAsByte()</text>
<text text-anchor="start" x="320.5" y="-145.5" font-family="Helvetica,sans-Serif" font-size="10.00">+ TEnumAsByte()</text>
<text text-anchor="start" x="320.5" y="-134.5" font-family="Helvetica,sans-Serif" font-size="10.00">+ operator EStretchDirection()</text>
<text text-anchor="start" x="320.5" y="-123.5" font-family="Helvetica,sans-Serif" font-size="10.00">+ GetValue()</text>
</a>
</g>
</g>
<!-- Node32&#45;&gt;Node1 -->
<g id="edge3" class="edge"><title>Node32&#45;&gt;Node1</title>
<path fill="none" stroke="#404040" d="M389,-116.361C389,-100.739 389,-84.3162 389,-70.0364"/>
<polygon fill="none" stroke="#404040" points="389,-69.6091 385,-63.6092 389,-57.6091 393,-63.6091 389,-69.6091"/>
<text text-anchor="middle" x="428.5" y="-84.5" font-family="Helvetica,sans-Serif" font-size="10.00"> +StretchDirection</text>
</g>
<!-- Node18 -->
<g id="node5" class="node"><title>Node18</title>
<g id="a_node5"><a xlink:title=" ">
<polygon fill="none" stroke="#bfbfbf" points="483.5,-149.5 483.5,-206.5 518.5,-206.5 518.5,-149.5 483.5,-149.5"/>
<text text-anchor="middle" x="501" y="-194.5" font-family="Helvetica,sans-Serif" font-size="10.00">float</text>
<polyline fill="none" stroke="#bfbfbf" points="483.5,-187.5 518.5,-187.5 "/>
<text text-anchor="middle" x="501" y="-175.5" font-family="Helvetica,sans-Serif" font-size="10.00"> </text>
<polyline fill="none" stroke="#bfbfbf" points="483.5,-168.5 518.5,-168.5 "/>
<text text-anchor="middle" x="501" y="-156.5" font-family="Helvetica,sans-Serif" font-size="10.00"> </text>
</a>
</g>
</g>
<!-- Node18&#45;&gt;Node1 -->
<g id="edge4" class="edge"><title>Node18&#45;&gt;Node1</title>
<path fill="none" stroke="#404040" d="M498.787,-149.074C495.782,-127.172 488.699,-96.9841 472,-76 464.843,-67.0064 455.423,-59.4984 445.504,-53.3342"/>
<polygon fill="none" stroke="#404040" points="445.491,-53.3266 438.298,-53.8352 435.062,-47.3909 442.255,-46.8824 445.491,-53.3266"/>
<text text-anchor="middle" x="533" y="-84.5" font-family="Helvetica,sans-Serif" font-size="10.00"> +UserSpecifiedScale</text>
</g>
<!-- Node15 -->
<g id="node6" class="node"><title>Node15</title>
<g id="a_node6"><a xlink:title=" ">
<polygon fill="none" stroke="#bfbfbf" points="595.5,-149.5 595.5,-206.5 630.5,-206.5 630.5,-149.5 595.5,-149.5"/>
<text text-anchor="middle" x="613" y="-194.5" font-family="Helvetica,sans-Serif" font-size="10.00">char</text>
<polyline fill="none" stroke="#bfbfbf" points="595.5,-187.5 630.5,-187.5 "/>
<text text-anchor="middle" x="613" y="-175.5" font-family="Helvetica,sans-Serif" font-size="10.00"> </text>
<polyline fill="none" stroke="#bfbfbf" points="595.5,-168.5 630.5,-168.5 "/>
<text text-anchor="middle" x="613" y="-156.5" font-family="Helvetica,sans-Serif" font-size="10.00"> </text>
</a>
</g>
</g>
<!-- Node15&#45;&gt;Node1 -->
<g id="edge5" class="edge"><title>Node15&#45;&gt;Node1</title>
<path fill="none" stroke="#404040" d="M612.39,-149.102C610.36,-126.311 603.808,-94.8805 584,-76 564.52,-57.4319 497.342,-44.5041 447.247,-37.1821"/>
<polygon fill="none" stroke="#404040" points="447.123,-37.1646 440.622,-40.2856 435.241,-35.4853 441.741,-32.3643 447.123,-37.1646"/>
<text text-anchor="middle" x="639" y="-90" font-family="Helvetica,sans-Serif" font-size="10.00"> +UnknownData01</text>
<text text-anchor="middle" x="639" y="-79" font-family="Helvetica,sans-Serif" font-size="10.00">+UnknownData00</text>
</g>
</g>
</svg>
