<?xml version="1.0" encoding="UTF-8" standalone="no"?>
<!DOCTYPE svg PUBLIC "-//W3C//DTD SVG 1.1//EN"
 "http://www.w3.org/Graphics/SVG/1.1/DTD/svg11.dtd">
<!-- Generated by graphviz version 2.38.0 (20140413.2041)
 -->
<!-- Title: SDK::FWatercraftDespawnTelemetryEvent Pages: 1 -->
<svg width="444pt" height="270pt"
 viewBox="0.00 0.00 444.00 270.00" xmlns="http://www.w3.org/2000/svg" xmlns:xlink="http://www.w3.org/1999/xlink">
<g id="graph0" class="graph" transform="scale(1 1) rotate(0) translate(4 266)">
<title>SDK::FWatercraftDespawnTelemetryEvent</title>
<!-- Node1 -->
<g id="node1" class="node"><title>Node1</title>
<g id="a_node1"><a xlink:title=" ">
<polygon fill="#bfbfbf" stroke="black" points="172.5,-0.5 172.5,-68.5 348.5,-68.5 348.5,-0.5 172.5,-0.5"/>
<text text-anchor="start" x="180.5" y="-56.5" font-family="Helvetica,sans-Serif" font-size="10.00">SDK::FWatercraftDespawnTelemetry</text>
<text text-anchor="middle" x="260.5" y="-45.5" font-family="Helvetica,sans-Serif" font-size="10.00">Event</text>
<polyline fill="none" stroke="black" points="172.5,-38.5 348.5,-38.5 "/>
<text text-anchor="middle" x="260.5" y="-26.5" font-family="Helvetica,sans-Serif" font-size="10.00"> </text>
<polyline fill="none" stroke="black" points="172.5,-19.5 348.5,-19.5 "/>
<text text-anchor="middle" x="260.5" y="-7.5" font-family="Helvetica,sans-Serif" font-size="10.00"> </text>
</a>
</g>
</g>
<!-- Node2 -->
<g id="node2" class="node"><title>Node2</title>
<g id="a_node2"><a xlink:href="a25635.html" target="_top" xlink:title=" ">
<polygon fill="none" stroke="black" points="0,-122 0,-256 167,-256 167,-122 0,-122"/>
<text text-anchor="start" x="8" y="-244" font-family="Helvetica,sans-Serif" font-size="10.00">SDK::TEnumAsByte&lt; EWatercraft</text>
<text text-anchor="middle" x="83.5" y="-233" font-family="Helvetica,sans-Serif" font-size="10.00">DespawnReason &gt;</text>
<polyline fill="none" stroke="black" points="0,-226 167,-226 "/>
<text text-anchor="middle" x="83.5" y="-214" font-family="Helvetica,sans-Serif" font-size="10.00"> </text>
<polyline fill="none" stroke="black" points="0,-207 167,-207 "/>
<text text-anchor="start" x="8" y="-195" font-family="Helvetica,sans-Serif" font-size="10.00">+ TEnumAsByte()</text>
<text text-anchor="start" x="8" y="-184" font-family="Helvetica,sans-Serif" font-size="10.00">+ TEnumAsByte()</text>
<text text-anchor="start" x="8" y="-173" font-family="Helvetica,sans-Serif" font-size="10.00">+ TEnumAsByte()</text>
<text text-anchor="start" x="8" y="-162" font-family="Helvetica,sans-Serif" font-size="10.00">+ TEnumAsByte()</text>
<text text-anchor="start" x="8" y="-151" font-family="Helvetica,sans-Serif" font-size="10.00">+ operator EWatercraftDespawn</text>
<text text-anchor="start" x="8" y="-140" font-family="Helvetica,sans-Serif" font-size="10.00">Reason()</text>
<text text-anchor="start" x="8" y="-129" font-family="Helvetica,sans-Serif" font-size="10.00">+ GetValue()</text>
</a>
</g>
</g>
<!-- Node2&#45;&gt;Node1 -->
<g id="edge1" class="edge"><title>Node2&#45;&gt;Node1</title>
<path fill="none" stroke="#404040" d="M111.768,-121.975C119.402,-109.221 128.627,-96.7982 139.5,-87 146.222,-80.9426 153.762,-75.5264 161.707,-70.698"/>
<polygon fill="none" stroke="#404040" points="161.902,-70.5881 165.158,-64.1539 172.349,-64.6848 169.093,-71.119 161.902,-70.5881"/>
<text text-anchor="middle" x="180.5" y="-90" font-family="Helvetica,sans-Serif" font-size="10.00"> +DespawnReason</text>
</g>
<!-- Node3 -->
<g id="node3" class="node"><title>Node3</title>
<g id="a_node3"><a xlink:href="a26075.html" target="_top" xlink:title=" ">
<polygon fill="none" stroke="red" points="185,-116.5 185,-261.5 264,-261.5 264,-116.5 185,-116.5"/>
<text text-anchor="middle" x="224.5" y="-249.5" font-family="Helvetica,sans-Serif" font-size="10.00">SDK::FVector</text>
<polyline fill="none" stroke="red" points="185,-242.5 264,-242.5 "/>
<text text-anchor="middle" x="224.5" y="-230.5" font-family="Helvetica,sans-Serif" font-size="10.00"> </text>
<polyline fill="none" stroke="red" points="185,-223.5 264,-223.5 "/>
<text text-anchor="start" x="193" y="-211.5" font-family="Helvetica,sans-Serif" font-size="10.00">+ FVector()</text>
<text text-anchor="start" x="193" y="-200.5" font-family="Helvetica,sans-Serif" font-size="10.00">+ FVector()</text>
<text text-anchor="start" x="193" y="-189.5" font-family="Helvetica,sans-Serif" font-size="10.00">+ operator+()</text>
<text text-anchor="start" x="193" y="-178.5" font-family="Helvetica,sans-Serif" font-size="10.00">+ operator&#45;()</text>
<text text-anchor="start" x="193" y="-167.5" font-family="Helvetica,sans-Serif" font-size="10.00">+ operator*()</text>
<text text-anchor="start" x="193" y="-156.5" font-family="Helvetica,sans-Serif" font-size="10.00">+ operator=()</text>
<text text-anchor="start" x="193" y="-145.5" font-family="Helvetica,sans-Serif" font-size="10.00">+ operator+=()</text>
<text text-anchor="start" x="193" y="-134.5" font-family="Helvetica,sans-Serif" font-size="10.00">+ operator&#45;=()</text>
<text text-anchor="start" x="193" y="-123.5" font-family="Helvetica,sans-Serif" font-size="10.00">+ operator*=()</text>
</a>
</g>
</g>
<!-- Node3&#45;&gt;Node1 -->
<g id="edge2" class="edge"><title>Node3&#45;&gt;Node1</title>
<path fill="none" stroke="#404040" d="M222.759,-116.317C223.836,-106.332 225.642,-96.3108 228.5,-87 229.248,-84.5628 230.141,-82.1259 231.144,-79.7109"/>
<polygon fill="none" stroke="#404040" points="231.274,-79.4443 230.3,-72.2992 236.521,-68.652 237.495,-75.797 231.274,-79.4443"/>
<text text-anchor="middle" x="251.5" y="-90" font-family="Helvetica,sans-Serif" font-size="10.00"> +Location</text>
</g>
<!-- Node5 -->
<g id="node4" class="node"><title>Node5</title>
<g id="a_node4"><a xlink:title=" ">
<polygon fill="none" stroke="#bfbfbf" points="282,-160.5 282,-217.5 317,-217.5 317,-160.5 282,-160.5"/>
<text text-anchor="middle" x="299.5" y="-205.5" font-family="Helvetica,sans-Serif" font-size="10.00">char</text>
<polyline fill="none" stroke="#bfbfbf" points="282,-198.5 317,-198.5 "/>
<text text-anchor="middle" x="299.5" y="-186.5" font-family="Helvetica,sans-Serif" font-size="10.00"> </text>
<polyline fill="none" stroke="#bfbfbf" points="282,-179.5 317,-179.5 "/>
<text text-anchor="middle" x="299.5" y="-167.5" font-family="Helvetica,sans-Serif" font-size="10.00"> </text>
</a>
</g>
</g>
<!-- Node5&#45;&gt;Node1 -->
<g id="edge3" class="edge"><title>Node5&#45;&gt;Node1</title>
<path fill="none" stroke="#404040" d="M292.773,-160.091C287.835,-139.788 280.901,-111.653 274.5,-87 273.948,-84.8729 273.378,-82.6978 272.798,-80.502"/>
<polygon fill="none" stroke="#404040" points="272.746,-80.308 267.333,-75.5438 269.649,-68.7146 275.062,-73.4789 272.746,-80.308"/>
<text text-anchor="middle" x="316.5" y="-90" font-family="Helvetica,sans-Serif" font-size="10.00"> +UnknownData00</text>
</g>
<!-- Node6 -->
<g id="node5" class="node"><title>Node6</title>
<g id="a_node5"><a xlink:href="a26071.html" target="_top" xlink:title=" ">
<polygon fill="none" stroke="red" points="363,-138.5 363,-239.5 436,-239.5 436,-138.5 363,-138.5"/>
<text text-anchor="middle" x="399.5" y="-227.5" font-family="Helvetica,sans-Serif" font-size="10.00">SDK::FGuid</text>
<polyline fill="none" stroke="red" points="363,-220.5 436,-220.5 "/>
<text text-anchor="middle" x="399.5" y="-208.5" font-family="Helvetica,sans-Serif" font-size="10.00"> </text>
<polyline fill="none" stroke="red" points="363,-201.5 436,-201.5 "/>
<text text-anchor="start" x="371" y="-189.5" font-family="Helvetica,sans-Serif" font-size="10.00">+ FGuid()</text>
<text text-anchor="start" x="371" y="-178.5" font-family="Helvetica,sans-Serif" font-size="10.00">+ FGuid()</text>
<text text-anchor="start" x="371" y="-167.5" font-family="Helvetica,sans-Serif" font-size="10.00">+ operator()()</text>
<text text-anchor="start" x="371" y="-156.5" font-family="Helvetica,sans-Serif" font-size="10.00">+ operator[]()</text>
<text text-anchor="start" x="371" y="-145.5" font-family="Helvetica,sans-Serif" font-size="10.00">+ operator[]()</text>
</a>
</g>
</g>
<!-- Node6&#45;&gt;Node1 -->
<g id="edge4" class="edge"><title>Node6&#45;&gt;Node1</title>
<path fill="none" stroke="#404040" d="M388.224,-138.327C382.278,-120.566 373.438,-101.403 360.5,-87 357.05,-83.1593 353.246,-79.5625 349.198,-76.2004"/>
<polygon fill="none" stroke="#404040" points="348.94,-76.0056 341.741,-75.584 339.362,-68.7768 346.56,-69.1984 348.94,-76.0056"/>
<text text-anchor="middle" x="398.5" y="-90" font-family="Helvetica,sans-Serif" font-size="10.00"> +WatercraftId</text>
</g>
</g>
</svg>
