<?xml version="1.0" encoding="UTF-8" standalone="no"?>
<!DOCTYPE svg PUBLIC "-//W3C//DTD SVG 1.1//EN"
 "http://www.w3.org/Graphics/SVG/1.1/DTD/svg11.dtd">
<!-- Generated by graphviz version 2.38.0 (20140413.2041)
 -->
<!-- Title: SDK::FBuoyancySampleMovement Pages: 1 -->
<svg width="397pt" height="353pt"
 viewBox="0.00 0.00 396.80 353.00" xmlns="http://www.w3.org/2000/svg" xmlns:xlink="http://www.w3.org/1999/xlink">
<g id="graph0" class="graph" transform="scale(1 1) rotate(0) translate(4 349)">
<title>SDK::FBuoyancySampleMovement</title>
<!-- Node1 -->
<g id="node1" class="node"><title>Node1</title>
<g id="a_node1"><a xlink:title=" ">
<polygon fill="#bfbfbf" stroke="black" points="65.3002,-0.5 65.3002,-57.5 235.3,-57.5 235.3,-0.5 65.3002,-0.5"/>
<text text-anchor="middle" x="150.3" y="-45.5" font-family="Helvetica,sans-Serif" font-size="10.00">SDK::FBuoyancySampleMovement</text>
<polyline fill="none" stroke="black" points="65.3002,-38.5 235.3,-38.5 "/>
<text text-anchor="middle" x="150.3" y="-26.5" font-family="Helvetica,sans-Serif" font-size="10.00"> </text>
<polyline fill="none" stroke="black" points="65.3002,-19.5 235.3,-19.5 "/>
<text text-anchor="middle" x="150.3" y="-7.5" font-family="Helvetica,sans-Serif" font-size="10.00"> </text>
</a>
</g>
</g>
<!-- Node2 -->
<g id="node2" class="node"><title>Node2</title>
<g id="a_node2"><a xlink:href="a27039.html" target="_top" xlink:title=" ">
<polygon fill="none" stroke="red" points="102.8,-144 102.8,-212 197.8,-212 197.8,-144 102.8,-144"/>
<text text-anchor="middle" x="150.3" y="-200" font-family="Helvetica,sans-Serif" font-size="10.00">SDK::UCurveFloat</text>
<polyline fill="none" stroke="red" points="102.8,-193 197.8,-193 "/>
<text text-anchor="middle" x="150.3" y="-181" font-family="Helvetica,sans-Serif" font-size="10.00"> </text>
<polyline fill="none" stroke="red" points="102.8,-174 197.8,-174 "/>
<text text-anchor="start" x="110.8" y="-162" font-family="Helvetica,sans-Serif" font-size="10.00">+ GetFloatValue()</text>
<text text-anchor="start" x="110.8" y="-151" font-family="Helvetica,sans-Serif" font-size="10.00">+ StaticClass()</text>
</a>
</g>
</g>
<!-- Node2&#45;&gt;Node1 -->
<g id="edge1" class="edge"><title>Node2&#45;&gt;Node1</title>
<path fill="none" stroke="#404040" d="M150.3,-143.643C150.3,-121.773 150.3,-93.061 150.3,-69.9694"/>
<polygon fill="none" stroke="#404040" points="150.3,-69.7981 146.3,-63.7981 150.3,-57.7981 154.3,-63.798 150.3,-69.7981"/>
<text text-anchor="middle" x="202.8" y="-90" font-family="Helvetica,sans-Serif" font-size="10.00"> +BuoyancyScalarCurve</text>
<text text-anchor="middle" x="202.8" y="-79" font-family="Helvetica,sans-Serif" font-size="10.00">+ProbeMovementCurve</text>
</g>
<!-- Node13 -->
<g id="node3" class="node"><title>Node13</title>
<g id="a_node3"><a xlink:title=" ">
<polygon fill="none" stroke="#bfbfbf" points="30.8002,-287.5 30.8002,-344.5 65.8002,-344.5 65.8002,-287.5 30.8002,-287.5"/>
<text text-anchor="middle" x="48.3002" y="-332.5" font-family="Helvetica,sans-Serif" font-size="10.00">char</text>
<polyline fill="none" stroke="#bfbfbf" points="30.8002,-325.5 65.8002,-325.5 "/>
<text text-anchor="middle" x="48.3002" y="-313.5" font-family="Helvetica,sans-Serif" font-size="10.00"> </text>
<polyline fill="none" stroke="#bfbfbf" points="30.8002,-306.5 65.8002,-306.5 "/>
<text text-anchor="middle" x="48.3002" y="-294.5" font-family="Helvetica,sans-Serif" font-size="10.00"> </text>
</a>
</g>
</g>
<!-- Node13&#45;&gt;Node1 -->
<g id="edge3" class="edge"><title>Node13&#45;&gt;Node1</title>
<path fill="none" stroke="#404040" d="M32.7987,-287.407C12.4616,-247.191 -17.2548,-171.257 13.3002,-116 25.5625,-93.8243 46.2014,-76.5968 67.7883,-63.5844"/>
<polygon fill="none" stroke="#404040" points="67.9984,-63.4649 71.2361,-57.0215 78.4291,-57.5318 75.1915,-63.9753 67.9984,-63.4649"/>
<text text-anchor="middle" x="53.3002" y="-181" font-family="Helvetica,sans-Serif" font-size="10.00"> +UnknownData01</text>
<text text-anchor="middle" x="53.3002" y="-170" font-family="Helvetica,sans-Serif" font-size="10.00">+UnknownData00</text>
</g>
<!-- Node13&#45;&gt;Node2 -->
<g id="edge2" class="edge"><title>Node13&#45;&gt;Node2</title>
<path fill="none" stroke="#404040" d="M65.8346,-291.621C80.1243,-272.568 100.69,-245.147 117.95,-222.134"/>
<polygon fill="none" stroke="#404040" points="118.164,-221.848 118.564,-214.648 125.364,-212.248 124.964,-219.448 118.164,-221.848"/>
<text text-anchor="middle" x="130.3" y="-261" font-family="Helvetica,sans-Serif" font-size="10.00"> +UnknownData00</text>
</g>
<!-- Node22 -->
<g id="node4" class="node"><title>Node22</title>
<g id="a_node4"><a xlink:href="a25823.html" target="_top" xlink:title=" ">
<polygon fill="none" stroke="black" points="215.8,-116.5 215.8,-239.5 388.8,-239.5 388.8,-116.5 215.8,-116.5"/>
<text text-anchor="start" x="223.8" y="-227.5" font-family="Helvetica,sans-Serif" font-size="10.00">SDK::TArray&lt; struct</text>
<text text-anchor="start" x="223.8" y="-216.5" font-family="Helvetica,sans-Serif" font-size="10.00"> SDK::FBuoyancySampleMovement</text>
<text text-anchor="middle" x="302.3" y="-205.5" font-family="Helvetica,sans-Serif" font-size="10.00">Configuration &gt;</text>
<polyline fill="none" stroke="black" points="215.8,-198.5 388.8,-198.5 "/>
<text text-anchor="middle" x="302.3" y="-186.5" font-family="Helvetica,sans-Serif" font-size="10.00"> </text>
<polyline fill="none" stroke="black" points="215.8,-179.5 388.8,-179.5 "/>
<text text-anchor="start" x="223.8" y="-167.5" font-family="Helvetica,sans-Serif" font-size="10.00">+ TArray()</text>
<text text-anchor="start" x="223.8" y="-156.5" font-family="Helvetica,sans-Serif" font-size="10.00">+ Num()</text>
<text text-anchor="start" x="223.8" y="-145.5" font-family="Helvetica,sans-Serif" font-size="10.00">+ operator[]()</text>
<text text-anchor="start" x="223.8" y="-134.5" font-family="Helvetica,sans-Serif" font-size="10.00">+ operator[]()</text>
<text text-anchor="start" x="223.8" y="-123.5" font-family="Helvetica,sans-Serif" font-size="10.00">+ IsValidIndex()</text>
</a>
</g>
</g>
<!-- Node22&#45;&gt;Node1 -->
<g id="edge4" class="edge"><title>Node22&#45;&gt;Node1</title>
<path fill="none" stroke="#404040" d="M285.277,-116.266C278.961,-101.71 270.503,-87.1673 259.3,-76 254.957,-71.6701 250.143,-67.7245 245.029,-64.1324"/>
<polygon fill="none" stroke="#404040" points="244.985,-64.1045 237.776,-64.251 234.868,-57.6523 242.077,-57.5058 244.985,-64.1045"/>
<text text-anchor="middle" x="311.8" y="-84.5" font-family="Helvetica,sans-Serif" font-size="10.00"> +Configurations</text>
</g>
</g>
</svg>
