<?xml version="1.0" encoding="UTF-8" standalone="no"?>
<!DOCTYPE svg PUBLIC "-//W3C//DTD SVG 1.1//EN"
 "http://www.w3.org/Graphics/SVG/1.1/DTD/svg11.dtd">
<!-- Generated by graphviz version 2.38.0 (20140413.2041)
 -->
<!-- Title: SDK::FWatercraftRolloverCorrector Pages: 1 -->
<svg width="232pt" height="204pt"
 viewBox="0.00 0.00 231.50 204.00" xmlns="http://www.w3.org/2000/svg" xmlns:xlink="http://www.w3.org/1999/xlink">
<g id="graph0" class="graph" transform="scale(1 1) rotate(0) translate(4 200)">
<title>SDK::FWatercraftRolloverCorrector</title>
<!-- Node1 -->
<g id="node1" class="node"><title>Node1</title>
<g id="a_node1"><a xlink:title=" ">
<polygon fill="#bfbfbf" stroke="black" points="4.5,-0.5 4.5,-68.5 132.5,-68.5 132.5,-0.5 4.5,-0.5"/>
<text text-anchor="start" x="12.5" y="-56.5" font-family="Helvetica,sans-Serif" font-size="10.00">SDK::FWatercraftRollover</text>
<text text-anchor="middle" x="68.5" y="-45.5" font-family="Helvetica,sans-Serif" font-size="10.00">Corrector</text>
<polyline fill="none" stroke="black" points="4.5,-38.5 132.5,-38.5 "/>
<text text-anchor="middle" x="68.5" y="-26.5" font-family="Helvetica,sans-Serif" font-size="10.00"> </text>
<polyline fill="none" stroke="black" points="4.5,-19.5 132.5,-19.5 "/>
<text text-anchor="middle" x="68.5" y="-7.5" font-family="Helvetica,sans-Serif" font-size="10.00"> </text>
</a>
</g>
</g>
<!-- Node2 -->
<g id="node2" class="node"><title>Node2</title>
<g id="a_node2"><a xlink:title=" ">
<polygon fill="none" stroke="#bfbfbf" points="0,-138.5 0,-195.5 35,-195.5 35,-138.5 0,-138.5"/>
<text text-anchor="middle" x="17.5" y="-183.5" font-family="Helvetica,sans-Serif" font-size="10.00">char</text>
<polyline fill="none" stroke="#bfbfbf" points="0,-176.5 35,-176.5 "/>
<text text-anchor="middle" x="17.5" y="-164.5" font-family="Helvetica,sans-Serif" font-size="10.00"> </text>
<polyline fill="none" stroke="#bfbfbf" points="0,-157.5 35,-157.5 "/>
<text text-anchor="middle" x="17.5" y="-145.5" font-family="Helvetica,sans-Serif" font-size="10.00"> </text>
</a>
</g>
</g>
<!-- Node2&#45;&gt;Node1 -->
<g id="edge1" class="edge"><title>Node2&#45;&gt;Node1</title>
<path fill="none" stroke="#404040" d="M12.9407,-138.302C11.5527,-122.669 11.8508,-103.101 18.5,-87 19.6862,-84.1277 21.1157,-81.3262 22.73,-78.6092"/>
<polygon fill="none" stroke="#404040" points="22.8697,-78.4094 23.0308,-71.2 29.7476,-68.5759 29.5864,-75.7853 22.8697,-78.4094"/>
<text text-anchor="middle" x="58.5" y="-101" font-family="Helvetica,sans-Serif" font-size="10.00"> +UnknownData00</text>
</g>
<!-- Node3 -->
<g id="node3" class="node"><title>Node3</title>
<g id="a_node3"><a xlink:title=" ">
<polygon fill="none" stroke="#bfbfbf" points="103,-138.5 103,-195.5 138,-195.5 138,-138.5 103,-138.5"/>
<text text-anchor="middle" x="120.5" y="-183.5" font-family="Helvetica,sans-Serif" font-size="10.00">float</text>
<polyline fill="none" stroke="#bfbfbf" points="103,-176.5 138,-176.5 "/>
<text text-anchor="middle" x="120.5" y="-164.5" font-family="Helvetica,sans-Serif" font-size="10.00"> </text>
<polyline fill="none" stroke="#bfbfbf" points="103,-157.5 138,-157.5 "/>
<text text-anchor="middle" x="120.5" y="-145.5" font-family="Helvetica,sans-Serif" font-size="10.00"> </text>
</a>
</g>
</g>
<!-- Node3&#45;&gt;Node1 -->
<g id="edge2" class="edge"><title>Node3&#45;&gt;Node1</title>
<path fill="none" stroke="#404040" d="M114.641,-138.359C110.917,-122.922 105.478,-103.526 98.5,-87 97.4535,-84.5216 96.3101,-82.0154 95.1003,-79.5126"/>
<polygon fill="none" stroke="#404040" points="94.9945,-79.3085 88.6798,-75.8263 89.4655,-68.6581 95.7801,-72.1403 94.9945,-79.3085"/>
<text text-anchor="middle" x="166.5" y="-112" font-family="Helvetica,sans-Serif" font-size="10.00"> +TorqueScalar</text>
<text text-anchor="start" x="109.5" y="-101" font-family="Helvetica,sans-Serif" font-size="10.00">+RollThresholdToConsider</text>
<text text-anchor="middle" x="166.5" y="-90" font-family="Helvetica,sans-Serif" font-size="10.00">RolledOver</text>
</g>
</g>
</svg>
