<?xml version="1.0" encoding="UTF-8" standalone="no"?>
<!DOCTYPE svg PUBLIC "-//W3C//DTD SVG 1.1//EN"
 "http://www.w3.org/Graphics/SVG/1.1/DTD/svg11.dtd">
<!-- Generated by graphviz version 2.38.0 (20140413.2041)
 -->
<!-- Title: SDK::FRowboatMountStateTelemetryEvent Pages: 1 -->
<svg width="378pt" height="248pt"
 viewBox="0.00 0.00 377.50 248.00" xmlns="http://www.w3.org/2000/svg" xmlns:xlink="http://www.w3.org/1999/xlink">
<g id="graph0" class="graph" transform="scale(1 1) rotate(0) translate(4 244)">
<title>SDK::FRowboatMountStateTelemetryEvent</title>
<!-- Node1 -->
<g id="node1" class="node"><title>Node1</title>
<g id="a_node1"><a xlink:title=" ">
<polygon fill="#bfbfbf" stroke="black" points="131,-0.5 131,-68.5 310,-68.5 310,-0.5 131,-0.5"/>
<text text-anchor="start" x="139" y="-56.5" font-family="Helvetica,sans-Serif" font-size="10.00">SDK::FRowboatMountStateTelemetry</text>
<text text-anchor="middle" x="220.5" y="-45.5" font-family="Helvetica,sans-Serif" font-size="10.00">Event</text>
<polyline fill="none" stroke="black" points="131,-38.5 310,-38.5 "/>
<text text-anchor="middle" x="220.5" y="-26.5" font-family="Helvetica,sans-Serif" font-size="10.00"> </text>
<polyline fill="none" stroke="black" points="131,-19.5 310,-19.5 "/>
<text text-anchor="middle" x="220.5" y="-7.5" font-family="Helvetica,sans-Serif" font-size="10.00"> </text>
</a>
</g>
</g>
<!-- Node2 -->
<g id="node2" class="node"><title>Node2</title>
<g id="a_node2"><a xlink:href="a25847.html" target="_top" xlink:title=" ">
<polygon fill="none" stroke="black" points="0,-116.5 0,-239.5 185,-239.5 185,-116.5 0,-116.5"/>
<text text-anchor="start" x="8" y="-227.5" font-family="Helvetica,sans-Serif" font-size="10.00">SDK::TEnumAsByte&lt; ERowboat</text>
<text text-anchor="middle" x="92.5" y="-216.5" font-family="Helvetica,sans-Serif" font-size="10.00">ActionTelemetry &gt;</text>
<polyline fill="none" stroke="black" points="0,-209.5 185,-209.5 "/>
<text text-anchor="middle" x="92.5" y="-197.5" font-family="Helvetica,sans-Serif" font-size="10.00"> </text>
<polyline fill="none" stroke="black" points="0,-190.5 185,-190.5 "/>
<text text-anchor="start" x="8" y="-178.5" font-family="Helvetica,sans-Serif" font-size="10.00">+ TEnumAsByte()</text>
<text text-anchor="start" x="8" y="-167.5" font-family="Helvetica,sans-Serif" font-size="10.00">+ TEnumAsByte()</text>
<text text-anchor="start" x="8" y="-156.5" font-family="Helvetica,sans-Serif" font-size="10.00">+ TEnumAsByte()</text>
<text text-anchor="start" x="8" y="-145.5" font-family="Helvetica,sans-Serif" font-size="10.00">+ TEnumAsByte()</text>
<text text-anchor="start" x="8" y="-134.5" font-family="Helvetica,sans-Serif" font-size="10.00">+ operator ERowboatActionTelemetry()</text>
<text text-anchor="start" x="8" y="-123.5" font-family="Helvetica,sans-Serif" font-size="10.00">+ GetValue()</text>
</a>
</g>
</g>
<!-- Node2&#45;&gt;Node1 -->
<g id="edge1" class="edge"><title>Node2&#45;&gt;Node1</title>
<path fill="none" stroke="#404040" d="M129.65,-116.374C137.014,-106.128 145.087,-95.9306 153.5,-87 156.801,-83.496 160.356,-80.0441 164.047,-76.6886"/>
<polygon fill="none" stroke="#404040" points="164.355,-76.4222 166.276,-69.4716 173.431,-68.5715 171.51,-75.522 164.355,-76.4222"/>
<text text-anchor="middle" x="185" y="-90" font-family="Helvetica,sans-Serif" font-size="10.00"> +ActionName</text>
</g>
<!-- Node3 -->
<g id="node3" class="node"><title>Node3</title>
<g id="a_node3"><a xlink:title=" ">
<polygon fill="none" stroke="#bfbfbf" points="203,-149.5 203,-206.5 238,-206.5 238,-149.5 203,-149.5"/>
<text text-anchor="middle" x="220.5" y="-194.5" font-family="Helvetica,sans-Serif" font-size="10.00">char</text>
<polyline fill="none" stroke="#bfbfbf" points="203,-187.5 238,-187.5 "/>
<text text-anchor="middle" x="220.5" y="-175.5" font-family="Helvetica,sans-Serif" font-size="10.00"> </text>
<polyline fill="none" stroke="#bfbfbf" points="203,-168.5 238,-168.5 "/>
<text text-anchor="middle" x="220.5" y="-156.5" font-family="Helvetica,sans-Serif" font-size="10.00"> </text>
</a>
</g>
</g>
<!-- Node3&#45;&gt;Node1 -->
<g id="edge2" class="edge"><title>Node3&#45;&gt;Node1</title>
<path fill="none" stroke="#404040" d="M220.5,-149.381C220.5,-129.837 220.5,-103.193 220.5,-80.5898"/>
<polygon fill="none" stroke="#404040" points="220.5,-80.5192 216.5,-74.5192 220.5,-68.5192 224.5,-74.5192 220.5,-80.5192"/>
<text text-anchor="middle" x="260.5" y="-90" font-family="Helvetica,sans-Serif" font-size="10.00"> +UnknownData00</text>
</g>
<!-- Node4 -->
<g id="node4" class="node"><title>Node4</title>
<g id="a_node4"><a xlink:href="a26283.html" target="_top" xlink:title=" ">
<polygon fill="none" stroke="red" points="287,-127.5 287,-228.5 360,-228.5 360,-127.5 287,-127.5"/>
<text text-anchor="middle" x="323.5" y="-216.5" font-family="Helvetica,sans-Serif" font-size="10.00">SDK::FGuid</text>
<polyline fill="none" stroke="red" points="287,-209.5 360,-209.5 "/>
<text text-anchor="middle" x="323.5" y="-197.5" font-family="Helvetica,sans-Serif" font-size="10.00"> </text>
<polyline fill="none" stroke="red" points="287,-190.5 360,-190.5 "/>
<text text-anchor="start" x="295" y="-178.5" font-family="Helvetica,sans-Serif" font-size="10.00">+ FGuid()</text>
<text text-anchor="start" x="295" y="-167.5" font-family="Helvetica,sans-Serif" font-size="10.00">+ FGuid()</text>
<text text-anchor="start" x="295" y="-156.5" font-family="Helvetica,sans-Serif" font-size="10.00">+ operator()()</text>
<text text-anchor="start" x="295" y="-145.5" font-family="Helvetica,sans-Serif" font-size="10.00">+ operator[]()</text>
<text text-anchor="start" x="295" y="-134.5" font-family="Helvetica,sans-Serif" font-size="10.00">+ operator[]()</text>
</a>
</g>
</g>
<!-- Node4&#45;&gt;Node1 -->
<g id="edge3" class="edge"><title>Node4&#45;&gt;Node1</title>
<path fill="none" stroke="#404040" d="M318.387,-127.389C315.16,-113.381 309.936,-98.7644 301.5,-87 298.996,-83.5086 296.176,-80.1982 293.127,-77.0676"/>
<polygon fill="none" stroke="#404040" points="292.858,-76.8216 285.731,-75.7219 284.005,-68.7204 291.132,-69.8201 292.858,-76.8216"/>
<text text-anchor="middle" x="338.5" y="-90" font-family="Helvetica,sans-Serif" font-size="10.00"> +WatercraftId</text>
</g>
</g>
</svg>
