<?xml version="1.0" encoding="UTF-8" standalone="no"?>
<!DOCTYPE svg PUBLIC "-//W3C//DTD SVG 1.1//EN"
 "http://www.w3.org/Graphics/SVG/1.1/DTD/svg11.dtd">
<!-- Generated by graphviz version 2.38.0 (20140413.2041)
 -->
<!-- Title: SDK::UWatercraftSpawnData Pages: 1 -->
<svg width="528pt" height="309pt"
 viewBox="0.00 0.00 528.00 309.00" xmlns="http://www.w3.org/2000/svg" xmlns:xlink="http://www.w3.org/1999/xlink">
<g id="graph0" class="graph" transform="scale(1 1) rotate(0) translate(4 305)">
<title>SDK::UWatercraftSpawnData</title>
<!-- Node1 -->
<g id="node1" class="node"><title>Node1</title>
<g id="a_node1"><a xlink:title=" ">
<polygon fill="#bfbfbf" stroke="black" points="128,-0.5 128,-57.5 272,-57.5 272,-0.5 128,-0.5"/>
<text text-anchor="middle" x="200" y="-45.5" font-family="Helvetica,sans-Serif" font-size="10.00">SDK::UWatercraftSpawnData</text>
<polyline fill="none" stroke="black" points="128,-38.5 272,-38.5 "/>
<text text-anchor="middle" x="200" y="-26.5" font-family="Helvetica,sans-Serif" font-size="10.00"> </text>
<polyline fill="none" stroke="black" points="128,-19.5 272,-19.5 "/>
<text text-anchor="start" x="136" y="-7.5" font-family="Helvetica,sans-Serif" font-size="10.00">+ StaticClass()</text>
</a>
</g>
</g>
<!-- Node2 -->
<g id="node2" class="node"><title>Node2</title>
<g id="a_node2"><a xlink:href="a00563.html" target="_top" xlink:title=" ">
<polygon fill="none" stroke="red" points="0,-127.5 0,-184.5 118,-184.5 118,-127.5 0,-127.5"/>
<text text-anchor="middle" x="59" y="-172.5" font-family="Helvetica,sans-Serif" font-size="10.00">SDK::UItemSpawnData</text>
<polyline fill="none" stroke="red" points="0,-165.5 118,-165.5 "/>
<text text-anchor="middle" x="59" y="-153.5" font-family="Helvetica,sans-Serif" font-size="10.00"> </text>
<polyline fill="none" stroke="red" points="0,-146.5 118,-146.5 "/>
<text text-anchor="start" x="8" y="-134.5" font-family="Helvetica,sans-Serif" font-size="10.00">+ StaticClass()</text>
</a>
</g>
</g>
<!-- Node2&#45;&gt;Node1 -->
<g id="edge1" class="edge"><title>Node2&#45;&gt;Node1</title>
<path fill="none" stroke="midnightblue" d="M92.7731,-120.298C106.991,-106.159 123.938,-89.9037 140,-76 147.145,-69.8148 155.018,-63.4702 162.643,-57.545"/>
<polygon fill="none" stroke="midnightblue" points="90.1957,-117.925 85.6062,-127.475 95.1489,-122.872 90.1957,-117.925"/>
</g>
<!-- Node12 -->
<g id="node3" class="node"><title>Node12</title>
<g id="a_node3"><a xlink:title=" ">
<polygon fill="none" stroke="#bfbfbf" points="183.5,-243.5 183.5,-300.5 218.5,-300.5 218.5,-243.5 183.5,-243.5"/>
<text text-anchor="middle" x="201" y="-288.5" font-family="Helvetica,sans-Serif" font-size="10.00">char</text>
<polyline fill="none" stroke="#bfbfbf" points="183.5,-281.5 218.5,-281.5 "/>
<text text-anchor="middle" x="201" y="-269.5" font-family="Helvetica,sans-Serif" font-size="10.00"> </text>
<polyline fill="none" stroke="#bfbfbf" points="183.5,-262.5 218.5,-262.5 "/>
<text text-anchor="middle" x="201" y="-250.5" font-family="Helvetica,sans-Serif" font-size="10.00"> </text>
</a>
</g>
</g>
<!-- Node12&#45;&gt;Node1 -->
<g id="edge2" class="edge"><title>Node12&#45;&gt;Node1</title>
<path fill="none" stroke="#404040" d="M183.467,-244.067C175.531,-230.289 167.036,-212.895 163,-196 154.739,-161.417 155.827,-150.824 163,-116 166.312,-99.9213 172.77,-83.1434 179.376,-68.7207"/>
<polygon fill="none" stroke="#404040" points="179.463,-68.5391 178.448,-61.3998 184.648,-57.7173 185.663,-64.8567 179.463,-68.5391"/>
<text text-anchor="middle" x="203" y="-153.5" font-family="Helvetica,sans-Serif" font-size="10.00"> +UnknownData00</text>
</g>
<!-- Node9 -->
<g id="node5" class="node"><title>Node9</title>
<g id="a_node5"><a xlink:href="a26127.html" target="_top" xlink:title=" ">
<polygon fill="none" stroke="red" points="252.5,-116.5 252.5,-195.5 371.5,-195.5 371.5,-116.5 252.5,-116.5"/>
<text text-anchor="middle" x="312" y="-183.5" font-family="Helvetica,sans-Serif" font-size="10.00">SDK::UClass</text>
<polyline fill="none" stroke="red" points="252.5,-176.5 371.5,-176.5 "/>
<text text-anchor="middle" x="312" y="-164.5" font-family="Helvetica,sans-Serif" font-size="10.00"> </text>
<polyline fill="none" stroke="red" points="252.5,-157.5 371.5,-157.5 "/>
<text text-anchor="start" x="260.5" y="-145.5" font-family="Helvetica,sans-Serif" font-size="10.00">+ CreateDefaultObject()</text>
<text text-anchor="start" x="260.5" y="-134.5" font-family="Helvetica,sans-Serif" font-size="10.00">+ CreateDefaultObject()</text>
<text text-anchor="start" x="260.5" y="-123.5" font-family="Helvetica,sans-Serif" font-size="10.00">+ StaticClass()</text>
</a>
</g>
</g>
<!-- Node12&#45;&gt;Node9 -->
<g id="edge5" class="edge"><title>Node12&#45;&gt;Node9</title>
<path fill="none" stroke="#404040" d="M218.588,-252.936C231.29,-239.891 249.067,-221.634 265.707,-204.544"/>
<polygon fill="none" stroke="#404040" points="265.901,-204.344 267.221,-197.255 274.273,-195.747 272.953,-202.836 265.901,-204.344"/>
<text text-anchor="middle" x="297" y="-217" font-family="Helvetica,sans-Serif" font-size="10.00"> +UnknownData00</text>
</g>
<!-- Node14 -->
<g id="node4" class="node"><title>Node14</title>
<g id="a_node4"><a xlink:title=" ">
<polygon fill="none" stroke="#bfbfbf" points="389.5,-127.5 389.5,-184.5 424.5,-184.5 424.5,-127.5 389.5,-127.5"/>
<text text-anchor="middle" x="407" y="-172.5" font-family="Helvetica,sans-Serif" font-size="10.00">float</text>
<polyline fill="none" stroke="#bfbfbf" points="389.5,-165.5 424.5,-165.5 "/>
<text text-anchor="middle" x="407" y="-153.5" font-family="Helvetica,sans-Serif" font-size="10.00"> </text>
<polyline fill="none" stroke="#bfbfbf" points="389.5,-146.5 424.5,-146.5 "/>
<text text-anchor="middle" x="407" y="-134.5" font-family="Helvetica,sans-Serif" font-size="10.00"> </text>
</a>
</g>
</g>
<!-- Node14&#45;&gt;Node1 -->
<g id="edge3" class="edge"><title>Node14&#45;&gt;Node1</title>
<path fill="none" stroke="#404040" d="M390.105,-127.262C378.181,-109.993 360.679,-88.7193 340,-76 322.866,-65.4612 303.05,-57.0568 283.816,-50.4698"/>
<polygon fill="none" stroke="#404040" points="283.674,-50.4233 276.729,-52.3643 272.266,-46.7001 279.211,-44.7591 283.674,-50.4233"/>
<text text-anchor="start" x="367" y="-90" font-family="Helvetica,sans-Serif" font-size="10.00"> +MinDistanceToNearestWatercraft</text>
<text text-anchor="middle" x="443.5" y="-79" font-family="Helvetica,sans-Serif" font-size="10.00">InMetres</text>
</g>
<!-- Node9&#45;&gt;Node1 -->
<g id="edge4" class="edge"><title>Node9&#45;&gt;Node1</title>
<path fill="none" stroke="#404040" d="M277.482,-116.476C263.431,-100.793 247.252,-82.7361 233.324,-67.1922"/>
<polygon fill="none" stroke="#404040" points="232.99,-66.8196 226.007,-65.0202 224.983,-57.8823 231.966,-59.6817 232.99,-66.8196"/>
<text text-anchor="middle" x="298" y="-84.5" font-family="Helvetica,sans-Serif" font-size="10.00"> +WatercraftType</text>
</g>
</g>
</svg>
