<?xml version="1.0" encoding="UTF-8" standalone="no"?>
<!DOCTYPE svg PUBLIC "-//W3C//DTD SVG 1.1//EN"
 "http://www.w3.org/Graphics/SVG/1.1/DTD/svg11.dtd">
<!-- Generated by graphviz version 2.38.0 (20140413.2041)
 -->
<!-- Title: Graphical Class Hierarchy Pages: 1 -->
<svg width="315pt" height="104pt"
 viewBox="0.00 0.00 315.00 104.00" xmlns="http://www.w3.org/2000/svg" xmlns:xlink="http://www.w3.org/1999/xlink">
<g id="graph0" class="graph" transform="scale(1 1) rotate(0) translate(4 100)">
<title>Graphical Class Hierarchy</title>
<!-- Node0 -->
<g id="node1" class="node"><title>Node0</title>
<g id="a_node1"><a xlink:href="a29955.html" target="_top" xlink:title=" ">
<polygon fill="none" stroke="black" points="0,-38.5 0,-57.5 143,-57.5 143,-38.5 0,-38.5"/>
<text text-anchor="middle" x="71.5" y="-45.5" font-family="Helvetica,sans-Serif" font-size="10.00">SDK::FAnimLinkableElement</text>
</a>
</g>
</g>
<!-- Node1 -->
<g id="node2" class="node"><title>Node1</title>
<g id="a_node2"><a xlink:href="a29959.html" target="_top" xlink:title=" ">
<polygon fill="none" stroke="black" points="183,-76.5 183,-95.5 303,-95.5 303,-76.5 183,-76.5"/>
<text text-anchor="middle" x="243" y="-83.5" font-family="Helvetica,sans-Serif" font-size="10.00">SDK::FAnimNotifyEvent</text>
</a>
</g>
</g>
<!-- Node0&#45;&gt;Node1 -->
<g id="edge1" class="edge"><title>Node0&#45;&gt;Node1</title>
<path fill="none" stroke="midnightblue" d="M125.242,-59.8243C149.139,-65.1816 177.015,-71.4311 199.536,-76.4799"/>
<polygon fill="midnightblue" stroke="midnightblue" points="125.795,-56.3614 115.272,-57.589 124.264,-63.1919 125.795,-56.3614"/>
</g>
<!-- Node2 -->
<g id="node3" class="node"><title>Node2</title>
<g id="a_node3"><a xlink:href="a30451.html" target="_top" xlink:title=" ">
<polygon fill="none" stroke="black" points="185.5,-38.5 185.5,-57.5 300.5,-57.5 300.5,-38.5 185.5,-38.5"/>
<text text-anchor="middle" x="243" y="-45.5" font-family="Helvetica,sans-Serif" font-size="10.00">SDK::FBranchingPoint</text>
</a>
</g>
</g>
<!-- Node0&#45;&gt;Node2 -->
<g id="edge2" class="edge"><title>Node0&#45;&gt;Node2</title>
<path fill="none" stroke="midnightblue" d="M153.62,-48C164.327,-48 175.11,-48 185.286,-48"/>
<polygon fill="midnightblue" stroke="midnightblue" points="153.401,-44.5001 143.401,-48 153.401,-51.5001 153.401,-44.5001"/>
</g>
<!-- Node3 -->
<g id="node4" class="node"><title>Node3</title>
<g id="a_node4"><a xlink:href="a30435.html" target="_top" xlink:title=" ">
<polygon fill="none" stroke="black" points="179,-0.5 179,-19.5 307,-19.5 307,-0.5 179,-0.5"/>
<text text-anchor="middle" x="243" y="-7.5" font-family="Helvetica,sans-Serif" font-size="10.00">SDK::FCompositeSection</text>
</a>
</g>
</g>
<!-- Node0&#45;&gt;Node3 -->
<g id="edge3" class="edge"><title>Node0&#45;&gt;Node3</title>
<path fill="none" stroke="midnightblue" d="M125.242,-36.1757C149.139,-30.8184 177.015,-24.5689 199.536,-19.5201"/>
<polygon fill="midnightblue" stroke="midnightblue" points="124.264,-32.8081 115.272,-38.411 125.795,-39.6386 124.264,-32.8081"/>
</g>
</g>
</svg>
